<?xml version='1.0' encoding='utf-8'?>
<!DOCTYPE svg PUBLIC '-//W3C//DTD SVG 1.1//EN' 'http://www.w3.org/Graphics/SVG/1.1/DTD/svg11.dtd'>
<!-- Generator: Adobe Illustrator 14.0.0, SVG Export Plug-In . SVG Version: 6.00 Build 43363)  -->
<svg xmlns="http://www.w3.org/2000/svg" width="0.70225in" xml:space="preserve" xmlns:xml="http://www.w3.org/XML/1998/namespace" x="0px" version="1.1" y="0px" height="0.780111in" viewBox="0 0 50.562 56.168" id="svg" enable-background="new 0 0 50.562 56.168">
 <rect xmlns="http://www.w3.org/2000/svg" width="2.14" x="20.073" y="53.018" fill="#919191" height="3.148" id="connector0pin"/>
 <rect xmlns="http://www.w3.org/2000/svg" width="2.159" x="27.292" y="53.018" fill="#919191" height="3.146" id="connector1pin"/>
 <rect xmlns="http://www.w3.org/2000/svg" width="2.14" x="20.073" y="55.768" fill="#919191" height="0.4" id="connector0terminal"/>
 <rect xmlns="http://www.w3.org/2000/svg" width="2.159" x="27.292" y="55.766" fill="#919191" height="0.402" id="connector1terminal"/>
 <rect xmlns="http://www.w3.org/2000/svg" width="2.994" x="19.925" y="47.928" fill="#8B8B8B" height="8.24" id="bb"/>
 <rect xmlns="http://www.w3.org/2000/svg" width="2.994" x="27.111" y="47.928" fill="#8B8B8B" height="8.24" id="aa"/>
 <path xmlns="http://www.w3.org/2000/svg" fill="none" stroke="#000000" stroke-width="3" d="M21.416,37.566v10.361"/>
 <path xmlns="http://www.w3.org/2000/svg" fill="none" stroke="#000000" stroke-width="3" d="M28.643,37.566c0,0,0,6.123,0,10.361"/>
 <ellipse xmlns="http://www.w3.org/2000/svg" fill="#8B8B8B" cx="25.014" cy="15.211" rx="17.54" ry="7.316"/>
 <path xmlns="http://www.w3.org/2000/svg" fill="#262626" d="M7.474,35.217c0,4.043,7.854,7.316,17.54,7.316c9.688,0,17.54-3.273,17.54-7.316V15.211c0,4.042-7.853,7.316-17.54,7.316c-9.687,0-17.54-3.273-17.54-7.316V35.217z"/>
 <g xmlns="http://www.w3.org/2000/svg">
  <path xmlns="http://www.w3.org/2000/svg" opacity="0.63" enable-background="new    " d="M7.474,15.211v20.004c0,2.553,3.142,4.801,7.893,6.109V21.319C10.616,20.009,7.474,17.765,7.474,15.211z"/>
 </g>
 <path xmlns="http://www.w3.org/2000/svg" fill="#8B8B8B" d="M41.947,18.347v17.509c0.385-0.604,0.607-1.234,0.607-1.889V16.46C42.554,17.114,42.331,17.744,41.947,18.347z"/>
 <g xmlns="http://www.w3.org/2000/svg">
  <g xmlns="http://www.w3.org/2000/svg">
   <g xmlns="http://www.w3.org/2000/svg" enable-background="new    ">
    <g xmlns="http://www.w3.org/2000/svg" enable-background="new    ">
     <g xmlns="http://www.w3.org/2000/svg" enable-background="new    ">
      <path xmlns="http://www.w3.org/2000/svg" fill="#141414" d="M0.065,24.584h50.432c-0.011,0.047-0.03,0.088-0.06,0.123c-0.03,0.035-0.068,0.063-0.116,0.086s-0.104,0.04-0.168,0.051c-0.064,0.011-0.138,0.017-0.217,0.017h-4.898H42.58h-2.463h-4.938h-4.947h-4.954H22.8h-2.478h-2.477h-2.474h-2.471h-2.47H7.967h-2.46H3.051H0.602c-0.076,0-0.146-0.006-0.207-0.017c-0.062-0.011-0.116-0.028-0.161-0.051c-0.046-0.023-0.083-0.051-0.112-0.086C0.093,24.672,0.075,24.631,0.065,24.584"/>
     </g>
    </g>
    <g xmlns="http://www.w3.org/2000/svg">
     <polygon xmlns="http://www.w3.org/2000/svg" fill="#131313" points="50.552,24.313 50.496,24.584 0.065,24.584 0.007,24.313 "/>
    </g>
    <g xmlns="http://www.w3.org/2000/svg" enable-background="new    ">
     <g xmlns="http://www.w3.org/2000/svg" enable-background="new    ">
      <polyline xmlns="http://www.w3.org/2000/svg" fill="#535353" points="39.699,10.357 10.01,10.357 10.008,10.354 10.006,10.351 10.004,10.348 10.002,10.344 39.705,10.344 39.704,10.348 39.703,10.351 39.701,10.354 39.699,10.357 "/>
      <polyline xmlns="http://www.w3.org/2000/svg" fill="#4B4B4B" points="39.705,10.344 10.002,10.344 10,10.34 9.998,10.336 9.996,10.332 9.994,10.328 39.714,10.328 39.712,10.332 39.71,10.336 39.707,10.34 39.705,10.344 "/>
      <polyline xmlns="http://www.w3.org/2000/svg" fill="#404040" points="39.714,10.328 9.994,10.328 9.991,10.324 9.989,10.32 9.987,10.316 9.984,10.312 39.722,10.312 39.72,10.316 39.718,10.32 39.716,10.324 39.714,10.328 "/>
      <polyline xmlns="http://www.w3.org/2000/svg" fill="#262626" points="39.722,10.312 9.984,10.312 9.982,10.308 9.979,10.304 9.977,10.3 9.974,10.296 39.732,10.296 39.73,10.3 39.727,10.304 39.724,10.308 39.722,10.312 "/>
      <polyline xmlns="http://www.w3.org/2000/svg" fill="#252525" points="39.732,10.296 9.974,10.296 9.972,10.291 9.97,10.288 9.968,10.284 9.966,10.28 39.741,10.28 39.738,10.284 39.736,10.288 39.734,10.291 39.732,10.296 "/>
      <polyline xmlns="http://www.w3.org/2000/svg" fill="#242424" points="39.741,10.28 9.966,10.28 9.964,10.276 9.961,10.271 9.959,10.268 9.957,10.264 39.749,10.264 39.746,10.268 39.745,10.271 39.743,10.276 39.741,10.28 "/>
      <polyline xmlns="http://www.w3.org/2000/svg" fill="#242424" points="39.749,10.264 9.957,10.264 9.955,10.26 9.952,10.256 9.95,10.252 9.948,10.248 39.757,10.248 39.755,10.252 39.753,10.256 39.751,10.26 39.749,10.264 "/>
      <polyline xmlns="http://www.w3.org/2000/svg" fill="#232323" points="39.757,10.248 9.948,10.248 9.946,10.244 9.943,10.24 9.941,10.236 9.939,10.232 39.765,10.232 39.763,10.236 39.761,10.24 39.76,10.244 39.757,10.248 "/>
      <polyline xmlns="http://www.w3.org/2000/svg" fill="#222222" points="39.765,10.232 9.939,10.232 9.936,10.228 9.934,10.225 9.931,10.221 9.929,10.217 39.775,10.217 39.773,10.221 39.771,10.225 39.768,10.228 39.765,10.232 "/>
      <polyline xmlns="http://www.w3.org/2000/svg" fill="#212121" points="39.775,10.217 9.929,10.217 9.927,10.213 9.925,10.209 9.923,10.205 9.921,10.202 39.784,10.202 39.781,10.205 39.779,10.209 39.777,10.213 39.775,10.217 "/>
      <polyline xmlns="http://www.w3.org/2000/svg" fill="#212121" points="39.784,10.202 9.921,10.202 9.917,10.196 9.914,10.19 9.911,10.185 9.908,10.18 39.795,10.18 39.792,10.185 39.789,10.19 39.787,10.196 39.784,10.202 "/>
      <polyline xmlns="http://www.w3.org/2000/svg" fill="#202020" points="39.795,10.18 9.908,10.18 9.905,10.174 9.901,10.168 9.897,10.162 9.894,10.156 39.809,10.156 39.804,10.162 39.802,10.168 39.798,10.174 39.795,10.18 "/>
      <polyline xmlns="http://www.w3.org/2000/svg" fill="#1F1F1F" points="39.809,10.156 9.894,10.156 9.89,10.15 9.886,10.144 9.884,10.139 9.88,10.133 39.822,10.133 39.819,10.139 39.815,10.144 39.812,10.15 39.809,10.156 "/>
      <polyline xmlns="http://www.w3.org/2000/svg" fill="#1E1E1E" points="39.822,10.133 9.88,10.133 9.877,10.127 9.873,10.121 9.87,10.115 9.866,10.109 39.835,10.109 39.831,10.115 39.829,10.121 39.825,10.127 39.822,10.133 "/>
      <polyline xmlns="http://www.w3.org/2000/svg" fill="#1E1E1E" points="39.835,10.109 9.866,10.109 9.863,10.103 9.859,10.098 9.856,10.092 9.852,10.087 39.847,10.087 39.844,10.092 39.841,10.098 39.838,10.103 39.835,10.109 "/>
      <polyline xmlns="http://www.w3.org/2000/svg" fill="#1D1D1D" points="39.847,10.087 9.852,10.087 9.848,10.081 9.845,10.075 9.842,10.07 9.839,10.064 39.861,10.064 39.858,10.07 39.855,10.075 39.851,10.081 39.847,10.087 "/>
      <polyline xmlns="http://www.w3.org/2000/svg" fill="#1C1C1C" points="39.861,10.064 9.839,10.064 9.834,10.057 9.83,10.049 9.826,10.042 9.821,10.035 39.878,10.035 39.873,10.042 39.87,10.049 39.866,10.057 39.861,10.064 "/>
      <polyline xmlns="http://www.w3.org/2000/svg" fill="#1B1B1B" points="39.878,10.035 9.821,10.035 9.814,10.023 9.807,10.013 9.801,10.002 9.794,9.992 39.904,9.992 39.897,10.002 39.89,10.013 39.884,10.023 39.878,10.035 "/>
      <polyline xmlns="http://www.w3.org/2000/svg" fill="#1B1B1B" points="39.904,9.992 9.794,9.992 9.788,9.981 9.781,9.971 9.775,9.96 9.768,9.95 39.927,9.95 39.922,9.96 39.915,9.971 39.91,9.981 39.904,9.992 "/>
      <polyline xmlns="http://www.w3.org/2000/svg" fill="#1A1A1A" points="39.927,9.95 9.768,9.95 9.76,9.938 9.754,9.927 9.747,9.916 9.74,9.905 39.955,9.905 39.949,9.916 39.942,9.927 39.935,9.938 39.927,9.95 "/>
      <path xmlns="http://www.w3.org/2000/svg" fill="#191919" d="M39.955,9.905H9.74C9.736,9.899,9.732,9.892,9.728,9.886C9.723,9.88,9.719,9.873,9.716,9.867S9.708,9.855,9.704,9.849C9.7,9.843,9.696,9.837,9.692,9.831h30.309c-0.004,0.006-0.007,0.012-0.011,0.018c-0.004,0.006-0.008,0.012-0.012,0.018c-0.005,0.006-0.009,0.012-0.013,0.019C39.962,9.893,39.958,9.899,39.955,9.905"/>
      <path xmlns="http://www.w3.org/2000/svg" fill="#181818" d="M40,9.832H9.692C9.687,9.824,9.681,9.817,9.677,9.81c-0.005-0.007-0.01-0.015-0.015-0.021c-0.005-0.007-0.01-0.015-0.015-0.021C9.641,9.761,9.636,9.754,9.633,9.747h30.422c-0.005,0.007-0.009,0.014-0.014,0.021c-0.005,0.007-0.009,0.014-0.014,0.021c-0.005,0.007-0.011,0.014-0.015,0.021C40.01,9.817,40.005,9.824,40,9.832"/>
      <path xmlns="http://www.w3.org/2000/svg" fill="#181818" d="M40.055,9.746H9.634C9.626,9.735,9.619,9.724,9.612,9.714C9.605,9.703,9.596,9.693,9.59,9.683c-0.008-0.01-0.015-0.021-0.021-0.03s-0.015-0.02-0.021-0.029h30.593c-0.007,0.009-0.013,0.02-0.021,0.029c-0.006,0.01-0.014,0.02-0.021,0.03c-0.007,0.01-0.014,0.021-0.021,0.031C40.071,9.724,40.063,9.734,40.055,9.746"/>
      <path xmlns="http://www.w3.org/2000/svg" fill="#171717" d="M40.138,9.623H9.546C9.534,9.606,9.522,9.59,9.509,9.574C9.496,9.558,9.485,9.543,9.472,9.529C9.461,9.515,9.45,9.501,9.438,9.487C9.427,9.474,9.416,9.461,9.405,9.448h30.867C40.26,9.46,40.251,9.473,40.24,9.487s-0.021,0.028-0.032,0.042c-0.012,0.015-0.021,0.03-0.034,0.045C40.162,9.589,40.151,9.606,40.138,9.623"/>
      <path xmlns="http://www.w3.org/2000/svg" fill="#161616" d="M40.273,9.448H9.406C9.383,9.422,9.361,9.398,9.34,9.377c-0.021-0.021-0.041-0.04-0.06-0.056C9.26,9.305,9.242,9.292,9.224,9.28C9.207,9.269,9.191,9.26,9.176,9.254h31.316c-0.015,0.006-0.03,0.015-0.047,0.026c-0.017,0.011-0.033,0.025-0.052,0.041c-0.02,0.017-0.037,0.035-0.059,0.056C40.316,9.398,40.294,9.422,40.273,9.448"/>
      <polyline xmlns="http://www.w3.org/2000/svg" fill="#151515" points="40.492,9.255 9.176,9.255 9.163,9.25 9.15,9.247 9.138,9.245 9.127,9.244 12.255,9.244 15.391,9.244 18.534,9.244 21.68,9.244 24.829,9.244 26.404,9.244 27.978,9.244 31.125,9.244 34.269,9.244 35.839,9.244 37.407,9.244 40.538,9.244 40.527,9.245 40.514,9.247 40.503,9.25 40.492,9.255 "/>
     </g>
    </g>
    <g xmlns="http://www.w3.org/2000/svg">
     <path xmlns="http://www.w3.org/2000/svg" fill="#212121" d="M39.699,10.357c0.687,1.017,1.41,2.089,2.129,3.155s1.432,2.124,2.099,3.112c0.667,0.988,1.287,1.907,1.817,2.693c0.531,0.787,0.973,1.441,1.283,1.901c-3.312,0-6.857,0-10.524,0c-3.666,0-7.453,0-11.246,0s-7.591,0-11.28,0c-3.69,0-7.271,0-10.63,0c0.293-0.478,0.703-1.146,1.191-1.942s1.055-1.719,1.661-2.708c0.605-0.989,1.252-2.042,1.899-3.098c0.648-1.056,1.299-2.115,1.911-3.114c2.376,0,4.822,0,7.305,0c2.481,0,5,0,7.52,0c2.521,0,5.041,0,7.529,0C34.852,10.357,37.309,10.357,39.699,10.357z"/>
    </g>
    <g xmlns="http://www.w3.org/2000/svg" enable-background="new    ">
     <g xmlns="http://www.w3.org/2000/svg" enable-background="new    ">
      <polyline xmlns="http://www.w3.org/2000/svg" fill="#535353" points="10.01,10.357 3.346,21.219 3.344,21.22 3.341,21.222 3.338,21.224 3.335,21.225 10.006,10.351 10.007,10.352 10.008,10.354 10.009,10.355 10.01,10.357 "/>
      <polyline xmlns="http://www.w3.org/2000/svg" fill="#4B4B4B" points="10.006,10.351 3.335,21.225 3.332,21.227 3.329,21.229 3.325,21.231 3.321,21.233 10.002,10.343 10.003,10.345 10.004,10.347 10.005,10.349 10.006,10.351 "/>
      <polyline xmlns="http://www.w3.org/2000/svg" fill="#404040" points="10.002,10.343 3.321,21.233 3.318,21.235 3.314,21.237 3.311,21.239 3.306,21.241 9.997,10.335 9.998,10.337 9.999,10.339 10.001,10.341 10.002,10.343 "/>
      <polyline xmlns="http://www.w3.org/2000/svg" fill="#262626" points="9.997,10.335 3.306,21.241 3.303,21.243 3.3,21.245 3.297,21.247 3.293,21.248 9.993,10.328 9.994,10.33 9.995,10.331 9.996,10.333 9.997,10.335 "/>
      <polyline xmlns="http://www.w3.org/2000/svg" fill="#252525" points="9.993,10.328 3.293,21.248 3.289,21.251 3.286,21.253 3.283,21.255 3.279,21.257 9.989,10.32 9.99,10.322 9.991,10.324 9.992,10.326 9.993,10.328 "/>
      <polyline xmlns="http://www.w3.org/2000/svg" fill="#242424" points="9.989,10.32 3.279,21.257 3.275,21.259 3.272,21.261 3.268,21.263 3.264,21.265 9.984,10.312 9.985,10.314 9.986,10.316 9.988,10.318 9.989,10.32 "/>
      <polyline xmlns="http://www.w3.org/2000/svg" fill="#242424" points="9.984,10.312 3.264,21.265 3.261,21.267 3.258,21.269 3.254,21.27 3.251,21.272 9.98,10.304 9.981,10.306 9.982,10.308 9.983,10.31 9.984,10.312 "/>
      <polyline xmlns="http://www.w3.org/2000/svg" fill="#232323" points="9.98,10.304 3.251,21.272 3.247,21.274 3.244,21.276 3.241,21.279 3.237,21.281 9.974,10.296 9.976,10.298 9.977,10.3 9.979,10.302 9.98,10.304 "/>
      <polyline xmlns="http://www.w3.org/2000/svg" fill="#222222" points="9.974,10.296 3.237,21.281 3.233,21.283 3.23,21.285 3.226,21.287 3.222,21.289 9.97,10.289 9.971,10.29 9.972,10.292 9.974,10.294 9.974,10.296 "/>
      <polyline xmlns="http://www.w3.org/2000/svg" fill="#212121" points="9.97,10.289 3.222,21.289 3.219,21.29 3.216,21.292 3.212,21.294 3.209,21.297 9.967,10.281 9.968,10.283 9.969,10.285 9.969,10.287 9.97,10.289 "/>
      <polyline xmlns="http://www.w3.org/2000/svg" fill="#212121" points="9.967,10.281 3.209,21.297 3.205,21.299 3.202,21.301 3.199,21.303 3.195,21.305 9.962,10.273 9.963,10.275 9.964,10.277 9.966,10.279 9.967,10.281 "/>
      <polyline xmlns="http://www.w3.org/2000/svg" fill="#202020" points="9.962,10.273 3.195,21.305 3.191,21.307 3.188,21.309 3.184,21.31 3.18,21.312 9.958,10.266 9.959,10.268 9.96,10.269 9.961,10.271 9.962,10.273 "/>
      <polyline xmlns="http://www.w3.org/2000/svg" fill="#1F1F1F" points="9.958,10.266 3.18,21.312 3.177,21.314 3.174,21.316 3.17,21.319 3.167,21.321 9.954,10.258 9.955,10.26 9.955,10.262 9.957,10.264 9.958,10.266 "/>
      <polyline xmlns="http://www.w3.org/2000/svg" fill="#1E1E1E" points="9.954,10.258 3.167,21.321 3.163,21.323 3.16,21.325 3.157,21.327 3.153,21.329 9.949,10.25 9.95,10.252 9.952,10.254 9.953,10.256 9.954,10.258 "/>
      <polyline xmlns="http://www.w3.org/2000/svg" fill="#1E1E1E" points="9.949,10.25 3.153,21.329 3.15,21.331 3.146,21.333 3.141,21.335 3.138,21.337 9.945,10.243 9.946,10.245 9.947,10.247 9.948,10.248 9.949,10.25 "/>
      <polyline xmlns="http://www.w3.org/2000/svg" fill="#1D1D1D" points="9.945,10.243 3.138,21.337 3.135,21.339 3.132,21.341 3.129,21.343 3.125,21.345 9.94,10.235 9.942,10.237 9.943,10.239 9.944,10.241 9.945,10.243 "/>
      <polyline xmlns="http://www.w3.org/2000/svg" fill="#1C1C1C" points="9.94,10.235 3.125,21.345 3.121,21.347 3.119,21.349 3.115,21.351 3.111,21.353 9.936,10.228 9.937,10.23 9.938,10.232 9.939,10.234 9.94,10.235 "/>
      <polyline xmlns="http://www.w3.org/2000/svg" fill="#1B1B1B" points="9.936,10.228 3.111,21.353 3.108,21.355 3.104,21.357 3.101,21.359 3.097,21.361 9.931,10.221 9.932,10.223 9.934,10.225 9.935,10.226 9.936,10.228 "/>
      <polyline xmlns="http://www.w3.org/2000/svg" fill="#1B1B1B" points="9.931,10.221 3.097,21.361 3.094,21.363 3.091,21.365 3.087,21.367 3.083,21.369 9.927,10.213 9.928,10.215 9.929,10.217 9.93,10.219 9.931,10.221 "/>
      <polyline xmlns="http://www.w3.org/2000/svg" fill="#1A1A1A" points="9.927,10.213 3.083,21.369 3.08,21.371 3.077,21.373 3.073,21.375 3.07,21.377 9.923,10.206 9.924,10.207 9.925,10.209 9.927,10.211 9.927,10.213 "/>
      <polyline xmlns="http://www.w3.org/2000/svg" fill="#191919" points="9.923,10.206 3.07,21.377 3.066,21.379 3.063,21.381 3.059,21.383 3.055,21.385 9.919,10.198 9.92,10.2 9.921,10.202 9.922,10.204 9.923,10.206 "/>
      <polyline xmlns="http://www.w3.org/2000/svg" fill="#181818" points="9.919,10.198 3.055,21.385 3.043,21.393 3.031,21.4 3.018,21.407 3.006,21.415 9.903,10.172 9.907,10.178 9.911,10.185 9.915,10.192 9.919,10.198 "/>
      <polyline xmlns="http://www.w3.org/2000/svg" fill="#181818" points="9.903,10.172 3.006,21.415 2.992,21.423 2.978,21.431 2.964,21.439 2.951,21.448 9.885,10.143 9.89,10.15 9.895,10.157 9.899,10.164 9.903,10.172 "/>
      <polyline xmlns="http://www.w3.org/2000/svg" fill="#171717" points="9.885,10.143 2.951,21.448 2.937,21.456 2.923,21.464 2.91,21.473 2.896,21.48 9.869,10.114 9.873,10.121 9.877,10.128 9.882,10.136 9.885,10.143 "/>
      <polyline xmlns="http://www.w3.org/2000/svg" fill="#161616" points="9.869,10.114 2.896,21.48 2.882,21.489 2.869,21.497 2.855,21.505 2.841,21.514 9.852,10.086 9.856,10.093 9.861,10.1 9.865,10.107 9.869,10.114 "/>
      <polyline xmlns="http://www.w3.org/2000/svg" fill="#151515" points="9.852,10.086 2.841,21.514 2.828,21.522 2.814,21.53 2.801,21.539 2.787,21.547 9.835,10.058 9.839,10.065 9.844,10.072 9.847,10.079 9.852,10.086 "/>
      <path xmlns="http://www.w3.org/2000/svg" fill="#151515" d="M9.835,10.058L2.787,21.547c-0.014,0.009-0.028,0.017-0.041,0.025c-0.014,0.009-0.028,0.017-0.041,0.026c-0.014,0.008-0.027,0.017-0.041,0.025c-0.014,0.009-0.027,0.017-0.041,0.026L9.785,9.976C9.789,9.983,9.793,9.99,9.798,9.997c0.004,0.007,0.008,0.014,0.014,0.021c0.004,0.007,0.008,0.014,0.013,0.021C9.827,10.044,9.831,10.051,9.835,10.058"/>
      <path xmlns="http://www.w3.org/2000/svg" fill="#141414" d="M9.785,9.976L2.623,21.649c-0.295,0.187-0.574,0.377-0.833,0.567s-0.495,0.38-0.707,0.564s-0.396,0.364-0.552,0.533s-0.279,0.329-0.369,0.475l0.435-0.71l0.438-0.712l0.438-0.715l0.44-0.718l0.442-0.72l0.442-0.722l0.444-0.724l0.445-0.725l0.445-0.727l0.446-0.728l0.447-0.729l0.447-0.729l0.448-0.73l0.449-0.731l0.448-0.731l0.449-0.731l0.447-0.731l0.448-0.73l0.448-0.73L9.06,9.286C9.082,9.25,9.116,9.239,9.159,9.251C9.202,9.263,9.256,9.3,9.318,9.359C9.38,9.418,9.451,9.5,9.529,9.603C9.607,9.706,9.693,9.83,9.785,9.976"/>
     </g>
    </g>
    <g xmlns="http://www.w3.org/2000/svg" enable-background="new    ">
     <g xmlns="http://www.w3.org/2000/svg" enable-background="new    ">
      <path xmlns="http://www.w3.org/2000/svg" fill="#535353" d="M47.027,21.219l-7.328-10.861c0.002-0.003,0.004-0.007,0.005-0.01c0.002-0.003,0.004-0.007,0.006-0.01c0.001-0.003,0.003-0.006,0.005-0.01c0.002-0.003,0.003-0.006,0.005-0.009l7.38,10.939c-0.006-0.003-0.012-0.007-0.019-0.01c-0.006-0.003-0.012-0.007-0.018-0.01c-0.008-0.003-0.014-0.007-0.02-0.01C47.038,21.225,47.033,21.222,47.027,21.219"/>
      <path xmlns="http://www.w3.org/2000/svg" fill="#4B4B4B" d="M47.098,21.258l-7.38-10.939c0.002-0.004,0.005-0.008,0.008-0.012c0.002-0.004,0.004-0.008,0.007-0.012c0.002-0.004,0.004-0.008,0.006-0.012c0.003-0.004,0.005-0.008,0.007-0.012l7.446,11.038c-0.008-0.004-0.017-0.009-0.023-0.013c-0.008-0.004-0.015-0.008-0.021-0.013c-0.008-0.005-0.017-0.008-0.023-0.013C47.115,21.266,47.107,21.262,47.098,21.258"/>
      <path xmlns="http://www.w3.org/2000/svg" fill="#404040" d="M47.192,21.308L39.746,10.27c0.002-0.004,0.004-0.008,0.007-0.012c0.002-0.004,0.004-0.008,0.006-0.012c0.003-0.004,0.005-0.008,0.007-0.012c0.003-0.004,0.005-0.008,0.008-0.012l7.512,11.136c-0.008-0.004-0.016-0.008-0.023-0.013c-0.008-0.004-0.016-0.008-0.022-0.013c-0.008-0.004-0.016-0.008-0.022-0.012C47.207,21.316,47.2,21.312,47.192,21.308"/>
      <path xmlns="http://www.w3.org/2000/svg" fill="#262626" d="M47.285,21.358l-7.513-11.136c0.001-0.003,0.003-0.006,0.005-0.009c0.001-0.003,0.003-0.006,0.005-0.009s0.003-0.006,0.005-0.009s0.003-0.006,0.005-0.009l7.563,11.212c-0.007-0.003-0.013-0.007-0.019-0.01s-0.012-0.006-0.018-0.01c-0.006-0.004-0.013-0.006-0.019-0.01S47.29,21.362,47.285,21.358"/>
      <polyline xmlns="http://www.w3.org/2000/svg" fill="#252525" points="47.355,21.398 39.791,10.186 39.794,10.181 39.798,10.175 39.801,10.169 39.803,10.163 47.402,21.424 47.389,21.418 47.378,21.411 47.367,21.405 47.355,21.398 "/>
      <polyline xmlns="http://www.w3.org/2000/svg" fill="#242424" points="47.402,21.424 39.803,10.163 39.807,10.157 39.811,10.151 39.815,10.145 39.818,10.14 47.449,21.451 47.437,21.444 47.425,21.437 47.413,21.431 47.402,21.424 "/>
      <polyline xmlns="http://www.w3.org/2000/svg" fill="#242424" points="47.449,21.451 39.818,10.14 39.821,10.134 39.824,10.128 39.828,10.123 39.83,10.117 47.495,21.477 47.483,21.471 47.471,21.464 47.46,21.457 47.449,21.451 "/>
      <polyline xmlns="http://www.w3.org/2000/svg" fill="#232323" points="47.495,21.477 39.83,10.117 39.833,10.111 39.837,10.105 39.84,10.1 39.843,10.094 47.54,21.504 47.53,21.497 47.518,21.49 47.506,21.484 47.495,21.477 "/>
      <polyline xmlns="http://www.w3.org/2000/svg" fill="#222222" points="47.54,21.504 39.843,10.094 39.846,10.089 39.849,10.083 39.853,10.078 39.857,10.072 47.586,21.53 47.576,21.523 47.564,21.517 47.552,21.51 47.54,21.504 "/>
      <polyline xmlns="http://www.w3.org/2000/svg" fill="#212121" points="47.586,21.53 39.857,10.072 39.86,10.066 39.863,10.061 39.866,10.055 39.87,10.05 47.632,21.557 47.621,21.55 47.61,21.543 47.597,21.537 47.586,21.53 "/>
      <path xmlns="http://www.w3.org/2000/svg" fill="#212121" d="M47.632,21.557L39.869,10.05c0.001-0.003,0.003-0.006,0.005-0.01c0.002-0.003,0.004-0.006,0.006-0.009s0.004-0.006,0.006-0.009s0.003-0.006,0.005-0.01l7.82,11.592c-0.007-0.004-0.013-0.008-0.02-0.012s-0.014-0.008-0.021-0.012c-0.007-0.004-0.014-0.008-0.021-0.012C47.646,21.564,47.638,21.56,47.632,21.557"/>
      <path xmlns="http://www.w3.org/2000/svg" fill="#202020" d="M47.711,21.603l-7.82-11.592c0.003-0.003,0.005-0.006,0.007-0.009c0.002-0.003,0.004-0.006,0.006-0.009s0.003-0.006,0.005-0.009s0.004-0.006,0.006-0.009l7.877,11.676c-0.006-0.004-0.013-0.008-0.02-0.012c-0.007-0.004-0.014-0.008-0.021-0.012c-0.007-0.004-0.014-0.008-0.02-0.012C47.724,21.611,47.718,21.607,47.711,21.603"/>
      <path xmlns="http://www.w3.org/2000/svg" fill="#1F1F1F" d="M47.79,21.651L39.913,9.975c0.002-0.003,0.004-0.006,0.006-0.009s0.003-0.006,0.005-0.009c0.002-0.003,0.004-0.006,0.006-0.009s0.005-0.006,0.006-0.009l7.935,11.76c-0.007-0.004-0.013-0.008-0.021-0.012c-0.007-0.004-0.013-0.008-0.02-0.012s-0.014-0.008-0.02-0.012C47.803,21.659,47.797,21.655,47.79,21.651"/>
      <path xmlns="http://www.w3.org/2000/svg" fill="#1E1E1E" d="M47.87,21.698l-7.935-11.76c0.003-0.004,0.005-0.007,0.007-0.011c0.002-0.003,0.005-0.007,0.007-0.011c0.002-0.004,0.004-0.007,0.007-0.011c0.002-0.004,0.004-0.007,0.006-0.011l8.003,11.862c-0.008-0.005-0.016-0.01-0.022-0.015s-0.017-0.01-0.023-0.015c-0.007-0.005-0.016-0.01-0.023-0.015C47.885,21.708,47.877,21.703,47.87,21.698"/>
      <path xmlns="http://www.w3.org/2000/svg" fill="#1E1E1E" d="M47.964,21.757L39.961,9.894c0.004-0.005,0.007-0.01,0.01-0.015c0.003-0.005,0.007-0.01,0.01-0.015s0.006-0.01,0.01-0.015c0.003-0.005,0.006-0.01,0.009-0.015l8.098,12.003c-0.011-0.007-0.021-0.014-0.031-0.021c-0.013-0.007-0.022-0.014-0.033-0.021c-0.011-0.007-0.021-0.014-0.033-0.021C47.987,21.77,47.976,21.764,47.964,21.757"/>
      <path xmlns="http://www.w3.org/2000/svg" fill="#1D1D1D" d="M48.095,21.839L39.998,9.836c0.003-0.005,0.007-0.01,0.01-0.016s0.007-0.01,0.011-0.016c0.003-0.005,0.007-0.01,0.01-0.015c0.003-0.005,0.007-0.01,0.01-0.015l8.201,12.156c-0.012-0.008-0.023-0.015-0.035-0.023c-0.013-0.007-0.024-0.015-0.036-0.022c-0.012-0.008-0.022-0.015-0.035-0.023C48.121,21.854,48.108,21.847,48.095,21.839"/>
      <path xmlns="http://www.w3.org/2000/svg" fill="#1C1C1C" d="M48.239,21.93L40.038,9.774c0.005-0.007,0.01-0.014,0.014-0.021c0.005-0.007,0.011-0.014,0.015-0.021c0.005-0.007,0.01-0.014,0.014-0.021c0.005-0.006,0.009-0.013,0.014-0.02l8.346,12.37c-0.017-0.011-0.032-0.022-0.05-0.033c-0.017-0.011-0.032-0.021-0.05-0.032c-0.017-0.011-0.033-0.022-0.05-0.033C48.272,21.951,48.255,21.94,48.239,21.93"/>
      <path xmlns="http://www.w3.org/2000/svg" fill="#1B1B1B" d="M48.437,22.06L40.092,9.69c0.006-0.009,0.014-0.018,0.02-0.027c0.006-0.009,0.012-0.018,0.018-0.026c0.006-0.009,0.013-0.017,0.02-0.025c0.006-0.008,0.012-0.017,0.018-0.024l8.535,12.652c-0.021-0.015-0.043-0.03-0.064-0.045c-0.021-0.015-0.043-0.03-0.064-0.045c-0.021-0.015-0.044-0.03-0.065-0.045C48.482,22.09,48.459,22.075,48.437,22.06"/>
      <path xmlns="http://www.w3.org/2000/svg" fill="#1B1B1B" d="M48.7,22.24L40.165,9.588c0.009-0.012,0.017-0.024,0.025-0.035c0.008-0.011,0.017-0.022,0.024-0.033c0.009-0.011,0.018-0.021,0.024-0.032s0.017-0.02,0.023-0.03l8.806,13.05c-0.03-0.022-0.061-0.044-0.09-0.067c-0.03-0.022-0.062-0.044-0.092-0.067c-0.03-0.021-0.062-0.045-0.094-0.067C48.762,22.285,48.732,22.263,48.7,22.24"/>
      <path xmlns="http://www.w3.org/2000/svg" fill="#1A1A1A" d="M49.069,22.509l-8.806-13.05c0.014-0.015,0.024-0.029,0.036-0.042c0.013-0.013,0.023-0.026,0.035-0.038c0.011-0.012,0.021-0.023,0.032-0.033c0.011-0.01,0.021-0.02,0.032-0.029l9.178,13.604c-0.039-0.034-0.078-0.067-0.119-0.102c-0.041-0.034-0.082-0.068-0.125-0.103c-0.042-0.034-0.086-0.069-0.13-0.103C49.16,22.579,49.115,22.544,49.069,22.509"/>
      <path xmlns="http://www.w3.org/2000/svg" fill="#191919" d="M49.578,22.92L40.4,9.316c0.017-0.014,0.031-0.027,0.047-0.037s0.029-0.018,0.043-0.024c0.014-0.006,0.025-0.009,0.038-0.011c0.012-0.002,0.021,0,0.032,0.003l9.646,14.3c-0.04-0.048-0.084-0.098-0.131-0.149c-0.047-0.051-0.097-0.102-0.148-0.155c-0.053-0.052-0.107-0.105-0.167-0.16C49.702,23.028,49.64,22.976,49.578,22.92"/>
      <path xmlns="http://www.w3.org/2000/svg" fill="#181818" d="M50.207,23.548l-9.646-14.3c0.003,0.001,0.007,0.002,0.011,0.004c0.003,0.002,0.006,0.004,0.01,0.007c0.003,0.002,0.006,0.005,0.009,0.008c0.003,0.003,0.006,0.007,0.008,0.011l0.492,0.729l0.492,0.73l0.493,0.731l0.493,0.73l0.493,0.731l0.492,0.73l0.493,0.731l0.492,0.73l0.492,0.729l0.491,0.728l0.49,0.727l0.489,0.726l0.488,0.724l0.487,0.722l0.971,1.438l0.964,1.428l0.479,0.71l0.479,0.707c-0.012-0.017-0.023-0.035-0.036-0.052c-0.013-0.018-0.025-0.035-0.039-0.053s-0.027-0.036-0.042-0.054S50.222,23.566,50.207,23.548"/>
     </g>
    </g>
    <g xmlns="http://www.w3.org/2000/svg" enable-background="new    ">
     <g xmlns="http://www.w3.org/2000/svg" enable-background="new    ">
      <polyline xmlns="http://www.w3.org/2000/svg" fill="#535353" points="3.346,21.219 47.027,21.219 47.029,21.22 47.032,21.222 47.035,21.223 47.037,21.225 3.336,21.225 3.339,21.223 3.341,21.222 3.344,21.22 3.346,21.219 "/>
      <polyline xmlns="http://www.w3.org/2000/svg" fill="#4B4B4B" points="3.336,21.225 47.037,21.225 47.04,21.226 47.043,21.228 47.047,21.23 47.05,21.232 3.323,21.232 3.327,21.23 3.33,21.228 3.333,21.226 3.336,21.225 "/>
      <polyline xmlns="http://www.w3.org/2000/svg" fill="#404040" points="3.323,21.232 47.05,21.232 47.053,21.233 47.057,21.235 47.061,21.237 47.065,21.239 3.31,21.239 3.313,21.237 3.317,21.235 3.32,21.233 3.323,21.232 "/>
      <polyline xmlns="http://www.w3.org/2000/svg" fill="#262626" points="3.31,21.239 47.065,21.239 47.068,21.241 47.072,21.243 47.075,21.245 47.079,21.247 3.297,21.247 3.3,21.245 3.303,21.243 3.306,21.241 3.31,21.239 "/>
      <polyline xmlns="http://www.w3.org/2000/svg" fill="#252525" points="3.297,21.247 47.079,21.247 47.081,21.248 47.085,21.25 47.088,21.252 47.092,21.254 3.284,21.254 3.288,21.252 3.29,21.25 3.294,21.248 3.297,21.247 "/>
      <polyline xmlns="http://www.w3.org/2000/svg" fill="#242424" points="3.284,21.254 47.092,21.254 47.094,21.256 47.098,21.257 47.102,21.259 47.106,21.261 3.271,21.261 3.274,21.259 3.278,21.257 3.281,21.256 3.284,21.254 "/>
      <polyline xmlns="http://www.w3.org/2000/svg" fill="#242424" points="3.271,21.261 47.106,21.261 47.109,21.263 47.113,21.265 47.116,21.267 47.12,21.269 3.258,21.269 3.26,21.267 3.264,21.265 3.268,21.263 3.271,21.261 "/>
      <polyline xmlns="http://www.w3.org/2000/svg" fill="#232323" points="3.258,21.269 47.12,21.269 47.122,21.27 47.126,21.272 47.129,21.274 47.133,21.276 3.245,21.276 3.248,21.274 3.251,21.272 3.255,21.27 3.258,21.269 "/>
      <polyline xmlns="http://www.w3.org/2000/svg" fill="#222222" points="3.245,21.276 47.133,21.276 47.135,21.278 47.139,21.28 47.143,21.281 47.147,21.283 3.232,21.283 3.235,21.281 3.239,21.28 3.242,21.278 3.245,21.276 "/>
      <polyline xmlns="http://www.w3.org/2000/svg" fill="#212121" points="3.232,21.283 47.147,21.283 47.15,21.285 47.154,21.287 47.157,21.289 47.161,21.291 3.219,21.291 3.221,21.289 3.224,21.287 3.229,21.285 3.232,21.283 "/>
      <polyline xmlns="http://www.w3.org/2000/svg" fill="#212121" points="3.219,21.291 47.161,21.291 47.163,21.292 47.167,21.294 47.17,21.296 47.174,21.298 3.206,21.298 3.209,21.296 3.213,21.294 3.216,21.292 3.219,21.291 "/>
      <polyline xmlns="http://www.w3.org/2000/svg" fill="#202020" points="3.206,21.298 47.174,21.298 47.177,21.3 47.18,21.302 47.184,21.304 47.188,21.306 3.193,21.306 3.196,21.304 3.2,21.302 3.203,21.3 3.206,21.298 "/>
      <polyline xmlns="http://www.w3.org/2000/svg" fill="#1F1F1F" points="3.193,21.306 47.188,21.306 47.191,21.308 47.195,21.31 47.198,21.311 47.202,21.313 3.179,21.313 3.184,21.311 3.187,21.31 3.19,21.308 3.193,21.306 "/>
      <polyline xmlns="http://www.w3.org/2000/svg" fill="#1E1E1E" points="3.179,21.313 47.202,21.313 47.205,21.315 47.208,21.317 47.211,21.318 47.214,21.32 3.167,21.32 3.17,21.318 3.174,21.317 3.177,21.315 3.179,21.313 "/>
      <polyline xmlns="http://www.w3.org/2000/svg" fill="#1E1E1E" points="3.167,21.32 47.214,21.32 47.218,21.322 47.221,21.324 47.224,21.326 47.228,21.328 3.155,21.328 3.158,21.326 3.161,21.324 3.164,21.322 3.167,21.32 "/>
      <polyline xmlns="http://www.w3.org/2000/svg" fill="#1D1D1D" points="3.155,21.328 47.228,21.328 47.232,21.33 47.235,21.331 47.239,21.333 47.242,21.335 3.141,21.335 3.145,21.333 3.148,21.331 3.151,21.33 3.155,21.328 "/>
      <polyline xmlns="http://www.w3.org/2000/svg" fill="#1C1C1C" points="3.141,21.335 47.242,21.335 47.246,21.337 47.248,21.339 47.252,21.341 47.255,21.343 3.129,21.343 3.132,21.341 3.135,21.339 3.137,21.337 3.141,21.335 "/>
      <polyline xmlns="http://www.w3.org/2000/svg" fill="#1B1B1B" points="3.129,21.343 47.255,21.343 47.259,21.345 47.261,21.347 47.265,21.349 47.269,21.35 3.116,21.35 3.119,21.349 3.122,21.347 3.125,21.345 3.129,21.343 "/>
      <polyline xmlns="http://www.w3.org/2000/svg" fill="#1B1B1B" points="3.116,21.35 47.269,21.35 47.273,21.352 47.276,21.354 47.279,21.356 47.283,21.358 3.103,21.358 3.106,21.356 3.109,21.354 3.113,21.352 3.116,21.35 "/>
      <polyline xmlns="http://www.w3.org/2000/svg" fill="#1A1A1A" points="3.103,21.358 47.283,21.358 47.286,21.359 47.289,21.361 47.292,21.363 47.296,21.365 3.09,21.365 3.093,21.363 3.096,21.361 3.099,21.359 3.103,21.358 "/>
      <polyline xmlns="http://www.w3.org/2000/svg" fill="#191919" points="3.09,21.365 47.296,21.365 47.299,21.367 47.302,21.369 47.305,21.371 47.31,21.373 3.078,21.373 3.08,21.371 3.084,21.369 3.087,21.367 3.09,21.365 "/>
      <polyline xmlns="http://www.w3.org/2000/svg" fill="#181818" points="3.078,21.373 47.31,21.373 47.313,21.374 47.316,21.376 47.32,21.378 47.323,21.38 3.064,21.38 3.068,21.378 3.071,21.376 3.074,21.374 3.078,21.373 "/>
      <polyline xmlns="http://www.w3.org/2000/svg" fill="#181818" points="3.064,21.38 47.323,21.38 47.33,21.384 47.335,21.387 47.341,21.39 47.346,21.394 3.042,21.394 3.047,21.39 3.052,21.387 3.059,21.384 3.064,21.38 "/>
      <path xmlns="http://www.w3.org/2000/svg" fill="#171717" d="M3.042,21.394h44.305c0.007,0.003,0.013,0.006,0.018,0.01c0.006,0.003,0.012,0.006,0.018,0.009c0.005,0.003,0.012,0.006,0.018,0.01c0.006,0.003,0.011,0.006,0.017,0.009H2.977c0.005-0.003,0.011-0.006,0.016-0.009s0.011-0.006,0.016-0.01c0.005-0.003,0.012-0.006,0.017-0.009C3.031,21.4,3.037,21.397,3.042,21.394"/>
      <path xmlns="http://www.w3.org/2000/svg" fill="#161616" d="M2.977,21.432h44.437c0.006,0.003,0.012,0.006,0.017,0.01c0.007,0.003,0.013,0.006,0.019,0.009c0.005,0.003,0.01,0.006,0.016,0.009c0.006,0.003,0.012,0.006,0.018,0.009H2.913c0.005-0.003,0.011-0.006,0.016-0.009c0.006-0.003,0.012-0.006,0.017-0.01c0.005-0.003,0.011-0.006,0.016-0.009C2.967,21.438,2.971,21.435,2.977,21.432"/>
      <path xmlns="http://www.w3.org/2000/svg" fill="#151515" d="M2.913,21.47h44.568c0.006,0.003,0.011,0.006,0.017,0.01c0.006,0.003,0.012,0.006,0.017,0.01c0.007,0.003,0.013,0.006,0.018,0.009c0.006,0.003,0.012,0.006,0.017,0.01H2.849c0.006-0.003,0.011-0.006,0.017-0.01c0.005-0.003,0.011-0.006,0.016-0.009s0.01-0.007,0.017-0.01C2.903,21.476,2.909,21.473,2.913,21.47"/>
      <path xmlns="http://www.w3.org/2000/svg" fill="#151515" d="M2.849,21.508h44.698c0.006,0.003,0.013,0.006,0.018,0.009c0.006,0.003,0.012,0.007,0.017,0.01c0.006,0.003,0.012,0.006,0.017,0.01c0.007,0.003,0.013,0.006,0.018,0.01H2.788c0.005-0.003,0.01-0.006,0.016-0.01c0.006-0.003,0.011-0.006,0.017-0.01c0.005-0.003,0.011-0.006,0.016-0.009C2.84,21.515,2.844,21.511,2.849,21.508"/>
      <path xmlns="http://www.w3.org/2000/svg" fill="#141414" d="M2.788,21.547h44.827c0.445,0.259,0.857,0.528,1.228,0.794c0.368,0.266,0.69,0.529,0.954,0.776s0.467,0.479,0.599,0.682c0.131,0.203,0.188,0.378,0.158,0.514H0.007c-0.027-0.135,0.025-0.311,0.148-0.514c0.123-0.204,0.314-0.435,0.563-0.682s0.556-0.51,0.904-0.776C1.972,22.075,2.365,21.806,2.788,21.547"/>
     </g>
    </g>
   </g>
  </g>
 </g>
 <ellipse xmlns="http://www.w3.org/2000/svg" fill="#DFDFDF" cx="25.014" cy="15.211" rx="17.54" ry="7.316"/>
 <g xmlns="http://www.w3.org/2000/svg">
  <g xmlns="http://www.w3.org/2000/svg">
   <g xmlns="http://www.w3.org/2000/svg" enable-background="new    ">
    <g xmlns="http://www.w3.org/2000/svg">
     <path xmlns="http://www.w3.org/2000/svg" fill="#7A0000" d="M25.312,3.817c8.973,0,16.244,2.349,16.244,5.255c0,2.897-7.271,5.247-16.244,5.247c-8.965,0-16.236-2.349-16.236-5.247C9.076,6.166,16.347,3.817,25.312,3.817z"/>
    </g>
    <g xmlns="http://www.w3.org/2000/svg" enable-background="new    ">
     <g xmlns="http://www.w3.org/2000/svg" enable-background="new    ">
      <path xmlns="http://www.w3.org/2000/svg" fill="#510000" d="M41.556,9.072v6.981c0,0.081-0.006,0.161-0.017,0.24V9.312C41.551,9.233,41.556,9.153,41.556,9.072"/>
      <path xmlns="http://www.w3.org/2000/svg" fill="#4E0000" d="M41.54,9.313v6.981c-0.014,0.1-0.037,0.199-0.067,0.297V9.61C41.503,9.512,41.527,9.413,41.54,9.313"/>
      <path xmlns="http://www.w3.org/2000/svg" fill="#4C0000" d="M41.472,9.61v6.981c-0.037,0.121-0.089,0.241-0.151,0.359V9.969C41.384,9.851,41.435,9.731,41.472,9.61"/>
      <path xmlns="http://www.w3.org/2000/svg" fill="#490000" d="M41.321,9.969v6.981c-1.317,2.47-7.983,4.35-16.009,4.35c-8.965,0-16.236-2.349-16.236-5.246V9.073c0,2.897,7.271,5.247,16.236,5.247C33.337,14.319,40.003,12.439,41.321,9.969"/>
     </g>
    </g>
   </g>
  </g>
 </g>
 <g xmlns="http://www.w3.org/2000/svg">
  <ellipse xmlns="http://www.w3.org/2000/svg" fill="#CC1414" cx="25.296" cy="9.64" rx="16.158" ry="6.638"/>
  <g xmlns="http://www.w3.org/2000/svg">
   <g xmlns="http://www.w3.org/2000/svg">
    <path xmlns="http://www.w3.org/2000/svg" fill="#CC1414" d="M25.295,0c8.971-0.001,16.07,5.72,16.159,9.386c0.089,3.667-7.007,3.832-16.159,3.833c-9.149,0.002-16.247-0.166-16.158-3.833C9.226,5.72,16.327,0.001,25.295,0z"/>
   </g>
  </g>
 </g>
</svg>
