<?xml version="1.0" encoding="utf-8"?>
<!-- Generator: Adobe Illustrator 16.0.0, SVG Export Plug-In . SVG Version: 6.00 Build 0)  -->
<svg version="1.2" baseProfile="tiny" id="Layer_1" xmlns="http://www.w3.org/2000/svg" xmlns:xlink="http://www.w3.org/1999/xlink"
	 x="0px" y="0px" width="79.2px" height="201.316px" viewBox="0 0 79.2 201.316" xml:space="preserve">
<desc>Fritzing footprint generated by brd2svg</desc>
<g id="silkscreen">
	<path fill="none" stroke="#FFFFFF" stroke-width="0.576" d="M75.338,78.979v122.049H3.862V78.979l-3.574-3.59V17.954h78.625v57.436
		L75.338,78.979 M63.883,85.465c0,0.507,0.408,0.917,0.916,0.918c0.506,0,0.916-0.408,0.918-0.916c0-0.001,0-0.001,0-0.002
		c0-0.506-0.41-0.917-0.916-0.918s-0.918,0.409-0.918,0.916C63.883,85.463,63.883,85.464,63.883,85.465z M63.883,93.969
		c0,0.507,0.408,0.917,0.916,0.919c0.506,0,0.916-0.409,0.918-0.916c0-0.001,0-0.001,0-0.003c0-0.506-0.41-0.917-0.916-0.918
		s-0.918,0.409-0.918,0.916C63.883,93.967,63.883,93.968,63.883,93.969z M32.609,32.117c0,0.545,0.442,0.987,0.987,0.987
		c0.545,0,0.988-0.442,0.988-0.987s-0.442-0.988-0.988-0.988C33.05,31.129,32.609,31.571,32.609,32.117z M20.136,32.117
		c0,0.545,0.442,0.987,0.988,0.987c0.545,0,0.987-0.442,0.987-0.987s-0.442-0.988-0.987-0.988
		C20.578,31.129,20.136,31.571,20.136,32.117z"/>
	<g>
		<title>element:JP1</title>
		<g>
			<title>package:1X14</title>
			
				<line fill="none" stroke="#FFFFFF" stroke-width="0.576" stroke-linecap="round" x1="10.8" y1="145.516" x2="10.8" y2="149.116"/>
			<line fill="none" stroke="#FFFFFF" stroke-width="0.576" stroke-linecap="round" x1="10.8" y1="149.116" x2="9" y2="150.916"/>
			<line fill="none" stroke="#FFFFFF" stroke-width="0.576" stroke-linecap="round" x1="5.4" y1="150.916" x2="3.6" y2="149.116"/>
			<line fill="none" stroke="#FFFFFF" stroke-width="0.576" stroke-linecap="round" x1="9" y1="136.516" x2="10.8" y2="138.316"/>
			
				<line fill="none" stroke="#FFFFFF" stroke-width="0.576" stroke-linecap="round" x1="10.8" y1="138.316" x2="10.8" y2="141.916"/>
			<line fill="none" stroke="#FFFFFF" stroke-width="0.576" stroke-linecap="round" x1="10.8" y1="141.916" x2="9" y2="143.717"/>
			<line fill="none" stroke="#FFFFFF" stroke-width="0.576" stroke-linecap="round" x1="5.4" y1="143.717" x2="3.6" y2="141.916"/>
			<line fill="none" stroke="#FFFFFF" stroke-width="0.576" stroke-linecap="round" x1="3.6" y1="141.916" x2="3.6" y2="138.316"/>
			<line fill="none" stroke="#FFFFFF" stroke-width="0.576" stroke-linecap="round" x1="3.6" y1="138.316" x2="5.4" y2="136.516"/>
			<line fill="none" stroke="#FFFFFF" stroke-width="0.576" stroke-linecap="round" x1="10.8" y1="145.516" x2="9" y2="143.717"/>
			<line fill="none" stroke="#FFFFFF" stroke-width="0.576" stroke-linecap="round" x1="5.4" y1="143.717" x2="3.6" y2="145.516"/>
			<line fill="none" stroke="#FFFFFF" stroke-width="0.576" stroke-linecap="round" x1="3.6" y1="149.116" x2="3.6" y2="145.516"/>
			
				<line fill="none" stroke="#FFFFFF" stroke-width="0.576" stroke-linecap="round" x1="10.8" y1="123.916" x2="10.8" y2="127.516"/>
			<line fill="none" stroke="#FFFFFF" stroke-width="0.576" stroke-linecap="round" x1="10.8" y1="127.516" x2="9" y2="129.316"/>
			<line fill="none" stroke="#FFFFFF" stroke-width="0.576" stroke-linecap="round" x1="5.4" y1="129.316" x2="3.6" y2="127.516"/>
			<line fill="none" stroke="#FFFFFF" stroke-width="0.576" stroke-linecap="round" x1="9" y1="129.316" x2="10.8" y2="131.116"/>
			
				<line fill="none" stroke="#FFFFFF" stroke-width="0.576" stroke-linecap="round" x1="10.8" y1="131.116" x2="10.8" y2="134.717"/>
			<line fill="none" stroke="#FFFFFF" stroke-width="0.576" stroke-linecap="round" x1="10.8" y1="134.717" x2="9" y2="136.516"/>
			<line fill="none" stroke="#FFFFFF" stroke-width="0.576" stroke-linecap="round" x1="5.4" y1="136.516" x2="3.6" y2="134.717"/>
			<line fill="none" stroke="#FFFFFF" stroke-width="0.576" stroke-linecap="round" x1="3.6" y1="134.717" x2="3.6" y2="131.116"/>
			<line fill="none" stroke="#FFFFFF" stroke-width="0.576" stroke-linecap="round" x1="3.6" y1="131.116" x2="5.4" y2="129.316"/>
			<line fill="none" stroke="#FFFFFF" stroke-width="0.576" stroke-linecap="round" x1="9" y1="114.916" x2="10.8" y2="116.717"/>
			
				<line fill="none" stroke="#FFFFFF" stroke-width="0.576" stroke-linecap="round" x1="10.8" y1="116.717" x2="10.8" y2="120.316"/>
			<line fill="none" stroke="#FFFFFF" stroke-width="0.576" stroke-linecap="round" x1="10.8" y1="120.316" x2="9" y2="122.116"/>
			<line fill="none" stroke="#FFFFFF" stroke-width="0.576" stroke-linecap="round" x1="5.4" y1="122.116" x2="3.6" y2="120.316"/>
			<line fill="none" stroke="#FFFFFF" stroke-width="0.576" stroke-linecap="round" x1="3.6" y1="120.316" x2="3.6" y2="116.717"/>
			<line fill="none" stroke="#FFFFFF" stroke-width="0.576" stroke-linecap="round" x1="3.6" y1="116.717" x2="5.4" y2="114.916"/>
			<line fill="none" stroke="#FFFFFF" stroke-width="0.576" stroke-linecap="round" x1="10.8" y1="123.916" x2="9" y2="122.116"/>
			<line fill="none" stroke="#FFFFFF" stroke-width="0.576" stroke-linecap="round" x1="5.4" y1="122.116" x2="3.6" y2="123.916"/>
			<line fill="none" stroke="#FFFFFF" stroke-width="0.576" stroke-linecap="round" x1="3.6" y1="127.516" x2="3.6" y2="123.916"/>
			
				<line fill="none" stroke="#FFFFFF" stroke-width="0.576" stroke-linecap="round" x1="10.8" y1="102.316" x2="10.8" y2="105.916"/>
			<line fill="none" stroke="#FFFFFF" stroke-width="0.576" stroke-linecap="round" x1="10.8" y1="105.916" x2="9" y2="107.717"/>
			<line fill="none" stroke="#FFFFFF" stroke-width="0.576" stroke-linecap="round" x1="5.4" y1="107.717" x2="3.6" y2="105.916"/>
			<line fill="none" stroke="#FFFFFF" stroke-width="0.576" stroke-linecap="round" x1="9" y1="107.717" x2="10.8" y2="109.516"/>
			
				<line fill="none" stroke="#FFFFFF" stroke-width="0.576" stroke-linecap="round" x1="10.8" y1="109.516" x2="10.8" y2="113.116"/>
			<line fill="none" stroke="#FFFFFF" stroke-width="0.576" stroke-linecap="round" x1="10.8" y1="113.116" x2="9" y2="114.916"/>
			<line fill="none" stroke="#FFFFFF" stroke-width="0.576" stroke-linecap="round" x1="5.4" y1="114.916" x2="3.6" y2="113.116"/>
			<line fill="none" stroke="#FFFFFF" stroke-width="0.576" stroke-linecap="round" x1="3.6" y1="113.116" x2="3.6" y2="109.516"/>
			<line fill="none" stroke="#FFFFFF" stroke-width="0.576" stroke-linecap="round" x1="3.6" y1="109.516" x2="5.4" y2="107.717"/>
			<line fill="none" stroke="#FFFFFF" stroke-width="0.576" stroke-linecap="round" x1="9" y1="100.516" x2="5.4" y2="100.516"/>
			<line fill="none" stroke="#FFFFFF" stroke-width="0.576" stroke-linecap="round" x1="10.8" y1="102.316" x2="9" y2="100.516"/>
			<line fill="none" stroke="#FFFFFF" stroke-width="0.576" stroke-linecap="round" x1="5.4" y1="100.516" x2="3.6" y2="102.316"/>
			<line fill="none" stroke="#FFFFFF" stroke-width="0.576" stroke-linecap="round" x1="3.6" y1="105.916" x2="3.6" y2="102.316"/>
			
				<line fill="none" stroke="#FFFFFF" stroke-width="0.576" stroke-linecap="round" x1="10.8" y1="195.916" x2="10.8" y2="199.516"/>
			<line fill="none" stroke="#FFFFFF" stroke-width="0.576" stroke-linecap="round" x1="10.8" y1="199.516" x2="9" y2="201.316"/>
			<line fill="none" stroke="#FFFFFF" stroke-width="0.576" stroke-linecap="round" x1="5.4" y1="201.316" x2="3.6" y2="199.516"/>
			<line fill="none" stroke="#FFFFFF" stroke-width="0.576" stroke-linecap="round" x1="9" y1="186.916" x2="10.8" y2="188.717"/>
			
				<line fill="none" stroke="#FFFFFF" stroke-width="0.576" stroke-linecap="round" x1="10.8" y1="188.717" x2="10.8" y2="192.316"/>
			<line fill="none" stroke="#FFFFFF" stroke-width="0.576" stroke-linecap="round" x1="10.8" y1="192.316" x2="9" y2="194.116"/>
			<line fill="none" stroke="#FFFFFF" stroke-width="0.576" stroke-linecap="round" x1="5.4" y1="194.116" x2="3.6" y2="192.316"/>
			<line fill="none" stroke="#FFFFFF" stroke-width="0.576" stroke-linecap="round" x1="3.6" y1="192.316" x2="3.6" y2="188.717"/>
			<line fill="none" stroke="#FFFFFF" stroke-width="0.576" stroke-linecap="round" x1="3.6" y1="188.717" x2="5.4" y2="186.916"/>
			<line fill="none" stroke="#FFFFFF" stroke-width="0.576" stroke-linecap="round" x1="10.8" y1="195.916" x2="9" y2="194.116"/>
			<line fill="none" stroke="#FFFFFF" stroke-width="0.576" stroke-linecap="round" x1="5.4" y1="194.116" x2="3.6" y2="195.916"/>
			<line fill="none" stroke="#FFFFFF" stroke-width="0.576" stroke-linecap="round" x1="3.6" y1="199.516" x2="3.6" y2="195.916"/>
			
				<line fill="none" stroke="#FFFFFF" stroke-width="0.576" stroke-linecap="round" x1="10.8" y1="174.316" x2="10.8" y2="177.916"/>
			<line fill="none" stroke="#FFFFFF" stroke-width="0.576" stroke-linecap="round" x1="10.8" y1="177.916" x2="9" y2="179.717"/>
			<line fill="none" stroke="#FFFFFF" stroke-width="0.576" stroke-linecap="round" x1="5.4" y1="179.717" x2="3.6" y2="177.916"/>
			<line fill="none" stroke="#FFFFFF" stroke-width="0.576" stroke-linecap="round" x1="9" y1="179.717" x2="10.8" y2="181.516"/>
			
				<line fill="none" stroke="#FFFFFF" stroke-width="0.576" stroke-linecap="round" x1="10.8" y1="181.516" x2="10.8" y2="185.116"/>
			<line fill="none" stroke="#FFFFFF" stroke-width="0.576" stroke-linecap="round" x1="10.8" y1="185.116" x2="9" y2="186.916"/>
			<line fill="none" stroke="#FFFFFF" stroke-width="0.576" stroke-linecap="round" x1="5.4" y1="186.916" x2="3.6" y2="185.116"/>
			<line fill="none" stroke="#FFFFFF" stroke-width="0.576" stroke-linecap="round" x1="3.6" y1="185.116" x2="3.6" y2="181.516"/>
			<line fill="none" stroke="#FFFFFF" stroke-width="0.576" stroke-linecap="round" x1="3.6" y1="181.516" x2="5.4" y2="179.717"/>
			<line fill="none" stroke="#FFFFFF" stroke-width="0.576" stroke-linecap="round" x1="9" y1="165.316" x2="10.8" y2="167.116"/>
			
				<line fill="none" stroke="#FFFFFF" stroke-width="0.576" stroke-linecap="round" x1="10.8" y1="167.116" x2="10.8" y2="170.717"/>
			<line fill="none" stroke="#FFFFFF" stroke-width="0.576" stroke-linecap="round" x1="10.8" y1="170.717" x2="9" y2="172.516"/>
			<line fill="none" stroke="#FFFFFF" stroke-width="0.576" stroke-linecap="round" x1="5.4" y1="172.516" x2="3.6" y2="170.717"/>
			<line fill="none" stroke="#FFFFFF" stroke-width="0.576" stroke-linecap="round" x1="3.6" y1="170.717" x2="3.6" y2="167.116"/>
			<line fill="none" stroke="#FFFFFF" stroke-width="0.576" stroke-linecap="round" x1="3.6" y1="167.116" x2="5.4" y2="165.316"/>
			<line fill="none" stroke="#FFFFFF" stroke-width="0.576" stroke-linecap="round" x1="10.8" y1="174.316" x2="9" y2="172.516"/>
			<line fill="none" stroke="#FFFFFF" stroke-width="0.576" stroke-linecap="round" x1="5.4" y1="172.516" x2="3.6" y2="174.316"/>
			<line fill="none" stroke="#FFFFFF" stroke-width="0.576" stroke-linecap="round" x1="3.6" y1="177.916" x2="3.6" y2="174.316"/>
			
				<line fill="none" stroke="#FFFFFF" stroke-width="0.576" stroke-linecap="round" x1="10.8" y1="152.717" x2="10.8" y2="156.316"/>
			<line fill="none" stroke="#FFFFFF" stroke-width="0.576" stroke-linecap="round" x1="10.8" y1="156.316" x2="9" y2="158.116"/>
			<line fill="none" stroke="#FFFFFF" stroke-width="0.576" stroke-linecap="round" x1="5.4" y1="158.116" x2="3.6" y2="156.316"/>
			<line fill="none" stroke="#FFFFFF" stroke-width="0.576" stroke-linecap="round" x1="9" y1="158.116" x2="10.8" y2="159.916"/>
			
				<line fill="none" stroke="#FFFFFF" stroke-width="0.576" stroke-linecap="round" x1="10.8" y1="159.916" x2="10.8" y2="163.516"/>
			<line fill="none" stroke="#FFFFFF" stroke-width="0.576" stroke-linecap="round" x1="10.8" y1="163.516" x2="9" y2="165.316"/>
			<line fill="none" stroke="#FFFFFF" stroke-width="0.576" stroke-linecap="round" x1="5.4" y1="165.316" x2="3.6" y2="163.516"/>
			<line fill="none" stroke="#FFFFFF" stroke-width="0.576" stroke-linecap="round" x1="3.6" y1="163.516" x2="3.6" y2="159.916"/>
			<line fill="none" stroke="#FFFFFF" stroke-width="0.576" stroke-linecap="round" x1="3.6" y1="159.916" x2="5.4" y2="158.116"/>
			<line fill="none" stroke="#FFFFFF" stroke-width="0.576" stroke-linecap="round" x1="10.8" y1="152.717" x2="9" y2="150.916"/>
			<line fill="none" stroke="#FFFFFF" stroke-width="0.576" stroke-linecap="round" x1="5.4" y1="150.916" x2="3.6" y2="152.717"/>
			<line fill="none" stroke="#FFFFFF" stroke-width="0.576" stroke-linecap="round" x1="3.6" y1="156.316" x2="3.6" y2="152.717"/>
			<line fill="none" stroke="#FFFFFF" stroke-width="0.576" stroke-linecap="round" x1="9" y1="201.316" x2="5.4" y2="201.316"/>
		</g>
	</g>
	<g>
		<title>element:JP3</title>
		<g>
			<title>package:S2B-PH</title>
		</g>
	</g>
	<g>
		<title>element:JP4</title>
		<g>
			<title>package:2X3</title>
			
				<line fill="none" stroke="#FFFFFF" stroke-width="0.576" stroke-linecap="round" x1="34.2" y1="177.066" x2="30.6" y2="177.066"/>
		</g>
	</g>
	<g>
		<title>element:JP5</title>
		<g>
			<title>package:1X14</title>
			
				<line fill="none" stroke="#FFFFFF" stroke-width="0.576" stroke-linecap="round" x1="75.6" y1="145.516" x2="75.6" y2="149.116"/>
			
				<line fill="none" stroke="#FFFFFF" stroke-width="0.576" stroke-linecap="round" x1="75.6" y1="149.116" x2="73.799" y2="150.916"/>
			
				<line fill="none" stroke="#FFFFFF" stroke-width="0.576" stroke-linecap="round" x1="70.2" y1="150.916" x2="68.4" y2="149.116"/>
			
				<line fill="none" stroke="#FFFFFF" stroke-width="0.576" stroke-linecap="round" x1="73.799" y1="136.516" x2="75.6" y2="138.316"/>
			
				<line fill="none" stroke="#FFFFFF" stroke-width="0.576" stroke-linecap="round" x1="75.6" y1="138.316" x2="75.6" y2="141.916"/>
			
				<line fill="none" stroke="#FFFFFF" stroke-width="0.576" stroke-linecap="round" x1="75.6" y1="141.916" x2="73.799" y2="143.717"/>
			
				<line fill="none" stroke="#FFFFFF" stroke-width="0.576" stroke-linecap="round" x1="70.2" y1="143.717" x2="68.4" y2="141.916"/>
			
				<line fill="none" stroke="#FFFFFF" stroke-width="0.576" stroke-linecap="round" x1="68.4" y1="141.916" x2="68.4" y2="138.316"/>
			
				<line fill="none" stroke="#FFFFFF" stroke-width="0.576" stroke-linecap="round" x1="68.4" y1="138.316" x2="70.2" y2="136.516"/>
			
				<line fill="none" stroke="#FFFFFF" stroke-width="0.576" stroke-linecap="round" x1="75.6" y1="145.516" x2="73.799" y2="143.717"/>
			
				<line fill="none" stroke="#FFFFFF" stroke-width="0.576" stroke-linecap="round" x1="70.2" y1="143.717" x2="68.4" y2="145.516"/>
			
				<line fill="none" stroke="#FFFFFF" stroke-width="0.576" stroke-linecap="round" x1="68.4" y1="149.116" x2="68.4" y2="145.516"/>
			
				<line fill="none" stroke="#FFFFFF" stroke-width="0.576" stroke-linecap="round" x1="75.6" y1="123.916" x2="75.6" y2="127.516"/>
			
				<line fill="none" stroke="#FFFFFF" stroke-width="0.576" stroke-linecap="round" x1="75.6" y1="127.516" x2="73.799" y2="129.316"/>
			
				<line fill="none" stroke="#FFFFFF" stroke-width="0.576" stroke-linecap="round" x1="70.2" y1="129.316" x2="68.4" y2="127.516"/>
			
				<line fill="none" stroke="#FFFFFF" stroke-width="0.576" stroke-linecap="round" x1="73.799" y1="129.316" x2="75.6" y2="131.116"/>
			
				<line fill="none" stroke="#FFFFFF" stroke-width="0.576" stroke-linecap="round" x1="75.6" y1="131.116" x2="75.6" y2="134.717"/>
			
				<line fill="none" stroke="#FFFFFF" stroke-width="0.576" stroke-linecap="round" x1="75.6" y1="134.717" x2="73.799" y2="136.516"/>
			
				<line fill="none" stroke="#FFFFFF" stroke-width="0.576" stroke-linecap="round" x1="70.2" y1="136.516" x2="68.4" y2="134.717"/>
			
				<line fill="none" stroke="#FFFFFF" stroke-width="0.576" stroke-linecap="round" x1="68.4" y1="134.717" x2="68.4" y2="131.116"/>
			
				<line fill="none" stroke="#FFFFFF" stroke-width="0.576" stroke-linecap="round" x1="68.4" y1="131.116" x2="70.2" y2="129.316"/>
			
				<line fill="none" stroke="#FFFFFF" stroke-width="0.576" stroke-linecap="round" x1="73.799" y1="114.916" x2="75.6" y2="116.717"/>
			
				<line fill="none" stroke="#FFFFFF" stroke-width="0.576" stroke-linecap="round" x1="75.6" y1="116.717" x2="75.6" y2="120.316"/>
			
				<line fill="none" stroke="#FFFFFF" stroke-width="0.576" stroke-linecap="round" x1="75.6" y1="120.316" x2="73.799" y2="122.116"/>
			
				<line fill="none" stroke="#FFFFFF" stroke-width="0.576" stroke-linecap="round" x1="70.2" y1="122.116" x2="68.4" y2="120.316"/>
			
				<line fill="none" stroke="#FFFFFF" stroke-width="0.576" stroke-linecap="round" x1="68.4" y1="120.316" x2="68.4" y2="116.717"/>
			
				<line fill="none" stroke="#FFFFFF" stroke-width="0.576" stroke-linecap="round" x1="68.4" y1="116.717" x2="70.2" y2="114.916"/>
			
				<line fill="none" stroke="#FFFFFF" stroke-width="0.576" stroke-linecap="round" x1="75.6" y1="123.916" x2="73.799" y2="122.116"/>
			
				<line fill="none" stroke="#FFFFFF" stroke-width="0.576" stroke-linecap="round" x1="70.2" y1="122.116" x2="68.4" y2="123.916"/>
			
				<line fill="none" stroke="#FFFFFF" stroke-width="0.576" stroke-linecap="round" x1="68.4" y1="127.516" x2="68.4" y2="123.916"/>
			
				<line fill="none" stroke="#FFFFFF" stroke-width="0.576" stroke-linecap="round" x1="75.6" y1="102.316" x2="75.6" y2="105.916"/>
			
				<line fill="none" stroke="#FFFFFF" stroke-width="0.576" stroke-linecap="round" x1="75.6" y1="105.916" x2="73.799" y2="107.717"/>
			
				<line fill="none" stroke="#FFFFFF" stroke-width="0.576" stroke-linecap="round" x1="70.2" y1="107.717" x2="68.4" y2="105.916"/>
			
				<line fill="none" stroke="#FFFFFF" stroke-width="0.576" stroke-linecap="round" x1="73.799" y1="107.717" x2="75.6" y2="109.516"/>
			
				<line fill="none" stroke="#FFFFFF" stroke-width="0.576" stroke-linecap="round" x1="75.6" y1="109.516" x2="75.6" y2="113.116"/>
			
				<line fill="none" stroke="#FFFFFF" stroke-width="0.576" stroke-linecap="round" x1="75.6" y1="113.116" x2="73.799" y2="114.916"/>
			
				<line fill="none" stroke="#FFFFFF" stroke-width="0.576" stroke-linecap="round" x1="70.2" y1="114.916" x2="68.4" y2="113.116"/>
			
				<line fill="none" stroke="#FFFFFF" stroke-width="0.576" stroke-linecap="round" x1="68.4" y1="113.116" x2="68.4" y2="109.516"/>
			
				<line fill="none" stroke="#FFFFFF" stroke-width="0.576" stroke-linecap="round" x1="68.4" y1="109.516" x2="70.2" y2="107.717"/>
			
				<line fill="none" stroke="#FFFFFF" stroke-width="0.576" stroke-linecap="round" x1="73.799" y1="100.516" x2="70.2" y2="100.516"/>
			
				<line fill="none" stroke="#FFFFFF" stroke-width="0.576" stroke-linecap="round" x1="75.6" y1="102.316" x2="73.799" y2="100.516"/>
			
				<line fill="none" stroke="#FFFFFF" stroke-width="0.576" stroke-linecap="round" x1="70.2" y1="100.516" x2="68.4" y2="102.316"/>
			
				<line fill="none" stroke="#FFFFFF" stroke-width="0.576" stroke-linecap="round" x1="68.4" y1="105.916" x2="68.4" y2="102.316"/>
			
				<line fill="none" stroke="#FFFFFF" stroke-width="0.576" stroke-linecap="round" x1="75.6" y1="195.916" x2="75.6" y2="199.516"/>
			
				<line fill="none" stroke="#FFFFFF" stroke-width="0.576" stroke-linecap="round" x1="75.6" y1="199.516" x2="73.799" y2="201.316"/>
			
				<line fill="none" stroke="#FFFFFF" stroke-width="0.576" stroke-linecap="round" x1="70.2" y1="201.316" x2="68.4" y2="199.516"/>
			
				<line fill="none" stroke="#FFFFFF" stroke-width="0.576" stroke-linecap="round" x1="73.799" y1="186.916" x2="75.6" y2="188.717"/>
			
				<line fill="none" stroke="#FFFFFF" stroke-width="0.576" stroke-linecap="round" x1="75.6" y1="188.717" x2="75.6" y2="192.316"/>
			
				<line fill="none" stroke="#FFFFFF" stroke-width="0.576" stroke-linecap="round" x1="75.6" y1="192.316" x2="73.799" y2="194.116"/>
			
				<line fill="none" stroke="#FFFFFF" stroke-width="0.576" stroke-linecap="round" x1="70.2" y1="194.116" x2="68.4" y2="192.316"/>
			
				<line fill="none" stroke="#FFFFFF" stroke-width="0.576" stroke-linecap="round" x1="68.4" y1="192.316" x2="68.4" y2="188.717"/>
			
				<line fill="none" stroke="#FFFFFF" stroke-width="0.576" stroke-linecap="round" x1="68.4" y1="188.717" x2="70.2" y2="186.916"/>
			
				<line fill="none" stroke="#FFFFFF" stroke-width="0.576" stroke-linecap="round" x1="75.6" y1="195.916" x2="73.799" y2="194.116"/>
			
				<line fill="none" stroke="#FFFFFF" stroke-width="0.576" stroke-linecap="round" x1="70.2" y1="194.116" x2="68.4" y2="195.916"/>
			
				<line fill="none" stroke="#FFFFFF" stroke-width="0.576" stroke-linecap="round" x1="68.4" y1="199.516" x2="68.4" y2="195.916"/>
			
				<line fill="none" stroke="#FFFFFF" stroke-width="0.576" stroke-linecap="round" x1="75.6" y1="174.316" x2="75.6" y2="177.916"/>
			
				<line fill="none" stroke="#FFFFFF" stroke-width="0.576" stroke-linecap="round" x1="75.6" y1="177.916" x2="73.799" y2="179.717"/>
			
				<line fill="none" stroke="#FFFFFF" stroke-width="0.576" stroke-linecap="round" x1="70.2" y1="179.717" x2="68.4" y2="177.916"/>
			
				<line fill="none" stroke="#FFFFFF" stroke-width="0.576" stroke-linecap="round" x1="73.799" y1="179.717" x2="75.6" y2="181.516"/>
			
				<line fill="none" stroke="#FFFFFF" stroke-width="0.576" stroke-linecap="round" x1="75.6" y1="181.516" x2="75.6" y2="185.116"/>
			
				<line fill="none" stroke="#FFFFFF" stroke-width="0.576" stroke-linecap="round" x1="75.6" y1="185.116" x2="73.799" y2="186.916"/>
			
				<line fill="none" stroke="#FFFFFF" stroke-width="0.576" stroke-linecap="round" x1="70.2" y1="186.916" x2="68.4" y2="185.116"/>
			
				<line fill="none" stroke="#FFFFFF" stroke-width="0.576" stroke-linecap="round" x1="68.4" y1="185.116" x2="68.4" y2="181.516"/>
			
				<line fill="none" stroke="#FFFFFF" stroke-width="0.576" stroke-linecap="round" x1="68.4" y1="181.516" x2="70.2" y2="179.717"/>
			
				<line fill="none" stroke="#FFFFFF" stroke-width="0.576" stroke-linecap="round" x1="73.799" y1="165.316" x2="75.6" y2="167.116"/>
			
				<line fill="none" stroke="#FFFFFF" stroke-width="0.576" stroke-linecap="round" x1="75.6" y1="167.116" x2="75.6" y2="170.717"/>
			
				<line fill="none" stroke="#FFFFFF" stroke-width="0.576" stroke-linecap="round" x1="75.6" y1="170.717" x2="73.799" y2="172.516"/>
			
				<line fill="none" stroke="#FFFFFF" stroke-width="0.576" stroke-linecap="round" x1="70.2" y1="172.516" x2="68.4" y2="170.717"/>
			
				<line fill="none" stroke="#FFFFFF" stroke-width="0.576" stroke-linecap="round" x1="68.4" y1="170.717" x2="68.4" y2="167.116"/>
			
				<line fill="none" stroke="#FFFFFF" stroke-width="0.576" stroke-linecap="round" x1="68.4" y1="167.116" x2="70.2" y2="165.316"/>
			
				<line fill="none" stroke="#FFFFFF" stroke-width="0.576" stroke-linecap="round" x1="75.6" y1="174.316" x2="73.799" y2="172.516"/>
			
				<line fill="none" stroke="#FFFFFF" stroke-width="0.576" stroke-linecap="round" x1="70.2" y1="172.516" x2="68.4" y2="174.316"/>
			
				<line fill="none" stroke="#FFFFFF" stroke-width="0.576" stroke-linecap="round" x1="68.4" y1="177.916" x2="68.4" y2="174.316"/>
			
				<line fill="none" stroke="#FFFFFF" stroke-width="0.576" stroke-linecap="round" x1="75.6" y1="152.717" x2="75.6" y2="156.316"/>
			
				<line fill="none" stroke="#FFFFFF" stroke-width="0.576" stroke-linecap="round" x1="75.6" y1="156.316" x2="73.799" y2="158.116"/>
			
				<line fill="none" stroke="#FFFFFF" stroke-width="0.576" stroke-linecap="round" x1="70.2" y1="158.116" x2="68.4" y2="156.316"/>
			
				<line fill="none" stroke="#FFFFFF" stroke-width="0.576" stroke-linecap="round" x1="73.799" y1="158.116" x2="75.6" y2="159.916"/>
			
				<line fill="none" stroke="#FFFFFF" stroke-width="0.576" stroke-linecap="round" x1="75.6" y1="159.916" x2="75.6" y2="163.516"/>
			
				<line fill="none" stroke="#FFFFFF" stroke-width="0.576" stroke-linecap="round" x1="75.6" y1="163.516" x2="73.799" y2="165.316"/>
			
				<line fill="none" stroke="#FFFFFF" stroke-width="0.576" stroke-linecap="round" x1="70.2" y1="165.316" x2="68.4" y2="163.516"/>
			
				<line fill="none" stroke="#FFFFFF" stroke-width="0.576" stroke-linecap="round" x1="68.4" y1="163.516" x2="68.4" y2="159.916"/>
			
				<line fill="none" stroke="#FFFFFF" stroke-width="0.576" stroke-linecap="round" x1="68.4" y1="159.916" x2="70.2" y2="158.116"/>
			
				<line fill="none" stroke="#FFFFFF" stroke-width="0.576" stroke-linecap="round" x1="75.6" y1="152.717" x2="73.799" y2="150.916"/>
			
				<line fill="none" stroke="#FFFFFF" stroke-width="0.576" stroke-linecap="round" x1="70.2" y1="150.916" x2="68.4" y2="152.717"/>
			
				<line fill="none" stroke="#FFFFFF" stroke-width="0.576" stroke-linecap="round" x1="68.4" y1="156.316" x2="68.4" y2="152.717"/>
			
				<line fill="none" stroke="#FFFFFF" stroke-width="0.576" stroke-linecap="round" x1="73.799" y1="201.316" x2="70.2" y2="201.316"/>
		</g>
	</g>
	<g>
		<title>element:S2</title>
		<g>
			<title>package:AYZ0202</title>
			
				<line fill="none" stroke="#FFFFFF" stroke-width="0.576" stroke-linecap="round" x1="59.838" y1="99.922" x2="69.76" y2="99.922"/>
			
				<line fill="none" stroke="#FFFFFF" stroke-width="0.576" stroke-linecap="round" x1="69.76" y1="99.922" x2="69.76" y2="79.512"/>
			
				<line fill="none" stroke="#FFFFFF" stroke-width="0.576" stroke-linecap="round" x1="69.76" y1="79.512" x2="59.838" y2="79.512"/>
			
				<line fill="none" stroke="#FFFFFF" stroke-width="0.576" stroke-linecap="round" x1="59.838" y1="79.512" x2="59.838" y2="99.922"/>
		</g>
	</g>
	<g>
		<title>element:U$1</title>
		<g>
			<title>package:SFE-NEW-WEBLOGO</title>
		</g>
	</g>
	<g>
		<title>element:U$6</title>
		<g>
			<title>package:FUNNEL_LOGO_BOTTOM_V2</title>
		</g>
	</g>
	<g>
		<title>element:U4</title>
		<g>
			<title>package:XBEE-SMD</title>
		</g>
	</g>
	<g>
		<title>element:X1</title>
		<g>
			<title>package:USB-MINIB</title>
			
				<line fill="none" stroke="#FFFFFF" stroke-width="0.576" stroke-linecap="round" x1="38.132" y1="28.432" x2="38.132" y2="34.384"/>
			
				<line fill="none" stroke="#FFFFFF" stroke-width="0.576" stroke-linecap="round" x1="36.147" y1="41.471" x2="33.596" y2="41.471"/>
			
				<line fill="none" stroke="#FFFFFF" stroke-width="0.576" stroke-linecap="round" x1="21.124" y1="41.471" x2="18.573" y2="41.471"/>
			
				<line fill="none" stroke="#FFFFFF" stroke-width="0.576" stroke-linecap="round" x1="16.588" y1="34.384" x2="16.588" y2="28.432"/>
		</g>
	</g>
	<line fill="none" stroke="#FFFFFF" stroke-width="0.576" x1="4.875" y1="0.288" x2="74.325" y2="0.288"/>
	<line fill="none" stroke="#FFFFFF" stroke-width="0.576" x1="4.875" y1="17.717" x2="4.875" y2="0.288"/>
	<line fill="none" stroke="#FFFFFF" stroke-width="0.576" x1="74.325" y1="17.717" x2="74.325" y2="0.288"/>
	<line fill="none" stroke="#FFFFFF" stroke-width="0.576" x1="16.588" y1="15.392" x2="38.132" y2="15.392"/>
	<line fill="none" stroke="#FFFFFF" stroke-width="0.576" x1="16.588" y1="17.717" x2="16.588" y2="15.392"/>
	<line fill="none" stroke="#FFFFFF" stroke-width="0.576" x1="38.132" y1="17.717" x2="38.132" y2="15.392"/>
</g>
<g id="copper1">
	<g id="copper0">
		<circle id="connector22pad" fill="none" stroke="#F7BD13" cx="7.2" cy="104.116" r="2.052"/>
		<circle id="connector23pad" fill="none" stroke="#F7BD13" cx="7.2" cy="111.316" r="2.052"/>
		<circle id="connector24pad" fill="none" stroke="#F7BD13" cx="7.2" cy="118.517" r="2.052"/>
		<circle id="connector25pad" fill="none" stroke="#F7BD13" cx="7.2" cy="125.716" r="2.052"/>
		<circle id="connector26pad" fill="none" stroke="#F7BD13" cx="7.2" cy="132.917" r="2.052"/>
		<circle id="connector27pad" fill="none" stroke="#F7BD13" cx="7.2" cy="140.116" r="2.052"/>
		<circle id="connector28pad" fill="none" stroke="#F7BD13" cx="7.2" cy="147.316" r="2.052"/>
		<circle id="connector29pad" fill="none" stroke="#F7BD13" cx="7.2" cy="154.517" r="2.052"/>
		<circle id="connector30pad" fill="none" stroke="#F7BD13" cx="7.2" cy="161.716" r="2.052"/>
		<circle id="connector31pad" fill="none" stroke="#F7BD13" cx="7.2" cy="168.917" r="2.052"/>
		<circle id="connector32pad" fill="none" stroke="#F7BD13" cx="7.2" cy="176.116" r="2.052"/>
		<circle id="connector33pad" fill="none" stroke="#F7BD13" cx="7.2" cy="183.316" r="2.052"/>
		<circle id="connector34pad" fill="none" stroke="#F7BD13" cx="7.2" cy="190.517" r="2.052"/>
		<circle id="connector35pad" fill="none" stroke="#F7BD13" cx="7.2" cy="197.716" r="2.052"/>
		<circle id="connector48pad" fill="none" stroke="#F7BD13" cx="72" cy="104.116" r="2.052"/>
		<circle id="connector49pad" fill="none" stroke="#F7BD13" cx="72" cy="111.316" r="2.052"/>
		<circle id="connector50pad" fill="none" stroke="#F7BD13" cx="72" cy="118.517" r="2.052"/>
		<circle id="connector51pad" fill="none" stroke="#F7BD13" cx="72" cy="125.716" r="2.052"/>
		<circle id="connector52pad" fill="none" stroke="#F7BD13" cx="72" cy="132.917" r="2.052"/>
		<circle id="connector53pad" fill="none" stroke="#F7BD13" cx="72" cy="140.116" r="2.052"/>
		<circle id="connector54pad" fill="none" stroke="#F7BD13" cx="72" cy="147.316" r="2.052"/>
		<circle id="connector55pad" fill="none" stroke="#F7BD13" cx="72" cy="154.517" r="2.052"/>
		<circle id="connector56pad" fill="none" stroke="#F7BD13" cx="72" cy="161.716" r="2.052"/>
		<circle id="connector57pad" fill="none" stroke="#F7BD13" cx="72" cy="168.917" r="2.052"/>
		<circle id="connector58pad" fill="none" stroke="#F7BD13" cx="72" cy="176.116" r="2.052"/>
		<circle id="connector59pad" fill="none" stroke="#F7BD13" cx="72" cy="183.316" r="2.052"/>
		<circle id="connector60pad" fill="none" stroke="#F7BD13" cx="72" cy="190.517" r="2.052"/>
		<circle id="connector61pad" fill="none" stroke="#F7BD13" cx="72" cy="197.716" r="2.052"/>
	</g>
</g>
</svg>
