<?xml version="1.0" encoding="utf-8"?>
<!-- Generator: Adobe Illustrator 16.0.0, SVG Export Plug-In . SVG Version: 6.00 Build 0)  -->
<!DOCTYPE svg PUBLIC "-//W3C//DTD SVG 1.1//EN" "http://www.w3.org/Graphics/SVG/1.1/DTD/svg11.dtd">
<svg version="1.1" id="Ebene_1" xmlns="http://www.w3.org/2000/svg" xmlns:xlink="http://www.w3.org/1999/xlink" x="0px" y="0px"
	 width="50.4px" height="86.4px" viewBox="0 0 50.4 86.4" enable-background="new 0 0 50.4 86.4" xml:space="preserve">
<desc>Fritzing footprint generated by brd2svg</desc>
<g id="silkscreen">
	<path fill="none" stroke="#FFFFFF" stroke-width="0.576" d="M0.288,0.288v85.824h49.824V0.288H0.288"/>
	<g>
		<title>element:J1</title>
		<g>
			<title>package:1X12</title>
		</g>
	</g>
	<g>
		<title>element:J2</title>
		<g>
			<title>package:1X12</title>
		</g>
	</g>
	<g>
		<title>element:J3</title>
		<g>
			<title>package:2X02</title>
		</g>
	</g>
	<g>
		<title>element:J4</title>
		<g>
			<title>package:1X5</title>
		</g>
	</g>
	<g>
		<text transform="matrix(1 0 0 1 6.2874 83.7107)" fill="#FFFFFF" font-family="'OCRA'" font-size="2.25">9</text>
		<text transform="matrix(1 0 0 1 6.2874 76.366)" fill="#FFFFFF" font-family="'OCRA'" font-size="2.25">8</text>
		<text transform="matrix(1 0 0 1 6.2874 69.5261)" fill="#FFFFFF" font-family="'OCRA'" font-size="2.25">7</text>
		<text transform="matrix(1 0 0 1 6.2874 61.9666)" fill="#FFFFFF" font-family="'OCRA'" font-size="2.25">6</text>
		<text transform="matrix(1 0 0 1 6.2874 54.7664)" fill="#FFFFFF" font-family="'OCRA'" font-size="2.25">5</text>
		<text transform="matrix(1 0 0 1 6.1077 47.7107)" fill="#FFFFFF" font-family="'OCRA'" font-size="2.25">4</text>
		<text transform="matrix(1 0 0 1 6.1077 40.5105)" fill="#FFFFFF" font-family="'OCRA'" font-size="2.25">3</text>
		<text transform="matrix(1 0 0 1 6.1077 33.3103)" fill="#FFFFFF" font-family="'OCRA'" font-size="2.25">2</text>
		
			<text transform="matrix(5.960464e-008 -1 1 5.960464e-008 7.9275 27.4836)" fill="#FFFFFF" font-family="'OCRA'" font-size="2.25">GND</text>
		
			<text transform="matrix(-4.371139e-008 -1 1 -4.371139e-008 7.9304 20.2795)" fill="#FFFFFF" font-family="'OCRA'" font-size="2.25">RST</text>
		
			<text transform="matrix(-4.371139e-008 -1 1 -4.371139e-008 44.2429 20.2795)" fill="#FFFFFF" font-family="'OCRA'" font-size="2.25">RST</text>
		<text transform="matrix(1 0 0 1 6.2493 10.3738)" fill="#FFFFFF" font-family="'OCRA'" font-size="2.25">R</text>
		<text transform="matrix(1 0 0 1 6.2493 13.074)" fill="#FFFFFF" font-family="'OCRA'" font-size="2.25">X</text>
		<text transform="matrix(1 0 0 1 6.1072 3.2351)" fill="#FFFFFF" font-family="'OCRA'" font-size="2.25">T</text>
		<text transform="matrix(1 0 0 1 6.1072 5.9353)" fill="#FFFFFF" font-family="'OCRA'" font-size="2.25">X</text>
		<text transform="matrix(1 0 0 1 20.7996 3.2351)" fill="#FFFFFF" font-family="'OCRA'" font-size="2.25">T</text>
		<text transform="matrix(1 0 0 1 20.7996 5.9353)" fill="#FFFFFF" font-family="'OCRA'" font-size="2.25">X</text>
		<text transform="matrix(1 0 0 1 28.2175 3.2351)" fill="#FFFFFF" font-family="'OCRA'" font-size="2.25">R</text>
		<text transform="matrix(1 0 0 1 28.2175 5.9353)" fill="#FFFFFF" font-family="'OCRA'" font-size="2.25">X</text>
		<text transform="matrix(1 0 0 1 35.2175 3.2351)" fill="#FFFFFF" font-family="'OCRA'" font-size="2.25">5</text>
		<text transform="matrix(1 0 0 1 35.2175 5.9353)" fill="#FFFFFF" font-family="'OCRA'" font-size="2.25">V</text>
		
			<text transform="matrix(-1.836970e-016 -1 1 -1.836970e-016 15.1814 5.8552)" fill="#FFFFFF" font-family="'OCRA'" font-size="2.25">RST</text>
		<text transform="matrix(1 0 0 1 42.4412 31.991)" fill="#FFFFFF" font-family="'OCRA'" font-size="2.25">A</text>
		<text transform="matrix(1 0 0 1 42.4412 34.6912)" fill="#FFFFFF" font-family="'OCRA'" font-size="2.25">3</text>
		<text transform="matrix(1 0 0 1 42.4412 39.1902)" fill="#FFFFFF" font-family="'OCRA'" font-size="2.25">A</text>
		<text transform="matrix(1 0 0 1 42.4412 41.8904)" fill="#FFFFFF" font-family="'OCRA'" font-size="2.25">2</text>
		<text transform="matrix(1 0 0 1 42.4412 46.3386)" fill="#FFFFFF" font-family="'OCRA'" font-size="2.25">A</text>
		<text transform="matrix(1 0 0 1 42.4412 49.0388)" fill="#FFFFFF" font-family="'OCRA'" font-size="2.25">1</text>
		<text transform="matrix(1 0 0 1 42.4412 53.447)" fill="#FFFFFF" font-family="'OCRA'" font-size="2.25">A</text>
		<text transform="matrix(1 0 0 1 42.4412 56.1472)" fill="#FFFFFF" font-family="'OCRA'" font-size="2.25">0</text>
		<text transform="matrix(1 0 0 1 42.4412 60.6472)" fill="#FFFFFF" font-family="'OCRA'" font-size="2.25">1</text>
		<text transform="matrix(1 0 0 1 42.4412 63.3474)" fill="#FFFFFF" font-family="'OCRA'" font-size="2.25">3</text>
		
			<text transform="matrix(-1.836970e-016 -1 1 -1.836970e-016 44.28 5.8552)" fill="#FFFFFF" font-family="'OCRA'" font-size="2.25">GND</text>
		
			<text transform="matrix(-1.836970e-016 -1 1 -1.836970e-016 37.0798 84.6804)" fill="#FFFFFF" font-family="'OCRA'" font-size="2.25">GND</text>
		
			<text transform="matrix(-1.836970e-016 -1 1 -1.836970e-016 29.8796 84.6804)" fill="#FFFFFF" font-family="'OCRA'" font-size="2.25">+5V</text>
		<text transform="matrix(1 0 0 1 42.2996 82.238)" fill="#FFFFFF" font-family="'OCRA'" font-size="2.25">1</text>
		<text transform="matrix(1 0 0 1 42.2996 84.9382)" fill="#FFFFFF" font-family="'OCRA'" font-size="2.25">0</text>
		<text transform="matrix(1 0 0 1 42.4412 75.0466)" fill="#FFFFFF" font-family="'OCRA'" font-size="2.25">1</text>
		<text transform="matrix(1 0 0 1 42.4412 77.7468)" fill="#FFFFFF" font-family="'OCRA'" font-size="2.25">1</text>
		<text transform="matrix(1 0 0 1 42.4412 67.9382)" fill="#FFFFFF" font-family="'OCRA'" font-size="2.25">1</text>
		<text transform="matrix(1 0 0 1 42.4412 70.6384)" fill="#FFFFFF" font-family="'OCRA'" font-size="2.25">2</text>
		<text transform="matrix(1 0 0 1 42.4412 24.4832)" fill="#FFFFFF" font-family="'OCRA'" font-size="2.25">5</text>
		<text transform="matrix(1 0 0 1 42.4412 27.1833)" fill="#FFFFFF" font-family="'OCRA'" font-size="2.25">V</text>
		<text transform="matrix(1 0 0 1 41.5076 7.7927)" fill="#FFFFFF" font-family="'OCRA'" font-size="2.25">9V</text>
		
			<text transform="matrix(8.979319e-011 -1 1 8.979319e-011 44.2429 13.2078)" fill="#FFFFFF" font-family="'OCRA'" font-size="2.25">GND</text>
		<text transform="matrix(1 0 0 1 13.8333 82.238)" fill="#FFFFFF" font-family="'OCRA'" font-size="2.25">A</text>
		<text transform="matrix(1 0 0 1 13.8333 84.9382)" fill="#FFFFFF" font-family="'OCRA'" font-size="2.25">4</text>
		<text transform="matrix(1 0 0 1 13.8333 75.0261)" fill="#FFFFFF" font-family="'OCRA'" font-size="2.25">A</text>
		<text transform="matrix(1 0 0 1 13.8333 77.7263)" fill="#FFFFFF" font-family="'OCRA'" font-size="2.25">6</text>
		<text transform="matrix(1 0 0 1 20.7996 82.238)" fill="#FFFFFF" font-family="'OCRA'" font-size="2.25">A</text>
		<text transform="matrix(1 0 0 1 20.7996 84.9382)" fill="#FFFFFF" font-family="'OCRA'" font-size="2.25">5</text>
		<text transform="matrix(1 0 0 1 20.5496 75.0261)" fill="#FFFFFF" font-family="'OCRA'" font-size="2.25">A</text>
		<text transform="matrix(1 0 0 1 20.5496 77.7263)" fill="#FFFFFF" font-family="'OCRA'" font-size="2.25">7</text>
		<polyline fill="none" stroke="#FFFFFF" stroke-width="0.432" stroke-linecap="round" points="44.892,7.208 46.8,7.208 46.8,6.623 
					"/>
	</g>
</g>
<g id="copper1">
	<g id="copper0">
		<circle id="connector57pad" fill="none" stroke="#F7BD13" cx="39.6" cy="3.6" r="1.908"/>
		<circle id="connector55pad" fill="none" stroke="#F7BD13" cx="25.2" cy="3.6" r="1.908"/>
		<circle id="connector59pad" fill="none" stroke="#F7BD13" cx="32.4" cy="82.8" r="1.908"/>
		<circle id="connector25pad" fill="none" stroke="#F7BD13" cx="3.6" cy="3.6" r="1.908"/>
		<circle id="connector26pad" fill="none" stroke="#F7BD13" cx="3.6" cy="10.8" r="1.908"/>
		<circle id="connector27pad" fill="none" stroke="#F7BD13" cx="3.6" cy="18" r="1.908"/>
		<circle id="connector56pad" fill="none" stroke="#F7BD13" cx="32.4" cy="3.6" r="1.908"/>
		<circle id="connector28pad" fill="none" stroke="#F7BD13" cx="3.6" cy="25.2" r="1.908"/>
		<circle id="connector58pad" fill="none" stroke="#F7BD13" cx="39.6" cy="82.8" r="1.908"/>
		<circle id="connector29pad" fill="none" stroke="#F7BD13" cx="3.6" cy="32.4" r="1.908"/>
		<circle id="connector30pad" fill="none" stroke="#F7BD13" cx="3.6" cy="39.6" r="1.908"/>
		<circle id="connector31pad" fill="none" stroke="#F7BD13" cx="3.6" cy="46.8" r="1.908"/>
		<circle id="connector32pad" fill="none" stroke="#F7BD13" cx="3.6" cy="54" r="1.908"/>
		<circle id="connector33pad" fill="none" stroke="#F7BD13" cx="3.6" cy="61.2" r="1.908"/>
		<circle id="connector34pad" fill="none" stroke="#F7BD13" cx="3.6" cy="68.4" r="1.908"/>
		<circle id="connector35pad" fill="none" stroke="#F7BD13" cx="3.6" cy="75.6" r="1.908"/>
		<circle id="connector36pad" fill="none" stroke="#F7BD13" cx="3.6" cy="82.8" r="1.908"/>
		<circle id="connector37pad" fill="none" stroke="#F7BD13" cx="46.8" cy="3.6" r="1.908"/>
		<circle id="connector38pad" fill="none" stroke="#F7BD13" cx="46.8" cy="10.8" r="1.908"/>
		<circle id="connector39pad" fill="none" stroke="#F7BD13" cx="46.8" cy="18" r="1.908"/>
		<circle id="connector40pad" fill="none" stroke="#F7BD13" cx="46.8" cy="25.2" r="1.908"/>
		<circle id="connector41pad" fill="none" stroke="#F7BD13" cx="46.8" cy="32.4" r="1.908"/>
		<circle id="connector42pad" fill="none" stroke="#F7BD13" cx="46.8" cy="39.6" r="1.908"/>
		<circle id="connector43pad" fill="none" stroke="#F7BD13" cx="46.8" cy="46.8" r="1.908"/>
		<circle id="connector44pad" fill="none" stroke="#F7BD13" cx="46.8" cy="54" r="1.908"/>
		<circle id="connector45pad" fill="none" stroke="#F7BD13" cx="46.8" cy="61.2" r="1.908"/>
		<circle id="connector46pad" fill="none" stroke="#F7BD13" cx="46.8" cy="68.4" r="1.908"/>
		<circle id="connector47pad" fill="none" stroke="#F7BD13" cx="46.8" cy="75.6" r="1.908"/>
		<circle id="connector48pad" fill="none" stroke="#F7BD13" cx="46.8" cy="82.8" r="1.908"/>
		<circle id="connector49pad" fill="none" stroke="#F7BD13" cx="10.8" cy="75.6" r="1.908"/>
		<circle id="connector50pad" fill="none" stroke="#F7BD13" cx="10.8" cy="82.8" r="1.908"/>
		<circle id="connector51pad" fill="none" stroke="#F7BD13" cx="18" cy="75.6" r="1.907"/>
		<circle id="connector52pad" fill="none" stroke="#F7BD13" cx="18" cy="82.8" r="1.907"/>
		<circle id="connector53pad" fill="none" stroke="#F7BD13" cx="10.8" cy="3.6" r="1.908"/>
		<circle id="connector54pad" fill="none" stroke="#F7BD13" cx="18" cy="3.6" r="1.908"/>
	</g>
</g>
</svg>
