<?xml version='1.0' encoding='UTF-8' standalone='no'?>
<!-- Created with Fritzing (http://www.fritzing.org/) -->
<svg xmlns="http://www.w3.org/2000/svg" width="0.8in" x="0in" version="1.2" y="0in" height="0.8in" viewBox="0 0 57.6 57.6" baseProfile="tiny">
 <desc >Fritzing footprint generated by brd2svg</desc>
 <g  id="silkscreen" stroke-width="0">
  <path  fill="none" stroke="white" stroke-width="0.576" d="M0.288,57.312L57.312,57.312L57.312,0.288L43.056,0.288A16.7859,16.7859,0,0,1,14.544,0.288L0.288,0.288L0.288,57.312"/>
  <g  stroke-width="0">
   <title >element:BAT1</title>
   <g  stroke-width="0">
    <title >package:BATTCON_12MM_CURVED</title>
   </g>
  </g>
  <g  stroke-width="0">
   <title >element:JP1</title>
   <g  stroke-width="0">
    <title >package:1X07</title>
    <line  stroke="white" stroke-linecap="round" y1="50.4" x1="48.6" y2="50.4" stroke-width="0.576" x2="52.2"/>
    <line  stroke="white" stroke-linecap="round" y1="50.4" x1="52.2" y2="52.2" stroke-width="0.576" x2="54"/>
    <line  stroke="white" stroke-linecap="round" y1="55.8" x1="54" y2="57.6" stroke-width="0.576" x2="52.2"/>
    <line  stroke="white" stroke-linecap="round" y1="52.2" x1="39.6" y2="50.4" stroke-width="0.576" x2="41.4"/>
    <line  stroke="white" stroke-linecap="round" y1="50.4" x1="41.4" y2="50.4" stroke-width="0.576" x2="45"/>
    <line  stroke="white" stroke-linecap="round" y1="50.4" x1="45" y2="52.2" stroke-width="0.576" x2="46.8"/>
    <line  stroke="white" stroke-linecap="round" y1="55.8" x1="46.8" y2="57.6" stroke-width="0.576" x2="45"/>
    <line  stroke="white" stroke-linecap="round" y1="57.6" x1="45" y2="57.6" stroke-width="0.576" x2="41.4"/>
    <line  stroke="white" stroke-linecap="round" y1="57.6" x1="41.4" y2="55.8" stroke-width="0.576" x2="39.6"/>
    <line  stroke="white" stroke-linecap="round" y1="50.4" x1="48.6" y2="52.2" stroke-width="0.576" x2="46.8"/>
    <line  stroke="white" stroke-linecap="round" y1="55.8" x1="46.8" y2="57.6" stroke-width="0.576" x2="48.6"/>
    <line  stroke="white" stroke-linecap="round" y1="57.6" x1="52.2" y2="57.6" stroke-width="0.576" x2="48.6"/>
    <line  stroke="white" stroke-linecap="round" y1="50.4" x1="27" y2="50.4" stroke-width="0.576" x2="30.6"/>
    <line  stroke="white" stroke-linecap="round" y1="50.4" x1="30.6" y2="52.2" stroke-width="0.576" x2="32.4"/>
    <line  stroke="white" stroke-linecap="round" y1="55.8" x1="32.4" y2="57.6" stroke-width="0.576" x2="30.6"/>
    <line  stroke="white" stroke-linecap="round" y1="52.2" x1="32.4" y2="50.4" stroke-width="0.576" x2="34.2"/>
    <line  stroke="white" stroke-linecap="round" y1="50.4" x1="34.2" y2="50.4" stroke-width="0.576" x2="37.8"/>
    <line  stroke="white" stroke-linecap="round" y1="50.4" x1="37.8" y2="52.2" stroke-width="0.576" x2="39.6"/>
    <line  stroke="white" stroke-linecap="round" y1="55.8" x1="39.6" y2="57.6" stroke-width="0.576" x2="37.8"/>
    <line  stroke="white" stroke-linecap="round" y1="57.6" x1="37.8" y2="57.6" stroke-width="0.576" x2="34.2"/>
    <line  stroke="white" stroke-linecap="round" y1="57.6" x1="34.2" y2="55.8" stroke-width="0.576" x2="32.4"/>
    <line  stroke="white" stroke-linecap="round" y1="52.2" x1="18" y2="50.4" stroke-width="0.576" x2="19.8"/>
    <line  stroke="white" stroke-linecap="round" y1="50.4" x1="19.8" y2="50.4" stroke-width="0.576" x2="23.4"/>
    <line  stroke="white" stroke-linecap="round" y1="50.4" x1="23.4" y2="52.2" stroke-width="0.576" x2="25.2"/>
    <line  stroke="white" stroke-linecap="round" y1="55.8" x1="25.2" y2="57.6" stroke-width="0.576" x2="23.4"/>
    <line  stroke="white" stroke-linecap="round" y1="57.6" x1="23.4" y2="57.6" stroke-width="0.576" x2="19.8"/>
    <line  stroke="white" stroke-linecap="round" y1="57.6" x1="19.8" y2="55.8" stroke-width="0.576" x2="18"/>
    <line  stroke="white" stroke-linecap="round" y1="50.4" x1="27" y2="52.2" stroke-width="0.576" x2="25.2"/>
    <line  stroke="white" stroke-linecap="round" y1="55.8" x1="25.2" y2="57.6" stroke-width="0.576" x2="27"/>
    <line  stroke="white" stroke-linecap="round" y1="57.6" x1="30.6" y2="57.6" stroke-width="0.576" x2="27"/>
    <line  stroke="white" stroke-linecap="round" y1="50.4" x1="5.4" y2="50.4" stroke-width="0.576" x2="9"/>
    <line  stroke="white" stroke-linecap="round" y1="50.4" x1="9" y2="52.2" stroke-width="0.576" x2="10.8"/>
    <line  stroke="white" stroke-linecap="round" y1="55.8" x1="10.8" y2="57.6" stroke-width="0.576" x2="9"/>
    <line  stroke="white" stroke-linecap="round" y1="52.2" x1="10.8" y2="50.4" stroke-width="0.576" x2="12.6"/>
    <line  stroke="white" stroke-linecap="round" y1="50.4" x1="12.6" y2="50.4" stroke-width="0.576" x2="16.2"/>
    <line  stroke="white" stroke-linecap="round" y1="50.4" x1="16.2" y2="52.2" stroke-width="0.576" x2="18"/>
    <line  stroke="white" stroke-linecap="round" y1="55.8" x1="18" y2="57.6" stroke-width="0.576" x2="16.2"/>
    <line  stroke="white" stroke-linecap="round" y1="57.6" x1="16.2" y2="57.6" stroke-width="0.576" x2="12.6"/>
    <line  stroke="white" stroke-linecap="round" y1="57.6" x1="12.6" y2="55.8" stroke-width="0.576" x2="10.8"/>
    <line  stroke="white" stroke-linecap="round" y1="52.2" x1="3.6" y2="55.8" stroke-width="0.576" x2="3.6"/>
    <line  stroke="white" stroke-linecap="round" y1="50.4" x1="5.4" y2="52.2" stroke-width="0.576" x2="3.6"/>
    <line  stroke="white" stroke-linecap="round" y1="55.8" x1="3.6" y2="57.6" stroke-width="0.576" x2="5.4"/>
    <line  stroke="white" stroke-linecap="round" y1="57.6" x1="9" y2="57.6" stroke-width="0.576" x2="5.4"/>
    <line  stroke="white" stroke-linecap="round" y1="52.2" x1="54" y2="55.8" stroke-width="0.576" x2="54"/>
   </g>
  </g>
  <g  stroke-width="0">
   <title >element:U1</title>
   <g  stroke-width="0">
    <title >package:DS3234</title>
    <line  stroke="white" stroke-linecap="round" y1="39.4299" x1="10.3748" y2="18.1701" stroke-width="0.72" x2="10.3748"/>
    <line  stroke="white" stroke-linecap="round" y1="39.4299" x1="47.2252" y2="18.1701" stroke-width="0.72" x2="47.2252"/>
    <circle  fill="none" cx="44.9574" cy="25.9654" stroke="white" r="0.566929" stroke-width="0.72"/>
   </g>
  </g>
 </g>
 <g  id="copper1" stroke-width="0">
  <g  id="copper0" stroke-width="0">
   <circle  fill="none" cx="7.2" cy="54" connectorname="SS" stroke="#F7BD13" r="2.052" id="connector5pad" stroke-width="1.224"/>
   <circle  fill="none" cx="14.4" cy="54" connectorname="MOSI" stroke="#F7BD13" r="2.052" id="connector6pad" stroke-width="1.224"/>
   <circle  fill="none" cx="21.6" cy="54" connectorname="MISO" stroke="#F7BD13" r="2.052" id="connector7pad" stroke-width="1.224"/>
   <circle  fill="none" cx="28.8" cy="54" connectorname="SCLK" stroke="#F7BD13" r="2.052" id="connector8pad" stroke-width="1.224"/>
   <circle  fill="none" cx="36" cy="54" connectorname="INT/SQW" stroke="#F7BD13" r="2.052" id="connector9pad" stroke-width="1.224"/>
   <circle  fill="none" cx="43.2" cy="54" connectorname="VCC" stroke="#F7BD13" r="2.052" id="connector10pad" stroke-width="1.224"/>
   <circle  fill="none" cx="50.4" cy="54" connectorname="GND" stroke="#F7BD13" r="2.052" id="connector11pad" stroke-width="1.224"/>
  </g>
 </g>
</svg>
