<?xml version='1.0' encoding='UTF-8' standalone='no'?>
<!-- Created with Fritzing (http://www.fritzing.org/) -->
<svg xmlns="http://www.w3.org/2000/svg" width="3.005in" x="0in" version="1.2" y="0in" height="1.2in" viewBox="0 0 216.36 86.4" baseProfile="tiny">
 <desc >Fritzing footprint generated by brd2svg</desc>
 <g  id="silkscreen" stroke-width="0">
  <path  fill="none" stroke="white" stroke-width="0.576" d="M0.288,86.112L194.17,86.112L194.17,0.288L0.288,0.288L0.288,86.112M182.808,7.2a4.392,4.392,0,1,1,8.784,0,4.392,4.392,0,1,1,-8.784,0zM182.808,79.2a4.392,4.392,0,1,1,8.784,0,4.392,4.392,0,1,1,-8.784,0zM2.808,7.2a4.392,4.392,0,1,1,8.784,0,4.392,4.392,0,1,1,-8.784,0zM2.808,79.2a4.392,4.392,0,1,1,8.784,0,4.392,4.392,0,1,1,-8.784,0z"/>
  <line  stroke="white" stroke-linecap="round" y1="79.2" x1="32.4" y2="77.4" stroke-width="0.72" x2="32.4"/>
  <line  stroke="white" stroke-linecap="round" y1="77.4" x1="32.4" y2="77.4" stroke-width="0.72" x2="25.92"/>
  <line  stroke="white" stroke-linecap="round" y1="77.4" x1="25.92" y2="64.8" stroke-width="0.72" x2="25.92"/>
  <line  stroke="white" stroke-linecap="round" y1="64.8" x1="25.92" y2="64.8" stroke-width="0.72" x2="24.48"/>
  <line  stroke="white" stroke-linecap="round" y1="21.6" x1="52.92" y2="71.28" stroke-width="0.72" x2="52.92"/>
  <line  stroke="white" stroke-linecap="round" y1="71.28" x1="52.92" y2="74.88" stroke-width="0.72" x2="56.52"/>
  <line  stroke="white" stroke-linecap="round" y1="74.88" x1="56.52" y2="74.88" stroke-width="0.72" x2="97.56"/>
  <line  stroke="white" stroke-linecap="round" y1="74.88" x1="97.56" y2="70.92" stroke-width="0.72" x2="101.16"/>
  <line  stroke="white" stroke-linecap="round" y1="70.92" x1="101.16" y2="21.6" stroke-width="0.72" x2="101.16"/>
  <line  stroke="white" stroke-linecap="round" y1="21.6" x1="101.16" y2="18" stroke-width="0.72" x2="97.56"/>
  <line  stroke="white" stroke-linecap="round" y1="18" x1="97.56" y2="18" stroke-width="0.72" x2="56.52"/>
  <line  stroke="white" stroke-linecap="round" y1="18" x1="56.52" y2="21.6" stroke-width="0.72" x2="52.92"/>
  <line  stroke="white" stroke-linecap="round" y1="79.2" x1="18" y2="86.4" stroke-width="0.72" x2="18"/>
  <line  stroke="white" stroke-linecap="round" y1="86.4" x1="18" y2="86.4" stroke-width="0.72" x2="25.2"/>
  <line  stroke="white" stroke-linecap="round" y1="79.2" x1="25.2" y2="79.2" stroke-width="0.72" x2="18"/>
  <line  stroke="white" stroke-linecap="round" y1="79.2" x1="25.2" y2="86.4" stroke-width="0.72" x2="25.2"/>
  <line  stroke="white" stroke-linecap="round" y1="86.4" x1="25.2" y2="86.4" stroke-width="0.72" x2="32.4"/>
  <line  stroke="white" stroke-linecap="round" y1="79.2" x1="32.4" y2="79.2" stroke-width="0.72" x2="25.2"/>
  <line  stroke="white" stroke-linecap="round" y1="79.2" x1="32.4" y2="86.4" stroke-width="0.72" x2="32.4"/>
  <line  stroke="white" stroke-linecap="round" y1="86.4" x1="32.4" y2="86.4" stroke-width="0.72" x2="39.6"/>
  <line  stroke="white" stroke-linecap="round" y1="79.2" x1="39.6" y2="79.2" stroke-width="0.72" x2="32.4"/>
  <line  stroke="white" stroke-linecap="round" y1="79.2" x1="39.6" y2="86.4" stroke-width="0.72" x2="39.6"/>
  <line  stroke="white" stroke-linecap="round" y1="86.4" x1="39.6" y2="86.4" stroke-width="0.72" x2="46.8"/>
  <line  stroke="white" stroke-linecap="round" y1="79.2" x1="46.8" y2="79.2" stroke-width="0.72" x2="39.6"/>
  <line  stroke="white" stroke-linecap="round" y1="79.2" x1="46.8" y2="86.4" stroke-width="0.72" x2="46.8"/>
  <line  stroke="white" stroke-linecap="round" y1="86.4" x1="46.8" y2="86.4" stroke-width="0.72" x2="54"/>
  <line  stroke="white" stroke-linecap="round" y1="79.2" x1="54" y2="79.2" stroke-width="0.72" x2="46.8"/>
  <line  stroke="white" stroke-linecap="round" y1="79.2" x1="54" y2="86.4" stroke-width="0.72" x2="54"/>
  <line  stroke="white" stroke-linecap="round" y1="86.4" x1="54" y2="86.4" stroke-width="0.72" x2="61.2"/>
  <line  stroke="white" stroke-linecap="round" y1="79.2" x1="61.2" y2="79.2" stroke-width="0.72" x2="54"/>
  <line  stroke="white" stroke-linecap="round" y1="79.2" x1="61.2" y2="86.4" stroke-width="0.72" x2="61.2"/>
  <line  stroke="white" stroke-linecap="round" y1="86.4" x1="61.2" y2="86.4" stroke-width="0.72" x2="68.4"/>
  <line  stroke="white" stroke-linecap="round" y1="79.2" x1="68.4" y2="79.2" stroke-width="0.72" x2="61.2"/>
  <line  stroke="white" stroke-linecap="round" y1="79.2" x1="68.4" y2="86.4" stroke-width="0.72" x2="68.4"/>
  <line  stroke="white" stroke-linecap="round" y1="86.4" x1="68.4" y2="86.4" stroke-width="0.72" x2="75.6"/>
  <line  stroke="white" stroke-linecap="round" y1="79.2" x1="75.6" y2="79.2" stroke-width="0.72" x2="68.4"/>
  <line  stroke="white" stroke-linecap="round" y1="79.2" x1="75.6" y2="86.4" stroke-width="0.72" x2="75.6"/>
  <line  stroke="white" stroke-linecap="round" y1="86.4" x1="75.6" y2="86.4" stroke-width="0.72" x2="82.8"/>
  <line  stroke="white" stroke-linecap="round" y1="79.2" x1="82.8" y2="79.2" stroke-width="0.72" x2="75.6"/>
  <line  stroke="white" stroke-linecap="round" y1="79.2" x1="82.8" y2="86.4" stroke-width="0.72" x2="82.8"/>
  <line  stroke="white" stroke-linecap="round" y1="86.4" x1="82.8" y2="86.4" stroke-width="0.72" x2="90"/>
  <line  stroke="white" stroke-linecap="round" y1="79.2" x1="90" y2="79.2" stroke-width="0.72" x2="82.8"/>
  <line  stroke="white" stroke-linecap="round" y1="79.2" x1="90" y2="86.4" stroke-width="0.72" x2="90"/>
  <line  stroke="white" stroke-linecap="round" y1="86.4" x1="90" y2="86.4" stroke-width="0.72" x2="97.2"/>
  <line  stroke="white" stroke-linecap="round" y1="79.2" x1="97.2" y2="79.2" stroke-width="0.72" x2="90"/>
  <line  stroke="white" stroke-linecap="round" y1="79.2" x1="97.2" y2="86.4" stroke-width="0.72" x2="97.2"/>
  <line  stroke="white" stroke-linecap="round" y1="86.4" x1="97.2" y2="86.4" stroke-width="0.72" x2="104.4"/>
  <line  stroke="white" stroke-linecap="round" y1="86.4" x1="104.4" y2="79.2" stroke-width="0.72" x2="104.4"/>
  <line  stroke="white" stroke-linecap="round" y1="79.2" x1="104.4" y2="79.2" stroke-width="0.72" x2="97.2"/>
  <line  stroke="white" stroke-linecap="round" y1="86.4" x1="104.4" y2="86.4" stroke-width="0.72" x2="111.6"/>
  <line  stroke="white" stroke-linecap="round" y1="79.2" x1="111.6" y2="79.2" stroke-width="0.72" x2="104.4"/>
  <line  stroke="white" stroke-linecap="round" y1="79.2" x1="111.6" y2="86.4" stroke-width="0.72" x2="111.6"/>
  <line  stroke="white" stroke-linecap="round" y1="86.4" x1="111.6" y2="86.4" stroke-width="0.72" x2="118.8"/>
  <line  stroke="white" stroke-linecap="round" y1="79.2" x1="118.8" y2="79.2" stroke-width="0.72" x2="111.6"/>
  <line  stroke="white" stroke-linecap="round" y1="79.2" x1="118.8" y2="86.4" stroke-width="0.72" x2="118.8"/>
  <line  stroke="white" stroke-linecap="round" y1="86.4" x1="118.8" y2="86.4" stroke-width="0.72" x2="126"/>
  <line  stroke="white" stroke-linecap="round" y1="79.2" x1="126" y2="79.2" stroke-width="0.72" x2="118.8"/>
  <line  stroke="white" stroke-linecap="round" y1="79.2" x1="126" y2="86.4" stroke-width="0.72" x2="126"/>
  <line  stroke="white" stroke-linecap="round" y1="86.4" x1="126" y2="86.4" stroke-width="0.72" x2="133.2"/>
  <line  stroke="white" stroke-linecap="round" y1="86.4" x1="133.2" y2="79.2" stroke-width="0.72" x2="133.2"/>
  <line  stroke="white" stroke-linecap="round" y1="79.2" x1="133.2" y2="79.2" stroke-width="0.72" x2="126"/>
  <line  stroke="white" stroke-linecap="round" y1="66.96" x1="64.8" y2="70.2" stroke-width="0.72" x2="64.8"/>
  <line  stroke="white" stroke-linecap="round" y1="70.2" x1="64.8" y2="70.2" stroke-width="0.72" x2="68.04"/>
  <line  stroke="white" stroke-linecap="round" y1="70.2" x1="68.04" y2="66.96" stroke-width="0.72" x2="68.04"/>
  <line  stroke="white" stroke-linecap="round" y1="66.96" x1="68.04" y2="66.96" stroke-width="0.72" x2="64.8"/>
  <circle  fill="none" cx="144" cy="3.6" stroke="white" r="3.12916" stroke-width="1.44"/>
  <circle  fill="none" cx="28.8" cy="3.6" stroke="white" r="3.12916" stroke-width="1.44"/>
  <circle  fill="none" cx="21.6" cy="3.6" stroke="white" r="3.12916" stroke-width="1.44"/>
  <circle  fill="none" cx="21.6" cy="10.8" stroke="white" r="3.12916" stroke-width="1.44"/>
  <circle  fill="none" cx="21.6" cy="18" stroke="white" r="3.12916" stroke-width="1.44"/>
  <circle  fill="none" cx="21.6" cy="25.2" stroke="white" r="3.12916" stroke-width="1.44"/>
  <circle  fill="none" cx="21.6" cy="32.4" stroke="white" r="3.12916" stroke-width="1.44"/>
  <circle  fill="none" cx="21.6" cy="39.6" stroke="white" r="3.12916" stroke-width="1.44"/>
  <circle  fill="none" cx="21.6" cy="46.8" stroke="white" r="3.12916" stroke-width="1.44"/>
  <circle  fill="none" cx="36" cy="3.6" stroke="white" r="3.12916" stroke-width="1.44"/>
  <circle  fill="none" cx="115.2" cy="3.6" stroke="white" r="3.12916" stroke-width="1.44"/>
  <circle  fill="none" cx="93.6" cy="3.6" stroke="white" r="3.12916" stroke-width="1.44"/>
  <circle  fill="none" cx="86.4" cy="3.6" stroke="white" r="3.12916" stroke-width="1.44"/>
  <circle  fill="none" cx="79.2" cy="3.6" stroke="white" r="3.12916" stroke-width="1.44"/>
  <circle  fill="none" cx="72" cy="3.6" stroke="white" r="3.12916" stroke-width="1.44"/>
  <circle  fill="none" cx="64.8" cy="3.6" stroke="white" r="3.12916" stroke-width="1.44"/>
  <circle  fill="none" cx="122.4" cy="3.6" stroke="white" r="3.12916" stroke-width="1.44"/>
  <circle  fill="none" cx="129.6" cy="3.6" stroke="white" r="3.12916" stroke-width="1.44"/>
  <circle  fill="none" cx="136.8" cy="3.6" stroke="white" r="3.12916" stroke-width="1.44"/>
  <circle  fill="none" cx="144" cy="82.8" stroke="white" r="3.12916" stroke-width="1.44"/>
  <circle  fill="none" cx="136.8" cy="82.8" stroke="white" r="3.12916" stroke-width="1.44"/>
  <circle  fill="none" cx="59.76" cy="68.4" stroke="white" r="1.8" stroke-width="0.72"/>
  <g  stroke-width="0">
   <title >element:IC1</title>
   <g  stroke-width="0">
    <title >package:SOT223</title>
   </g>
  </g>
  <g  stroke-width="0">
   <title >element:JP1</title>
   <g  stroke-width="0">
    <title >package:1X19</title>
   </g>
  </g>
  <g  stroke-width="0">
   <title >element:JP2</title>
   <g  stroke-width="0">
    <title >package:1X03</title>
   </g>
  </g>
  <g  stroke-width="0">
   <title >element:JP3</title>
   <g  stroke-width="0">
    <title >package:1X03</title>
   </g>
  </g>
  <g  stroke-width="0">
   <title >element:JP4</title>
   <g  stroke-width="0">
    <title >package:1X03</title>
   </g>
  </g>
  <g  stroke-width="0">
   <title >element:JP5</title>
   <g  stroke-width="0">
    <title >package:1X03</title>
   </g>
  </g>
  <g  stroke-width="0">
   <title >element:JP6</title>
   <g  stroke-width="0">
    <title >package:1X03</title>
   </g>
  </g>
  <g  stroke-width="0">
   <title >element:JP8</title>
   <g  stroke-width="0">
    <title >package:SFE-NEW-WEBLOGO</title>
    <line  stroke="white" stroke-linecap="round" y1="46.2815" x1="129.103" y2="41.8249" stroke-width="0.072" x2="129.103"/>
    <line  stroke="white" stroke-linecap="round" y1="41.8249" x1="129.103" y2="41.8249" stroke-width="0.072" x2="127.958"/>
    <line  stroke="white" stroke-linecap="round" y1="41.8249" x1="127.958" y2="42.4511" stroke-width="0.072" x2="127.958"/>
    <line  stroke="white" stroke-linecap="round" y1="42.4511" x1="127.958" y2="42.4511" stroke-width="0.072" x2="127.937"/>
    <path  fill="none" stroke="white" stroke-width="0.072" d="M127.886,42.4295A0.0697323,0.0697323,0,0,0,127.937,42.4511"/>
    <path  fill="none" stroke="white" stroke-width="0.072" d="M127.85,42.3865A0.421795,0.421795,0,0,0,127.886,42.4295"/>
    <path  fill="none" stroke="white" stroke-width="0.072" d="M127.85,42.3865A15.2631,15.2631,0,0,0,127.771,42.2785"/>
    <path  fill="none" stroke="white" stroke-width="0.072" d="M127.771,42.2785A1.3286,1.3286,0,0,0,127.526,42.0265"/>
    <path  fill="none" stroke="white" stroke-width="0.072" d="M127.526,42.0265A1.44708,1.44708,0,0,0,126.691,41.7169"/>
    <path  fill="none" stroke="white" stroke-width="0.072" d="M126.691,41.7169A4.25254,4.25254,0,0,0,126.122,41.7311"/>
    <path  fill="none" stroke="white" stroke-width="0.072" d="M126.122,41.7311A1.23449,1.23449,0,0,0,125.366,42.084"/>
    <path  fill="none" stroke="white" stroke-width="0.072" d="M125.366,42.084A1.26113,1.26113,0,0,0,125.042,42.6311"/>
    <path  fill="none" stroke="white" stroke-width="0.072" d="M125.042,42.6311A2.40945,2.40945,0,0,0,124.949,43.2649"/>
    <line  stroke="white" stroke-linecap="round" y1="43.2649" x1="124.949" y2="46.2529" stroke-width="0.072" x2="124.949"/>
    <line  stroke="white" stroke-linecap="round" y1="46.2529" x1="124.949" y2="46.2529" stroke-width="0.072" x2="126.108"/>
    <line  stroke="white" stroke-linecap="round" y1="46.2529" x1="126.108" y2="43.5169" stroke-width="0.072" x2="126.108"/>
    <path  fill="none" stroke="white" stroke-width="0.072" d="M126.274,42.9191A1.16164,1.16164,0,0,0,126.108,43.5169"/>
    <path  fill="none" stroke="white" stroke-width="0.072" d="M126.605,42.6455A0.643181,0.643181,0,0,0,126.274,42.9191"/>
    <path  fill="none" stroke="white" stroke-width="0.072" d="M126.792,42.6169A0.481607,0.481607,0,0,0,126.605,42.6455"/>
    <path  fill="none" stroke="white" stroke-width="0.072" d="M126.792,42.6169A128.104,128.104,0,0,0,127.109,42.6311"/>
    <path  fill="none" stroke="white" stroke-width="0.072" d="M127.562,42.8111A0.743242,0.743242,0,0,0,127.109,42.6311"/>
    <path  fill="none" stroke="white" stroke-width="0.072" d="M127.822,43.1785A0.928627,0.928627,0,0,0,127.562,42.8111"/>
    <path  fill="none" stroke="white" stroke-width="0.072" d="M127.908,43.6249A1.28097,1.28097,0,0,0,127.822,43.1785"/>
    <path  fill="none" stroke="white" stroke-width="0.072" d="M127.908,43.8191A7.57584,7.57584,0,0,0,127.908,43.6249"/>
    <line  stroke="white" stroke-linecap="round" y1="43.8191" x1="127.908" y2="46.2815" stroke-width="0.072" x2="127.908"/>
    <line  stroke="white" stroke-linecap="round" y1="46.2815" x1="127.908" y2="46.2815" stroke-width="0.072" x2="129.103"/>
    <line  stroke="white" stroke-linecap="round" y1="41.5511" x1="115.402" y2="42.4655" stroke-width="0.072" x2="115.402"/>
    <line  stroke="white" stroke-linecap="round" y1="42.4655" x1="115.402" y2="42.4655" stroke-width="0.072" x2="115.466"/>
    <path  fill="none" stroke="white" stroke-width="0.072" d="M116.172,42.8111A0.893477,0.893477,0,0,0,115.466,42.4655"/>
    <path  fill="none" stroke="white" stroke-width="0.072" d="M116.482,43.6175A1.49273,1.49273,0,0,0,116.172,42.8111"/>
    <path  fill="none" stroke="white" stroke-width="0.072" d="M116.474,44.316A4.20605,4.20605,0,0,0,116.482,43.6175"/>
    <path  fill="none" stroke="white" stroke-width="0.072" d="M116.28,44.964A1.71723,1.71723,0,0,0,116.474,44.316"/>
    <path  fill="none" stroke="white" stroke-width="0.072" d="M115.747,45.4105A0.928915,0.928915,0,0,0,116.28,44.964"/>
    <path  fill="none" stroke="white" stroke-width="0.072" d="M114.797,45.3529A1.29997,1.29997,0,0,0,115.747,45.4105"/>
    <path  fill="none" stroke="white" stroke-width="0.072" d="M114.386,44.964A0.888948,0.888948,0,0,0,114.797,45.3529"/>
    <path  fill="none" stroke="white" stroke-width="0.072" d="M114.163,44.0855A1.90913,1.90913,0,0,0,114.386,44.964"/>
    <path  fill="none" stroke="white" stroke-width="0.072" d="M114.242,43.3729A2.988,2.988,0,0,0,114.163,44.0855"/>
    <path  fill="none" stroke="white" stroke-width="0.072" d="M114.602,42.7105A1.4298,1.4298,0,0,0,114.242,43.3729"/>
    <path  fill="none" stroke="white" stroke-width="0.072" d="M114.898,42.5231A0.733608,0.733608,0,0,0,114.602,42.7105"/>
    <path  fill="none" stroke="white" stroke-width="0.072" d="M115.344,42.4511A1.37537,1.37537,0,0,0,114.898,42.5231"/>
    <line  stroke="white" stroke-linecap="round" y1="42.4511" x1="115.344" y2="41.5511" stroke-width="0.072" x2="115.344"/>
    <line  stroke="white" stroke-linecap="round" y1="41.5511" x1="115.344" y2="41.5511" stroke-width="0.072" x2="115.301"/>
    <path  fill="none" stroke="white" stroke-width="0.072" d="M115.301,41.5511A2.57046,2.57046,0,0,0,114.667,41.6305"/>
    <path  fill="none" stroke="white" stroke-width="0.072" d="M114.667,41.6305A2.21414,2.21414,0,0,0,113.76,42.1055"/>
    <path  fill="none" stroke="white" stroke-width="0.072" d="M113.76,42.1055A2.26233,2.26233,0,0,0,112.982,43.8335"/>
    <path  fill="none" stroke="white" stroke-width="0.072" d="M112.982,43.8335A3.49739,3.49739,0,0,0,113.227,45.0865"/>
    <path  fill="none" stroke="white" stroke-width="0.072" d="M113.227,45.0865A1.90488,1.90488,0,0,0,114.401,46.1951"/>
    <path  fill="none" stroke="white" stroke-width="0.072" d="M114.401,46.1951A3.13852,3.13852,0,0,0,115.423,46.3535"/>
    <path  fill="none" stroke="white" stroke-width="0.072" d="M115.423,46.3535A2.51122,2.51122,0,0,0,116.986,45.7849"/>
    <path  fill="none" stroke="white" stroke-width="0.072" d="M116.986,45.7849A1.6458,1.6458,0,0,0,117.353,45.36"/>
    <path  fill="none" stroke="white" stroke-width="0.072" d="M117.353,45.36A2.38564,2.38564,0,0,0,117.662,44.5175"/>
    <path  fill="none" stroke="white" stroke-width="0.072" d="M117.662,44.5175A3.21761,3.21761,0,0,0,117.655,43.4305"/>
    <path  fill="none" stroke="white" stroke-width="0.072" d="M117.655,43.4305A2.22888,2.22888,0,0,0,116.597,41.904"/>
    <path  fill="none" stroke="white" stroke-width="0.072" d="M116.597,41.904A2.54041,2.54041,0,0,0,115.402,41.5511"/>
    <g  stroke-width="0">
     <title >polygon</title>
     <path  fill="white" stroke="none" stroke-linecap="round" stroke-width="0" d="M159.444,44.856L159.437,44.9569M159.437,44.9569L159.408,45.1225M159.408,45.1225L159.286,45.4825M159.286,45.4825L159.198,45.6514M159.198,45.6514L159.079,45.7996M159.079,45.7996L158.933,45.9215M158.933,45.9215L158.594,46.1375M158.594,46.1375L158.352,46.2501M158.352,46.2501L158.09,46.3105M158.09,46.3105L157.363,46.3609M157.363,46.3609L156.987,46.3478M156.987,46.3478L156.614,46.296M156.614,46.296L156.331,46.2158M156.331,46.2158L156.066,46.0879M156.066,46.0879L155.827,45.9161M155.827,45.9161L155.621,45.7055M155.621,45.7055L155.514,45.5457M155.514,45.5457L155.438,45.3685M155.438,45.3685L155.398,45.18M155.398,45.18L155.376,44.8849M155.376,44.8849L155.403,44.5859M155.403,44.5859L155.498,44.3015M155.498,44.3015L155.57,44.1847M155.57,44.1847L155.664,44.0855M155.664,44.0855L155.86,43.9412M155.86,43.9412L156.074,43.8265M156.074,43.8265L156.544,43.6535M156.544,43.6535L157.032,43.5455M157.032,43.5455L157.608,43.4305M157.608,43.4305L157.827,43.3511M157.827,43.3511L158.026,43.2289M158.026,43.2289L158.113,43.1388M158.113,43.1388L158.17,43.0271M158.17,43.0271L158.19,42.9117M158.19,42.9117L158.175,42.7955M158.175,42.7955L158.126,42.6889M158.126,42.6889L158.054,42.6056M158.054,42.6056L157.961,42.5449M157.961,42.5449L157.834,42.4981M157.834,42.4981L157.702,42.4729M157.702,42.4729L157.457,42.4601M157.457,42.4601L157.212,42.4729M157.212,42.4729L157.066,42.5021M157.066,42.5021L156.927,42.558M156.927,42.558L156.802,42.6385M156.802,42.6385L156.718,42.7184M156.718,42.7184L156.653,42.8131M156.653,42.8131L156.607,42.9191M156.607,42.9191L156.591,42.9939M156.591,42.9939L156.586,43.0705M156.586,43.0705L155.484,43.0705M155.484,43.0705L155.506,42.8689M155.506,42.8689L156.089,42.5015M156.089,42.5015L157.378,42.1271M157.378,42.1271L158.566,42.4369M158.566,42.4369L158.414,43.3009M158.414,43.3009L157.169,44.0425M157.169,44.0425L155.966,44.6975M155.966,44.6975L156.276,45.6191M156.276,45.6191L157.392,45.8711M157.392,45.8711L159.444,44.856M158.153,46.296L156.614,46.296M158.408,46.224L156.36,46.224M158.563,46.152L156.199,46.152M158.685,46.08L156.055,46.08M158.797,46.008L155.955,46.008M158.91,45.936L155.855,45.936M159.002,45.864L157.406,45.864M157.36,45.864L155.776,45.864M159.085,45.792L157.552,45.792M157.041,45.792L155.706,45.792M159.143,45.72L157.697,45.72M156.722,45.72L155.635,45.72M159.2,45.648L157.843,45.648M156.404,45.648L155.583,45.648M159.237,45.576L157.988,45.576M156.262,45.576L155.534,45.576M159.275,45.504L158.134,45.504M156.237,45.504L155.496,45.504M159.303,45.432L158.28,45.432M156.213,45.432L155.465,45.432M159.327,45.36L158.425,45.36M156.189,45.36L155.436,45.36M159.352,45.288L158.571,45.288M156.164,45.288L155.421,45.288M159.376,45.216L158.716,45.216M156.141,45.216L155.406,45.216M159.401,45.144L158.862,45.144M156.116,45.144L155.395,45.144M159.417,45.072L159.007,45.072M156.092,45.072L155.39,45.072M159.43,45L159.153,45M156.068,45L155.385,45M159.439,44.928L159.299,44.928M156.044,44.928L155.38,44.928M156.02,44.856L155.379,44.856M155.995,44.784L155.385,44.784M155.971,44.712L155.391,44.712M156.072,44.64L155.398,44.64M156.204,44.568L155.408,44.568M156.336,44.496L155.433,44.496M156.469,44.424L155.457,44.424M156.601,44.352L155.481,44.352M156.733,44.28L155.511,44.28M156.866,44.208L155.555,44.208M156.997,44.136L155.616,44.136M157.129,44.064L155.694,44.064M157.254,43.992L155.791,43.992M157.375,43.92L155.899,43.92M157.496,43.848L156.034,43.848M157.617,43.776L156.211,43.776M157.738,43.704L156.406,43.704M157.859,43.632L156.641,43.632M157.98,43.56L156.966,43.56M158.1,43.488L157.32,43.488M158.221,43.416L157.648,43.416M158.342,43.344L157.838,43.344M158.419,43.272L157.956,43.272M158.432,43.2L158.054,43.2M158.445,43.128L158.118,43.128M158.458,43.056L158.154,43.056M156.586,43.056L155.485,43.056M158.47,42.984L158.177,42.984M156.593,42.984L155.493,42.984M158.483,42.912L158.19,42.912M156.61,42.912L155.501,42.912M158.495,42.84L158.181,42.84M156.641,42.84L155.551,42.84M158.508,42.768L158.162,42.768M156.684,42.768L155.665,42.768M158.52,42.696L158.13,42.696M156.742,42.696L155.78,42.696M158.533,42.624L158.07,42.624M156.824,42.624L155.894,42.624M158.545,42.552L157.972,42.552M156.942,42.552L156.009,42.552M158.558,42.48L157.739,42.48M157.177,42.48L156.163,42.48M158.455,42.408L156.411,42.408M158.178,42.336L156.658,42.336M157.902,42.264L156.906,42.264M157.627,42.192L157.154,42.192"/>
    </g>
    <g  stroke-width="0">
     <title >polygon</title>
     <path  fill="white" stroke="none" stroke-linecap="round" stroke-width="0" d="M155.506,42.8471L155.563,42.6889M155.563,42.6889L155.664,42.4655M155.664,42.4655L155.745,42.34M155.745,42.34L155.844,42.228M155.844,42.228L156.116,42.0134M156.116,42.0134L156.427,41.8609M156.427,41.8609L156.81,41.7563M156.81,41.7563L157.205,41.7169M157.205,41.7169L157.716,41.7169M157.716,41.7169L158.121,41.7609M158.121,41.7609L158.512,41.8774M158.512,41.8774L158.875,42.0625M158.875,42.0625L159.01,42.1671M159.01,42.1671L159.121,42.296M159.121,42.296L159.206,42.444M159.206,42.444L159.308,42.751M159.308,42.751L159.345,43.0724M159.345,43.0724L159.314,43.3945M159.314,43.3945L159.272,43.5331M159.272,43.5331L159.201,43.6598M159.201,43.6598L159.106,43.7689M159.106,43.7689L158.914,43.9214M158.914,43.9214L158.701,44.0425M158.701,44.0425L158.472,44.1289M158.472,44.1289L157.442,44.3735M157.442,44.3735L157.107,44.4612M157.107,44.4612L156.787,44.5969M156.787,44.5969L156.685,44.6669M156.685,44.6669L156.604,44.7602M156.604,44.7602L156.549,44.8708M156.549,44.8708L156.523,44.9915M156.523,44.9915L156.528,45.1151M156.528,45.1151L156.564,45.233M156.564,45.233L156.627,45.3385M156.627,45.3385L156.715,45.4249M156.715,45.4249L156.867,45.5173M156.867,45.5173L157.036,45.5757M157.036,45.5757L157.212,45.5975M157.212,45.5975L157.594,45.5975M157.594,45.5975L157.759,45.576M157.759,45.576L157.933,45.5119M157.933,45.5119L158.089,45.4121M158.089,45.4121L158.22,45.2809M158.22,45.2809L158.297,45.1562M158.297,45.1562L158.341,45.0167M158.341,45.0167L158.35,44.8705M158.35,44.8705L158.35,44.856M158.35,44.856L159.444,44.856M159.444,44.856L157.421,45.9215M157.421,45.9215L156.254,45.6625M156.254,45.6625L155.938,44.7191M155.938,44.7191L155.988,44.6185M155.988,44.6185L158.328,43.2575M158.328,43.2575L158.465,42.48M158.465,42.48L157.392,42.156M157.392,42.156L156.197,42.5375M156.197,42.5375L155.642,42.948M155.642,42.948L155.506,42.8471M157.53,45.864L157.162,45.864M157.667,45.792L156.838,45.792M157.804,45.72L156.514,45.72M157.941,45.648L156.249,45.648M158.077,45.576L157.759,45.576M157.038,45.576L156.226,45.576M158.214,45.504L157.945,45.504M156.846,45.504L156.201,45.504M158.35,45.432L158.058,45.432M156.727,45.432L156.177,45.432M158.487,45.36L158.141,45.36M156.649,45.36L156.153,45.36M158.624,45.288L158.213,45.288M156.597,45.288L156.129,45.288M158.761,45.216L158.26,45.216M156.558,45.216L156.105,45.216M158.898,45.144L158.301,45.144M156.537,45.144L156.08,45.144M159.034,45.072L158.323,45.072M156.526,45.072L156.056,45.072M159.17,45L158.342,45M156.523,45L156.032,45M159.307,44.928L158.346,44.928M156.537,44.928L156.008,44.928M156.556,44.856L155.984,44.856M156.592,44.784L155.959,44.784M156.646,44.712L155.941,44.712M156.725,44.64L155.977,44.64M156.855,44.568L156.074,44.568M157.025,44.496L156.198,44.496M157.249,44.424L156.322,44.424M157.533,44.352L156.446,44.352M157.836,44.28L156.57,44.28M158.139,44.208L156.694,44.208M158.442,44.136L156.817,44.136M158.644,44.064L156.941,44.064M158.79,43.992L157.065,43.992M158.916,43.92L157.189,43.92M159.006,43.848L157.313,43.848M159.097,43.776L157.437,43.776M159.162,43.704L157.56,43.704M159.216,43.632L157.684,43.632M159.257,43.56L157.808,43.56M159.286,43.488L157.932,43.488M159.308,43.416L158.055,43.416M159.319,43.344L158.179,43.344M159.326,43.272L158.303,43.272M159.333,43.2L158.338,43.2M159.34,43.128L158.35,43.128M159.342,43.056L158.363,43.056M159.335,42.984L158.376,42.984M159.326,42.912L158.388,42.912M155.691,42.912L155.593,42.912M159.318,42.84L158.401,42.84M155.789,42.84L155.508,42.84M159.309,42.768L158.414,42.768M155.886,42.768L155.534,42.768M159.289,42.696L158.427,42.696M155.983,42.696L155.56,42.696M159.265,42.624L158.44,42.624M156.08,42.624L155.592,42.624M159.242,42.552L158.452,42.552M156.177,42.552L155.625,42.552M159.218,42.48L158.465,42.48M156.378,42.48L155.658,42.48M159.186,42.408L158.226,42.408M156.603,42.408L155.701,42.408M159.144,42.336L157.988,42.336M156.828,42.336L155.748,42.336M159.093,42.264L157.75,42.264M157.054,42.264L155.812,42.264M159.031,42.192L157.512,42.192M157.28,42.192L155.889,42.192M158.949,42.12L155.981,42.12M158.846,42.048L156.072,42.048M158.705,41.976L156.192,41.976M158.564,41.904L156.339,41.904M158.36,41.832L156.533,41.832M158.113,41.76L156.797,41.76"/>
    </g>
    <g  stroke-width="0">
     <title >polygon</title>
     <path  fill="white" stroke="none" stroke-linecap="round" stroke-width="0" d="M153.684,41.8105L153.691,42.3791M153.691,42.3791L153.67,42.4009M153.67,42.4009L153.655,42.408M153.655,42.408L153.59,42.336M153.59,42.336L153.338,42.0625M153.338,42.0625L153.241,41.9772M153.241,41.9772L153.13,41.9111M153.13,41.9111L152.755,41.76M152.755,41.76L152.618,41.7311M152.618,41.7311L152.057,41.724M152.057,41.724L151.749,41.7761M151.749,41.7761L151.459,41.8895M151.459,41.8895L151.204,42.0429M151.204,42.0429L150.97,42.228M150.97,42.228L150.746,42.4803M150.746,42.4803L150.581,42.7751M150.581,42.7751L150.39,43.374M150.39,43.374L150.31,43.9977M150.31,43.9977L150.343,44.6255M150.343,44.6255L150.435,45.0156M150.435,45.0156L150.592,45.3844M150.592,45.3844L150.811,45.72M150.811,45.72L150.998,45.9204M150.998,45.9204L151.215,46.086M151.215,46.086L151.458,46.2127M151.458,46.2127L151.718,46.296M151.718,46.296L152.063,46.3496M152.063,46.3496L152.41,46.3544M152.41,46.3544L152.755,46.3105M152.755,46.3105L152.994,46.2353M152.994,46.2353L153.212,46.1115M153.212,46.1115L153.4,45.9445M153.4,45.9445L153.547,45.7415M153.547,45.7415L153.547,44.8991M153.547,44.8991L153.526,44.8775M153.526,44.8775L153.526,44.892M153.526,44.892L153.52,44.9195M153.52,44.9195L153.504,44.9425M153.504,44.9425L153.49,44.964M153.49,44.964L153.402,45.1276M153.402,45.1276L153.28,45.267M153.28,45.267L153.13,45.3745M153.13,45.3745L152.931,45.4598M152.931,45.4598L152.719,45.504M152.719,45.504L152.454,45.5057M152.454,45.5057L152.194,45.4535M152.194,45.4535L151.976,45.354M151.976,45.354L151.792,45.2018M151.792,45.2018L151.652,45.0076M151.652,45.0076L151.567,44.784M151.567,44.784L151.48,44.2259M151.48,44.2259L151.481,43.6609M151.481,43.6609L151.536,43.3786M151.536,43.3786L151.654,43.1161M151.654,43.1161L151.828,42.8871M151.828,42.8871L152.05,42.7031M152.05,42.7031L152.198,42.6262M152.198,42.6262L152.358,42.5801M152.358,42.5801L152.525,42.5665M152.525,42.5665L152.834,42.5809M152.834,42.5809L152.947,42.6036M152.947,42.6036L153.05,42.6529M153.05,42.6529L153.258,42.8151M153.258,42.8151L153.432,43.0129M153.432,43.0129L153.553,43.2193M153.553,43.2193L153.631,43.4454M153.631,43.4454L153.662,43.6825M153.662,43.6825L153.655,44.4095M153.655,44.4095L153.619,44.6329M153.619,44.6329L153.554,44.8271M153.554,44.8271L153.554,44.8376M153.554,44.8376L153.557,44.8475M153.557,44.8475L153.565,44.8543M153.565,44.8543L153.576,44.856M153.576,44.856L153.612,44.856M153.612,44.856L153.612,45.7345M153.612,45.7345L153.612,48.9095M153.612,48.9095L154.786,47.8511M154.786,47.8511L154.786,42.0409M154.786,42.0409L154.786,42.0191M154.786,42.0191L153.684,41.8105M153.636,48.888L153.612,48.888M153.716,48.816L153.612,48.816M153.796,48.744L153.612,48.744M153.876,48.672L153.612,48.672M153.955,48.6L153.612,48.6M154.035,48.528L153.612,48.528M154.115,48.456L153.612,48.456M154.194,48.384L153.612,48.384M154.274,48.312L153.612,48.312M154.354,48.24L153.612,48.24M154.434,48.168L153.612,48.168M154.514,48.096L153.612,48.096M154.593,48.024L153.612,48.024M154.673,47.952L153.612,47.952M154.753,47.88L153.612,47.88M154.786,47.808L153.612,47.808M154.786,47.736L153.612,47.736M154.786,47.664L153.612,47.664M154.786,47.592L153.612,47.592M154.786,47.52L153.612,47.52M154.786,47.448L153.612,47.448M154.786,47.376L153.612,47.376M154.786,47.304L153.612,47.304M154.786,47.232L153.612,47.232M154.786,47.16L153.612,47.16M154.786,47.088L153.612,47.088M154.786,47.016L153.612,47.016M154.786,46.944L153.612,46.944M154.786,46.872L153.612,46.872M154.786,46.8L153.612,46.8M154.786,46.728L153.612,46.728M154.786,46.656L153.612,46.656M154.786,46.584L153.612,46.584M154.786,46.512L153.612,46.512M154.786,46.44L153.612,46.44M154.786,46.368L153.612,46.368M154.786,46.296L153.612,46.296M152.801,46.296L151.718,46.296M154.786,46.224L153.612,46.224M153.014,46.224L151.493,46.224M154.786,46.152L153.612,46.152M153.141,46.152L151.342,46.152M154.786,46.08L153.612,46.08M153.248,46.08L151.207,46.08M154.786,46.008L153.612,46.008M153.328,46.008L151.113,46.008M154.786,45.936L153.612,45.936M153.405,45.936L151.018,45.936M154.786,45.864L153.612,45.864M153.458,45.864L150.945,45.864M154.786,45.792L153.612,45.792M153.51,45.792L150.878,45.792M154.786,45.72L153.612,45.72M153.547,45.72L150.811,45.72M154.786,45.648L153.612,45.648M153.547,45.648L150.764,45.648M154.786,45.576L153.612,45.576M153.547,45.576L150.717,45.576M154.786,45.504L153.612,45.504M153.547,45.504L152.719,45.504M152.446,45.504L150.67,45.504M154.786,45.432L153.612,45.432M153.547,45.432L152.996,45.432M152.147,45.432L150.623,45.432M154.786,45.36L153.612,45.36M153.547,45.36L153.15,45.36M151.989,45.36L150.582,45.36M154.786,45.288L153.612,45.288M153.547,45.288L153.251,45.288M151.896,45.288L150.551,45.288M154.786,45.216L153.612,45.216M153.547,45.216L153.325,45.216M151.809,45.216L150.52,45.216M154.786,45.144L153.612,45.144M153.547,45.144L153.388,45.144M151.75,45.144L150.489,45.144M154.786,45.072L153.612,45.072M153.547,45.072L153.432,45.072M151.699,45.072L150.458,45.072M154.786,45L153.612,45M153.547,45L153.471,45M151.649,45L150.431,45M154.786,44.928L153.612,44.928M153.547,44.928L153.514,44.928M151.622,44.928L150.414,44.928M154.786,44.856L153.576,44.856M151.595,44.856L150.397,44.856M154.786,44.784L153.569,44.784M151.567,44.784L150.38,44.784M154.786,44.712L153.593,44.712M151.556,44.712L150.363,44.712M154.786,44.64L153.617,44.64M151.545,44.64L150.346,44.64M154.786,44.568L153.629,44.568M151.533,44.568L150.34,44.568M154.786,44.496L153.642,44.496M151.523,44.496L150.336,44.496M154.786,44.424L153.653,44.424M151.511,44.424L150.332,44.424M154.786,44.352L153.656,44.352M151.5,44.352L150.329,44.352M154.786,44.28L153.657,44.28M151.488,44.28L150.324,44.28M154.786,44.208L153.657,44.208M151.48,44.208L150.321,44.208M154.786,44.136L153.658,44.136M151.48,44.136L150.317,44.136M154.786,44.064L153.659,44.064M151.48,44.064L150.314,44.064M154.786,43.992L153.66,43.992M151.48,43.992L150.311,43.992M154.786,43.92L153.66,43.92M151.48,43.92L150.32,43.92M154.786,43.848L153.661,43.848M151.48,43.848L150.33,43.848M154.786,43.776L153.662,43.776M151.481,43.776L150.339,43.776M154.786,43.704L153.662,43.704M151.481,43.704L150.348,43.704M154.786,43.632L153.656,43.632M151.487,43.632L150.357,43.632M154.786,43.56L153.646,43.56M151.501,43.56L150.366,43.56M154.786,43.488L153.636,43.488M151.515,43.488L150.376,43.488M154.786,43.416L153.621,43.416M151.529,43.416L150.385,43.416M154.786,43.344L153.595,43.344M151.552,43.344L150.399,43.344M154.786,43.272L153.571,43.272M151.584,43.272L150.422,43.272M154.786,43.2L153.541,43.2M151.616,43.2L150.445,43.2M154.786,43.128L153.499,43.128M151.649,43.128L150.468,43.128M154.786,43.056L153.457,43.056M151.7,43.056L150.492,43.056M154.786,42.984L153.407,42.984M151.754,42.984L150.515,42.984M154.786,42.912L153.343,42.912M151.809,42.912L150.538,42.912M154.786,42.84L153.28,42.84M151.885,42.84L150.56,42.84M154.786,42.768L153.197,42.768M151.971,42.768L150.585,42.768M154.786,42.696L153.105,42.696M152.063,42.696L150.625,42.696M154.786,42.624L152.99,42.624M152.205,42.624L150.665,42.624M154.786,42.552L150.705,42.552M154.786,42.48L150.746,42.48M154.786,42.408L153.655,42.408M153.655,42.408L150.81,42.408M154.786,42.336L153.69,42.336M153.59,42.336L150.874,42.336M154.786,42.264L153.689,42.264M153.524,42.264L150.938,42.264M154.786,42.192L153.688,42.192M153.458,42.192L151.015,42.192M154.786,42.12L153.688,42.12M153.392,42.12L151.106,42.12M154.786,42.048L153.687,42.048M153.322,42.048L151.197,42.048M154.558,41.976L153.686,41.976M153.239,41.976L151.315,41.976M154.178,41.904L153.685,41.904M153.112,41.904L151.435,41.904M153.798,41.832L153.684,41.832M152.934,41.832L151.607,41.832M152.755,41.76L151.845,41.76"/>
    </g>
    <g  stroke-width="0">
     <title >polygon</title>
     <path  fill="white" stroke="none" stroke-linecap="round" stroke-width="0" d="M137.491,35.4095L137.628,35.388M137.628,35.388L137.894,35.367M137.894,35.367L138.161,35.388M138.161,35.388L138.359,35.4401M138.359,35.4401L138.542,35.5311M138.542,35.5311L138.704,35.657M138.704,35.657L138.838,35.8129M138.838,35.8129L138.951,36.0204M138.951,36.0204L139.02,36.2469M139.02,36.2469L139.039,36.4825M139.039,36.4825L139.039,40.7809M139.039,40.7809L137.657,39.2255M137.657,39.2255L137.411,39.0002M137.411,39.0002L137.124,38.8295M137.124,38.8295L137.019,38.7913M137.019,38.7913L136.908,38.772M136.908,38.772L136.26,38.772M136.26,38.772L135.873,38.7369M135.873,38.7369L135.5,38.6325M135.5,38.6325L135.151,38.4625M135.151,38.4625L134.823,38.2308M134.823,38.2308L134.531,37.9553M134.531,37.9553L134.28,37.6415M134.28,37.6415L134.011,37.165M134.011,37.165L133.834,36.648M133.834,36.648L133.752,36.1074M133.752,36.1074L133.769,35.5609M133.769,35.5609L133.828,35.2661M133.828,35.2661L133.929,34.9832M133.929,34.9832L134.071,34.7185M134.071,34.7185L134.328,34.3961M134.328,34.3961L134.647,34.1351M134.647,34.1351L134.647,34.3871M134.647,34.3871L134.653,34.4282M134.653,34.4282L134.669,34.4665M134.669,34.4665L134.753,34.5705M134.753,34.5705L134.863,34.6465M134.863,34.6465L134.921,34.668M134.921,34.668L135.083,34.6856M135.083,34.6856L135.243,34.6558M135.243,34.6558L135.389,34.5815M135.389,34.5815L135.648,34.3945M135.648,34.3945L135.768,34.2913M135.768,34.2913L135.871,34.1711M135.871,34.1711L135.954,34.0364M135.954,34.0364L136.015,33.8905M136.015,33.8905L136.033,33.7977M136.033,33.7977L136.03,33.7031M136.03,33.7031L135.983,33.5472M135.983,33.5472L135.896,33.4089M135.896,33.4089L135.778,33.2975M135.778,33.2975L135.634,33.2209M135.634,33.2209L135.488,33.1801M135.488,33.1801L135.338,33.1631M135.338,33.1631L135.166,33.1631M135.166,33.1631L135.166,33.1631M135.166,33.1631L135.173,33.156M135.173,33.156L135.296,33.0602M135.296,33.0602L135.439,32.9975M135.439,32.9975L135.54,32.9545M135.54,32.9545L135.605,32.9255M135.605,32.9255L135.854,32.8635M135.854,32.8635L136.109,32.8391M136.109,32.8391L136.355,32.8578M136.355,32.8578L136.593,32.9236M136.593,32.9236L136.814,33.0335M136.814,33.0335L137.035,33.1923M137.035,33.1923L137.232,33.3791M137.232,33.3791L137.354,33.5503M137.354,33.5503L137.43,33.7465M137.43,33.7465L137.454,33.9553M137.454,33.9553L137.426,34.1637M137.426,34.1637L137.347,34.3585M137.347,34.3585L137.011,34.8571M137.011,34.8571L136.598,35.2945M136.598,35.2945L136.49,35.422M136.49,35.422L136.418,35.5731M136.418,35.5731L136.387,35.7375M136.387,35.7375L136.4,35.9045M136.4,35.9045L136.456,36.0624M136.456,36.0624L136.551,36.2004M136.551,36.2004L136.678,36.3095M136.678,36.3095L136.837,36.3957M136.837,36.3957L137.01,36.4538M137.01,36.4538L137.189,36.4825M137.189,36.4825L137.398,36.472M137.398,36.472L137.599,36.4108M137.599,36.4108L137.779,36.3025M137.779,36.3025L137.874,36.2021M137.874,36.2021L137.938,36.0791M137.938,36.0791L137.966,35.9529M137.966,35.9529L137.966,35.8237M137.966,35.8237L137.938,35.6975M137.938,35.6975L137.912,35.6491M137.912,35.6491L137.873,35.6111M137.873,35.6111L137.635,35.4385M137.635,35.4385L137.591,35.4146M137.591,35.4146L137.542,35.4047M137.542,35.4047L137.491,35.4095M139.039,40.752L139.013,40.752M139.039,40.68L138.949,40.68M139.039,40.608L138.885,40.608M139.039,40.536L138.822,40.536M139.039,40.464L138.758,40.464M139.039,40.392L138.694,40.392M139.039,40.32L138.63,40.32M139.039,40.248L138.565,40.248M139.039,40.176L138.501,40.176M139.039,40.104L138.437,40.104M139.039,40.032L138.374,40.032M139.039,39.96L138.31,39.96M139.039,39.888L138.246,39.888M139.039,39.816L138.182,39.816M139.039,39.744L138.118,39.744M139.039,39.672L138.054,39.672M139.039,39.6L137.989,39.6M139.039,39.528L137.926,39.528M139.039,39.456L137.862,39.456M139.039,39.384L137.798,39.384M139.039,39.312L137.734,39.312M139.039,39.24L137.67,39.24M139.039,39.168L137.594,39.168M139.039,39.096L137.516,39.096M139.039,39.024L137.437,39.024M139.039,38.952L137.33,38.952M139.039,38.88L137.209,38.88M139.039,38.808L137.065,38.808M139.039,38.736L135.87,38.736M139.039,38.664L135.613,38.664M139.039,38.592L135.417,38.592M139.039,38.52L135.269,38.52M139.039,38.448L135.13,38.448M139.039,38.376L135.029,38.376M139.039,38.304L134.927,38.304M139.039,38.232L134.824,38.232M139.039,38.16L134.748,38.16M139.039,38.088L134.672,38.088M139.039,38.016L134.595,38.016M139.039,37.944L134.522,37.944M139.039,37.872L134.464,37.872M139.039,37.8L134.407,37.8M139.039,37.728L134.349,37.728M139.039,37.656L134.292,37.656M139.039,37.584L134.248,37.584M139.039,37.512L134.207,37.512M139.039,37.44L134.167,37.44M139.039,37.368L134.126,37.368M139.039,37.296L134.086,37.296M139.039,37.224L134.045,37.224M139.039,37.152L134.007,37.152M139.039,37.08L133.983,37.08M139.039,37.008L133.957,37.008M139.039,36.936L133.933,36.936M139.039,36.864L133.908,36.864M139.039,36.792L133.883,36.792M139.039,36.72L133.859,36.72M139.039,36.648L133.834,36.648M139.039,36.576L133.823,36.576M139.039,36.504L133.812,36.504M139.035,36.432L137.529,36.432M136.945,36.432L133.801,36.432M139.029,36.36L137.683,36.36M136.771,36.36L133.79,36.36M139.023,36.288L137.793,36.288M136.652,36.288L133.78,36.288M139.01,36.216L137.861,36.216M136.569,36.216L133.768,36.216M138.988,36.144L137.904,36.144M136.512,36.144L133.757,36.144M138.966,36.072L137.939,36.072M136.462,36.072L133.753,36.072M138.94,36L137.955,36M136.434,36L133.755,36M138.9,35.928L137.966,35.928M136.408,35.928L133.757,35.928M138.861,35.856L137.966,35.856M136.396,35.856L133.759,35.856M138.813,35.784L137.957,35.784M136.39,35.784L133.762,35.784M138.751,35.712L137.941,35.712M136.392,35.712L133.764,35.712M138.683,35.64L137.903,35.64M136.405,35.64L133.767,35.64M138.59,35.568L137.814,35.568M136.421,35.568L133.769,35.568M138.472,35.496L137.714,35.496M136.454,35.496L133.782,35.496M138.298,35.424L137.608,35.424M136.489,35.424L133.796,35.424M136.549,35.352L133.811,35.352M136.612,35.28L133.825,35.28M136.68,35.208L133.848,35.208M136.748,35.136L133.874,35.136M136.816,35.064L133.9,35.064M136.884,34.992L133.926,34.992M136.952,34.92L133.962,34.92M137.017,34.848L134.001,34.848M137.066,34.776L134.04,34.776M137.115,34.704L134.083,34.704M137.163,34.632L135.29,34.632M134.842,34.632L134.14,34.632M137.211,34.56L135.418,34.56M134.744,34.56L134.197,34.56M137.26,34.488L135.518,34.488M134.686,34.488L134.255,34.488M137.308,34.416L135.618,34.416M134.651,34.416L134.312,34.416M137.353,34.344L135.706,34.344M134.647,34.344L134.392,34.344M137.382,34.272L135.784,34.272M134.647,34.272L134.48,34.272M137.412,34.2L135.846,34.2M134.647,34.2L134.568,34.2M137.431,34.128L135.897,34.128M137.441,34.056L135.942,34.056M137.451,33.984L135.976,33.984M137.449,33.912L136.006,33.912M137.441,33.84L136.025,33.84M137.432,33.768L136.032,33.768M137.411,33.696L136.027,33.696M137.382,33.624L136.006,33.624M137.354,33.552L135.984,33.552M137.304,33.48L135.941,33.48M137.252,33.408L135.896,33.408M137.187,33.336L135.819,33.336M137.11,33.264L135.715,33.264M137.034,33.192L135.531,33.192M136.935,33.12L135.219,33.12M136.835,33.048L135.324,33.048M136.698,32.976L135.49,32.976M136.523,32.904L135.691,32.904"/>
    </g>
    <g  stroke-width="0">
     <title >polygon</title>
     <path  fill="white" stroke="none" stroke-linecap="round" stroke-width="0" d="M149.76,43.1711L148.572,43.1711M148.572,43.1711L148.558,43.1711M148.558,43.1711L148.558,43.1569M148.558,43.1569L148.539,42.9998M148.539,42.9998L148.484,42.8516M148.484,42.8516L148.396,42.7204M148.396,42.7204L148.279,42.6138M148.279,42.6138L148.14,42.5375M148.14,42.5375L147.974,42.4888M147.974,42.4888L147.802,42.4729M147.802,42.4729L147.413,42.4871M147.413,42.4871L147.303,42.5052M147.303,42.5052L147.198,42.5441M147.198,42.5441L147.103,42.6025M147.103,42.6025L147.026,42.6736M147.026,42.6736L146.966,42.7589M146.966,42.7589L146.923,42.8545M146.923,42.8545L146.89,43.0092M146.89,43.0092L146.89,43.1677M146.89,43.1677L146.923,43.3225M146.923,43.3225L146.938,43.3565M146.938,43.3565L146.959,43.3871M146.959,43.3871L147.046,43.4665M147.046,43.4665L147.173,43.5398M147.173,43.5398L147.312,43.5889M147.312,43.5889L147.686,43.6535M147.686,43.6535L148.313,43.7185M148.313,43.7185L148.748,43.7972M148.748,43.7972L149.17,43.9345M149.17,43.9345L149.367,44.0382M149.367,44.0382L149.54,44.1793M149.54,44.1793L149.681,44.352M149.681,44.352L149.802,44.5964M149.802,44.5964L149.861,44.8631M149.861,44.8631L149.862,45.1639M149.862,45.1639L149.808,45.4598M149.808,45.4598L149.702,45.7415M149.702,45.7415L149.62,45.8785M149.62,45.8785L149.513,45.9975M149.513,45.9975L149.386,46.0945M149.386,46.0945L149.026,46.2663M149.026,46.2663L148.637,46.3535M148.637,46.3535L148.173,46.3643M148.173,46.3643L147.715,46.296M147.715,46.296L147.421,46.1962M147.421,46.1962L147.152,46.0431M147.152,46.0431L146.916,45.8425M146.916,45.8425L146.901,45.8325M146.901,45.8325L146.883,45.8297M146.883,45.8297L146.865,45.8351M146.865,45.8351L146.851,45.8473M146.851,45.8473L146.844,45.864M146.844,45.864L146.779,46.1591M146.779,46.1591L146.758,46.2385M146.758,46.2385L146.751,46.2487M146.751,46.2487L146.741,46.254M146.741,46.254L146.729,46.2529M146.729,46.2529L145.584,46.2529M145.584,46.2529L145.606,46.1951M145.606,46.1951L145.706,45.8232M145.706,45.8232L145.735,45.4391M145.735,45.4391L145.728,44.208M145.728,44.208L146.887,44.208M146.887,44.208L146.887,44.4455M146.887,44.4455L146.907,44.7576M146.907,44.7576L146.966,45.0649M146.966,45.0649L146.981,45.1151M146.981,45.1151L147.013,45.1911M147.013,45.1911L147.06,45.2591M147.06,45.2591L147.276,45.468M147.276,45.468L147.365,45.5242M147.365,45.5242L147.463,45.5615M147.463,45.5615L147.766,45.6049M147.766,45.6049L148.205,45.5905M148.205,45.5905L148.343,45.5612M148.343,45.5612L148.47,45.5M148.47,45.5L148.579,45.4105M148.579,45.4105L148.638,45.3336M148.638,45.3336L148.68,45.2457M148.68,45.2457L148.702,45.1511M148.702,45.1511L148.705,44.9779M148.705,44.9779L148.674,44.8075M148.674,44.8075L148.608,44.6471M148.608,44.6471L148.545,44.5558M148.545,44.5558L148.464,44.4815M148.464,44.4815L148.324,44.3976M148.324,44.3976L148.171,44.3395M148.171,44.3395L148.01,44.3089M148.01,44.3089L147.6,44.2655M147.6,44.2655L147.318,44.2176M147.318,44.2176L147.046,44.136M147.046,44.136L146.987,44.1057M146.987,44.1057L146.938,44.0615M146.938,44.0615L146.902,44.0065M146.902,44.0065L146.887,44.0065M146.887,44.0065L146.887,44.1791M146.887,44.1791L145.735,44.1791M145.735,44.1791L145.735,42.8111M145.735,42.8111L145.761,42.6028M145.761,42.6028L145.837,42.4068M145.837,42.4068L145.958,42.2353M145.958,42.2353L146.117,42.0985M146.117,42.0985L146.486,41.902M146.486,41.902L146.887,41.7815M146.887,41.7815L147.38,41.7164M147.38,41.7164L147.877,41.7141M147.877,41.7141L148.37,41.7745M148.37,41.7745L148.719,41.8694M148.719,41.8694L149.047,42.0191M149.047,42.0191L149.279,42.1818M149.279,42.1818L149.473,42.3887M149.473,42.3887L149.62,42.6308M149.62,42.6308L149.715,42.8978M149.715,42.8978L149.753,43.1785M149.753,43.1785L149.76,43.1711M148.893,46.296L147.715,46.296M149.115,46.224L147.504,46.224M146.761,46.224L145.595,46.224M149.265,46.152L147.344,46.152M146.781,46.152L145.617,46.152M149.404,46.08L147.217,46.08M146.796,46.08L145.637,46.08M149.499,46.008L147.111,46.008M146.812,46.008L145.656,46.008M149.568,45.936L147.026,45.936M146.828,45.936L145.675,45.936M149.628,45.864L146.941,45.864M146.844,45.864L145.695,45.864M149.672,45.792L145.708,45.792M149.71,45.72L145.714,45.72M149.738,45.648L145.719,45.648M149.765,45.576L148.273,45.576M147.564,45.576L145.724,45.576M149.792,45.504L148.461,45.504M147.333,45.504L145.73,45.504M149.813,45.432L148.553,45.432M147.239,45.432L145.735,45.432M149.826,45.36L148.618,45.36M147.164,45.36L145.734,45.36M149.839,45.288L148.66,45.288M147.09,45.288L145.734,45.288M149.852,45.216L148.686,45.216M147.03,45.216L145.734,45.216M149.862,45.144L148.702,45.144M146.993,45.144L145.734,45.144M149.862,45.072L148.703,45.072M146.969,45.072L145.733,45.072M149.861,45L148.704,45M146.953,45L145.733,45M149.861,44.928L148.696,44.928M146.94,44.928L145.732,44.928M149.859,44.856L148.682,44.856M146.926,44.856L145.732,44.856M149.844,44.784L148.664,44.784M146.912,44.784L145.732,44.784M149.828,44.712L148.635,44.712M146.904,44.712L145.731,44.712M149.812,44.64L148.603,44.64M146.899,44.64L145.731,44.64M149.788,44.568L148.554,44.568M146.894,44.568L145.73,44.568M149.752,44.496L148.48,44.496M146.89,44.496L145.729,44.496M149.717,44.424L148.368,44.424M146.887,44.424L145.729,44.424M149.681,44.352L148.204,44.352M146.887,44.352L145.729,44.352M149.622,44.28L147.737,44.28M146.887,44.28L145.729,44.28M149.563,44.208L147.287,44.208M149.486,44.136L147.046,44.136M146.887,44.136L145.735,44.136M149.399,44.064L146.94,44.064M146.887,44.064L145.735,44.064M149.279,43.992L145.735,43.992M149.125,43.92L145.735,43.92M148.904,43.848L145.735,43.848M148.631,43.776L145.735,43.776M148.173,43.704L145.735,43.704M147.561,43.632L145.735,43.632M147.23,43.56L145.735,43.56M147.083,43.488L145.735,43.488M146.991,43.416L145.735,43.416M146.933,43.344L145.735,43.344M146.912,43.272L145.735,43.272M146.897,43.2L145.735,43.2M149.746,43.128L148.554,43.128M146.89,43.128L145.735,43.128M149.736,43.056L148.545,43.056M146.89,43.056L145.735,43.056M149.726,42.984L148.533,42.984M146.896,42.984L145.735,42.984M149.716,42.912L148.506,42.912M146.911,42.912L145.735,42.912M149.694,42.84L148.476,42.84M146.93,42.84L145.735,42.84M149.669,42.768L148.428,42.768M146.961,42.768L145.74,42.768M149.643,42.696L148.369,42.696M147.01,42.696L145.75,42.696M149.616,42.624L148.29,42.624M147.08,42.624L145.758,42.624M149.572,42.552L148.167,42.552M147.185,42.552L145.781,42.552M149.528,42.48L147.879,42.48M147.607,42.48L145.808,42.48M149.484,42.408L145.836,42.408M149.423,42.336L145.886,42.336M149.356,42.264L145.938,42.264M149.288,42.192L146.008,42.192M149.19,42.12L146.092,42.12M149.088,42.048L146.212,42.048M148.952,41.976L146.347,41.976M148.794,41.904L146.483,41.904M148.581,41.832L146.719,41.832M148.252,41.76L147.05,41.76"/>
    </g>
    <g  stroke-width="0">
     <title >polygon</title>
     <path  fill="white" stroke="none" stroke-linecap="round" stroke-width="0" d="M144.965,46.2529L144.958,42.0335M144.958,42.0335L143.863,41.8391M143.863,41.8391L143.863,42.6529M143.863,42.6529L143.834,42.6671M143.834,42.6671L143.791,42.6529M143.791,42.6529L143.734,42.5665M143.734,42.5665L143.539,42.2711M143.539,42.2711L143.449,42.1626M143.449,42.1626L143.338,42.0769M143.338,42.0769L143.086,41.9111M143.086,41.9111L142.912,41.8113M142.912,41.8113L142.723,41.7481M142.723,41.7481L142.524,41.724M142.524,41.724L142.135,41.7455M142.135,41.7455L142.135,42.84M142.135,42.84L142.142,42.84M142.142,42.84L142.186,42.8329M142.186,42.8329L142.358,42.7969M142.358,42.7969L142.798,42.7969M142.798,42.7969L142.957,42.8239M142.957,42.8239L143.109,42.8772M143.109,42.8772L143.251,42.9551M143.251,42.9551L143.446,43.1186M143.446,43.1186L143.6,43.3213M143.6,43.3213L143.705,43.5529M143.705,43.5529L143.762,43.791M143.762,43.791L143.784,44.0351M143.784,44.0351L143.784,46.2529M143.784,46.2529L144.965,46.2529M144.965,46.224L143.784,46.224M144.965,46.152L143.784,46.152M144.965,46.08L143.784,46.08M144.965,46.008L143.784,46.008M144.965,45.936L143.784,45.936M144.964,45.864L143.784,45.864M144.964,45.792L143.784,45.792M144.964,45.72L143.784,45.72M144.964,45.648L143.784,45.648M144.964,45.576L143.784,45.576M144.964,45.504L143.784,45.504M144.963,45.432L143.784,45.432M144.963,45.36L143.784,45.36M144.963,45.288L143.784,45.288M144.963,45.216L143.784,45.216M144.963,45.144L143.784,45.144M144.963,45.072L143.784,45.072M144.963,45L143.784,45M144.963,44.928L143.784,44.928M144.963,44.856L143.784,44.856M144.963,44.784L143.784,44.784M144.963,44.712L143.784,44.712M144.963,44.64L143.784,44.64M144.962,44.568L143.784,44.568M144.962,44.496L143.784,44.496M144.962,44.424L143.784,44.424M144.962,44.352L143.784,44.352M144.961,44.28L143.784,44.28M144.961,44.208L143.784,44.208M144.961,44.136L143.784,44.136M144.961,44.064L143.784,44.064M144.961,43.992L143.78,43.992M144.961,43.92L143.774,43.92M144.961,43.848L143.767,43.848M144.96,43.776L143.759,43.776M144.96,43.704L143.742,43.704M144.96,43.632L143.724,43.632M144.96,43.56L143.707,43.56M144.96,43.488L143.675,43.488M144.96,43.416L143.643,43.416M144.96,43.344L143.61,43.344M144.96,43.272L143.562,43.272M144.96,43.2L143.508,43.2M144.96,43.128L143.453,43.128M144.96,43.056L143.371,43.056M144.959,42.984L143.285,42.984M144.959,42.912L143.173,42.912M144.959,42.84L143.003,42.84M142.142,42.84L142.135,42.84M144.959,42.768L142.135,42.768M144.959,42.696L142.135,42.696M144.958,42.624L143.863,42.624M143.772,42.624L142.135,42.624M144.958,42.552L143.863,42.552M143.724,42.552L142.135,42.552M144.958,42.48L143.863,42.48M143.677,42.48L142.135,42.48M144.958,42.408L143.863,42.408M143.629,42.408L142.135,42.408M144.958,42.336L143.863,42.336M143.582,42.336L142.135,42.336M144.958,42.264L143.863,42.264M143.533,42.264L142.135,42.264M144.958,42.192L143.863,42.192M143.474,42.192L142.135,42.192M144.958,42.12L143.863,42.12M143.394,42.12L142.135,42.12M144.958,42.048L143.863,42.048M143.294,42.048L142.135,42.048M144.634,41.976L143.863,41.976M143.184,41.976L142.135,41.976M144.228,41.904L143.863,41.904M143.073,41.904L142.135,41.904M142.948,41.832L142.135,41.832M142.759,41.76L142.135,41.76"/>
    </g>
    <g  stroke-width="0">
     <title >polygon</title>
     <path  fill="white" stroke="none" stroke-linecap="round" stroke-width="0" d="M141.602,46.2745L141.602,40.7951M141.602,40.7951L140.429,40.1255M140.429,40.1255L140.429,43.452M140.429,43.452L138.816,41.8391M138.816,41.8391L137.491,41.8391M137.491,41.8391L139.126,43.4375M139.126,43.4375L137.239,46.2671M137.239,46.2671L138.679,46.26M138.679,46.26L139.889,44.2655M139.889,44.2655L139.903,44.244M139.903,44.244L140.414,44.7409M140.414,44.7409L140.414,46.2529M140.414,46.2529L140.414,46.2889M140.414,46.2889L141.588,46.2889M141.588,46.2889L141.602,46.2745M141.602,46.224L140.414,46.224M138.701,46.224L137.268,46.224M141.602,46.152L140.414,46.152M138.745,46.152L137.316,46.152M141.602,46.08L140.414,46.08M138.788,46.08L137.364,46.08M141.602,46.008L140.414,46.008M138.832,46.008L137.412,46.008M141.602,45.936L140.414,45.936M138.876,45.936L137.46,45.936M141.602,45.864L140.414,45.864M138.919,45.864L137.508,45.864M141.602,45.792L140.414,45.792M138.963,45.792L137.556,45.792M141.602,45.72L140.414,45.72M139.007,45.72L137.604,45.72M141.602,45.648L140.414,45.648M139.05,45.648L137.652,45.648M141.602,45.576L140.414,45.576M139.094,45.576L137.7,45.576M141.602,45.504L140.414,45.504M139.137,45.504L137.748,45.504M141.602,45.432L140.414,45.432M139.181,45.432L137.796,45.432M141.602,45.36L140.414,45.36M139.225,45.36L137.844,45.36M141.602,45.288L140.414,45.288M139.269,45.288L137.892,45.288M141.602,45.216L140.414,45.216M139.312,45.216L137.94,45.216M141.602,45.144L140.414,45.144M139.356,45.144L137.988,45.144M141.602,45.072L140.414,45.072M139.4,45.072L138.036,45.072M141.602,45L140.414,45M139.443,45L138.084,45M141.602,44.928L140.414,44.928M139.487,44.928L138.132,44.928M141.602,44.856L140.414,44.856M139.531,44.856L138.18,44.856M141.602,44.784L140.414,44.784M139.574,44.784L138.228,44.784M141.602,44.712L140.385,44.712M139.618,44.712L138.276,44.712M141.602,44.64L140.311,44.64M139.661,44.64L138.324,44.64M141.602,44.568L140.237,44.568M139.705,44.568L138.372,44.568M141.602,44.496L140.162,44.496M139.749,44.496L138.42,44.496M141.602,44.424L140.088,44.424M139.792,44.424L138.468,44.424M141.602,44.352L140.014,44.352M139.836,44.352L138.516,44.352M141.602,44.28L139.94,44.28M139.88,44.28L138.564,44.28M141.602,44.208L138.612,44.208M141.602,44.136L138.66,44.136M141.602,44.064L138.708,44.064M141.602,43.992L138.756,43.992M141.602,43.92L138.804,43.92M141.602,43.848L138.852,43.848M141.602,43.776L138.9,43.776M141.602,43.704L138.948,43.704M141.602,43.632L138.996,43.632M141.602,43.56L139.044,43.56M141.602,43.488L139.092,43.488M141.602,43.416L140.429,43.416M140.393,43.416L139.103,43.416M141.602,43.344L140.429,43.344M140.321,43.344L139.03,43.344M141.602,43.272L140.429,43.272M140.249,43.272L138.956,43.272M141.602,43.2L140.429,43.2M140.177,43.2L138.883,43.2M141.602,43.128L140.429,43.128M140.105,43.128L138.809,43.128M141.602,43.056L140.429,43.056M140.033,43.056L138.735,43.056M141.602,42.984L140.429,42.984M139.961,42.984L138.661,42.984M141.602,42.912L140.429,42.912M139.889,42.912L138.588,42.912M141.602,42.84L140.429,42.84M139.817,42.84L138.514,42.84M141.602,42.768L140.429,42.768M139.745,42.768L138.441,42.768M141.602,42.696L140.429,42.696M139.673,42.696L138.367,42.696M141.602,42.624L140.429,42.624M139.601,42.624L138.293,42.624M141.602,42.552L140.429,42.552M139.529,42.552L138.22,42.552M141.602,42.48L140.429,42.48M139.457,42.48L138.146,42.48M141.602,42.408L140.429,42.408M139.385,42.408L138.073,42.408M141.602,42.336L140.429,42.336M139.313,42.336L137.999,42.336M141.602,42.264L140.429,42.264M139.241,42.264L137.925,42.264M141.602,42.192L140.429,42.192M139.169,42.192L137.852,42.192M141.602,42.12L140.429,42.12M139.097,42.12L137.778,42.12M141.602,42.048L140.429,42.048M139.025,42.048L137.704,42.048M141.602,41.976L140.429,41.976M138.953,41.976L137.631,41.976M141.602,41.904L140.429,41.904M138.881,41.904L137.557,41.904M141.602,41.832L140.429,41.832M141.602,41.76L140.429,41.76M141.602,41.688L140.429,41.688M141.602,41.616L140.429,41.616M141.602,41.544L140.429,41.544M141.602,41.472L140.429,41.472M141.602,41.4L140.429,41.4M141.602,41.328L140.429,41.328M141.602,41.256L140.429,41.256M141.602,41.184L140.429,41.184M141.602,41.112L140.429,41.112M141.602,41.04L140.429,41.04M141.602,40.968L140.429,40.968M141.602,40.896L140.429,40.896M141.602,40.824L140.429,40.824M141.527,40.752L140.429,40.752M141.401,40.68L140.429,40.68M141.275,40.608L140.429,40.608M141.148,40.536L140.429,40.536M141.022,40.464L140.429,40.464M140.896,40.392L140.429,40.392M140.77,40.32L140.429,40.32M140.644,40.248L140.429,40.248M140.517,40.176L140.429,40.176"/>
    </g>
    <g  stroke-width="0">
     <title >polygon</title>
     <path  fill="white" stroke="none" stroke-linecap="round" stroke-width="0" d="M136.426,46.2815L136.426,42.6529M136.426,42.6529L136.426,42.5951M136.426,42.5951L137.556,42.588M137.556,42.588L136.8,41.832M136.8,41.832L136.411,41.832M136.411,41.832L136.411,41.7025M136.411,41.7025L136.361,41.0975M136.361,41.0975L136.318,40.9368M136.318,40.9368L136.248,40.7863M136.248,40.7863L136.152,40.6511M136.152,40.6511L135.941,40.4501M135.941,40.4501L135.696,40.2942M135.696,40.2942L135.424,40.1896M135.424,40.1896L135.137,40.14M135.137,40.14L134.698,40.14M134.698,40.14L134.323,40.1615M134.323,40.1615L134.316,40.1615M134.316,40.1615L134.316,41.0185M134.316,41.0185L134.338,41.0185M134.338,41.0185L134.417,41.0111M134.417,41.0111L134.68,40.9867M134.68,40.9867L134.942,41.0111M134.942,41.0111L135.031,41.0414M135.031,41.0414L135.108,41.0959M135.108,41.0959L135.166,41.1695M135.166,41.1695L135.219,41.2983M135.219,41.2983L135.238,41.436M135.238,41.436L135.238,41.832M135.238,41.832L134.921,41.832M134.921,41.832L134.395,41.832M134.395,41.832L134.395,42.588M134.395,42.588L135.245,42.588M135.245,42.588L135.245,46.2815M135.245,46.2815L136.426,46.2815M136.426,46.224L135.245,46.224M136.426,46.152L135.245,46.152M136.426,46.08L135.245,46.08M136.426,46.008L135.245,46.008M136.426,45.936L135.245,45.936M136.426,45.864L135.245,45.864M136.426,45.792L135.245,45.792M136.426,45.72L135.245,45.72M136.426,45.648L135.245,45.648M136.426,45.576L135.245,45.576M136.426,45.504L135.245,45.504M136.426,45.432L135.245,45.432M136.426,45.36L135.245,45.36M136.426,45.288L135.245,45.288M136.426,45.216L135.245,45.216M136.426,45.144L135.245,45.144M136.426,45.072L135.245,45.072M136.426,45L135.245,45M136.426,44.928L135.245,44.928M136.426,44.856L135.245,44.856M136.426,44.784L135.245,44.784M136.426,44.712L135.245,44.712M136.426,44.64L135.245,44.64M136.426,44.568L135.245,44.568M136.426,44.496L135.245,44.496M136.426,44.424L135.245,44.424M136.426,44.352L135.245,44.352M136.426,44.28L135.245,44.28M136.426,44.208L135.245,44.208M136.426,44.136L135.245,44.136M136.426,44.064L135.245,44.064M136.426,43.992L135.245,43.992M136.426,43.92L135.245,43.92M136.426,43.848L135.245,43.848M136.426,43.776L135.245,43.776M136.426,43.704L135.245,43.704M136.426,43.632L135.245,43.632M136.426,43.56L135.245,43.56M136.426,43.488L135.245,43.488M136.426,43.416L135.245,43.416M136.426,43.344L135.245,43.344M136.426,43.272L135.245,43.272M136.426,43.2L135.245,43.2M136.426,43.128L135.245,43.128M136.426,43.056L135.245,43.056M136.426,42.984L135.245,42.984M136.426,42.912L135.245,42.912M136.426,42.84L135.245,42.84M136.426,42.768L135.245,42.768M136.426,42.696L135.245,42.696M136.426,42.624L135.245,42.624M137.52,42.552L134.395,42.552M137.448,42.48L134.395,42.48M137.376,42.408L134.395,42.408M137.304,42.336L134.395,42.336M137.232,42.264L134.395,42.264M137.16,42.192L134.395,42.192M137.088,42.12L134.395,42.12M137.016,42.048L134.395,42.048M136.944,41.976L134.395,41.976M136.872,41.904L134.395,41.904M136.411,41.832L135.238,41.832M136.411,41.76L135.238,41.76M136.41,41.688L135.238,41.688M136.404,41.616L135.238,41.616M136.398,41.544L135.238,41.544M136.392,41.472L135.238,41.472M136.386,41.4L135.233,41.4M136.38,41.328L135.222,41.328M136.374,41.256L135.202,41.256M136.368,41.184L135.171,41.184M136.362,41.112L135.12,41.112M136.346,41.04L135.027,41.04M136.327,40.968L134.316,40.968M136.3,40.896L134.316,40.896M136.266,40.824L134.316,40.824M136.224,40.752L134.316,40.752M136.173,40.68L134.316,40.68M136.107,40.608L134.316,40.608M136.032,40.536L134.316,40.536M135.956,40.464L134.316,40.464M135.85,40.392L134.316,40.392M135.736,40.32L134.316,40.32M135.575,40.248L134.316,40.248M135.346,40.176L134.316,40.176"/>
    </g>
    <g  stroke-width="0">
     <title >polygon</title>
     <path  fill="white" stroke="none" stroke-linecap="round" stroke-width="0" d="M133.978,41.8175L133.978,44.8775M133.978,44.8775L133.949,45.1894M133.949,45.1894L133.864,45.4907M133.864,45.4907L133.726,45.7716M133.726,45.7716L133.538,46.0225M133.538,46.0225L133.466,46.0871M133.466,46.0871L133.211,46.2362M133.211,46.2362L132.931,46.3332M132.931,46.3332L132.638,46.3751M132.638,46.3751L132.215,46.3663M132.215,46.3663L131.796,46.3031M131.796,46.3031L131.722,46.2802M131.722,46.2802L131.652,46.2455M131.652,46.2455L131.388,46.0588M131.388,46.0588L131.154,45.8362M131.154,45.8362L130.954,45.5831M130.954,45.5831L130.946,45.5831M130.946,45.5831L130.946,46.26M130.946,46.26L129.809,46.26M129.809,46.26L129.809,41.832M129.809,41.832L131.004,41.832M131.004,41.832L131.004,44.1865M131.004,44.1865L131.026,44.5383M131.026,44.5383L131.09,44.8849M131.09,44.8849L131.152,45.0479M131.152,45.0479L131.25,45.1922M131.25,45.1922L131.378,45.3104M131.378,45.3104L131.53,45.396M131.53,45.396L131.733,45.4581M131.733,45.4581L131.944,45.4779M131.944,45.4779L132.155,45.4544M132.155,45.4544L132.358,45.3889M132.358,45.3889L132.476,45.3218M132.476,45.3218L132.579,45.2316M132.579,45.2316L132.66,45.1225M132.66,45.1225L132.761,44.8974M132.761,44.8974L132.804,44.6545M132.804,44.6545L132.804,41.8175M132.804,41.8175L133.978,41.8175M132.688,46.368L132.297,46.368M133.039,46.296L131.774,46.296M133.232,46.224L131.622,46.224M130.946,46.224L129.809,46.224M133.356,46.152L131.52,46.152M130.946,46.152L129.809,46.152M133.474,46.08L131.419,46.08M130.946,46.08L129.809,46.08M133.549,46.008L131.335,46.008M130.946,46.008L129.809,46.008M133.603,45.936L131.259,45.936M130.946,45.936L129.809,45.936M133.656,45.864L131.183,45.864M130.946,45.864L129.809,45.864M133.71,45.792L131.119,45.792M130.946,45.792L129.809,45.792M133.751,45.72L131.062,45.72M130.946,45.72L129.809,45.72M133.787,45.648L131.005,45.648M130.946,45.648L129.809,45.648M133.822,45.576L129.809,45.576M133.857,45.504L129.809,45.504M133.881,45.432L132.224,45.432M131.647,45.432L129.809,45.432M133.901,45.36L132.408,45.36M131.466,45.36L129.809,45.36M133.921,45.288L132.515,45.288M131.353,45.288L129.809,45.288M133.942,45.216L132.59,45.216M131.275,45.216L129.809,45.216M133.953,45.144L132.644,45.144M131.217,45.144L129.809,45.144M133.96,45.072L132.682,45.072M131.168,45.072L129.809,45.072M133.967,45L132.715,45M131.134,45L129.809,45M133.973,44.928L132.746,44.928M131.107,44.928L129.809,44.928M133.978,44.856L132.768,44.856M131.085,44.856L129.809,44.856M133.978,44.784L132.781,44.784M131.072,44.784L129.809,44.784M133.978,44.712L132.793,44.712M131.058,44.712L129.809,44.712M133.978,44.64L132.804,44.64M131.044,44.64L129.809,44.64M133.978,44.568L132.804,44.568M131.031,44.568L129.809,44.568M133.978,44.496L132.804,44.496M131.023,44.496L129.809,44.496M133.978,44.424L132.804,44.424M131.018,44.424L129.809,44.424M133.978,44.352L132.804,44.352M131.014,44.352L129.809,44.352M133.978,44.28L132.804,44.28M131.01,44.28L129.809,44.28M133.978,44.208L132.804,44.208M131.005,44.208L129.809,44.208M133.978,44.136L132.804,44.136M131.004,44.136L129.809,44.136M133.978,44.064L132.804,44.064M131.004,44.064L129.809,44.064M133.978,43.992L132.804,43.992M131.004,43.992L129.809,43.992M133.978,43.92L132.804,43.92M131.004,43.92L129.809,43.92M133.978,43.848L132.804,43.848M131.004,43.848L129.809,43.848M133.978,43.776L132.804,43.776M131.004,43.776L129.809,43.776M133.978,43.704L132.804,43.704M131.004,43.704L129.809,43.704M133.978,43.632L132.804,43.632M131.004,43.632L129.809,43.632M133.978,43.56L132.804,43.56M131.004,43.56L129.809,43.56M133.978,43.488L132.804,43.488M131.004,43.488L129.809,43.488M133.978,43.416L132.804,43.416M131.004,43.416L129.809,43.416M133.978,43.344L132.804,43.344M131.004,43.344L129.809,43.344M133.978,43.272L132.804,43.272M131.004,43.272L129.809,43.272M133.978,43.2L132.804,43.2M131.004,43.2L129.809,43.2M133.978,43.128L132.804,43.128M131.004,43.128L129.809,43.128M133.978,43.056L132.804,43.056M131.004,43.056L129.809,43.056M133.978,42.984L132.804,42.984M131.004,42.984L129.809,42.984M133.978,42.912L132.804,42.912M131.004,42.912L129.809,42.912M133.978,42.84L132.804,42.84M131.004,42.84L129.809,42.84M133.978,42.768L132.804,42.768M131.004,42.768L129.809,42.768M133.978,42.696L132.804,42.696M131.004,42.696L129.809,42.696M133.978,42.624L132.804,42.624M131.004,42.624L129.809,42.624M133.978,42.552L132.804,42.552M131.004,42.552L129.809,42.552M133.978,42.48L132.804,42.48M131.004,42.48L129.809,42.48M133.978,42.408L132.804,42.408M131.004,42.408L129.809,42.408M133.978,42.336L132.804,42.336M131.004,42.336L129.809,42.336M133.978,42.264L132.804,42.264M131.004,42.264L129.809,42.264M133.978,42.192L132.804,42.192M131.004,42.192L129.809,42.192M133.978,42.12L132.804,42.12M131.004,42.12L129.809,42.12M133.978,42.048L132.804,42.048M131.004,42.048L129.809,42.048M133.978,41.976L132.804,41.976M131.004,41.976L129.809,41.976M133.978,41.904L132.804,41.904M131.004,41.904L129.809,41.904M133.978,41.832L132.804,41.832"/>
    </g>
    <g  stroke-width="0">
     <title >polygon</title>
     <path  fill="white" stroke="none" stroke-linecap="round" stroke-width="0" d="M129.103,41.8249L127.958,41.8249M127.958,41.8249L127.958,42.4511M127.958,42.4511L127.937,42.4511M127.937,42.4511L127.909,42.4454M127.909,42.4454L127.886,42.4295M127.886,42.4295L127.85,42.3865M127.85,42.3865L127.771,42.2785M127.771,42.2785L127.657,42.1444M127.657,42.1444L127.526,42.0265M127.526,42.0265L127.272,41.8658M127.272,41.8658L126.989,41.7609M126.989,41.7609L126.691,41.7169M126.691,41.7169L126.122,41.7311M126.122,41.7311L125.845,41.7892M125.845,41.7892L125.589,41.9091M125.589,41.9091L125.366,42.084M125.366,42.084L125.228,42.247M125.228,42.247L125.119,42.4313M125.119,42.4313L125.042,42.6311M125.042,42.6311L124.975,42.9449M124.975,42.9449L124.949,43.2649M124.949,43.2649L124.949,46.2529M124.949,46.2529L126.108,46.2529M126.108,46.2529L126.108,43.5169M126.108,43.5169L126.127,43.3089M126.127,43.3089L126.183,43.1073M126.183,43.1073L126.274,42.9191M126.274,42.9191L126.362,42.8034M126.362,42.8034L126.474,42.7108M126.474,42.7108L126.605,42.6455M126.605,42.6455L126.697,42.622M126.697,42.622L126.792,42.6169M126.792,42.6169L127.109,42.6311M127.109,42.6311L127.272,42.6566M127.272,42.6566L127.426,42.7178M127.426,42.7178L127.562,42.8111M127.562,42.8111L127.714,42.9789M127.714,42.9789L127.822,43.1785M127.822,43.1785L127.885,43.3979M127.885,43.3979L127.908,43.6249M127.908,43.6249L127.908,43.8191M127.908,43.8191L127.908,46.2815M127.908,46.2815L129.103,46.2815M129.103,46.2815L129.103,41.8249M129.103,46.224L127.908,46.224M126.108,46.224L124.949,46.224M129.103,46.152L127.908,46.152M126.108,46.152L124.949,46.152M129.103,46.08L127.908,46.08M126.108,46.08L124.949,46.08M129.103,46.008L127.908,46.008M126.108,46.008L124.949,46.008M129.103,45.936L127.908,45.936M126.108,45.936L124.949,45.936M129.103,45.864L127.908,45.864M126.108,45.864L124.949,45.864M129.103,45.792L127.908,45.792M126.108,45.792L124.949,45.792M129.103,45.72L127.908,45.72M126.108,45.72L124.949,45.72M129.103,45.648L127.908,45.648M126.108,45.648L124.949,45.648M129.103,45.576L127.908,45.576M126.108,45.576L124.949,45.576M129.103,45.504L127.908,45.504M126.108,45.504L124.949,45.504M129.103,45.432L127.908,45.432M126.108,45.432L124.949,45.432M129.103,45.36L127.908,45.36M126.108,45.36L124.949,45.36M129.103,45.288L127.908,45.288M126.108,45.288L124.949,45.288M129.103,45.216L127.908,45.216M126.108,45.216L124.949,45.216M129.103,45.144L127.908,45.144M126.108,45.144L124.949,45.144M129.103,45.072L127.908,45.072M126.108,45.072L124.949,45.072M129.103,45L127.908,45M126.108,45L124.949,45M129.103,44.928L127.908,44.928M126.108,44.928L124.949,44.928M129.103,44.856L127.908,44.856M126.108,44.856L124.949,44.856M129.103,44.784L127.908,44.784M126.108,44.784L124.949,44.784M129.103,44.712L127.908,44.712M126.108,44.712L124.949,44.712M129.103,44.64L127.908,44.64M126.108,44.64L124.949,44.64M129.103,44.568L127.908,44.568M126.108,44.568L124.949,44.568M129.103,44.496L127.908,44.496M126.108,44.496L124.949,44.496M129.103,44.424L127.908,44.424M126.108,44.424L124.949,44.424M129.103,44.352L127.908,44.352M126.108,44.352L124.949,44.352M129.103,44.28L127.908,44.28M126.108,44.28L124.949,44.28M129.103,44.208L127.908,44.208M126.108,44.208L124.949,44.208M129.103,44.136L127.908,44.136M126.108,44.136L124.949,44.136M129.103,44.064L127.908,44.064M126.108,44.064L124.949,44.064M129.103,43.992L127.908,43.992M126.108,43.992L124.949,43.992M129.103,43.92L127.908,43.92M126.108,43.92L124.949,43.92M129.103,43.848L127.908,43.848M126.108,43.848L124.949,43.848M129.103,43.776L127.908,43.776M126.108,43.776L124.949,43.776M129.103,43.704L127.908,43.704M126.108,43.704L124.949,43.704M129.103,43.632L127.908,43.632M126.108,43.632L124.949,43.632M129.103,43.56L127.902,43.56M126.108,43.56L124.949,43.56M129.103,43.488L127.894,43.488M126.111,43.488L124.949,43.488M129.103,43.416L127.886,43.416M126.117,43.416L124.949,43.416M129.103,43.344L127.869,43.344M126.123,43.344L124.949,43.344M129.103,43.272L127.848,43.272M126.137,43.272L124.949,43.272M129.103,43.2L127.827,43.2M126.157,43.2L124.955,43.2M129.103,43.128L127.794,43.128M126.176,43.128L124.96,43.128M129.103,43.056L127.756,43.056M126.207,43.056L124.965,43.056M129.103,42.984L127.717,42.984M126.242,42.984L124.971,42.984M129.103,42.912L127.654,42.912M126.279,42.912L124.982,42.912M129.103,42.84L127.588,42.84M126.334,42.84L124.997,42.84M129.103,42.768L127.499,42.768M126.405,42.768L125.013,42.768M129.103,42.696L127.371,42.696M126.504,42.696L125.029,42.696M129.103,42.624L126.95,42.624M126.689,42.624L125.045,42.624M129.103,42.552L125.073,42.552M129.103,42.48L125.1,42.48M129.103,42.408L127.958,42.408M127.868,42.408L125.132,42.408M129.103,42.336L127.958,42.336M127.814,42.336L125.176,42.336M129.103,42.264L127.958,42.264M127.759,42.264L125.218,42.264M129.103,42.192L127.958,42.192M127.698,42.192L125.275,42.192M129.103,42.12L127.958,42.12M127.63,42.12L125.336,42.12M129.103,42.048L127.958,42.048M127.551,42.048L125.412,42.048M129.103,41.976L127.958,41.976M127.446,41.976L125.504,41.976M129.103,41.904L127.958,41.904M127.333,41.904L125.6,41.904M129.103,41.832L127.958,41.832M127.181,41.832L125.754,41.832M126.984,41.76L125.985,41.76"/>
    </g>
    <g  stroke-width="0">
     <title >polygon</title>
     <path  fill="white" stroke="none" stroke-linecap="round" stroke-width="0" d="M118.087,43.2791L119.275,43.2791M119.275,43.2791L119.275,43.272M119.275,43.272L119.295,43.1016M119.295,43.1016L119.352,42.9404M119.352,42.9404L119.445,42.7961M119.445,42.7961L119.568,42.6764M119.568,42.6764L119.714,42.588M119.714,42.588L119.946,42.5115M119.946,42.5115L120.19,42.4871M120.19,42.4871L120.434,42.5066M120.434,42.5066L120.672,42.5591M120.672,42.5591L120.797,42.6155M120.797,42.6155L120.902,42.7031M120.902,42.7031L121.101,42.9673M121.101,42.9673L121.248,43.2641M121.248,43.2641L121.336,43.5833M121.336,43.5833L121.363,43.9129M121.363,43.9129L121.326,44.3605M121.326,44.3605L121.226,44.7985M121.226,44.7985L121.134,45.0088M121.134,45.0088L120.995,45.1911M120.995,45.1911L120.815,45.3351M120.815,45.3351L120.607,45.432M120.607,45.432L120.38,45.4847M120.38,45.4847L120.146,45.4969M120.146,45.4969L119.973,45.4753M119.973,45.4753L119.806,45.4244M119.806,45.4244L119.65,45.3455M119.65,45.3455L119.519,45.2432M119.519,45.2432L119.412,45.1151M119.412,45.1151L119.318,44.9422M119.318,44.9422L119.254,44.7556M119.254,44.7556L119.225,44.5609M119.225,44.5609L118.073,44.5609M118.073,44.5609L118.073,44.5751M118.073,44.5751L118.082,44.7095M118.082,44.7095L118.109,44.8415M118.109,44.8415L118.263,45.2359M118.263,45.2359L118.493,45.5905M118.493,45.5905L118.792,45.8904M118.792,45.8904L119.146,46.1231M119.146,46.1231L119.455,46.254M119.455,46.254L119.782,46.334M119.782,46.334L120.118,46.3609M120.118,46.3609L120.567,46.3329M120.567,46.3329L121.01,46.2529M121.01,46.2529L121.314,46.1523M121.314,46.1523L121.596,46.0032M121.596,46.0032L121.851,45.8093M121.851,45.8093L122.069,45.576M122.069,45.576L122.262,45.2877M122.262,45.2877L122.408,44.9728M122.408,44.9728L122.503,44.6391M122.503,44.6391L122.544,44.2945M122.544,44.2945L122.522,43.5889M122.522,43.5889L122.438,43.1665M122.438,43.1665L122.275,42.768M122.275,42.768L122.038,42.408M122.038,42.408L121.738,42.0996M121.738,42.0996L121.383,41.8541M121.383,41.8541L120.989,41.6809M120.989,41.6809L120.562,41.5868M120.562,41.5868L120.125,41.58M120.125,41.58L119.719,41.6336M119.719,41.6336L119.318,41.724M119.318,41.724L118.991,41.8538M118.991,41.8538L118.698,42.0514M118.698,42.0514L118.456,42.3073M118.456,42.3073L118.274,42.6095M118.274,42.6095L118.154,42.9369M118.154,42.9369L118.087,43.2791M120.771,46.296L119.627,46.296M121.098,46.224L119.384,46.224M121.314,46.152L119.214,46.152M121.45,46.08L119.08,46.08M121.587,46.008L118.971,46.008M121.684,45.936L118.861,45.936M121.779,45.864L118.765,45.864M121.866,45.792L118.694,45.792M121.934,45.72L118.622,45.72M122.001,45.648L118.551,45.648M122.069,45.576L118.484,45.576M122.117,45.504L118.437,45.504M122.165,45.432L120.607,45.432M119.831,45.432L118.39,45.432M122.214,45.36L120.762,45.36M119.678,45.36L118.344,45.36M122.262,45.288L120.874,45.288M119.576,45.288L118.296,45.288M122.296,45.216L120.964,45.216M119.496,45.216L118.255,45.216M122.329,45.144L121.031,45.144M119.436,45.144L118.227,45.144M122.362,45.072L121.086,45.072M119.389,45.072L118.199,45.072M122.395,45L121.138,45M119.349,45L118.171,45M122.42,44.928L121.17,44.928M119.313,44.928L118.143,44.928M122.441,44.856L121.201,44.856M119.289,44.856L118.115,44.856M122.461,44.784L121.23,44.784M119.264,44.784L118.097,44.784M122.482,44.712L121.247,44.712M119.248,44.712L118.082,44.712M122.502,44.64L121.262,44.64M119.237,44.64L118.077,44.64M122.511,44.568L121.279,44.568M119.226,44.568L118.073,44.568M122.52,44.496L121.296,44.496M122.528,44.424L121.312,44.424M122.537,44.352L121.326,44.352M122.544,44.28L121.333,44.28M122.541,44.208L121.339,44.208M122.539,44.136L121.344,44.136M122.538,44.064L121.351,44.064M122.535,43.992L121.357,43.992M122.532,43.92L121.362,43.92M122.53,43.848L121.357,43.848M122.528,43.776L121.352,43.776M122.526,43.704L121.346,43.704M122.524,43.632L121.34,43.632M122.517,43.56L121.329,43.56M122.502,43.488L121.309,43.488M122.488,43.416L121.29,43.416M122.473,43.344L121.27,43.344M122.459,43.272L121.249,43.272M119.275,43.272L118.089,43.272M122.445,43.2L121.216,43.2M119.283,43.2L118.102,43.2M122.422,43.128L121.18,43.128M119.292,43.128L118.117,43.128M122.393,43.056L121.145,43.056M119.31,43.056L118.131,43.056M122.363,42.984L121.11,42.984M119.336,42.984L118.146,42.984M122.334,42.912L121.06,42.912M119.37,42.912L118.164,42.912M122.304,42.84L121.005,42.84M119.416,42.84L118.19,42.84M122.275,42.768L120.951,42.768M119.473,42.768L118.216,42.768M122.227,42.696L120.894,42.696M119.547,42.696L118.243,42.696M122.18,42.624L120.807,42.624M119.655,42.624L118.269,42.624M122.133,42.552L120.64,42.552M119.823,42.552L118.309,42.552M122.085,42.48L118.352,42.48M122.038,42.408L118.395,42.408M121.968,42.336L118.439,42.336M121.897,42.264L118.498,42.264M121.828,42.192L118.565,42.192M121.757,42.12L118.634,42.12M121.663,42.048L118.704,42.048M121.559,41.976L118.81,41.976M121.455,41.904L118.917,41.904M121.333,41.832L119.046,41.832M121.17,41.76L119.228,41.76M121.005,41.688L119.478,41.688M120.694,41.616L119.852,41.616"/>
    </g>
    <g  stroke-width="0">
     <title >polygon</title>
     <path  fill="white" stroke="none" stroke-linecap="round" stroke-width="0" d="M115.474,41.5729L115.438,41.5871M115.438,41.5871L115.438,42.4151M115.438,42.4151L115.754,42.4585M115.754,42.4585L116.093,42.6455M116.093,42.6455L116.323,42.9625M116.323,42.9625L116.438,43.2215M116.438,43.2215L116.518,43.6465M116.518,43.6465L116.532,44.1791M116.532,44.1791L116.482,44.5391M116.482,44.5391L116.374,44.8705M116.374,44.8705L116.215,45.1729M116.215,45.1729L115.733,45.468M115.733,45.468L115.222,45.5329M115.222,45.5329L114.71,45.36M114.71,45.36L114.394,45.072M114.394,45.072L114.235,44.7191M114.235,44.7191L114.127,44.2729M114.127,44.2729L114.127,43.8625M114.127,43.8625L114.199,43.308M114.199,43.308L114.415,42.84M114.415,42.84L114.66,42.6025M114.66,42.6025L114.941,42.4511M114.941,42.4511L115.286,42.4225M115.286,42.4225L115.315,42.4225M115.315,42.4225L115.301,41.58M115.301,41.58L114.732,41.652M114.732,41.652L114.271,41.8105M114.271,41.8105L113.71,42.1991M113.71,42.1991L113.4,42.5591M113.4,42.5591L113.105,43.2215M113.105,43.2215L113.026,43.8409M113.026,43.8409L113.098,44.4385M113.098,44.4385L113.292,45.1369M113.292,45.1369L113.522,45.504M113.522,45.504L113.861,45.828M113.861,45.828L114.178,46.0511M114.178,46.0511L114.703,46.2311M114.703,46.2311L115.416,46.3031M115.416,46.3031L116.266,46.188M116.266,46.188L117.072,45.684M117.072,45.684L117.526,44.9785M117.526,44.9785L117.698,43.8769M117.698,43.8769L117.468,42.8689M117.468,42.8689L116.863,42.0985M116.863,42.0985L115.906,41.6231M115.906,41.6231L115.488,41.5729M115.488,41.5729L115.474,41.5729M115.468,46.296L115.345,46.296M116,46.224L114.682,46.224M116.323,46.152L114.472,46.152M116.438,46.08L114.262,46.08M116.554,46.008L114.116,46.008M116.669,45.936L114.014,45.936M116.784,45.864L113.912,45.864M116.899,45.792L113.823,45.792M117.014,45.72L113.748,45.72M117.095,45.648L113.673,45.648M117.141,45.576L113.597,45.576M117.188,45.504L115.449,45.504M115.136,45.504L113.522,45.504M117.234,45.432L115.792,45.432M114.924,45.432L113.477,45.432M117.28,45.36L115.909,45.36M114.71,45.36L113.432,45.36M117.327,45.288L116.027,45.288M114.631,45.288L113.386,45.288M117.373,45.216L116.145,45.216M114.552,45.216L113.342,45.216M117.419,45.144L116.23,45.144M114.473,45.144L113.296,45.144M117.465,45.072L116.268,45.072M114.394,45.072L113.274,45.072M117.512,45L116.306,45M114.361,45L113.254,45M117.534,44.928L116.343,44.928M114.329,44.928L113.234,44.928M117.544,44.856L116.379,44.856M114.296,44.856L113.214,44.856M117.556,44.784L116.402,44.784M114.264,44.784L113.193,44.784M117.567,44.712L116.425,44.712M114.233,44.712L113.173,44.712M117.579,44.64L116.448,44.64M114.216,44.64L113.153,44.64M117.59,44.568L116.472,44.568M114.198,44.568L113.134,44.568M117.601,44.496L116.488,44.496M114.181,44.496L113.113,44.496M117.613,44.424L116.497,44.424M114.164,44.424L113.095,44.424M117.624,44.352L116.508,44.352M114.147,44.352L113.087,44.352M117.635,44.28L116.518,44.28M114.129,44.28L113.078,44.28M117.647,44.208L116.528,44.208M114.127,44.208L113.07,44.208M117.657,44.136L116.531,44.136M114.127,44.136L113.061,44.136M117.669,44.064L116.528,44.064M114.127,44.064L113.052,44.064M117.68,43.992L116.527,43.992M114.127,43.992L113.044,43.992M117.692,43.92L116.525,43.92M114.127,43.92L113.035,43.92M117.692,43.848L116.523,43.848M114.129,43.848L113.026,43.848M117.675,43.776L116.521,43.776M114.138,43.776L113.034,43.776M117.659,43.704L116.519,43.704M114.147,43.704L113.043,43.704M117.643,43.632L116.515,43.632M114.157,43.632L113.052,43.632M117.626,43.56L116.501,43.56M114.166,43.56L113.062,43.56M117.61,43.488L116.488,43.488M114.175,43.488L113.071,43.488M117.593,43.416L116.474,43.416M114.185,43.416L113.08,43.416M117.577,43.344L116.461,43.344M114.194,43.344L113.09,43.344M117.56,43.272L116.448,43.272M114.216,43.272L113.098,43.272M117.544,43.2L116.429,43.2M114.249,43.2L113.115,43.2M117.527,43.128L116.397,43.128M114.282,43.128L113.147,43.128M117.51,43.056L116.364,43.056M114.315,43.056L113.179,43.056M117.495,42.984L116.333,42.984M114.348,42.984L113.211,42.984M117.478,42.912L116.286,42.912M114.381,42.912L113.243,42.912M117.446,42.84L116.234,42.84M114.415,42.84L113.275,42.84M117.389,42.768L116.181,42.768M114.489,42.768L113.307,42.768M117.333,42.696L116.13,42.696M114.564,42.696L113.339,42.696M117.276,42.624L116.054,42.624M114.638,42.624L113.371,42.624M117.22,42.552L115.924,42.552M114.754,42.552L113.406,42.552M117.163,42.48L115.793,42.48M114.887,42.48L113.468,42.48M117.107,42.408L115.438,42.408M115.315,42.408L113.53,42.408M117.05,42.336L115.438,42.336M115.314,42.336L113.592,42.336M116.994,42.264L115.438,42.264M115.312,42.264L113.654,42.264M116.937,42.192L115.438,42.192M115.312,42.192L113.72,42.192M116.88,42.12L115.438,42.12M115.31,42.12L113.824,42.12M116.762,42.048L115.438,42.048M115.309,42.048L113.928,42.048M116.616,41.976L115.438,41.976M115.308,41.976L114.032,41.976M116.472,41.904L115.438,41.904M115.307,41.904L114.136,41.904M116.327,41.832L115.438,41.832M115.305,41.832L114.24,41.832M116.181,41.76L115.438,41.76M115.304,41.76L114.418,41.76M116.037,41.688L115.438,41.688M115.303,41.688L114.628,41.688M115.847,41.616L115.438,41.616M115.302,41.616L115.016,41.616"/>
    </g>
    <g  stroke-width="0">
     <title >polygon</title>
     <path  fill="white" stroke="none" stroke-linecap="round" stroke-width="0" d="M112.507,46.2529L112.507,41.7025M112.507,41.7025L111.377,41.7025M111.377,41.7025L111.377,42.3289M111.377,42.3289L111.312,42.3145M111.312,42.3145L111.218,42.192M111.218,42.192L111.002,41.9689M111.002,41.9689L110.786,41.7954M110.786,41.7954L110.534,41.6809M110.534,41.6809L110.225,41.6089M110.225,41.6089L109.836,41.5729M109.836,41.5729L109.565,41.5925M109.565,41.5925L109.303,41.6665M109.303,41.6665L109.079,41.781M109.079,41.781L108.881,41.9358M108.881,41.9358L108.716,42.1254M108.716,42.1254L108.59,42.3431M108.59,42.3431L108.577,42.3405M108.577,42.3405L108.566,42.3329M108.566,42.3329L108.54,42.3071M108.54,42.3071L108.41,42.1705M108.41,42.1705L108.187,41.9553M108.187,41.9553L107.935,41.7745M107.935,41.7745L107.707,41.6631M107.707,41.6631L107.461,41.5973M107.461,41.5973L107.208,41.58M107.208,41.58L106.845,41.6106M106.845,41.6106L106.488,41.6809M106.488,41.6809L106.242,41.7736M106.242,41.7736L106.023,41.9173M106.023,41.9173L105.84,42.1055M105.84,42.1055L105.674,42.372M105.674,42.372L105.564,42.6663M105.564,42.6663L105.516,42.9769M105.516,42.9769L105.516,46.26M105.516,46.26L106.718,46.26M106.718,46.26L106.718,43.344M106.718,43.344L106.749,43.088M106.749,43.088L106.841,42.8471M106.841,42.8471L106.92,42.7314M106.92,42.7314L107.023,42.637M107.023,42.637L107.145,42.569M107.145,42.569L107.28,42.5305M107.28,42.5305L107.543,42.5106M107.543,42.5106L107.806,42.5375M107.806,42.5375L107.929,42.5755M107.929,42.5755L108.041,42.639M108.041,42.639L108.137,42.7249M108.137,42.7249L108.251,42.8805M108.251,42.8805L108.33,43.0554M108.33,43.0554L108.374,43.2431M108.374,43.2431L108.396,43.56M108.396,43.56L108.396,46.26M108.396,46.26L109.62,46.26M109.62,46.26L109.62,43.2649M109.62,43.2649L109.643,43.0705M109.643,43.0705L109.712,42.8871M109.712,42.8871L109.822,42.7249M109.822,42.7249L109.925,42.6291M109.925,42.6291L110.048,42.5588M110.048,42.5588L110.184,42.5182M110.184,42.5182L110.326,42.5089M110.326,42.5089L110.57,42.5231M110.57,42.5231L110.701,42.5478M110.701,42.5478L110.824,42.6013M110.824,42.6013L110.93,42.6815M110.93,42.6815L111.168,42.9551M111.168,42.9551L111.252,43.1155M111.252,43.1155L111.292,43.2924M111.292,43.2924L111.283,43.4735M111.283,43.4735L111.283,46.2529M111.283,46.2529L112.507,46.2529M112.507,46.224L111.283,46.224M109.62,46.224L108.396,46.224M106.718,46.224L105.516,46.224M112.507,46.152L111.283,46.152M109.62,46.152L108.396,46.152M106.718,46.152L105.516,46.152M112.507,46.08L111.283,46.08M109.62,46.08L108.396,46.08M106.718,46.08L105.516,46.08M112.507,46.008L111.283,46.008M109.62,46.008L108.396,46.008M106.718,46.008L105.516,46.008M112.507,45.936L111.283,45.936M109.62,45.936L108.396,45.936M106.718,45.936L105.516,45.936M112.507,45.864L111.283,45.864M109.62,45.864L108.396,45.864M106.718,45.864L105.516,45.864M112.507,45.792L111.283,45.792M109.62,45.792L108.396,45.792M106.718,45.792L105.516,45.792M112.507,45.72L111.283,45.72M109.62,45.72L108.396,45.72M106.718,45.72L105.516,45.72M112.507,45.648L111.283,45.648M109.62,45.648L108.396,45.648M106.718,45.648L105.516,45.648M112.507,45.576L111.283,45.576M109.62,45.576L108.396,45.576M106.718,45.576L105.516,45.576M112.507,45.504L111.283,45.504M109.62,45.504L108.396,45.504M106.718,45.504L105.516,45.504M112.507,45.432L111.283,45.432M109.62,45.432L108.396,45.432M106.718,45.432L105.516,45.432M112.507,45.36L111.283,45.36M109.62,45.36L108.396,45.36M106.718,45.36L105.516,45.36M112.507,45.288L111.283,45.288M109.62,45.288L108.396,45.288M106.718,45.288L105.516,45.288M112.507,45.216L111.283,45.216M109.62,45.216L108.396,45.216M106.718,45.216L105.516,45.216M112.507,45.144L111.283,45.144M109.62,45.144L108.396,45.144M106.718,45.144L105.516,45.144M112.507,45.072L111.283,45.072M109.62,45.072L108.396,45.072M106.718,45.072L105.516,45.072M112.507,45L111.283,45M109.62,45L108.396,45M106.718,45L105.516,45M112.507,44.928L111.283,44.928M109.62,44.928L108.396,44.928M106.718,44.928L105.516,44.928M112.507,44.856L111.283,44.856M109.62,44.856L108.396,44.856M106.718,44.856L105.516,44.856M112.507,44.784L111.283,44.784M109.62,44.784L108.396,44.784M106.718,44.784L105.516,44.784M112.507,44.712L111.283,44.712M109.62,44.712L108.396,44.712M106.718,44.712L105.516,44.712M112.507,44.64L111.283,44.64M109.62,44.64L108.396,44.64M106.718,44.64L105.516,44.64M112.507,44.568L111.283,44.568M109.62,44.568L108.396,44.568M106.718,44.568L105.516,44.568M112.507,44.496L111.283,44.496M109.62,44.496L108.396,44.496M106.718,44.496L105.516,44.496M112.507,44.424L111.283,44.424M109.62,44.424L108.396,44.424M106.718,44.424L105.516,44.424M112.507,44.352L111.283,44.352M109.62,44.352L108.396,44.352M106.718,44.352L105.516,44.352M112.507,44.28L111.283,44.28M109.62,44.28L108.396,44.28M106.718,44.28L105.516,44.28M112.507,44.208L111.283,44.208M109.62,44.208L108.396,44.208M106.718,44.208L105.516,44.208M112.507,44.136L111.283,44.136M109.62,44.136L108.396,44.136M106.718,44.136L105.516,44.136M112.507,44.064L111.283,44.064M109.62,44.064L108.396,44.064M106.718,44.064L105.516,44.064M112.507,43.992L111.283,43.992M109.62,43.992L108.396,43.992M106.718,43.992L105.516,43.992M112.507,43.92L111.283,43.92M109.62,43.92L108.396,43.92M106.718,43.92L105.516,43.92M112.507,43.848L111.283,43.848M109.62,43.848L108.396,43.848M106.718,43.848L105.516,43.848M112.507,43.776L111.283,43.776M109.62,43.776L108.396,43.776M106.718,43.776L105.516,43.776M112.507,43.704L111.283,43.704M109.62,43.704L108.396,43.704M106.718,43.704L105.516,43.704M112.507,43.632L111.283,43.632M109.62,43.632L108.396,43.632M106.718,43.632L105.516,43.632M112.507,43.56L111.283,43.56M109.62,43.56L108.396,43.56M106.718,43.56L105.516,43.56M112.507,43.488L111.283,43.488M109.62,43.488L108.391,43.488M106.718,43.488L105.516,43.488M112.507,43.416L111.286,43.416M109.62,43.416L108.386,43.416M106.718,43.416L105.516,43.416M112.507,43.344L111.29,43.344M109.62,43.344L108.382,43.344M106.718,43.344L105.516,43.344M112.507,43.272L111.287,43.272M109.62,43.272L108.376,43.272M106.727,43.272L105.516,43.272M112.507,43.2L111.271,43.2M109.628,43.2L108.364,43.2M106.736,43.2L105.516,43.2M112.507,43.128L111.255,43.128M109.636,43.128L108.347,43.128M106.744,43.128L105.516,43.128M112.507,43.056L111.221,43.056M109.649,43.056L108.33,43.056M106.762,43.056L105.516,43.056M112.507,42.984L111.183,42.984M109.675,42.984L108.297,42.984M106.789,42.984L105.516,42.984M112.507,42.912L111.131,42.912M109.703,42.912L108.264,42.912M106.816,42.912L105.526,42.912M112.507,42.84L111.068,42.84M109.744,42.84L108.22,42.84M106.846,42.84L105.538,42.84M112.507,42.768L111.005,42.768M109.792,42.768L108.168,42.768M106.895,42.768L105.548,42.768M112.507,42.696L110.943,42.696M109.853,42.696L108.104,42.696M106.959,42.696L105.559,42.696M112.507,42.624L110.854,42.624M109.935,42.624L108.014,42.624M107.047,42.624L105.579,42.624M112.507,42.552L110.712,42.552M110.071,42.552L107.852,42.552M107.204,42.552L105.607,42.552M112.507,42.48L105.633,42.48M112.507,42.408L105.66,42.408M112.507,42.336L108.595,42.336M108.571,42.336L105.696,42.336M112.507,42.264L111.377,42.264M111.274,42.264L108.636,42.264M108.499,42.264L105.741,42.264M112.507,42.192L111.377,42.192M111.218,42.192L108.678,42.192M108.431,42.192L105.786,42.192M112.507,42.12L111.377,42.12M111.149,42.12L108.721,42.12M108.359,42.12L105.831,42.12M112.507,42.048L111.377,42.048M111.079,42.048L108.784,42.048M108.284,42.048L105.896,42.048M112.507,41.976L111.377,41.976M111.01,41.976L108.847,41.976M108.209,41.976L105.966,41.976M112.507,41.904L111.377,41.904M110.922,41.904L108.922,41.904M108.116,41.904L106.043,41.904M112.507,41.832L111.377,41.832M110.832,41.832L109.014,41.832M108.015,41.832L106.153,41.832M112.507,41.76L111.377,41.76M110.709,41.76L109.12,41.76M107.906,41.76L106.278,41.76M110.55,41.688L109.261,41.688M107.758,41.688L106.469,41.688M110.256,41.616L109.482,41.616M107.531,41.616L106.818,41.616"/>
    </g>
   </g>
  </g>
  <g  stroke-width="0">
   <title >element:JP9</title>
   <g  stroke-width="0">
    <title >package:1X18</title>
   </g>
  </g>
  <g  stroke-width="0">
   <title >element:JP14</title>
   <g  stroke-width="0">
    <title >package:1X11</title>
   </g>
  </g>
  <g  stroke-width="0">
   <title >element:JP15</title>
   <g  stroke-width="0">
    <title >package:1X01</title>
   </g>
  </g>
  <g  stroke-width="0">
   <title >element:JP17</title>
   <g  stroke-width="0">
    <title >package:1X03</title>
   </g>
  </g>
  <g  stroke-width="0">
   <title >element:JP19</title>
   <g  stroke-width="0">
    <title >package:JST-2-SMD</title>
    <line  stroke="white" stroke-linecap="round" y1="54.5386" x1="180.765" y2="54.5386" stroke-width="0.576" x2="170.844"/>
    <line  stroke="white" stroke-linecap="round" y1="54.5386" x1="170.844" y2="52.2708" stroke-width="0.576" x2="170.844"/>
    <line  stroke="white" stroke-linecap="round" y1="52.2708" x1="170.844" y2="52.2708" stroke-width="0.576" x2="177.931"/>
    <line  stroke="white" stroke-linecap="round" y1="52.2708" x1="177.931" y2="48.8693" stroke-width="0.576" x2="177.931"/>
    <line  stroke="white" stroke-linecap="round" y1="37.5307" x1="177.931" y2="34.1292" stroke-width="0.576" x2="177.931"/>
    <line  stroke="white" stroke-linecap="round" y1="34.1292" x1="177.931" y2="34.1292" stroke-width="0.576" x2="170.844"/>
    <line  stroke="white" stroke-linecap="round" y1="34.1292" x1="170.844" y2="31.8614" stroke-width="0.576" x2="170.844"/>
    <line  stroke="white" stroke-linecap="round" y1="31.8614" x1="170.844" y2="31.8614" stroke-width="0.576" x2="180.765"/>
    <line  stroke="white" stroke-linecap="round" y1="37.5307" x1="192.104" y2="48.8693" stroke-width="0.576" x2="192.104"/>
   </g>
  </g>
  <g  stroke-width="0">
   <title >element:L1</title>
   <g  stroke-width="0">
    <title >package:SRU5028</title>
   </g>
  </g>
  <g  stroke-width="0">
   <title >element:U$6</title>
   <g  stroke-width="0">
    <title >package:SPARKFUN_ANDROID-IOIO-LARGE</title>
   </g>
  </g>
  <g  stroke-width="0">
   <title >element:U1</title>
   <g  stroke-width="0">
    <title >package:PIC24FXXX_TQFP64</title>
   </g>
  </g>
  <g  stroke-width="0">
   <title >element:X1</title>
   <g  stroke-width="0">
    <title >package:USB-A-S-NOSILK-FEMALE</title>
   </g>
  </g>
  <line  fill="none" stroke="white" fill-opacity="1" y1="61.812" x1="194.4" y2="61.812" stroke-width="0.576" x2="216.072"/>
  <line  fill="none" stroke="white" fill-opacity="1" y1="24.588" x1="194.4" y2="24.588" stroke-width="0.576" x2="216.072"/>
  <line  fill="none" stroke="white" fill-opacity="1" y1="61.812" x1="216.072" y2="24.588" stroke-width="0.576" x2="216.072"/>
 </g>
 <g  id="copper1" stroke-width="0">
  <g  id="copper0" stroke-width="0">
   <circle  fill="none" cx="158.4" cy="3.6" connectorname="PIN1" stroke="#F7BD13" r="2.052" id="connector24pad" stroke-width="1.224"/>
   <circle  fill="none" cx="151.2" cy="3.6" connectorname="PIN2" stroke="#F7BD13" r="2.052" id="connector25pad" stroke-width="1.224"/>
   <circle  fill="none" cx="144" cy="3.6" connectorname="PIN3" stroke="#F7BD13" r="2.052" id="connector26pad" stroke-width="1.224"/>
   <circle  fill="none" cx="136.8" cy="3.6" connectorname="PIN4" stroke="#F7BD13" r="2.052" id="connector27pad" stroke-width="1.224"/>
   <circle  fill="none" cx="129.6" cy="3.6" connectorname="PIN5" stroke="#F7BD13" r="2.052" id="connector28pad" stroke-width="1.224"/>
   <circle  fill="none" cx="122.4" cy="3.6" connectorname="PIN6" stroke="#F7BD13" r="2.052" id="connector29pad" stroke-width="1.224"/>
   <circle  fill="none" cx="115.2" cy="3.6" connectorname="PIN7" stroke="#F7BD13" r="2.052" id="connector30pad" stroke-width="1.224"/>
   <circle  fill="none" cx="108" cy="3.6" connectorname="PIN8" stroke="#F7BD13" r="2.052" id="connector31pad" stroke-width="1.224"/>
   <circle  fill="none" cx="100.8" cy="3.6" connectorname="PIN9" stroke="#F7BD13" r="2.052" id="connector32pad" stroke-width="1.224"/>
   <circle  fill="none" cx="93.6" cy="3.6" connectorname="PIN10" stroke="#F7BD13" r="2.052" id="connector33pad" stroke-width="1.224"/>
   <circle  fill="none" cx="86.4" cy="3.6" connectorname="PIN11" stroke="#F7BD13" r="2.052" id="connector34pad" stroke-width="1.224"/>
   <circle  fill="none" cx="79.2" cy="3.6" connectorname="PIN12" stroke="#F7BD13" r="2.052" id="connector35pad" stroke-width="1.224"/>
   <circle  fill="none" cx="72" cy="3.6" connectorname="PIN13" stroke="#F7BD13" r="2.052" id="connector36pad" stroke-width="1.224"/>
   <circle  fill="none" cx="64.8" cy="3.6" connectorname="PIN14" stroke="#F7BD13" r="2.052" id="connector37pad" stroke-width="1.224"/>
   <circle  fill="none" cx="57.6" cy="3.6" connectorname="PIN15" stroke="#F7BD13" r="2.052" id="connector38pad" stroke-width="1.224"/>
   <circle  fill="none" cx="50.4" cy="3.6" connectorname="PIN16" stroke="#F7BD13" r="2.052" id="connector39pad" stroke-width="1.224"/>
   <circle  fill="none" cx="43.2" cy="3.6" connectorname="PIN17" stroke="#F7BD13" r="2.052" id="connector40pad" stroke-width="1.224"/>
   <circle  fill="none" cx="36" cy="3.6" connectorname="PIN18" stroke="#F7BD13" r="2.052" id="connector41pad" stroke-width="1.224"/>
   <circle  fill="none" cx="28.8" cy="3.6" connectorname="PIN19" stroke="#F7BD13" r="2.052" id="connector42pad" stroke-width="1.224"/>
   <circle  fill="none" cx="165.6" cy="3.6" connectorname="3.3V" stroke="#F7BD13" r="2.052" id="connector43pad" stroke-width="1.224"/>
   <circle  fill="none" cx="165.6" cy="10.8" connectorname="3.3V" stroke="#F7BD13" r="2.052" id="connector44pad" stroke-width="1.224"/>
   <circle  fill="none" cx="165.6" cy="18" connectorname="3.3V" stroke="#F7BD13" r="2.052" id="connector45pad" stroke-width="1.224"/>
   <circle  fill="none" cx="172.8" cy="18" connectorname="VCC" stroke="#F7BD13" r="2.052" id="connector46pad" stroke-width="1.224"/>
   <circle  fill="none" cx="172.8" cy="10.8" connectorname="VCC" stroke="#F7BD13" r="2.052" id="connector47pad" stroke-width="1.224"/>
   <circle  fill="none" cx="172.8" cy="3.6" connectorname="VCC" stroke="#F7BD13" r="2.052" id="connector48pad" stroke-width="1.224"/>
   <circle  fill="none" cx="172.8" cy="68.4" connectorname="5V" stroke="#F7BD13" r="2.052" id="connector49pad" stroke-width="1.224"/>
   <circle  fill="none" cx="172.8" cy="75.6" connectorname="5V" stroke="#F7BD13" r="2.052" id="connector50pad" stroke-width="1.224"/>
   <circle  fill="none" cx="172.8" cy="82.8" connectorname="5V" stroke="#F7BD13" r="2.052" id="connector51pad" stroke-width="1.224"/>
   <circle  fill="none" cx="158.4" cy="68.4" connectorname="GND" stroke="#F7BD13" r="2.052" id="connector52pad" stroke-width="1.224"/>
   <circle  fill="none" cx="158.4" cy="75.6" connectorname="GND" stroke="#F7BD13" r="2.052" id="connector53pad" stroke-width="1.224"/>
   <circle  fill="none" cx="158.4" cy="82.8" connectorname="GND" stroke="#F7BD13" r="2.052" id="connector54pad" stroke-width="1.224"/>
   <circle  fill="none" cx="165.6" cy="68.4" connectorname="GND" stroke="#F7BD13" r="2.052" id="connector55pad" stroke-width="1.224"/>
   <circle  fill="none" cx="165.6" cy="75.6" connectorname="GND" stroke="#F7BD13" r="2.052" id="connector56pad" stroke-width="1.224"/>
   <circle  fill="none" cx="165.6" cy="82.8" connectorname="GND" stroke="#F7BD13" r="2.052" id="connector57pad" stroke-width="1.224"/>
   <circle  fill="none" cx="144" cy="82.8" connectorname="PIN48" stroke="#F7BD13" r="2.052" id="connector59pad" stroke-width="1.224"/>
   <circle  fill="none" cx="136.8" cy="82.8" connectorname="PIN47" stroke="#F7BD13" r="2.052" id="connector60pad" stroke-width="1.224"/>
   <circle  fill="none" cx="129.6" cy="82.8" connectorname="PIN46" stroke="#F7BD13" r="2.052" id="connector61pad" stroke-width="1.224"/>
   <circle  fill="none" cx="122.4" cy="82.8" connectorname="PIN45" stroke="#F7BD13" r="2.052" id="connector62pad" stroke-width="1.224"/>
   <circle  fill="none" cx="115.2" cy="82.8" connectorname="PIN44" stroke="#F7BD13" r="2.052" id="connector63pad" stroke-width="1.224"/>
   <circle  fill="none" cx="108" cy="82.8" connectorname="PIN43" stroke="#F7BD13" r="2.052" id="connector64pad" stroke-width="1.224"/>
   <circle  fill="none" cx="100.8" cy="82.8" connectorname="PIN42" stroke="#F7BD13" r="2.052" id="connector65pad" stroke-width="1.224"/>
   <circle  fill="none" cx="93.6" cy="82.8" connectorname="PIN41" stroke="#F7BD13" r="2.052" id="connector66pad" stroke-width="1.224"/>
   <circle  fill="none" cx="86.4" cy="82.8" connectorname="PIN40" stroke="#F7BD13" r="2.052" id="connector67pad" stroke-width="1.224"/>
   <circle  fill="none" cx="79.2" cy="82.8" connectorname="PIN39" stroke="#F7BD13" r="2.052" id="connector68pad" stroke-width="1.224"/>
   <circle  fill="none" cx="72" cy="82.8" connectorname="PIN38" stroke="#F7BD13" r="2.052" id="connector69pad" stroke-width="1.224"/>
   <circle  fill="none" cx="64.8" cy="82.8" connectorname="PIN37" stroke="#F7BD13" r="2.052" id="connector70pad" stroke-width="1.224"/>
   <circle  fill="none" cx="57.6" cy="82.8" connectorname="PIN36" stroke="#F7BD13" r="2.052" id="connector71pad" stroke-width="1.224"/>
   <circle  fill="none" cx="50.4" cy="82.8" connectorname="PIN35" stroke="#F7BD13" r="2.052" id="connector72pad" stroke-width="1.224"/>
   <circle  fill="none" cx="43.2" cy="82.8" connectorname="PIN34" stroke="#F7BD13" r="2.052" id="connector73pad" stroke-width="1.224"/>
   <circle  fill="none" cx="36" cy="82.8" connectorname="PIN33" stroke="#F7BD13" r="2.052" id="connector74pad" stroke-width="1.224"/>
   <circle  fill="none" cx="28.8" cy="82.8" connectorname="PIN32" stroke="#F7BD13" r="2.052" id="connector75pad" stroke-width="1.224"/>
   <circle  fill="none" cx="21.6" cy="82.8" connectorname="PIN31" stroke="#F7BD13" r="2.052" id="connector76pad" stroke-width="1.224"/>
   <circle  fill="none" cx="21.6" cy="75.6" connectorname="PIN30" stroke="#F7BD13" r="2.052" id="connector77pad" stroke-width="1.224"/>
   <circle  fill="none" cx="21.6" cy="68.4" connectorname="PIN29" stroke="#F7BD13" r="2.052" id="connector78pad" stroke-width="1.224"/>
   <circle  fill="none" cx="21.6" cy="61.2" connectorname="PIN28" stroke="#F7BD13" r="2.052" id="connector79pad" stroke-width="1.224"/>
   <circle  fill="none" cx="21.6" cy="54" connectorname="PIN27" stroke="#F7BD13" r="2.052" id="connector80pad" stroke-width="1.224"/>
   <circle  fill="none" cx="21.6" cy="46.8" connectorname="PIN26" stroke="#F7BD13" r="2.052" id="connector81pad" stroke-width="1.224"/>
   <circle  fill="none" cx="21.6" cy="39.6" connectorname="PIN25" stroke="#F7BD13" r="2.052" id="connector82pad" stroke-width="1.224"/>
   <circle  fill="none" cx="21.6" cy="32.4" connectorname="PIN24" stroke="#F7BD13" r="2.052" id="connector83pad" stroke-width="1.224"/>
   <circle  fill="none" cx="21.6" cy="25.2" connectorname="PIN23" stroke="#F7BD13" r="2.052" id="connector84pad" stroke-width="1.224"/>
   <circle  fill="none" cx="21.6" cy="18" connectorname="PIN22" stroke="#F7BD13" r="2.052" id="connector85pad" stroke-width="1.224"/>
   <circle  fill="none" cx="21.6" cy="10.8" connectorname="PIN21" stroke="#F7BD13" r="2.052" id="connector86pad" stroke-width="1.224"/>
   <circle  fill="none" cx="21.6" cy="3.6" connectorname="PIN20" stroke="#F7BD13" r="2.052" id="connector87pad" stroke-width="1.224"/>
   <circle  fill="none" cx="36" cy="68.4" connectorname="P7" stroke="#F7BD13" r="2.052" id="connector88pad" stroke-width="1.224"/>
   <circle  fill="none" cx="151.2" cy="82.8" connectorname="GND" stroke="#F7BD13" r="2.052" id="connector89pad" stroke-width="1.224"/>
   <circle  fill="none" cx="151.2" cy="75.6" connectorname="GND" stroke="#F7BD13" r="2.052" id="connector90pad" stroke-width="1.224"/>
   <circle  fill="none" cx="151.2" cy="68.4" connectorname="GND" stroke="#F7BD13" r="2.052" id="connector91pad" stroke-width="1.224"/>
  </g>
 </g>
</svg>
