<?xml version='1.0' encoding='UTF-8' standalone='no'?>
<!-- Created with Fritzing (http://www.fritzing.org/) -->
<svg xmlns="http://www.w3.org/2000/svg" width="1in" x="0in" version="1.2" y="0in" height="1.3in" viewBox="0 0 72 93.6" baseProfile="tiny">
 <desc >Fritzing footprint generated by brd2svg</desc>
 <g  id="silkscreen" stroke-width="0">
  <path  fill="none" stroke="white" stroke-width="0.576" d="M0.288,93.312L0.288,0.288L71.712,0.288L71.712,93.312L0.288,93.312M27.2313,82.8a0.916726,0.916726,0,1,0,1.83345,0,0.916726,0.916726,0,1,0,-1.83345,0zM35.7353,82.8a0.916726,0.916726,0,1,0,1.83345,0,0.916726,0.916726,0,1,0,-1.83345,0z"/>
  <g  stroke-width="0">
   <title >element:JP1</title>
   <g  stroke-width="0">
    <title >package:SFE-NEW-WEBLOGO</title>
   </g>
  </g>
  <g  stroke-width="0">
   <title >element:JP7</title>
   <g  stroke-width="0">
    <title >package:1X08</title>
    <line  stroke="white" stroke-linecap="round" y1="12.6" x1="0" y2="9" stroke-width="0.576" x2="0"/>
    <line  stroke="white" stroke-linecap="round" y1="9" x1="0" y2="7.2" stroke-width="0.576" x2="1.8"/>
    <line  stroke="white" stroke-linecap="round" y1="7.2" x1="5.4" y2="9" stroke-width="0.576" x2="7.2"/>
    <line  stroke="white" stroke-linecap="round" y1="21.6" x1="1.8" y2="19.8" stroke-width="0.576" x2="0"/>
    <line  stroke="white" stroke-linecap="round" y1="19.8" x1="0" y2="16.2" stroke-width="0.576" x2="0"/>
    <line  stroke="white" stroke-linecap="round" y1="16.2" x1="0" y2="14.4" stroke-width="0.576" x2="1.8"/>
    <line  stroke="white" stroke-linecap="round" y1="14.4" x1="5.4" y2="16.2" stroke-width="0.576" x2="7.2"/>
    <line  stroke="white" stroke-linecap="round" y1="16.2" x1="7.2" y2="19.8" stroke-width="0.576" x2="7.2"/>
    <line  stroke="white" stroke-linecap="round" y1="19.8" x1="7.2" y2="21.6" stroke-width="0.576" x2="5.4"/>
    <line  stroke="white" stroke-linecap="round" y1="12.6" x1="0" y2="14.4" stroke-width="0.576" x2="1.8"/>
    <line  stroke="white" stroke-linecap="round" y1="14.4" x1="5.4" y2="12.6" stroke-width="0.576" x2="7.2"/>
    <line  stroke="white" stroke-linecap="round" y1="9" x1="7.2" y2="12.6" stroke-width="0.576" x2="7.2"/>
    <line  stroke="white" stroke-linecap="round" y1="34.2" x1="0" y2="30.6" stroke-width="0.576" x2="0"/>
    <line  stroke="white" stroke-linecap="round" y1="30.6" x1="0" y2="28.8" stroke-width="0.576" x2="1.8"/>
    <line  stroke="white" stroke-linecap="round" y1="28.8" x1="5.4" y2="30.6" stroke-width="0.576" x2="7.2"/>
    <line  stroke="white" stroke-linecap="round" y1="28.8" x1="1.8" y2="27" stroke-width="0.576" x2="0"/>
    <line  stroke="white" stroke-linecap="round" y1="27" x1="0" y2="23.4" stroke-width="0.576" x2="0"/>
    <line  stroke="white" stroke-linecap="round" y1="23.4" x1="0" y2="21.6" stroke-width="0.576" x2="1.8"/>
    <line  stroke="white" stroke-linecap="round" y1="21.6" x1="5.4" y2="23.4" stroke-width="0.576" x2="7.2"/>
    <line  stroke="white" stroke-linecap="round" y1="23.4" x1="7.2" y2="27" stroke-width="0.576" x2="7.2"/>
    <line  stroke="white" stroke-linecap="round" y1="27" x1="7.2" y2="28.8" stroke-width="0.576" x2="5.4"/>
    <line  stroke="white" stroke-linecap="round" y1="43.2" x1="1.8" y2="41.4" stroke-width="0.576" x2="0"/>
    <line  stroke="white" stroke-linecap="round" y1="41.4" x1="0" y2="37.8" stroke-width="0.576" x2="0"/>
    <line  stroke="white" stroke-linecap="round" y1="37.8" x1="0" y2="36" stroke-width="0.576" x2="1.8"/>
    <line  stroke="white" stroke-linecap="round" y1="36" x1="5.4" y2="37.8" stroke-width="0.576" x2="7.2"/>
    <line  stroke="white" stroke-linecap="round" y1="37.8" x1="7.2" y2="41.4" stroke-width="0.576" x2="7.2"/>
    <line  stroke="white" stroke-linecap="round" y1="41.4" x1="7.2" y2="43.2" stroke-width="0.576" x2="5.4"/>
    <line  stroke="white" stroke-linecap="round" y1="34.2" x1="0" y2="36" stroke-width="0.576" x2="1.8"/>
    <line  stroke="white" stroke-linecap="round" y1="36" x1="5.4" y2="34.2" stroke-width="0.576" x2="7.2"/>
    <line  stroke="white" stroke-linecap="round" y1="30.6" x1="7.2" y2="34.2" stroke-width="0.576" x2="7.2"/>
    <line  stroke="white" stroke-linecap="round" y1="55.8" x1="0" y2="52.2" stroke-width="0.576" x2="0"/>
    <line  stroke="white" stroke-linecap="round" y1="52.2" x1="0" y2="50.4" stroke-width="0.576" x2="1.8"/>
    <line  stroke="white" stroke-linecap="round" y1="50.4" x1="5.4" y2="52.2" stroke-width="0.576" x2="7.2"/>
    <line  stroke="white" stroke-linecap="round" y1="50.4" x1="1.8" y2="48.6" stroke-width="0.576" x2="0"/>
    <line  stroke="white" stroke-linecap="round" y1="48.6" x1="0" y2="45" stroke-width="0.576" x2="0"/>
    <line  stroke="white" stroke-linecap="round" y1="45" x1="0" y2="43.2" stroke-width="0.576" x2="1.8"/>
    <line  stroke="white" stroke-linecap="round" y1="43.2" x1="5.4" y2="45" stroke-width="0.576" x2="7.2"/>
    <line  stroke="white" stroke-linecap="round" y1="45" x1="7.2" y2="48.6" stroke-width="0.576" x2="7.2"/>
    <line  stroke="white" stroke-linecap="round" y1="48.6" x1="7.2" y2="50.4" stroke-width="0.576" x2="5.4"/>
    <line  stroke="white" stroke-linecap="round" y1="57.6" x1="1.8" y2="57.6" stroke-width="0.576" x2="5.4"/>
    <line  stroke="white" stroke-linecap="round" y1="55.8" x1="0" y2="57.6" stroke-width="0.576" x2="1.8"/>
    <line  stroke="white" stroke-linecap="round" y1="57.6" x1="5.4" y2="55.8" stroke-width="0.576" x2="7.2"/>
    <line  stroke="white" stroke-linecap="round" y1="52.2" x1="7.2" y2="55.8" stroke-width="0.576" x2="7.2"/>
    <line  stroke="white" stroke-linecap="round" y1="5.4" x1="0" y2="1.8" stroke-width="0.576" x2="0"/>
    <line  stroke="white" stroke-linecap="round" y1="1.8" x1="0" y2="0" stroke-width="0.576" x2="1.8"/>
    <line  stroke="white" stroke-linecap="round" y1="0" x1="1.8" y2="0" stroke-width="0.576" x2="5.4"/>
    <line  stroke="white" stroke-linecap="round" y1="0" x1="5.4" y2="1.8" stroke-width="0.576" x2="7.2"/>
    <line  stroke="white" stroke-linecap="round" y1="5.4" x1="0" y2="7.2" stroke-width="0.576" x2="1.8"/>
    <line  stroke="white" stroke-linecap="round" y1="7.2" x1="5.4" y2="5.4" stroke-width="0.576" x2="7.2"/>
    <line  stroke="white" stroke-linecap="round" y1="1.8" x1="7.2" y2="5.4" stroke-width="0.576" x2="7.2"/>
   </g>
  </g>
  <g  stroke-width="0">
   <title >element:JP9</title>
   <g  stroke-width="0">
    <title >package:1X06</title>
    <line  stroke="white" stroke-linecap="round" y1="57.6" x1="66.6" y2="55.8" stroke-width="0.576" x2="64.8"/>
    <line  stroke="white" stroke-linecap="round" y1="55.8" x1="64.8" y2="52.2" stroke-width="0.576" x2="64.8"/>
    <line  stroke="white" stroke-linecap="round" y1="52.2" x1="64.8" y2="50.4" stroke-width="0.576" x2="66.6"/>
    <line  stroke="white" stroke-linecap="round" y1="50.4" x1="70.2" y2="52.2" stroke-width="0.576" x2="72"/>
    <line  stroke="white" stroke-linecap="round" y1="52.2" x1="72" y2="55.8" stroke-width="0.576" x2="72"/>
    <line  stroke="white" stroke-linecap="round" y1="55.8" x1="72" y2="57.6" stroke-width="0.576" x2="70.2"/>
    <line  stroke="white" stroke-linecap="round" y1="70.2" x1="64.8" y2="66.6" stroke-width="0.576" x2="64.8"/>
    <line  stroke="white" stroke-linecap="round" y1="66.6" x1="64.8" y2="64.8" stroke-width="0.576" x2="66.6"/>
    <line  stroke="white" stroke-linecap="round" y1="64.8" x1="70.2" y2="66.6" stroke-width="0.576" x2="72"/>
    <line  stroke="white" stroke-linecap="round" y1="64.8" x1="66.6" y2="63" stroke-width="0.576" x2="64.8"/>
    <line  stroke="white" stroke-linecap="round" y1="63" x1="64.8" y2="59.4" stroke-width="0.576" x2="64.8"/>
    <line  stroke="white" stroke-linecap="round" y1="59.4" x1="64.8" y2="57.6" stroke-width="0.576" x2="66.6"/>
    <line  stroke="white" stroke-linecap="round" y1="57.6" x1="70.2" y2="59.4" stroke-width="0.576" x2="72"/>
    <line  stroke="white" stroke-linecap="round" y1="59.4" x1="72" y2="63" stroke-width="0.576" x2="72"/>
    <line  stroke="white" stroke-linecap="round" y1="63" x1="72" y2="64.8" stroke-width="0.576" x2="70.2"/>
    <line  stroke="white" stroke-linecap="round" y1="79.2" x1="66.6" y2="77.4" stroke-width="0.576" x2="64.8"/>
    <line  stroke="white" stroke-linecap="round" y1="77.4" x1="64.8" y2="73.8" stroke-width="0.576" x2="64.8"/>
    <line  stroke="white" stroke-linecap="round" y1="73.8" x1="64.8" y2="72" stroke-width="0.576" x2="66.6"/>
    <line  stroke="white" stroke-linecap="round" y1="72" x1="70.2" y2="73.8" stroke-width="0.576" x2="72"/>
    <line  stroke="white" stroke-linecap="round" y1="73.8" x1="72" y2="77.4" stroke-width="0.576" x2="72"/>
    <line  stroke="white" stroke-linecap="round" y1="77.4" x1="72" y2="79.2" stroke-width="0.576" x2="70.2"/>
    <line  stroke="white" stroke-linecap="round" y1="70.2" x1="64.8" y2="72" stroke-width="0.576" x2="66.6"/>
    <line  stroke="white" stroke-linecap="round" y1="72" x1="70.2" y2="70.2" stroke-width="0.576" x2="72"/>
    <line  stroke="white" stroke-linecap="round" y1="66.6" x1="72" y2="70.2" stroke-width="0.576" x2="72"/>
    <line  stroke="white" stroke-linecap="round" y1="91.8" x1="64.8" y2="88.2" stroke-width="0.576" x2="64.8"/>
    <line  stroke="white" stroke-linecap="round" y1="88.2" x1="64.8" y2="86.4" stroke-width="0.576" x2="66.6"/>
    <line  stroke="white" stroke-linecap="round" y1="86.4" x1="70.2" y2="88.2" stroke-width="0.576" x2="72"/>
    <line  stroke="white" stroke-linecap="round" y1="86.4" x1="66.6" y2="84.6" stroke-width="0.576" x2="64.8"/>
    <line  stroke="white" stroke-linecap="round" y1="84.6" x1="64.8" y2="81" stroke-width="0.576" x2="64.8"/>
    <line  stroke="white" stroke-linecap="round" y1="81" x1="64.8" y2="79.2" stroke-width="0.576" x2="66.6"/>
    <line  stroke="white" stroke-linecap="round" y1="79.2" x1="70.2" y2="81" stroke-width="0.576" x2="72"/>
    <line  stroke="white" stroke-linecap="round" y1="81" x1="72" y2="84.6" stroke-width="0.576" x2="72"/>
    <line  stroke="white" stroke-linecap="round" y1="84.6" x1="72" y2="86.4" stroke-width="0.576" x2="70.2"/>
    <line  stroke="white" stroke-linecap="round" y1="93.6" x1="66.6" y2="93.6" stroke-width="0.576" x2="70.2"/>
    <line  stroke="white" stroke-linecap="round" y1="91.8" x1="64.8" y2="93.6" stroke-width="0.576" x2="66.6"/>
    <line  stroke="white" stroke-linecap="round" y1="93.6" x1="70.2" y2="91.8" stroke-width="0.576" x2="72"/>
    <line  stroke="white" stroke-linecap="round" y1="88.2" x1="72" y2="91.8" stroke-width="0.576" x2="72"/>
    <line  stroke="white" stroke-linecap="round" y1="50.4" x1="66.6" y2="50.4" stroke-width="0.576" x2="70.2"/>
   </g>
  </g>
  <g  stroke-width="0">
   <title >element:S1</title>
   <g  stroke-width="0">
    <title >package:AYZ0202</title>
    <line  stroke="white" stroke-linecap="round" y1="87.7608" x1="42.6047" y2="77.8392" stroke-width="0.576" x2="42.6047"/>
    <line  stroke="white" stroke-linecap="round" y1="77.8392" x1="42.6047" y2="77.8392" stroke-width="0.576" x2="22.1953"/>
    <line  stroke="white" stroke-linecap="round" y1="77.8392" x1="22.1953" y2="87.7608" stroke-width="0.576" x2="22.1953"/>
    <line  stroke="white" stroke-linecap="round" y1="87.7608" x1="22.1953" y2="87.7608" stroke-width="0.576" x2="42.6047"/>
   </g>
  </g>
  <g  stroke-width="0">
   <title >element:U1</title>
   <g  stroke-width="0">
    <title >package:SO-28W</title>
    <line  stroke="white" stroke-linecap="round" y1="10.8" x1="23.04" y2="61.2" stroke-width="0.576" x2="23.04"/>
    <line  stroke="white" stroke-linecap="round" y1="61.2" x1="23.04" y2="61.2" stroke-width="0.576" x2="41.76"/>
    <line  stroke="white" stroke-linecap="round" y1="61.2" x1="41.76" y2="10.8" stroke-width="0.576" x2="41.76"/>
    <path  fill="none" stroke="white" stroke-width="0.576" d="M30.24,10.8A2.16,2.16,0,1,0,34.56,10.8"/>
    <line  stroke="white" stroke-linecap="round" y1="10.8" x1="34.56" y2="10.8" stroke-width="0.576" x2="41.76"/>
    <line  stroke="white" stroke-linecap="round" y1="10.8" x1="30.24" y2="10.8" stroke-width="0.576" x2="23.04"/>
   </g>
  </g>
 </g>
 <g  id="copper1" stroke-width="0">
  <g  id="copper0" stroke-width="0">
   <circle  fill="none" cx="3.6" cy="90" connectorname="GND" stroke="#F7BD13" r="2.052" id="connector16pad" stroke-width="1.224"/>
   <circle  fill="none" cx="3.6" cy="82.8" connectorname="5V" stroke="#F7BD13" r="2.052" id="connector17pad" stroke-width="1.224"/>
   <circle  fill="none" cx="3.6" cy="68.4" connectorname="SP+" stroke="#F7BD13" r="2.052" id="connector18pad" stroke-width="1.224"/>
   <circle  fill="none" cx="3.6" cy="61.2" connectorname="SP-" stroke="#F7BD13" r="2.052" id="connector19pad" stroke-width="1.224"/>
   <circle  fill="none" cx="68.4" cy="10.8" connectorname="MIC+" stroke="#F7BD13" r="2.052" id="connector20pad" stroke-width="1.224"/>
   <circle  fill="none" cx="68.4" cy="3.6" connectorname="MIC-" stroke="#F7BD13" r="2.052" id="connector21pad" stroke-width="1.224"/>
   <circle  fill="none" cx="3.6" cy="54" connectorname="S3" stroke="#F7BD13" r="2.052" id="connector22pad" stroke-width="1.224"/>
   <rect  width="4.104" x="1.548" y="51.948" fill="none" height="4.104" stroke="#F7BD13" stroke-width="1.224"/>
   <circle  fill="none" cx="3.6" cy="46.8" connectorname="S2" stroke="#F7BD13" r="2.052" id="connector23pad" stroke-width="1.224"/>
   <circle  fill="none" cx="3.6" cy="39.6" connectorname="S1" stroke="#F7BD13" r="2.052" id="connector24pad" stroke-width="1.224"/>
   <circle  fill="none" cx="3.6" cy="32.4" connectorname="S0" stroke="#F7BD13" r="2.052" id="connector25pad" stroke-width="1.224"/>
   <circle  fill="none" cx="3.6" cy="25.2" connectorname="E3" stroke="#F7BD13" r="2.052" id="connector26pad" stroke-width="1.224"/>
   <circle  fill="none" cx="3.6" cy="18" connectorname="E2" stroke="#F7BD13" r="2.052" id="connector27pad" stroke-width="1.224"/>
   <circle  fill="none" cx="3.6" cy="10.8" connectorname="E1" stroke="#F7BD13" r="2.052" id="connector28pad" stroke-width="1.224"/>
   <circle  fill="none" cx="3.6" cy="3.6" connectorname="E0" stroke="#F7BD13" r="2.052" id="connector29pad" stroke-width="1.224"/>
   <circle  fill="none" cx="68.4" cy="32.4" connectorname="LED" stroke="#F7BD13" r="2.052" id="connector30pad" stroke-width="1.224"/>
   <circle  fill="none" cx="68.4" cy="25.2" connectorname="XCLK" stroke="#F7BD13" r="2.052" id="connector31pad" stroke-width="1.224"/>
   <circle  fill="none" cx="68.4" cy="90" connectorname="FT" stroke="#F7BD13" r="2.052" id="connector32pad" stroke-width="1.224"/>
   <circle  fill="none" cx="68.4" cy="82.8" connectorname="AGC" stroke="#F7BD13" r="2.052" id="connector33pad" stroke-width="1.224"/>
   <circle  fill="none" cx="68.4" cy="75.6" connectorname="ROSC" stroke="#F7BD13" r="2.052" id="connector34pad" stroke-width="1.224"/>
   <circle  fill="none" cx="68.4" cy="68.4" connectorname="REC" stroke="#F7BD13" r="2.052" id="connector35pad" stroke-width="1.224"/>
   <circle  fill="none" cx="68.4" cy="61.2" connectorname="FMC2" stroke="#F7BD13" r="2.052" id="connector36pad" stroke-width="1.224"/>
   <circle  fill="none" cx="68.4" cy="54" connectorname="FMC1" stroke="#F7BD13" r="2.052" id="connector37pad" stroke-width="1.224"/>
  </g>
 </g>
</svg>
