<?xml version='1.0' encoding='UTF-8' standalone='no'?>
<!-- Created with Fritzing (http://www.fritzing.org/) -->
<svg xmlns="http://www.w3.org/2000/svg" width="2.1in" x="0in" version="1.2" y="0in" height="3.35in" viewBox="0 0 151.2 241.2" baseProfile="tiny">
 <desc >Fritzing footprint generated by brd2svg</desc>
 <g  id="silkscreen" stroke-width="0">
  <path  fill="none" stroke="white" stroke-width="0.576" d="M0.288,240.912L0.288,0.288L150.912,0.288L150.912,240.912L0.288,240.912M125.208,79.2a4.392,4.392,0,1,0,8.784,0,4.392,4.392,0,1,0,-8.784,0zM2.808,223.2a4.392,4.392,0,1,0,8.784,0,4.392,4.392,0,1,0,-8.784,0z"/>
  <g  stroke-width="0">
   <title >element:JP1</title>
   <g  stroke-width="0">
    <title >package:SFE-NEW-WEBLOGO</title>
    <line  stroke="white" stroke-linecap="round" y1="25.4231" x1="146.002" y2="25.4231" stroke-width="0.072" x2="141.545"/>
    <line  stroke="white" stroke-linecap="round" y1="25.4231" x1="141.545" y2="24.2785" stroke-width="0.072" x2="141.545"/>
    <line  stroke="white" stroke-linecap="round" y1="24.2785" x1="141.545" y2="24.2785" stroke-width="0.072" x2="142.171"/>
    <line  stroke="white" stroke-linecap="round" y1="24.2785" x1="142.171" y2="24.2569" stroke-width="0.072" x2="142.171"/>
    <path  fill="none" stroke="white" stroke-width="0.072" d="M142.171,24.2569A0.0697323,0.0697323,0,0,0,142.15,24.2065"/>
    <path  fill="none" stroke="white" stroke-width="0.072" d="M142.15,24.2065A0.421795,0.421795,0,0,0,142.106,24.1705"/>
    <path  fill="none" stroke="white" stroke-width="0.072" d="M141.998,24.0911A15.2631,15.2631,0,0,0,142.106,24.1705"/>
    <path  fill="none" stroke="white" stroke-width="0.072" d="M141.746,23.8465A1.3286,1.3286,0,0,0,141.998,24.0911"/>
    <path  fill="none" stroke="white" stroke-width="0.072" d="M141.437,23.0111A1.44708,1.44708,0,0,0,141.746,23.8465"/>
    <path  fill="none" stroke="white" stroke-width="0.072" d="M141.451,22.4425A4.25254,4.25254,0,0,0,141.437,23.0111"/>
    <path  fill="none" stroke="white" stroke-width="0.072" d="M141.804,21.6865A1.23449,1.23449,0,0,0,141.451,22.4425"/>
    <path  fill="none" stroke="white" stroke-width="0.072" d="M142.351,21.3625A1.26113,1.26113,0,0,0,141.804,21.6865"/>
    <path  fill="none" stroke="white" stroke-width="0.072" d="M142.985,21.2689A2.40945,2.40945,0,0,0,142.351,21.3625"/>
    <line  stroke="white" stroke-linecap="round" y1="21.2689" x1="142.985" y2="21.2689" stroke-width="0.072" x2="145.973"/>
    <line  stroke="white" stroke-linecap="round" y1="21.2689" x1="145.973" y2="22.428" stroke-width="0.072" x2="145.973"/>
    <line  stroke="white" stroke-linecap="round" y1="22.428" x1="145.973" y2="22.428" stroke-width="0.072" x2="143.237"/>
    <path  fill="none" stroke="white" stroke-width="0.072" d="M143.237,22.428A1.16164,1.16164,0,0,0,142.639,22.5935"/>
    <path  fill="none" stroke="white" stroke-width="0.072" d="M142.639,22.5935A0.643181,0.643181,0,0,0,142.366,22.9249"/>
    <path  fill="none" stroke="white" stroke-width="0.072" d="M142.366,22.9249A0.481607,0.481607,0,0,0,142.337,23.112"/>
    <path  fill="none" stroke="white" stroke-width="0.072" d="M142.351,23.4289A128.104,128.104,0,0,0,142.337,23.112"/>
    <path  fill="none" stroke="white" stroke-width="0.072" d="M142.351,23.4289A0.743242,0.743242,0,0,0,142.531,23.8825"/>
    <path  fill="none" stroke="white" stroke-width="0.072" d="M142.531,23.8825A0.928627,0.928627,0,0,0,142.898,24.1415"/>
    <path  fill="none" stroke="white" stroke-width="0.072" d="M142.898,24.1415A1.28097,1.28097,0,0,0,143.345,24.228"/>
    <path  fill="none" stroke="white" stroke-width="0.072" d="M143.345,24.228A7.57584,7.57584,0,0,0,143.539,24.228"/>
    <line  stroke="white" stroke-linecap="round" y1="24.228" x1="143.539" y2="24.228" stroke-width="0.072" x2="146.002"/>
    <line  stroke="white" stroke-linecap="round" y1="24.228" x1="146.002" y2="25.4231" stroke-width="0.072" x2="146.002"/>
    <line  stroke="white" stroke-linecap="round" y1="11.7215" x1="141.271" y2="11.7215" stroke-width="0.072" x2="142.186"/>
    <line  stroke="white" stroke-linecap="round" y1="11.7215" x1="142.186" y2="11.7865" stroke-width="0.072" x2="142.186"/>
    <path  fill="none" stroke="white" stroke-width="0.072" d="M142.186,11.7865A0.893477,0.893477,0,0,0,142.531,12.492"/>
    <path  fill="none" stroke="white" stroke-width="0.072" d="M142.531,12.492A1.49273,1.49273,0,0,0,143.338,12.8015"/>
    <path  fill="none" stroke="white" stroke-width="0.072" d="M143.338,12.8015A4.20605,4.20605,0,0,0,144.036,12.7945"/>
    <path  fill="none" stroke="white" stroke-width="0.072" d="M144.036,12.7945A1.71723,1.71723,0,0,0,144.684,12.6"/>
    <path  fill="none" stroke="white" stroke-width="0.072" d="M144.684,12.6A0.928915,0.928915,0,0,0,145.13,12.0671"/>
    <path  fill="none" stroke="white" stroke-width="0.072" d="M145.13,12.0671A1.29997,1.29997,0,0,0,145.073,11.1169"/>
    <path  fill="none" stroke="white" stroke-width="0.072" d="M145.073,11.1169A0.888948,0.888948,0,0,0,144.684,10.7065"/>
    <path  fill="none" stroke="white" stroke-width="0.072" d="M144.684,10.7065A1.90913,1.90913,0,0,0,143.806,10.4831"/>
    <path  fill="none" stroke="white" stroke-width="0.072" d="M143.806,10.4831A2.988,2.988,0,0,0,143.093,10.5625"/>
    <path  fill="none" stroke="white" stroke-width="0.072" d="M143.093,10.5625A1.4298,1.4298,0,0,0,142.43,10.9225"/>
    <path  fill="none" stroke="white" stroke-width="0.072" d="M142.43,10.9225A0.733608,0.733608,0,0,0,142.243,11.2175"/>
    <path  fill="none" stroke="white" stroke-width="0.072" d="M142.243,11.2175A1.37537,1.37537,0,0,0,142.171,11.664"/>
    <line  stroke="white" stroke-linecap="round" y1="11.664" x1="142.171" y2="11.664" stroke-width="0.072" x2="141.271"/>
    <line  stroke="white" stroke-linecap="round" y1="11.664" x1="141.271" y2="11.6209" stroke-width="0.072" x2="141.271"/>
    <path  fill="none" stroke="white" stroke-width="0.072" d="M141.35,10.9871A2.57046,2.57046,0,0,0,141.271,11.6209"/>
    <path  fill="none" stroke="white" stroke-width="0.072" d="M141.826,10.08A2.21414,2.21414,0,0,0,141.35,10.9871"/>
    <path  fill="none" stroke="white" stroke-width="0.072" d="M143.554,9.30247A2.26233,2.26233,0,0,0,141.826,10.08"/>
    <path  fill="none" stroke="white" stroke-width="0.072" d="M144.806,9.54706A3.49739,3.49739,0,0,0,143.554,9.30247"/>
    <path  fill="none" stroke="white" stroke-width="0.072" d="M145.915,10.7209A1.90488,1.90488,0,0,0,144.806,9.54706"/>
    <path  fill="none" stroke="white" stroke-width="0.072" d="M146.074,11.7431A3.13852,3.13852,0,0,0,145.915,10.7209"/>
    <path  fill="none" stroke="white" stroke-width="0.072" d="M145.505,13.3055A2.51122,2.51122,0,0,0,146.074,11.7431"/>
    <path  fill="none" stroke="white" stroke-width="0.072" d="M145.08,13.6729A1.6458,1.6458,0,0,0,145.505,13.3055"/>
    <path  fill="none" stroke="white" stroke-width="0.072" d="M144.238,13.9825A2.38564,2.38564,0,0,0,145.08,13.6729"/>
    <path  fill="none" stroke="white" stroke-width="0.072" d="M143.15,13.9751A3.21761,3.21761,0,0,0,144.238,13.9825"/>
    <path  fill="none" stroke="white" stroke-width="0.072" d="M141.624,12.9169A2.22888,2.22888,0,0,0,143.15,13.9751"/>
    <path  fill="none" stroke="white" stroke-width="0.072" d="M141.271,11.7215A2.54041,2.54041,0,0,0,141.624,12.9169"/>
    <g  stroke-width="0">
     <title >polygon</title>
     <path  fill="none" stroke="white" stroke-linecap="round" stroke-width="0.072" d="M144.576,55.764L144.677,55.7569M144.677,55.7569L144.842,55.728M144.842,55.728L145.202,55.6055M145.202,55.6055L145.372,55.518M145.372,55.518L145.52,55.3989M145.52,55.3989L145.642,55.2529M145.642,55.2529L145.858,54.9145M145.858,54.9145L145.97,54.6715M145.97,54.6715L146.03,54.4105M146.03,54.4105L146.081,53.6831M146.081,53.6831L146.068,53.3072M146.068,53.3072L146.016,52.9345M146.016,52.9345L145.936,52.651M145.936,52.651L145.808,52.386M145.808,52.386L145.636,52.1467M145.636,52.1467L145.426,51.9409M145.426,51.9409L145.266,51.8332M145.266,51.8332L145.089,51.7578M145.089,51.7578L144.9,51.7175M144.9,51.7175L144.605,51.696M144.605,51.696L144.306,51.7226M144.306,51.7226L144.022,51.8185M144.022,51.8185L143.905,51.8899M143.905,51.8899L143.806,51.984M143.806,51.984L143.662,52.1798M143.662,52.1798L143.546,52.3945M143.546,52.3945L143.374,52.8636M143.374,52.8636L143.266,53.352M143.266,53.352L143.15,53.928M143.15,53.928L143.071,54.1471M143.071,54.1471L142.949,54.3455M142.949,54.3455L142.859,54.4326M142.859,54.4326L142.747,54.4895M142.747,54.4895L142.632,54.51M142.632,54.51L142.515,54.4949M142.515,54.4949L142.409,54.4465M142.409,54.4465L142.325,54.3736M142.325,54.3736L142.265,54.2809M142.265,54.2809L142.218,54.1542M142.218,54.1542L142.193,54.0215M142.193,54.0215L142.18,53.7767M142.18,53.7767L142.193,53.532M142.193,53.532L142.222,53.3858M142.222,53.3858L142.278,53.2471M142.278,53.2471L142.358,53.1215M142.358,53.1215L142.438,53.0382M142.438,53.0382L142.533,52.9727M142.533,52.9727L142.639,52.9271M142.639,52.9271L142.714,52.9104M142.714,52.9104L142.79,52.9055M142.79,52.9055L142.79,51.804M142.79,51.804L142.589,51.8255M142.589,51.8255L142.222,52.4089M142.222,52.4089L141.847,53.6975M141.847,53.6975L142.157,54.8855M142.157,54.8855L143.021,54.7345M143.021,54.7345L143.762,53.4889M143.762,53.4889L144.418,52.2865M144.418,52.2865L145.339,52.596M145.339,52.596L145.591,53.712M145.591,53.712L144.576,55.764M146.016,54.4731L146.016,52.9345M145.944,54.7279L145.944,52.6802M145.872,54.8833L145.872,52.5189M145.8,55.0049L145.8,52.3752M145.728,55.1177L145.728,52.2748M145.656,55.2306L145.656,52.1745M145.584,55.3221L145.584,53.7262M145.584,53.6805L145.584,52.096M145.512,55.4052L145.512,53.8716M145.512,53.3616L145.512,52.0257M145.44,55.463L145.44,54.0173M145.44,53.0428L145.44,51.9551M145.368,55.5199L145.368,54.1627M145.368,52.7239L145.368,51.9024M145.296,55.5571L145.296,54.3084M145.296,52.5812L145.296,51.8539M145.224,55.5945L145.224,54.4538M145.224,52.5572L145.224,51.8156M145.152,55.6228L145.152,54.5995M145.152,52.5331L145.152,51.785M145.08,55.6472L145.08,54.7449M145.08,52.5087L145.08,51.7561M145.008,55.6718L145.008,54.8906M145.008,52.4846L145.008,51.7408M144.936,55.6962L144.936,55.0361M144.936,52.4605L144.936,51.7254M144.864,55.7209L144.864,55.1817M144.864,52.4364L144.864,51.715M144.792,55.7371L144.792,55.3272M144.792,52.412L144.792,51.7099M144.72,55.7495L144.72,55.4729M144.72,52.3879L144.72,51.7045M144.648,55.7592L144.648,55.6183M144.648,52.3639L144.648,51.6994M144.576,52.3395L144.576,51.6985M144.504,52.3153L144.504,51.7048M144.432,52.2913L144.432,51.7113M144.36,52.3922L144.36,51.7175M144.288,52.5243L144.288,51.7286M144.216,52.6567L144.216,51.7527M144.144,52.7887L144.144,51.7771M144.072,52.9209L144.072,51.8015M144,53.0529L144,51.8315M143.928,53.1853L143.928,51.8754M143.856,53.3174L143.856,51.9361M143.784,53.4495L143.784,52.0132M143.712,53.5737L143.712,52.1107M143.64,53.6947L143.64,52.2196M143.568,53.8158L143.568,52.3539M143.496,53.9365L143.496,52.5311M143.424,54.0575L143.424,52.7267M143.352,54.1786L143.352,52.9608M143.28,54.2993L143.28,53.2866M143.208,54.4204L143.208,53.64M143.136,54.5414L143.136,53.9677M143.064,54.6622L143.064,54.1585M142.992,54.7396L142.992,54.2755M142.92,54.7523L142.92,54.3733M142.848,54.7648L142.848,54.438M142.776,54.7775L142.776,54.4746M142.776,52.9067L142.776,51.8054M142.704,54.79L142.704,54.4969M142.704,52.9127L142.704,51.8131M142.632,54.8025L142.632,54.5097M142.632,52.9302L142.632,51.8207M142.56,54.8153L142.56,54.5009M142.56,52.9614L142.56,51.8712M142.488,54.8277L142.488,54.4825M142.488,53.0039L142.488,51.9857M142.416,54.8405L142.416,54.4499M142.416,53.0618L142.416,52.0999M142.344,54.8529L142.344,54.3897M142.344,53.1442L142.344,52.2145M142.272,54.8657L142.272,54.292M142.272,53.2621L142.272,52.3287M142.2,54.8782L142.2,54.059M142.2,53.4966L142.2,52.4829M142.128,54.7744L142.128,52.7306M142.056,54.4983L142.056,52.9784M141.984,54.2226L141.984,53.2261M141.912,53.9464L141.912,53.4739"/>
    </g>
    <g  stroke-width="0">
     <title >polygon</title>
     <path  fill="none" stroke="white" stroke-linecap="round" stroke-width="0.072" d="M142.567,51.8255L142.409,51.8831M142.409,51.8831L142.186,51.984M142.186,51.984L142.06,52.0651M142.06,52.0651L141.948,52.164M141.948,52.164L141.733,52.4362M141.733,52.4362L141.581,52.7471M141.581,52.7471L141.476,53.13M141.476,53.13L141.437,53.5249M141.437,53.5249L141.437,54.036M141.437,54.036L141.481,54.4414M141.481,54.4414L141.597,54.832M141.597,54.832L141.782,55.1951M141.782,55.1951L141.887,55.3298M141.887,55.3298L142.016,55.4417M142.016,55.4417L142.164,55.5265M142.164,55.5265L142.471,55.6279M142.471,55.6279L142.793,55.6645M142.793,55.6645L143.114,55.6345M143.114,55.6345L143.253,55.5916M143.253,55.5916L143.38,55.5211M143.38,55.5211L143.489,55.4255M143.489,55.4255L143.641,55.2339M143.641,55.2339L143.762,55.021M143.762,55.021L143.849,54.792M143.849,54.792L144.094,53.7625M144.094,53.7625L144.181,53.4265M144.181,53.4265L144.317,53.1071M144.317,53.1071L144.387,53.005M144.387,53.005L144.48,52.924M144.48,52.924L144.59,52.8687M144.59,52.8687L144.711,52.8429M144.711,52.8429L144.835,52.848M144.835,52.848L144.953,52.8837M144.953,52.8837L145.058,52.9475M145.058,52.9475L145.145,53.0351M145.145,53.0351L145.238,53.1873M145.238,53.1873L145.296,53.3554M145.296,53.3554L145.318,53.532M145.318,53.532L145.318,53.9135M145.318,53.9135L145.296,54.0791M145.296,54.0791L145.232,54.2529M145.232,54.2529L145.132,54.409M145.132,54.409L145.001,54.54M145.001,54.54L144.876,54.6168M144.876,54.6168L144.737,54.6607M144.737,54.6607L144.59,54.6695M144.59,54.6695L144.576,54.6695M144.576,54.6695L144.576,55.764M144.576,55.764L145.642,53.7409M145.642,53.7409L145.382,52.5745M145.382,52.5745L144.439,52.2575M144.439,52.2575L144.338,52.308M144.338,52.308L142.978,54.648M142.978,54.648L142.2,54.7849M142.2,54.7849L141.876,53.712M141.876,53.712L142.258,52.5169M142.258,52.5169L142.668,51.9625M142.668,51.9625L142.567,51.8255M145.584,53.8503L145.584,53.4821M145.512,53.987L145.512,53.1578M145.44,54.1236L145.44,52.8335M145.368,54.2605L145.368,52.5696M145.296,54.3972L145.296,54.0791M145.296,53.3577L145.296,52.5455M145.224,54.5337L145.224,54.265M145.224,53.1652L145.224,52.5215M145.152,54.6704L145.152,54.3779M145.152,53.0467L145.152,52.4971M145.08,54.8073L145.08,54.4609M145.08,52.969L145.08,52.473M145.008,54.9439L145.008,54.5329M145.008,52.9169L145.008,52.4489M144.936,55.0806L144.936,54.58M144.936,52.8783L144.936,52.4245M144.864,55.2172L144.864,54.6205M144.864,52.8565L144.864,52.4004M144.792,55.3541L144.792,54.6432M144.792,52.846L144.792,52.3763M144.72,55.4908L144.72,54.6616M144.72,52.8432L144.72,52.3519M144.648,55.6273L144.648,54.6659M144.648,52.8565L144.648,52.3279M144.576,52.8761L144.576,52.3038M144.504,52.9121L144.504,52.2793M144.432,52.9659L144.432,52.2609M144.36,53.0444L144.36,52.2969M144.288,53.1751L144.288,52.3948M144.216,53.3447L144.216,52.5183M144.144,53.5692L144.144,52.6422M144.072,53.8532L144.072,52.7661M144,54.1562L144,52.89M143.928,54.4592L143.928,53.0135M143.856,54.7623L143.856,53.1374M143.784,54.9641L143.784,53.2613M143.712,55.11L143.712,53.3849M143.64,55.2359L143.64,53.5087M143.568,55.3263L143.568,53.6327M143.496,55.4167L143.496,53.7565M143.424,55.4826L143.424,53.8801M143.352,55.5367L143.352,54.004M143.28,55.5769L143.28,54.1279M143.208,55.6058L143.208,54.2517M143.136,55.6279L143.136,54.3753M143.064,55.6393L143.064,54.4992M142.992,55.6461L142.992,54.6231M142.92,55.6529L142.92,54.6579M142.848,55.6594L142.848,54.6707M142.776,55.6626L142.776,54.6834M142.704,55.6543L142.704,54.6959M142.632,55.6461L142.632,54.7087M142.632,52.0112L142.632,51.9137M142.56,55.6379L142.56,54.7214M142.56,52.1084L142.56,51.8281M142.488,55.6296L142.488,54.7342M142.488,52.2057L142.488,51.8542M142.416,55.6095L142.416,54.7466M142.416,52.3029L142.416,51.8802M142.344,55.5857L142.344,54.7594M142.344,52.4002L142.344,51.9123M142.272,55.5619L142.272,54.7721M142.272,52.4976L142.272,51.9449M142.2,55.5381L142.2,54.7849M142.2,52.6972L142.2,51.9772M142.128,55.5057L142.128,54.5466M142.128,52.9228L142.128,52.0212M142.056,55.4644L142.056,54.3082M142.056,53.1485L142.056,52.0685M141.984,55.4136L141.984,54.0698M141.984,53.3738L141.984,52.132M141.912,55.3513L141.912,53.8313M141.912,53.5995L141.912,52.2096M141.84,55.2691L141.84,52.3009M141.768,55.1665L141.768,52.3922M141.696,55.0253L141.696,52.5124M141.624,54.8842L141.624,52.6592M141.552,54.6798L141.552,52.8528M141.48,54.4334L141.48,53.1164"/>
    </g>
    <g  stroke-width="0">
     <title >polygon</title>
     <path  fill="none" stroke="white" stroke-linecap="round" stroke-width="0.072" d="M141.53,50.004L142.099,50.0111M142.099,50.0111L142.121,49.9895M142.121,49.9895L142.128,49.9751M142.128,49.9751L142.056,49.9105M142.056,49.9105L141.782,49.6585M141.782,49.6585L141.697,49.5609M141.697,49.5609L141.631,49.4495M141.631,49.4495L141.48,49.0751M141.48,49.0751L141.451,48.9385M141.451,48.9385L141.444,48.3769M141.444,48.3769L141.496,48.0696M141.496,48.0696L141.61,47.7791M141.61,47.7791L141.763,47.5234M141.763,47.5234L141.948,47.2895M141.948,47.2895L142.2,47.0653M142.2,47.0653L142.495,46.9009M142.495,46.9009L143.094,46.7099M143.094,46.7099L143.718,46.6299M143.718,46.6299L144.346,46.6631M144.346,46.6631L144.736,46.7546M144.736,46.7546L145.104,46.9122M145.104,46.9122L145.44,47.1311M145.44,47.1311L145.64,47.3176M145.64,47.3176L145.806,47.5353M145.806,47.5353L145.932,47.778M145.932,47.778L146.016,48.0385M146.016,48.0385L146.069,48.3823M146.069,48.3823L146.074,48.7301M146.074,48.7301L146.03,49.0751M146.03,49.0751L145.956,49.3143M145.956,49.3143L145.832,49.5326M145.832,49.5326L145.665,49.7197M145.665,49.7197L145.462,49.8671M145.462,49.8671L144.619,49.8671M144.619,49.8671L144.598,49.8455M144.598,49.8455L144.612,49.8455M144.612,49.8455L144.639,49.8398M144.639,49.8398L144.662,49.824M144.662,49.824L144.684,49.8095M144.684,49.8095L144.847,49.7226M144.847,49.7226L144.987,49.6004M144.987,49.6004L145.094,49.4495M145.094,49.4495L145.18,49.2508M145.18,49.2508L145.224,49.0391M145.224,49.0391L145.225,48.7737M145.225,48.7737L145.174,48.5135M145.174,48.5135L145.074,48.2962M145.074,48.2962L144.922,48.1116M144.922,48.1116L144.728,47.9722M144.728,47.9722L144.504,47.8871M144.504,47.8871L143.946,47.7998M143.946,47.7998L143.381,47.8009M143.381,47.8009L143.099,47.8565M143.099,47.8565L142.836,47.9741M142.836,47.9741L142.607,48.1481M142.607,48.1481L142.423,48.3695M142.423,48.3695L142.346,48.5178M142.346,48.5178L142.3,48.6786M142.3,48.6786L142.286,48.8449M142.286,48.8449L142.301,49.1545M142.301,49.1545L142.324,49.267M142.324,49.267L142.373,49.3705M142.373,49.3705L142.535,49.578M142.535,49.578L142.733,49.752M142.733,49.752L142.939,49.8727M142.939,49.8727L143.166,49.9507M143.166,49.9507L143.402,49.9825M143.402,49.9825L144.13,49.9751M144.13,49.9751L144.353,49.9391M144.353,49.9391L144.547,49.8745M144.547,49.8745L144.557,49.8733M144.557,49.8733L144.567,49.8773M144.567,49.8773L144.575,49.8855M144.575,49.8855L144.576,49.896M144.576,49.896L144.576,49.932M144.576,49.932L145.454,49.932M145.454,49.932L148.63,49.932M148.63,49.932L147.571,51.1055M147.571,51.1055L141.761,51.1055M141.761,51.1055L141.739,51.1055M141.739,51.1055L141.53,50.004M148.608,49.9558L148.608,49.932M148.536,50.0355L148.536,49.932M148.464,50.1154L148.464,49.932M148.392,50.1953L148.392,49.932M148.32,50.275L148.32,49.932M148.248,50.3549L148.248,49.932M148.176,50.4346L148.176,49.932M148.104,50.5146L148.104,49.932M148.032,50.5945L148.032,49.932M147.96,50.6741L147.96,49.932M147.888,50.754L147.888,49.932M147.816,50.834L147.816,49.932M147.744,50.9136L147.744,49.932M147.672,50.9936L147.672,49.932M147.6,51.0732L147.6,49.932M147.528,51.1055L147.528,49.932M147.456,51.1055L147.456,49.932M147.384,51.1055L147.384,49.932M147.312,51.1055L147.312,49.932M147.24,51.1055L147.24,49.932M147.168,51.1055L147.168,49.932M147.096,51.1055L147.096,49.932M147.024,51.1055L147.024,49.932M146.952,51.1055L146.952,49.932M146.88,51.1055L146.88,49.932M146.808,51.1055L146.808,49.932M146.736,51.1055L146.736,49.932M146.664,51.1055L146.664,49.932M146.592,51.1055L146.592,49.932M146.52,51.1055L146.52,49.932M146.448,51.1055L146.448,49.932M146.376,51.1055L146.376,49.932M146.304,51.1055L146.304,49.932M146.232,51.1055L146.232,49.932M146.16,51.1055L146.16,49.932M146.088,51.1055L146.088,49.932M146.016,51.1055L146.016,49.932M146.016,49.121L146.016,48.0385M145.944,51.1055L145.944,49.932M145.944,49.3342L145.944,47.8134M145.872,51.1055L145.872,49.932M145.872,49.4612L145.872,47.6618M145.8,51.1055L145.8,49.932M145.8,49.5678L145.8,47.5273M145.728,51.1055L145.728,49.932M145.728,49.6482L145.728,47.4327M145.656,51.1055L145.656,49.932M145.656,49.7256L145.656,47.338M145.584,51.1055L145.584,49.932M145.584,49.7781L145.584,47.2649M145.512,51.1055L145.512,49.932M145.512,49.8303L145.512,47.198M145.44,51.1055L145.44,49.932M145.44,49.8671L145.44,47.1311M145.368,51.1055L145.368,49.932M145.368,49.8671L145.368,47.084M145.296,51.1055L145.296,49.932M145.296,49.8671L145.296,47.037M145.224,51.1055L145.224,49.932M145.224,49.8671L145.224,49.0391M145.224,48.7655L145.224,46.9902M145.152,51.1055L145.152,49.932M145.152,49.8671L145.152,49.3158M145.152,48.4665L145.152,46.9431M145.08,51.1055L145.08,49.932M145.08,49.8671L145.08,49.47M145.08,48.3092L145.08,46.9017M145.008,51.1055L145.008,49.932M145.008,49.8671L145.008,49.5711M145.008,48.2162L145.008,46.8708M144.936,51.1055L144.936,49.932M144.936,49.8671L144.936,49.6452M144.936,48.1289L144.936,46.8402M144.864,51.1055L144.864,49.932M144.864,49.8671L144.864,49.7084M144.864,48.0702L144.864,46.8094M144.792,51.1055L144.792,49.932M144.792,49.8671L144.792,49.7523M144.792,48.0186L144.792,46.7788M144.72,51.1055L144.72,49.932M144.72,49.8671L144.72,49.7905M144.72,47.9693L144.72,46.751M144.648,51.1055L144.648,49.932M144.648,49.8671L144.648,49.8342M144.648,47.9421L144.648,46.734M144.576,51.1055L144.576,49.896M144.576,47.9146L144.576,46.7169M144.504,51.1055L144.504,49.8889M144.504,47.8871L144.504,46.7002M144.432,51.1055L144.432,49.913M144.432,47.876L144.432,46.6832M144.36,51.1055L144.36,49.9368M144.36,47.8647L144.36,46.6662M144.288,51.1055L144.288,49.9496M144.288,47.8534L144.288,46.66M144.216,51.1055L144.216,49.9612M144.216,47.8423L144.216,46.656M144.144,51.1055L144.144,49.9728M144.144,47.831L144.144,46.6523M144.072,51.1055L144.072,49.9759M144.072,47.8196L144.072,46.6487M144,51.1055L144,49.9765M144,47.8083L144,46.6447M143.928,51.1055L143.928,49.9774M143.928,47.7998L143.928,46.641M143.856,51.1055L143.856,49.9779M143.856,47.7998L143.856,46.637M143.784,51.1055L143.784,49.9788M143.784,47.8001L143.784,46.6333M143.712,51.1055L143.712,49.9793M143.712,47.8001L143.712,46.6308M143.64,51.1055L143.64,49.9802M143.64,47.8004L143.64,46.6402M143.568,51.1055L143.568,49.981M143.568,47.8004L143.568,46.6492M143.496,51.1055L143.496,49.9816M143.496,47.8007L143.496,46.6585M143.424,51.1055L143.424,49.9825M143.424,47.8007L143.424,46.6676M143.352,51.1055L143.352,49.9756M143.352,47.8066L143.352,46.677M143.28,51.1055L143.28,49.966M143.28,47.8207L143.28,46.686M143.208,51.1055L143.208,49.9564M143.208,47.8349L143.208,46.6954M143.136,51.1055L143.136,49.9405M143.136,47.8491L143.136,46.7047M143.064,51.1055L143.064,49.9156M143.064,47.8718L143.064,46.7195M142.992,51.1055L142.992,49.8909M142.992,47.9041L142.992,46.7425M142.92,51.1055L142.92,49.8614M142.92,47.9364L142.92,46.7654M142.848,51.1055L142.848,49.8192M142.848,47.9687L142.848,46.7884M142.776,51.1055L142.776,49.7769M142.776,48.0198L142.776,46.8113M142.704,51.1055L142.704,49.7265M142.704,48.0745L142.704,46.8343M142.632,51.1055L142.632,49.663M142.632,48.1292L142.632,46.8572M142.56,51.1055L142.56,49.5998M142.56,48.2046L142.56,46.8802M142.488,51.1055L142.488,49.5176M142.488,48.2913L142.488,46.9049M142.416,51.1055L142.416,49.4255M142.416,48.3831L142.416,46.9452M142.344,51.1055L142.344,49.3098M142.344,48.5255L142.344,46.9854M142.272,51.1055L142.272,47.0254M142.2,51.1055L142.2,47.0656M142.128,51.1055L142.128,49.9751M142.128,49.9751L142.128,47.1297M142.056,51.1055L142.056,50.0106M142.056,49.9105L142.056,47.1938M141.984,51.1055L141.984,50.0094M141.984,49.8444L141.984,47.2578M141.912,51.1055L141.912,50.0085M141.912,49.7781L141.912,47.3352M141.84,51.1055L141.84,50.0077M141.84,49.7118L141.84,47.4262M141.768,51.1055L141.768,50.0068M141.768,49.642L141.768,47.5172M141.696,50.8782L141.696,50.006M141.696,49.5593L141.696,47.6351M141.624,50.4981L141.624,50.0052M141.624,49.4322L141.624,47.755M141.552,50.118L141.552,50.004M141.552,49.2537L141.552,47.9268M141.48,49.0751L141.48,48.1649"/>
    </g>
    <g  stroke-width="0">
     <title >polygon</title>
     <path  fill="none" stroke="white" stroke-linecap="round" stroke-width="0.072" d="M135.13,33.8111L135.108,33.948M135.108,33.948L135.087,34.2145M135.087,34.2145L135.108,34.4809M135.108,34.4809L135.16,34.6791M135.16,34.6791L135.251,34.8628M135.251,34.8628L135.377,35.0246M135.377,35.0246L135.533,35.1575M135.533,35.1575L135.74,35.2712M135.74,35.2712L135.967,35.3395M135.967,35.3395L136.202,35.3591M136.202,35.3591L140.501,35.3591M140.501,35.3591L138.946,33.9769M138.946,33.9769L138.72,33.7308M138.72,33.7308L138.55,33.444M138.55,33.444L138.511,33.3385M138.511,33.3385L138.492,33.228M138.492,33.228L138.492,32.58M138.492,32.58L138.457,32.1936M138.457,32.1936L138.352,31.8198M138.352,31.8198L138.182,31.4711M138.182,31.4711L137.951,31.1428M137.951,31.1428L137.676,30.8506M137.676,30.8506L137.362,30.6M137.362,30.6L136.885,30.3316M136.885,30.3316L136.368,30.1535M136.368,30.1535L135.827,30.0719M135.827,30.0719L135.281,30.0889M135.281,30.0889L134.986,30.1476M134.986,30.1476L134.703,30.2491M134.703,30.2491L134.438,30.3911M134.438,30.3911L134.116,30.6482M134.116,30.6482L133.855,30.9671M133.855,30.9671L134.107,30.9671M134.107,30.9671L134.148,30.9727M134.148,30.9727L134.186,30.9889M134.186,30.9889L134.291,31.0731M134.291,31.0731L134.366,31.1831M134.366,31.1831L134.388,31.2409M134.388,31.2409L134.405,31.4031M134.405,31.4031L134.376,31.5635M134.376,31.5635L134.302,31.7089M134.302,31.7089L134.114,31.968M134.114,31.968L134.011,32.0879M134.011,32.0879L133.891,32.1911M133.891,32.1911L133.757,32.2741M133.757,32.2741L133.61,32.3351M133.61,32.3351L133.518,32.3535M133.518,32.3535L133.423,32.3495M133.423,32.3495L133.267,32.3025M133.267,32.3025L133.129,32.2163M133.129,32.2163L133.017,32.0972M133.017,32.0972L132.941,31.9535M132.941,31.9535L132.9,31.8084M132.9,31.8084L132.883,31.6585M132.883,31.6585L132.883,31.4855M132.883,31.4855L132.883,31.4858M132.883,31.4858L132.876,31.4929M132.876,31.4929L132.78,31.6162M132.78,31.6162L132.718,31.7591M132.718,31.7591L132.674,31.86M132.674,31.86L132.646,31.9249M132.646,31.9249L132.584,32.1738M132.584,32.1738L132.559,32.4289M132.559,32.4289L132.578,32.6753M132.578,32.6753L132.643,32.9134M132.643,32.9134L132.754,33.1345M132.754,33.1345L132.912,33.3547M132.912,33.3547L133.099,33.552M133.099,33.552L133.271,33.6742M133.271,33.6742L133.466,33.7499M133.466,33.7499L133.675,33.7746M133.675,33.7746L133.884,33.7462M133.884,33.7462L134.078,33.6671M134.078,33.6671L134.577,33.3309M134.577,33.3309L135.014,32.9185M135.014,32.9185L135.142,32.8099M135.142,32.8099L135.293,32.7379M135.293,32.7379L135.457,32.7073M135.457,32.7073L135.624,32.7203M135.624,32.7203L135.783,32.7758M135.783,32.7758L135.92,32.8705M135.92,32.8705L136.03,32.9975M136.03,32.9975L136.116,33.1574M136.116,33.1574L136.174,33.3294M136.174,33.3294L136.202,33.5089M136.202,33.5089L136.192,33.7187M136.192,33.7187L136.13,33.9193M136.13,33.9193L136.022,34.0991M136.022,34.0991L135.922,34.1943M135.922,34.1943L135.799,34.2575M135.799,34.2575L135.673,34.2856M135.673,34.2856L135.544,34.2856M135.544,34.2856L135.418,34.2575M135.418,34.2575L135.369,34.232M135.369,34.232L135.331,34.1929M135.331,34.1929L135.158,33.9551M135.158,33.9551L135.135,33.9106M135.135,33.9106L135.125,33.8612M135.125,33.8612L135.13,33.8111M140.472,35.3591L140.472,35.3336M140.4,35.3591L140.4,35.2695M140.328,35.3591L140.328,35.2055M140.256,35.3591L140.256,35.1417M140.184,35.3591L140.184,35.0776M140.112,35.3591L140.112,35.0135M140.04,35.3591L140.04,34.9497M139.968,35.3591L139.968,34.8857M139.896,35.3591L139.896,34.8216M139.824,35.3591L139.824,34.7576M139.752,35.3591L139.752,34.6938M139.68,35.3591L139.68,34.6298M139.608,35.3591L139.608,34.5657M139.536,35.3591L139.536,34.5019M139.464,35.3591L139.464,34.4378M139.392,35.3591L139.392,34.3737M139.32,35.3591L139.32,34.3097M139.248,35.3591L139.248,34.2459M139.176,35.3591L139.176,34.1819M139.104,35.3591L139.104,34.1178M139.032,35.3591L139.032,34.054M138.96,35.3591L138.96,33.99M138.888,35.3591L138.888,33.9142M138.816,35.3591L138.816,33.8358M138.744,35.3591L138.744,33.7569M138.672,35.3591L138.672,33.6501M138.6,35.3591L138.6,33.529M138.528,35.3591L138.528,33.3847M138.456,35.3591L138.456,32.1908M138.384,35.3591L138.384,31.9326M138.312,35.3591L138.312,31.7367M138.24,35.3591L138.24,31.5893M138.168,35.3591L138.168,31.4507M138.096,35.3591L138.096,31.3487M138.024,35.3591L138.024,31.2466M137.952,35.3591L137.952,31.1445M137.88,35.3591L137.88,31.0677M137.808,35.3591L137.808,30.9915M137.736,35.3591L137.736,30.9149M137.664,35.3591L137.664,30.8418M137.592,35.3591L137.592,30.7842M137.52,35.3591L137.52,30.7267M137.448,35.3591L137.448,30.6692M137.376,35.3591L137.376,30.6116M137.304,35.3591L137.304,30.5677M137.232,35.3591L137.232,30.5271M137.16,35.3591L137.16,30.4866M137.088,35.3591L137.088,30.4461M137.016,35.3591L137.016,30.4055M136.944,35.3591L136.944,30.365M136.872,35.3591L136.872,30.3273M136.8,35.3591L136.8,30.3024M136.728,35.3591L136.728,30.2777M136.656,35.3591L136.656,30.2527M136.584,35.3591L136.584,30.2281M136.512,35.3591L136.512,30.2031M136.44,35.3591L136.44,30.1785M136.368,35.3591L136.368,30.1535M136.296,35.3591L136.296,30.1428M136.224,35.3591L136.224,30.132M136.152,35.3548L136.152,33.8496M136.152,33.2649L136.152,30.1209M136.08,35.3489L136.08,34.0036M136.08,33.0911L136.08,30.1102M136.008,35.3429L136.008,34.1127M136.008,32.9723L136.008,30.0994M135.936,35.3302L135.936,34.181M135.936,32.8887L135.936,30.0884M135.864,35.3084L135.864,34.2241M135.864,32.8317L135.864,30.0776M135.792,35.2866L135.792,34.259M135.792,32.7824L135.792,30.0727M135.72,35.2598L135.72,34.2751M135.72,32.7537L135.72,30.075M135.648,35.2205L135.648,34.2856M135.648,32.7285L135.648,30.0773M135.576,35.1811L135.576,34.2856M135.576,32.7164L135.576,30.0796M135.504,35.1329L135.504,34.2768M135.504,32.7107L135.504,30.0818M135.432,35.0713L135.432,34.2609M135.432,32.7121L135.432,30.0841M135.36,35.0025L135.36,34.223M135.36,32.7257L135.36,30.0864M135.288,34.9101L135.288,34.1337M135.288,32.7404L135.288,30.0887M135.216,34.7916L135.216,34.0345M135.216,32.7748L135.216,30.1017M135.144,34.6175L135.144,33.9281M135.144,32.809L135.144,30.1162M135.072,32.8697L135.072,30.1303M135,32.9324L135,30.1447M134.928,33.0001L134.928,30.1683M134.856,33.0682L134.856,30.1941M134.784,33.1358L134.784,30.2198M134.712,33.2039L134.712,30.2457M134.64,33.2716L134.64,30.2828M134.568,33.3372L134.568,30.3214M134.496,33.3856L134.496,30.3602M134.424,33.4344L134.424,30.4024M134.352,33.4828L134.352,31.61M134.352,31.1621L134.352,30.46M134.28,33.5313L134.28,31.7387M134.28,31.0646L134.28,30.5172M134.208,33.5798L134.208,31.8385M134.208,31.0062L134.208,30.5748M134.136,33.6285L134.136,31.938M134.136,30.9711L134.136,30.6323M134.064,33.673L134.064,32.0264M134.064,30.9671L134.064,30.7117M133.992,33.7023L133.992,32.1044M133.992,30.9671L133.992,30.7999M133.92,33.7317L133.92,32.1661M133.92,30.9671L133.92,30.8877M133.848,33.7513L133.848,32.2175M133.776,33.7609L133.776,32.262M133.704,33.7708L133.704,32.296M133.632,33.7692L133.632,32.326M133.56,33.7607L133.56,32.345M133.488,33.7522L133.488,32.3524M133.416,33.7303L133.416,32.3476M133.344,33.7026L133.344,32.3258M133.272,33.6748L133.272,32.3042M133.2,33.624L133.2,32.2608M133.128,33.5724L133.128,32.2155M133.056,33.5064L133.056,32.1386M132.984,33.4304L132.984,32.0346M132.912,33.3541L132.912,31.8509M132.84,33.2544L132.84,31.5391M132.768,33.1543L132.768,31.644M132.696,33.0186L132.696,31.8095M132.624,32.8425L132.624,32.0111"/>
    </g>
    <g  stroke-width="0">
     <title >polygon</title>
     <path  fill="none" stroke="white" stroke-linecap="round" stroke-width="0.072" d="M142.891,46.08L142.891,44.892M142.891,44.892L142.891,44.8775M142.891,44.8775L142.877,44.8775M142.877,44.8775L142.72,44.8588M142.72,44.8588L142.572,44.8039M142.572,44.8039L142.44,44.7154M142.44,44.7154L142.334,44.5986M142.334,44.5986L142.258,44.46M142.258,44.46L142.209,44.2939M142.209,44.2939L142.193,44.1215M142.193,44.1215L142.207,43.7329M142.207,43.7329L142.225,43.6229M142.225,43.6229L142.264,43.5183M142.264,43.5183L142.322,43.4231M142.322,43.4231L142.394,43.3462M142.394,43.3462L142.479,43.2856M142.479,43.2856L142.574,43.2431M142.574,43.2431L142.729,43.2102M142.729,43.2102L142.888,43.2102M142.888,43.2102L143.042,43.2431M143.042,43.2431L143.076,43.2581M143.076,43.2581L143.107,43.2791M143.107,43.2791L143.186,43.3655M143.186,43.3655L143.26,43.4931M143.26,43.4931L143.309,43.632M143.309,43.632L143.374,44.0065M143.374,44.0065L143.438,44.6329M143.438,44.6329L143.518,45.0686M143.518,45.0686L143.654,45.4895M143.654,45.4895L143.758,45.6868M143.758,45.6868L143.899,45.8598M143.899,45.8598L144.072,46.0009M144.072,46.0009L144.316,46.1226M144.316,46.1226L144.583,46.1809M144.583,46.1809L144.884,46.1814M144.884,46.1814L145.18,46.1282M145.18,46.1282L145.462,46.0225M145.462,46.0225L145.598,45.9397M145.598,45.9397L145.717,45.8328M145.717,45.8328L145.814,45.7055M145.814,45.7055L145.986,45.3458M145.986,45.3458L146.074,44.9569M146.074,44.9569L146.084,44.4935M146.084,44.4935L146.016,44.0351M146.016,44.0351L145.916,43.7417M145.916,43.7417L145.763,43.4722M145.763,43.4722L145.562,43.236M145.562,43.236L145.552,43.2207M145.552,43.2207L145.549,43.2025M145.549,43.2025L145.555,43.185M145.555,43.185L145.567,43.1713M145.567,43.1713L145.584,43.164M145.584,43.164L145.879,43.0991M145.879,43.0991L145.958,43.0775M145.958,43.0775L145.968,43.0713M145.968,43.0713L145.974,43.0608M145.974,43.0608L145.973,43.0489M145.973,43.0489L145.973,41.904M145.973,41.904L145.915,41.9255M145.915,41.9255L145.543,42.0256M145.543,42.0256L145.159,42.0551M145.159,42.0551L143.928,42.048M143.928,42.048L143.928,43.2071M143.928,43.2071L144.166,43.2071M144.166,43.2071L144.477,43.2269M144.477,43.2269L144.785,43.2865M144.785,43.2865L144.835,43.3009M144.835,43.3009L144.911,43.3335M144.911,43.3335L144.979,43.38M144.979,43.38L145.188,43.596M145.188,43.596L145.244,43.6847M145.244,43.6847L145.282,43.7831M145.282,43.7831L145.325,44.0855M145.325,44.0855L145.31,44.5249M145.31,44.5249L145.282,44.663M145.282,44.663L145.22,44.79M145.22,44.79L145.13,44.8991M145.13,44.8991L145.053,44.9583M145.053,44.9583L144.966,44.9997M144.966,44.9997L144.871,45.0215M144.871,45.0215L144.698,45.0249M144.698,45.0249L144.528,44.9932M144.528,44.9932L144.367,44.928M144.367,44.928L144.276,44.8656M144.276,44.8656L144.202,44.784M144.202,44.784L144.117,44.6437M144.117,44.6437L144.06,44.4909M144.06,44.4909L144.029,44.3305M144.029,44.3305L143.986,43.92M143.986,43.92L143.937,43.6388M143.937,43.6388L143.856,43.3655M143.856,43.3655L143.826,43.3068M143.826,43.3068L143.781,43.2578M143.781,43.2578L143.726,43.2215M143.726,43.2215L143.726,43.2071M143.726,43.2071L143.899,43.2071M143.899,43.2071L143.899,42.0551M143.899,42.0551L142.531,42.0551M142.531,42.0551L142.322,42.0809M142.322,42.0809L142.127,42.1566M142.127,42.1566L141.955,42.2776M141.955,42.2776L141.818,42.4369M141.818,42.4369L141.622,42.8062M141.622,42.8062L141.502,43.2071M141.502,43.2071L141.436,43.7M141.436,43.7L141.434,44.1969M141.434,44.1969L141.494,44.6905M141.494,44.6905L141.589,45.0388M141.589,45.0388L141.739,45.3671M141.739,45.3671L141.902,45.599M141.902,45.599L142.109,45.7926M142.109,45.7926L142.35,45.94M142.35,45.94L142.618,46.0346M142.618,46.0346L142.898,46.0729M142.898,46.0729L142.891,46.08M146.016,45.2135L146.016,44.0351M145.944,45.4345L145.944,43.8236M145.944,43.0815L145.944,41.9148M145.872,45.5851L145.872,43.664M145.872,43.1008L145.872,41.9369M145.8,45.7245L145.8,43.537M145.8,43.1167L145.8,41.9564M145.728,45.8192L145.728,43.431M145.728,43.1325L145.728,41.9757M145.656,45.8881L145.656,43.3462M145.656,43.1484L145.656,41.995M145.584,45.9485L145.584,43.2615M145.584,43.164L145.584,42.0145M145.512,45.9922L145.512,42.0278M145.44,46.0307L145.44,42.0332M145.368,46.0576L145.368,42.0389M145.296,46.0848L145.296,44.5932M145.296,43.8837L145.296,42.0443M145.224,46.1118L145.224,44.7815M145.224,43.6527L145.224,42.05M145.152,46.1333L145.152,44.8727M145.152,43.5586L145.152,42.0551M145.08,46.1463L145.08,44.9379M145.08,43.4843L145.08,42.0548M145.008,46.1593L145.008,44.9796M145.008,43.4097L145.008,42.0543M144.936,46.1722L144.936,45.0066M144.936,43.3506L144.936,42.054M144.864,46.1812L144.864,45.0215M144.864,43.3131L144.864,42.0537M144.792,46.1812L144.792,45.023M144.792,43.2884L144.792,42.0531M144.72,46.1809L144.72,45.0244M144.72,43.2737L144.72,42.0528M144.648,46.1809L144.648,45.0158M144.648,43.2598L144.648,42.0522M144.576,46.1792L144.576,45.0022M144.576,43.2459L144.576,42.052M144.504,46.1633L144.504,44.9839M144.504,43.232L144.504,42.0514M144.432,46.1478L144.432,44.9546M144.432,43.2238L144.432,42.0511M144.36,46.1318L144.36,44.9232M144.36,43.2193L144.36,42.0505M144.288,46.1084L144.288,44.8741M144.288,43.2148L144.288,42.0502M144.216,46.0724L144.216,44.8001M144.216,43.2102L144.216,42.0497M144.144,46.0367L144.144,44.6879M144.144,43.2071L144.144,42.0494M144.072,46.0009L144.072,44.5238M144.072,43.2071L144.072,42.0489M144,45.942L144,44.0569M144,43.2071L144,42.0486M143.928,45.883L143.928,43.6068M143.856,45.8065L143.856,43.3655M143.856,43.2071L143.856,42.0551M143.784,45.7183L143.784,43.2607M143.784,43.2071L143.784,42.0551M143.712,45.599L143.712,42.0551M143.64,45.445L143.64,42.0551M143.568,45.2242L143.568,42.0551M143.496,44.951L143.496,42.0551M143.424,44.4932L143.424,42.0551M143.352,43.8815L143.352,42.0551M143.28,43.5501L143.28,42.0551M143.208,43.403L143.208,42.0551M143.136,43.3105L143.136,42.0551M143.064,43.2524L143.064,42.0551M142.992,43.2323L142.992,42.0551M142.92,43.217L142.92,42.0551M142.848,46.0658L142.848,44.8741M142.848,43.2102L142.848,42.0551M142.776,46.0562L142.776,44.8656M142.776,43.2102L142.776,42.0551M142.704,46.0462L142.704,44.8532M142.704,43.2156L142.704,42.0551M142.632,46.0364L142.632,44.8266M142.632,43.2309L142.632,42.0551M142.56,46.014L142.56,44.7962M142.56,43.2496L142.56,42.0551M142.488,45.9884L142.488,44.7477M142.488,43.2816L142.488,42.0602M142.416,45.9629L142.416,44.6887M142.416,43.3304L142.416,42.0692M142.344,45.9357L142.344,44.61M142.344,43.3999L142.344,42.078M142.272,45.8918L142.272,44.4864M142.272,43.5056L142.272,42.1004M142.2,45.8482L142.2,44.1986M142.2,43.9273L142.2,42.1282M142.128,45.8042L142.128,42.156M142.056,45.743L142.056,42.2065M141.984,45.6758L141.984,42.2572M141.912,45.6083L141.912,42.3281M141.84,45.5108L141.84,42.4117M141.768,45.4082L141.768,42.5316M141.696,45.2724L141.696,42.6671M141.624,45.1146L141.624,42.8023M141.552,44.9014L141.552,43.039M141.48,44.5722L141.48,43.3698"/>
    </g>
    <g  stroke-width="0">
     <title >polygon</title>
     <path  fill="none" stroke="white" stroke-linecap="round" stroke-width="0.072" d="M145.973,41.2849L141.754,41.2775M141.754,41.2775L141.559,40.1831M141.559,40.1831L142.373,40.1831M142.373,40.1831L142.387,40.1545M142.387,40.1545L142.373,40.1111M142.373,40.1111L142.286,40.0535M142.286,40.0535L141.991,39.8591M141.991,39.8591L141.882,39.7692M141.882,39.7692L141.797,39.6575M141.797,39.6575L141.631,39.4055M141.631,39.4055L141.531,39.2324M141.531,39.2324L141.468,39.0424M141.468,39.0424L141.444,38.844M141.444,38.844L141.466,38.4551M141.466,38.4551L142.56,38.4551M142.56,38.4551L142.56,38.4625M142.56,38.4625L142.553,38.5055M142.553,38.5055L142.517,38.6785M142.517,38.6785L142.517,39.1175M142.517,39.1175L142.544,39.2769M142.544,39.2769L142.597,39.4296M142.597,39.4296L142.675,39.5711M142.675,39.5711L142.839,39.7658M142.839,39.7658L143.042,39.9198M143.042,39.9198L143.273,40.0249M143.273,40.0249L143.511,40.0828M143.511,40.0828L143.755,40.104M143.755,40.104L145.973,40.104M145.973,40.104L145.973,41.2849M145.944,41.2849L145.944,40.104M145.872,41.2849L145.872,40.104M145.8,41.2847L145.8,40.104M145.728,41.2847L145.728,40.104M145.656,41.2847L145.656,40.104M145.584,41.2844L145.584,40.104M145.512,41.2844L145.512,40.104M145.44,41.2841L145.44,40.104M145.368,41.2841L145.368,40.104M145.296,41.2838L145.296,40.104M145.224,41.2838L145.224,40.104M145.152,41.2835L145.152,40.104M145.08,41.2835L145.08,40.104M145.008,41.2835L145.008,40.104M144.936,41.2832L144.936,40.104M144.864,41.2832L144.864,40.104M144.792,41.2829L144.792,40.104M144.72,41.2829L144.72,40.104M144.648,41.2826L144.648,40.104M144.576,41.2826L144.576,40.104M144.504,41.2824L144.504,40.104M144.432,41.2824L144.432,40.104M144.36,41.2824L144.36,40.104M144.288,41.2821L144.288,40.104M144.216,41.2821L144.216,40.104M144.144,41.2818L144.144,40.104M144.072,41.2818L144.072,40.104M144,41.2815L144,40.104M143.928,41.2815L143.928,40.104M143.856,41.2812L143.856,40.104M143.784,41.2812L143.784,40.104M143.712,41.2812L143.712,40.1M143.64,41.2809L143.64,40.0938M143.568,41.2809L143.568,40.0876M143.496,41.2807L143.496,40.0791M143.424,41.2807L143.424,40.0614M143.352,41.2804L143.352,40.0439M143.28,41.2804L143.28,40.0266M143.208,41.2801L143.208,39.9954M143.136,41.2801L143.136,39.9625M143.064,41.2801L143.064,39.93M142.992,41.2798L142.992,39.882M142.92,41.2798L142.92,39.8273M142.848,41.2795L142.848,39.7729M142.776,41.2795L142.776,39.691M142.704,41.2793L142.704,39.6054M142.632,41.2793L142.632,39.4929M142.56,41.279L142.56,39.3231M142.56,38.4625L142.56,38.4551M142.488,41.279L142.488,38.4551M142.416,41.279L142.416,38.4551M142.344,41.2787L142.344,40.1831M142.344,40.0921L142.344,38.4551M142.272,41.2787L142.272,40.1831M142.272,40.0442L142.272,38.4551M142.2,41.2784L142.2,40.1831M142.2,39.9969L142.2,38.4551M142.128,41.2784L142.128,40.1831M142.128,39.9492L142.128,38.4551M142.056,41.2781L142.056,40.1831M142.056,39.9019L142.056,38.4551M141.984,41.2781L141.984,40.1831M141.984,39.8534L141.984,38.4551M141.912,41.2778L141.912,40.1831M141.912,39.7939L141.912,38.4551M141.84,41.2778L141.84,40.1831M141.84,39.714L141.84,38.4551M141.768,41.2778L141.768,40.1831M141.768,39.6136L141.768,38.4551M141.696,40.9538L141.696,40.1831M141.696,39.5045L141.696,38.4551M141.624,40.5485L141.624,40.1831M141.624,39.3934L141.624,38.4551M141.552,39.2684L141.552,38.4551M141.48,39.0784L141.48,38.4551"/>
    </g>
    <g  stroke-width="0">
     <title >polygon</title>
     <path  fill="none" stroke="white" stroke-linecap="round" stroke-width="0.072" d="M145.994,37.9225L140.515,37.9225M140.515,37.9225L139.846,36.7489M139.846,36.7489L143.172,36.7489M143.172,36.7489L141.559,35.136M141.559,35.136L141.559,33.8111M141.559,33.8111L143.158,35.4455M143.158,35.4455L145.987,33.5591M145.987,33.5591L145.98,34.9991M145.98,34.9991L143.986,36.2089M143.986,36.2089L143.964,36.2231M143.964,36.2231L144.461,36.7345M144.461,36.7345L145.973,36.7345M145.973,36.7345L146.009,36.7345M146.009,36.7345L146.009,37.908M146.009,37.908L145.994,37.9225M145.944,37.9225L145.944,36.7345M145.944,35.0209L145.944,33.588M145.872,37.9225L145.872,36.7345M145.872,35.0646L145.872,33.6359M145.8,37.9225L145.8,36.7345M145.8,35.1082L145.8,33.6841M145.728,37.9225L145.728,36.7345M145.728,35.1518L145.728,33.732M145.656,37.9225L145.656,36.7345M145.656,35.1955L145.656,33.7799M145.584,37.9225L145.584,36.7345M145.584,35.2392L145.584,33.8281M145.512,37.9225L145.512,36.7345M145.512,35.2828L145.512,33.876M145.44,37.9225L145.44,36.7345M145.44,35.3265L145.44,33.9239M145.368,37.9225L145.368,36.7345M145.368,35.3701L145.368,33.9721M145.296,37.9225L145.296,36.7345M145.296,35.4138L145.296,34.02M145.224,37.9225L145.224,36.7345M145.224,35.4575L145.224,34.0679M145.152,37.9225L145.152,36.7345M145.152,35.5011L145.152,34.1161M145.08,37.9225L145.08,36.7345M145.08,35.5447L145.08,34.164M145.008,37.9225L145.008,36.7345M145.008,35.5887L145.008,34.2119M144.936,37.9225L144.936,36.7345M144.936,35.6324L144.936,34.2601M144.864,37.9225L144.864,36.7345M144.864,35.676L144.864,34.308M144.792,37.9225L144.792,36.7345M144.792,35.7196L144.792,34.3559M144.72,37.9225L144.72,36.7345M144.72,35.7633L144.72,34.4041M144.648,37.9225L144.648,36.7345M144.648,35.807L144.648,34.452M144.576,37.9225L144.576,36.7345M144.576,35.8506L144.576,34.4999M144.504,37.9225L144.504,36.7345M144.504,35.8942L144.504,34.5481M144.432,37.9225L144.432,36.7047M144.432,35.9379L144.432,34.596M144.36,37.9225L144.36,36.6304M144.36,35.9816L144.36,34.6439M144.288,37.9225L144.288,36.5564M144.288,36.0252L144.288,34.6921M144.216,37.9225L144.216,36.4822M144.216,36.0689L144.216,34.74M144.144,37.9225L144.144,36.4082M144.144,36.1125L144.144,34.7879M144.072,37.9225L144.072,36.3342M144.072,36.1562L144.072,34.8361M144,37.9225L144,36.2599M144,36.2002L144,34.884M143.928,37.9225L143.928,34.9319M143.856,37.9225L143.856,34.9801M143.784,37.9225L143.784,35.028M143.712,37.9225L143.712,35.0759M143.64,37.9225L143.64,35.1241M143.568,37.9225L143.568,35.172M143.496,37.9225L143.496,35.2199M143.424,37.9225L143.424,35.2681M143.352,37.9225L143.352,35.316M143.28,37.9225L143.28,35.3639M143.208,37.9225L143.208,35.4121M143.136,37.9225L143.136,36.7489M143.136,36.7129L143.136,35.4234M143.064,37.9225L143.064,36.7489M143.064,36.6409L143.064,35.3498M142.992,37.9225L142.992,36.7489M142.992,36.5689L142.992,35.276M142.92,37.9225L142.92,36.7489M142.92,36.4969L142.92,35.2026M142.848,37.9225L142.848,36.7489M142.848,36.4249L142.848,35.1289M142.776,37.9225L142.776,36.7489M142.776,36.3529L142.776,35.0552M142.704,37.9225L142.704,36.7489M142.704,36.2809L142.704,34.9815M142.632,37.9225L142.632,36.7489M142.632,36.2089L142.632,34.9081M142.56,37.9225L142.56,36.7489M142.56,36.1369L142.56,34.8344M142.488,37.9225L142.488,36.7489M142.488,36.0649L142.488,34.7607M142.416,37.9225L142.416,36.7489M142.416,35.9929L142.416,34.6873M142.344,37.9225L142.344,36.7489M142.344,35.9209L142.344,34.6136M142.272,37.9225L142.272,36.7489M142.272,35.8489L142.272,34.5398M142.2,37.9225L142.2,36.7489M142.2,35.7769L142.2,34.4662M142.128,37.9225L142.128,36.7489M142.128,35.7049L142.128,34.3927M142.056,37.9225L142.056,36.7489M142.056,35.6329L142.056,34.3191M141.984,37.9225L141.984,36.7489M141.984,35.5609L141.984,34.2454M141.912,37.9225L141.912,36.7489M141.912,35.4889L141.912,34.1719M141.84,37.9225L141.84,36.7489M141.84,35.4169L141.84,34.0983M141.768,37.9225L141.768,36.7489M141.768,35.3449L141.768,34.0245M141.696,37.9225L141.696,36.7489M141.696,35.2729L141.696,33.9508M141.624,37.9225L141.624,36.7489M141.624,35.2009L141.624,33.8774M141.552,37.9225L141.552,36.7489M141.48,37.9225L141.48,36.7489M141.408,37.9225L141.408,36.7489M141.336,37.9225L141.336,36.7489M141.264,37.9225L141.264,36.7489M141.192,37.9225L141.192,36.7489M141.12,37.9225L141.12,36.7489M141.048,37.9225L141.048,36.7489M140.976,37.9225L140.976,36.7489M140.904,37.9225L140.904,36.7489M140.832,37.9225L140.832,36.7489M140.76,37.9225L140.76,36.7489M140.688,37.9225L140.688,36.7489M140.616,37.9225L140.616,36.7489M140.544,37.9225L140.544,36.7489M140.472,37.8471L140.472,36.7489M140.4,37.7209L140.4,36.7489M140.328,37.5948L140.328,36.7489M140.256,37.4684L140.256,36.7489M140.184,37.3422L140.184,36.7489M140.112,37.2161L140.112,36.7489M140.04,37.0899L140.04,36.7489M139.968,36.9638L139.968,36.7489M139.896,36.8374L139.896,36.7489"/>
    </g>
    <g  stroke-width="0">
     <title >polygon</title>
     <path  fill="none" stroke="white" stroke-linecap="round" stroke-width="0.072" d="M146.002,32.7455L142.373,32.7455M142.373,32.7455L142.315,32.7455M142.315,32.7455L142.308,33.876M142.308,33.876L141.552,33.12M141.552,33.12L141.552,32.7311M141.552,32.7311L141.422,32.7311M141.422,32.7311L140.818,32.6809M140.818,32.6809L140.657,32.6387M140.657,32.6387L140.507,32.5684M140.507,32.5684L140.371,32.472M140.371,32.472L140.17,32.2614M140.17,32.2614L140.014,32.0153M140.014,32.0153L139.91,31.7438M139.91,31.7438L139.86,31.4569M139.86,31.4569L139.86,31.0175M139.86,31.0175L139.882,30.6431M139.882,30.6431L139.882,30.636M139.882,30.636L140.738,30.636M140.738,30.636L140.738,30.6575M140.738,30.6575L140.731,30.7369M140.731,30.7369L140.707,30.9997M140.707,30.9997L140.731,31.2625M140.731,31.2625L140.761,31.3512M140.761,31.3512L140.816,31.4277M140.816,31.4277L140.89,31.4855M140.89,31.4855L141.018,31.5388M141.018,31.5388L141.156,31.5575M141.156,31.5575L141.552,31.5575M141.552,31.5575L141.552,31.2409M141.552,31.2409L141.552,30.7151M141.552,30.7151L142.308,30.7151M142.308,30.7151L142.308,31.5649M142.308,31.5649L146.002,31.5649M146.002,31.5649L146.002,32.7455M145.944,32.7455L145.944,31.5649M145.872,32.7455L145.872,31.5649M145.8,32.7455L145.8,31.5649M145.728,32.7455L145.728,31.5649M145.656,32.7455L145.656,31.5649M145.584,32.7455L145.584,31.5649M145.512,32.7455L145.512,31.5649M145.44,32.7455L145.44,31.5649M145.368,32.7455L145.368,31.5649M145.296,32.7455L145.296,31.5649M145.224,32.7455L145.224,31.5649M145.152,32.7455L145.152,31.5649M145.08,32.7455L145.08,31.5649M145.008,32.7455L145.008,31.5649M144.936,32.7455L144.936,31.5649M144.864,32.7455L144.864,31.5649M144.792,32.7455L144.792,31.5649M144.72,32.7455L144.72,31.5649M144.648,32.7455L144.648,31.5649M144.576,32.7455L144.576,31.5649M144.504,32.7455L144.504,31.5649M144.432,32.7455L144.432,31.5649M144.36,32.7455L144.36,31.5649M144.288,32.7455L144.288,31.5649M144.216,32.7455L144.216,31.5649M144.144,32.7455L144.144,31.5649M144.072,32.7455L144.072,31.5649M144,32.7455L144,31.5649M143.928,32.7455L143.928,31.5649M143.856,32.7455L143.856,31.5649M143.784,32.7455L143.784,31.5649M143.712,32.7455L143.712,31.5649M143.64,32.7455L143.64,31.5649M143.568,32.7455L143.568,31.5649M143.496,32.7455L143.496,31.5649M143.424,32.7455L143.424,31.5649M143.352,32.7455L143.352,31.5649M143.28,32.7455L143.28,31.5649M143.208,32.7455L143.208,31.5649M143.136,32.7455L143.136,31.5649M143.064,32.7455L143.064,31.5649M142.992,32.7455L142.992,31.5649M142.92,32.7455L142.92,31.5649M142.848,32.7455L142.848,31.5649M142.776,32.7455L142.776,31.5649M142.704,32.7455L142.704,31.5649M142.632,32.7455L142.632,31.5649M142.56,32.7455L142.56,31.5649M142.488,32.7455L142.488,31.5649M142.416,32.7455L142.416,31.5649M142.344,32.7455L142.344,31.5649M142.272,33.84L142.272,30.7151M142.2,33.768L142.2,30.7151M142.128,33.696L142.128,30.7151M142.056,33.624L142.056,30.7151M141.984,33.552L141.984,30.7151M141.912,33.48L141.912,30.7151M141.84,33.408L141.84,30.7151M141.768,33.336L141.768,30.7151M141.696,33.264L141.696,30.7151M141.624,33.192L141.624,30.7151M141.552,32.7311L141.552,31.5575M141.48,32.7311L141.48,31.5575M141.408,32.73L141.408,31.5575M141.336,32.724L141.336,31.5575M141.264,32.718L141.264,31.5575M141.192,32.7121L141.192,31.5575M141.12,32.7061L141.12,31.5524M141.048,32.7002L141.048,31.5428M140.976,32.6943L140.976,31.5212M140.904,32.6883L140.904,31.4915M140.832,32.6823L140.832,31.4402M140.76,32.6659L140.76,31.3469M140.688,32.6469L140.688,30.636M140.616,32.6197L140.616,30.636M140.544,32.5863L140.544,30.636M140.472,32.544L140.472,30.636M140.4,32.4927L140.4,30.636M140.328,32.4269L140.328,30.636M140.256,32.3515L140.256,30.636M140.184,32.2762L140.184,30.636M140.112,32.1698L140.112,30.636M140.04,32.0561L140.04,30.636M139.968,31.8954L139.968,30.636M139.896,31.6652L139.896,30.636"/>
    </g>
    <g  stroke-width="0">
     <title >polygon</title>
     <path  fill="none" stroke="white" stroke-linecap="round" stroke-width="0.072" d="M141.538,30.2975L144.598,30.2975M144.598,30.2975L144.909,30.2689M144.909,30.2689L145.21,30.1841M145.21,30.1841L145.492,30.0455M145.492,30.0455L145.742,29.8585M145.742,29.8585L145.807,29.7865M145.807,29.7865L145.956,29.5308M145.956,29.5308L146.053,29.2513M146.053,29.2513L146.095,28.9585M146.095,28.9585L146.087,28.535M146.087,28.535L146.023,28.116M146.023,28.116L146,28.0418M146,28.0418L145.966,27.972M145.966,27.972L145.778,27.7084M145.778,27.7084L145.556,27.474M145.556,27.474L145.303,27.2735M145.303,27.2735L145.303,27.2665M145.303,27.2665L145.98,27.2665M145.98,27.2665L145.98,26.1289M145.98,26.1289L141.552,26.1289M141.552,26.1289L141.552,27.324M141.552,27.324L143.906,27.324M143.906,27.324L144.258,27.3458M144.258,27.3458L144.605,27.4105M144.605,27.4105L144.768,27.4722M144.768,27.4722L144.912,27.5697M144.912,27.5697L145.03,27.6979M145.03,27.6979L145.116,27.8495M145.116,27.8495L145.178,28.0528M145.178,28.0528L145.198,28.2642M145.198,28.2642L145.174,28.4754M145.174,28.4754L145.109,28.6775M145.109,28.6775L145.042,28.796M145.042,28.796L144.952,28.8984M144.952,28.8984L144.842,28.98M144.842,28.98L144.617,29.0807M144.617,29.0807L144.374,29.124M144.374,29.124L141.538,29.124M141.538,29.124L141.538,30.2975M146.088,29.0081L146.088,28.6172M146.016,29.3584L146.016,28.0933M145.944,29.5518L145.944,27.9417M145.944,27.2665L145.944,26.1289M145.872,29.6753L145.872,27.8402M145.872,27.2665L145.872,26.1289M145.8,29.7944L145.8,27.7384M145.8,27.2665L145.8,26.1289M145.728,29.8695L145.728,27.6551M145.728,27.2665L145.728,26.1289M145.656,29.9231L145.656,27.5791M145.656,27.2665L145.656,26.1289M145.584,29.9767L145.584,27.5034M145.584,27.2665L145.584,26.1289M145.512,30.0306L145.512,27.4391M145.512,27.2665L145.512,26.1289M145.44,30.0711L145.44,27.3821M145.44,27.2665L145.44,26.1289M145.368,30.1068L145.368,27.3252M145.368,27.2665L145.368,26.1289M145.296,30.1422L145.296,26.1289M145.224,30.1776L145.224,26.1289M145.152,30.2009L145.152,28.5443M145.152,27.9672L145.152,26.1289M145.08,30.221L145.08,28.7283M145.08,27.7857L145.08,26.1289M145.008,30.2414L145.008,28.8343M145.008,27.6735L145.008,26.1289M144.936,30.2615L144.936,28.91M144.936,27.5956L144.936,26.1289M144.864,30.2732L144.864,28.9639M144.864,27.5372L144.864,26.1289M144.792,30.28L144.792,29.0024M144.792,27.4884L144.792,26.1289M144.72,30.2865L144.72,29.0347M144.72,27.4538L144.72,26.1289M144.648,30.293L144.648,29.0668M144.648,27.4266L144.648,26.1289M144.576,30.2975L144.576,29.088M144.576,27.4048L144.576,26.1289M144.504,30.2975L144.504,29.1007M144.504,27.3915L144.504,26.1289M144.432,30.2975L144.432,29.1135M144.432,27.3781L144.432,26.1289M144.36,30.2975L144.36,29.124M144.36,27.3645L144.36,26.1289M144.288,30.2975L144.288,29.124M144.288,27.3512L144.288,26.1289M144.216,30.2975L144.216,29.124M144.216,27.343L144.216,26.1289M144.144,30.2975L144.144,29.124M144.144,27.3385L144.144,26.1289M144.072,30.2975L144.072,29.124M144.072,27.3342L144.072,26.1289M144,30.2975L144,29.124M144,27.3297L144,26.1289M143.928,30.2975L143.928,29.124M143.928,27.3252L143.928,26.1289M143.856,30.2975L143.856,29.124M143.856,27.324L143.856,26.1289M143.784,30.2975L143.784,29.124M143.784,27.324L143.784,26.1289M143.712,30.2975L143.712,29.124M143.712,27.324L143.712,26.1289M143.64,30.2975L143.64,29.124M143.64,27.324L143.64,26.1289M143.568,30.2975L143.568,29.124M143.568,27.324L143.568,26.1289M143.496,30.2975L143.496,29.124M143.496,27.324L143.496,26.1289M143.424,30.2975L143.424,29.124M143.424,27.324L143.424,26.1289M143.352,30.2975L143.352,29.124M143.352,27.324L143.352,26.1289M143.28,30.2975L143.28,29.124M143.28,27.324L143.28,26.1289M143.208,30.2975L143.208,29.124M143.208,27.324L143.208,26.1289M143.136,30.2975L143.136,29.124M143.136,27.324L143.136,26.1289M143.064,30.2975L143.064,29.124M143.064,27.324L143.064,26.1289M142.992,30.2975L142.992,29.124M142.992,27.324L142.992,26.1289M142.92,30.2975L142.92,29.124M142.92,27.324L142.92,26.1289M142.848,30.2975L142.848,29.124M142.848,27.324L142.848,26.1289M142.776,30.2975L142.776,29.124M142.776,27.324L142.776,26.1289M142.704,30.2975L142.704,29.124M142.704,27.324L142.704,26.1289M142.632,30.2975L142.632,29.124M142.632,27.324L142.632,26.1289M142.56,30.2975L142.56,29.124M142.56,27.324L142.56,26.1289M142.488,30.2975L142.488,29.124M142.488,27.324L142.488,26.1289M142.416,30.2975L142.416,29.124M142.416,27.324L142.416,26.1289M142.344,30.2975L142.344,29.124M142.344,27.324L142.344,26.1289M142.272,30.2975L142.272,29.124M142.272,27.324L142.272,26.1289M142.2,30.2975L142.2,29.124M142.2,27.324L142.2,26.1289M142.128,30.2975L142.128,29.124M142.128,27.324L142.128,26.1289M142.056,30.2975L142.056,29.124M142.056,27.324L142.056,26.1289M141.984,30.2975L141.984,29.124M141.984,27.324L141.984,26.1289M141.912,30.2975L141.912,29.124M141.912,27.324L141.912,26.1289M141.84,30.2975L141.84,29.124M141.84,27.324L141.84,26.1289M141.768,30.2975L141.768,29.124M141.768,27.324L141.768,26.1289M141.696,30.2975L141.696,29.124M141.696,27.324L141.696,26.1289M141.624,30.2975L141.624,29.124M141.624,27.324L141.624,26.1289M141.552,30.2975L141.552,29.124"/>
    </g>
    <g  stroke-width="0">
     <title >polygon</title>
     <path  fill="none" stroke="white" stroke-linecap="round" stroke-width="0.072" d="M141.545,25.4231L141.545,24.2785M141.545,24.2785L142.171,24.2785M142.171,24.2785L142.171,24.2569M142.171,24.2569L142.165,24.2294M142.165,24.2294L142.15,24.2065M142.15,24.2065L142.106,24.1705M142.106,24.1705L141.998,24.0911M141.998,24.0911L141.864,23.9772M141.864,23.9772L141.746,23.8465M141.746,23.8465L141.586,23.5916M141.586,23.5916L141.481,23.3093M141.481,23.3093L141.437,23.0111M141.437,23.0111L141.451,22.4425M141.451,22.4425L141.51,22.1655M141.51,22.1655L141.629,21.909M141.629,21.909L141.804,21.6865M141.804,21.6865L141.967,21.5479M141.967,21.5479L142.151,21.4387M142.151,21.4387L142.351,21.3625M142.351,21.3625L142.665,21.2944M142.665,21.2944L142.985,21.2689M142.985,21.2689L145.973,21.2689M145.973,21.2689L145.973,22.428M145.973,22.428L143.237,22.428M143.237,22.428L143.029,22.4467M143.029,22.4467L142.827,22.5025M142.827,22.5025L142.639,22.5935M142.639,22.5935L142.523,22.6822M142.523,22.6822L142.43,22.7946M142.43,22.7946L142.366,22.9249M142.366,22.9249L142.342,23.017M142.342,23.017L142.337,23.112M142.337,23.112L142.351,23.4289M142.351,23.4289L142.376,23.5922M142.376,23.5922L142.438,23.7458M142.438,23.7458L142.531,23.8825M142.531,23.8825L142.699,24.0347M142.699,24.0347L142.898,24.1415M142.898,24.1415L143.118,24.2047M143.118,24.2047L143.345,24.228M143.345,24.228L143.539,24.228M143.539,24.228L146.002,24.228M146.002,24.228L146.002,25.4231M146.002,25.4231L141.545,25.4231M145.944,25.4231L145.944,24.228M145.944,22.428L145.944,21.2689M145.872,25.4231L145.872,24.228M145.872,22.428L145.872,21.2689M145.8,25.4231L145.8,24.228M145.8,22.428L145.8,21.2689M145.728,25.4231L145.728,24.228M145.728,22.428L145.728,21.2689M145.656,25.4231L145.656,24.228M145.656,22.428L145.656,21.2689M145.584,25.4231L145.584,24.228M145.584,22.428L145.584,21.2689M145.512,25.4231L145.512,24.228M145.512,22.428L145.512,21.2689M145.44,25.4231L145.44,24.228M145.44,22.428L145.44,21.2689M145.368,25.4231L145.368,24.228M145.368,22.428L145.368,21.2689M145.296,25.4231L145.296,24.228M145.296,22.428L145.296,21.2689M145.224,25.4231L145.224,24.228M145.224,22.428L145.224,21.2689M145.152,25.4231L145.152,24.228M145.152,22.428L145.152,21.2689M145.08,25.4231L145.08,24.228M145.08,22.428L145.08,21.2689M145.008,25.4231L145.008,24.228M145.008,22.428L145.008,21.2689M144.936,25.4231L144.936,24.228M144.936,22.428L144.936,21.2689M144.864,25.4231L144.864,24.228M144.864,22.428L144.864,21.2689M144.792,25.4231L144.792,24.228M144.792,22.428L144.792,21.2689M144.72,25.4231L144.72,24.228M144.72,22.428L144.72,21.2689M144.648,25.4231L144.648,24.228M144.648,22.428L144.648,21.2689M144.576,25.4231L144.576,24.228M144.576,22.428L144.576,21.2689M144.504,25.4231L144.504,24.228M144.504,22.428L144.504,21.2689M144.432,25.4231L144.432,24.228M144.432,22.428L144.432,21.2689M144.36,25.4231L144.36,24.228M144.36,22.428L144.36,21.2689M144.288,25.4231L144.288,24.228M144.288,22.428L144.288,21.2689M144.216,25.4231L144.216,24.228M144.216,22.428L144.216,21.2689M144.144,25.4231L144.144,24.228M144.144,22.428L144.144,21.2689M144.072,25.4231L144.072,24.228M144.072,22.428L144.072,21.2689M144,25.4231L144,24.228M144,22.428L144,21.2689M143.928,25.4231L143.928,24.228M143.928,22.428L143.928,21.2689M143.856,25.4231L143.856,24.228M143.856,22.428L143.856,21.2689M143.784,25.4231L143.784,24.228M143.784,22.428L143.784,21.2689M143.712,25.4231L143.712,24.228M143.712,22.428L143.712,21.2689M143.64,25.4231L143.64,24.228M143.64,22.428L143.64,21.2689M143.568,25.4231L143.568,24.228M143.568,22.428L143.568,21.2689M143.496,25.4231L143.496,24.228M143.496,22.428L143.496,21.2689M143.424,25.4231L143.424,24.228M143.424,22.428L143.424,21.2689M143.352,25.4231L143.352,24.228M143.352,22.428L143.352,21.2689M143.28,25.4231L143.28,24.2212M143.28,22.428L143.28,21.2689M143.208,25.4231L143.208,24.2138M143.208,22.4305L143.208,21.2689M143.136,25.4231L143.136,24.2065M143.136,22.4371L143.136,21.2689M143.064,25.4231L143.064,24.1892M143.064,22.4433L143.064,21.2689M142.992,25.4231L142.992,24.1685M142.992,22.4569L142.992,21.2689M142.92,25.4231L142.92,24.1475M142.92,22.4767L142.92,21.2743M142.848,25.4231L142.848,24.1143M142.848,22.4966L142.848,21.28M142.776,25.4231L142.776,24.0758M142.776,22.5272L142.776,21.2856M142.704,25.4231L142.704,24.0372M142.704,22.5621L142.704,21.2913M142.632,25.4231L142.632,23.9738M142.632,22.5989L142.632,21.3018M142.56,25.4231L142.56,23.9085M142.56,22.6542L142.56,21.3174M142.488,25.4231L142.488,23.8193M142.488,22.7251L142.488,21.333M142.416,25.4231L142.416,23.6908M142.416,22.824L142.416,21.3486M142.344,25.4231L142.344,23.2705M142.344,23.0091L142.344,21.3653M142.272,25.4231L142.272,21.3928M142.2,25.4231L142.2,21.4203M142.128,25.4231L142.128,24.2785M142.128,24.1886L142.128,21.4526M142.056,25.4231L142.056,24.2785M142.056,24.1336L142.056,21.4954M141.984,25.4231L141.984,24.2785M141.984,24.0789L141.984,21.5379M141.912,25.4231L141.912,24.2785M141.912,24.0177L141.912,21.5946M141.84,25.4231L141.84,24.2785M141.84,23.9502L141.84,21.6559M141.768,25.4231L141.768,24.2785M141.768,23.8705L141.768,21.7324M141.696,25.4231L141.696,24.2785M141.696,23.7666L141.696,21.8239M141.624,25.4231L141.624,24.2785M141.624,23.6526L141.624,21.92M141.552,25.4231L141.552,24.2785M141.552,23.5009L141.552,22.074M141.48,23.3036L141.48,22.3047"/>
    </g>
    <g  stroke-width="0">
     <title >polygon</title>
     <path  fill="none" stroke="white" stroke-linecap="round" stroke-width="0.072" d="M142.999,14.4071L142.999,15.5951M142.999,15.5951L142.992,15.5951M142.992,15.5951L142.821,15.6146M142.821,15.6146L142.66,15.6722M142.66,15.6722L142.516,15.7649M142.516,15.7649L142.397,15.8876M142.397,15.8876L142.308,16.0345M142.308,16.0345L142.232,16.2663M142.232,16.2663L142.207,16.5095M142.207,16.5095L142.227,16.7533M142.227,16.7533L142.279,16.992M142.279,16.992L142.335,17.117M142.335,17.117L142.423,17.2225M142.423,17.2225L142.687,17.4215M142.687,17.4215L142.984,17.5677M142.984,17.5677L143.303,17.6558M143.303,17.6558L143.633,17.6831M143.633,17.6831L144.081,17.646M144.081,17.646L144.518,17.5465M144.518,17.5465L144.729,17.454M144.729,17.454L144.911,17.3143M144.911,17.3143L145.055,17.1351M145.055,17.1351L145.152,16.9271M145.152,16.9271L145.205,16.6998M145.205,16.6998L145.217,16.4665M145.217,16.4665L145.195,16.293M145.195,16.293L145.144,16.1258M145.144,16.1258L145.066,15.9695M145.066,15.9695L144.963,15.8383M144.963,15.8383L144.835,15.732M144.835,15.732L144.662,15.6376M144.662,15.6376L144.476,15.5747M144.476,15.5747L144.281,15.5449M144.281,15.5449L144.281,14.3929M144.281,14.3929L144.295,14.3929M144.295,14.3929L144.429,14.402M144.429,14.402L144.562,14.4289M144.562,14.4289L144.956,14.5825M144.956,14.5825L145.31,14.8136M145.31,14.8136L145.611,15.1121M145.611,15.1121L145.843,15.4655M145.843,15.4655L145.974,15.7753M145.974,15.7753L146.054,16.1022M146.054,16.1022L146.081,16.4375M146.081,16.4375L146.053,16.8871M146.053,16.8871L145.973,17.3305M145.973,17.3305L145.872,17.6337M145.872,17.6337L145.723,17.9164M145.723,17.9164L145.529,18.1704M145.529,18.1704L145.296,18.3889M145.296,18.3889L145.008,18.5823M145.008,18.5823L144.693,18.7279M144.693,18.7279L144.359,18.8226M144.359,18.8226L144.014,18.864M144.014,18.864L143.309,18.8425M143.309,18.8425L142.887,18.758M142.887,18.758L142.488,18.5947M142.488,18.5947L142.128,18.358M142.128,18.358L141.82,18.0572M141.82,18.0572L141.574,17.7032M141.574,17.7032L141.401,17.3089M141.401,17.3089L141.306,16.882M141.306,16.882L141.3,16.4449M141.3,16.4449L141.353,16.0384M141.353,16.0384L141.444,15.6385M141.444,15.6385L141.574,15.3105M141.574,15.3105L141.772,15.0186M141.772,15.0186L142.027,14.7758M142.027,14.7758L142.33,14.5945M142.33,14.5945L142.657,14.4742M142.657,14.4742L142.999,14.4071M146.016,17.0912L146.016,15.9468M145.944,17.4174L145.944,15.7042M145.872,17.634L145.872,15.5339M145.8,17.7707L145.8,15.4001M145.728,17.907L145.728,15.2906M145.656,18.0042L145.656,15.1812M145.584,18.0986L145.584,15.0857M145.512,18.1866L145.512,15.014M145.44,18.254L145.44,14.9422M145.368,18.3215L145.368,14.8708M145.296,18.3889L145.296,14.8039M145.224,18.4371L145.224,14.7572M145.152,18.4853L145.152,16.9271M145.152,16.151L145.152,14.7101M145.08,18.5334L145.08,17.0819M145.08,15.9985L145.08,14.6633M145.008,18.582L145.008,17.1938M145.008,15.8959L145.008,14.6163M144.936,18.6154L144.936,17.2834M144.936,15.8159L144.936,14.5746M144.864,18.6486L144.864,17.3506M144.864,15.7561L144.864,14.5465M144.792,18.682L144.792,17.4059M144.792,15.7087L144.792,14.5185M144.72,18.7152L144.72,17.458M144.72,15.6694L144.72,14.4904M144.648,18.7404L144.648,17.4897M144.648,15.6331L144.648,14.4624M144.576,18.7608L144.576,17.5212M144.576,15.6087L144.576,14.4343M144.504,18.7812L144.504,17.5499M144.504,15.5843L144.504,14.417M144.432,18.8019L144.432,17.5663M144.432,15.5681L144.432,14.4022M144.36,18.8223L144.36,17.5825M144.36,15.5571L144.36,14.3972M144.288,18.8311L144.288,17.5989M144.288,15.546L144.288,14.3929M144.216,18.8396L144.216,17.6153M144.144,18.8484L144.144,17.6318M144.072,18.8569L144.072,17.6468M144,18.8637L144,17.6527M143.928,18.8615L143.928,17.6587M143.856,18.8592L143.856,17.6647M143.784,18.8572L143.784,17.6706M143.712,18.8549L143.712,17.6766M143.64,18.8527L143.64,17.6826M143.568,18.8504L143.568,17.6777M143.496,18.8484L143.496,17.6718M143.424,18.8461L143.424,17.6658M143.352,18.8438L143.352,17.6599M143.28,18.8368L143.28,17.6494M143.208,18.8223L143.208,17.6295M143.136,18.8078L143.136,17.6097M143.064,18.7937L143.064,17.5895M142.992,18.7793L142.992,17.5697M142.992,15.5951L142.992,14.4085M142.92,18.7648L142.92,17.536M142.92,15.6033L142.92,14.4227M142.848,18.7424L142.848,17.5005M142.848,15.6115L142.848,14.4369M142.776,18.7129L142.776,17.4651M142.776,15.6308L142.776,14.451M142.704,18.6834L142.704,17.4297M142.704,15.6566L142.704,14.4652M142.632,18.654L142.632,17.3798M142.632,15.6903L142.632,14.4836M142.56,18.6245L142.56,17.3254M142.56,15.7365L142.56,14.51M142.488,18.5947L142.488,17.2712M142.488,15.7935L142.488,14.5364M142.416,18.5473L142.416,17.2137M142.416,15.8675L142.416,14.563M142.344,18.5L142.344,17.1272M142.344,15.9746L142.344,14.5894M142.272,18.4527L142.272,16.9597M142.272,16.1433L142.272,14.629M142.2,18.4054L142.2,14.6724M142.128,18.358L142.128,14.7155M142.056,18.288L142.056,14.7588M141.984,18.2177L141.984,14.8172M141.912,18.1474L141.912,14.8853M141.84,18.0774L141.84,14.9536M141.768,17.983L141.768,15.0236M141.696,17.8793L141.696,15.1302M141.624,17.7752L141.624,15.2365M141.552,17.653L141.552,15.3657M141.48,17.4892L141.48,15.5478M141.408,17.3251L141.408,15.7977M141.336,17.0147L141.336,16.1719"/>
    </g>
    <g  stroke-width="0">
     <title >polygon</title>
     <path  fill="none" stroke="white" stroke-linecap="round" stroke-width="0.072" d="M141.293,11.7935L141.307,11.7575M141.307,11.7575L142.135,11.7575M142.135,11.7575L142.178,12.0745M142.178,12.0745L142.366,12.4129M142.366,12.4129L142.682,12.6431M142.682,12.6431L142.942,12.7585M142.942,12.7585L143.366,12.8375M143.366,12.8375L143.899,12.852M143.899,12.852L144.259,12.8015M144.259,12.8015L144.59,12.6935M144.59,12.6935L144.893,12.5351M144.893,12.5351L145.188,12.0529M145.188,12.0529L145.253,11.5415M145.253,11.5415L145.08,11.0305M145.08,11.0305L144.792,10.7135M144.792,10.7135L144.439,10.5551M144.439,10.5551L143.993,10.4471M143.993,10.4471L143.582,10.4471M143.582,10.4471L143.028,10.5191M143.028,10.5191L142.56,10.7351M142.56,10.7351L142.322,10.98M142.322,10.98L142.171,11.2609M142.171,11.2609L142.142,11.6065M142.142,11.6065L142.142,11.6351M142.142,11.6351L141.3,11.6209M141.3,11.6209L141.372,11.052M141.372,11.052L141.53,10.5911M141.53,10.5911L141.919,10.0295M141.919,10.0295L142.279,9.72M142.279,9.72L142.942,9.42494M142.942,9.42494L143.561,9.34553M143.561,9.34553L144.158,9.41753M144.158,9.41753L144.857,9.612M144.857,9.612L145.224,9.84247M145.224,9.84247L145.548,10.1809M145.548,10.1809L145.771,10.4975M145.771,10.4975L145.951,11.0231M145.951,11.0231L146.023,11.736M146.023,11.736L145.908,12.5855M145.908,12.5855L145.404,13.392M145.404,13.392L144.698,13.8455M144.698,13.8455L143.597,14.0185M143.597,14.0185L142.589,13.788M142.589,13.788L141.818,13.1831M141.818,13.1831L141.343,12.2255M141.343,12.2255L141.293,11.808M141.293,11.808L141.293,11.7935M146.016,11.7881L146.016,11.6657M145.944,12.3196L145.944,11.0024M145.872,12.6431L145.872,10.7921M145.8,12.7582L145.8,10.5818M145.728,12.8735L145.728,10.4363M145.656,12.9887L145.656,10.334M145.584,13.1037L145.584,10.2319M145.512,13.2191L145.512,10.1432M145.44,13.3342L145.44,10.0681M145.368,13.415L145.368,9.99266M145.296,13.4612L145.296,9.91757M145.224,13.5076L145.224,11.7695M145.224,11.4562L145.224,9.84247M145.152,13.5539L145.152,12.1118M145.152,11.2433L145.152,9.79711M145.08,13.6001L145.08,12.2295M145.08,11.0305L145.08,9.75204M145.008,13.6465L145.008,12.3471M145.008,10.9513L145.008,9.70668M144.936,13.6927L144.936,12.4648M144.936,10.872L144.936,9.66161M144.864,13.739L144.864,12.5504M144.864,10.7929L144.864,9.61625M144.792,13.7852L144.792,12.5881M144.792,10.7135L144.792,9.59386M144.72,13.8316L144.72,12.6258M144.72,10.6812L144.72,9.57377M144.648,13.8532L144.648,12.6635M144.648,10.6489L144.648,9.55361M144.576,13.8645L144.576,12.6984M144.576,10.6166L144.576,9.53374M144.504,13.8758L144.504,12.7219M144.504,10.5843L144.504,9.51365M144.432,13.8872L144.432,12.7454M144.432,10.5534L144.432,9.49349M144.36,13.8985L144.36,12.7687M144.36,10.5361L144.36,9.4734M144.288,13.9099L144.288,12.7922M144.288,10.5186L144.288,9.45353M144.216,13.9212L144.216,12.8078M144.216,10.5012L144.216,9.43344M144.144,13.9326L144.144,12.8177M144.144,10.4839L144.144,9.41558M144.072,13.9436L144.072,12.8279M144.072,10.4664L144.072,9.40709M144,13.955L144,12.8381M144,10.4491L144,9.39823M143.928,13.9663L143.928,12.848M143.928,10.4471L143.928,9.38974M143.856,13.9776L143.856,12.8506M143.856,10.4471L143.856,9.38095M143.784,13.989L143.784,12.8486M143.784,10.4471L143.784,9.37217M143.712,14.0003L143.712,12.8469M143.712,10.4471L143.712,9.36367M143.64,14.0116L143.64,12.8449M143.64,10.4471L143.64,9.35489M143.568,14.0119L143.568,12.8429M143.568,10.4488L143.568,9.34639M143.496,13.9955L143.496,12.8409M143.496,10.4581L143.496,9.35402M143.424,13.9791L143.424,12.839M143.424,10.4675L143.424,9.3631M143.352,13.9626L143.352,12.8347M143.352,10.4769L143.352,9.37246M143.28,13.9462L143.28,12.8214M143.28,10.4862L143.28,9.38153M143.208,13.9298L143.208,12.8078M143.208,10.4956L143.208,9.39089M143.136,13.9133L143.136,12.7945M143.136,10.5049L143.136,9.40025M143.064,13.8969L143.064,12.7812M143.064,10.5142L143.064,9.40932M142.992,13.8804L142.992,12.7678M142.992,10.5355L142.992,9.41868M142.92,13.864L142.92,12.7488M142.92,10.5687L142.92,9.43452M142.848,13.8473L142.848,12.7168M142.848,10.6021L142.848,9.46656M142.776,13.8308L142.776,12.6845M142.776,10.6353L142.776,9.49889M142.704,13.8144L142.704,12.6524M142.704,10.6685L142.704,9.53093M142.632,13.7979L142.632,12.6063M142.632,10.7016L142.632,9.56297M142.56,13.7653L142.56,12.5541M142.56,10.7351L142.56,9.59501M142.488,13.7089L142.488,12.5016M142.488,10.8091L142.488,9.62705M142.416,13.6525L142.416,12.4494M142.416,10.8833L142.416,9.65909M142.344,13.5958L142.344,12.3738M142.344,10.9576L142.344,9.69106M142.272,13.5394L142.272,12.2437M142.272,11.0735L142.272,9.72626M142.2,13.4827L142.2,12.1133M142.2,11.2071L142.2,9.78804M142.128,13.4263L142.128,11.7575M142.128,11.6351L142.128,9.8501M142.056,13.3696L142.056,11.7575M142.056,11.6337L142.056,9.91188M141.984,13.3132L141.984,11.7575M141.984,11.6325L141.984,9.97402M141.912,13.2568L141.912,11.7575M141.912,11.6314L141.912,10.04M141.84,13.2001L141.84,11.7575M141.84,11.6302L141.84,10.1441M141.768,13.0816L141.768,11.7575M141.768,11.6289L141.768,10.2481M141.696,12.9365L141.696,11.7575M141.696,11.6277L141.696,10.3522M141.624,12.7916L141.624,11.7575M141.624,11.6266L141.624,10.4561M141.552,12.6465L141.552,11.7575M141.552,11.6252L141.552,10.5602M141.48,12.5014L141.48,11.7575M141.48,11.624L141.48,10.7379M141.408,12.3565L141.408,11.7575M141.408,11.6229L141.408,10.9474M141.336,12.1666L141.336,11.7575M141.336,11.6217L141.336,11.3366"/>
    </g>
    <g  stroke-width="0">
     <title >polygon</title>
     <path  fill="none" stroke="white" stroke-linecap="round" stroke-width="0.072" d="M145.973,8.82706L141.422,8.82706M141.422,8.82706L141.422,7.69694M141.422,7.69694L142.049,7.69694M142.049,7.69694L142.034,7.632M142.034,7.632L141.912,7.53847M141.912,7.53847L141.689,7.32247M141.689,7.32247L141.515,7.10646M141.515,7.10646L141.401,6.85446M141.401,6.85446L141.329,6.54492M141.329,6.54492L141.293,6.156M141.293,6.156L141.312,5.88473M141.312,5.88473L141.386,5.62308M141.386,5.62308L141.501,5.39915M141.501,5.39915L141.656,5.20129M141.656,5.20129L141.845,5.03631M141.845,5.03631L142.063,4.91046M142.063,4.91046L142.06,4.89713M142.06,4.89713L142.053,4.8858M142.053,4.8858L142.027,4.86M142.027,4.86L141.89,4.73046M141.89,4.73046L141.675,4.50708M141.675,4.50708L141.494,4.25508M141.494,4.25508L141.383,4.0269M141.383,4.0269L141.317,3.78142M141.317,3.78142L141.3,3.528M141.3,3.528L141.331,3.16516M141.331,3.16516L141.401,2.808M141.401,2.808L141.494,2.56252M141.494,2.56252L141.638,2.34284M141.638,2.34284L141.826,2.16M141.826,2.16L142.092,1.99332M142.092,1.99332L142.386,1.88362M142.386,1.88362L142.697,1.836M142.697,1.836L145.98,1.836M145.98,1.836L145.98,3.03846M145.98,3.03846L143.064,3.03846M143.064,3.03846L142.808,3.06964M142.808,3.06964L142.567,3.16092M142.567,3.16092L142.451,3.24M142.451,3.24L142.357,3.34318M142.357,3.34318L142.289,3.46535M142.289,3.46535L142.25,3.6M142.25,3.6L142.231,3.86305M142.231,3.86305L142.258,4.12554M142.258,4.12554L142.296,4.24885M142.296,4.24885L142.359,4.36082M142.359,4.36082L142.445,4.45692M142.445,4.45692L142.6,4.5703M142.6,4.5703L142.775,4.65052M142.775,4.65052L142.963,4.69446M142.963,4.69446L143.28,4.716M143.28,4.716L145.98,4.716M145.98,4.716L145.98,5.94M145.98,5.94L142.985,5.94M142.985,5.94L142.79,5.96324M142.79,5.96324L142.607,6.03184M142.607,6.03184L142.445,6.14154M142.445,6.14154L142.349,6.24558M142.349,6.24558L142.278,6.3686M142.278,6.3686L142.238,6.50438M142.238,6.50438L142.229,6.64554M142.229,6.64554L142.243,6.89046M142.243,6.89046L142.268,7.0217M142.268,7.0217L142.322,7.14388M142.322,7.14388L142.402,7.25047M142.402,7.25047L142.675,7.488M142.675,7.488L142.836,7.57246M142.836,7.57246L143.012,7.61162M143.012,7.61162L143.194,7.60306M143.194,7.60306L145.973,7.60306M145.973,7.60306L145.973,8.82706M145.944,8.82706L145.944,7.60306M145.944,5.94L145.944,4.716M145.944,3.03846L145.944,1.836M145.872,8.82706L145.872,7.60306M145.872,5.94L145.872,4.716M145.872,3.03846L145.872,1.836M145.8,8.82706L145.8,7.60306M145.8,5.94L145.8,4.716M145.8,3.03846L145.8,1.836M145.728,8.82706L145.728,7.60306M145.728,5.94L145.728,4.716M145.728,3.03846L145.728,1.836M145.656,8.82706L145.656,7.60306M145.656,5.94L145.656,4.716M145.656,3.03846L145.656,1.836M145.584,8.82706L145.584,7.60306M145.584,5.94L145.584,4.716M145.584,3.03846L145.584,1.836M145.512,8.82706L145.512,7.60306M145.512,5.94L145.512,4.716M145.512,3.03846L145.512,1.836M145.44,8.82706L145.44,7.60306M145.44,5.94L145.44,4.716M145.44,3.03846L145.44,1.836M145.368,8.82706L145.368,7.60306M145.368,5.94L145.368,4.716M145.368,3.03846L145.368,1.836M145.296,8.82706L145.296,7.60306M145.296,5.94L145.296,4.716M145.296,3.03846L145.296,1.836M145.224,8.82706L145.224,7.60306M145.224,5.94L145.224,4.716M145.224,3.03846L145.224,1.836M145.152,8.82706L145.152,7.60306M145.152,5.94L145.152,4.716M145.152,3.03846L145.152,1.836M145.08,8.82706L145.08,7.60306M145.08,5.94L145.08,4.716M145.08,3.03846L145.08,1.836M145.008,8.82706L145.008,7.60306M145.008,5.94L145.008,4.716M145.008,3.03846L145.008,1.836M144.936,8.82706L144.936,7.60306M144.936,5.94L144.936,4.716M144.936,3.03846L144.936,1.836M144.864,8.82706L144.864,7.60306M144.864,5.94L144.864,4.716M144.864,3.03846L144.864,1.836M144.792,8.82706L144.792,7.60306M144.792,5.94L144.792,4.716M144.792,3.03846L144.792,1.836M144.72,8.82706L144.72,7.60306M144.72,5.94L144.72,4.716M144.72,3.03846L144.72,1.836M144.648,8.82706L144.648,7.60306M144.648,5.94L144.648,4.716M144.648,3.03846L144.648,1.836M144.576,8.82706L144.576,7.60306M144.576,5.94L144.576,4.716M144.576,3.03846L144.576,1.836M144.504,8.82706L144.504,7.60306M144.504,5.94L144.504,4.716M144.504,3.03846L144.504,1.836M144.432,8.82706L144.432,7.60306M144.432,5.94L144.432,4.716M144.432,3.03846L144.432,1.836M144.36,8.82706L144.36,7.60306M144.36,5.94L144.36,4.716M144.36,3.03846L144.36,1.836M144.288,8.82706L144.288,7.60306M144.288,5.94L144.288,4.716M144.288,3.03846L144.288,1.836M144.216,8.82706L144.216,7.60306M144.216,5.94L144.216,4.716M144.216,3.03846L144.216,1.836M144.144,8.82706L144.144,7.60306M144.144,5.94L144.144,4.716M144.144,3.03846L144.144,1.836M144.072,8.82706L144.072,7.60306M144.072,5.94L144.072,4.716M144.072,3.03846L144.072,1.836M144,8.82706L144,7.60306M144,5.94L144,4.716M144,3.03846L144,1.836M143.928,8.82706L143.928,7.60306M143.928,5.94L143.928,4.716M143.928,3.03846L143.928,1.836M143.856,8.82706L143.856,7.60306M143.856,5.94L143.856,4.716M143.856,3.03846L143.856,1.836M143.784,8.82706L143.784,7.60306M143.784,5.94L143.784,4.716M143.784,3.03846L143.784,1.836M143.712,8.82706L143.712,7.60306M143.712,5.94L143.712,4.716M143.712,3.03846L143.712,1.836M143.64,8.82706L143.64,7.60306M143.64,5.94L143.64,4.716M143.64,3.03846L143.64,1.836M143.568,8.82706L143.568,7.60306M143.568,5.94L143.568,4.716M143.568,3.03846L143.568,1.836M143.496,8.82706L143.496,7.60306M143.496,5.94L143.496,4.716M143.496,3.03846L143.496,1.836M143.424,8.82706L143.424,7.60306M143.424,5.94L143.424,4.716M143.424,3.03846L143.424,1.836M143.352,8.82706L143.352,7.60306M143.352,5.94L143.352,4.716M143.352,3.03846L143.352,1.836M143.28,8.82706L143.28,7.60306M143.28,5.94L143.28,4.716M143.28,3.03846L143.28,1.836M143.208,8.82706L143.208,7.60306M143.208,5.94L143.208,4.7109M143.208,3.03846L143.208,1.836M143.136,8.82706L143.136,7.60594M143.136,5.94L143.136,4.70608M143.136,3.03846L143.136,1.836M143.064,8.82706L143.064,7.60932M143.064,5.94L143.064,4.70126M143.064,3.03846L143.064,1.836M142.992,8.82706L142.992,7.60709M142.992,5.94L142.992,4.69616M142.992,3.04696L142.992,1.836M142.92,8.82706L142.92,7.59089M142.92,5.94765L142.92,4.68426M142.92,3.05574L142.92,1.836M142.848,8.82706L142.848,7.57505M142.848,5.95616L142.848,4.66724M142.848,3.06454L142.848,1.836M142.776,8.82706L142.776,7.54099M142.776,5.96863L142.776,4.65052M142.776,3.08154L142.776,1.836M142.704,8.82706L142.704,7.50305M142.704,5.99556L142.704,4.61764M142.704,3.10904L142.704,1.836M142.632,8.82706L142.632,7.45056M142.632,6.02249L142.632,4.58447M142.632,3.13626L142.632,1.8462M142.56,8.82706L142.56,7.38792M142.56,6.06359L142.56,4.54054M142.56,3.16573L142.56,1.85726M142.488,8.82706L142.488,7.32528M142.488,6.11235L142.488,4.48809M142.488,3.21477L142.488,1.86803M142.416,8.82706L142.416,7.26293M142.416,6.17273L142.416,4.42431M142.416,3.27855L142.416,1.87908M142.344,8.82706L142.344,7.17392M142.344,6.25436L142.344,4.33417M142.344,3.36642L142.344,1.8995M142.272,8.82706L142.272,7.03134M142.272,6.39127L142.272,4.17231M142.272,3.5246L142.272,1.92642M142.2,8.82706L142.2,1.95307M142.128,8.82706L142.128,1.98M142.056,8.82706L142.056,4.91471M142.056,4.89061L142.056,2.016M141.984,8.82706L141.984,7.69694M141.984,7.59377L141.984,4.95638M141.984,4.81918L141.984,2.06107M141.912,8.82706L141.912,7.69694M141.912,7.53847L141.912,4.99805M141.912,4.75115L141.912,2.10614M141.84,8.82706L141.84,7.69694M141.84,7.46899L141.84,5.04113M141.84,4.6783L141.84,2.15122M141.768,8.82706L141.768,7.69694M141.768,7.3993L141.768,5.10378M141.768,4.60346L141.768,2.21612M141.696,8.82706L141.696,7.69694M141.696,7.32953L141.696,5.16642M141.696,4.52863L141.696,2.28586M141.624,8.82706L141.624,7.69694M141.624,7.24169L141.624,5.24211M141.624,4.43565L141.624,2.36324M141.552,8.82706L141.552,7.69694M141.552,7.15209L141.552,5.33395M141.552,4.33531L141.552,2.47351M141.48,8.82706L141.48,7.69694M141.48,7.0285L141.48,5.44026M141.48,4.22561L141.48,2.5988M141.408,6.87033L141.408,5.58113M141.408,4.0782L141.408,2.78929M141.336,6.57553L141.336,5.80167M141.336,3.85143L141.336,3.13795"/>
    </g>
   </g>
  </g>
  <g  stroke-width="0">
   <title >element:S1</title>
   <g  stroke-width="0">
    <title >package:TACTILE-PTH-12MM</title>
    <line  stroke="white" stroke-linecap="round" y1="29.3386" x1="92.6078" y2="32.1732" stroke-width="0.576" x2="92.6078"/>
    <line  stroke="white" stroke-linecap="round" y1="35.0078" x1="89.7732" y2="35.0078" stroke-width="0.576" x2="61.4268"/>
    <line  stroke="white" stroke-linecap="round" y1="32.1732" x1="58.5922" y2="29.3386" stroke-width="0.576" x2="58.5922"/>
    <line  stroke="white" stroke-linecap="round" y1="20.8346" x1="58.5922" y2="15.1654" stroke-width="0.576" x2="58.5922"/>
    <line  stroke="white" stroke-linecap="round" y1="6.66142" x1="58.5922" y2="3.82677" stroke-width="0.576" x2="58.5922"/>
    <line  stroke="white" stroke-linecap="round" y1="0.992124" x1="61.4268" y2="0.992124" stroke-width="0.576" x2="89.7732"/>
    <line  stroke="white" stroke-linecap="round" y1="3.82677" x1="92.6078" y2="6.66142" stroke-width="0.576" x2="92.6078"/>
    <line  stroke="white" stroke-linecap="round" y1="15.1654" x1="92.6078" y2="20.8346" stroke-width="0.576" x2="92.6078"/>
    <path  fill="none" stroke="white" stroke-width="0.576" d="M89.7732,35.0078A2.83465,2.83465,0,0,0,92.6078,32.1732"/>
    <path  fill="none" stroke="white" stroke-width="0.576" d="M58.5922,32.1732A2.83465,2.83465,0,0,0,61.4268,35.0078"/>
    <path  fill="none" stroke="white" stroke-width="0.576" d="M61.4268,0.992124A2.83465,2.83465,0,0,0,58.5922,3.82677"/>
    <path  fill="none" stroke="white" stroke-width="0.576" d="M92.6078,3.82677A2.83465,2.83465,0,0,0,89.7732,0.992124"/>
    <circle  fill="none" cx="75.6" cy="18" stroke="white" r="9.92124" stroke-width="0.576"/>
    <circle  fill="none" cx="88.3562" cy="30.7559" stroke="white" r="0.850392" stroke-width="1.98426"/>
    <circle  fill="none" cx="62.8441" cy="30.7559" stroke="white" r="0.850392" stroke-width="1.98426"/>
    <circle  fill="none" cx="62.8441" cy="5.24409" stroke="white" r="0.850392" stroke-width="1.98426"/>
    <circle  fill="none" cx="88.3562" cy="5.24409" stroke="white" r="0.850392" stroke-width="1.98426"/>
   </g>
  </g>
  <g  stroke-width="0">
   <title >element:S2</title>
   <g  stroke-width="0">
    <title >package:TACTILE-PTH-12MM</title>
    <line  stroke="white" stroke-linecap="round" y1="65.3386" x1="56.6078" y2="68.1732" stroke-width="0.576" x2="56.6078"/>
    <line  stroke="white" stroke-linecap="round" y1="71.0078" x1="53.7732" y2="71.0078" stroke-width="0.576" x2="25.4268"/>
    <line  stroke="white" stroke-linecap="round" y1="68.1732" x1="22.5922" y2="65.3386" stroke-width="0.576" x2="22.5922"/>
    <line  stroke="white" stroke-linecap="round" y1="56.8346" x1="22.5922" y2="51.1654" stroke-width="0.576" x2="22.5922"/>
    <line  stroke="white" stroke-linecap="round" y1="42.6614" x1="22.5922" y2="39.8268" stroke-width="0.576" x2="22.5922"/>
    <line  stroke="white" stroke-linecap="round" y1="36.9922" x1="25.4268" y2="36.9922" stroke-width="0.576" x2="53.7732"/>
    <line  stroke="white" stroke-linecap="round" y1="39.8268" x1="56.6078" y2="42.6614" stroke-width="0.576" x2="56.6078"/>
    <line  stroke="white" stroke-linecap="round" y1="51.1654" x1="56.6078" y2="56.8346" stroke-width="0.576" x2="56.6078"/>
    <path  fill="none" stroke="white" stroke-width="0.576" d="M53.7732,71.0078A2.83465,2.83465,0,0,0,56.6078,68.1732"/>
    <path  fill="none" stroke="white" stroke-width="0.576" d="M22.5922,68.1732A2.83465,2.83465,0,0,0,25.4268,71.0078"/>
    <path  fill="none" stroke="white" stroke-width="0.576" d="M25.4268,36.9922A2.83465,2.83465,0,0,0,22.5922,39.8268"/>
    <path  fill="none" stroke="white" stroke-width="0.576" d="M56.6078,39.8268A2.83465,2.83465,0,0,0,53.7732,36.9922"/>
    <circle  fill="none" cx="39.6" cy="54" stroke="white" r="9.92124" stroke-width="0.576"/>
    <circle  fill="none" cx="52.3559" cy="66.7559" stroke="white" r="0.850392" stroke-width="1.98426"/>
    <circle  fill="none" cx="26.8441" cy="66.7559" stroke="white" r="0.850392" stroke-width="1.98426"/>
    <circle  fill="none" cx="26.8441" cy="41.2441" stroke="white" r="0.850392" stroke-width="1.98426"/>
    <circle  fill="none" cx="52.3559" cy="41.2441" stroke="white" r="0.850392" stroke-width="1.98426"/>
   </g>
  </g>
  <g  stroke-width="0">
   <title >element:S3</title>
   <g  stroke-width="0">
    <title >package:TACTILE-PTH-12MM</title>
    <line  stroke="white" stroke-linecap="round" y1="65.3386" x1="128.608" y2="68.1732" stroke-width="0.576" x2="128.608"/>
    <line  stroke="white" stroke-linecap="round" y1="71.0078" x1="125.773" y2="71.0078" stroke-width="0.576" x2="97.4268"/>
    <line  stroke="white" stroke-linecap="round" y1="68.1732" x1="94.5922" y2="65.3386" stroke-width="0.576" x2="94.5922"/>
    <line  stroke="white" stroke-linecap="round" y1="56.8346" x1="94.5922" y2="51.1654" stroke-width="0.576" x2="94.5922"/>
    <line  stroke="white" stroke-linecap="round" y1="42.6614" x1="94.5922" y2="39.8268" stroke-width="0.576" x2="94.5922"/>
    <line  stroke="white" stroke-linecap="round" y1="36.9922" x1="97.4268" y2="36.9922" stroke-width="0.576" x2="125.773"/>
    <line  stroke="white" stroke-linecap="round" y1="39.8268" x1="128.608" y2="42.6614" stroke-width="0.576" x2="128.608"/>
    <line  stroke="white" stroke-linecap="round" y1="51.1654" x1="128.608" y2="56.8346" stroke-width="0.576" x2="128.608"/>
    <path  fill="none" stroke="white" stroke-width="0.576" d="M125.773,71.0078A2.83465,2.83465,0,0,0,128.608,68.1732"/>
    <path  fill="none" stroke="white" stroke-width="0.576" d="M94.5922,68.1732A2.83465,2.83465,0,0,0,97.4268,71.0078"/>
    <path  fill="none" stroke="white" stroke-width="0.576" d="M97.4268,36.9922A2.83465,2.83465,0,0,0,94.5922,39.8268"/>
    <path  fill="none" stroke="white" stroke-width="0.576" d="M128.608,39.8268A2.83465,2.83465,0,0,0,125.773,36.9922"/>
    <circle  fill="none" cx="111.6" cy="54" stroke="white" r="9.92124" stroke-width="0.576"/>
    <circle  fill="none" cx="124.356" cy="66.7559" stroke="white" r="0.850392" stroke-width="1.98426"/>
    <circle  fill="none" cx="98.8438" cy="66.7559" stroke="white" r="0.850392" stroke-width="1.98426"/>
    <circle  fill="none" cx="98.8438" cy="41.2441" stroke="white" r="0.850392" stroke-width="1.98426"/>
    <circle  fill="none" cx="124.356" cy="41.2441" stroke="white" r="0.850392" stroke-width="1.98426"/>
   </g>
  </g>
  <g  stroke-width="0">
   <title >element:S4</title>
   <g  stroke-width="0">
    <title >package:TACTILE-PTH-12MM</title>
    <line  stroke="white" stroke-linecap="round" y1="101.339" x1="92.6078" y2="104.173" stroke-width="0.576" x2="92.6078"/>
    <line  stroke="white" stroke-linecap="round" y1="107.008" x1="89.7732" y2="107.008" stroke-width="0.576" x2="61.4268"/>
    <line  stroke="white" stroke-linecap="round" y1="104.173" x1="58.5922" y2="101.339" stroke-width="0.576" x2="58.5922"/>
    <line  stroke="white" stroke-linecap="round" y1="92.8346" x1="58.5922" y2="87.1654" stroke-width="0.576" x2="58.5922"/>
    <line  stroke="white" stroke-linecap="round" y1="78.6614" x1="58.5922" y2="75.8268" stroke-width="0.576" x2="58.5922"/>
    <line  stroke="white" stroke-linecap="round" y1="72.9922" x1="61.4268" y2="72.9922" stroke-width="0.576" x2="89.7732"/>
    <line  stroke="white" stroke-linecap="round" y1="75.8268" x1="92.6078" y2="78.6614" stroke-width="0.576" x2="92.6078"/>
    <line  stroke="white" stroke-linecap="round" y1="87.1654" x1="92.6078" y2="92.8346" stroke-width="0.576" x2="92.6078"/>
    <path  fill="none" stroke="white" stroke-width="0.576" d="M89.7732,107.008A2.83465,2.83465,0,0,0,92.6078,104.173"/>
    <path  fill="none" stroke="white" stroke-width="0.576" d="M58.5922,104.173A2.83465,2.83465,0,0,0,61.4268,107.008"/>
    <path  fill="none" stroke="white" stroke-width="0.576" d="M61.4268,72.9922A2.83465,2.83465,0,0,0,58.5922,75.8268"/>
    <path  fill="none" stroke="white" stroke-width="0.576" d="M92.6078,75.8268A2.83465,2.83465,0,0,0,89.7732,72.9922"/>
    <circle  fill="none" cx="75.6" cy="90" stroke="white" r="9.92124" stroke-width="0.576"/>
    <circle  fill="none" cx="88.3562" cy="102.756" stroke="white" r="0.850392" stroke-width="1.98426"/>
    <circle  fill="none" cx="62.8441" cy="102.756" stroke="white" r="0.850392" stroke-width="1.98426"/>
    <circle  fill="none" cx="62.8441" cy="77.2438" stroke="white" r="0.850392" stroke-width="1.98426"/>
    <circle  fill="none" cx="88.3562" cy="77.2438" stroke="white" r="0.850392" stroke-width="1.98426"/>
   </g>
  </g>
  <g  stroke-width="0">
   <title >element:S6</title>
   <g  stroke-width="0">
    <title >package:TACTILE-PTH</title>
    <line  stroke="white" stroke-linecap="round" y1="178.56" x1="142.92" y2="178.56" stroke-width="0.576" x2="130.68"/>
    <line  stroke="white" stroke-linecap="round" y1="195.84" x1="130.68" y2="195.84" stroke-width="0.576" x2="142.92"/>
    <line  stroke="white" stroke-linecap="round" y1="184.371" x1="145.44" y2="190.08" stroke-width="0.576" x2="145.44"/>
    <line  stroke="white" stroke-linecap="round" y1="184.286" x1="128.16" y2="190.08" stroke-width="0.576" x2="128.16"/>
    <circle  fill="none" cx="136.8" cy="187.2" stroke="white" r="5.04" stroke-width="0.576"/>
   </g>
  </g>
  <g  stroke-width="0">
   <title >element:U1</title>
   <g  stroke-width="0">
    <title >package:DUEMILANOVE_SHIELD</title>
   </g>
  </g>
  <g  stroke-width="0">
   <title >element:U2</title>
   <g  stroke-width="0">
    <title >package:JOYSTICK</title>
    <line  stroke="white" stroke-linecap="round" y1="162" x1="91.44" y2="162" stroke-width="0.576" x2="59.76"/>
    <line  stroke="white" stroke-linecap="round" y1="234" x1="89.28" y2="234" stroke-width="0.576" x2="61.92"/>
    <line  stroke="white" stroke-linecap="round" y1="234" x1="89.28" y2="226.8" stroke-width="0.576" x2="89.28"/>
    <line  stroke="white" stroke-linecap="round" y1="234" x1="61.92" y2="226.8" stroke-width="0.576" x2="61.92"/>
    <line  stroke="white" stroke-linecap="round" y1="226.8" x1="89.28" y2="226.8" stroke-width="0.576" x2="97.2"/>
    <line  stroke="white" stroke-linecap="round" y1="226.8" x1="61.92" y2="226.8" stroke-width="0.576" x2="54"/>
    <line  stroke="white" stroke-linecap="round" y1="190.08" x1="102.6" y2="213.12" stroke-width="0.576" x2="102.6"/>
    <line  stroke="white" stroke-linecap="round" y1="190.08" x1="97.2" y2="181.8" stroke-width="0.576" x2="97.2"/>
    <line  stroke="white" stroke-linecap="round" y1="213.12" x1="97.2" y2="226.8" stroke-width="0.576" x2="97.2"/>
    <line  stroke="white" stroke-linecap="round" y1="190.08" x1="97.2" y2="190.08" stroke-width="0.576" x2="102.6"/>
    <line  stroke="white" stroke-linecap="round" y1="213.12" x1="97.2" y2="213.12" stroke-width="0.576" x2="102.6"/>
    <line  stroke="white" stroke-linecap="round" y1="181.8" x1="97.2" y2="181.8" stroke-width="0.576" x2="91.44"/>
    <line  stroke="white" stroke-linecap="round" y1="181.8" x1="59.76" y2="181.8" stroke-width="0.576" x2="54"/>
    <line  stroke="white" stroke-linecap="round" y1="162" x1="91.44" y2="181.8" stroke-width="0.576" x2="91.44"/>
    <line  stroke="white" stroke-linecap="round" y1="162" x1="59.76" y2="181.8" stroke-width="0.576" x2="59.76"/>
    <line  stroke="white" stroke-linecap="round" y1="187.92" x1="54" y2="187.92" stroke-width="0.576" x2="43.92"/>
    <line  stroke="white" stroke-linecap="round" y1="215.28" x1="54" y2="215.28" stroke-width="0.576" x2="43.92"/>
    <line  stroke="white" stroke-linecap="round" y1="187.92" x1="43.92" y2="215.28" stroke-width="0.576" x2="43.92"/>
    <line  stroke="white" stroke-linecap="round" y1="187.92" x1="54" y2="181.8" stroke-width="0.576" x2="54"/>
    <line  stroke="white" stroke-linecap="round" y1="215.28" x1="54" y2="226.8" stroke-width="0.576" x2="54"/>
    <circle  fill="none" cx="75.6" cy="201.6" stroke="white" r="1.8" stroke-width="0.576"/>
   </g>
  </g>
 </g>
 <g  id="copper1" stroke-width="0">
  <g  id="copper0" stroke-width="0">
   <circle  fill="none" cx="7.2" cy="129.6" connectorname="D6" stroke="#F7BD13" r="2.052" id="connector33pad" stroke-width="1.224"/>
   <circle  fill="none" cx="7.2" cy="162" connectorname="D10" stroke="#F7BD13" r="2.052" id="connector37pad" stroke-width="1.224"/>
   <circle  fill="none" cx="7.2" cy="86.4" connectorname="RX" stroke="#F7BD13" r="2.052" id="connector45pad" stroke-width="1.224"/>
   <circle  fill="none" cx="7.2" cy="147.6" connectorname="D8" stroke="#F7BD13" r="2.052" id="connector35pad" stroke-width="1.224"/>
   <circle  fill="none" cx="7.2" cy="176.4" connectorname="D12" stroke="#F7BD13" r="2.052" id="connector39pad" stroke-width="1.224"/>
   <circle  fill="none" cx="7.2" cy="122.4" connectorname="D5" stroke="#F7BD13" r="2.052" id="connector32pad" stroke-width="1.224"/>
   <circle  fill="none" cx="7.2" cy="136.8" connectorname="D7" stroke="#F7BD13" r="2.052" id="connector34pad" stroke-width="1.224"/>
   <circle  fill="none" cx="7.2" cy="154.8" connectorname="D9" stroke="#F7BD13" r="2.052" id="connector36pad" stroke-width="1.224"/>
   <circle  fill="none" cx="7.2" cy="169.2" connectorname="D11" stroke="#F7BD13" r="2.052" id="connector38pad" stroke-width="1.224"/>
   <circle  fill="none" cx="7.2" cy="183.6" connectorname="D13" stroke="#F7BD13" r="2.052" id="connector40pad" stroke-width="1.224"/>
   <circle  fill="none" cx="144" cy="165.6" connectorname="3.3V" stroke="#F7BD13" r="2.052" id="connector20pad" stroke-width="1.224"/>
   <circle  fill="none" cx="144" cy="158.4" connectorname="5V" stroke="#F7BD13" r="2.052" id="connector21pad" stroke-width="1.224"/>
   <circle  fill="none" cx="144" cy="172.8" connectorname="RESET" stroke="#F7BD13" r="2.052" id="connector44pad" stroke-width="1.224"/>
   <circle  fill="none" cx="144" cy="122.4" connectorname="VERTICAL - A0" stroke="#F7BD13" r="2.052" id="connector22pad" stroke-width="1.224"/>
   <circle  fill="none" cx="7.2" cy="93.6" connectorname="TX" stroke="#F7BD13" r="2.052" id="connector46pad" stroke-width="1.224"/>
   <circle  fill="none" cx="144" cy="115.2" connectorname="HORIZONTAL - A1" stroke="#F7BD13" r="2.052" id="connector23pad" stroke-width="1.224"/>
   <circle  fill="none" cx="144" cy="108" connectorname="A2" stroke="#F7BD13" r="2.052" id="connector24pad" stroke-width="1.224"/>
   <circle  fill="none" cx="144" cy="100.8" connectorname="A3" stroke="#F7BD13" r="2.052" id="connector25pad" stroke-width="1.224"/>
   <circle  fill="none" cx="144" cy="93.6" connectorname="A4" stroke="#F7BD13" r="2.052" id="connector26pad" stroke-width="1.224"/>
   <circle  fill="none" cx="144" cy="86.4" connectorname="A5" stroke="#F7BD13" r="2.052" id="connector27pad" stroke-width="1.224"/>
   <circle  fill="none" cx="7.2" cy="198" connectorname="AREF" stroke="#F7BD13" r="2.052" id="connector28pad" stroke-width="1.224"/>
   <circle  fill="none" cx="7.2" cy="100.8" connectorname="SEL - D2" stroke="#F7BD13" r="2.052" id="connector29pad" stroke-width="1.224"/>
   <circle  fill="none" cx="7.2" cy="108" connectorname="D3" stroke="#F7BD13" r="2.052" id="connector30pad" stroke-width="1.224"/>
   <circle  fill="none" cx="7.2" cy="115.2" connectorname="D4" stroke="#F7BD13" r="2.052" id="connector31pad" stroke-width="1.224"/>
  </g>
 </g>
</svg>
