<?xml version="1.0" encoding="utf-8"?>
<!-- Generator: Adobe Illustrator 16.0.0, SVG Export Plug-In . SVG Version: 6.00 Build 0)  -->
<!DOCTYPE svg PUBLIC "-//W3C//DTD SVG 1.1//EN" "http://www.w3.org/Graphics/SVG/1.1/DTD/svg11.dtd">
<svg version="1.1" id="svg2" xmlns:svg="http://www.w3.org/2000/svg"
	 xmlns="http://www.w3.org/2000/svg" xmlns:xlink="http://www.w3.org/1999/xlink" x="0px" y="0px" width="205.393px"
	 height="64.957px" viewBox="0 0 205.393 64.957" enable-background="new 0 0 205.393 64.957" xml:space="preserve">
<g id="copper0">
	<g id="copper1">
		<g id="connector42pin">
			<circle id="circle13" fill="none" stroke="#FF9400" stroke-width="0.9" cx="14.121" cy="3.712" r="2.005"/>
		</g>
		<g id="connector49pin">
			<circle id="circle19" fill="none" stroke="#FF9400" stroke-width="0.9" cx="158.146" cy="61.285" r="2.004"/>
		</g>
		<g id="connector50pin">
			<circle id="circle22" fill="none" stroke="#FF9400" stroke-width="0.9" cx="165.345" cy="61.285" r="2.004"/>
		</g>
		<g id="connector51pin">
			<circle id="circle25" fill="none" stroke="#FF9400" stroke-width="0.9" cx="172.546" cy="61.285" r="2.004"/>
		</g>
		<g id="connector52pin">
			<circle id="circle28" fill="none" stroke="#FF9400" stroke-width="0.9" cx="179.746" cy="61.285" r="2.004"/>
		</g>
		<g id="connector45pin">
			<circle id="circle31" fill="none" stroke="#FF9400" stroke-width="0.9" cx="158.122" cy="3.671" r="2.005"/>
		</g>
		<g id="connector46pin">
			<circle id="circle34" fill="none" stroke="#FF9400" stroke-width="0.9" cx="165.321" cy="3.671" r="2.005"/>
		</g>
		<g id="connector47pin">
			<circle id="circle37" fill="none" stroke="#FF9400" stroke-width="0.9" cx="172.522" cy="3.671" r="2.005"/>
		</g>
		<g id="connector48pin">
			<circle id="circle40" fill="none" stroke="#FF9400" stroke-width="0.9" cx="179.721" cy="3.671" r="2.005"/>
		</g>
		<g id="connector35pin">
			<circle id="circle43" fill="none" stroke="#FF9400" stroke-width="0.9" cx="64.521" cy="3.712" r="2.005"/>
		</g>
		<g id="connector36pin">
			<circle id="circle46" fill="none" stroke="#FF9400" stroke-width="0.9" cx="57.321" cy="3.712" r="2.005"/>
		</g>
		<g id="connector37pin">
			<circle id="circle49" fill="none" stroke="#FF9400" stroke-width="0.9" cx="50.121" cy="3.712" r="2.005"/>
		</g>
		<g id="connector38pin">
			<circle id="circle52" fill="none" stroke="#FF9400" stroke-width="0.9" cx="42.92" cy="3.712" r="2.005"/>
		</g>
		<g id="connector39pin">
			<circle id="circle55" fill="none" stroke="#FF9400" stroke-width="0.9" cx="35.721" cy="3.712" r="2.005"/>
		</g>
		<g id="connector40pin">
			<circle id="circle58" fill="none" stroke="#FF9400" stroke-width="0.9" cx="28.521" cy="3.712" r="2.005"/>
		</g>
		<g id="connector41pin">
			<circle id="circle61" fill="none" stroke="#FF9400" stroke-width="0.9" cx="21.321" cy="3.712" r="2.005"/>
		</g>
		<g id="connector1pin">
			<circle id="circle64" fill="none" stroke="#FF9400" stroke-width="0.9" cx="21.321" cy="61.286" r="2.005"/>
		</g>
		<g id="connector12pin">
			<circle id="circle67" fill="none" stroke="#FF9400" stroke-width="0.9" cx="100.52" cy="61.286" r="2.005"/>
		</g>
		<g id="connector13pin">
			<circle id="circle70" fill="none" stroke="#FF9400" stroke-width="0.9" cx="107.721" cy="61.286" r="2.005"/>
		</g>
		<g id="connector14pin">
			<circle id="circle73" fill="none" stroke="#FF9400" stroke-width="0.9" cx="114.92" cy="61.286" r="2.005"/>
		</g>
		<g id="connector15pin">
			<circle id="circle76" fill="none" stroke="#FF9400" stroke-width="0.9" cx="122.122" cy="61.286" r="2.005"/>
		</g>
		<g id="connector16pin">
			<circle id="circle79" fill="none" stroke="#FF9400" stroke-width="0.9" cx="129.321" cy="61.286" r="2.005"/>
		</g>
		<g id="connector17pin">
			<circle id="circle82" fill="none" stroke="#FF9400" stroke-width="0.9" cx="136.52" cy="61.286" r="2.005"/>
		</g>
		<g id="connector18pin">
			<circle id="circle85" fill="none" stroke="#FF9400" stroke-width="0.9" cx="143.721" cy="61.286" r="2.005"/>
		</g>
		<g id="connector19pin">
			<circle id="circle88" fill="none" stroke="#FF9400" stroke-width="0.9" cx="150.92" cy="61.286" r="2.005"/>
		</g>
		<g id="connector2pin">
			<circle id="circle91" fill="none" stroke="#FF9400" stroke-width="0.9" cx="28.521" cy="61.286" r="2.005"/>
		</g>
		<g id="connector3pin">
			<circle id="circle94" fill="none" stroke="#FF9400" stroke-width="0.9" cx="35.721" cy="61.286" r="2.005"/>
		</g>
		<g id="connector4pin">
			<circle id="circle97" fill="none" stroke="#FF9400" stroke-width="0.9" cx="42.92" cy="61.286" r="2.005"/>
		</g>
		<g id="connector5pin">
			<circle id="circle100" fill="none" stroke="#FF9400" stroke-width="0.9" cx="50.121" cy="61.286" r="2.005"/>
		</g>
		<g id="connector6pin">
			<circle id="circle103" fill="none" stroke="#FF9400" stroke-width="0.9" cx="57.321" cy="61.286" r="2.005"/>
		</g>
		<g id="connector7pin">
			<circle id="circle106" fill="none" stroke="#FF9400" stroke-width="0.9" cx="64.521" cy="61.286" r="2.005"/>
		</g>
		<g id="connector8pin">
			<circle id="circle109" fill="none" stroke="#FF9400" stroke-width="0.9" cx="71.721" cy="61.286" r="2.005"/>
		</g>
		<g id="connector9pin">
			<circle id="circle112" fill="none" stroke="#FF9400" stroke-width="0.9" cx="78.92" cy="61.286" r="2.005"/>
		</g>
		<g id="connector10pin">
			<circle id="circle115" fill="none" stroke="#FF9400" stroke-width="0.9" cx="86.122" cy="61.286" r="2.005"/>
		</g>
		<g id="connector11pin">
			<circle id="circle118" fill="none" stroke="#FF9400" stroke-width="0.9" cx="93.321" cy="61.286" r="2.005"/>
		</g>
		<g id="connector33pin">
			<circle id="circle127" fill="none" stroke="#FF9400" stroke-width="0.9" cx="78.92" cy="3.712" r="2.005"/>
		</g>
		<g id="connector34pin">
			<circle id="circle130" fill="none" stroke="#FF9400" stroke-width="0.9" cx="71.721" cy="3.712" r="2.005"/>
		</g>
		<g id="connector30pin">
			<circle id="circle133" fill="none" stroke="#FF9400" stroke-width="0.9" cx="100.52" cy="3.712" r="2.005"/>
		</g>
		<g id="connector29pin">
			<circle id="circle136" fill="none" stroke="#FF9400" stroke-width="0.9" cx="107.721" cy="3.712" r="2.005"/>
		</g>
		<g id="connector28pin">
			<circle id="circle139" fill="none" stroke="#FF9400" stroke-width="0.9" cx="114.92" cy="3.712" r="2.005"/>
		</g>
		<g id="connector27pin">
			<circle id="circle142" fill="none" stroke="#FF9400" stroke-width="0.9" cx="122.122" cy="3.712" r="2.005"/>
		</g>
		<g id="connector26pin">
			<circle id="circle145" fill="none" stroke="#FF9400" stroke-width="0.9" cx="129.321" cy="3.712" r="2.005"/>
		</g>
		<g id="connector25pin">
			<circle id="circle148" fill="none" stroke="#FF9400" stroke-width="0.9" cx="136.52" cy="3.712" r="2.005"/>
		</g>
		<g id="connector24pin">
			<circle id="circle151" fill="none" stroke="#FF9400" stroke-width="0.9" cx="143.721" cy="3.712" r="2.005"/>
		</g>
		<g id="connector23pin">
			<circle id="circle154" fill="none" stroke="#FF9400" stroke-width="0.9" cx="150.92" cy="3.712" r="2.005"/>
		</g>
		<g id="connector0pin">
			<circle id="circle157" fill="none" stroke="#FF9400" stroke-width="0.9" cx="14.121" cy="61.286" r="2.005"/>
		</g>
		<g id="connector32pin">
			<circle id="circle163" fill="none" stroke="#FF9400" stroke-width="0.9" cx="86.122" cy="3.712" r="2.005"/>
		</g>
		<g id="connector31pin">
			<circle id="circle166" fill="none" stroke="#FF9400" stroke-width="0.9" cx="93.321" cy="3.712" r="2.005"/>
		</g>
	</g>
</g>
<g id="silkscreen">
	<rect x="3.792" y="0.158" fill="none" stroke="#FFFFFF" stroke-width="0.75" width="201.602" height="64.799"/>
	<polyline fill="none" stroke="#FFFFFF" stroke-width="0.75" points="3.792,42.982 0,42.971 0.01,22.417 3.792,22.421 	"/>
	<g>
		
			<text transform="matrix(6.123234e-017 -1 1 6.123234e-017 181.0378 57.2441)" fill="#FFFFFF" font-family="'OCRA'" font-size="3.75">NC</text>
		
			<text transform="matrix(6.123234e-017 -1 1 6.123234e-017 173.8376 57.2441)" fill="#FFFFFF" font-family="'OCRA'" font-size="3.75">SCK</text>
		
			<text transform="matrix(6.123234e-017 -1 1 6.123234e-017 166.6375 57.2441)" fill="#FFFFFF" font-family="'OCRA'" font-size="3.75">MISO</text>
		
			<text transform="matrix(6.123234e-017 -1 1 6.123234e-017 159.4373 57.2441)" fill="#FFFFFF" font-family="'OCRA'" font-size="3.75">VIN</text>
		
			<text transform="matrix(6.123234e-017 -1 1 6.123234e-017 152.2371 57.2441)" fill="#FFFFFF" font-family="'OCRA'" font-size="3.75">GND</text>
		
			<text transform="matrix(6.123234e-017 -1 1 6.123234e-017 145.0369 57.2441)" fill="#FFFFFF" font-family="'OCRA'" font-size="3.75">RST</text>
		
			<text transform="matrix(6.123234e-017 -1 1 6.123234e-017 137.8367 57.2441)" fill="#FFFFFF" font-family="'OCRA'" font-size="3.75">+5V</text>
		
			<text transform="matrix(6.123234e-017 -1 1 6.123234e-017 130.6365 57.2441)" fill="#FFFFFF" font-family="'OCRA'" font-size="3.75">USB+</text>
		
			<text transform="matrix(6.123234e-017 -1 1 6.123234e-017 123.4363 57.2441)" fill="#FFFFFF" font-family="'OCRA'" font-size="3.75">USB-</text>
		
			<text transform="matrix(6.123234e-017 -1 1 6.123234e-017 116.2361 57.2441)" fill="#FFFFFF" font-family="'OCRA'" font-size="3.75">A5</text>
		
			<text transform="matrix(6.123234e-017 -1 1 6.123234e-017 109.0359 57.2441)" fill="#FFFFFF" font-family="'OCRA'" font-size="3.75">A4</text>
		
			<text transform="matrix(6.123234e-017 -1 1 6.123234e-017 101.8357 57.2441)" fill="#FFFFFF" font-family="'OCRA'" font-size="3.75">A3</text>
		
			<text transform="matrix(6.123234e-017 -1 1 6.123234e-017 94.6355 57.2441)" fill="#FFFFFF" font-family="'OCRA'" font-size="3.75">A2</text>
		
			<text transform="matrix(6.123234e-017 -1 1 6.123234e-017 87.4353 57.2441)" fill="#FFFFFF" font-family="'OCRA'" font-size="3.75">A1</text>
		
			<text transform="matrix(6.123234e-017 -1 1 6.123234e-017 80.2351 57.2441)" fill="#FFFFFF" font-family="'OCRA'" font-size="3.75">A0</text>
		
			<text transform="matrix(6.123234e-017 -1 1 6.123234e-017 73.0349 57.2441)" fill="#FFFFFF" font-family="'OCRA'" font-size="3.75">REF</text>
		
			<text transform="matrix(6.123234e-017 -1 1 6.123234e-017 65.8347 57.2441)" fill="#FFFFFF" font-family="'OCRA'" font-size="3.75">3V3</text>
		
			<text transform="matrix(6.123234e-017 -1 1 6.123234e-017 58.6345 57.2441)" fill="#FFFFFF" font-family="'OCRA'" font-size="3.75">D13</text>
		
			<text transform="matrix(6.123234e-017 -1 1 6.123234e-017 51.4343 57.2441)" fill="#FFFFFF" font-family="'OCRA'" font-size="3.75">GND</text>
		
			<text transform="matrix(6.123234e-017 -1 1 6.123234e-017 44.2341 57.2441)" fill="#FFFFFF" font-family="'OCRA'" font-size="3.75">AR_VIN</text>
		
			<text transform="matrix(6.123234e-017 -1 1 6.123234e-017 37.0339 57.2441)" fill="#FFFFFF" font-family="'OCRA'" font-size="3.75">TD-</text>
		
			<text transform="matrix(6.123234e-017 -1 1 6.123234e-017 29.8337 57.2441)" fill="#FFFFFF" font-family="'OCRA'" font-size="3.75">TD+</text>
		
			<text transform="matrix(6.123234e-017 -1 1 6.123234e-017 22.6335 57.2441)" fill="#FFFFFF" font-family="'OCRA'" font-size="3.75">RD-</text>
		
			<text transform="matrix(6.123234e-017 -1 1 6.123234e-017 15.4333 57.2441)" fill="#FFFFFF" font-family="'OCRA'" font-size="3.75">RD+</text>
	</g>
	<g>
		
			<text transform="matrix(6.123234e-017 -1 1 6.123234e-017 181.0378 13.3242)" fill="#FFFFFF" font-family="'OCRA'" font-size="3.75">NC</text>
		
			<text transform="matrix(6.123234e-017 -1 1 6.123234e-017 173.8376 18.7461)" fill="#FFFFFF" font-family="'OCRA'" font-size="3.75">MOSI</text>
		
			<text transform="matrix(6.123234e-017 -1 1 6.123234e-017 166.6375 22.3613)" fill="#FFFFFF" font-family="'OCRA'" font-size="2.5">RXLED/ss</text>
		
			<text transform="matrix(6.123234e-017 -1 1 6.123234e-017 159.4373 13.3242)" fill="#FFFFFF" font-family="'OCRA'" font-size="3.75">TX</text>
		
			<text transform="matrix(6.123234e-017 -1 1 6.123234e-017 152.2371 13.3242)" fill="#FFFFFF" font-family="'OCRA'" font-size="3.75">RX</text>
		
			<text transform="matrix(6.123234e-017 -1 1 6.123234e-017 145.0369 16.0352)" fill="#FFFFFF" font-family="'OCRA'" font-size="3.75">RST</text>
		
			<text transform="matrix(6.123234e-017 -1 1 6.123234e-017 137.8367 16.0352)" fill="#FFFFFF" font-family="'OCRA'" font-size="3.75">GND</text>
		
			<text transform="matrix(6.123234e-017 -1 1 6.123234e-017 130.6365 13.3242)" fill="#FFFFFF" font-family="'OCRA'" font-size="3.75">D2</text>
		
			<text transform="matrix(6.123234e-017 -1 1 6.123234e-017 123.4363 13.3242)" fill="#FFFFFF" font-family="'OCRA'" font-size="3.75">D3</text>
		
			<text transform="matrix(6.123234e-017 -1 1 6.123234e-017 116.2361 13.3242)" fill="#FFFFFF" font-family="'OCRA'" font-size="3.75">D4</text>
		
			<text transform="matrix(6.123234e-017 -1 1 6.123234e-017 109.0359 13.3242)" fill="#FFFFFF" font-family="'OCRA'" font-size="3.75">D5</text>
		
			<text transform="matrix(6.123234e-017 -1 1 6.123234e-017 101.8357 13.3242)" fill="#FFFFFF" font-family="'OCRA'" font-size="3.75">D6</text>
		
			<text transform="matrix(6.123234e-017 -1 1 6.123234e-017 94.6355 13.3242)" fill="#FFFFFF" font-family="'OCRA'" font-size="3.75">D7</text>
		
			<text transform="matrix(6.123234e-017 -1 1 6.123234e-017 87.4353 13.3242)" fill="#FFFFFF" font-family="'OCRA'" font-size="3.75">D8</text>
		
			<text transform="matrix(6.123234e-017 -1 1 6.123234e-017 80.2351 13.3242)" fill="#FFFFFF" font-family="'OCRA'" font-size="3.75">D9</text>
		
			<text transform="matrix(6.123234e-017 -1 1 6.123234e-017 73.0349 16.0352)" fill="#FFFFFF" font-family="'OCRA'" font-size="3.75">D10</text>
		
			<text transform="matrix(6.123234e-017 -1 1 6.123234e-017 65.8347 16.0352)" fill="#FFFFFF" font-family="'OCRA'" font-size="3.75">D11</text>
		
			<text transform="matrix(6.123234e-017 -1 1 6.123234e-017 58.6345 16.0352)" fill="#FFFFFF" font-family="'OCRA'" font-size="3.75">D12</text>
		
			<text transform="matrix(6.123234e-017 -1 1 6.123234e-017 51.4343 18.7461)" fill="#FFFFFF" font-family="'OCRA'" font-size="2.5">AR_GP6</text>
		
			<text transform="matrix(6.123234e-017 -1 1 6.123234e-017 44.2341 20.5537)" fill="#FFFFFF" font-family="'OCRA'" font-size="2.5">AR_GP23</text>
		
			<text transform="matrix(6.123234e-017 -1 1 6.123234e-017 37.0339 16.0352)" fill="#FFFFFF" font-family="'OCRA'" font-size="3.75">GND</text>
		
			<text transform="matrix(6.123234e-017 -1 1 6.123234e-017 29.8337 16.0352)" fill="#FFFFFF" font-family="'OCRA'" font-size="3.75">GND</text>
		
			<text transform="matrix(6.123234e-017 -1 1 6.123234e-017 22.6335 16.0352)" fill="#FFFFFF" font-family="'OCRA'" font-size="3.75">GND</text>
		
			<text transform="matrix(6.123234e-017 -1 1 6.123234e-017 15.4333 18.7461)" fill="#FFFFFF" font-family="'OCRA'" font-size="2.5">VCC_GT</text>
	</g>
</g>
</svg>
