<?xml version="1.0" encoding="utf-8"?>
<!-- Generator: Adobe Illustrator 16.0.0, SVG Export Plug-In . SVG Version: 6.00 Build 0)  -->
<!DOCTYPE svg PUBLIC "-//W3C//DTD SVG 1.1//EN" "http://www.w3.org/Graphics/SVG/1.1/DTD/svg11.dtd">
<svg version="1.1" id="Ebene_1" xmlns="http://www.w3.org/2000/svg" xmlns:xlink="http://www.w3.org/1999/xlink" x="0px" y="0px"
	 width="288.501px" height="151.992px" viewBox="0 0 288.501 151.992" enable-background="new 0 0 288.501 151.992"
	 xml:space="preserve">
<g id="board">
	<path id="boardoutline" fill="#348040" fill-opacity="0.5" d="M273.646,0.653l7.188,7.172v28.69l7.188,7.172v96.831
		l-7.188,7.174v0.762c0.162,1.396-0.838,2.66-2.234,2.824c-0.197,0.023-0.396,0.023-0.596,0H3.391
		c-1.397,0.164-2.663-0.834-2.829-2.229c-0.023-0.199-0.024-0.398-0.001-0.596V3.477C0.398,2.08,1.399,0.815,2.796,0.653h0.595
		H273.646"/>
	<g id="hole_11_">
		<path fill="#348040" d="M42.525,2.626c2.46,0,4.461,2.001,4.461,4.459c0,2.459-2.001,4.46-4.461,4.46
			c-2.459,0-4.46-2.001-4.46-4.46C38.065,4.627,40.065,2.626,42.525,2.626 M42.525,2.126c-2.739,0-4.96,2.221-4.96,4.959
			c0,2.74,2.221,4.96,4.96,4.96c2.74,0,4.961-2.221,4.961-4.96C47.485,4.347,45.264,2.126,42.525,2.126L42.525,2.126z"/>
	</g>
	<g id="hole_10_">
		<path fill="#348040" d="M39.69,140.099c2.46,0,4.461,2.001,4.461,4.461c0,2.458-2.001,4.46-4.461,4.46
			c-2.459,0-4.459-2.002-4.459-4.46C35.229,142.1,37.23,140.099,39.69,140.099 M39.69,139.599c-2.739,0-4.959,2.222-4.959,4.961
			s2.221,4.96,4.959,4.96c2.74,0,4.961-2.221,4.961-4.96S42.429,139.599,39.69,139.599L39.69,139.599z"/>
	</g>
	<g id="hole_9_">
		<path fill="#348040" d="M172.912,124.51c2.459,0,4.46,2,4.46,4.461c0,2.459-2.001,4.459-4.46,4.459c-2.461,0-4.461-2-4.461-4.459
			C168.451,126.51,170.451,124.51,172.912,124.51 M172.912,124.01c-2.739,0-4.961,2.222-4.961,4.961
			c0,2.738,2.222,4.959,4.961,4.959c2.738,0,4.96-2.221,4.96-4.959C177.872,126.231,175.65,124.01,172.912,124.01L172.912,124.01z"
			/>
	</g>
	<g id="hole_8_">
		<path fill="#348040" d="M172.912,45.144c2.459,0,4.46,2.001,4.46,4.461c0,2.458-2.001,4.459-4.46,4.459
			c-2.461,0-4.461-2.001-4.461-4.459C168.451,47.144,170.451,45.144,172.912,45.144 M172.912,44.644
			c-2.739,0-4.961,2.222-4.961,4.961s2.222,4.959,4.961,4.959c2.738,0,4.96-2.221,4.96-4.959S175.65,44.644,172.912,44.644
			L172.912,44.644z"/>
	</g>
	<g id="hole_7_">
		<path fill="#348040" d="M255.112,2.626c2.46,0,4.46,2.001,4.46,4.46c0,2.459-2,4.46-4.46,4.46s-4.461-2.001-4.461-4.46
			C250.651,4.627,252.652,2.626,255.112,2.626 M255.112,2.126c-2.739,0-4.961,2.222-4.961,4.96c0,2.739,2.222,4.96,4.961,4.96
			s4.96-2.221,4.96-4.96C260.072,4.348,257.852,2.126,255.112,2.126L255.112,2.126z"/>
	</g>
	<g id="hole_6_">
		<path fill="#348040" d="M273.536,140.099c2.46,0,4.461,2.001,4.461,4.461c0,2.458-2.001,4.46-4.461,4.46s-4.461-2.002-4.461-4.46
			C269.075,142.1,271.076,140.099,273.536,140.099 M273.536,139.599c-2.739,0-4.961,2.222-4.961,4.961s2.222,4.96,4.961,4.96
			s4.961-2.221,4.961-4.96S276.275,139.599,273.536,139.599L273.536,139.599z"/>
	</g>
	<g id="ICSP1_1_">
		<path fill="#348040" d="M192.254,61.442v21.675h-13.173V61.442H192.254 M192.754,60.942h-14.173v22.675h14.173V60.942
			L192.754,60.942z"/>
	</g>
	<g id="ICSP2_1_">
		<path fill="#348040" d="M64.7,13.254v13.172H43.025V13.254H64.7 M65.2,12.754H42.525v14.172h22.676L65.2,12.754L65.2,12.754z"/>
	</g>
	<g id="Header_13_">
		<path fill="#348040" d="M122.085,4.752v6.085H49.707V4.752H122.085 M122.625,4.252H49.167v7.085h73.458V4.252L122.625,4.252z"/>
	</g>
	<g id="Header_12_">
		<path fill="#348040" d="M248.949,4.752v6.086h-57.769V4.752H248.949 M249.442,4.252h-58.755v7.086h58.755V4.252L249.442,4.252z"/>
	</g>
	<g id="Header_11_">
		<path fill="#348040" d="M183.815,4.752v6.086h-57.544V4.752H183.815 M184.308,4.252H125.78v7.086h58.528V4.252L184.308,4.252z"/>
	</g>
	<g id="Header_10_">
		<path fill="#348040" d="M263.079,141.526v6.087h-57.541v-6.087H263.079 M263.57,141.027h-58.523v7.086h58.523V141.027
			L263.57,141.027z"/>
	</g>
	<g id="Header_9_">
		<path fill="#348040" d="M198.357,141.555v6.031h-57.523v-6.031H198.357 M198.876,141.027h-58.56v7.086h58.56V141.027
			L198.876,141.027z"/>
	</g>
	<g id="Header_8_">
		<path fill="#348040" d="M133.974,141.526v6.087H75.941v-6.087H133.974 M134.47,141.027H75.446v7.086h59.024V141.027
			L134.47,141.027z"/>
	</g>
	<g id="Header_7_">
		<path fill="#348040" d="M277.288,5.545v128.011h-13.456V4.752h12.663L277.288,5.545z M276.607,4.252h-13.275v129.805h14.456V5.434
			L276.607,4.252z"/>
	</g>
	<g id="usbconnector_1_">
		<path fill="#348040" d="M30.687,26.011v33.014H0.507V26.011H30.687 M31.187,25.511H0.008v34.014h31.179V25.511L31.187,25.511z"/>
	</g>
</g>
<g id="silkscreen">
	<path id="outline" fill="none" stroke="#FFFFFF" stroke-miterlimit="10" d="M273.646,0.653l7.188,7.172v28.69l7.188,7.172
		v96.831l-7.188,7.174v0.762c0.162,1.396-0.838,2.66-2.234,2.824c-0.197,0.023-0.396,0.023-0.596,0H3.391
		c-1.397,0.164-2.663-0.834-2.829-2.229c-0.023-0.199-0.024-0.398-0.001-0.596V3.477C0.398,2.08,1.399,0.815,2.796,0.653h0.595
		H273.646z"/>
</g>
<g id="silkscreen0">
	<path id="outline" fill="none" stroke="#BBBBCC" stroke-miterlimit="10" d="M273.646,0.653l7.188,7.172v28.69l7.188,7.172v96.831
		l-7.188,7.174v0.762c0.162,1.396-0.838,2.66-2.234,2.824c-0.197,0.023-0.396,0.023-0.596,0H3.391
		c-1.397,0.164-2.663-0.834-2.829-2.229c-0.023-0.199-0.024-0.398-0.001-0.596V3.477C0.398,2.08,1.399,0.815,2.796,0.653h0.595
		H273.646z"/>
</g>
</svg>
