<?xml version='1.0' encoding='UTF-8' standalone='no'?>
<!-- Created with Fritzing (http://www.fritzing.org/) -->
<svg xmlns="http://www.w3.org/2000/svg" width="0.608in" x="0in" version="1.2" y="0in" height="0.445in" viewBox="0 0 43.776 32.04" baseProfile="tiny">
 <desc >Fritzing footprint generated by brd2svg</desc>
 <g  id="silkscreen" stroke-width="0">
  <g  stroke-width="0">
   <title >element:E$1</title>
   <g  stroke-width="0">
    <title >package:SO-24W</title>
    <line  stroke="white" stroke-linecap="round" y1="25.2" x1="0.288" y2="25.2" stroke-width="0.576" x2="43.488"/>
    <line  stroke="white" stroke-linecap="round" y1="25.2" x1="43.488" y2="6.48" stroke-width="0.576" x2="43.488"/>
    <line  stroke="white" stroke-linecap="round" y1="6.48" x1="43.488" y2="6.48" stroke-width="0.576" x2="0.288"/>
    <path  fill="none" stroke="white" stroke-width="0.576" d="M0.288,18A2.16,2.16,0,1,0,0.288,13.68"/>
    <line  stroke="white" stroke-linecap="round" y1="13.68" x1="0.288" y2="6.48" stroke-width="0.576" x2="0.288"/>
    <line  stroke="white" stroke-linecap="round" y1="18" x1="0.288" y2="25.2" stroke-width="0.576" x2="0.288"/>
   </g>
  </g>
 </g>
 <g  id="copper1" stroke-width="0">
  <rect  width="2.16" x="1.008" y="27.72" fill="#F7BD13" rx="1.08" height="4.32" ry="1.08" stroke="none" id="connector0pad" stroke-width="0"/>
  <rect  width="2.16" x="4.608" y="27.72" fill="#F7BD13" rx="1.08" height="4.32" ry="1.08" stroke="none" id="connector1pad" stroke-width="0"/>
  <rect  width="2.16" x="8.208" y="27.72" fill="#F7BD13" rx="1.08" height="4.32" ry="1.08" stroke="none" id="connector2pad" stroke-width="0"/>
  <rect  width="2.16" x="11.808" y="27.72" fill="#F7BD13" rx="1.08" height="4.32" ry="1.08" stroke="none" id="connector3pad" stroke-width="0"/>
  <rect  width="2.16" x="15.408" y="27.72" fill="#F7BD13" rx="1.08" height="4.32" ry="1.08" stroke="none" id="connector4pad" stroke-width="0"/>
  <rect  width="2.16" x="19.008" y="27.72" fill="#F7BD13" rx="1.08" height="4.32" ry="1.08" stroke="none" id="connector5pad" stroke-width="0"/>
  <rect  width="2.16" x="22.608" y="27.72" fill="#F7BD13" rx="1.08" height="4.32" ry="1.08" stroke="none" id="connector6pad" stroke-width="0"/>
  <rect  width="2.16" x="26.208" y="27.72" fill="#F7BD13" rx="1.08" height="4.32" ry="1.08" stroke="none" id="connector7pad" stroke-width="0"/>
  <rect  width="2.16" x="29.808" y="27.72" fill="#F7BD13" rx="1.08" height="4.32" ry="1.08" stroke="none" id="connector8pad" stroke-width="0"/>
  <rect  width="2.16" x="33.408" y="27.72" fill="#F7BD13" rx="1.08" height="4.32" ry="1.08" stroke="none" id="connector9pad" stroke-width="0"/>
  <rect  width="2.16" x="37.008" y="27.72" fill="#F7BD13" rx="1.08" height="4.32" ry="1.08" stroke="none" id="connector10pad" stroke-width="0"/>
  <rect  width="2.16" x="40.608" y="27.72" fill="#F7BD13" rx="1.08" height="4.32" ry="1.08" stroke="none" id="connector11pad" stroke-width="0"/>
  <rect  width="2.16" x="40.608" y="0" fill="#F7BD13" rx="1.08" height="4.32" ry="1.08" stroke="none" id="connector12pad" stroke-width="0"/>
  <rect  width="2.16" x="37.008" y="0" fill="#F7BD13" rx="1.08" height="4.32" ry="1.08" stroke="none" id="connector13pad" stroke-width="0"/>
  <rect  width="2.16" x="33.408" y="0" fill="#F7BD13" rx="1.08" height="4.32" ry="1.08" stroke="none" id="connector14pad" stroke-width="0"/>
  <rect  width="2.16" x="29.808" y="0" fill="#F7BD13" rx="1.08" height="4.32" ry="1.08" stroke="none" id="connector15pad" stroke-width="0"/>
  <rect  width="2.16" x="26.208" y="0" fill="#F7BD13" rx="1.08" height="4.32" ry="1.08" stroke="none" id="connector16pad" stroke-width="0"/>
  <rect  width="2.16" x="22.608" y="0" fill="#F7BD13" rx="1.08" height="4.32" ry="1.08" stroke="none" id="connector17pad" stroke-width="0"/>
  <rect  width="2.16" x="19.008" y="0" fill="#F7BD13" rx="1.08" height="4.32" ry="1.08" stroke="none" id="connector18pad" stroke-width="0"/>
  <rect  width="2.16" x="15.408" y="0" fill="#F7BD13" rx="1.08" height="4.32" ry="1.08" stroke="none" id="connector19pad" stroke-width="0"/>
  <rect  width="2.16" x="11.808" y="0" fill="#F7BD13" rx="1.08" height="4.32" ry="1.08" stroke="none" id="connector20pad" stroke-width="0"/>
  <rect  width="2.16" x="8.208" y="0" fill="#F7BD13" rx="1.08" height="4.32" ry="1.08" stroke="none" id="connector21pad" stroke-width="0"/>
  <rect  width="2.16" x="4.608" y="0" fill="#F7BD13" rx="1.08" height="4.32" ry="1.08" stroke="none" id="connector22pad" stroke-width="0"/>
  <rect  width="2.16" x="1.008" y="0" fill="#F7BD13" rx="1.08" height="4.32" ry="1.08" stroke="none" id="connector23pad" stroke-width="0"/>
 </g>
</svg>
