<?xml version='1.0' encoding='UTF-8' standalone='no'?>
<!-- Created with Fritzing (http://www.fritzing.org/) -->
<svg xmlns="http://www.w3.org/2000/svg" width="0.522in" x="0in" version="1.2" y="0in" height="0.469in" viewBox="0 0 37.584 33.768" baseProfile="tiny">
 <desc >Fritzing footprint generated by brd2svg</desc>
 <g  id="silkscreen" stroke-width="0">
  <g  stroke-width="0">
   <title >element:E$1</title>
   <g  stroke-width="0">
    <title >package:SO20W</title>
    <line  stroke="white" stroke-linecap="round" y1="6.21808" x1="37.2172" y2="27.4779" stroke-width="0.72" x2="37.2172"/>
    <line  stroke="white" stroke-linecap="round" y1="6.21808" x1="0.366803" y2="27.4779" stroke-width="0.72" x2="0.366803"/>
    <circle  fill="none" cx="2.63452" cy="19.6826" stroke="white" r="0.566929" stroke-width="0.72"/>
   </g>
  </g>
 </g>
 <g  id="copper1" stroke-width="0">
  <g  stroke-width="0" transform="matrix(-1, 0, 0, -1, 5.184, 56.3732)">
   <rect  width="1.70078" x="1.74161" y="22.659" fill="#F7BD13" height="11.0551" stroke="none" id="connector0pad" stroke-width="0"/>
  </g>
  <g  stroke-width="0" transform="matrix(-1, 0, 0, -1, 12.384, 56.3732)">
   <rect  width="1.70078" x="5.34161" y="22.659" fill="#F7BD13" height="11.0551" stroke="none" id="connector1pad" stroke-width="0"/>
  </g>
  <g  stroke-width="0" transform="matrix(-1, 0, 0, -1, 19.584, 56.3732)">
   <rect  width="1.70078" x="8.94161" y="22.659" fill="#F7BD13" height="11.0551" stroke="none" id="connector2pad" stroke-width="0"/>
  </g>
  <g  stroke-width="0" transform="matrix(-1, 0, 0, -1, 26.784, 56.3732)">
   <rect  width="1.70078" x="12.5416" y="22.659" fill="#F7BD13" height="11.0551" stroke="none" id="connector3pad" stroke-width="0"/>
  </g>
  <g  stroke-width="0" transform="matrix(-1, 0, 0, -1, 33.984, 56.3732)">
   <rect  width="1.70078" x="16.1416" y="22.659" fill="#F7BD13" height="11.0551" stroke="none" id="connector4pad" stroke-width="0"/>
  </g>
  <g  stroke-width="0" transform="matrix(-1, 0, 0, -1, 41.184, 56.3732)">
   <rect  width="1.70078" x="19.7416" y="22.659" fill="#F7BD13" height="11.0551" stroke="none" id="connector5pad" stroke-width="0"/>
  </g>
  <g  stroke-width="0" transform="matrix(-1, 0, 0, -1, 48.384, 56.3732)">
   <rect  width="1.70078" x="23.3416" y="22.659" fill="#F7BD13" height="11.0551" stroke="none" id="connector6pad" stroke-width="0"/>
  </g>
  <g  stroke-width="0" transform="matrix(-1, 0, 0, -1, 55.584, 56.3732)">
   <rect  width="1.70078" x="26.9416" y="22.659" fill="#F7BD13" height="11.0551" stroke="none" id="connector7pad" stroke-width="0"/>
  </g>
  <g  stroke-width="0" transform="matrix(-1, 0, 0, -1, 62.784, 56.3732)">
   <rect  width="1.70078" x="30.5416" y="22.659" fill="#F7BD13" height="11.0551" stroke="none" id="connector8pad" stroke-width="0"/>
  </g>
  <g  stroke-width="0" transform="matrix(-1, 0, 0, -1, 69.984, 56.3732)">
   <rect  width="1.70078" x="34.1416" y="22.659" fill="#F7BD13" height="11.0551" stroke="none" id="connector9pad" stroke-width="0"/>
  </g>
  <g  stroke-width="0" transform="matrix(-1, 0, 0, -1, 69.984, 11.0188)">
   <rect  width="1.70078" x="34.1416" y="-0.0181417" fill="#F7BD13" height="11.0551" stroke="none" id="connector10pad" stroke-width="0"/>
  </g>
  <g  stroke-width="0" transform="matrix(-1, 0, 0, -1, 62.784, 11.0188)">
   <rect  width="1.70078" x="30.5416" y="-0.0181417" fill="#F7BD13" height="11.0551" stroke="none" id="connector11pad" stroke-width="0"/>
  </g>
  <g  stroke-width="0" transform="matrix(-1, 0, 0, -1, 55.584, 11.0188)">
   <rect  width="1.70078" x="26.9416" y="-0.0181417" fill="#F7BD13" height="11.0551" stroke="none" id="connector12pad" stroke-width="0"/>
  </g>
  <g  stroke-width="0" transform="matrix(-1, 0, 0, -1, 48.384, 11.0188)">
   <rect  width="1.70078" x="23.3416" y="-0.0181417" fill="#F7BD13" height="11.0551" stroke="none" id="connector13pad" stroke-width="0"/>
  </g>
  <g  stroke-width="0" transform="matrix(-1, 0, 0, -1, 41.184, 11.0188)">
   <rect  width="1.70078" x="19.7416" y="-0.0181417" fill="#F7BD13" height="11.0551" stroke="none" id="connector14pad" stroke-width="0"/>
  </g>
  <g  stroke-width="0" transform="matrix(-1, 0, 0, -1, 33.984, 11.0188)">
   <rect  width="1.70078" x="16.1416" y="-0.0181417" fill="#F7BD13" height="11.0551" stroke="none" id="connector15pad" stroke-width="0"/>
  </g>
  <g  stroke-width="0" transform="matrix(-1, 0, 0, -1, 26.784, 11.0188)">
   <rect  width="1.70078" x="12.5416" y="-0.0181417" fill="#F7BD13" height="11.0551" stroke="none" id="connector16pad" stroke-width="0"/>
  </g>
  <g  stroke-width="0" transform="matrix(-1, 0, 0, -1, 19.584, 11.0188)">
   <rect  width="1.70078" x="8.94161" y="-0.0181417" fill="#F7BD13" height="11.0551" stroke="none" id="connector17pad" stroke-width="0"/>
  </g>
  <g  stroke-width="0" transform="matrix(-1, 0, 0, -1, 12.384, 11.0188)">
   <rect  width="1.70078" x="5.34161" y="-0.0181417" fill="#F7BD13" height="11.0551" stroke="none" id="connector18pad" stroke-width="0"/>
  </g>
  <g  stroke-width="0" transform="matrix(-1, 0, 0, -1, 5.184, 11.0188)">
   <rect  width="1.70078" x="1.74161" y="-0.0181417" fill="#F7BD13" height="11.0551" stroke="none" id="connector19pad" stroke-width="0"/>
  </g>
 </g>
</svg>
