<?xml version="1.0" encoding="utf-8"?>
<!-- Generator: Adobe Illustrator 16.0.0, SVG Export Plug-In . SVG Version: 6.00 Build 0)  -->
<!DOCTYPE svg PUBLIC "-//W3C//DTD SVG 1.1 Basic//EN" "http://www.w3.org/Graphics/SVG/1.1/DTD/svg11-basic.dtd">
<svg version="1.1" baseProfile="basic" id="Ebene_1" xmlns:svg="http://www.w3.org/2000/svg"
	 xmlns="http://www.w3.org/2000/svg" xmlns:xlink="http://www.w3.org/1999/xlink" x="0px" y="0px" width="21.313px"
	 height="14.273px" viewBox="0 0 21.313 14.273" xml:space="preserve">
<g>
	<polygon fill="#404040" points="21.313,12.762 21.313,8.83 21.313,5.49 21.313,1.556 19.802,0.045 15.871,0.045 14.361,1.556 
		14.361,5.49 14.361,8.83 14.361,12.762 15.871,14.274 19.802,14.274 	"/>
	<polygon fill="#404040" points="14.131,12.762 14.131,8.83 14.131,5.49 14.131,1.556 12.622,0.045 8.69,0.045 7.177,1.556 
		7.177,5.49 7.177,8.83 7.177,12.762 8.69,14.274 12.622,14.274 	"/>
	<polygon fill="#404040" points="6.954,12.762 6.954,8.83 6.954,5.49 6.954,1.556 5.442,0.045 1.509,0.045 0,1.556 0,5.49 0,8.83 
		0,12.762 1.509,14.274 5.442,14.274 	"/>
	<polygon fill="#404040" points="21.313,12.762 21.313,8.83 21.313,5.49 21.313,1.556 19.802,0.045 15.871,0.045 14.361,1.556 
		14.361,5.49 14.361,8.83 14.361,12.762 15.871,14.274 19.802,14.274 	"/>
	<polygon fill="#404040" points="14.131,12.762 14.131,8.83 14.131,5.49 14.131,1.556 12.622,0.045 8.69,0.045 7.177,1.556 
		7.177,5.49 7.177,8.83 7.177,12.762 8.69,14.274 12.622,14.274 	"/>
	<polygon fill="#404040" points="6.954,12.762 6.954,8.83 6.954,5.49 6.954,1.556 5.442,0.045 1.509,0.045 0,1.556 0,5.49 0,8.83 
		0,12.762 1.509,14.274 5.442,14.274 	"/>
	<rect x="2.461" y="2.454" fill="#8D8C8C" width="2.299" height="2.298"/>
	<rect x="2.461" y="9.653" fill="#8D8C8C" width="2.299" height="2.298"/>
	<rect x="9.66" y="2.454" fill="#8D8C8C" width="2.298" height="2.298"/>
	<rect x="9.66" y="9.653" fill="#8D8C8C" width="2.298" height="2.298"/>
	<rect x="16.858" y="2.454" fill="#8D8C8C" width="2.298" height="2.298"/>
	<rect x="16.858" y="9.653" fill="#8D8455" width="2.298" height="2.298"/>
	<rect x="17.416" y="10.212" fill="#8C8663" width="1.183" height="1.184"/>
	<polygon fill="#B8AF82" points="19.156,9.653 18.597,10.212 18.597,11.393 19.156,11.951 	"/>
	<polygon fill="#80795B" points="17.416,11.393 18.597,11.393 19.156,11.951 16.858,11.951 	"/>
	<polygon fill="#5E5B43" points="17.416,10.212 17.416,11.393 16.858,11.951 16.858,9.653 	"/>
	<polygon fill="#9A916C" points="19.156,9.653 18.597,10.212 17.416,10.212 16.858,9.653 	"/>
	<rect x="17.416" y="3.012" fill="#8C8663" width="1.183" height="1.182"/>
	<polygon fill="#B8AF82" points="19.156,2.454 18.597,3.012 18.597,4.193 19.156,4.751 	"/>
	<polygon fill="#80795B" points="17.416,4.193 18.597,4.193 19.156,4.751 16.858,4.751 	"/>
	<polygon fill="#5E5B43" points="17.416,3.012 17.416,4.193 16.858,4.751 16.858,2.454 	"/>
	<polygon fill="#9A916C" points="19.156,2.454 18.597,3.012 17.416,3.012 16.858,2.454 	"/>
	<rect x="10.217" y="10.212" fill="#8C8663" width="1.184" height="1.184"/>
	<polygon fill="#B8AF82" points="11.957,9.653 11.4,10.212 11.4,11.393 11.957,11.951 	"/>
	<polygon fill="#80795B" points="10.217,11.393 11.4,11.393 11.957,11.951 9.66,11.951 	"/>
	<polygon fill="#5E5B43" points="10.217,10.212 10.217,11.393 9.66,11.951 9.66,9.653 	"/>
	<polygon fill="#9A916C" points="11.957,9.653 11.4,10.212 10.217,10.212 9.66,9.653 	"/>
	<rect x="10.217" y="3.012" fill="#8C8663" width="1.184" height="1.182"/>
	<polygon fill="#B8AF82" points="11.957,2.454 11.4,3.012 11.4,4.193 11.957,4.751 	"/>
	<polygon fill="#80795B" points="10.217,4.193 11.4,4.193 11.957,4.751 9.66,4.751 	"/>
	<polygon fill="#5E5B43" points="10.217,3.012 10.217,4.193 9.66,4.751 9.66,2.454 	"/>
	<polygon fill="#9A916C" points="11.957,2.454 11.4,3.012 10.217,3.012 9.66,2.454 	"/>
	<rect x="3.016" y="10.212" fill="#8C8663" width="1.185" height="1.184"/>
	<polygon fill="#B8AF82" points="4.759,9.653 4.2,10.212 4.2,11.393 4.759,11.951 	"/>
	<polygon fill="#80795B" points="3.016,11.393 4.2,11.393 4.759,11.951 2.461,11.951 	"/>
	<polygon fill="#5E5B43" points="3.016,10.212 3.016,11.393 2.461,11.951 2.461,9.653 	"/>
	<polygon fill="#9A916C" points="4.759,9.653 4.2,10.212 3.016,10.212 2.461,9.653 	"/>
	<rect x="3.016" y="3.012" fill="#8C8663" width="1.185" height="1.182"/>
	<polygon fill="#B8AF82" points="4.759,2.454 4.2,3.012 4.2,4.193 4.759,4.751 	"/>
	<polygon fill="#80795B" points="3.016,4.193 4.2,4.193 4.759,4.751 2.461,4.751 	"/>
	<polygon fill="#5E5B43" points="3.016,3.012 3.016,4.193 2.461,4.751 2.461,2.454 	"/>
	<polygon fill="#9A916C" points="4.759,2.454 4.2,3.012 3.016,3.012 2.461,2.454 	"/>
</g>
</svg>
