<?xml version="1.0" encoding="utf-8"?>
<!-- Generator: Adobe Illustrator 16.0.0, SVG Export Plug-In . SVG Version: 6.00 Build 0)  -->
<!DOCTYPE svg PUBLIC "-//W3C//DTD SVG 1.1 Basic//EN" "http://www.w3.org/Graphics/SVG/1.1/DTD/svg11-basic.dtd">
<svg version="1.1" baseProfile="basic" id="Ebene_1" xmlns:svg="http://www.w3.org/2000/svg"
	 xmlns="http://www.w3.org/2000/svg" xmlns:xlink="http://www.w3.org/1999/xlink" x="0px" y="0px" width="42.261px" height="42px"
	 viewBox="0 0 42.261 42" xml:space="preserve">
<g>
	<path fill="#7A7A7A" d="M1.982,14.714c-0.307-0.053-0.555-0.395-0.555-0.795V9.468c0-0.398,0.252-0.76,0.555-0.799L21.66,5.865
		c0.305-0.052,0.557,0.256,0.557,0.646v0.655c0,0.396-0.254,0.754-0.557,0.797L4.273,10.08c-0.309,0.033-0.557,0.373-0.557,0.793
		v1.652c0,0.383,0.252,0.76,0.557,0.797l17.384,2.105c0.305,0.047,0.557,0.373,0.557,0.797l0.002,0.648
		c0,0.391-0.254,0.693-0.557,0.654L1.982,14.714z M1.982,33.347c-0.307-0.055-0.555-0.396-0.555-0.797v-4.447
		c0-0.396,0.252-0.762,0.555-0.803l19.677-2.805c0.305-0.051,0.557,0.254,0.557,0.646v0.65c0,0.396-0.254,0.756-0.557,0.797
		L4.273,28.707C3.965,28.742,3.717,29.08,3.717,29.5v1.65c0,0.385,0.252,0.762,0.557,0.799l17.384,2.105
		c0.305,0.047,0.557,0.373,0.557,0.795l0.002,0.646c0,0.393-0.254,0.693-0.557,0.654L1.982,33.347z"/>
	<rect x="1.631" y="4.905" fill="#CCCCCC" width="32.087" height="32.188"/>
	<path fill="#B0B0B0" d="M3.16,38.31v1c-0.535,0-0.885,0.1-0.998,0.271c-0.031,0.064-0.107,0.627-0.107,1.012H1.381H1.055H1H0.846H0
		c0-0.604,0.111-1.314,0.271-1.561c0.445-0.664,1.34-0.717,1.738-0.721l0.002-0.002H2.76l-0.012,0.02
		C2.922,38.312,3.068,38.31,3.16,38.31z"/>
	<path fill="#8F8F8F" d="M2.301,39.46c0.172-0.098,0.465-0.148,0.861-0.148v-1H2.109c-0.281,0-1.035,0.006-1.563,0.43
		c-0.146,0.125-0.314,0.189-0.451,0.813C0.271,39.453,2.301,39.46,2.301,39.46z"/>
	<rect x="40.302" y="10.376" fill="#4D4D4D" width="1.959" height="2.838"/>
	<rect x="40.302" y="16.755" fill="#4D4D4D" width="1.959" height="2.834"/>
	<rect x="40.302" y="22.425" fill="#4D4D4D" width="1.959" height="2.836"/>
	<rect x="40.302" y="28.804" fill="#4D4D4D" width="1.959" height="2.838"/>
	<path fill="#B0B0B0" d="M3.16,3.717v-1c-0.535,0-0.885-0.098-0.998-0.268C2.131,2.381,2.055,1.822,2.055,1.438H1.381H1.055H1H0.846
		H0c0,0.605,0.111,1.318,0.271,1.559c0.445,0.666,1.34,0.717,1.738,0.721h0.002H2.76L2.748,3.701
		C2.922,3.717,3.068,3.717,3.16,3.717z"/>
	<path fill="#8F8F8F" d="M0.1,2.479c0.135,0.619,0.309,0.688,0.451,0.811c0.521,0.422,1.275,0.428,1.559,0.428h1.053v-1
		c-0.396,0-0.688-0.055-0.859-0.149C2.301,2.567,0.271,2.574,0.1,2.479z"/>
	<path fill="#B3B3B3" d="M41.375,2.287H2.762v1.596H1.386v34.25h1.376v1.598h38.613V2.287z M5.277,14.714
		c-0.305-0.053-0.552-0.395-0.552-0.795V9.468c0-0.398,0.251-0.76,0.552-0.799l20.688-2.804c0.303-0.052,0.555,0.256,0.555,0.646
		v0.655c0,0.396-0.252,0.754-0.555,0.797L8.578,10.08c-0.313,0.033-0.561,0.373-0.561,0.793v1.652c0,0.383,0.256,0.76,0.561,0.797
		l17.385,2.105c0.305,0.047,0.555,0.373,0.555,0.797l0.002,0.648c0,0.391-0.252,0.693-0.555,0.654L5.277,14.714z M5.277,33.347
		c-0.305-0.055-0.552-0.396-0.552-0.797v-4.447c0-0.396,0.251-0.762,0.552-0.803l20.689-2.805c0.303-0.051,0.555,0.254,0.555,0.646
		v0.65c0,0.396-0.252,0.756-0.555,0.797L8.578,28.707C8.267,28.742,8.019,29.08,8.019,29.5v1.65c0,0.385,0.254,0.762,0.559,0.799
		l17.387,2.105c0.305,0.047,0.555,0.373,0.555,0.795l0.002,0.646c0,0.393-0.252,0.693-0.555,0.654L5.277,33.347z"/>
	<polygon fill="none" points="8.035,10.134 8.035,13.246 9.666,13.429 9.666,9.972 	"/>
	<polygon fill="#939393" points="9.666,13.429 8.035,13.246 8.035,10.134 9.666,9.972 	"/>
	<polygon fill="#666666" points="9.666,13.429 10.349,13.513 10.349,9.876 9.666,9.972 	"/>
	<polygon fill="none" points="8.035,28.767 8.035,31.876 9.666,32.06 9.666,28.603 	"/>
	<polygon fill="#939393" points="9.666,32.06 8.035,31.876 8.035,28.767 9.666,28.603 	"/>
	<polygon fill="#666666" points="9.666,32.06 10.349,32.144 10.349,28.507 9.666,28.603 	"/>
	
		<line fill="none" stroke="#FFFFFF" stroke-width="0.8064" stroke-linecap="round" stroke-opacity="0.24" x1="40.31" y1="2.854" x2="3.469" y2="2.854"/>
	
		<line fill="none" stroke="#FFFFFF" stroke-width="0.8064" stroke-linecap="round" stroke-opacity="0.24" x1="40.31" y1="39.162" x2="3.318" y2="39.162"/>
	
		<line fill="none" stroke="#000000" stroke-width="0.4032" stroke-linecap="round" stroke-opacity="0.15" x1="2.186" y1="37.914" x2="2.186" y2="4.103"/>
	<path fill="#999999" d="M31.703,42h-2.061v-1.422l0,0v-0.85h3.406v1.639c0,0.35-0.283,0.633-0.633,0.633H31.703z"/>
	<path fill="#808080" d="M32.486,42v-2.271h0.563c0,0,0,1.557,0,1.74C33.048,41.751,32.658,42,32.486,42z"/>
	<path fill="#B3B3B3" d="M31.703,0h-2.061v1.42l0,0v0.869h3.406V0.631c0-0.35-0.283-0.631-0.633-0.631H31.703z"/>
	<path fill="#E6E6E6" d="M32.486,0v2.289h0.563c0,0,0-1.572,0-1.761C33.048,0.248,32.658,0,32.486,0z"/>
</g>
</svg>
