<?xml version='1.0' encoding='utf-8'?>
<!DOCTYPE svg>
<!-- Generator: Adobe Illustrator 15.0.0, SVG Export Plug-In . SVG Version: 6.00 Build 0)  -->
<svg xmlns="http://www.w3.org/2000/svg" width="0.568056in" x="0px" version="1.1" y="0px" gorn="0"  height="1.70115in" viewBox="0 0 40.9 122.483" xmlns:xml="http://www.w3.org/XML/1998/namespace" id="Layer_1" enable-background="new 0 0 40.9 122.483" xml:space="preserve">
    <desc >
        <referenceFile >atlas-sientific_Pre-AssembledFemaleBNC_icon.svg</referenceFile>
    </desc>
    <g >
        <polygon points="30.415,0.384 30.046,0 25.2,0 24.862,0.384 " />
        <polygon points="23.228,0.384 22.858,0 18.013,0 17.673,0.384 " />
        <polygon points="16.014,0.384 15.644,0 10.798,0 10.459,0.384 " />
        <path fill="#D1D3D4"  d="M6.307,118.763V84.149h28.16v34.613c0,0-0.406,3.836-14.847,3.656C19.62,122.419,10.459,123.275,6.307,118.763z"/>
        <g >
            <path opacity="0.5" fill="#FFFFFF"  d="M19.62,122.419c1.086,0.013,2.091,0.004,3.022-0.025V85.143h-6.407v37.296C18.204,122.55,19.62,122.419,19.62,122.419z"/>
        </g>
        <rect width="40.9" y="0.384"  height="43.856"/>
        <g >
            <g >
                <path fill="#FFFFFF"  d="M26.393,10.045c-0.246,0.129-0.52,0.183-0.799,0.183c-0.596,0-1.029-0.39-1.029-1.001c0-0.61,0.434-1.002,1.029-1.002c0.303,0,0.568,0.068,0.759,0.246l-0.295,0.323c-0.114-0.119-0.25-0.181-0.464-0.181c-0.358,0-0.592,0.258-0.592,0.613s0.233,0.614,0.592,0.614c0.183,0,0.317-0.052,0.396-0.094V9.437h-0.341V9.05h0.744V10.045z"/>
                <path fill="#FFFFFF"  d="M26.762,8.275h0.569l0.812,1.323h0.006V8.275h0.418v1.905h-0.549l-0.832-1.356H27.18v1.356h-0.418V8.275z"/>
                <path fill="#FFFFFF"  d="M28.955,8.275h0.629c0.613,0,1.128,0.261,1.128,0.958c0,0.616-0.504,0.947-1.07,0.947h-0.687V8.275z M29.374,9.792h0.218c0.391,0,0.684-0.147,0.684-0.581c0-0.375-0.298-0.55-0.652-0.55h-0.249V9.792z"/>
            </g>
        </g>
        <path fill="#E6E7E8"  d="M40.947,13.599H20.781h-0.243H-0.046v44.166h3.015c-0.014,0.342,0.007,0.649,0.117,0.722c0.271,0.181,0.813,0.513,0.813,0.513s0.18,0.209,0.239,0.421c0.061,0.21,0.271,0.301,0,0.542c-0.271,0.239-1.233,0.45-1.173,0.601c0.061,0.151,0,0.451,0.481,0.753c0.481,0.3,0.932,0.331,0.826,0.602c-0.104,0.271-0.135,0.632-0.225,0.752s-0.691,0.602-0.903,0.662c-0.21,0.06-0.485,0.21-0.183,0.36c0.305,0.151,0.814,0.361,0.905,0.542s0.241,0.782,0.091,1.083s-0.903,0.511-0.993,0.752c-0.091,0.24,0.15,0.301,0.241,0.391c0.09,0.091,0.541,0.331,0.632,0.482c0.09,0.15,0.271,0.421,0.18,0.752c-0.09,0.331-0.782,0.603-0.782,0.603s-0.395,0.149-0.407,0.39c-0.014,0.241,0.316,0.362,0.407,0.481c0.091,0.121,0.873,0.482,0.873,0.632c0,0.15,0.181,0.662-0.061,0.722c-0.24,0.061-0.843,0.271-0.993,0.392c-0.15,0.12-0.334,0.391-0.228,0.542c0.107,0.151,0.83,0.511,0.891,0.601c0.059,0.092,0.181,0.393,0.181,0.393s0.21,0.09,0.149,0.36c-0.06,0.271-0.602,0.571-0.752,0.662c-0.151,0.089-0.521,0.15-0.501,0.392c0.02,0.239,0.199,0.511,0.472,0.661c0.271,0.15,0.541,0.301,0.541,0.301s0.15,0.271,0.15,0.392c0,0.12-0.211,0.541-0.211,0.541s-0.792,0.361-0.953,0.542s0,0.421,0,0.421s0.292,0.422,0.502,0.571c0.21,0.151,0.571,0.392,0.571,0.392l-0.12,0.542c0,0-0.904,0.541-1.024,0.631c-0.119,0.09-0.028,0.542,0.122,0.723c0.149,0.18,0.902,0.421,0.932,0.662c0.031,0.239,0.031,0.571-0.149,0.661c-0.181,0.091-0.984,0.301-0.959,0.391c0.026,0.091-0.448,0.241-0.001,0.572c0.448,0.33,0.93,0.512,0.93,0.512s0.09,0.27,0.09,0.451c0,0.18,0.03,0.633,0.03,0.723s0.121,0.391,0.121,0.391s1.671,1.696,16.7,2.21v0.009c0.042-0.001,0.08-0.003,0.121-0.004c0.042,0.001,0.08,0.003,0.122,0.004v-0.009c15.024-0.514,16.282-2.21,16.282-2.21s0.121-0.301,0.121-0.391s0.03-0.543,0.03-0.723c0-0.182,0.09-0.451,0.09-0.451s0.481-0.182,0.93-0.512c0.447-0.331-0.027-0.481-0.001-0.572c0.025-0.09-0.778-0.3-0.959-0.391c-0.181-0.09-0.181-0.422-0.149-0.661c0.029-0.241,0.782-0.482,0.932-0.662c0.15-0.181,0.241-0.633,0.122-0.723c-0.12-0.09-1.024-0.631-1.024-0.631l-0.12-0.542c0,0,0.361-0.24,0.571-0.392c0.21-0.149,0.502-0.571,0.502-0.571s0.161-0.24,0-0.421s-0.953-0.542-0.953-0.542s-0.211-0.421-0.211-0.541c0-0.121,0.15-0.392,0.15-0.392s0.271-0.15,0.541-0.301c0.272-0.15,0.452-0.422,0.472-0.661c0.02-0.241-0.35-0.303-0.501-0.392c-0.15-0.091-0.692-0.392-0.752-0.662c-0.061-0.271,0.149-0.36,0.149-0.36s0.122-0.301,0.181-0.393c0.061-0.09,0.783-0.449,0.891-0.601c0.106-0.151-0.077-0.422-0.228-0.542c-0.15-0.121-0.753-0.331-0.993-0.392c-0.241-0.06-0.061-0.571-0.061-0.722c0-0.149,0.782-0.511,0.873-0.632c0.091-0.119,0.421-0.24,0.407-0.481c-0.013-0.24-0.407-0.39-0.407-0.39s-0.692-0.271-0.782-0.603c-0.091-0.331,0.09-0.602,0.18-0.752c0.091-0.151,0.542-0.392,0.632-0.482c0.091-0.09,0.332-0.15,0.241-0.391c-0.09-0.241-0.843-0.451-0.993-0.752s0-0.902,0.091-1.083s0.601-0.391,0.905-0.542c0.303-0.15,0.027-0.301-0.183-0.36c-0.212-0.061-0.813-0.542-0.903-0.662s-0.121-0.48-0.225-0.752c-0.105-0.271,0.345-0.302,0.826-0.602c0.481-0.302,0.421-0.602,0.481-0.753c0.061-0.15-0.902-0.361-1.173-0.601c-0.271-0.241-0.061-0.332,0-0.542c0.06-0.212,0.239-0.421,0.239-0.421s0.542-0.332,0.813-0.513c0.11-0.072,0.131-0.38,0.117-0.722h3.015V13.599z"/>
        <g >
            <g >
                <path fill="#FFFFFF"  d="M17.989,8.282h0.701c0.393,0,0.719,0.125,0.719,0.572c0,0.445-0.303,0.582-0.699,0.582h-0.305v0.736h-0.416V8.282z M18.405,9.083h0.277c0.146,0,0.293-0.051,0.293-0.229c0-0.193-0.197-0.221-0.357-0.221h-0.213V9.083z"/>
                <path fill="#FFFFFF"  d="M19.67,8.282h0.731c0.387,0,0.713,0.133,0.713,0.572c0,0.266-0.141,0.473-0.408,0.52l0.48,0.799h-0.5l-0.395-0.756h-0.206v0.756H19.67V8.282z M20.086,9.065h0.247c0.15,0,0.35-0.006,0.35-0.213c0-0.189-0.172-0.219-0.324-0.219h-0.272V9.065z"/>
                <path fill="#FFFFFF"  d="M21.4,8.282h0.705c0.332,0,0.693,0.07,0.693,0.48c0,0.211-0.133,0.355-0.326,0.416v0.006c0.248,0.031,0.414,0.217,0.414,0.461c0,0.396-0.375,0.527-0.711,0.527H21.4V8.282z M21.817,9.036h0.301c0.129,0,0.262-0.053,0.262-0.203c0-0.158-0.15-0.199-0.281-0.199h-0.282V9.036z M21.817,9.819h0.374c0.131,0,0.277-0.057,0.277-0.221c0-0.178-0.199-0.209-0.336-0.209h-0.315V9.819z"/>
            </g>
        </g>
        <g >
            <path fill="#FFFFFF"  d="M11.258,8.24h0.592l0.841,1.373h0.005V8.24h0.437v1.977h-0.57L11.7,8.809h-0.006v1.407h-0.436V8.24z"/>
            <path fill="#FFFFFF"  d="M14.833,8.753c-0.087-0.104-0.213-0.162-0.374-0.162c-0.33,0-0.573,0.268-0.573,0.637c0,0.368,0.243,0.637,0.559,0.637c0.176,0,0.318-0.078,0.408-0.213l0.363,0.271c-0.165,0.234-0.444,0.343-0.715,0.343c-0.617,0-1.067-0.404-1.067-1.038s0.45-1.039,1.067-1.039c0.22,0,0.499,0.075,0.667,0.29L14.833,8.753z"/>
        </g>
    </g>
    <circle fill="#D1D3D4" cx="13.238" gorn="0.2"  cy="5.05" id="NC" r="2.026"/>
    <circle fill="#D1D3D4" cx="20.437" gorn="0.3"  cy="5.05" id="PRB" r="2.026"/>
    <rect width="4.241" x="25.518" y="3.015" fill="#D1D3D4" gorn="0.4"  height="4.062" id="GND"/>
</svg>
