<?xml version='1.0' encoding='utf-8'?>
<svg width="0.8in" x="0in" version="1.2" y="0in" xmlns="http://www.w3.org/2000/svg" height="0.3484167in" viewBox="0 0 800 348.4167in" baseProfile="tiny">
 <g id="icon">
  <g id="breadboard">
   <rect width="800" x="0" y="0" fill="#1a1a1a" height="348.4167" stroke="none" id="bgnd" stroke-width="0"/>
   <rect width="800" x="0" y="0" fill="#2a2a29" height="38.861" stroke="none" id="top inset" stroke-width="0"/>
   <rect width="800" x="0" y="309.5557" fill="#595959" height="38.861" stroke="none" id="bottom inset" stroke-width="0"/>
   <path fill="#373737" stroke="none" id="left inset" stroke-width="0" d="M0,0 0,348.4167 38.861,309.5557 38.861,38.861z"/>
   <path fill="#474747" stroke="none" id="right inset" stroke-width="0" d="M800,0 800,348.4167 761.139,309.5557 761.139,38.861z"/>
   <rect width="800" x="0" y="0" fill="#404040" height="24.972" stroke="none" id="top border" stroke-width="0"/>
   <rect width="800" x="0" y="323.4447" fill="#404040" height="24.972" stroke="none" id="bottom border" stroke-width="0"/>
   <rect width="24.972" x="0" y="0" fill="#404040" height="348.4167" stroke="none" id="left border" stroke-width="0"/>
   <rect width="24.972" x="775.028" y="0" fill="#404040" height="348.4167" stroke="none" id="right border" stroke-width="0"/>
   <rect width="52.76389" x="173.618" y="95.972535" fill="#141414" height="52.76389" stroke="none" id="upper connector bgnd" stroke-width="0"/>
   <rect width="31.93056" x="184.035" y="106.3892" fill="#8c8663" height="31.93056" stroke="none" id="connector9pin" stroke-width="0"/>
   <rect width="31.93056" x="184.035" y="106.3892" fill="#B8AF82" height="7.75" stroke="none" id="upper connector top inset" stroke-width="0"/>
   <rect width="31.93056" x="184.035" y="130.56976" fill="#5E5B43" height="7.75" stroke="none" id="upper connector bottom inset" stroke-width="0"/>
   <path fill="#9A916C" stroke="none" id="upper connector left inset" stroke-width="0" d="M184.035,106.3892 184.035,138.31976 191.785,130.56976 191.785,114.1392z"/>
   <path fill="#9A916C" stroke="none" id="upper connector right inset" stroke-width="0" d="M215.965,106.3892 215.965,138.31976 208.215,130.56976 208.215,114.1392z"/>
   <rect width="52.76389" x="273.618" y="95.972535" fill="#141414" height="52.76389" stroke="none" id="upper connector bgnd" stroke-width="0"/>
   <rect width="31.93056" x="284.035" y="106.3892" fill="#8c8663" height="31.93056" stroke="none" id="connector8pin" stroke-width="0"/>
   <rect width="31.93056" x="284.035" y="106.3892" fill="#B8AF82" height="7.75" stroke="none" id="upper connector top inset" stroke-width="0"/>
   <rect width="31.93056" x="284.035" y="130.56976" fill="#5E5B43" height="7.75" stroke="none" id="upper connector bottom inset" stroke-width="0"/>
   <path fill="#9A916C" stroke="none" id="upper connector left inset" stroke-width="0" d="M284.035,106.3892 284.035,138.31976 291.785,130.56976 291.785,114.1392z"/>
   <path fill="#9A916C" stroke="none" id="upper connector right inset" stroke-width="0" d="M315.965,106.3892 315.965,138.31976 308.215,130.56976 308.215,114.1392z"/>
   <rect width="52.76389" x="373.618" y="95.972535" fill="#141414" height="52.76389" stroke="none" id="upper connector bgnd" stroke-width="0"/>
   <rect width="31.93056" x="384.035" y="106.3892" fill="#8c8663" height="31.93056" stroke="none" id="connector7pin" stroke-width="0"/>
   <rect width="31.93056" x="384.035" y="106.3892" fill="#B8AF82" height="7.75" stroke="none" id="upper connector top inset" stroke-width="0"/>
   <rect width="31.93056" x="384.035" y="130.56976" fill="#5E5B43" height="7.75" stroke="none" id="upper connector bottom inset" stroke-width="0"/>
   <path fill="#9A916C" stroke="none" id="upper connector left inset" stroke-width="0" d="M384.035,106.3892 384.035,138.31976 391.785,130.56976 391.785,114.1392z"/>
   <path fill="#9A916C" stroke="none" id="upper connector right inset" stroke-width="0" d="M415.965,106.3892 415.965,138.31976 408.215,130.56976 408.215,114.1392z"/>
   <rect width="52.76389" x="473.618" y="95.972535" fill="#141414" height="52.76389" stroke="none" id="upper connector bgnd" stroke-width="0"/>
   <rect width="31.93056" x="484.035" y="106.3892" fill="#8c8663" height="31.93056" stroke="none" id="connector6pin" stroke-width="0"/>
   <rect width="31.93056" x="484.035" y="106.3892" fill="#B8AF82" height="7.75" stroke="none" id="upper connector top inset" stroke-width="0"/>
   <rect width="31.93056" x="484.035" y="130.56976" fill="#5E5B43" height="7.75" stroke="none" id="upper connector bottom inset" stroke-width="0"/>
   <path fill="#9A916C" stroke="none" id="upper connector left inset" stroke-width="0" d="M484.035,106.3892 484.035,138.31976 491.785,130.56976 491.785,114.1392z"/>
   <path fill="#9A916C" stroke="none" id="upper connector right inset" stroke-width="0" d="M515.965,106.3892 515.965,138.31976 508.215,130.56976 508.215,114.1392z"/>
   <rect width="52.76389" x="573.618" y="95.972535" fill="#141414" height="52.76389" stroke="none" id="upper connector bgnd" stroke-width="0"/>
   <rect width="31.93056" x="584.035" y="106.3892" fill="#8c8663" height="31.93056" stroke="none" id="connector5pin" stroke-width="0"/>
   <rect width="31.93056" x="584.035" y="106.3892" fill="#B8AF82" height="7.75" stroke="none" id="upper connector top inset" stroke-width="0"/>
   <rect width="31.93056" x="584.035" y="130.56976" fill="#5E5B43" height="7.75" stroke="none" id="upper connector bottom inset" stroke-width="0"/>
   <path fill="#9A916C" stroke="none" id="upper connector left inset" stroke-width="0" d="M584.035,106.3892 584.035,138.31976 591.785,130.56976 591.785,114.1392z"/>
   <path fill="#9A916C" stroke="none" id="upper connector right inset" stroke-width="0" d="M615.965,106.3892 615.965,138.31976 608.215,130.56976 608.215,114.1392z"/>
   <rect width="52.76389" x="173.618" y="195.972535" fill="#141414" height="52.76389" stroke="none" id="lower connector bgnd" stroke-width="0"/>
   <rect width="31.93056" x="184.035" y="206.3892" fill="#8c8663" height="31.93056" stroke="none" id="connector0pin" stroke-width="0"/>
   <rect width="31.93056" x="184.035" y="206.3892" fill="#B8AF82" height="7.75" stroke="none" id="lower connector top inset" stroke-width="0"/>
   <rect width="31.93056" x="184.035" y="230.56976" fill="#5E5B43" height="7.75" stroke="none" id="lower connector bottom inset" stroke-width="0"/>
   <path fill="#9A916C" stroke="none" id="lower connector left inset" stroke-width="0" d="M184.035,206.3892 184.035,238.31976 191.785,230.56976 191.785,214.1392z"/>
   <path fill="#9A916C" stroke="none" id="lower connector right inset" stroke-width="0" d="M215.965,206.3892 215.965,238.31976 208.215,230.56976 208.215,214.1392z"/>
   <rect width="52.76389" x="273.618" y="195.972535" fill="#141414" height="52.76389" stroke="none" id="lower connector bgnd" stroke-width="0"/>
   <rect width="31.93056" x="284.035" y="206.3892" fill="#8c8663" height="31.93056" stroke="none" id="connector1pin" stroke-width="0"/>
   <rect width="31.93056" x="284.035" y="206.3892" fill="#B8AF82" height="7.75" stroke="none" id="lower connector top inset" stroke-width="0"/>
   <rect width="31.93056" x="284.035" y="230.56976" fill="#5E5B43" height="7.75" stroke="none" id="lower connector bottom inset" stroke-width="0"/>
   <path fill="#9A916C" stroke="none" id="lower connector left inset" stroke-width="0" d="M284.035,206.3892 284.035,238.31976 291.785,230.56976 291.785,214.1392z"/>
   <path fill="#9A916C" stroke="none" id="lower connector right inset" stroke-width="0" d="M315.965,206.3892 315.965,238.31976 308.215,230.56976 308.215,214.1392z"/>
   <rect width="52.76389" x="373.618" y="195.972535" fill="#141414" height="52.76389" stroke="none" id="lower connector bgnd" stroke-width="0"/>
   <rect width="31.93056" x="384.035" y="206.3892" fill="#8c8663" height="31.93056" stroke="none" id="connector2pin" stroke-width="0"/>
   <rect width="31.93056" x="384.035" y="206.3892" fill="#B8AF82" height="7.75" stroke="none" id="lower connector top inset" stroke-width="0"/>
   <rect width="31.93056" x="384.035" y="230.56976" fill="#5E5B43" height="7.75" stroke="none" id="lower connector bottom inset" stroke-width="0"/>
   <path fill="#9A916C" stroke="none" id="lower connector left inset" stroke-width="0" d="M384.035,206.3892 384.035,238.31976 391.785,230.56976 391.785,214.1392z"/>
   <path fill="#9A916C" stroke="none" id="lower connector right inset" stroke-width="0" d="M415.965,206.3892 415.965,238.31976 408.215,230.56976 408.215,214.1392z"/>
   <rect width="52.76389" x="473.618" y="195.972535" fill="#141414" height="52.76389" stroke="none" id="lower connector bgnd" stroke-width="0"/>
   <rect width="31.93056" x="484.035" y="206.3892" fill="#8c8663" height="31.93056" stroke="none" id="connector3pin" stroke-width="0"/>
   <rect width="31.93056" x="484.035" y="206.3892" fill="#B8AF82" height="7.75" stroke="none" id="lower connector top inset" stroke-width="0"/>
   <rect width="31.93056" x="484.035" y="230.56976" fill="#5E5B43" height="7.75" stroke="none" id="lower connector bottom inset" stroke-width="0"/>
   <path fill="#9A916C" stroke="none" id="lower connector left inset" stroke-width="0" d="M484.035,206.3892 484.035,238.31976 491.785,230.56976 491.785,214.1392z"/>
   <path fill="#9A916C" stroke="none" id="lower connector right inset" stroke-width="0" d="M515.965,206.3892 515.965,238.31976 508.215,230.56976 508.215,214.1392z"/>
   <rect width="52.76389" x="573.618" y="195.972535" fill="#141414" height="52.76389" stroke="none" id="lower connector bgnd" stroke-width="0"/>
   <rect width="31.93056" x="584.035" y="206.3892" fill="#8c8663" height="31.93056" stroke="none" id="connector4pin" stroke-width="0"/>
   <rect width="31.93056" x="584.035" y="206.3892" fill="#B8AF82" height="7.75" stroke="none" id="lower connector top inset" stroke-width="0"/>
   <rect width="31.93056" x="584.035" y="230.56976" fill="#5E5B43" height="7.75" stroke="none" id="lower connector bottom inset" stroke-width="0"/>
   <path fill="#9A916C" stroke="none" id="lower connector left inset" stroke-width="0" d="M584.035,206.3892 584.035,238.31976 591.785,230.56976 591.785,214.1392z"/>
   <path fill="#9A916C" stroke="none" id="lower connector right inset" stroke-width="0" d="M615.965,206.3892 615.965,238.31976 608.215,230.56976 608.215,214.1392z"/>
   <rect width="168.0972" x="315.951" y="280.4973" fill="#1a1a1a" height="67.9194" stroke="none" id="slot" stroke-width="0"/>
  </g>
 </g>
</svg>
