<?xml version="1.0" encoding="UTF-8" standalone="no"?>
<svg
   version="1.0"
   baseProfile="tiny"
   width="32"
   height="32"
   id="svg2">
  <g
     id="icon"
     style="display:inline"
     transform="matrix(0.6319636,0,0,0.6319614,5.0517154,-1.644361)">
    <g
       id="g2986">
      <g
         id="g10005">
        <rect
           x="10.735"
           y="29.115999"
           enable-background="new    "
           width="12.576"
           height="24.121"
           id="rect2989"
           style="opacity:0.75;fill:#00947e" />
        <circle
           cx="17.021999"
           cy="18.882999"
           r="16.281"
           id="circle2991" />
        <rect
           x="10.734"
           y="30.559"
           width="12.576"
           height="4.8460002"
           id="rect2993" />
        <path
           d="M 3.788,18.882 C 3.788,24.902 7.809,29.976 13.31,31.582 L 13.31,53.237 L 16.101,53.237 L 16.101,32.082 L 16.101,31.426 L 16.101,31.281 C 14.151,31.137 12.328,30.544 10.73,29.604 L 20.578,29.604 C 20.834,29.518 21.086,29.426 21.333,29.324 L 10.278,29.324 C 9.567,28.865 8.903,28.334 8.301,27.744 L 24.024,27.744 C 24.139,27.653 24.253,27.56 24.364,27.463 L 8.029,27.463 C 7.56,26.973 7.132,26.444 6.748,25.883 L 25.886,25.883 C 25.958,25.79 26.032,25.698 26.102,25.603 L 6.561,25.603 C 6.237,25.1 5.948,24.572 5.697,24.022 L 27.081,24.022 C 27.129,23.93 27.178,23.837 27.223,23.742 L 5.578,23.742 C 5.36,23.231 5.177,22.703 5.029,22.161 L 27.835,22.161 C 27.863,22.069 27.889,21.975 27.915,21.881 L 4.952,21.881 C 4.825,21.366 4.731,20.838 4.671,20.3 L 28.229,20.3 C 28.24,20.207 28.253,20.114 28.263,20.02 L 4.64,20.02 C 4.606,19.645 4.587,19.266 4.587,18.881 C 4.587,18.732 4.601,18.587 4.607,18.44 L 28.308,18.44 C 28.304,18.347 28.299,18.253 28.294,18.159 L 4.62,18.159 C 4.651,17.623 4.706,17.094 4.803,16.579 L 28.085,16.579 C 28.065,16.485 28.042,16.393 28.021,16.298 L 4.866,16.298 C 4.981,15.758 5.128,15.23 5.31,14.718 L 27.524,14.718 C 27.487,14.625 27.452,14.531 27.412,14.437 L 5.408,14.437 C 5.618,13.889 5.871,13.363 6.153,12.857 L 26.577,12.857 C 26.518,12.763 26.46,12.669 26.397,12.576 L 6.302,12.576 C 6.631,12.018 7.008,11.493 7.417,10.996 L 25.108,10.996 C 25.016,10.901 24.92,10.808 24.826,10.716 L 7.652,10.716 C 8.156,10.138 8.715,9.611 9.317,9.136 L 22.734,9.136 C 22.569,9.038 22.399,8.945 22.229,8.855 L 9.682,8.855 C 10.566,8.207 11.537,7.672 12.577,7.275 L 18.249,7.275 L 18.249,6.995 L 13.404,6.995 C 13.887,6.849 14.377,6.72 14.883,6.632 L 14.883,5.822 C 8.591,6.846 3.788,12.302 3.788,18.882 z"
           id="path2995"
           style="fill:#808080" />
        <path
           d="M 19.162,6.633 C 20.507,6.866 21.769,7.323 22.929,7.95 L 14.168,7.95 C 13.859,8.03 13.558,8.124 13.261,8.23 L 23.423,8.23 C 24.176,8.683 24.875,9.214 25.512,9.811 L 10.29,9.811 C 10.169,9.901 10.05,9.995 9.932,10.091 L 25.813,10.091 C 26.303,10.58 26.752,11.108 27.155,11.672 L 8.327,11.672 C 8.251,11.764 8.179,11.858 8.106,11.952 L 27.337,11.952 C 27.676,12.455 27.987,12.981 28.252,13.533 L 7.072,13.533 C 7.023,13.624 6.976,13.719 6.928,13.813 L 28.37,13.813 C 28.599,14.324 28.796,14.85 28.955,15.394 L 6.277,15.394 C 6.247,15.486 6.219,15.58 6.191,15.674 L 29.035,15.674 C 29.172,16.188 29.269,16.717 29.341,17.255 L 5.845,17.255 C 5.831,17.347 5.821,17.441 5.809,17.535 L 29.377,17.535 C 29.425,17.978 29.458,18.427 29.458,18.883 C 29.458,18.961 29.453,19.038 29.452,19.115 L 5.732,19.115 C 5.734,19.208 5.736,19.302 5.74,19.395 L 29.448,19.395 C 29.427,19.932 29.369,20.459 29.281,20.976 L 5.923,20.976 C 5.941,21.07 5.958,21.164 5.978,21.256 L 29.231,21.256 C 29.127,21.797 28.985,22.324 28.814,22.837 L 6.44,22.837 C 6.475,22.932 6.512,23.025 6.549,23.117 L 28.716,23.117 C 28.518,23.663 28.284,24.191 28.014,24.698 L 7.337,24.698 C 7.393,24.793 7.454,24.886 7.513,24.978 L 27.862,24.978 C 27.55,25.534 27.196,26.061 26.804,26.559 L 8.737,26.559 C 8.825,26.654 8.912,26.747 9.003,26.839 L 26.577,26.839 C 26.099,27.411 25.57,27.941 24.997,28.419 L 10.97,28.419 C 11.122,28.516 11.277,28.608 11.434,28.699 L 24.65,28.699 C 23.834,29.333 22.934,29.862 21.973,30.28 L 16.33,30.28 L 16.33,30.559 L 21.278,30.559 C 20.224,30.944 19.109,31.196 17.945,31.282 L 17.945,31.427 L 17.945,32.083 L 17.945,53.238 L 20.736,53.238 L 20.736,31.583 C 26.236,29.977 30.257,24.902 30.257,18.882 C 30.257,12.302 25.454,6.845 19.161,5.823 L 19.161,6.633 L 19.162,6.633 z"
           id="path2997"
           style="fill:#808080" />
      </g>
    </g>
  </g>
</svg>
