<?xml version="1.0" encoding="utf-8"?>
<!-- Generator: Adobe Illustrator 15.1.0, SVG Export Plug-In . SVG Version: 6.00 Build 0)  -->
<!DOCTYPE svg PUBLIC "-//W3C//DTD SVG 1.1//EN" "http://www.w3.org/Graphics/SVG/1.1/DTD/svg11.dtd">
<svg version="1.1" id="Ebene_1" xmlns:svg="http://www.w3.org/2000/svg"
	 xmlns="http://www.w3.org/2000/svg" xmlns:xlink="http://www.w3.org/1999/xlink" x="0px" y="0px" width="34.592px"
	 height="42.518px" viewBox="0 0 34.592 42.518" enable-background="new 0 0 34.592 42.518" xml:space="preserve">
<path fill="#1A1A1A" d="M30.592,7.083H4c-2.2,0-4,1.8-4,4v26.834c0,2.2,1.8,4,4,4h4.004v-0.608h18.583v0.608h4.005c2.2,0,4-1.8,4-4
	V11.083C34.592,8.883,32.792,7.083,30.592,7.083z"/>
<path fill="#333333" d="M30.592,0h-4.005v0.608H8.004V0H4C1.8,0,0,1.8,0,4v26.834c0,2.2,1.8,4,4,4h4.004v-0.608h18.583v0.608h4.005
	c2.2,0,4-1.8,4-4V4C34.592,1.8,32.792,0,30.592,0z"/>
<path fill="#333333" d="M0,30.834c0,2.2,1.8,4,4,4h4.004"/>
<path opacity="0.2" fill="#FFFFFF" d="M34.592,4.223c0-2.2-1.8-4-4-4h-4.005V0h4.005c2.2,0,4,1.8,4,4V4.223z"/>
<path opacity="0.2" fill="#FFFFFF" d="M0,4.223c0-2.2,1.8-4,4-4h4.004V0H4C1.8,0,0,1.8,0,4V4.223z"/>
<rect x="8.004" y="0.608" opacity="0.2" fill="#FFFFFF" width="18.583" height="0.223"/>
<path opacity="0.5" d="M0,30.834c0,2.199,1.8,4,4,4h4.005v0.223H4c-2.2,0-4-1.8-4-4V30.834z"/>
<path opacity="0.5" d="M34.592,30.834c0,2.199-1.8,4-4,4h-4.005v0.223h4.005c2.2,0,4-1.8,4-4V30.834z"/>
<rect x="8.005" y="34.225" opacity="0.5" width="18.582" height="0.224"/>
<path opacity="0.5" d="M0,37.691c0,2.199,1.8,4,4,4h4.005v0.223H4c-2.2,0-4-1.8-4-4V37.691z"/>
<path opacity="0.5" d="M34.592,37.691c0,2.199-1.8,4-4,4h-4.005v0.223h4.005c2.2,0,4-1.8,4-4V37.691z"/>
<rect x="8.005" y="41.082" opacity="0.5" width="18.582" height="0.224"/>
<g>
	<rect y="8.126" fill="#1A1A1A" width="0.608" height="18.583"/>
	<rect x="33.983" y="8.126" fill="#1A1A1A" width="0.608" height="18.583"/>
</g>
<circle fill="#1A1A1A" cx="17.296" cy="17.417" r="15.887"/>
<circle cx="17.296" cy="17.417" r="15.194"/>
<circle fill="#1A1A1A" cx="17.296" cy="17.417" r="14.511"/>
<path fill="#1A1A1A" d="M4.157,9.81C5.486,7.52,7.393,5.613,9.682,4.283c-0.56-1.812-2.228-3.138-4.223-3.138
	c-2.453,0-4.441,1.988-4.441,4.44C1.018,7.582,2.344,9.251,4.157,9.81z"/>
<path fill="#1A1A1A" d="M30.435,9.81c1.813-0.559,3.14-2.228,3.14-4.225c0-2.452-1.988-4.44-4.441-4.44
	c-1.995,0-3.664,1.326-4.224,3.137C27.199,5.612,29.105,7.52,30.435,9.81z"/>
<g>
	<path opacity="0.2" fill="#FFFFFF" d="M17.296,1.531c-2.868,0-5.55,0.771-7.873,2.1c0.023,0.047,0.038,0.1,0.059,0.148
		c2.309-1.308,4.971-2.064,7.814-2.064s5.505,0.756,7.813,2.064c0.021-0.049,0.035-0.101,0.059-0.149
		C22.846,2.301,20.163,1.531,17.296,1.531z"/>
	<path opacity="0.2" fill="#FFFFFF" d="M5.459,1.145c-2.453,0-4.441,1.988-4.441,4.44v0.172c0-2.452,1.988-4.44,4.441-4.44
		c1.694,0,3.146,0.961,3.89,2.359c0.025-0.015,0.049-0.031,0.074-0.045C8.702,2.162,7.206,1.145,5.459,1.145z"/>
	<path opacity="0.2" fill="#FFFFFF" d="M9.349,3.676c0.024,0.046,0.055,0.089,0.078,0.137C9.446,3.802,9.463,3.79,9.482,3.779
		C9.46,3.731,9.446,3.678,9.423,3.631C9.397,3.645,9.374,3.662,9.349,3.676z"/>
	<path opacity="0.2" fill="#FFFFFF" d="M29.133,1.307c2.453,0,4.441,1.988,4.441,4.44V5.585c0-2.452-1.988-4.44-4.441-4.44
		c-1.747,0-3.243,1.017-3.965,2.485c0.024,0.014,0.047,0.029,0.07,0.042C25.981,2.271,27.436,1.307,29.133,1.307z"/>
	<path opacity="0.2" fill="#FFFFFF" d="M25.109,3.779c0.018,0.01,0.034,0.021,0.052,0.031c0.022-0.047,0.053-0.091,0.077-0.138
		c-0.023-0.014-0.046-0.029-0.07-0.042C25.145,3.678,25.131,3.73,25.109,3.779z"/>
</g>
<path fill="#1A1A1A" d="M4.157,25.026c-1.813,0.559-3.14,2.228-3.14,4.225c0,2.451,1.988,4.439,4.441,4.439
	c1.995,0,3.664-1.326,4.223-3.138C7.393,29.222,5.486,27.316,4.157,25.026z"/>
<path fill="#1A1A1A" d="M30.435,25.026c-1.329,2.29-3.235,4.196-5.525,5.526c0.56,1.812,2.228,3.138,4.224,3.138
	c2.453,0,4.441-1.988,4.441-4.439C33.574,27.253,32.248,25.584,30.435,25.026z"/>
<g>
	<path d="M30.2,9.423c1.688-0.469,2.934-2.001,2.934-3.838c0-2.208-1.791-3.999-4.001-3.999c-1.837,0-3.367,1.245-3.837,2.932
		C27.286,5.754,28.964,7.433,30.2,9.423z"/>
	<path d="M4.392,9.423c1.236-1.99,2.914-3.669,4.903-4.906c-0.469-1.687-2-2.932-3.836-2.932c-2.21,0-4.001,1.791-4.001,4
		C1.458,7.423,2.704,8.954,4.392,9.423z"/>
	<path d="M30.2,25.412c-1.236,1.99-2.915,3.67-4.904,4.906c0.469,1.687,2,2.932,3.837,2.932c2.21,0,4.001-1.791,4.001-3.999
		C33.134,27.413,31.888,25.881,30.2,25.412z"/>
	<path d="M4.392,25.412c-1.688,0.47-2.934,2.001-2.934,3.839c0,2.208,1.791,3.999,4.001,3.999c1.836,0,3.368-1.245,3.837-2.932
		C7.306,29.082,5.628,27.402,4.392,25.412z"/>
</g>
<text transform="matrix(1 0 0 1 8.6299 16.3306)"><tspan x="0" y="0" fill="#4D4D4D" font-family="'ArialMT'" font-size="6">CDRH</tspan><tspan x="3.661" y="6" fill="#4D4D4D" font-family="'ArialMT'" font-size="6">125</tspan></text>
<g>
	<rect x="9.683" y="41.309" fill="#808080" width="5.781" height="1.209"/>
	<rect x="19.128" y="41.309" fill="#808080" width="5.781" height="1.209"/>
</g>
<g>
	<rect x="9.683" y="39.934" fill="#999999" width="5.781" height="2.25"/>
	<rect x="19.128" y="39.934" fill="#999999" width="5.781" height="2.25"/>
</g>
<g>
	<rect x="9.683" y="39.801" fill="#808080" width="5.781" height="0.133"/>
	<rect x="19.128" y="39.801" fill="#808080" width="5.781" height="0.133"/>
</g>
<g opacity="0.76">
	<path opacity="0.2" fill="#FFFFFF" d="M17.296,33.304c2.868,0,5.551-0.771,7.873-2.1c-0.023-0.048-0.037-0.101-0.059-0.148
		c-2.31,1.308-4.972,2.063-7.814,2.063s-5.505-0.756-7.813-2.063c-0.021,0.049-0.035,0.101-0.059,0.148
		C11.746,32.534,14.429,33.304,17.296,33.304z"/>
	<path opacity="0.2" fill="#FFFFFF" d="M29.133,33.69c2.453,0,4.441-1.988,4.441-4.44v-0.172c0,2.451-1.988,4.439-4.441,4.439
		c-1.694,0-3.146-0.961-3.89-2.358c-0.024,0.015-0.049,0.031-0.074,0.046C25.89,32.673,27.386,33.69,29.133,33.69z"/>
	<path opacity="0.2" fill="#FFFFFF" d="M25.243,31.159c-0.024-0.046-0.055-0.089-0.078-0.137c-0.019,0.011-0.036,0.022-0.055,0.034
		c0.021,0.048,0.035,0.101,0.059,0.148C25.194,31.19,25.219,31.173,25.243,31.159z"/>
	<path opacity="0.2" fill="#FFFFFF" d="M5.459,33.529c-2.453,0-4.441-1.988-4.441-4.44v0.161c0,2.452,1.988,4.44,4.441,4.44
		c1.747,0,3.243-1.017,3.965-2.485c-0.024-0.014-0.047-0.029-0.07-0.043C8.61,32.564,7.156,33.529,5.459,33.529z"/>
	<path opacity="0.2" fill="#FFFFFF" d="M9.482,31.056c-0.018-0.01-0.034-0.021-0.052-0.031c-0.022,0.047-0.053,0.09-0.077,0.137
		c0.023,0.014,0.046,0.029,0.07,0.043C9.447,31.157,9.461,31.105,9.482,31.056z"/>
</g>
<rect x="7.796" y="35.057" opacity="0.5" width="0.209" height="6.634"/>
<rect x="26.587" y="35.057" opacity="0.5" width="0.209" height="6.634"/>
<path opacity="0.1" fill="#FFFFFF" d="M2.785,17.602c0-8.014,6.497-14.511,14.511-14.511c8.015,0,14.511,6.497,14.511,14.511v-0.184
	c0-8.014-6.496-14.511-14.511-14.511c-8.014,0-14.511,6.497-14.511,14.511V17.602z"/>
<path opacity="0.5" d="M31.807,17.233c0,8.014-6.497,14.512-14.511,14.512c-8.015,0-14.511-6.498-14.511-14.512v0.184
	c0,8.015,6.496,14.511,14.511,14.511c8.014,0,14.511-6.496,14.511-14.511V17.233z"/>
</svg>
