<?xml version="1.0" encoding="utf-8"?>
<!-- Generator: Adobe Illustrator 14.0.0, SVG Export Plug-In . SVG Version: 6.00 Build 43363)  -->
<!DOCTYPE svg PUBLIC "-//W3C//DTD SVG 1.1//EN" "http://www.w3.org/Graphics/SVG/1.1/DTD/svg11.dtd">
<svg version="1.1" id="Ebene_1" xmlns:svg="http://www.w3.org/2000/svg"
	 xmlns="http://www.w3.org/2000/svg" xmlns:xlink="http://www.w3.org/1999/xlink" x="0px" y="0px" width="21.6px" height="23.76px"
	 viewBox="0 0 21.6 23.76" enable-background="new 0 0 21.6 23.76" xml:space="preserve">
<polygon fill="#F7F7F7" stroke="#000000" stroke-width="0.1744" points="20.564,3.338 20.564,14.003 19.937,14.631 19.937,19.65 
	20.564,20.277 20.564,29.688 19.937,30.316 -3.904,30.316 -4.531,29.688 -4.506,20.277 -3.877,19.65 -3.877,14.631 -4.506,14.003 
	-4.531,3.338 -3.277,2.083 -1.406,2.083 -0.779,1.456 7.383,1.456 8.01,2.083 8.01,2.083 8.637,1.456 16.797,1.456 17.426,2.083 
	19.309,2.083 "/>
<g id="graphics">
	<path fill="#101110" d="M3.481,9.504l0.082,0.184L1.657,9.705l0.119-0.201H3.481z M3.533,9.424H1.731L1.518,9.787l2.172-0.02
		L3.533,9.424z"/>
	<polygon fill="#101110" points="3.722,8.633 4.41,8.812 4.14,8.436 3.871,8.061 3.453,8.258 3.034,8.456 	"/>
	<path fill="none" stroke="#101110" stroke-width="0.2154" d="M3.866,8.436c0,0-0.829,0.56-0.654,2.089"/>
	<polygon fill="#101110" points="1.852,8.633 1.164,8.812 1.433,8.436 1.703,8.061 2.121,8.258 2.54,8.456 	"/>
	<path fill="none" stroke="#101110" stroke-width="0.2154" d="M1.724,8.436c0,0,0.829,0.56,0.654,2.089"/>
	<path fill="#101110" d="M14.193,9.504l0.117,0.201l-1.903-0.017l0.082-0.184L14.193,9.504z M14.239,9.424h-1.802l-0.155,0.343
		l2.172,0.02L14.239,9.424z"/>
	<polygon fill="#101110" points="12.248,8.633 11.56,8.812 11.829,8.436 12.1,8.061 12.518,8.258 12.936,8.456 	"/>
	<path fill="none" stroke="#101110" stroke-width="0.2154" d="M12.104,8.436c0,0,0.83,0.56,0.655,2.089"/>
	<polygon fill="#101110" points="14.117,8.633 14.807,8.812 14.536,8.436 14.268,8.061 13.849,8.258 13.43,8.456 	"/>
	<path fill="none" stroke="#101110" stroke-width="0.2154" d="M14.245,8.436c0,0-0.828,0.56-0.653,2.089"/>
	<g>
		<path fill="#101110" d="M0.65,26.107c-0.01-0.009-0.023-0.017-0.041-0.021c-0.016-0.006-0.037-0.008-0.062-0.008H0.447V26.3h0.105
			c0.022,0,0.043-0.003,0.06-0.007c0.016-0.007,0.029-0.014,0.039-0.022c0.007-0.009,0.016-0.021,0.021-0.036
			c0.005-0.015,0.007-0.03,0.007-0.05c0-0.016-0.002-0.029-0.007-0.042C0.668,26.127,0.66,26.117,0.65,26.107z"/>
		<path fill="#101110" d="M0.596,25.931c0.015-0.004,0.027-0.011,0.036-0.019c0.009-0.009,0.018-0.019,0.021-0.031
			c0.004-0.012,0.006-0.025,0.006-0.041c0-0.034-0.008-0.057-0.03-0.07c-0.021-0.014-0.051-0.022-0.095-0.022H0.448v0.188h0.094
			C0.563,25.937,0.581,25.934,0.596,25.931z"/>
		<path fill="#101110" d="M-1.731,25.876c-0.006-0.016-0.009-0.033-0.015-0.051c-0.005-0.021-0.01-0.037-0.014-0.059
			c-0.005-0.02-0.008-0.036-0.01-0.049c-0.001,0.008-0.004,0.018-0.006,0.029s-0.007,0.024-0.008,0.037
			c-0.003,0.013-0.007,0.024-0.01,0.038c-0.004,0.013-0.007,0.025-0.008,0.036c-0.002,0.012-0.007,0.021-0.008,0.031
			c-0.002,0.009-0.004,0.017-0.006,0.02l-0.055,0.186h0.206l-0.052-0.185C-1.723,25.903-1.727,25.893-1.731,25.876z"/>
		<path fill="#101110" d="M3.307,25.93c-0.021,0-0.036,0.004-0.051,0.01c-0.014,0.008-0.025,0.019-0.034,0.033
			c-0.008,0.015-0.014,0.032-0.019,0.053c-0.005,0.021-0.007,0.048-0.007,0.077v0.02c0,0.031,0.001,0.059,0.006,0.083
			c0.004,0.023,0.009,0.044,0.019,0.062c0.008,0.016,0.021,0.028,0.034,0.036c0.014,0.007,0.031,0.012,0.052,0.012
			c0.036,0,0.061-0.016,0.078-0.051c0.016-0.035,0.025-0.08,0.025-0.146s-0.009-0.11-0.025-0.143
			C3.369,25.945,3.343,25.93,3.307,25.93z"/>
		<path fill="#101110" d="M6.309,12.561H4.49c0,0-0.095-1.733-0.808-2.796L1.511,9.777c0.873,1.833,0.661,3.89,0.661,3.89
			c-0.034,3.92-2.077,11.098-6.715,14.078l-0.004,1.925l0.627,0.628l1.335,0.002l0.346-0.288l0.356-0.298l0.355,0.298l0.348,0.292
			h1.01l0.352-0.292l0.356-0.298l0.355,0.298l0.352,0.294l1.095,0.001l0.353-0.295l0.356-0.298l0.355,0.298l0.356,0.297h0.544
			c0,0,1.548-4.555,2.015-10.815C6.476,17.342,6.51,14.993,6.309,12.561z M-1.567,26.446l-0.058-0.2h-0.292l-0.058,0.2h-0.181
			l0.274-0.85h0.219l0.276,0.85H-1.567z M0.839,26.306c-0.014,0.03-0.035,0.055-0.059,0.076c-0.025,0.021-0.056,0.036-0.093,0.049
			c-0.037,0.012-0.077,0.017-0.122,0.017H0.266v-0.845h0.248c0.053,0,0.1,0.003,0.14,0.011c0.04,0.007,0.074,0.02,0.101,0.036
			c0.027,0.019,0.048,0.038,0.061,0.066c0.014,0.026,0.021,0.06,0.021,0.1c0,0.024-0.004,0.047-0.008,0.066
			c-0.007,0.021-0.015,0.038-0.026,0.055c-0.01,0.016-0.023,0.028-0.041,0.039c-0.017,0.01-0.035,0.019-0.054,0.021v0.008
			c0.021,0.005,0.039,0.011,0.059,0.021c0.019,0.008,0.034,0.021,0.048,0.037s0.024,0.034,0.032,0.058
			c0.008,0.021,0.012,0.05,0.012,0.083C0.859,26.241,0.852,26.275,0.839,26.306z M1.781,21.529
			c-0.025,0.024-0.053,0.053-0.084,0.083c-0.032,0.03-0.066,0.062-0.097,0.093c-0.034,0.032-0.066,0.06-0.098,0.084l-0.526,0.424
			L0.505,21.63l1.476-1.177h0.797v4.585H1.808v-2.652c0-0.054,0.001-0.12,0.002-0.197c0.001-0.076,0.003-0.153,0.006-0.238
			c0.003-0.082,0.006-0.166,0.01-0.249c0.002-0.084,0.005-0.16,0.007-0.229C1.823,21.485,1.805,21.505,1.781,21.529z M2.859,26.314
			c-0.013,0.029-0.032,0.056-0.057,0.078c-0.025,0.022-0.056,0.036-0.092,0.051c-0.036,0.011-0.079,0.019-0.124,0.019
			c-0.041,0-0.08-0.007-0.118-0.014s-0.073-0.021-0.106-0.036v-0.168c0.019,0.008,0.036,0.019,0.056,0.024
			c0.02,0.009,0.037,0.017,0.057,0.022c0.021,0.007,0.039,0.012,0.058,0.017c0.021,0.004,0.039,0.005,0.06,0.005
			c0.02,0,0.036-0.002,0.051-0.006c0.014-0.006,0.025-0.011,0.034-0.021c0.008-0.007,0.015-0.018,0.021-0.028
			c0.004-0.009,0.006-0.021,0.006-0.036s-0.003-0.029-0.01-0.041s-0.016-0.023-0.028-0.034c-0.011-0.011-0.025-0.021-0.044-0.032
			c-0.017-0.01-0.036-0.021-0.058-0.032c-0.018-0.008-0.036-0.021-0.06-0.034c-0.021-0.014-0.042-0.029-0.062-0.05
			c-0.019-0.021-0.036-0.043-0.049-0.069c-0.013-0.028-0.021-0.062-0.021-0.1s0.007-0.071,0.02-0.102
			c0.013-0.029,0.031-0.054,0.053-0.076c0.022-0.021,0.05-0.036,0.083-0.048c0.033-0.01,0.07-0.017,0.11-0.017
			c0.021,0,0.04,0.002,0.06,0.004c0.02,0.005,0.038,0.008,0.058,0.012c0.02,0.007,0.038,0.012,0.058,0.021
			c0.02,0.007,0.039,0.016,0.06,0.023l-0.058,0.139c-0.017-0.007-0.034-0.015-0.049-0.021c-0.015-0.006-0.03-0.01-0.044-0.016
			c-0.015-0.004-0.028-0.008-0.042-0.008c-0.014-0.002-0.027-0.005-0.041-0.005c-0.03,0-0.053,0.008-0.069,0.024
			c-0.017,0.016-0.024,0.036-0.024,0.064c0,0.014,0.003,0.025,0.007,0.036c0.005,0.011,0.013,0.021,0.022,0.032
			c0.01,0.009,0.024,0.021,0.041,0.029c0.017,0.01,0.037,0.021,0.062,0.035c0.029,0.015,0.055,0.031,0.08,0.048
			c0.023,0.016,0.045,0.033,0.062,0.053c0.02,0.02,0.032,0.04,0.042,0.064c0.009,0.024,0.015,0.054,0.015,0.087
			C2.879,26.25,2.872,26.284,2.859,26.314z M3.573,26.268c-0.011,0.042-0.026,0.078-0.047,0.105
			c-0.022,0.028-0.045,0.051-0.072,0.066c-0.028,0.014-0.059,0.021-0.094,0.021c-0.021,0-0.039-0.004-0.058-0.008
			c-0.016-0.007-0.031-0.011-0.044-0.021c-0.013-0.007-0.022-0.016-0.035-0.024c-0.01-0.011-0.02-0.021-0.027-0.032H3.188
			c0.002,0.014,0.005,0.025,0.006,0.037c0,0.011,0.002,0.021,0.003,0.032c0.001,0.01,0.001,0.019,0.001,0.023v0.262H3.023V25.8
			h0.143l0.024,0.083h0.008c0.007-0.012,0.018-0.024,0.027-0.036c0.011-0.013,0.022-0.021,0.037-0.031
			c0.013-0.009,0.029-0.016,0.047-0.022c0.018-0.006,0.036-0.007,0.058-0.007c0.034,0,0.064,0.007,0.091,0.021
			c0.028,0.015,0.051,0.036,0.071,0.064c0.02,0.028,0.035,0.063,0.046,0.105c0.01,0.041,0.016,0.091,0.016,0.145
			C3.59,26.178,3.585,26.227,3.573,26.268z"/>
	</g>
	<g>
		<path fill="#101110" d="M15.637,26.107c-0.01-0.009-0.023-0.017-0.04-0.021c-0.017-0.006-0.036-0.008-0.063-0.008h-0.1V26.3h0.105
			c0.023,0,0.043-0.003,0.061-0.007c0.018-0.007,0.028-0.014,0.038-0.022c0.009-0.009,0.017-0.021,0.021-0.036
			c0.004-0.015,0.007-0.03,0.007-0.05c0-0.016-0.003-0.029-0.007-0.042C15.655,26.127,15.647,26.117,15.637,26.107z"/>
		<path fill="#101110" d="M17.969,25.93c-0.021,0-0.035,0.004-0.051,0.01c-0.013,0.008-0.022,0.019-0.033,0.033
			c-0.008,0.015-0.015,0.032-0.02,0.053c-0.005,0.021-0.006,0.048-0.006,0.077v0.02c0,0.031,0.001,0.059,0.006,0.083
			c0.004,0.023,0.008,0.044,0.02,0.062c0.007,0.016,0.02,0.028,0.033,0.036c0.014,0.007,0.031,0.012,0.051,0.012
			c0.037,0,0.062-0.016,0.078-0.051c0.018-0.035,0.025-0.08,0.025-0.146s-0.008-0.11-0.025-0.143
			C18.031,25.945,18.006,25.93,17.969,25.93z"/>
		<path fill="#101110" d="M15.582,25.931c0.018-0.004,0.028-0.011,0.037-0.019c0.009-0.009,0.016-0.019,0.02-0.031
			c0.007-0.012,0.008-0.025,0.008-0.041c0-0.034-0.009-0.057-0.029-0.07c-0.021-0.014-0.053-0.022-0.096-0.022h-0.086v0.188h0.095
			C15.549,25.937,15.569,25.934,15.582,25.931z"/>
		<path fill="#101110" d="M13.148,25.876c-0.005-0.016-0.009-0.033-0.015-0.051c-0.008-0.021-0.01-0.037-0.015-0.059
			c-0.005-0.02-0.007-0.036-0.01-0.049c-0.001,0.008-0.004,0.018-0.007,0.029c-0.002,0.012-0.006,0.024-0.008,0.037
			c-0.003,0.013-0.007,0.024-0.01,0.038c-0.004,0.013-0.008,0.025-0.008,0.036c-0.003,0.012-0.008,0.021-0.009,0.031
			c-0.003,0.009-0.005,0.017-0.005,0.02l-0.055,0.186h0.207l-0.053-0.186C13.156,25.903,13.153,25.893,13.148,25.876z"/>
		<path fill="#101110" d="M20.512,27.745c-4.637-2.98-6.68-10.158-6.715-14.078c0,0-0.211-2.057,0.662-3.889l-2.172-0.013
			c-0.713,1.063-0.807,2.796-0.807,2.796H9.662c-0.202,2.433-0.168,4.782-0.007,6.931c0.468,6.258,2.013,10.815,2.013,10.815h0.545
			l0.355-0.296l0.355-0.297l0.356,0.297l0.353,0.294l1.097-0.001l0.353-0.293l0.355-0.297l0.355,0.297l0.351,0.292l1.009-0.001
			l0.349-0.291l0.356-0.297l0.355,0.297l0.348,0.288l1.334-0.001l0.628-0.628L20.512,27.745z M13.313,26.446l-0.059-0.2h-0.291
			l-0.059,0.2h-0.182l0.275-0.85h0.219l0.275,0.85H13.313z M12.434,25.039v-0.675l1.078-1.164c0.137-0.146,0.26-0.282,0.37-0.404
			c0.112-0.123,0.208-0.243,0.286-0.361c0.08-0.117,0.141-0.236,0.186-0.355c0.043-0.122,0.064-0.253,0.064-0.393
			c0-0.153-0.047-0.274-0.138-0.36c-0.095-0.085-0.218-0.128-0.374-0.128c-0.166,0-0.324,0.04-0.478,0.124
			c-0.152,0.08-0.312,0.196-0.479,0.348l-0.527-0.625c0.094-0.084,0.192-0.167,0.295-0.246c0.104-0.079,0.215-0.148,0.34-0.209
			c0.123-0.062,0.258-0.108,0.409-0.146c0.148-0.036,0.312-0.056,0.498-0.056c0.22,0,0.417,0.031,0.591,0.093
			c0.175,0.061,0.324,0.146,0.445,0.258c0.125,0.111,0.219,0.248,0.283,0.406c0.066,0.158,0.1,0.339,0.1,0.535
			c0,0.182-0.033,0.354-0.096,0.517c-0.062,0.165-0.147,0.326-0.256,0.483c-0.109,0.157-0.235,0.314-0.379,0.472
			c-0.141,0.155-0.296,0.313-0.457,0.475l-0.552,0.556v0.044h1.868v0.815L12.434,25.039L12.434,25.039z M15.826,26.306
			c-0.014,0.03-0.033,0.055-0.06,0.076c-0.024,0.021-0.055,0.036-0.091,0.049c-0.037,0.012-0.078,0.017-0.125,0.017h-0.296v-0.845
			h0.247c0.053,0,0.1,0.003,0.14,0.011c0.038,0.007,0.073,0.02,0.099,0.036c0.027,0.018,0.049,0.038,0.062,0.066
			c0.014,0.026,0.021,0.06,0.021,0.1c0,0.024-0.004,0.047-0.009,0.066c-0.006,0.021-0.013,0.038-0.023,0.055
			c-0.011,0.016-0.025,0.028-0.04,0.039c-0.017,0.01-0.035,0.019-0.055,0.021v0.008c0.021,0.005,0.039,0.011,0.059,0.021
			c0.02,0.008,0.036,0.021,0.05,0.037c0.013,0.016,0.022,0.034,0.031,0.058c0.007,0.021,0.013,0.05,0.013,0.083
			C15.846,26.241,15.84,26.275,15.826,26.306z M17.522,26.314c-0.014,0.029-0.031,0.056-0.057,0.078
			c-0.025,0.021-0.055,0.036-0.092,0.051c-0.036,0.012-0.078,0.019-0.123,0.019c-0.041,0-0.081-0.007-0.119-0.014
			s-0.073-0.021-0.105-0.036v-0.168c0.019,0.008,0.036,0.019,0.055,0.024c0.02,0.009,0.037,0.017,0.059,0.022
			c0.021,0.007,0.038,0.012,0.059,0.017c0.02,0.004,0.037,0.005,0.059,0.005c0.02,0,0.036-0.002,0.05-0.006
			c0.015-0.006,0.026-0.011,0.035-0.021c0.009-0.007,0.015-0.018,0.021-0.028c0.004-0.009,0.006-0.021,0.006-0.036
			s-0.003-0.029-0.009-0.041c-0.008-0.012-0.018-0.023-0.028-0.034c-0.012-0.011-0.025-0.021-0.045-0.032
			c-0.018-0.01-0.035-0.021-0.056-0.032c-0.021-0.008-0.038-0.021-0.062-0.034c-0.021-0.014-0.04-0.029-0.062-0.05
			c-0.02-0.021-0.035-0.043-0.049-0.069c-0.013-0.028-0.021-0.062-0.021-0.1s0.008-0.071,0.02-0.102
			c0.014-0.029,0.031-0.054,0.053-0.076c0.023-0.021,0.052-0.036,0.084-0.048c0.033-0.01,0.07-0.017,0.11-0.017
			c0.021,0,0.04,0.002,0.06,0.004c0.021,0.005,0.039,0.008,0.059,0.012c0.02,0.007,0.037,0.012,0.057,0.021
			c0.021,0.007,0.039,0.016,0.061,0.023l-0.058,0.139c-0.018-0.007-0.034-0.015-0.05-0.021c-0.016-0.006-0.029-0.01-0.044-0.016
			c-0.014-0.004-0.028-0.008-0.042-0.008c-0.014-0.001-0.027-0.005-0.041-0.005c-0.029,0-0.053,0.008-0.068,0.024
			c-0.017,0.016-0.023,0.036-0.023,0.064c0,0.014,0.004,0.025,0.007,0.036c0.005,0.011,0.013,0.021,0.022,0.032
			c0.01,0.009,0.023,0.021,0.041,0.029c0.018,0.01,0.035,0.021,0.061,0.035c0.029,0.015,0.055,0.031,0.08,0.048
			c0.025,0.016,0.047,0.033,0.064,0.053c0.019,0.02,0.032,0.04,0.039,0.064c0.011,0.024,0.016,0.054,0.016,0.087
			C17.541,26.25,17.535,26.284,17.522,26.314z M18.237,26.268c-0.012,0.042-0.027,0.078-0.048,0.105
			c-0.021,0.028-0.044,0.051-0.071,0.066c-0.029,0.014-0.059,0.021-0.094,0.021c-0.021,0-0.039-0.004-0.057-0.008
			c-0.018-0.007-0.033-0.011-0.047-0.021c-0.011-0.007-0.021-0.016-0.033-0.024c-0.01-0.011-0.021-0.021-0.027-0.032h-0.008
			c0.002,0.014,0.004,0.025,0.005,0.037c0.001,0.011,0.003,0.021,0.003,0.032c0.001,0.01,0.002,0.019,0.002,0.023v0.262h-0.176V25.8
			h0.143l0.025,0.083h0.007c0.007-0.012,0.017-0.024,0.027-0.036c0.011-0.013,0.021-0.021,0.035-0.031
			c0.015-0.009,0.03-0.016,0.049-0.022c0.017-0.006,0.035-0.007,0.058-0.007c0.033,0,0.064,0.007,0.092,0.021
			c0.025,0.015,0.05,0.036,0.07,0.064c0.02,0.028,0.035,0.063,0.046,0.105c0.01,0.041,0.015,0.091,0.015,0.145
			C18.254,26.178,18.247,26.227,18.237,26.268z"/>
	</g>
	<g>
		<path fill="#101110" d="M-0.047,19.27v-0.212h0.126v0.212h0.212v0.127H0.079v0.211h-0.126v-0.211h-0.211V19.27H-0.047
			L-0.047,19.27z"/>
	</g>
	<g>
		<path fill="#101110" d="M0.446,18.825v0.182l-0.848-0.264v-0.195l0.848-0.264v0.182l-0.509,0.142
			c-0.007,0.003-0.02,0.006-0.035,0.008c-0.015,0.005-0.032,0.007-0.051,0.01c-0.019,0.004-0.037,0.008-0.055,0.011
			c-0.02,0.003-0.035,0.007-0.047,0.007c0.013,0.002,0.029,0.006,0.047,0.008c0.018,0.005,0.037,0.008,0.055,0.012
			c0.018,0.003,0.035,0.007,0.051,0.009c0.015,0.006,0.026,0.008,0.035,0.008L0.446,18.825z"/>
	</g>
	<g>
		<path fill="#101110" d="M0.141,17.977c0,0.036-0.008,0.07-0.018,0.102c-0.011,0.032-0.028,0.059-0.05,0.079
			c-0.022,0.022-0.048,0.042-0.08,0.056c-0.033,0.013-0.069,0.02-0.11,0.02c-0.045,0-0.087-0.007-0.123-0.021
			c-0.037-0.015-0.066-0.037-0.093-0.064c-0.026-0.028-0.045-0.063-0.058-0.104c-0.014-0.041-0.021-0.089-0.021-0.141
			c0-0.021,0.002-0.042,0.004-0.064c0.002-0.021,0.004-0.04,0.007-0.06c0.006-0.021,0.009-0.037,0.014-0.055
			c0.007-0.017,0.013-0.033,0.022-0.047h0.153c-0.007,0.014-0.015,0.03-0.021,0.048c-0.007,0.018-0.013,0.036-0.018,0.055
			c-0.007,0.02-0.009,0.038-0.012,0.058c-0.002,0.02-0.004,0.035-0.004,0.055c0,0.051,0.009,0.092,0.032,0.118
			c0.021,0.026,0.056,0.04,0.102,0.04c0.042,0,0.073-0.014,0.095-0.04c0.021-0.024,0.034-0.066,0.034-0.123
			c0-0.009,0-0.021-0.002-0.032c-0.002-0.011-0.003-0.021-0.005-0.034c-0.002-0.01-0.004-0.021-0.006-0.031s-0.004-0.02-0.007-0.026
			l0.038-0.07l0.431,0.032v0.446H0.294V17.88l-0.167-0.014c0.003,0.013,0.005,0.026,0.007,0.043
			C0.139,17.931,0.141,17.951,0.141,17.977z"/>
	</g>
	
		<text transform="matrix(-6.123231e-17 1 -1 -2.334239e-07 -0.3997 17.3242)" fill="#101110" font-family="'Droid Sans-Bold'" font-size="1.1846"> </text>
	<g>
		<path fill="#101110" d="M0.031,17.255c-0.071,0-0.134-0.01-0.188-0.028c-0.052-0.021-0.098-0.049-0.134-0.085
			c-0.037-0.037-0.063-0.082-0.082-0.136C-0.391,16.952-0.4,16.892-0.4,16.823v-0.223h0.847v0.248c0,0.062-0.008,0.117-0.026,0.167
			c-0.018,0.05-0.044,0.094-0.08,0.128c-0.035,0.035-0.078,0.063-0.13,0.081C0.158,17.245,0.098,17.255,0.031,17.255z M0.026,17.073
			c0.047,0,0.087-0.005,0.122-0.015c0.035-0.007,0.062-0.021,0.085-0.04c0.021-0.02,0.039-0.038,0.049-0.066
			c0.011-0.024,0.017-0.054,0.017-0.089v-0.082h-0.55v0.066c0,0.075,0.022,0.132,0.068,0.168
			C-0.136,17.054-0.067,17.073,0.026,17.073z"/>
	</g>
	<g>
		<path fill="#101110" d="M-0.401,16.387V16.16l0.64-0.333v-0.005c-0.029,0.002-0.06,0.004-0.088,0.007
			c-0.024,0.001-0.051,0.002-0.08,0.003c-0.027,0.002-0.052,0.002-0.074,0.002h-0.399v-0.16h0.847v0.226l-0.633,0.332v0.004
			c0.029-0.001,0.058-0.003,0.087-0.005c0.012,0,0.025-0.001,0.037-0.002c0.013,0,0.024,0,0.038-0.001
			c0.013,0,0.025-0.001,0.038-0.001c0.011,0,0.021,0,0.033,0h0.399v0.16H-0.401z"/>
	</g>
	<g>
		<path fill="#101110" d="M0.074,15.137v0.335h-0.438c-0.007-0.021-0.014-0.045-0.021-0.067c-0.007-0.021-0.01-0.046-0.015-0.07
			s-0.007-0.051-0.009-0.077c-0.002-0.027-0.004-0.056-0.004-0.086c0-0.063,0.008-0.119,0.028-0.167
			c0.02-0.05,0.047-0.09,0.082-0.124c0.037-0.033,0.082-0.059,0.138-0.076c0.054-0.017,0.118-0.026,0.188-0.026
			c0.065,0,0.125,0.01,0.18,0.029c0.053,0.02,0.099,0.049,0.137,0.086s0.066,0.083,0.086,0.139c0.022,0.055,0.032,0.117,0.032,0.188
			c0,0.045-0.006,0.09-0.015,0.133c-0.008,0.043-0.021,0.082-0.037,0.118l-0.144-0.06c0.013-0.026,0.024-0.056,0.033-0.088
			c0.009-0.034,0.013-0.068,0.013-0.104c0-0.039-0.007-0.075-0.021-0.106c-0.013-0.031-0.033-0.058-0.058-0.08
			c-0.026-0.022-0.056-0.039-0.091-0.051c-0.036-0.013-0.077-0.019-0.121-0.019c-0.039,0-0.079,0.004-0.112,0.013
			c-0.036,0.007-0.066,0.021-0.091,0.039c-0.023,0.018-0.044,0.04-0.058,0.067c-0.014,0.028-0.021,0.062-0.021,0.101
			c0,0.025,0,0.047,0.003,0.065c0.002,0.018,0.006,0.034,0.008,0.049h0.177v-0.159L0.074,15.137L0.074,15.137z"/>
	</g>
	<g>
		<path fill="#101110" d="M16.026,19.417c0-0.037,0.004-0.069,0.016-0.102c0.012-0.031,0.027-0.059,0.049-0.081
			s0.051-0.041,0.082-0.054s0.066-0.021,0.109-0.021c0.047,0,0.086,0.008,0.123,0.021c0.036,0.015,0.067,0.036,0.092,0.065
			c0.027,0.028,0.046,0.062,0.06,0.103c0.013,0.041,0.021,0.088,0.021,0.141c0,0.021,0,0.042-0.003,0.064
			c-0.003,0.021-0.005,0.041-0.008,0.062c-0.003,0.019-0.007,0.036-0.014,0.053s-0.013,0.033-0.021,0.046h-0.153
			c0.007-0.012,0.015-0.029,0.021-0.047c0.007-0.019,0.012-0.036,0.018-0.055s0.008-0.036,0.012-0.058
			c0.002-0.019,0.006-0.036,0.006-0.054c0-0.051-0.012-0.092-0.035-0.118c-0.021-0.027-0.053-0.039-0.1-0.039
			c-0.043,0-0.075,0.012-0.096,0.038c-0.021,0.025-0.031,0.066-0.031,0.123c0,0.01,0,0.021,0,0.032
			c0.002,0.012,0.003,0.022,0.006,0.034c0.001,0.012,0.005,0.021,0.008,0.031c0,0.011,0.004,0.02,0.006,0.026l-0.037,0.071
			l-0.43-0.032v-0.447h0.15v0.293l0.168,0.013c-0.002-0.012-0.006-0.026-0.007-0.042C16.026,19.464,16.026,19.442,16.026,19.417z"/>
		<path fill="#101110" d="M15.718,18.569v-0.181l0.847,0.264v0.196l-0.847,0.263V18.93l0.51-0.143
			c0.007-0.003,0.018-0.005,0.032-0.008c0.017-0.005,0.033-0.008,0.052-0.01c0.019-0.004,0.036-0.008,0.054-0.01
			c0.02-0.005,0.036-0.008,0.048-0.008c-0.012-0.002-0.028-0.005-0.048-0.007c-0.019-0.005-0.036-0.008-0.054-0.012
			c-0.021-0.004-0.036-0.007-0.052-0.01c-0.015-0.006-0.025-0.008-0.033-0.008L15.718,18.569z"/>
		<path fill="#101110" d="M16.21,18.125v0.212h-0.126v-0.212h-0.213v-0.126h0.213v-0.212h0.126v0.21h0.21v0.127L16.21,18.125
			L16.21,18.125z"/>
		<path fill="#101110" d="M16.09,16.898v-0.336h0.438c0.008,0.022,0.015,0.045,0.021,0.067s0.012,0.047,0.016,0.071
			c0.004,0.023,0.008,0.051,0.009,0.076c0.003,0.027,0.005,0.056,0.005,0.086c0,0.062-0.01,0.119-0.029,0.167
			c-0.02,0.049-0.046,0.09-0.082,0.123c-0.037,0.034-0.082,0.059-0.137,0.076s-0.117,0.026-0.189,0.026
			c-0.064,0-0.125-0.01-0.182-0.029c-0.051-0.021-0.096-0.048-0.136-0.085c-0.038-0.037-0.066-0.083-0.087-0.139
			c-0.021-0.054-0.031-0.117-0.031-0.188c0-0.045,0.007-0.088,0.016-0.132c0.008-0.043,0.021-0.082,0.037-0.118l0.142,0.06
			c-0.013,0.026-0.022,0.056-0.032,0.089c-0.009,0.033-0.014,0.067-0.014,0.104c0,0.038,0.008,0.075,0.021,0.106
			c0.015,0.031,0.033,0.059,0.059,0.08c0.023,0.021,0.054,0.039,0.092,0.051c0.034,0.012,0.074,0.019,0.117,0.019
			s0.08-0.005,0.115-0.012c0.033-0.008,0.063-0.022,0.089-0.038c0.024-0.02,0.045-0.041,0.059-0.068
			c0.014-0.028,0.021-0.062,0.021-0.1c0-0.026-0.003-0.048-0.004-0.065c-0.003-0.019-0.007-0.035-0.007-0.05h-0.178v0.159h-0.15l0,0
			H16.09z"/>
		<path fill="#101110" d="M16.565,15.646v0.228l-0.641,0.333v0.005c0.031-0.003,0.06-0.004,0.09-0.006
			c0.023-0.002,0.05-0.004,0.078-0.004c0.027-0.002,0.053-0.002,0.077-0.002h0.397v0.16h-0.846v-0.226l0.631-0.332v-0.004
			c-0.029,0.002-0.058,0.003-0.086,0.005c-0.011,0-0.023,0.001-0.037,0.001c-0.012,0.001-0.025,0.002-0.037,0.002
			c-0.014,0-0.025,0.001-0.037,0.001s-0.021,0-0.033,0h-0.4v-0.161H16.565z"/>
		<path fill="#101110" d="M16.134,14.779c0.071,0,0.136,0.01,0.188,0.029c0.054,0.02,0.099,0.049,0.137,0.084
			c0.036,0.036,0.062,0.082,0.079,0.136c0.019,0.053,0.027,0.114,0.027,0.182v0.224h-0.847v-0.248c0-0.062,0.008-0.118,0.026-0.167
			c0.02-0.052,0.044-0.093,0.08-0.128c0.035-0.036,0.078-0.062,0.131-0.082C16.006,14.789,16.067,14.779,16.134,14.779z
			 M16.137,14.96c-0.047,0-0.087,0.006-0.122,0.015c-0.034,0.01-0.062,0.022-0.085,0.041c-0.021,0.019-0.037,0.04-0.049,0.066
			c-0.012,0.025-0.017,0.056-0.017,0.089v0.082h0.55v-0.064c0-0.076-0.022-0.133-0.068-0.171
			C16.301,14.979,16.232,14.96,16.137,14.96z"/>
	</g>
	<path fill="#101110" d="M17.923,3.958l0.272-0.275h1.021V4.11h-0.291v0.11h0.291v0.424H18.62v0.558h-0.698L17.923,3.958
		L17.923,3.958z M19.936,3.367c0-0.144-0.119-0.26-0.262-0.26h-2.208c-0.144,0-0.261,0.116-0.261,0.26v2.208
		c0,0.144,0.117,0.261,0.261,0.261l1.501,0l0.967-0.967L19.936,3.367z"/>
	<g>
		<path fill="#1E1B1F" d="M6.012,9.807L5.793,9.023H5.786c0.002,0.042,0.006,0.083,0.007,0.122C5.794,9.162,5.795,9.18,5.795,9.197
			C5.796,9.214,5.797,9.233,5.798,9.25c0.001,0.017,0.001,0.034,0.001,0.049c0,0.016,0,0.031,0,0.043v0.465H5.61v-1h0.289
			l0.215,0.764h0.004l0.23-0.764h0.288v1H6.44V9.335c0-0.012,0-0.025,0-0.04s0-0.031,0.001-0.048c0-0.017,0.001-0.034,0.002-0.051
			c0.002-0.017,0.002-0.034,0.002-0.051c0.003-0.038,0.004-0.078,0.006-0.12H6.445L6.207,9.808L6.012,9.807L6.012,9.807z"/>
		<path fill="#1E1B1F" d="M7.741,9.306c0,0.077-0.009,0.147-0.027,0.21C7.696,9.581,7.668,9.634,7.632,9.679
			C7.596,9.725,7.548,9.76,7.494,9.785C7.437,9.809,7.37,9.82,7.295,9.82S7.151,9.809,7.095,9.785
			C7.039,9.76,6.992,9.725,6.957,9.679C6.921,9.634,6.891,9.581,6.876,9.517C6.858,9.453,6.849,9.383,6.849,9.306
			c0-0.078,0.008-0.148,0.027-0.211c0.018-0.063,0.045-0.117,0.082-0.162s0.082-0.079,0.139-0.104
			c0.056-0.024,0.123-0.036,0.2-0.036c0.076,0,0.143,0.012,0.199,0.036c0.055,0.025,0.102,0.06,0.138,0.104
			c0.037,0.045,0.066,0.1,0.082,0.162C7.732,9.158,7.741,9.228,7.741,9.306z M7.062,9.306c0,0.052,0.005,0.1,0.014,0.141
			c0.009,0.041,0.022,0.078,0.042,0.106C7.137,9.583,7.161,9.604,7.19,9.62c0.029,0.015,0.063,0.023,0.103,0.023
			c0.04,0,0.075-0.007,0.104-0.023c0.029-0.017,0.052-0.038,0.071-0.066C7.486,9.525,7.5,9.488,7.509,9.447
			c0.007-0.042,0.013-0.089,0.013-0.141s-0.006-0.1-0.013-0.142C7.5,9.123,7.486,9.088,7.468,9.059
			C7.448,9.03,7.426,9.007,7.397,8.991C7.368,8.977,7.334,8.968,7.294,8.968S7.219,8.977,7.19,8.991
			C7.161,9.007,7.137,9.03,7.118,9.059C7.099,9.088,7.085,9.123,7.076,9.165C7.068,9.207,7.062,9.254,7.062,9.306z"/>
		<path fill="#1E1B1F" d="M8.271,9.807H8.06V8.985H7.809V8.808h0.712v0.177h-0.25V9.807z"/>
		<path fill="#1E1B1F" d="M9.486,9.306c0,0.077-0.009,0.147-0.026,0.21C9.441,9.581,9.414,9.634,9.377,9.679
			C9.341,9.725,9.294,9.76,9.239,9.785C9.182,9.809,9.115,9.82,9.039,9.82S8.897,9.809,8.841,9.785
			C8.784,9.76,8.738,9.725,8.702,9.679C8.665,9.634,8.636,9.581,8.62,9.517C8.603,9.453,8.593,9.383,8.593,9.306
			c0-0.078,0.009-0.148,0.027-0.211c0.019-0.062,0.046-0.117,0.082-0.162c0.037-0.044,0.083-0.079,0.139-0.104
			c0.056-0.024,0.123-0.036,0.2-0.036c0.076,0,0.143,0.012,0.199,0.036c0.055,0.025,0.102,0.06,0.138,0.104
			c0.037,0.045,0.065,0.1,0.082,0.162C9.477,9.158,9.486,9.228,9.486,9.306z M8.808,9.306c0,0.052,0.004,0.1,0.014,0.141
			C8.83,9.488,8.845,9.525,8.864,9.554S8.906,9.604,8.935,9.62c0.03,0.015,0.063,0.023,0.103,0.023c0.041,0,0.076-0.007,0.104-0.023
			c0.029-0.017,0.052-0.038,0.071-0.066c0.019-0.029,0.032-0.065,0.041-0.106c0.007-0.042,0.013-0.089,0.013-0.141
			s-0.006-0.1-0.013-0.142C9.245,9.123,9.232,9.088,9.213,9.059C9.194,9.03,9.171,9.007,9.143,8.991
			C9.114,8.977,9.079,8.968,9.039,8.968c-0.04,0-0.074,0.008-0.103,0.023C8.907,9.007,8.883,9.03,8.864,9.059
			C8.845,9.088,8.83,9.123,8.822,9.165C8.812,9.207,8.808,9.254,8.808,9.306z"/>
		<path fill="#1E1B1F" d="M9.904,9.424v0.383H9.693V8.808h0.273c0.128,0,0.223,0.024,0.283,0.074
			c0.061,0.05,0.094,0.124,0.094,0.226c0,0.034-0.007,0.065-0.014,0.093c-0.009,0.027-0.022,0.052-0.037,0.075
			c-0.015,0.021-0.033,0.04-0.051,0.056c-0.021,0.017-0.041,0.03-0.064,0.041c0.051,0.081,0.096,0.153,0.139,0.217
			c0.017,0.027,0.034,0.054,0.05,0.08c0.016,0.026,0.03,0.049,0.043,0.07c0.012,0.021,0.023,0.036,0.031,0.049l0.012,0.019h-0.236
			L9.999,9.424H9.904L9.904,9.424z M9.904,9.251h0.058c0.059,0,0.101-0.011,0.125-0.035c0.025-0.024,0.039-0.059,0.039-0.104
			c0-0.048-0.014-0.081-0.042-0.102c-0.027-0.02-0.069-0.029-0.127-0.029H9.904V9.251z"/>
	</g>
	<g>
		<path fill="#1E1B1F" d="M5.278,10.478c-0.04,0-0.076,0.007-0.107,0.022s-0.058,0.039-0.08,0.068
			c-0.021,0.029-0.037,0.065-0.048,0.107c-0.011,0.042-0.017,0.089-0.017,0.142s0.006,0.102,0.015,0.143
			c0.009,0.041,0.024,0.076,0.045,0.105c0.021,0.027,0.046,0.05,0.079,0.064c0.033,0.015,0.069,0.022,0.112,0.022
			c0.041,0,0.081-0.005,0.123-0.014c0.04-0.01,0.085-0.022,0.133-0.039v0.177c-0.022,0.01-0.043,0.018-0.065,0.024
			c-0.021,0.005-0.043,0.011-0.066,0.016c-0.022,0.003-0.046,0.007-0.068,0.009c-0.023,0.002-0.05,0.003-0.076,0.003
			c-0.078,0-0.144-0.012-0.2-0.036c-0.057-0.024-0.104-0.06-0.14-0.104s-0.064-0.099-0.081-0.161
			c-0.018-0.062-0.025-0.133-0.025-0.21c0-0.076,0.009-0.146,0.03-0.208c0.021-0.063,0.051-0.117,0.09-0.163
			s0.088-0.081,0.146-0.106s0.125-0.038,0.201-0.038c0.051,0,0.1,0.007,0.151,0.02c0.051,0.012,0.096,0.029,0.141,0.051
			l-0.066,0.173c-0.038-0.018-0.075-0.033-0.113-0.047C5.354,10.485,5.315,10.478,5.278,10.478z"/>
		<path fill="#1E1B1F" d="M6.57,10.814c0,0.077-0.008,0.147-0.027,0.21c-0.018,0.064-0.045,0.118-0.081,0.163
			c-0.037,0.045-0.083,0.08-0.14,0.104c-0.057,0.025-0.124,0.037-0.199,0.037c-0.076,0-0.144-0.013-0.198-0.037
			c-0.056-0.024-0.103-0.06-0.139-0.104c-0.036-0.045-0.064-0.1-0.083-0.163c-0.017-0.062-0.025-0.134-0.025-0.211
			s0.007-0.148,0.025-0.211c0.02-0.063,0.047-0.117,0.083-0.161c0.037-0.045,0.083-0.08,0.14-0.104
			C5.981,10.313,6.05,10.3,6.125,10.3c0.078,0,0.143,0.013,0.198,0.037c0.057,0.023,0.103,0.059,0.139,0.104
			c0.036,0.045,0.064,0.1,0.081,0.162C6.56,10.666,6.57,10.736,6.57,10.814z M5.892,10.814c0,0.053,0.005,0.1,0.013,0.142
			c0.009,0.041,0.023,0.077,0.042,0.105c0.021,0.029,0.042,0.051,0.071,0.066s0.064,0.023,0.103,0.023
			c0.041,0,0.075-0.008,0.104-0.023c0.029-0.016,0.053-0.037,0.071-0.066c0.021-0.028,0.033-0.064,0.041-0.105
			c0.009-0.042,0.014-0.089,0.014-0.142c0-0.052-0.005-0.099-0.014-0.141c-0.008-0.042-0.021-0.078-0.041-0.107
			c-0.018-0.029-0.042-0.051-0.071-0.066c-0.027-0.015-0.063-0.023-0.103-0.023c-0.038,0-0.074,0.009-0.104,0.023
			c-0.029,0.016-0.051,0.037-0.072,0.066c-0.019,0.029-0.033,0.065-0.042,0.107C5.896,10.714,5.892,10.762,5.892,10.814z"/>
		<path fill="#1E1B1F" d="M7.62,11.315H7.352l-0.393-0.756H6.951c0.004,0.035,0.006,0.07,0.008,0.104
			c0.001,0.029,0.003,0.061,0.004,0.094c0,0.032,0.001,0.062,0.001,0.088v0.47H6.776v-0.999h0.269l0.392,0.748h0.004
			c-0.001-0.035-0.003-0.068-0.005-0.103c0-0.015-0.002-0.029-0.002-0.044c-0.001-0.016-0.001-0.031-0.003-0.047
			c0-0.015,0-0.03,0-0.044c0-0.014,0-0.026,0-0.037v-0.474h0.19L7.62,11.315L7.62,11.315z"/>
		<path fill="#1E1B1F" d="M8.237,11.315H8.026v-0.823H7.775v-0.176h0.713v0.176h-0.25L8.237,11.315L8.237,11.315z"/>
		<path fill="#1E1B1F" d="M8.852,10.931v0.384h-0.21v-0.999h0.271c0.128,0,0.225,0.024,0.285,0.073
			c0.059,0.05,0.091,0.125,0.091,0.227c0,0.033-0.004,0.064-0.014,0.093c-0.007,0.027-0.021,0.052-0.036,0.073
			c-0.014,0.022-0.034,0.041-0.052,0.057c-0.02,0.017-0.04,0.03-0.062,0.041c0.05,0.082,0.095,0.154,0.136,0.218
			c0.019,0.027,0.036,0.054,0.051,0.08c0.017,0.026,0.031,0.049,0.044,0.069c0.013,0.021,0.021,0.037,0.032,0.05l0.011,0.019H9.162
			l-0.216-0.383L8.852,10.931L8.852,10.931z M8.852,10.759H8.91c0.059,0,0.101-0.012,0.126-0.035
			c0.024-0.023,0.038-0.059,0.038-0.104c0-0.047-0.014-0.081-0.04-0.101c-0.027-0.021-0.069-0.03-0.128-0.03H8.852V10.759z"/>
		<path fill="#1E1B1F" d="M10.374,10.814c0,0.077-0.009,0.147-0.027,0.21c-0.018,0.063-0.046,0.118-0.083,0.163
			c-0.037,0.045-0.082,0.08-0.138,0.104c-0.057,0.024-0.124,0.037-0.2,0.037c-0.075,0-0.142-0.013-0.199-0.037
			c-0.055-0.024-0.102-0.06-0.138-0.104c-0.037-0.045-0.066-0.1-0.082-0.163c-0.017-0.062-0.027-0.134-0.027-0.211
			s0.009-0.148,0.027-0.211c0.019-0.063,0.045-0.117,0.083-0.161c0.036-0.045,0.083-0.08,0.138-0.104
			c0.057-0.024,0.124-0.037,0.2-0.037c0.077,0,0.143,0.013,0.199,0.037c0.056,0.023,0.102,0.059,0.138,0.104
			c0.037,0.045,0.066,0.1,0.082,0.162C10.365,10.666,10.374,10.736,10.374,10.814z M9.696,10.814c0,0.053,0.006,0.1,0.013,0.142
			c0.01,0.041,0.023,0.077,0.043,0.105c0.019,0.029,0.042,0.051,0.07,0.066c0.03,0.016,0.063,0.023,0.103,0.023
			c0.041,0,0.076-0.008,0.104-0.023s0.053-0.037,0.071-0.066c0.019-0.028,0.032-0.064,0.041-0.105
			c0.008-0.042,0.013-0.089,0.013-0.142c0-0.052-0.005-0.099-0.013-0.141c-0.009-0.042-0.022-0.078-0.041-0.107
			c-0.018-0.029-0.042-0.051-0.07-0.066c-0.029-0.015-0.064-0.023-0.104-0.023c-0.039,0-0.074,0.009-0.103,0.023
			c-0.029,0.016-0.053,0.037-0.072,0.066c-0.02,0.029-0.033,0.065-0.043,0.107C9.7,10.715,9.696,10.762,9.696,10.814z"/>
		<path fill="#1E1B1F" d="M10.58,11.315v-0.999h0.212v0.824h0.363v0.175H10.58z"/>
	</g>
	<g>
		<path fill="#1E1B1F" d="M-3.915,12.335h-0.131v0.515h-0.177v-0.515H-4.32V12.25l0.096-0.048v-0.048
			c0-0.04,0.007-0.075,0.015-0.102c0.01-0.027,0.024-0.05,0.043-0.065c0.02-0.017,0.041-0.028,0.067-0.035
			c0.025-0.007,0.056-0.011,0.088-0.011c0.036,0,0.065,0.004,0.089,0.009c0.024,0.006,0.045,0.013,0.063,0.02l-0.041,0.129
			c-0.012-0.003-0.024-0.008-0.038-0.011c-0.013-0.004-0.028-0.005-0.046-0.005c-0.023,0-0.039,0.007-0.049,0.021
			c-0.009,0.015-0.015,0.035-0.015,0.058v0.041h0.131L-3.915,12.335L-3.915,12.335z"/>
		<path fill="#1E1B1F" d="M-3.455,12.189c0.006,0,0.01,0,0.016,0.001c0.007,0,0.011,0.001,0.016,0.001
			c0.007,0,0.01,0.001,0.015,0.002c0.006,0,0.008,0.001,0.01,0.003v0.166c-0.003-0.001-0.008-0.002-0.013-0.003
			c-0.005,0-0.011-0.001-0.017-0.002c-0.007,0-0.012-0.001-0.018-0.001c-0.007,0-0.01,0-0.014,0c-0.023,0-0.043,0.003-0.063,0.009
			s-0.036,0.015-0.05,0.027c-0.014,0.014-0.023,0.03-0.032,0.052c-0.008,0.021-0.011,0.046-0.011,0.077v0.329h-0.175v-0.647h0.133
			l0.026,0.097h0.008c0.008-0.017,0.02-0.031,0.031-0.045c0.009-0.014,0.021-0.026,0.036-0.036c0.013-0.009,0.028-0.017,0.045-0.021
			S-3.476,12.189-3.455,12.189z"/>
		<path fill="#1E1B1F" d="M-3.286,12.036c0-0.018,0.003-0.031,0.007-0.042c0.007-0.011,0.012-0.021,0.022-0.026
			c0.007-0.008,0.019-0.012,0.031-0.015c0.011-0.003,0.023-0.004,0.037-0.004c0.012,0,0.024,0.001,0.037,0.004
			c0.011,0.003,0.021,0.007,0.03,0.015c0.009,0.007,0.016,0.016,0.021,0.026s0.007,0.024,0.007,0.042
			c0,0.016-0.002,0.029-0.007,0.04c-0.006,0.011-0.012,0.021-0.021,0.026c-0.007,0.008-0.019,0.012-0.03,0.016
			c-0.012,0.002-0.024,0.003-0.038,0.003c-0.013,0-0.024-0.001-0.037-0.004c-0.011-0.003-0.021-0.007-0.03-0.015
			c-0.009-0.006-0.015-0.016-0.022-0.026C-3.283,12.065-3.286,12.051-3.286,12.036z M-3.102,12.849h-0.176v-0.647h0.179
			L-3.102,12.849L-3.102,12.849z"/>
		<path fill="#1E1B1F" d="M-2.654,12.72c0.018,0,0.036-0.002,0.051-0.006c0.016-0.004,0.031-0.008,0.048-0.015v0.131
			c-0.018,0.009-0.038,0.016-0.063,0.022c-0.024,0.005-0.051,0.008-0.08,0.008c-0.028,0-0.052-0.003-0.079-0.01
			c-0.025-0.007-0.045-0.019-0.063-0.035c-0.019-0.016-0.033-0.038-0.042-0.065c-0.01-0.026-0.016-0.062-0.016-0.104v-0.312h-0.084
			V12.26l0.096-0.059l0.051-0.138h0.113v0.139h0.157v0.132h-0.156v0.312c0,0.024,0.006,0.044,0.019,0.055
			C-2.69,12.714-2.674,12.72-2.654,12.72z"/>
		<path fill="#1E1B1F" d="M-2.011,12.849h-0.476v-0.104l0.264-0.407h-0.247v-0.135h0.446v0.115l-0.255,0.398h0.267V12.849
			L-2.011,12.849z"/>
		<path fill="#1E1B1F" d="M-1.892,12.036c0-0.018,0.003-0.031,0.008-0.042c0.007-0.011,0.012-0.021,0.021-0.026
			c0.008-0.008,0.02-0.012,0.031-0.015c0.013-0.003,0.024-0.004,0.037-0.004c0.013,0,0.025,0.001,0.037,0.004
			c0.012,0.003,0.022,0.007,0.031,0.015c0.007,0.007,0.016,0.016,0.021,0.026c0.007,0.011,0.008,0.024,0.008,0.042
			c0,0.016-0.002,0.029-0.008,0.04c-0.005,0.011-0.01,0.021-0.021,0.026c-0.009,0.008-0.019,0.012-0.031,0.016
			c-0.011,0.002-0.023,0.003-0.037,0.003c-0.012,0-0.023-0.001-0.037-0.004c-0.011-0.003-0.021-0.007-0.031-0.015
			c-0.008-0.006-0.014-0.016-0.021-0.026C-1.889,12.065-1.892,12.051-1.892,12.036z M-1.709,12.849h-0.176v-0.647h0.176V12.849z"/>
		<path fill="#1E1B1F" d="M-0.963,12.849h-0.177v-0.377c0-0.048-0.007-0.082-0.021-0.106c-0.014-0.022-0.036-0.034-0.066-0.034
			c-0.022,0-0.042,0.004-0.058,0.014c-0.015,0.009-0.027,0.022-0.036,0.041c-0.009,0.019-0.016,0.04-0.02,0.066
			c-0.006,0.027-0.007,0.058-0.007,0.092v0.305h-0.175v-0.647h0.135l0.023,0.083h0.01c0.007-0.017,0.02-0.031,0.034-0.043
			c0.013-0.013,0.027-0.022,0.043-0.03c0.016-0.007,0.032-0.013,0.05-0.017c0.019-0.004,0.037-0.006,0.054-0.006
			c0.032,0,0.061,0.004,0.085,0.014c0.026,0.009,0.05,0.023,0.066,0.042c0.019,0.02,0.033,0.044,0.042,0.075
			c0.009,0.029,0.015,0.065,0.015,0.107L-0.963,12.849L-0.963,12.849z"/>
		<path fill="#1E1B1F" d="M-0.245,12.203V12.3l-0.095,0.029c0.007,0.013,0.013,0.026,0.016,0.04
			c0.002,0.014,0.004,0.028,0.004,0.046c0,0.032-0.005,0.062-0.016,0.09c-0.01,0.027-0.025,0.051-0.046,0.07
			c-0.021,0.019-0.047,0.033-0.078,0.044c-0.031,0.01-0.065,0.016-0.108,0.016c-0.008,0-0.019,0-0.028-0.001
			c-0.011-0.001-0.019-0.002-0.023-0.004c-0.007,0.008-0.014,0.014-0.019,0.021c-0.004,0.007-0.007,0.016-0.007,0.025
			c0,0.008,0.002,0.015,0.007,0.02c0.007,0.005,0.011,0.01,0.021,0.012c0.008,0.003,0.019,0.005,0.029,0.006
			c0.01,0.001,0.022,0.001,0.034,0.001h0.101c0.031,0,0.06,0.005,0.083,0.012c0.023,0.007,0.046,0.018,0.063,0.032
			c0.018,0.015,0.031,0.034,0.04,0.056c0.008,0.022,0.013,0.05,0.013,0.081c0,0.036-0.007,0.069-0.021,0.099
			c-0.015,0.029-0.037,0.055-0.066,0.076c-0.029,0.02-0.066,0.034-0.109,0.046c-0.043,0.011-0.093,0.016-0.15,0.016
			c-0.044,0-0.083-0.003-0.115-0.012c-0.033-0.008-0.06-0.021-0.082-0.035c-0.021-0.016-0.037-0.035-0.05-0.057
			c-0.012-0.022-0.016-0.047-0.016-0.074c0-0.023,0.004-0.044,0.011-0.062s0.02-0.032,0.033-0.045
			c0.013-0.012,0.029-0.021,0.046-0.03c0.017-0.007,0.034-0.014,0.052-0.018c-0.007-0.003-0.016-0.008-0.024-0.015
			c-0.007-0.006-0.015-0.013-0.021-0.021c-0.007-0.007-0.011-0.017-0.017-0.026c-0.003-0.01-0.005-0.021-0.005-0.031
			c0-0.012,0.001-0.022,0.005-0.033c0.005-0.01,0.009-0.02,0.016-0.028c0.007-0.009,0.017-0.017,0.026-0.024
			c0.011-0.008,0.022-0.016,0.036-0.024c-0.036-0.014-0.061-0.036-0.081-0.069c-0.02-0.033-0.029-0.071-0.029-0.115
			c0-0.035,0.006-0.065,0.016-0.093c0.011-0.027,0.027-0.051,0.047-0.071c0.022-0.019,0.049-0.033,0.079-0.043
			c0.031-0.01,0.065-0.016,0.107-0.016c0.007,0,0.016,0,0.026,0.002c0.009,0,0.019,0.002,0.028,0.004
			c0.009,0.001,0.019,0.003,0.027,0.005c0.007,0.001,0.014,0.002,0.019,0.003H-0.245L-0.245,12.203z M-0.708,12.94
			c0,0.01,0.002,0.019,0.007,0.028c0.004,0.009,0.009,0.017,0.02,0.023C-0.67,13-0.659,13.005-0.644,13.01
			c0.015,0.003,0.033,0.006,0.054,0.006c0.062,0,0.107-0.009,0.138-0.025c0.031-0.018,0.046-0.04,0.046-0.068
			c0-0.024-0.009-0.04-0.028-0.049c-0.02-0.008-0.048-0.012-0.087-0.012h-0.083c-0.009,0-0.021,0-0.033,0.004
			c-0.012,0.003-0.023,0.007-0.033,0.012c-0.01,0.007-0.02,0.016-0.025,0.025C-0.705,12.912-0.708,12.925-0.708,12.94z
			 M-0.644,12.414c0,0.035,0.007,0.062,0.02,0.081c0.013,0.019,0.033,0.029,0.06,0.029c0.028,0,0.047-0.01,0.06-0.029
			c0.012-0.02,0.019-0.046,0.019-0.081s-0.007-0.062-0.019-0.083s-0.032-0.03-0.06-0.03C-0.618,12.301-0.644,12.338-0.644,12.414z"
			/>
		<path fill="#1E1B1F" d="M-0.152,12.767c0-0.019,0.003-0.033,0.007-0.047c0.005-0.012,0.013-0.022,0.021-0.029
			c0.008-0.008,0.021-0.014,0.034-0.018c0.012-0.004,0.024-0.006,0.039-0.006c0.012,0,0.025,0.002,0.037,0.006
			c0.013,0.004,0.022,0.009,0.033,0.018c0.009,0.007,0.017,0.018,0.021,0.029c0.006,0.014,0.008,0.028,0.008,0.047
			c0,0.018-0.003,0.031-0.008,0.044c-0.006,0.013-0.012,0.022-0.021,0.031c-0.007,0.008-0.021,0.014-0.033,0.018
			c-0.012,0.003-0.025,0.006-0.037,0.006c-0.015,0-0.027-0.003-0.039-0.006c-0.013-0.004-0.023-0.009-0.034-0.018
			c-0.009-0.009-0.017-0.019-0.021-0.031C-0.149,12.798-0.152,12.784-0.152,12.767z"/>
		<path fill="#1E1B1F" d="M0.769,12.524c0,0.054-0.008,0.102-0.022,0.144c-0.012,0.041-0.033,0.076-0.059,0.105
			c-0.024,0.028-0.056,0.051-0.094,0.065c-0.036,0.015-0.079,0.022-0.124,0.022c-0.042,0-0.08-0.008-0.118-0.022
			c-0.036-0.015-0.065-0.036-0.093-0.065c-0.027-0.029-0.046-0.064-0.061-0.105c-0.015-0.042-0.022-0.09-0.022-0.144
			s0.007-0.102,0.022-0.144c0.013-0.041,0.034-0.076,0.059-0.104c0.025-0.029,0.057-0.05,0.093-0.065
			c0.038-0.015,0.08-0.022,0.125-0.022c0.042,0,0.08,0.008,0.118,0.022c0.036,0.015,0.066,0.036,0.093,0.065
			c0.026,0.028,0.046,0.063,0.062,0.104C0.761,12.423,0.769,12.471,0.769,12.524z M0.359,12.524c0,0.065,0.007,0.113,0.026,0.146
			c0.019,0.032,0.048,0.05,0.089,0.05c0.039,0,0.068-0.018,0.088-0.051c0.018-0.032,0.027-0.08,0.027-0.145S0.58,12.412,0.562,12.38
			c-0.02-0.031-0.05-0.048-0.09-0.048c-0.04,0-0.069,0.017-0.087,0.048C0.367,12.412,0.359,12.46,0.359,12.524z"/>
		<path fill="#1E1B1F" d="M1.258,12.189c0.006,0,0.009,0,0.016,0.001c0.006,0,0.009,0.001,0.016,0.001
			c0.006,0,0.009,0.001,0.015,0.002c0.004,0,0.008,0.001,0.008,0.003v0.166c-0.003-0.001-0.007-0.002-0.011-0.003
			c-0.006,0-0.011-0.001-0.019-0.002c-0.005,0-0.01-0.001-0.017-0.001s-0.011,0-0.015,0c-0.022,0-0.043,0.003-0.062,0.009
			c-0.021,0.006-0.037,0.015-0.051,0.027c-0.013,0.014-0.022,0.03-0.032,0.052c-0.007,0.021-0.012,0.046-0.012,0.077v0.329H0.918
			v-0.647h0.134L1.078,12.3h0.009c0.008-0.017,0.019-0.031,0.03-0.045c0.01-0.014,0.021-0.026,0.036-0.036
			c0.013-0.009,0.027-0.017,0.045-0.021C1.216,12.193,1.236,12.189,1.258,12.189z"/>
		<path fill="#1E1B1F" d="M1.958,12.203V12.3l-0.095,0.029c0.008,0.013,0.014,0.026,0.016,0.04c0.004,0.014,0.006,0.028,0.006,0.046
			c0,0.032-0.007,0.062-0.016,0.09c-0.01,0.027-0.026,0.051-0.048,0.07c-0.021,0.019-0.045,0.033-0.076,0.044
			c-0.031,0.01-0.066,0.016-0.108,0.016c-0.009,0-0.021,0-0.029-0.001c-0.01-0.001-0.02-0.002-0.023-0.004
			c-0.008,0.008-0.014,0.014-0.018,0.021c-0.005,0.007-0.008,0.016-0.008,0.025c0,0.008,0.003,0.015,0.008,0.02
			c0.005,0.005,0.011,0.01,0.019,0.012c0.009,0.003,0.019,0.005,0.028,0.006c0.011,0.001,0.022,0.001,0.035,0.001h0.1
			c0.032,0,0.06,0.005,0.084,0.012c0.024,0.007,0.045,0.018,0.063,0.032c0.019,0.015,0.031,0.034,0.039,0.056
			c0.009,0.022,0.014,0.05,0.014,0.081c0,0.036-0.007,0.069-0.021,0.099c-0.015,0.029-0.037,0.055-0.066,0.076
			c-0.029,0.02-0.066,0.034-0.108,0.046c-0.044,0.011-0.095,0.016-0.151,0.016c-0.044,0-0.081-0.003-0.115-0.012
			c-0.034-0.008-0.061-0.021-0.082-0.035c-0.021-0.016-0.038-0.035-0.05-0.057c-0.01-0.022-0.017-0.047-0.017-0.074
			c0-0.023,0.006-0.044,0.013-0.062c0.007-0.018,0.019-0.032,0.032-0.045c0.014-0.012,0.029-0.021,0.047-0.03
			c0.018-0.007,0.036-0.014,0.052-0.018c-0.007-0.003-0.016-0.008-0.023-0.015c-0.007-0.006-0.015-0.013-0.021-0.021
			c-0.007-0.008-0.011-0.018-0.016-0.026c-0.004-0.011-0.007-0.021-0.007-0.031c0-0.013,0.003-0.023,0.006-0.034
			c0.004-0.009,0.008-0.019,0.016-0.027c0.008-0.009,0.016-0.018,0.026-0.024c0.01-0.009,0.022-0.016,0.035-0.024
			c-0.034-0.014-0.061-0.037-0.08-0.07c-0.021-0.032-0.029-0.07-0.029-0.114c0-0.035,0.005-0.065,0.016-0.094
			c0.011-0.026,0.027-0.051,0.047-0.07c0.022-0.02,0.047-0.033,0.078-0.044c0.032-0.01,0.066-0.015,0.108-0.015
			c0.007,0,0.016,0,0.026,0.002c0.008,0,0.019,0.002,0.028,0.003c0.008,0.002,0.019,0.003,0.026,0.005
			c0.008,0.001,0.014,0.003,0.021,0.004H1.958L1.958,12.203L1.958,12.203z M1.495,12.94c0,0.01,0.002,0.019,0.006,0.028
			c0.005,0.009,0.011,0.017,0.021,0.023C1.531,13,1.545,13.005,1.559,13.01c0.015,0.003,0.036,0.006,0.056,0.006
			c0.06,0,0.105-0.009,0.136-0.025c0.031-0.018,0.048-0.04,0.048-0.068c0-0.024-0.009-0.04-0.029-0.049
			c-0.02-0.008-0.049-0.012-0.088-0.012H1.601c-0.011,0-0.021,0-0.034,0.004c-0.011,0.003-0.022,0.007-0.034,0.012
			c-0.009,0.007-0.019,0.016-0.023,0.025C1.499,12.912,1.495,12.925,1.495,12.94z M1.559,12.414c0,0.035,0.007,0.062,0.021,0.081
			c0.012,0.02,0.033,0.029,0.059,0.029c0.028,0,0.048-0.01,0.06-0.029c0.013-0.02,0.019-0.046,0.019-0.081S1.712,12.352,1.7,12.331
			c-0.012-0.021-0.033-0.03-0.061-0.03C1.585,12.301,1.559,12.338,1.559,12.414z"/>
	</g>
	<text transform="matrix(1 0 0 1 7.1501 26.4482)" fill="#101110" font-family="'Droid Sans-Bold'" font-size="1.1846">Vin</text>
	<path fill="#101110" d="M14.623,13.686c0-0.006,0.006-0.017,0.013-0.032c-0.027,0.002-0.056,0.006-0.085,0.008
		c-0.026,0.004-0.055,0.008-0.082,0.012c0.008-0.109,0.01-0.215,0.016-0.315c0.002-0.102,0.004-0.198,0.005-0.292
		c0.003-0.094,0.001-0.19-0.005-0.291s-0.012-0.204-0.022-0.312c-0.001-0.051-0.001-0.1-0.002-0.148
		c-0.001-0.051-0.001-0.099-0.001-0.147c-0.014-0.007-0.025-0.013-0.033-0.018c-0.006-0.016,0-0.029,0.01-0.042
		c0.01-0.012,0.025-0.023,0.047-0.033c0.021-0.009,0.045-0.017,0.072-0.022c0.025-0.007,0.057-0.012,0.088-0.016
		c0.065-0.013,0.124-0.02,0.182-0.021c0.029,0,0.055-0.001,0.074-0.002c0.021-0.001,0.035-0.001,0.041-0.001
		c0,0.004,0.002,0.019,0.009,0.042c0.036,0,0.089-0.006,0.159-0.017c0.07-0.012,0.145-0.022,0.221-0.033
		c0.078-0.01,0.15-0.017,0.221-0.021c0.07-0.002,0.121,0.006,0.154,0.022c0.004,0.039,0.006,0.068,0.012,0.087
		s0.008,0.056,0.012,0.11c-0.005,0.008-0.012,0.013-0.018,0.015c-0.008,0.001-0.022,0.003-0.05,0.007v-0.021h-0.021v-0.019
		c-0.03-0.013-0.058-0.023-0.08-0.03c-0.021-0.008-0.038-0.013-0.05-0.016c-0.014-0.004-0.03-0.007-0.052-0.01
		c-0.021-0.003-0.048-0.006-0.08-0.008v-0.059c-0.138,0.017-0.236,0.029-0.296,0.04c-0.058,0.011-0.094,0.036-0.109,0.075
		c-0.016,0.038-0.018,0.098-0.007,0.178c0.007,0.041,0.01,0.091,0.015,0.149c0.003,0.059,0.007,0.128,0.008,0.206
		c0.008,0,0.016,0.004,0.022,0.005c0.007,0.004,0.015,0.006,0.024,0.008c0,0.007,0.002,0.02,0.007,0.037
		c0.083-0.017,0.122-0.059,0.114-0.124s0.01-0.103,0.057-0.112v0.021h0.019c0.014,0.032,0.024,0.062,0.031,0.091
		c0.008,0.029,0.009,0.063,0.007,0.104h0.02c0,0.031,0.002,0.058,0.002,0.078s0,0.035,0.002,0.042
		c0.002,0.009,0.005,0.017,0.006,0.024c0.002,0.009,0.004,0.019,0.007,0.031c0.003,0.002,0.007,0.004,0.009,0.006
		c0.004,0.001,0.008,0.005,0.015,0.008c-0.013,0.082-0.032,0.107-0.06,0.071c-0.023-0.032-0.038-0.067-0.047-0.103
		c-0.04-0.002-0.076-0.018-0.106-0.046c-0.023-0.025-0.065-0.04-0.128-0.043c0.002,0.078,0.004,0.133,0.007,0.164
		c0.003,0.016,0.005,0.038,0.007,0.064s0.004,0.06,0.006,0.097h0.019c-0.029,0.058-0.033,0.117-0.01,0.176
		c0.022,0.059,0.024,0.118,0.008,0.177c0.124-0.018,0.255-0.028,0.385-0.033c0.134-0.005,0.224-0.084,0.266-0.237
		c0.007-0.004,0.018-0.008,0.024-0.011c0.011-0.004,0.024-0.009,0.039-0.015c0.004,0.005,0.014,0.01,0.031,0.017
		c0.007,0.052,0.007,0.105,0,0.159c-0.004,0.056-0.006,0.113-0.002,0.174c-0.009,0.004-0.02,0.007-0.027,0.01
		c-0.01,0.003-0.021,0.006-0.031,0.01c-0.007-0.027-0.023-0.048-0.055-0.062c-0.028-0.014-0.064-0.021-0.104-0.023
		s-0.085-0.001-0.134,0.003c-0.048,0.004-0.094,0.01-0.139,0.017c-0.045,0.008-0.084,0.014-0.119,0.021
		c-0.035,0.006-0.062,0.01-0.08,0.012v0.02c0.008,0.001,0.012,0.002,0.02,0.005c0.004,0.001,0.012,0.003,0.019,0.004
		c-0.005,0.009-0.009,0.02-0.015,0.027c-0.004,0.008-0.008,0.017-0.014,0.027c-0.021,0.005-0.044,0.008-0.064,0.012
		c-0.022,0.004-0.045,0.009-0.066,0.014c-0.007-0.021-0.021-0.033-0.036-0.038c-0.021-0.005-0.039-0.005-0.063,0.002
		c-0.021,0.006-0.047,0.016-0.069,0.028c-0.024,0.014-0.048,0.027-0.069,0.041c-0.021,0.015-0.042,0.027-0.059,0.039
		c-0.021,0.014-0.033,0.021-0.04,0.023C14.618,13.708,14.621,13.692,14.623,13.686 M14.674,12.287
		c0.058-0.036,0.115-0.075,0.171-0.112c0.001,0.002,0.001,0.001-0.002-0.002c-0.003-0.004-0.007-0.009-0.013-0.017
		c-0.107-0.001-0.188,0.012-0.244,0.039c-0.053,0.025-0.081,0.094-0.084,0.203C14.56,12.362,14.616,12.324,14.674,12.287
		 M14.635,12.447c0.035-0.021,0.066-0.038,0.096-0.056c-0.007-0.006-0.01-0.012-0.012-0.018c-0.037,0.008-0.072,0.019-0.105,0.031
		c-0.035,0.014-0.066,0.021-0.102,0.024c0.002,0.008,0.004,0.019,0.004,0.032c0,0.013,0.002,0.028,0.006,0.048
		C14.562,12.489,14.6,12.467,14.635,12.447 M14.676,12.604c0.049-0.036,0.096-0.074,0.144-0.11v-0.024
		c-0.013,0.002-0.033,0.009-0.063,0.019c-0.014,0.006-0.038,0.016-0.08,0.032c-0.039,0.016-0.091,0.038-0.157,0.067
		c0.001,0.021,0.002,0.042,0.005,0.063c0,0.021,0.003,0.042,0.006,0.064C14.578,12.677,14.627,12.64,14.676,12.604 M14.667,12.757
		c0.053-0.033,0.085-0.064,0.097-0.09c-0.039,0.009-0.076,0.021-0.113,0.036c-0.037,0.016-0.074,0.025-0.109,0.03
		c0.001,0.015,0.002,0.028,0.002,0.042c0.001,0.014,0.004,0.027,0.006,0.04C14.578,12.808,14.617,12.788,14.667,12.757
		 M14.725,12.931c0.084-0.063,0.131-0.112,0.141-0.146c-0.028,0.007-0.053,0.013-0.074,0.018c-0.021,0.006-0.035,0.011-0.049,0.015
		c-0.014,0.003-0.036,0.011-0.066,0.021c-0.031,0.013-0.071,0.026-0.122,0.044l-0.001,0.15
		C14.587,13.027,14.643,12.993,14.725,12.931 M14.725,13.145c0.081-0.053,0.128-0.094,0.139-0.123
		c-0.051,0.013-0.1,0.023-0.15,0.035c-0.051,0.01-0.1,0.021-0.15,0.033c0.002,0.021,0.003,0.044,0.004,0.067
		c0,0.022,0.004,0.046,0.006,0.067C14.592,13.224,14.643,13.196,14.725,13.145 M14.629,13.473c0.021-0.013,0.045-0.025,0.064-0.04
		c-0.002-0.003-0.005-0.006-0.007-0.008c-0.001-0.003-0.007-0.004-0.012-0.005c-0.008,0-0.016-0.002-0.027-0.004
		s-0.027-0.003-0.048-0.003c0-0.007,0-0.012,0-0.019c0.002-0.007,0.003-0.014,0.005-0.021c0.03-0.021,0.061-0.044,0.091-0.066
		c0.031-0.022,0.064-0.044,0.095-0.063c-0.028,0-0.06,0.003-0.092,0.01c-0.033,0.009-0.074,0.016-0.125,0.021
		c-0.004,0.041-0.007,0.08-0.008,0.119c-0.001,0.04-0.003,0.079-0.004,0.117C14.583,13.498,14.606,13.484,14.629,13.473
		 M14.653,12.129c0.023-0.007,0.051-0.016,0.08-0.025c-0.001-0.001-0.004-0.003-0.006-0.006l-0.007-0.011
		c-0.019,0.004-0.034,0.005-0.044,0.008c-0.012,0.001-0.021,0.003-0.028,0.004c-0.007,0.002-0.015,0.004-0.021,0.007
		c-0.007,0.004-0.019,0.008-0.028,0.012c-0.004,0.008-0.007,0.021-0.008,0.035C14.609,12.145,14.629,12.137,14.653,12.129
		 M14.823,12.986c0.027-0.006,0.045-0.012,0.053-0.015s0.02-0.006,0.027-0.01s0.02-0.009,0.028-0.016
		c0.003-0.011,0.003-0.025,0.005-0.042c0.002-0.018,0.002-0.037,0.006-0.061c-0.043,0.006-0.082,0.023-0.119,0.054
		s-0.072,0.059-0.107,0.086v0.027C14.76,13.001,14.797,12.992,14.823,12.986 M14.838,12.28c0.026-0.007,0.053-0.014,0.08-0.021
		c0-0.013,0.004-0.034,0.008-0.065c-0.088,0.008-0.14,0.044-0.16,0.109C14.789,12.294,14.813,12.287,14.838,12.28 M14.891,12.735
		c0.031-0.005,0.047-0.037,0.047-0.099c-0.014-0.002-0.027,0-0.043,0.006c-0.015,0.006-0.029,0.013-0.042,0.021
		c-0.014,0.009-0.026,0.02-0.04,0.031c-0.013,0.011-0.023,0.02-0.037,0.029v0.031C14.821,12.745,14.86,12.738,14.891,12.735
		 M14.852,13.438c0.025-0.007,0.057-0.015,0.091-0.021c-0.001-0.01-0.001-0.02-0.003-0.028c0-0.01-0.002-0.02-0.002-0.028
		c-0.012,0.003-0.026,0.008-0.044,0.017c-0.018,0.007-0.038,0.018-0.062,0.03c-0.048,0.022-0.065,0.04-0.055,0.051
		C14.8,13.45,14.824,13.444,14.852,13.438 M14.856,12.575c0.021-0.007,0.047-0.015,0.068-0.021c0-0.016,0.004-0.036,0.01-0.062
		c-0.009,0.001-0.018,0.002-0.025,0.004c-0.007,0.001-0.015,0.004-0.021,0.008c-0.008,0.003-0.02,0.009-0.036,0.021
		c-0.019,0.011-0.04,0.025-0.068,0.045v0.029C14.807,12.591,14.83,12.583,14.856,12.575 M14.852,13.162
		c0.017-0.002,0.031-0.007,0.044-0.015c0.013-0.007,0.023-0.017,0.03-0.031c0.008-0.014,0.014-0.031,0.014-0.055
		c-0.018,0.003-0.04,0.013-0.064,0.029c-0.025,0.016-0.053,0.032-0.084,0.05c0,0.003,0.002,0.006,0.002,0.009
		c0.002,0.003,0.003,0.008,0.008,0.014C14.818,13.163,14.836,13.163,14.852,13.162"/>
	<path fill="#101110" d="M16.067,13.687c-0.013-0.004-0.025-0.008-0.038-0.012c-0.027-0.153-0.028-0.317-0.003-0.487
		c0.021-0.17,0.006-0.326-0.047-0.472c-0.008-0.086-0.012-0.177-0.014-0.271c0-0.047-0.006-0.093-0.013-0.135
		c-0.008-0.042-0.018-0.083-0.034-0.123c-0.021-0.005-0.036-0.008-0.036-0.01l0.001-0.067c0.027-0.002,0.047-0.002,0.052-0.001
		c0.007,0.001,0.021,0.005,0.035,0.011c0,0.012,0.003,0.021,0.007,0.024c0.007,0.004,0.008,0.013,0.008,0.027
		c0.006,0,0.008,0.004,0.006,0.014c-0.003,0.009,0.002,0.014,0.008,0.015v-0.09c0.045-0.003,0.087-0.006,0.125-0.008
		c0.035-0.002,0.064-0.004,0.094-0.007c0.053-0.007,0.121-0.034,0.203-0.083c0.178,0.041,0.346,0.097,0.51,0.165v0.016
		c0.01,0.007,0.017,0.012,0.023,0.016c0.006,0.004,0.012,0.009,0.018,0.013c0.006,0.006,0.011,0.011,0.016,0.019
		c0.006,0.007,0.013,0.018,0.02,0.032l0.021,0.001v0.019h0.018c0.006,0.017,0.012,0.033,0.02,0.05
		c0.007,0.016,0.014,0.032,0.021,0.048h0.016L17.1,12.427h0.021c0.027,0.058,0.052,0.114,0.073,0.169
		c0.022,0.056,0.036,0.12,0.04,0.196c0.019,0.008,0.029,0.021,0.032,0.037c-0.014,0.018-0.03,0.036-0.05,0.057
		c-0.059,0.191-0.166,0.367-0.319,0.529c-0.153,0.161-0.331,0.254-0.532,0.281c0-0.008,0.004-0.021,0.009-0.037
		c-0.079,0-0.129,0.003-0.153,0.007c-0.007,0-0.018,0.002-0.031,0.005c-0.014,0.002-0.028,0.006-0.045,0.011
		c-0.015,0.014-0.027,0.021-0.039,0.021C16.092,13.697,16.08,13.692,16.067,13.687 M16.151,12.529
		c0.059-0.092,0.08-0.149,0.062-0.171c-0.018,0.011-0.031,0.02-0.044,0.028c-0.012,0.007-0.021,0.014-0.024,0.016
		c-0.004,0.003-0.011,0.008-0.018,0.015c-0.008,0.006-0.016,0.014-0.024,0.022v0.057c-0.007,0.002-0.015,0.003-0.021,0.006
		c-0.007,0.001-0.014,0.003-0.021,0.004v-0.019h-0.027l-0.001,0.201C16.054,12.677,16.092,12.624,16.151,12.529 M16.151,12.929
		c0.024-0.034,0.05-0.074,0.07-0.12c0.049-0.09,0.088-0.166,0.123-0.225c-0.061,0.012-0.107,0.053-0.138,0.124
		c-0.032,0.069-0.077,0.114-0.136,0.132c0.004-0.036,0.016-0.065,0.033-0.087c0.02-0.021,0.037-0.046,0.061-0.074
		c-0.006-0.006-0.008-0.008-0.01-0.011c-0.004-0.002-0.007-0.005-0.01-0.009c-0.061,0.074-0.091,0.125-0.094,0.154
		c0,0.028,0.008,0.096,0.021,0.2C16.096,12.991,16.123,12.962,16.151,12.929 M16.169,13.05c0.026-0.033,0.048-0.06,0.063-0.079
		c0.016-0.019,0.025-0.031,0.03-0.038c-0.007-0.007-0.017-0.011-0.028-0.012c-0.021,0.025-0.045,0.053-0.065,0.082
		c-0.024,0.029-0.052,0.052-0.081,0.062c-0.002,0.021-0.004,0.037-0.006,0.051c-0.001,0.015-0.002,0.025-0.004,0.033
		C16.085,13.147,16.115,13.114,16.169,13.05 M16.131,13.275c0.017-0.02,0.033-0.039,0.047-0.06c0.015-0.022,0.029-0.044,0.043-0.066
		c0.016-0.021,0.029-0.041,0.042-0.057c-0.035,0.01-0.066,0.028-0.094,0.056c-0.028,0.027-0.058,0.05-0.092,0.067l-0.001,0.104
		C16.096,13.311,16.114,13.295,16.131,13.275 M16.172,13.58c0.023-0.028,0.047-0.054,0.069-0.077
		c-0.015,0.003-0.027,0.006-0.038,0.01c-0.011,0.005-0.021,0.009-0.031,0.014c-0.008,0.004-0.02,0.008-0.029,0.011
		c-0.009,0.003-0.021,0.005-0.037,0.005c0.007-0.052,0.028-0.102,0.066-0.15c0.021-0.024,0.039-0.049,0.057-0.071
		s0.035-0.045,0.051-0.066c-0.045,0.019-0.078,0.043-0.102,0.072c-0.021,0.027-0.055,0.047-0.102,0.054
		c0.004,0.049,0.005,0.087,0.004,0.117c0,0.028,0.001,0.048,0.002,0.058c0.002,0.022,0.006,0.045,0.014,0.073
		C16.123,13.624,16.149,13.608,16.172,13.58 M16.254,12.464c0.012-0.016,0.023-0.032,0.036-0.049
		c0.025-0.035,0.06-0.051,0.104-0.051c-0.002-0.019-0.003-0.035-0.004-0.05c0-0.014,0-0.026,0-0.037c-0.008,0-0.016,0-0.021,0.001
		c-0.006,0-0.01,0.002-0.02,0.003c-0.007,0.011-0.02,0.026-0.035,0.044c-0.018,0.02-0.038,0.042-0.064,0.07
		c-0.049,0.055-0.061,0.094-0.036,0.115C16.229,12.495,16.241,12.479,16.254,12.464 M16.287,13.404
		c0.025-0.017,0.052-0.035,0.08-0.053c0.002-0.018,0.004-0.034,0.006-0.052c0-0.018,0.002-0.035,0.004-0.052
		c-0.039,0.011-0.073,0.039-0.1,0.087c-0.014,0.021-0.023,0.043-0.035,0.064c-0.011,0.021-0.021,0.04-0.032,0.058
		C16.237,13.438,16.262,13.422,16.287,13.404 M16.309,13.168c0.012-0.005,0.021-0.009,0.027-0.013
		c0.007-0.005,0.011-0.008,0.016-0.013c0.006-0.006,0.01-0.012,0.02-0.022c-0.002-0.008-0.004-0.019-0.004-0.027
		c0.002-0.008,0.002-0.019,0.002-0.027h-0.04c-0.013,0.021-0.022,0.038-0.03,0.051c-0.009,0.015-0.014,0.023-0.019,0.029
		c-0.004,0.008-0.007,0.021-0.008,0.042C16.287,13.179,16.299,13.172,16.309,13.168 M16.344,12.206
		c0.021-0.014,0.034-0.032,0.037-0.057c-0.027,0.012-0.049,0.021-0.06,0.028c-0.003,0.004-0.007,0.008-0.017,0.016
		c-0.007,0.007-0.018,0.016-0.028,0.025c0.001,0.008,0.005,0.015,0.007,0.024C16.305,12.232,16.324,12.219,16.344,12.206
		 M16.367,12.732c0.01-0.018,0.014-0.044,0.014-0.078c-0.023,0.005-0.049,0.023-0.072,0.057c-0.021,0.031-0.021,0.058,0.003,0.077
		C16.338,12.769,16.356,12.749,16.367,12.732 M16.358,12.929c0.012-0.022,0.02-0.043,0.021-0.058L16.35,12.87
		c-0.006,0.014-0.014,0.022-0.018,0.029c-0.004,0.008-0.007,0.014-0.011,0.02c-0.003,0.006-0.006,0.01-0.013,0.016
		c-0.004,0.005-0.008,0.012-0.018,0.021c0.004,0.004,0.008,0.006,0.01,0.008c0.002,0.003,0.006,0.005,0.007,0.008
		C16.329,12.967,16.347,12.953,16.358,12.929 M16.393,13.584c0.003-0.015,0.003-0.06,0.002-0.136c-0.037,0-0.064,0.018-0.076,0.052
		c-0.01,0.037-0.018,0.069-0.021,0.1c0.035-0.002,0.053-0.003,0.062-0.003c0.006,0,0.016,0.003,0.025,0.008
		C16.391,13.604,16.393,13.596,16.393,13.584 M16.705,13.504c0.035-0.026,0.072-0.055,0.108-0.082
		c0.036-0.028,0.073-0.057,0.11-0.087c-0.004-0.15-0.008-0.298-0.008-0.444c-0.002-0.147-0.004-0.297-0.004-0.446
		c-0.014-0.046-0.021-0.082-0.029-0.11s-0.012-0.048-0.014-0.059c-0.006-0.021-0.007-0.051-0.008-0.091
		c-0.062-0.009-0.123-0.024-0.184-0.048c-0.062-0.022-0.119-0.04-0.171-0.052c0,0.015,0,0.028,0,0.04
		c-0.001,0.011-0.003,0.021-0.008,0.029c-0.005,0.008-0.01,0.015-0.021,0.018c-0.008,0.004-0.021,0.004-0.043,0.002
		c-0.006,0.236-0.008,0.47-0.008,0.706c0.002,0.234,0.012,0.472,0.026,0.713C16.552,13.584,16.633,13.555,16.705,13.504
		 M17.016,12.84c0.01-0.013,0.018-0.026,0.025-0.04c0.008-0.015,0.018-0.027,0.021-0.042c0.008-0.014,0.013-0.026,0.02-0.035
		c-0.025,0.002-0.045,0.008-0.06,0.015s-0.024,0.017-0.032,0.029c-0.006,0.013-0.008,0.028-0.008,0.044s0.002,0.035,0.002,0.057
		C16.995,12.861,17.005,12.853,17.016,12.84 M17.026,12.527c0.008-0.003,0.018-0.007,0.022-0.01
		c0.007-0.005,0.011-0.009,0.018-0.014c0.006-0.005,0.01-0.011,0.021-0.021c0-0.009-0.002-0.018-0.004-0.024
		c-0.004-0.007-0.012-0.027-0.031-0.062h-0.047c-0.005,0.024-0.008,0.051-0.012,0.073c-0.004,0.024-0.006,0.049-0.008,0.069
		C17.002,12.534,17.016,12.529,17.026,12.527 M17.008,13.207c0.008-0.002,0.012-0.003,0.019-0.005
		c0.007-0.016,0.014-0.031,0.021-0.05c0.007-0.017,0.017-0.036,0.026-0.054c-0.018-0.019-0.03-0.04-0.037-0.068
		c0.029-0.041,0.06-0.082,0.094-0.124c-0.007,0-0.018,0.003-0.029,0.007c-0.012,0.006-0.022,0.01-0.036,0.016
		c-0.013,0.005-0.026,0.011-0.038,0.016C17.013,12.95,17,12.953,16.99,12.955c0,0.043,0.001,0.087,0.002,0.129
		c0,0.041,0.002,0.084,0.007,0.128C16.996,13.21,17.002,13.209,17.008,13.207 M17.117,12.839c0.008-0.004,0.025-0.014,0.053-0.028
		c0.002-0.012,0.004-0.024,0.008-0.038c0.004-0.015,0.008-0.03,0.009-0.049c-0.036,0.011-0.058,0.025-0.067,0.046
		c-0.012,0.021-0.022,0.046-0.037,0.077C17.098,12.846,17.111,12.843,17.117,12.839"/>
	<path fill="#101110" d="M17.76,13.724h-0.021l0.002-0.028c-0.013-0.003-0.026-0.007-0.04-0.008
		c-0.015-0.002-0.028-0.003-0.042-0.005c-0.004,0.006-0.006,0.011-0.006,0.015c-0.001,0.002-0.002,0.005-0.005,0.009
		c-0.021,0.003-0.036,0.005-0.048,0.007c0-0.01,0.002-0.02,0.004-0.029c0.002-0.011,0.002-0.02,0.002-0.029
		c-0.025-0.01-0.051-0.023-0.069-0.04c-0.021-0.018-0.036-0.036-0.052-0.057c-0.014-0.021-0.022-0.04-0.032-0.062
		c-0.007-0.021-0.011-0.039-0.011-0.057H17.42c-0.021-0.06-0.037-0.115-0.044-0.167c-0.009-0.053-0.015-0.102-0.015-0.15v-0.313
		c0.038-0.095,0.08-0.189,0.123-0.284c0.043-0.094,0.09-0.187,0.139-0.276c0.018-0.008,0.031-0.02,0.038-0.031
		c0.009-0.011,0.014-0.023,0.019-0.036c0.004-0.013,0.006-0.025,0.006-0.041c0.002-0.015,0.004-0.029,0.008-0.045
		c0.012-0.002,0.023-0.004,0.037-0.004c0.01-0.001,0.021-0.002,0.035-0.002l-0.002,0.031c0.128-0.062,0.24-0.102,0.334-0.118
		c0.094-0.015,0.211,0.01,0.354,0.073c0,0.027,0.02,0.047,0.053,0.054c0.02,0.003,0.036,0.006,0.054,0.008
		c0.018,0.001,0.034,0.003,0.05,0.003c0,0.003,0,0.007,0.002,0.013c0.001,0.005,0.002,0.012,0.005,0.021
		c-0.024,0.017-0.046,0.033-0.067,0.052c-0.021,0.018-0.043,0.037-0.062,0.057c-0.042,0.041-0.088,0.066-0.14,0.077
		c-0.001-0.033-0.003-0.062-0.007-0.086c-0.004-0.025-0.01-0.044-0.016-0.06c-0.01-0.031-0.033-0.073-0.066-0.126
		c-0.008-0.001-0.016-0.002-0.021-0.003c-0.008-0.001-0.011-0.001-0.014-0.001c-0.008-0.018-0.01-0.03-0.01-0.04
		c-0.109,0-0.195,0.013-0.258,0.039c-0.031,0.013-0.065,0.029-0.097,0.053c-0.035,0.023-0.069,0.051-0.108,0.082
		c0,0.045,0,0.084,0.001,0.119s0.007,0.062,0.007,0.083c0.004,0.021,0.008,0.056,0.012,0.101c0.006,0.044,0.009,0.099,0.02,0.165
		h0.021c-0.01,0.023-0.019,0.08-0.021,0.171c-0.002,0.091-0.002,0.19-0.002,0.298c0.005,0.108,0.013,0.21,0.02,0.305
		c0.011,0.096,0.025,0.16,0.042,0.193c0.067,0.003,0.133,0.006,0.196,0.008c0.064,0.001,0.135-0.002,0.213-0.011
		c-0.008-0.086-0.005-0.182,0.009-0.286c0.018-0.106,0.028-0.2,0.03-0.278h-0.037c-0.007,0.018-0.016,0.034-0.021,0.049
		c-0.007,0.015-0.011,0.028-0.017,0.039c-0.008,0.021-0.036,0.035-0.089,0.039c0.003-0.056,0.004-0.102,0.005-0.136
		c0-0.034,0.003-0.058,0.008-0.07c0.005-0.024,0.008-0.051,0.008-0.077c-0.004-0.003-0.006-0.007-0.01-0.009
		c-0.004-0.004-0.008-0.008-0.012-0.01c0.001-0.006,0.002-0.014,0.005-0.021c0-0.008,0.003-0.017,0.007-0.026l0.095,0.001
		c0.052,0.084,0.095,0.126,0.132,0.125c0.039-0.001,0.133-0.001,0.281,0.001c-0.009,0.109-0.019,0.219-0.02,0.333
		c-0.003,0.114-0.006,0.229-0.008,0.348h0.021c-0.008,0.013-0.014,0.021-0.02,0.029c-0.008,0.008-0.014,0.013-0.021,0.018
		s-0.016,0.008-0.024,0.01c-0.011,0.002-0.022,0.006-0.039,0.011v-0.02h-0.022c0.005-0.013,0.009-0.023,0.013-0.033
		c0.005-0.011,0.007-0.019,0.011-0.024c-0.053,0.009-0.107,0.02-0.161,0.031s-0.104,0.024-0.15,0.036
		c-0.099,0-0.181-0.001-0.239-0.001s-0.096,0-0.117,0.001c-0.039,0.002-0.075,0.007-0.11,0.014L17.76,13.724L17.76,13.724z
		 M17.526,12.847c0.051-0.071,0.06-0.12,0.031-0.145c-0.043,0.051-0.076,0.089-0.101,0.119c-0.021,0.028-0.035,0.075-0.036,0.143
		C17.446,12.956,17.481,12.917,17.526,12.847 M17.488,13.096c0.01-0.021,0.021-0.037,0.027-0.054
		c0.008-0.016,0.015-0.029,0.021-0.04l-0.028-0.01c-0.027,0.04-0.051,0.066-0.066,0.08c-0.014,0.012-0.021,0.043-0.021,0.095
		C17.446,13.158,17.469,13.134,17.488,13.096 M17.48,13.372c0.007-0.003,0.015-0.005,0.022-0.008
		c0.021-0.034,0.041-0.068,0.062-0.103c0.021-0.034,0.041-0.069,0.062-0.103c-0.035,0.007-0.077,0.034-0.122,0.081
		C17.462,13.289,17.455,13.333,17.48,13.372 M17.637,12.566c0.035-0.039,0.06-0.091,0.064-0.155h-0.058
		c-0.003,0.008-0.007,0.016-0.009,0.024c-0.005,0.007-0.008,0.017-0.014,0.028c-0.008,0.012-0.013,0.027-0.021,0.045
		c-0.008,0.018-0.02,0.04-0.031,0.069c-0.016,0.002-0.029,0.006-0.039,0.008c-0.004,0.008-0.007,0.014-0.01,0.019
		c-0.002,0.004-0.005,0.009-0.008,0.017c0,0.007-0.002,0.016-0.004,0.027c-0.003,0.01-0.008,0.024-0.012,0.044
		C17.551,12.647,17.599,12.605,17.637,12.566 M17.626,13.06c0.019-0.019,0.035-0.032,0.048-0.04c0.026-0.019,0.043-0.072,0.049-0.16
		h-0.037c-0.027,0.049-0.055,0.094-0.078,0.137s-0.051,0.081-0.071,0.118c0.003,0.003,0.007,0.006,0.013,0.009
		c0.002,0.004,0.006,0.008,0.011,0.009C17.585,13.104,17.608,13.079,17.626,13.06 M18.443,13.575
		c0.031-0.032,0.046-0.061,0.04-0.087c-0.032,0.006-0.062,0.021-0.089,0.049c-0.026,0.026-0.04,0.057-0.04,0.091
		C18.383,13.622,18.412,13.604,18.443,13.575"/>
	<path fill="#101110" d="M19.11,13.591c0.039-0.044,0.074-0.086,0.105-0.126c0.047-0.085,0.08-0.153,0.107-0.206
		c0.028-0.054,0.047-0.092,0.057-0.115c0.021-0.046,0.037-0.076,0.048-0.091c0.01-0.002,0.021-0.002,0.027-0.003
		c0.008,0,0.017-0.001,0.021-0.001c0.007-0.021,0.015-0.041,0.024-0.063c0.006-0.021,0.018-0.046,0.028-0.072
		c-0.015,0.003-0.03,0.006-0.042,0.007c-0.011,0.001-0.021,0.004-0.031,0.005c-0.02-0.036-0.051-0.077-0.096-0.125
		c-0.045-0.047-0.066-0.08-0.069-0.1c-0.003-0.001-0.006-0.002-0.017-0.002v-0.017c-0.029-0.019-0.049-0.033-0.059-0.042
		c-0.008-0.01-0.019-0.016-0.028-0.017c0-0.008,0.003-0.015,0.005-0.02c-0.026-0.018-0.043-0.027-0.051-0.03
		c-0.007-0.004-0.018-0.007-0.031-0.01c-0.004-0.015-0.004-0.027-0.006-0.035c-0.012-0.004-0.029-0.01-0.054-0.021
		c0.001-0.003,0.001-0.01,0.001-0.02c-0.033-0.006-0.071-0.031-0.107-0.075c-0.039-0.045-0.064-0.076-0.07-0.095
		c-0.008,0-0.019-0.001-0.025-0.002v-0.018H18.83c-0.008-0.018-0.018-0.035-0.029-0.053c-0.012-0.018-0.02-0.03-0.02-0.04
		c-0.011,0-0.018-0.001-0.02-0.002c-0.016-0.049-0.029-0.089-0.043-0.12c-0.011-0.031,0.012-0.051,0.069-0.059
		c0.032,0.022,0.108,0.028,0.23,0.018c0.062-0.005,0.112-0.01,0.155-0.013s0.078-0.006,0.105-0.009
		c0.021-0.011,0.036-0.016,0.047-0.016c0.013,0,0.021,0.005,0.027,0.014c0.007,0.009,0.012,0.021,0.014,0.035
		s0.004,0.031,0.006,0.05c0.009,0,0.015,0.001,0.016,0.003c0.053,0.139,0.082,0.219,0.09,0.243c0.007,0.027,0.01,0.048,0.012,0.063
		c0.006,0,0.008,0.001,0.01,0.002s0.007,0.002,0.008,0.001c0.008,0.019,0.01,0.033,0.017,0.043c0.004,0.009,0.007,0.018,0.007,0.023
		c0.002,0.008,0.003,0.014,0.003,0.018c0.003,0.006,0.003,0.012,0.003,0.021c0.008,0.004,0.018,0.007,0.021,0.01
		s0.01,0.006,0.012,0.007c-0.002,0.043,0.007,0.092,0.027,0.146c0.007,0.001,0.012,0.003,0.018,0.003
		c0.004,0.001,0.011,0.002,0.017,0.004c0.022-0.042,0.053-0.097,0.089-0.164c0.037-0.066,0.068-0.137,0.096-0.209
		c0.028-0.072,0.05-0.141,0.061-0.21c0.011-0.067,0.003-0.125-0.025-0.172c0.008-0.023,0.01-0.039,0.01-0.044
		c0.016,0.001,0.029,0.002,0.036,0.002c0.011,0,0.021,0.001,0.028,0.002c0.014,0,0.037,0.01,0.07,0.029
		c0.014-0.008,0.023-0.013,0.029-0.014c0.008-0.001,0.021,0.002,0.043,0.006c0,0.011,0.004,0.019,0.01,0.025
		s0.008,0.018,0.004,0.031c-0.076,0.039-0.123,0.092-0.143,0.159c-0.006,0.031-0.014,0.065-0.021,0.1
		c-0.009,0.036-0.017,0.073-0.025,0.112c-0.017,0.009-0.032,0.014-0.044,0.013s-0.025-0.003-0.037-0.007
		c-0.014,0.07-0.044,0.142-0.088,0.213c-0.041,0.073-0.064,0.144-0.062,0.206c0.009,0.007,0.018,0.013,0.023,0.016
		c0.008,0.004,0.014,0.008,0.021,0.011c-0.001,0.008-0.003,0.017-0.003,0.026c-0.015,0.003-0.032,0.006-0.049,0.009
		c-0.016,0.002-0.036,0.006-0.055,0.008c-0.048,0.133-0.082,0.236-0.102,0.309c-0.02,0.074-0.036,0.128-0.051,0.162
		c-0.051,0.081-0.084,0.147-0.105,0.199c-0.018,0.048-0.037,0.121-0.053,0.22c-0.043,0-0.088-0.001-0.133-0.001
		c-0.041,0-0.084,0.001-0.125,0.002C19.043,13.678,19.071,13.632,19.11,13.591 M18.897,12.23c0.008-0.004,0.024-0.015,0.051-0.03
		c0.027-0.015,0.062-0.036,0.109-0.062c-0.003-0.002-0.004-0.004-0.007-0.008c-0.003-0.003-0.005-0.005-0.007-0.007
		c-0.039-0.003-0.074,0-0.107,0.008c-0.032,0.009-0.066,0.012-0.107,0.008c-0.001,0.003-0.001,0.009-0.002,0.019
		c0,0.007-0.002,0.019-0.003,0.032c-0.003,0.027,0.007,0.044,0.031,0.053C18.865,12.242,18.879,12.238,18.897,12.23 M19.041,12.302
		c0.051-0.026,0.079-0.05,0.088-0.068c-0.018,0-0.037,0.002-0.055,0.008c-0.01,0.001-0.027,0.006-0.053,0.013
		c-0.027,0.008-0.062,0.019-0.109,0.03v0.011c0,0.004-0.002,0.009-0.004,0.015c0.002,0,0.006,0.001,0.008,0.001
		c0.004,0.002,0.008,0.002,0.01,0.002c0,0.003,0,0.006-0.001,0.007c-0.001,0.003-0.001,0.006-0.001,0.009
		c0.004,0.002,0.01,0.003,0.021,0.003l-0.002,0.017C18.959,12.343,18.994,12.327,19.041,12.302 M19.084,12.398
		c0.014-0.008,0.025-0.013,0.035-0.017c0.007-0.004,0.019-0.011,0.035-0.021c0.016-0.01,0.037-0.022,0.061-0.038
		c-0.036-0.002-0.067,0.005-0.103,0.021c-0.034,0.014-0.065,0.028-0.094,0.039c-0.004,0.013-0.007,0.022-0.007,0.026h0.021v0.019
		C19.051,12.416,19.071,12.406,19.084,12.398 M19.33,12.342c0.023-0.006,0.044-0.01,0.066-0.015c0.018-0.065,0.008-0.12-0.032-0.16
		c-0.036-0.043-0.079-0.072-0.123-0.091c-0.014,0.008-0.027,0.017-0.045,0.024c-0.018,0.009-0.035,0.018-0.059,0.027
		c-0.043,0.019-0.069,0.04-0.079,0.064c0.02,0.004,0.036,0.004,0.057,0c0.019-0.002,0.036-0.006,0.054-0.01
		c0.019-0.006,0.036-0.009,0.056-0.014c0.021-0.003,0.041-0.005,0.064-0.005c-0.01,0.024-0.029,0.043-0.051,0.056
		s-0.046,0.024-0.066,0.038c0,0.003,0,0.007,0.002,0.011s0.004,0.008,0.006,0.013c0.027-0.006,0.055-0.013,0.082-0.02
		c0.028-0.007,0.061-0.008,0.094-0.003c-0.016,0.019-0.033,0.035-0.051,0.051c-0.021,0.015-0.033,0.031-0.039,0.047
		C19.287,12.352,19.309,12.347,19.33,12.342 M19.228,12.466c0.036-0.023,0.067-0.046,0.098-0.065
		c-0.019-0.021-0.059-0.018-0.122,0.011c-0.06,0.024-0.094,0.049-0.108,0.071c0.017,0.009,0.024,0.014,0.026,0.015
		C19.158,12.501,19.193,12.49,19.228,12.466 M19.225,13.603c0.011-0.025,0.021-0.05,0.027-0.068c0.008-0.02,0.016-0.036,0.021-0.049
		c-0.004,0-0.008,0-0.012-0.001c-0.006-0.001-0.01-0.001-0.016-0.001c-0.02,0.032-0.037,0.065-0.057,0.099
		c-0.021,0.033-0.035,0.068-0.055,0.103C19.174,13.682,19.203,13.654,19.225,13.603 M19.41,12.651
		c0.018-0.018,0.038-0.036,0.064-0.058c-0.008,0-0.018,0-0.026,0.001c-0.007,0-0.015,0.001-0.021,0.003
		c-0.014,0.003-0.054,0.014-0.12,0.035c-0.002,0.004-0.004,0.012-0.004,0.025c0.01,0,0.016,0.004,0.02,0.009
		c0.003,0.007,0.007,0.012,0.017,0.015C19.369,12.68,19.393,12.669,19.41,12.651"/>
</g>
<line fill="none" stroke="#D8D8D8" stroke-width="0.4269" x1="2.36" y1="24.039" x2="13.659" y2="24.039"/>
<line fill="none" stroke="#D8D8D8" stroke-width="0.4269" x1="2.36" y1="22.783" x2="13.659" y2="22.783"/>
<line fill="none" stroke="#D8D8D8" stroke-width="0.4269" x1="2.36" y1="21.528" x2="13.659" y2="21.528"/>
<line fill="none" stroke="#D8D8D8" stroke-width="0.4269" x1="2.36" y1="20.272" x2="13.659" y2="20.272"/>
<line fill="none" stroke="#D8D8D8" stroke-width="0.4269" x1="2.36" y1="19.018" x2="13.659" y2="19.018"/>
<line fill="none" stroke="#D8D8D8" stroke-width="0.4269" x1="2.36" y1="17.762" x2="13.659" y2="17.762"/>
<line fill="none" stroke="#D8D8D8" stroke-width="0.4269" x1="2.36" y1="16.506" x2="13.659" y2="16.506"/>
<line fill="none" stroke="#D8D8D8" stroke-width="0.4269" x1="2.36" y1="15.251" x2="13.659" y2="15.251"/>
<line fill="none" stroke="#D8D8D8" stroke-width="0.4269" x1="2.36" y1="13.995" x2="13.659" y2="13.995"/>
<line fill="none" stroke="#D8D8D8" stroke-width="0.4269" x1="2.36" y1="12.74" x2="13.659" y2="12.74"/>
<rect x="4.243" y="12.112" fill="#3D3D3D" width="7.532" height="12.555"/>
<polyline fill="none" stroke="#000000" stroke-width="0.1744" points="11.776,12.113 11.776,24.667 4.243,24.667 "/>
<polyline fill="none" stroke="#E8E8E8" stroke-width="0.1744" points="4.243,24.667 4.243,12.113 11.776,12.113 "/>
<rect x="-3.29" y="14.623" fill="none" stroke="#000000" stroke-width="0.1744" width="2.511" height="5.021"/>
<rect x="16.797" y="14.623" fill="none" stroke="#000000" stroke-width="0.1744" width="2.512" height="5.021"/>
<rect x="6.755" y="27.178" fill="none" stroke="#000000" stroke-width="0.1233" width="2.51" height="2.51"/>
<rect x="-0.779" y="1.44" fill="none" stroke="#232323" stroke-width="0.1744" width="8.161" height="6.277"/>
<rect x="8.637" y="1.44" fill="none" stroke="#232323" stroke-width="0.1744" width="8.16" height="6.277"/>
<circle id="connector8pin" fill="#72683F" stroke="#9A916C" stroke-width="0.4269" cx="18.065" cy="15.892" r="0.715"/>
<circle id="connector7pin" fill="#72683F" stroke="#9A916C" stroke-width="0.4269" cx="18.065" cy="18.403" r="0.716"/>
<circle id="connector6pin" fill="#72683F" stroke="#9A916C" stroke-width="0.4269" cx="18.065" cy="28.447" r="0.715"/>
<circle id="connector5pin" fill="#72683F" stroke="#9A916C" stroke-width="0.4269" cx="15.553" cy="28.447" r="0.715"/>
<circle id="connector4pin" fill="#72683F" stroke="#9A916C" stroke-width="0.4269" cx="13.042" cy="28.447" r="0.715"/>
<circle id="connector3pin" fill="#72683F" stroke="#9A916C" stroke-width="0.4269" cx="8.021" cy="28.447" r="0.715"/>
<circle id="connector2pin" fill="#72683F" stroke="#9A916C" stroke-width="0.4269" cx="2.999" cy="28.447" r="0.715"/>
<circle id="connector1pin" fill="#72683F" stroke="#9A916C" stroke-width="0.4269" cx="0.488" cy="28.447" r="0.715"/>
<circle id="connector13pin" fill="#72683F" stroke="#9A916C" stroke-width="0.4269" cx="-2.024" cy="15.892" r="0.715"/>
<circle id="connector14pin" fill="#72683F" stroke="#9A916C" stroke-width="0.4269" cx="-2.024" cy="18.403" r="0.716"/>
<circle id="connector0pin" fill="#72683F" stroke="#9A916C" stroke-width="0.4269" cx="-2.024" cy="28.447" r="0.715"/>
<circle id="connector11pin" fill="#72683F" stroke="#9A916C" stroke-width="0.4269" cx="4.959" cy="5.295" r="0.716"/>
<circle id="connector12pin" fill="#72683F" stroke="#9A916C" stroke-width="0.4269" cx="1.644" cy="5.295" r="0.716"/>
<circle id="connector9pin" fill="#72683F" stroke="#9A916C" stroke-width="0.4269" cx="14.374" cy="5.295" r="0.716"/>
<circle id="connector10pin" fill="#72683F" stroke="#9A916C" stroke-width="0.4269" cx="11.06" cy="5.295" r="0.716"/>
</svg>
