<?xml version="1.0" encoding="utf-8"?>
<!-- Generator: Adobe Illustrator 13.0.0, SVG Export Plug-In . SVG Version: 6.00 Build 14948)  -->
<!DOCTYPE svg PUBLIC "-//W3C//DTD SVG 1.1//EN" "http://www.w3.org/Graphics/SVG/1.1/DTD/svg11.dtd">
<svg version="1.1" id="Layer_1" xmlns="http://www.w3.org/2000/svg" xmlns:xlink="http://www.w3.org/1999/xlink" x="0px" y="0px"
	 width="32px" height="32px" viewBox="0 0 32 32" xml:space="preserve">
	<g id="icon">
		<path fill="#8C8C8C" d="M8.622,32c1.181-1.298,2.132-2.658,2.132-4.167v-6.151h-2.5c0,0,0,4.625,0,6.002
			c0,1.379-1.469,2.664-2.766,3.967c-0.115,0.117-0.23,0.233-0.345,0.351L8.622,32L8.622,32z"/>
		<path fill="#8C8C8C" d="M14.074,32c0.463-1.498,0.882-3.025,0.882-4.523v-5.795h-2.5v5.795c0,1.356-0.481,2.885-0.993,4.504
			c-0.002,0.008-0.004,0.014-0.006,0.021L14.074,32L14.074,32z"/>
		<path fill="#8C8C8C" d="M20.137,32c-0.002-0.007-0.004-0.014-0.006-0.02c-0.512-1.619-0.992-3.147-0.992-4.504v-5.795h-2.5v5.795
			c0,1.498,0.418,3.024,0.881,4.522L20.137,32L20.137,32z"/>
		<path fill="#8C8C8C" d="M26.451,32c-0.115-0.116-0.23-0.232-0.346-0.35c-1.295-1.303-2.767-2.588-2.767-3.967
			c0-1.377,0-6.002,0-6.002h-2.5v6.15c0,1.509,0.951,2.869,2.132,4.167L26.451,32L26.451,32z"/>
		<path opacity="0.5" fill="#E6E6E6" d="M24.191,16.084V9.148c0-4.591-3.724-8.314-8.313-8.314
			S7.564,4.557,7.564,9.148V25.16c1.736,1.938,4.806,3.229,8.314,3.229c5.422,0,9.817-3.078,9.817-6.871v-1.791
			C25.695,18.389,25.139,17.141,24.191,16.084z"/>
		<path opacity="0.9" fill="#D1D1D1" d="M24.191,16.084v3.643c0,3.215-3.724,5.82-8.313,5.82
			s-8.314-2.605-8.314-5.82v3.646v1.789c1.736,1.938,4.806,3.229,8.314,3.229c5.422,0,9.817-3.078,9.817-6.873v-1.791
			C25.695,18.389,25.139,17.141,24.191,16.084z"/>
		<path opacity="0.24" d="M24.191,16.084v3.643c0,3.215-3.724,5.82-8.313,5.82s-8.314-2.605-8.314-5.82
			v3.646c1.736,1.938,4.806,3.229,8.314,3.229c5.422,0,9.817-3.078,9.817-6.875C25.695,18.389,25.139,17.141,24.191,16.084z"/>
		<ellipse opacity="0.5" fill="#CCCCCC" cx="15.878" cy="19.727" rx="8.313" ry="5.82"/>
		<polygon fill="#999999" points="20.209,10.831 20.721,11.428 17.072,15.322 20.539,15.322 20.539,16.19 20.539,19.729 
			21.611,19.729 21.611,10.831 		"/>
		<polygon fill="#999999" points="16.779,11.16 16.194,12.173 13.941,12.173 13.356,11.16 11.561,11.16 10.147,12.149 
			10.147,19.729 12.308,19.727 12.308,15.322 15.431,15.322 19.311,11.16 		"/>
		<path opacity="0.6" fill="#FFFFFF" d="M19.751,5.233l1.688-0.32
			c-0.983-1.331-2.442-2.299-4.154-2.627l0.292,1.268C18.475,3.874,19.229,4.471,19.751,5.233z"/>
		<path opacity="0.6" fill="#FFFFFF"  d="M8.464,24.208v1.79c0.764,0.621,1.677,1.145,2.708,1.544
			v-1.791C10.141,25.354,9.229,24.828,8.464,24.208z"/>
		<path opacity="0.6" fill="#FFFFFF" d="M20.553,24.54c-0.303,0.144-0.623,0.271-0.951,0.386
			c-0.067,0.024-0.138,0.047-0.207,0.07c-0.66,0.217-1.369,0.372-2.109,0.462c-0.09,0.01-0.178,0.021-0.268,0.026
			c-0.375,0.037-0.75,0.062-1.139,0.062c-0.176,0-0.362-0.011-0.554-0.026c-1.415-0.067-2.735-0.371-3.869-0.869v-9.844V9.148
			c0-1.723,0.995-3.2,2.433-3.93L13.866,5.16l-1.465-1.777c-1.957,1.182-3.274,3.312-3.274,5.765v13.967
			c-0.058-0.057-0.364-0.361-0.562-0.618l-0.362,0.808c1.648,1.739,4.469,2.889,7.676,2.889c1.971,0,3.792-0.438,5.292-1.176
			l-0.614-0.479C20.555,24.538,20.553,24.538,20.553,24.54z"/>
	</g>
</svg>
