<?xml version="1.0" encoding="utf-8"?>
<!-- Generator: Adobe Illustrator 14.0.0, SVG Export Plug-In . SVG Version: 6.00 Build 43363)  -->
<!DOCTYPE svg PUBLIC "-//W3C//DTD SVG 1.1 Basic//EN" "http://www.w3.org/Graphics/SVG/1.1/DTD/svg11-basic.dtd">
<svg version="1.1" baseProfile="basic" id="svg" xmlns="http://www.w3.org/2000/svg" xmlns:xlink="http://www.w3.org/1999/xlink"
	 x="0px" y="0px" width="32px" height="32px" viewBox="0 0 32 32" xml:space="preserve">
<g id="icon">
	<path fill="none" stroke="#8C8C8C" stroke-width="2" d="M22.788,17.608v9.893"/>
	<path fill="none" stroke="#8C8C8C" stroke-width="2" d="M9.251,17.608v9.893"/>
	<path fill="none" stroke="#8C8C8C" stroke-width="2" stroke-linejoin="round" d="M11.959,21.769c0,0,0,0.692,0,10.231"/>
	<path fill="none" stroke="#8C8C8C" stroke-width="2" stroke-linejoin="round" d="M17.373,21.769c0,0,0,0.692,0,10.231"/>
	<path fill="none" stroke="#8C8C8C" stroke-width="2" stroke-linejoin="round" d="M20.08,21.769c0,0,0,0.692,0,10.231"/>
	<line fill="none" stroke="#8C8C8C" stroke-width="2" x1="14.666" y1="21.767" x2="14.666" y2="27.501"/>
	<g>
		<path opacity="0.9" fill="#D1D1D1" d="M22.535,13.525v3.145v0.002c0-2.778-3.215-5.029-7.182-5.029s-7.182,2.251-7.182,5.029
			c0,1.562,1.016,2.956,2.611,3.88c-1.596-0.924-2.615-2.318-2.615-3.882v3.149v1.547c1.5,1.672,4.152,2.789,7.184,2.789
			c4.686,0,8.48-2.658,8.48-5.939V16.67C23.836,15.516,23.353,14.438,22.535,13.525z"/>
		<g id="breadboard_12_">
			<g id="rgbled_11_">
				<path opacity="0.9" fill="#FFFFFF" d="M22.535,13.525V7.533c0-3.968-3.217-7.184-7.184-7.184c-3.965,0-7.182,3.216-7.182,7.184
					v13.833c1.5,1.674,4.152,2.789,7.184,2.789c4.686,0,8.479-2.658,8.479-5.938V16.67C23.836,15.516,23.353,14.438,22.535,13.525z"
					/>
				<path opacity="0.9" fill="#FFFFFF" d="M22.535,13.525v3.145c0,2.778-3.217,5.03-7.184,5.03c-3.965,0-7.184-2.252-7.184-5.03
					v3.149v1.547c1.5,1.672,4.152,2.789,7.184,2.789c4.686,0,8.48-2.658,8.48-5.939V16.67
					C23.836,15.516,23.353,14.438,22.535,13.525z"/>
				<path opacity="0.24" d="M22.535,13.525v3.145c0,2.778-3.217,5.03-7.184,5.03c-3.965,0-7.184-2.252-7.184-5.03v3.149
					c1.5,1.674,4.152,2.787,7.184,2.787c4.686,0,8.48-2.656,8.48-5.937C23.836,15.516,23.353,14.438,22.535,13.525z"/>
				<ellipse opacity="0.5" fill="#F2F2F2" cx="15.353" cy="16.671" rx="7.182" ry="5.029"/>
				<path opacity="0.6" fill="#CCCCCC" d="M18.697,4.15l1.459-0.277c-0.848-1.149-2.107-1.986-3.588-2.271l0.252,1.097
					C17.597,2.974,18.25,3.49,18.697,4.15z"/>
				<path opacity="0.4" fill="#CCCCCC" d="M8.949,20.544v1.547c0.66,0.535,1.447,0.988,2.34,1.334v-1.549
					C10.396,21.534,9.609,21.079,8.949,20.544z"/>
				<g>
					<polygon fill="#CCCCCC" points="19.334,10.612 19.256,11.637 17.998,13.486 19.726,14.71 19.726,15.46 19.726,18.517 
						21,18.517 21,10.612 					"/>
					<polygon fill="#CCCCCC" points="10.119,10.612 10.119,18.517 11.392,18.517 11.392,15.46 11.392,14.71 13.119,13.486 
						11.863,11.637 11.785,10.612 					"/>
					<polygon fill="#CCCCCC" points="17.939,10.612 13.177,10.612 14.912,13.29 14.912,18.515 16.207,18.515 16.207,13.288 					"/>
				</g>
				<path opacity="0.6" fill="#CCCCCC" d="M19.39,20.829c-0.264,0.125-0.537,0.232-0.822,0.334c-0.059,0.021-0.119,0.041-0.18,0.062
					c-0.57,0.188-1.186,0.32-1.822,0.396c-0.076,0.012-0.154,0.02-0.229,0.025c-0.32,0.029-0.646,0.053-0.982,0.053
					c-0.148,0-0.312-0.01-0.479-0.023c-1.223-0.059-2.361-0.316-3.344-0.75v-8.507V7.533c0-1.49,0.859-2.766,2.104-3.396
					l-0.021-0.051l-1.266-1.534c-1.689,1.02-2.83,2.862-2.83,4.979v12.068c-0.049-0.049-0.314-0.312-0.486-0.535l-0.311,0.699
					c1.426,1.504,3.861,2.498,6.631,2.498c1.703,0,3.277-0.379,4.572-1.02l-0.531-0.412C19.39,20.829,19.39,20.829,19.39,20.829z"/>
			</g>
		</g>
	</g>
</g>
</svg>
