<?xml version="1.0" encoding="utf-8"?>
<!-- Generator: Adobe Illustrator 13.0.0, SVG Export Plug-In . SVG Version: 6.00 Build 14948)  -->
<!DOCTYPE svg PUBLIC "-//W3C//DTD SVG 1.1//EN" "http://www.w3.org/Graphics/SVG/1.1/DTD/svg11.dtd">
<svg version="1.1" id="Layer_1" xmlns="http://www.w3.org/2000/svg" xmlns:xlink="http://www.w3.org/1999/xlink" x="0px" y="0px"
	 width="32px" height="32px" viewBox="0 0 32 32" xml:space="preserve">
	
<g id="icon">
	<g id="background">
		<rect x="1" y="1" fill="#D9D9D9" width="132.066" height="89.91"/>
	</g>
	<rect x="1" y="42.938" fill="#CCC9C9" width="132.066" height="6.037"/>
	<g id="sockets">
		<g id="A1xpin">
			<path fill="#BFBFBF" d="M10.091,11.99c0.55,0,0.996,0.447,0.996,0.998h0.996c0-1.101-0.894-1.992-1.992-1.992
				c-1.098,0-1.992,0.892-1.992,1.992h0.995C9.094,12.438,9.541,11.99,10.091,11.99z"/>
			<path fill="#E6E6E6" d="M10.091,14.98c1.101,0,1.992-0.893,1.992-1.992h-0.996c0,0.55-0.446,0.996-0.996,0.996
				c-0.55,0-0.997-0.445-0.997-0.996H8.099C8.099,14.088,8.992,14.98,10.091,14.98z"/>
			<circle fill="#383838" cx="10.091" cy="12.987" r="0.997"/>
		</g>
		<g id="B1xpin">
			<path fill="#BFBFBF" d="M10.091,17.984c0.55,0,0.996,0.445,0.996,0.998h0.996c0-1.102-0.894-1.992-1.992-1.992
				c-1.098,0-1.992,0.893-1.992,1.992h0.995C9.094,18.432,9.541,17.984,10.091,17.984z"/>
			<path fill="#E6E6E6" d="M10.091,20.975c1.101,0,1.992-0.893,1.992-1.992h-0.996c0,0.553-0.446,0.996-0.996,0.996
				c-0.55,0-0.997-0.443-0.997-0.996H8.099C8.099,20.082,8.992,20.975,10.091,20.975z"/>
			<circle fill="#383838" cx="10.091" cy="18.982" r="0.996"/>
		</g>
		<g id="C1xpin">
			<path fill="#BFBFBF" d="M10.091,23.979c0.55,0,0.996,0.447,0.996,0.996h0.996c0-1.1-0.894-1.992-1.992-1.992
				c-1.098,0-1.992,0.895-1.992,1.992h0.995C9.094,24.426,9.541,23.979,10.091,23.979z"/>
			<path fill="#E6E6E6" d="M10.091,26.969c1.101,0,1.992-0.893,1.992-1.992h-0.996c0,0.549-0.446,0.996-0.996,0.996
				c-0.55,0-0.997-0.445-0.997-0.996H8.099C8.099,26.076,8.992,26.969,10.091,26.969z"/>
			<circle fill="#383838" cx="10.091" cy="24.977" r="0.996"/>
		</g>
		<g id="D1xpin">
			<path fill="#BFBFBF" d="M10.091,29.975c0.55,0,0.996,0.445,0.996,0.996h0.996c0-1.1-0.894-1.992-1.992-1.992
				c-1.098,0-1.992,0.895-1.992,1.992h0.995C9.094,30.42,9.541,29.975,10.091,29.975z"/>
			<path fill="#E6E6E6" d="M10.091,32.963c1.101,0,1.992-0.893,1.992-1.992h-0.996c0,0.549-0.446,0.996-0.996,0.996
				c-0.55,0-0.997-0.445-0.997-0.996H8.099C8.099,32.07,8.992,32.963,10.091,32.963z"/>
			<circle fill="#383838" cx="10.091" cy="30.971" r="0.996"/>
		</g>
		<g id="A2xpin">
			<path fill="#BFBFBF" d="M16.085,11.99c0.549,0,0.997,0.447,0.997,0.998h0.996c0-1.101-0.893-1.992-1.992-1.992
				c-1.102,0-1.992,0.892-1.992,1.992h0.996C15.088,12.438,15.535,11.99,16.085,11.99z"/>
			<path fill="#E6E6E6" d="M16.085,14.98c1.101,0,1.993-0.893,1.993-1.992H17.08c0,0.55-0.446,0.996-0.996,0.996
				c-0.551,0-0.997-0.445-0.997-0.996h-0.996C14.093,14.088,14.984,14.98,16.085,14.98z"/>
			<circle fill="#383838" cx="16.085" cy="12.987" r="0.997"/>
		</g>
		<g id="B2xpin">
			<path fill="#BFBFBF" d="M16.085,17.984c0.549,0,0.997,0.445,0.997,0.998h0.996c0-1.102-0.893-1.992-1.992-1.992
				c-1.102,0-1.992,0.893-1.992,1.992h0.996C15.088,18.432,15.535,17.984,16.085,17.984z"/>
			<path fill="#E6E6E6" d="M16.085,20.975c1.101,0,1.993-0.893,1.993-1.992H17.08c0,0.553-0.446,0.996-0.996,0.996
				c-0.551,0-0.997-0.443-0.997-0.996h-0.996C14.093,20.082,14.984,20.975,16.085,20.975z"/>
			<circle fill="#383838" cx="16.085" cy="18.982" r="0.996"/>
		</g>
		<g id="C2xpin">
			<path fill="#BFBFBF" d="M16.085,23.979c0.549,0,0.997,0.447,0.997,0.996h0.996c0-1.1-0.893-1.992-1.992-1.992
				c-1.102,0-1.992,0.895-1.992,1.992h0.996C15.088,24.426,15.535,23.979,16.085,23.979z"/>
			<path fill="#E6E6E6" d="M16.085,26.969c1.101,0,1.993-0.893,1.993-1.992H17.08c0,0.549-0.446,0.996-0.996,0.996
				c-0.551,0-0.997-0.445-0.997-0.996h-0.996C14.093,26.076,14.984,26.969,16.085,26.969z"/>
			<circle fill="#383838" cx="16.085" cy="24.977" r="0.996"/>
		</g>
		<g id="D2xpin">
			<path fill="#BFBFBF" d="M16.085,29.975c0.549,0,0.997,0.445,0.997,0.996h0.996c0-1.1-0.893-1.992-1.992-1.992
				c-1.102,0-1.992,0.895-1.992,1.992h0.996C15.088,30.42,15.535,29.975,16.085,29.975z"/>
			<path fill="#E6E6E6" d="M16.085,32.963c1.101,0,1.993-0.893,1.993-1.992H17.08c0,0.549-0.446,0.996-0.996,0.996
				c-0.551,0-0.997-0.445-0.997-0.996h-0.996C14.093,32.07,14.984,32.963,16.085,32.963z"/>
			<circle fill="#383838" cx="16.085" cy="30.971" r="0.996"/>
		</g>
		<g id="A3xpin">
			<path fill="#BFBFBF" d="M22.08,11.99c0.55,0,0.996,0.447,0.996,0.998h0.996c0-1.101-0.893-1.992-1.991-1.992
				s-1.992,0.892-1.992,1.992h0.996C21.084,12.438,21.529,11.99,22.08,11.99z"/>
			<path fill="#E6E6E6" d="M22.08,14.98c1.102,0,1.99-0.893,1.99-1.992h-0.994c0,0.55-0.446,0.996-0.998,0.996
				c-0.551,0-0.995-0.445-0.995-0.996h-0.996C20.088,14.088,20.979,14.98,22.08,14.98z"/>
			<circle fill="#383838" cx="22.08" cy="12.987" r="0.997"/>
		</g>
		<g id="B3xpin">
			<path fill="#BFBFBF" d="M22.08,17.984c0.55,0,0.996,0.445,0.996,0.998h0.996c0-1.102-0.893-1.992-1.991-1.992
				s-1.992,0.893-1.992,1.992h0.996C21.084,18.432,21.529,17.984,22.08,17.984z"/>
			<path fill="#E6E6E6" d="M22.08,20.975c1.102,0,1.99-0.893,1.99-1.992h-0.994c0,0.553-0.446,0.996-0.998,0.996
				c-0.551,0-0.995-0.443-0.995-0.996h-0.996C20.088,20.082,20.979,20.975,22.08,20.975z"/>
			<circle fill="#383838" cx="22.08" cy="18.982" r="0.996"/>
		</g>
		<g id="C3xpin">
			<path fill="#BFBFBF" d="M22.08,23.979c0.55,0,0.996,0.447,0.996,0.996h0.996c0-1.1-0.893-1.992-1.991-1.992
				s-1.992,0.895-1.992,1.992h0.996C21.084,24.426,21.529,23.979,22.08,23.979z"/>
			<path fill="#E6E6E6" d="M22.08,26.969c1.102,0,1.99-0.893,1.99-1.992h-0.994c0,0.549-0.446,0.996-0.998,0.996
				c-0.551,0-0.995-0.445-0.995-0.996h-0.996C20.088,26.076,20.979,26.969,22.08,26.969z"/>
			<circle fill="#383838" cx="22.08" cy="24.977" r="0.996"/>
		</g>
		<g id="D3xpin">
			<path fill="#BFBFBF" d="M22.08,29.975c0.55,0,0.996,0.445,0.996,0.996h0.996c0-1.1-0.893-1.992-1.991-1.992
				s-1.992,0.895-1.992,1.992h0.996C21.084,30.42,21.529,29.975,22.08,29.975z"/>
			<path fill="#E6E6E6" d="M22.08,32.963c1.102,0,1.99-0.893,1.99-1.992h-0.994c0,0.549-0.446,0.996-0.998,0.996
				c-0.551,0-0.995-0.445-0.995-0.996h-0.996C20.088,32.07,20.979,32.963,22.08,32.963z"/>
			<circle fill="#383838" cx="22.08" cy="30.971" r="0.996"/>
		</g>
		<g id="A4xpin">
			<path fill="#BFBFBF" d="M28.074,11.99c0.55,0,0.996,0.447,0.996,0.998h0.996c0-1.101-0.894-1.992-1.992-1.992
				c-1.1,0-1.991,0.892-1.991,1.992h0.995C27.076,12.438,27.523,11.99,28.074,11.99z"/>
			<path fill="#E6E6E6" d="M28.074,14.98c1.101,0,1.99-0.893,1.99-1.992h-0.996c0,0.55-0.444,0.996-0.996,0.996
				c-0.551,0-0.996-0.445-0.996-0.996H26.08C26.082,14.088,26.973,14.98,28.074,14.98z"/>
			<circle fill="#383838" cx="28.074" cy="12.987" r="0.997"/>
		</g>
		<g id="B4xpin">
			<path fill="#BFBFBF" d="M28.074,17.984c0.55,0,0.996,0.445,0.996,0.998h0.996c0-1.102-0.894-1.992-1.992-1.992
				c-1.1,0-1.991,0.893-1.991,1.992h0.995C27.076,18.432,27.523,17.984,28.074,17.984z"/>
			<path fill="#E6E6E6" d="M28.074,20.975c1.101,0,1.99-0.893,1.99-1.992h-0.996c0,0.553-0.444,0.996-0.996,0.996
				c-0.551,0-0.996-0.443-0.996-0.996H26.08C26.082,20.082,26.973,20.975,28.074,20.975z"/>
			<circle fill="#383838" cx="28.074" cy="18.982" r="0.996"/>
		</g>
		<g id="C4xpin">
			<path fill="#BFBFBF" d="M28.074,23.979c0.55,0,0.996,0.447,0.996,0.996h0.996c0-1.1-0.894-1.992-1.992-1.992
				c-1.1,0-1.991,0.895-1.991,1.992h0.995C27.076,24.426,27.523,23.979,28.074,23.979z"/>
			<path fill="#E6E6E6" d="M28.074,26.969c1.101,0,1.99-0.893,1.99-1.992h-0.996c0,0.549-0.444,0.996-0.996,0.996
				c-0.551,0-0.996-0.445-0.996-0.996H26.08C26.082,26.076,26.973,26.969,28.074,26.969z"/>
			<circle fill="#383838" cx="28.074" cy="24.977" r="0.996"/>
		</g>
		<g id="D4xpin">
			<path fill="#BFBFBF" d="M28.074,29.975c0.55,0,0.996,0.445,0.996,0.996h0.996c0-1.1-0.894-1.992-1.992-1.992
				c-1.1,0-1.991,0.895-1.991,1.992h0.995C27.076,30.42,27.523,29.975,28.074,29.975z"/>
			<path fill="#E6E6E6" d="M28.074,32.963c1.101,0,1.99-0.893,1.99-1.992h-0.996c0,0.549-0.444,0.996-0.996,0.996
				c-0.551,0-0.996-0.445-0.996-0.996H26.08C26.082,32.07,26.973,32.963,28.074,32.963z"/>
			<circle fill="#383838" cx="28.074" cy="30.971" r="0.996"/>
		</g>
		<g id="A5xpin">
			<path fill="#BFBFBF" d="M34.066,11.99c0.551,0,0.996,0.447,0.996,0.998h0.996c0-1.101-0.892-1.992-1.992-1.992
				s-1.99,0.892-1.99,1.992h0.994C33.07,12.438,33.518,11.99,34.066,11.99z"/>
			<path fill="#E6E6E6" d="M34.066,14.98c1.103,0,1.992-0.893,1.992-1.992h-0.996c0,0.55-0.445,0.996-0.996,0.996
				c-0.549,0-0.996-0.445-0.996-0.996h-0.996C32.076,14.088,32.967,14.98,34.066,14.98z"/>
			<circle fill="#383838" cx="34.066" cy="12.987" r="0.997"/>
		</g>
		<g id="B5xpin">
			<path fill="#BFBFBF" d="M34.066,17.984c0.551,0,0.996,0.445,0.996,0.998h0.996c0-1.102-0.892-1.992-1.992-1.992
				s-1.99,0.893-1.99,1.992h0.994C33.07,18.432,33.518,17.984,34.066,17.984z"/>
			<path fill="#E6E6E6" d="M34.066,20.975c1.103,0,1.992-0.893,1.992-1.992h-0.996c0,0.553-0.445,0.996-0.996,0.996
				c-0.549,0-0.996-0.443-0.996-0.996h-0.996C32.076,20.082,32.967,20.975,34.066,20.975z"/>
			<circle fill="#383838" cx="34.066" cy="18.982" r="0.996"/>
		</g>
		<g id="C5xpin">
			<path fill="#BFBFBF" d="M34.066,23.979c0.551,0,0.996,0.447,0.996,0.996h0.996c0-1.1-0.892-1.992-1.992-1.992
				s-1.99,0.895-1.99,1.992h0.994C33.07,24.426,33.518,23.979,34.066,23.979z"/>
			<path fill="#E6E6E6" d="M34.066,26.969c1.103,0,1.992-0.893,1.992-1.992h-0.996c0,0.549-0.445,0.996-0.996,0.996
				c-0.549,0-0.996-0.445-0.996-0.996h-0.996C32.076,26.076,32.967,26.969,34.066,26.969z"/>
			<circle fill="#383838" cx="34.066" cy="24.977" r="0.996"/>
		</g>
		<g id="D5xpin">
			<path fill="#BFBFBF" d="M34.066,29.975c0.551,0,0.996,0.445,0.996,0.996h0.996c0-1.1-0.892-1.992-1.992-1.992
				s-1.99,0.895-1.99,1.992h0.994C33.07,30.42,33.518,29.975,34.066,29.975z"/>
			<path fill="#E6E6E6" d="M34.066,32.963c1.103,0,1.992-0.893,1.992-1.992h-0.996c0,0.549-0.445,0.996-0.996,0.996
				c-0.549,0-0.996-0.447-0.996-0.996h-0.996C32.076,32.07,32.967,32.963,34.066,32.963z"/>
			<circle fill="#383838" cx="34.066" cy="30.971" r="0.996"/>
		</g>
	</g>
</g>
</svg>
