<?xml version="1.0" encoding="utf-8"?>
<!-- Generator: Adobe Illustrator 16.0.0, SVG Export Plug-In . SVG Version: 6.00 Build 0)  -->
<!DOCTYPE svg PUBLIC "-//W3C//DTD SVG 1.1//EN" "http://www.w3.org/Graphics/SVG/1.1/DTD/svg11.dtd">
<svg version="1.1" id="_x30_" xmlns="http://www.w3.org/2000/svg" xmlns:xlink="http://www.w3.org/1999/xlink" x="0px" y="0px"
	 width="32px" height="32px" viewBox="0 0 32 32" enable-background="new 0 0 32 32" xml:space="preserve">
<desc  id="0.0">
	<referenceFile  id="0.0.0">Raspberry_Pi__5889ebdacacba08460c01af1fc__icon__9ba883b9c30f89efe126053928366d65.svg</referenceFile>
</desc>
<g>
	<rect width="32" height="32"/>
	<g id="_x30_.1.0.0.0.233" transform="matrix(0.99989786,0,0,1.0000164,-142.04477,-29.801751)">
		<g id="path3023">
			<path fill="#FFFFFF" d="M162.953,33.306l0.364,0.287l0.531-0.204c0.091-0.035,0.149-0.051,0.183-0.057l0.316,0.287l0.459-0.06
				c0.019-0.002,0.037-0.005,0.056-0.006l0.218,0.276l0.498-0.01c0.024,0,0.062-0.002,0.111-0.006
				c0.036-0.003,0.089-0.007,0.153-0.007c0.105,0,0.165,0.013,0.192,0.021l0.32,0.477l0.301-0.036l-0.089,0.17l0.306,0.471
				l-0.386,0.486l0.207,0.411c-0.019,0.024-0.043,0.054-0.075,0.089l-0.345,0.392l0.095,0.427c-0.005,0.003-0.01,0.007-0.015,0.011
				l-0.483,0.338l0.054,0.508c-0.061,0.061-0.179,0.138-0.223,0.166l-0.058,0.038l-0.343,0.23l-0.081,0.405
				c-0.001,0.007-0.003,0.014-0.004,0.021c-0.032,0.015-0.087,0.037-0.176,0.06l-0.575,0.187l-0.122,0.459
				c-0.059,0.019-0.135,0.039-0.192,0.054l-0.054,0.015l-2.321,0.623l2.077,1.208c1.045,0.607,1.982,1.327,1.976,3.437l-0.001,0.264
				l0.13,0.23l0.196,0.348l0.128,0.227l0.223,0.136c0.538,0.328,1.19,1.166,1.35,2.23c0.099,0.656,0.036,1.641-0.824,2.613
				l-0.184,0.208l-0.051,0.273c-0.096,0.519-0.247,0.934-0.407,1.374c-0.047,0.131-0.095,0.262-0.142,0.396l-0.034,0.097
				l-0.013,0.103c-0.246,1.91-1.872,2.792-2.156,2.874l-0.201,0.05l-0.165,0.126c-0.804,0.614-1.538,1.092-2.505,1.431l-0.223,0.078
				l-0.165,0.17c-0.802,0.828-1.685,1.23-2.699,1.23h-0.056c-1.011,0-1.893-0.402-2.697-1.23l-0.164-0.169l-0.223-0.078
				c-0.965-0.339-1.699-0.817-2.505-1.432l-0.18-0.122l-0.181-0.052c-0.289-0.083-1.916-0.966-2.161-2.874l-0.013-0.103
				l-0.034-0.098c-0.047-0.135-0.095-0.266-0.142-0.397c-0.16-0.439-0.311-0.854-0.406-1.372l-0.05-0.273l-0.185-0.208
				c-0.861-0.972-0.924-1.957-0.825-2.613c0.161-1.064,0.813-1.902,1.352-2.23l0.223-0.136l0.128-0.228l0.196-0.348l0.129-0.23
				l-0.001-0.264c-0.007-2.109,0.93-2.829,1.975-3.436l2.081-1.209l-2.325-0.622l-0.052-0.014c-0.056-0.015-0.13-0.035-0.189-0.053
				l-0.109-0.494l-0.593-0.154c-0.088-0.023-0.144-0.045-0.175-0.06c-0.001-0.008-0.003-0.016-0.005-0.023l-0.081-0.404
				l-0.342-0.229l-0.058-0.038c-0.044-0.028-0.162-0.105-0.222-0.165l0.055-0.507l-0.484-0.339
				c-0.006-0.004-0.011-0.008-0.016-0.012l0.097-0.434l-0.346-0.383c-0.032-0.036-0.057-0.066-0.076-0.091l0.206-0.41l-0.385-0.486
				l0.299-0.507l-0.072-0.133l0.293,0.035l0.32-0.477c0.027-0.008,0.086-0.021,0.191-0.021c0.064,0,0.118,0.004,0.153,0.007
				c0.049,0.004,0.087,0.006,0.112,0.006l0.502-0.026l0.206-0.241c0.02,0.002,0.041,0.004,0.063,0.007l0.464,0.056l0.312-0.283
				c0.033,0.006,0.091,0.021,0.181,0.056l0.546,0.194l0.351-0.276c0.007,0.003,0.014,0.006,0.021,0.01
				c0.114,0.05,0.23,0.098,0.347,0.135l0.304,0.095l0.303-0.099c0.007-0.002,0.014-0.004,0.02-0.006
				c0.086,0.051,0.204,0.119,0.358,0.176l0.271,0.1l0.283-0.06c0.017-0.004,0.031-0.006,0.043-0.008
				c0.032,0.031,0.072,0.073,0.105,0.107l0.104,0.107l0.302,0.306l0.431-0.009l0.045-0.001c0.642,0.519,0.936,1.453,0.992,1.65
				l0.961,3.364l0.962-3.363c0.057-0.198,0.351-1.132,0.994-1.65l0.045,0l0.431,0.009l0.303-0.307l0.104-0.107
				c0.032-0.034,0.072-0.076,0.104-0.107c0.012,0.002,0.026,0.004,0.043,0.008l0.283,0.06l0.271-0.1
				c0.154-0.057,0.272-0.125,0.358-0.176c0.006,0.002,0.013,0.004,0.02,0.006l0.306,0.1l0.306-0.097
				c0.116-0.037,0.229-0.084,0.341-0.134C162.939,33.312,162.946,33.31,162.953,33.306 M163.008,32.265
				c-0.258,0-0.48,0.156-0.719,0.232c-0.153-0.05-0.276-0.07-0.379-0.07c-0.303,0-0.436,0.171-0.656,0.252
				c-0.113-0.024-0.212-0.035-0.3-0.035c-0.428,0-0.609,0.252-0.87,0.517l-0.365-0.008c-0.99,0.583-1.482,1.771-1.657,2.382
				c-0.174-0.61-0.665-1.799-1.654-2.382l-0.366,0.008c-0.261-0.264-0.443-0.517-0.87-0.517c-0.088,0-0.188,0.011-0.3,0.035
				c-0.221-0.082-0.354-0.252-0.656-0.252c-0.103,0-0.226,0.02-0.379,0.07c-0.241-0.075-0.463-0.231-0.721-0.231
				c-0.007,0-0.014,0-0.021,0c-0.14,0.004-0.29,0.056-0.461,0.19c-0.197-0.076-0.392-0.129-0.58-0.129
				c-0.212,0-0.416,0.066-0.607,0.241c-0.1-0.013-0.187-0.019-0.265-0.019c-0.359,0-0.502,0.127-0.616,0.271
				c-0.039-0.001-0.146-0.014-0.285-0.014c-0.3,0-0.751,0.06-1.001,0.433c-0.069-0.008-0.134-0.012-0.196-0.012
				c-0.763,0-0.989,0.598-0.685,1.158c-0.188,0.291-0.382,0.578,0.056,1.132c-0.155,0.309-0.059,0.643,0.307,1.049
				c-0.097,0.434,0.093,0.739,0.434,0.978c-0.064,0.594,0.544,0.939,0.726,1.061c0.07,0.346,0.215,0.672,0.909,0.853
				c0.114,0.515,0.532,0.605,0.936,0.713c-1.336,0.776-2.481,1.798-2.473,4.305l-0.196,0.348c-1.532,0.933-2.91,3.927-0.755,6.36
				c0.141,0.762,0.376,1.309,0.587,1.915c0.314,2.44,2.366,3.582,2.907,3.716c0.794,0.605,1.638,1.179,2.78,1.58
				c1.076,1.109,2.242,1.534,3.414,1.534c0.001,0,0.002,0,0.004,0c0.017,0,0.035,0,0.052,0c1.173,0,2.341-0.423,3.418-1.534
				c1.143-0.4,1.988-0.975,2.781-1.58c0.542-0.134,2.593-1.277,2.908-3.716c0.21-0.606,0.446-1.153,0.587-1.915
				c2.155-2.433,0.776-5.428-0.754-6.36l-0.196-0.348c0.008-2.507-1.138-3.528-2.473-4.305c0.404-0.108,0.821-0.198,0.936-0.713
				c0.693-0.181,0.84-0.507,0.909-0.853c0.182-0.122,0.79-0.467,0.727-1.061c0.341-0.239,0.53-0.544,0.433-0.978
				c0.367-0.405,0.462-0.74,0.307-1.049c0.44-0.554,0.246-0.841,0.057-1.132c0.305-0.56,0.08-1.158-0.684-1.158
				c-0.062,0-0.127,0.004-0.196,0.012c-0.25-0.373-0.702-0.433-1.002-0.433c-0.139,0-0.246,0.013-0.285,0.014
				c-0.114-0.144-0.257-0.271-0.615-0.271c-0.078,0-0.166,0.006-0.265,0.019c-0.191-0.174-0.396-0.24-0.607-0.24
				c-0.188,0-0.383,0.052-0.581,0.128C163.31,32.314,163.153,32.265,163.008,32.265L163.008,32.265z"/>
		</g>
		<g id="path3025">
			<path fill="#FFFFFF" d="M152.741,33.772c0.086,0.046,0.164,0.096,0.245,0.147l0.331,0.21l0.283-0.271
				c0.009-0.009,0.019-0.019,0.028-0.028c0.055,0.045,0.109,0.092,0.165,0.141l0.041,0.036l0.43,0.326l0.263-0.352
				c0.042,0.047,0.082,0.096,0.119,0.146l0.277,0.378l0.396-0.251c0.02-0.012,0.038-0.025,0.056-0.038
				c0.03,0.035,0.061,0.07,0.092,0.105c0.08,0.092,0.16,0.185,0.244,0.276l0.302,0.329l0.301-0.22
				c0.4,0.546,0.748,1.271,0.654,1.832c-0.04,0.239-0.158,0.429-0.367,0.583c-1.449-1.137-3.193-2.042-5.316-2.764l-0.39,0.918
				c2.223,1.146,3.749,2.151,4.649,3.063c-0.344,0.768-1.275,1.021-1.988,1.099l-0.275-0.197c-0.197-0.141-0.44-0.161-0.721-0.18
				l0.139-0.218l-0.62-0.196l-0.205-0.063l0.237-0.166l-0.717-0.385c-0.096-0.052-0.193-0.101-0.291-0.151
				c-0.053-0.026-0.104-0.053-0.156-0.079l0.256-0.299l-0.496-0.307c-0.088-0.055-0.173-0.111-0.255-0.17l0.275-0.197l-0.407-0.417
				c-0.081-0.083-0.167-0.163-0.254-0.242l0.255-0.194l-0.16-0.361c-0.071-0.159-0.187-0.274-0.301-0.372l0.165-0.172l-0.065-0.266
				c-0.034-0.138-0.074-0.262-0.119-0.374c0.608-0.011,0.735-0.055,0.86-0.312l0.028-0.06c0.166,0.035,0.323,0.085,0.452,0.125
				l0.252,0.08l0.208-0.164c0.077-0.061,0.138-0.131,0.181-0.21c0.101,0.03,0.199,0.064,0.295,0.101l0.286,0.11l0.228-0.205
				C152.673,33.859,152.71,33.817,152.741,33.772 M153.128,32.967c0.137,0.17,0.329,0.335,0.126,0.531
				c-0.281-0.178-0.564-0.355-1.23-0.482c0.15,0.169,0.461,0.341,0.272,0.51c-0.352-0.135-0.742-0.236-1.174-0.292
				c0.207,0.172,0.379,0.341,0.209,0.475c-0.273-0.086-0.623-0.193-0.988-0.193c-0.138,0-0.277,0.015-0.416,0.052l0.322,0.329
				c0.035,0.044-0.753,0.034-1.273,0.041c0.19,0.268,0.384,0.526,0.496,0.986c-0.021,0.022-0.077,0.03-0.153,0.03
				c-0.108,0-0.256-0.016-0.399-0.03c0.249,0.532,0.681,0.667,0.782,0.895c-0.072,0.055-0.157,0.077-0.251,0.077
				c-0.105,0-0.221-0.028-0.343-0.07c0.179,0.375,0.555,0.632,0.852,0.937c-0.053,0.038-0.133,0.065-0.284,0.065
				c-0.064,0-0.141-0.005-0.233-0.016c0.275,0.296,0.606,0.567,0.999,0.811c-0.069,0.081-0.309,0.079-0.531,0.083
				c0.356,0.354,0.815,0.538,1.244,0.769c-0.142,0.1-0.257,0.117-0.367,0.117c-0.055,0-0.109-0.004-0.164-0.005
				c0.304,0.254,0.821,0.386,1.3,0.538c-0.092,0.145-0.182,0.183-0.377,0.224c0.507,0.285,1.235,0.154,1.439,0.301
				c-0.049,0.143-0.188,0.236-0.356,0.313c0.093,0.005,0.204,0.009,0.329,0.009c0.973,0,2.772-0.234,3.152-1.755
				c-0.837-0.934-2.364-2.029-4.99-3.383c2.044,0.694,3.887,1.62,5.431,2.894c1.814-0.858,0.563-3.02-0.322-3.879
				c-0.045,0.226-0.096,0.37-0.154,0.412c-0.288-0.313-0.524-0.635-0.895-0.937c-0.001,0.176,0.088,0.369-0.133,0.51
				c-0.199-0.272-0.467-0.514-0.824-0.719c0.172,0.301,0.03,0.392-0.063,0.517C153.89,33.393,153.631,33.153,153.128,32.967
				L153.128,32.967z"/>
		</g>
		<g id="path3027">
			<path fill="#FFFFFF" d="M162.535,34.507l0.177,0.17c-0.283,0.128-0.559,0.26-0.828,0.397L162.535,34.507 M165.235,34.635
				c0.121,0.12,0.269,0.191,0.456,0.233l-0.086,0.352l0.038,0.04c-0.028,0.046-0.055,0.097-0.079,0.15l-0.092,0.206l-0.396-0.93
				l0.075-0.023C165.177,34.653,165.206,34.644,165.235,34.635 M161.654,34.814l0.205,0.273c-0.779,0.399-1.496,0.837-2.157,1.317
				c-0.021-0.265,0.103-0.625,0.297-0.977l0.23,0.171l0.61-0.663c0.02-0.022,0.04-0.044,0.06-0.066l0.486,0.311L161.654,34.814
				 M165.396,35.783l-0.157,0.351l0.111,0.084l-0.663,0.679l0.147,0.104l-0.621,0.384l0.227,0.264l-1.328,0.711l0.073,0.051
				l-0.47,0.149l0.098,0.155c-0.068,0.031-0.136,0.07-0.203,0.117l-0.119,0.085c-0.435-0.065-0.911-0.206-1.205-0.506
				C162.16,37.63,163.538,36.747,165.396,35.783 M163.053,32.967c-0.502,0.187-0.761,0.426-1.034,0.664
				c-0.093-0.125-0.236-0.216-0.063-0.517c-0.357,0.206-0.626,0.447-0.824,0.719c-0.221-0.141-0.131-0.333-0.133-0.51
				c-0.371,0.302-0.607,0.623-0.895,0.937c-0.057-0.042-0.109-0.186-0.153-0.412c-0.885,0.859-2.135,3.021-0.322,3.879
				c1.543-1.274,3.387-2.201,5.43-2.894c-2.625,1.353-4.152,2.449-4.99,3.383c0.381,1.52,2.179,1.755,3.152,1.755
				c0.125,0,0.235-0.004,0.328-0.009c-0.167-0.077-0.307-0.17-0.356-0.313c0.206-0.146,0.933-0.016,1.44-0.301
				c-0.194-0.041-0.286-0.08-0.377-0.224c0.48-0.152,0.996-0.284,1.3-0.538c-0.055,0.001-0.108,0.005-0.164,0.005
				c-0.109,0-0.225-0.018-0.368-0.117c0.43-0.23,0.888-0.415,1.245-0.769c-0.222-0.005-0.461-0.002-0.531-0.083
				c0.394-0.244,0.725-0.514,1-0.811c-0.093,0.011-0.17,0.016-0.234,0.016c-0.15,0-0.23-0.027-0.283-0.065
				c0.297-0.304,0.673-0.562,0.852-0.937c-0.122,0.042-0.238,0.07-0.343,0.07c-0.094,0-0.179-0.022-0.251-0.077
				c0.102-0.228,0.534-0.362,0.783-0.895c-0.143,0.014-0.291,0.03-0.399,0.03c-0.076,0-0.131-0.008-0.153-0.03
				c0.113-0.459,0.308-0.718,0.496-0.986c-0.519-0.007-1.308,0.003-1.272-0.041l0.322-0.329c-0.139-0.037-0.279-0.052-0.416-0.052
				c-0.365,0-0.714,0.107-0.988,0.193c-0.17-0.134,0.002-0.303,0.21-0.475c-0.432,0.056-0.823,0.157-1.175,0.292
				c-0.188-0.169,0.123-0.34,0.272-0.51c-0.667,0.126-0.949,0.304-1.23,0.482C162.723,33.302,162.915,33.137,163.053,32.967
				L163.053,32.967z"/>
		</g>
		<g id="path3029">
			<path fill="#FFFFFF" d="M158.126,49.408v1c1.18,0,2.142,0.851,2.144,1.904c-0.002,1.046-0.965,1.897-2.15,1.897
				c-1.179-0.002-2.14-0.853-2.142-1.897c-0.001-0.464,0.19-0.912,0.538-1.261c0.407-0.408,0.991-0.643,1.606-0.644L158.126,49.408
				 M158.126,49.408c-0.002,0-0.005,0-0.008,0c-1.737,0.002-3.143,1.303-3.14,2.906c0.002,1.597,1.407,2.892,3.14,2.895
				c0.001,0,0.003,0,0.005,0c1.735,0,3.144-1.296,3.147-2.895c0-0.004,0-0.008,0-0.011C161.267,50.704,159.86,49.408,158.126,49.408
				L158.126,49.408z"/>
		</g>
		<g id="path3031">
			<path fill="#FFFFFF" d="M154.933,44.629L154.933,44.629c0.307,0,0.585,0.08,0.825,0.237c0.429,0.279,0.596,0.708,0.661,1.019
				c0.129,0.618-0.022,1.314-0.416,1.913c-0.483,0.734-1.244,1.19-1.988,1.19c-0.298,0-0.568-0.075-0.803-0.222l-0.01-0.007
				l-0.021-0.012c-0.426-0.282-0.592-0.712-0.655-1.024c-0.126-0.62,0.028-1.317,0.424-1.914
				C153.434,45.081,154.194,44.63,154.933,44.629 M154.933,43.629c-1.035,0-2.124,0.586-2.814,1.625
				c-1.016,1.531-0.786,3.469,0.515,4.327c0.004,0.003,0.008,0.005,0.012,0.008c0.415,0.27,0.887,0.398,1.371,0.398
				c1.04,0,2.134-0.592,2.824-1.641c1.01-1.536,0.77-3.47-0.536-4.319C155.889,43.758,155.417,43.629,154.933,43.629L154.933,43.629
				z"/>
		</g>
		<g id="path3033">
			<path fill="#FFFFFF" d="M161.2,44.471c0.741,0,1.501,0.454,1.983,1.183c0.395,0.599,0.548,1.297,0.42,1.915
				c-0.064,0.311-0.23,0.741-0.66,1.021c-0.241,0.158-0.52,0.238-0.828,0.238c-0.74,0-1.501-0.454-1.984-1.183
				c-0.395-0.598-0.548-1.296-0.42-1.915c0.064-0.311,0.23-0.741,0.659-1.021C160.612,44.551,160.891,44.471,161.2,44.471
				 M161.2,43.471c-0.487,0-0.962,0.129-1.378,0.402c-1.304,0.853-1.538,2.79-0.525,4.323c0.691,1.044,1.781,1.632,2.818,1.632
				c0.486,0,0.961-0.129,1.377-0.402c1.304-0.853,1.538-2.789,0.525-4.324C163.329,44.059,162.237,43.471,161.2,43.471L161.2,43.471
				z"/>
		</g>
		<g id="path3035">
			<path fill="#FFFFFF" d="M149.908,45.407c0.42,0,0.591,0.674,0.591,1.543C150.5,46.081,150.328,45.407,149.908,45.407
				L149.908,45.407z M150.5,46.95c0,1.583-0.569,3.816-1.246,3.816C149.93,50.767,150.499,48.533,150.5,46.95L150.5,46.95z"/>
		</g>
		<g id="path3037">
			<path fill="#FFFFFF" d="M165.934,45.33c-0.419,0-0.591,0.673-0.59,1.543C165.343,46.003,165.514,45.33,165.934,45.33
				L165.934,45.33z M165.343,46.873c0,1.583,0.569,3.816,1.245,3.816C165.913,50.689,165.343,48.456,165.343,46.873L165.343,46.873z
				"/>
		</g>
		<g id="path3039">
			<path fill="#FFFFFF" d="M163.461,41.996c0.191,0.106,0.363,0.236,0.511,0.39c0.054,0.055,0.104,0.113,0.151,0.173
				C163.903,42.379,163.677,42.187,163.461,41.996 M162.076,40.661c-0.261,0-0.53,0.022-0.805,0.069
				c-0.806,0.134,3.311,3.812,4.201,3.812c0.099,0,0.159-0.045,0.167-0.146C165.711,42.06,164.13,40.661,162.076,40.661
				L162.076,40.661z"/>
		</g>
		<g id="path3041">
			<path fill="#FFFFFF" d="M152.374,41.916c-0.218,0.193-0.444,0.386-0.667,0.567c0.047-0.061,0.099-0.12,0.153-0.176
				C152.009,42.154,152.181,42.023,152.374,41.916 M153.756,40.583c-2.054,0-3.635,1.398-3.563,3.735
				c0.008,0.101,0.067,0.147,0.167,0.147c0.891,0,5.006-3.678,4.201-3.813C154.287,40.606,154.018,40.583,153.756,40.583
				L153.756,40.583z"/>
		</g>
		<g id="path3043">
			<path fill="#FFFFFF" d="M157.978,41.037l0.046,0l0.039,0h0.013c0.793,0,1.674,0.558,1.832,0.863
				c-0.127,0.152-0.686,0.468-1.836,0.468c-1.044-0.013-1.666-0.378-1.828-0.554C156.465,41.544,157.168,41.037,157.978,41.037
				 M157.978,40.037c-1.423,0-2.769,1.088-2.772,1.722c-0.004,0.786,1.146,1.589,2.853,1.61c0.017,0,0.033,0,0.05,0
				c1.716,0,2.807-0.651,2.813-1.454c0.006-0.91-1.565-1.877-2.846-1.877c-0.009,0-0.017,0-0.026,0
				C158.026,40.037,158.002,40.037,157.978,40.037L157.978,40.037z"/>
		</g>
		<g id="path3045">
			<path fill="#FFFFFF" d="M158.351,57.127c0.564,0,1.09,0.105,1.448,0.22c-0.394,0.331-1.068,0.72-1.729,0.719l-0.03,0l-0.03,0.001
				l-0.07,0.001c-0.618,0-1.242-0.334-1.633-0.632c0.432-0.156,1.094-0.307,1.722-0.307l0.083,0.001l0.035,0.001l0.035-0.001
				C158.238,57.128,158.294,57.127,158.351,57.127 M158.351,56.127c-0.072,0-0.143,0.001-0.213,0.004
				c-0.036-0.001-0.072-0.001-0.108-0.001c-1.256,0-3.074,0.524-3.051,1.188c-0.02,0.456,1.439,1.75,2.962,1.75
				c0.038,0,0.075-0.001,0.113-0.002c0.014,0,0.028,0,0.042,0c1.496,0,3.026-1.326,3.005-1.915
				C161.097,56.571,159.584,56.127,158.351,56.127L158.351,56.127z"/>
		</g>
		<g id="path3047">
			<path fill="#FFFFFF" d="M150.889,51.936L150.889,51.936c0.375,0,1.106,0.38,1.812,1.198c0.596,0.718,0.781,1.743,0.705,2.091
				c-0.051,0.01-0.119,0.018-0.204,0.018c-0.536,0-1.335-0.326-1.986-1.237c-0.538-0.988-0.489-1.844-0.399-2.064
				C150.836,51.939,150.859,51.936,150.889,51.936 M150.889,50.936c-0.239,0-0.462,0.056-0.661,0.177
				c-0.581,0.441-0.688,1.945,0.139,3.424c0.875,1.256,2.002,1.706,2.835,1.706c0.336,0,0.624-0.073,0.828-0.196
				c0.751-0.563,0.34-2.467-0.559-3.551C152.674,51.573,151.694,50.936,150.889,50.936L150.889,50.936z"/>
		</g>
		<g id="path3049">
			<path fill="#FFFFFF" d="M165.093,51.493c0.21,0.414,0.386,1.747-0.235,2.544c-0.859,1.19-1.789,1.283-2.053,1.283
				c-0.131,0-0.229-0.019-0.293-0.038c-0.105-0.412,0.188-1.677,0.863-2.467C164.28,51.795,164.873,51.506,165.093,51.493
				 M165.108,50.493c-0.743,0-1.634,0.704-2.482,1.661c-0.973,1.14-1.515,3.22-0.805,3.889c0.223,0.171,0.57,0.278,0.984,0.278
				c0.843,0,1.961-0.445,2.865-1.698c0.978-1.255,0.65-3.351,0.091-3.906C165.561,50.563,165.341,50.493,165.108,50.493
				L165.108,50.493z"/>
		</g>
		<g>
			<path id="path3889" fill="none" stroke="#FFFFFF" stroke-width="0.0485" d="M168.797,40.245c0,0.617-0.501,1.117-1.117,1.117
				c-0.617,0-1.117-0.5-1.117-1.117c0-0.617,0.5-1.117,1.117-1.117C168.296,39.129,168.797,39.629,168.797,40.245z"/>
			<path id="path3024" fill="#FFFFFF" d="M167.118,40.673v-0.689h-0.246v-0.141h0.659v0.141h-0.246v0.689H167.118z"/>
			<path id="path3026" fill="#FFFFFF" d="M167.638,40.673v-0.83h0.251l0.15,0.566l0.149-0.566h0.251v0.83h-0.156v-0.653
				l-0.165,0.653h-0.161l-0.165-0.653v0.653H167.638z"/>
		</g>
	</g>
	<g>
		<path d="M11.088,2.541C10.95,2.545,10.8,2.596,10.631,2.729c-0.414-0.16-0.815-0.215-1.174,0.11
			c-0.554-0.072-0.734,0.076-0.871,0.25c-0.122-0.002-0.91-0.125-1.272,0.414C6.405,3.396,6.118,4.038,6.444,4.637
			C6.258,4.925,6.066,5.208,6.5,5.756C6.347,6.062,6.442,6.393,6.804,6.793C6.708,7.222,6.896,7.525,7.232,7.761
			C7.169,8.348,7.771,8.689,7.95,8.811C8.019,9.153,8.163,9.476,8.85,9.654c0.113,0.51,0.526,0.598,0.926,0.705
			c-1.321,0.768-2.454,1.778-2.446,4.257l-0.194,0.346c-1.515,0.921-2.877,3.882-0.746,6.289c0.139,0.753,0.373,1.294,0.58,1.894
			c0.311,2.413,2.34,3.542,2.875,3.676c0.784,0.598,1.62,1.164,2.75,1.562c1.065,1.099,2.22,1.518,3.38,1.517
			c0.017,0,0.034,0,0.051,0c1.161,0,2.314-0.418,3.38-1.517c1.13-0.397,1.965-0.964,2.75-1.562c0.535-0.133,2.564-1.264,2.875-3.676
			c0.208-0.599,0.441-1.14,0.581-1.894c2.131-2.407,0.768-5.367-0.747-6.289l-0.193-0.346c0.007-2.479-1.125-3.489-2.446-4.257
			c0.399-0.107,0.812-0.195,0.925-0.705c0.687-0.178,0.831-0.501,0.9-0.843c0.18-0.121,0.78-0.463,0.717-1.05
			c0.337-0.236,0.524-0.539,0.429-0.967c0.362-0.401,0.457-0.732,0.303-1.037c0.434-0.548,0.242-0.832,0.056-1.119
			c0.326-0.599,0.039-1.241-0.871-1.134c-0.362-0.539-1.15-0.417-1.272-0.414c-0.136-0.173-0.316-0.322-0.87-0.25
			c-0.359-0.325-0.761-0.27-1.174-0.11c-0.492-0.388-0.817-0.077-1.189,0.041c-0.595-0.194-0.731,0.072-1.023,0.181
			c-0.648-0.138-0.846,0.161-1.157,0.477L17.637,3.42C16.658,3.997,16.171,5.171,16,5.775c-0.173-0.604-0.658-1.779-1.637-2.355
			l-0.361,0.007c-0.312-0.315-0.509-0.614-1.158-0.477c-0.292-0.108-0.428-0.375-1.024-0.181
			C11.576,2.693,11.352,2.533,11.088,2.541z"/>
		<path fill="#75A928" d="M9.139,5.079c2.597,1.339,4.107,2.422,4.934,3.345c-0.424,1.698-2.634,1.775-3.441,1.728
			c0.166-0.077,0.303-0.169,0.353-0.311c-0.203-0.144-0.922-0.015-1.424-0.297c0.193-0.041,0.283-0.079,0.374-0.221
			C9.459,9.171,8.949,9.041,8.648,8.79c0.162,0.002,0.313,0.036,0.525-0.11c-0.425-0.229-0.878-0.411-1.23-0.76
			C8.163,7.914,8.4,7.917,8.469,7.836C8.08,7.596,7.752,7.328,7.48,7.035C7.788,7.072,7.918,7.04,7.992,6.986
			C7.698,6.686,7.326,6.431,7.149,6.061c0.228,0.079,0.437,0.109,0.587-0.007c-0.1-0.226-0.528-0.358-0.774-0.885
			c0.24,0.023,0.495,0.052,0.546,0c-0.112-0.455-0.303-0.71-0.491-0.974c0.514-0.008,1.293,0.001,1.258-0.042L7.958,3.829
			C8.459,3.693,8.974,3.85,9.347,3.967c0.167-0.132-0.003-0.299-0.208-0.47C9.566,3.554,9.952,3.652,10.3,3.787
			c0.186-0.168-0.122-0.336-0.27-0.504c0.659,0.125,0.938,0.301,1.216,0.477c0.202-0.193,0.012-0.357-0.125-0.525
			c0.497,0.184,0.753,0.422,1.023,0.657c0.091-0.124,0.232-0.214,0.062-0.512c0.353,0.204,0.619,0.443,0.815,0.712
			c0.219-0.139,0.13-0.329,0.132-0.504c0.367,0.298,0.599,0.616,0.884,0.926c0.057-0.042,0.108-0.184,0.152-0.408
			c0.875,0.849,2.112,2.987,0.318,3.835C12.983,6.681,11.16,5.766,9.139,5.079z"/>
		<path fill="#75A928" d="M22.92,5.079c-2.598,1.339-4.107,2.422-4.934,3.345c0.424,1.698,2.633,1.775,3.441,1.728
			c-0.166-0.077-0.303-0.169-0.353-0.311c0.204-0.144,0.922-0.015,1.424-0.297c-0.193-0.041-0.283-0.079-0.374-0.221
			c0.474-0.151,0.985-0.282,1.285-0.532c-0.162,0.002-0.313,0.036-0.525-0.11c0.425-0.229,0.878-0.411,1.23-0.76
			c-0.22-0.005-0.457-0.002-0.525-0.083c0.389-0.241,0.716-0.509,0.988-0.802c-0.308,0.037-0.438,0.005-0.512-0.048
			c0.294-0.301,0.666-0.555,0.843-0.926c-0.229,0.079-0.437,0.109-0.587-0.007c0.1-0.226,0.528-0.358,0.774-0.885
			c-0.24,0.023-0.495,0.052-0.546,0c0.112-0.455,0.303-0.71,0.491-0.974c-0.514-0.008-1.293,0.001-1.258-0.042l0.318-0.325
			C23.6,3.693,23.086,3.85,22.713,3.967c-0.167-0.132,0.003-0.299,0.207-0.47c-0.427,0.057-0.812,0.155-1.161,0.291
			c-0.187-0.168,0.121-0.336,0.27-0.504c-0.66,0.125-0.938,0.301-1.216,0.477c-0.202-0.193-0.012-0.357,0.125-0.525
			c-0.498,0.184-0.754,0.422-1.023,0.657c-0.092-0.124-0.232-0.214-0.063-0.512c-0.353,0.204-0.619,0.443-0.815,0.712
			c-0.219-0.139-0.13-0.329-0.132-0.504c-0.367,0.298-0.599,0.616-0.884,0.926c-0.058-0.042-0.108-0.184-0.152-0.408
			c-0.875,0.849-2.111,2.987-0.318,3.835C19.076,6.681,20.899,5.766,22.92,5.079L22.92,5.079z"/>
		<path fill="#BC1142" d="M19.175,22.368c0,1.584-1.393,2.869-3.111,2.869c-1.718,0-3.111-1.285-3.111-2.869
			s1.393-2.869,3.111-2.869C17.782,19.499,19.175,20.783,19.175,22.368z"/>
		<path fill="#BC1142" d="M14.263,14.172c1.289,0.845,1.521,2.759,0.52,4.276c-1.003,1.517-2.86,2.062-4.149,1.217l0,0
			c-1.289-0.844-1.521-2.759-0.519-4.276S12.974,13.328,14.263,14.172L14.263,14.172z"/>
		<path fill="#BC1142" d="M17.743,14.02c-1.289,0.844-1.521,2.759-0.519,4.276c1.002,1.517,2.86,2.062,4.149,1.217l0,0
			c1.289-0.844,1.521-2.759,0.52-4.275C20.889,13.72,19.032,13.175,17.743,14.02L17.743,14.02z"/>
		<path fill="#BC1142" d="M7.821,15.553c1.392-0.373,0.47,5.758-0.662,5.255C5.913,19.806,5.512,16.872,7.821,15.553z"/>
		<path fill="#BC1142" d="M23.904,15.477c-1.393-0.373-0.47,5.758,0.662,5.255C25.812,19.73,26.213,16.796,23.904,15.477z"/>
		<path fill="#BC1142" d="M19.176,10.912c2.401-0.405,4.4,1.021,4.319,3.626C23.416,15.536,18.291,11.06,19.176,10.912z"/>
		<path fill="#BC1142" d="M12.54,10.835c-2.402-0.406-4.4,1.021-4.319,3.626C8.299,15.459,13.425,10.984,12.54,10.835z"/>
		<path fill="#BC1142" d="M15.99,10.228c-1.434-0.037-2.809,1.064-2.813,1.703c-0.004,0.776,1.134,1.571,2.822,1.591
			c1.725,0.012,2.826-0.636,2.831-1.437C18.836,11.177,17.262,10.213,15.99,10.228z"/>
		<path fill="#BC1142" d="M16.077,26.143c1.25-0.055,2.927,0.402,2.93,1.009c0.021,0.588-1.521,1.919-3.013,1.894
			c-1.545,0.067-3.061-1.266-3.041-1.728C12.931,26.64,14.835,26.111,16.077,26.143z"/>
		<path fill="#BC1142" d="M11.461,22.549c0.89,1.072,1.295,2.955,0.553,3.511c-0.702,0.424-2.409,0.249-3.621-1.493
			c-0.818-1.462-0.712-2.949-0.138-3.386C9.113,20.657,10.44,21.364,11.461,22.549z"/>
		<path fill="#BC1142" d="M20.515,22.209c-0.962,1.127-1.499,3.185-0.796,3.847c0.672,0.515,2.475,0.443,3.806-1.405
			c0.967-1.241,0.643-3.313,0.091-3.863C22.795,20.153,21.617,20.965,20.515,22.209z"/>
	</g>
</g>
</svg>
