<?xml version="1.0" encoding="utf-8"?>
<!-- Generator: Adobe Illustrator 14.0.0, SVG Export Plug-In . SVG Version: 6.00 Build 43363)  -->
<!DOCTYPE svg PUBLIC "-//W3C//DTD SVG 1.1 Basic//EN" "http://www.w3.org/Graphics/SVG/1.1/DTD/svg11-basic.dtd">
<svg version="1.1" baseProfile="basic" id="svg" xmlns="http://www.w3.org/2000/svg" xmlns:xlink="http://www.w3.org/1999/xlink"
	 x="0px" y="0px" width="32px" height="32px" viewBox="0 0 32 32" xml:space="preserve">
<path fill="#0F7391" d="M21.049,0L32,9.38V32H0V9.38L11.014,0H21.049z"/>
<g>
	<path fill="none" stroke="#FFFFFF" stroke-width="0.5537" d="M1.105,18.712h29.789 M1.105,28.981h29.789"/>
	<polygon fill="#FFFFFF" points="8.313,26.648 8.167,26.36 6.859,23.015 9.185,20.764 9.621,20.328 10.203,19.965 8.605,19.965 
		8.531,20.183 8.46,20.328 8.313,20.472 8.095,20.617 6.569,22.216 5.915,20.617 5.841,20.472 5.841,20.183 5.915,19.965 
		3.08,19.965 3.299,20.328 3.444,20.472 4.825,23.816 2.135,26.36 1.845,26.648 1.628,26.795 1.119,27.156 2.716,27.156 
		2.864,26.869 2.936,26.795 3.08,26.648 5.116,24.615 5.623,25.923 5.841,26.506 5.841,26.94 5.769,27.156 8.605,27.156 
		8.46,26.795 	"/>
	<path fill="#FFFFFF" d="M30.551,22.36l-0.073-0.145l-0.073-0.145L30.26,22l-0.146-0.074l-0.219-0.072h-0.216h-3.562
		c-1.07,0.071-1.306,0.516-1.671,1.453l-0.584,2.471c-0.114,0.852-0.031,1.313,0.944,1.379h4.725l0.29-0.942l-0.29,0.073
		l-0.289,0.073H25.97l-0.146-0.073h-0.073v-0.073l-0.072-0.073l0.072-0.219l0.219-0.946h4.215l0.364-1.67l0.072-0.291v-0.509
		L30.551,22.36z M28.731,23.089l-0.289,1.09h-2.253l0.218-1.09l0.074-0.22l0.073-0.071l0.144-0.073h0.146h1.672h0.146l0.072,0.073
		v0.291H28.731z"/>
	<path fill="#FFFFFF" d="M23.575,22.216l-0.073-0.145L23.358,22l-0.149-0.074l-0.22-0.072h-0.215h-3.562
		c-1.07,0.071-1.306,0.516-1.671,1.453l-0.583,2.471c-0.115,0.852-0.033,1.313,0.944,1.379h4.724l0.291-0.942l-0.291,0.073
		l-0.288,0.073h-3.271l-0.146-0.073h-0.073v-0.073l-0.072-0.073l0.072-0.219l0.22-0.946h4.215l0.364-1.67l0.073-0.291v-0.509
		l-0.073-0.146L23.575,22.216z M21.83,23.089l-0.291,1.09h-2.251l0.218-1.09l0.073-0.22l0.073-0.071l0.146-0.073h0.146h1.67h0.146
		l0.073,0.073v0.291H21.83z"/>
	<path fill="#FFFFFF" d="M16.743,20.11l-0.146-0.073l-0.218-0.072h-0.291h-5.522v0.507l-0.073,0.509l-1.307,5.233l-0.145,0.435
		L8.968,26.94l-0.146,0.216h5.525h0.363l0.217-0.07c0.467-0.224,0.945-0.403,1.017-1.019l0.146-0.29l0.29-1.163v-0.656l-0.146-0.143
		l-0.145-0.072l-0.146-0.074l-0.218-0.073h-0.653c0.657-0.208,0.909,0.166,1.454-0.437l0.146-0.146l0.146-0.29
		C16.888,22.3,17.628,20.283,16.743,20.11z M14.419,24.469l-0.292,1.309l-0.146,0.22l-0.072,0.145l-0.146,0.072h-0.145h-2.399
		l0.583-2.255h2.399l0.071,0.074h0.074l0.073,0.074l0.073,0.146L14.419,24.469z M15.145,21.42l-0.292,1.158l-0.072,0.22
		l-0.071,0.144l-0.147,0.073l-0.217,0.074H12.02l0.508-2.181h2.398h0.071l0.074,0.072l0.073,0.071V21.42L15.145,21.42z"/>
</g>
<rect x="11.135" y="0.651" fill="none" stroke="#FFFFFF" stroke-width="0.2307" width="9.782" height="9.78"/>
<circle fill="#02809E" cx="28.444" cy="12.603" r="0.969"/>
<circle fill="#02809E" cx="22.531" cy="9.281" r="0.969"/>
<circle fill="#02809E" cx="22.835" cy="7.263" r="0.664"/>
<circle fill="#02809E" cx="23.856" cy="13.494" r="1.86"/>
</svg>
