<?xml version="1.0" encoding="utf-8"?>
<!-- Generator: Adobe Illustrator 15.1.0, SVG Export Plug-In . SVG Version: 6.00 Build 0)  -->
<!DOCTYPE svg PUBLIC "-//W3C//DTD SVG 1.1//EN" "http://www.w3.org/Graphics/SVG/1.1/DTD/svg11.dtd">
<svg version="1.1" id="Ebene_1" xmlns:svg="http://www.w3.org/2000/svg"
	 xmlns="http://www.w3.org/2000/svg" xmlns:xlink="http://www.w3.org/1999/xlink" x="0px" y="0px" width="93.014px"
	 height="109.17px" viewBox="0 0 93.014 109.17" enable-background="new 0 0 93.014 109.17" xml:space="preserve">
<g>
	<g>
		<g>
			<rect x="0" y="57.807" fill="#CCCCCC" width="2.194" height="4.444"/>
		</g>
		<g>
			<rect x="0" y="52.846" fill="#CCCCCC" width="2.194" height="4.444"/>
		</g>
		<g>
			<rect x="0" y="47.885" fill="#CCCCCC" width="2.194" height="4.444"/>
		</g>
		<g>
			<rect x="0" y="42.925" fill="#CCCCCC" width="2.194" height="4.444"/>
		</g>
		<g>
			<rect x="0" y="37.965" fill="#CCCCCC" width="2.194" height="4.444"/>
		</g>
		<g>
			<rect x="0" y="33.004" fill="#CCCCCC" width="2.194" height="4.444"/>
		</g>
		<g>
			<rect x="0" y="28.044" fill="#CCCCCC" width="2.194" height="4.444"/>
		</g>
		<g>
			<rect x="0" y="23.083" fill="#CCCCCC" width="2.194" height="4.444"/>
		</g>
		<g>
			<rect x="0" y="18.123" fill="#CCCCCC" width="2.194" height="4.444"/>
		</g>
		<g>
			<rect x="0" y="13.162" fill="#CCCCCC" width="2.194" height="4.444"/>
		</g>
		<g>
			<rect x="0" y="8.202" fill="#CCCCCC" width="2.194" height="4.444"/>
		</g>
		<g>
			<rect x="0" y="3.241" fill="#CCCCCC" width="2.194" height="4.444"/>
		</g>
	</g>
	<g>
		<g>
			<rect x="90.819" y="57.807" fill="#CCCCCC" width="2.194" height="4.444"/>
		</g>
		<g>
			<rect x="90.819" y="52.846" fill="#CCCCCC" width="2.194" height="4.444"/>
		</g>
		<g>
			<rect x="90.819" y="47.885" fill="#CCCCCC" width="2.194" height="4.444"/>
		</g>
		<g>
			<rect x="90.819" y="42.925" fill="#CCCCCC" width="2.194" height="4.444"/>
		</g>
		<g>
			<rect x="90.819" y="37.965" fill="#CCCCCC" width="2.194" height="4.444"/>
		</g>
		<g>
			<rect x="90.819" y="33.004" fill="#CCCCCC" width="2.194" height="4.444"/>
		</g>
		<g>
			<rect x="90.819" y="28.044" fill="#CCCCCC" width="2.194" height="4.444"/>
		</g>
		<g>
			<rect x="90.819" y="23.083" fill="#CCCCCC" width="2.194" height="4.444"/>
		</g>
		<g>
			<rect x="90.819" y="18.123" fill="#CCCCCC" width="2.194" height="4.444"/>
		</g>
		<g>
			<rect x="90.819" y="13.162" fill="#CCCCCC" width="2.194" height="4.444"/>
		</g>
		<g>
			<rect x="90.819" y="8.202" fill="#CCCCCC" width="2.194" height="4.444"/>
		</g>
		<g>
			<rect x="90.819" y="3.241" fill="#CCCCCC" width="2.194" height="4.444"/>
		</g>
	</g>
	<g>
		<rect x="1.194" y="71.809" fill="#1A1A1A" width="90.721" height="14.596"/>
		<g>
			<g>
				<g>
					<path fill="#333333" d="M4.029,0C2.469,0,1.194,1.275,1.194,2.834v72.821c0,1.56,1.275,2.835,2.834,2.835h18.091
						c1.559,0,2.834-1.275,2.834-2.835v-20.13c0-1.56,1.275-2.835,2.834-2.835l37.546-0.001c1.56,0,2.835,1.275,2.835,2.835v20.131
						c0,1.56,1.275,2.835,2.835,2.835H89.08c1.56,0,2.835-1.275,2.835-2.835V2.834C91.915,1.275,90.639,0,89.08,0H4.029z"/>
				</g>
			</g>
		</g>
		<g>
			<g>
				<path fill="#E6E6E6" d="M10.679,6.907c0-0.78,0.638-1.417,1.417-1.417h68.916c0.779,0,1.417,0.638,1.417,1.417v30.92
					c0,0.78-0.638,1.417-1.417,1.417H12.097c-0.78,0-1.417-0.638-1.417-1.417V6.907z"/>
			</g>
			<g>
				<line fill="none" stroke="#000000" stroke-width="0.4" stroke-miterlimit="10" x1="76.32" y1="28.615" x2="76.32" y2="36.115"/>
				
					<line fill="none" stroke="#000000" stroke-width="0.5" stroke-miterlimit="10" x1="75.328" y1="28.615" x2="75.328" y2="36.115"/>
				
					<line fill="none" stroke="#000000" stroke-width="0.4" stroke-miterlimit="10" x1="74.336" y1="28.615" x2="74.336" y2="36.115"/>
				
					<line fill="none" stroke="#000000" stroke-width="0.5" stroke-miterlimit="10" x1="73.344" y1="28.615" x2="73.344" y2="36.115"/>
				
					<line fill="none" stroke="#000000" stroke-width="0.5" stroke-miterlimit="10" x1="72.351" y1="28.615" x2="72.351" y2="36.115"/>
				
					<line fill="none" stroke="#000000" stroke-width="0.75" stroke-miterlimit="10" x1="71.359" y1="28.615" x2="71.359" y2="36.115"/>
				
					<line fill="none" stroke="#000000" stroke-width="0.25" stroke-miterlimit="10" x1="70.367" y1="28.615" x2="70.367" y2="36.115"/>
				
					<line fill="none" stroke="#000000" stroke-width="0.5" stroke-miterlimit="10" x1="69.375" y1="28.615" x2="69.375" y2="36.115"/>
				
					<line fill="none" stroke="#000000" stroke-width="0.5" stroke-miterlimit="10" x1="68.383" y1="28.615" x2="68.383" y2="36.115"/>
				
					<line fill="none" stroke="#000000" stroke-width="0.25" stroke-miterlimit="10" x1="67.39" y1="28.615" x2="67.39" y2="36.115"/>
				
					<line fill="none" stroke="#000000" stroke-width="0.75" stroke-miterlimit="10" x1="66.398" y1="28.615" x2="66.398" y2="36.115"/>
				
					<line fill="none" stroke="#000000" stroke-width="0.4" stroke-miterlimit="10" x1="65.406" y1="28.615" x2="65.406" y2="36.115"/>
				
					<line fill="none" stroke="#000000" stroke-width="0.5" stroke-miterlimit="10" x1="64.414" y1="28.615" x2="64.414" y2="36.115"/>
				
					<line fill="none" stroke="#000000" stroke-width="0.25" stroke-miterlimit="10" x1="63.422" y1="28.615" x2="63.422" y2="36.115"/>
				
					<line fill="none" stroke="#000000" stroke-width="0.5" stroke-miterlimit="10" x1="62.429" y1="28.615" x2="62.429" y2="36.115"/>
				
					<line fill="none" stroke="#000000" stroke-width="0.5" stroke-miterlimit="10" x1="61.437" y1="28.615" x2="61.437" y2="36.115"/>
				
					<line fill="none" stroke="#000000" stroke-width="0.5" stroke-miterlimit="10" x1="60.445" y1="28.615" x2="60.445" y2="36.115"/>
				
					<line fill="none" stroke="#000000" stroke-width="0.5" stroke-miterlimit="10" x1="59.453" y1="28.615" x2="59.453" y2="36.115"/>
				
					<line fill="none" stroke="#000000" stroke-width="0.25" stroke-miterlimit="10" x1="58.461" y1="28.615" x2="58.461" y2="36.115"/>
				
					<line fill="none" stroke="#000000" stroke-width="0.5" stroke-miterlimit="10" x1="57.469" y1="28.615" x2="57.469" y2="36.115"/>
				
					<line fill="none" stroke="#000000" stroke-width="0.4" stroke-miterlimit="10" x1="56.476" y1="28.615" x2="56.476" y2="36.115"/>
				
					<line fill="none" stroke="#000000" stroke-width="0.5" stroke-miterlimit="10" x1="55.484" y1="28.615" x2="55.484" y2="36.115"/>
				
					<line fill="none" stroke="#000000" stroke-width="0.75" stroke-miterlimit="10" x1="54.492" y1="28.615" x2="54.492" y2="36.115"/>
				<line fill="none" stroke="#000000" stroke-width="0.5" stroke-miterlimit="10" x1="53.5" y1="28.615" x2="53.5" y2="36.115"/>
				
					<line fill="none" stroke="#000000" stroke-width="0.5" stroke-miterlimit="10" x1="52.508" y1="28.615" x2="52.508" y2="36.115"/>
				
					<line fill="none" stroke="#000000" stroke-width="0.75" stroke-miterlimit="10" x1="51.515" y1="28.615" x2="51.515" y2="36.115"/>
				
					<line fill="none" stroke="#000000" stroke-width="0.5" stroke-miterlimit="10" x1="50.523" y1="28.615" x2="50.523" y2="36.115"/>
				
					<line fill="none" stroke="#000000" stroke-width="0.25" stroke-miterlimit="10" x1="49.531" y1="28.615" x2="49.531" y2="36.115"/>
				
					<line fill="none" stroke="#000000" stroke-width="0.5" stroke-miterlimit="10" x1="48.539" y1="28.615" x2="48.539" y2="36.115"/>
				
					<line fill="none" stroke="#000000" stroke-width="0.5" stroke-miterlimit="10" x1="47.547" y1="28.615" x2="47.547" y2="36.115"/>
				
					<line fill="none" stroke="#000000" stroke-width="0.75" stroke-miterlimit="10" x1="46.554" y1="28.615" x2="46.554" y2="36.115"/>
				
					<line fill="none" stroke="#000000" stroke-width="0.5" stroke-miterlimit="10" x1="45.562" y1="28.615" x2="45.562" y2="36.115"/>
				
					<line fill="none" stroke="#000000" stroke-width="0.25" stroke-miterlimit="10" x1="44.57" y1="28.615" x2="44.57" y2="36.115"/>
				
					<line fill="none" stroke="#000000" stroke-width="0.5" stroke-miterlimit="10" x1="43.578" y1="28.615" x2="43.578" y2="36.115"/>
				
					<line fill="none" stroke="#000000" stroke-width="0.5" stroke-miterlimit="10" x1="42.586" y1="28.615" x2="42.586" y2="36.115"/>
				
					<line fill="none" stroke="#000000" stroke-width="0.5" stroke-miterlimit="10" x1="41.594" y1="28.615" x2="41.594" y2="36.115"/>
				
					<line fill="none" stroke="#000000" stroke-width="0.4" stroke-miterlimit="10" x1="40.601" y1="28.615" x2="40.601" y2="36.115"/>
				
					<line fill="none" stroke="#000000" stroke-width="0.75" stroke-miterlimit="10" x1="39.609" y1="28.615" x2="39.609" y2="36.115"/>
				
					<line fill="none" stroke="#000000" stroke-width="0.5" stroke-miterlimit="10" x1="38.617" y1="28.615" x2="38.617" y2="36.115"/>
				
					<line fill="none" stroke="#000000" stroke-width="0.25" stroke-miterlimit="10" x1="37.625" y1="28.615" x2="37.625" y2="36.115"/>
				
					<line fill="none" stroke="#000000" stroke-width="0.5" stroke-miterlimit="10" x1="36.633" y1="28.615" x2="36.633" y2="36.115"/>
				<line fill="none" stroke="#000000" stroke-width="0.5" stroke-miterlimit="10" x1="35.64" y1="28.615" x2="35.64" y2="36.115"/>
				
					<line fill="none" stroke="#000000" stroke-width="0.75" stroke-miterlimit="10" x1="34.648" y1="28.615" x2="34.648" y2="36.115"/>
				
					<line fill="none" stroke="#000000" stroke-width="0.5" stroke-miterlimit="10" x1="33.656" y1="28.615" x2="33.656" y2="36.115"/>
				
					<line fill="none" stroke="#000000" stroke-width="0.5" stroke-miterlimit="10" x1="32.664" y1="28.615" x2="32.664" y2="36.115"/>
				
					<line fill="none" stroke="#000000" stroke-width="0.5" stroke-miterlimit="10" x1="31.672" y1="28.615" x2="31.672" y2="36.115"/>
				
					<line fill="none" stroke="#000000" stroke-width="0.5" stroke-miterlimit="10" x1="30.679" y1="28.615" x2="30.679" y2="36.115"/>
				
					<line fill="none" stroke="#000000" stroke-width="0.75" stroke-miterlimit="10" x1="29.687" y1="28.615" x2="29.687" y2="36.115"/>
				
					<line fill="none" stroke="#000000" stroke-width="0.5" stroke-miterlimit="10" x1="28.695" y1="28.615" x2="28.695" y2="36.115"/>
				
					<line fill="none" stroke="#000000" stroke-width="0.5" stroke-miterlimit="10" x1="27.703" y1="28.615" x2="27.703" y2="36.115"/>
				
					<line fill="none" stroke="#000000" stroke-width="0.5" stroke-miterlimit="10" x1="26.711" y1="28.615" x2="26.711" y2="36.115"/>
				
					<line fill="none" stroke="#000000" stroke-width="0.25" stroke-miterlimit="10" x1="25.719" y1="28.615" x2="25.719" y2="36.115"/>
				
					<line fill="none" stroke="#000000" stroke-width="0.75" stroke-miterlimit="10" x1="24.726" y1="28.615" x2="24.726" y2="36.115"/>
				
					<line fill="none" stroke="#000000" stroke-width="0.5" stroke-miterlimit="10" x1="23.734" y1="28.615" x2="23.734" y2="36.115"/>
				
					<line fill="none" stroke="#000000" stroke-width="0.25" stroke-miterlimit="10" x1="22.742" y1="28.615" x2="22.742" y2="36.115"/>
				<line fill="none" stroke="#000000" stroke-width="0.5" stroke-miterlimit="10" x1="21.75" y1="28.615" x2="21.75" y2="36.115"/>
				
					<line fill="none" stroke="#000000" stroke-width="0.5" stroke-miterlimit="10" x1="20.758" y1="28.615" x2="20.758" y2="36.115"/>
				
					<line fill="none" stroke="#000000" stroke-width="0.4" stroke-miterlimit="10" x1="19.765" y1="28.615" x2="19.765" y2="36.115"/>
				
					<line fill="none" stroke="#000000" stroke-width="0.75" stroke-miterlimit="10" x1="18.773" y1="28.615" x2="18.773" y2="36.115"/>
				
					<line fill="none" stroke="#000000" stroke-width="0.25" stroke-miterlimit="10" x1="17.781" y1="28.615" x2="17.781" y2="36.115"/>
				
					<line fill="none" stroke="#000000" stroke-width="0.5" stroke-miterlimit="10" x1="16.789" y1="28.615" x2="16.789" y2="36.115"/>
			</g>
		</g>
		<g>
			<g opacity="0.53">
				<rect x="1.194" y="61.885" fill="#333333" width="90.721" height="23.354"/>
			</g>
			<g opacity="0.53">
				<rect x="1.194" y="64.24" fill="#333333" width="90.721" height="18.644"/>
			</g>
			<g opacity="0.53">
				<rect x="1.194" y="67.24" fill="#333333" width="90.721" height="12.644"/>
			</g>
			<g opacity="0.55">
				<g opacity="0.4">
					<path fill="#666666" d="M4.029,0C2.469,0,1.194,1.275,1.194,2.834v36.551h90.721V2.834C91.915,1.275,90.639,0,89.08,0H4.029z"
						/>
				</g>
				<g opacity="0.4">
					<path fill="#4D4D4D" d="M4.029,0C2.469,0,1.194,1.275,1.194,2.834v41.051h90.721V2.834C91.915,1.275,90.639,0,89.08,0H4.029z"
						/>
				</g>
				<g opacity="0.27">
					<path fill="#666666" d="M4.029,0C2.469,0,1.194,1.275,1.194,2.834V48.23h90.721V2.834C91.915,1.275,90.639,0,89.08,0H4.029z"/>
				</g>
				<g opacity="0.27">
					<path fill="#4D4D4D" d="M4.029,0C2.469,0,1.194,1.275,1.194,2.834v48.384h90.721V2.834C91.915,1.275,90.639,0,89.08,0H4.029z"
						/>
				</g>
				<g opacity="0.4">
					<path fill="#666666" d="M4.029,0C2.469,0,1.194,1.275,1.194,2.834v34.301h90.721V2.834C91.915,1.275,90.639,0,89.08,0H4.029z"
						/>
				</g>
				<g opacity="0.4">
					<path fill="#666666" d="M4.029,0C2.469,0,1.194,1.275,1.194,2.834V34.76h90.721V2.834C91.915,1.275,90.639,0,89.08,0H4.029z"/>
				</g>
				<g opacity="0.4">
					<path fill="#666666" d="M4.029,0C2.469,0,1.194,1.275,1.194,2.834v28.884h90.721V2.834C91.915,1.275,90.639,0,89.08,0H4.029z"
						/>
				</g>
				<g opacity="0.4">
					<path fill="#666666" d="M4.029,0C2.469,0,1.194,1.275,1.194,2.834V27.76h90.721V2.834C91.915,1.275,90.639,0,89.08,0H4.029z"/>
				</g>
				<g opacity="0.3">
					<path fill="#808080" d="M4.029,0C2.469,0,1.194,1.275,1.194,2.834V21.01h90.721V2.834C91.915,1.275,90.639,0,89.08,0H4.029z"/>
				</g>
			</g>
		</g>
		<rect x="21.448" y="65.129" fill="#4D4D4D" width="2.947" height="13.361"/>
		<rect x="21.054" y="65.129" opacity="0.39" fill="#E6E6E6" width="0.393" height="13.361"/>
		<rect x="68.76" y="65.129" fill="#4D4D4D" width="2.947" height="13.361"/>
		<rect x="68.845" y="65.129" opacity="0.39" fill="#E6E6E6" width="0.393" height="13.361"/>
		<polygon fill="#1A1A1A" points="24.364,84.073 24.364,51.74 68.76,51.741 68.76,84.073 68.17,84.073 68.17,52.689 24.954,52.69 
			24.954,84.073 		"/>
		<path opacity="0.39" fill="#E6E6E6" d="M1.194,2.599V42.06v22.18h1.26V42.06V0.49C1.289,1.24,1.194,2.599,1.194,2.599z"/>
		<path opacity="0.39" fill="#1A1A1A" d="M91.915,64.24V36.462V2.599c0,0-0.063-1.359-1.26-2.109v35.972V64.24H91.915z"/>
		<g>
			<rect x="24.666" y="58.775" fill="#1A1A1A" width="43.775" height="32.251"/>
			<g>
				<g enable-background="new    ">
					<g>
						<polyline fill="#B3B3B3" points="67.276,91.767 67.276,94.66 57.584,94.66 57.584,91.767 67.276,91.767 						"/>
						<polyline fill="#B3B3B3" points="67.276,94.66 67.276,108.635 25.813,108.635 25.813,103.01 25.813,102.668 25.804,102.668 
							25.804,100.476 25.813,100.476 25.813,100.129 25.813,94.66 35.506,94.66 25.813,94.66 25.813,91.767 35.506,91.767 
							41.168,91.767 41.168,91.418 51.922,91.418 51.922,91.767 57.584,91.767 57.584,94.66 67.276,94.66 						"/>
						<polyline fill="#B3B3B3" points="24.662,109.17 68.437,109.17 68.437,91.084 24.662,91.084 24.662,91.09 68.437,91.09 
							68.437,91.314 24.662,91.314 25.102,91.314 25.102,97.117 24.662,97.117 24.662,109.17 						"/>
						<rect x="24.662" y="91.026" fill="#B3B3B3" width="43.775" height="18.144"/>
						<polyline fill="#1A1A1A" points="66.394,92.133 66.394,94.302 58.474,94.302 58.474,92.133 66.394,92.133 						"/>
						<polyline fill="#1A1A1A" points="57.584,94.66 67.276,94.66 67.276,91.767 57.584,91.767 57.584,94.66 						"/>
						<polyline fill="#1A1A1A" points="34.616,92.133 34.616,94.302 26.696,94.302 26.696,92.133 34.616,92.133 						"/>
						<polyline fill="#1A1A1A" points="25.813,94.66 35.506,94.66 35.506,91.767 25.813,91.767 25.813,94.66 						"/>
						<path fill="#FBB03B" d="M64.963,92.226c0,0-0.449,0.451-1.799,0.607c-1.342,0.158-2.377,0.227-3.123,0.424
							c-0.728,0.188-0.525,0.424-1.303,0.424c-0.021,0-0.043,0-0.066,0v-0.258v-0.328v-0.869H64.963"/>
						<path fill="#FBB03B" d="M63.453,94.224h-0.712c-0.485,0-0.368-0.277,0.603-0.391c0.973-0.107,0.811-0.004,1.513-0.152
							c0.702-0.146,1.377-1.027,1.377-1.027v1.57h-1.926H63.453"/>
						<polyline fill="#FBB03B" points="58.474,94.302 66.394,94.302 66.394,92.133 58.474,92.133 58.474,94.302 						"/>
						<path fill="#009245" d="M30.644,92.32c0.001,0.092-0.271,0.227-0.881,0.293c-0.971,0.113-0.809,0.01-1.512,0.152
							c-0.701,0.145-1.377,1.031-1.377,1.031v-0.441v-0.363v-0.766h3.484C30.545,92.226,30.644,92.267,30.644,92.32"/>
						<path fill="#009245" d="M29.693,94.224h-1.549c0,0,0.449-0.453,1.791-0.607c1.342-0.156,2.376-0.229,3.123-0.422
							c0.742-0.193,0.531-0.428,1.33-0.428c0.017,0,0.031,0,0.047,0v1.457h-2.916H29.693"/>
						<polyline fill="#009245" points="26.696,94.302 34.616,94.302 34.616,92.133 26.696,92.133 26.696,94.302 						"/>
						<polyline fill="#333333" points="26.75,100.476 26.75,95.017 36.2,95.017 36.2,94.302 36.226,94.302 36.226,93.681 
							41.168,93.681 41.168,92.019 41.168,91.767 35.506,91.767 35.506,94.66 25.813,94.66 25.813,100.129 26.75,100.129 
							26.75,100.476 						"/>
						<polyline fill="#333333" points="25.813,108.635 67.276,108.635 67.276,94.66 57.584,94.66 57.584,91.767 51.922,91.767 
							51.922,93.681 56.863,93.681 56.863,94.302 56.89,94.302 56.89,95.017 66.332,95.017 66.332,100.129 67.276,100.129 
							67.276,103.01 66.332,103.01 66.332,108.127 60.131,108.127 58.879,108.127 58.493,108.127 58.25,108.127 58.06,108.127 
							57.682,108.127 57.484,108.127 57.242,108.127 56.89,108.127 55.638,108.127 55.252,108.127 55.01,108.127 54.82,108.127 
							54.442,108.127 54.244,108.127 54.002,108.127 53.65,108.127 52.399,108.127 52.011,108.127 51.769,108.127 51.571,108.127 
							51.203,108.127 51.013,108.127 50.761,108.127 50.41,108.127 49.16,108.127 48.772,108.127 48.529,108.127 48.332,108.127 
							47.963,108.127 47.773,108.127 47.521,108.127 47.17,108.127 45.92,108.127 45.533,108.127 45.281,108.127 45.092,108.127 
							44.722,108.127 44.525,108.127 44.282,108.127 43.929,108.127 42.679,108.127 42.293,108.127 42.041,108.127 41.851,108.127 
							41.483,108.127 41.285,108.127 41.041,108.127 40.691,108.127 39.439,108.127 39.052,108.127 38.809,108.127 38.612,108.127 
							38.234,108.127 38.045,108.127 37.801,108.127 37.451,108.127 36.2,108.127 35.812,108.127 35.57,108.127 35.371,108.127 
							34.994,108.127 34.804,108.127 34.561,108.127 34.211,108.127 32.959,108.127 26.75,108.127 26.75,102.668 26.75,103.01 
							25.813,103.01 25.813,108.635 						"/>
						<polyline points="56.863,93.685 56.863,94.302 36.236,94.302 36.236,93.685 56.863,93.685 						"/>
						<polyline points="60.131,95.017 60.131,98.937 58.879,98.937 58.879,95.017 60.131,95.017 						"/>
						<polyline points="53.65,94.302 53.65,98.937 52.399,98.937 52.399,94.302 53.65,94.302 						"/>
						<polyline points="50.41,94.302 50.41,98.937 49.16,98.937 49.16,94.302 50.41,94.302 						"/>
						<polyline points="47.17,94.302 47.17,98.937 45.92,98.937 45.92,94.302 47.17,94.302 						"/>
						<polyline points="43.929,94.302 43.929,98.937 42.679,98.937 42.679,94.302 43.929,94.302 						"/>
						<polyline points="40.691,94.302 40.691,98.937 39.439,98.937 39.439,94.302 40.691,94.302 						"/>
						<polyline points="34.211,95.017 34.211,98.937 32.959,98.937 32.959,95.017 34.211,95.017 						"/>
						<polyline points="26.75,108.127 32.959,108.127 32.959,99.275 34.211,99.275 34.211,108.127 34.561,108.127 34.561,100.664 
							35.812,100.664 35.812,108.127 36.2,108.127 36.2,99.275 37.451,99.275 37.451,108.127 37.801,108.127 37.801,100.664 
							39.052,100.664 39.052,108.127 39.439,108.127 39.439,99.275 40.691,99.275 40.691,108.127 41.041,108.127 41.041,100.664 
							42.293,100.664 42.293,108.127 42.679,108.127 42.679,99.275 43.929,99.275 43.929,108.127 44.282,108.127 44.282,100.664 
							45.533,100.664 45.533,108.127 45.92,108.127 45.92,99.275 47.17,99.275 47.17,108.127 47.521,108.127 47.521,100.664 
							48.772,100.664 48.772,108.127 49.16,108.127 49.16,99.275 50.41,99.275 50.41,108.127 50.761,108.127 50.761,100.664 
							52.011,100.664 52.011,108.127 52.399,108.127 52.399,99.275 53.65,99.275 53.65,108.127 54.002,108.127 54.002,100.664 
							55.252,100.664 55.252,108.127 55.638,108.127 55.638,99.275 56.89,99.275 56.89,108.127 57.242,108.127 57.242,100.664 
							58.493,100.664 58.493,108.127 58.879,108.127 58.879,99.275 60.131,99.275 60.131,108.127 66.332,108.127 66.332,103.01 
							66.332,102.668 66.151,102.668 65.909,102.668 65.782,102.668 65.638,102.668 65.395,102.668 65.395,100.476 66.332,100.476 
							66.332,100.129 66.332,95.017 56.89,95.017 56.89,98.937 55.638,98.937 55.638,94.302 56.863,94.302 56.863,93.681 
							51.922,93.681 51.922,91.767 51.922,92.019 41.168,92.019 41.168,93.681 36.226,93.681 36.226,94.302 37.451,94.302 
							37.451,98.937 36.2,98.937 36.2,95.017 26.75,95.017 26.75,100.476 27.695,100.476 27.695,102.668 27.453,102.668 
							27.307,102.668 27.172,102.668 26.938,102.668 26.75,102.668 26.75,108.127 						"/>
						<polyline fill="#1A1A1A" points="36.236,94.302 56.863,94.302 56.863,93.685 36.236,93.685 36.236,94.302 						"/>
						<polyline fill="#1A1A1A" points="41.168,92.019 51.922,92.019 51.922,91.767 51.922,91.418 41.168,91.418 41.168,91.767 
							41.168,92.019 						"/>
						<polyline points="25.813,100.476 26.75,100.476 26.75,100.129 25.813,100.129 25.813,100.476 						"/>
						<polyline points="25.813,103.01 26.75,103.01 26.75,102.668 26.686,102.668 25.813,102.668 25.813,103.01 						"/>
						<polyline points="66.332,103.01 67.276,103.01 67.276,100.129 66.332,100.129 66.332,100.476 67.276,100.476 67.276,102.668 
							66.403,102.668 66.332,102.668 66.332,103.01 						"/>
						<polyline fill="#CCCCCC" points="25.804,102.668 25.813,102.668 26.686,102.668 26.686,100.476 27.695,100.476 
							27.695,102.668 27.695,100.476 26.75,100.476 25.813,100.476 25.804,100.476 25.804,102.668 						"/>
						<polyline fill="#B3B3B3" points="26.686,102.668 26.75,102.668 26.938,102.668 26.938,100.476 27.695,100.476 27.695,102.668 
							27.695,100.476 26.686,100.476 26.686,102.668 						"/>
						<polyline fill="#999999" points="26.938,102.668 27.172,102.668 27.172,100.476 27.695,100.476 27.695,102.668 
							27.695,100.476 26.938,100.476 26.938,102.668 						"/>
						<polyline fill="#808080" points="27.172,102.668 27.307,102.668 27.307,100.476 27.453,100.476 27.453,102.668 
							27.695,102.668 27.695,100.476 27.172,100.476 27.172,102.668 						"/>
						<polyline fill="#CCCCCC" points="27.307,102.668 27.453,102.668 27.453,100.476 27.307,100.476 27.307,102.668 						"/>
						<polyline fill="#CCCCCC" points="66.403,102.668 67.276,102.668 67.276,100.476 66.332,100.476 65.395,100.476 
							66.403,100.476 66.403,102.668 						"/>
						<polyline fill="#B3B3B3" points="66.151,102.668 66.332,102.668 66.403,102.668 66.403,100.476 65.395,100.476 
							66.151,100.476 66.151,102.668 						"/>
						<polyline fill="#999999" points="65.909,102.668 66.151,102.668 66.151,100.476 65.395,100.476 65.909,100.476 
							65.909,102.668 						"/>
						<polyline fill="#808080" points="65.395,102.668 65.638,102.668 65.638,100.476 65.782,100.476 65.782,102.668 
							65.909,102.668 65.909,100.476 65.395,100.476 65.395,102.668 						"/>
						<polyline fill="#CCCCCC" points="65.638,102.668 65.782,102.668 65.782,100.476 65.638,100.476 65.638,102.668 						"/>
						<polyline fill="#0F0F0F" points="32.959,98.937 34.211,98.937 34.211,95.017 32.959,95.017 32.959,98.937 						"/>
						<polyline fill="#252525" points="36.2,95.017 36.226,95.017 36.226,94.302 36.2,94.302 36.2,95.017 						"/>
						<polyline fill="#0F0F0F" points="36.2,98.937 37.451,98.937 37.451,94.302 36.226,94.302 36.226,95.017 36.2,95.017 
							36.2,98.937 						"/>
						<polyline fill="#0F0F0F" points="39.439,98.937 40.691,98.937 40.691,94.302 39.439,94.302 39.439,98.937 						"/>
						<polyline fill="#0F0F0F" points="42.679,98.937 43.929,98.937 43.929,94.302 42.679,94.302 42.679,98.937 						"/>
						<polyline fill="#0F0F0F" points="45.92,98.937 47.17,98.937 47.17,94.302 45.92,94.302 45.92,98.937 						"/>
						<polyline fill="#0F0F0F" points="49.16,98.937 50.41,98.937 50.41,94.302 49.16,94.302 49.16,98.937 						"/>
						<polyline fill="#0F0F0F" points="52.399,98.937 53.65,98.937 53.65,94.302 52.399,94.302 52.399,98.937 						"/>
						<polyline fill="#252525" points="56.863,95.017 56.89,95.017 56.89,94.302 56.863,94.302 56.863,95.017 						"/>
						<polyline fill="#0F0F0F" points="55.638,98.937 56.89,98.937 56.89,95.017 56.863,95.017 56.863,94.302 55.638,94.302 
							55.638,98.937 						"/>
						<polyline fill="#0F0F0F" points="58.879,98.937 60.131,98.937 60.131,95.017 58.879,95.017 58.879,98.937 						"/>
						<polyline fill="#0D0D0D" points="32.959,108.127 34.211,108.127 34.211,99.275 32.959,99.275 32.959,108.127 						"/>
						<polyline fill="#0D0D0D" points="36.2,108.127 37.451,108.127 37.451,99.275 36.2,99.275 36.2,108.127 						"/>
						<polyline fill="#0D0D0D" points="39.439,108.127 40.691,108.127 40.691,99.275 39.439,99.275 39.439,108.127 						"/>
						<polyline fill="#0D0D0D" points="42.679,108.127 43.929,108.127 43.929,99.275 42.679,99.275 42.679,108.127 						"/>
						<polyline fill="#0D0D0D" points="45.92,108.127 47.17,108.127 47.17,99.275 45.92,99.275 45.92,108.127 						"/>
						<polyline fill="#0D0D0D" points="49.16,108.127 50.41,108.127 50.41,99.275 49.16,99.275 49.16,108.127 						"/>
						<polyline fill="#0D0D0D" points="52.399,108.127 53.65,108.127 53.65,99.275 52.399,99.275 52.399,108.127 						"/>
						<polyline fill="#0D0D0D" points="55.638,108.127 56.89,108.127 56.89,99.275 55.638,99.275 55.638,108.127 						"/>
						<polyline fill="#0D0D0D" points="58.879,108.127 60.131,108.127 60.131,99.275 58.879,99.275 58.879,108.127 						"/>
						<polyline fill="#6F4813" points="34.561,108.127 34.804,108.127 34.804,100.664 35.57,100.664 35.57,108.127 35.812,108.127 
							35.812,100.664 34.561,100.664 34.561,108.127 						"/>
						<polyline fill="#6F4813" points="37.801,108.127 38.045,108.127 38.045,100.664 38.809,100.664 38.809,108.127 
							39.052,108.127 39.052,100.664 37.801,100.664 37.801,108.127 						"/>
						<polyline fill="#6F4813" points="41.041,108.127 41.285,108.127 41.285,100.664 42.041,100.664 42.041,108.127 
							42.293,108.127 42.293,100.664 41.041,100.664 41.041,108.127 						"/>
						<polyline fill="#6F4813" points="44.282,108.127 44.525,108.127 44.525,100.664 45.281,100.664 45.281,108.127 
							45.533,108.127 45.533,100.664 44.282,100.664 44.282,108.127 						"/>
						<polyline fill="#6F4813" points="47.521,108.127 47.773,108.127 47.773,100.664 48.529,100.664 48.529,108.127 
							48.772,108.127 48.772,100.664 47.521,100.664 47.521,108.127 						"/>
						<polyline fill="#6F4813" points="50.761,108.127 51.013,108.127 51.013,100.664 51.769,100.664 51.769,108.127 
							52.011,108.127 52.011,100.664 50.761,100.664 50.761,108.127 						"/>
						<polyline fill="#6F4813" points="54.002,108.127 54.244,108.127 54.244,100.664 55.01,100.664 55.01,108.127 55.252,108.127 
							55.252,100.664 54.002,100.664 54.002,108.127 						"/>
						<polyline fill="#6F4813" points="57.242,108.127 57.484,108.127 57.484,100.664 58.25,100.664 58.25,108.127 58.493,108.127 
							58.493,100.664 57.242,100.664 57.242,108.127 						"/>
						<polyline fill="#78592E" points="34.804,108.127 34.994,108.127 34.994,100.664 35.371,100.664 35.371,108.127 35.57,108.127 
							35.57,100.664 34.804,100.664 34.804,108.127 						"/>
						<polyline fill="#78592E" points="38.045,108.127 38.234,108.127 38.234,100.664 38.612,100.664 38.612,108.127 
							38.809,108.127 38.809,100.664 38.045,100.664 38.045,108.127 						"/>
						<polyline fill="#78592E" points="41.285,108.127 41.483,108.127 41.483,100.664 41.851,100.664 41.851,108.127 
							42.041,108.127 42.041,100.664 41.285,100.664 41.285,108.127 						"/>
						<polyline fill="#78592E" points="44.525,108.127 44.722,108.127 44.722,100.664 45.092,100.664 45.092,108.127 
							45.281,108.127 45.281,100.664 44.525,100.664 44.525,108.127 						"/>
						<polyline fill="#78592E" points="47.773,108.127 47.963,108.127 47.963,100.664 48.332,100.664 48.332,108.127 
							48.529,108.127 48.529,100.664 47.773,100.664 47.773,108.127 						"/>
						<polyline fill="#78592E" points="51.013,108.127 51.203,108.127 51.203,100.664 51.571,100.664 51.571,108.127 
							51.769,108.127 51.769,100.664 51.013,100.664 51.013,108.127 						"/>
						<polyline fill="#78592E" points="54.244,108.127 54.442,108.127 54.442,100.664 54.82,100.664 54.82,108.127 55.01,108.127 
							55.01,100.664 54.244,100.664 54.244,108.127 						"/>
						<polyline fill="#78592E" points="57.484,108.127 57.682,108.127 57.682,100.664 58.06,100.664 58.06,108.127 58.25,108.127 
							58.25,100.664 57.484,100.664 57.484,108.127 						"/>
						<polyline fill="#81694A" points="34.994,108.127 35.371,108.127 35.371,100.664 34.994,100.664 34.994,108.127 						"/>
						<polyline fill="#81694A" points="38.234,108.127 38.612,108.127 38.612,100.664 38.234,100.664 38.234,108.127 						"/>
						<polyline fill="#81694A" points="41.483,108.127 41.851,108.127 41.851,100.664 41.483,100.664 41.483,108.127 						"/>
						<polyline fill="#81694A" points="44.722,108.127 45.092,108.127 45.092,100.664 44.722,100.664 44.722,108.127 						"/>
						<polyline fill="#81694A" points="47.963,108.127 48.332,108.127 48.332,100.664 47.963,100.664 47.963,108.127 						"/>
						<polyline fill="#81694A" points="51.203,108.127 51.571,108.127 51.571,100.664 51.203,100.664 51.203,108.127 						"/>
						<polyline fill="#81694A" points="54.442,108.127 54.82,108.127 54.82,100.664 54.442,100.664 54.442,108.127 						"/>
						<polyline fill="#81694A" points="57.682,108.127 58.06,108.127 58.06,100.664 57.682,100.664 57.682,108.127 						"/>
						<polyline fill="#999999" points="24.662,97.117 25.102,97.117 25.102,91.314 24.662,91.314 24.662,97.117 						"/>
						<path fill="#DFA243" d="M62.74,94.224h0.713c-0.388,0-0.298-0.225,0.477-0.311c0.773-0.084,0.648-0.004,1.205-0.121
							c0.568-0.117,1.099-0.818,1.099-0.818v1.25v-1.57c0,0-0.675,0.883-1.377,1.027c-0.702,0.148-0.54,0.045-1.513,0.152
							C62.371,93.945,62.254,94.224,62.74,94.224"/>
						<path fill="#C8974A" d="M63.453,94.224h0.854c-0.27,0-0.207-0.152,0.332-0.215c0.531-0.061,0.441-0.004,0.838-0.082
							c0.387-0.08,0.756-0.57,0.756-0.57v0.867v-1.25c0,0-0.531,0.701-1.098,0.818c-0.559,0.117-0.432,0.037-1.207,0.121
							C63.154,94,63.064,94.224,63.453,94.224"/>
						<path fill="#B68E4F" d="M64.306,94.224h1.926v-0.867c0,0-0.369,0.49-0.756,0.57c-0.396,0.078-0.307,0.021-0.838,0.082
							C64.099,94.072,64.037,94.224,64.306,94.224"/>
						<path fill="#ECB96B" d="M58.739,93.681c0.777,0,0.575-0.236,1.302-0.424c0.748-0.197,1.782-0.266,3.123-0.424
							c1.35-0.156,1.801-0.607,1.801-0.607h-6.291h5.164c0,0-0.369,0.369-1.476,0.5c-1.106,0.127-1.953,0.186-2.565,0.348
							c-0.599,0.158-0.431,0.352-1.08,0.352c-0.014,0-0.029,0-0.045,0v0.256C58.695,93.681,58.717,93.681,58.739,93.681"/>
						<path fill="#E1BF8B" d="M58.719,93.424c0.648,0,0.48-0.191,1.08-0.352c0.611-0.162,1.457-0.221,2.564-0.346
							c1.107-0.131,1.477-0.5,1.477-0.5h-5.166h3.742c0,0-0.27,0.271-1.062,0.365c-0.81,0.094-1.413,0.135-1.863,0.252
							c-0.442,0.109-0.312,0.252-0.796,0.252c-0.007,0-0.016,0-0.023,0v0.328C58.688,93.424,58.703,93.424,58.719,93.424"/>
						<path fill="#DAC3A0" d="M58.695,93.095c0.486,0,0.354-0.141,0.796-0.252c0.45-0.117,1.054-0.158,1.863-0.252
							c0.792-0.094,1.062-0.365,1.062-0.365h-3.744v0.869C58.679,93.095,58.688,93.095,58.695,93.095"/>
						<path fill="#27704A" d="M26.875,93.799c0,0,0.676-0.889,1.377-1.031c0.703-0.145,0.541-0.041,1.512-0.152
							c0.607-0.066,0.882-0.201,0.881-0.293c0-0.055-0.1-0.096-0.285-0.096h-3.482h2.52c0.343,0,0.262,0.203-0.439,0.279
							c-0.693,0.082-0.586,0.01-1.09,0.111c-0.514,0.105-0.99,0.738-0.99,0.738v0.443"/>
						<path fill="#256242" d="M26.875,93.357c0,0,0.478-0.635,0.99-0.738c0.504-0.104,0.396-0.031,1.09-0.111
							c0.701-0.076,0.782-0.279,0.439-0.279h-2.52h1.7c0.233,0,0.181,0.135-0.297,0.189c-0.469,0.053-0.388,0-0.737,0.07
							c-0.343,0.072-0.666,0.504-0.666,0.504V93.357"/>
						<path fill="#1F5237" d="M26.875,92.992c0,0,0.324-0.434,0.666-0.504c0.352-0.072,0.271-0.02,0.738-0.072
							c0.477-0.055,0.53-0.189,0.297-0.189h-1.701V92.992"/>
						<path fill="#2B9E62" d="M28.144,94.224h1.549c0,0,0.342-0.342,1.35-0.459c1.018-0.115,1.791-0.17,2.358-0.314
							c0.554-0.145,0.396-0.322,0.99-0.322c0.015,0,0.028,0,0.044,0v1.098v-1.459c-0.016,0-0.03,0-0.047,0
							c-0.799,0-0.588,0.234-1.33,0.428c-0.747,0.193-1.781,0.268-3.123,0.424C28.594,93.771,28.144,94.224,28.144,94.224"/>
						<path fill="#4DA878" d="M29.693,94.224h1.826c0,0,0.207-0.211,0.828-0.277c0.621-0.072,1.107-0.107,1.449-0.197
							c0.344-0.09,0.246-0.199,0.615-0.199c0.008,0,0.016,0,0.022,0v0.676v-1.098c-0.015,0-0.029,0-0.044,0
							c-0.596,0-0.438,0.178-0.99,0.322c-0.566,0.145-1.342,0.199-2.357,0.314C30.035,93.883,29.693,94.224,29.693,94.224"/>
						<path fill="#68B08A" d="M31.519,94.224h2.916v-0.674c-0.008,0-0.016,0-0.021,0c-0.369,0-0.272,0.109-0.617,0.197
							c-0.342,0.09-0.828,0.127-1.448,0.197C31.726,94.013,31.519,94.224,31.519,94.224"/>
					</g>
				</g>
			</g>
			<g>
				<g>
					<path fill="#B3B3B3" d="M35.501,81.696c0-0.395,0.324-0.719,0.724-0.719h2.649c0.396,0,0.724,0.324,0.724,0.719v9.449
						c0,0.396-0.323,0.719-0.724,0.719h-2.649c-0.396,0-0.724-0.322-0.724-0.719V81.696z"/>
					<path fill="#FFFFFF" d="M35.501,81.696c0-0.395,0.324-0.719,0.724-0.719h2.649c0.396,0,0.724,0.324,0.724,0.719v1.168H35.5
						L35.501,81.696L35.501,81.696z"/>
					<rect x="35.501" y="82.749" fill="#CCCCCC" width="4.099" height="0.578"/>
					<rect x="35.501" y="85.239" opacity="0.31" fill="#E6E6E6" width="4.099" height="3.875"/>
					<rect x="35.501" y="87.02" fill="#CCCCCC" width="4.099" height="1.469"/>
					<rect x="35.501" y="82.286" fill="#E6E6E6" width="4.099" height="0.461"/>
					<rect x="35.504" y="81.975" fill="#F2F2F2" width="4.098" height="0.49"/>
				</g>
				<g>
					<path fill="#B3B3B3" d="M53.53,81.696c0-0.395,0.324-0.719,0.724-0.719h2.649c0.396,0,0.724,0.324,0.724,0.719v9.449
						c0,0.396-0.323,0.719-0.724,0.719h-2.649c-0.396,0-0.724-0.322-0.724-0.719V81.696z"/>
					<path fill="#FFFFFF" d="M53.53,81.696c0-0.395,0.324-0.719,0.724-0.719h2.649c0.396,0,0.724,0.324,0.724,0.719v1.168h-4.098
						L53.53,81.696L53.53,81.696z"/>
					<rect x="53.53" y="82.749" fill="#CCCCCC" width="4.099" height="0.578"/>
					<rect x="53.53" y="85.239" opacity="0.31" fill="#E6E6E6" width="4.099" height="3.875"/>
					<rect x="53.53" y="87.02" fill="#CCCCCC" width="4.099" height="1.469"/>
					<rect x="53.53" y="82.286" fill="#E6E6E6" width="4.099" height="0.461"/>
					<rect x="53.533" y="81.975" fill="#F2F2F2" width="4.098" height="0.49"/>
				</g>
				<path fill="#CCCCCC" d="M68.443,80.598V52.997v-0.721h-0.721H25.388h-0.723v0.721v27.602h0.288v10.428h0.437h8.627h0.72
					l0.047-0.717l0.336-5.104l0.336-5.104c0.026-0.396,0.372-0.718,0.771-0.718h2.666c0.396,0,0.738,0.322,0.769,0.718l0.336,5.104
					l0.336,5.104l0,0l0.048,0.717h0.725h10.918h0.721l0.049-0.717l0,0l0.346-5.104l0.348-5.105c0.023-0.395,0.373-0.717,0.768-0.717
					h2.629c0.396,0,0.74,0.322,0.771,0.717L58,85.206l0.344,5.104l0,0l0.049,0.717h0.718h8.627h0.433v-10.43L68.443,80.598
					L68.443,80.598z"/>
			</g>
			<rect x="24.666" y="52.275" opacity="0.37" fill="#E6E6E6" enable-background="new    " width="3.475" height="38.751"/>
			<rect x="24.666" y="52.275" opacity="0.37" fill="#FFFFFF" enable-background="new    " width="0.389" height="28.323"/>
			<rect x="64.972" y="52.275" opacity="0.37" fill="#808080" enable-background="new    " width="3.472" height="38.751"/>
			<rect x="35.501" y="83.038" opacity="0.76" fill="#E6E6E6" enable-background="new    " width="4.099" height="5.016"/>
			<rect x="53.528" y="83.038" opacity="0.76" fill="#E6E6E6" enable-background="new    " width="4.099" height="5.016"/>
			<g>
				<g>
					<rect x="23.481" y="94.236" fill="#999999" width="0.386" height="1.699"/>
					<rect x="23.481" y="94.236" fill="#999999" width="0.386" height="1.699"/>
				</g>
				<path fill="#999999" d="M24.662,100.677c0,0-0.658-2.992-0.783-4.742h-0.397c0.125,1.75,0.782,4.742,0.782,4.742
					s0.254,1.496,0.397,1.902C24.662,101.611,24.662,100.677,24.662,100.677z"/>
				<path fill="#CCCCCC" d="M24.662,98.988c0,0-0.669-3.002-0.794-4.752H23.47c0.125,1.75,0.793,4.752,0.793,4.752
					s0.254,1.498,0.397,1.904C24.662,99.924,24.662,98.988,24.662,98.988z"/>
			</g>
			<g>
				<g>
					<rect x="69.241" y="94.236" fill="#999999" width="0.386" height="1.699"/>
					<rect x="69.241" y="94.236" fill="#999999" width="0.386" height="1.699"/>
				</g>
				<path fill="#999999" d="M68.446,100.677c0,0,0.657-2.992,0.782-4.742h0.397c-0.125,1.75-0.782,4.742-0.782,4.742
					s-0.254,1.496-0.397,1.902C68.446,101.611,68.446,100.677,68.446,100.677z"/>
				<path fill="#CCCCCC" d="M68.446,98.988c0,0,0.67-3.002,0.795-4.752h0.397c-0.125,1.75-0.795,4.752-0.795,4.752
					s-0.254,1.498-0.397,1.904C68.446,99.924,68.446,98.988,68.446,98.988z"/>
			</g>
		</g>
		<rect x="1.194" y="69.323" opacity="0.34" fill="#1A1A1A" width="1.26" height="17.082"/>
		<rect x="90.655" y="64.24" opacity="0.43" width="1.261" height="22.165"/>
		<g>
			<rect x="1.194" y="55.74" opacity="0.18" fill="#1A1A1A" width="1.26" height="13.583"/>
			<rect x="1.194" y="58.9" opacity="0.2" fill="#1A1A1A" width="1.26" height="9.006"/>
			<rect x="1.194" y="60.927" opacity="0.2" fill="#1A1A1A" width="1.26" height="6.104"/>
			<rect x="1.194" y="63.677" opacity="0.2" fill="#1A1A1A" width="1.26" height="2.666"/>
		</g>
		<g>
			<rect x="90.655" y="55.74" opacity="0.18" fill="#1A1A1A" width="1.261" height="13.583"/>
			<rect x="90.655" y="58.9" opacity="0.2" fill="#1A1A1A" width="1.261" height="9.006"/>
			<rect x="90.655" y="60.927" opacity="0.2" fill="#1A1A1A" width="1.261" height="6.104"/>
			<rect x="90.655" y="63.677" opacity="0.2" fill="#1A1A1A" width="1.261" height="2.666"/>
		</g>
	</g>
</g>
</svg>
