<?xml version='1.0' encoding='UTF-8' standalone='no'?>
<!-- Created with Fritzing (http://www.fritzing.org/) -->
<svg xmlns="http://www.w3.org/2000/svg" width="2.30046in" x="0in" version="1.2" y="0in"  height="0.6in" viewBox="0 0 2300.46 600" baseProfile="tiny" xmlns:svg="http://www.w3.org/2000/svg">
 <desc>Fritzing breadboard generated by brd2svg</desc>
 <g id="breadboard">
  <g id="icon">
   <path fill="#1F7A34" stroke="none" stroke-width="0" d="M0,0L0,270A30,30 0 0 1 0,330L0,600L2300.46,600L2300.46,0L0,0z"/>
   <g transform="translate(100,147.82)">
    <g>
     <g>
      <g>
       <path fill="#B3B3B3" d="M0,10.4028l0,293.958l395.625,0L395.625,10.4028L0,10.4028z"/>
       <path fill="#B3B3B3" d="M1671.85,10.4028l0,293.958l428.583,0L2100.43,10.4028L1671.85,10.4028z"/>
       <g>
        <path opacity="0.47" fill="#808080" enable-background="new    " d="M2083,20.1111c6.34722,0,9.29167,0.458333,11.875,-0.944444c3.93056,-2.13889,5.58333,-6.69444,5.58333,-8.75c0,-3.40278,0,293.958,0,293.958l-17.4722,0L2082.99,20.1111z"/>
        <rect width="378.736" x="1704.26" opacity="0.47" y="286.806" fill="#808080" height="17.5694" enable-background="new    "/>
       </g>
       <g>
        <path opacity="0.47" fill="#E6E6E6" enable-background="new    " d="M0.0416667,10.1111c0,5.98611,4.40278,10,8.73611,10s8.73611,0,8.73611,0l0,266.764l-17.4722,17.5L0.0416667,10.1111z"/>
        <polygon opacity="0.47" fill="#808080" points="0,304.361,17.4722,286.875,395.625,286.875,395.625,304.361" enable-background="new    "/>
       </g>
       <g>
        <path fill="#CCCCCC" enable-background="new    " d="M2090.46,20.1111c5.5,0,9.98611,-4.45833,9.98611,-10L678.597,10.1111l0,10l1387.38,0L2090.46,20.1111z"/>
        <path fill="#CCCCCC" enable-background="new    " d="M0,10.1111c0,5.5,4.5,9.98611,10.0139,10l51.5417,0l436.417,0l0,-10L0,10.1111z"/>
        <path opacity="0.47" fill="#B3B3B3" enable-background="new    " d="M2.20833,16.0833c1.81944,2.36111,4.54167,3.97222,7.73611,4l488.028,0L497.972,16.0833L2.20833,16.0833z"/>
        <path opacity="0.47" fill="#B3B3B3" enable-background="new    " d="M2098.24,16.0833L678.597,16.0833l0,4l1411.94,0C2093.71,20.0694,2096.42,18.4444,2098.24,16.0833z"/>
       </g>
       <g>
        <path fill="#999999" d="M288.139,39.3611C282.736,17.7222,296.569,0,318.903,0l1458.17,0c22.3333,0,36.1667,17.6944,30.8056,39.3611l-56.4444,225.639c-5.43056,21.6667,-28.0694,39.3611,-50.375,39.3611L394.986,304.361c-22.3194,0,-45,-17.6944,-50.4306,-39.3611L288.139,39.3611z"/>
        <path fill="#808080" d="M343.778,261.917c5.43056,21.6667,28.8889,39.3611,51.2083,39.3611l1306.07,0c22.3056,0,45.7222,-17.6944,51.1528,-39.3611l-0.777778,3.09722c-5.43056,21.6667,-28.0694,39.3611,-50.375,39.3611L394.986,304.375c-22.3194,0,-45,-17.6944,-50.4306,-39.3611L343.778,261.917z"/>
        <path fill="#B3B3B3" d="M289.125,43.3194c-5.40278,-21.6528,7.44444,-39.3611,29.7778,-39.3611l1458.17,0c22.3333,0,35.1806,17.6944,29.8056,39.3611l0.986111,-3.95833C1813.25,17.7083,1799.42,0,1777.07,0L318.903,0c-22.3333,0,-36.1667,17.7083,-30.7639,39.3611L289.125,43.3194z"/>
        <path fill="#1A1A1A" d="M314.153,52.5139c-5.48611,-21.7083,8.33333,-39.3333,30.6528,-39.3333l1406.4,0c22.2917,0,36.1389,17.6528,30.6528,39.3333l-50.2639,199.292c-5.47222,21.7083,-28.1806,39.375,-50.5278,39.375L414.931,291.181c-22.3194,0,-45.0556,-17.6528,-50.5278,-39.375L314.153,52.5139z"/>
       </g>
      </g>
     </g>
    </g>
    <g>
     <circle fill="#4D4D4D" cx="1687.76" cy="95.4028" r="21.9722"/>
     <circle cx="1687.76" cy="95.4167" r="16.9167"/>
     <circle fill="#4D4D4D" cx="1579.14" cy="95.4028" r="21.9722"/>
     <circle cx="1579.14" cy="95.4167" r="16.9167"/>
     <circle fill="#4D4D4D" cx="1470.54" cy="95.4028" r="21.9722"/>
     <circle cx="1470.54" cy="95.4167" r="16.9167"/>
     <circle fill="#4D4D4D" cx="1361.94" cy="95.4028" r="21.9722"/>
     <circle cx="1361.94" cy="95.4167" r="16.9167"/>
     <circle fill="#4D4D4D" cx="1253.32" cy="95.4028" r="21.9722"/>
     <circle cx="1253.32" cy="95.4167" r="16.9167"/>
     <circle fill="#4D4D4D" cx="1144.74" cy="95.4028" r="21.9722"/>
     <circle cx="1144.74" cy="95.4167" r="16.9167"/>
     <circle fill="#4D4D4D" cx="1036.15" cy="95.4028" r="21.9722"/>
     <circle cx="1036.15" cy="95.4167" r="16.9167"/>
     <circle fill="#4D4D4D" cx="927.528" cy="95.4028" r="21.9722"/>
     <circle cx="927.528" cy="95.4167" r="16.9167"/>
     <circle fill="#4D4D4D" cx="818.931" cy="95.4028" r="21.9722"/>
     <circle cx="818.931" cy="95.4167" r="16.9167"/>
     <circle fill="#4D4D4D" cx="710.333" cy="95.4028" r="21.9722"/>
     <circle cx="710.333" cy="95.4167" r="16.9167"/>
     <circle fill="#4D4D4D" cx="601.722" cy="95.4028" r="21.9722"/>
     <circle cx="601.722" cy="95.4167" r="16.9167"/>
     <circle fill="#4D4D4D" cx="493.125" cy="95.4028" r="21.9722"/>
     <circle cx="493.125" cy="95.4167" r="16.9167"/>
     <circle fill="#4D4D4D" cx="384.528" cy="95.4028" r="21.9722"/>
     <circle cx="384.528" cy="95.4167" r="16.9167"/>
     <circle fill="#4D4D4D" cx="1633.5" cy="208.875" r="21.9722"/>
     <circle cx="1633.5" cy="208.875" r="16.9028"/>
     <circle fill="#4D4D4D" cx="1524.92" cy="208.875" r="21.9722"/>
     <circle cx="1524.92" cy="208.875" r="16.9028"/>
     <circle fill="#4D4D4D" cx="1416.32" cy="208.875" r="21.9722"/>
     <circle cx="1416.32" cy="208.875" r="16.9028"/>
     <circle fill="#4D4D4D" cx="1307.71" cy="208.875" r="21.9722"/>
     <circle cx="1307.71" cy="208.875" r="16.9028"/>
     <circle fill="#4D4D4D" cx="1199.11" cy="208.875" r="21.9722"/>
     <circle cx="1199.11" cy="208.875" r="16.9028"/>
     <circle fill="#4D4D4D" cx="1090.51" cy="208.875" r="21.9722"/>
     <circle cx="1090.51" cy="208.875" r="16.9028"/>
     <circle fill="#4D4D4D" cx="981.889" cy="208.875" r="21.9722"/>
     <circle cx="981.889" cy="208.875" r="16.9028"/>
     <circle fill="#4D4D4D" cx="873.306" cy="208.875" r="21.9722"/>
     <circle cx="873.306" cy="208.875" r="16.9028"/>
     <circle fill="#4D4D4D" cx="764.708" cy="208.875" r="21.9722"/>
     <circle cx="764.708" cy="208.875" r="16.9028"/>
     <circle fill="#4D4D4D" cx="656.097" cy="208.875" r="21.9722"/>
     <circle cx="656.097" cy="208.875" r="16.9028"/>
     <circle fill="#4D4D4D" cx="547.5" cy="208.875" r="21.9722"/>
     <circle cx="547.5" cy="208.875" r="16.9028"/>
     <circle fill="#4D4D4D" cx="438.903" cy="208.875" r="21.9722"/>
     <circle cx="438.903" cy="208.875" r="16.9028"/>
     <g>
      <g>
       <path fill="#CCCCCC" d="M98.2778,235.764c-2.73611,0,-6.11111,-1.95833,-7.51389,-4.33333l-43.25,-74.9583c-1.40278,-2.375,-1.40278,-6.23611,0,-8.65278l43.25,-74.9444c1.40278,-2.375,4.77778,-4.34722,7.51389,-4.34722l86.5139,0c2.75,0,6.125,2,7.51389,4.34722l43.2639,74.9444c1.40278,2.41667,1.40278,6.27778,0,8.65278l-43.2639,74.9583c-1.38889,2.375,-4.76389,4.33333,-7.51389,4.33333L98.2778,235.764z"/>
      </g>
      <g>
       <path fill="#999999" d="M100.403,232.042c-2.73611,0,-6.09722,-1.95833,-7.51389,-4.34722l-41.125,-71.2361c-1.38889,-2.375,-1.38889,-6.23611,0,-8.65278l41.125,-71.25C94.3194,74.1806,97.6806,72.2222,100.403,72.2222l82.25,0c2.75,0,6.125,1.95833,7.51389,4.33333l41.125,71.25c1.40278,2.41667,1.40278,6.27778,0,8.65278l-41.125,71.2361c-1.38889,2.41667,-4.76389,4.34722,-7.51389,4.34722L100.403,232.042z"/>
      </g>
      <circle fill="#4D4D4D" cx="141.528" cy="152.153" r="67.3056"/>
     </g>
     <g>
      <g>
       <path fill="#CCCCCC" d="M1915.17,235.806c-2.73611,0,-6.09722,-1.95833,-7.51389,-4.33333l-43.2361,-74.9583c-1.41667,-2.375,-1.41667,-6.23611,0,-8.65278l43.2361,-74.9444c1.41667,-2.375,4.77778,-4.34722,7.51389,-4.34722l86.5139,0c2.75,0,6.11111,2,7.51389,4.34722l43.25,74.9444c1.41667,2.41667,1.41667,6.27778,0,8.65278l-43.25,74.9583c-1.40278,2.375,-4.76389,4.33333,-7.51389,4.33333L1915.17,235.806z"/>
      </g>
      <g>
       <path fill="#999999" d="M1917.31,232.083c-2.73611,0,-6.09722,-1.95833,-7.51389,-4.34722l-41.125,-71.2361c-1.38889,-2.375,-1.38889,-6.23611,0,-8.65278l41.125,-71.25c1.41667,-2.375,4.77778,-4.33333,7.51389,-4.33333l82.25,0c2.75,0,6.125,1.95833,7.51389,4.33333l41.125,71.25c1.41667,2.41667,1.41667,6.27778,0,8.65278l-41.125,71.2361c-1.38889,2.41667,-4.76389,4.34722,-7.51389,4.34722L1917.31,232.083z"/>
      </g>
      <circle fill="#4D4D4D" cx="1958.43" cy="152.194" r="67.3056"/>
     </g>
    </g>
   </g>
  </g>
  <g transform="translate(484.265,534.05)">
   <rect width="31.93" x="0" y="0" fill="#8D8C8C" height="31.9" id="connector0pin"/>
   <rect width="16.4442" x="7.79153" y="7.73544" fill="#8C8663" height="16.4152"/>
   <polygon fill="#B8AF82" points="0,31.9,7.79153,24.1368,7.79153,6.97162,0,0"/>
   <polygon fill="#80795B" points="24.2079,7.76321,7.90264,7.76321,0,0,31.93,0"/>
   <polygon fill="#5E5B43" points="24.2079,24.1368,24.2079,7.76321,31.93,0,31.93,31.9"/>
   <polygon fill="#9A916C" points="0,31.9,7.87486,24.1368,24.2079,24.1368,31.93,31.9"/>
  </g>
  <g transform="translate(584.265,534.05)">
   <rect width="31.93" x="0" y="0" fill="#8D8C8C" height="31.9" id="connector1pin"/>
   <rect width="16.4442" x="7.79153" y="7.73544" fill="#8C8663" height="16.4152"/>
   <polygon fill="#B8AF82" points="0,31.9,7.79153,24.1368,7.79153,6.97162,0,0"/>
   <polygon fill="#80795B" points="24.2079,7.76321,7.90264,7.76321,0,0,31.93,0"/>
   <polygon fill="#5E5B43" points="24.2079,24.1368,24.2079,7.76321,31.93,0,31.93,31.9"/>
   <polygon fill="#9A916C" points="0,31.9,7.87486,24.1368,24.2079,24.1368,31.93,31.9"/>
  </g>
  <g transform="translate(584.265,34.05)">
   <rect width="31.93" x="0" y="0" fill="#8D8C8C" height="31.9" id="connector26pin"/>
   <rect width="16.4442" x="7.79153" y="7.73544" fill="#8C8663" height="16.4152"/>
   <polygon fill="#B8AF82" points="0,31.9,7.79153,24.1368,7.79153,6.97162,0,0"/>
   <polygon fill="#80795B" points="24.2079,7.76321,7.90264,7.76321,0,0,31.93,0"/>
   <polygon fill="#5E5B43" points="24.2079,24.1368,24.2079,7.76321,31.93,0,31.93,31.9"/>
   <polygon fill="#9A916C" points="0,31.9,7.87486,24.1368,24.2079,24.1368,31.93,31.9"/>
  </g>
  <g transform="translate(684.265,534.05)">
   <rect width="31.93" x="0" y="0" fill="#8D8C8C" height="31.9" id="connector2pin"/>
   <rect width="16.4442" x="7.79153" y="7.73544" fill="#8C8663" height="16.4152"/>
   <polygon fill="#B8AF82" points="0,31.9,7.79153,24.1368,7.79153,6.97162,0,0"/>
   <polygon fill="#80795B" points="24.2079,7.76321,7.90264,7.76321,0,0,31.93,0"/>
   <polygon fill="#5E5B43" points="24.2079,24.1368,24.2079,7.76321,31.93,0,31.93,31.9"/>
   <polygon fill="#9A916C" points="0,31.9,7.87486,24.1368,24.2079,24.1368,31.93,31.9"/>
  </g>
  <g transform="translate(684.265,34.05)">
   <rect width="31.93" x="0" y="0" fill="#8D8C8C" height="31.9" id="connector25pin"/>
   <rect width="16.4442" x="7.79153" y="7.73544" fill="#8C8663" height="16.4152"/>
   <polygon fill="#B8AF82" points="0,31.9,7.79153,24.1368,7.79153,6.97162,0,0"/>
   <polygon fill="#80795B" points="24.2079,7.76321,7.90264,7.76321,0,0,31.93,0"/>
   <polygon fill="#5E5B43" points="24.2079,24.1368,24.2079,7.76321,31.93,0,31.93,31.9"/>
   <polygon fill="#9A916C" points="0,31.9,7.87486,24.1368,24.2079,24.1368,31.93,31.9"/>
  </g>
  <g transform="translate(784.265,534.05)">
   <rect width="31.93" x="0" y="0" fill="#8D8C8C" height="31.9" id="connector3pin"/>
   <rect width="16.4442" x="7.79153" y="7.73544" fill="#8C8663" height="16.4152"/>
   <polygon fill="#B8AF82" points="0,31.9,7.79153,24.1368,7.79153,6.97162,0,0"/>
   <polygon fill="#80795B" points="24.2079,7.76321,7.90264,7.76321,0,0,31.93,0"/>
   <polygon fill="#5E5B43" points="24.2079,24.1368,24.2079,7.76321,31.93,0,31.93,31.9"/>
   <polygon fill="#9A916C" points="0,31.9,7.87486,24.1368,24.2079,24.1368,31.93,31.9"/>
  </g>
  <g transform="translate(784.265,34.05)">
   <rect width="31.93" x="0" y="0" fill="#8D8C8C" height="31.9" id="connector24pin"/>
   <rect width="16.4442" x="7.79153" y="7.73544" fill="#8C8663" height="16.4152"/>
   <polygon fill="#B8AF82" points="0,31.9,7.79153,24.1368,7.79153,6.97162,0,0"/>
   <polygon fill="#80795B" points="24.2079,7.76321,7.90264,7.76321,0,0,31.93,0"/>
   <polygon fill="#5E5B43" points="24.2079,24.1368,24.2079,7.76321,31.93,0,31.93,31.9"/>
   <polygon fill="#9A916C" points="0,31.9,7.87486,24.1368,24.2079,24.1368,31.93,31.9"/>
  </g>
  <g transform="translate(884.265,534.05)">
   <rect width="31.93" x="0" y="0" fill="#8D8C8C" height="31.9" id="connector4pin"/>
   <rect width="16.4442" x="7.79153" y="7.73544" fill="#8C8663" height="16.4152"/>
   <polygon fill="#B8AF82" points="0,31.9,7.79153,24.1368,7.79153,6.97162,0,0"/>
   <polygon fill="#80795B" points="24.2079,7.76321,7.90264,7.76321,0,0,31.93,0"/>
   <polygon fill="#5E5B43" points="24.2079,24.1368,24.2079,7.76321,31.93,0,31.93,31.9"/>
   <polygon fill="#9A916C" points="0,31.9,7.87486,24.1368,24.2079,24.1368,31.93,31.9"/>
  </g>
  <g transform="translate(884.265,34.05)">
   <rect width="31.93" x="0" y="0" fill="#8D8C8C" height="31.9" id="connector23pin"/>
   <rect width="16.4442" x="7.79153" y="7.73544" fill="#8C8663" height="16.4152"/>
   <polygon fill="#B8AF82" points="0,31.9,7.79153,24.1368,7.79153,6.97162,0,0"/>
   <polygon fill="#80795B" points="24.2079,7.76321,7.90264,7.76321,0,0,31.93,0"/>
   <polygon fill="#5E5B43" points="24.2079,24.1368,24.2079,7.76321,31.93,0,31.93,31.9"/>
   <polygon fill="#9A916C" points="0,31.9,7.87486,24.1368,24.2079,24.1368,31.93,31.9"/>
  </g>
  <g transform="translate(984.265,534.05)">
   <rect width="31.93" x="0" y="0" fill="#8D8C8C" height="31.9" id="connector5pin"/>
   <rect width="16.4442" x="7.79153" y="7.73544" fill="#8C8663" height="16.4152"/>
   <polygon fill="#B8AF82" points="0,31.9,7.79153,24.1368,7.79153,6.97162,0,0"/>
   <polygon fill="#80795B" points="24.2079,7.76321,7.90264,7.76321,0,0,31.93,0"/>
   <polygon fill="#5E5B43" points="24.2079,24.1368,24.2079,7.76321,31.93,0,31.93,31.9"/>
   <polygon fill="#9A916C" points="0,31.9,7.87486,24.1368,24.2079,24.1368,31.93,31.9"/>
  </g>
  <g transform="translate(984.265,34.05)">
   <rect width="31.93" x="0" y="0" fill="#8D8C8C" height="31.9" id="connector22pin"/>
   <rect width="16.4442" x="7.79153" y="7.73544" fill="#8C8663" height="16.4152"/>
   <polygon fill="#B8AF82" points="0,31.9,7.79153,24.1368,7.79153,6.97162,0,0"/>
   <polygon fill="#80795B" points="24.2079,7.76321,7.90264,7.76321,0,0,31.93,0"/>
   <polygon fill="#5E5B43" points="24.2079,24.1368,24.2079,7.76321,31.93,0,31.93,31.9"/>
   <polygon fill="#9A916C" points="0,31.9,7.87486,24.1368,24.2079,24.1368,31.93,31.9"/>
  </g>
  <g transform="translate(1084.26,534.05)">
   <rect width="31.93" x="0" y="0" fill="#8D8C8C" height="31.9" id="connector6pin"/>
   <rect width="16.4442" x="7.79153" y="7.73544" fill="#8C8663" height="16.4152"/>
   <polygon fill="#B8AF82" points="0,31.9,7.79153,24.1368,7.79153,6.97162,0,0"/>
   <polygon fill="#80795B" points="24.2079,7.76321,7.90264,7.76321,0,0,31.93,0"/>
   <polygon fill="#5E5B43" points="24.2079,24.1368,24.2079,7.76321,31.93,0,31.93,31.9"/>
   <polygon fill="#9A916C" points="0,31.9,7.87486,24.1368,24.2079,24.1368,31.93,31.9"/>
  </g>
  <g transform="translate(1084.26,34.05)">
   <rect width="31.93" x="0" y="0" fill="#8D8C8C" height="31.9" id="connector21pin"/>
   <rect width="16.4442" x="7.79153" y="7.73544" fill="#8C8663" height="16.4152"/>
   <polygon fill="#B8AF82" points="0,31.9,7.79153,24.1368,7.79153,6.97162,0,0"/>
   <polygon fill="#80795B" points="24.2079,7.76321,7.90264,7.76321,0,0,31.93,0"/>
   <polygon fill="#5E5B43" points="24.2079,24.1368,24.2079,7.76321,31.93,0,31.93,31.9"/>
   <polygon fill="#9A916C" points="0,31.9,7.87486,24.1368,24.2079,24.1368,31.93,31.9"/>
  </g>
  <g transform="translate(1184.26,534.05)">
   <rect width="31.93" x="0" y="0" fill="#8D8C8C" height="31.9" id="connector7pin"/>
   <rect width="16.4442" x="7.79153" y="7.73544" fill="#8C8663" height="16.4152"/>
   <polygon fill="#B8AF82" points="0,31.9,7.79153,24.1368,7.79153,6.97162,0,0"/>
   <polygon fill="#80795B" points="24.2079,7.76321,7.90264,7.76321,0,0,31.93,0"/>
   <polygon fill="#5E5B43" points="24.2079,24.1368,24.2079,7.76321,31.93,0,31.93,31.9"/>
   <polygon fill="#9A916C" points="0,31.9,7.87486,24.1368,24.2079,24.1368,31.93,31.9"/>
  </g>
  <g transform="translate(1184.26,34.05)">
   <rect width="31.93" x="0" y="0" fill="#8D8C8C" height="31.9" id="connector20pin"/>
   <rect width="16.4442" x="7.79153" y="7.73544" fill="#8C8663" height="16.4152"/>
   <polygon fill="#B8AF82" points="0,31.9,7.79153,24.1368,7.79153,6.97162,0,0"/>
   <polygon fill="#80795B" points="24.2079,7.76321,7.90264,7.76321,0,0,31.93,0"/>
   <polygon fill="#5E5B43" points="24.2079,24.1368,24.2079,7.76321,31.93,0,31.93,31.9"/>
   <polygon fill="#9A916C" points="0,31.9,7.87486,24.1368,24.2079,24.1368,31.93,31.9"/>
  </g>
  <g transform="translate(1284.26,534.05)">
   <rect width="31.93" x="0" y="0" fill="#8D8C8C" height="31.9" id="connector8pin"/>
   <rect width="16.4442" x="7.79153" y="7.73544" fill="#8C8663" height="16.4152"/>
   <polygon fill="#B8AF82" points="0,31.9,7.79153,24.1368,7.79153,6.97162,0,0"/>
   <polygon fill="#80795B" points="24.2079,7.76321,7.90264,7.76321,0,0,31.93,0"/>
   <polygon fill="#5E5B43" points="24.2079,24.1368,24.2079,7.76321,31.93,0,31.93,31.9"/>
   <polygon fill="#9A916C" points="0,31.9,7.87486,24.1368,24.2079,24.1368,31.93,31.9"/>
  </g>
  <g transform="translate(1284.26,34.05)">
   <rect width="31.93" x="0" y="0" fill="#8D8C8C" height="31.9" id="connector19pin"/>
   <rect width="16.4442" x="7.79153" y="7.73544" fill="#8C8663" height="16.4152"/>
   <polygon fill="#B8AF82" points="0,31.9,7.79153,24.1368,7.79153,6.97162,0,0"/>
   <polygon fill="#80795B" points="24.2079,7.76321,7.90264,7.76321,0,0,31.93,0"/>
   <polygon fill="#5E5B43" points="24.2079,24.1368,24.2079,7.76321,31.93,0,31.93,31.9"/>
   <polygon fill="#9A916C" points="0,31.9,7.87486,24.1368,24.2079,24.1368,31.93,31.9"/>
  </g>
  <g transform="translate(1384.26,534.05)">
   <rect width="31.93" x="0" y="0" fill="#8D8C8C" height="31.9" id="connector9pin"/>
   <rect width="16.4442" x="7.79153" y="7.73544" fill="#8C8663" height="16.4152"/>
   <polygon fill="#B8AF82" points="0,31.9,7.79153,24.1368,7.79153,6.97162,0,0"/>
   <polygon fill="#80795B" points="24.2079,7.76321,7.90264,7.76321,0,0,31.93,0"/>
   <polygon fill="#5E5B43" points="24.2079,24.1368,24.2079,7.76321,31.93,0,31.93,31.9"/>
   <polygon fill="#9A916C" points="0,31.9,7.87486,24.1368,24.2079,24.1368,31.93,31.9"/>
  </g>
  <g transform="translate(1384.26,34.05)">
   <rect width="31.93" x="0" y="0" fill="#8D8C8C" height="31.9" id="connector18pin"/>
   <rect width="16.4442" x="7.79153" y="7.73544" fill="#8C8663" height="16.4152"/>
   <polygon fill="#B8AF82" points="0,31.9,7.79153,24.1368,7.79153,6.97162,0,0"/>
   <polygon fill="#80795B" points="24.2079,7.76321,7.90264,7.76321,0,0,31.93,0"/>
   <polygon fill="#5E5B43" points="24.2079,24.1368,24.2079,7.76321,31.93,0,31.93,31.9"/>
   <polygon fill="#9A916C" points="0,31.9,7.87486,24.1368,24.2079,24.1368,31.93,31.9"/>
  </g>
  <g transform="translate(1484.27,534.05)">
   <rect width="31.93" x="0" y="0" fill="#8D8C8C" height="31.9" id="connector10pin"/>
   <rect width="16.4442" x="7.79153" y="7.73544" fill="#8C8663" height="16.4152"/>
   <polygon fill="#B8AF82" points="0,31.9,7.79153,24.1368,7.79153,6.97162,0,0"/>
   <polygon fill="#80795B" points="24.2079,7.76321,7.90264,7.76321,0,0,31.93,0"/>
   <polygon fill="#5E5B43" points="24.2079,24.1368,24.2079,7.76321,31.93,0,31.93,31.9"/>
   <polygon fill="#9A916C" points="0,31.9,7.87486,24.1368,24.2079,24.1368,31.93,31.9"/>
  </g>
  <g transform="translate(1484.27,34.05)">
   <rect width="31.93" x="0" y="0" fill="#8D8C8C" height="31.9" id="connector17pin"/>
   <rect width="16.4442" x="7.79153" y="7.73544" fill="#8C8663" height="16.4152"/>
   <polygon fill="#B8AF82" points="0,31.9,7.79153,24.1368,7.79153,6.97162,0,0"/>
   <polygon fill="#80795B" points="24.2079,7.76321,7.90264,7.76321,0,0,31.93,0"/>
   <polygon fill="#5E5B43" points="24.2079,24.1368,24.2079,7.76321,31.93,0,31.93,31.9"/>
   <polygon fill="#9A916C" points="0,31.9,7.87486,24.1368,24.2079,24.1368,31.93,31.9"/>
  </g>
  <g transform="translate(1584.27,534.05)">
   <rect width="31.93" x="0" y="0" fill="#8D8C8C" height="31.9" id="connector11pin"/>
   <rect width="16.4442" x="7.79153" y="7.73544" fill="#8C8663" height="16.4152"/>
   <polygon fill="#B8AF82" points="0,31.9,7.79153,24.1368,7.79153,6.97162,0,0"/>
   <polygon fill="#80795B" points="24.2079,7.76321,7.90264,7.76321,0,0,31.93,0"/>
   <polygon fill="#5E5B43" points="24.2079,24.1368,24.2079,7.76321,31.93,0,31.93,31.9"/>
   <polygon fill="#9A916C" points="0,31.9,7.87486,24.1368,24.2079,24.1368,31.93,31.9"/>
  </g>
  <g transform="translate(1584.27,34.05)">
   <rect width="31.93" x="0" y="0" fill="#8D8C8C" height="31.9" id="connector16pin"/>
   <rect width="16.4442" x="7.79153" y="7.73544" fill="#8C8663" height="16.4152"/>
   <polygon fill="#B8AF82" points="0,31.9,7.79153,24.1368,7.79153,6.97162,0,0"/>
   <polygon fill="#80795B" points="24.2079,7.76321,7.90264,7.76321,0,0,31.93,0"/>
   <polygon fill="#5E5B43" points="24.2079,24.1368,24.2079,7.76321,31.93,0,31.93,31.9"/>
   <polygon fill="#9A916C" points="0,31.9,7.87486,24.1368,24.2079,24.1368,31.93,31.9"/>
  </g>
  <g transform="translate(1684.27,534.05)">
   <rect width="31.93" x="0" y="0" fill="#8D8C8C" height="31.9" id="connector12pin"/>
   <rect width="16.4442" x="7.79153" y="7.73544" fill="#8C8663" height="16.4152"/>
   <polygon fill="#B8AF82" points="0,31.9,7.79153,24.1368,7.79153,6.97162,0,0"/>
   <polygon fill="#80795B" points="24.2079,7.76321,7.90264,7.76321,0,0,31.93,0"/>
   <polygon fill="#5E5B43" points="24.2079,24.1368,24.2079,7.76321,31.93,0,31.93,31.9"/>
   <polygon fill="#9A916C" points="0,31.9,7.87486,24.1368,24.2079,24.1368,31.93,31.9"/>
  </g>
  <g transform="translate(1684.27,34.05)">
   <rect width="31.93" x="0" y="0" fill="#8D8C8C" height="31.9" id="connector15pin"/>
   <rect width="16.4442" x="7.79153" y="7.73544" fill="#8C8663" height="16.4152"/>
   <polygon fill="#B8AF82" points="0,31.9,7.79153,24.1368,7.79153,6.97162,0,0"/>
   <polygon fill="#80795B" points="24.2079,7.76321,7.90264,7.76321,0,0,31.93,0"/>
   <polygon fill="#5E5B43" points="24.2079,24.1368,24.2079,7.76321,31.93,0,31.93,31.9"/>
   <polygon fill="#9A916C" points="0,31.9,7.87486,24.1368,24.2079,24.1368,31.93,31.9"/>
  </g>
  <g transform="translate(1784.27,534.05)">
   <rect width="31.93" x="0" y="0" fill="#8D8C8C" height="31.9" id="connector13pin"/>
   <rect width="16.4442" x="7.79153" y="7.73544" fill="#8C8663" height="16.4152"/>
   <polygon fill="#B8AF82" points="0,31.9,7.79153,24.1368,7.79153,6.97162,0,0"/>
   <polygon fill="#80795B" points="24.2079,7.76321,7.90264,7.76321,0,0,31.93,0"/>
   <polygon fill="#5E5B43" points="24.2079,24.1368,24.2079,7.76321,31.93,0,31.93,31.9"/>
   <polygon fill="#9A916C" points="0,31.9,7.87486,24.1368,24.2079,24.1368,31.93,31.9"/>
  </g>
  <g transform="translate(1784.27,34.05)">
   <rect width="31.93" x="0" y="0" fill="#8D8C8C" height="31.9" id="connector14pin"/>
   <rect width="16.4442" x="7.79153" y="7.73544" fill="#8C8663" height="16.4152"/>
   <polygon fill="#B8AF82" points="0,31.9,7.79153,24.1368,7.79153,6.97162,0,0"/>
   <polygon fill="#80795B" points="24.2079,7.76321,7.90264,7.76321,0,0,31.93,0"/>
   <polygon fill="#5E5B43" points="24.2079,24.1368,24.2079,7.76321,31.93,0,31.93,31.9"/>
   <polygon fill="#9A916C" points="0,31.9,7.87486,24.1368,24.2079,24.1368,31.93,31.9"/>
  </g>
 </g>
</svg>
