<?xml version='1.0' encoding='utf-8'?>
<!DOCTYPE svg>
<!-- Generator: Adobe Illustrator 15.1.0, SVG Export Plug-In . SVG Version: 6.00 Build 0)  -->
<svg xmlns="http://www.w3.org/2000/svg"  width="0.933in" xml:space="preserve" xmlns:xml="http://www.w3.org/XML/1998/namespace" x="0px" version="1.1" y="0px" height="0.525486in" viewBox="0 0 67.176 37.835" id="0" enable-background="new 0 0 67.176 37.835">
<desc><referenceFile>sparkfun-connectors_computer-peripheral-power_breadboard.svg</referenceFile></desc>

 <rect  width="67.176" fill="#CCCCCC"  height="14.808" id="0.0"/>
 <rect  width="67.176" y="14.808" fill="#E6E6E6"  height="14.808" id="0.1"/>
 <rect  width="67.176" opacity="0.2" y="14.808"  height="0.426" id="0.2"/>
 <g   id="0.3">
  <g   id="0.3.0">
   <path  fill="#E6E6E6"  id="connector0pin" d="M58.162,12.262c0,1.641-1.33,2.972-2.973,2.972c-1.641,0-2.972-1.331-2.972-2.972c0-1.642,2.155-2.973,2.972-2.973S58.162,10.62,58.162,12.262z"/>
   <path  fill="#E6E6E6"  id="0.3.0.1" d="M52.213,25.215h5.334V12.262h-5.329L52.213,25.215L52.213,25.215z"/>
   <path  fill="#808080"  id="0.3.0.2" d="M55.189,9.289c0.816,0,2.357,1.331,2.357,2.973h-0.002v12.953h0.617V12.262C58.162,10.62,56.006,9.289,55.189,9.289z"/>
   <path  opacity="0.2" fill="#FFFFFF"  id="0.3.0.3" d="M55.189,9.289c-0.816,0-2.357,1.331-2.357,2.973h0.002l0.001,12.953h-0.617V12.262C52.218,10.62,54.373,9.289,55.189,9.289z"/>
  </g>
  <g   id="0.3.1">
   <path  fill="#E6E6E6"  id="connector2pin" d="M43.763,12.262c0,1.641-1.33,2.972-2.973,2.972c-1.641,0-2.972-1.331-2.972-2.972c0-1.642,2.155-2.973,2.972-2.973S43.763,10.62,43.763,12.262z"/>
   <path  fill="#E6E6E6"  id="0.3.1.1" d="M37.813,25.215h5.334V12.262h-5.329L37.813,25.215L37.813,25.215z"/>
   <path  fill="#808080"  id="0.3.1.2" d="M40.79,9.289c0.816,0,2.357,1.331,2.357,2.973h-0.002v12.953h0.617V12.262C43.763,10.62,41.606,9.289,40.79,9.289z"/>
   <path  opacity="0.2" fill="#FFFFFF"  id="0.3.1.3" d="M40.79,9.289c-0.816,0-2.357,1.331-2.357,2.973h0.002l0.001,12.953h-0.617V12.262C37.818,10.62,39.974,9.289,40.79,9.289z"/>
  </g>
  <g   id="0.3.2">
   <path  fill="#E6E6E6"  id="connector3pin" d="M29.302,12.262c0,1.641-1.33,2.972-2.973,2.972c-1.641,0-2.972-1.331-2.972-2.972c0-1.642,2.155-2.973,2.972-2.973S29.302,10.62,29.302,12.262z"/>
   <path  fill="#E6E6E6"  id="0.3.2.1" d="M23.353,25.215h5.334V12.262h-5.329L23.353,25.215L23.353,25.215z"/>
   <path  fill="#808080"  id="0.3.2.2" d="M26.33,9.289c0.816,0,2.357,1.331,2.357,2.973h-0.002v12.953h0.617V12.262C29.302,10.62,27.146,9.289,26.33,9.289z"/>
   <path  opacity="0.2" fill="#FFFFFF"  id="0.3.2.3" d="M26.33,9.289c-0.816,0-2.357,1.331-2.357,2.973h0.002l0.001,12.953h-0.617V12.262C23.358,10.62,25.513,9.289,26.33,9.289z"/>
  </g>
  <g   id="0.3.3">
   <path  fill="#E6E6E6"  id="connector1pin" d="M14.963,12.262c0,1.641-1.331,2.972-2.972,2.972s-2.972-1.331-2.972-2.972c0-1.642,2.156-2.973,2.972-2.973S14.963,10.62,14.963,12.262z"/>
   <path  fill="#E6E6E6"  id="0.3.3.1" d="M9.014,25.215h5.334V12.262h-5.33L9.014,25.215L9.014,25.215z"/>
   <path  fill="#808080"  id="0.3.3.2" d="M11.991,9.289c0.816,0,2.357,1.331,2.357,2.973h-0.002l0,12.953h0.617V12.262C14.963,10.62,12.807,9.289,11.991,9.289z"/>
   <path  opacity="0.2" fill="#FFFFFF"  id="0.3.3.3" d="M11.991,9.289c-0.816,0-2.357,1.331-2.357,2.973h0.002l0,12.953H9.019V12.262C9.019,10.62,11.174,9.289,11.991,9.289z"/>
  </g>
 </g>
 <polygon  fill="#CCCCCC" points="61.185,23.965 5.991,23.965 0,18.155 0,32.025 5.991,37.835 61.185,37.835 67.176,32.025 67.176,18.155 "  id="0.4"/>
 <path  fill="#F2F2F2"  id="0.5" d="M0,0v18.155l5.991,5.81h55.193l5.991-5.81V0H0z M66.176,17.732l-5.396,5.232H6.396L1,17.732V1h65.176V17.732z"/>
 <g   id="0.6">
  <circle  fill="none" cx="26.388"  cy="26.016" id="connector3pin_1_" r="3.6"/>
  <circle  fill="none" cx="11.988"  cy="26.016" id="connector1pin_1_" r="3.6"/>
  <circle  fill="none" cx="40.788"  cy="26.016" id="connector2pin_1_" r="3.6"/>
  <circle  fill="none" cx="55.188"  cy="26.016" id="connector0pin_1_" r="3.6"/>
 </g>
 <polygon  fill="#E6E6E6" points="0,18.155 5.991,23.965 5.991,37.835 0,32.025 "  id="0.7"/>
 <polygon  fill="#B3B3B3" points="67.176,18.155 61.185,23.965 61.185,37.835 67.176,32.025 "  id="0.8"/>
 <rect  width="67.176" opacity="0.2" fill="#FFFFFF"  height="0.271" id="0.9"/>
 <polygon  opacity="0.2" points="67.176,18.738 61.185,24.548 5.991,24.548 0,18.738 0,18.155 5.991,23.965 61.185,23.965 67.176,18.155 "  id="0.10"/>
 <polygon  opacity="0.2" points="67.176,32.025 61.185,37.835 5.991,37.835 0,32.025 0,31.442 5.991,37.252 61.185,37.252 67.176,31.442 "  id="0.11"/>
</svg>
