<?xml version='1.0' encoding='UTF-8' standalone='no'?>
<!-- Created with Fritzing (http://www.fritzing.org/) -->
<svg xmlns="http://www.w3.org/2000/svg" width="0.664569in" x="0in" version="1.2" y="0in"  height="1in" viewBox="0 0 664.569 1000" baseProfile="tiny" xmlns:svg="http://www.w3.org/2000/svg">
 <desc>Fritzing breadboard generated by brd2svg</desc>
 <g id="breadboard">
  <g id="icon">
   <path fill="#1F7A34" stroke="none" stroke-width="0" d="M0,0L0,470A30,30 0 0 1 0,530L0,1000L664.569,1000L664.569,0L0,0z"/>
   <g transform="translate(100,147.736)">
    <rect width="464.569" x="-0.0138889" y="232.278" fill="#1A1A1A" height="239.958"/>
    <g id="silkscreen_3_">
     <circle fill="#1A1A1A" cx="232.292" cy="472.236" r="232.292"/>
     <path opacity="0.79" fill="#1A1A1A" enable-background="new    " d="M0,472.236c0,128.278,104,232.292,232.292,232.292c128.292,0,232.306,-103.972,232.306,-232.292l0,-3.66667c0,128.25,-104,232.292,-232.306,232.292C104,700.861,0,596.861,0,468.569"/>
    </g>
    <circle fill="#333333" cx="232.292" cy="232.292" r="232.292"/>
    <path opacity="0.2" fill="#FFFFFF" d="M464.556,236.111c0,-128.292,-103.986,-232.292,-232.278,-232.292C103.972,3.83333,-0.0138889,107.833,-0.0138889,236.111l0,-3.83333C-0.0138889,103.986,103.972,0,232.292,0c128.278,0,232.278,104,232.278,232.292L464.569,236.111z"/>
    <circle fill="#1A1A1A" cx="232.278" cy="232.292" r="25.125"/>
    <path opacity="0.79" enable-background="new    " d="M0,381.958c0,128.278,104,232.292,232.292,232.292c128.292,0,232.306,-103.972,232.306,-232.292l0,-3.66667c0,128.25,-104,232.292,-232.306,232.292C104,610.583,0,506.583,0,378.292"/>
    <path opacity="0.79" enable-background="new    " d="M0,393.542C0,521.792,104,625.833,232.292,625.833c128.292,0,232.306,-104,232.306,-232.292l0,-15.25c0,128.25,-104,232.292,-232.306,232.292C104,610.583,0,506.583,0,378.292"/>
    <path opacity="0.79" enable-background="new    " d="M0,472.236c0,128.278,104,232.292,232.292,232.292c128.292,0,232.306,-103.972,232.306,-232.292l0,-3.66667c0,128.25,-104,232.292,-232.306,232.292C104,700.861,0,596.861,0,468.569"/>
    <path opacity="0.2" fill="#FFFFFF" d="M207.153,233.917c0,13.875,11.25,25.1389,25.125,25.1389s25.125,-11.2639,25.125,-25.1389l0,-1.63889c0,13.8889,-11.25,25.1389,-25.125,25.1389s-25.125,-11.2639,-25.125,-25.1389L207.153,233.917z"/>
    <path opacity="0.79" enable-background="new    " d="M0,235.944c0,128.278,104,232.306,232.292,232.306c128.292,0,232.306,-104,232.306,-232.306l0,-3.66667c0,128.278,-104,232.278,-232.306,232.278C104,464.556,0,360.556,0,232.278"/>
   </g>
  </g>
  <g transform="translate(316.319,934.05)">
   <rect width="31.93" x="0" y="0" fill="#8D8C8C" height="31.9" id="connector0pin"/>
   <rect width="16.4442" x="7.79153" y="7.73544" fill="#8C8663" height="16.4152"/>
   <polygon fill="#B8AF82" points="0,31.9,7.79153,24.1368,7.79153,6.97162,0,0"/>
   <polygon fill="#80795B" points="24.2079,7.76321,7.90264,7.76321,0,0,31.93,0"/>
   <polygon fill="#5E5B43" points="24.2079,24.1368,24.2079,7.76321,31.93,0,31.93,31.9"/>
   <polygon fill="#9A916C" points="0,31.9,7.87486,24.1368,24.2079,24.1368,31.93,31.9"/>
  </g>
  <g transform="translate(316.319,34.05)">
   <rect width="31.93" x="0" y="0" fill="#8D8C8C" height="31.9" id="connector1pin"/>
   <rect width="16.4442" x="7.79153" y="7.73544" fill="#8C8663" height="16.4152"/>
   <polygon fill="#B8AF82" points="0,31.9,7.79153,24.1368,7.79153,6.97162,0,0"/>
   <polygon fill="#80795B" points="24.2079,7.76321,7.90264,7.76321,0,0,31.93,0"/>
   <polygon fill="#5E5B43" points="24.2079,24.1368,24.2079,7.76321,31.93,0,31.93,31.9"/>
   <polygon fill="#9A916C" points="0,31.9,7.87486,24.1368,24.2079,24.1368,31.93,31.9"/>
  </g>
 </g>
</svg>
