<?xml version='1.0' encoding='UTF-8' standalone='no'?>
<!-- Created with Fritzing (http://www.fritzing.org/) -->
<svg xmlns="http://www.w3.org/2000/svg" width="0.333016in" x="0in" version="1.2" y="0in"  height="0.6in" viewBox="0 0 333.016 600" baseProfile="tiny" xmlns:svg="http://www.w3.org/2000/svg">
 <desc>Fritzing breadboard generated by brd2svg</desc>
 <g id="breadboard">
  <g id="icon">
   <path fill="#1F7A34" stroke="none" stroke-width="0" d="M0,0L0,270A30,30 0 0 1 0,330L0,600L333.016,600L333.016,0L0,0z"/>
   <g transform="translate(33.4921,78.435)">
    <g transform="matrix(0.5, 0, 0, 0.5, 66.5079, 110.782)">
     <rect width="62.992" x="11.7559" y="325.02" fill="#8c8c8c" connectorname="1" height="118.11" stroke="none" stroke-linecap="round" stroke-width="0"/>
     <rect width="62.992" x="191.283" y="325.02" fill="#8c8c8c" connectorname="3" height="118.11" stroke="none" stroke-linecap="round" stroke-width="0"/>
     <rect width="190" x="38.0157" y="0" fill="#8c8c8c" connectorname="4" height="225" stroke="none" stroke-linecap="round" stroke-width="0"/>
     <rect width="266.031" x="0" y="80.628" fill="#303030" height="281.874" stroke="none" stroke-width="0"/>
     <polygon fill="#1f1f1f" points="0,80.628 266.031,80.628 256.031,90.628 10,90.628"/>
     <polygon fill="#1f1f1f" points="0,362.502 266.031,362.502 256.031,352.502 10,352.502"/>
     <polygon fill="#000000" points="0,80.628 0,362.502 10,352.502 10,90.628"/>
     <polygon fill="#3d3d3d" points="266.031,80.628 266.031,362.502 256.031,352.502 256.031,90.628"/>
     <circle fill="#1f1f1f" cx="30" cy="332.502" stroke="none" r="10" stroke-width="0"/>
    </g>
   </g>
   <text x="50" y="324.375" font-family="OCRA" fill="white" text-anchor="start" stroke="none" id="label" stroke-width="0" font-size="65">DPAK</text>
   <g transform="translate(130.008,526.05)">
    <g transform="rotate(-90)">
     <text x="0" y="0" font-family="OCRA" fill="white" text-anchor="start" stroke="none" stroke-width="0" font-size="45">1</text>
    </g>
   </g>
   <g transform="translate(230.008,526.05)">
    <g transform="rotate(-90)">
     <text x="0" y="0" font-family="OCRA" fill="white" text-anchor="start" stroke="none" stroke-width="0" font-size="45">3</text>
    </g>
   </g>
   <g transform="translate(230.008,73.95)">
    <g transform="rotate(-90)">
     <text x="0" y="0" font-family="OCRA" fill="white" text-anchor="end" stroke="none" stroke-width="0" font-size="45">4</text>
    </g>
   </g>
  </g>
  <g transform="translate(100.543,534.05)">
   <rect width="31.93" x="0" y="0" fill="#8D8C8C" height="31.9" id="connector0pin"/>
   <rect width="16.4442" x="7.79153" y="7.73544" fill="#8C8663" height="16.4152"/>
   <polygon fill="#B8AF82" points="0,31.9,7.79153,24.1368,7.79153,6.97162,0,0"/>
   <polygon fill="#80795B" points="24.2079,7.76321,7.90264,7.76321,0,0,31.93,0"/>
   <polygon fill="#5E5B43" points="24.2079,24.1368,24.2079,7.76321,31.93,0,31.93,31.9"/>
   <polygon fill="#9A916C" points="0,31.9,7.87486,24.1368,24.2079,24.1368,31.93,31.9"/>
  </g>
  <g transform="translate(200.543,534.05)">
   <rect width="31.93" x="0" y="0" fill="#8D8C8C" height="31.9" id="connector1pin"/>
   <rect width="16.4442" x="7.79153" y="7.73544" fill="#8C8663" height="16.4152"/>
   <polygon fill="#B8AF82" points="0,31.9,7.79153,24.1368,7.79153,6.97162,0,0"/>
   <polygon fill="#80795B" points="24.2079,7.76321,7.90264,7.76321,0,0,31.93,0"/>
   <polygon fill="#5E5B43" points="24.2079,24.1368,24.2079,7.76321,31.93,0,31.93,31.9"/>
   <polygon fill="#9A916C" points="0,31.9,7.87486,24.1368,24.2079,24.1368,31.93,31.9"/>
  </g>
  <g transform="translate(200.543,34.05)">
   <rect width="31.93" x="0" y="0" fill="#8D8C8C" height="31.9" id="connector2pin"/>
   <rect width="16.4442" x="7.79153" y="7.73544" fill="#8C8663" height="16.4152"/>
   <polygon fill="#B8AF82" points="0,31.9,7.79153,24.1368,7.79153,6.97162,0,0"/>
   <polygon fill="#80795B" points="24.2079,7.76321,7.90264,7.76321,0,0,31.93,0"/>
   <polygon fill="#5E5B43" points="24.2079,24.1368,24.2079,7.76321,31.93,0,31.93,31.9"/>
   <polygon fill="#9A916C" points="0,31.9,7.87486,24.1368,24.2079,24.1368,31.93,31.9"/>
  </g>
 </g>
</svg>
