<?xml version='1.0' encoding='UTF-8' standalone='no'?>
<!-- Created with Fritzing (http://www.fritzing.org/) -->
<svg xmlns="http://www.w3.org/2000/svg" width="2.34021in" x="0in" version="1.2" y="0in"  height="1.2in" viewBox="0 0 2340.21 1200" baseProfile="tiny" xmlns:svg="http://www.w3.org/2000/svg">
 <desc>Fritzing breadboard generated by brd2svg</desc>
 <g id="breadboard">
  <g id="icon">
   <path fill="#1F7A34" stroke="none" stroke-width="0" d="M0,0L0,570A30,30 0 0 1 0,630L0,1200L2340.21,1200L2340.21,0L0,0z"/>
   <g transform="translate(100,105.368)">
    <g id="breadboard">
     <g>
      <path fill="#C62717" d="M0,0l0,989.264l2052.25,0L2052.25,0L0,0zM159.972,888.333c-32.6111,0,-59.0556,-26.4444,-59.0556,-59.0556c0,-32.625,26.4444,-59.0556,59.0556,-59.0556c32.625,0,59.0556,26.4306,59.0556,59.0556C219.028,861.875,192.597,888.333,159.972,888.333zM159.972,219.028c-32.6111,0,-59.0556,-26.4306,-59.0556,-59.0556c0,-32.6111,26.4444,-59.0556,59.0556,-59.0556c32.625,0,59.0556,26.4444,59.0556,59.0556C219.028,192.597,192.597,219.028,159.972,219.028zM376.903,936.792c-0.0138889,11.0972,-9,20.0694,-20.0972,20.0556c-11.0833,-0.0138889,-20.0694,-9,-20.0556,-20.0972c0,-11.0972,8.98611,-20.0694,20.0833,-20.0694c11.0833,0,20.0694,8.97222,20.0694,20.0694C376.903,936.764,376.903,936.778,376.903,936.792zM376.903,836.792c-0.0138889,11.0972,-9,20.0694,-20.0972,20.0556c-11.0833,-0.0138889,-20.0694,-9,-20.0556,-20.0972c0,-11.0833,8.98611,-20.0694,20.0833,-20.0694c11.0833,0,20.0694,8.98611,20.0694,20.0694C376.903,836.764,376.903,836.778,376.903,836.792zM376.903,152.542c-0.0138889,11.0833,-9,20.0556,-20.0972,20.0556c-11.0833,-0.0138889,-20.0694,-9.01389,-20.0556,-20.0972c0,-11.0972,8.98611,-20.0833,20.0833,-20.0833c11.0833,0,20.0694,8.98611,20.0694,20.0833C376.903,152.514,376.903,152.528,376.903,152.542zM376.903,52.5417c-0.0138889,11.0972,-9,20.0694,-20.0972,20.0556c-11.0833,-0.0138889,-20.0694,-9,-20.0556,-20.0972c0,-11.0972,8.98611,-20.0694,20.0833,-20.0694c11.0833,0,20.0694,8.97222,20.0694,20.0694C376.903,52.5139,376.903,52.5278,376.903,52.5417zM456.819,956.819c-11.0833,0,-20.0694,-8.97222,-20.0694,-20.0694s8.98611,-20.0694,20.0694,-20.0694c11.0972,0,20.0833,8.97222,20.0833,20.0694S467.917,956.819,456.819,956.819zM456.819,856.833c-11.0833,0,-20.0694,-8.98611,-20.0694,-20.0833c0,-11.0833,8.98611,-20.0694,20.0694,-20.0694c11.0972,0,20.0833,8.98611,20.0833,20.0694C476.917,847.847,467.917,856.833,456.819,856.833zM456.819,172.583c-11.0833,0,-20.0694,-8.98611,-20.0694,-20.0694c0,-11.0972,8.98611,-20.0833,20.0694,-20.0833c11.0972,0,20.0833,8.98611,20.0833,20.0833C476.917,163.583,467.917,172.583,456.819,172.583zM456.819,72.5694c-11.0833,0,-20.0694,-8.97222,-20.0694,-20.0694s8.98611,-20.0694,20.0694,-20.0694c11.0972,0,20.0833,8.97222,20.0833,20.0694S467.917,72.5694,456.819,72.5694zM576.917,936.792c-0.0138889,11.0972,-9.01389,20.0694,-20.0972,20.0556c-11.0972,-0.0138889,-20.0694,-9,-20.0556,-20.0972c0,-11.0972,8.98611,-20.0694,20.0694,-20.0694c11.0972,0,20.0833,8.97222,20.0833,20.0694C576.917,936.764,576.917,936.778,576.917,936.792zM576.917,836.792c-0.0138889,11.0972,-9.01389,20.0694,-20.0972,20.0556c-11.0972,-0.0138889,-20.0694,-9,-20.0556,-20.0972c0,-11.0833,8.98611,-20.0694,20.0694,-20.0694c11.0972,0,20.0833,8.98611,20.0833,20.0694C576.917,836.764,576.917,836.778,576.917,836.792zM576.917,152.542c-0.0138889,11.0833,-9.01389,20.0556,-20.0972,20.0556c-11.0972,-0.0138889,-20.0694,-9.01389,-20.0556,-20.0972c0,-11.0972,8.98611,-20.0833,20.0694,-20.0833c11.0972,0,20.0833,8.98611,20.0833,20.0833C576.917,152.514,576.917,152.528,576.917,152.542zM576.917,52.5417c-0.0138889,11.0972,-9.01389,20.0694,-20.0972,20.0556c-11.0972,-0.0138889,-20.0694,-9,-20.0556,-20.0972c0,-11.0972,8.98611,-20.0694,20.0694,-20.0694c11.0972,0,20.0833,8.97222,20.0833,20.0694C576.917,52.5139,576.917,52.5278,576.917,52.5417zM656.833,956.819c-11.0972,0,-20.0694,-8.97222,-20.0694,-20.0694s8.97222,-20.0694,20.0694,-20.0694s20.0694,8.97222,20.0694,20.0694S667.931,956.819,656.833,956.819zM656.833,856.833c-11.0972,0,-20.0694,-8.98611,-20.0694,-20.0833c0,-11.0833,8.97222,-20.0694,20.0694,-20.0694s20.0694,8.98611,20.0694,20.0694C676.903,847.847,667.931,856.833,656.833,856.833zM656.833,172.583c-11.0972,0,-20.0694,-8.98611,-20.0694,-20.0694c0,-11.0972,8.97222,-20.0833,20.0694,-20.0833s20.0694,8.98611,20.0694,20.0833C676.903,163.583,667.931,172.583,656.833,172.583zM656.833,72.5694c-11.0972,0,-20.0694,-8.97222,-20.0694,-20.0694s8.97222,-20.0694,20.0694,-20.0694s20.0694,8.97222,20.0694,20.0694S667.931,72.5694,656.833,72.5694zM756.833,956.819c-11.0972,0,-20.0833,-8.97222,-20.0833,-20.0694s8.98611,-20.0694,20.0833,-20.0694c11.0833,0,20.0694,8.97222,20.0694,20.0694S767.917,956.819,756.833,956.819zM756.833,856.833c-11.0972,0,-20.0833,-8.98611,-20.0833,-20.0833c0,-11.0833,8.98611,-20.0694,20.0833,-20.0694c11.0833,0,20.0694,8.98611,20.0694,20.0694C776.903,847.847,767.917,856.833,756.833,856.833zM756.833,172.583c-11.0972,0,-20.0833,-8.98611,-20.0833,-20.0694c0,-11.0972,8.98611,-20.0833,20.0833,-20.0833c11.0833,0,20.0694,8.98611,20.0694,20.0833C776.903,163.583,767.917,172.583,756.833,172.583zM756.833,72.5694c-11.0972,0,-20.0833,-8.97222,-20.0833,-20.0694s8.98611,-20.0694,20.0833,-20.0694c11.0833,0,20.0694,8.97222,20.0694,20.0694S767.917,72.5694,756.833,72.5694zM856.833,956.819c-11.0972,0,-20.0833,-8.97222,-20.0833,-20.0694s8.98611,-20.0694,20.0833,-20.0694c11.0833,0,20.0694,8.97222,20.0694,20.0694S867.917,956.819,856.833,956.819zM856.833,856.833c-11.0972,0,-20.0833,-8.98611,-20.0833,-20.0833c0,-11.0833,8.98611,-20.0694,20.0833,-20.0694c11.0833,0,20.0694,8.98611,20.0694,20.0694C876.903,847.847,867.917,856.833,856.833,856.833zM856.833,172.583c-11.0972,0,-20.0833,-8.98611,-20.0833,-20.0694c0,-11.0972,8.98611,-20.0833,20.0833,-20.0833c11.0833,0,20.0694,8.98611,20.0694,20.0833C876.903,163.583,867.917,172.583,856.833,172.583zM856.833,72.5694c-11.0972,0,-20.0833,-8.97222,-20.0833,-20.0694s8.98611,-20.0694,20.0833,-20.0694c11.0833,0,20.0694,8.97222,20.0694,20.0694S867.917,72.5694,856.833,72.5694zM956.819,956.819c-11.0833,0,-20.0694,-8.97222,-20.0694,-20.0694s8.98611,-20.0694,20.0694,-20.0694c11.0972,0,20.0833,8.97222,20.0833,20.0694S967.917,956.819,956.819,956.819zM956.819,856.833c-11.0833,0,-20.0694,-8.98611,-20.0694,-20.0833c0,-11.0833,8.98611,-20.0694,20.0694,-20.0694c11.0972,0,20.0833,8.98611,20.0833,20.0694C976.917,847.847,967.917,856.833,956.819,856.833zM956.819,172.583c-11.0833,0,-20.0694,-8.98611,-20.0694,-20.0694c0,-11.0972,8.98611,-20.0833,20.0694,-20.0833c11.0972,0,20.0833,8.98611,20.0833,20.0833C976.917,163.583,967.917,172.583,956.819,172.583zM956.819,72.5694c-11.0833,0,-20.0694,-8.97222,-20.0694,-20.0694s8.98611,-20.0694,20.0694,-20.0694c11.0972,0,20.0833,8.97222,20.0833,20.0694S967.917,72.5694,956.819,72.5694zM1056.83,956.819c-11.0833,0,-20.0694,-8.97222,-20.0694,-20.0694s8.98611,-20.0694,20.0694,-20.0694c11.0972,0,20.0694,8.97222,20.0694,20.0694S1067.92,956.819,1056.83,956.819zM1056.83,856.833c-11.0833,0,-20.0694,-8.98611,-20.0694,-20.0833c0,-11.0833,8.98611,-20.0694,20.0694,-20.0694c11.0972,0,20.0694,8.98611,20.0694,20.0694C1076.9,847.847,1067.92,856.833,1056.83,856.833zM1056.83,172.583c-11.0833,0,-20.0694,-8.98611,-20.0694,-20.0694c0,-11.0972,8.98611,-20.0833,20.0694,-20.0833c11.0972,0,20.0694,8.98611,20.0694,20.0833C1076.9,163.583,1067.92,172.583,1056.83,172.583zM1056.83,72.5694c-11.0833,0,-20.0694,-8.97222,-20.0694,-20.0694s8.98611,-20.0694,20.0694,-20.0694c11.0972,0,20.0694,8.97222,20.0694,20.0694S1067.92,72.5694,1056.83,72.5694zM1156.83,956.819c-11.0972,0,-20.0694,-8.97222,-20.0694,-20.0694s8.97222,-20.0694,20.0694,-20.0694c11.0833,0,20.0694,8.97222,20.0694,20.0694S1167.92,956.819,1156.83,956.819zM1156.83,856.833c-11.0972,0,-20.0694,-8.98611,-20.0694,-20.0833c0,-11.0833,8.97222,-20.0694,20.0694,-20.0694c11.0833,0,20.0694,8.98611,20.0694,20.0694C1176.9,847.847,1167.92,856.833,1156.83,856.833zM1156.83,172.583c-11.0972,0,-20.0694,-8.98611,-20.0694,-20.0694c0,-11.0972,8.97222,-20.0833,20.0694,-20.0833c11.0833,0,20.0694,8.98611,20.0694,20.0833C1176.9,163.583,1167.92,172.583,1156.83,172.583zM1156.83,72.5694c-11.0972,0,-20.0694,-8.97222,-20.0694,-20.0694s8.97222,-20.0694,20.0694,-20.0694c11.0833,0,20.0694,8.97222,20.0694,20.0694S1167.92,72.5694,1156.83,72.5694zM1276.9,936.819c-0.0138889,11.0972,-9.01389,20.0556,-20.1111,20.0417c-11.0833,-0.0138889,-20.0556,-9.01389,-20.0417,-20.1111c0,-11.0972,8.98611,-20.0694,20.0833,-20.0694c11.0833,0,20.0694,8.97222,20.0694,20.0694C1276.9,936.778,1276.9,936.792,1276.9,936.819zM1276.9,836.819c-0.0138889,11.0972,-9.01389,20.0556,-20.1111,20.0417c-11.0833,-0.0138889,-20.0556,-9.01389,-20.0417,-20.1111c0,-11.0833,8.98611,-20.0694,20.0833,-20.0694c11.0833,0,20.0694,8.98611,20.0694,20.0694C1276.9,836.778,1276.9,836.806,1276.9,836.819zM1276.9,152.569c-0.0138889,11.0833,-9.01389,20.0556,-20.1111,20.0417c-11.0833,-0.0277778,-20.0556,-9.02778,-20.0417,-20.1111c0,-11.0972,8.98611,-20.0833,20.0833,-20.0833c11.0833,0,20.0694,8.98611,20.0694,20.0833C1276.9,152.514,1276.9,152.542,1276.9,152.569zM1276.9,52.5694c-0.0138889,11.0972,-9.01389,20.0556,-20.1111,20.0417c-11.0833,-0.0138889,-20.0556,-9.01389,-20.0417,-20.1111c0,-11.0972,8.98611,-20.0694,20.0833,-20.0694c11.0833,0,20.0694,8.97222,20.0694,20.0694C1276.9,52.5278,1276.9,52.5417,1276.9,52.5694z"/>
     </g>
    </g>
    <g>
     <g>
      <g>
       <g>
        <polygon fill="#404040" points="1228.56,102.528,1206.83,124.236,1206.83,180.806,1228.56,202.514,1285.11,202.514,1306.86,180.806,1306.86,124.236,1285.11,102.528"/>
       </g>
       <g>
        <rect width="31.9028" x="1240.9" y="136.542" fill="#8D8C8C" height="31.9444"/>
       </g>
       <g>
        <rect width="16.4306" x="1248.64" y="144.292" fill="#8C8663" height="16.4444"/>
       </g>
       <g>
        <polygon fill="#B8AF82" points="1240.9,136.542,1248.64,144.292,1265.04,144.292,1272.78,136.542"/>
       </g>
       <g>
        <polygon fill="#80795B" points="1265.04,160.708,1265.04,144.292,1272.78,136.542,1272.78,168.486"/>
       </g>
       <g>
        <polygon fill="#5E5B43" points="1248.64,160.708,1265.04,160.708,1272.78,168.486,1240.9,168.486"/>
       </g>
       <g>
        <polygon fill="#9A916C" points="1240.9,136.542,1248.64,144.292,1248.64,160.708,1240.9,168.486"/>
       </g>
      </g>
      <g>
       <g>
        <polygon fill="#404040" points="1128.56,102.528,1106.83,124.236,1106.83,180.806,1128.56,202.514,1185.11,202.514,1206.85,180.806,1206.85,124.236,1185.11,102.528"/>
       </g>
       <g>
        <rect width="31.9028" x="1140.9" y="136.542" fill="#8D8C8C" height="31.9444"/>
       </g>
       <g>
        <rect width="16.4306" x="1148.64" y="144.292" fill="#8C8663" height="16.4444"/>
       </g>
       <g>
        <polygon fill="#B8AF82" points="1140.9,136.542,1148.64,144.292,1165.04,144.292,1172.78,136.542"/>
       </g>
       <g>
        <polygon fill="#80795B" points="1165.04,160.708,1165.04,144.292,1172.78,136.542,1172.78,168.486"/>
       </g>
       <g>
        <polygon fill="#5E5B43" points="1148.64,160.708,1165.04,160.708,1172.78,168.486,1140.9,168.486"/>
       </g>
       <g>
        <polygon fill="#9A916C" points="1140.9,136.542,1148.64,144.292,1148.64,160.708,1140.9,168.486"/>
       </g>
      </g>
      <g>
       <g>
        <polygon fill="#404040" points="1028.56,102.528,1006.83,124.236,1006.83,180.806,1028.56,202.514,1085.11,202.514,1106.85,180.806,1106.85,124.236,1085.11,102.528"/>
       </g>
       <g>
        <rect width="31.9028" x="1040.9" y="136.542" fill="#8D8C8C" height="31.9444"/>
       </g>
       <g>
        <rect width="16.4306" x="1048.64" y="144.292" fill="#8C8663" height="16.4444"/>
       </g>
       <g>
        <polygon fill="#B8AF82" points="1040.9,136.542,1048.64,144.292,1065.03,144.292,1072.78,136.542"/>
       </g>
       <g>
        <polygon fill="#80795B" points="1065.03,160.708,1065.03,144.292,1072.78,136.542,1072.78,168.486"/>
       </g>
       <g>
        <polygon fill="#5E5B43" points="1048.64,160.708,1065.03,160.708,1072.78,168.486,1040.9,168.486"/>
       </g>
       <g>
        <polygon fill="#9A916C" points="1040.9,136.542,1048.64,144.292,1048.64,160.708,1040.9,168.486"/>
       </g>
      </g>
      <g>
       <g>
        <polygon fill="#404040" points="928.556,102.528,906.833,124.236,906.833,180.806,928.556,202.514,985.111,202.514,1006.85,180.806,1006.85,124.236,985.111,102.528"/>
       </g>
       <g>
        <rect width="31.9028" x="940.903" y="136.542" fill="#8D8C8C" height="31.9444"/>
       </g>
       <g>
        <rect width="16.4306" x="948.639" y="144.292" fill="#8C8663" height="16.4444"/>
       </g>
       <g>
        <polygon fill="#B8AF82" points="940.903,136.542,948.639,144.292,965.042,144.292,972.778,136.542"/>
       </g>
       <g>
        <polygon fill="#80795B" points="965.042,160.708,965.042,144.292,972.778,136.542,972.778,168.486"/>
       </g>
       <g>
        <polygon fill="#5E5B43" points="948.639,160.708,965.042,160.708,972.778,168.486,940.903,168.486"/>
       </g>
       <g>
        <polygon fill="#9A916C" points="940.903,136.542,948.639,144.292,948.639,160.708,940.903,168.486"/>
       </g>
      </g>
      <g>
       <g>
        <polygon fill="#404040" points="828.556,102.528,806.833,124.236,806.833,180.806,828.556,202.514,885.111,202.514,906.847,180.806,906.847,124.236,885.111,102.528"/>
       </g>
       <g>
        <rect width="31.9028" x="840.903" y="136.542" fill="#8D8C8C" height="31.9444"/>
       </g>
       <g>
        <rect width="16.4306" x="848.639" y="144.292" fill="#8C8663" height="16.4444"/>
       </g>
       <g>
        <polygon fill="#B8AF82" points="840.903,136.542,848.639,144.292,865.028,144.292,872.778,136.542"/>
       </g>
       <g>
        <polygon fill="#80795B" points="865.028,160.708,865.028,144.292,872.778,136.542,872.778,168.486"/>
       </g>
       <g>
        <polygon fill="#5E5B43" points="848.639,160.708,865.028,160.708,872.778,168.486,840.903,168.486"/>
       </g>
       <g>
        <polygon fill="#9A916C" points="840.903,136.542,848.639,144.292,848.639,160.708,840.903,168.486"/>
       </g>
      </g>
      <g>
       <g>
        <polygon fill="#404040" points="728.542,102.528,706.833,124.236,706.833,180.806,728.542,202.514,785.111,202.514,806.847,180.806,806.847,124.236,785.111,102.528"/>
       </g>
       <g>
        <rect width="31.9028" x="740.903" y="136.542" fill="#8D8C8C" height="31.9444"/>
       </g>
       <g>
        <rect width="16.4306" x="748.639" y="144.292" fill="#8C8663" height="16.4444"/>
       </g>
       <g>
        <polygon fill="#B8AF82" points="740.903,136.542,748.639,144.292,765.028,144.292,772.778,136.542"/>
       </g>
       <g>
        <polygon fill="#80795B" points="765.028,160.708,765.028,144.292,772.778,136.542,772.778,168.486"/>
       </g>
       <g>
        <polygon fill="#5E5B43" points="748.639,160.708,765.028,160.708,772.778,168.486,740.903,168.486"/>
       </g>
       <g>
        <polygon fill="#9A916C" points="740.903,136.542,748.639,144.292,748.639,160.708,740.903,168.486"/>
       </g>
      </g>
      <g>
       <g>
        <polygon fill="#404040" points="628.542,102.528,606.833,124.236,606.833,180.806,628.542,202.514,685.097,202.514,706.847,180.806,706.847,124.236,685.097,102.528"/>
       </g>
       <g>
        <rect width="31.9028" x="640.903" y="136.542" fill="#8D8C8C" height="31.9444"/>
       </g>
       <g>
        <rect width="16.4306" x="648.625" y="144.292" fill="#8C8663" height="16.4444"/>
       </g>
       <g>
        <polygon fill="#B8AF82" points="640.903,136.542,648.625,144.292,665.028,144.292,672.778,136.542"/>
       </g>
       <g>
        <polygon fill="#80795B" points="665.028,160.708,665.028,144.292,672.778,136.542,672.778,168.486"/>
       </g>
       <g>
        <polygon fill="#5E5B43" points="648.625,160.708,665.028,160.708,672.778,168.486,640.903,168.486"/>
       </g>
       <g>
        <polygon fill="#9A916C" points="640.903,136.542,648.625,144.292,648.625,160.708,640.903,168.486"/>
       </g>
      </g>
      <g>
       <g>
        <polygon fill="#404040" points="528.542,102.528,506.819,124.236,506.819,180.806,528.542,202.514,585.097,202.514,606.847,180.806,606.847,124.236,585.097,102.528"/>
       </g>
       <g>
        <rect width="31.9028" x="540.903" y="136.542" fill="#8D8C8C" height="31.9444"/>
       </g>
       <g>
        <rect width="16.4306" x="548.625" y="144.292" fill="#8C8663" height="16.4444"/>
       </g>
       <g>
        <polygon fill="#B8AF82" points="540.903,136.542,548.625,144.292,565.028,144.292,572.778,136.542"/>
       </g>
       <g>
        <polygon fill="#80795B" points="565.028,160.708,565.028,144.292,572.778,136.542,572.778,168.486"/>
       </g>
       <g>
        <polygon fill="#5E5B43" points="548.625,160.708,565.028,160.708,572.778,168.486,540.903,168.486"/>
       </g>
       <g>
        <polygon fill="#9A916C" points="540.903,136.542,548.625,144.292,548.625,160.708,540.903,168.486"/>
       </g>
      </g>
      <g>
       <g>
        <polygon fill="#404040" points="428.542,102.528,406.819,124.236,406.819,180.806,428.542,202.514,485.097,202.514,506.833,180.806,506.833,124.236,485.097,102.528"/>
       </g>
       <g>
        <rect width="31.9028" x="440.889" y="136.542" fill="#8D8C8C" height="31.9444"/>
       </g>
       <g>
        <rect width="16.4306" x="448.625" y="144.292" fill="#8C8663" height="16.4444"/>
       </g>
       <g>
        <polygon fill="#B8AF82" points="440.889,136.542,448.625,144.292,465.028,144.292,472.764,136.542"/>
       </g>
       <g>
        <polygon fill="#80795B" points="465.028,160.708,465.028,144.292,472.764,136.542,472.764,168.486"/>
       </g>
       <g>
        <polygon fill="#5E5B43" points="448.625,160.708,465.028,160.708,472.764,168.486,440.889,168.486"/>
       </g>
       <g>
        <polygon fill="#9A916C" points="440.889,136.542,448.625,144.292,448.625,160.708,440.889,168.486"/>
       </g>
      </g>
      <g>
       <g>
        <polygon fill="#404040" points="328.542,102.528,306.819,124.236,306.819,180.806,328.542,202.514,385.097,202.514,406.833,180.806,406.833,124.236,385.097,102.528"/>
       </g>
       <g>
        <rect width="31.9028" x="340.889" y="136.542" fill="#8D8C8C" height="31.9444"/>
       </g>
       <g>
        <rect width="16.4306" x="348.625" y="144.292" fill="#8C8663" height="16.4444"/>
       </g>
       <g>
        <polygon fill="#B8AF82" points="340.889,136.542,348.625,144.292,365.014,144.292,372.764,136.542"/>
       </g>
       <g>
        <polygon fill="#80795B" points="365.014,160.708,365.014,144.292,372.764,136.542,372.764,168.486"/>
       </g>
       <g>
        <polygon fill="#5E5B43" points="348.625,160.708,365.014,160.708,372.764,168.486,340.889,168.486"/>
       </g>
       <g>
        <polygon fill="#9A916C" points="340.889,136.542,348.625,144.292,348.625,160.708,340.889,168.486"/>
       </g>
      </g>
     </g>
     <g>
      <g>
       <g>
        <polygon fill="#404040" points="1228.56,2.51389,1206.83,24.2361,1206.83,80.8056,1228.56,102.514,1285.11,102.514,1306.86,80.8056,1306.86,24.2361,1285.11,2.51389"/>
       </g>
       <g>
        <rect width="31.9028" x="1240.9" y="36.5417" fill="#8D8C8C" height="31.9444"/>
       </g>
       <g>
        <rect width="16.4306" x="1248.64" y="44.2917" fill="#8C8663" height="16.4444"/>
       </g>
       <g>
        <polygon fill="#B8AF82" points="1240.9,36.5417,1248.64,44.2917,1265.04,44.2917,1272.78,36.5417"/>
       </g>
       <g>
        <polygon fill="#80795B" points="1265.04,60.7083,1265.04,44.2917,1272.78,36.5417,1272.78,68.4722"/>
       </g>
       <g>
        <polygon fill="#5E5B43" points="1248.64,60.7083,1265.04,60.7083,1272.78,68.4722,1240.9,68.4722"/>
       </g>
       <g>
        <polygon fill="#9A916C" points="1240.9,36.5417,1248.64,44.2917,1248.64,60.7083,1240.9,68.4722"/>
       </g>
      </g>
      <g>
       <g>
        <polygon fill="#404040" points="1128.56,2.51389,1106.83,24.2361,1106.83,80.8056,1128.56,102.514,1185.11,102.514,1206.85,80.8056,1206.85,24.2361,1185.11,2.51389"/>
       </g>
       <g>
        <rect width="31.9028" x="1140.9" y="36.5417" fill="#8D8C8C" height="31.9444"/>
       </g>
       <g>
        <rect width="16.4306" x="1148.64" y="44.2917" fill="#8C8663" height="16.4444"/>
       </g>
       <g>
        <polygon fill="#B8AF82" points="1140.9,36.5417,1148.64,44.2917,1165.04,44.2917,1172.78,36.5417"/>
       </g>
       <g>
        <polygon fill="#80795B" points="1165.04,60.7083,1165.04,44.2917,1172.78,36.5417,1172.78,68.4722"/>
       </g>
       <g>
        <polygon fill="#5E5B43" points="1148.64,60.7083,1165.04,60.7083,1172.78,68.4722,1140.9,68.4722"/>
       </g>
       <g>
        <polygon fill="#9A916C" points="1140.9,36.5417,1148.64,44.2917,1148.64,60.7083,1140.9,68.4722"/>
       </g>
      </g>
      <g>
       <g>
        <polygon fill="#404040" points="1028.56,2.51389,1006.83,24.2361,1006.83,80.8056,1028.56,102.514,1085.11,102.514,1106.85,80.8056,1106.85,24.2361,1085.11,2.51389"/>
       </g>
       <g>
        <rect width="31.9028" x="1040.9" y="36.5417" fill="#8D8C8C" height="31.9444"/>
       </g>
       <g>
        <rect width="16.4306" x="1048.64" y="44.2917" fill="#8C8663" height="16.4444"/>
       </g>
       <g>
        <polygon fill="#B8AF82" points="1040.9,36.5417,1048.64,44.2917,1065.03,44.2917,1072.78,36.5417"/>
       </g>
       <g>
        <polygon fill="#80795B" points="1065.03,60.7083,1065.03,44.2917,1072.78,36.5417,1072.78,68.4722"/>
       </g>
       <g>
        <polygon fill="#5E5B43" points="1048.64,60.7083,1065.03,60.7083,1072.78,68.4722,1040.9,68.4722"/>
       </g>
       <g>
        <polygon fill="#9A916C" points="1040.9,36.5417,1048.64,44.2917,1048.64,60.7083,1040.9,68.4722"/>
       </g>
      </g>
      <g>
       <g>
        <polygon fill="#404040" points="928.556,2.51389,906.833,24.2361,906.833,80.8056,928.556,102.514,985.111,102.514,1006.85,80.8056,1006.85,24.2361,985.111,2.51389"/>
       </g>
       <g>
        <rect width="31.9028" x="940.903" y="36.5417" fill="#8D8C8C" height="31.9444"/>
       </g>
       <g>
        <rect width="16.4306" x="948.639" y="44.2917" fill="#8C8663" height="16.4444"/>
       </g>
       <g>
        <polygon fill="#B8AF82" points="940.903,36.5417,948.639,44.2917,965.042,44.2917,972.778,36.5417"/>
       </g>
       <g>
        <polygon fill="#80795B" points="965.042,60.7083,965.042,44.2917,972.778,36.5417,972.778,68.4722"/>
       </g>
       <g>
        <polygon fill="#5E5B43" points="948.639,60.7083,965.042,60.7083,972.778,68.4722,940.903,68.4722"/>
       </g>
       <g>
        <polygon fill="#9A916C" points="940.903,36.5417,948.639,44.2917,948.639,60.7083,940.903,68.4722"/>
       </g>
      </g>
      <g>
       <g>
        <polygon fill="#404040" points="828.556,2.51389,806.833,24.2361,806.833,80.8056,828.556,102.514,885.111,102.514,906.847,80.8056,906.847,24.2361,885.111,2.51389"/>
       </g>
       <g>
        <rect width="31.9028" x="840.903" y="36.5417" fill="#8D8C8C" height="31.9444"/>
       </g>
       <g>
        <rect width="16.4306" x="848.639" y="44.2917" fill="#8C8663" height="16.4444"/>
       </g>
       <g>
        <polygon fill="#B8AF82" points="840.903,36.5417,848.639,44.2917,865.028,44.2917,872.778,36.5417"/>
       </g>
       <g>
        <polygon fill="#80795B" points="865.028,60.7083,865.028,44.2917,872.778,36.5417,872.778,68.4722"/>
       </g>
       <g>
        <polygon fill="#5E5B43" points="848.639,60.7083,865.028,60.7083,872.778,68.4722,840.903,68.4722"/>
       </g>
       <g>
        <polygon fill="#9A916C" points="840.903,36.5417,848.639,44.2917,848.639,60.7083,840.903,68.4722"/>
       </g>
      </g>
      <g>
       <g>
        <polygon fill="#404040" points="728.542,2.51389,706.833,24.2361,706.833,80.8056,728.542,102.514,785.111,102.514,806.847,80.8056,806.847,24.2361,785.111,2.51389"/>
       </g>
       <g>
        <rect width="31.9028" x="740.903" y="36.5417" fill="#8D8C8C" height="31.9444"/>
       </g>
       <g>
        <rect width="16.4306" x="748.639" y="44.2917" fill="#8C8663" height="16.4444"/>
       </g>
       <g>
        <polygon fill="#B8AF82" points="740.903,36.5417,748.639,44.2917,765.028,44.2917,772.778,36.5417"/>
       </g>
       <g>
        <polygon fill="#80795B" points="765.028,60.7083,765.028,44.2917,772.778,36.5417,772.778,68.4722"/>
       </g>
       <g>
        <polygon fill="#5E5B43" points="748.639,60.7083,765.028,60.7083,772.778,68.4722,740.903,68.4722"/>
       </g>
       <g>
        <polygon fill="#9A916C" points="740.903,36.5417,748.639,44.2917,748.639,60.7083,740.903,68.4722"/>
       </g>
      </g>
      <g>
       <g>
        <polygon fill="#404040" points="628.542,2.51389,606.833,24.2361,606.833,80.8056,628.542,102.514,685.097,102.514,706.847,80.8056,706.847,24.2361,685.097,2.51389"/>
       </g>
       <g>
        <rect width="31.9028" x="640.903" y="36.5417" fill="#8D8C8C" height="31.9444"/>
       </g>
       <g>
        <rect width="16.4306" x="648.625" y="44.2917" fill="#8C8663" height="16.4444"/>
       </g>
       <g>
        <polygon fill="#B8AF82" points="640.903,36.5417,648.625,44.2917,665.028,44.2917,672.778,36.5417"/>
       </g>
       <g>
        <polygon fill="#80795B" points="665.028,60.7083,665.028,44.2917,672.778,36.5417,672.778,68.4722"/>
       </g>
       <g>
        <polygon fill="#5E5B43" points="648.625,60.7083,665.028,60.7083,672.778,68.4722,640.903,68.4722"/>
       </g>
       <g>
        <polygon fill="#9A916C" points="640.903,36.5417,648.625,44.2917,648.625,60.7083,640.903,68.4722"/>
       </g>
      </g>
      <g>
       <g>
        <polygon fill="#404040" points="528.542,2.51389,506.819,24.2361,506.819,80.8056,528.542,102.514,585.097,102.514,606.847,80.8056,606.847,24.2361,585.097,2.51389"/>
       </g>
       <g>
        <rect width="31.9028" x="540.903" y="36.5417" fill="#8D8C8C" height="31.9444"/>
       </g>
       <g>
        <rect width="16.4306" x="548.625" y="44.2917" fill="#8C8663" height="16.4444"/>
       </g>
       <g>
        <polygon fill="#B8AF82" points="540.903,36.5417,548.625,44.2917,565.028,44.2917,572.778,36.5417"/>
       </g>
       <g>
        <polygon fill="#80795B" points="565.028,60.7083,565.028,44.2917,572.778,36.5417,572.778,68.4722"/>
       </g>
       <g>
        <polygon fill="#5E5B43" points="548.625,60.7083,565.028,60.7083,572.778,68.4722,540.903,68.4722"/>
       </g>
       <g>
        <polygon fill="#9A916C" points="540.903,36.5417,548.625,44.2917,548.625,60.7083,540.903,68.4722"/>
       </g>
      </g>
      <g>
       <g>
        <polygon fill="#404040" points="428.542,2.51389,406.819,24.2361,406.819,80.8056,428.542,102.514,485.097,102.514,506.833,80.8056,506.833,24.2361,485.097,2.51389"/>
       </g>
       <g>
        <rect width="31.9028" x="440.889" y="36.5417" fill="#8D8C8C" height="31.9444"/>
       </g>
       <g>
        <rect width="16.4306" x="448.625" y="44.2917" fill="#8C8663" height="16.4444"/>
       </g>
       <g>
        <polygon fill="#B8AF82" points="440.889,36.5417,448.625,44.2917,465.028,44.2917,472.764,36.5417"/>
       </g>
       <g>
        <polygon fill="#80795B" points="465.028,60.7083,465.028,44.2917,472.764,36.5417,472.764,68.4722"/>
       </g>
       <g>
        <polygon fill="#5E5B43" points="448.625,60.7083,465.028,60.7083,472.764,68.4722,440.889,68.4722"/>
       </g>
       <g>
        <polygon fill="#9A916C" points="440.889,36.5417,448.625,44.2917,448.625,60.7083,440.889,68.4722"/>
       </g>
      </g>
      <g>
       <g>
        <polygon fill="#404040" points="328.542,2.51389,306.819,24.2361,306.819,80.8056,328.542,102.514,385.097,102.514,406.833,80.8056,406.833,24.2361,385.097,2.51389"/>
       </g>
       <g>
        <rect width="31.9028" x="340.889" y="36.5417" fill="#8D8C8C" height="31.9444"/>
       </g>
       <g>
        <rect width="16.4306" x="348.625" y="44.2917" fill="#8C8663" height="16.4444"/>
       </g>
       <g>
        <polygon fill="#B8AF82" points="340.889,36.5417,348.625,44.2917,365.014,44.2917,372.764,36.5417"/>
       </g>
       <g>
        <polygon fill="#80795B" points="365.014,60.7083,365.014,44.2917,372.764,36.5417,372.764,68.4722"/>
       </g>
       <g>
        <polygon fill="#5E5B43" points="348.625,60.7083,365.014,60.7083,372.764,68.4722,340.889,68.4722"/>
       </g>
       <g>
        <polygon fill="#9A916C" points="340.889,36.5417,348.625,44.2917,348.625,60.7083,340.889,68.4722"/>
       </g>
      </g>
     </g>
    </g>
    <g>
     <g>
      <g>
       <g>
        <polygon fill="#404040" points="1228.56,886.764,1206.83,908.486,1206.83,965.056,1228.56,986.764,1285.11,986.764,1306.86,965.056,1306.86,908.486,1285.11,886.764"/>
       </g>
       <g>
        <rect width="31.9028" x="1240.9" y="920.792" fill="#8D8C8C" height="31.9444"/>
       </g>
       <g>
        <rect width="16.4306" x="1248.64" y="928.542" fill="#8C8663" height="16.4444"/>
       </g>
       <g>
        <polygon fill="#B8AF82" points="1240.9,920.792,1248.64,928.542,1265.04,928.542,1272.78,920.792"/>
       </g>
       <g>
        <polygon fill="#80795B" points="1265.04,944.958,1265.04,928.542,1272.78,920.792,1272.78,952.722"/>
       </g>
       <g>
        <polygon fill="#5E5B43" points="1248.64,944.958,1265.04,944.958,1272.78,952.722,1240.9,952.722"/>
       </g>
       <g>
        <polygon fill="#9A916C" points="1240.9,920.792,1248.64,928.542,1248.64,944.958,1240.9,952.722"/>
       </g>
      </g>
      <g>
       <g>
        <polygon fill="#404040" points="1128.56,886.764,1106.83,908.486,1106.83,965.056,1128.56,986.764,1185.11,986.764,1206.85,965.056,1206.85,908.486,1185.11,886.764"/>
       </g>
       <g>
        <rect width="31.9028" x="1140.9" y="920.792" fill="#8D8C8C" height="31.9444"/>
       </g>
       <g>
        <rect width="16.4306" x="1148.64" y="928.542" fill="#8C8663" height="16.4444"/>
       </g>
       <g>
        <polygon fill="#B8AF82" points="1140.9,920.792,1148.64,928.542,1165.04,928.542,1172.78,920.792"/>
       </g>
       <g>
        <polygon fill="#80795B" points="1165.04,944.958,1165.04,928.542,1172.78,920.792,1172.78,952.722"/>
       </g>
       <g>
        <polygon fill="#5E5B43" points="1148.64,944.958,1165.04,944.958,1172.78,952.722,1140.9,952.722"/>
       </g>
       <g>
        <polygon fill="#9A916C" points="1140.9,920.792,1148.64,928.542,1148.64,944.958,1140.9,952.722"/>
       </g>
      </g>
      <g>
       <g>
        <polygon fill="#404040" points="1028.56,886.764,1006.83,908.486,1006.83,965.056,1028.56,986.764,1085.11,986.764,1106.85,965.056,1106.85,908.486,1085.11,886.764"/>
       </g>
       <g>
        <rect width="31.9028" x="1040.9" y="920.792" fill="#8D8C8C" height="31.9444"/>
       </g>
       <g>
        <rect width="16.4306" x="1048.64" y="928.542" fill="#8C8663" height="16.4444"/>
       </g>
       <g>
        <polygon fill="#B8AF82" points="1040.9,920.792,1048.64,928.542,1065.03,928.542,1072.78,920.792"/>
       </g>
       <g>
        <polygon fill="#80795B" points="1065.03,944.958,1065.03,928.542,1072.78,920.792,1072.78,952.722"/>
       </g>
       <g>
        <polygon fill="#5E5B43" points="1048.64,944.958,1065.03,944.958,1072.78,952.722,1040.9,952.722"/>
       </g>
       <g>
        <polygon fill="#9A916C" points="1040.9,920.792,1048.64,928.542,1048.64,944.958,1040.9,952.722"/>
       </g>
      </g>
      <g>
       <g>
        <polygon fill="#404040" points="928.556,886.764,906.833,908.486,906.833,965.056,928.556,986.764,985.111,986.764,1006.85,965.056,1006.85,908.486,985.111,886.764"/>
       </g>
       <g>
        <rect width="31.9028" x="940.903" y="920.792" fill="#8D8C8C" height="31.9444"/>
       </g>
       <g>
        <rect width="16.4306" x="948.639" y="928.542" fill="#8C8663" height="16.4444"/>
       </g>
       <g>
        <polygon fill="#B8AF82" points="940.903,920.792,948.639,928.542,965.042,928.542,972.778,920.792"/>
       </g>
       <g>
        <polygon fill="#80795B" points="965.042,944.958,965.042,928.542,972.778,920.792,972.778,952.722"/>
       </g>
       <g>
        <polygon fill="#5E5B43" points="948.639,944.958,965.042,944.958,972.778,952.722,940.903,952.722"/>
       </g>
       <g>
        <polygon fill="#9A916C" points="940.903,920.792,948.639,928.542,948.639,944.958,940.903,952.722"/>
       </g>
      </g>
      <g>
       <g>
        <polygon fill="#404040" points="828.556,886.764,806.833,908.486,806.833,965.056,828.556,986.764,885.111,986.764,906.847,965.056,906.847,908.486,885.111,886.764"/>
       </g>
       <g>
        <rect width="31.9028" x="840.903" y="920.792" fill="#8D8C8C" height="31.9444"/>
       </g>
       <g>
        <rect width="16.4306" x="848.639" y="928.542" fill="#8C8663" height="16.4444"/>
       </g>
       <g>
        <polygon fill="#B8AF82" points="840.903,920.792,848.639,928.542,865.028,928.542,872.778,920.792"/>
       </g>
       <g>
        <polygon fill="#80795B" points="865.028,944.958,865.028,928.542,872.778,920.792,872.778,952.722"/>
       </g>
       <g>
        <polygon fill="#5E5B43" points="848.639,944.958,865.028,944.958,872.778,952.722,840.903,952.722"/>
       </g>
       <g>
        <polygon fill="#9A916C" points="840.903,920.792,848.639,928.542,848.639,944.958,840.903,952.722"/>
       </g>
      </g>
      <g>
       <g>
        <polygon fill="#404040" points="728.542,886.764,706.833,908.486,706.833,965.056,728.542,986.764,785.111,986.764,806.847,965.056,806.847,908.486,785.111,886.764"/>
       </g>
       <g>
        <rect width="31.9028" x="740.903" y="920.792" fill="#8D8C8C" height="31.9444"/>
       </g>
       <g>
        <rect width="16.4306" x="748.639" y="928.542" fill="#8C8663" height="16.4444"/>
       </g>
       <g>
        <polygon fill="#B8AF82" points="740.903,920.792,748.639,928.542,765.028,928.542,772.778,920.792"/>
       </g>
       <g>
        <polygon fill="#80795B" points="765.028,944.958,765.028,928.542,772.778,920.792,772.778,952.722"/>
       </g>
       <g>
        <polygon fill="#5E5B43" points="748.639,944.958,765.028,944.958,772.778,952.722,740.903,952.722"/>
       </g>
       <g>
        <polygon fill="#9A916C" points="740.903,920.792,748.639,928.542,748.639,944.958,740.903,952.722"/>
       </g>
      </g>
      <g>
       <g>
        <polygon fill="#404040" points="628.542,886.764,606.833,908.486,606.833,965.056,628.542,986.764,685.097,986.764,706.847,965.056,706.847,908.486,685.097,886.764"/>
       </g>
       <g>
        <rect width="31.9028" x="640.903" y="920.792" fill="#8D8C8C" height="31.9444"/>
       </g>
       <g>
        <rect width="16.4306" x="648.625" y="928.542" fill="#8C8663" height="16.4444"/>
       </g>
       <g>
        <polygon fill="#B8AF82" points="640.903,920.792,648.625,928.542,665.028,928.542,672.778,920.792"/>
       </g>
       <g>
        <polygon fill="#80795B" points="665.028,944.958,665.028,928.542,672.778,920.792,672.778,952.722"/>
       </g>
       <g>
        <polygon fill="#5E5B43" points="648.625,944.958,665.028,944.958,672.778,952.722,640.903,952.722"/>
       </g>
       <g>
        <polygon fill="#9A916C" points="640.903,920.792,648.625,928.542,648.625,944.958,640.903,952.722"/>
       </g>
      </g>
      <g>
       <g>
        <polygon fill="#404040" points="528.542,886.764,506.819,908.486,506.819,965.056,528.542,986.764,585.097,986.764,606.847,965.056,606.847,908.486,585.097,886.764"/>
       </g>
       <g>
        <rect width="31.9028" x="540.903" y="920.792" fill="#8D8C8C" height="31.9444"/>
       </g>
       <g>
        <rect width="16.4306" x="548.625" y="928.542" fill="#8C8663" height="16.4444"/>
       </g>
       <g>
        <polygon fill="#B8AF82" points="540.903,920.792,548.625,928.542,565.028,928.542,572.778,920.792"/>
       </g>
       <g>
        <polygon fill="#80795B" points="565.028,944.958,565.028,928.542,572.778,920.792,572.778,952.722"/>
       </g>
       <g>
        <polygon fill="#5E5B43" points="548.625,944.958,565.028,944.958,572.778,952.722,540.903,952.722"/>
       </g>
       <g>
        <polygon fill="#9A916C" points="540.903,920.792,548.625,928.542,548.625,944.958,540.903,952.722"/>
       </g>
      </g>
      <g>
       <g>
        <polygon fill="#404040" points="428.542,886.764,406.819,908.486,406.819,965.056,428.542,986.764,485.097,986.764,506.833,965.056,506.833,908.486,485.097,886.764"/>
       </g>
       <g>
        <rect width="31.9028" x="440.889" y="920.792" fill="#8D8C8C" height="31.9444"/>
       </g>
       <g>
        <rect width="16.4306" x="448.625" y="928.542" fill="#8C8663" height="16.4444"/>
       </g>
       <g>
        <polygon fill="#B8AF82" points="440.889,920.792,448.625,928.542,465.028,928.542,472.764,920.792"/>
       </g>
       <g>
        <polygon fill="#80795B" points="465.028,944.958,465.028,928.542,472.764,920.792,472.764,952.722"/>
       </g>
       <g>
        <polygon fill="#5E5B43" points="448.625,944.958,465.028,944.958,472.764,952.722,440.889,952.722"/>
       </g>
       <g>
        <polygon fill="#9A916C" points="440.889,920.792,448.625,928.542,448.625,944.958,440.889,952.722"/>
       </g>
      </g>
      <g>
       <g>
        <polygon fill="#404040" points="328.542,886.764,306.819,908.486,306.819,965.056,328.542,986.764,385.097,986.764,406.833,965.056,406.833,908.486,385.097,886.764"/>
       </g>
       <g>
        <rect width="31.9028" x="340.889" y="920.792" fill="#8D8C8C" height="31.9444"/>
       </g>
       <g>
        <rect width="16.4306" x="348.625" y="928.542" fill="#8C8663" height="16.4444"/>
       </g>
       <g>
        <polygon fill="#B8AF82" points="340.889,920.792,348.625,928.542,365.014,928.542,372.764,920.792"/>
       </g>
       <g>
        <polygon fill="#80795B" points="365.014,944.958,365.014,928.542,372.764,920.792,372.764,952.722"/>
       </g>
       <g>
        <polygon fill="#5E5B43" points="348.625,944.958,365.014,944.958,372.764,952.722,340.889,952.722"/>
       </g>
       <g>
        <polygon fill="#9A916C" points="340.889,920.792,348.625,928.542,348.625,944.958,340.889,952.722"/>
       </g>
      </g>
     </g>
     <g>
      <g>
       <g>
        <polygon fill="#404040" points="1228.56,786.764,1206.83,808.486,1206.83,865.056,1228.56,886.75,1285.11,886.75,1306.86,865.056,1306.86,808.486,1285.11,786.764"/>
       </g>
       <g>
        <rect width="31.9028" x="1240.9" y="820.778" fill="#8D8C8C" height="31.9444"/>
       </g>
       <g>
        <rect width="16.4306" x="1248.64" y="828.542" fill="#8C8663" height="16.4444"/>
       </g>
       <g>
        <polygon fill="#B8AF82" points="1240.9,820.778,1248.64,828.542,1265.04,828.542,1272.78,820.778"/>
       </g>
       <g>
        <polygon fill="#80795B" points="1265.04,844.958,1265.04,828.542,1272.78,820.778,1272.78,852.722"/>
       </g>
       <g>
        <polygon fill="#5E5B43" points="1248.64,844.958,1265.04,844.958,1272.78,852.722,1240.9,852.722"/>
       </g>
       <g>
        <polygon fill="#9A916C" points="1240.9,820.778,1248.64,828.542,1248.64,844.958,1240.9,852.722"/>
       </g>
      </g>
      <g>
       <g>
        <polygon fill="#404040" points="1128.56,786.764,1106.83,808.486,1106.83,865.056,1128.56,886.75,1185.11,886.75,1206.85,865.056,1206.85,808.486,1185.11,786.764"/>
       </g>
       <g>
        <rect width="31.9028" x="1140.9" y="820.778" fill="#8D8C8C" height="31.9444"/>
       </g>
       <g>
        <rect width="16.4306" x="1148.64" y="828.542" fill="#8C8663" height="16.4444"/>
       </g>
       <g>
        <polygon fill="#B8AF82" points="1140.9,820.778,1148.64,828.542,1165.04,828.542,1172.78,820.778"/>
       </g>
       <g>
        <polygon fill="#80795B" points="1165.04,844.958,1165.04,828.542,1172.78,820.778,1172.78,852.722"/>
       </g>
       <g>
        <polygon fill="#5E5B43" points="1148.64,844.958,1165.04,844.958,1172.78,852.722,1140.9,852.722"/>
       </g>
       <g>
        <polygon fill="#9A916C" points="1140.9,820.778,1148.64,828.542,1148.64,844.958,1140.9,852.722"/>
       </g>
      </g>
      <g>
       <g>
        <polygon fill="#404040" points="1028.56,786.764,1006.83,808.486,1006.83,865.056,1028.56,886.75,1085.11,886.75,1106.85,865.056,1106.85,808.486,1085.11,786.764"/>
       </g>
       <g>
        <rect width="31.9028" x="1040.9" y="820.778" fill="#8D8C8C" height="31.9444"/>
       </g>
       <g>
        <rect width="16.4306" x="1048.64" y="828.542" fill="#8C8663" height="16.4444"/>
       </g>
       <g>
        <polygon fill="#B8AF82" points="1040.9,820.778,1048.64,828.542,1065.03,828.542,1072.78,820.778"/>
       </g>
       <g>
        <polygon fill="#80795B" points="1065.03,844.958,1065.03,828.542,1072.78,820.778,1072.78,852.722"/>
       </g>
       <g>
        <polygon fill="#5E5B43" points="1048.64,844.958,1065.03,844.958,1072.78,852.722,1040.9,852.722"/>
       </g>
       <g>
        <polygon fill="#9A916C" points="1040.9,820.778,1048.64,828.542,1048.64,844.958,1040.9,852.722"/>
       </g>
      </g>
      <g>
       <g>
        <polygon fill="#404040" points="928.556,786.764,906.833,808.486,906.833,865.056,928.556,886.75,985.111,886.75,1006.85,865.056,1006.85,808.486,985.111,786.764"/>
       </g>
       <g>
        <rect width="31.9028" x="940.903" y="820.778" fill="#8D8C8C" height="31.9444"/>
       </g>
       <g>
        <rect width="16.4306" x="948.639" y="828.542" fill="#8C8663" height="16.4444"/>
       </g>
       <g>
        <polygon fill="#B8AF82" points="940.903,820.778,948.639,828.542,965.042,828.542,972.778,820.778"/>
       </g>
       <g>
        <polygon fill="#80795B" points="965.042,844.958,965.042,828.542,972.778,820.778,972.778,852.722"/>
       </g>
       <g>
        <polygon fill="#5E5B43" points="948.639,844.958,965.042,844.958,972.778,852.722,940.903,852.722"/>
       </g>
       <g>
        <polygon fill="#9A916C" points="940.903,820.778,948.639,828.542,948.639,844.958,940.903,852.722"/>
       </g>
      </g>
      <g>
       <g>
        <polygon fill="#404040" points="828.556,786.764,806.833,808.486,806.833,865.056,828.556,886.75,885.111,886.75,906.847,865.056,906.847,808.486,885.111,786.764"/>
       </g>
       <g>
        <rect width="31.9028" x="840.903" y="820.778" fill="#8D8C8C" height="31.9444"/>
       </g>
       <g>
        <rect width="16.4306" x="848.639" y="828.542" fill="#8C8663" height="16.4444"/>
       </g>
       <g>
        <polygon fill="#B8AF82" points="840.903,820.778,848.639,828.542,865.028,828.542,872.778,820.778"/>
       </g>
       <g>
        <polygon fill="#80795B" points="865.028,844.958,865.028,828.542,872.778,820.778,872.778,852.722"/>
       </g>
       <g>
        <polygon fill="#5E5B43" points="848.639,844.958,865.028,844.958,872.778,852.722,840.903,852.722"/>
       </g>
       <g>
        <polygon fill="#9A916C" points="840.903,820.778,848.639,828.542,848.639,844.958,840.903,852.722"/>
       </g>
      </g>
      <g>
       <g>
        <polygon fill="#404040" points="728.542,786.764,706.833,808.486,706.833,865.056,728.542,886.75,785.111,886.75,806.847,865.056,806.847,808.486,785.111,786.764"/>
       </g>
       <g>
        <rect width="31.9028" x="740.903" y="820.778" fill="#8D8C8C" height="31.9444"/>
       </g>
       <g>
        <rect width="16.4306" x="748.639" y="828.542" fill="#8C8663" height="16.4444"/>
       </g>
       <g>
        <polygon fill="#B8AF82" points="740.903,820.778,748.639,828.542,765.028,828.542,772.778,820.778"/>
       </g>
       <g>
        <polygon fill="#80795B" points="765.028,844.958,765.028,828.542,772.778,820.778,772.778,852.722"/>
       </g>
       <g>
        <polygon fill="#5E5B43" points="748.639,844.958,765.028,844.958,772.778,852.722,740.903,852.722"/>
       </g>
       <g>
        <polygon fill="#9A916C" points="740.903,820.778,748.639,828.542,748.639,844.958,740.903,852.722"/>
       </g>
      </g>
      <g>
       <g>
        <polygon fill="#404040" points="628.542,786.764,606.833,808.486,606.833,865.056,628.542,886.75,685.097,886.75,706.847,865.056,706.847,808.486,685.097,786.764"/>
       </g>
       <g>
        <rect width="31.9028" x="640.903" y="820.778" fill="#8D8C8C" height="31.9444"/>
       </g>
       <g>
        <rect width="16.4306" x="648.625" y="828.542" fill="#8C8663" height="16.4444"/>
       </g>
       <g>
        <polygon fill="#B8AF82" points="640.903,820.778,648.625,828.542,665.028,828.542,672.778,820.778"/>
       </g>
       <g>
        <polygon fill="#80795B" points="665.028,844.958,665.028,828.542,672.778,820.778,672.778,852.722"/>
       </g>
       <g>
        <polygon fill="#5E5B43" points="648.625,844.958,665.028,844.958,672.778,852.722,640.903,852.722"/>
       </g>
       <g>
        <polygon fill="#9A916C" points="640.903,820.778,648.625,828.542,648.625,844.958,640.903,852.722"/>
       </g>
      </g>
      <g>
       <g>
        <polygon fill="#404040" points="528.542,786.764,506.819,808.486,506.819,865.056,528.542,886.75,585.097,886.75,606.847,865.056,606.847,808.486,585.097,786.764"/>
       </g>
       <g>
        <rect width="31.9028" x="540.903" y="820.778" fill="#8D8C8C" height="31.9444"/>
       </g>
       <g>
        <rect width="16.4306" x="548.625" y="828.542" fill="#8C8663" height="16.4444"/>
       </g>
       <g>
        <polygon fill="#B8AF82" points="540.903,820.778,548.625,828.542,565.028,828.542,572.778,820.778"/>
       </g>
       <g>
        <polygon fill="#80795B" points="565.028,844.958,565.028,828.542,572.778,820.778,572.778,852.722"/>
       </g>
       <g>
        <polygon fill="#5E5B43" points="548.625,844.958,565.028,844.958,572.778,852.722,540.903,852.722"/>
       </g>
       <g>
        <polygon fill="#9A916C" points="540.903,820.778,548.625,828.542,548.625,844.958,540.903,852.722"/>
       </g>
      </g>
      <g>
       <g>
        <polygon fill="#404040" points="428.542,786.764,406.819,808.486,406.819,865.056,428.542,886.75,485.097,886.75,506.833,865.056,506.833,808.486,485.097,786.764"/>
       </g>
       <g>
        <rect width="31.9028" x="440.889" y="820.778" fill="#8D8C8C" height="31.9444"/>
       </g>
       <g>
        <rect width="16.4306" x="448.625" y="828.542" fill="#8C8663" height="16.4444"/>
       </g>
       <g>
        <polygon fill="#B8AF82" points="440.889,820.778,448.625,828.542,465.028,828.542,472.764,820.778"/>
       </g>
       <g>
        <polygon fill="#80795B" points="465.028,844.958,465.028,828.542,472.764,820.778,472.764,852.722"/>
       </g>
       <g>
        <polygon fill="#5E5B43" points="448.625,844.958,465.028,844.958,472.764,852.722,440.889,852.722"/>
       </g>
       <g>
        <polygon fill="#9A916C" points="440.889,820.778,448.625,828.542,448.625,844.958,440.889,852.722"/>
       </g>
      </g>
      <g>
       <g>
        <polygon fill="#404040" points="328.542,786.764,306.819,808.486,306.819,865.056,328.542,886.75,385.097,886.75,406.833,865.056,406.833,808.486,385.097,786.764"/>
       </g>
       <g>
        <rect width="31.9028" x="340.889" y="820.778" fill="#8D8C8C" height="31.9444"/>
       </g>
       <g>
        <rect width="16.4306" x="348.625" y="828.542" fill="#8C8663" height="16.4444"/>
       </g>
       <g>
        <polygon fill="#B8AF82" points="340.889,820.778,348.625,828.542,365.014,828.542,372.764,820.778"/>
       </g>
       <g>
        <polygon fill="#80795B" points="365.014,844.958,365.014,828.542,372.764,820.778,372.764,852.722"/>
       </g>
       <g>
        <polygon fill="#5E5B43" points="348.625,844.958,365.014,844.958,372.764,852.722,340.889,852.722"/>
       </g>
       <g>
        <polygon fill="#9A916C" points="340.889,820.778,348.625,828.542,348.625,844.958,340.889,852.722"/>
       </g>
      </g>
     </g>
    </g>
    <g>
     <g>
      <title>element:U1</title>
      <g>
       <title>package:LQFP-80</title>
       <g>
        <g>
         <path fill="#FFFFFF" d="M1031.12,303.708L676.792,303.708c-1.93056,0,-3.5,-1.56944,-3.5,-3.5s1.56944,-3.5,3.5,-3.5l354.333,0c1.93056,0,3.5,1.56944,3.5,3.5S1033.06,303.708,1031.12,303.708z"/>
        </g>
       </g>
       <g>
        <g>
         <path fill="#FFFFFF" d="M657.097,677.736c-1.93056,0,-3.5,-1.55556,-3.5,-3.5L653.597,319.889c0,-1.93056,1.56944,-3.5,3.5,-3.5s3.5,1.56944,3.5,3.5l0,354.347C660.597,676.167,659.028,677.736,657.097,677.736z"/>
        </g>
       </g>
       <g>
        <g>
         <path fill="#FFFFFF" d="M1031.12,697.403L676.792,697.403c-1.93056,0,-3.5,-1.55556,-3.5,-3.5s1.56944,-3.5,3.5,-3.5l354.333,0c1.93056,0,3.5,1.55556,3.5,3.5S1033.06,697.403,1031.12,697.403z"/>
        </g>
       </g>
       <g>
        <g>
         <path fill="#FFFFFF" d="M1031.12,697.403l0,-7c8.93056,0,16.1806,-7.25,16.1806,-16.1667l7,0C1054.31,687.014,1043.9,697.403,1031.12,697.403z"/>
        </g>
       </g>
       <g>
        <g>
         <path fill="#FFFFFF" d="M1050.81,677.736c-1.94444,0,-3.5,-1.55556,-3.5,-3.5L1047.31,319.889c0,-1.93056,1.55556,-3.5,3.5,-3.5s3.5,1.56944,3.5,3.5l0,354.347C1054.31,676.167,1052.75,677.736,1050.81,677.736z"/>
        </g>
       </g>
       <g>
        <g>
         <path fill="#FFFFFF" d="M1054.31,319.889l-7,0c0,-8.93056,-7.25,-16.1806,-16.1806,-16.1806l0,-7C1043.9,296.708,1054.31,307.111,1054.31,319.889z"/>
        </g>
       </g>
       <g>
        <g>
         <path fill="#FFFFFF" d="M660.597,319.889l-7,0c0,-6.19444,2.41667,-12.0139,6.79167,-16.4028c4.375,-4.375,10.1944,-6.77778,16.3889,-6.77778c0,0,0.0138889,0,0.0138889,0l0,7c0,0,0,0,-0.0138889,0c-4.31944,0,-8.38889,1.68056,-11.4444,4.73611C662.278,311.5,660.597,315.556,660.597,319.889z"/>
        </g>
       </g>
       <g>
        <g>
         <path fill="#FFFFFF" d="M676.792,697.403c-12.7917,0,-23.1944,-10.3889,-23.1944,-23.1667l7,0c0,8.91667,7.26389,16.1667,16.1944,16.1667L676.792,697.403z"/>
        </g>
       </g>
       <g>
        <g>
         <path fill="#FFFFFF" d="M696.472,359.306c-10.8889,0,-19.7361,-8.84722,-19.7361,-19.7222c0,-10.8889,8.84722,-19.7361,19.7361,-19.7361c10.875,0,19.7222,8.84722,19.7222,19.7361C716.194,350.458,707.347,359.306,696.472,359.306zM696.472,326.833c-7.01389,0,-12.7361,5.72222,-12.7361,12.7361s5.72222,12.7361,12.7361,12.7361c7.01389,0,12.7222,-5.70833,12.7222,-12.7361S703.486,326.833,696.472,326.833z"/>
        </g>
       </g>
      </g>
     </g>
     <g>
      <g>
       <rect width="393.708" x="657.097" y="300.208" fill="#333333" height="393.694"/>
      </g>
     </g>
    </g>
    <g>
     <rect width="177.083" x="312.583" y="272.403" fill="#333333" height="446.181"/>
    </g>
    <g>
     <rect width="177.083" x="312.583" y="272.403" fill="#333333" height="446.181"/>
    </g>
    <g>
     <g>
      <path fill="#FFFFFF" d="M491.403,720.319l-180.556,0L310.847,270.667l180.556,0L491.403,720.319zM314.319,716.847l173.611,0L487.931,274.139l-173.611,0L314.319,716.847z"/>
     </g>
    </g>
    <g>
     <path fill="#7A7A7A" d="M479.722,637.972c0,30.5556,-25,55.5556,-55.5556,55.5556l-46.0833,0c-30.5556,0,-55.5556,-25,-55.5556,-55.5556L322.528,353.014c0,-30.5556,25,-55.5556,55.5556,-55.5556l46.0833,0c30.5556,0,55.5556,25,55.5556,55.5556L479.722,637.972z"/>
    </g>
    <g>
     <path fill="#CCCCCC" d="M473.597,622.556c0,30.5556,-25,55.5556,-55.5556,55.5556l-33.8611,0c-30.5556,0,-55.5556,-25,-55.5556,-55.5556L328.625,368.431c0,-30.5556,25,-55.5556,55.5556,-55.5556l33.8611,0c30.5556,0,55.5556,25,55.5556,55.5556L473.597,622.556z"/>
    </g>
    <g>
     <path fill="#FFFFFF" d="M1375.94,969.556c-2.06944,0,-3.29167,-0.416667,-3.72222,-2.61111l-0.138889,0c-0.416667,2.19444,-1.63889,2.61111,-3.72222,2.61111l-4.58333,0c-2.125,0,-2.68056,-0.361111,-3.72222,-2.19444l-2.13889,-3.73611c-0.791667,-1.33333,-0.847222,-1.45833,-0.847222,-3.11111l0,-35.4028c0,-1.95833,0.847222,-3.05556,3.04167,-3.05556s3.06944,1.09722,3.06944,3.05556l0,35.4028l1.63889,2.93056l2.61111,0l1.65278,-2.93056l0,-19.2222c0,-1.90278,0.861111,-3.61111,3.05556,-3.61111s3.05556,1.70833,3.05556,3.61111l0,19.2222l1.65278,2.93056l2.61111,0l1.63889,-2.93056l0,-35.4028c0,-1.95833,0.875,-3.05556,3.06944,-3.05556s3.04167,1.09722,3.04167,3.05556l0,35.4028c0,1.63889,-0.0555556,1.77778,-0.847222,3.11111l-2.13889,3.73611c-1.02778,1.83333,-1.58333,2.19444,-3.72222,2.19444L1375.94,969.556z"/>
     <path fill="#FFFFFF" d="M1419.13,963.458l8.97222,0c1.56944,0,3.04167,0.861111,3.04167,3.05556s-1.45833,3.05556,-3.04167,3.05556l-24.0556,0c-1.56944,0,-3.04167,-0.861111,-3.04167,-3.05556s1.45833,-3.05556,3.04167,-3.05556l8.97222,0l0,-35.2778l-8.97222,0c-1.56944,0,-3.04167,-0.861111,-3.04167,-3.05556s1.45833,-3.05556,3.04167,-3.05556l24.0556,0c1.56944,0,3.04167,0.861111,3.04167,3.05556s-1.45833,3.05556,-3.04167,3.05556l-8.97222,0L1419.13,963.458z"/>
     <path fill="#FFFFFF" d="M1475.07,926.042l-21.9028,37.4167l18.8611,0c1.56944,0,3.04167,0.861111,3.04167,3.05556s-1.45833,3.05556,-3.04167,3.05556l-27.0972,0l0,-3.83333l21.8333,-37.5417l-18.8056,0c-1.56944,0,-3.04167,-0.861111,-3.04167,-3.05556s1.45833,-3.05556,3.04167,-3.05556l27.0972,0L1475.06,926.042z"/>
     <path fill="#FFFFFF" d="M1509.85,922.069c2.05556,0,3.04167,1.45833,3.04167,3.05556l0,17.6528c1.90278,0,3.36111,0.666667,4.45833,1.70833c1.09722,1.02778,1.63889,2.55556,1.63889,4.44444l0,14.5278c0,3.73611,-2.30556,6.09722,-6.09722,6.09722l-17.9306,0c-3.79167,0,-6.09722,-2.375,-6.09722,-6.09722l0,-14.5278c0,-1.90278,0.541667,-3.41667,1.63889,-4.44444c1.09722,-1.04167,2.56944,-1.70833,4.45833,-1.70833l0,-17.6528c0,-1.58333,0.972222,-3.05556,3.04167,-3.05556L1509.85,922.069zM1512.88,963.458l0,-14.5833l-17.9306,0l0,14.5833L1512.88,963.458zM1506.78,942.778l0,-14.5972l-5.72222,0l0,14.5972L1506.78,942.778z"/>
     <path fill="#FFFFFF" d="M1556.81,963.458l0,-12.3333c0,-1.76389,0.805556,-3.05556,3.06944,-3.05556c2.25,0,3.04167,1.29167,3.04167,3.05556l0,15.375c0,2.19444,-1.45833,3.05556,-3.04167,3.05556l-24.0556,0c-1.56944,0,-3.04167,-0.861111,-3.04167,-3.05556s1.45833,-3.05556,3.04167,-3.05556l8.97222,0l0,-35.2778l-8.97222,0c-1.56944,0,-3.04167,-0.861111,-3.04167,-3.05556s1.45833,-3.05556,3.04167,-3.05556l15.0833,0l0,41.375L1556.81,963.431z"/>
     <path fill="#FFFFFF" d="M1600.72,963.458l0,-12.3333c0,-1.76389,0.805556,-3.05556,3.06944,-3.05556c2.25,0,3.04167,1.29167,3.04167,3.05556l0,15.375c0,2.19444,-1.45833,3.05556,-3.04167,3.05556l-24.0556,0c-1.56944,0,-3.04167,-0.861111,-3.04167,-3.05556s1.45833,-3.05556,3.04167,-3.05556l8.97222,0l0,-35.2778l-8.97222,0c-1.56944,0,-3.04167,-0.861111,-3.04167,-3.05556s1.45833,-3.05556,3.04167,-3.05556l15.0833,0l0,41.375L1600.72,963.431z"/>
     <path fill="#FFFFFF" d="M1643.11,922.069l7.625,0l0,44.4306c0,1.95833,-0.847222,3.05556,-3.04167,3.05556s-3.06944,-1.09722,-3.06944,-3.05556l0,-36.0139l-0.111111,0l-5.80556,8.61111l0,0.972222c0,1.88889,-0.736111,3.66667,-3.05556,3.66667c-2.19444,0,-3.05556,-1.77778,-3.05556,-3.66667l0,-0.972222l-5.80556,-8.61111l-0.111111,0l0,36.0139c0,1.95833,-0.875,3.05556,-3.06944,3.05556s-3.04167,-1.09722,-3.04167,-3.05556l0,-44.4306l7.625,0l7.44444,10.7361L1643.11,922.069z"/>
     <path fill="#FFFFFF" d="M1691.6,959.181c0,2.31944,0,3.77778,-1.15278,5.86111c-2.06944,3.47222,-5.125,4.51389,-8.91667,4.51389l-3.54167,0c-3.41667,0,-6.34722,-0.611111,-8.54167,-3.54167c-1.52778,-2.01389,-1.88889,-3.72222,-1.88889,-6.15278l0,-8.86111c0,-1.95833,0.847222,-3.05556,3.04167,-3.05556s3.06944,1.09722,3.06944,3.05556l0,7.93056c0,3.54167,0.736111,4.51389,4.33333,4.51389l3.34722,0c2.58333,0,4.15278,-0.361111,4.15278,-3.29167l0,-35.0278c0,-1.95833,0.875,-3.05556,3.06944,-3.05556s3.04167,1.09722,3.04167,3.05556L1691.61,959.181z"/>
     <path fill="#FFFFFF" d="M1758.43,966.514c0,1.95833,-0.847222,3.05556,-3.04167,3.05556s-3.06944,-1.09722,-3.06944,-3.05556l0,-44.4306l20.5139,0c4.83333,0,9.65278,3.41667,9.65278,8.84722l0,4.22222c0,5.73611,-4.77778,8.66667,-9.65278,8.66667l-5.61111,0l13.7361,19.6528c0.666667,0.902778,1.52778,2.06944,1.52778,3.23611c0,1.70833,-1.41667,2.86111,-3.125,2.86111c-1.22222,0,-2.01389,-0.736111,-2.68056,-1.70833l-16.8472,-24.0417l-1.41667,0L1758.42,966.514zM1758.43,937.694l13.5694,0c1.70833,0,4.38889,-0.125,4.38889,-2.56944l0,-4.22222c0,-2.44444,-2.51389,-2.73611,-4.34722,-2.73611l-13.6111,0L1758.43,937.694z"/>
     <path fill="#FFFFFF" d="M1823.35,963.458c1.59722,0,3.06944,0.861111,3.06944,3.05556s-1.45833,3.05556,-3.06944,3.05556l-27.0972,0l0,-47.4861l27.0972,0c1.59722,0,3.06944,0.861111,3.06944,3.05556s-1.45833,3.05556,-3.06944,3.05556l-21,0l0,14.5972l8.97222,0c1.58333,0,3.05556,0.847222,3.05556,3.04167s-1.45833,3.06944,-3.05556,3.06944l-8.97222,0l0,14.5833L1823.35,963.486z"/>
     <path fill="#FFFFFF" d="M1864.22,934.889l0,-9.76389c0,-1.95833,0.847222,-3.05556,3.04167,-3.05556s3.06944,1.09722,3.06944,3.05556l0,9.63889c0,0.791667,-0.0694444,1.65278,-0.375,2.38889l-11.6528,29.7222c-0.611111,1.52778,-1.15278,2.68056,-3.05556,2.68056s-2.44444,-1.15278,-3.05556,-2.68056l-11.6528,-29.7222c-0.305556,-0.736111,-0.375,-1.59722,-0.375,-2.38889l0,-9.63889c0,-1.95833,0.875,-3.05556,3.06944,-3.05556s3.04167,1.09722,3.04167,3.05556l0,9.76389l8.97222,23.3194L1864.22,934.889z"/>
     <path fill="#FFFFFF" d="M1908.14,963.458l0,-12.3333c0,-1.76389,0.791667,-3.05556,3.04167,-3.05556c2.26389,0,3.06944,1.29167,3.06944,3.05556l0,15.375c0,2.19444,-1.45833,3.05556,-3.06944,3.05556l-24.0278,0c-1.59722,0,-3.06944,-0.861111,-3.06944,-3.05556s1.45833,-3.05556,3.06944,-3.05556l8.97222,0l0,-35.2778l-8.97222,0c-1.59722,0,-3.06944,-0.861111,-3.06944,-3.05556s1.45833,-3.05556,3.06944,-3.05556l15.0694,0l0,41.375L1908.14,963.431z"/>
     <path fill="#FFFFFF" d="M1940.89,961.75c-1.34722,0,-2.31944,0,-3.18056,-1.15278c-0.680556,-0.916667,-0.680556,-1.59722,-0.680556,-2.75l0,-3.41667c0,-1.15278,0,-1.83333,0.680556,-2.75c0.861111,-1.15278,1.83333,-1.15278,3.18056,-1.15278l4.38889,0c1.34722,0,2.31944,0,3.18056,1.15278c0.680556,0.916667,0.680556,1.59722,0.680556,2.75l0,3.41667c0,1.15278,0,1.83333,-0.680556,2.75c-0.861111,1.15278,-1.83333,1.15278,-3.18056,1.15278L1940.89,961.75z"/>
     <path fill="#FFFFFF" d="M1995.99,922.069c3.34722,0,6.09722,2.73611,6.09722,6.09722l0,35.2778c0,3.41667,-2.625,6.09722,-6.09722,6.09722l-17.9583,0c-3.47222,0,-6.09722,-2.68056,-6.09722,-6.09722l0,-35.2778c0,-3.36111,2.75,-6.09722,6.09722,-6.09722L1995.99,922.069zM1995.99,963.458l0,-35.2778l-17.9583,0l0,35.2778L1995.99,963.458z"/>
    </g>
    <g>
     <path fill="#FFFFFF" d="M1520.15,100.278c-3.25,0,-5.16667,-0.666667,-5.83333,-4.11111l-0.194444,0c-0.666667,3.44444,-2.58333,4.11111,-5.83333,4.11111l-7.18056,0c-3.33333,0,-4.20833,-0.583333,-5.81944,-3.44444l-3.34722,-5.83333c-1.25,-2.09722,-1.34722,-2.29167,-1.34722,-4.875L1490.6,30.6944c0,-3.05556,1.34722,-4.77778,4.79167,-4.77778c3.43056,0,4.77778,1.72222,4.77778,4.77778l0,55.4306l2.58333,4.59722l4.11111,0l2.59722,-4.59722L1509.46,56.0278c0,-2.95833,1.33333,-5.63889,4.77778,-5.63889s4.77778,2.68056,4.77778,5.63889l0,30.0972l2.58333,4.59722l4.125,0l2.58333,-4.59722L1528.31,30.6944c0,-3.05556,1.33333,-4.77778,4.77778,-4.77778s4.77778,1.72222,4.77778,4.77778l0,55.4306c0,2.58333,-0.0972222,2.77778,-1.33333,4.875l-3.34722,5.83333c-1.625,2.86111,-2.48611,3.44444,-5.83333,3.44444L1520.15,100.278z"/>
     <path fill="#FFFFFF" d="M1587.81,90.7222l14.0556,0c2.48611,0,4.77778,1.33333,4.77778,4.77778c0,3.44444,-2.29167,4.77778,-4.77778,4.77778l-37.6528,0c-2.5,0,-4.79167,-1.33333,-4.79167,-4.77778c0,-3.44444,2.29167,-4.77778,4.79167,-4.77778l14.0556,0L1578.26,35.4722l-14.0556,0c-2.5,0,-4.79167,-1.33333,-4.79167,-4.77778c0,-3.44444,2.29167,-4.77778,4.79167,-4.77778l37.6528,0c2.48611,0,4.77778,1.33333,4.77778,4.77778c0,3.44444,-2.29167,4.77778,-4.77778,4.77778l-14.0556,0L1587.81,90.7222z"/>
     <path fill="#FFFFFF" d="M1675.43,32.125l-34.3056,58.5972l29.5278,0c2.48611,0,4.77778,1.33333,4.77778,4.77778c0,3.44444,-2.29167,4.77778,-4.77778,4.77778l-42.4444,0L1628.21,94.25l34.2222,-58.7778l-29.4306,0c-2.5,0,-4.79167,-1.33333,-4.79167,-4.77778c0,-3.44444,2.29167,-4.77778,4.79167,-4.77778l42.4306,0L1675.43,32.125z"/>
     <path fill="#FFFFFF" d="M1707.33,67.3056l0,26.6667c0,3.15278,-0.666667,6.30556,-4.58333,6.30556s-4.58333,-3.15278,-4.58333,-6.30556L1698.17,55.5417c0,-3.34722,0.375,-6.79167,4.58333,-6.79167c4.11111,0,4.58333,3.44444,4.58333,6.69444l0,1.05556l0,0.194444l7.45833,-4.875c2.38889,-1.52778,4.95833,-3.05556,7.93056,-3.05556l6.77778,0c3.54167,0,5.73611,0.958333,8.5,3.34722c4.11111,3.52778,3.91667,7.45833,4.11111,12.4306l0.958333,28.8611c0.0972222,3.25,-0.375,6.88889,-4.48611,6.88889c-3.73611,0,-4.5,-3.15278,-4.59722,-6.20833l-0.944444,-28.2917c-0.194444,-5.63889,-0.666667,-7.83333,-6.20833,-7.83333l-3.06944,0c-0.944444,0,-1.91667,0.291667,-2.86111,0.861111L1707.33,67.3056z"/>
     <path fill="#FFFFFF" d="M1783.78,100.278c-3.81944,0,-5.36111,0,-8.22222,-2.48611l-3.91667,-3.44444c-3.63889,-3.25,-4.68056,-5.34722,-4.68056,-10.3194L1766.96,66.3472c0,-4.875,0.666667,-7.75,4.48611,-11l3.25,-2.77778c4.30556,-3.72222,6.40278,-3.81944,10.125,-3.81944l8.40278,0c4.48611,0,6.59722,0.486111,10.125,3.34722l3.73611,2.95833c4.20833,3.34722,4.77778,6.875,4.77778,11.9444l0,7.36111c0,5.25,-0.875,6.77778,-6.30556,6.77778l-29.4444,0l0,3.05556c0,0.861111,0.680556,2.01389,1.34722,2.68056l2.29167,2.48611c1.25,1.34722,3.06944,1.72222,6.11111,1.72222l19.6944,0c3.05556,0,6.30556,0.666667,6.30556,4.58333c0,4.01389,-3.63889,4.59722,-6.30556,4.59722L1783.78,100.264zM1776.14,71.9861l26.5694,0L1802.71,66.4444c0,-1.72222,0.0972222,-3.15278,-1.13889,-4.30556l-3.54167,-3.05556c-1.13889,-1.05556,-2.95833,-1.15278,-4.38889,-1.15278l-7.75,0c-1.72222,0,-3.15278,0,-4.68056,1.05556l-3.16667,2.30556c-1.13889,0.861111,-1.91667,1.52778,-1.91667,4.20833L1776.12,71.9861z"/>
     <path fill="#FFFFFF" d="M1854.22,82.9722c0,5.16667,-0.194444,8.125,6.11111,8.125l4.68056,0c3.73611,0,5.45833,-0.291667,6.40278,-4.01389c0.583333,-2.19444,2.29167,-3.73611,4.59722,-3.73611c2.58333,0,4.68056,2.01389,4.68056,4.59722c0,2.58333,-1.625,5.83333,-3.16667,7.63889c-3.33333,4.01389,-7.73611,4.68056,-12.6111,4.68056l-4.68056,0c-4.58333,0,-8.59722,-1.05556,-11.8611,-4.59722c-3.54167,-3.91667,-3.34722,-7.83333,-3.34722,-12.8056L1845.03,57.9306l-2.95833,0c-2.66667,0,-6.30556,-0.569444,-6.30556,-4.58333c0,-3.91667,3.23611,-4.59722,6.30556,-4.59722l2.95833,0L1845.03,39.3889c0,-3.15278,0.680556,-6.30556,4.59722,-6.30556s4.58333,3.15278,4.58333,6.30556L1854.21,48.75l15.375,0c3.06944,0,6.31944,0.666667,6.31944,4.59722c0,4.01389,-3.63889,4.58333,-6.31944,4.58333l-15.375,0L1854.21,82.9722z"/>
    </g>
    <g>
     <circle fill="#B8AF82" cx="1641.86" cy="177.5" r="55.5556"/>
    </g>
    <g>
     <circle fill="#B8AF82" cx="1641.86" cy="804.819" r="55.5556"/>
    </g>
    <g>
     <circle fill="#CCCCCC" cx="1641.86" cy="177.5" r="34.7222"/>
    </g>
    <g>
     <circle fill="#B8AF82" cx="1641.86" cy="804.819" r="55.5556"/>
    </g>
    <g>
     <circle fill="#CCCCCC" cx="1641.86" cy="804.819" r="34.7222"/>
    </g>
    <g id="magjack" transform="matrix(1, 0, 0, 1, 235.181, 749.978)">
     <g transform="matrix(0, -1, 1, 0, -117.43, 717.417)">
      <g>
       <g>
        <g>
         <g>
          <g>
           <path fill="#7A7A7A" d="M1272.76,2022.44L1272.76,1187.6L672.778,1187.6l0,834.847C675.417,2022.44,1270.08,2022.44,1272.76,2022.44z"/>
          </g>
         </g>
        </g>
       </g>
       <g>
        <g opacity="0.5">
         <g>
          <path fill="#FFFFFF" d="M675.028,1666L675.028,1195.46c0,-3.09722,2.51389,-5.59722,5.59722,-5.59722s5.59722,2.51389,5.59722,5.59722l0,470.542c0,3.09722,-2.51389,5.59722,-5.59722,5.59722S675.028,1669.1,675.028,1666z"/>
         </g>
        </g>
        <g opacity="0.5">
         <g>
          <path fill="#FFFFFF" d="M1259.29,1666L1259.29,1195.46c0,-3.09722,2.51389,-5.59722,5.59722,-5.59722s5.59722,2.51389,5.59722,5.59722l0,470.542c0,3.09722,-2.51389,5.59722,-5.59722,5.59722S1259.29,1669.1,1259.29,1666z"/>
         </g>
        </g>
       </g>
      </g>
      <g>
       <g>
        <g>
         <path fill="#666666" d="M840.889,1899.86l-1.36111,111c-0.375,4.20833,-3.58333,7.65278,-7.76389,7.68056l-2.22222,0l94.4583,-0.166667l-2.33333,0c-3.91667,0,-7.44444,-3.47222,-7.81944,-7.65278l-1.68056,-111L840.889,1899.86z"/>
        </g>
       </g>
       <g>
        <g>
         <path d="M829.597,2018.57c-3.86111,0,-6.94444,-3.47222,-6.65278,-7.65278l6.43056,-322.403c0.333333,-8.13889,5.86111,-14.8611,12.8889,-14.8611l68.1389,-0.111111c6.94444,-0.0277778,12.8333,6.80556,13,14.8056l7.23611,322.375c0.402778,4.20833,-2.69444,7.68056,-6.59722,7.68056l-2.30556,0c-3.93056,0,-7.45833,-3.47222,-7.81944,-7.65278l-5.54167,-275.194c-0.236111,-8.56944,-6.68056,-15.7361,-15.2917,-15.7361l-33.7361,0.0555556c-7.80556,0.0277778,-15.0139,7.26389,-15.2639,15.7639l-4.5,275.222c-0.375,4.20833,-3.58333,7.68056,-7.79167,7.68056L829.597,2018.57L829.597,2018.57z"/>
        </g>
       </g>
       <g>
        <g>
         <g>
          <path fill="#666666" d="M892.542,1719.82l-31.9861,0.0555556c-7.40278,0,-14.6528,7,-15.3333,15.375l-1.13889,13.6944l64.3472,0l-0.5,-13.8056C907.236,1726.71,900.681,1719.82,892.542,1719.82z"/>
         </g>
        </g>
       </g>
       <g>
        <g>
         <g>
          <path fill="#999999" d="M908.597,1744.03c-0.694444,-8.73611,-7.73611,-15.875,-15.9583,-15.8472l-32.5139,0.0555556c-7.51389,0.0277778,-15.2778,7.23611,-15.9861,15.9028l0.875,-8.875c0.722222,-8.40278,7.94444,-15.375,15.3333,-15.375l32.0278,-0.0555556c8.11111,0,14.6806,6.88889,15.3333,15.3472L908.597,1744.03z"/>
         </g>
        </g>
       </g>
      </g>
      <g>
       <g>
        <g>
         <path fill="#666666" d="M1038.04,1899.86l-1.36111,111c-0.402778,4.20833,-3.61111,7.65278,-7.81944,7.68056l-2.22222,0l94.4861,-0.166667l-2.33333,0c-3.90278,0,-7.43056,-3.47222,-7.80556,-7.65278l-1.68056,-111L1038.04,1899.86z"/>
        </g>
       </g>
       <g>
        <g>
         <path d="M1026.69,2018.57c-3.84722,0,-6.94444,-3.47222,-6.66667,-7.65278l6.43056,-322.403c0.347222,-8.13889,5.90278,-14.8611,12.9167,-14.8611l68.1389,-0.111111c6.95833,-0.0277778,12.8611,6.80556,13,14.8056l7.23611,322.375c0.402778,4.20833,-2.68056,7.68056,-6.56944,7.68056l-2.30556,0c-3.93056,0,-7.45833,-3.47222,-7.81944,-7.65278l-5.58333,-275.222c-0.208333,-8.56944,-6.66667,-15.7361,-15.2778,-15.7083l-33.7361,0.0555556c-7.80556,0,-15.0278,7.26389,-15.2917,15.7639l-4.5,275.222c-0.347222,4.20833,-3.58333,7.65278,-7.77778,7.68056L1026.69,2018.57L1026.69,2018.57z"/>
        </g>
       </g>
       <g>
        <g>
         <g>
          <path fill="#666666" d="M1089.67,1719.82l-32,0.0555556c-7.40278,0,-14.6528,7,-15.3333,15.375l-1.16667,13.6944l64.3472,0l-0.472222,-13.8056C1104.36,1726.71,1097.79,1719.82,1089.67,1719.82z"/>
         </g>
        </g>
       </g>
       <g>
        <g>
         <g>
          <path fill="#999999" d="M1105.75,1744.03c-0.708333,-8.73611,-7.76389,-15.875,-16,-15.8472l-32.5,0.0555556c-7.51389,0.0277778,-15.2778,7.23611,-15.9722,15.9028l0.888889,-8.875c0.708333,-8.40278,7.91667,-15.375,15.3333,-15.375l32.0278,-0.0555556c8.13889,0,14.6944,6.88889,15.3333,15.3472L1105.75,1744.03z"/>
         </g>
        </g>
       </g>
      </g>
      <g>
       <g>
        <g>
         <g>
          <path fill="#7A7A7A" d="M1260.42,2002.58c6.29167,-23.0417,14.125,-40.125,21.6944,-56.6389c13.625,-29.7083,26.4861,-57.7639,26.4861,-116.25l0,-74.6528c0,-0.583333,2.63889,-58.4583,24.9028,-58.4583l0,10.4167c-7.48611,0,-14.4861,33.0417,-14.4861,48.0417l0,74.6528c0,60.7639,-13.3194,89.8333,-27.4444,120.597c-7.40278,16.1389,-15.0417,32.8194,-21.1111,55.0417L1260.42,2002.58z"/>
         </g>
        </g>
        <g>
         <g>
          <path fill="#CCCCCC" d="M1322.92,1701.94l5.43056,10.0972c1.625,-3.09722,3.36111,-5.04167,5.18056,-5.04167l0,-10.4167C1329.33,1696.58,1325.83,1698.61,1322.92,1701.94z"/>
         </g>
        </g>
       </g>
       <g>
        <g>
         <g>
          <path fill="#7A7A7A" d="M612,1707l0,-10.4167c22.25,0,24.8889,57.875,24.8889,58.4583l0,74.6528c0,58.4861,12.875,86.5278,26.4861,116.236c7.58333,16.5139,15.4167,33.5972,21.7083,56.6528l-10.0417,2.73611c-6.08333,-22.2361,-13.7222,-38.9167,-21.125,-55.0556c-14.1111,-30.7639,-27.4444,-59.8194,-27.4444,-120.583l0,-74.6528C626.472,1740.03,619.472,1707,612,1707z"/>
         </g>
        </g>
        <g>
         <g>
          <path fill="#CCCCCC" d="M622.597,1701.94l-5.43056,10.0972c-1.65278,-3.09722,-3.38889,-5.04167,-5.18056,-5.04167l0,-10.4167C616.208,1696.58,619.681,1698.61,622.597,1701.94z"/>
         </g>
        </g>
       </g>
      </g>
      <g opacity="0.5">
       <g>
        <path fill="#FFFFFF" d="M692.861,1195.46c0,-3.09722,2.51389,-5.59722,5.59722,-5.59722l548.611,0c3.09722,0,5.59722,2.51389,5.59722,5.59722s-2.51389,5.59722,-5.59722,5.59722l-548.611,0C695.375,1201.07,692.861,1198.56,692.861,1195.46z"/>
       </g>
      </g>
      <g>
       <g>
        <g>
         <path fill="#4D4D4D" d="M733.028,1201.32c0,-3.09722,2.51389,-5.59722,5.59722,-5.59722L943.194,1195.72c3.09722,0,5.59722,2.51389,5.59722,5.59722s-2.51389,5.59722,-5.59722,5.59722L738.625,1206.92C735.528,1206.93,733.028,1204.42,733.028,1201.32z"/>
        </g>
       </g>
       <g>
        <g>
         <path fill="#4D4D4D" d="M996.708,1201.32c0,-3.09722,2.51389,-5.59722,5.59722,-5.59722l204.583,0c3.09722,0,5.59722,2.51389,5.59722,5.59722s-2.51389,5.59722,-5.59722,5.59722l-204.583,0C999.222,1206.93,996.708,1204.42,996.708,1201.32z"/>
        </g>
       </g>
      </g>
     </g>
    </g>
   </g>
  </g>
  <g transform="translate(204.14,1134.05)">
   <rect width="31.93" x="0" y="0" fill="#8D8C8C" height="31.9" id="connector0pin"/>
   <rect width="16.4442" x="7.79153" y="7.73544" fill="#8C8663" height="16.4152"/>
   <polygon fill="#B8AF82" points="0,31.9,7.79153,24.1368,7.79153,6.97162,0,0"/>
   <polygon fill="#80795B" points="24.2079,7.76321,7.90264,7.76321,0,0,31.93,0"/>
   <polygon fill="#5E5B43" points="24.2079,24.1368,24.2079,7.76321,31.93,0,31.93,31.9"/>
   <polygon fill="#9A916C" points="0,31.9,7.87486,24.1368,24.2079,24.1368,31.93,31.9"/>
  </g>
  <g transform="translate(204.14,34.05)">
   <rect width="31.93" x="0" y="0" fill="#8D8C8C" height="31.9" id="connector39pin"/>
   <rect width="16.4442" x="7.79153" y="7.73544" fill="#8C8663" height="16.4152"/>
   <polygon fill="#B8AF82" points="0,31.9,7.79153,24.1368,7.79153,6.97162,0,0"/>
   <polygon fill="#80795B" points="24.2079,7.76321,7.90264,7.76321,0,0,31.93,0"/>
   <polygon fill="#5E5B43" points="24.2079,24.1368,24.2079,7.76321,31.93,0,31.93,31.9"/>
   <polygon fill="#9A916C" points="0,31.9,7.87486,24.1368,24.2079,24.1368,31.93,31.9"/>
  </g>
  <g transform="translate(304.14,1134.05)">
   <rect width="31.93" x="0" y="0" fill="#8D8C8C" height="31.9" id="connector1pin"/>
   <rect width="16.4442" x="7.79153" y="7.73544" fill="#8C8663" height="16.4152"/>
   <polygon fill="#B8AF82" points="0,31.9,7.79153,24.1368,7.79153,6.97162,0,0"/>
   <polygon fill="#80795B" points="24.2079,7.76321,7.90264,7.76321,0,0,31.93,0"/>
   <polygon fill="#5E5B43" points="24.2079,24.1368,24.2079,7.76321,31.93,0,31.93,31.9"/>
   <polygon fill="#9A916C" points="0,31.9,7.87486,24.1368,24.2079,24.1368,31.93,31.9"/>
  </g>
  <g transform="translate(304.14,34.05)">
   <rect width="31.93" x="0" y="0" fill="#8D8C8C" height="31.9" id="connector38pin"/>
   <rect width="16.4442" x="7.79153" y="7.73544" fill="#8C8663" height="16.4152"/>
   <polygon fill="#B8AF82" points="0,31.9,7.79153,24.1368,7.79153,6.97162,0,0"/>
   <polygon fill="#80795B" points="24.2079,7.76321,7.90264,7.76321,0,0,31.93,0"/>
   <polygon fill="#5E5B43" points="24.2079,24.1368,24.2079,7.76321,31.93,0,31.93,31.9"/>
   <polygon fill="#9A916C" points="0,31.9,7.87486,24.1368,24.2079,24.1368,31.93,31.9"/>
  </g>
  <g transform="translate(404.14,1134.05)">
   <rect width="31.93" x="0" y="0" fill="#8D8C8C" height="31.9" id="connector2pin"/>
   <rect width="16.4442" x="7.79153" y="7.73544" fill="#8C8663" height="16.4152"/>
   <polygon fill="#B8AF82" points="0,31.9,7.79153,24.1368,7.79153,6.97162,0,0"/>
   <polygon fill="#80795B" points="24.2079,7.76321,7.90264,7.76321,0,0,31.93,0"/>
   <polygon fill="#5E5B43" points="24.2079,24.1368,24.2079,7.76321,31.93,0,31.93,31.9"/>
   <polygon fill="#9A916C" points="0,31.9,7.87486,24.1368,24.2079,24.1368,31.93,31.9"/>
  </g>
  <g transform="translate(404.14,34.05)">
   <rect width="31.93" x="0" y="0" fill="#8D8C8C" height="31.9" id="connector37pin"/>
   <rect width="16.4442" x="7.79153" y="7.73544" fill="#8C8663" height="16.4152"/>
   <polygon fill="#B8AF82" points="0,31.9,7.79153,24.1368,7.79153,6.97162,0,0"/>
   <polygon fill="#80795B" points="24.2079,7.76321,7.90264,7.76321,0,0,31.93,0"/>
   <polygon fill="#5E5B43" points="24.2079,24.1368,24.2079,7.76321,31.93,0,31.93,31.9"/>
   <polygon fill="#9A916C" points="0,31.9,7.87486,24.1368,24.2079,24.1368,31.93,31.9"/>
  </g>
  <g transform="translate(504.14,1134.05)">
   <rect width="31.93" x="0" y="0" fill="#8D8C8C" height="31.9" id="connector3pin"/>
   <rect width="16.4442" x="7.79153" y="7.73544" fill="#8C8663" height="16.4152"/>
   <polygon fill="#B8AF82" points="0,31.9,7.79153,24.1368,7.79153,6.97162,0,0"/>
   <polygon fill="#80795B" points="24.2079,7.76321,7.90264,7.76321,0,0,31.93,0"/>
   <polygon fill="#5E5B43" points="24.2079,24.1368,24.2079,7.76321,31.93,0,31.93,31.9"/>
   <polygon fill="#9A916C" points="0,31.9,7.87486,24.1368,24.2079,24.1368,31.93,31.9"/>
  </g>
  <g transform="translate(504.14,34.05)">
   <rect width="31.93" x="0" y="0" fill="#8D8C8C" height="31.9" id="connector36pin"/>
   <rect width="16.4442" x="7.79153" y="7.73544" fill="#8C8663" height="16.4152"/>
   <polygon fill="#B8AF82" points="0,31.9,7.79153,24.1368,7.79153,6.97162,0,0"/>
   <polygon fill="#80795B" points="24.2079,7.76321,7.90264,7.76321,0,0,31.93,0"/>
   <polygon fill="#5E5B43" points="24.2079,24.1368,24.2079,7.76321,31.93,0,31.93,31.9"/>
   <polygon fill="#9A916C" points="0,31.9,7.87486,24.1368,24.2079,24.1368,31.93,31.9"/>
  </g>
  <g transform="translate(604.14,1134.05)">
   <rect width="31.93" x="0" y="0" fill="#8D8C8C" height="31.9" id="connector4pin"/>
   <rect width="16.4442" x="7.79153" y="7.73544" fill="#8C8663" height="16.4152"/>
   <polygon fill="#B8AF82" points="0,31.9,7.79153,24.1368,7.79153,6.97162,0,0"/>
   <polygon fill="#80795B" points="24.2079,7.76321,7.90264,7.76321,0,0,31.93,0"/>
   <polygon fill="#5E5B43" points="24.2079,24.1368,24.2079,7.76321,31.93,0,31.93,31.9"/>
   <polygon fill="#9A916C" points="0,31.9,7.87486,24.1368,24.2079,24.1368,31.93,31.9"/>
  </g>
  <g transform="translate(604.14,34.05)">
   <rect width="31.93" x="0" y="0" fill="#8D8C8C" height="31.9" id="connector35pin"/>
   <rect width="16.4442" x="7.79153" y="7.73544" fill="#8C8663" height="16.4152"/>
   <polygon fill="#B8AF82" points="0,31.9,7.79153,24.1368,7.79153,6.97162,0,0"/>
   <polygon fill="#80795B" points="24.2079,7.76321,7.90264,7.76321,0,0,31.93,0"/>
   <polygon fill="#5E5B43" points="24.2079,24.1368,24.2079,7.76321,31.93,0,31.93,31.9"/>
   <polygon fill="#9A916C" points="0,31.9,7.87486,24.1368,24.2079,24.1368,31.93,31.9"/>
  </g>
  <g transform="translate(704.14,1134.05)">
   <rect width="31.93" x="0" y="0" fill="#8D8C8C" height="31.9" id="connector5pin"/>
   <rect width="16.4442" x="7.79153" y="7.73544" fill="#8C8663" height="16.4152"/>
   <polygon fill="#B8AF82" points="0,31.9,7.79153,24.1368,7.79153,6.97162,0,0"/>
   <polygon fill="#80795B" points="24.2079,7.76321,7.90264,7.76321,0,0,31.93,0"/>
   <polygon fill="#5E5B43" points="24.2079,24.1368,24.2079,7.76321,31.93,0,31.93,31.9"/>
   <polygon fill="#9A916C" points="0,31.9,7.87486,24.1368,24.2079,24.1368,31.93,31.9"/>
  </g>
  <g transform="translate(704.14,34.05)">
   <rect width="31.93" x="0" y="0" fill="#8D8C8C" height="31.9" id="connector34pin"/>
   <rect width="16.4442" x="7.79153" y="7.73544" fill="#8C8663" height="16.4152"/>
   <polygon fill="#B8AF82" points="0,31.9,7.79153,24.1368,7.79153,6.97162,0,0"/>
   <polygon fill="#80795B" points="24.2079,7.76321,7.90264,7.76321,0,0,31.93,0"/>
   <polygon fill="#5E5B43" points="24.2079,24.1368,24.2079,7.76321,31.93,0,31.93,31.9"/>
   <polygon fill="#9A916C" points="0,31.9,7.87486,24.1368,24.2079,24.1368,31.93,31.9"/>
  </g>
  <g transform="translate(804.14,1134.05)">
   <rect width="31.93" x="0" y="0" fill="#8D8C8C" height="31.9" id="connector6pin"/>
   <rect width="16.4442" x="7.79153" y="7.73544" fill="#8C8663" height="16.4152"/>
   <polygon fill="#B8AF82" points="0,31.9,7.79153,24.1368,7.79153,6.97162,0,0"/>
   <polygon fill="#80795B" points="24.2079,7.76321,7.90264,7.76321,0,0,31.93,0"/>
   <polygon fill="#5E5B43" points="24.2079,24.1368,24.2079,7.76321,31.93,0,31.93,31.9"/>
   <polygon fill="#9A916C" points="0,31.9,7.87486,24.1368,24.2079,24.1368,31.93,31.9"/>
  </g>
  <g transform="translate(804.14,34.05)">
   <rect width="31.93" x="0" y="0" fill="#8D8C8C" height="31.9" id="connector33pin"/>
   <rect width="16.4442" x="7.79153" y="7.73544" fill="#8C8663" height="16.4152"/>
   <polygon fill="#B8AF82" points="0,31.9,7.79153,24.1368,7.79153,6.97162,0,0"/>
   <polygon fill="#80795B" points="24.2079,7.76321,7.90264,7.76321,0,0,31.93,0"/>
   <polygon fill="#5E5B43" points="24.2079,24.1368,24.2079,7.76321,31.93,0,31.93,31.9"/>
   <polygon fill="#9A916C" points="0,31.9,7.87486,24.1368,24.2079,24.1368,31.93,31.9"/>
  </g>
  <g transform="translate(904.14,1134.05)">
   <rect width="31.93" x="0" y="0" fill="#8D8C8C" height="31.9" id="connector7pin"/>
   <rect width="16.4442" x="7.79153" y="7.73544" fill="#8C8663" height="16.4152"/>
   <polygon fill="#B8AF82" points="0,31.9,7.79153,24.1368,7.79153,6.97162,0,0"/>
   <polygon fill="#80795B" points="24.2079,7.76321,7.90264,7.76321,0,0,31.93,0"/>
   <polygon fill="#5E5B43" points="24.2079,24.1368,24.2079,7.76321,31.93,0,31.93,31.9"/>
   <polygon fill="#9A916C" points="0,31.9,7.87486,24.1368,24.2079,24.1368,31.93,31.9"/>
  </g>
  <g transform="translate(904.14,34.05)">
   <rect width="31.93" x="0" y="0" fill="#8D8C8C" height="31.9" id="connector32pin"/>
   <rect width="16.4442" x="7.79153" y="7.73544" fill="#8C8663" height="16.4152"/>
   <polygon fill="#B8AF82" points="0,31.9,7.79153,24.1368,7.79153,6.97162,0,0"/>
   <polygon fill="#80795B" points="24.2079,7.76321,7.90264,7.76321,0,0,31.93,0"/>
   <polygon fill="#5E5B43" points="24.2079,24.1368,24.2079,7.76321,31.93,0,31.93,31.9"/>
   <polygon fill="#9A916C" points="0,31.9,7.87486,24.1368,24.2079,24.1368,31.93,31.9"/>
  </g>
  <g transform="translate(1004.14,1134.05)">
   <rect width="31.93" x="0" y="0" fill="#8D8C8C" height="31.9" id="connector8pin"/>
   <rect width="16.4442" x="7.79153" y="7.73544" fill="#8C8663" height="16.4152"/>
   <polygon fill="#B8AF82" points="0,31.9,7.79153,24.1368,7.79153,6.97162,0,0"/>
   <polygon fill="#80795B" points="24.2079,7.76321,7.90264,7.76321,0,0,31.93,0"/>
   <polygon fill="#5E5B43" points="24.2079,24.1368,24.2079,7.76321,31.93,0,31.93,31.9"/>
   <polygon fill="#9A916C" points="0,31.9,7.87486,24.1368,24.2079,24.1368,31.93,31.9"/>
  </g>
  <g transform="translate(1004.14,34.05)">
   <rect width="31.93" x="0" y="0" fill="#8D8C8C" height="31.9" id="connector31pin"/>
   <rect width="16.4442" x="7.79153" y="7.73544" fill="#8C8663" height="16.4152"/>
   <polygon fill="#B8AF82" points="0,31.9,7.79153,24.1368,7.79153,6.97162,0,0"/>
   <polygon fill="#80795B" points="24.2079,7.76321,7.90264,7.76321,0,0,31.93,0"/>
   <polygon fill="#5E5B43" points="24.2079,24.1368,24.2079,7.76321,31.93,0,31.93,31.9"/>
   <polygon fill="#9A916C" points="0,31.9,7.87486,24.1368,24.2079,24.1368,31.93,31.9"/>
  </g>
  <g transform="translate(1104.14,1134.05)">
   <rect width="31.93" x="0" y="0" fill="#8D8C8C" height="31.9" id="connector9pin"/>
   <rect width="16.4442" x="7.79153" y="7.73544" fill="#8C8663" height="16.4152"/>
   <polygon fill="#B8AF82" points="0,31.9,7.79153,24.1368,7.79153,6.97162,0,0"/>
   <polygon fill="#80795B" points="24.2079,7.76321,7.90264,7.76321,0,0,31.93,0"/>
   <polygon fill="#5E5B43" points="24.2079,24.1368,24.2079,7.76321,31.93,0,31.93,31.9"/>
   <polygon fill="#9A916C" points="0,31.9,7.87486,24.1368,24.2079,24.1368,31.93,31.9"/>
  </g>
  <g transform="translate(1104.14,34.05)">
   <rect width="31.93" x="0" y="0" fill="#8D8C8C" height="31.9" id="connector30pin"/>
   <rect width="16.4442" x="7.79153" y="7.73544" fill="#8C8663" height="16.4152"/>
   <polygon fill="#B8AF82" points="0,31.9,7.79153,24.1368,7.79153,6.97162,0,0"/>
   <polygon fill="#80795B" points="24.2079,7.76321,7.90264,7.76321,0,0,31.93,0"/>
   <polygon fill="#5E5B43" points="24.2079,24.1368,24.2079,7.76321,31.93,0,31.93,31.9"/>
   <polygon fill="#9A916C" points="0,31.9,7.87486,24.1368,24.2079,24.1368,31.93,31.9"/>
  </g>
  <g transform="translate(1204.14,1134.05)">
   <rect width="31.93" x="0" y="0" fill="#8D8C8C" height="31.9" id="connector10pin"/>
   <rect width="16.4442" x="7.79153" y="7.73544" fill="#8C8663" height="16.4152"/>
   <polygon fill="#B8AF82" points="0,31.9,7.79153,24.1368,7.79153,6.97162,0,0"/>
   <polygon fill="#80795B" points="24.2079,7.76321,7.90264,7.76321,0,0,31.93,0"/>
   <polygon fill="#5E5B43" points="24.2079,24.1368,24.2079,7.76321,31.93,0,31.93,31.9"/>
   <polygon fill="#9A916C" points="0,31.9,7.87486,24.1368,24.2079,24.1368,31.93,31.9"/>
  </g>
  <g transform="translate(1204.14,34.05)">
   <rect width="31.93" x="0" y="0" fill="#8D8C8C" height="31.9" id="connector29pin"/>
   <rect width="16.4442" x="7.79153" y="7.73544" fill="#8C8663" height="16.4152"/>
   <polygon fill="#B8AF82" points="0,31.9,7.79153,24.1368,7.79153,6.97162,0,0"/>
   <polygon fill="#80795B" points="24.2079,7.76321,7.90264,7.76321,0,0,31.93,0"/>
   <polygon fill="#5E5B43" points="24.2079,24.1368,24.2079,7.76321,31.93,0,31.93,31.9"/>
   <polygon fill="#9A916C" points="0,31.9,7.87486,24.1368,24.2079,24.1368,31.93,31.9"/>
  </g>
  <g transform="translate(1304.14,1134.05)">
   <rect width="31.93" x="0" y="0" fill="#8D8C8C" height="31.9" id="connector11pin"/>
   <rect width="16.4442" x="7.79153" y="7.73544" fill="#8C8663" height="16.4152"/>
   <polygon fill="#B8AF82" points="0,31.9,7.79153,24.1368,7.79153,6.97162,0,0"/>
   <polygon fill="#80795B" points="24.2079,7.76321,7.90264,7.76321,0,0,31.93,0"/>
   <polygon fill="#5E5B43" points="24.2079,24.1368,24.2079,7.76321,31.93,0,31.93,31.9"/>
   <polygon fill="#9A916C" points="0,31.9,7.87486,24.1368,24.2079,24.1368,31.93,31.9"/>
  </g>
  <g transform="translate(1304.14,34.05)">
   <rect width="31.93" x="0" y="0" fill="#8D8C8C" height="31.9" id="connector28pin"/>
   <rect width="16.4442" x="7.79153" y="7.73544" fill="#8C8663" height="16.4152"/>
   <polygon fill="#B8AF82" points="0,31.9,7.79153,24.1368,7.79153,6.97162,0,0"/>
   <polygon fill="#80795B" points="24.2079,7.76321,7.90264,7.76321,0,0,31.93,0"/>
   <polygon fill="#5E5B43" points="24.2079,24.1368,24.2079,7.76321,31.93,0,31.93,31.9"/>
   <polygon fill="#9A916C" points="0,31.9,7.87486,24.1368,24.2079,24.1368,31.93,31.9"/>
  </g>
  <g transform="translate(1404.14,1134.05)">
   <rect width="31.93" x="0" y="0" fill="#8D8C8C" height="31.9" id="connector12pin"/>
   <rect width="16.4442" x="7.79153" y="7.73544" fill="#8C8663" height="16.4152"/>
   <polygon fill="#B8AF82" points="0,31.9,7.79153,24.1368,7.79153,6.97162,0,0"/>
   <polygon fill="#80795B" points="24.2079,7.76321,7.90264,7.76321,0,0,31.93,0"/>
   <polygon fill="#5E5B43" points="24.2079,24.1368,24.2079,7.76321,31.93,0,31.93,31.9"/>
   <polygon fill="#9A916C" points="0,31.9,7.87486,24.1368,24.2079,24.1368,31.93,31.9"/>
  </g>
  <g transform="translate(1404.14,34.05)">
   <rect width="31.93" x="0" y="0" fill="#8D8C8C" height="31.9" id="connector27pin"/>
   <rect width="16.4442" x="7.79153" y="7.73544" fill="#8C8663" height="16.4152"/>
   <polygon fill="#B8AF82" points="0,31.9,7.79153,24.1368,7.79153,6.97162,0,0"/>
   <polygon fill="#80795B" points="24.2079,7.76321,7.90264,7.76321,0,0,31.93,0"/>
   <polygon fill="#5E5B43" points="24.2079,24.1368,24.2079,7.76321,31.93,0,31.93,31.9"/>
   <polygon fill="#9A916C" points="0,31.9,7.87486,24.1368,24.2079,24.1368,31.93,31.9"/>
  </g>
  <g transform="translate(1504.14,1134.05)">
   <rect width="31.93" x="0" y="0" fill="#8D8C8C" height="31.9" id="connector13pin"/>
   <rect width="16.4442" x="7.79153" y="7.73544" fill="#8C8663" height="16.4152"/>
   <polygon fill="#B8AF82" points="0,31.9,7.79153,24.1368,7.79153,6.97162,0,0"/>
   <polygon fill="#80795B" points="24.2079,7.76321,7.90264,7.76321,0,0,31.93,0"/>
   <polygon fill="#5E5B43" points="24.2079,24.1368,24.2079,7.76321,31.93,0,31.93,31.9"/>
   <polygon fill="#9A916C" points="0,31.9,7.87486,24.1368,24.2079,24.1368,31.93,31.9"/>
  </g>
  <g transform="translate(1504.14,34.05)">
   <rect width="31.93" x="0" y="0" fill="#8D8C8C" height="31.9" id="connector26pin"/>
   <rect width="16.4442" x="7.79153" y="7.73544" fill="#8C8663" height="16.4152"/>
   <polygon fill="#B8AF82" points="0,31.9,7.79153,24.1368,7.79153,6.97162,0,0"/>
   <polygon fill="#80795B" points="24.2079,7.76321,7.90264,7.76321,0,0,31.93,0"/>
   <polygon fill="#5E5B43" points="24.2079,24.1368,24.2079,7.76321,31.93,0,31.93,31.9"/>
   <polygon fill="#9A916C" points="0,31.9,7.87486,24.1368,24.2079,24.1368,31.93,31.9"/>
  </g>
  <g transform="translate(1604.14,1134.05)">
   <rect width="31.93" x="0" y="0" fill="#8D8C8C" height="31.9" id="connector14pin"/>
   <rect width="16.4442" x="7.79153" y="7.73544" fill="#8C8663" height="16.4152"/>
   <polygon fill="#B8AF82" points="0,31.9,7.79153,24.1368,7.79153,6.97162,0,0"/>
   <polygon fill="#80795B" points="24.2079,7.76321,7.90264,7.76321,0,0,31.93,0"/>
   <polygon fill="#5E5B43" points="24.2079,24.1368,24.2079,7.76321,31.93,0,31.93,31.9"/>
   <polygon fill="#9A916C" points="0,31.9,7.87486,24.1368,24.2079,24.1368,31.93,31.9"/>
  </g>
  <g transform="translate(1604.14,34.05)">
   <rect width="31.93" x="0" y="0" fill="#8D8C8C" height="31.9" id="connector25pin"/>
   <rect width="16.4442" x="7.79153" y="7.73544" fill="#8C8663" height="16.4152"/>
   <polygon fill="#B8AF82" points="0,31.9,7.79153,24.1368,7.79153,6.97162,0,0"/>
   <polygon fill="#80795B" points="24.2079,7.76321,7.90264,7.76321,0,0,31.93,0"/>
   <polygon fill="#5E5B43" points="24.2079,24.1368,24.2079,7.76321,31.93,0,31.93,31.9"/>
   <polygon fill="#9A916C" points="0,31.9,7.87486,24.1368,24.2079,24.1368,31.93,31.9"/>
  </g>
  <g transform="translate(1704.14,1134.05)">
   <rect width="31.93" x="0" y="0" fill="#8D8C8C" height="31.9" id="connector15pin"/>
   <rect width="16.4442" x="7.79153" y="7.73544" fill="#8C8663" height="16.4152"/>
   <polygon fill="#B8AF82" points="0,31.9,7.79153,24.1368,7.79153,6.97162,0,0"/>
   <polygon fill="#80795B" points="24.2079,7.76321,7.90264,7.76321,0,0,31.93,0"/>
   <polygon fill="#5E5B43" points="24.2079,24.1368,24.2079,7.76321,31.93,0,31.93,31.9"/>
   <polygon fill="#9A916C" points="0,31.9,7.87486,24.1368,24.2079,24.1368,31.93,31.9"/>
  </g>
  <g transform="translate(1704.14,34.05)">
   <rect width="31.93" x="0" y="0" fill="#8D8C8C" height="31.9" id="connector24pin"/>
   <rect width="16.4442" x="7.79153" y="7.73544" fill="#8C8663" height="16.4152"/>
   <polygon fill="#B8AF82" points="0,31.9,7.79153,24.1368,7.79153,6.97162,0,0"/>
   <polygon fill="#80795B" points="24.2079,7.76321,7.90264,7.76321,0,0,31.93,0"/>
   <polygon fill="#5E5B43" points="24.2079,24.1368,24.2079,7.76321,31.93,0,31.93,31.9"/>
   <polygon fill="#9A916C" points="0,31.9,7.87486,24.1368,24.2079,24.1368,31.93,31.9"/>
  </g>
  <g transform="translate(1804.14,1134.05)">
   <rect width="31.93" x="0" y="0" fill="#8D8C8C" height="31.9" id="connector16pin"/>
   <rect width="16.4442" x="7.79153" y="7.73544" fill="#8C8663" height="16.4152"/>
   <polygon fill="#B8AF82" points="0,31.9,7.79153,24.1368,7.79153,6.97162,0,0"/>
   <polygon fill="#80795B" points="24.2079,7.76321,7.90264,7.76321,0,0,31.93,0"/>
   <polygon fill="#5E5B43" points="24.2079,24.1368,24.2079,7.76321,31.93,0,31.93,31.9"/>
   <polygon fill="#9A916C" points="0,31.9,7.87486,24.1368,24.2079,24.1368,31.93,31.9"/>
  </g>
  <g transform="translate(1804.14,34.05)">
   <rect width="31.93" x="0" y="0" fill="#8D8C8C" height="31.9" id="connector23pin"/>
   <rect width="16.4442" x="7.79153" y="7.73544" fill="#8C8663" height="16.4152"/>
   <polygon fill="#B8AF82" points="0,31.9,7.79153,24.1368,7.79153,6.97162,0,0"/>
   <polygon fill="#80795B" points="24.2079,7.76321,7.90264,7.76321,0,0,31.93,0"/>
   <polygon fill="#5E5B43" points="24.2079,24.1368,24.2079,7.76321,31.93,0,31.93,31.9"/>
   <polygon fill="#9A916C" points="0,31.9,7.87486,24.1368,24.2079,24.1368,31.93,31.9"/>
  </g>
  <g transform="translate(1904.14,1134.05)">
   <rect width="31.93" x="0" y="0" fill="#8D8C8C" height="31.9" id="connector17pin"/>
   <rect width="16.4442" x="7.79153" y="7.73544" fill="#8C8663" height="16.4152"/>
   <polygon fill="#B8AF82" points="0,31.9,7.79153,24.1368,7.79153,6.97162,0,0"/>
   <polygon fill="#80795B" points="24.2079,7.76321,7.90264,7.76321,0,0,31.93,0"/>
   <polygon fill="#5E5B43" points="24.2079,24.1368,24.2079,7.76321,31.93,0,31.93,31.9"/>
   <polygon fill="#9A916C" points="0,31.9,7.87486,24.1368,24.2079,24.1368,31.93,31.9"/>
  </g>
  <g transform="translate(1904.14,34.05)">
   <rect width="31.93" x="0" y="0" fill="#8D8C8C" height="31.9" id="connector22pin"/>
   <rect width="16.4442" x="7.79153" y="7.73544" fill="#8C8663" height="16.4152"/>
   <polygon fill="#B8AF82" points="0,31.9,7.79153,24.1368,7.79153,6.97162,0,0"/>
   <polygon fill="#80795B" points="24.2079,7.76321,7.90264,7.76321,0,0,31.93,0"/>
   <polygon fill="#5E5B43" points="24.2079,24.1368,24.2079,7.76321,31.93,0,31.93,31.9"/>
   <polygon fill="#9A916C" points="0,31.9,7.87486,24.1368,24.2079,24.1368,31.93,31.9"/>
  </g>
  <g transform="translate(2004.14,1134.05)">
   <rect width="31.93" x="0" y="0" fill="#8D8C8C" height="31.9" id="connector18pin"/>
   <rect width="16.4442" x="7.79153" y="7.73544" fill="#8C8663" height="16.4152"/>
   <polygon fill="#B8AF82" points="0,31.9,7.79153,24.1368,7.79153,6.97162,0,0"/>
   <polygon fill="#80795B" points="24.2079,7.76321,7.90264,7.76321,0,0,31.93,0"/>
   <polygon fill="#5E5B43" points="24.2079,24.1368,24.2079,7.76321,31.93,0,31.93,31.9"/>
   <polygon fill="#9A916C" points="0,31.9,7.87486,24.1368,24.2079,24.1368,31.93,31.9"/>
  </g>
  <g transform="translate(2004.14,34.05)">
   <rect width="31.93" x="0" y="0" fill="#8D8C8C" height="31.9" id="connector21pin"/>
   <rect width="16.4442" x="7.79153" y="7.73544" fill="#8C8663" height="16.4152"/>
   <polygon fill="#B8AF82" points="0,31.9,7.79153,24.1368,7.79153,6.97162,0,0"/>
   <polygon fill="#80795B" points="24.2079,7.76321,7.90264,7.76321,0,0,31.93,0"/>
   <polygon fill="#5E5B43" points="24.2079,24.1368,24.2079,7.76321,31.93,0,31.93,31.9"/>
   <polygon fill="#9A916C" points="0,31.9,7.87486,24.1368,24.2079,24.1368,31.93,31.9"/>
  </g>
  <g transform="translate(2104.14,1134.05)">
   <rect width="31.93" x="0" y="0" fill="#8D8C8C" height="31.9" id="connector19pin"/>
   <rect width="16.4442" x="7.79153" y="7.73544" fill="#8C8663" height="16.4152"/>
   <polygon fill="#B8AF82" points="0,31.9,7.79153,24.1368,7.79153,6.97162,0,0"/>
   <polygon fill="#80795B" points="24.2079,7.76321,7.90264,7.76321,0,0,31.93,0"/>
   <polygon fill="#5E5B43" points="24.2079,24.1368,24.2079,7.76321,31.93,0,31.93,31.9"/>
   <polygon fill="#9A916C" points="0,31.9,7.87486,24.1368,24.2079,24.1368,31.93,31.9"/>
  </g>
  <g transform="translate(2104.14,34.05)">
   <rect width="31.93" x="0" y="0" fill="#8D8C8C" height="31.9" id="connector20pin"/>
   <rect width="16.4442" x="7.79153" y="7.73544" fill="#8C8663" height="16.4152"/>
   <polygon fill="#B8AF82" points="0,31.9,7.79153,24.1368,7.79153,6.97162,0,0"/>
   <polygon fill="#80795B" points="24.2079,7.76321,7.90264,7.76321,0,0,31.93,0"/>
   <polygon fill="#5E5B43" points="24.2079,24.1368,24.2079,7.76321,31.93,0,31.93,31.9"/>
   <polygon fill="#9A916C" points="0,31.9,7.87486,24.1368,24.2079,24.1368,31.93,31.9"/>
  </g>
 </g>
</svg>
