<?xml version='1.0' encoding='UTF-8' standalone='no'?>
<!-- Created with Fritzing (http://www.fritzing.org/) -->
<svg xmlns="http://www.w3.org/2000/svg" width="0.9in" x="0in" version="1.2" y="0in"  height="0.6in" viewBox="0 0 900 600" baseProfile="tiny" xmlns:svg="http://www.w3.org/2000/svg">
 <desc>Fritzing breadboard generated by brd2svg</desc>
 <g id="breadboard">
  <g id="icon">
   <path fill="#1F7A34" stroke="none" stroke-width="0" d="M0,0L0,270A30,30 0 0 1 0,330L0,600L900,600L900,0L0,0z"/>
   <g transform="translate(302.632,144.639)">
    <g>
     <g>
      <path fill="#4D4D4D" d="M236.958,278.639c-24.3889,20.0417,-55.5833,32.0833,-89.5972,32.0833c-77.9583,0,-141.153,-63.2222,-141.153,-141.167c0,-77.9583,63.1944,-141.167,141.153,-141.167c34.0417,0,65.2361,12.0417,89.625,32.1111L236.958,278.639z"/>
      <path fill="#4D4D4D" d="M236.958,278.639c-24.3889,20.0417,-55.5833,32.0833,-89.5972,32.0833c-77.9583,0,-141.153,-63.2222,-141.153,-141.167"/>
      <path opacity="0.2" d="M6.20833,168.222c0,77.9444,63.1944,141.167,141.153,141.167c34.0139,0,65.2083,-12.0278,89.5972,-32.0833l0,1.33333c-24.3889,20.0417,-55.5833,32.0833,-89.5972,32.0833c-77.9583,0,-141.153,-63.2222,-141.153,-141.167L6.20833,168.222z"/>
      <circle fill="#666666" cx="147.375" cy="155.667" r="147.375"/>
      <circle fill="#808080" cx="147.375" cy="147.375" r="147.375"/>
      <circle fill="#4D4D4D" cx="147.361" cy="147.375" r="123.403"/>
      <circle fill="#666666" cx="147.361" cy="127.681" r="123.403"/>
      <rect width="68.6111" x="113.069" y="172.653" fill="#333333" height="68.5972"/>
      <rect width="68.6111" x="113.069" y="172.653" fill="#4D4D4D" height="14.7917"/>
      <rect width="43.7639" x="125.486" y="185.083" fill="#808080" height="9.54167"/>
      <rect width="55.3333" x="119.694" y="233.694" fill="#808080" height="7.56944"/>
      <polygon fill="#999999" points="138.889,232.542,126.903,220.542,126.903,203.569,138.889,191.569,155.847,191.569,167.833,203.569,167.833,220.542,155.847,232.542"/>
      <polygon opacity="0.2" points="167.833,205.514,155.847,193.528,138.889,193.528,126.903,205.514,126.903,203.569,138.889,191.569,155.847,191.569,167.833,203.569"/>
      <polygon opacity="0.2" fill="#FFFFFF" points="126.903,218.597,138.889,230.583,155.861,230.583,167.833,218.597,167.833,220.542,155.861,232.542,138.889,232.542,126.903,220.542"/>
      <path fill="#999999" d="M119.694,179.292l0,55.3333l55.3333,0l0,-55.3333L119.694,179.292zM169.25,228.833L125.486,228.833l0,-43.75l43.7639,0L169.25,228.833z"/>
     </g>
     <g opacity="0.2">
      <path fill="#FFFFFF" d="M294.736,152.944c0,-81.3889,-66,-147.375,-147.375,-147.375C65.9722,5.56944,0,71.5556,0,152.944l0,-5.56944C0,65.9861,65.9722,0,147.361,0c81.375,0,147.375,65.9861,147.375,147.375L294.736,152.944z"/>
      <path fill="#FFFFFF" d="M270.764,133.25c0,-68.1528,-55.2639,-123.403,-123.389,-123.403c-68.1528,0,-123.403,55.2639,-123.403,123.403L23.9722,127.681c0,-68.1528,55.25,-123.403,123.403,-123.403c68.1389,0,123.389,55.2639,123.389,123.403L270.764,133.25z"/>
     </g>
     <g opacity="0.1">
      <path d="M0,150.153c0,81.375,65.9722,147.375,147.361,147.375c81.375,0,147.375,-66,147.375,-147.375l0,-2.77778c0,81.375,-66,147.375,-147.375,147.375C65.9722,294.75,0,228.75,0,147.375L0,150.153z"/>
      <path d="M23.9722,152.944c0,68.1389,55.25,123.417,123.403,123.417c68.1389,0,123.389,-55.2639,123.389,-123.417l0,-5.56944c0,68.1389,-55.2639,123.417,-123.389,123.417c-68.1528,0,-123.403,-55.2639,-123.403,-123.417L23.9722,152.944z"/>
      <path d="M23.9722,133.25c0,68.1389,55.25,123.417,123.403,123.417c68.1389,0,123.389,-55.2639,123.389,-123.417L270.764,127.681c0,68.1389,-55.2639,123.417,-123.389,123.417c-68.1528,0,-123.403,-55.2639,-123.403,-123.417L23.9722,133.25z"/>
     </g>
    </g>
   </g>
  </g>
  <g transform="translate(34.035,534.05)">
   <rect width="31.93" x="0" y="0" fill="#8D8C8C" height="31.9" id="connector0pin"/>
   <rect width="16.4442" x="7.79153" y="7.73544" fill="#8C8663" height="16.4152"/>
   <polygon fill="#B8AF82" points="0,31.9,7.79153,24.1368,7.79153,6.97162,0,0"/>
   <polygon fill="#80795B" points="24.2079,7.76321,7.90264,7.76321,0,0,31.93,0"/>
   <polygon fill="#5E5B43" points="24.2079,24.1368,24.2079,7.76321,31.93,0,31.93,31.9"/>
   <polygon fill="#9A916C" points="0,31.9,7.87486,24.1368,24.2079,24.1368,31.93,31.9"/>
  </g>
  <g transform="translate(34.035,34.05)">
   <rect width="31.93" x="0" y="0" fill="#8D8C8C" height="31.9" id="connector17pin"/>
   <rect width="16.4442" x="7.79153" y="7.73544" fill="#8C8663" height="16.4152"/>
   <polygon fill="#B8AF82" points="0,31.9,7.79153,24.1368,7.79153,6.97162,0,0"/>
   <polygon fill="#80795B" points="24.2079,7.76321,7.90264,7.76321,0,0,31.93,0"/>
   <polygon fill="#5E5B43" points="24.2079,24.1368,24.2079,7.76321,31.93,0,31.93,31.9"/>
   <polygon fill="#9A916C" points="0,31.9,7.87486,24.1368,24.2079,24.1368,31.93,31.9"/>
  </g>
  <g transform="translate(134.035,534.05)">
   <rect width="31.93" x="0" y="0" fill="#8D8C8C" height="31.9" id="connector1pin"/>
   <rect width="16.4442" x="7.79153" y="7.73544" fill="#8C8663" height="16.4152"/>
   <polygon fill="#B8AF82" points="0,31.9,7.79153,24.1368,7.79153,6.97162,0,0"/>
   <polygon fill="#80795B" points="24.2079,7.76321,7.90264,7.76321,0,0,31.93,0"/>
   <polygon fill="#5E5B43" points="24.2079,24.1368,24.2079,7.76321,31.93,0,31.93,31.9"/>
   <polygon fill="#9A916C" points="0,31.9,7.87486,24.1368,24.2079,24.1368,31.93,31.9"/>
  </g>
  <g transform="translate(134.035,34.05)">
   <rect width="31.93" x="0" y="0" fill="#8D8C8C" height="31.9" id="connector16pin"/>
   <rect width="16.4442" x="7.79153" y="7.73544" fill="#8C8663" height="16.4152"/>
   <polygon fill="#B8AF82" points="0,31.9,7.79153,24.1368,7.79153,6.97162,0,0"/>
   <polygon fill="#80795B" points="24.2079,7.76321,7.90264,7.76321,0,0,31.93,0"/>
   <polygon fill="#5E5B43" points="24.2079,24.1368,24.2079,7.76321,31.93,0,31.93,31.9"/>
   <polygon fill="#9A916C" points="0,31.9,7.87486,24.1368,24.2079,24.1368,31.93,31.9"/>
  </g>
  <g transform="translate(234.035,534.05)">
   <rect width="31.93" x="0" y="0" fill="#8D8C8C" height="31.9" id="connector2pin"/>
   <rect width="16.4442" x="7.79153" y="7.73544" fill="#8C8663" height="16.4152"/>
   <polygon fill="#B8AF82" points="0,31.9,7.79153,24.1368,7.79153,6.97162,0,0"/>
   <polygon fill="#80795B" points="24.2079,7.76321,7.90264,7.76321,0,0,31.93,0"/>
   <polygon fill="#5E5B43" points="24.2079,24.1368,24.2079,7.76321,31.93,0,31.93,31.9"/>
   <polygon fill="#9A916C" points="0,31.9,7.87486,24.1368,24.2079,24.1368,31.93,31.9"/>
  </g>
  <g transform="translate(234.035,34.05)">
   <rect width="31.93" x="0" y="0" fill="#8D8C8C" height="31.9" id="connector15pin"/>
   <rect width="16.4442" x="7.79153" y="7.73544" fill="#8C8663" height="16.4152"/>
   <polygon fill="#B8AF82" points="0,31.9,7.79153,24.1368,7.79153,6.97162,0,0"/>
   <polygon fill="#80795B" points="24.2079,7.76321,7.90264,7.76321,0,0,31.93,0"/>
   <polygon fill="#5E5B43" points="24.2079,24.1368,24.2079,7.76321,31.93,0,31.93,31.9"/>
   <polygon fill="#9A916C" points="0,31.9,7.87486,24.1368,24.2079,24.1368,31.93,31.9"/>
  </g>
  <g transform="translate(334.035,534.05)">
   <rect width="31.93" x="0" y="0" fill="#8D8C8C" height="31.9" id="connector3pin"/>
   <rect width="16.4442" x="7.79153" y="7.73544" fill="#8C8663" height="16.4152"/>
   <polygon fill="#B8AF82" points="0,31.9,7.79153,24.1368,7.79153,6.97162,0,0"/>
   <polygon fill="#80795B" points="24.2079,7.76321,7.90264,7.76321,0,0,31.93,0"/>
   <polygon fill="#5E5B43" points="24.2079,24.1368,24.2079,7.76321,31.93,0,31.93,31.9"/>
   <polygon fill="#9A916C" points="0,31.9,7.87486,24.1368,24.2079,24.1368,31.93,31.9"/>
  </g>
  <g transform="translate(334.035,34.05)">
   <rect width="31.93" x="0" y="0" fill="#8D8C8C" height="31.9" id="connector14pin"/>
   <rect width="16.4442" x="7.79153" y="7.73544" fill="#8C8663" height="16.4152"/>
   <polygon fill="#B8AF82" points="0,31.9,7.79153,24.1368,7.79153,6.97162,0,0"/>
   <polygon fill="#80795B" points="24.2079,7.76321,7.90264,7.76321,0,0,31.93,0"/>
   <polygon fill="#5E5B43" points="24.2079,24.1368,24.2079,7.76321,31.93,0,31.93,31.9"/>
   <polygon fill="#9A916C" points="0,31.9,7.87486,24.1368,24.2079,24.1368,31.93,31.9"/>
  </g>
  <g transform="translate(434.035,534.05)">
   <rect width="31.93" x="0" y="0" fill="#8D8C8C" height="31.9" id="connector4pin"/>
   <rect width="16.4442" x="7.79153" y="7.73544" fill="#8C8663" height="16.4152"/>
   <polygon fill="#B8AF82" points="0,31.9,7.79153,24.1368,7.79153,6.97162,0,0"/>
   <polygon fill="#80795B" points="24.2079,7.76321,7.90264,7.76321,0,0,31.93,0"/>
   <polygon fill="#5E5B43" points="24.2079,24.1368,24.2079,7.76321,31.93,0,31.93,31.9"/>
   <polygon fill="#9A916C" points="0,31.9,7.87486,24.1368,24.2079,24.1368,31.93,31.9"/>
  </g>
  <g transform="translate(434.035,34.05)">
   <rect width="31.93" x="0" y="0" fill="#8D8C8C" height="31.9" id="connector13pin"/>
   <rect width="16.4442" x="7.79153" y="7.73544" fill="#8C8663" height="16.4152"/>
   <polygon fill="#B8AF82" points="0,31.9,7.79153,24.1368,7.79153,6.97162,0,0"/>
   <polygon fill="#80795B" points="24.2079,7.76321,7.90264,7.76321,0,0,31.93,0"/>
   <polygon fill="#5E5B43" points="24.2079,24.1368,24.2079,7.76321,31.93,0,31.93,31.9"/>
   <polygon fill="#9A916C" points="0,31.9,7.87486,24.1368,24.2079,24.1368,31.93,31.9"/>
  </g>
  <g transform="translate(534.035,534.05)">
   <rect width="31.93" x="0" y="0" fill="#8D8C8C" height="31.9" id="connector5pin"/>
   <rect width="16.4442" x="7.79153" y="7.73544" fill="#8C8663" height="16.4152"/>
   <polygon fill="#B8AF82" points="0,31.9,7.79153,24.1368,7.79153,6.97162,0,0"/>
   <polygon fill="#80795B" points="24.2079,7.76321,7.90264,7.76321,0,0,31.93,0"/>
   <polygon fill="#5E5B43" points="24.2079,24.1368,24.2079,7.76321,31.93,0,31.93,31.9"/>
   <polygon fill="#9A916C" points="0,31.9,7.87486,24.1368,24.2079,24.1368,31.93,31.9"/>
  </g>
  <g transform="translate(534.035,34.05)">
   <rect width="31.93" x="0" y="0" fill="#8D8C8C" height="31.9" id="connector12pin"/>
   <rect width="16.4442" x="7.79153" y="7.73544" fill="#8C8663" height="16.4152"/>
   <polygon fill="#B8AF82" points="0,31.9,7.79153,24.1368,7.79153,6.97162,0,0"/>
   <polygon fill="#80795B" points="24.2079,7.76321,7.90264,7.76321,0,0,31.93,0"/>
   <polygon fill="#5E5B43" points="24.2079,24.1368,24.2079,7.76321,31.93,0,31.93,31.9"/>
   <polygon fill="#9A916C" points="0,31.9,7.87486,24.1368,24.2079,24.1368,31.93,31.9"/>
  </g>
  <g transform="translate(634.035,534.05)">
   <rect width="31.93" x="0" y="0" fill="#8D8C8C" height="31.9" id="connector6pin"/>
   <rect width="16.4442" x="7.79153" y="7.73544" fill="#8C8663" height="16.4152"/>
   <polygon fill="#B8AF82" points="0,31.9,7.79153,24.1368,7.79153,6.97162,0,0"/>
   <polygon fill="#80795B" points="24.2079,7.76321,7.90264,7.76321,0,0,31.93,0"/>
   <polygon fill="#5E5B43" points="24.2079,24.1368,24.2079,7.76321,31.93,0,31.93,31.9"/>
   <polygon fill="#9A916C" points="0,31.9,7.87486,24.1368,24.2079,24.1368,31.93,31.9"/>
  </g>
  <g transform="translate(634.035,34.05)">
   <rect width="31.93" x="0" y="0" fill="#8D8C8C" height="31.9" id="connector11pin"/>
   <rect width="16.4442" x="7.79153" y="7.73544" fill="#8C8663" height="16.4152"/>
   <polygon fill="#B8AF82" points="0,31.9,7.79153,24.1368,7.79153,6.97162,0,0"/>
   <polygon fill="#80795B" points="24.2079,7.76321,7.90264,7.76321,0,0,31.93,0"/>
   <polygon fill="#5E5B43" points="24.2079,24.1368,24.2079,7.76321,31.93,0,31.93,31.9"/>
   <polygon fill="#9A916C" points="0,31.9,7.87486,24.1368,24.2079,24.1368,31.93,31.9"/>
  </g>
  <g transform="translate(734.035,534.05)">
   <rect width="31.93" x="0" y="0" fill="#8D8C8C" height="31.9" id="connector7pin"/>
   <rect width="16.4442" x="7.79153" y="7.73544" fill="#8C8663" height="16.4152"/>
   <polygon fill="#B8AF82" points="0,31.9,7.79153,24.1368,7.79153,6.97162,0,0"/>
   <polygon fill="#80795B" points="24.2079,7.76321,7.90264,7.76321,0,0,31.93,0"/>
   <polygon fill="#5E5B43" points="24.2079,24.1368,24.2079,7.76321,31.93,0,31.93,31.9"/>
   <polygon fill="#9A916C" points="0,31.9,7.87486,24.1368,24.2079,24.1368,31.93,31.9"/>
  </g>
  <g transform="translate(734.035,34.05)">
   <rect width="31.93" x="0" y="0" fill="#8D8C8C" height="31.9" id="connector10pin"/>
   <rect width="16.4442" x="7.79153" y="7.73544" fill="#8C8663" height="16.4152"/>
   <polygon fill="#B8AF82" points="0,31.9,7.79153,24.1368,7.79153,6.97162,0,0"/>
   <polygon fill="#80795B" points="24.2079,7.76321,7.90264,7.76321,0,0,31.93,0"/>
   <polygon fill="#5E5B43" points="24.2079,24.1368,24.2079,7.76321,31.93,0,31.93,31.9"/>
   <polygon fill="#9A916C" points="0,31.9,7.87486,24.1368,24.2079,24.1368,31.93,31.9"/>
  </g>
  <g transform="translate(834.035,534.05)">
   <rect width="31.93" x="0" y="0" fill="#8D8C8C" height="31.9" id="connector8pin"/>
   <rect width="16.4442" x="7.79153" y="7.73544" fill="#8C8663" height="16.4152"/>
   <polygon fill="#B8AF82" points="0,31.9,7.79153,24.1368,7.79153,6.97162,0,0"/>
   <polygon fill="#80795B" points="24.2079,7.76321,7.90264,7.76321,0,0,31.93,0"/>
   <polygon fill="#5E5B43" points="24.2079,24.1368,24.2079,7.76321,31.93,0,31.93,31.9"/>
   <polygon fill="#9A916C" points="0,31.9,7.87486,24.1368,24.2079,24.1368,31.93,31.9"/>
  </g>
  <g transform="translate(834.035,34.05)">
   <rect width="31.93" x="0" y="0" fill="#8D8C8C" height="31.9" id="connector9pin"/>
   <rect width="16.4442" x="7.79153" y="7.73544" fill="#8C8663" height="16.4152"/>
   <polygon fill="#B8AF82" points="0,31.9,7.79153,24.1368,7.79153,6.97162,0,0"/>
   <polygon fill="#80795B" points="24.2079,7.76321,7.90264,7.76321,0,0,31.93,0"/>
   <polygon fill="#5E5B43" points="24.2079,24.1368,24.2079,7.76321,31.93,0,31.93,31.9"/>
   <polygon fill="#9A916C" points="0,31.9,7.87486,24.1368,24.2079,24.1368,31.93,31.9"/>
  </g>
 </g>
</svg>
