<?xml version='1.0' encoding='UTF-8' standalone='no'?>
<!-- Created with Fritzing (http://www.fritzing.org/) -->
<svg xmlns="http://www.w3.org/2000/svg" width="0.445014in" x="0in" version="1.2" y="0in"  height="0.6in" viewBox="0 0 445.014 600" baseProfile="tiny" xmlns:svg="http://www.w3.org/2000/svg">
 <desc>Fritzing breadboard generated by brd2svg</desc>
 <g id="breadboard">
  <g id="icon">
   <path fill="#1F7A34" stroke="none" stroke-width="0" d="M0,0L0,270A30,30 0 0 1 0,330L0,600L445.014,600L445.014,0L0,0z"/>
   <g transform="translate(100,136.055)">
    <g>
     <path fill="#999999" d="M245.014,225.056c0,11.0139,-8.97222,19.9722,-19.9722,19.9722L19.9722,245.028C9,245.028,0,236.056,0,225.056L0,19.9722C0.0277778,8.97222,9,0,19.9722,0l205.111,0c11.0139,0,19.9722,8.97222,19.9722,19.9722L245.014,225.056L245.014,225.056z"/>
     <circle cx="35.6944" cy="35.6944" r="21.2361"/>
     <circle cx="209.944" cy="36.0556" r="21.2361"/>
     <circle cx="209.583" cy="210.292" r="21.2222"/>
     <circle cx="35.3472" cy="209.917" r="21.2222"/>
     <circle fill="#3F3F3F" cx="122.514" cy="122.528" r="71.4583"/>
     <linearGradient gradientTransform="matrix(0.7195 0 0 0.7195 -44.442 -2043.5012)" id="SVGID_1_" y1="39617.1" x1="928.864" y2="39617.1" gradientUnits="userSpaceOnUse" x2="1127.5">
      <stop offset="0" style="stop-color:#333333"/>
      <stop offset="1" style="stop-color:#3C3C3C"/>
     </linearGradient>
     <circle fill="url(#SVGID_1_)" cx="122.514" cy="122.528" r="71.4583"/>
     <circle opacity="0.6" cx="123.778" cy="131" r="62.875"/>
     <circle fill="#735348" cx="122.625" cy="122.944" r="61.2778"/>
     <path opacity="0.5" fill="#FFFFFF" d="M32.9722,34.5833c0.388889,-0.986111,1.18056,-1.77778,2.26389,-1.97222l-2.08333,-13.3611c-0.833333,0.138889,-1.65278,0.0277778,-2.45833,0.291667L30.6944,19.4444C25.7361,20.9583,22.0556,24.6667,20.1389,29.375L32.9722,34.5833z"/>
     <path opacity="0.5" fill="#FFFFFF" d="M207.194,34.9583c0.375,-1.01389,1.18056,-1.79167,2.27778,-1.98611l-2.06944,-13.375c-0.833333,0.152778,-1.63889,0.0277778,-2.45833,0.277778l-0.0277778,-0.0833333C200,21.2917,196.264,24.9861,194.389,29.7222L207.194,34.9583z"/>
     <path opacity="0.5" fill="#FFFFFF" d="M206.819,209.167c0.402778,-1,1.15278,-1.79167,2.26389,-1.98611l-2.02778,-13.375c-0.861111,0.166667,-1.63889,0.0277778,-2.48611,0.291667l-0.0138889,-0.111111c-4.91667,1.47222,-8.65278,5.20833,-10.5417,9.93056L206.819,209.167z"/>
     <path opacity="0.5" fill="#FFFFFF" d="M32.5833,208.819c0.402778,-1,1.18056,-1.76389,2.29167,-1.97222L32.7778,193.458c-0.819444,0.194444,-1.625,0.0277778,-2.44444,0.291667l-0.0277778,-0.0972222c-4.91667,1.48611,-8.63889,5.20833,-10.5556,9.91667L32.5833,208.819z"/>
     <path opacity="0.6" fill="#FFFFFF" d="M144.528,65.8333c-4.75,-1.86111,-9.72222,-3.18056,-15,-3.79167C116.361,60.5694,103.75,63.4861,92.9861,69.4583L91.6528,72.9444c12.0278,-6.43056,26.0139,-9.41667,40.5972,-7.80556c4.48611,0.527778,8.875,1.52778,13.0278,2.84722L144.528,65.8333z"/>
    </g>
   </g>
  </g>
  <g transform="translate(156.542,534.05)">
   <rect width="31.93" x="0" y="0" fill="#8D8C8C" height="31.9" id="connector0pin"/>
   <rect width="16.4442" x="7.79153" y="7.73544" fill="#8C8663" height="16.4152"/>
   <polygon fill="#B8AF82" points="0,31.9,7.79153,24.1368,7.79153,6.97162,0,0"/>
   <polygon fill="#80795B" points="24.2079,7.76321,7.90264,7.76321,0,0,31.93,0"/>
   <polygon fill="#5E5B43" points="24.2079,24.1368,24.2079,7.76321,31.93,0,31.93,31.9"/>
   <polygon fill="#9A916C" points="0,31.9,7.87486,24.1368,24.2079,24.1368,31.93,31.9"/>
  </g>
  <g transform="translate(156.542,34.05)">
   <rect width="31.93" x="0" y="0" fill="#8D8C8C" height="31.9" id="connector3pin"/>
   <rect width="16.4442" x="7.79153" y="7.73544" fill="#8C8663" height="16.4152"/>
   <polygon fill="#B8AF82" points="0,31.9,7.79153,24.1368,7.79153,6.97162,0,0"/>
   <polygon fill="#80795B" points="24.2079,7.76321,7.90264,7.76321,0,0,31.93,0"/>
   <polygon fill="#5E5B43" points="24.2079,24.1368,24.2079,7.76321,31.93,0,31.93,31.9"/>
   <polygon fill="#9A916C" points="0,31.9,7.87486,24.1368,24.2079,24.1368,31.93,31.9"/>
  </g>
  <g transform="translate(256.542,534.05)">
   <rect width="31.93" x="0" y="0" fill="#8D8C8C" height="31.9" id="connector1pin"/>
   <rect width="16.4442" x="7.79153" y="7.73544" fill="#8C8663" height="16.4152"/>
   <polygon fill="#B8AF82" points="0,31.9,7.79153,24.1368,7.79153,6.97162,0,0"/>
   <polygon fill="#80795B" points="24.2079,7.76321,7.90264,7.76321,0,0,31.93,0"/>
   <polygon fill="#5E5B43" points="24.2079,24.1368,24.2079,7.76321,31.93,0,31.93,31.9"/>
   <polygon fill="#9A916C" points="0,31.9,7.87486,24.1368,24.2079,24.1368,31.93,31.9"/>
  </g>
  <g transform="translate(256.542,34.05)">
   <rect width="31.93" x="0" y="0" fill="#8D8C8C" height="31.9" id="connector2pin"/>
   <rect width="16.4442" x="7.79153" y="7.73544" fill="#8C8663" height="16.4152"/>
   <polygon fill="#B8AF82" points="0,31.9,7.79153,24.1368,7.79153,6.97162,0,0"/>
   <polygon fill="#80795B" points="24.2079,7.76321,7.90264,7.76321,0,0,31.93,0"/>
   <polygon fill="#5E5B43" points="24.2079,24.1368,24.2079,7.76321,31.93,0,31.93,31.9"/>
   <polygon fill="#9A916C" points="0,31.9,7.87486,24.1368,24.2079,24.1368,31.93,31.9"/>
  </g>
 </g>
</svg>
