<?xml version='1.0' encoding='utf-8'?>
<!DOCTYPE svg>
<!-- Generator: Adobe Illustrator 16.0.0, SVG Export Plug-In . SVG Version: 6.00 Build 0)  -->
<svg xmlns="http://www.w3.org/2000/svg"  width="0.554333in" xml:space="preserve" xmlns:xml="http://www.w3.org/XML/1998/namespace" x="0px" version="1.1" y="0px" height="1in" viewBox="0 0 39.912 72" id="0" enable-background="new 0 0 39.912 72">
<desc><referenceFile>sparkfun-connectors_power_jack_combo_breadboard.svg_f78b638e8a84bb753e57504cce87bd3d_breadboard_4.svg</referenceFile></desc>

 <desc   id="0.0" oldid="0.0">Fritzing breadboard generated by brd2svg</desc>
 <g   id="breadboard">
  <g   id="icon">
   <path  fill="#1F7A34"  id="0.1.0.0" d="M0,0v33.84c1.193,0,2.16,0.967,2.16,2.16c0,1.193-0.967,2.16-2.16,2.16V72h39.912V0H0z"/>
   <g   id="0.1.0.1" transform="translate(100,139.882)">
    <g   id="0.1.0.1">
     <g   id="0.1.0.1.0">
      <g   id="0.1.0.1.0.0">
       <g   id="0.1.0.1.0.0.0">
        <rect  width="23.733" x="-91.909" y="-128.11" fill="#232323"  height="32.97" id="0.1.0.1.0.0.0.0"/>
        <rect  width="1.645" x="-91.336" y="-127.677" fill="#494949"  height="31.935" id="0.1.0.1.0.0.0.1"/>
        <rect  width="5.369" x="-89.688" y="-127.677" fill="#3D3D3D"  height="31.935" fill-opacity="0.3" id="0.1.0.1.0.0.0.2"/>
        <rect  width="1.619" x="-70.313" y="-127.677"  height="32.971" id="0.1.0.1.0.0.0.3"/>
        <rect  width="5.828" x="-76.091" y="-127.677" fill="#0F0F0F"  height="32.971" fill-opacity="0.4" id="0.1.0.1.0.0.0.4"/>
       </g>
       <rect  width="23.733" x="-91.909" opacity="0.2" y="-128.11"  height="0.592" enable-background="new    " id="0.1.0.1.0.0.1"/>
      </g>
      <line  opacity="0.5" fill="none"  stroke="#000000" enable-background="new    " id="0.1.0.1.0.1" y1="-125.299" stroke-width="3.4722" x1="-68.176" y2="-125.299" x2="-91.909" stroke-miterlimit="10"/>
      <g   id="0.1.0.1.0.2">
       <rect  width="23.729" x="-91.883" opacity="0.25" y="-98.636"  height="1.287" enable-background="new    " id="0.1.0.1.0.2.0"/>
       <path  opacity="0.25"  stroke="#565656" enable-background="new    " id="0.1.0.1.0.2.1" stroke-width="3.4722" d="M-87.585-97.63h15.081v-13.298c0-4.165-3.376-7.541-7.541-7.541c-4.164,0-7.541,3.376-7.541,7.541L-87.585-97.63L-87.585-97.63z" stroke-miterlimit="10"/>
      </g>
      <g   id="0.1.0.1.0.3">
       <path  fill="#232323"  id="0.1.0.1.0.3.0" d="M-87.585-97.63h15.081v-13.298c0-4.165-3.376-7.541-7.541-7.541c-4.164,0-7.541,3.376-7.541,7.541L-87.585-97.63L-87.585-97.63z"/>
       <rect  width="25.512" x="-92.8" y="-98.359" fill="#232323"  height="7.688" id="0.1.0.1.0.3.1"/>
      </g>
      <rect  width="5.713" x="-82.9" y="-129.81" fill="#6D6D6D"  height="1.701" id="0.1.0.1.0.4"/>
      <rect  width="11.221" x="-85.654" y="-129.085" fill="#494949"  height="0.975" id="0.1.0.1.0.5"/>
      <g   id="0.1.0.1.0.6">
       <g   enable-background="new    " id="0.1.0.1.0.6.0">
        <g   id="0.1.0.1.0.6.0.0">
         <g   id="0.1.0.1.0.6.0.0.0">
          <path  fill="#1A1A1A"  id="0.1.0.1.0.6.0.0.0.0" d="M-87.37-80.665c-1.869-0.939-3.025-2.232-3.025-3.664c0-2.861,4.645-5.188,10.378-5.188c5.732,0,10.375,2.326,10.375,5.188c0,0.164-0.017,0.324-0.045,0.482c-0.313,2.723-4.83,4.887-10.358,4.887c-5.733,0-10.377-2.326-10.377-5.188v-0.192C-90.423-82.905-89.256-81.606-87.37-80.665 M-90.396-84.356v-0.188c0-2.866,4.645-5.188,10.377-5.188c5.733,0,10.377,2.321,10.377,5.188v0.188c0-2.866-4.646-5.188-10.377-5.188S-90.396-87.222-90.396-84.356 M-67.267-90.704h-25.505v12.752h25.507v-12.752"/>
          <path   id="0.1.0.1.0.6.0.0.0.1" d="M-77.813-89.007v4.679c0,0.249-0.162,0.478-0.438,0.661c-0.288,0.34-0.958,0.576-1.74,0.576c-0.694,0-1.303-0.189-1.629-0.475c-0.379-0.199-0.612-0.468-0.612-0.766v-4.678c-4.241,0.5-7.397,2.402-7.397,4.678c0,2.656,4.302,4.807,9.611,4.807c5.311,0,9.612-2.148,9.612-4.807C-70.405-86.605-73.567-88.509-77.813-89.007"/>
          <path  fill="#808080"  id="0.1.0.1.0.6.0.0.0.2" d="M-80.018-89.134c-0.763,0-1.504,0.045-2.215,0.129v4.678c0-0.607,0.99-1.104,2.215-1.104c1.214,0,2.205,0.494,2.205,1.104v-4.68C-78.521-89.091-79.26-89.134-80.018-89.134"/>
          <path  fill="#333333"  id="0.1.0.1.0.6.0.0.0.3" d="M-80.018-89.134c0.758,0,1.496,0.045,2.205,0.127c4.246,0.498,7.406,2.402,7.406,4.68c0,2.654-4.302,4.806-9.611,4.806c-5.311,0-9.612-2.149-9.612-4.806c0-2.273,3.156-4.178,7.397-4.678C-81.522-89.089-80.78-89.134-80.018-89.134 M-80.018-89.517c-5.733,0-10.378,2.325-10.378,5.188c0,1.431,1.156,2.724,3.025,3.662c1.876,0.935,4.465,1.513,7.325,1.513c5.732,0,10.377-2.321,10.377-5.188v0.192c0,0.103-0.007,0.202-0.02,0.304c0.028-0.158,0.045-0.32,0.045-0.482C-69.642-87.192-74.285-89.517-80.018-89.517"/>
          <path  fill="#B3B3B3"  id="0.1.0.1.0.6.0.0.0.4" d="M-80.018-85.431c-1.225,0-2.215,0.494-2.215,1.104c0,0.297,0.233,0.564,0.612,0.765c-0.16-0.139-0.252-0.301-0.252-0.473c0-0.521,0.846-0.938,1.881-0.938c1.044,0,1.892,0.418,1.892,0.938c0,0.132-0.055,0.257-0.15,0.37c0.275-0.186,0.438-0.413,0.438-0.662C-77.813-84.937-78.804-85.431-80.018-85.431"/>
          <path  fill="#CCCCCC"  id="0.1.0.1.0.6.0.0.0.5" d="M-79.991-84.976c-1.035,0-1.881,0.418-1.881,0.938c0,0.173,0.092,0.334,0.252,0.474c0.326,0.283,0.936,0.474,1.629,0.474c0.782,0,1.453-0.235,1.74-0.574c0.096-0.113,0.15-0.238,0.15-0.37C-78.101-84.558-78.946-84.976-79.991-84.976"/>
          <path  fill="#4D4D4D"  id="0.1.0.1.0.6.0.0.0.6" d="M-80.018-89.734c-5.733,0-10.378,2.321-10.378,5.188v0.188c0-2.866,4.645-5.188,10.378-5.188c5.732,0,10.376,2.322,10.376,5.188v-0.188C-69.642-87.411-74.285-89.734-80.018-89.734"/>
          <path   id="0.1.0.1.0.6.0.0.0.7" d="M-69.668-84.341c0,2.863-4.646,5.188-10.377,5.188c-2.859,0-5.448-0.578-7.325-1.512c-1.886-0.939-3.052-2.24-3.052-3.676v0.191c0,2.861,4.644,5.188,10.377,5.188c5.528,0,10.045-2.164,10.358-4.885c0.013-0.102,0.02-0.201,0.02-0.304L-69.668-84.341"/>
         </g>
        </g>
       </g>
      </g>
      <rect  width="1.05" x="-92.386" y="-97.63" fill="#494949"  height="6.264" id="0.1.0.1.0.7"/>
      <rect  width="1.051" x="-68.7" y="-97.63"  height="6.264" id="0.1.0.1.0.8"/>
     </g>
    </g>
   </g>
  </g>
  <g   id="0.1.1" transform="translate(211.202,934.05)">
   <g   id="0.1.1">
    <g   id="0.1.1.0">
     <rect  width="2.299" x="-195.995" y="-866.798" fill="#8D8C8C"  height="2.297" id="connector0pin"/>
     <rect  width="1.184" x="-195.434" y="-866.241" fill="#8C8663"  height="1.182" id="0.1.1.0.1"/>
     <polygon  fill="#B8AF82" points="-195.995,-864.501 -195.434,-865.061 -195.434,-866.296 -195.995,-866.798 "  id="0.1.1.0.2"/>
     <polygon  fill="#80795B" points="-194.252,-866.239 -195.427,-866.239 -195.995,-866.798 -193.697,-866.798 "  id="0.1.1.0.3"/>
     <polygon  fill="#5E5B43" points="-194.252,-865.061 -194.252,-866.239 -193.697,-866.798 -193.697,-864.501 "  id="0.1.1.0.4"/>
     <polygon  fill="#9A916C" points="-195.995,-864.501 -195.429,-865.061 -194.252,-865.061 -193.697,-864.501 "  id="0.1.1.0.5"/>
    </g>
   </g>
  </g>
  <g   id="0.1.2" transform="translate(211.202,34.05)">
   <g   id="0.1.2">
    <g   id="0.1.2.0">
     <rect  width="2.299" x="-195.995" y="-31.598" fill="#8D8C8C"  height="2.297" id="connector3pin"/>
     <rect  width="1.184" x="-195.434" y="-31.042" fill="#8C8663"  height="1.182" id="0.1.2.0.1"/>
     <polygon  fill="#B8AF82" points="-195.995,-29.301 -195.434,-29.861 -195.434,-31.096 -195.995,-31.598 "  id="0.1.2.0.2"/>
     <polygon  fill="#80795B" points="-194.252,-31.039 -195.427,-31.039 -195.995,-31.598 -193.697,-31.598 "  id="0.1.2.0.3"/>
     <polygon  fill="#5E5B43" points="-194.252,-29.861 -194.252,-31.039 -193.697,-31.598 -193.697,-29.301 "  id="0.1.2.0.4"/>
     <polygon  fill="#9A916C" points="-195.995,-29.301 -195.429,-29.861 -194.252,-29.861 -193.697,-29.301 "  id="0.1.2.0.5"/>
    </g>
   </g>
  </g>
  <g   id="0.1.3" transform="translate(311.202,934.05)">
   <g   id="0.1.3">
    <g   id="connector1pin">
     <rect  width="2.299" x="-288.795" y="-866.798" fill="#8D8C8C"  height="2.297" id="connector1pin_1_"/>
     <rect  width="1.184" x="-288.234" y="-866.241" fill="#8C8663"  height="1.182" id="0.1.3.0.1"/>
     <polygon  fill="#B8AF82" points="-288.795,-864.501 -288.234,-865.061 -288.234,-866.296 -288.795,-866.798 "  id="0.1.3.0.2"/>
     <polygon  fill="#80795B" points="-287.053,-866.239 -288.226,-866.239 -288.795,-866.798 -286.496,-866.798 "  id="0.1.3.0.3"/>
     <polygon  fill="#5E5B43" points="-287.053,-865.061 -287.053,-866.239 -286.496,-866.798 -286.496,-864.501 "  id="0.1.3.0.4"/>
     <polygon  fill="#9A916C" points="-288.795,-864.501 -288.228,-865.061 -287.053,-865.061 -286.496,-864.501 "  id="0.1.3.0.5"/>
    </g>
   </g>
  </g>
  <g   id="0.1.4" transform="translate(311.202,34.05)">
   <g   id="0.1.4">
    <g   id="0.1.4.0">
     <rect  width="2.299" x="-288.795" y="-31.598" fill="#8D8C8C"  height="2.297" id="connector2pin"/>
     <rect  width="1.184" x="-288.234" y="-31.042" fill="#8C8663"  height="1.182" id="0.1.4.0.1"/>
     <polygon  fill="#B8AF82" points="-288.795,-29.301 -288.234,-29.861 -288.234,-31.096 -288.795,-31.598 "  id="0.1.4.0.2"/>
     <polygon  fill="#80795B" points="-287.053,-31.039 -288.226,-31.039 -288.795,-31.598 -286.496,-31.598 "  id="0.1.4.0.3"/>
     <polygon  fill="#5E5B43" points="-287.053,-29.861 -287.053,-31.039 -286.496,-31.598 -286.496,-29.301 "  id="0.1.4.0.4"/>
     <polygon  fill="#9A916C" points="-288.795,-29.301 -288.228,-29.861 -287.053,-29.861 -286.496,-29.301 "  id="0.1.4.0.5"/>
    </g>
   </g>
  </g>
 </g>
</svg>
