<?xml version='1.0' encoding='UTF-8' standalone='no'?>
<!-- Created with Fritzing (http://www.fritzing.org/) -->
<svg xmlns="http://www.w3.org/2000/svg" width="0.655403in" x="0in" version="1.2" y="0in"  height="0.6in" viewBox="0 0 655.403 600" baseProfile="tiny" xmlns:svg="http://www.w3.org/2000/svg">
 <desc>Fritzing breadboard generated by brd2svg</desc>
 <g id="breadboard">
  <g id="icon">
   <path fill="#1F7A34" stroke="none" stroke-width="0" d="M0,0L0,270A30,30 0 0 1 0,330L0,600L655.403,600L655.403,0L0,0z"/>
   <g transform="translate(100,185.257)">
    <circle fill="#808080" cx="332.736" cy="0" r="20.4028"/>
    <circle fill="#808080" cx="332.736" cy="188.681" r="20.4028"/>
    <polygon fill="#333333" points="120.611,0,120.611,25.8889,0,25.8889,0,162.347,120.611,162.347,120.611,188.667,398.667,188.667,398.667,0"/>
    <polygon fill="#2B2B2B" points="394.722,53.4444,394.722,53.4444,394.722,135.25,394.722,135.25,394.722,154.056,436.944,154.056,436.944,34.6528,394.722,34.6528"/>
    <polygon fill="#292929" points="394.722,132.542,394.722,135.25,394.722,135.25,394.722,149.764,436.944,149.764,436.944,132.542"/>
    <polygon fill="#292929" points="394.722,59.1111,394.722,53.1111,394.722,53.1111,394.722,38.5833,436.944,38.5833,436.944,59.1111"/>
    <rect width="42.0139" x="394.722" y="72.8889" fill="#333333" height="31.75"/>
    <rect width="42.0139" x="394.722" y="82.0278" fill="#383838" height="17.4167"/>
    <rect width="42.2361" x="394.722" y="149.736" fill="#212121" height="4.33333"/>
    <rect width="42.2361" x="394.722" y="34.6667" fill="#212121" height="3.91667"/>
    <rect width="18.625" x="436.778" y="34.6667" fill="#A1A1A1" height="119.333"/>
    <rect width="18.625" x="436.778" y="59.0972" fill="#ABABAB" height="73.4722"/>
    <rect width="18.625" x="436.778" y="72.8889" fill="#C7C7C7" height="31.75"/>
    <rect width="18.625" x="436.778" y="82.0278" fill="#E6E6E6" height="17.4167"/>
    <rect width="18.625" x="436.778" y="34.6667" fill="#737373" height="3.91667"/>
    <rect width="18.625" x="436.778" y="149.931" fill="#737373" height="3.93056"/>
    <rect width="51.2917" x="291.125" y="0.0555556" height="25"/>
    <rect width="51.3472" x="239.75" y="163.653" height="25.0139"/>
    <rect width="51.2917" x="291.125" y="0.0555556" fill="#C7C7C7" height="8.26389"/>
    <rect width="51.3472" x="239.75" y="180.389" fill="#C7C7C7" height="8.27778"/>
   </g>
  </g>
  <g transform="translate(261.736,534.05)">
   <rect width="31.93" x="0" y="0" fill="#8D8C8C" height="31.9" id="connector0pin"/>
   <rect width="16.4442" x="7.79153" y="7.73544" fill="#8C8663" height="16.4152"/>
   <polygon fill="#B8AF82" points="0,31.9,7.79153,24.1368,7.79153,6.97162,0,0"/>
   <polygon fill="#80795B" points="24.2079,7.76321,7.90264,7.76321,0,0,31.93,0"/>
   <polygon fill="#5E5B43" points="24.2079,24.1368,24.2079,7.76321,31.93,0,31.93,31.9"/>
   <polygon fill="#9A916C" points="0,31.9,7.87486,24.1368,24.2079,24.1368,31.93,31.9"/>
  </g>
  <g transform="translate(261.736,34.05)">
   <rect width="31.93" x="0" y="0" fill="#8D8C8C" height="31.9" id="connector3pin"/>
   <rect width="16.4442" x="7.79153" y="7.73544" fill="#8C8663" height="16.4152"/>
   <polygon fill="#B8AF82" points="0,31.9,7.79153,24.1368,7.79153,6.97162,0,0"/>
   <polygon fill="#80795B" points="24.2079,7.76321,7.90264,7.76321,0,0,31.93,0"/>
   <polygon fill="#5E5B43" points="24.2079,24.1368,24.2079,7.76321,31.93,0,31.93,31.9"/>
   <polygon fill="#9A916C" points="0,31.9,7.87486,24.1368,24.2079,24.1368,31.93,31.9"/>
  </g>
  <g transform="translate(361.736,534.05)">
   <rect width="31.93" x="0" y="0" fill="#8D8C8C" height="31.9" id="connector1pin"/>
   <rect width="16.4442" x="7.79153" y="7.73544" fill="#8C8663" height="16.4152"/>
   <polygon fill="#B8AF82" points="0,31.9,7.79153,24.1368,7.79153,6.97162,0,0"/>
   <polygon fill="#80795B" points="24.2079,7.76321,7.90264,7.76321,0,0,31.93,0"/>
   <polygon fill="#5E5B43" points="24.2079,24.1368,24.2079,7.76321,31.93,0,31.93,31.9"/>
   <polygon fill="#9A916C" points="0,31.9,7.87486,24.1368,24.2079,24.1368,31.93,31.9"/>
  </g>
  <g transform="translate(361.736,34.05)">
   <rect width="31.93" x="0" y="0" fill="#8D8C8C" height="31.9" id="connector2pin"/>
   <rect width="16.4442" x="7.79153" y="7.73544" fill="#8C8663" height="16.4152"/>
   <polygon fill="#B8AF82" points="0,31.9,7.79153,24.1368,7.79153,6.97162,0,0"/>
   <polygon fill="#80795B" points="24.2079,7.76321,7.90264,7.76321,0,0,31.93,0"/>
   <polygon fill="#5E5B43" points="24.2079,24.1368,24.2079,7.76321,31.93,0,31.93,31.9"/>
   <polygon fill="#9A916C" points="0,31.9,7.87486,24.1368,24.2079,24.1368,31.93,31.9"/>
  </g>
 </g>
</svg>
