<?xml version='1.0' encoding='UTF-8' standalone='no'?>
<!-- Created with Fritzing (http://www.fritzing.org/) -->
<svg xmlns="http://www.w3.org/2000/svg" width="1.08976in" x="0in" version="1.2" y="0in"  height="0.6in" viewBox="0 0 1089.76 600" baseProfile="tiny" xmlns:svg="http://www.w3.org/2000/svg">
 <desc>Fritzing breadboard generated by brd2svg</desc>
 <g id="breadboard">
  <g id="icon">
   <path fill="#1F7A34" stroke="none" stroke-width="0" d="M0,0L0,270A30,30 0 0 1 0,330L0,600L1089.76,600L1089.76,0L0,0z"/>
   <g transform="translate(100,138.604)">
    <g>
     <rect width="90.5556" x="799.208" y="183.319" fill="#B3B3B3" height="4.625"/>
     <rect width="90.5556" x="0" y="183.319" fill="#B3B3B3" height="4.625"/>
     <g>
      <g>
       <rect width="23.625" x="728.403" y="0" fill="#E6E6E6" height="88.4167"/>
      </g>
      <g>
       <rect width="23.625" x="689.028" y="0" fill="#E6E6E6" height="88.4167"/>
      </g>
      <g>
       <rect width="23.625" x="649.653" y="0" fill="#E6E6E6" height="88.4167"/>
      </g>
      <g>
       <rect width="23.625" x="610.278" y="0" fill="#E6E6E6" height="88.4167"/>
      </g>
      <g>
       <rect width="23.625" x="570.903" y="0" fill="#E6E6E6" height="88.4167"/>
      </g>
      <g>
       <rect width="23.625" x="531.528" y="0" fill="#E6E6E6" height="88.4167"/>
      </g>
      <g>
       <rect width="23.625" x="492.153" y="0" fill="#E6E6E6" height="88.4167"/>
      </g>
      <g>
       <rect width="23.625" x="452.778" y="0" fill="#E6E6E6" height="88.4167"/>
      </g>
      <g>
       <rect width="23.625" x="413.403" y="0" fill="#E6E6E6" height="88.4167"/>
      </g>
      <g>
       <rect width="23.625" x="374.028" y="0" fill="#E6E6E6" height="88.4167"/>
      </g>
      <g>
       <rect width="23.625" x="334.653" y="0" fill="#E6E6E6" height="88.4167"/>
      </g>
      <g>
       <rect width="23.625" x="295.278" y="0" fill="#E6E6E6" height="88.4167"/>
      </g>
      <g>
       <rect width="23.625" x="255.917" y="0" fill="#E6E6E6" height="88.4167"/>
      </g>
      <g>
       <rect width="23.625" x="216.542" y="0" fill="#E6E6E6" height="88.4167"/>
      </g>
      <g>
       <rect width="23.625" x="177.167" y="0" fill="#E6E6E6" height="88.4167"/>
      </g>
      <g>
       <rect width="23.625" x="137.792" y="0" fill="#E6E6E6" height="88.4167"/>
      </g>
     </g>
     <g opacity="0.4">
      <g>
       <rect width="23.625" x="728.403" y="0" fill="#FFFFFF" height="7.23611"/>
      </g>
      <g>
       <rect width="23.625" x="689.028" y="0" fill="#FFFFFF" height="7.23611"/>
      </g>
      <g>
       <rect width="23.625" x="649.653" y="0" fill="#FFFFFF" height="7.23611"/>
      </g>
      <g>
       <rect width="23.625" x="610.278" y="0" fill="#FFFFFF" height="7.23611"/>
      </g>
      <g>
       <rect width="23.625" x="570.903" y="0" fill="#FFFFFF" height="7.23611"/>
      </g>
      <g>
       <rect width="23.625" x="531.528" y="0" fill="#FFFFFF" height="7.23611"/>
      </g>
      <g>
       <rect width="23.625" x="492.153" y="0" fill="#FFFFFF" height="7.23611"/>
      </g>
      <g>
       <rect width="23.625" x="452.778" y="0" fill="#FFFFFF" height="7.23611"/>
      </g>
      <g>
       <rect width="23.625" x="413.403" y="0" fill="#FFFFFF" height="7.23611"/>
      </g>
      <g>
       <rect width="23.625" x="374.028" y="0" fill="#FFFFFF" height="7.23611"/>
      </g>
      <g>
       <rect width="23.625" x="334.653" y="0" fill="#FFFFFF" height="7.23611"/>
      </g>
      <g>
       <rect width="23.625" x="295.278" y="0" fill="#FFFFFF" height="7.23611"/>
      </g>
      <g>
       <rect width="23.625" x="255.917" y="0" fill="#FFFFFF" height="7.23611"/>
      </g>
      <g>
       <rect width="23.625" x="216.542" y="0" fill="#FFFFFF" height="7.23611"/>
      </g>
      <g>
       <rect width="23.625" x="177.167" y="0" fill="#FFFFFF" height="7.23611"/>
      </g>
      <g>
       <rect width="23.625" x="137.792" y="0" fill="#FFFFFF" height="7.23611"/>
      </g>
     </g>
     <rect width="889.764" x="0" y="269.681" fill="#4D4D4D" height="47.7639"/>
     <rect width="889.764" x="0" y="317.458" height="5.34722"/>
     <rect width="799.208" x="45.2778" y="276.472" fill="#CCCCCC" height="33"/>
     <rect width="90.5556" x="799.208" y="106.306" fill="#E6E6E6" height="77.0278"/>
     <rect width="90.5556" x="0" y="106.306" fill="#E6E6E6" height="77.0278"/>
     <rect width="90.5556" x="799.208" opacity="0.4" y="106.306" fill="#FFFFFF" height="4.625"/>
     <rect width="90.5556" x="0" opacity="0.4" y="106.306" fill="#FFFFFF" height="4.625"/>
     <rect width="17.0694" x="28.2083" y="276.472" fill="#999999" height="33"/>
     <rect width="17.0694" x="844.472" y="276.472" fill="#999999" height="33"/>
     <g>
      <g>
       <rect width="10.25" x="804.333" y="274.444" fill="#E6E6E6" height="25.0694"/>
      </g>
      <g>
       <rect width="10.25" x="755.722" y="274.444" fill="#E6E6E6" height="25.0694"/>
      </g>
      <g>
       <rect width="10.25" x="707.111" y="274.444" fill="#E6E6E6" height="25.0694"/>
      </g>
      <g>
       <rect width="10.25" x="658.5" y="274.444" fill="#E6E6E6" height="25.0694"/>
      </g>
      <g>
       <rect width="10.25" x="609.889" y="274.444" fill="#E6E6E6" height="25.0694"/>
      </g>
      <g>
       <rect width="10.25" x="561.278" y="274.444" fill="#E6E6E6" height="25.0694"/>
      </g>
      <g>
       <rect width="10.25" x="512.667" y="274.444" fill="#E6E6E6" height="25.0694"/>
      </g>
      <g>
       <rect width="10.25" x="464.056" y="274.444" fill="#E6E6E6" height="25.0694"/>
      </g>
      <g>
       <rect width="10.25" x="415.444" y="274.444" fill="#E6E6E6" height="25.0694"/>
      </g>
      <g>
       <rect width="10.25" x="366.833" y="274.444" fill="#E6E6E6" height="25.0694"/>
      </g>
      <g>
       <rect width="10.25" x="318.222" y="274.444" fill="#E6E6E6" height="25.0694"/>
      </g>
      <g>
       <rect width="10.25" x="269.611" y="274.444" fill="#E6E6E6" height="25.0694"/>
      </g>
      <g>
       <rect width="10.25" x="221" y="274.444" fill="#E6E6E6" height="25.0694"/>
      </g>
      <g>
       <rect width="10.25" x="172.389" y="274.444" fill="#E6E6E6" height="25.0694"/>
      </g>
      <g>
       <rect width="10.25" x="123.778" y="274.444" fill="#E6E6E6" height="25.0694"/>
      </g>
      <g>
       <rect width="10.25" x="75.1667" y="274.444" fill="#E6E6E6" height="25.0694"/>
      </g>
     </g>
     <polygon fill="#F2F2F2" points="799.208,83.7778,90.5417,83.7778,90.5417,183.319,28.2083,183.319,28.2083,276.472,861.542,276.472,861.542,183.319,799.208,183.319"/>
     <rect width="62.3333" x="799.208" opacity="0.4" y="183.319" fill="#FFFFFF" height="4.625"/>
     <rect width="62.3333" x="28.2083" opacity="0.4" y="183.319" fill="#FFFFFF" height="4.625"/>
     <rect width="708.653" x="90.5417" opacity="0.4" y="83.7778" fill="#FFFFFF" height="4.625"/>
    </g>
    <rect width="833.333" x="28.2083" opacity="0.1" y="269.681" height="6.79167"/>
    <rect width="799.208" x="45.2778" opacity="0.2" y="276.472" height="6.79167"/>
   </g>
  </g>
  <g transform="translate(178.917,534.05)">
   <rect width="31.93" x="0" y="0" fill="#8D8C8C" height="31.9" id="connector0pin"/>
   <rect width="16.4442" x="7.79153" y="7.73544" fill="#8C8663" height="16.4152"/>
   <polygon fill="#B8AF82" points="0,31.9,7.79153,24.1368,7.79153,6.97162,0,0"/>
   <polygon fill="#80795B" points="24.2079,7.76321,7.90264,7.76321,0,0,31.93,0"/>
   <polygon fill="#5E5B43" points="24.2079,24.1368,24.2079,7.76321,31.93,0,31.93,31.9"/>
   <polygon fill="#9A916C" points="0,31.9,7.87486,24.1368,24.2079,24.1368,31.93,31.9"/>
  </g>
  <g transform="translate(178.917,34.05)">
   <rect width="31.93" x="0" y="0" fill="#8D8C8C" height="31.9" id="connector15pin"/>
   <rect width="16.4442" x="7.79153" y="7.73544" fill="#8C8663" height="16.4152"/>
   <polygon fill="#B8AF82" points="0,31.9,7.79153,24.1368,7.79153,6.97162,0,0"/>
   <polygon fill="#80795B" points="24.2079,7.76321,7.90264,7.76321,0,0,31.93,0"/>
   <polygon fill="#5E5B43" points="24.2079,24.1368,24.2079,7.76321,31.93,0,31.93,31.9"/>
   <polygon fill="#9A916C" points="0,31.9,7.87486,24.1368,24.2079,24.1368,31.93,31.9"/>
  </g>
  <g transform="translate(278.917,534.05)">
   <rect width="31.93" x="0" y="0" fill="#8D8C8C" height="31.9" id="connector1pin"/>
   <rect width="16.4442" x="7.79153" y="7.73544" fill="#8C8663" height="16.4152"/>
   <polygon fill="#B8AF82" points="0,31.9,7.79153,24.1368,7.79153,6.97162,0,0"/>
   <polygon fill="#80795B" points="24.2079,7.76321,7.90264,7.76321,0,0,31.93,0"/>
   <polygon fill="#5E5B43" points="24.2079,24.1368,24.2079,7.76321,31.93,0,31.93,31.9"/>
   <polygon fill="#9A916C" points="0,31.9,7.87486,24.1368,24.2079,24.1368,31.93,31.9"/>
  </g>
  <g transform="translate(278.917,34.05)">
   <rect width="31.93" x="0" y="0" fill="#8D8C8C" height="31.9" id="connector14pin"/>
   <rect width="16.4442" x="7.79153" y="7.73544" fill="#8C8663" height="16.4152"/>
   <polygon fill="#B8AF82" points="0,31.9,7.79153,24.1368,7.79153,6.97162,0,0"/>
   <polygon fill="#80795B" points="24.2079,7.76321,7.90264,7.76321,0,0,31.93,0"/>
   <polygon fill="#5E5B43" points="24.2079,24.1368,24.2079,7.76321,31.93,0,31.93,31.9"/>
   <polygon fill="#9A916C" points="0,31.9,7.87486,24.1368,24.2079,24.1368,31.93,31.9"/>
  </g>
  <g transform="translate(378.917,534.05)">
   <rect width="31.93" x="0" y="0" fill="#8D8C8C" height="31.9" id="connector2pin"/>
   <rect width="16.4442" x="7.79153" y="7.73544" fill="#8C8663" height="16.4152"/>
   <polygon fill="#B8AF82" points="0,31.9,7.79153,24.1368,7.79153,6.97162,0,0"/>
   <polygon fill="#80795B" points="24.2079,7.76321,7.90264,7.76321,0,0,31.93,0"/>
   <polygon fill="#5E5B43" points="24.2079,24.1368,24.2079,7.76321,31.93,0,31.93,31.9"/>
   <polygon fill="#9A916C" points="0,31.9,7.87486,24.1368,24.2079,24.1368,31.93,31.9"/>
  </g>
  <g transform="translate(378.917,34.05)">
   <rect width="31.93" x="0" y="0" fill="#8D8C8C" height="31.9" id="connector13pin"/>
   <rect width="16.4442" x="7.79153" y="7.73544" fill="#8C8663" height="16.4152"/>
   <polygon fill="#B8AF82" points="0,31.9,7.79153,24.1368,7.79153,6.97162,0,0"/>
   <polygon fill="#80795B" points="24.2079,7.76321,7.90264,7.76321,0,0,31.93,0"/>
   <polygon fill="#5E5B43" points="24.2079,24.1368,24.2079,7.76321,31.93,0,31.93,31.9"/>
   <polygon fill="#9A916C" points="0,31.9,7.87486,24.1368,24.2079,24.1368,31.93,31.9"/>
  </g>
  <g transform="translate(478.917,534.05)">
   <rect width="31.93" x="0" y="0" fill="#8D8C8C" height="31.9" id="connector3pin"/>
   <rect width="16.4442" x="7.79153" y="7.73544" fill="#8C8663" height="16.4152"/>
   <polygon fill="#B8AF82" points="0,31.9,7.79153,24.1368,7.79153,6.97162,0,0"/>
   <polygon fill="#80795B" points="24.2079,7.76321,7.90264,7.76321,0,0,31.93,0"/>
   <polygon fill="#5E5B43" points="24.2079,24.1368,24.2079,7.76321,31.93,0,31.93,31.9"/>
   <polygon fill="#9A916C" points="0,31.9,7.87486,24.1368,24.2079,24.1368,31.93,31.9"/>
  </g>
  <g transform="translate(478.917,34.05)">
   <rect width="31.93" x="0" y="0" fill="#8D8C8C" height="31.9" id="connector12pin"/>
   <rect width="16.4442" x="7.79153" y="7.73544" fill="#8C8663" height="16.4152"/>
   <polygon fill="#B8AF82" points="0,31.9,7.79153,24.1368,7.79153,6.97162,0,0"/>
   <polygon fill="#80795B" points="24.2079,7.76321,7.90264,7.76321,0,0,31.93,0"/>
   <polygon fill="#5E5B43" points="24.2079,24.1368,24.2079,7.76321,31.93,0,31.93,31.9"/>
   <polygon fill="#9A916C" points="0,31.9,7.87486,24.1368,24.2079,24.1368,31.93,31.9"/>
  </g>
  <g transform="translate(578.917,534.05)">
   <rect width="31.93" x="0" y="0" fill="#8D8C8C" height="31.9" id="connector4pin"/>
   <rect width="16.4442" x="7.79153" y="7.73544" fill="#8C8663" height="16.4152"/>
   <polygon fill="#B8AF82" points="0,31.9,7.79153,24.1368,7.79153,6.97162,0,0"/>
   <polygon fill="#80795B" points="24.2079,7.76321,7.90264,7.76321,0,0,31.93,0"/>
   <polygon fill="#5E5B43" points="24.2079,24.1368,24.2079,7.76321,31.93,0,31.93,31.9"/>
   <polygon fill="#9A916C" points="0,31.9,7.87486,24.1368,24.2079,24.1368,31.93,31.9"/>
  </g>
  <g transform="translate(578.917,34.05)">
   <rect width="31.93" x="0" y="0" fill="#8D8C8C" height="31.9" id="connector11pin"/>
   <rect width="16.4442" x="7.79153" y="7.73544" fill="#8C8663" height="16.4152"/>
   <polygon fill="#B8AF82" points="0,31.9,7.79153,24.1368,7.79153,6.97162,0,0"/>
   <polygon fill="#80795B" points="24.2079,7.76321,7.90264,7.76321,0,0,31.93,0"/>
   <polygon fill="#5E5B43" points="24.2079,24.1368,24.2079,7.76321,31.93,0,31.93,31.9"/>
   <polygon fill="#9A916C" points="0,31.9,7.87486,24.1368,24.2079,24.1368,31.93,31.9"/>
  </g>
  <g transform="translate(678.917,534.05)">
   <rect width="31.93" x="0" y="0" fill="#8D8C8C" height="31.9" id="connector5pin"/>
   <rect width="16.4442" x="7.79153" y="7.73544" fill="#8C8663" height="16.4152"/>
   <polygon fill="#B8AF82" points="0,31.9,7.79153,24.1368,7.79153,6.97162,0,0"/>
   <polygon fill="#80795B" points="24.2079,7.76321,7.90264,7.76321,0,0,31.93,0"/>
   <polygon fill="#5E5B43" points="24.2079,24.1368,24.2079,7.76321,31.93,0,31.93,31.9"/>
   <polygon fill="#9A916C" points="0,31.9,7.87486,24.1368,24.2079,24.1368,31.93,31.9"/>
  </g>
  <g transform="translate(678.917,34.05)">
   <rect width="31.93" x="0" y="0" fill="#8D8C8C" height="31.9" id="connector10pin"/>
   <rect width="16.4442" x="7.79153" y="7.73544" fill="#8C8663" height="16.4152"/>
   <polygon fill="#B8AF82" points="0,31.9,7.79153,24.1368,7.79153,6.97162,0,0"/>
   <polygon fill="#80795B" points="24.2079,7.76321,7.90264,7.76321,0,0,31.93,0"/>
   <polygon fill="#5E5B43" points="24.2079,24.1368,24.2079,7.76321,31.93,0,31.93,31.9"/>
   <polygon fill="#9A916C" points="0,31.9,7.87486,24.1368,24.2079,24.1368,31.93,31.9"/>
  </g>
  <g transform="translate(778.917,534.05)">
   <rect width="31.93" x="0" y="0" fill="#8D8C8C" height="31.9" id="connector6pin"/>
   <rect width="16.4442" x="7.79153" y="7.73544" fill="#8C8663" height="16.4152"/>
   <polygon fill="#B8AF82" points="0,31.9,7.79153,24.1368,7.79153,6.97162,0,0"/>
   <polygon fill="#80795B" points="24.2079,7.76321,7.90264,7.76321,0,0,31.93,0"/>
   <polygon fill="#5E5B43" points="24.2079,24.1368,24.2079,7.76321,31.93,0,31.93,31.9"/>
   <polygon fill="#9A916C" points="0,31.9,7.87486,24.1368,24.2079,24.1368,31.93,31.9"/>
  </g>
  <g transform="translate(778.917,34.05)">
   <rect width="31.93" x="0" y="0" fill="#8D8C8C" height="31.9" id="connector9pin"/>
   <rect width="16.4442" x="7.79153" y="7.73544" fill="#8C8663" height="16.4152"/>
   <polygon fill="#B8AF82" points="0,31.9,7.79153,24.1368,7.79153,6.97162,0,0"/>
   <polygon fill="#80795B" points="24.2079,7.76321,7.90264,7.76321,0,0,31.93,0"/>
   <polygon fill="#5E5B43" points="24.2079,24.1368,24.2079,7.76321,31.93,0,31.93,31.9"/>
   <polygon fill="#9A916C" points="0,31.9,7.87486,24.1368,24.2079,24.1368,31.93,31.9"/>
  </g>
  <g transform="translate(878.917,534.05)">
   <rect width="31.93" x="0" y="0" fill="#8D8C8C" height="31.9" id="connector7pin"/>
   <rect width="16.4442" x="7.79153" y="7.73544" fill="#8C8663" height="16.4152"/>
   <polygon fill="#B8AF82" points="0,31.9,7.79153,24.1368,7.79153,6.97162,0,0"/>
   <polygon fill="#80795B" points="24.2079,7.76321,7.90264,7.76321,0,0,31.93,0"/>
   <polygon fill="#5E5B43" points="24.2079,24.1368,24.2079,7.76321,31.93,0,31.93,31.9"/>
   <polygon fill="#9A916C" points="0,31.9,7.87486,24.1368,24.2079,24.1368,31.93,31.9"/>
  </g>
  <g transform="translate(878.917,34.05)">
   <rect width="31.93" x="0" y="0" fill="#8D8C8C" height="31.9" id="connector8pin"/>
   <rect width="16.4442" x="7.79153" y="7.73544" fill="#8C8663" height="16.4152"/>
   <polygon fill="#B8AF82" points="0,31.9,7.79153,24.1368,7.79153,6.97162,0,0"/>
   <polygon fill="#80795B" points="24.2079,7.76321,7.90264,7.76321,0,0,31.93,0"/>
   <polygon fill="#5E5B43" points="24.2079,24.1368,24.2079,7.76321,31.93,0,31.93,31.9"/>
   <polygon fill="#9A916C" points="0,31.9,7.87486,24.1368,24.2079,24.1368,31.93,31.9"/>
  </g>
 </g>
</svg>
