<?xml version='1.0' encoding='UTF-8' standalone='no'?>
<!-- Created with Fritzing (http://www.fritzing.org/) -->
<svg xmlns="http://www.w3.org/2000/svg" width="0.838097in" x="0in" version="1.2" y="0in"  height="1in" viewBox="0 0 838.097 1000" baseProfile="tiny" xmlns:svg="http://www.w3.org/2000/svg">
 <desc>Fritzing breadboard generated by brd2svg</desc>
 <g id="breadboard">
  <g id="icon">
   <path fill="#1F7A34" stroke="none" stroke-width="0" d="M0,0L0,470A30,30 0 0 1 0,530L0,1000L838.097,1000L838.097,0L0,0z"/>
   <g transform="translate(100,112.722)">
    <g>
     <rect width="590.569" x="23.7778" y="0" fill="#666666" height="456.306"/>
     <rect width="70.8889" x="283.625" y="0" fill="#4D4D4D" height="456.306"/>
     <rect width="16.2083" x="310.944" y="0" fill="#333333" height="456.306"/>
     <rect width="16.2083" x="23.7778" y="0" fill="#B3B3B3" height="456.306"/>
     <rect width="16.2083" x="598.125" y="0" fill="#4D4D4D" height="456.306"/>
     <g>
      <g enable-background="new    ">
       <g>
        <path fill="#333333" d="M370.222,774.431l-102.375,0L0.222222,774.431l-0.25,0.125l0,-0.125M-0.0277778,774.556M0.222222,765.931l267.625,0l0,-13.875c-124.111,-11.9583,-217.875,-66.5694,-217.875,-132.125c0,-74.3194,120.5,-134.556,269.125,-134.556s269,60.25,269,134.556c0,65.5694,-93.8056,120.181,-217.889,132.139l0,13.8611l263.625,0L633.833,473.819L0.222222,473.819L0.222222,765.931z"/>
        <path fill="#666666" d="M259.986,500.5c-107.347,13.2361,-187,61.6667,-187,119.431c0,67.9444,110.25,123,246.125,123c135.75,0,246,-55.0694,246,-123c0,-1.58333,-0.0555556,-3.18056,-0.180556,-4.75c-4.23611,-55.5417,-82.1667,-101.639,-186.194,-114.611l0,5.13889c67.125,8.30556,109.014,29.6806,132.222,46c0.138889,0.0972222,0.277778,0.194444,0.402778,0.291667c0.375,0.277778,0.75,0.513889,1.09722,0.791667c0.111111,0.0833333,0.222222,0.166667,0.319444,0.236111c15.1667,10.9444,21.7083,19.3056,21.7083,19.3056l0,0.0694444c12.8611,14.5556,20,30.6389,20,47.5556c0,65.0139,-105.375,117.764,-235.375,117.764c-130.125,0,-235.5,-52.75,-235.5,-117.764c0,-17.625,7.75,-34.3472,21.625,-49.3472L105.236,570.556c0,0,4.30556,-5.25,13.875,-12.8194c6.875,-5.51389,14.6528,-10.7361,23.1944,-15.5972c24.6528,-14.1667,62.75,-29.7083,117.681,-36.4722L259.986,500.5"/>
        <path d="M105.222,570.583c-13.875,15,-21.625,31.7222,-21.625,49.3472c0,65.0139,105.375,117.764,235.5,117.764c130,0,235.375,-52.75,235.375,-117.764c0,-16.9167,-7.15278,-33,-20,-47.5556l0,42.1111l-0.180556,0c0.111111,1.41667,0.180556,2.83333,0.180556,4.26389c0,15.1806,-6.375,29.6806,-17.7361,42.8056l-72.125,0l0,44.6944c-35.375,12.6806,-78.75,20.1806,-125.5,20.1806c-46.875,0,-90.25,-7.5,-125.625,-20.1806l0,-44.6944L121.361,661.556c-11.375,-13.125,-17.75,-27.625,-17.75,-42.8056c0,-4.48611,0.569444,-8.91667,1.625,-13.2639L105.236,570.583M512.444,552.778c0.111111,0.0833333,0.222222,0.152778,0.319444,0.236111C512.667,552.944,512.556,552.861,512.444,552.778M510.944,551.708c0.138889,0.0972222,0.277778,0.194444,0.402778,0.291667C511.208,551.903,511.083,551.806,510.944,551.708M142.292,542.139c-8.55556,4.86111,-16.3194,10.0833,-23.1944,15.5972C124.861,553.181,132.514,547.778,142.292,542.139"/>
        <path fill="#333333" d="M319.097,503.986c-20.375,0,-40.125,1.19444,-59.125,3.375l0,-1.69444c-54.9306,6.76389,-93.0278,22.3056,-117.681,36.4722c-9.77778,5.625,-17.4444,11.0417,-23.1944,15.5972c-9.55556,7.56944,-13.875,12.8194,-13.875,12.8194l0,0.0277778l0,34.9028c11.2083,-45.7361,79.6806,-82.5694,168.5,-92.0556l0,23.625l90.625,0l0,-23.625c94.4583,10.0972,166.083,51.2222,169.944,101.056l0.180556,0l0,-42.1111l0,-0.0694444c0,0,-6.54167,-8.36111,-21.7083,-19.3056c-0.111111,-0.0833333,-0.222222,-0.152778,-0.319444,-0.236111c-0.347222,-0.277778,-0.722222,-0.513889,-1.09722,-0.791667c-0.138889,-0.0972222,-0.277778,-0.194444,-0.402778,-0.291667c-23.2083,-16.3194,-65.0972,-37.6944,-132.222,-46l0,1.70833C359.597,505.181,339.611,503.986,319.097,503.986"/>
        <path fill="#808080" d="M225.097,693.125l0,-31.8056l63.625,0l0,31.8056L225.097,693.125M334.222,693.125l0,-31.8056l63.5,0l0,31.8056L334.222,693.125M150.611,646.306l0,-31.8194l63.5,0l0,31.8194L150.611,646.306M267.486,646.306l0,-31.8194l106.375,0l0,31.8194L267.486,646.306M423.972,646.306l0,-31.8194l63.625,0l0,31.8194L423.972,646.306M174.472,591.306l0,-31.75l63.5,0l0,31.75L174.472,591.306M289.347,591.306l0,-31.75l63.5,0l0,31.75L289.347,591.306M404.222,591.306l0,-31.75l63.625,0l0,31.75L404.222,591.306M364.347,513.431l0,23.625l-90.625,0l0,-23.625c-88.8194,9.48611,-157.292,46.3194,-168.5,92.0556C104.167,609.833,103.597,614.264,103.597,618.75c0,15.1806,6.375,29.6806,17.75,42.8056l72.125,0l0,44.6944c35.375,12.6806,78.75,20.1806,125.625,20.1806c46.75,0,90.125,-7.5,125.5,-20.1806l0,-44.6944l72.125,0c11.3611,-13.125,17.7361,-27.625,17.7361,-42.8056c0,-1.43056,-0.0694444,-2.84722,-0.180556,-4.26389C530.431,564.653,458.806,523.528,364.347,513.431"/>
        <path fill="#4D4D4D" d="M412.111,587.361l0,-23.875l47.75,0l0,23.875L412.111,587.361M467.847,559.556l-63.625,0l0,31.75l63.625,0L467.847,559.556"/>
        <polyline points="459.847,563.5,412.111,563.5,412.111,587.361,459.847,587.361,459.847,563.5"/>
        <path fill="#4D4D4D" d="M297.236,587.361l0,-23.875l47.75,0l0,23.875L297.236,587.361M352.847,559.556l-63.5,0l0,31.75l63.5,0L352.847,559.556"/>
        <polyline points="344.986,563.5,297.236,563.5,297.236,587.361,344.986,587.361,344.986,563.5"/>
        <path fill="#4D4D4D" d="M182.361,587.361l0,-23.875l47.75,0l0,23.875L182.361,587.361M237.986,559.556l-63.5,0l0,31.75l63.5,0L237.986,559.556"/>
        <polyline points="230.111,563.5,182.361,563.5,182.361,587.361,230.111,587.361,230.111,563.5"/>
        <path fill="#4D4D4D" d="M431.861,642.306l0,-23.875l47.75,0l0,23.875L431.861,642.306M487.597,614.486l-63.625,0l0,31.8194l63.625,0L487.597,614.486"/>
        <polyline points="479.597,618.444,431.861,618.444,431.861,642.306,479.597,642.306,479.597,618.444"/>
        <path fill="#4D4D4D" d="M275.472,642.306l0,-23.875l90.5,0l0,23.875L275.472,642.306M373.861,614.486l-106.375,0l0,31.8194l106.375,0L373.861,614.486"/>
        <polyline points="365.972,618.444,275.472,618.444,275.472,642.306,365.972,642.306,365.972,618.444"/>
        <path fill="#4D4D4D" d="M158.472,642.306l0,-23.875l47.75,0l0,23.875L158.472,642.306M214.097,614.486l-63.5,0l0,31.8194l63.5,0L214.097,614.486"/>
        <polyline points="206.222,618.444,158.472,618.444,158.472,642.306,206.222,642.306,206.222,618.444"/>
        <path fill="#4D4D4D" d="M232.972,689.111l0,-23.875l47.75,0l0,23.875L232.972,689.111M288.722,661.319l-63.625,0l0,31.8056l63.625,0L288.722,661.319"/>
        <polyline points="280.736,665.25,232.972,665.25,232.972,689.111,280.736,689.111,280.736,665.25"/>
        <path fill="#4D4D4D" d="M342.111,689.111l0,-23.875l47.75,0l0,23.875L342.111,689.111M397.722,661.319l-63.5,0l0,31.8056l63.5,0L397.722,661.319"/>
        <polyline points="389.847,665.25,342.111,665.25,342.111,689.111,389.847,689.111,389.847,665.25"/>
        <path fill="#1A1A1A" d="M319.097,490.056c1.19444,0,2.375,0,3.55556,0c0.486111,0.0138889,0.972222,0.0277778,1.47222,0.0277778c0.708333,0,1.43056,0,2.125,0.0277778c0.541667,0,1.06944,0,1.61111,0.0138889c0.666667,0.0138889,1.31944,0.0277778,1.98611,0.0416667c0.527778,0,1.04167,0.0277778,1.56944,0.0277778c0.694444,0.0277778,1.375,0.0416667,2.04167,0.0555556c0.527778,0.0277778,1.06944,0.0277778,1.59722,0.0555556c0.680556,0.0138889,1.33333,0.0416667,2.01389,0.0555556c0.486111,0.0277778,0.986111,0.0416667,1.48611,0.0555556c0.75,0.0277778,1.5,0.0555556,2.25,0.0972222c0.444444,0.0138889,0.875,0.0416667,1.33333,0.0555556c2.33333,0.0972222,4.66667,0.236111,6.97222,0.347222c0.444444,0.0277778,0.875,0.0555556,1.33333,0.0833333c0.722222,0.0416667,1.44444,0.0972222,2.16667,0.138889c0.513889,0.0416667,1.01389,0.0694444,1.51389,0.0972222c0.666667,0.0555556,1.30556,0.0972222,1.95833,0.138889c0.527778,0.0416667,1.04167,0.0833333,1.55556,0.125c0.652778,0.0416667,1.29167,0.0972222,1.95833,0.152778c0.541667,0.0416667,1.08333,0.0833333,1.61111,0.138889c0.569444,0.0277778,1.11111,0.0833333,1.66667,0.138889c0.625,0.0555556,1.25,0.111111,1.875,0.166667c0.416667,0.0277778,0.833333,0.0694444,1.25,0.111111c4.27778,0.375,8.5,0.833333,12.7083,1.31944l0,0.0138889c114.639,13.4861,200,65,200,126.431c0,71.6944,-116.25,129.819,-259.625,129.819c-143.5,0,-259.75,-58.125,-259.75,-129.819c0,-61.5833,85.625,-113.139,200.625,-126.5l0,0c0.138889,0,0.277778,-0.0277778,0.416667,-0.0416667c14.0556,-1.61111,28.5694,-2.66667,43.3889,-3.11111c0.111111,0,0.236111,0,0.347222,0c1.05556,-0.0416667,2.125,-0.0555556,3.18056,-0.0833333c0.236111,-0.0138889,0.472222,-0.0277778,0.708333,-0.0277778c0.902778,-0.0138889,1.83333,-0.0277778,2.73611,-0.0555556c0.347222,0,0.708333,0,1.05556,0c0.833333,-0.0277778,1.66667,-0.0277778,2.51389,-0.0277778c0.388889,-0.0138889,0.791667,-0.0138889,1.18056,-0.0277778C316.708,490.056,317.903,490.056,319.097,490.056M319.097,485.375c-148.625,0,-269.125,60.25,-269.125,134.556c0,65.5556,93.7639,120.153,217.875,132.125l0,-4.125l52,4.31944l50.3611,-4.31944l0,4.13889c124.083,-11.9444,217.889,-66.5694,217.889,-132.139C588.111,545.611,467.736,485.375,319.097,485.375"/>
        <path fill="#B3B3B3" d="M259.986,493.431c-115,13.375,-200.625,64.9306,-200.625,126.5c0,71.6944,116.25,129.819,259.75,129.819c143.375,0,259.625,-58.125,259.625,-129.819c0,-61.4306,-85.3611,-112.944,-200,-126.431l0,7.06944c104.028,12.9722,181.972,59.0694,186.194,114.611c0.125,1.56944,0.180556,3.16667,0.180556,4.75c0,67.9444,-110.25,123,-246,123c-135.875,0,-246.125,-55.0694,-246.125,-123c0,-57.75,79.6528,-106.194,187,-119.431L259.986,493.431M364.764,492.069c0.416667,0.0277778,0.833333,0.0694444,1.25,0.111111C365.597,492.139,365.194,492.097,364.764,492.069M361.236,491.764c0.555556,0.0277778,1.11111,0.0833333,1.66667,0.138889C362.347,491.847,361.806,491.792,361.236,491.764M357.667,491.486c0.652778,0.0416667,1.30556,0.0972222,1.95833,0.152778C358.944,491.583,358.319,491.528,357.667,491.486M354.153,491.222c0.652778,0.0555556,1.30556,0.0972222,1.95833,0.138889C355.458,491.319,354.819,491.278,354.153,491.222M350.458,491c0.722222,0.0416667,1.44444,0.0972222,2.16667,0.138889C351.917,491.097,351.181,491.042,350.458,491M342.153,490.569c2.33333,0.0972222,4.66667,0.236111,6.97222,0.347222C346.819,490.792,344.486,490.653,342.153,490.569M338.583,490.417c0.763889,0.0277778,1.5,0.0555556,2.25,0.0972222C340.083,490.472,339.319,490.444,338.583,490.417M335.083,490.306c0.680556,0.0138889,1.34722,0.0416667,2.01389,0.0555556C336.403,490.347,335.764,490.319,335.083,490.306M303.792,490.278c-14.8194,0.430556,-29.3333,1.48611,-43.3889,3.11111C274.472,491.764,288.944,490.708,303.792,490.278M331.431,490.194c0.680556,0.0277778,1.375,0.0416667,2.04167,0.0555556C332.806,490.236,332.125,490.222,331.431,490.194M307.319,490.194c-1.06944,0.0277778,-2.125,0.0416667,-3.18056,0.0833333C305.194,490.236,306.264,490.222,307.319,490.194M327.875,490.125c0.666667,0.0138889,1.31944,0.0277778,1.98611,0.0416667C329.194,490.153,328.542,490.139,327.875,490.125M310.778,490.111c-0.902778,0.0277778,-1.83333,0.0416667,-2.73611,0.0555556C308.944,490.153,309.861,490.139,310.778,490.111M324.139,490.083c0.708333,0,1.41667,0,2.125,0.0277778C325.556,490.083,324.833,490.083,324.139,490.083M314.347,490.083c-0.847222,0,-1.68056,0,-2.51389,0.0277778C312.667,490.083,313.5,490.083,314.347,490.083M319.097,490.056c1.18056,0,2.375,0,3.55556,0C321.472,490.056,320.292,490.056,319.097,490.056M319.097,490.056c-1.19444,0,-2.38889,0,-3.56944,0C316.708,490.056,317.903,490.056,319.097,490.056"/>
        <path fill="#333333" d="M319.097,490.056c-1.19444,0,-2.38889,0,-3.56944,0c-0.402778,0.0138889,-0.791667,0.0138889,-1.18056,0.0277778c-0.847222,0,-1.68056,0,-2.51389,0.0277778c-0.347222,0,-0.708333,0,-1.05556,0c-0.916667,0.0277778,-1.83333,0.0416667,-2.73611,0.0555556c-0.236111,0,-0.472222,0.0138889,-0.708333,0.0277778c-1.06944,0.0277778,-2.125,0.0416667,-3.18056,0.0833333c-0.111111,0,-0.236111,0,-0.347222,0c-14.8333,0.430556,-29.3194,1.48611,-43.3889,3.11111c-0.138889,0.0138889,-0.291667,0.0416667,-0.416667,0.0416667l0,0l0,7.08333l0,5.16667l0,1.69444c19,-2.18056,38.75,-3.375,59.125,-3.375c20.5139,0,40.5,1.19444,59.625,3.43056l0,-1.70833l0,-5.13889l0,-7.06944l0,-0.0138889c-4.20833,-0.486111,-8.43056,-0.930556,-12.7083,-1.31944c-0.416667,-0.0416667,-0.833333,-0.0833333,-1.25,-0.111111c-0.625,-0.0555556,-1.25,-0.111111,-1.875,-0.166667c-0.555556,-0.0555556,-1.11111,-0.111111,-1.66667,-0.138889c-0.527778,-0.0555556,-1.06944,-0.0972222,-1.61111,-0.138889c-0.652778,-0.0555556,-1.30556,-0.111111,-1.95833,-0.152778c-0.513889,-0.0416667,-1.02778,-0.0833333,-1.55556,-0.125c-0.652778,-0.0416667,-1.30556,-0.0833333,-1.95833,-0.138889c-0.5,-0.0277778,-1,-0.0555556,-1.51389,-0.0972222c-0.722222,-0.0416667,-1.44444,-0.0972222,-2.16667,-0.138889c-0.444444,-0.0277778,-0.875,-0.0555556,-1.33333,-0.0833333c-2.30556,-0.125,-4.63889,-0.263889,-6.97222,-0.347222c-0.444444,-0.0138889,-0.875,-0.0416667,-1.33333,-0.0555556c-0.75,-0.0416667,-1.48611,-0.0694444,-2.25,-0.0972222c-0.5,-0.0138889,-1,-0.0277778,-1.48611,-0.0555556c-0.666667,-0.0138889,-1.33333,-0.0416667,-2.01389,-0.0555556c-0.527778,-0.0277778,-1.06944,-0.0277778,-1.59722,-0.0555556c-0.680556,-0.0138889,-1.375,-0.0277778,-2.04167,-0.0555556c-0.527778,0,-1.04167,-0.0277778,-1.56944,-0.0277778c-0.666667,-0.0138889,-1.31944,-0.0277778,-1.98611,-0.0416667c-0.541667,-0.0138889,-1.06944,-0.0138889,-1.61111,-0.0138889c-0.708333,-0.0277778,-1.43056,-0.0277778,-2.125,-0.0277778c-0.5,0,-0.986111,-0.0138889,-1.47222,-0.0277778C321.472,490.056,320.292,490.056,319.097,490.056"/>
        <polyline fill="#1A1A1A" points="370.222,747.931,319.861,752.236,267.847,747.931,267.847,752.056,267.847,765.931,370.222,765.931,370.222,752.069,370.222,747.931"/>
        <polyline opacity="0.251" fill="#1A1A1A" points="638.097,465.181,637.861,465.306,638.097,465.306,638.097,465.181"/>
        <path fill="#404040" d="M638.097,465.306"/>
        <polygon fill="#404040" points="638.097,465.306,629.597,473.819,629.597,765.931,638.097,765.931"/>
        <path fill="#404040" d="M268.958,765.931L6.56944,765.931l-6.34722,8.5l268.736,0L268.958,765.931M638.097,765.931L365.972,765.931l0,8.5l272.125,0L638.097,765.931"/>
        <polyline fill="#1A1A1A" points="370.222,765.931,267.847,765.931,267.847,774.431,370.222,774.431,370.222,765.931"/>
        <path fill="#707070" d="M0.222222,774.431l-0.25,0l0,0.125L0.222222,774.431M16.9722,465.306l-17,0l0,309.125l6.56944,-8.5L6.54167,465.306"/>
        <polyline fill="#707070" points="637.861,465.306,6.54167,465.306,6.54167,473.819,629.597,473.819,637.861,465.306"/>
        <polyline fill="#666666" points="638.097,465.306,637.861,465.306,621.097,473.819,638.097,465.306"/>
       </g>
      </g>
     </g>
    </g>
    <polyline fill="#999999" points="638.097,441,-0.0277778,441,-0.0277778,465.306,638.097,465.306,638.097,441"/>
   </g>
  </g>
  <g transform="translate(203.083,934.05)">
   <rect width="31.93" x="0" y="0" fill="#8D8C8C" height="31.9" id="connector0pin"/>
   <rect width="16.4442" x="7.79153" y="7.73544" fill="#8C8663" height="16.4152"/>
   <polygon fill="#B8AF82" points="0,31.9,7.79153,24.1368,7.79153,6.97162,0,0"/>
   <polygon fill="#80795B" points="24.2079,7.76321,7.90264,7.76321,0,0,31.93,0"/>
   <polygon fill="#5E5B43" points="24.2079,24.1368,24.2079,7.76321,31.93,0,31.93,31.9"/>
   <polygon fill="#9A916C" points="0,31.9,7.87486,24.1368,24.2079,24.1368,31.93,31.9"/>
  </g>
  <g transform="translate(203.083,34.05)">
   <rect width="31.93" x="0" y="0" fill="#8D8C8C" height="31.9" id="connector9pin"/>
   <rect width="16.4442" x="7.79153" y="7.73544" fill="#8C8663" height="16.4152"/>
   <polygon fill="#B8AF82" points="0,31.9,7.79153,24.1368,7.79153,6.97162,0,0"/>
   <polygon fill="#80795B" points="24.2079,7.76321,7.90264,7.76321,0,0,31.93,0"/>
   <polygon fill="#5E5B43" points="24.2079,24.1368,24.2079,7.76321,31.93,0,31.93,31.9"/>
   <polygon fill="#9A916C" points="0,31.9,7.87486,24.1368,24.2079,24.1368,31.93,31.9"/>
  </g>
  <g transform="translate(303.083,934.05)">
   <rect width="31.93" x="0" y="0" fill="#8D8C8C" height="31.9" id="connector1pin"/>
   <rect width="16.4442" x="7.79153" y="7.73544" fill="#8C8663" height="16.4152"/>
   <polygon fill="#B8AF82" points="0,31.9,7.79153,24.1368,7.79153,6.97162,0,0"/>
   <polygon fill="#80795B" points="24.2079,7.76321,7.90264,7.76321,0,0,31.93,0"/>
   <polygon fill="#5E5B43" points="24.2079,24.1368,24.2079,7.76321,31.93,0,31.93,31.9"/>
   <polygon fill="#9A916C" points="0,31.9,7.87486,24.1368,24.2079,24.1368,31.93,31.9"/>
  </g>
  <g transform="translate(303.083,34.05)">
   <rect width="31.93" x="0" y="0" fill="#8D8C8C" height="31.9" id="connector8pin"/>
   <rect width="16.4442" x="7.79153" y="7.73544" fill="#8C8663" height="16.4152"/>
   <polygon fill="#B8AF82" points="0,31.9,7.79153,24.1368,7.79153,6.97162,0,0"/>
   <polygon fill="#80795B" points="24.2079,7.76321,7.90264,7.76321,0,0,31.93,0"/>
   <polygon fill="#5E5B43" points="24.2079,24.1368,24.2079,7.76321,31.93,0,31.93,31.9"/>
   <polygon fill="#9A916C" points="0,31.9,7.87486,24.1368,24.2079,24.1368,31.93,31.9"/>
  </g>
  <g transform="translate(403.083,934.05)">
   <rect width="31.93" x="0" y="0" fill="#8D8C8C" height="31.9" id="connector2pin"/>
   <rect width="16.4442" x="7.79153" y="7.73544" fill="#8C8663" height="16.4152"/>
   <polygon fill="#B8AF82" points="0,31.9,7.79153,24.1368,7.79153,6.97162,0,0"/>
   <polygon fill="#80795B" points="24.2079,7.76321,7.90264,7.76321,0,0,31.93,0"/>
   <polygon fill="#5E5B43" points="24.2079,24.1368,24.2079,7.76321,31.93,0,31.93,31.9"/>
   <polygon fill="#9A916C" points="0,31.9,7.87486,24.1368,24.2079,24.1368,31.93,31.9"/>
  </g>
  <g transform="translate(403.083,34.05)">
   <rect width="31.93" x="0" y="0" fill="#8D8C8C" height="31.9" id="connector7pin"/>
   <rect width="16.4442" x="7.79153" y="7.73544" fill="#8C8663" height="16.4152"/>
   <polygon fill="#B8AF82" points="0,31.9,7.79153,24.1368,7.79153,6.97162,0,0"/>
   <polygon fill="#80795B" points="24.2079,7.76321,7.90264,7.76321,0,0,31.93,0"/>
   <polygon fill="#5E5B43" points="24.2079,24.1368,24.2079,7.76321,31.93,0,31.93,31.9"/>
   <polygon fill="#9A916C" points="0,31.9,7.87486,24.1368,24.2079,24.1368,31.93,31.9"/>
  </g>
  <g transform="translate(503.084,934.05)">
   <rect width="31.93" x="0" y="0" fill="#8D8C8C" height="31.9" id="connector3pin"/>
   <rect width="16.4442" x="7.79153" y="7.73544" fill="#8C8663" height="16.4152"/>
   <polygon fill="#B8AF82" points="0,31.9,7.79153,24.1368,7.79153,6.97162,0,0"/>
   <polygon fill="#80795B" points="24.2079,7.76321,7.90264,7.76321,0,0,31.93,0"/>
   <polygon fill="#5E5B43" points="24.2079,24.1368,24.2079,7.76321,31.93,0,31.93,31.9"/>
   <polygon fill="#9A916C" points="0,31.9,7.87486,24.1368,24.2079,24.1368,31.93,31.9"/>
  </g>
  <g transform="translate(503.084,34.05)">
   <rect width="31.93" x="0" y="0" fill="#8D8C8C" height="31.9" id="connector6pin"/>
   <rect width="16.4442" x="7.79153" y="7.73544" fill="#8C8663" height="16.4152"/>
   <polygon fill="#B8AF82" points="0,31.9,7.79153,24.1368,7.79153,6.97162,0,0"/>
   <polygon fill="#80795B" points="24.2079,7.76321,7.90264,7.76321,0,0,31.93,0"/>
   <polygon fill="#5E5B43" points="24.2079,24.1368,24.2079,7.76321,31.93,0,31.93,31.9"/>
   <polygon fill="#9A916C" points="0,31.9,7.87486,24.1368,24.2079,24.1368,31.93,31.9"/>
  </g>
  <g transform="translate(603.083,934.05)">
   <rect width="31.93" x="0" y="0" fill="#8D8C8C" height="31.9" id="connector4pin"/>
   <rect width="16.4442" x="7.79153" y="7.73544" fill="#8C8663" height="16.4152"/>
   <polygon fill="#B8AF82" points="0,31.9,7.79153,24.1368,7.79153,6.97162,0,0"/>
   <polygon fill="#80795B" points="24.2079,7.76321,7.90264,7.76321,0,0,31.93,0"/>
   <polygon fill="#5E5B43" points="24.2079,24.1368,24.2079,7.76321,31.93,0,31.93,31.9"/>
   <polygon fill="#9A916C" points="0,31.9,7.87486,24.1368,24.2079,24.1368,31.93,31.9"/>
  </g>
  <g transform="translate(603.083,34.05)">
   <rect width="31.93" x="0" y="0" fill="#8D8C8C" height="31.9" id="connector5pin"/>
   <rect width="16.4442" x="7.79153" y="7.73544" fill="#8C8663" height="16.4152"/>
   <polygon fill="#B8AF82" points="0,31.9,7.79153,24.1368,7.79153,6.97162,0,0"/>
   <polygon fill="#80795B" points="24.2079,7.76321,7.90264,7.76321,0,0,31.93,0"/>
   <polygon fill="#5E5B43" points="24.2079,24.1368,24.2079,7.76321,31.93,0,31.93,31.9"/>
   <polygon fill="#9A916C" points="0,31.9,7.87486,24.1368,24.2079,24.1368,31.93,31.9"/>
  </g>
 </g>
</svg>
