<?xml version="1.0" encoding="utf-8"?>
<!DOCTYPE svg PUBLIC "-//W3C//DTD SVG 1.1//EN" "http://www.w3.org/Graphics/SVG/1.1/DTD/svg11.dtd">
<svg version="1.1" id="Layer_1" xmlns:svg="http://www.w3.org/2000/svg"
	 xmlns="http://www.w3.org/2000/svg" xmlns:xlink="http://www.w3.org/1999/xlink"
	 x="0px" y="0px" width="0.23in" height="0.4275in" viewBox="0 0 23 42.75" xml:space="preserve">
	
<rect id="connector0terminal" x="0" y="41.75" fill="none" width="3" height="1"/>
<rect id="connector1terminal" x="20" y="41.75" fill="none" width="3" height="1"/>
<rect id="connector0pin" x="0" y="32.75" fill="none" width="3" height="10"/>
<rect id="connector1pin" x="20" y="32.75" fill="none" width="3" height="10"/>
<g id="breadboard">
	<g>
		<path fill="#8C8C8C" d="M3.94,12.224c-0.002,0.002-0.002,0.002-1.689,1.689c-1.019,0.994-1.677,2.224-1.946,3.629
			C0.021,18.95,0.004,20.534,0,22.75v20h3v-20H2.999C2.995,20.563,3.04,19.1,3.242,18.144c0.214-0.96,0.461-1.417,1.129-2.111
			c1.689-1.687,1.689-1.688,1.689-1.688L3.94,12.224z"/>
		<path fill="#8C8C8C" d="M22.998,22.749L22.998,22.749c-0.003-2.215-0.02-3.799-0.304-5.207c-0.27-1.404-0.929-2.635-1.948-3.63
			c-1.686-1.687-1.686-1.687-1.686-1.688l-2.121,2.123c0,0,0,0,1.687,1.687c0.669,0.694,0.916,1.151,1.13,2.111
			c0.202,0.957,0.247,2.419,0.243,4.605h0.006L20,22.75v20h3v-20L22.998,22.749z"/>
		<circle fill="#CC7720" cx="11.5" cy="9.035" r="9.035"/>
		<path d="M11.5,2.583c1.915,0,3.774-0.232,5.561-0.66C15.526,0.723,13.6,0,11.5,0C9.4,0,7.474,0.723,5.939,1.923
			C7.725,2.351,9.585,2.583,11.5,2.583z"/>
		<path fill="#CC7720" d="M2.75,11.223c0.135,0.489-0.063,0.72-0.281,1.062C2.25,12.629,1.957,12.83,1.531,13.41
			c-0.344,0.469-0.529,0.948-0.688,1.5c-0.158,0.552-0.03,0.938-0.03,0.938l2.562,1.781c0,0,0.257-0.104,0.48-0.356
			c0.146-0.164,0.477-0.443,0.645-0.612c0.344-0.344,0.562-0.419,0.937-0.419c0.393,0,0.619,0.005,0.994,0.273
			c0.423,0.303,2.049-1.417,2.049-1.417L4.876,12.66l-1.604-1.958C3.271,10.702,2.615,10.733,2.75,11.223z"/>
		<path fill="#CC7720" d="M20.25,11.223c-0.135,0.489,0.062,0.72,0.28,1.062c0.22,0.344,0.513,0.545,0.938,1.125
			c0.344,0.469,0.53,0.948,0.688,1.5c0.155,0.552,0.028,0.938,0.028,0.938l-2.562,1.781c0,0-0.256-0.104-0.48-0.356
			c-0.146-0.164-0.477-0.443-0.645-0.612c-0.345-0.344-0.562-0.419-0.938-0.419c-0.392,0-0.619,0.005-0.994,0.273
			c-0.423,0.303-2.049-1.417-2.049-1.417l3.604-2.438l1.604-1.958C19.729,10.702,20.384,10.733,20.25,11.223z"/>
		<path opacity="0.1" d="M18.32,16.501c-0.307-0.62-1.319-1.403-1.914-1.403
			c-0.594,0-2.905,0.437-3.905,0.437s-3.438-0.5-4.22-0.5c-0.836,0-1.688,0.125-2.28,0.312c-0.536,0.169-1.083,0.375-1.708,1.312
			c-0.159,0.239-0.266,0.395-0.335,0.51c0.165-0.163,0.404-0.372,0.543-0.51c0.344-0.344,0.562-0.419,0.937-0.419
			c0.393,0,0.619,0.005,0.994,0.273h0.001c1.445,0.981,3.189,1.556,5.068,1.556s3.623-0.574,5.067-1.556h0.001
			c0.375-0.269,0.604-0.273,0.994-0.273C17.869,16.241,18.071,16.299,18.32,16.501z"/>
		<path opacity="0.1" d="M19.908,12.806c0.403,0.188,1.704,0.916,2.19,1.928
			c-0.146-0.479-0.326-0.906-0.633-1.323c-0.426-0.58-0.719-0.781-0.938-1.125c-0.207-0.327-0.389-0.558-0.286-1.003
			c0.184-0.72,0.293-1.47,0.293-2.247c0-1.62-0.435-3.136-1.181-4.451c0.062,0.322,0.103,0.642,0.103,0.951
			c0,0.958-0.164,2.433-0.275,3.321c-0.1,0.784-0.494,1.471-0.494,2.408C18.688,12.046,19.666,12.695,19.908,12.806z"/>
		<path opacity="0.55" fill="#FFFFFF" d="M9.375,1.42C8.762,1.409,8.259,1.673,8.254,2.007
			C8.252,2.151,8.356,2.282,8.513,2.39c0.479,0.061,0.962,0.107,1.449,0.14c0.301-0.104,0.513-0.275,0.517-0.485
			C10.483,1.709,9.99,1.43,9.375,1.42z"/>
	</g>
</g>
</svg>
