<?xml version="1.0" encoding="UTF-8"?><!DOCTYPE svg  PUBLIC '-//W3C//DTD SVG 1.1 Basic//EN'  'http://www.w3.org/Graphics/SVG/1.1/DTD/svg11-basic.dtd'><svg baseProfile="basic" height="1.5153in" id="Layer_1" version="1.1" viewBox="0 0 120.132 109.103" width="1.6685in" x="0px" xml:space="preserve" xmlns="http://www.w3.org/2000/svg" xmlns:xlink="http://www.w3.org/1999/xlink" y="0px">

<rect fill="#8C8C8C" height="8.256" id="connector0pin" width="3" x="13.439" y="100.847"/>
<rect fill="#8C8C8C" height="8.256" id="connector1pin" width="3" x="20.636" y="100.847"/>
<rect fill="#8C8C8C" height="0.56" id="connector0terminal" width="3" x="13.439" y="108.543"/>
<rect fill="#8C8C8C" height="0.56" id="connector1terminal" width="3" x="20.636" y="108.543"/>

<g id="breadboard">
	<g>
		<rect fill="#878787" height="4.562" width="12.975" x="107.157" y="25.221"/>
		<rect fill="#2D2D2D" height="4.562" width="0.451" x="107.157" y="25.221"/>
		<rect height="0.522" opacity="0.35" width="12.975" x="107.157" y="29.258"/>
		<path d="M119.835,26.478c0,0.255-0.275,0.461-0.617,0.461H106.78c-0.34,0-0.617-0.188-0.617-0.443    v-0.369c0-0.256,0.277-0.479,0.617-0.479h12.438c0.342,0,0.617,0.207,0.617,0.461V26.478z" fill="#FFFFFF" opacity="0.35"/>
	</g>
	<g>
		<path d="M106.687,7.465c0-1.561-1.275-2.834-2.834-2.834h-0.031c-1.561,0-2.836-0.93-2.836-2.062    c0-1.132-1.273-2.061-2.834-2.061H28.507v54.701h69.645c1.561,0,2.834-0.93,2.834-2.062s1.275-2.061,2.836-2.061h0.031    c1.559,0,2.834-1.275,2.834-2.836V7.465L106.687,7.465z" fill="#6D6D6D" stroke="#6D6D6D" stroke-width="1"/>
	</g>
	<path d="M104.28,47.815h-0.029c-1.551,0-3.102,0.606-3.102,1.346c0,0.738-0.982,1.346-2.531,1.346H34.22v4.453   h63.833c1.547,0,2.812-0.926,2.812-2.055c0-1.129,1.27-2.055,2.816-2.055h0.031c1.549,0,2.814-1.271,2.814-2.824v-2.061   C106.53,46.983,105.829,47.815,104.28,47.815z" opacity="0.35"/>
	<rect fill="#878787" height="3.041" width="0.94" x="23.905" y="26.34"/>
	<rect fill="#E5E500" height="5.584" width="10.242" x="27.642" y="25.069"/>
	<g>
		<rect fill="#E5E500" height="17.988" width="2.795" x="24.847" y="18.866"/>
		<polygon fill="#F3FF00" points="35.158,25.069 35.158,0 27.642,0 27.642,26 37.884,26 37.884,29.719 27.642,29.719 27.642,55.721     35.158,55.721 35.158,30.653 37.884,30.653 37.884,25.069   "/>
	</g>
	<path d="M101.724,28.065c0,13.27-0.758,24.021-0.758,24.021V4.047   C100.966,4.047,101.724,14.803,101.724,28.065z" fill="#686868" opacity="0.5"/>
	<path d="M99.819,17.839c0,1.417-1.425,2.564-3.181,2.564H41.119c-1.757,0-3.181-1.049-3.181-2.467   V5.144c0-1.418,1.424-2.668,3.181-2.668h55.519c1.756,0,3.181,1.15,3.181,2.568V17.839z" fill="#FFFFFF" opacity="0.16"/>
	<g opacity="0.16">
		<path d="M105.595,18.178c0,0.78-0.639,1.417-1.417,1.417h-0.352c-0.777,0-1.417-0.638-1.417-1.417V7.685    c0-0.78,0.64-1.417,1.417-1.417h0.352c0.778,0,1.417,0.638,1.417,1.417V18.178z" fill="#FFFFFF"/>
	</g>
	<g>
		<path d="M92.049,24.66c-1.034,0-1.876-0.841-1.876-1.875v-8.422c0-1.035,0.842-1.877,1.876-1.877s1.876,0.842,1.876,1.877v8.422    C93.925,23.818,93.083,24.66,92.049,24.66L92.049,24.66z"/>
		<path d="M92.049,12.986c0.759,0,1.376,0.618,1.376,1.377v8.422c0,0.76-0.617,1.375-1.376,1.375    s-1.376-0.615-1.376-1.375v-8.422C90.673,13.603,91.29,12.986,92.049,12.986 M92.049,11.986c-1.312,0-2.376,1.064-2.376,2.377    v8.422c0,1.312,1.062,2.375,2.376,2.375c1.312,0,2.376-1.062,2.376-2.375v-8.422C94.425,13.05,93.361,11.986,92.049,11.986    L92.049,11.986z" fill="#6B6B6B"/>
	</g>
	<g>
		<path d="M92.049,43.234c-1.034,0-1.876-0.842-1.876-1.876v-8.421c0-1.035,0.842-1.877,1.876-1.877s1.876,0.842,1.876,1.877v8.421    C93.925,42.392,93.083,43.234,92.049,43.234L92.049,43.234z"/>
		<path d="M92.049,31.56c0.759,0,1.376,0.618,1.376,1.377v8.421c0,0.759-0.617,1.376-1.376,1.376    s-1.376-0.617-1.376-1.376v-8.421C90.673,32.178,91.29,31.56,92.049,31.56 M92.049,30.56c-1.312,0-2.376,1.064-2.376,2.377v8.421    c0,1.312,1.062,2.376,2.376,2.376c1.312,0,2.376-1.062,2.376-2.376v-8.421C94.425,31.625,93.361,30.56,92.049,30.56L92.049,30.56z    " fill="#6B6B6B"/>
	</g>
	<g>
		<path d="M92.049,6.086c-1.034,0-1.876-0.843-1.876-1.875V0.5h3.752v3.711C93.925,5.245,93.083,6.086,92.049,6.086L92.049,6.086z"/>
		<path d="M93.425,1v3.211c0,0.758-0.617,1.375-1.376,1.375s-1.376-0.617-1.376-1.375V1H93.425 M94.425,0h-4.752    v4.211c0,1.312,1.062,2.375,2.376,2.375c1.312,0,2.376-1.063,2.376-2.375V0L94.425,0z" fill="#6B6B6B"/>
	</g>
	<g>
		<path d="M90.173,55.221V51.51c0-1.035,0.842-1.877,1.876-1.877s1.876,0.842,1.876,1.877v3.711H90.173z"/>
		<path d="M92.049,50.133c0.759,0,1.376,0.618,1.376,1.377v3.211h-2.752V51.51    C90.673,50.751,91.29,50.133,92.049,50.133 M92.049,49.133c-1.312,0-2.376,1.062-2.376,2.377v4.211h4.752V51.51    C94.425,50.198,93.361,49.133,92.049,49.133L92.049,49.133z" fill="#6B6B6B"/>
	</g>
	<g id="wires">
		<path d="M19.884,10.438l-0.5,0.548v3l0.559,0.548h7.699v-4.097L19.884,10.438L19.884,10.438z M21.443,13.836    c-0.746,0-1.35-0.604-1.35-1.35c0-0.746,0.604-1.35,1.35-1.35s1.35,0.604,1.35,1.35C22.793,13.232,22.189,13.836,21.443,13.836z" fill="#ED8F66"/>
		<path d="M19.884,41.208l-0.5,0.549v3l0.559,0.548h7.699v-4.097H19.884z M21.443,44.607    c-0.746,0-1.35-0.604-1.35-1.35s0.604-1.35,1.35-1.35s1.35,0.604,1.35,1.35S22.189,44.607,21.443,44.607z" fill="#ED8F66"/>
		<rect fill="#8C8C8C" height="2.062" width="1.919" x="19.213" y="11.52"/>
		<rect fill="#8C8C8C" height="2.062" width="1.919" x="19.213" y="42.226"/>
		<path d="M22.179,100.847V88.083c0-16.772-12.667-25.445-12.667-36.026    c0-8.66,4.045-8.8,9.709-8.8" fill="none" stroke="#FFD500" stroke-width="3"/>
		<path d="M14.938,100.847c0-4.249,0-12.764,0-12.764    C14.938,69.21,1.5,62.171,1.5,41.573c0-24.356,13.594-29.022,17.821-29.022" fill="none" stroke="#32BF4F" stroke-width="3"/>
	</g>
</g>
</svg>