<?xml version='1.0' encoding='utf-8'?>
<!DOCTYPE svg PUBLIC '-//W3C//DTD SVG 1.1 Basic//EN' 'http://www.w3.org/Graphics/SVG/1.1/DTD/svg11-basic.dtd'>
<svg width="0.20in" x="0px" version="1.1" y="0px" xmlns="http://www.w3.org/2000/svg" height="0.17in" viewBox="0 0 14.693 12.277" baseProfile="basic" xmlns:xlink="http://www.w3.org/1999/xlink" id="Layer_1" xml:space="preserve" >
 <g id="breadboard" >
  <g>
   <polygon fill="#254E89" points="14.4,2.885 14.4,0 0,0 0,2.885 0.293,2.885 0.293,5.229 0,5.229 0,11.382 14.4,11.382 14.4,5.229 14.693,5.229 14.693,2.885 " />
  </g>
  <rect width="14.16" x="0.129" y="0.172" fill="#456DAB" height="0.416" />
  <g>
   <g>
    <path fill="#3A5C8E" d="M3.602,5.921c1.4,0,2.54-1.138,2.54-2.54H1.061C1.06,4.784,2.199,5.921,3.602,5.921z" />
    <path fill="#123C66" d="M3.602,0.842c-1.402,0-2.541,1.139-2.541,2.539h5.081C6.142,1.979,5.004,0.842,3.602,0.842z" />
   </g>
   <g>
    <g>
     <path fill="#8B8B8B" d="M3.602,5.441c-1.138,0-2.062-0.924-2.062-2.062c0-1.136,0.924-2.061,2.062-2.061c1.137,0,2.061,0.924,2.061,2.061C5.662,4.517,4.738,5.441,3.602,5.441L3.602,5.441z" />
     <path d="M3.602,1.358c1.117,0,2.021,0.906,2.021,2.021c0,1.116-0.904,2.022-2.021,2.022S1.579,4.495,1.579,3.379C1.578,2.264,2.484,1.358,3.602,1.358 M3.602,1.284c-1.157,0-2.1,0.941-2.1,2.098c0,1.157,0.941,2.1,2.1,2.1c1.155,0,2.098-0.94,2.098-2.1C5.699,2.225,4.758,1.284,3.602,1.284L3.602,1.284z" />
    </g>
    <g>
     <path fill="#707070" d="M1.64,2.906C1.603,3.059,1.578,3.219,1.578,3.382c0,0.165,0.025,0.322,0.062,0.479h3.922c0.037-0.153,0.062-0.312,0.062-0.479c0-0.163-0.023-0.32-0.062-0.476H1.64z" />
    </g>
    <g>
     <rect width="0.952" x="3.125" y="1.667" fill="#545252" height="3.428" />
     <rect width="2.999" x="2.102" y="2.906" fill="#545252" height="0.951" />
    </g>
    <g opacity="0.5" >
     <path d="M3.602,1.525c1.021,0,1.854,0.833,1.854,1.854c0,1.023-0.833,1.855-1.854,1.855c-1.023,0-1.856-0.833-1.856-1.855C1.745,2.358,2.578,1.525,3.602,1.525 M3.602,1.358c-1.117,0-2.023,0.906-2.023,2.021c0,1.116,0.906,2.022,2.023,2.022s2.021-0.906,2.021-2.022C5.625,2.264,4.719,1.358,3.602,1.358L3.602,1.358z" />
    </g>
   </g>
  </g>
  <g>
   <path fill="#3A5C8E" d="M10.799,5.921c1.402,0,2.541-1.138,2.541-2.54H8.258C8.258,4.784,9.396,5.921,10.799,5.921z" />
   <path fill="#123C66" d="M10.799,0.842c-1.4,0-2.541,1.139-2.541,2.539h5.082C13.34,1.979,12.201,0.842,10.799,0.842z" />
  </g>
  <g>
   <g>
    <path fill="#8B8B8B" d="M10.799,5.441c-1.137,0-2.061-0.924-2.061-2.062c0-1.136,0.924-2.061,2.061-2.061c1.139,0,2.062,0.924,2.062,2.061C12.86,4.517,11.936,5.441,10.799,5.441L10.799,5.441z" />
    <path d="M10.799,1.358c1.117,0,2.023,0.906,2.023,2.021c0,1.116-0.906,2.022-2.023,2.022c-1.115,0-2.021-0.906-2.021-2.022C8.775,2.264,9.682,1.358,10.799,1.358 M10.799,1.284c-1.154,0-2.098,0.941-2.098,2.098c0,1.157,0.939,2.1,2.098,2.1c1.159,0,2.1-0.94,2.1-2.1C12.896,2.225,11.956,1.284,10.799,1.284L10.799,1.284z" />
   </g>
   <g>
    <path fill="#707070" d="M8.838,2.906C8.802,3.059,8.776,3.219,8.776,3.382c0,0.165,0.023,0.322,0.062,0.479h3.924c0.035-0.153,0.062-0.312,0.062-0.479c0-0.163-0.025-0.32-0.062-0.476H8.838z" />
   </g>
   <g>
    <rect width="0.952" x="10.323" y="1.667" fill="#545252" height="3.428" />
    <rect width="2.996" x="9.302" y="2.906" fill="#545252" height="0.951" />
   </g>
   <g opacity="0.5" >
    <path d="M10.799,1.525c1.023,0,1.856,0.833,1.856,1.854c0,1.023-0.833,1.855-1.856,1.855c-1.021,0-1.854-0.833-1.854-1.855C8.941,2.358,9.775,1.525,10.799,1.525 M10.799,1.358c-1.115,0-2.021,0.906-2.021,2.021c0,1.116,0.906,2.022,2.021,2.022c1.117,0,2.023-0.906,2.023-2.022C12.822,2.264,11.916,1.358,10.799,1.358L10.799,1.358z" />
   </g>
  </g>
  <rect width="14.4" x="0" y="6.219" fill="#123C66" height="5.162" />
  <g>
   <rect width="5.082" x="1.06" y="6.786" fill="#103656" height="2.033" />
   <rect width="5.082" x="1.06" y="8.82" fill="#254E89" height="2.109" />
   <rect width="2.488" x="2.357" y="8.846" fill="#254E89" height="2.533" />
   <rect width="4.668" x="1.268" y="6.964" fill="#8D8C8C" height="3.818" />
   <path fill="#A0A0A0" d="M3.602,10.558c1.107,0,2.008-0.656,2.008-1.47h-4.02C1.592,9.902,2.492,10.558,3.602,10.558z" />
   <path fill="#565656" d="M3.602,7.625c-1.109,0-2.012,0.656-2.012,1.467h4.02C5.609,8.281,4.711,7.625,3.602,7.625z" />
   <ellipse fill="#383838" cx="3.601" cy="9.092" rx="1.558" ry="1.138" />
   <g>
    <polygon fill="#919291" points="2.266,8.411 1.604,7.484 1.268,7.458 1.331,6.937 5.936,7.001 5.872,7.522 5.656,7.458 4.923,8.411 " />
    <g>
     <path fill="#57585A" d="M5.808,7.065v0.329H5.657H5.592L5.555,7.446L4.892,8.347H2.33L1.656,7.445L1.617,7.394H1.554H1.397V7.065H5.808 M5.936,6.937H1.268v0.585h0.285l0.713,0.953h2.688l0.701-0.953h0.279L5.936,6.937L5.936,6.937z" />
    </g>
   </g>
   <rect width="2.094" x="2.555" y="10.768" fill="#8C8C8C" height="1.505" />
  </g>
  <g>
   <rect width="5.082" x="8.262" y="6.786" fill="#103656" height="2.033" />
   <rect width="5.082" x="8.262" y="8.82" fill="#254E89" height="2.109" />
   <rect width="2.488" x="9.557" y="8.846" fill="#254E89" height="2.533" />
   <rect width="4.666" x="8.469" y="6.964" fill="#8D8C8C" height="3.818" />
   <path fill="#A0A0A0" d="M10.802,10.558c1.107,0,2.01-0.656,2.01-1.47h-4.02C8.793,9.902,9.691,10.558,10.802,10.558z" />
   <path fill="#565656" d="M10.802,7.625c-1.109,0-2.01,0.656-2.01,1.467h4.02C12.81,8.281,11.91,7.625,10.802,7.625z" />
   <ellipse fill="#383838" cx="10.803" cy="9.092" rx="1.557" ry="1.138" />
   <g>
    <polygon fill="#919291" points="9.467,8.411 8.805,7.484 8.469,7.458 8.533,6.937 13.135,7.001 13.07,7.522 12.857,7.458 12.125,8.411 " />
    <g>
     <path fill="#57585A" d="M13.007,7.065v0.329h-0.147h-0.063l-0.039,0.052l-0.659,0.901H9.535L8.858,7.445L8.819,7.394H8.756H8.602V7.065H13.007 M13.135,6.937H8.469v0.585h0.281l0.715,0.953h2.689l0.701-0.953h0.274L13.135,6.937L13.135,6.937z" />
    </g>
   </g>
   <rect width="2.098" x="9.754" y="10.768" fill="#8C8C8C" height="1.505" />
  </g>
 <rect width="2.315876068376031" x="2.519" y="7.934844936625098" fill="none" height="4.3391550633749" id="connector0pin" />
 <rect width="2.254175663517746" x="9.718999999999999" y="8.032304649255085" fill="none" height="4.241695350744913" id="connector1pin" />
 </g>
</svg>
