<?xml version="1.0" encoding="utf-8"?>
<!-- Generator: Adobe Illustrator 16.0.0, SVG Export Plug-In . SVG Version: 6.00 Build 0)  -->
<!DOCTYPE svg PUBLIC "-//W3C//DTD SVG 1.1 Basic//EN" "http://www.w3.org/Graphics/SVG/1.1/DTD/svg11-basic.dtd">
<svg version="1.1" baseProfile="basic" id="Ebene_1" xmlns:svg="http://www.w3.org/2000/svg"
	 xmlns="http://www.w3.org/2000/svg" xmlns:xlink="http://www.w3.org/1999/xlink" x="0px" y="0px" width="61.764px"
	 height="43.79px" viewBox="0 0 61.764 43.79" xml:space="preserve">
<g id="poe-rj45" transform="matrix(1, 0, 0, 1, 7.74281, 14.064)">
	<g>
		<rect x="-6.906" y="-14.051" fill="#1A1A1A" width="54.427" height="43.774"/>
		<g>
			<path fill="#B3B3B3" d="M2.425-3.216c0.396,0,0.719,0.324,0.719,0.725v2.648c0,0.396-0.324,0.725-0.719,0.725h-9.449
				c-0.396,0-0.719-0.324-0.719-0.725v-2.648c0-0.396,0.323-0.725,0.719-0.725H2.425z"/>
			<path fill="#B3B3B3" d="M2.425,14.792c0.396,0,0.719,0.324,0.719,0.725v2.648c0,0.395-0.324,0.725-0.719,0.725h-9.449
				c-0.396,0-0.719-0.324-0.719-0.725v-2.648c0-0.396,0.323-0.725,0.719-0.725H2.425z"/>
			<path fill="#CCCCCC" d="M2.425-3.216c0.396,0,0.719,0.324,0.719,0.725v2.648c0,0.396-0.324,0.725-0.719,0.725H1.257v-4.098H2.425
				L2.425-3.216z"/>
			<path fill="#CCCCCC" d="M2.425,14.792c0.396,0,0.719,0.324,0.719,0.725v2.648c0,0.395-0.324,0.725-0.719,0.725H1.257v-4.098
				H2.425z"/>
			<rect x="-2.62" y="-3.216" fill="#999999" width="4.063" height="4.098"/>
			<rect x="-2.62" y="14.792" fill="#999999" width="4.063" height="4.098"/>
			<rect x="-4.993" y="-3.216" fill="#B3B3B3" width="3.875" height="4.098"/>
			<rect x="-4.993" y="14.792" fill="#B3B3B3" width="3.875" height="4.098"/>
			<rect x="-4.369" y="-3.216" fill="#CCCCCC" width="1.469" height="4.098"/>
			<rect x="-4.369" y="14.792" fill="#CCCCCC" width="1.469" height="4.098"/>
			<rect x="1.287" y="-3.216" fill="#E6E6E6" width="0.311" height="4.098"/>
			<rect x="1.656" y="-3.212" fill="#F2F2F2" width="0.489" height="4.098"/>
			<path fill="#CCCCCC" d="M3.523,29.726H53.3h0.721v-0.721v-42.334v-0.722H53.3H3.523v0.288H-6.906v0.436V-4.7v0.721l0.717,0.047
				l5.104,0.336l5.104,0.336c0.395,0.025,0.719,0.371,0.719,0.771v2.666c0,0.396-0.324,0.738-0.719,0.768L-1.085,1.28l-5.104,0.336
				l0,0l-0.717,0.049v0.723v10.918v0.721l0.717,0.051l0,0l5.104,0.346l5.105,0.348c0.396,0.023,0.718,0.373,0.718,0.768v2.629
				c0,0.396-0.322,0.74-0.718,0.771l-5.105,0.346l-5.104,0.344l0,0l-0.717,0.049v0.719v8.627v0.432h10.43L3.523,29.726L3.523,29.726
				z"/>
		</g>
		<rect x="-6.905" y="-14.051" opacity="0.37" fill="#E6E6E6" width="60.926" height="3.475"/>
		<rect x="-6.905" y="26.255" opacity="0.37" fill="#808080" width="60.926" height="3.473"/>
		<path opacity="0.45" fill="#E6E6E6" d="M-6.905-1.169v-2.047c0,0,8.854,0,9.33,0c0.479,0,0.721,0.434,0.721,0.725s0,1.322,0,1.322
			H-6.905z"/>
		<path opacity="0.45" fill="#E6E6E6" d="M-6.905,16.837v-2.043c0,0,8.854,0,9.33,0c0.479,0,0.721,0.428,0.721,0.719
			s0,1.324,0,1.324H-6.905L-6.905,16.837z"/>
		<path opacity="0.45" fill="#B3B3B3" d="M-6.905,16.841v2.049c0,0,8.854,0,9.33,0c0.479,0,0.721-0.436,0.721-0.727s0-1.322,0-1.322
			H-6.905z"/>
		<path opacity="0.45" fill="#B3B3B3" d="M-6.905-1.169v2.051c0,0,8.854,0,9.33,0c0.479,0,0.721-0.432,0.721-0.723s0-1.328,0-1.328
			H-6.905z"/>
		<rect x="-3.931" y="-3.216" opacity="0.76" fill="#E6E6E6" width="0.813" height="4.098"/>
		<rect x="-3.931" y="14.792" opacity="0.76" fill="#E6E6E6" width="0.813" height="4.098"/>
		<rect x="1.287" y="14.792" opacity="0.76" fill="#E6E6E6" width="0.311" height="4.098"/>
		<rect x="1.63" y="14.796" opacity="0.76" fill="#F2F2F2" width="0.411" height="4.094"/>
		<g>
			<g>
				<rect x="4.221" y="-15.236" fill="#999999" width="1.699" height="0.386"/>
				<rect x="4.221" y="-15.236" fill="#999999" width="1.699" height="0.386"/>
			</g>
			<path fill="#999999" d="M-0.521-14.055c0,0,2.991-0.657,4.741-0.782v-0.398c-1.75,0.125-4.741,0.783-4.741,0.783
				s-1.497,0.254-1.903,0.396C-1.455-14.055-0.521-14.055-0.521-14.055z"/>
			<path fill="#CCCCCC" d="M1.167-14.055c0,0,3.003-0.669,4.753-0.794v-0.397c-1.75,0.125-4.753,0.794-4.753,0.794
				s-1.497,0.254-1.903,0.396C0.232-14.055,1.167-14.055,1.167-14.055z"/>
		</g>
		<g>
			<g>
				<rect x="4.221" y="30.525" fill="#999999" width="1.699" height="0.387"/>
				<rect x="4.221" y="30.525" fill="#999999" width="1.699" height="0.387"/>
			</g>
			<path fill="#999999" d="M-0.521,29.73c0,0,2.991,0.656,4.741,0.781v0.398c-1.75-0.125-4.741-0.783-4.741-0.783
				s-1.497-0.254-1.903-0.396C-1.455,29.73-0.521,29.73-0.521,29.73z"/>
			<path fill="#CCCCCC" d="M1.167,29.73c0,0,3.003,0.67,4.753,0.795v0.396c-1.75-0.125-4.753-0.795-4.753-0.795
				s-1.497-0.254-1.903-0.396C0.232,29.73,1.167,29.73,1.167,29.73z"/>
		</g>
	</g>
</g>
</svg>
