<?xml version="1.0" encoding="utf-8"?>
<!-- Generator: Adobe Illustrator 16.0.0, SVG Export Plug-In . SVG Version: 6.00 Build 0)  -->
<svg version="1.2" baseProfile="tiny" id="Ebene_1" xmlns="http://www.w3.org/2000/svg" xmlns:xlink="http://www.w3.org/1999/xlink"
	 x="0px" y="0px" width="31.629px" height="30.957px" viewBox="0 0 31.629 30.957" xml:space="preserve">
<g>
	<g>
		<g>
			<rect y="0.947" fill="#666666" width="6.594" height="6.254"/>
		</g>
		<g>
			<rect y="13.053" fill="#666666" width="6.594" height="7.238"/>
		</g>
	</g>
	<g>
		<g>
			<rect x="25.033" y="0.947" fill="#666666" width="6.596" height="6.254"/>
		</g>
		<g>
			<rect x="25.033" y="13.053" fill="#666666" width="6.596" height="7.238"/>
		</g>
	</g>
	<g>
		<g>
			<polygon fill="#999999" points="20.016,3.553 19.189,2.457 25.459,2.457 25.459,1.494 6.109,1.494 6.109,2.457 12.434,2.457 
				11.608,3.553 5.137,3.553 5.137,26.396 26.484,26.396 26.484,3.553 			"/>
		</g>
	</g>
	<g>
		<path d="M11.266,12.482c0.156,0,0.271,0.127,0.256,0.281l-1.097,10.494c-0.017,0.154-0.153,0.281-0.312,0.281H8.37
			c-0.154,0-0.297-0.127-0.312-0.281l-1.1-10.494c-0.018-0.154,0.102-0.281,0.254-0.281h0.256c0.153,0,0.297,0.127,0.311,0.281
			l0.83,9.542c0.011,0.153,0.15,0.28,0.308,0.28h0.649c0.153,0,0.295-0.127,0.31-0.28l0.829-9.542
			c0.013-0.154,0.151-0.281,0.31-0.281H11.266z"/>
	</g>
	<g>
		<path d="M24.408,12.482c0.152,0,0.271,0.127,0.256,0.281L23.563,23.26c-0.021,0.154-0.151,0.281-0.313,0.281h-1.742
			c-0.154,0-0.297-0.127-0.313-0.281l-1.1-10.496c-0.021-0.154,0.102-0.281,0.254-0.281h0.258c0.154,0,0.295,0.127,0.313,0.281
			l0.828,9.541c0.014,0.154,0.146,0.281,0.311,0.281h0.646c0.15,0,0.297-0.127,0.313-0.281l0.824-9.541
			c0.02-0.154,0.146-0.281,0.313-0.281L24.408,12.482L24.408,12.482z"/>
	</g>
	<g>
		<g>
			<polygon fill="none" points="21.771,22.58 22.988,22.58 23.061,21.752 21.707,21.752 			"/>
		</g>
		<g>
			<polygon fill="#939393" points="23.061,21.752 22.988,22.58 21.771,22.58 21.707,21.752 			"/>
		</g>
		<g>
			<polygon fill="#545454" points="23.061,21.752 23.092,21.404 21.669,21.404 21.707,21.752 			"/>
		</g>
	</g>
	<g>
		<g>
			<polygon fill="none" points="8.628,22.58 9.852,22.58 9.919,21.752 8.565,21.752 			"/>
		</g>
		<g>
			<polygon fill="#939393" points="9.919,21.752 9.852,22.58 8.628,22.58 8.565,21.752 			"/>
		</g>
		<g>
			<polygon fill="#545454" points="9.919,21.752 9.954,21.404 8.527,21.404 8.565,21.752 			"/>
		</g>
	</g>
	<g>
		<rect x="12.904" y="14.012" fill="#808080" width="5.555" height="2.015"/>
	</g>
	<g>
		<rect x="12.904" y="12.898" fill="#545454" width="5.555" height="1.115"/>
	</g>
	<g>
		<path d="M12.568,24.496c0.154,0,0.293-0.127,0.301-0.281l0.699-11.605c0.01-0.154,0.146-0.281,0.301-0.281h3.889
			c0.155,0,0.291,0.127,0.305,0.281l0.69,11.605c0.009,0.154,0.146,0.281,0.302,0.281h0.521c0.152,0,0.271-0.127,0.267-0.281
			l-0.959-13.191c-0.017-0.154-0.146-0.283-0.31-0.283h-5.52c-0.154,0-0.295,0.129-0.309,0.283l-0.956,13.191
			c-0.011,0.154,0.108,0.283,0.263,0.283L12.568,24.496L12.568,24.496z"/>
	</g>
	
	<g>
		<g>
			<g>
				<rect x="18.768" fill="#666666" width="0.863" height="1.494"/>
			</g>
			<g>
				<rect x="18.768" fill="#CCCCCC" width="0.141" height="1.494"/>
			</g>
		</g>
		<g>
			<g>
				<rect x="17.075" fill="#666666" width="0.862" height="1.494"/>
			</g>
			<g>
				<rect x="17.075" fill="#CCCCCC" width="0.14" height="1.494"/>
			</g>
		</g>
		<g>
			<g>
				<rect x="15.383" fill="#666666" width="0.863" height="1.494"/>
			</g>
			<g>
				<rect x="15.383" fill="#CCCCCC" width="0.139" height="1.494"/>
			</g>
		</g>
		<g>
			<g>
				<rect x="13.691" fill="#666666" width="0.864" height="1.494"/>
			</g>
			<g>
				<rect x="13.691" fill="#CCCCCC" width="0.14" height="1.494"/>
			</g>
		</g>
		<g>
			<g>
				<rect x="11.999" fill="#666666" width="0.864" height="1.494"/>
			</g>
			<g>
				<rect x="11.999" fill="#CCCCCC" width="0.141" height="1.494"/>
			</g>
		</g>
	</g>
</g>
</svg>
