<?xml version='1.0' encoding='UTF-8' standalone='no'?>
<svg width="120.949px" xmlns:rdf="http://www.w3.org/1999/02/22-rdf-syntax-ns#" x="0px" version="1.2" y="0px" xmlns="http://www.w3.org/2000/svg" height="85.883px" viewBox="0 0 120.949 85.883" xmlns:sodipodi="http://sodipodi.sourceforge.net/DTD/sodipodi-0.dtd" xmlns:cc="http://creativecommons.org/ns#" id="svg2" xmlns:dc="http://purl.org/dc/elements/1.1/" xml:space="preserve" xmlns:svg="http://www.w3.org/2000/svg" xmlns:inkscape="http://www.inkscape.org/namespaces/inkscape">
 <metadata id="metadata93">
  <rdf:RDF>
   <cc:Work rdf:about="">
    <dc:format>image/svg+xml</dc:format>
    <dc:type rdf:resource="http://purl.org/dc/dcmitype/StillImage"/>
    <dc:title/>
   </cc:Work>
  </rdf:RDF>
 </metadata>
 <defs id="defs91"/>
 <sodipodi:namedview showgrid="false" objecttolerance="10" pagecolor="#ffffff" bordercolor="#666666" id="namedview89" borderopacity="1" guidetolerance="10" gridtolerance="10"/>
 <g id="schematic">
  <rect width="0.208" x="11.695" y="84.796" height="0.208" id="connector0terminal"/>
  <rect width="1.375" x="11.076" y="65.499" height="19.75" id="connector0pin"/>
  <rect width="0.208" x="54.461" y="0.895" height="0.208" id="connector1terminal"/>
  <rect width="1.375" x="53.855999" y="0.79100001" height="22.124992" id="connector1pin"/>
  <rect width="0.208" x="54.478" y="84.796" height="0.208"/>
  <rect width="0.209" x="97.258" y="84.796" height="0.208"/>
  <g id="g_x5F_g" transform="translate(42.473222,0)">
   <g id="g36">
    <path id="path38" d="m 65.09,33.29 c 0.359,0 0.691,0.193 0.869,0.509 l 0,0 c 0.18,0.312 0.174,0.695 -0.012,1.005 l 0,0 -10.525,17.639 c -0.179,0.302 -0.507,0.488 -0.858,0.488 l 0,0 c -0.35,0 -0.68,-0.186 -0.858,-0.486 l 0,0 -10.55,-17.639 c -0.185,-0.312 -0.189,-0.694 -0.013,-1.007 l 0,0 c 0.178,-0.315 0.509,-0.509 0.871,-0.509 l 0,0 H 65.09 M 54.563,49.98 63.33,35.291 H 45.776 l 8.787,14.689 0,0 z"/>
    <path id="path40" d="m 43.783,52.93 c -0.554,0 -1,-0.445 -1,-0.998 l 0,0 c 0,-0.554 0.446,-1 1,-1 l 0,0 h 21.049 c 0.555,0 1.002,0.446 1.002,1 l 0,0 c 0,0.553 -0.447,0.998 -1.002,0.998 l 0,0 H 43.783 l 0,0 z"/>
    <path id="path42" d="M 53.565,34.15749 V 21.920339 c 0,-0.208003 0.447,-0.375759 1,-0.375759 l 0,0 c 0.554,0 1,0.167756 1,0.375759 l 0,0 V 34.15749 c 0,0.208002 -0.446,0.37651 -1,0.37651 l 0,0 c -0.552,0 -1,-0.168508 -1,-0.37651 l 0,0 z"/>
    <path id="path44" d="M 53.565,84.885 V 51.833 c 0,-0.554 0.448,-1.001 1,-1.001 l 0,0 c 0.553,0 1,0.447 1,1.001 l 0,0 v 33.052 c 0,0.551 -0.447,0.998 -1,0.998 l 0,0 c -0.551,0 -1,-0.447 -1,-0.998 l 0,0 z"/>
    <polygon points="76.221,60.087 71.307,56.934 72.773,55.764 74.238,54.595 " id="polygon46"/>
    <path id="path48" d="m 69.59,57.02 2.559,-2.037 1.465,-1.17 1.092,-0.871 3.461,9.58 -8.577,-5.502 0,0 z"/>
    <path id="path50" d="M 74.869,59.995 65.463,48.209 c -0.344,-0.434 -0.271,-1.062 0.16,-1.406 l 0,0 c 0.434,-0.344 1.062,-0.271 1.404,0.159 l 0,0 9.404,11.786 c 0.344,0.434 0.271,1.062 -0.158,1.406 l 0,0 c -0.188,0.146 -0.404,0.218 -0.623,0.218 l 0,0 c -0.293,0 -0.584,-0.129 -0.781,-0.377 l 0,0 z"/>
    <polygon points="69.67,65.075 64.756,61.923 66.223,60.754 67.688,59.585 " id="polygon52"/>
    <path id="path54" d="m 63.041,62.01 2.559,-2.039 1.463,-1.168 1.09,-0.869 3.469,9.58 -8.581,-5.504 0,0 z"/>
    <path id="path56" d="M 68.32,64.984 60.994,55.8 c -0.347,-0.433 -0.272,-1.062 0.156,-1.406 l 0,0 c 0.432,-0.345 1.062,-0.271 1.406,0.16 l 0,0 7.324,9.182 c 0.346,0.432 0.273,1.061 -0.156,1.404 l 0,0 c -0.188,0.146 -0.404,0.219 -0.623,0.219 l 0,0 c -0.292,0.002 -0.583,-0.127 -0.781,-0.375 l 0,0 z"/>
   </g>
  </g>
  <g id="g_x5F_r">
   <g id="g59">
    <path id="path61" d="M22.309,33.29c0.36,0,0.691,0.193,0.869,0.509l0,0c0.179,0.312,0.175,0.695-0.011,1.005l0,0L12.642,52.443     c-0.179,0.302-0.506,0.488-0.858,0.488l0,0c-0.35,0-0.68-0.186-0.858-0.486l0,0L0.375,34.805     c-0.185-0.312-0.189-0.694-0.012-1.007l0,0c0.177-0.315,0.508-0.509,0.871-0.509l0,0L22.309,33.29 M11.782,49.98l8.766-14.689     H2.995L11.782,49.98L11.782,49.98z"/>
    <path id="path63" d="M1,52.93c-0.554,0-1-0.445-1-0.998l0,0c0-0.554,0.447-1,1-1l0,0H22.05c0.552,0,1.001,0.446,1.001,1l0,0     c0,0.553-0.449,0.998-1.001,0.998l0,0H1L1,52.93z"/>
    <path id="path65" d="M10.783,34.051V22.033c0-0.553,0.448-0.999,1.001-0.999l0,0c0.553,0,0.999,0.446,0.999,0.999l0,0v12.018     c0,0.553-0.446,1.001-0.999,1.001l0,0C11.23,35.052,10.783,34.603,10.783,34.051L10.783,34.051z"/>
    <path id="path67" d="M10.784,84.885V51.833c0-0.554,0.448-1.001,0.999-1.001l0,0c0.553,0,1.001,0.447,1.001,1.001l0,0v33.052     c0,0.551-0.448,0.998-1.001,0.998l0,0C11.231,85.883,10.784,85.436,10.784,84.885L10.784,84.885z"/>
    <polygon points="31.457,54.595 33.438,60.087 28.524,56.934 29.991,55.764    " id="polygon69"/>
    <path id="path71" d="M26.81,57.02l2.557-2.037l1.465-1.17l1.091-0.871l3.461,9.58L26.81,57.02L26.81,57.02z"/>
    <path id="path73" d="M32.085,59.995L22.68,48.209c-0.344-0.434-0.271-1.062,0.159-1.406l0,0c0.433-0.344,1.062-0.271,1.405,0.159l0,0     l9.404,11.786c0.345,0.434,0.274,1.062-0.158,1.406l0,0c-0.185,0.146-0.404,0.218-0.622,0.218l0,0     C32.575,60.372,32.284,60.243,32.085,59.995L32.085,59.995z"/>
    <polygon points="24.905,59.585 26.89,65.075 21.976,61.923 23.44,60.754    " id="polygon75"/>
    <path id="path77" d="M20.261,62.01l2.556-2.039l1.464-1.168l1.089-0.869l3.469,9.58L20.261,62.01L20.261,62.01z"/>
    <path id="path79" d="M25.538,64.984l-7.327-9.184c-0.345-0.433-0.272-1.062,0.158-1.406l0,0c0.431-0.345,1.062-0.271,1.406,0.16l0,0     l7.325,9.182c0.345,0.432,0.274,1.061-0.158,1.404l0,0c-0.185,0.146-0.404,0.219-0.623,0.219l0,0     C26.025,65.361,25.734,65.232,25.538,64.984L25.538,64.984z"/>
   </g>
  </g>
  <line fill="none" stroke="#000000" stroke-linejoin="round" stroke-linecap="round" id="line81" y1="22.051" stroke-width="2" x1="11.785" y2="22.051" x2="97.066"/>
  <text font-family="DroidSans" id="text83" transform="matrix(1 0 0 1 0.1504 65.9502)" font-size="14">R</text>
  <text x="85.405846" y="65.950203" style="font-size:14px;font-family:DroidSans" id="text85" font-size="14">G</text>
  <rect width="40.205238" x="40.205238" y="27.865314" height="58.696259" style="fill:#9c0000;fill-opacity:0;stroke-width:17;stroke-miterlimit:4;stroke-opacity:1;stroke-dasharray:none" id="rect3070" transform="translate(0,-2.5058937e-6)"/>
  <rect width="2.302210886095622" x="95.81130075698061" y="66.10558112960402" fill="none" height="19.52220035518496" id="connector4"/>
  <rect width="2.302210886095622" x="95.81130075698061" y="66.10558112960402" fill="none" height="19.52220035518496" id="connector4"/>
  <rect width="2.302210886095622" x="95.81130075698061" y="66.10558112960402" fill="none" height="19.52220035518496" id="connector4"/>
  <rect width="2.302210886095622" x="95.81130075698061" y="66.10558112960402" fill="none" height="19.52220035518496" id="connector4"/>
 </g>
</svg>
