<?xml version="1.0" encoding="utf-8"?>
<!-- Generator: Adobe Illustrator 16.0.0, SVG Export Plug-In . SVG Version: 6.00 Build 0)  -->
<!DOCTYPE svg PUBLIC "-//W3C//DTD SVG 1.1//EN" "http://www.w3.org/Graphics/SVG/1.1/DTD/svg11.dtd">
<svg version="1.1" id="svg2" xmlns:svg="http://www.w3.org/2000/svg"
	 xmlns="http://www.w3.org/2000/svg" xmlns:xlink="http://www.w3.org/1999/xlink" x="0px" y="0px" width="44.576px"
	 height="29.507px" viewBox="0 0 44.576 29.507" enable-background="new 0 0 44.576 29.507" xml:space="preserve">
<g id="schematic">
	<path d="M18.565,15.1c-0.193,0-0.35-0.157-0.35-0.35v-7.2c0-0.193,0.157-0.35,0.35-0.35s0.35,0.157,0.35,0.35v7.2
		C18.916,14.943,18.758,15.1,18.565,15.1z"/>
	<path fill="none" d="M18.565,7.55L18.565,7.55L18.565,7.55z"/>
	<path d="M32.963,15.1c-0.192,0-0.351-0.157-0.351-0.35V7.9H4.515v6.85c0,0.193-0.157,0.35-0.35,0.35s-0.35-0.157-0.35-0.35V7.2
		h29.499v7.55C33.313,14.943,33.155,15.1,32.963,15.1z"/>
	<path d="M36.563,15.1h-3.603c-0.192,0-0.351-0.157-0.351-0.35s0.156-0.35,0.351-0.35h3.603c0.192,0,0.352,0.157,0.352,0.35
		S36.758,15.1,36.563,15.1z"/>
	<path d="M32.963,15.1h-3.598c-0.193,0-0.351-0.157-0.351-0.35s0.154-0.35,0.351-0.35h3.598c0.192,0,0.351,0.157,0.351,0.35
		S33.155,15.1,32.963,15.1z"/>
	<polygon fill="#FFFFFF" points="36.563,21.951 32.963,21.951 29.365,21.951 32.963,14.75 	"/>
	<path d="M37.131,22.3h-8.332l4.164-8.333L37.131,22.3z M29.933,21.599h6.065l-3.035-6.066L29.933,21.599z"/>
	<path d="M32.963,22.175c-0.124,0-0.226-0.103-0.226-0.225V14.75c0-0.124,0.102-0.225,0.226-0.225s0.226,0.101,0.226,0.225v7.201
		C33.188,22.074,33.087,22.175,32.963,22.175z"/>
	<path d="M37.582,16.414c-0.06,0-0.115-0.021-0.159-0.063c-0.088-0.088-0.088-0.229,0-0.316l2.34-2.341
		c0.088-0.088,0.229-0.088,0.318,0c0.088,0.088,0.088,0.23,0,0.318L37.74,16.35C37.696,16.392,37.64,16.414,37.582,16.414z"/>
	<path d="M37.224,13.176c-0.059,0-0.115-0.022-0.158-0.066c-0.09-0.088-0.09-0.23,0-0.318l2.341-2.34
		c0.088-0.088,0.229-0.088,0.315,0c0.088,0.088,0.088,0.23,0,0.318l-2.34,2.34C37.338,13.154,37.278,13.176,37.224,13.176z"/>
	<path d="M41.542,12.231l-1.08,2.52l-1.438-1.439L41.542,12.231z"/>
	<path d="M41.183,8.991l-1.078,2.52l-1.438-1.438L41.183,8.991z"/>
	<path d="M22.165,15.1h-3.599c-0.193,0-0.35-0.157-0.35-0.35s0.157-0.35,0.35-0.35h3.599c0.193,0,0.35,0.157,0.35,0.35
		S22.358,15.1,22.165,15.1z"/>
	<path d="M18.565,15.1h-3.601c-0.193,0-0.35-0.157-0.35-0.35s0.157-0.35,0.35-0.35h3.601c0.193,0,0.35,0.157,0.35,0.35
		S18.758,15.1,18.565,15.1z"/>
	<polygon fill="#FFFFFF" points="22.165,21.951 18.565,21.951 14.964,21.951 18.565,14.75 	"/>
	<path d="M22.731,22.3h-8.333l4.167-8.333L22.731,22.3z M15.53,21.599h6.067l-3.033-6.066L15.53,21.599z"/>
	<path d="M18.565,22.175c-0.124,0-0.225-0.103-0.225-0.225V14.75c0-0.124,0.101-0.225,0.225-0.225s0.225,0.101,0.225,0.225v7.201
		C18.791,22.074,18.689,22.175,18.565,22.175z"/>
	<path d="M23.183,16.414c-0.058,0-0.113-0.021-0.158-0.063c-0.088-0.088-0.088-0.229,0-0.316l2.343-2.341
		c0.088-0.088,0.229-0.088,0.315,0c0.09,0.088,0.09,0.23,0,0.318l-2.341,2.339C23.298,16.392,23.24,16.414,23.183,16.414z"/>
	<path d="M22.821,13.176c-0.057,0-0.114-0.022-0.159-0.066c-0.088-0.088-0.088-0.23,0-0.318l2.34-2.34
		c0.088-0.088,0.229-0.088,0.317,0c0.088,0.088,0.088,0.23,0,0.318l-2.34,2.34C22.938,13.154,22.88,13.176,22.821,13.176z"/>
	<path d="M27.144,12.231l-1.08,2.52l-1.438-1.439L27.144,12.231z"/>
	<path d="M26.783,8.991l-1.08,2.52l-1.438-1.438L26.783,8.991z"/>
	<path d="M7.766,15.1H4.165c-0.193,0-0.35-0.157-0.35-0.35s0.157-0.35,0.35-0.35h3.601c0.193,0,0.35,0.157,0.35,0.35
		S7.959,15.1,7.766,15.1z"/>
	<path d="M4.165,15.1H0.566c-0.193,0-0.35-0.157-0.35-0.35s0.157-0.35,0.35-0.35h3.599c0.193,0,0.35,0.157,0.35,0.35
		S4.359,15.1,4.165,15.1z"/>
	<polygon fill="#FFFFFF" points="7.766,21.951 4.165,21.951 0.566,21.951 4.165,14.75 	"/>
	<path d="M8.332,22.3H0l4.166-8.333L8.332,22.3z M1.133,21.599H7.2l-3.034-6.066L1.133,21.599z"/>
	<path d="M4.165,22.175c-0.124,0-0.225-0.103-0.225-0.225V14.75c0-0.124,0.101-0.225,0.225-0.225S4.39,14.626,4.39,14.75v7.201
		C4.39,22.074,4.289,22.175,4.165,22.175z"/>
	<path d="M8.783,16.414c-0.058,0-0.115-0.021-0.159-0.063c-0.088-0.088-0.088-0.229,0-0.316l2.339-2.341
		c0.088-0.088,0.23-0.088,0.318,0c0.088,0.088,0.088,0.23,0,0.318L8.942,16.35C8.898,16.392,8.841,16.414,8.783,16.414z"/>
	<path d="M8.422,13.176c-0.058,0-0.115-0.022-0.159-0.066c-0.087-0.088-0.087-0.23,0-0.318l2.341-2.34
		c0.088-0.088,0.23-0.088,0.318,0c0.088,0.088,0.088,0.23,0,0.318l-2.341,2.34C8.537,13.154,8.48,13.176,8.422,13.176z"/>
	<path d="M12.743,12.231l-1.08,2.52l-1.439-1.439L12.743,12.231z"/>
	<path d="M12.382,8.991l-1.08,2.52l-1.438-1.438L12.382,8.991z"/>
	<g>
		<path id="connector2pin" fill="#787878" d="M32.964,29.5c-0.193,0-0.35-0.155-0.35-0.35v-7.199c0-0.193,0.156-0.352,0.35-0.352
			c0.194,0,0.35,0.156,0.35,0.352v7.199C33.313,29.343,33.157,29.5,32.964,29.5z"/>
		<rect id="connector2terminal" x="32.663" y="27.167" fill="none" width="0.75" height="2.396"/>
		<path id="connector1pin" fill="#787878" d="M18.567,7.9c-0.193,0-0.35-0.157-0.35-0.35v-7.2c0-0.193,0.157-0.35,0.35-0.35
			s0.35,0.157,0.35,0.35v7.2C18.917,7.744,18.76,7.9,18.567,7.9z"/>
		<rect id="connector1terminal" x="18.205" fill="none" width="0.75" height="2.399"/>
		<path id="connector3pin" fill="#787878" d="M18.566,29.5c-0.193,0-0.35-0.155-0.35-0.35v-7.199c0-0.193,0.157-0.352,0.35-0.352
			s0.35,0.156,0.35,0.352v7.199C18.916,29.343,18.759,29.5,18.566,29.5z"/>
		<rect id="connector3terminal" x="18.163" y="27.167" fill="none" width="0.75" height="2.396"/>
		<path id="connector0pin" fill="#787878" d="M4.165,29.5c-0.193,0-0.35-0.155-0.35-0.35v-7.199c0-0.193,0.157-0.352,0.35-0.352
			s0.35,0.156,0.35,0.352v7.199C4.515,29.343,4.359,29.5,4.165,29.5z"/>
		<rect id="connector0terminal" x="3.726" y="27.167" fill="none" width="0.75" height="2.396"/>
	</g>
</g>
<text transform="matrix(1 0 0 1 19.5259 13.1758)" fill="#787878" font-family="'OCRAStd'" font-size="4.2315">B</text>
<text transform="matrix(1 0 0 1 5.1924 13.1768)" fill="#787878" font-family="'OCRAStd'" font-size="4.2315">R</text>
<text transform="matrix(1 0 0 1 34.1924 13.1768)" fill="#787878" font-family="'OCRAStd'" font-size="4.2315">G</text>
</svg>
