<?xml version='1.0' encoding='UTF-8' standalone='no'?>
<!-- Created with Fritzing (http://www.fritzing.org/) -->
<svg xmlns="http://www.w3.org/2000/svg"  width="1.3in" x="0in" version="1.2" y="0in" height="2.4in" viewBox="0 0 93.6 172.8" baseProfile="tiny">
 <desc >Fritzing schematic generated by brd2svg</desc>
 <g  id="schematic">
  <rect  width="64.35" x="14.4" y="14.4" fill="none" height="144" stroke="#000000" stroke-linejoin="round" stroke-linecap="round" stroke-width="0.9"/>
  <text  x="46.8" y="82.9001" font-family="'Droid Sans'" fill="#000000" text-anchor="middle" stroke="none" id="label" font-size="3.5">pinocc.io</text>
  <text  x="46.8" y="86.4" font-family="'Droid Sans'" fill="#000000" text-anchor="middle" stroke="none" id="label" font-size="3.5">scout</text>
  <line  fill="none" stroke="#787878" stroke-linejoin="round" stroke-linecap="round" y1="28.8" stroke-width="0.699998" x1="0.349999" y2="28.8" x2="14.4"/>
  <rect  width="14.4" x="0" y="28.45" fill="none" height="0.699998" id="connector68pin" stroke-width="0" connectorName="RESET-EN"/>
  <rect  width="0" x="0" y="28.45" fill="none" height="0.699998" id="connector68terminal" stroke-width="0"/>
  <text  x="15.8" y="29.5" font-family="'Droid Sans'" fill="#8c8c8c" text-anchor="start" stroke="none" id="label68" font-size="3.5">RESET-EN</text>
  <line  fill="none" stroke="#787878" stroke-linejoin="round" stroke-linecap="round" y1="36" stroke-width="0.699998" x1="0.349999" y2="36" x2="14.4"/>
  <rect  width="14.4" x="0" y="35.65" fill="none" height="0.699998" id="connector89pin" stroke-width="0" connectorName="AREF"/>
  <rect  width="0" x="0" y="35.65" fill="none" height="0.699998" id="connector89terminal" stroke-width="0"/>
  <text  x="15.8" y="36.7" font-family="'Droid Sans'" fill="#8c8c8c" text-anchor="start" stroke="none" id="label89" font-size="3.5">AREF</text>
  <line  fill="none" stroke="#787878" stroke-linejoin="round" stroke-linecap="round" y1="43.2" stroke-width="0.699998" x1="0.349999" y2="43.2" x2="14.4"/>
  <rect  width="14.4" x="0" y="42.85" fill="none" height="0.699998" id="connector90pin" stroke-width="0" connectorName="A0"/>
  <rect  width="0" x="0" y="42.85" fill="none" height="0.699998" id="connector90terminal" stroke-width="0"/>
  <text  x="15.8" y="43.9" font-family="'Droid Sans'" fill="#8c8c8c" text-anchor="start" stroke="none" id="label90" font-size="3.5">A0</text>
  <line  fill="none" stroke="#787878" stroke-linejoin="round" stroke-linecap="round" y1="50.4" stroke-width="0.699998" x1="0.349999" y2="50.4" x2="14.4"/>
  <rect  width="14.4" x="0" y="50.05" fill="none" height="0.699998" id="connector91pin" stroke-width="0" connectorName="A1"/>
  <rect  width="0" x="0" y="50.05" fill="none" height="0.699998" id="connector91terminal" stroke-width="0"/>
  <text  x="15.8" y="51.1" font-family="'Droid Sans'" fill="#8c8c8c" text-anchor="start" stroke="none" id="label91" font-size="3.5">A1</text>
  <line  fill="none" stroke="#787878" stroke-linejoin="round" stroke-linecap="round" y1="57.6" stroke-width="0.699998" x1="0.349999" y2="57.6" x2="14.4"/>
  <rect  width="14.4" x="0" y="57.25" fill="none" height="0.699998" id="connector92pin" stroke-width="0" connectorName="A2"/>
  <rect  width="0" x="0" y="57.25" fill="none" height="0.699998" id="connector92terminal" stroke-width="0"/>
  <text  x="15.8" y="58.3" font-family="'Droid Sans'" fill="#8c8c8c" text-anchor="start" stroke="none" id="label92" font-size="3.5">A2</text>
  <line  fill="none" stroke="#787878" stroke-linejoin="round" stroke-linecap="round" y1="64.8" stroke-width="0.699998" x1="0.349999" y2="64.8" x2="14.4"/>
  <rect  width="14.4" x="0" y="64.45" fill="none" height="0.699998" id="connector93pin" stroke-width="0" connectorName="A3"/>
  <rect  width="0" x="0" y="64.45" fill="none" height="0.699998" id="connector93terminal" stroke-width="0"/>
  <text  x="15.8" y="65.5" font-family="'Droid Sans'" fill="#8c8c8c" text-anchor="start" stroke="none" id="label93" font-size="3.5">A3</text>
  <line  fill="none" stroke="#787878" stroke-linejoin="round" stroke-linecap="round" y1="72" stroke-width="0.699998" x1="0.349999" y2="72" x2="14.4"/>
  <rect  width="14.4" x="0" y="71.65" fill="none" height="0.699998" id="connector94pin" stroke-width="0" connectorName="A4"/>
  <rect  width="0" x="0" y="71.65" fill="none" height="0.699998" id="connector94terminal" stroke-width="0"/>
  <text  x="15.8" y="72.6998" font-family="'Droid Sans'" fill="#8c8c8c" text-anchor="start" stroke="none" id="label94" font-size="3.5">A4</text>
  <line  fill="none" stroke="#787878" stroke-linejoin="round" stroke-linecap="round" y1="79.2" stroke-width="0.699998" x1="0.349999" y2="79.2" x2="14.4"/>
  <rect  width="14.4" x="0" y="78.8501" fill="none" height="0.699998" id="connector95pin" stroke-width="0" connectorName="A5"/>
  <rect  width="0" x="0" y="78.8501" fill="none" height="0.699998" id="connector95terminal" stroke-width="0"/>
  <text  x="15.8" y="79.8998" font-family="'Droid Sans'" fill="#8c8c8c" text-anchor="start" stroke="none" id="label95" font-size="3.5">A5</text>
  <line  fill="none" stroke="#787878" stroke-linejoin="round" stroke-linecap="round" y1="86.4" stroke-width="0.699998" x1="0.349999" y2="86.4" x2="14.4"/>
  <rect  width="14.4" x="0" y="86.0501" fill="none" height="0.699998" id="connector96pin" stroke-width="0" connectorName="A6"/>
  <rect  width="0" x="0" y="86.0501" fill="none" height="0.699998" id="connector96terminal" stroke-width="0"/>
  <text  x="15.8" y="87.0998" font-family="'Droid Sans'" fill="#8c8c8c" text-anchor="start" stroke="none" id="label96" font-size="3.5">A6</text>
  <line  fill="none" stroke="#787878" stroke-linejoin="round" stroke-linecap="round" y1="93.6" stroke-width="0.699998" x1="0.349999" y2="93.6" x2="14.4"/>
  <rect  width="14.4" x="0" y="93.2501" fill="none" height="0.699998" id="connector97pin" stroke-width="0" connectorName="A7"/>
  <rect  width="0" x="0" y="93.2501" fill="none" height="0.699998" id="connector97terminal" stroke-width="0"/>
  <text  x="15.8" y="94.2998" font-family="'Droid Sans'" fill="#8c8c8c" text-anchor="start" stroke="none" id="label97" font-size="3.5">A7</text>
  <line  fill="none" stroke="#787878" stroke-linejoin="round" stroke-linecap="round" y1="100.8" stroke-width="0.699998" x1="0.349999" y2="100.8" x2="14.4"/>
  <rect  width="14.4" x="0" y="100.45" fill="none" height="0.699998" id="connector67pin" stroke-width="0" connectorName="BKPK-BUS"/>
  <rect  width="0" x="0" y="100.45" fill="none" height="0.699998" id="connector67terminal" stroke-width="0"/>
  <text  x="15.8" y="101.5" font-family="'Droid Sans'" fill="#8c8c8c" text-anchor="start" stroke="none" id="label67" font-size="3.5">BKPK-BUS</text>
  <line  fill="none" stroke="#787878" stroke-linejoin="round" stroke-linecap="round" y1="108" stroke-width="0.699998" x1="0.349999" y2="108" x2="14.4"/>
  <rect  width="14.4" x="0" y="107.65" fill="none" height="0.699998" id="connector62pin" stroke-width="0" connectorName="Switch2"/>
  <rect  width="0" x="0" y="107.65" fill="none" height="0.699998" id="connector62terminal" stroke-width="0"/>
  <text  x="15.8" y="108.7" font-family="'Droid Sans'" fill="#8c8c8c" text-anchor="start" stroke="none" id="label62" font-size="3.5">Switch2</text>
  <line  fill="none" stroke="#787878" stroke-linejoin="round" stroke-linecap="round" y1="115.2" stroke-width="0.699998" x1="0.349999" y2="115.2" x2="14.4"/>
  <rect  width="14.4" x="0" y="114.85" fill="none" height="0.699998" id="connector63pin" stroke-width="0" connectorName="Switch1"/>
  <rect  width="0" x="0" y="114.85" fill="none" height="0.699998" id="connector63terminal" stroke-width="0"/>
  <text  x="15.8" y="115.9" font-family="'Droid Sans'" fill="#8c8c8c" text-anchor="start" stroke="none" id="label63" font-size="3.5">Switch1</text>
  <line  fill="none" stroke="#787878" stroke-linejoin="round" stroke-linecap="round" y1="28.8" stroke-width="0.699998" x1="78.8501" y2="28.8" x2="93.2501"/>
  <rect  width="14.4" x="79.2" y="28.45" fill="none" connectorname="D2" height="0.699998" id="connector75pin" stroke-width="0"/>
  <rect  width="0" x="93.6" y="28.45" fill="none" height="0.699998" id="connector75terminal" stroke-width="0"/>
  <text  x="77.8003" y="29.5" font-family="'Droid Sans'" fill="#8c8c8c" text-anchor="end" stroke="none" id="label75" font-size="3.5">D2</text>
  <line  fill="none" stroke="#787878" stroke-linejoin="round" stroke-linecap="round" y1="36" stroke-width="0.699998" x1="78.8501" y2="36" x2="93.2501"/>
  <rect  width="14.4" x="79.2" y="35.65" fill="none" connectorname="D3" height="0.699998" id="connector76pin" stroke-width="0"/>
  <rect  width="0" x="93.6" y="35.65" fill="none" height="0.699998" id="connector76terminal" stroke-width="0"/>
  <text  x="77.8003" y="36.7" font-family="'Droid Sans'" fill="#8c8c8c" text-anchor="end" stroke="none" id="label76" font-size="3.5">D3</text>
  <line  fill="none" stroke="#787878" stroke-linejoin="round" stroke-linecap="round" y1="43.2" stroke-width="0.699998" x1="78.8501" y2="43.2" x2="93.2501"/>
  <rect  width="14.4" x="79.2" y="42.85" fill="none" connectorname="D4" height="0.699998" id="connector77pin" stroke-width="0"/>
  <rect  width="0" x="93.6" y="42.85" fill="none" height="0.699998" id="connector77terminal" stroke-width="0"/>
  <text  x="77.8003" y="43.9" font-family="'Droid Sans'" fill="#8c8c8c" text-anchor="end" stroke="none" id="label77" font-size="3.5">D4</text>
  <line  fill="none" stroke="#787878" stroke-linejoin="round" stroke-linecap="round" y1="50.4" stroke-width="0.699998" x1="78.8501" y2="50.4" x2="93.2501"/>
  <rect  width="14.4" x="79.2" y="50.05" fill="none" connectorname="D5" height="0.699998" id="connector78pin" stroke-width="0"/>
  <rect  width="0" x="93.6" y="50.05" fill="none" height="0.699998" id="connector78terminal" stroke-width="0"/>
  <text  x="77.8003" y="51.1" font-family="'Droid Sans'" fill="#8c8c8c" text-anchor="end" stroke="none" id="label78" font-size="3.5">D5</text>
  <line  fill="none" stroke="#787878" stroke-linejoin="round" stroke-linecap="round" y1="57.6" stroke-width="0.699998" x1="78.8501" y2="57.6" x2="93.2501"/>
  <rect  width="14.4" x="79.2" y="57.25" fill="none" connectorname="D6" height="0.699998" id="connector79pin" stroke-width="0"/>
  <rect  width="0" x="93.6" y="57.25" fill="none" height="0.699998" id="connector79terminal" stroke-width="0"/>
  <text  x="77.8003" y="58.3" font-family="'Droid Sans'" fill="#8c8c8c" text-anchor="end" stroke="none" id="label79" font-size="3.5">D6</text>
  <line  fill="none" stroke="#787878" stroke-linejoin="round" stroke-linecap="round" y1="64.8" stroke-width="0.699998" x1="78.8501" y2="64.8" x2="93.2501"/>
  <rect  width="14.4" x="79.2" y="64.45" fill="none" connectorname="D7" height="0.699998" id="connector80pin" stroke-width="0"/>
  <rect  width="0" x="93.6" y="64.45" fill="none" height="0.699998" id="connector80terminal" stroke-width="0"/>
  <text  x="77.8003" y="65.5" font-family="'Droid Sans'" fill="#8c8c8c" text-anchor="end" stroke="none" id="label80" font-size="3.5">D7</text>
  <line  fill="none" stroke="#787878" stroke-linejoin="round" stroke-linecap="round" y1="72" stroke-width="0.699998" x1="78.8501" y2="72" x2="93.2501"/>
  <rect  width="14.4" x="79.2" y="71.65" fill="none" connectorname="D8" height="0.699998" id="connector81pin" stroke-width="0"/>
  <rect  width="0" x="93.6" y="71.65" fill="none" height="0.699998" id="connector81terminal" stroke-width="0"/>
  <text  x="77.8003" y="72.6998" font-family="'Droid Sans'" fill="#8c8c8c" text-anchor="end" stroke="none" id="label81" font-size="3.5">D8</text>
  <line  fill="none" stroke="#787878" stroke-linejoin="round" stroke-linecap="round" y1="79.2" stroke-width="0.699998" x1="78.8501" y2="79.2" x2="93.2501"/>
  <rect  width="14.4" x="79.2" y="78.8501" fill="none" connectorname="RX0" height="0.699998" id="connector73pin" stroke-width="0"/>
  <rect  width="0" x="93.6" y="78.8501" fill="none" height="0.699998" id="connector73terminal" stroke-width="0"/>
  <text  x="77.8003" y="79.8998" font-family="'Droid Sans'" fill="#8c8c8c" text-anchor="end" stroke="none" id="label73" font-size="3.5">RX0</text>
  <line  fill="none" stroke="#787878" stroke-linejoin="round" stroke-linecap="round" y1="86.4" stroke-width="0.699998" x1="78.8501" y2="86.4" x2="93.2501"/>
  <rect  width="14.4" x="79.2" y="86.0501" fill="none" connectorname="TX0" height="0.699998" id="connector74pin" stroke-width="0"/>
  <rect  width="0" x="93.6" y="86.0501" fill="none" height="0.699998" id="connector74terminal" stroke-width="0"/>
  <text  x="77.8003" y="87.0998" font-family="'Droid Sans'" fill="#8c8c8c" text-anchor="end" stroke="none" id="label74" font-size="3.5">TX0</text>
  <line  fill="none" stroke="#787878" stroke-linejoin="round" stroke-linecap="round" y1="93.6" stroke-width="0.699998" x1="78.8501" y2="93.6" x2="93.2501"/>
  <rect  width="14.4" x="79.2" y="93.2501" fill="none" connectorname="TX1" height="0.699998" id="connector86pin" stroke-width="0"/>
  <rect  width="0" x="93.6" y="93.2501" fill="none" height="0.699998" id="connector86terminal" stroke-width="0"/>
  <text  x="77.8003" y="94.2998" font-family="'Droid Sans'" fill="#8c8c8c" text-anchor="end" stroke="none" id="label86" font-size="3.5">TX1</text>
  <line  fill="none" stroke="#787878" stroke-linejoin="round" stroke-linecap="round" y1="100.8" stroke-width="0.699998" x1="78.8501" y2="100.8" x2="93.2501"/>
  <rect  width="14.4" x="79.2" y="100.45" fill="none" connectorname="RX1" height="0.699998" id="connector85pin" stroke-width="0"/>
  <rect  width="0" x="93.6" y="100.45" fill="none" height="0.699998" id="connector85terminal" stroke-width="0"/>
  <text  x="77.8003" y="101.5" font-family="'Droid Sans'" fill="#8c8c8c" text-anchor="end" stroke="none" id="label85" font-size="3.5">RX1</text>
  <line  fill="none" stroke="#787878" stroke-linejoin="round" stroke-linecap="round" y1="108" stroke-width="0.699998" x1="78.8501" y2="108" x2="93.2501"/>
  <rect  width="14.4" x="79.2" y="107.65" fill="none" connectorname="SS" height="0.699998" id="connector72pin" stroke-width="0"/>
  <rect  width="0" x="93.6" y="107.65" fill="none" height="0.699998" id="connector72terminal" stroke-width="0"/>
  <text  x="77.8003" y="108.7" font-family="'Droid Sans'" fill="#8c8c8c" text-anchor="end" stroke="none" id="label72" font-size="3.5">SS</text>
  <line  fill="none" stroke="#787878" stroke-linejoin="round" stroke-linecap="round" y1="115.2" stroke-width="0.699998" x1="78.8501" y2="115.2" x2="93.2501"/>
  <rect  width="14.4" x="79.2" y="114.85" fill="none" connectorname="SDA" height="0.699998" id="connector88pin" stroke-width="0"/>
  <rect  width="0" x="93.6" y="114.85" fill="none" height="0.699998" id="connector88terminal" stroke-width="0"/>
  <text  x="77.8003" y="115.9" font-family="'Droid Sans'" fill="#8c8c8c" text-anchor="end" stroke="none" id="label88" font-size="3.5">SDA</text>
  <line  fill="none" stroke="#787878" stroke-linejoin="round" stroke-linecap="round" y1="122.4" stroke-width="0.699998" x1="78.8501" y2="122.4" x2="93.2501"/>
  <rect  width="14.4" x="79.2" y="122.05" fill="none" connectorname="SCL" height="0.699998" id="connector87pin" stroke-width="0"/>
  <rect  width="0" x="93.6" y="122.05" fill="none" height="0.699998" id="connector87terminal" stroke-width="0"/>
  <text  x="77.8003" y="123.1" font-family="'Droid Sans'" fill="#8c8c8c" text-anchor="end" stroke="none" id="label87" font-size="3.5">SCL</text>
  <line  fill="none" stroke="#787878" stroke-linejoin="round" stroke-linecap="round" y1="129.6" stroke-width="0.699998" x1="78.8501" y2="129.6" x2="93.2501"/>
  <rect  width="14.4" x="79.2" y="129.25" fill="none" connectorname="SCK" height="0.699998" id="connector69pin" stroke-width="0"/>
  <rect  width="0" x="93.6" y="129.25" fill="none" height="0.699998" id="connector69terminal" stroke-width="0"/>
  <text  x="77.8003" y="130.3" font-family="'Droid Sans'" fill="#8c8c8c" text-anchor="end" stroke="none" id="label69" font-size="3.5">SCK</text>
  <line  fill="none" stroke="#787878" stroke-linejoin="round" stroke-linecap="round" y1="136.8" stroke-width="0.699998" x1="78.8501" y2="136.8" x2="93.2501"/>
  <rect  width="14.4" x="79.2" y="136.45" fill="none" connectorname="MOSI" height="0.699998" id="connector71pin" stroke-width="0"/>
  <rect  width="0" x="93.6" y="136.45" fill="none" height="0.699998" id="connector71terminal" stroke-width="0"/>
  <text  x="77.8003" y="137.5" font-family="'Droid Sans'" fill="#8c8c8c" text-anchor="end" stroke="none" id="label71" font-size="3.5">MOSI</text>
  <line  fill="none" stroke="#787878" stroke-linejoin="round" stroke-linecap="round" y1="144" stroke-width="0.699998" x1="78.8501" y2="144" x2="93.2501"/>
  <rect  width="14.4" x="79.2" y="143.65" fill="none" connectorname="MISO" height="0.699998" id="connector70pin" stroke-width="0"/>
  <rect  width="0" x="93.6" y="143.65" fill="none" height="0.699998" id="connector70terminal" stroke-width="0"/>
  <text  x="77.8003" y="144.7" font-family="'Droid Sans'" fill="#8c8c8c" text-anchor="end" stroke="none" id="label70" font-size="3.5">MISO</text>
  <line  fill="none" stroke="#787878" stroke-linejoin="round" stroke-linecap="round" y1="0.349999" stroke-width="0.699998" x1="36" y2="14.4" x2="36"/>
  <rect  width="0.699998" x="35.65" y="0" fill="none" connectorname="VBAT+" height="14.4" id="connector65pin" stroke-width="0"/>
  <rect  width="0.699998" x="35.65" y="0" fill="none" height="0" id="connector65terminal" stroke-width="0"/>
  <g  transform="matrix(1, 0, 0, 1, 37.4, 16)">
   <g  transform="rotate(270)">
    <text  x="0" y="0" font-family="'Droid Sans'" fill="#8c8c8c" text-anchor="end" stroke="none" id="label65" font-size="3.5">VBAT+</text>
   </g>
  </g>
  <line  fill="none" stroke="#787878" stroke-linejoin="round" stroke-linecap="round" y1="0.349999" stroke-width="0.699998" x1="43.2" y2="14.4" x2="43.2"/>
  <rect  width="0.699998" x="42.85" y="0" fill="none" connectorname="VUSB" height="14.4" id="connector66pin" stroke-width="0"/>
  <rect  width="0.699998" x="42.85" y="0" fill="none" height="0" id="connector66terminal" stroke-width="0"/>
  <g  transform="matrix(1, 0, 0, 1, 44.6, 16)">
   <g  transform="rotate(270)">
    <text  x="0" y="0" font-family="'Droid Sans'" fill="#8c8c8c" text-anchor="end" stroke="none" id="label66" font-size="3.5">VUSB</text>
   </g>
  </g>
  <line  fill="none" stroke="#787878" stroke-linejoin="round" stroke-linecap="round" y1="0.349999" stroke-width="0.699998" x1="50.4" y2="14.4" x2="50.4"/>
  <rect  width="0.699998" x="50.05" y="0" fill="none" connectorname="3V3" height="14.4" id="connector82pin" stroke-width="0"/>
  <rect  width="0.699998" x="50.05" y="0" fill="none" height="0" id="connector82terminal" stroke-width="0"/>
  <g  transform="matrix(1, 0, 0, 1, 51.8, 16)">
   <g  transform="rotate(270)">
    <text  x="0" y="0" font-family="'Droid Sans'" fill="#8c8c8c" text-anchor="end" stroke="none" id="label82" font-size="3.5">3V3</text>
   </g>
  </g>
  <line  fill="none" stroke="#787878" stroke-linejoin="round" stroke-linecap="round" y1="158.4" stroke-width="0.699998" x1="43.2" y2="172.45" x2="43.2"/>
  <rect  width="0.699998" x="42.85" y="158.4" fill="none" connectorname="VBAT-" height="14.4" id="connector64pin" stroke-width="0"/>
  <rect  width="0.699998" x="42.85" y="172.8" fill="none" height="0" id="connector64terminal" stroke-width="0"/>
  <g  transform="matrix(1, 0, 0, 1, 44.6, 156.8)">
   <g  transform="rotate(270)">
    <text  x="0" y="0" font-family="'Droid Sans'" fill="#8c8c8c" text-anchor="start" stroke="none" id="label64" font-size="3.5">VBAT-</text>
   </g>
  </g>
  <rect  width="0.699998" x="35.65" y="0" fill="none" connectorname="VBAT+" height="14.4" id="connector84pin" stroke-width="0"/>
  <rect  width="0.699998" x="35.65" y="0" fill="none" height="0" id="connector84terminal" stroke-width="0"/>
  <rect  width="0.699998" x="42.85" y="158.4" fill="none" connectorname="VBAT-" height="14.4" id="connector83pin" stroke-width="0"/>
  <rect  width="0.699998" x="42.85" y="172.8" fill="none" height="0" id="connector83terminal" stroke-width="0"/>
 </g>
</svg>
