<?xml version="1.0" encoding="utf-8"?>
<!-- Generator: Adobe Illustrator 16.0.0, SVG Export Plug-In . SVG Version: 6.00 Build 0)  -->
<!DOCTYPE svg PUBLIC "-//W3C//DTD SVG 1.1//EN" "http://www.w3.org/Graphics/SVG/1.1/DTD/svg11.dtd">
<svg version="1.1" id="Layer_1" xmlns:svg="http://www.w3.org/2000/svg"
	 xmlns="http://www.w3.org/2000/svg" xmlns:xlink="http://www.w3.org/1999/xlink" x="0px" y="0px" width="44.088px"
	 height="51.553px" viewBox="0 0 44.088 51.553" enable-background="new 0 0 44.088 51.553" xml:space="preserve">
<g id="schematic">
	<rect x="18.35" y="0.576" fill="#FFFFFF" width="25.2" height="50.4"/>
	<text id="label" transform="matrix(1 0 0 1 20.0596 18.9753)" font-family="'DroidSans'" font-size="4.25">AVR</text>
	<rect x="18.35" y="0.576" fill="#FFFFFF" width="25.2" height="50.4"/>
	<text id="label_1_" transform="matrix(1 0 0 1 20.0596 18.9753)" font-family="'DroidSans'" font-size="4.25">AVR</text>
	<text id="label_2_" transform="matrix(1 0 0 1 18.9121 23.5085)" font-family="'DroidSans'" font-size="4.25">MINI</text>
	<rect x="18.35" y="0.576" fill="#FFFFFF" width="25.2" height="50.4"/>
	<g>
		<text id="label_3_" transform="matrix(1 0 0 1 31.8672 22.5535)" font-family="'DroidSans'" font-size="4.25">AVR</text>
		<text id="label_4_" transform="matrix(1 0 0 1 30.7168 27.0867)" font-family="'DroidSans'" font-size="4.25">MINI</text>
		<text id="label_5_" transform="matrix(1 0 0 1 30.0332 31.6208)" font-family="'DroidSans'" font-size="4.25">PROG</text>
	</g>
	<line fill="none" stroke="#000000" stroke-width="0.9" stroke-linecap="round" x1="11.15" y1="0.576" x2="43.55" y2="0.576"/>
	<line fill="none" stroke="#000000" stroke-width="0.9" stroke-linecap="round" x1="18.35" y1="22.177" x2="14.75" y2="22.177"/>
	<line fill="none" stroke="#000000" stroke-width="0.9" stroke-linecap="round" x1="18.35" y1="14.976" x2="14.75" y2="14.976"/>
	<line fill="none" stroke="#000000" stroke-width="0.9" stroke-linecap="round" x1="18.35" y1="7.776" x2="14.75" y2="7.776"/>
	<line fill="none" stroke="#000000" stroke-width="0.9" stroke-linecap="round" x1="43.55" y1="50.976" x2="43.55" y2="0.576"/>
	<line fill="none" stroke="#000000" stroke-width="0.9" stroke-linecap="round" x1="11.15" y1="0.576" x2="11.15" y2="50.976"/>
	<line fill="none" stroke="#000000" stroke-width="0.9" stroke-linecap="round" x1="43.55" y1="50.976" x2="11.15" y2="50.976"/>
	<line fill="none" stroke="#000000" stroke-width="0.9" stroke-linecap="round" x1="18.35" y1="36.576" x2="14.75" y2="36.576"/>
	<line fill="none" stroke="#000000" stroke-width="0.9" stroke-linecap="round" x1="18.35" y1="29.376" x2="14.75" y2="29.376"/>
	<line fill="none" stroke="#000000" stroke-width="0.9" stroke-linecap="round" x1="18.35" y1="43.776" x2="14.75" y2="43.776"/>
	
		<line id="connector0pin" fill="none" stroke="#787878" stroke-width="0.75" stroke-linecap="round" x1="0.35" y1="7.776" x2="14.75" y2="7.776"/>
	<rect id="connector0terminal" x="0.35" y="7.776" fill="none" width="0" height="0"/>
	<text transform="matrix(1 0 0 1 6.8604 6.7253)" fill="#8C8C8C" font-family="'DroidSans'" font-size="2.5">1</text>
	<text transform="matrix(1 0 0 1 20.0596 8.4744)" fill="#787878" font-family="'DroidSans'" font-size="3.5">VCC</text>
	
		<line id="connector1pin" fill="none" stroke="#787878" stroke-width="0.75" stroke-linecap="round" x1="0.35" y1="14.976" x2="14.75" y2="14.976"/>
	<rect id="connector1terminal" x="0.35" y="14.976" fill="none" width="0" height="0"/>
	<text transform="matrix(1 0 0 1 6.8604 13.9255)" fill="#8C8C8C" font-family="'DroidSans'" font-size="2.5">2</text>
	<text transform="matrix(1 0 0 1 20.0596 15.6765)" fill="#787878" font-family="'DroidSans'" font-size="3.5">GND</text>
	
		<line id="connector2pin" fill="none" stroke="#787878" stroke-width="0.75" stroke-linecap="round" x1="0.35" y1="22.177" x2="14.75" y2="22.177"/>
	<rect id="connector2terminal" x="0.35" y="22.177" fill="none" width="0" height="0"/>
	<text transform="matrix(1 0 0 1 6.8604 21.1257)" fill="#8C8C8C" font-family="'DroidSans'" font-size="2.5">3</text>
	<text transform="matrix(1 0 0 1 20.0596 22.8748)" fill="#787878" font-family="'DroidSans'" font-size="3.5">RST</text>
	
		<line id="connector3pin" fill="none" stroke="#787878" stroke-width="0.75" stroke-linecap="round" x1="0.35" y1="29.376" x2="14.75" y2="29.376"/>
	<rect id="connector3terminal" x="0.35" y="29.376" fill="none" width="0" height="0.001"/>
	<text transform="matrix(1 0 0 1 6.8604 28.3259)" fill="#8C8C8C" font-family="'DroidSans'" font-size="2.5">4</text>
	<text transform="matrix(1 0 0 1 20.0596 30.0759)" fill="#787878" font-family="'DroidSans'" font-size="3.5">MOSI</text>
	
		<line id="connector4pin" fill="none" stroke="#787878" stroke-width="0.75" stroke-linecap="round" x1="0.35" y1="36.576" x2="14.75" y2="36.576"/>
	<rect id="connector4terminal" x="0.35" y="36.576" fill="none" width="0" height="0"/>
	<text transform="matrix(1 0 0 1 6.8604 35.5251)" fill="#8C8C8C" font-family="'DroidSans'" font-size="2.5">5</text>
	<text transform="matrix(1 0 0 1 20.0596 37.2751)" fill="#787878" font-family="'DroidSans'" font-size="3.5">SCK</text>
	
		<line id="connector5pin" fill="none" stroke="#787878" stroke-width="0.75" stroke-linecap="round" x1="0.35" y1="43.776" x2="14.75" y2="43.776"/>
	<rect id="connector5terminal" x="0.35" y="43.776" fill="none" width="0" height="0"/>
	<text transform="matrix(1 0 0 1 6.8604 42.7244)" fill="#8C8C8C" font-family="'DroidSans'" font-size="2.5">6</text>
	<text transform="matrix(1 0 0 1 20.0596 44.4753)" fill="#787878" font-family="'DroidSans'" font-size="3.5">MISO</text>
</g>
</svg>
