<?xml version="1.0" encoding="utf-8"?>
<!-- Generator: Adobe Illustrator 16.0.0, SVG Export Plug-In . SVG Version: 6.00 Build 0)  -->
<!DOCTYPE svg PUBLIC "-//W3C//DTD SVG 1.1//EN" "http://www.w3.org/Graphics/SVG/1.1/DTD/svg11.dtd">
<svg version="1.1" id="Layer_1" xmlns:svg="http://www.w3.org/2000/svg"
	 xmlns="http://www.w3.org/2000/svg" xmlns:xlink="http://www.w3.org/1999/xlink" x="0px" y="0px" width="58.3px" height="43.92px"
	 viewBox="0 0 58.3 43.92" enable-background="new 0 0 58.3 43.92" xml:space="preserve">
<g id="schematic">
	<rect x="14.75" y="0.36" fill="#FFFFFF" width="28.8" height="43.2"/>
	<rect x="14.75" y="0.36" fill="#FFFFFF" width="28.8" height="43.2"/>
	<text id="label_1_" transform="matrix(1 0 0 1 24.6816 14.0947)" font-family="'DroidSans'" font-size="4.25">GND</text>
	<line fill="none" stroke="#000000" stroke-width="0.9" stroke-linecap="round" x1="43.55" y1="0.36" x2="43.55" y2="43.56"/>
	<line fill="none" stroke="#000000" stroke-width="0.9" stroke-linecap="round" x1="43.55" y1="43.56" x2="14.75" y2="43.56"/>
	<line fill="none" stroke="#000000" stroke-width="0.9" stroke-linecap="round" x1="14.75" y1="43.56" x2="14.75" y2="0.36"/>
	<line fill="none" stroke="#000000" stroke-width="0.9" stroke-linecap="round" x1="14.75" y1="0.36" x2="43.55" y2="0.36"/>
	
		<line id="connector2pin" fill="none" stroke="#787878" stroke-width="0.75" stroke-linecap="round" x1="0.35" y1="21.96" x2="14.75" y2="21.96"/>
	<polygon id="connector2terminal" fill="none" points="0.35,21.96 0.35,21.96 0.35,21.96 	"/>
	<text transform="matrix(1 0 0 1 6.8613 20.9111)" fill="#8C8C8C" font-family="'DroidSans'" font-size="2.5">3</text>
	<text transform="matrix(1 0 0 1 16.8496 22.6611)" fill="#787878" font-family="'DroidSans'" font-size="3.5">IN</text>
	
		<line id="connector1pin" fill="none" stroke="#787878" stroke-width="0.75" stroke-linecap="round" x1="57.951" y1="7.56" x2="43.55" y2="7.56"/>
	<polygon id="connector1terminal" fill="none" points="57.951,7.56 57.951,7.56 57.951,7.56 	"/>
	<text transform="matrix(1 0 0 1 50.062 6.5107)" fill="#8C8C8C" font-family="'DroidSans'" font-size="2.5">2</text>
	<text transform="matrix(1 0 0 1 31.9956 8.2607)" fill="#787878" font-family="'DroidSans'" font-size="3.5">AGND</text>
	
		<line id="connector0pin" fill="none" stroke="#787878" stroke-width="0.75" stroke-linecap="round" x1="57.951" y1="36.36" x2="43.55" y2="36.36"/>
	<polygon id="connector0terminal" fill="none" points="57.951,36.36 57.951,36.36 57.951,36.36 	"/>
	<text transform="matrix(1 0 0 1 50.062 35.3096)" fill="#8C8C8C" font-family="'DroidSans'" font-size="2.5">1</text>
	<text transform="matrix(1 0 0 1 31.6948 37.0596)" fill="#787878" font-family="'DroidSans'" font-size="3.5">DGND</text>
	<text id="label_2_" transform="matrix(1 0 0 1 19.7305 18.6279)" font-family="'DroidSans'" font-size="4.25">CONNECT</text>
</g>
</svg>
