<?xml version="1.0" encoding="utf-8"?>
<!-- Generator: Adobe Illustrator 16.0.0, SVG Export Plug-In . SVG Version: 6.00 Build 0)  -->
<!DOCTYPE svg PUBLIC "-//W3C//DTD SVG 1.1//EN" "http://www.w3.org/Graphics/SVG/1.1/DTD/svg11.dtd">
<svg version="1.1" id="Layer_1" xmlns:svg="http://www.w3.org/2000/svg"
	 xmlns="http://www.w3.org/2000/svg" xmlns:xlink="http://www.w3.org/1999/xlink" x="0px" y="0px" width="47.699px"
	 height="54.662px" viewBox="0 0 47.699 54.662" enable-background="new 0 0 47.699 54.662" xml:space="preserve">
<g id="schematic">
	<line fill="none" stroke="#000000" stroke-width="0.9" stroke-linecap="round" x1="0.36" y1="18.312" x2="0.36" y2="47.112"/>
	<line fill="none" stroke="#000000" stroke-width="0.9" stroke-linecap="round" x1="0.36" y1="47.112" x2="11.16" y2="47.112"/>
	<line fill="none" stroke="#000000" stroke-width="0.9" stroke-linecap="round" x1="11.16" y1="47.112" x2="32.76" y2="47.112"/>
	<line fill="none" stroke="#000000" stroke-width="0.9" stroke-linecap="round" x1="32.76" y1="47.112" x2="43.56" y2="47.112"/>
	<line fill="none" stroke="#000000" stroke-width="0.9" stroke-linecap="round" x1="43.56" y1="47.112" x2="43.56" y2="18.312"/>
	<line fill="none" stroke="#000000" stroke-width="0.9" stroke-linecap="round" x1="43.56" y1="18.312" x2="32.76" y2="18.312"/>
	<line fill="none" stroke="#000000" stroke-width="0.9" stroke-linecap="round" x1="32.76" y1="18.312" x2="11.16" y2="18.312"/>
	<line fill="none" stroke="#000000" stroke-width="0.9" stroke-linecap="round" x1="11.16" y1="18.312" x2="0.36" y2="18.312"/>
	<line fill="none" stroke="#000000" stroke-width="0.9" stroke-linecap="round" x1="11.16" y1="18.312" x2="11.16" y2="34.511"/>
	<line fill="none" stroke="#000000" stroke-width="0.9" stroke-linecap="round" x1="11.16" y1="34.511" x2="11.16" y2="47.112"/>
	<line fill="none" stroke="#000000" stroke-width="0.9" stroke-linecap="round" x1="25.56" y1="23.712" x2="25.56" y2="30.912"/>
	<line fill="none" stroke="#000000" stroke-width="0.9" stroke-linecap="round" x1="25.56" y1="30.912" x2="25.56" y2="34.511"/>
	<line fill="none" stroke="#000000" stroke-width="0.9" stroke-linecap="round" x1="25.56" y1="34.511" x2="25.56" y2="41.712"/>
	<line fill="none" stroke="#000000" stroke-width="0.9" stroke-linecap="round" x1="32.76" y1="18.312" x2="32.76" y2="23.712"/>
	<line fill="none" stroke="#000000" stroke-width="0.9" stroke-linecap="round" x1="32.76" y1="23.712" x2="25.56" y2="30.912"/>
	<line fill="none" stroke="#000000" stroke-width="0.9" stroke-linecap="round" x1="25.56" y1="34.511" x2="32.76" y2="41.712"/>
	<line fill="none" stroke="#000000" stroke-width="0.9" stroke-linecap="round" x1="32.76" y1="41.712" x2="32.76" y2="47.112"/>
	<line fill="none" stroke="#000000" stroke-width="0.9" stroke-linecap="round" x1="7.56" y1="34.511" x2="14.76" y2="34.511"/>
	<text transform="matrix(1 0 0 1 3.9607 25.5115)" fill="#505050" font-family="'DroidSans'" font-size="4.252">A</text>
	<text transform="matrix(1 0 0 1 3.9607 43.5125)" fill="#505050" font-family="'DroidSans'" font-size="4.252">K</text>
	<text transform="matrix(1 0 0 1 36.3582 25.5115)" fill="#505050" font-family="'DroidSans'" font-size="4.252">C</text>
	<text transform="matrix(1 0 0 1 36.3582 43.5125)" fill="#505050" font-family="'DroidSans'" font-size="4.252">E</text>
	
		<line id="connector1pin" fill="none" stroke="#787878" stroke-width="0.75" stroke-linecap="round" x1="32.76" y1="54.312" x2="32.76" y2="47.112"/>
	<rect id="connector1terminal" x="32.76" y="54.312" fill="none" width="0.001" height="0"/>
	<g transform="translate(11.1866,17.89)">
		<g transform="rotate(270)">
			<text transform="matrix(1 0 0 1 -33.5111 20.5231)" fill="#8C8C8C" font-family="'DroidSans'" font-size="2.5">2</text>
		</g>
	</g>
	
		<line id="connector0pin" fill="none" stroke="#787878" stroke-width="0.75" stroke-linecap="round" x1="32.76" y1="11.112" x2="32.76" y2="18.312"/>
	<rect id="connector0terminal" x="32.76" y="11.112" fill="none" width="0.001" height="0"/>
	<g transform="translate(11.1866,5.19)">
		<g transform="rotate(270)">
			<text transform="matrix(1 0 0 1 -10.2092 20.5231)" fill="#8C8C8C" font-family="'DroidSans'" font-size="2.5">1</text>
		</g>
	</g>
	
		<line id="connector3pin" fill="none" stroke="#787878" stroke-width="0.75" stroke-linecap="round" x1="11.16" y1="54.312" x2="11.16" y2="47.112"/>
	<rect id="connector3terminal" x="11.16" y="54.312" fill="none" width="0" height="0"/>
	<g transform="translate(3.56658,17.89)">
		<g transform="rotate(270)">
			<text transform="matrix(1 0 0 1 -33.5111 6.5416)" fill="#8C8C8C" font-family="'DroidSans'" font-size="2.5">4</text>
		</g>
	</g>
	
		<line id="connector2pin" fill="none" stroke="#787878" stroke-width="0.75" stroke-linecap="round" x1="11.16" y1="11.112" x2="11.16" y2="18.312"/>
	<rect id="connector2terminal" x="11.16" y="11.112" fill="none" width="0" height="0"/>
	<g transform="translate(3.56658,5.19)">
		<g transform="rotate(270)">
			<text transform="matrix(1 0 0 1 -10.2092 6.5416)" fill="#8C8C8C" font-family="'DroidSans'" font-size="2.5">3</text>
		</g>
	</g>
	<path d="M11.16,34.511l-3.6-5.399h7.199L11.16,34.511z"/>
	<path d="M32.76,41.712l-1.8-3.6l-1.8,1.8L32.76,41.712z"/>
</g>
</svg>
