<?xml version="1.0" encoding="utf-8"?>
<!-- Generator: Adobe Illustrator 16.0.0, SVG Export Plug-In . SVG Version: 6.00 Build 0)  -->
<!DOCTYPE svg PUBLIC "-//W3C//DTD SVG 1.1//EN" "http://www.w3.org/Graphics/SVG/1.1/DTD/svg11.dtd">
<svg version="1.1" id="Layer_1" xmlns:svg="http://www.w3.org/2000/svg"
	 xmlns="http://www.w3.org/2000/svg" xmlns:xlink="http://www.w3.org/1999/xlink" x="0px" y="0px" width="87.1px"
	 height="303.119px" viewBox="0 0 87.1 303.119" enable-background="new 0 0 87.1 303.119" xml:space="preserve">
<g id="schematic">
	<polygon fill="#FFFFFF" stroke="#000000" stroke-width="0.9" stroke-linecap="round" points="36.35,0.36 50.75,0.36 72.351,0.36 
		72.351,302.76 14.75,302.76 14.75,0.36 	"/>
	<path fill="none" stroke="#000000" stroke-width="0.75" d="M50.75,0.36c0,3.977-3.224,7.2-7.2,7.2c-3.977,0-7.2-3.224-7.2-7.2"/>
	
		<line id="connector0pin" fill="none" stroke="#787878" stroke-width="0.75" stroke-linecap="round" x1="0.35" y1="14.76" x2="14.75" y2="14.76"/>
	<rect id="connector0terminal" x="0.35" y="14.76" fill="none" width="0" height="0"/>
	<text transform="matrix(1 0 0 1 6.8613 13.7092)" fill="#8C8C8C" font-family="'DroidSans'" font-size="2.5">1</text>
	
		<line id="connector1pin" fill="none" stroke="#787878" stroke-width="0.75" stroke-linecap="round" x1="0.35" y1="29.16" x2="14.75" y2="29.16"/>
	<rect id="connector1terminal" x="0.35" y="29.16" fill="none" width="0" height="0"/>
	<text transform="matrix(1 0 0 1 6.8613 28.1096)" fill="#8C8C8C" font-family="'DroidSans'" font-size="2.5">2</text>
	
		<line id="connector2pin" fill="none" stroke="#787878" stroke-width="0.75" stroke-linecap="round" x1="0.35" y1="43.56" x2="14.75" y2="43.56"/>
	<rect id="connector2terminal" x="0.35" y="43.56" fill="none" width="0" height="0"/>
	<text transform="matrix(1 0 0 1 6.8613 42.51)" fill="#8C8C8C" font-family="'DroidSans'" font-size="2.5">3</text>
	
		<line id="connector3pin" fill="none" stroke="#787878" stroke-width="0.75" stroke-linecap="round" x1="0.35" y1="57.96" x2="14.75" y2="57.96"/>
	<rect id="connector3terminal" x="0.35" y="57.96" fill="none" width="0" height="0"/>
	<text transform="matrix(1 0 0 1 6.8613 56.9104)" fill="#8C8C8C" font-family="'DroidSans'" font-size="2.5">4</text>
	
		<line id="connector4pin" fill="none" stroke="#787878" stroke-width="0.75" stroke-linecap="round" x1="0.35" y1="72.36" x2="14.75" y2="72.36"/>
	<rect id="connector4terminal" x="0.35" y="72.36" fill="none" width="0" height="0.001"/>
	<text transform="matrix(1 0 0 1 6.8613 71.3108)" fill="#8C8C8C" font-family="'DroidSans'" font-size="2.5">5</text>
	
		<line id="connector5pin" fill="none" stroke="#787878" stroke-width="0.75" stroke-linecap="round" x1="0.35" y1="86.76" x2="14.75" y2="86.76"/>
	<rect id="connector5terminal" x="0.35" y="86.76" fill="none" width="0" height="0"/>
	<text transform="matrix(1 0 0 1 6.8613 85.7092)" fill="#8C8C8C" font-family="'DroidSans'" font-size="2.5">6</text>
	
		<line id="connector6pin" fill="none" stroke="#787878" stroke-width="0.75" stroke-linecap="round" x1="0.35" y1="101.16" x2="14.75" y2="101.16"/>
	<rect id="connector6terminal" x="0.35" y="101.16" fill="none" width="0" height="0"/>
	<text transform="matrix(1 0 0 1 6.8613 100.1096)" fill="#8C8C8C" font-family="'DroidSans'" font-size="2.5">7</text>
	
		<line id="connector7pin" fill="none" stroke="#787878" stroke-width="0.75" stroke-linecap="round" x1="0.35" y1="115.56" x2="14.75" y2="115.56"/>
	<rect id="connector7terminal" x="0.35" y="115.56" fill="none" width="0" height="0"/>
	<text transform="matrix(1 0 0 1 6.8613 114.51)" fill="#8C8C8C" font-family="'DroidSans'" font-size="2.5">8</text>
	
		<line id="connector8pin" fill="none" stroke="#787878" stroke-width="0.75" stroke-linecap="round" x1="0.35" y1="129.96" x2="14.75" y2="129.96"/>
	<rect id="connector8terminal" x="0.35" y="129.96" fill="none" width="0" height="0"/>
	<text transform="matrix(1 0 0 1 6.8613 128.9104)" fill="#8C8C8C" font-family="'DroidSans'" font-size="2.5">9</text>
	
		<line id="connector9pin" fill="none" stroke="#787878" stroke-width="0.75" stroke-linecap="round" x1="0.35" y1="144.36" x2="14.75" y2="144.36"/>
	<rect id="connector9terminal" x="0.35" y="144.36" fill="none" width="0" height="0.001"/>
	<text transform="matrix(1 0 0 1 6.1738 143.3108)" fill="#8C8C8C" font-family="'DroidSans'" font-size="2.5">10</text>
	
		<line id="connector10pin" fill="none" stroke="#787878" stroke-width="0.75" stroke-linecap="round" x1="0.35" y1="158.76" x2="14.75" y2="158.76"/>
	<rect id="connector10terminal" x="0.35" y="158.76" fill="none" width="0" height="0"/>
	<text transform="matrix(1 0 0 1 6.1738 157.7092)" fill="#8C8C8C" font-family="'DroidSans'" font-size="2.5">11</text>
	
		<line id="connector11pin" fill="none" stroke="#787878" stroke-width="0.75" stroke-linecap="round" x1="0.35" y1="173.16" x2="14.75" y2="173.16"/>
	<rect id="connector11terminal" x="0.35" y="173.16" fill="none" width="0" height="0"/>
	<text transform="matrix(1 0 0 1 6.1738 172.1096)" fill="#8C8C8C" font-family="'DroidSans'" font-size="2.5">12</text>
	
		<line id="connector12pin" fill="none" stroke="#787878" stroke-width="0.75" stroke-linecap="round" x1="0.35" y1="187.56" x2="14.75" y2="187.56"/>
	<rect id="connector12terminal" x="0.35" y="187.56" fill="none" width="0" height="0"/>
	<text transform="matrix(1 0 0 1 6.1738 186.51)" fill="#8C8C8C" font-family="'DroidSans'" font-size="2.5">13</text>
	
		<line id="connector13pin" fill="none" stroke="#787878" stroke-width="0.75" stroke-linecap="round" x1="0.35" y1="201.96" x2="14.75" y2="201.96"/>
	<rect id="connector13terminal" x="0.35" y="201.96" fill="none" width="0" height="0"/>
	<text transform="matrix(1 0 0 1 6.1738 200.9104)" fill="#8C8C8C" font-family="'DroidSans'" font-size="2.5">14</text>
	
		<line id="connector14pin" fill="none" stroke="#787878" stroke-width="0.75" stroke-linecap="round" x1="0.35" y1="216.36" x2="14.75" y2="216.36"/>
	<rect id="connector14terminal" x="0.35" y="216.36" fill="none" width="0" height="0.001"/>
	<text transform="matrix(1 0 0 1 6.1738 215.3088)" fill="#8C8C8C" font-family="'DroidSans'" font-size="2.5">15</text>
	
		<line id="connector15pin" fill="none" stroke="#787878" stroke-width="0.75" stroke-linecap="round" x1="0.35" y1="230.76" x2="14.75" y2="230.76"/>
	<rect id="connector15terminal" x="0.35" y="230.76" fill="none" width="0" height="0"/>
	<text transform="matrix(1 0 0 1 6.1738 229.7092)" fill="#8C8C8C" font-family="'DroidSans'" font-size="2.5">16</text>
	
		<line id="connector16pin" fill="none" stroke="#787878" stroke-width="0.75" stroke-linecap="round" x1="0.35" y1="245.16" x2="14.75" y2="245.16"/>
	<rect id="connector16terminal" x="0.35" y="245.16" fill="none" width="0" height="0"/>
	<text transform="matrix(1 0 0 1 6.1738 244.1096)" fill="#8C8C8C" font-family="'DroidSans'" font-size="2.5">17</text>
	
		<line id="connector17pin" fill="none" stroke="#787878" stroke-width="0.75" stroke-linecap="round" x1="0.35" y1="259.56" x2="14.75" y2="259.56"/>
	<rect id="connector17terminal" x="0.35" y="259.56" fill="none" width="0" height="0"/>
	<text transform="matrix(1 0 0 1 6.1738 258.51)" fill="#8C8C8C" font-family="'DroidSans'" font-size="2.5">18</text>
	
		<line id="connector18pin" fill="none" stroke="#787878" stroke-width="0.75" stroke-linecap="round" x1="0.35" y1="273.96" x2="14.75" y2="273.96"/>
	<rect id="connector18terminal" x="0.35" y="273.96" fill="none" width="0" height="0"/>
	<text transform="matrix(1 0 0 1 6.1738 272.9104)" fill="#8C8C8C" font-family="'DroidSans'" font-size="2.5">19</text>
	
		<line id="connector19pin" fill="none" stroke="#787878" stroke-width="0.75" stroke-linecap="round" x1="0.35" y1="288.36" x2="14.75" y2="288.36"/>
	<rect id="connector19terminal" x="0.35" y="288.36" fill="none" width="0" height="0.001"/>
	<text transform="matrix(1 0 0 1 6.1738 287.3108)" fill="#8C8C8C" font-family="'DroidSans'" font-size="2.5">20</text>
	
		<line id="connector20pin" fill="none" stroke="#787878" stroke-width="0.75" stroke-linecap="round" x1="86.75" y1="288.36" x2="72.351" y2="288.36"/>
	<rect id="connector20terminal" x="86.75" y="288.36" fill="none" width="0.001" height="0.001"/>
	<text transform="matrix(1 0 0 1 78.1738 287.3108)" fill="#8C8C8C" font-family="'DroidSans'" font-size="2.5">21</text>
	
		<line id="connector21pin" fill="none" stroke="#787878" stroke-width="0.75" stroke-linecap="round" x1="86.75" y1="273.96" x2="72.351" y2="273.96"/>
	<rect id="connector21terminal" x="86.75" y="273.96" fill="none" width="0.001" height="0"/>
	<text transform="matrix(1 0 0 1 78.1738 272.9104)" fill="#8C8C8C" font-family="'DroidSans'" font-size="2.5">22</text>
	
		<line id="connector22pin" fill="none" stroke="#787878" stroke-width="0.75" stroke-linecap="round" x1="86.75" y1="259.56" x2="72.351" y2="259.56"/>
	<rect id="connector22terminal" x="86.75" y="259.56" fill="none" width="0.001" height="0"/>
	<text transform="matrix(1 0 0 1 78.1738 258.51)" fill="#8C8C8C" font-family="'DroidSans'" font-size="2.5">23</text>
	
		<line id="connector23pin" fill="none" stroke="#787878" stroke-width="0.75" stroke-linecap="round" x1="86.75" y1="245.16" x2="72.351" y2="245.16"/>
	<rect id="connector23terminal" x="86.75" y="245.16" fill="none" width="0.001" height="0"/>
	<text transform="matrix(1 0 0 1 78.1738 244.1096)" fill="#8C8C8C" font-family="'DroidSans'" font-size="2.5">24</text>
	
		<line id="connector24pin" fill="none" stroke="#787878" stroke-width="0.75" stroke-linecap="round" x1="86.75" y1="230.76" x2="72.351" y2="230.76"/>
	<rect id="connector24terminal" x="86.75" y="230.76" fill="none" width="0.001" height="0"/>
	<text transform="matrix(1 0 0 1 78.1738 229.7092)" fill="#8C8C8C" font-family="'DroidSans'" font-size="2.5">25</text>
	
		<line id="connector25pin" fill="none" stroke="#787878" stroke-width="0.75" stroke-linecap="round" x1="86.75" y1="216.36" x2="72.351" y2="216.36"/>
	<rect id="connector25terminal" x="86.75" y="216.36" fill="none" width="0.001" height="0.001"/>
	<text transform="matrix(1 0 0 1 78.1738 215.3088)" fill="#8C8C8C" font-family="'DroidSans'" font-size="2.5">26</text>
	
		<line id="connector26pin" fill="none" stroke="#787878" stroke-width="0.75" stroke-linecap="round" x1="86.75" y1="201.96" x2="72.351" y2="201.96"/>
	<rect id="connector26terminal" x="86.75" y="201.96" fill="none" width="0.001" height="0"/>
	<text transform="matrix(1 0 0 1 78.1738 200.9104)" fill="#8C8C8C" font-family="'DroidSans'" font-size="2.5">27</text>
	
		<line id="connector27pin" fill="none" stroke="#787878" stroke-width="0.75" stroke-linecap="round" x1="86.75" y1="187.56" x2="72.351" y2="187.56"/>
	<rect id="connector27terminal" x="86.75" y="187.56" fill="none" width="0.001" height="0"/>
	<text transform="matrix(1 0 0 1 78.1738 186.51)" fill="#8C8C8C" font-family="'DroidSans'" font-size="2.5">28</text>
	
		<line id="connector28pin" fill="none" stroke="#787878" stroke-width="0.75" stroke-linecap="round" x1="86.75" y1="173.16" x2="72.351" y2="173.16"/>
	<rect id="connector28terminal" x="86.75" y="173.16" fill="none" width="0.001" height="0"/>
	<text transform="matrix(1 0 0 1 78.1738 172.1096)" fill="#8C8C8C" font-family="'DroidSans'" font-size="2.5">29</text>
	
		<line id="connector29pin" fill="none" stroke="#787878" stroke-width="0.75" stroke-linecap="round" x1="86.75" y1="158.76" x2="72.351" y2="158.76"/>
	<rect id="connector29terminal" x="86.75" y="158.76" fill="none" width="0.001" height="0"/>
	<text transform="matrix(1 0 0 1 78.1738 157.7092)" fill="#8C8C8C" font-family="'DroidSans'" font-size="2.5">30</text>
	
		<line id="connector30pin" fill="none" stroke="#787878" stroke-width="0.75" stroke-linecap="round" x1="86.75" y1="144.36" x2="72.351" y2="144.36"/>
	<rect id="connector30terminal" x="86.75" y="144.36" fill="none" width="0.001" height="0.001"/>
	<text transform="matrix(1 0 0 1 78.1738 143.3108)" fill="#8C8C8C" font-family="'DroidSans'" font-size="2.5">31</text>
	
		<line id="connector31pin" fill="none" stroke="#787878" stroke-width="0.75" stroke-linecap="round" x1="86.75" y1="129.96" x2="72.351" y2="129.96"/>
	<rect id="connector31terminal" x="86.75" y="129.96" fill="none" width="0.001" height="0"/>
	<text transform="matrix(1 0 0 1 78.1738 128.9104)" fill="#8C8C8C" font-family="'DroidSans'" font-size="2.5">32</text>
	
		<line id="connector32pin" fill="none" stroke="#787878" stroke-width="0.75" stroke-linecap="round" x1="86.75" y1="115.56" x2="72.351" y2="115.56"/>
	<rect id="connector32terminal" x="86.75" y="115.56" fill="none" width="0.001" height="0"/>
	<text transform="matrix(1 0 0 1 78.1738 114.51)" fill="#8C8C8C" font-family="'DroidSans'" font-size="2.5">33</text>
	
		<line id="connector33pin" fill="none" stroke="#787878" stroke-width="0.75" stroke-linecap="round" x1="86.75" y1="101.16" x2="72.351" y2="101.16"/>
	<rect id="connector33terminal" x="86.75" y="101.16" fill="none" width="0.001" height="0"/>
	<text transform="matrix(1 0 0 1 78.1738 100.1096)" fill="#8C8C8C" font-family="'DroidSans'" font-size="2.5">34</text>
	
		<line id="connector34pin" fill="none" stroke="#787878" stroke-width="0.75" stroke-linecap="round" x1="86.75" y1="86.76" x2="72.351" y2="86.76"/>
	<rect id="connector34terminal" x="86.75" y="86.76" fill="none" width="0.001" height="0"/>
	<text transform="matrix(1 0 0 1 78.1738 85.7092)" fill="#8C8C8C" font-family="'DroidSans'" font-size="2.5">35</text>
	
		<line id="connector35pin" fill="none" stroke="#787878" stroke-width="0.75" stroke-linecap="round" x1="86.75" y1="72.36" x2="72.351" y2="72.36"/>
	<rect id="connector35terminal" x="86.75" y="72.36" fill="none" width="0.001" height="0.001"/>
	<text transform="matrix(1 0 0 1 78.1738 71.3108)" fill="#8C8C8C" font-family="'DroidSans'" font-size="2.5">36</text>
	
		<line id="connector36pin" fill="none" stroke="#787878" stroke-width="0.75" stroke-linecap="round" x1="86.75" y1="57.96" x2="72.351" y2="57.96"/>
	<rect id="connector36terminal" x="86.75" y="57.96" fill="none" width="0.001" height="0"/>
	<text transform="matrix(1 0 0 1 78.1738 56.9104)" fill="#8C8C8C" font-family="'DroidSans'" font-size="2.5">37</text>
	
		<line id="connector37pin" fill="none" stroke="#787878" stroke-width="0.75" stroke-linecap="round" x1="86.75" y1="43.56" x2="72.351" y2="43.56"/>
	<rect id="connector37terminal" x="86.75" y="43.56" fill="none" width="0.001" height="0"/>
	<text transform="matrix(1 0 0 1 78.1738 42.51)" fill="#8C8C8C" font-family="'DroidSans'" font-size="2.5">38</text>
	
		<line id="connector38pin" fill="none" stroke="#787878" stroke-width="0.75" stroke-linecap="round" x1="86.75" y1="29.16" x2="72.351" y2="29.16"/>
	<rect id="connector38terminal" x="86.75" y="29.16" fill="none" width="0.001" height="0"/>
	<text transform="matrix(1 0 0 1 78.1738 28.1096)" fill="#8C8C8C" font-family="'DroidSans'" font-size="2.5">39</text>
	
		<line id="connector39pin" fill="none" stroke="#787878" stroke-width="0.75" stroke-linecap="round" x1="86.75" y1="14.76" x2="72.351" y2="14.76"/>
	<rect id="connector39terminal" x="86.75" y="14.76" fill="none" width="0.001" height="0"/>
	<text transform="matrix(1 0 0 1 78.1738 13.7092)" fill="#8C8C8C" font-family="'DroidSans'" font-size="2.5">40</text>
</g>
</svg>
