<?xml version="1.0" encoding="utf-8"?>
<!-- Generator: Adobe Illustrator 16.0.0, SVG Export Plug-In . SVG Version: 6.00 Build 0)  -->
<!DOCTYPE svg PUBLIC "-//W3C//DTD SVG 1.1//EN" "http://www.w3.org/Graphics/SVG/1.1/DTD/svg11.dtd">
<svg version="1.1" id="Layer_1" xmlns:svg="http://www.w3.org/2000/svg"
	 xmlns="http://www.w3.org/2000/svg" xmlns:xlink="http://www.w3.org/1999/xlink" x="0px" y="0px" width="87.1px" height="151.92px"
	 viewBox="0 0 87.1 151.92" enable-background="new 0 0 87.1 151.92" xml:space="preserve">
<g id="schematic">
	<rect x="7.55" y="0.36" fill="#FFFFFF" width="72" height="151.2"/>
	<rect x="7.55" y="0.36" fill="#FFFFFF" width="72" height="151.2"/>
	<rect x="7.55" y="0.36" fill="#FFFFFF" width="72" height="151.2"/>
	<rect x="7.55" y="0.36" fill="#FFFFFF" width="72" height="151.2"/>
	<line fill="none" stroke="#000000" stroke-width="0.9" stroke-linecap="round" x1="7.55" y1="151.56" x2="7.55" y2="0.36"/>
	<line fill="none" stroke="#000000" stroke-width="0.9" stroke-linecap="round" x1="7.55" y1="0.36" x2="79.55" y2="0.36"/>
	<line fill="none" stroke="#000000" stroke-width="0.9" stroke-linecap="round" x1="79.55" y1="0.36" x2="79.55" y2="151.56"/>
	<line fill="none" stroke="#000000" stroke-width="0.9" stroke-linecap="round" x1="79.55" y1="151.56" x2="7.55" y2="151.56"/>
	
		<line id="connector6pin" fill="none" stroke="#787878" stroke-width="0.75" stroke-linecap="round" x1="0.35" y1="144.36" x2="7.55" y2="144.36"/>
	<rect id="connector6terminal" x="0.35" y="144.36" fill="none" width="0" height="0"/>
	<text transform="matrix(1 0 0 1 3.2617 143.3096)" fill="#8C8C8C" font-family="'DroidSans'" font-size="2.5">7</text>
	<text transform="matrix(1 0 0 1 9.6504 145.0596)" fill="#787878" font-family="'DroidSans'" font-size="3.5">AGND</text>
	
		<line id="connector0pin" fill="none" stroke="#787878" stroke-width="0.75" stroke-linecap="round" x1="0.35" y1="86.76" x2="7.55" y2="86.76"/>
	<rect id="connector0terminal" x="0.35" y="86.76" fill="none" width="0" height="0.001"/>
	<text transform="matrix(1 0 0 1 3.2617 85.71)" fill="#8C8C8C" font-family="'DroidSans'" font-size="2.5">1</text>
	<text transform="matrix(1 0 0 1 9.6504 87.46)" fill="#787878" font-family="'DroidSans'" font-size="3.5">AIP1A</text>
	
		<line id="connector1pin" fill="none" stroke="#787878" stroke-width="0.75" stroke-linecap="round" x1="0.35" y1="93.96" x2="7.55" y2="93.96"/>
	<rect id="connector1terminal" x="0.35" y="93.96" fill="none" width="0" height="0"/>
	<text transform="matrix(1 0 0 1 3.2617 92.9111)" fill="#8C8C8C" font-family="'DroidSans'" font-size="2.5">2</text>
	<text transform="matrix(1 0 0 1 9.6504 94.6611)" fill="#787878" font-family="'DroidSans'" font-size="3.5">AIP1B</text>
	
		<line id="connector25pin" fill="none" stroke="#787878" stroke-width="0.75" stroke-linecap="round" x1="86.75" y1="129.96" x2="79.55" y2="129.96"/>
	<rect id="connector25terminal" x="86.75" y="129.96" fill="none" width="0.001" height="0"/>
	<text transform="matrix(1 0 0 1 81.7734 128.9111)" fill="#8C8C8C" font-family="'DroidSans'" font-size="2.5">26</text>
	<text transform="matrix(1 0 0 1 69.8594 130.6611)" fill="#787878" font-family="'DroidSans'" font-size="3.5">AVID</text>
	
		<line id="connector30pin" fill="none" stroke="#787878" stroke-width="0.75" stroke-linecap="round" x1="0.35" y1="137.16" x2="7.55" y2="137.16"/>
	<rect id="connector30terminal" x="0.35" y="137.16" fill="none" width="0" height="0"/>
	<text transform="matrix(1 0 0 1 2.5723 136.1104)" fill="#8C8C8C" font-family="'DroidSans'" font-size="2.5">31</text>
	<text transform="matrix(1 0 0 1 9.6504 137.8604)" fill="#787878" font-family="'DroidSans'" font-size="3.5">CH_AGND</text>
	
		<line id="connector31pin" fill="none" stroke="#787878" stroke-width="0.75" stroke-linecap="round" x1="0.35" y1="7.56" x2="7.55" y2="7.56"/>
	<rect id="connector31terminal" x="0.35" y="7.56" fill="none" width="0" height="0"/>
	<text transform="matrix(1 0 0 1 2.5723 6.5107)" fill="#8C8C8C" font-family="'DroidSans'" font-size="2.5">32</text>
	<text transform="matrix(1 0 0 1 9.6504 8.2607)" fill="#787878" font-family="'DroidSans'" font-size="3.5">CH_AVDD</text>
	
		<line id="connector18pin" fill="none" stroke="#787878" stroke-width="0.75" stroke-linecap="round" x1="0.35" y1="122.76" x2="7.55" y2="122.76"/>
	<rect id="connector18terminal" x="0.35" y="122.76" fill="none" width="0" height="0.001"/>
	<text transform="matrix(1 0 0 1 2.5723 121.71)" fill="#8C8C8C" font-family="'DroidSans'" font-size="2.5">19</text>
	<text transform="matrix(1 0 0 1 9.6504 123.46)" fill="#787878" font-family="'DroidSans'" font-size="3.5">DGND</text>
	
		<line id="connector19pin" fill="none" stroke="#787878" stroke-width="0.75" stroke-linecap="round" x1="0.35" y1="21.96" x2="7.55" y2="21.96"/>
	<rect id="connector19terminal" x="0.35" y="21.96" fill="none" width="0" height="0"/>
	<text transform="matrix(1 0 0 1 2.5723 20.9111)" fill="#8C8C8C" font-family="'DroidSans'" font-size="2.5">20</text>
	<text transform="matrix(1 0 0 1 9.6504 22.6611)" fill="#787878" font-family="'DroidSans'" font-size="3.5">DVDD</text>
	
		<line id="connector22pin" fill="none" stroke="#787878" stroke-width="0.75" stroke-linecap="round" x1="86.75" y1="137.16" x2="79.55" y2="137.16"/>
	<rect id="connector22terminal" x="86.75" y="137.16" fill="none" width="0.001" height="0"/>
	<text transform="matrix(1 0 0 1 81.7734 136.1104)" fill="#8C8C8C" font-family="'DroidSans'" font-size="2.5">23</text>
	<text transform="matrix(1 0 0 1 62.1074 137.8604)" fill="#787878" font-family="'DroidSans'" font-size="3.5">FID/GLCO</text>
	
		<line id="connector24pin" fill="none" stroke="#787878" stroke-width="0.75" stroke-linecap="round" x1="86.75" y1="108.36" x2="79.55" y2="108.36"/>
	<rect id="connector24terminal" x="86.75" y="108.36" fill="none" width="0.001" height="0"/>
	<text transform="matrix(1 0 0 1 81.7734 107.3096)" fill="#8C8C8C" font-family="'DroidSans'" font-size="2.5">25</text>
	<text transform="matrix(1 0 0 1 66.6738 109.0596)" fill="#787878" font-family="'DroidSans'" font-size="3.5">HSYNC</text>
	
		<line id="connector26pin" fill="none" stroke="#787878" stroke-width="0.75" stroke-linecap="round" x1="86.75" y1="144.36" x2="79.55" y2="144.36"/>
	<rect id="connector26terminal" x="86.75" y="144.36" fill="none" width="0.001" height="0"/>
	<text transform="matrix(1 0 0 1 81.7734 143.3096)" fill="#8C8C8C" font-family="'DroidSans'" font-size="2.5">27</text>
	<text transform="matrix(1 0 0 1 63.9512 145.0596)" fill="#787878" font-family="'DroidSans'" font-size="3.5">INT_REQ</text>
	
		<line id="connector9pin" fill="none" stroke="#787878" stroke-width="0.75" stroke-linecap="round" x1="0.35" y1="29.16" x2="7.55" y2="29.16"/>
	<rect id="connector9terminal" x="0.35" y="29.16" fill="none" width="0" height="0"/>
	<text transform="matrix(1 0 0 1 2.5723 28.1104)" fill="#8C8C8C" font-family="'DroidSans'" font-size="2.5">10</text>
	<text transform="matrix(1 0 0 1 9.6504 29.8604)" fill="#787878" font-family="'DroidSans'" font-size="3.5">IO_DVDD</text>
	
		<line id="connector8pin" fill="none" stroke="#787878" stroke-width="0.75" stroke-linecap="round" x1="86.75" y1="21.96" x2="79.55" y2="21.96"/>
	<rect id="connector8terminal" x="86.75" y="21.96" fill="none" width="0.001" height="0"/>
	<text transform="matrix(1 0 0 1 82.4609 20.9111)" fill="#8C8C8C" font-family="'DroidSans'" font-size="2.5">9</text>
	<text transform="matrix(1 0 0 1 60.6309 22.6611)" fill="#787878" font-family="'DroidSans'" font-size="3.5">PCLK/SCLK</text>
	
		<line id="connector27pin" fill="none" stroke="#787878" stroke-width="0.75" stroke-linecap="round" x1="0.35" y1="43.56" x2="7.55" y2="43.56"/>
	<rect id="connector27terminal" x="0.35" y="43.56" fill="none" width="0" height="0"/>
	<text transform="matrix(1 0 0 1 2.5723 42.5107)" fill="#8C8C8C" font-family="'DroidSans'" font-size="2.5">28</text>
	<text transform="matrix(1 0 0 1 9.6504 44.2607)" fill="#787878" font-family="'DroidSans'" font-size="3.5">PDN</text>
	
		<line id="connector2pin" fill="none" stroke="#787878" stroke-width="0.75" stroke-linecap="round" x1="0.35" y1="129.96" x2="7.55" y2="129.96"/>
	<rect id="connector2terminal" x="0.35" y="129.96" fill="none" width="0" height="0"/>
	<text transform="matrix(1 0 0 1 3.2617 128.9111)" fill="#8C8C8C" font-family="'DroidSans'" font-size="2.5">3</text>
	<text transform="matrix(1 0 0 1 9.6504 130.6611)" fill="#787878" font-family="'DroidSans'" font-size="3.5">PLL_AGND</text>
	
		<line id="connector3pin" fill="none" stroke="#787878" stroke-width="0.75" stroke-linecap="round" x1="0.35" y1="14.76" x2="7.55" y2="14.76"/>
	<rect id="connector3terminal" x="0.35" y="14.76" fill="none" width="0" height="0"/>
	<text transform="matrix(1 0 0 1 3.2617 13.71)" fill="#8C8C8C" font-family="'DroidSans'" font-size="2.5">4</text>
	<text transform="matrix(1 0 0 1 9.6504 15.46)" fill="#787878" font-family="'DroidSans'" font-size="3.5">PLL_AVDD</text>
	
		<line id="connector29pin" fill="none" stroke="#787878" stroke-width="0.75" stroke-linecap="round" x1="0.35" y1="115.56" x2="7.55" y2="115.56"/>
	<rect id="connector29terminal" x="0.35" y="115.56" fill="none" width="0" height="0"/>
	<text transform="matrix(1 0 0 1 2.5723 114.5107)" fill="#8C8C8C" font-family="'DroidSans'" font-size="2.5">30</text>
	<text transform="matrix(1 0 0 1 9.6504 116.2607)" fill="#787878" font-family="'DroidSans'" font-size="3.5">REFM</text>
	
		<line id="connector28pin" fill="none" stroke="#787878" stroke-width="0.75" stroke-linecap="round" x1="0.35" y1="108.36" x2="7.55" y2="108.36"/>
	<rect id="connector28terminal" x="0.35" y="108.36" fill="none" width="0" height="0"/>
	<text transform="matrix(1 0 0 1 2.5723 107.3096)" fill="#8C8C8C" font-family="'DroidSans'" font-size="2.5">29</text>
	<text transform="matrix(1 0 0 1 9.6504 109.0596)" fill="#787878" font-family="'DroidSans'" font-size="3.5">REFP</text>
	
		<line id="connector7pin" fill="none" stroke="#787878" stroke-width="0.75" stroke-linecap="round" x1="0.35" y1="50.76" x2="7.55" y2="50.76"/>
	<rect id="connector7terminal" x="0.35" y="50.76" fill="none" width="0" height="0"/>
	<text transform="matrix(1 0 0 1 3.2617 49.71)" fill="#8C8C8C" font-family="'DroidSans'" font-size="2.5">8</text>
	<text transform="matrix(1 0 0 1 9.6504 51.46)" fill="#787878" font-family="'DroidSans'" font-size="3.5">RESET/</text>
	
		<line id="connector20pin" fill="none" stroke="#787878" stroke-width="0.75" stroke-linecap="round" x1="86.75" y1="7.56" x2="79.55" y2="7.56"/>
	<rect id="connector20terminal" x="86.75" y="7.56" fill="none" width="0.001" height="0"/>
	<text transform="matrix(1 0 0 1 81.7734 6.5107)" fill="#8C8C8C" font-family="'DroidSans'" font-size="2.5">21</text>
	<text transform="matrix(1 0 0 1 71.8027 8.2607)" fill="#787878" font-family="'DroidSans'" font-size="3.5">SCL</text>
	
		<line id="connector21pin" fill="none" stroke="#787878" stroke-width="0.75" stroke-linecap="round" x1="86.75" y1="14.76" x2="79.55" y2="14.76"/>
	<rect id="connector21terminal" x="86.75" y="14.76" fill="none" width="0.001" height="0"/>
	<text transform="matrix(1 0 0 1 81.7734 13.71)" fill="#8C8C8C" font-family="'DroidSans'" font-size="2.5">22</text>
	<text transform="matrix(1 0 0 1 71.1445 15.46)" fill="#787878" font-family="'DroidSans'" font-size="3.5">SDA</text>
	
		<line id="connector23pin" fill="none" stroke="#787878" stroke-width="0.75" stroke-linecap="round" x1="86.75" y1="115.56" x2="79.55" y2="115.56"/>
	<rect id="connector23terminal" x="86.75" y="115.56" fill="none" width="0.001" height="0"/>
	<text transform="matrix(1 0 0 1 81.7734 114.5107)" fill="#8C8C8C" font-family="'DroidSans'" font-size="2.5">24</text>
	<text transform="matrix(1 0 0 1 67.1387 116.2607)" fill="#787878" font-family="'DroidSans'" font-size="3.5">VSYNC</text>
	
		<line id="connector4pin" fill="none" stroke="#787878" stroke-width="0.75" stroke-linecap="round" x1="0.35" y1="65.16" x2="7.55" y2="65.16"/>
	<rect id="connector4terminal" x="0.35" y="65.16" fill="none" width="0" height="0"/>
	<text transform="matrix(1 0 0 1 3.2617 64.1104)" fill="#8C8C8C" font-family="'DroidSans'" font-size="2.5">5</text>
	<text transform="matrix(1 0 0 1 9.6504 65.8604)" fill="#787878" font-family="'DroidSans'" font-size="3.5">XTAL1</text>
	
		<line id="connector5pin" fill="none" stroke="#787878" stroke-width="0.75" stroke-linecap="round" x1="0.35" y1="72.36" x2="7.55" y2="72.36"/>
	<rect id="connector5terminal" x="0.35" y="72.36" fill="none" width="0" height="0"/>
	<text transform="matrix(1 0 0 1 3.2617 71.3096)" fill="#8C8C8C" font-family="'DroidSans'" font-size="2.5">6</text>
	<text transform="matrix(1 0 0 1 9.6504 73.0596)" fill="#787878" font-family="'DroidSans'" font-size="3.5">XTAL2</text>
	
		<line id="connector17pin" fill="none" stroke="#787878" stroke-width="0.75" stroke-linecap="round" x1="86.75" y1="43.56" x2="79.55" y2="43.56"/>
	<rect id="connector17terminal" x="86.75" y="43.56" fill="none" width="0.001" height="0"/>
	<text transform="matrix(1 0 0 1 81.7734 42.5107)" fill="#8C8C8C" font-family="'DroidSans'" font-size="2.5">18</text>
	<text transform="matrix(1 0 0 1 65.4512 44.2607)" fill="#787878" font-family="'DroidSans'" font-size="3.5">YOUT_0</text>
	
		<line id="connector16pin" fill="none" stroke="#787878" stroke-width="0.75" stroke-linecap="round" x1="86.75" y1="50.76" x2="79.55" y2="50.76"/>
	<rect id="connector16terminal" x="86.75" y="50.76" fill="none" width="0.001" height="0"/>
	<text transform="matrix(1 0 0 1 81.7734 49.71)" fill="#8C8C8C" font-family="'DroidSans'" font-size="2.5">17</text>
	<text transform="matrix(1 0 0 1 65.4512 51.46)" fill="#787878" font-family="'DroidSans'" font-size="3.5">YOUT_1</text>
	
		<line id="connector15pin" fill="none" stroke="#787878" stroke-width="0.75" stroke-linecap="round" x1="86.75" y1="57.96" x2="79.55" y2="57.96"/>
	<rect id="connector15terminal" x="86.75" y="57.96" fill="none" width="0.001" height="0"/>
	<text transform="matrix(1 0 0 1 81.7734 56.9111)" fill="#8C8C8C" font-family="'DroidSans'" font-size="2.5">16</text>
	<text transform="matrix(1 0 0 1 65.4512 58.6611)" fill="#787878" font-family="'DroidSans'" font-size="3.5">YOUT_2</text>
	
		<line id="connector14pin" fill="none" stroke="#787878" stroke-width="0.75" stroke-linecap="round" x1="86.75" y1="65.16" x2="79.55" y2="65.16"/>
	<rect id="connector14terminal" x="86.75" y="65.16" fill="none" width="0.001" height="0"/>
	<text transform="matrix(1 0 0 1 81.7734 64.1104)" fill="#8C8C8C" font-family="'DroidSans'" font-size="2.5">15</text>
	<text transform="matrix(1 0 0 1 65.4512 65.8604)" fill="#787878" font-family="'DroidSans'" font-size="3.5">YOUT_3</text>
	
		<line id="connector13pin" fill="none" stroke="#787878" stroke-width="0.75" stroke-linecap="round" x1="86.75" y1="72.36" x2="79.55" y2="72.36"/>
	<rect id="connector13terminal" x="86.75" y="72.36" fill="none" width="0.001" height="0"/>
	<text transform="matrix(1 0 0 1 81.7734 71.3096)" fill="#8C8C8C" font-family="'DroidSans'" font-size="2.5">14</text>
	<text transform="matrix(1 0 0 1 65.4512 73.0596)" fill="#787878" font-family="'DroidSans'" font-size="3.5">YOUT_4</text>
	
		<line id="connector12pin" fill="none" stroke="#787878" stroke-width="0.75" stroke-linecap="round" x1="86.75" y1="79.56" x2="79.55" y2="79.56"/>
	<rect id="connector12terminal" x="86.75" y="79.56" fill="none" width="0.001" height="0"/>
	<text transform="matrix(1 0 0 1 81.7734 78.5107)" fill="#8C8C8C" font-family="'DroidSans'" font-size="2.5">13</text>
	<text transform="matrix(1 0 0 1 65.4512 80.2607)" fill="#787878" font-family="'DroidSans'" font-size="3.5">YOUT_5</text>
	
		<line id="connector11pin" fill="none" stroke="#787878" stroke-width="0.75" stroke-linecap="round" x1="86.75" y1="86.76" x2="79.55" y2="86.76"/>
	<rect id="connector11terminal" x="86.75" y="86.76" fill="none" width="0.001" height="0.001"/>
	<text transform="matrix(1 0 0 1 81.7734 85.71)" fill="#8C8C8C" font-family="'DroidSans'" font-size="2.5">12</text>
	<text transform="matrix(1 0 0 1 65.4512 87.46)" fill="#787878" font-family="'DroidSans'" font-size="3.5">YOUT_6</text>
	
		<line id="connector10pin" fill="none" stroke="#787878" stroke-width="0.75" stroke-linecap="round" x1="86.75" y1="93.96" x2="79.55" y2="93.96"/>
	<rect id="connector10terminal" x="86.75" y="93.96" fill="none" width="0.001" height="0"/>
	<text transform="matrix(1 0 0 1 81.7734 92.9111)" fill="#8C8C8C" font-family="'DroidSans'" font-size="2.5">11</text>
	<text transform="matrix(1 0 0 1 65.4512 94.6611)" fill="#787878" font-family="'DroidSans'" font-size="3.5">YOUT_7</text>
	<text id="label_6_" transform="matrix(1 0 0 1 35.334 66.8936)" font-family="'DroidSans'" font-size="4.25">TVP5150</text>
	<text id="label_7_" transform="matrix(1 0 0 1 38.5352 71.4268)" font-family="'DroidSans'" font-size="4.25">NTSC</text>
	<text id="label_8_" transform="matrix(1 0 0 1 34.3301 75.96)" font-family="'DroidSans'" font-size="4.25">DECODER</text>
	<text id="label_9_" transform="matrix(1 0 0 1 42.3789 80.4932)" font-family="'DroidSans'" font-size="4.25">1</text>
</g>
</svg>
