<?xml version="1.0" encoding="utf-8"?>
<!-- Generator: Adobe Illustrator 16.0.0, SVG Export Plug-In . SVG Version: 6.00 Build 0)  -->
<!DOCTYPE svg PUBLIC "-//W3C//DTD SVG 1.1//EN" "http://www.w3.org/Graphics/SVG/1.1/DTD/svg11.dtd">
<svg version="1.1" id="Layer_1" xmlns:svg="http://www.w3.org/2000/svg"
	 xmlns="http://www.w3.org/2000/svg" xmlns:xlink="http://www.w3.org/1999/xlink" x="0px" y="0px" width="51.1px" height="44.352px"
	 viewBox="0 0 51.1 44.352" enable-background="new 0 0 51.1 44.352" xml:space="preserve">
<g id="schematic">
	<rect x="14.75" y="0.576" fill="#FFFFFF" width="21.6" height="43.199"/>
	<rect x="14.75" y="0.576" fill="#FFFFFF" width="21.6" height="43.199"/>
	<rect x="14.75" y="0.576" fill="#FFFFFF" width="21.6" height="43.199"/>
	<text id="label_3_" transform="matrix(1 0 0 1 18.5647 14.0002)" font-family="'DroidSans'" font-size="4.25">RF LINK</text>
	<text id="label_4_" transform="matrix(1 0 0 1 23.6921 18.5334)" font-family="'DroidSans'" font-size="4.25">TX</text>
	<line fill="none" stroke="#000000" stroke-width="0.9" stroke-linecap="round" x1="36.35" y1="43.776" x2="14.75" y2="43.776"/>
	<line fill="none" stroke="#000000" stroke-width="0.9" stroke-linecap="round" x1="14.75" y1="0.576" x2="14.75" y2="43.776"/>
	<line fill="none" stroke="#000000" stroke-width="0.9" stroke-linecap="round" x1="36.35" y1="43.776" x2="36.35" y2="0.576"/>
	<line fill="none" stroke="#000000" stroke-width="0.9" stroke-linecap="round" x1="14.75" y1="0.576" x2="36.35" y2="0.576"/>
	
		<line id="connector2pin" fill="none" stroke="#787878" stroke-width="0.75" stroke-linecap="round" x1="0.35" y1="36.576" x2="14.75" y2="36.576"/>
	<rect id="connector2terminal" x="0.35" y="36.576" fill="none" width="0" height="0"/>
	<text transform="matrix(1 0 0 1 6.8616 35.5256)" fill="#8C8C8C" font-family="'DroidSans'" font-size="2.5">3</text>
	<text transform="matrix(1 0 0 1 16.8499 37.2756)" fill="#787878" font-family="'DroidSans'" font-size="3.5">GND</text>
	
		<line id="connector1pin" fill="none" stroke="#787878" stroke-width="0.75" stroke-linecap="round" x1="0.35" y1="22.176" x2="14.75" y2="22.176"/>
	<rect id="connector1terminal" x="0.35" y="22.176" fill="none" width="0" height="0"/>
	<text transform="matrix(1 0 0 1 6.8616 21.1252)" fill="#8C8C8C" font-family="'DroidSans'" font-size="2.5">2</text>
	<text transform="matrix(1 0 0 1 16.8499 22.8752)" fill="#787878" font-family="'DroidSans'" font-size="3.5">DATA</text>
	
		<line id="connector0pin" fill="none" stroke="#787878" stroke-width="0.75" stroke-linecap="round" x1="50.75" y1="7.776" x2="36.35" y2="7.776"/>
	<rect id="connector0terminal" x="50.75" y="7.776" fill="none" width="0" height="0.001"/>
	<text transform="matrix(1 0 0 1 42.8616 6.7249)" fill="#8C8C8C" font-family="'DroidSans'" font-size="2.5">1</text>
	<text transform="matrix(1 0 0 1 27.7542 8.4749)" fill="#787878" font-family="'DroidSans'" font-size="3.5">ANT</text>
	
		<line id="connector3pin" fill="none" stroke="#787878" stroke-width="0.75" stroke-linecap="round" x1="0.35" y1="7.776" x2="14.75" y2="7.776"/>
	<rect id="connector3terminal" x="0.35" y="7.776" fill="none" width="0" height="0.001"/>
	<text transform="matrix(1 0 0 1 6.8616 6.7249)" fill="#8C8C8C" font-family="'DroidSans'" font-size="2.5">4</text>
	<text transform="matrix(1 0 0 1 16.8499 8.4749)" fill="#787878" font-family="'DroidSans'" font-size="3.5">+5V</text>
</g>
</svg>
