<?xml version="1.0" encoding="utf-8"?>
<!-- Generator: Adobe Illustrator 16.0.0, SVG Export Plug-In . SVG Version: 6.00 Build 0)  -->
<svg version="1.2" baseProfile="tiny" id="Layer_1" xmlns:xml="http://www.w3.org/XML/1998/namespace"
	 xmlns="http://www.w3.org/2000/svg" xmlns:xlink="http://www.w3.org/1999/xlink" x="0px" y="0px" width="86.4px" height="129.6px"
	 viewBox="0 0 86.4 129.6" xml:space="preserve">
<g id="schematic">
	<g>
		<rect x="6.913" y="6.879" fill="#FFFFFF" stroke="#000000" stroke-miterlimit="10" width="72.574" height="115.548"/>
		<text transform="matrix(1 0 0 1 29.7859 24.7942)" font-family="'DroidSans'" font-size="5.7469">SparkCore</text>
		<text transform="matrix(1 0 0 1 37.8206 31.6897)" font-family="'DroidSans'" font-size="5.7469">v1.0</text>
	</g>
	<g>
		<path id="connector41pin" fill="#787878" d="M-0.001,100.799v0.813h-0.021l-0.021-0.002l-0.021-0.002l-0.021-0.004l-0.02-0.004
			l-0.021-0.006l-0.02-0.008l-0.02-0.006l-0.018-0.011l-0.019-0.008l-0.017-0.01l-0.017-0.01l-0.018-0.013l-0.015-0.014
			l-0.015-0.012l-0.016-0.015l-0.014-0.014l-0.013-0.016l-0.013-0.017l-0.012-0.016l-0.01-0.016l-0.012-0.019l-0.009-0.018
			l-0.008-0.019l-0.008-0.018l-0.006-0.021l-0.006-0.02l-0.005-0.021l-0.004-0.02l-0.003-0.021l-0.001-0.02l-0.001-0.021
			l0.001-0.021l0.001-0.02l0.003-0.021l0.004-0.02l0.005-0.021l0.006-0.02l0.006-0.021l0.008-0.018l0.008-0.019l0.009-0.018
			l0.012-0.019l0.01-0.016l0.012-0.018l0.013-0.015l0.013-0.016l0.014-0.014l0.016-0.015l0.015-0.014l0.015-0.012l0.018-0.013
			l0.017-0.01l0.017-0.01l0.019-0.01l0.018-0.009l0.02-0.008l0.02-0.006l0.021-0.006l0.02-0.004l0.021-0.004l0.021-0.002
			l0.021-0.002h0.021V100.799z M7.199,101.612h-7.2v-0.813h7.2V101.612z M7.199,101.612v-0.813H7.22l0.021,0.002l0.021,0.002
			l0.021,0.004l0.02,0.004l0.021,0.006l0.019,0.006l0.02,0.009l0.018,0.008l0.019,0.01l0.018,0.01l0.018,0.011l0.016,0.012
			l0.016,0.012l0.016,0.014l0.015,0.015l0.013,0.014l0.014,0.017l0.013,0.014l0.011,0.018l0.012,0.017l0.01,0.018l0.009,0.019
			l0.009,0.018l0.007,0.018l0.008,0.021l0.005,0.02l0.005,0.021l0.004,0.02l0.002,0.021l0.002,0.02v0.021v0.021l-0.002,0.021
			l-0.002,0.021l-0.004,0.021l-0.005,0.02l-0.005,0.021l-0.008,0.02l-0.007,0.019l-0.009,0.018l-0.009,0.018l-0.01,0.019
			l-0.012,0.016l-0.011,0.019l-0.013,0.014l-0.02,0.004l-0.013,0.015l-0.015,0.014l-0.016,0.014l-0.016,0.013l-0.017,0.012
			l-0.017,0.01l-0.018,0.01l-0.019,0.008l-0.018,0.011l-0.02,0.006l-0.019,0.008l-0.021,0.006l-0.02,0.004l-0.021,0.004l-0.02,0.002
			l-0.021,0.002H7.199V101.612z"/>
		<polygon id="connector41terminal" fill="#787878" points="-0.415,101.206 -0.399,101.206 -0.399,101.206 		"/>
		<g>
			<text transform="matrix(1 0 0 1 9.262 102.2776)" fill="#8C8C8C" font-family="'DroidSans'" font-size="3.5">A0/PWM1</text>
		</g>
	</g>
	<g>
		<path id="connector42pin" fill="#787878" d="M-0.001,93.598v0.814l-0.021-0.002h-0.021l-0.021-0.005l-0.021-0.004l-0.02-0.004
			l-0.021-0.006l-0.02-0.006l-0.02-0.008l-0.018-0.008l-0.019-0.009l-0.017-0.01l-0.017-0.012l-0.018-0.012l-0.015-0.013
			l-0.015-0.012l-0.016-0.014l-0.014-0.017l-0.013-0.014l-0.013-0.016l-0.012-0.017l-0.01-0.018l-0.002-0.01l-0.01-0.019
			l-0.008-0.018l-0.008-0.021l-0.006-0.02l-0.006-0.019l-0.004-0.02l-0.004-0.021l-0.003-0.02l-0.002-0.021l-0.001-0.02l0.001-0.021
			l0.002-0.021l0.003-0.021l0.004-0.02l0.004-0.021l0.006-0.02l0.006-0.021l0.008-0.018l0.008-0.02l0.01-0.019l0.011-0.016
			l0.01-0.019l0.012-0.016l0.013-0.016l0.013-0.015l0.014-0.016l0.016-0.012l0.015-0.015l0.015-0.012l0.018-0.012l0.017-0.011
			l0.018-0.01l0.018-0.01l0.019-0.008l0.019-0.009l0.02-0.006l0.021-0.006l0.02-0.004l0.021-0.004l0.021-0.004h0.021L-0.001,93.598
			L-0.001,93.598z M7.199,94.413h-7.2v-0.814h7.2V94.413z M7.199,94.413v-0.814L7.221,93.6h0.021l0.021,0.004l0.021,0.004
			l0.021,0.004l0.02,0.007l0.019,0.006l0.02,0.008l0.018,0.008l0.019,0.01l0.018,0.011l0.018,0.01l0.016,0.012l0.016,0.012
			l0.016,0.015l0.015,0.012L7.5,93.733l0.014,0.015l0.013,0.016l0.011,0.016l0.011,0.019l0.011,0.016l0.009,0.019l0.009,0.02
			l0.007,0.019l0.007,0.02l0.006,0.021l0.005,0.02l0.004,0.02l0.002,0.021l0.002,0.021v0.021v0.02l-0.002,0.021l-0.002,0.02
			L7.6,94.093l-0.005,0.02L7.59,94.131l-0.007,0.02l-0.007,0.021l-0.009,0.018L7.557,94.2l-0.011,0.016l-0.011,0.018L7.525,94.25
			l-0.013,0.016L7.5,94.278l-0.013,0.017l-0.015,0.014L7.457,94.32l-0.016,0.013l-0.017,0.012l-0.015,0.01l-0.018,0.01l-0.019,0.009
			L7.356,94.38l-0.02,0.008l-0.019,0.006L7.298,94.4l-0.02,0.006l-0.021,0.003l-0.02,0.004H7.221L7.199,94.413z"/>
		<rect id="connector42terminal" x="-0.415" y="94.004" fill="#787878" width="0.017" height="0.002"/>
		<g>
			<text transform="matrix(1 0 0 1 9.262 95.0764)" fill="#8C8C8C" font-family="'DroidSans'" font-size="3.5">A1/PWM2</text>
		</g>
	</g>
	<g>
		<path id="connector43pin" fill="#787878" d="M-0.001,86.399v0.813h-0.021l-0.021-0.002l-0.021-0.002l-0.021-0.004l-0.02-0.004
			l-0.021-0.007l-0.02-0.006l-0.02-0.008l-0.018-0.008l-0.019-0.01l-0.017-0.011l-0.017-0.01L-0.25,87.13l-0.015-0.012l-0.015-0.015
			l-0.016-0.014l-0.014-0.014l-0.013-0.015l-0.013-0.016l-0.012-0.019l-0.01-0.016l-0.012-0.018l-0.009-0.019l-0.008-0.018
			l-0.008-0.019l-0.006-0.02L-0.404,86.9l-0.005-0.02l-0.004-0.021l-0.003-0.021l-0.001-0.021l-0.001-0.021l0.001-0.021l0.001-0.02
			l0.003-0.021l0.004-0.021l0.005-0.021l0.006-0.02l0.006-0.018l0.008-0.021l0.008-0.018l0.009-0.019l0.012-0.018l0.01-0.017
			l0.012-0.016l0.013-0.016l0.013-0.017l0.014-0.014l0.016-0.014l0.015-0.013l0.015-0.014l0.018-0.01l0.017-0.013l0.017-0.01
			l0.019-0.008l0.018-0.01l0.02-0.006l0.02-0.009l0.021-0.004l0.02-0.006l0.021-0.004l0.021-0.002l0.021-0.002h0.021V86.399z
			 M7.199,87.211h-7.2v-0.813h7.2V87.211z M7.199,87.211v-0.813H7.22L7.241,86.4l0.021,0.004l0.021,0.002l0.02,0.007l0.021,0.004
			l0.019,0.008l0.02,0.006l0.018,0.01l0.019,0.008l0.018,0.011l0.018,0.012l0.016,0.01l0.016,0.015l0.016,0.012l0.015,0.014
			L7.5,86.531l0.014,0.017l0.013,0.016l0.011,0.017l0.011,0.016l0.011,0.018l0.009,0.019l0.009,0.018l0.007,0.021l0.007,0.018
			l0.006,0.021l0.005,0.02l0.004,0.021l0.002,0.02l0.002,0.021v0.021v0.021l-0.002,0.02l-0.002,0.021L7.6,86.892l-0.005,0.021
			l-0.006,0.02l-0.007,0.021L7.576,86.97l-0.009,0.018l-0.009,0.019l-0.011,0.018L7.537,87.04l-0.011,0.018l-0.013,0.016L7.5,87.079
			l-0.013,0.014l-0.015,0.014L7.458,87.12l-0.016,0.012l-0.017,0.012l-0.017,0.01l-0.018,0.011l-0.019,0.01L7.358,87.18l-0.02,0.008
			L7.32,87.194L7.301,87.2l-0.02,0.004L7.26,87.208L7.24,87.21l-0.021,0.002L7.199,87.211L7.199,87.211z"/>
		<rect id="connector43terminal" x="-0.415" y="86.805" fill="#787878" width="0.017" height="0.002"/>
		<g>
			<text transform="matrix(1 0 0 1 9.262 87.8772)" fill="#8C8C8C" font-family="'DroidSans'" font-size="3.5">A2/SS</text>
		</g>
	</g>
	<g>
		<path id="connector44pin" fill="#787878" d="M-0.001,79.198v0.813h-0.021l-0.021-0.002l-0.021-0.004l-0.021-0.002l-0.02-0.006
			l-0.021-0.006l-0.02-0.007l-0.02-0.008l-0.018-0.008l-0.019-0.008l-0.017-0.01l-0.017-0.013l-0.018-0.01l-0.015-0.014
			l-0.015-0.013l-0.016-0.014l-0.014-0.014l-0.013-0.017l-0.013-0.016l-0.012-0.016l-0.01-0.017l-0.012-0.018l-0.009-0.019
			l-0.008-0.018l-0.008-0.021l-0.006-0.018l-0.006-0.02l-0.005-0.021l-0.004-0.021l-0.003-0.021l-0.001-0.021l-0.001-0.021
			l0.001-0.021l0.001-0.021l0.003-0.021l0.004-0.021l0.005-0.02l0.006-0.021l0.006-0.02l0.008-0.02l0.008-0.018l0.009-0.019
			l0.012-0.017l0.01-0.019l0.012-0.016l0.013-0.016l0.013-0.015l0.014-0.015l0.016-0.014l0.015-0.014l0.015-0.012l0.018-0.012
			l0.017-0.01l0.017-0.012l0.019-0.009l0.018-0.008l0.02-0.008l0.02-0.006l0.021-0.007l0.02-0.004l0.021-0.004l0.021-0.003
			l0.021-0.001L-0.001,79.198z M7.199,80.012h-7.2v-0.813h7.2V80.012z M7.199,80.012v-0.813L7.221,79.2l0.021,0.001l0.021,0.003
			l0.021,0.004l0.021,0.004l0.02,0.006l0.019,0.006l0.02,0.008l0.018,0.008l0.019,0.01l0.018,0.011l0.018,0.01l0.016,0.012
			l0.016,0.013l0.016,0.014l0.015,0.013L7.5,79.333l0.014,0.014l0.013,0.016l0.011,0.018l0.011,0.017l0.011,0.018l0.009,0.018
			l0.009,0.02l0.007,0.018l0.007,0.02l0.006,0.021l0.005,0.02l0.004,0.021l0.002,0.021l0.002,0.021v0.021v0.021l-0.002,0.021
			l-0.002,0.021L7.6,79.695l-0.005,0.021l-0.006,0.02l-0.007,0.019l-0.007,0.02l-0.009,0.019L7.558,79.81l-0.011,0.019l-0.011,0.016
			L7.526,79.86l-0.013,0.017L7.5,79.879l-0.013,0.014l-0.015,0.014l-0.016,0.013l-0.016,0.014l-0.017,0.01L7.41,79.954l-0.018,0.01
			l-0.019,0.008l-0.018,0.01l-0.02,0.006l-0.019,0.007L7.298,80l-0.02,0.006l-0.021,0.002l-0.02,0.004l-0.021,0.002H7.199V80.012z"
			/>
		<rect id="connector44terminal" x="-0.415" y="79.604" fill="#787878" width="0.017" height="0.002"/>
		<g>
			<text transform="matrix(1 0 0 1 9.262 80.676)" fill="#8C8C8C" font-family="'DroidSans'" font-size="3.5">A3/SCK</text>
		</g>
	</g>
	<g>
		<path id="connector45pin" fill="#787878" d="M-0.001,72v0.812h-0.021l-0.021-0.002l-0.021-0.002l-0.021-0.004l-0.02-0.004
			l-0.021-0.006l-0.02-0.006l-0.02-0.009l-0.018-0.008l-0.019-0.01l-0.017-0.01l-0.017-0.01L-0.25,72.73l-0.015-0.012l-0.015-0.014
			l-0.016-0.014l-0.014-0.015l-0.013-0.015l-0.013-0.016l-0.012-0.017l-0.01-0.018l-0.012-0.018l-0.009-0.018l-0.008-0.019
			l-0.008-0.018l-0.006-0.021l-0.006-0.02l-0.005-0.02l-0.004-0.02l-0.003-0.021l-0.001-0.021l-0.001-0.021l0.001-0.021l0.001-0.021
			l0.003-0.021l0.004-0.021l0.005-0.02l0.006-0.02l0.006-0.019l0.008-0.021l0.008-0.018l0.009-0.018l0.012-0.018l0.01-0.017
			l0.012-0.017l0.013-0.016l0.013-0.016l0.014-0.015l0.016-0.014l0.015-0.012l0.015-0.014l0.018-0.011l0.017-0.012l0.017-0.011
			l0.019-0.008l0.018-0.009l0.02-0.007l0.02-0.007l0.021-0.006l0.02-0.006l0.021-0.003l0.021-0.003L-0.021,72H-0.001L-0.001,72z
			 M7.199,72.811h-7.2V72h7.2V72.811z M7.199,72.811V72h0.022l0.021,0.001l0.021,0.003l0.021,0.003l0.021,0.005l0.02,0.006
			l0.019,0.007l0.02,0.007l0.018,0.01l0.019,0.008l0.018,0.01l0.018,0.012l0.016,0.012l0.016,0.013l0.016,0.012l0.015,0.015
			L7.5,72.132l0.014,0.016l0.013,0.017l0.011,0.016l0.011,0.017l0.011,0.018l0.009,0.018l0.009,0.019l0.007,0.02l0.007,0.02
			l0.006,0.019L7.6,72.328l0.004,0.021l0.002,0.021l0.002,0.021v0.021v0.021l-0.002,0.021l-0.002,0.021L7.6,72.495l-0.005,0.019
			L7.59,72.534l-0.007,0.02l-0.007,0.018l-0.009,0.02l-0.009,0.018l-0.011,0.018l-0.011,0.017L7.526,72.66l-0.013,0.015L7.5,72.678
			l-0.013,0.015l-0.015,0.014L7.457,72.72l-0.016,0.012l-0.017,0.013l-0.017,0.01l-0.018,0.01l-0.019,0.01L7.358,72.78l-0.02,0.009
			L7.32,72.794L7.3,72.8l-0.02,0.004l-0.021,0.004l-0.02,0.002l-0.021,0.002L7.199,72.811L7.199,72.811z"/>
		<rect id="connector45terminal" x="-0.415" y="72.406" fill="#787878" width="0.017" height="0.003"/>
		<g>
			<text transform="matrix(1 0 0 1 9.262 73.4768)" fill="#8C8C8C" font-family="'DroidSans'" font-size="3.5">A4/MISO/PWM3</text>
		</g>
	</g>
	<g>
		<path id="connector46pin" fill="#787878" d="M-0.001,64.8v0.813h-0.021l-0.021-0.002l-0.021-0.003l-0.021-0.003l-0.02-0.005
			l-0.021-0.006l-0.02-0.007l-0.02-0.007l-0.018-0.01l-0.019-0.008l-0.017-0.01l-0.017-0.011L-0.25,65.53l-0.015-0.013l-0.015-0.012
			l-0.016-0.015l-0.014-0.014l-0.013-0.016l-0.013-0.017l-0.012-0.016l-0.01-0.016L-0.358,65.4l-0.01-0.018l-0.008-0.019
			l-0.008-0.019l-0.006-0.019l-0.006-0.021l-0.004-0.02l-0.004-0.021l-0.003-0.021l-0.002-0.021l-0.001-0.021l0.001-0.021
			l0.002-0.021l0.003-0.021l0.004-0.02l0.004-0.021l0.006-0.02l0.006-0.021l0.008-0.018l0.008-0.019l0.01-0.018l0.011-0.019
			l0.01-0.017l0.012-0.017l0.013-0.016l0.013-0.015l0.014-0.014l0.016-0.015l0.015-0.014l0.015-0.012l0.018-0.013l0.017-0.01
			l0.018-0.01l0.018-0.01l0.019-0.009l0.019-0.008l0.02-0.006l0.021-0.006l0.02-0.004l0.021-0.004l0.021-0.002l0.021-0.002h0.012
			V64.8z M7.199,65.613h-7.2V64.8h7.2V65.613z M7.199,65.613V64.8H7.22l0.021,0.002l0.021,0.002l0.021,0.004l0.02,0.004l0.021,0.006
			l0.019,0.006l0.02,0.009l0.018,0.008l0.019,0.01l0.018,0.01l0.018,0.011l0.016,0.012l0.016,0.012l0.016,0.015l0.015,0.014
			L7.5,64.933l0.014,0.015l0.013,0.016l0.011,0.017l0.011,0.018l0.011,0.018l0.009,0.018l0.009,0.019l0.007,0.018l0.007,0.021
			l0.006,0.02L7.6,65.129l0.004,0.02l0.002,0.021l0.002,0.02v0.021v0.021l-0.002,0.021l-0.002,0.021L7.6,65.295l-0.005,0.02
			L7.59,65.335l-0.007,0.019l-0.007,0.02l-0.009,0.018L7.557,65.4l-0.011,0.019l-0.011,0.016l-0.01,0.017l-0.013,0.015L7.5,65.48
			l-0.013,0.015l-0.015,0.014L7.457,65.52l-0.016,0.014l-0.017,0.012L7.41,65.554l-0.018,0.01l-0.019,0.008l-0.018,0.01l-0.02,0.007
			l-0.019,0.007L7.301,65.6l-0.02,0.005L7.26,65.608l-0.02,0.003l-0.021,0.002H7.199L7.199,65.613z"/>
		<rect id="connector46terminal" x="-0.415" y="65.206" fill="#787878" width="0.017" height="0.001"/>
		<g>
			<text transform="matrix(1 0 0 1 9.262 66.2756)" fill="#8C8C8C" font-family="'DroidSans'" font-size="3.5">A5/MOSI/PWM4</text>
		</g>
	</g>
	<g>
		<path id="connector47pin" fill="#787878" d="M-0.001,57.599v0.813l-0.021-0.001l-0.021-0.001l-0.021-0.004l-0.021-0.004
			l-0.02-0.004l-0.021-0.006l-0.02-0.006l-0.02-0.008l-0.018-0.008l-0.019-0.01l-0.017-0.01l-0.017-0.011l-0.018-0.012l-0.015-0.013
			l-0.015-0.013l-0.016-0.014l-0.014-0.016l-0.013-0.014l-0.013-0.016l-0.012-0.017l-0.01-0.018L-0.358,58.2l-0.01-0.019
			l-0.008-0.018l-0.008-0.02l-0.006-0.02l-0.006-0.02l-0.004-0.02l-0.004-0.021l-0.003-0.021l-0.002-0.021l-0.001-0.021l0.001-0.021
			l0.002-0.021l0.003-0.021l0.004-0.021l0.004-0.021l0.006-0.02l0.006-0.02l0.008-0.019l0.008-0.02l0.01-0.018l0.011-0.017
			l0.01-0.018l0.012-0.016l0.013-0.017l0.013-0.015l0.014-0.015l0.016-0.014l0.015-0.013l0.015-0.012l0.018-0.012l0.017-0.012
			l0.018-0.01l0.018-0.009l0.019-0.008l0.019-0.009l0.02-0.006l0.021-0.006l0.02-0.005l0.021-0.003l0.021-0.004l0.021-0.001
			L-0.001,57.599z M7.199,58.413h-7.2V57.6h7.2V58.413z M7.199,58.413V57.6h0.022l0.021,0.001l0.021,0.004l0.021,0.003l0.021,0.005
			l0.02,0.007l0.019,0.006l0.02,0.008l0.018,0.008l0.019,0.009l0.018,0.011l0.018,0.011l0.016,0.012l0.016,0.012l0.016,0.014
			l0.015,0.013L7.5,57.733l0.014,0.016l0.013,0.016l0.011,0.016l0.011,0.018l0.011,0.017l0.009,0.019l0.009,0.019l0.007,0.02
			l0.007,0.019l0.006,0.021l0.005,0.02l0.004,0.021l0.002,0.02l0.002,0.021v0.021v0.021l-0.002,0.021l-0.002,0.021L7.6,58.096
			l-0.005,0.021L7.59,58.135l-0.007,0.02l-0.007,0.02l-0.009,0.018L7.557,58.2l-0.011,0.017l-0.011,0.018l-0.01,0.016l-0.013,0.016
			L7.5,58.279l-0.013,0.016l-0.015,0.014L7.458,58.32l-0.016,0.013l-0.017,0.012l-0.016,0.01l-0.018,0.01l-0.019,0.01L7.358,58.38
			l-0.02,0.008L7.32,58.394L7.301,58.4l-0.02,0.004L7.26,58.408l-0.02,0.003l-0.021,0.001L7.199,58.413z"/>
		<rect id="connector47terminal" x="-0.415" y="58.005" fill="#787878" width="0.017" height="0.002"/>
		<g>
			<text transform="matrix(1 0 0 1 9.262 59.0764)" fill="#8C8C8C" font-family="'DroidSans'" font-size="3.5">A6/PWM5</text>
		</g>
	</g>
	<g>
		<path id="connector48pin" fill="#787878" d="M-0.001,50.4v0.813h-0.021l-0.021-0.002l-0.021-0.002l-0.021-0.004l-0.02-0.005
			l-0.021-0.006l-0.02-0.007l-0.02-0.007l-0.018-0.009l-0.019-0.009l-0.017-0.011l-0.017-0.011l-0.018-0.011l-0.015-0.013
			l-0.015-0.014l-0.016-0.014l-0.014-0.014l-0.013-0.016l-0.013-0.016l-0.012-0.018l-0.01-0.016L-0.358,51l-0.01-0.019l-0.008-0.018
			l-0.008-0.02l-0.006-0.019l-0.006-0.021l-0.004-0.02l-0.004-0.021l-0.003-0.021l-0.002-0.02l-0.001-0.021l0.001-0.021l0.002-0.021
			l0.003-0.021l0.004-0.021l0.004-0.02l0.006-0.021l0.006-0.019l0.008-0.02l0.008-0.018l0.01-0.019l0.011-0.018l0.01-0.017
			l0.012-0.017l0.013-0.015l0.013-0.017l0.014-0.014l0.016-0.014l0.015-0.014l0.015-0.013l0.018-0.011l0.017-0.012l0.018-0.01
			l0.018-0.009l0.019-0.009l0.019-0.007l0.02-0.008l0.021-0.005l0.02-0.005l0.021-0.003l0.021-0.003l0.021-0.002h0.012V50.4z
			 M7.199,51.212h-7.2V50.4h7.2V51.212z M7.199,51.212V50.4H7.22l0.021,0.002l0.021,0.003l0.021,0.004l0.02,0.005l0.021,0.005
			l0.019,0.007l0.02,0.007l0.018,0.009l0.019,0.01l0.018,0.01l0.018,0.011l0.016,0.011l0.016,0.014l0.016,0.013l0.015,0.014
			L7.5,50.533l0.014,0.016l0.013,0.015l0.011,0.018l0.011,0.016l0.011,0.018l0.009,0.019l0.009,0.018l0.007,0.02l0.007,0.019
			l0.006,0.021l0.005,0.02l0.004,0.021l0.002,0.021l0.002,0.021v0.021v0.021l-0.002,0.02l-0.002,0.021L7.6,50.894l-0.005,0.021
			l-0.006,0.02l-0.007,0.02l-0.007,0.019L7.567,50.99L7.557,51l-0.011,0.018l-0.011,0.017l-0.011,0.017l-0.013,0.016L7.5,51.08
			l-0.013,0.014l-0.015,0.014L7.458,51.12l-0.016,0.013l-0.017,0.011l-0.016,0.01l-0.018,0.011l-0.019,0.009l-0.018,0.009
			l-0.02,0.007l-0.019,0.007L7.301,51.2l-0.02,0.005L7.26,51.209l-0.02,0.002l-0.021,0.002L7.199,51.212L7.199,51.212z"/>
		<rect id="connector48terminal" x="-0.415" y="50.805" fill="#787878" width="0.017" height="0.002"/>
		<g>
			<text transform="matrix(1 0 0 1 9.262 51.8762)" fill="#8C8C8C" font-family="'DroidSans'" font-size="3.5">A7/PWM6</text>
		</g>
	</g>
	<g>
		<path id="connector50pin" fill="#787878" d="M-0.001,43.2v0.813l-0.021-0.001l-0.021-0.001l-0.021-0.004l-0.021-0.003L-0.101,44
			l-0.021-0.006l-0.02-0.007l-0.02-0.008l-0.018-0.008l-0.018-0.009l-0.018-0.01l-0.017-0.012l-0.018-0.011l-0.015-0.013
			l-0.015-0.014l-0.016-0.013l-0.014-0.015l-0.013-0.016l-0.013-0.016l-0.012-0.016l-0.01-0.018L-0.358,43.8l-0.01-0.019
			l-0.008-0.019l-0.008-0.019l-0.006-0.02l-0.006-0.02l-0.004-0.021l-0.004-0.021l-0.003-0.021l-0.002-0.021l-0.001-0.021
			l0.001-0.021l0.002-0.021l0.003-0.021l0.004-0.021l0.004-0.02l0.006-0.021l0.006-0.02l0.008-0.02l0.008-0.018l0.01-0.019
			l0.011-0.017l0.01-0.017l0.012-0.018l0.013-0.016l0.013-0.015l0.014-0.015l0.016-0.014l0.015-0.014l0.015-0.012l0.018-0.012
			l0.017-0.01l0.018-0.012l0.018-0.009l0.019-0.008l0.019-0.008l0.02-0.006l0.021-0.007l0.02-0.004l0.021-0.004l0.021-0.003
			l0.021-0.001L-0.001,43.2z M7.199,44.013h-7.2V43.2h7.2V44.013z M7.199,44.013V43.2l0.021,0.001l0.021,0.001l0.021,0.003
			l0.021,0.004l0.02,0.004l0.021,0.006l0.019,0.006l0.02,0.008l0.018,0.009l0.019,0.009l0.018,0.011l0.018,0.01l0.016,0.013
			l0.016,0.012l0.016,0.014l0.015,0.013L7.5,43.333l0.014,0.014l0.013,0.016l0.011,0.018l0.011,0.017l0.011,0.018l0.009,0.018
			l0.009,0.02l0.007,0.018l0.007,0.02l0.006,0.021l0.005,0.02l0.004,0.021l0.002,0.021l0.002,0.021v0.021v0.021l-0.002,0.021
			l-0.002,0.021L7.6,43.695l-0.005,0.021l-0.006,0.02l-0.007,0.02l-0.007,0.019l-0.009,0.02L7.557,43.8l-0.011,0.017l-0.011,0.018
			L7.525,43.85l-0.013,0.016L7.5,43.879l-0.013,0.015l-0.015,0.013L7.457,43.92l-0.016,0.013l-0.017,0.011L7.41,43.954l-0.018,0.011
			l-0.019,0.008L7.358,43.98l-0.02,0.008L7.32,43.994L7.301,44l-0.02,0.005L7.26,44.008l-0.02,0.004l-0.021,0.001H7.199z"/>
		<rect id="connector50terminal" x="-0.415" y="43.605" fill="#787878" width="0.017" height="0.002"/>
		<g>
			<text transform="matrix(1 0 0 1 9.262 44.675)" fill="#8C8C8C" font-family="'DroidSans'" font-size="3.5">RX</text>
		</g>
	</g>
	<g>
		<path id="connector49pin" fill="#787878" d="M-0.001,36v0.813h-0.021l-0.021-0.002l-0.021-0.002l-0.021-0.004l-0.02-0.004
			l-0.021-0.006l-0.02-0.006l-0.02-0.009l-0.018-0.008l-0.019-0.01l-0.017-0.01l-0.017-0.01l-0.018-0.013l-0.015-0.012l-0.015-0.014
			l-0.016-0.014l-0.014-0.015l-0.013-0.015l-0.013-0.016l-0.012-0.017l-0.01-0.018l-0.012-0.018l-0.009-0.018l-0.008-0.019
			l-0.008-0.018l-0.006-0.021l-0.006-0.02l-0.005-0.021l-0.004-0.02l-0.003-0.021l-0.001-0.021l-0.001-0.021l0.001-0.021
			l0.001-0.021l0.003-0.021l0.004-0.021l0.005-0.02l0.006-0.02l0.006-0.019l0.008-0.021l0.008-0.018l0.009-0.018l0.012-0.018
			l0.01-0.017l0.012-0.017l0.013-0.016l0.013-0.016l0.014-0.015l0.016-0.014l0.015-0.012l0.015-0.014l0.018-0.011l0.017-0.012
			l0.017-0.011l0.019-0.008l0.018-0.009l0.02-0.007l0.02-0.007l0.021-0.006l0.02-0.006l0.021-0.003l0.021-0.003L-0.021,36H-0.001
			L-0.001,36z M7.199,36.812h-7.2V36h7.2V36.812z M7.199,36.812V36h0.022l0.021,0.001l0.021,0.003l0.021,0.003l0.021,0.005
			l0.02,0.006l0.019,0.007l0.02,0.007l0.018,0.01l0.019,0.008l0.018,0.01l0.018,0.012l0.016,0.012l0.016,0.013l0.016,0.012
			l0.015,0.015L7.5,36.132l0.014,0.016l0.013,0.017l0.011,0.016l0.011,0.017l0.011,0.018l0.009,0.018l0.009,0.019l0.007,0.02
			l0.007,0.02l0.006,0.019L7.6,36.328l0.004,0.021l0.002,0.021l0.002,0.021v0.021v0.021l-0.002,0.021l-0.002,0.021L7.6,36.495
			l-0.005,0.02L7.59,36.535l-0.007,0.02l-0.007,0.018l-0.009,0.02l-0.009,0.017l-0.011,0.019l-0.011,0.017L7.526,36.65l-0.013,0.016
			L7.5,36.679l-0.013,0.015l-0.015,0.014L7.458,36.72l-0.016,0.012l-0.017,0.013l-0.017,0.01l-0.018,0.01l-0.019,0.01l-0.018,0.008
			l-0.02,0.009l-0.019,0.006L7.301,36.8l-0.02,0.004L7.26,36.808L7.24,36.81l-0.021,0.002H7.199z"/>
		<rect id="connector49terminal" x="-0.415" y="36.406" fill="#787878" width="0.017" height="0.003"/>
		<g>
			<text transform="matrix(1 0 0 1 9.262 37.4758)" fill="#8C8C8C" font-family="'DroidSans'" font-size="3.5">TX</text>
		</g>
	</g>
	<g>
		<path id="connector52pin" fill="#787878" d="M58.338,0.414h-0.813l0.001-0.021l0.001-0.021l0.004-0.021l0.003-0.02l0.005-0.021
			l0.007-0.02l0.006-0.021l0.008-0.019l0.008-0.019l0.009-0.018l0.01-0.018l0.012-0.017l0.012-0.017L57.62,0.15l0.014-0.015
			l0.013-0.015l0.015-0.015l0.016-0.013l0.016-0.012l0.016-0.013l0.018-0.01l0.017-0.011l0.019-0.009l0.019-0.009l0.02-0.008
			l0.019-0.006l0.021-0.006l0.02-0.004l0.021-0.004L57.898,0l0.021-0.001l0.021-0.001l0.021,0.001L57.982,0l0.021,0.003l0.021,0.004
			l0.021,0.004l0.019,0.006l0.02,0.006l0.02,0.008l0.018,0.009l0.019,0.009l0.017,0.011l0.019,0.01l0.016,0.013l0.016,0.012
			l0.015,0.013l0.015,0.015l0.014,0.015l0.014,0.015l0.012,0.016l0.012,0.017l0.012,0.017l0.01,0.018l0.009,0.018l0.008,0.019
			l0.008,0.019l0.007,0.021l0.006,0.02l0.004,0.021l0.004,0.02l0.003,0.021l0.001,0.021L58.338,0.414L58.338,0.414z M57.524,6.997
			V0.414h0.813v6.583H57.524z M57.524,6.997h0.813l-0.001,0.021l-0.002,0.021l-0.003,0.02L58.328,7.08L58.324,7.1L58.318,7.12
			l-0.006,0.019l-0.008,0.02l-0.008,0.018L58.289,7.19l-0.011,0.019l-0.01,0.017L58.257,7.24l-0.013,0.017L58.232,7.27l-0.014,0.016
			l-0.016,0.013L58.19,7.31l-0.016,0.013l-0.017,0.012L58.14,7.345l-0.018,0.01l-0.018,0.009l-0.018,0.01l-0.02,0.007l-0.02,0.007
			L58.033,7.39l-0.02,0.005l-0.021,0.004l-0.021,0.002L57.95,7.403h-0.021h-0.021l-0.021-0.002l-0.021-0.002l-0.021-0.004
			L57.83,7.39l-0.02-0.005l-0.02-0.007l-0.019-0.007l-0.019-0.01l-0.019-0.009l-0.017-0.01l-0.018-0.011l-0.016-0.012L57.673,7.31
			l-0.016-0.013l-0.015-0.013L57.631,7.27l-0.014-0.015L57.606,7.24l-0.012-0.016l-0.012-0.017l-0.01-0.019l-0.009-0.018
			l-0.008-0.019l-0.008-0.019l-0.007-0.02l-0.006-0.02l-0.005-0.02L57.53,7.058l-0.004-0.02l-0.001-0.021L57.524,6.997z"/>
		<rect id="connector52terminal" x="57.93" y="0" fill="none" width="0.002" height="0.016"/>
		<g>
			<text transform="matrix(1 0 0 1 54.4685 13.343)" fill="#8C8C8C" font-family="'DroidSans'" font-size="3.5">VIN</text>
		</g>
	</g>
	<g>
		<path id="connector53pin" fill="#787878" d="M79.69,86.4v0.813h-0.021l-0.02-0.002l-0.021-0.002l-0.02-0.004l-0.021-0.004
			l-0.02-0.007l-0.021-0.008l-0.018-0.006l-0.018-0.01l-0.019-0.008l-0.018-0.011l-0.017-0.01l-0.018-0.012l-0.014-0.014
			l-0.017-0.013l-0.014-0.014l-0.015-0.014l-0.014-0.017l-0.012-0.016l-0.012-0.017l-0.011-0.016L79.333,87l-0.01-0.019
			l-0.008-0.018l-0.008-0.019l-0.007-0.02l-0.006-0.021l-0.004-0.02l-0.004-0.02l-0.002-0.021l-0.002-0.02v-0.021v-0.021
			l0.002-0.021l0.002-0.021l0.004-0.021l0.004-0.02l0.006-0.021l0.007-0.02l0.008-0.019l0.008-0.018l0.01-0.019l0.01-0.018
			l0.011-0.016l0.012-0.019l0.012-0.014l0.015-0.017l0.014-0.014l0.014-0.014l0.017-0.015l0.014-0.012l0.018-0.012l0.017-0.01
			l0.018-0.011l0.019-0.01l0.018-0.008l0.019-0.008l0.02-0.006l0.021-0.007l0.02-0.004l0.02-0.004l0.021-0.002l0.02-0.002h0.015
			V86.4z M85.984,87.212H79.69V86.4h6.294V87.212z M85.984,87.212V86.4h0.021l0.021,0.002l0.02,0.002l0.021,0.005l0.02,0.004
			l0.021,0.006l0.02,0.006l0.019,0.008l0.018,0.008l0.019,0.011l0.018,0.01l0.018,0.01l0.017,0.012l0.016,0.013l0.015,0.014
			l0.016,0.014l0.012,0.015l0.015,0.016l0.012,0.014l0.012,0.019l0.01,0.016l0.011,0.019l0.01,0.018l0.008,0.018l0.008,0.019
			l0.006,0.02l0.007,0.021l0.004,0.02l0.004,0.021l0.002,0.021l0.002,0.021v0.021v0.021l-0.002,0.02l-0.002,0.021l-0.004,0.02
			l-0.004,0.021l-0.007,0.02l-0.006,0.021l-0.008,0.018l-0.008,0.018L86.342,87l-0.01,0.018l-0.01,0.017L86.31,87.05l-0.013,0.014
			l-0.014,0.017l-0.012,0.014l-0.017,0.014l-0.014,0.015l-0.016,0.012l-0.017,0.012l-0.018,0.01l-0.019,0.011l-0.018,0.008
			l-0.018,0.01L86.12,87.19l-0.02,0.008l-0.021,0.007l-0.02,0.004l-0.021,0.004l-0.02,0.002l-0.021,0.002h-0.015V87.212z"/>
		<polygon id="connector53terminal" fill="none" points="86.383,86.806 86.401,86.806 86.401,86.806 		"/>
		<g>
			<text transform="matrix(1 0 0 1 54.282 87.8772)" fill="#8C8C8C" font-family="'DroidSans'" font-size="3.5">P</text>
			<text transform="matrix(1 0 0 1 56.2996 87.8772)" fill="#8C8C8C" font-family="'DroidSans'" font-size="3.5">W</text>
			<text transform="matrix(1 0 0 1 59.3923 87.8772)" fill="#8C8C8C" font-family="'DroidSans'" font-size="3.5">M</text>
			<text transform="matrix(1 0 0 1 62.4382 87.8772)" fill="#8C8C8C" font-family="'DroidSans'" font-size="3.5">7</text>
			<text transform="matrix(1 0 0 1 64.366 87.8772)" fill="#8C8C8C" font-family="'DroidSans'" font-size="3.5">/</text>
			<text transform="matrix(1 0 0 1 65.6707 87.8772)" fill="#8C8C8C" font-family="'DroidSans'" font-size="3.5">S</text>
			<text transform="matrix(1 0 0 1 67.4871 87.8772)" fill="#8C8C8C" font-family="'DroidSans'" font-size="3.5">D</text>
			<text transform="matrix(1 0 0 1 69.8484 87.8772)" fill="#8C8C8C" font-family="'DroidSans'" font-size="3.5">A</text>
			<text transform="matrix(1 0 0 1 71.9753 87.8772)" fill="#8C8C8C" font-family="'DroidSans'" font-size="3.5">/</text>
			<text transform="matrix(1 0 0 1 73.282 87.8772)" fill="#8C8C8C" font-family="'DroidSans'" font-size="3.5">D</text>
			<text transform="matrix(1 0 0 1 75.6755 87.8772)" fill="#8C8C8C" font-family="'DroidSans'" font-size="3.5">0</text>
		</g>
	</g>
	<g>
		<path id="connector54pin" fill="#787878" d="M79.69,79.198v0.814l-0.021-0.002h-0.02l-0.021-0.004l-0.02-0.004L79.589,80
			l-0.02-0.006l-0.021-0.007l-0.018-0.008l-0.018-0.008l-0.019-0.008l-0.018-0.01l-0.017-0.013l-0.018-0.012l-0.014-0.012
			l-0.017-0.013l-0.014-0.014l-0.014-0.016l-0.015-0.015l-0.012-0.016l-0.012-0.016l-0.011-0.019l-0.01-0.016l-0.01-0.019
			l-0.008-0.018l-0.009-0.021l-0.006-0.02l-0.006-0.018l-0.004-0.021l-0.004-0.021l-0.002-0.021l-0.002-0.021V79.6v-0.021
			l0.002-0.021l0.002-0.02l0.004-0.021l0.004-0.02l0.006-0.021l0.006-0.02l0.009-0.019l0.008-0.02l0.01-0.019l0.01-0.016
			l0.011-0.018l0.012-0.017l0.012-0.016l0.015-0.015l0.014-0.016l0.014-0.012l0.017-0.015l0.014-0.012l0.018-0.012l0.017-0.01
			l0.018-0.011l0.019-0.01l0.018-0.008l0.018-0.008l0.021-0.006l0.02-0.007l0.021-0.004l0.02-0.004l0.021-0.004h0.02L79.69,79.198
			L79.69,79.198z M85.984,80.013H79.69v-0.814h6.294V80.013z M85.984,80.013v-0.814l0.021,0.003h0.021l0.02,0.004l0.021,0.004
			l0.02,0.004l0.021,0.006l0.02,0.006l0.019,0.008l0.018,0.008l0.019,0.011l0.018,0.01l0.018,0.01l0.017,0.013l0.016,0.012
			l0.015,0.014l0.016,0.012l0.012,0.017l0.015,0.014l0.012,0.017l0.012,0.016l0.01,0.018l0.011,0.017l0.01,0.018l0.008,0.021
			l0.008,0.018l0.006,0.021l0.007,0.02l0.004,0.02l0.004,0.021l0.002,0.02l0.002,0.021v0.021v0.021l-0.002,0.021l-0.002,0.021
			l-0.004,0.021l-0.004,0.021l-0.007,0.018l-0.006,0.021l-0.008,0.02l-0.008,0.019l-0.01,0.018l-0.011,0.017l-0.01,0.018
			l-0.012,0.016l-0.012,0.017l-0.015,0.014l-0.012,0.016l-0.016,0.015l-0.015,0.012l-0.016,0.012l-0.017,0.013l-0.018,0.012
			l-0.018,0.01l-0.019,0.008l-0.018,0.009l-0.019,0.008l-0.02,0.006L86.086,80l-0.02,0.006l-0.021,0.002l-0.02,0.004h-0.021
			L85.984,80.013z"/>
		<rect id="connector54terminal" x="86.383" y="79.605" fill="none" width="0.019" height="0.002"/>
		<g>
			<text transform="matrix(1 0 0 1 54.9734 80.676)" fill="#8C8C8C" font-family="'DroidSans'" font-size="3.5">PWM8/SCL/D1</text>
		</g>
	</g>
	<g>
		<path id="connector55pin" fill="#787878" d="M79.69,72v0.813h-0.021l-0.02-0.002l-0.021-0.002l-0.02-0.004l-0.021-0.004
			l-0.02-0.006l-0.021-0.006l-0.018-0.009l-0.018-0.008l-0.019-0.01l-0.018-0.01l-0.017-0.01l-0.018-0.013l-0.014-0.012
			l-0.017-0.014l-0.014-0.015l-0.015-0.014l-0.014-0.014l-0.012-0.017l-0.012-0.018l-0.011-0.017l-0.01-0.018l-0.01-0.018
			l-0.008-0.019L79.3,72.541l-0.006-0.021l-0.006-0.02l-0.004-0.021l-0.004-0.02l-0.002-0.021l-0.002-0.02v-0.021v-0.021
			l0.002-0.021l0.002-0.02l0.004-0.021l0.004-0.02l0.006-0.021l0.006-0.018l0.009-0.021l0.008-0.018l0.01-0.018l0.01-0.019
			l0.011-0.016l0.012-0.017l0.012-0.016l0.014-0.016l0.015-0.015l0.014-0.014l0.017-0.012l0.014-0.015l0.018-0.01l0.017-0.012
			l0.018-0.01l0.019-0.009l0.018-0.01l0.018-0.006l0.021-0.008l0.02-0.004l0.021-0.006l0.02-0.005l0.021-0.002L79.669,72H79.69
			L79.69,72z M85.984,72.812H79.69V72h6.294V72.812z M85.984,72.812V72h0.021l0.021,0.002l0.02,0.004l0.021,0.002l0.02,0.006
			l0.021,0.004l0.02,0.008l0.019,0.006l0.018,0.011l0.019,0.008l0.018,0.01l0.018,0.012l0.017,0.011l0.016,0.014l0.015,0.012
			l0.016,0.015l0.012,0.014l0.015,0.016l0.012,0.017l0.012,0.016l0.01,0.017l0.011,0.018l0.01,0.018l0.008,0.019l0.008,0.02
			l0.006,0.019l0.007,0.02l0.004,0.021l0.004,0.021l0.002,0.021l0.002,0.02v0.021v0.021l-0.002,0.021l-0.002,0.021l-0.004,0.021
			l-0.004,0.02l-0.007,0.021l-0.006,0.02l-0.008,0.018l-0.008,0.019l-0.01,0.018l-0.011,0.019l-0.01,0.016L86.31,72.65l-0.013,0.017
			l-0.014,0.014l-0.012,0.014l-0.017,0.015l-0.014,0.014l-0.016,0.012l-0.017,0.013l-0.018,0.01l-0.019,0.01l-0.018,0.01
			l-0.018,0.009l-0.019,0.008l-0.02,0.006l-0.021,0.006l-0.02,0.004l-0.021,0.004l-0.02,0.002l-0.021,0.002h-0.015V72.812z"/>
		<rect id="connector55terminal" x="86.383" y="72.406" fill="none" width="0.019" height="0.003"/>
		<g>
			<text transform="matrix(1 0 0 1 73.3142 73.4768)" fill="#8C8C8C" font-family="'DroidSans'" font-size="3.5">D2</text>
		</g>
	</g>
	<g>
		<path id="connector56pin" fill="#787878" d="M79.69,64.799v0.813h-0.021l-0.02-0.002l-0.021-0.004l-0.02-0.002l-0.021-0.006
			l-0.02-0.006l-0.021-0.006l-0.018-0.008l-0.018-0.009l-0.019-0.008l-0.018-0.01L79.46,65.54l-0.018-0.011l-0.014-0.014
			l-0.017-0.012l-0.014-0.015l-0.015-0.014L79.37,65.46l-0.012-0.017l-0.012-0.016l-0.011-0.016l-0.01-0.019l-0.01-0.018
			l-0.008-0.019l-0.009-0.02l-0.006-0.019l-0.006-0.02l-0.004-0.021l-0.004-0.021l-0.002-0.021l-0.002-0.02v-0.021v-0.021
			l0.002-0.021l0.002-0.021l0.004-0.021l0.004-0.02l0.006-0.02l0.006-0.021l0.009-0.018l0.008-0.019l0.01-0.018l0.01-0.019
			l0.011-0.018l0.012-0.016l0.012-0.017l0.014-0.014l0.015-0.015l0.014-0.014l0.017-0.014l0.014-0.012l0.018-0.013l0.017-0.01
			l0.018-0.01l0.019-0.01l0.018-0.009l0.018-0.008l0.021-0.006l0.02-0.006l0.021-0.004l0.02-0.004l0.021-0.002l0.02-0.002h0.021
			V64.799z M85.984,65.613H79.69V64.8h6.294V65.613z M85.984,65.613V64.8h0.021l0.021,0.002l0.02,0.002l0.021,0.004l0.02,0.004
			l0.021,0.006l0.02,0.006l0.019,0.009l0.018,0.008l0.019,0.01l0.018,0.01l0.018,0.011l0.017,0.012l0.016,0.012l0.015,0.015
			l0.016,0.014l0.012,0.014l0.015,0.015l0.012,0.016l0.012,0.018L86.338,65l0.011,0.018l0.01,0.019l0.008,0.018l0.008,0.018
			l0.006,0.021l0.007,0.02l0.004,0.021l0.004,0.02l0.002,0.021l0.002,0.02v0.021v0.021l-0.002,0.021l-0.002,0.02l-0.004,0.021
			l-0.004,0.021l-0.007,0.021l-0.006,0.018l-0.008,0.021l-0.008,0.018l-0.01,0.019l-0.011,0.018l-0.01,0.016l-0.012,0.017
			l-0.012,0.016l-0.015,0.017l-0.012,0.014l-0.016,0.014l-0.015,0.012l-0.016,0.015l-0.017,0.01l-0.018,0.012l-0.018,0.011
			l-0.019,0.008l-0.018,0.01l-0.019,0.006l-0.02,0.006l-0.021,0.006l-0.02,0.007l-0.021,0.002l-0.02,0.004l-0.021,0.002h-0.021
			V65.613z"/>
		<rect id="connector56terminal" x="86.383" y="65.204" fill="none" width="0.019" height="0.002"/>
		<g>
			<text transform="matrix(1 0 0 1 73.3142 66.2756)" fill="#8C8C8C" font-family="'DroidSans'" font-size="3.5">D3</text>
		</g>
	</g>
	<g>
		<path id="connector57pin" fill="#787878" d="M79.69,57.599v0.813h-0.021l-0.02-0.002l-0.021-0.003l-0.02-0.004l-0.021-0.004
			l-0.02-0.006l-0.021-0.006l-0.018-0.008l-0.018-0.008l-0.019-0.011l-0.018-0.01l-0.017-0.01l-0.018-0.012l-0.014-0.013
			l-0.017-0.014l-0.014-0.012l-0.015-0.017l-0.014-0.014l-0.012-0.016l-0.012-0.017l-0.011-0.018l-0.01-0.019l-0.01-0.018
			l-0.008-0.019L79.3,58.139l-0.006-0.02l-0.006-0.021l-0.004-0.019L79.28,58.06l-0.002-0.021l-0.002-0.021v-0.021v-0.021
			l0.002-0.021l0.002-0.021l0.004-0.021l0.004-0.021l0.006-0.019l0.006-0.02l0.009-0.02l0.008-0.019l0.01-0.018l0.01-0.018
			l0.011-0.017l0.012-0.016l0.012-0.017l0.014-0.016l0.015-0.014l0.014-0.015l0.017-0.012l0.014-0.013l0.018-0.012l0.017-0.012
			l0.018-0.01l0.019-0.008l0.018-0.01l0.018-0.007l0.021-0.007l0.02-0.006l0.021-0.005l0.02-0.003l0.021-0.003l0.02-0.001
			L79.69,57.599L79.69,57.599z M85.984,58.411H79.69v-0.813h6.294V58.411z M85.984,58.411v-0.813l0.021,0.001l0.021,0.001
			l0.02,0.003l0.021,0.003l0.02,0.005l0.021,0.007l0.02,0.007l0.019,0.007l0.018,0.009l0.019,0.008l0.018,0.011l0.018,0.012
			l0.017,0.011l0.016,0.013l0.015,0.013l0.016,0.014l0.012,0.014l0.015,0.017l0.012,0.016l0.012,0.017l0.01,0.017l0.011,0.017
			l0.01,0.019l0.008,0.018l0.008,0.021l0.006,0.019l0.007,0.02l0.004,0.02l0.004,0.021l0.002,0.021l0.002,0.021v0.021v0.021
			l-0.002,0.021l-0.002,0.021l-0.004,0.02l-0.004,0.02l-0.007,0.02l-0.006,0.02l-0.008,0.019l-0.008,0.02l-0.01,0.019l-0.011,0.016
			l-0.01,0.019l-0.012,0.016l-0.012,0.016l-0.015,0.015l-0.012,0.016l-0.016,0.012l-0.015,0.015l-0.016,0.012l-0.017,0.012
			l-0.018,0.011l-0.018,0.01l-0.019,0.01l-0.018,0.008l-0.019,0.008l-0.02,0.007l-0.021,0.006l-0.02,0.004l-0.021,0.004l-0.02,0.002
			l-0.021,0.002l-0.021,0.002V58.411z"/>
		<rect id="connector57terminal" x="86.383" y="58.005" fill="none" width="0.019" height="0.002"/>
		<g>
			<text transform="matrix(1 0 0 1 73.3142 59.0764)" fill="#8C8C8C" font-family="'DroidSans'" font-size="3.5">D4</text>
		</g>
	</g>
	<g>
		<path id="connector58pin" fill="#787878" d="M79.69,50.4v0.813h-0.021l-0.02-0.002l-0.021-0.003l-0.02-0.003L79.588,51.2
			l-0.02-0.007l-0.021-0.007L79.53,51.18l-0.018-0.009l-0.019-0.008l-0.018-0.011l-0.017-0.011l-0.018-0.012l-0.014-0.013
			l-0.017-0.013l-0.014-0.014l-0.015-0.014l-0.014-0.017l-0.012-0.016l-0.012-0.017l-0.011-0.016L79.333,51l-0.01-0.019
			l-0.008-0.018l-0.008-0.02l-0.007-0.019l-0.006-0.021l-0.004-0.02l-0.004-0.021l-0.002-0.021l-0.002-0.021v-0.021v-0.021
			l0.002-0.021l0.002-0.021l0.004-0.02l0.004-0.021l0.006-0.02l0.007-0.02l0.008-0.019l0.008-0.018l0.01-0.019l0.01-0.018
			l0.011-0.018l0.012-0.017l0.012-0.015l0.015-0.016l0.014-0.014l0.014-0.014l0.017-0.015l0.014-0.012l0.018-0.012l0.017-0.011
			l0.018-0.01l0.019-0.01l0.018-0.008l0.019-0.008l0.02-0.007l0.021-0.006l0.02-0.004l0.02-0.004l0.021-0.002l0.02-0.002h0.015V50.4
			z M85.984,51.212H79.69V50.4h6.294V51.212z M85.984,51.212V50.4h0.021l0.021,0.002l0.02,0.002l0.021,0.005l0.02,0.004l0.021,0.006
			l0.02,0.006l0.019,0.008l0.018,0.008l0.019,0.011l0.018,0.01l0.018,0.01l0.017,0.012l0.016,0.013l0.015,0.014l0.016,0.014
			l0.012,0.015l0.015,0.015l0.012,0.015l0.012,0.018l0.01,0.017l0.011,0.019l0.01,0.018l0.008,0.018l0.008,0.019l0.006,0.02
			l0.007,0.021l0.004,0.02l0.004,0.021l0.002,0.021l0.002,0.021v0.021v0.021l-0.002,0.021l-0.002,0.021l-0.004,0.021l-0.004,0.021
			l-0.007,0.02l-0.006,0.02l-0.008,0.019l-0.008,0.019L86.342,51l-0.01,0.018l-0.01,0.017l-0.012,0.017l-0.013,0.015l-0.014,0.017
			l-0.012,0.014l-0.017,0.014l-0.014,0.013l-0.016,0.013l-0.017,0.012l-0.018,0.012l-0.019,0.01l-0.018,0.008l-0.018,0.009
			l-0.019,0.007l-0.02,0.007l-0.021,0.007l-0.02,0.005l-0.021,0.003l-0.02,0.003l-0.021,0.002h-0.015V51.212z"/>
		<rect id="connector58terminal" x="86.383" y="50.805" fill="none" width="0.019" height="0.001"/>
		<g>
			<text transform="matrix(1 0 0 1 73.3142 51.8762)" fill="#8C8C8C" font-family="'DroidSans'" font-size="3.5">D5</text>
		</g>
	</g>
	<g>
		<path id="connector59pin" fill="#787878" d="M79.69,43.198v0.813l-0.021-0.001l-0.02-0.001l-0.021-0.003l-0.02-0.004L79.589,44
			l-0.02-0.006l-0.021-0.007l-0.018-0.008l-0.018-0.008l-0.019-0.009l-0.018-0.01l-0.017-0.012l-0.018-0.012l-0.014-0.012
			l-0.017-0.014l-0.014-0.014l-0.014-0.015l-0.015-0.015l-0.012-0.016l-0.012-0.016l-0.011-0.019l-0.01-0.017l-0.01-0.019
			l-0.008-0.018l-0.009-0.02l-0.006-0.02l-0.006-0.019l-0.004-0.021l-0.004-0.021l-0.002-0.021l-0.002-0.021v-0.021v-0.021
			l0.002-0.021l0.002-0.02l0.004-0.021l0.004-0.02l0.006-0.021l0.006-0.019l0.009-0.02l0.008-0.019l0.01-0.019l0.01-0.017
			l0.011-0.018l0.012-0.016l0.012-0.016l0.015-0.016l0.014-0.015l0.014-0.013l0.017-0.014l0.014-0.012l0.018-0.012l0.017-0.011
			l0.018-0.011l0.019-0.009l0.018-0.008l0.018-0.008l0.021-0.006l0.02-0.007l0.021-0.005l0.02-0.003l0.021-0.004l0.02-0.001
			L79.69,43.198z M85.984,44.012H79.69v-0.813h6.294V44.012z M85.984,44.012v-0.813l0.021,0.002l0.021,0.001l0.02,0.004l0.021,0.003
			l0.02,0.005l0.021,0.006l0.02,0.006l0.019,0.008l0.018,0.009l0.019,0.009l0.018,0.01l0.018,0.011l0.017,0.013l0.016,0.012
			l0.015,0.013l0.016,0.013l0.012,0.016l0.015,0.015l0.012,0.017l0.012,0.016l0.01,0.017l0.011,0.018l0.01,0.018l0.008,0.02
			l0.008,0.019l0.006,0.02l0.007,0.02l0.004,0.02l0.004,0.021l0.002,0.02l0.002,0.021v0.021v0.021l-0.002,0.021l-0.002,0.021
			l-0.004,0.021l-0.004,0.021l-0.007,0.019l-0.006,0.021l-0.008,0.019l-0.008,0.019l-0.01,0.018l-0.011,0.018l-0.01,0.018
			l-0.012,0.016l-0.012,0.017l-0.015,0.014l-0.012,0.016l-0.016,0.014l-0.015,0.013l-0.016,0.012l-0.017,0.013l-0.018,0.011
			l-0.018,0.01l-0.019,0.009l-0.018,0.009l-0.019,0.008l-0.02,0.006L86.086,44l-0.02,0.004l-0.021,0.004l-0.02,0.003l-0.021,0.001
			H85.984z"/>
		<rect id="connector59terminal" x="86.383" y="43.605" fill="none" width="0.019" height="0.002"/>
		<g>
			<text transform="matrix(1 0 0 1 73.3142 44.675)" fill="#8C8C8C" font-family="'DroidSans'" font-size="3.5">D6</text>
		</g>
	</g>
	<g>
		<path id="connector60pin" fill="#787878" d="M79.69,36v0.813h-0.021l-0.02-0.002l-0.021-0.002l-0.02-0.004L79.588,36.8
			l-0.02-0.005l-0.021-0.007l-0.018-0.008l-0.018-0.009l-0.019-0.009l-0.018-0.01l-0.017-0.011l-0.018-0.012l-0.014-0.013
			l-0.017-0.013l-0.014-0.015l-0.015-0.014l-0.014-0.015l-0.012-0.017l-0.012-0.017l-0.011-0.017l-0.01-0.018l-0.01-0.018
			l-0.008-0.019L79.3,36.54l-0.006-0.02l-0.006-0.02l-0.004-0.021l-0.004-0.02l-0.002-0.021l-0.002-0.02v-0.021v-0.021l0.002-0.021
			l0.002-0.021l0.004-0.021l0.004-0.02l0.006-0.021l0.006-0.019l0.009-0.02l0.008-0.018l0.01-0.018l0.01-0.019l0.011-0.016
			l0.012-0.018l0.012-0.015l0.014-0.016l0.015-0.015l0.014-0.014l0.017-0.013l0.014-0.014l0.018-0.011l0.017-0.011l0.018-0.01
			l0.019-0.01l0.018-0.009l0.018-0.007l0.021-0.007l0.02-0.005l0.021-0.005l0.02-0.004l0.021-0.003L79.669,36H79.69z M85.984,36.812
			H79.69V36h6.294V36.812z M85.984,36.812V36h0.021l0.021,0.002l0.02,0.003l0.021,0.003l0.02,0.005l0.021,0.005l0.02,0.007
			l0.019,0.007l0.018,0.01l0.019,0.009l0.018,0.01l0.018,0.011l0.017,0.012l0.016,0.013l0.015,0.013l0.016,0.015l0.012,0.014
			l0.015,0.016l0.012,0.016l0.012,0.017l0.01,0.017l0.011,0.018l0.01,0.018l0.008,0.019l0.008,0.019l0.006,0.02l0.007,0.02
			l0.004,0.021l0.004,0.021l0.002,0.021l0.002,0.02v0.021v0.021l-0.002,0.021l-0.002,0.021l-0.004,0.021l-0.004,0.02l-0.007,0.021
			l-0.006,0.019l-0.008,0.02l-0.008,0.018l-0.01,0.018l-0.011,0.019l-0.01,0.016l-0.012,0.018l-0.012,0.016l-0.015,0.015
			l-0.012,0.015l-0.016,0.014l-0.015,0.013l-0.016,0.014l-0.017,0.011l-0.018,0.011l-0.018,0.01l-0.019,0.01l-0.018,0.009
			l-0.019,0.007l-0.02,0.007l-0.021,0.005l-0.02,0.005l-0.021,0.005l-0.02,0.002l-0.021,0.002h-0.021V36.812z"/>
		<rect id="connector60terminal" x="86.383" y="36.405" fill="none" width="0.019" height="0.002"/>
		<g>
			<text transform="matrix(1 0 0 1 73.3142 37.4758)" fill="#8C8C8C" font-family="'DroidSans'" font-size="3.5">D7</text>
		</g>
	</g>
	<g>
		<g>
			<path id="connector51pin" fill="#787878" d="M43.107,129.186h0.813v0.021l-0.002,0.021l-0.002,0.021l-0.004,0.02l-0.004,0.021
				l-0.006,0.02l-0.008,0.021l-0.006,0.019l-0.011,0.019l-0.008,0.018l-0.01,0.017l-0.01,0.018l-0.013,0.017l-0.014,0.016
				l-0.012,0.015l-0.015,0.015l-0.014,0.015l-0.016,0.013l-0.017,0.012l-0.016,0.012l-0.016,0.011l-0.019,0.011l-0.018,0.009
				l-0.019,0.008l-0.018,0.009l-0.021,0.006l-0.02,0.006l-0.021,0.004l-0.02,0.004l-0.021,0.003l-0.02,0.001l-0.021,0.001
				l-0.021-0.001l-0.021-0.001l-0.021-0.003l-0.021-0.004l-0.02-0.004l-0.021-0.006l-0.02-0.006l-0.018-0.009l-0.019-0.008
				l-0.018-0.009l-0.019-0.011l-0.016-0.011l-0.019-0.012l-0.014-0.012l-0.016-0.013l-0.015-0.015l-0.014-0.015l-0.014-0.015
				l-0.013-0.016l-0.012-0.017l-0.01-0.018l-0.01-0.017l-0.011-0.018l-0.008-0.019l-0.008-0.019l-0.006-0.021l-0.006-0.02
				l-0.004-0.021l-0.004-0.02l-0.003-0.021l-0.002-0.021v-0.021H43.107z M43.92,122.811v6.375h-0.813v-6.375H43.92L43.92,122.811z
				 M43.92,122.811h-0.813v-0.021l0.002-0.021l0.002-0.02l0.004-0.021l0.004-0.02l0.006-0.021l0.006-0.019l0.009-0.02l0.008-0.018
				l0.01-0.019l0.01-0.018l0.01-0.017l0.013-0.017l0.012-0.016l0.014-0.016l0.015-0.015l0.014-0.013l0.016-0.013l0.015-0.014
				l0.018-0.011l0.017-0.011l0.018-0.011l0.018-0.009l0.019-0.009l0.018-0.007l0.021-0.007l0.02-0.005l0.021-0.006l0.02-0.004
				l0.021-0.002l0.02-0.002h0.021h0.021l0.021,0.002l0.021,0.002l0.021,0.004l0.02,0.006l0.021,0.005l0.02,0.007l0.019,0.007
				l0.018,0.009l0.018,0.009l0.019,0.011l0.016,0.011l0.017,0.011l0.016,0.014l0.016,0.013l0.015,0.013l0.014,0.015l0.012,0.016
				l0.015,0.016l0.012,0.017l0.01,0.017l0.01,0.018l0.009,0.019l0.01,0.018l0.006,0.02l0.008,0.019l0.006,0.021l0.005,0.02
				l0.004,0.021l0.002,0.02l0.002,0.021v0.021H43.92z"/>
			<rect id="connector51terminal" x="43.513" y="129.584" fill="#787878" width="0" height="0.016"/>
			<g>
				<text transform="matrix(1 0 0 1 39.9768 118.9124)" fill="#8C8C8C" font-family="'DroidSans'" font-size="3.5">GND</text>
			</g>
		</g>
		<g>
			<path id="connector61pin" fill="#787878" d="M43.92,122.82h-0.813l0.001-0.021l0.001-0.021l0.004-0.021l0.003-0.021l0.005-0.02
				l0.006-0.021l0.006-0.02l0.009-0.018l0.008-0.019l0.009-0.018l0.01-0.019l0.012-0.016l0.011-0.019l0.013-0.014l0.013-0.016
				l0.014-0.015l0.015-0.014l0.015-0.014l0.017-0.013l0.016-0.012l0.018-0.01l0.017-0.01l0.018-0.011l0.02-0.008l0.019-0.008
				l0.02-0.006l0.02-0.006l0.021-0.004l0.021-0.004l0.021-0.002l0.021-0.003h0.021h0.021l0.021,0.003l0.021,0.002l0.021,0.004
				l0.02,0.004l0.021,0.006l0.02,0.006l0.02,0.008l0.018,0.008l0.019,0.011l0.017,0.01l0.017,0.01l0.018,0.012l0.016,0.013
				l0.014,0.014l0.016,0.014l0.014,0.015l0.014,0.016l0.012,0.014l0.012,0.019l0.01,0.016l0.012,0.019l0.009,0.018l0.008,0.019
				l0.008,0.018l0.006,0.02l0.006,0.021l0.005,0.02l0.004,0.021l0.003,0.021l0.001,0.021L43.92,122.82z M43.106,129.194v-6.374
				h0.813v6.374H43.106z M43.106,129.194h0.813l-0.001,0.021l-0.001,0.021l-0.003,0.021l-0.004,0.02l-0.004,0.021l-0.006,0.02
				l-0.006,0.021l-0.008,0.018l-0.009,0.019l-0.009,0.018l-0.011,0.019l-0.01,0.018l-0.013,0.016l-0.012,0.017l-0.014,0.014
				l-0.014,0.016l-0.015,0.013l-0.014,0.014l-0.017,0.012l-0.017,0.013l-0.018,0.01l-0.017,0.01l-0.018,0.01l-0.02,0.009
				l-0.018,0.008l-0.021,0.006l-0.02,0.006l-0.021,0.004l-0.02,0.004l-0.021,0.002l-0.021,0.002h-0.021h-0.021l-0.021-0.002
				l-0.02-0.002L43.42,129.6l-0.02-0.004l-0.021-0.006l-0.019-0.006l-0.02-0.008l-0.019-0.009l-0.018-0.01l-0.018-0.01l-0.017-0.01
				l-0.017-0.013l-0.016-0.012l-0.015-0.014l-0.016-0.013l-0.013-0.016l-0.013-0.014l-0.014-0.017l-0.011-0.016l-0.011-0.018
				l-0.011-0.019l-0.009-0.018l-0.008-0.019l-0.008-0.018l-0.006-0.021l-0.006-0.02l-0.005-0.021l-0.004-0.02l-0.004-0.021
				l-0.001-0.021L43.106,129.194z"/>
			<path id="connector61terminal" fill="#787878" d="M43.92,122.82h-0.813l0.001-0.021l0.001-0.021l0.004-0.021l0.003-0.021
				l0.005-0.02l0.006-0.021l0.006-0.02l0.009-0.018l0.008-0.019l0.009-0.018l0.01-0.019l0.012-0.016l0.011-0.019l0.013-0.014
				l0.013-0.016l0.014-0.015l0.015-0.014l0.015-0.014l0.017-0.013l0.016-0.012l0.018-0.01l0.017-0.01l0.018-0.011l0.02-0.008
				l0.019-0.008l0.02-0.006l0.02-0.006l0.021-0.004l0.021-0.004l0.021-0.002l0.021-0.003h0.021h0.021l0.021,0.003l0.021,0.002
				l0.021,0.004l0.02,0.004l0.021,0.006l0.02,0.006l0.02,0.008l0.018,0.008l0.019,0.011l0.017,0.01l0.017,0.01l0.018,0.012
				l0.016,0.013l0.014,0.014l0.016,0.014l0.014,0.015l0.014,0.016l0.012,0.014l0.012,0.019l0.01,0.016l0.012,0.019l0.009,0.018
				l0.008,0.019l0.008,0.018l0.006,0.02l0.006,0.021l0.005,0.02l0.004,0.021l0.003,0.021l0.001,0.021L43.92,122.82z M43.106,129.194
				v-0.968h0.813v0.968H43.106z M43.106,129.194h0.813l-0.001,0.021l-0.001,0.021l-0.003,0.021l-0.004,0.02l-0.004,0.021
				l-0.006,0.02l-0.006,0.021l-0.008,0.018l-0.009,0.019l-0.009,0.018l-0.011,0.019l-0.01,0.018l-0.013,0.016l-0.012,0.017
				l-0.014,0.014l-0.014,0.016l-0.015,0.013l-0.014,0.014l-0.017,0.012l-0.017,0.013l-0.018,0.01l-0.017,0.01l-0.018,0.01
				l-0.02,0.009l-0.018,0.008l-0.021,0.006l-0.02,0.006l-0.021,0.004l-0.02,0.004l-0.021,0.002l-0.021,0.002h-0.021h-0.021
				l-0.021-0.002l-0.02-0.002L43.42,129.6l-0.02-0.004l-0.021-0.006l-0.019-0.006l-0.02-0.008l-0.019-0.009l-0.018-0.01l-0.018-0.01
				l-0.017-0.01l-0.017-0.013l-0.016-0.012l-0.015-0.014l-0.016-0.013l-0.013-0.016l-0.013-0.014l-0.014-0.017l-0.011-0.016
				l-0.011-0.018l-0.011-0.019l-0.009-0.018l-0.008-0.019l-0.008-0.018l-0.006-0.021l-0.006-0.02l-0.005-0.021l-0.004-0.02
				l-0.004-0.021l-0.001-0.021L43.106,129.194z"/>
		</g>
	</g>
	<g>
		<path id="connector62pin" fill="#787878" d="M43.2,6.997h0.813v0.021l-0.002,0.021L44.01,7.06L44.006,7.08L44.001,7.1L43.995,7.12
			l-0.006,0.02l-0.008,0.019l-0.008,0.018l-0.01,0.018l-0.011,0.019l-0.01,0.016l-0.012,0.019L43.92,7.26l-0.015,0.016L43.892,7.29
			l-0.012,0.008l-0.016,0.014L43.85,7.323l-0.018,0.013l-0.017,0.01l-0.016,0.008l-0.019,0.01l-0.018,0.009L43.747,7.38l-0.02,0.006
			l-0.021,0.006l-0.02,0.004L43.667,7.4l-0.021,0.002l-0.021,0.002h-0.021h-0.021l-0.021-0.002L43.541,7.4L43.52,7.396L43.5,7.392
			l-0.019-0.006L43.469,7.38l-0.021-0.008L43.43,7.364l-0.019-0.01l-0.017-0.01l-0.017-0.01l-0.017-0.013L43.346,7.31L43.33,7.296
			l-0.014-0.015l-0.014-0.014L43.29,7.252l-0.013-0.015L43.266,7.22l-0.012-0.016l-0.011-0.019l-0.008-0.018L43.227,7.15
			L43.22,7.132l-0.007-0.021l-0.007-0.02l-0.005-0.021l-0.003-0.02l-0.003-0.021l-0.001-0.02L43.2,6.997L43.2,6.997z M44.013,0.416
			v6.581H43.2V0.416H44.013z M44.013,0.416H43.2l0.001-0.021l0.001-0.021l0.003-0.021l0.003-0.02l0.006-0.021l0.006-0.02
			l0.007-0.021l0.007-0.018l0.009-0.019L43.25,0.22l0.011-0.018l0.012-0.019l0.011-0.016l0.014-0.017l0.012-0.014l0.014-0.016
			l0.015-0.013l0.016-0.014l0.016-0.012l0.017-0.013l0.017-0.01l0.017-0.01l0.019-0.01l0.018-0.008l0.021-0.009l0.019-0.006
			l0.02-0.006l0.02-0.004l0.021-0.004l0.021-0.002l0.021-0.002h0.021h0.021l0.021,0.002l0.021,0.002l0.02,0.004l0.021,0.004
			l0.02,0.006l0.021,0.006l0.018,0.009l0.02,0.008l0.017,0.01l0.018,0.01l0.018,0.01l0.017,0.013l0.016,0.012l0.015,0.014
			l0.015,0.013l0.014,0.016l0.014,0.014l0.012,0.017l0.013,0.016l0.01,0.019l0.01,0.018l0.01,0.018l0.008,0.019l0.009,0.018
			l0.006,0.021l0.006,0.02l0.004,0.021l0.004,0.02l0.002,0.021l0.002,0.021v0.021H44.013z"/>
		<rect id="connector62terminal" x="43.606" y="0" fill="none" width="0.002" height="0.018"/>
		<g>
			<text transform="matrix(1 0 0 1 39.4851 13.343)" fill="#8C8C8C" font-family="'DroidSans'" font-size="3.5">3V3*</text>
		</g>
	</g>
	<g>
		<path id="connector63pin" fill="#787878" d="M7.216,22.412V21.6h0.021l0.02,0.002l0.021,0.003l0.02,0.003l0.021,0.005l0.02,0.007
			l0.021,0.007l0.018,0.007l0.019,0.009l0.018,0.008L7.43,21.66l0.016,0.011l0.018,0.012l0.015,0.013l0.016,0.013l0.014,0.014
			l0.015,0.014l0.014,0.017l0.012,0.016l0.013,0.017L7.57,21.8l0.01,0.018l0.01,0.019l0.009,0.018l0.008,0.02l0.006,0.019
			l0.006,0.021l0.004,0.02l0.004,0.021l0.002,0.021l0.002,0.021v0.021v0.021l-0.01,0.011l-0.002,0.021l-0.004,0.021l-0.004,0.02
			l-0.006,0.021l-0.006,0.02L7.59,22.167l-0.008,0.018l-0.01,0.019l-0.01,0.018l-0.011,0.017l-0.01,0.013L7.53,22.265L7.516,22.28
			l-0.015,0.015L7.49,22.307L7.474,22.32L7.46,22.332l-0.018,0.012l-0.017,0.01l-0.018,0.01L7.39,22.374l-0.019,0.008L7.354,22.39
			l-0.021,0.006L7.318,22.4l-0.021,0.004l-0.02,0.005L7.257,22.41l-0.02,0.002H7.216z M0.017,21.6h7.198v0.813H0.017V21.6z
			 M0.017,21.6v0.813h-0.021l-0.021-0.002l-0.021-0.002l-0.02-0.005l-0.021-0.004l-0.02-0.006l-0.021-0.006l-0.018-0.008
			l-0.019-0.008l-0.018-0.011l-0.018-0.01l-0.019-0.01l-0.016-0.012l-0.017-0.013l-0.014-0.014l-0.016-0.014l-0.013-0.015
			l-0.014-0.015l-0.012-0.015l-0.013-0.018l-0.01-0.017l-0.01-0.019l-0.01-0.018l-0.009-0.018l-0.008-0.019l-0.006-0.02
			l-0.006-0.021l-0.004-0.02l-0.004-0.021l-0.002-0.021l-0.002-0.021v-0.021v-0.021l0.002-0.021l0.002-0.021l0.004-0.021
			l0.004-0.021l0.006-0.02l0.006-0.02l0.008-0.019l0.009-0.019l0.01-0.018l0.01-0.019l0.01-0.016l0.013-0.016l0.012-0.017
			l0.014-0.016l0.013-0.014l0.016-0.015l0.014-0.012l0.017-0.013l0.016-0.013l0.019-0.011l0.018-0.01l0.018-0.008l0.019-0.01
			l0.018-0.007l0.021-0.007l0.02-0.006l0.021-0.005l0.02-0.003l0.021-0.003l0.021-0.002h0.021V21.6z"/>
		<rect id="connector63terminal" x="-0.399" y="22.006" fill="#787878" width="0.018" height="0.001"/>
		<g>
			<text transform="matrix(1 0 0 1 9.262 23.0754)" fill="#8C8C8C" font-family="'DroidSans'" font-size="3.5">RST</text>
		</g>
	</g>
	<g>
		<path id="connector64pin" fill="#787878" d="M28.801,6.997h0.813l-0.001,0.021l-0.001,0.021L29.61,7.06L29.607,7.08L29.601,7.1
			L29.595,7.12l-0.006,0.02l-0.008,0.019l-0.008,0.018L29.566,7.19l-0.011,0.019l-0.011,0.016l-0.012,0.019l-0.012,0.014
			l-0.014,0.016l-0.013,0.015L29.48,7.3l-0.016,0.014l-0.016,0.013l-0.017,0.012l-0.017,0.01l-0.017,0.01L29.38,7.368l-0.019,0.008
			L29.347,7.38l-0.019,0.006l-0.021,0.006l-0.02,0.004L29.267,7.4l-0.02,0.002l-0.021,0.002h-0.021h-0.021l-0.021-0.002L29.142,7.4
			l-0.021-0.004l-0.021-0.004l-0.019-0.006l-0.02-0.006l-0.02-0.008l-0.018-0.009l-0.019-0.01l-0.017-0.01l-0.019-0.01l-0.016-0.013
			L28.941,7.31l-0.015-0.014L28.92,7.284L28.906,7.27l-0.014-0.016L28.881,7.24l-0.012-0.018l-0.009-0.014L28.85,7.19l-0.009-0.018
			l-0.008-0.019l-0.008-0.018l-0.006-0.02l-0.006-0.021l-0.005-0.02l-0.004-0.021l-0.003-0.021l-0.001-0.021V6.997L28.801,6.997z
			 M29.615,0.416v6.581h-0.813V0.416H29.615z M29.615,0.416h-0.813l0.001-0.021l0.001-0.021l0.003-0.021l0.005-0.02l0.004-0.021
			l0.006-0.02l0.006-0.021l0.008-0.018l0.008-0.019l0.009-0.018l0.012-0.018l0.01-0.019l0.012-0.016l0.013-0.017l0.013-0.014
			l0.014-0.016L28.94,0.11l0.014-0.014l0.016-0.012l0.017-0.013l0.018-0.01l0.018-0.01l0.018-0.01l0.018-0.008l0.02-0.009
			l0.02-0.006l0.02-0.006l0.02-0.004l0.021-0.004l0.021-0.002l0.021-0.002h0.021h0.021l0.021,0.002l0.021,0.002l0.021,0.004
			l0.021,0.004l0.02,0.006l0.02,0.006l0.019,0.009l0.02,0.008l0.018,0.01l0.017,0.01l0.018,0.01l0.016,0.013l0.017,0.012
			l0.015,0.014l0.015,0.013l0.014,0.016l0.013,0.014l0.012,0.017l0.013,0.016l0.011,0.019l0.01,0.018l0.009,0.018L29.6,0.256
			l0.009,0.018l0.006,0.021l0.006,0.02l0.005,0.021l0.003,0.02l0.004,0.021l0.001,0.021L29.615,0.416z"/>
		<g>
			<text transform="matrix(1 0 0 1 26.1521 13.343)" fill="#8C8C8C" font-family="'DroidSans'" font-size="3.5">3V3</text>
		</g>
		<rect id="connector64terminal" x="29.206" y="0" fill="none" width="0.002" height="0.018"/>
	</g>
</g>
</svg>
