<?xml version="1.0" encoding="utf-8"?>
<!DOCTYPE svg PUBLIC "-//W3C//DTD SVG 1.1//EN" "http://www.w3.org/Graphics/SVG/1.1/DTD/svg11.dtd">
<svg version="1.2" baseProfile="tiny" id="Layer_1" xmlns="http://www.w3.org/2000/svg" xmlns:xlink="http://www.w3.org/1999/xlink"
	 x="0px" y="0px" width="0.428319444in" height="0.176222222in" viewBox="0 0 30.839 12.688" enable-background="new 0 0 30.839 12.688" xml:space="preserve">
<rect id="connector0terminal" x="0.005" y="6.89" fill="#B23820" width="2.49" height="2.498"/>
<rect id="connector1terminal" x="28.349" y="6.89" fill="#B23820" width="2.49" height="2.498"/>
<rect id="connector0pin" y="6.862" fill="#B23820" width="3.56" height="2.5"/>
<rect id="connector1pin" x="26.848" y="6.888" fill="#B23820" width="3.989" height="2.5"/>
<g id="breadboard">
	<path fill="none" stroke="#752119" stroke-width="2.5" stroke-linecap="round" d="M7.428,1.301
		C9.275,0.63,11.18,6.684,9.196,11.438"/>
	<path fill="none" stroke="#752119" stroke-width="2.5" stroke-linecap="round" d="M11.216,1.301
		c1.847-0.671,3.752,5.383,1.768,10.137"/>
	<path fill="none" stroke="#752119" stroke-width="2.5" stroke-linecap="round" d="M15.005,1.301
		c1.845-0.671,3.75,5.383,1.765,10.137"/>
	<path fill="none" stroke="#752119" stroke-width="2.5" stroke-linecap="round" d="M18.751,1.301
		c1.847-0.671,3.75,5.383,1.767,10.137"/>
	<path fill="none" stroke="#752119" stroke-width="2.5" stroke-linecap="round" d="M22.541,1.301c1.391,0,1.85,1.331,2.114,4.501
		c0.062,0.729,0.25,2.343,1.882,2.343c2.838,0,3.053-0.016,3.053-0.016"/>
	<path fill="none" stroke="#B23820" stroke-width="2.5" stroke-linecap="round" d="M25.333,7.698
		c0.273,0.268,0.656,0.446,1.201,0.446c2.838,0,3.053-0.016,3.053-0.016"/>
	<path fill="none" stroke="#B23820" stroke-width="2.5" stroke-linecap="round" d="M7.429,1.301
		c-0.71,0.565-1.205,1.588-1.377,4.587C5.896,6.926,5.613,8.129,3.548,8.129c-1.948,0-2.298,0-2.298,0"/>
	<path fill="none" stroke="#B23820" stroke-width="2.5" stroke-linecap="round" d="M9.089,11.438
		C8.733,6.515,9.657,2.597,11.216,1.301"/>
	<g opacity="0.3">
		<path fill="#68271E" d="M9.196,11.598c-0.029,0-0.06,0.001-0.092,0.001c-0.448,0-0.841-0.118-1.077-0.294
			c0.012,0.119,0.02,0.241,0.033,0.359c0.055,0.459,0.513,0.801,1.038,0.801c0.025,0,0.048,0,0.073-0.001
			c0.56-0.034,0.991-0.441,0.971-0.931c-0.003-0.063-0.002-0.131-0.005-0.194C9.915,11.483,9.586,11.585,9.196,11.598z"/>
	</g>
	<path fill="none" stroke="#B23820" stroke-width="2.5" stroke-linecap="round" d="M12.878,11.438
		c-0.356-4.923,0.567-8.841,2.127-10.137"/>
	<path fill="none" stroke="#B23820" stroke-width="2.5" stroke-linecap="round" d="M16.666,11.438
		c-0.354-4.923,0.567-8.841,2.127-10.137"/>
	<path fill="none" stroke="#B23820" stroke-width="2.5" stroke-linecap="round" d="M20.455,11.438
		c-0.357-4.923,0.565-8.841,2.127-10.137"/>
	<path opacity="0.5" fill="#E0A69B" d="M5.624,2.627c0.519-1.375,1.419-2.45,2.041-2.281s0.288,0.324-0.128,0.88
		c-0.416,0.557-0.688,1.106-1.11,1.401C6.005,2.922,5.5,2.958,5.624,2.627z"/>
	<path opacity="0.5" fill="#E0A69B" d="M9.374,2.627c0.519-1.375,1.419-2.45,2.041-2.281s0.288,0.324-0.128,0.88
		c-0.416,0.557-0.687,1.105-1.109,1.401C9.756,2.923,9.25,2.958,9.374,2.627z"/>
	<path opacity="0.5" fill="#E0A69B" d="M13.124,2.627c0.519-1.375,1.419-2.45,2.041-2.281s0.288,0.324-0.128,0.88
		c-0.416,0.557-0.687,1.105-1.109,1.401C13.506,2.923,13,2.958,13.124,2.627z"/>
	<path opacity="0.5" fill="#E0A69B" d="M16.873,2.627c0.52-1.375,1.42-2.45,2.041-2.281s0.287,0.324-0.129,0.88
		c-0.416,0.557-0.687,1.105-1.109,1.401C17.251,2.923,16.75,2.958,16.873,2.627z"/>
	<path opacity="0.5" fill="#E0A69B" d="M20.623,2.627c0.52-1.375,1.42-2.45,2.041-2.281s0.287,0.324-0.129,0.88
		c-0.416,0.557-0.687,1.105-1.109,1.401C21.001,2.923,20.5,2.958,20.623,2.627z"/>
	<g opacity="0.3">
		<path fill="#68271E" d="M12.984,11.598c-0.029,0-0.06,0.001-0.092,0.001c-0.448,0-0.841-0.118-1.077-0.294
			c0.012,0.119,0.02,0.241,0.033,0.359c0.055,0.459,0.513,0.801,1.038,0.801c0.025,0,0.048,0,0.073-0.001
			c0.56-0.034,0.991-0.441,0.971-0.931c-0.003-0.063-0.002-0.131-0.005-0.194C13.703,11.483,13.374,11.585,12.984,11.598z"/>
	</g>
	<g opacity="0.3">
		<path fill="#68271E" d="M16.772,11.598c-0.028,0-0.062,0.001-0.092,0.001c-0.448,0-0.84-0.118-1.076-0.294
			c0.012,0.119,0.02,0.241,0.033,0.359c0.055,0.459,0.513,0.801,1.034,0.801c0.025,0,0.05,0,0.074-0.001
			c0.56-0.034,0.99-0.441,0.971-0.931c-0.004-0.063-0.002-0.132-0.004-0.194C17.49,11.483,17.162,11.585,16.772,11.598z"/>
	</g>
	<g opacity="0.3">
		<path fill="#68271E" d="M20.559,11.598c-0.029,0-0.06,0.001-0.093,0.001c-0.441,0-0.829-0.115-1.065-0.288
			c0.013,0.116,0.011,0.238,0.022,0.354c0.056,0.459,0.515,0.801,1.037,0.801c0.025,0,0.049,0,0.074-0.001
			c0.56-0.034,0.99-0.441,0.971-0.931c-0.004-0.063-0.002-0.132-0.004-0.194C21.279,11.483,20.951,11.585,20.559,11.598z"/>
	</g>
</g>
</svg>
