<?xml version='1.0' encoding='utf-8'?>
<!DOCTYPE svg PUBLIC '-//W3C//DTD SVG 1.1//EN' 'http://www.w3.org/Graphics/SVG/1.1/DTD/svg11.dtd'>
<!-- Generator: Adobe Illustrator 15.0.1, SVG Export Plug-In . SVG Version: 6.00 Build 0)  -->
<svg xmlns="http://www.w3.org/2000/svg" width="2.2091in" xml:space="preserve" xmlns:xml="http://www.w3.org/XML/1998/namespace" x="0px" version="1.1" y="0px" height="0.984264in" viewBox="0 0 159.055 70.867" id="Ebene_1" enable-background="new 0 0 159.055 70.867">
 <desc >Fritzing breadboard generated by brd2svg</desc>
 <g  id="breadboard">
  <g  id="icon">
   <path  fill="#672E58" d="M158.897,32.599c1.564-14.09-8.588-26.781-22.678-28.347c-37.583-5.669-75.804-5.669-113.386,0C8.745,5.817-1.408,18.508,0.157,32.598l0,0v5.667c-1.564,14.09,8.588,26.781,22.677,28.35c37.583,5.668,75.803,5.668,113.386,0c14.09-1.566,24.242-14.26,22.678-28.35V32.599 M74.071,9.921c-0.002-0.666,0.535-1.207,1.2-1.209c0.666-0.002,1.207,0.536,1.209,1.201c0,0.003,0,0.005,0,0.008c0.002,0.665-0.535,1.207-1.2,1.208c-0.666,0.002-1.207-0.535-1.209-1.201C74.071,9.927,74.071,9.924,74.071,9.921z M82.574,9.921c-0.002-0.666,0.535-1.207,1.2-1.209c0.666-0.002,1.207,0.536,1.209,1.201c0,0.003,0,0.005,0,0.008c0.003,0.665-0.534,1.207-1.2,1.208c-0.665,0.002-1.206-0.535-1.209-1.201C82.574,9.927,82.574,9.924,82.574,9.921z M140.764,55.275c-0.001-2.188,1.771-3.961,3.957-3.963c2.188,0,3.962,1.771,3.963,3.957c0,0.002,0,0.004,0,0.006c0.002,2.188-1.77,3.961-3.957,3.963c-2.187,0.002-3.961-1.77-3.963-3.957C140.764,55.279,140.764,55.277,140.764,55.275z M10.371,15.59c-0.001-2.187,1.771-3.961,3.958-3.962c2.187-0.001,3.96,1.771,3.962,3.958c0,0.001,0,0.003,0,0.004c0,2.187-1.772,3.96-3.959,3.96C12.145,19.55,10.372,17.778,10.371,15.59C10.371,15.591,10.371,15.591,10.371,15.59z M140.764,15.59c-0.001-2.187,1.771-3.961,3.957-3.962c2.188-0.002,3.962,1.77,3.963,3.957c0,0.002,0,0.004,0,0.005c0.002,2.187-1.77,3.961-3.957,3.963c-2.187,0.001-3.961-1.77-3.963-3.957C140.764,15.594,140.764,15.592,140.764,15.59z M10.371,55.275c-0.001-2.188,1.771-3.961,3.958-3.961c2.187-0.002,3.96,1.771,3.962,3.957c0,0.002,0,0.004,0,0.004c0,2.188-1.772,3.961-3.959,3.961c-2.188,0-3.96-1.771-3.96-3.959C10.371,55.277,10.371,55.275,10.371,55.275z"/>
   <g >
    <title >layer 21</title>
    <g >
     <title >text:Power</title>
     <text  fill="#FFFFFF" font-family="OCRA" transform="matrix(1 0 0 1 103.0547 63.4976)" font-size="5.8464">Power</text>
    </g>
    <g >
     <title >text:On</title>
     <text  fill="#FFFFFF" font-family="OCRA" transform="matrix(1 0 0 1 58.8345 12.7559)" font-size="5.8464">On</text>
    </g>
    <g >
     <title >text:Off</title>
     <text  fill="#FFFFFF" font-family="OCRA" transform="matrix(1 0 0 1 92 12.7559)" font-size="5.8464">Off</text>
    </g>
    <g >
     <title >text:+</title>
     <text  fill="#FFFFFF" font-family="OCRA" transform="matrix(1 0 0 1 132.7119 63.2261)" font-size="8.352">+</text>
    </g>
    <g >
     <title >text:-</title>
     <text  fill="#FFFFFF" font-family="OCRA" transform="matrix(1 0 0 1 21.7158 17.8662)" font-size="8.352">-</text>
    </g>
    <g >
     <title >text:-</title>
     <text  fill="#FFFFFF" font-family="OCRA" transform="matrix(1 0 0 1 131.4082 17.8662)" font-size="8.352">-</text>
    </g>
    <g >
     <title >text:-</title>
     <text  fill="#FFFFFF" font-family="OCRA" transform="matrix(1 0 0 1 21.7158 63.2261)" font-size="8.352">-</text>
    </g>
    <g >
     <title >element:BAT1</title>
     <g >
      <title >package:BATTERY-AAA</title>
      <g >
       <title >text:+</title>
       <text  fill="#FFFFFF" font-family="OCRA" transform="matrix(1 0 0 1 105.9551 40.1851)" font-size="8.352">+</text>
      </g>
      <g >
       <title >text:-</title>
       <text  fill="#FFFFFF" font-family="OCRA" transform="matrix(1 0 0 1 48.3555 40.1851)" font-size="8.352">-</text>
      </g>
     </g>
    </g>
    <g >
     <title >element:C2</title>
     <g >
      <title >package:0603-CAP</title>
      <line  fill="none" stroke="#FFFFFF" stroke-linecap="round" y1="55.275" stroke-width="1.584" x1="93.787" y2="55.275" x2="93.613"/>
     </g>
    </g>
    <g >
     <title >element:C10</title>
     <g >
      <title >package:EIA3528-21</title>
      <line  fill="none" stroke="#FFFFFF" stroke-linecap="round" y1="60.662" stroke-width="0.576" x1="89.731" y2="65.48" x2="89.731"/>
      <line  fill="none" stroke="#FFFFFF" stroke-linecap="round" y1="65.48" stroke-width="0.576" x1="89.731" y2="65.48" x2="80.803"/>
      <line  fill="none" stroke="#FFFFFF" stroke-linecap="round" y1="65.48" stroke-width="0.576" x1="80.803" y2="60.662" x2="80.803"/>
      <line  fill="none" stroke="#FFFFFF" stroke-linecap="round" y1="55.275" stroke-width="0.576" x1="89.59" y2="51.875" x2="89.59"/>
      <line  fill="none" stroke="#FFFFFF" stroke-linecap="round" y1="51.875" stroke-width="0.576" x1="89.59" y2="50.74" x2="88.599"/>
      <line  fill="none" stroke="#FFFFFF" stroke-linecap="round" y1="50.74" stroke-width="0.576" x1="88.599" y2="50.74" x2="81.653"/>
      <line  fill="none" stroke="#FFFFFF" stroke-linecap="round" y1="50.74" stroke-width="0.576" x1="81.653" y2="51.875" x2="80.803"/>
      <line  fill="none" stroke="#FFFFFF" stroke-linecap="round" y1="51.875" stroke-width="0.576" x1="80.803" y2="55.275" x2="80.803"/>
     </g>
    </g>
    <g >
     <title >element:C11</title>
     <g >
      <title >package:CPOL_1206</title>
      <line  fill="none" stroke="#FFFFFF" stroke-linecap="round" y1="58.111" stroke-width="0.576" x1="37.291" y2="62.363" x2="37.291"/>
      <line  fill="none" stroke="#FFFFFF" stroke-linecap="round" y1="62.363" stroke-width="0.576" x1="37.291" y2="62.363" x2="30.913"/>
      <line  fill="none" stroke="#FFFFFF" stroke-linecap="round" y1="62.363" stroke-width="0.576" x1="30.913" y2="58.111" x2="30.913"/>
      <line  fill="none" stroke="#FFFFFF" stroke-linecap="round" y1="52.441" stroke-width="0.576" x1="37.433" y2="49.607" x2="37.433"/>
      <line  fill="none" stroke="#FFFFFF" stroke-linecap="round" y1="49.607" stroke-width="0.576" x1="37.433" y2="48.189" x2="36.44"/>
      <line  fill="none" stroke="#FFFFFF" stroke-linecap="round" y1="48.189" stroke-width="0.576" x1="36.44" y2="48.189" x2="32.047"/>
      <line  fill="none" stroke="#FFFFFF" stroke-linecap="round" y1="48.189" stroke-width="0.576" x1="32.047" y2="49.607" x2="30.913"/>
      <line  fill="none" stroke="#FFFFFF" stroke-linecap="round" y1="49.607" stroke-width="0.576" x1="30.913" y2="52.441" x2="30.913"/>
     </g>
    </g>
    <g >
     <title >element:D2</title>
     <g >
      <title >package:SMA-DIODE</title>
      <line  fill="none" stroke="#FFFFFF" stroke-linecap="round" y1="59.527" stroke-width="0.576" x1="64.504" y2="58.251" x2="64.504"/>
      <line  fill="none" stroke="#FFFFFF" stroke-linecap="round" y1="58.251" stroke-width="0.576" x1="64.504" y2="58.251" x2="77.543"/>
      <line  fill="none" stroke="#FFFFFF" stroke-linecap="round" y1="58.251" stroke-width="0.576" x1="77.543" y2="59.527" x2="77.543"/>
      <line  fill="none" stroke="#FFFFFF" stroke-linecap="round" y1="65.197" stroke-width="0.576" x1="77.543" y2="66.472" x2="77.543"/>
      <line  fill="none" stroke="#FFFFFF" stroke-linecap="round" y1="66.472" stroke-width="0.576" x1="77.543" y2="66.472" x2="64.504"/>
      <line  fill="none" stroke="#FFFFFF" stroke-linecap="round" y1="66.472" stroke-width="0.576" x1="64.504" y2="65.197" x2="64.504"/>
      <line  fill="none" stroke="#FFFFFF" stroke-linecap="round" y1="59.527" stroke-width="0.576" x1="73.857" y2="65.197" x2="73.857"/>
     </g>
    </g>
    <g >
     <title >element:F1</title>
     <g >
      <title >package:PTC-1206</title>
      <line  fill="none" stroke="#FFFFFF" stroke-linecap="round" y1="54.601" stroke-width="0.576" x1="132.35" y2="54.601" x2="128.75"/>
      <line  fill="none" stroke="#FFFFFF" stroke-linecap="round" y1="50.281" stroke-width="0.576" x1="128.75" y2="50.281" x2="132.35"/>
     </g>
    </g>
    <g >
     <title >element:L1</title>
     <g >
      <title >package:CR54</title>
     </g>
    </g>
    <g >
     <title >element:LED1</title>
     <g >
      <title >package:LED-1206</title>
      <line  fill="none" stroke="#FFFFFF" stroke-linecap="round" y1="52.441" stroke-width="0.576" x1="110.708" y2="52.441" x2="106.74"/>
      <line  fill="none" stroke="#FFFFFF" stroke-linecap="round" y1="52.441" stroke-width="0.576" x1="106.74" y2="58.111" x2="106.74"/>
      <line  fill="none" stroke="#FFFFFF" stroke-linecap="round" y1="58.111" stroke-width="0.576" x1="106.74" y2="58.111" x2="110.708"/>
      <line  fill="none" stroke="#FFFFFF" stroke-linecap="round" y1="52.441" stroke-width="0.576" x1="116.377" y2="52.441" x2="120.346"/>
      <line  fill="none" stroke="#FFFFFF" stroke-linecap="round" y1="52.441" stroke-width="0.576" x1="120.346" y2="58.111" x2="120.346"/>
      <line  fill="none" stroke="#FFFFFF" stroke-linecap="round" y1="58.111" stroke-width="0.576" x1="120.346" y2="58.111" x2="116.377"/>
      <line  fill="none" stroke="#FFFFFF" stroke-linecap="round" y1="53.292" stroke-width="0.576" x1="114.395" y2="55.275" x2="114.395"/>
      <line  fill="none" stroke="#FFFFFF" stroke-linecap="round" y1="55.275" stroke-width="0.576" x1="114.395" y2="57.259" x2="114.395"/>
      <line  fill="none" stroke="#FFFFFF" stroke-linecap="round" y1="55.275" stroke-width="0.576" x1="114.395" y2="53.576" x2="112.691"/>
      <line  fill="none" stroke="#FFFFFF" stroke-linecap="round" y1="53.576" stroke-width="0.576" x1="112.691" y2="56.976" x2="112.691"/>
      <line  fill="none" stroke="#FFFFFF" stroke-linecap="round" y1="56.976" stroke-width="0.576" x1="112.691" y2="55.275" x2="114.395"/>
     </g>
    </g>
    <g >
     <title >element:R1</title>
     <g >
      <title >package:0603-RES</title>
     </g>
    </g>
    <g >
     <title >element:S1</title>
     <g >
      <title >package:AYZ0202</title>
      <line  fill="none" stroke="#FFFFFF" stroke-linecap="round" y1="14.882" stroke-width="0.576" x1="89.731" y2="4.96" x2="89.731"/>
      <line  fill="none" stroke="#FFFFFF" stroke-linecap="round" y1="4.96" stroke-width="0.576" x1="89.731" y2="4.96" x2="69.323"/>
      <line  fill="none" stroke="#FFFFFF" stroke-linecap="round" y1="4.96" stroke-width="0.576" x1="69.323" y2="14.882" x2="69.323"/>
      <line  fill="none" stroke="#FFFFFF" stroke-linecap="round" y1="14.882" stroke-width="0.576" x1="69.323" y2="14.882" x2="89.731"/>
     </g>
    </g>
    <g >
     <title >element:TP1</title>
     <g >
      <title >package:PAD.03X.05</title>
     </g>
    </g>
    <g >
     <title >element:U$1</title>
     <g >
      <title >package:PETAL-LONG-2-2SIDE</title>
     </g>
    </g>
    <g >
     <title >element:U$2</title>
     <g >
      <title >package:PETAL-LONG-2-2SIDE</title>
     </g>
    </g>
    <g >
     <title >element:U$4</title>
     <g >
      <title >package:PETAL-LONG-2-2SIDE</title>
     </g>
    </g>
    <g >
     <title >element:U$5</title>
     <g >
      <title >package:PETAL-LONG-2-2SIDE</title>
     </g>
    </g>
    <g >
     <title >element:U$7</title>
     <g >
      <title >package:LOGO-LILYPAD</title>
      <line  fill="none" stroke="#FFFFFF" stroke-linecap="round" y1="38.167" stroke-width="0.576" x1="83.523" y2="32.216" x2="83.523"/>
      <path  fill="none" stroke="#FFFFFF" stroke-width="0.576" d="M85.225,30.798c-0.859-0.078-1.622,0.557-1.7,1.417"/>
      <path  fill="none" stroke="#FFFFFF" stroke-width="0.576" d="M86.926,32.216c-0.078-0.861-0.84-1.495-1.701-1.417"/>
      <line  fill="none" stroke="#FFFFFF" stroke-linecap="round" y1="32.216" stroke-width="0.576" x1="86.926" y2="32.783" x2="86.926"/>
      <path  fill="none" stroke="#FFFFFF" stroke-width="0.576" d="M85.508,34.058c0.744,0.039,1.379-0.532,1.418-1.275"/>
      <line  fill="none" stroke="#FFFFFF" stroke-linecap="round" y1="34.058" stroke-width="0.576" x1="85.508" y2="34.058" x2="84.658"/>
      <path  fill="none" stroke="#FFFFFF" stroke-width="0.576" d="M86.784,38.167c0.548-0.078,0.929-0.586,0.851-1.133"/>
      <line  fill="none" stroke="#FFFFFF" stroke-linecap="round" y1="38.167" stroke-width="0.576" x1="86.784" y2="38.167" x2="86.217"/>
      <path  fill="none" stroke="#FFFFFF" stroke-width="0.576" d="M85.084,36.751c-0.079,0.703,0.429,1.338,1.133,1.416"/>
      <path  fill="none" stroke="#FFFFFF" stroke-width="0.576" d="M86.217,35.334c-0.704,0.078-1.212,0.712-1.133,1.417"/>
      <line  fill="none" stroke="#FFFFFF" stroke-linecap="round" y1="35.334" stroke-width="0.576" x1="86.217" y2="35.334" x2="86.5"/>
      <path  fill="none" stroke="#FFFFFF" stroke-width="0.576" d="M87.635,36.468c0-0.627-0.508-1.134-1.135-1.134l0,0"/>
      <line  fill="none" stroke="#FFFFFF" stroke-linecap="round" y1="36.468" stroke-width="0.576" x1="87.635" y2="37.035" x2="87.635"/>
      <path  fill="none" stroke="#FFFFFF" stroke-width="0.576" d="M87.635,37.035c-0.118,0.51,0.199,1.016,0.708,1.135l0,0"/>
      <path  fill="none" stroke="#FFFFFF" stroke-width="0.576" d="M88.343,38.167c0.431,0.119,0.874-0.135,0.992-0.566l0,0"/>
      <line  fill="none" stroke="#FFFFFF" stroke-linecap="round" y1="37.601" stroke-width="0.576" x1="89.335" y2="37.46" x2="89.335"/>
      <line  fill="none" stroke="#FFFFFF" stroke-linecap="round" y1="37.46" stroke-width="0.576" x1="89.335" y2="36.751" x2="89.335"/>
      <path  fill="none" stroke="#FFFFFF" stroke-width="0.576" d="M90.611,35.334c-0.744,0.039-1.315,0.673-1.276,1.417l0,0"/>
      <path  fill="none" stroke="#FFFFFF" stroke-width="0.576" d="M91.887,36.892c0.078-0.781-0.493-1.48-1.274-1.558l0,0"/>
      <path  fill="none" stroke="#FFFFFF" stroke-width="0.576" d="M91.887,37.46c0.047-0.188,0.047-0.381,0-0.568"/>
      <path  fill="none" stroke="#FFFFFF" stroke-width="0.576" d="M91.036,38.31c0.419-0.104,0.745-0.432,0.851-0.85"/>
      <path  fill="none" stroke="#FFFFFF" stroke-width="0.576" d="M89.335,37.46c0.234,0.703,0.996,1.084,1.7,0.85h0.001"/>
      <line  fill="none" stroke="#FFFFFF" stroke-linecap="round" y1="37.46" stroke-width="0.576" x1="91.887" y2="37.744" x2="91.887"/>
      <path  fill="none" stroke="#FFFFFF" stroke-width="0.576" d="M91.887,37.744c0,0.312,0.254,0.566,0.566,0.566"/>
      <path  fill="none" stroke="#FFFFFF" stroke-width="0.576" d="M92.453,38.31c0.312,0,0.565-0.254,0.565-0.566"/>
      <line  fill="none" stroke="#FFFFFF" stroke-linecap="round" y1="37.175" stroke-width="0.576" x1="91.887" y2="31.507" x2="91.887"/>
      <line  fill="none" stroke="#FFFFFF" stroke-linecap="round" y1="34.767" stroke-width="0.576" x1="73.461" y2="34.625" x2="73.461"/>
      <path  fill="none" stroke="#FFFFFF" stroke-width="0.576" d="M67.508,29.806c0,2.035,1.65,3.685,3.685,3.685"/>
      <line  fill="none" stroke="#FFFFFF" stroke-linecap="round" y1="33.491" stroke-width="0.576" x1="71.192" y2="33.491" x2="71.619"/>
      <path  fill="none" stroke="#FFFFFF" stroke-width="0.576" d="M71.619,33.491c1.057,0.039,1.944-0.786,1.983-1.842"/>
      <path  fill="none" stroke="#FFFFFF" stroke-width="0.576" d="M73.603,31.649c0-0.47-0.381-0.851-0.851-0.851"/>
      <path  fill="none" stroke="#FFFFFF" stroke-width="0.576" d="M69.775,37.035c-0.273-1.212-1.479-1.975-2.692-1.701l0,0"/>
      <line  fill="none" stroke="#FFFFFF" stroke-linecap="round" y1="30.798" stroke-width="0.576" x1="72.469" y2="30.798" x2="72.752"/>
      <path  fill="none" stroke="#FFFFFF" stroke-width="0.576" d="M72.469,30.798c-1.096,0-1.984,0.889-1.984,1.984"/>
      <path  fill="none" stroke="#FFFFFF" stroke-width="0.576" d="M67.083,35.334c-0.822,0.117-1.394,0.878-1.275,1.701l0,0"/>
      <line  fill="none" stroke="#FFFFFF" stroke-linecap="round" y1="34.767" stroke-width="0.576" x1="70.484" y2="32.783" x2="70.484"/>
      <path  fill="none" stroke="#FFFFFF" stroke-width="0.576" d="M67.083,38.167c1.879,0,3.401-1.521,3.401-3.4l0,0"/>
      <path  fill="none" stroke="#FFFFFF" stroke-width="0.576" d="M65.808,37.035c0.039,0.666,0.61,1.174,1.275,1.135l0,0"/>
      <path  fill="none" stroke="#FFFFFF" stroke-width="0.576" d="M70.484,38.027c1.136,0.51,2.468,0,2.977-1.135l0,0"/>
      <line  fill="none" stroke="#FFFFFF" stroke-linecap="round" y1="36.468" stroke-width="0.576" x1="73.461" y2="35.617" x2="73.461"/>
      <line  fill="none" stroke="#FFFFFF" stroke-linecap="round" y1="36.468" stroke-width="0.576" x1="73.461" y2="36.892" x2="73.461"/>
      <line  fill="none" stroke="#FFFFFF" stroke-linecap="round" y1="36.183" stroke-width="0.576" x1="76.154" y2="31.507" x2="76.154"/>
      <path  fill="none" stroke="#FFFFFF" stroke-width="0.576" d="M73.461,36.468c-0.117,0.82,0.454,1.582,1.275,1.699l0,0"/>
      <path  fill="none" stroke="#FFFFFF" stroke-width="0.576" d="M74.737,38.167c0.792-0.1,1.394-0.76,1.417-1.561"/>
      <path  fill="none" stroke="#FFFFFF" stroke-width="0.576" d="M76.154,36.609c0.011-0.141,0.011-0.283,0-0.426"/>
      <line  fill="none" stroke="#FFFFFF" stroke-linecap="round" y1="36.751" stroke-width="0.576" x1="76.154" y2="36.609" x2="76.154"/>
      <path  fill="none" stroke="#FFFFFF" stroke-width="0.576" d="M76.154,36.751c0,0.783,0.635,1.416,1.417,1.416l0,0"/>
      <path  fill="none" stroke="#FFFFFF" stroke-width="0.576" d="M77.572,38.167c0.781,0,1.417-0.635,1.417-1.416"/>
      <line  fill="none" stroke="#FFFFFF" stroke-linecap="round" y1="36.751" stroke-width="0.576" x1="78.988" y2="35.05" x2="78.988"/>
      <path  fill="none" stroke="#FFFFFF" stroke-width="0.576" d="M78.988,36.751c0,0.783,0.635,1.416,1.418,1.416l0,0"/>
      <path  fill="none" stroke="#FFFFFF" stroke-width="0.576" d="M82.674,42.988c-0.156-2.035-1.934-3.559-3.968-3.402"/>
      <path  fill="none" stroke="#FFFFFF" stroke-width="0.576" d="M80.406,38.167c0.782,0,1.417-0.635,1.417-1.416"/>
      <line  fill="none" stroke="#FFFFFF" stroke-linecap="round" y1="36.751" stroke-width="0.576" x1="81.823" y2="35.05" x2="81.823"/>
      <line  fill="none" stroke="#FFFFFF" stroke-linecap="round" y1="39.019" stroke-width="0.576" x1="81.823" y2="36.751" x2="81.823"/>
      <line  fill="none" stroke="#FFFFFF" stroke-linecap="round" y1="39.585" stroke-width="0.576" x1="78.138" y2="39.585" x2="78.706"/>
      <path  fill="none" stroke="#FFFFFF" stroke-width="0.576" d="M78.138,39.585c-0.938,0-1.701,0.762-1.701,1.701"/>
      <path  fill="none" stroke="#FFFFFF" stroke-width="0.576" d="M78.138,42.705c2.036,0,3.686-1.65,3.686-3.686"/>
      <line  fill="none" stroke="#FFFFFF" stroke-linecap="round" y1="42.705" stroke-width="0.576" x1="77.854" y2="42.705" x2="78.138"/>
      <path  fill="none" stroke="#FFFFFF" stroke-width="0.576" d="M76.438,41.287c0,0.783,0.635,1.418,1.417,1.418"/>
      <path  fill="none" stroke="#FFFFFF" stroke-width="0.576" d="M69.775,37.035c0.157,0.783,0.919,1.291,1.701,1.135l0,0"/>
     </g>
    </g>
    <g >
     <title >element:U1</title>
     <g >
      <title >package:SOT23-5</title>
      <line  fill="none" stroke="#FFFFFF" stroke-linecap="round" y1="48.41" stroke-width="0.576" x1="69.806" y2="48.41" x2="72.241"/>
      <line  fill="none" stroke="#FFFFFF" stroke-linecap="round" y1="56.472" stroke-width="0.576" x1="72.241" y2="56.472" x2="69.806"/>
      <line  fill="none" stroke="#FFFFFF" stroke-linecap="round" y1="53.203" stroke-width="0.576" x1="68.726" y2="51.679" x2="68.726"/>
     </g>
    </g>
   </g>
   <rect  width="8.93" x="80.803" y="50.74" fill="#FFFFFF" height="14.74" fill-opacity="0.15"/>
   <rect  width="6.52" x="30.913" y="48.189" fill="#FFFFFF" height="14.174" fill-opacity="0.15"/>
   <rect  width="13.039" x="64.504" y="58.251" fill="#FFFFFF" height="8.221" fill-opacity="0.15"/>
   <rect  width="3.6" x="128.75" y="50.281" fill="#FFFFFF" height="4.32" fill-opacity="0.15"/>
   <rect  width="13.605" x="106.74" y="52.441" fill="#FFFFFF" height="5.67" fill-opacity="0.15"/>
   <rect  width="1.296" x="98.722" y="54.195" fill="#FFFFFF" height="2.16" fill-opacity="0.15"/>
   <rect  width="3.516" x="68.726" y="48.41" fill="#FFFFFF" height="8.062" fill-opacity="0.15"/>
   <g >
    <g >
     <path  fill="#FFFFFF" d="M21.431,18.264l-0.288-0.561c-0.006-0.011-0.012-0.023-0.016-0.036c-0.004-0.011-0.008-0.022-0.01-0.034l-0.898-3.404l-1.152-3.256l-0.757-0.688l-0.896-0.588l-0.979-0.441l-1.035-0.282l-1.065-0.117L13.26,8.908l-1.05,0.218l-1.003,0.38l-0.934,0.533l-0.829,0.667l-0.658,0.809l-0.528,0.908l-0.379,0.98L7.657,14.43l-0.06,1.049l0.106,1.045l0.269,1.016l0.424,0.961l0.569,0.883l0.672,0.751l2.151,0.9l2.263,0.755l2.317,0.588c0.013,0.003,0.024,0.007,0.04,0.012c0.011,0.004,0.021,0.009,0.031,0.015l0.562,0.288l0.584,0.177l0.607,0.069l0.608-0.04l0.593-0.149l0.559-0.252l0.502-0.348l0.432-0.432l0.35-0.502l0.252-0.557l0.147-0.593l0.04-0.61l-0.069-0.607L21.431,18.264z M14.331,19.552c-2.188,0-3.961-1.773-3.961-3.961s1.771-3.961,3.961-3.961c2.188,0,3.961,1.773,3.961,3.961C18.292,17.778,16.518,19.552,14.331,19.552z M137.563,20.658l0.253,0.557l0.349,0.502l0.434,0.433l0.501,0.348l0.559,0.252l0.594,0.149l0.61,0.04l0.604-0.069l0.585-0.177l0.562-0.288c0.012-0.006,0.021-0.011,0.033-0.016c0.014-0.004,0.023-0.008,0.035-0.011l3.405-0.898l3.256-1.151l0.688-0.757l0.59-0.898l0.438-0.978l0.282-1.035l0.116-1.067l-0.051-1.072l-0.22-1.05l-0.381-1.003l-0.531-0.931l-0.665-0.831l-0.812-0.659l-0.908-0.528l-0.979-0.379l-1.026-0.222l-1.049-0.058l-1.045,0.107l-1.017,0.269l-0.962,0.425l-0.884,0.569l-0.751,0.672l-0.896,2.151l-0.757,2.263l-0.59,2.317c-0.003,0.012-0.006,0.024-0.011,0.036c-0.005,0.013-0.01,0.024-0.016,0.036l-0.287,0.562l-0.179,0.584l-0.069,0.607l0.04,0.61L137.563,20.658z M144.725,11.629c2.188,0,3.961,1.773,3.961,3.961s-1.771,3.961-3.961,3.961c-2.188,0-3.962-1.773-3.962-3.961C140.763,13.403,142.536,11.629,144.725,11.629z M21.489,50.208l-0.252-0.561l-0.35-0.502l-0.433-0.432l-0.501-0.348l-0.559-0.252l-0.593-0.148l-0.608-0.041l-0.607,0.068l-0.584,0.178L16.44,48.46c-0.012,0.006-0.021,0.012-0.034,0.016s-0.022,0.008-0.034,0.014l-3.404,0.895l-3.256,1.154l-0.688,0.758l-0.588,0.896l-0.439,0.979l-0.283,1.035l-0.117,1.064l0.052,1.072l0.22,1.051l0.38,1.004L8.78,59.33l0.667,0.832l0.808,0.656l0.909,0.527l0.979,0.381l1.027,0.223l1.049,0.059l1.045-0.107l1.017-0.268l0.961-0.426l0.883-0.568l0.751-0.672l0.897-2.152l0.758-2.262l0.587-2.318c0.003-0.012,0.007-0.021,0.012-0.035c0.004-0.014,0.01-0.023,0.016-0.033l0.288-0.562l0.177-0.584l0.069-0.607l-0.04-0.609L21.489,50.208z M14.331,59.236c-2.188,0-3.961-1.771-3.961-3.961c0-2.188,1.771-3.961,3.961-3.961c2.188,0,3.961,1.773,3.961,3.961C18.292,57.464,16.518,59.236,14.331,59.236z M151.081,53.33l-0.424-0.963l-0.569-0.883l-0.673-0.75l-2.15-0.9l-2.263-0.754l-2.317-0.588c-0.014-0.004-0.024-0.008-0.039-0.014c-0.012-0.004-0.021-0.01-0.031-0.016l-0.562-0.287l-0.585-0.178l-0.605-0.068l-0.609,0.039l-0.595,0.148l-0.558,0.254l-0.501,0.348l-0.434,0.432l-0.349,0.502l-0.253,0.559l-0.146,0.592l-0.04,0.609l0.07,0.607l0.178,0.584l0.287,0.562c0.005,0.01,0.011,0.02,0.015,0.029c0.005,0.016,0.009,0.023,0.012,0.037l0.897,3.404l1.152,3.256l0.757,0.689l0.896,0.588l0.979,0.439l1.035,0.283l1.064,0.115l1.071-0.049l1.05-0.223l1.005-0.381l0.934-0.529l0.829-0.666l0.658-0.811l0.527-0.908l0.379-0.979l0.223-1.029l0.06-1.047l-0.106-1.045L151.081,53.33z M144.725,59.236c-2.188,0-3.962-1.771-3.962-3.961c0-2.188,1.773-3.961,3.962-3.961c2.189,0,3.961,1.773,3.961,3.961S146.912,59.236,144.725,59.236z"/>
    </g>
   </g>
   <g  id="connector27pin">
    <path  fill="#9A916C" d="M144.725,52.533c1.512,0,2.742,1.23,2.742,2.742c0,1.513-1.23,2.743-2.742,2.743c-1.513,0-2.743-1.23-2.743-2.743C141.981,53.763,143.212,52.533,144.725,52.533 M144.725,51.314c-2.188,0-3.962,1.773-3.962,3.961c0,2.188,1.773,3.962,3.962,3.962c2.188,0,3.961-1.773,3.961-3.962C148.686,53.087,146.912,51.314,144.725,51.314L144.725,51.314z"/>
   </g>
   <g  id="connector28pin">
    <path  fill="#9A916C" d="M14.331,12.848c1.512,0,2.742,1.23,2.742,2.742c0,1.512-1.23,2.743-2.742,2.743s-2.743-1.23-2.743-2.743C11.588,14.079,12.818,12.848,14.331,12.848 M14.331,11.629c-2.188,0-3.961,1.773-3.961,3.961c0,2.188,1.773,3.961,3.961,3.961c2.188,0,3.961-1.773,3.961-3.961C18.292,13.403,16.518,11.629,14.331,11.629L14.331,11.629z"/>
   </g>
   <g  id="connector29pin">
    <path  fill="#9A916C" d="M144.725,12.848c1.512,0,2.742,1.23,2.742,2.742s-1.23,2.743-2.742,2.743c-1.513,0-2.743-1.23-2.743-2.743S143.212,12.848,144.725,12.848 M144.725,11.629c-2.188,0-3.962,1.773-3.962,3.961c0,2.188,1.773,3.961,3.962,3.961c2.188,0,3.961-1.773,3.961-3.961C148.686,13.403,146.912,11.629,144.725,11.629L144.725,11.629z"/>
   </g>
   <g  id="connector30pin">
    <path  fill="#9A916C" d="M14.331,52.533c1.512,0,2.742,1.23,2.742,2.742c0,1.513-1.23,2.743-2.742,2.743s-2.743-1.23-2.743-2.743C11.588,53.763,12.818,52.533,14.331,52.533 M14.331,51.314c-2.188,0-3.961,1.773-3.961,3.961c0,2.189,1.773,3.962,3.961,3.962c2.188,0,3.961-1.772,3.961-3.962C18.292,53.087,16.518,51.314,14.331,51.314L14.331,51.314z"/>
   </g>
  </g>
  <g  id="battery-aaa" transform="matrix(1, 0, 0, 1, 13.2792, 19.0911)">
   <g >
    <g >
     <path  fill="#898989" d="M16.809,18.858v-6.387h9.979c1.764,0,3.193,1.43,3.193,3.192c0,1.762-1.431,3.193-3.193,3.193L16.809,18.858L16.809,18.858z"/>
     <g >
      <path  fill="#DBDBDB" d="M1.85,24.309C0.985,24.309,0,20.44,0,15.665c0-4.772,0.984-8.644,1.851-8.644h1.807v17.287L1.85,24.309L1.85,24.309z"/>
      <path  fill="#898989" d="M1.85,24.309c-0.865,0-1.283-3.869-1.283-8.645c0-4.772,0.418-8.644,1.283-8.644h2.229v17.287L1.85,24.309L1.85,24.309z"/>
      <g >
       <g >
        <path  fill="#7C7C7C" d="M26.563,12.266V7.021H3.657v17.287h22.906v-5.245h-1.236v-6.798L26.563,12.266L26.563,12.266z M15.254,17.653h-9.45v-3.977h9.45c0.859,0,1.556,0.891,1.556,1.987C16.809,16.762,16.114,17.653,15.254,17.653z"/>
       </g>
      </g>
      <g >
       <rect  width="0.729" x="3.45" y="7.032" fill="#3D3D3D" height="17.276"/>
       <rect  width="0.727" x="2.723" y="7.032" fill="#666666" height="17.276"/>
       <rect  width="0.729" x="1.995" y="7.032" fill="#777777" height="17.276"/>
      </g>
      <path  fill="#898989" d="M4.981,15.665c0,2.316-0.683,4.193-1.521,4.193c-0.676,0-0.856-1.877-0.856-4.193c0-2.315,0.182-4.192,0.856-4.192C4.299,11.472,4.981,13.349,4.981,15.665z"/>
      <path  opacity="0.5" fill="none" stroke="#A5A5A5" stroke-linecap="round" enable-background="new    " stroke-width="0.2171" d="M3.459,19.858c-0.475,0-0.856-1.877-0.856-4.193c0-2.315,0.383-4.192,0.856-4.192" stroke-miterlimit="10"/>
      <path  fill="none" stroke="#606060" stroke-width="0.3256" d="M3.458,19.858c0.842,0,1.523-1.877,1.523-4.193c0-2.315-0.683-4.192-1.523-4.192" stroke-miterlimit="10"/>
      <g >
       <path  fill="none" stroke="#A5A5A5" stroke-linecap="round" stroke-width="0.2809" d="M4.165,18.393c0.277-0.664,0.459-1.634,0.459-2.729c0-1.095-0.182-2.062-0.459-2.727" stroke-miterlimit="10"/>
      </g>
     </g>
     <rect  width="0.279" x="25.047" opacity="0.2" y="12.266" fill="#FFFFFF" height="6.797" enable-background="new    "/>
    </g>
    <g >
     <path  fill="#898989" d="M116.047,18.858v-6.387h-9.979c-1.764,0-3.193,1.43-3.193,3.192c0,1.762,1.432,3.193,3.193,3.193L116.047,18.858L116.047,18.858z"/>
     <g >
      <path  fill="#DBDBDB" d="M131.006,24.309c0.865,0,1.854-3.869,1.854-8.645c0-4.772-0.986-8.644-1.854-8.644h-1.805v17.287L131.006,24.309L131.006,24.309z"/>
      <path  fill="#898989" d="M131.006,24.309c0.865,0,1.283-3.869,1.283-8.645c0-4.772-0.418-8.644-1.283-8.644h-2.227v17.287L131.006,24.309L131.006,24.309z"/>
      <g >
       <g >
        <path  fill="#7C7C7C" d="M106.293,7.021v5.244h1.238v6.798h-1.238v5.245h22.908V7.021H106.293z M127.053,17.653h-9.449c-0.858,0-1.558-0.893-1.558-1.988c0-1.098,0.697-1.987,1.558-1.987h9.449V17.653z"/>
       </g>
      </g>
      <g >
       <rect  width="0.729" x="128.678" y="7.032" fill="#3D3D3D" height="17.276"/>
       <rect  width="0.728" x="129.407" y="7.032" fill="#666666" height="17.276"/>
       <rect  width="0.729" x="130.133" y="7.032" fill="#777777" height="17.276"/>
      </g>
      <path  fill="#898989" d="M127.875,15.665c0,2.316,0.684,4.193,1.521,4.193c0.676,0,0.857-1.877,0.857-4.193c0-2.315-0.184-4.192-0.857-4.192C128.557,11.472,127.875,13.349,127.875,15.665z"/>
      <path  opacity="0.5" fill="none" stroke="#A5A5A5" stroke-linecap="round" enable-background="new    " stroke-width="0.2171" d="M129.397,19.858c0.476,0,0.858-1.877,0.858-4.193c0-2.315-0.385-4.192-0.858-4.192" stroke-miterlimit="10"/>
      <path  fill="none" stroke="#606060" stroke-width="0.3256" d="M129.399,19.858c-0.842,0-1.522-1.877-1.522-4.193c0-2.315,0.683-4.192,1.522-4.192" stroke-miterlimit="10"/>
      <g >
       <path  fill="none" stroke="#A5A5A5" stroke-linecap="round" stroke-width="0.2809" d="M128.691,18.393c-0.276-0.664-0.457-1.634-0.457-2.729c0-1.095,0.181-2.062,0.46-2.727" stroke-miterlimit="10"/>
      </g>
     </g>
     <rect  width="0.278" x="107.532" opacity="0.2" y="12.266" fill="#FFFFFF" height="6.797" enable-background="new    "/>
    </g>
   </g>
   <g >
    <path  fill="#353535" d="M127.051,27.933c0,1.753-1.666,3.183-3.701,3.183H7.088c-2.036,0-3.701-1.43-3.701-3.183V4.59c0-1.75,1.665-3.184,3.701-3.184H123.35c2.037,0,3.701,1.434,3.701,3.184V27.933L127.051,27.933z"/>
    <path  fill="#CE925D" d="M91.453,1.456h32.145c2.037,0,3.701,1.432,3.701,3.185v23.348c0,1.75-1.664,3.184-3.701,3.184H91.453V1.456z"/>
    <path  opacity="0.35" enable-background="new    " d="M7.37,29.899c-1.533,0-3.488-1.223-3.488-2.666V20.55c0,1.446,1.955,3.718,3.488,3.718h115.416c1.534,0,3.489-2.271,3.489-3.718v6.683c0,1.448-1.955,2.666-3.489,2.666H7.37L7.37,29.899z"/>
    <path  fill="#B2B2B2" d="M126.947,16.064c0,6.653-0.294,12.047-0.659,12.047c-0.364,0-0.364-24.094,0-24.094C126.653,4.018,126.947,9.411,126.947,16.064"/>
    <path  fill="#606060" d="M126.701,20.17c-0.242,0-0.242-8.9,0-8.9l-0.006,0.001c0,0.549,0.262,0.993,0.262,0.993c0.637,0,1.156,0.443,1.156,0.994v4.923c0,0.548-0.521,0.993-1.156,0.993c0,0-0.262,0.443-0.262,0.993L126.701,20.17L126.701,20.17z"/>
   </g>
   <g >
    <text  fill="#FFFFFF" font-family="Droid Sans" transform="matrix(1 0 0 1 21.9781 17.8947)" font-size="10">AAA Battery</text>
   </g>
   <g >
    <g  opacity="0.35">
     <g >
      <path  fill="#FFFFFF" d="M108.919,4.68c-1.56,0-2.835-0.469-2.835-1.041c0-0.573-1.273-1.041-2.835-1.041H29.756c-1.559,0-2.834,0.468-2.834,1.041c0,0.572-1.275,1.041-2.835,1.041H9.432c-1.56,0-2.834,1.274-2.834,2.834v1.861c0,1.56,1.274,2.834,2.834,2.834h111.192c1.562,0,2.835-1.274,2.835-2.834V7.514c0-1.56-1.273-2.834-2.835-2.834H108.919z"/>
      <path  fill="#FFFFFF" d="M108.919,4.68c-1.56,0-2.835-0.469-2.835-1.041c0-0.573-1.273-1.041-2.835-1.041H29.756c-1.559,0-2.834,0.468-2.834,1.041c0,0.572-1.275,1.041-2.835,1.041H9.432c-1.56,0-2.834,1.274-2.834,2.834v1.861c0,1.56,1.274,2.834,2.834,2.834h111.192c1.562,0,2.835-1.274,2.835-2.834V7.514c0-1.56-1.273-2.834-2.835-2.834H108.919z"/>
     </g>
    </g>
   </g>
   <g >
    <g >
     <g >
      <path  fill="#DBDBDB" d="M124.926,1.51c0-0.479-0.615-1.51-3.287-1.51h-10.816c-2.666,0-3.289,1.031-3.289,1.51v1.616h17.395L124.926,1.51L124.926,1.51z"/>
     </g>
     <g >
      <path  fill="#898989" d="M124.926,1.51c0-0.332-0.615-1.315-3.287-1.237h-10.816c-2.666-0.078-3.289,0.979-3.289,1.237v1.517h17.395L124.926,1.51L124.926,1.51z"/>
     </g>
     <g >
      <rect  width="17.396" x="107.532" y="2.801" fill="#3D3D3D" height="0.667"/>
      <rect  width="17.396" x="107.532" y="2.133" fill="#666666" height="0.668"/>
      <rect  width="17.396" x="107.532" y="1.467" fill="#777777" height="0.666"/>
     </g>
    </g>
    <g >
     <g >
      <path  fill="#DBDBDB" d="M124.926,31.173c0,0.479-0.615,1.511-3.287,1.511h-10.816c-2.666,0-3.289-1.031-3.289-1.511v-1.614h17.395L124.926,31.173L124.926,31.173z"/>
     </g>
     <g >
      <path  fill="#898989" d="M124.926,31.173c0,0.332-0.615,1.315-3.287,1.237h-10.816c-2.666,0.078-3.289-0.979-3.289-1.237v-1.515h17.395L124.926,31.173L124.926,31.173z"/>
     </g>
     <g >
      <rect  width="17.396" x="107.532" y="29.216" fill="#3D3D3D" height="0.667"/>
      <rect  width="17.396" x="107.532" y="29.883" fill="#666666" height="0.666"/>
      <rect  width="17.396" x="107.532" y="30.549" fill="#777777" height="0.668"/>
     </g>
    </g>
    <g >
     <g >
      <g >
       <path  fill="#DBDBDB" d="M7.93,1.51C7.93,1.031,8.549,0,11.221,0h10.813c2.668,0,3.291,1.031,3.291,1.51v1.616H7.93V1.51z"/>
      </g>
      <g >
       <path  fill="#898989" d="M7.93,1.51c0-0.332,0.618-1.315,3.291-1.237h10.813c2.668-0.078,3.291,0.979,3.291,1.237v1.517H7.93V1.51z"/>
      </g>
      <g >
       <rect  width="17.396" x="7.93" y="2.801" fill="#3D3D3D" height="0.667"/>
       <rect  width="17.396" x="7.93" y="2.133" fill="#666666" height="0.668"/>
       <rect  width="17.396" x="7.93" y="1.467" fill="#777777" height="0.666"/>
      </g>
     </g>
    </g>
    <g >
     <g >
      <path  fill="#DBDBDB" d="M7.93,31.173c0,0.479,0.618,1.511,3.291,1.511h10.813c2.668,0,3.291-1.031,3.291-1.511v-1.614H7.93V31.173z"/>
     </g>
     <g >
      <path  fill="#898989" d="M7.93,31.173c0,0.332,0.618,1.315,3.291,1.237h10.813c2.668,0.078,3.291-0.979,3.291-1.237v-1.515H7.93V31.173z"/>
     </g>
     <g >
      <rect  width="17.396" x="7.93" y="29.216" fill="#3D3D3D" height="0.667"/>
      <rect  width="17.396" x="7.93" y="29.883" fill="#666666" height="0.666"/>
      <rect  width="17.396" x="7.93" y="30.549" fill="#777777" height="0.668"/>
     </g>
    </g>
   </g>
  </g>
  <g  id="ayz0202" transform="matrix(1, 0, 0, 1, 69.2631, 3.74931)">
   <g  transform="matrix(-1, 0, 0, -1, 20.5279, 12.353)">
    <g >
     <g >
      <polygon  fill="#B7B7B7" points="2.201,12.353 3.927,12.353 3.927,9.491 2.201,9.491 "/>
      <polygon  fill="#B7B7B7" points="9.402,12.353 11.125,12.353 11.125,9.491 9.402,9.491 "/>
      <polygon  fill="#B7B7B7" points="16.603,12.353 18.325,12.353 18.325,9.491 16.603,9.491 "/>
     </g>
     <g >
      <polygon  fill="#B7B7B7" points="2.201,2.861 3.927,2.861 3.927,0 2.201,0 "/>
      <polygon  fill="#B7B7B7" points="9.402,2.861 11.125,2.861 11.125,0 9.402,0 "/>
      <polygon  fill="#B7B7B7" points="16.603,2.861 18.325,2.861 18.325,0 16.603,0 "/>
     </g>
    </g>
    <rect  width="20.528" y="1.263" fill="#1E1E1E" height="9.827"/>
    <rect  width="10.642" x="4.943" y="1.975" height="0.266"/>
    <path  fill="#898989" d="M19.002,4.096c-0.228,0-0.203-0.191-0.203-0.426V1.611h-3.65c-0.233,0-0.425,0.191-0.425,0.426v2.214c0,0.233-0.191,0.425-0.425,0.425h-8.07c-0.232,0-0.425-0.191-0.425-0.425V2.037c0-0.234-0.19-0.426-0.425-0.426H1.73V3.67c0,0.234,0.023,0.426-0.203,0.426H0.249c-0.237,0-0.248,0.191-0.248,0.425v3.892c0,0.234,0.011,0.426,0.248,0.426h1.278c0.228,0,0.203,0.191,0.203,0.425v1.833h17.067V9.263c0-0.233-0.024-0.425,0.203-0.425h1.277c0.238,0,0.248-0.191,0.248-0.426V4.521c0-0.233-0.01-0.425-0.248-0.425H19.002z"/>
    <g >
     <path  opacity="0.3" fill="#FFFFFF" enable-background="new    " d="M0.249,8.832h0.239V4.089H0.249c-0.237,0-0.248,0.191-0.248,0.425v3.892C0.001,8.641,0.012,8.832,0.249,8.832z"/>
     <rect  width="0.486" x="0.488" opacity="0.1" y="4.089" fill="#FFFFFF" height="4.743" enable-background="new    "/>
    </g>
    <g >
     <path  opacity="0.3" fill="#FFFFFF" enable-background="new    " d="M20.279,8.832H20.04V4.089h0.239c0.237,0,0.248,0.191,0.248,0.425v3.892C20.527,8.641,20.517,8.832,20.279,8.832z"/>
     <rect  width="0.487" x="19.553" opacity="0.1" y="4.089" fill="#FFFFFF" height="4.743" enable-background="new    "/>
    </g>
    <path  fill="#898989" d="M17.095,9.746c0,0.289-0.25,0.525-0.557,0.525H3.99c-0.308,0-0.558-0.236-0.558-0.525s0.25-0.525,0.558-0.525h12.547C16.845,9.221,17.095,9.457,17.095,9.746z"/>
    <g >
     <path  fill="#666666" d="M16.538,9.221H3.99c-0.308,0-0.558,0.236-0.558,0.525H3.67c0-0.158,0.143-0.287,0.318-0.287h12.548c0.176,0,0.319,0.129,0.319,0.287h0.237C17.095,9.457,16.845,9.221,16.538,9.221z"/>
     <path  opacity="0.3" fill="#FFFFFF" enable-background="new    " d="M16.538,10.033H3.99c-0.178,0-0.319-0.129-0.319-0.287H3.434c0,0.289,0.25,0.525,0.557,0.525h12.548c0.307,0,0.557-0.236,0.557-0.525h-0.237C16.857,9.904,16.714,10.033,16.538,10.033z"/>
    </g>
    <g >
     <path  opacity="0.3" fill="#FFFFFF" enable-background="new    " d="M0.001,1.263v2.125c0,0.158,0.011,0.287,0.248,0.287h0.239V1.263H0.001z"/>
     <rect  width="0.486" x="0.488" opacity="0.1" y="1.263" fill="#FFFFFF" height="2.412" enable-background="new    "/>
    </g>
    <g >
     <path  opacity="0.3" fill="#FFFFFF" enable-background="new    " d="M0.001,11.09V9.519c0-0.158,0.011-0.287,0.248-0.287h0.239v1.858L0.001,11.09z"/>
     <rect  width="0.486" x="0.488" opacity="0.1" y="9.231" fill="#FFFFFF" height="1.858" enable-background="new    "/>
    </g>
    <g >
     <path  opacity="0.3" fill="#FFFFFF" enable-background="new    " d="M20.528,1.263v2.125c0,0.158-0.011,0.287-0.248,0.287h-0.239V1.263H20.528z"/>
     <rect  width="0.487" x="19.554" opacity="0.1" y="1.263" fill="#FFFFFF" height="2.412" enable-background="new    "/>
    </g>
    <g >
     <path  opacity="0.3" fill="#FFFFFF" enable-background="new    " d="M20.528,11.09V9.519c0-0.158-0.011-0.287-0.248-0.287h-0.239v1.858L20.528,11.09z"/>
     <rect  width="0.487" x="19.554" opacity="0.1" y="9.231" fill="#FFFFFF" height="1.858" enable-background="new    "/>
    </g>
    <path  fill="#232323" d="M14.287,4.197c0,0.156-0.128,0.284-0.283,0.284h-3.558c-0.156,0-0.284-0.127-0.284-0.284V1.965c0-0.156,0.127-0.284,0.284-0.284h3.558c0.155,0,0.283,0.127,0.283,0.284V4.197z"/>
    <g  opacity="0.2">
     <path  fill="none" stroke="#FFFFFF" stroke-linecap="round" stroke-width="0.1899" d="M10.404,4.28V2.053c0-0.093,0.076-0.17,0.17-0.17h3.471" stroke-miterlimit="10"/>
    </g>
    <g  opacity="0.2">
     <path  fill="none" stroke="#454545" stroke-linecap="round" stroke-width="0.1899" d="M14.045,1.882v2.227c0,0.093-0.076,0.17-0.17,0.17h-3.471" stroke-miterlimit="10"/>
    </g>
    <path  opacity="0.2" fill="none" stroke="#FFFFFF" stroke-linecap="round" enable-background="new    " stroke-width="0.1899" d="M11.694,3.612C11.4,3.319,11.4,2.843,11.693,2.55c0.293-0.294,0.77-0.293,1.062,0" stroke-miterlimit="10"/>
    <path  opacity="0.2" fill="none" stroke="#454545" stroke-linecap="round" enable-background="new    " stroke-width="0.1899" d="M12.755,2.55c0.294,0.293,0.294,0.769,0.001,1.062c-0.293,0.294-0.77,0.293-1.062,0" stroke-miterlimit="10"/>
   </g>
  </g>
 </g>
</svg>
