<?xml version="1.0" encoding="UTF-8" standalone="no"?> <svg xmlns:svg="http://www.w3.org/2000/svg" xmlns="http://www.w3.org/2000/svg" version="1.2" baseProfile="tiny" x="0in" y="0in" width="0.884in" height="0.496in" viewBox="0 0 88400 49600" ><title>CON_HDR_RA-254P-9C-2R-18N__AMP_103149-Series.fp</title><desc>Geda footprint file 'CON_HDR_RA-254P-9C-2R-18N__AMP_103149-Series.fp' converted by Fritzing</desc><metadata xmlns:fz='http://fritzing.org/gedametadata/1.0/' xmlns:rdf='http://www.w3.org/1999/02/22-rdf-syntax-ns#'><rdf:RDF><rdf:Description rdf:about=''><fz:attr name='geda filename'>CON_HDR_RA-254P-9C-2R-18N__AMP_103149-Series.fp</fz:attr>
<fz:attr name='fritzing version'>0.4.0b.06.21.4282</fz:attr>
<fz:attr name='conversion date'>27/06/2010 07:15:06</fz:attr>
<fz:attr name='dist-license'>GPL</fz:attr>
<fz:attr name='use-license'>unlimited</fz:attr>
<fz:attr name='author'>gEDA project</fz:attr>
<fz:attr name='license-url'>http://www.gnu.org/licenses/gpl.html</fz:attr>
</rdf:Description></rdf:RDF></metadata><g id="copper0">
 <g id="copper1">
  <circle fill="none" cx="4200" cy="12600" connectorname="" stroke="#ff9400" r="2175" id="connector0pin" stroke-width="850"/>
  <circle fill="none" cx="4200" cy="2600" connectorname="" stroke="#ff9400" r="2175" id="connector1pin" stroke-width="850"/>
  <circle fill="none" cx="14200" cy="12600" connectorname="" stroke="#ff9400" r="2175" id="connector2pin" stroke-width="850"/>
  <circle fill="none" cx="14200" cy="2600" connectorname="" stroke="#ff9400" r="2175" id="connector3pin" stroke-width="850"/>
  <circle fill="none" cx="24200" cy="12600" connectorname="" stroke="#ff9400" r="2175" id="connector4pin" stroke-width="850"/>
  <circle fill="none" cx="24200" cy="2600" connectorname="" stroke="#ff9400" r="2175" id="connector5pin" stroke-width="850"/>
  <circle fill="none" cx="34200" cy="12600" connectorname="" stroke="#ff9400" r="2175" id="connector6pin" stroke-width="850"/>
  <circle fill="none" cx="34200" cy="2600" connectorname="" stroke="#ff9400" r="2175" id="connector7pin" stroke-width="850"/>
  <circle fill="none" cx="44200" cy="12600" connectorname="" stroke="#ff9400" r="2175" id="connector8pin" stroke-width="850"/>
  <circle fill="none" cx="44200" cy="2600" connectorname="" stroke="#ff9400" r="2175" id="connector9pin" stroke-width="850"/>
  <circle fill="none" cx="54200" cy="12600" connectorname="" stroke="#ff9400" r="2175" id="connector10pin" stroke-width="850"/>
  <circle fill="none" cx="54200" cy="2600" connectorname="" stroke="#ff9400" r="2175" id="connector11pin" stroke-width="850"/>
  <circle fill="none" cx="64200" cy="12600" connectorname="" stroke="#ff9400" r="2175" id="connector12pin" stroke-width="850"/>
  <circle fill="none" cx="64200" cy="2600" connectorname="" stroke="#ff9400" r="2175" id="connector13pin" stroke-width="850"/>
  <circle fill="none" cx="74200" cy="12600" connectorname="" stroke="#ff9400" r="2175" id="connector14pin" stroke-width="850"/>
  <circle fill="none" cx="74200" cy="2600" connectorname="" stroke="#ff9400" r="2175" id="connector15pin" stroke-width="850"/>
  <circle fill="none" cx="84200" cy="12600" connectorname="" stroke="#ff9400" r="2175" id="connector16pin" stroke-width="850"/>
  <circle fill="none" cx="84200" cy="2600" connectorname="" stroke="#ff9400" r="2175" id="connector17pin" stroke-width="850"/>
 </g>
</g>
<g id="silkscreen">
 <line fill="none" stroke="white" y1="22100" x1="4500" y2="22100" stroke-width="9000" x2="83900"/>
 <line fill="none" stroke="white" y1="18100" x1="500" y2="26100" stroke-width="1000" x2="500"/>
 <line fill="none" stroke="white" y1="26100" x1="500" y2="26100" stroke-width="1000" x2="87900"/>
 <line fill="none" stroke="white" y1="26100" x1="87900" y2="18100" stroke-width="1000" x2="87900"/>
 <line fill="none" stroke="white" y1="18100" x1="87900" y2="18100" stroke-width="1000" x2="500"/>
 <line fill="none" stroke="white" y1="18100" x1="1000" y2="26100" stroke-width="1000" x2="1000"/>
 <line fill="none" stroke="white" y1="18100" x1="87400" y2="26100" stroke-width="1000" x2="87400"/>
 <line fill="none" stroke="white" y1="18100" x1="1500" y2="26100" stroke-width="1000" x2="1500"/>
 <line fill="none" stroke="white" y1="18100" x1="86900" y2="26100" stroke-width="1000" x2="86900"/>
 <line fill="none" stroke="white" y1="18100" x1="2000" y2="26100" stroke-width="1000" x2="2000"/>
 <line fill="none" stroke="white" y1="18100" x1="86400" y2="26100" stroke-width="1000" x2="86400"/>
 <line fill="none" stroke="white" y1="18100" x1="2500" y2="26100" stroke-width="1000" x2="2500"/>
 <line fill="none" stroke="white" y1="18100" x1="85900" y2="26100" stroke-width="1000" x2="85900"/>
 <line fill="none" stroke="white" y1="18100" x1="3000" y2="26100" stroke-width="1000" x2="3000"/>
 <line fill="none" stroke="white" y1="18100" x1="85400" y2="26100" stroke-width="1000" x2="85400"/>
 <line fill="none" stroke="white" y1="18100" x1="3500" y2="26100" stroke-width="1000" x2="3500"/>
 <line fill="none" stroke="white" y1="18100" x1="84900" y2="26100" stroke-width="1000" x2="84900"/>
 <line fill="none" stroke="white" y1="18100" x1="4000" y2="26100" stroke-width="1000" x2="4000"/>
 <line fill="none" stroke="white" y1="18100" x1="84400" y2="26100" stroke-width="1000" x2="84400"/>
 <line fill="none" stroke="white" y1="18100" x1="4500" y2="26100" stroke-width="1000" x2="4500"/>
 <line fill="none" stroke="white" y1="18100" x1="83900" y2="26100" stroke-width="1000" x2="83900"/>
 <line fill="none" stroke="white" y1="17450" x1="4200" y2="48350" stroke-width="2500" x2="4200"/>
 <line fill="none" stroke="white" y1="17450" x1="14200" y2="48350" stroke-width="2500" x2="14200"/>
 <line fill="none" stroke="white" y1="17450" x1="24200" y2="48350" stroke-width="2500" x2="24200"/>
 <line fill="none" stroke="white" y1="17450" x1="34200" y2="48350" stroke-width="2500" x2="34200"/>
 <line fill="none" stroke="white" y1="17450" x1="44200" y2="48350" stroke-width="2500" x2="44200"/>
 <line fill="none" stroke="white" y1="17450" x1="54200" y2="48350" stroke-width="2500" x2="54200"/>
 <line fill="none" stroke="white" y1="17450" x1="64200" y2="48350" stroke-width="2500" x2="64200"/>
 <line fill="none" stroke="white" y1="17450" x1="74200" y2="48350" stroke-width="2500" x2="74200"/>
 <line fill="none" stroke="white" y1="17450" x1="84200" y2="48350" stroke-width="2500" x2="84200"/>
</g>
</svg>