<?xml version="1.0" encoding="UTF-8" standalone="no"?>
<svg xmlns:svg="http://www.w3.org/2000/svg" xmlns="http://www.w3.org/2000/svg" version="1.2" baseProfile="tiny" x="0in" y="0in" width="0.2686in" height="0.3943in" viewBox="0 0 2686 3943" >
<title>SparkFun.mod</title>
<desc>Kicad module 'SparkFun-SFE-LOGO-FLAME-LARGE' from file 'SparkFun.mod' converted by Fritzing</desc>
<metadata xmlns:fz='http://fritzing.org/kicadmetadata/1.0/' xmlns:rdf='http://www.w3.org/1999/02/22-rdf-syntax-ns#'>
<rdf:RDF><rdf:Description rdf:about=''>
<fz:attr name='kicad filename'>SparkFun.mod</fz:attr>
<fz:attr name='kicad module'>SparkFun-SFE-LOGO-FLAME-LARGE</fz:attr>
<fz:attr name='fritzing version'>0.4.1b.07.04.4318</fz:attr>
<fz:attr name='conversion date'>17/07/2010 17:17:22</fz:attr>
<fz:attr name='dist-license'>GPL</fz:attr>
<fz:attr name='use-license'>unlimited</fz:attr>
<fz:attr name='author'>KICAD project</fz:attr>
<fz:attr name='license-url'>http://www.gnu.org/licenses/gpl.html</fz:attr>
<fz:comment></fz:comment>
<fz:attr name='keyword'></fz:attr>
</rdf:Description></rdf:RDF></metadata><g id="silkscreen">
 <line fill="none" stroke="white" y1="3943" x1="0" y2="2945" stroke-width="50" x2="993"/>
 <line fill="none" stroke="white" y1="2945" x1="993" y2="2945" stroke-width="50" x2="1334"/>
 <line fill="none" stroke="white" y1="2945" x1="1334" y2="2943" stroke-width="50" x2="1413"/>
 <line fill="none" stroke="white" y1="2943" x1="1413" y2="2945" stroke-width="50" x2="1484"/>
 <line fill="none" stroke="white" y1="2945" x1="1484" y2="2943" stroke-width="50" x2="1535"/>
 <line fill="none" stroke="white" y1="2943" x1="1535" y2="2925" stroke-width="50" x2="1622"/>
 <line fill="none" stroke="white" y1="2925" x1="1622" y2="2898" stroke-width="50" x2="1708"/>
 <line fill="none" stroke="white" y1="2898" x1="1708" y2="2855" stroke-width="50" x2="1806"/>
 <line fill="none" stroke="white" y1="2855" x1="1806" y2="2805" stroke-width="50" x2="1899"/>
 <line fill="none" stroke="white" y1="2805" x1="1899" y2="2748" stroke-width="50" x2="1984"/>
 <line fill="none" stroke="white" y1="2748" x1="1984" y2="2700" stroke-width="50" x2="2050"/>
 <line fill="none" stroke="white" y1="2700" x1="2050" y2="2630" stroke-width="50" x2="2127"/>
 <line fill="none" stroke="white" y1="2630" x1="2127" y2="2560" stroke-width="50" x2="2201"/>
 <line fill="none" stroke="white" y1="2560" x1="2201" y2="2491" stroke-width="50" x2="2267"/>
 <line fill="none" stroke="white" y1="2491" x1="2267" y2="2423" stroke-width="50" x2="2322"/>
 <line fill="none" stroke="white" y1="2423" x1="2322" y2="2357" stroke-width="50" x2="2371"/>
 <line fill="none" stroke="white" y1="2357" x1="2371" y2="2286" stroke-width="50" x2="2424"/>
 <line fill="none" stroke="white" y1="2286" x1="2424" y2="2201" stroke-width="50" x2="2480"/>
 <line fill="none" stroke="white" y1="2201" x1="2480" y2="2117" stroke-width="50" x2="2523"/>
 <line fill="none" stroke="white" y1="2117" x1="2523" y2="2022" stroke-width="50" x2="2567"/>
 <line fill="none" stroke="white" y1="2022" x1="2567" y2="1936" stroke-width="50" x2="2595"/>
 <line fill="none" stroke="white" y1="1936" x1="2595" y2="1843" stroke-width="50" x2="2626"/>
 <line fill="none" stroke="white" y1="1843" x1="2626" y2="1751" stroke-width="50" x2="2648"/>
 <line fill="none" stroke="white" y1="1751" x1="2648" y2="1664" stroke-width="50" x2="2669"/>
 <line fill="none" stroke="white" y1="1664" x1="2669" y2="1595" stroke-width="50" x2="2679"/>
 <line fill="none" stroke="white" y1="1595" x1="2679" y2="1511" stroke-width="50" x2="2686"/>
 <line fill="none" stroke="white" y1="1511" x1="2686" y2="1427" stroke-width="50" x2="2684"/>
 <line fill="none" stroke="white" y1="1427" x1="2684" y2="1353" stroke-width="50" x2="2674"/>
 <line fill="none" stroke="white" y1="1353" x1="2674" y2="1297" stroke-width="50" x2="2661"/>
 <line fill="none" stroke="white" y1="1297" x1="2661" y2="1218" stroke-width="50" x2="2641"/>
 <line fill="none" stroke="white" y1="1218" x1="2641" y2="1144" stroke-width="50" x2="2610"/>
 <line fill="none" stroke="white" y1="1144" x1="2610" y2="1104" stroke-width="50" x2="2590"/>
 <line fill="none" stroke="white" y1="1104" x1="2590" y2="1030" stroke-width="50" x2="2558"/>
 <line fill="none" stroke="white" y1="1030" x1="2558" y2="974" stroke-width="50" x2="2531"/>
 <line fill="none" stroke="white" y1="974" x1="2531" y2="913" stroke-width="50" x2="2498"/>
 <line fill="none" stroke="white" y1="913" x1="2498" y2="832" stroke-width="50" x2="2448"/>
 <line fill="none" stroke="white" y1="832" x1="2448" y2="779" stroke-width="50" x2="2407"/>
 <line fill="none" stroke="white" y1="779" x1="2407" y2="733" stroke-width="50" x2="2366"/>
 <line fill="none" stroke="white" y1="733" x1="2366" y2="701" stroke-width="50" x2="2335"/>
 <line fill="none" stroke="white" y1="701" x1="2335" y2="661" stroke-width="50" x2="2287"/>
 <line fill="none" stroke="white" y1="661" x1="2287" y2="628" stroke-width="50" x2="2238"/>
 <line fill="none" stroke="white" y1="628" x1="2238" y2="605" stroke-width="50" x2="2197"/>
 <line fill="none" stroke="white" y1="605" x1="2197" y2="653" stroke-width="50" x2="2202"/>
 <line fill="none" stroke="white" y1="653" x1="2202" y2="714" stroke-width="50" x2="2213"/>
 <line fill="none" stroke="white" y1="714" x1="2213" y2="755" stroke-width="50" x2="2208"/>
 <line fill="none" stroke="white" y1="755" x1="2208" y2="798" stroke-width="50" x2="2192"/>
 <line fill="none" stroke="white" y1="798" x1="2192" y2="841" stroke-width="50" x2="2159"/>
 <line fill="none" stroke="white" y1="841" x1="2159" y2="882" stroke-width="50" x2="2108"/>
 <line fill="none" stroke="white" y1="882" x1="2108" y2="903" stroke-width="50" x2="2055"/>
 <line fill="none" stroke="white" y1="903" x1="2055" y2="910" stroke-width="50" x2="2004"/>
 <line fill="none" stroke="white" y1="910" x1="2004" y2="905" stroke-width="50" x2="1950"/>
 <line fill="none" stroke="white" y1="905" x1="1950" y2="895" stroke-width="50" x2="1892"/>
 <line fill="none" stroke="white" y1="895" x1="1892" y2="872" stroke-width="50" x2="1826"/>
 <line fill="none" stroke="white" y1="872" x1="1826" y2="844" stroke-width="50" x2="1762"/>
 <line fill="none" stroke="white" y1="844" x1="1762" y2="806" stroke-width="50" x2="1706"/>
 <line fill="none" stroke="white" y1="806" x1="1706" y2="755" stroke-width="50" x2="1657"/>
 <line fill="none" stroke="white" y1="755" x1="1657" y2="698" stroke-width="50" x2="1610"/>
 <line fill="none" stroke="white" y1="698" x1="1610" y2="643" stroke-width="50" x2="1576"/>
 <line fill="none" stroke="white" y1="643" x1="1576" y2="582" stroke-width="50" x2="1550"/>
 <line fill="none" stroke="white" y1="582" x1="1550" y2="500" stroke-width="50" x2="1543"/>
 <line fill="none" stroke="white" y1="500" x1="1543" y2="437" stroke-width="50" x2="1543"/>
 <line fill="none" stroke="white" y1="437" x1="1543" y2="383" stroke-width="50" x2="1561"/>
 <line fill="none" stroke="white" y1="383" x1="1561" y2="332" stroke-width="50" x2="1591"/>
 <line fill="none" stroke="white" y1="332" x1="1591" y2="309" stroke-width="50" x2="1619"/>
 <line fill="none" stroke="white" y1="309" x1="1619" y2="284" stroke-width="50" x2="1657"/>
 <line fill="none" stroke="white" y1="284" x1="1657" y2="258" stroke-width="50" x2="1711"/>
 <line fill="none" stroke="white" y1="258" x1="1711" y2="240" stroke-width="50" x2="1764"/>
 <line fill="none" stroke="white" y1="240" x1="1764" y2="228" stroke-width="50" x2="1828"/>
 <line fill="none" stroke="white" y1="228" x1="1828" y2="225" stroke-width="50" x2="1882"/>
 <line fill="none" stroke="white" y1="225" x1="1882" y2="225" stroke-width="50" x2="1935"/>
 <line fill="none" stroke="white" y1="225" x1="1935" y2="228" stroke-width="50" x2="1968"/>
 <line fill="none" stroke="white" y1="228" x1="1968" y2="177" stroke-width="50" x2="1913"/>
 <line fill="none" stroke="white" y1="177" x1="1913" y2="136" stroke-width="50" x2="1863"/>
 <line fill="none" stroke="white" y1="136" x1="1863" y2="96" stroke-width="50" x2="1807"/>
 <line fill="none" stroke="white" y1="96" x1="1807" y2="67" stroke-width="50" x2="1747"/>
 <line fill="none" stroke="white" y1="67" x1="1747" y2="37" stroke-width="50" x2="1674"/>
 <line fill="none" stroke="white" y1="37" x1="1674" y2="25" stroke-width="50" x2="1616"/>
 <line fill="none" stroke="white" y1="25" x1="1616" y2="7" stroke-width="50" x2="1536"/>
 <line fill="none" stroke="white" y1="7" x1="1536" y2="0" stroke-width="50" x2="1467"/>
 <line fill="none" stroke="white" y1="0" x1="1467" y2="2" stroke-width="50" x2="1400"/>
 <line fill="none" stroke="white" y1="2" x1="1400" y2="9" stroke-width="50" x2="1315"/>
 <line fill="none" stroke="white" y1="9" x1="1315" y2="23" stroke-width="50" x2="1241"/>
 <line fill="none" stroke="white" y1="23" x1="1241" y2="44" stroke-width="50" x2="1175"/>
 <line fill="none" stroke="white" y1="44" x1="1175" y2="74" stroke-width="50" x2="1114"/>
 <line fill="none" stroke="white" y1="74" x1="1114" y2="119" stroke-width="50" x2="1041"/>
 <line fill="none" stroke="white" y1="119" x1="1041" y2="159" stroke-width="50" x2="977"/>
 <line fill="none" stroke="white" y1="159" x1="977" y2="207" stroke-width="50" x2="930"/>
 <line fill="none" stroke="white" y1="207" x1="930" y2="258" stroke-width="50" x2="890"/>
 <line fill="none" stroke="white" y1="258" x1="890" y2="306" stroke-width="50" x2="857"/>
 <line fill="none" stroke="white" y1="306" x1="857" y2="361" stroke-width="50" x2="831"/>
 <line fill="none" stroke="white" y1="361" x1="831" y2="417" stroke-width="50" x2="813"/>
 <line fill="none" stroke="white" y1="417" x1="813" y2="469" stroke-width="50" x2="801"/>
 <line fill="none" stroke="white" y1="469" x1="801" y2="524" stroke-width="50" x2="794"/>
 <line fill="none" stroke="white" y1="524" x1="794" y2="615" stroke-width="50" x2="797"/>
 <line fill="none" stroke="white" y1="615" x1="797" y2="668" stroke-width="50" x2="804"/>
 <line fill="none" stroke="white" y1="668" x1="804" y2="732" stroke-width="50" x2="822"/>
 <line fill="none" stroke="white" y1="732" x1="822" y2="791" stroke-width="50" x2="845"/>
 <line fill="none" stroke="white" y1="791" x1="845" y2="849" stroke-width="50" x2="870"/>
 <line fill="none" stroke="white" y1="849" x1="870" y2="905" stroke-width="50" x2="900"/>
 <line fill="none" stroke="white" y1="905" x1="900" y2="966" stroke-width="50" x2="944"/>
 <line fill="none" stroke="white" y1="966" x1="944" y2="1018" stroke-width="50" x2="990"/>
 <line fill="none" stroke="white" y1="1018" x1="990" y2="1073" stroke-width="50" x2="1034"/>
 <line fill="none" stroke="white" y1="1073" x1="1034" y2="1127" stroke-width="50" x2="1079"/>
 <line fill="none" stroke="white" y1="1127" x1="1079" y2="1180" stroke-width="50" x2="1125"/>
 <line fill="none" stroke="white" y1="1180" x1="1125" y2="1231" stroke-width="50" x2="1168"/>
 <line fill="none" stroke="white" y1="1231" x1="1168" y2="1297" stroke-width="50" x2="1221"/>
 <line fill="none" stroke="white" y1="1297" x1="1221" y2="1363" stroke-width="50" x2="1253"/>
 <line fill="none" stroke="white" y1="1363" x1="1253" y2="1422" stroke-width="50" x2="1268"/>
 <line fill="none" stroke="white" y1="1422" x1="1268" y2="1472" stroke-width="50" x2="1276"/>
 <line fill="none" stroke="white" y1="1472" x1="1276" y2="1520" stroke-width="50" x2="1282"/>
 <line fill="none" stroke="white" y1="1520" x1="1282" y2="1570" stroke-width="50" x2="1280"/>
 <line fill="none" stroke="white" y1="1570" x1="1280" y2="1607" stroke-width="50" x2="1273"/>
 <line fill="none" stroke="white" y1="1607" x1="1273" y2="1654" stroke-width="50" x2="1250"/>
 <line fill="none" stroke="white" y1="1654" x1="1250" y2="1691" stroke-width="50" x2="1220"/>
 <line fill="none" stroke="white" y1="1691" x1="1220" y2="1721" stroke-width="50" x2="1187"/>
 <line fill="none" stroke="white" y1="1721" x1="1187" y2="1746" stroke-width="50" x2="1149"/>
 <line fill="none" stroke="white" y1="1746" x1="1149" y2="1766" stroke-width="50" x2="1080"/>
 <line fill="none" stroke="white" y1="1766" x1="1080" y2="1775" stroke-width="50" x2="1022"/>
 <line fill="none" stroke="white" y1="1775" x1="1022" y2="1775" stroke-width="50" x2="962"/>
 <line fill="none" stroke="white" y1="1775" x1="962" y2="1767" stroke-width="50" x2="909"/>
 <line fill="none" stroke="white" y1="1767" x1="909" y2="1758" stroke-width="50" x2="856"/>
 <line fill="none" stroke="white" y1="1758" x1="856" y2="1739" stroke-width="50" x2="803"/>
 <line fill="none" stroke="white" y1="1739" x1="803" y2="1717" stroke-width="50" x2="755"/>
 <line fill="none" stroke="white" y1="1717" x1="755" y2="1696" stroke-width="50" x2="715"/>
 <line fill="none" stroke="white" y1="1696" x1="715" y2="1677" stroke-width="50" x2="691"/>
 <line fill="none" stroke="white" y1="1677" x1="691" y2="1646" stroke-width="50" x2="657"/>
 <line fill="none" stroke="white" y1="1646" x1="657" y2="1604" stroke-width="50" x2="624"/>
 <line fill="none" stroke="white" y1="1604" x1="624" y2="1553" stroke-width="50" x2="604"/>
 <line fill="none" stroke="white" y1="1553" x1="604" y2="1505" stroke-width="50" x2="599"/>
 <line fill="none" stroke="white" y1="1505" x1="599" y2="1455" stroke-width="50" x2="607"/>
 <line fill="none" stroke="white" y1="1455" x1="607" y2="1403" stroke-width="50" x2="623"/>
 <line fill="none" stroke="white" y1="1403" x1="623" y2="1369" stroke-width="50" x2="648"/>
 <line fill="none" stroke="white" y1="1369" x1="648" y2="1344" stroke-width="50" x2="674"/>
 <line fill="none" stroke="white" y1="1344" x1="674" y2="1310" stroke-width="50" x2="707"/>
 <line fill="none" stroke="white" y1="1310" x1="707" y2="1276" stroke-width="50" x2="741"/>
 <line fill="none" stroke="white" y1="1276" x1="741" y2="1253" stroke-width="50" x2="770"/>
 <line fill="none" stroke="white" y1="1253" x1="770" y2="1228" stroke-width="50" x2="800"/>
 <line fill="none" stroke="white" y1="1228" x1="800" y2="1213" stroke-width="50" x2="813"/>
 <line fill="none" stroke="white" y1="1213" x1="813" y2="1212" stroke-width="50" x2="727"/>
 <line fill="none" stroke="white" y1="1212" x1="727" y2="1212" stroke-width="50" x2="666"/>
 <line fill="none" stroke="white" y1="1212" x1="666" y2="1213" stroke-width="50" x2="601"/>
 <line fill="none" stroke="white" y1="1213" x1="601" y2="1212" stroke-width="50" x2="536"/>
 <line fill="none" stroke="white" y1="1212" x1="536" y2="1212" stroke-width="50" x2="486"/>
 <line fill="none" stroke="white" y1="1212" x1="486" y2="1218" stroke-width="50" x2="443"/>
 <line fill="none" stroke="white" y1="1218" x1="443" y2="1226" stroke-width="50" x2="393"/>
 <line fill="none" stroke="white" y1="1226" x1="393" y2="1256" stroke-width="50" x2="330"/>
 <line fill="none" stroke="white" y1="1256" x1="330" y2="1287" stroke-width="50" x2="278"/>
 <line fill="none" stroke="white" y1="1287" x1="278" y2="1328" stroke-width="50" x2="226"/>
 <line fill="none" stroke="white" y1="1328" x1="226" y2="1374" stroke-width="50" x2="187"/>
 <line fill="none" stroke="white" y1="1374" x1="187" y2="1424" stroke-width="50" x2="153"/>
 <line fill="none" stroke="white" y1="1424" x1="153" y2="1477" stroke-width="50" x2="125"/>
 <line fill="none" stroke="white" y1="1477" x1="125" y2="1528" stroke-width="50" x2="100"/>
 <line fill="none" stroke="white" y1="1528" x1="100" y2="1595" stroke-width="50" x2="70"/>
 <line fill="none" stroke="white" y1="1595" x1="70" y2="1641" stroke-width="50" x2="54"/>
 <line fill="none" stroke="white" y1="1641" x1="54" y2="1694" stroke-width="50" x2="38"/>
 <line fill="none" stroke="white" y1="1694" x1="38" y2="1742" stroke-width="50" x2="24"/>
 <line fill="none" stroke="white" y1="1742" x1="24" y2="1795" stroke-width="50" x2="12"/>
 <line fill="none" stroke="white" y1="1795" x1="12" y2="1857" stroke-width="50" x2="5"/>
 <line fill="none" stroke="white" y1="1857" x1="5" y2="1943" stroke-width="50" x2="0"/>
 <line fill="none" stroke="white" y1="1943" x1="0" y2="3943" stroke-width="50" x2="0"/>
</g>
</svg>