<?xml version="1.0" encoding="UTF-8" standalone="no"?>
<svg xmlns:svg="http://www.w3.org/2000/svg" xmlns="http://www.w3.org/2000/svg" version="1.2" baseProfile="tiny" x="0in" y="0in" width="1.65in" height="1in" viewBox="0 0 16500 10000" >
<title>SparkFun.mod</title>
<desc>Kicad module 'SparkFun-MULTIWATT15_6400BGHEATSINK_2' from file 'SparkFun.mod' converted by Fritzing</desc>
<metadata xmlns:fz='http://fritzing.org/kicadmetadata/1.0/' xmlns:rdf='http://www.w3.org/1999/02/22-rdf-syntax-ns#'>
<rdf:RDF><rdf:Description rdf:about=''>
<fz:attr name='kicad filename'>SparkFun.mod</fz:attr>
<fz:attr name='kicad module'>SparkFun-MULTIWATT15_6400BGHEATSINK_2</fz:attr>
<fz:attr name='fritzing version'>0.4.1b.07.04.4318</fz:attr>
<fz:attr name='conversion date'>17/07/2010 17:16:32</fz:attr>
<fz:attr name='dist-license'>GPL</fz:attr>
<fz:attr name='use-license'>unlimited</fz:attr>
<fz:attr name='author'>KICAD project</fz:attr>
<fz:attr name='license-url'>http://www.gnu.org/licenses/gpl.html</fz:attr>
<fz:comment></fz:comment>
<fz:attr name='keyword'></fz:attr>
</rdf:Description></rdf:RDF></metadata><g id="copper0">
 <g id="copper1">
  <g connectorname="1" id="connector0pin">
   <circle fill="none" cx="4727" cy="9290" stroke="#ff9400" r="295.25" stroke-width="157.5"/>
  </g>
  <g connectorname="2" id="connector1pin">
   <circle fill="none" cx="5227" cy="7291" stroke="#ff9400" r="295.25" stroke-width="157.5"/>
  </g>
  <g connectorname="3" id="connector2pin">
   <circle fill="none" cx="5727" cy="9290" stroke="#ff9400" r="295.25" stroke-width="157.5"/>
  </g>
  <g connectorname="4" id="connector3pin">
   <circle fill="none" cx="6227" cy="7291" stroke="#ff9400" r="295.25" stroke-width="157.5"/>
  </g>
  <g connectorname="5" id="connector4pin">
   <circle fill="none" cx="6727" cy="9290" stroke="#ff9400" r="295.25" stroke-width="157.5"/>
  </g>
  <g connectorname="6" id="connector5pin">
   <circle fill="none" cx="7227" cy="7291" stroke="#ff9400" r="295.25" stroke-width="157.5"/>
  </g>
  <g connectorname="7" id="connector6pin">
   <circle fill="none" cx="7727" cy="9290" stroke="#ff9400" r="295.25" stroke-width="157.5"/>
  </g>
  <g connectorname="8" id="connector7pin">
   <circle fill="none" cx="8227" cy="7291" stroke="#ff9400" r="295.25" stroke-width="157.5"/>
  </g>
  <g connectorname="9" id="connector8pin">
   <circle fill="none" cx="8726" cy="9290" stroke="#ff9400" r="295.25" stroke-width="157.5"/>
  </g>
  <g connectorname="10" id="connector9pin">
   <circle fill="none" cx="9226" cy="7291" stroke="#ff9400" r="295.25" stroke-width="157.5"/>
  </g>
  <g connectorname="11" id="connector10pin">
   <circle fill="none" cx="9726" cy="9290" stroke="#ff9400" r="295.25" stroke-width="157.5"/>
  </g>
  <g connectorname="12" id="connector11pin">
   <circle fill="none" cx="10226" cy="7291" stroke="#ff9400" r="295.25" stroke-width="157.5"/>
  </g>
  <g connectorname="13" id="connector12pin">
   <circle fill="none" cx="10726" cy="9290" stroke="#ff9400" r="295.25" stroke-width="157.5"/>
  </g>
  <g connectorname="14" id="connector13pin">
   <circle fill="none" cx="11226" cy="7291" stroke="#ff9400" r="295.25" stroke-width="157.5"/>
  </g>
  <g connectorname="15" id="connector14pin">
   <circle fill="none" cx="11726" cy="9290" stroke="#ff9400" r="295.25" stroke-width="157.5"/>
  </g>
  <g connectorname="P$1" id="connector15pin">
   <circle fill="none" cx="3250" cy="5000" stroke="#ff9400" r="612.5" stroke-width="275"/>
   <circle fill="black" cx="3250" cy="5000" drill="0" r="475" stroke-width="0"/>
  </g>
  <g connectorname="P$2" id="connector16pin">
   <circle fill="none" cx="13250" cy="5000" stroke="#ff9400" r="612.5" stroke-width="275"/>
   <circle fill="black" cx="13250" cy="5000" drill="0" r="475" stroke-width="0"/>
  </g>
 </g>
</g>
<g id="silkscreen">
 <line fill="none" stroke="white" y1="0" x1="0" y2="0" stroke-width="100" x2="6500"/>
 <line fill="none" stroke="white" y1="0" x1="10000" y2="0" stroke-width="100" x2="16500"/>
 <line fill="none" stroke="white" y1="5950" x1="3250" y2="10000" stroke-width="100" x2="3250"/>
 <line fill="none" stroke="white" y1="6000" x1="13250" y2="10000" stroke-width="100" x2="13250"/>
 <line fill="none" stroke="white" y1="10000" x1="13250" y2="10000" stroke-width="100" x2="16500"/>
 <line fill="none" stroke="white" y1="10000" x1="16500" y2="0" stroke-width="100" x2="16500"/>
 <line fill="none" stroke="white" y1="10000" x1="3250" y2="10000" stroke-width="100" x2="0"/>
 <line fill="none" stroke="white" y1="10000" x1="0" y2="0" stroke-width="100" x2="0"/>
 <line fill="none" stroke="white" y1="5310" x1="4150" y2="5310" stroke-width="100" x2="12350"/>
 <line fill="none" stroke="white" y1="0" x1="6500" y2="4690" stroke-width="100" x2="6500"/>
 <line fill="none" stroke="white" y1="4690" x1="10000" y2="0" stroke-width="100" x2="10000"/>
 <line fill="none" stroke="white" y1="4690" x1="6500" y2="4690" stroke-width="100" x2="10000"/>
 <line fill="none" stroke="white" y1="7350" x1="4250" y2="6012" stroke-width="80" x2="4250"/>
 <line fill="none" stroke="white" y1="6012" x1="4250" y2="5382" stroke-width="80" x2="4250"/>
 <line fill="none" stroke="white" y1="5382" x1="4250" y2="5382" stroke-width="80" x2="12202"/>
 <line fill="none" stroke="white" y1="5382" x1="12202" y2="6012" stroke-width="80" x2="12202"/>
 <line fill="none" stroke="white" y1="6012" x1="12202" y2="7350" stroke-width="80" x2="12202"/>
 <line fill="none" stroke="white" y1="7350" x1="12202" y2="7350" stroke-width="80" x2="4250"/>
 <line fill="none" stroke="white" y1="6012" x1="4250" y2="6012" stroke-width="80" x2="12202"/>
 <line fill="none" stroke="white" y1="7347" x1="4254" y2="7347" stroke-width="80" x2="4766"/>
 <line fill="none" stroke="white" y1="7347" x1="5691" y2="7347" stroke-width="80" x2="5770"/>
 <line fill="none" stroke="white" y1="7347" x1="6695" y2="7347" stroke-width="80" x2="6774"/>
 <line fill="none" stroke="white" y1="7347" x1="7680" y2="7347" stroke-width="80" x2="7758"/>
 <line fill="none" stroke="white" y1="7347" x1="8683" y2="7347" stroke-width="80" x2="8761"/>
 <line fill="none" stroke="white" y1="7347" x1="9687" y2="7347" stroke-width="80" x2="9765"/>
 <line fill="none" stroke="white" y1="7347" x1="10690" y2="7347" stroke-width="80" x2="10769"/>
 <line fill="none" stroke="white" y1="7347" x1="12206" y2="7347" stroke-width="80" x2="11694"/>
</g>
</svg>