<?xml version="1.0" encoding="utf-8"?>
<!-- Generator: Adobe Illustrator 15.1.0, SVG Export Plug-In . SVG Version: 6.00 Build 0)  -->
<!DOCTYPE svg PUBLIC "-//W3C//DTD SVG 1.1//EN" "http://www.w3.org/Graphics/SVG/1.1/DTD/svg11.dtd">
<svg version="1.1" id="Ebene_1" xmlns:xml="http://www.w3.org/XML/1998/namespace"
	 xmlns="http://www.w3.org/2000/svg" xmlns:xlink="http://www.w3.org/1999/xlink" x="0px" y="0px" width="113.5px"
	 height="153.167px" viewBox="0 0 113.5 153.167" enable-background="new 0 0 113.5 153.167" xml:space="preserve">
<g>
	<g>
		<g>
			<circle cx="108" cy="136.799" r="0.744"/>
			<circle cx="93.6" cy="151.199" r="0.744"/>
		</g>
		<g>
			<circle cx="86.4" cy="136.799" r="0.744"/>
			<circle cx="72" cy="151.199" r="0.744"/>
		</g>
		<g>
			<circle cx="64.8" cy="136.799" r="0.744"/>
			<circle cx="50.401" cy="151.199" r="0.744"/>
		</g>
		<g>
			<circle cx="43.2" cy="136.799" r="0.744"/>
			<circle cx="28.801" cy="151.199" r="0.744"/>
		</g>
		<g>
			<circle cx="21.6" cy="136.799" r="0.744"/>
			<circle cx="7.2" cy="151.199" r="0.744"/>
		</g>
	</g>
	<g>
		<g>
			<circle cx="108" cy="115.2" r="0.744"/>
			<circle cx="93.6" cy="129.599" r="0.744"/>
		</g>
		<g>
			<circle cx="86.4" cy="115.2" r="0.744"/>
			<circle cx="72" cy="129.599" r="0.744"/>
		</g>
		<g>
			<circle cx="64.8" cy="115.2" r="0.744"/>
			<circle cx="50.401" cy="129.599" r="0.744"/>
		</g>
		<g>
			<circle cx="43.2" cy="115.2" r="0.744"/>
			<circle cx="28.801" cy="129.599" r="0.744"/>
		</g>
		<g>
			<circle cx="21.6" cy="115.2" r="0.744"/>
			<circle cx="7.2" cy="129.599" r="0.744"/>
		</g>
	</g>
	<g>
		<g>
			<circle cx="108" cy="93.6" r="0.744"/>
			<circle cx="93.6" cy="108" r="0.744"/>
		</g>
		<g>
			<circle cx="86.4" cy="93.6" r="0.744"/>
			<circle cx="72" cy="108" r="0.744"/>
		</g>
		<g>
			<circle cx="64.8" cy="93.6" r="0.744"/>
			<circle cx="50.401" cy="108" r="0.744"/>
		</g>
		<g>
			<circle cx="43.2" cy="93.6" r="0.744"/>
			<circle cx="28.801" cy="108" r="0.744"/>
		</g>
		<g>
			<circle cx="21.6" cy="93.6" r="0.744"/>
			<circle cx="7.2" cy="108" r="0.744"/>
		</g>
	</g>
	<g>
		<g>
			<circle cx="108" cy="72" r="0.744"/>
			<circle cx="93.6" cy="86.4" r="0.744"/>
		</g>
		<g>
			<circle cx="86.4" cy="72" r="0.744"/>
			<circle cx="72" cy="86.4" r="0.744"/>
		</g>
		<g>
			<circle cx="64.8" cy="72" r="0.744"/>
			<circle cx="50.401" cy="86.4" r="0.744"/>
		</g>
		<g>
			<circle cx="43.2" cy="72" r="0.744"/>
			<circle cx="28.801" cy="86.4" r="0.744"/>
		</g>
		<g>
			<circle cx="21.6" cy="72" r="0.744"/>
			<circle cx="7.2" cy="86.4" r="0.744"/>
		</g>
	</g>
	<g>
		<g>
			<circle cx="108" cy="50.4" r="0.744"/>
			<circle cx="93.6" cy="64.8" r="0.744"/>
		</g>
		<g>
			<circle cx="86.4" cy="50.4" r="0.744"/>
			<circle cx="72" cy="64.8" r="0.744"/>
		</g>
		<g>
			<circle cx="64.8" cy="50.4" r="0.744"/>
			<circle cx="50.401" cy="64.8" r="0.744"/>
		</g>
		<g>
			<circle cx="43.2" cy="50.4" r="0.744"/>
			<circle cx="28.801" cy="64.8" r="0.744"/>
		</g>
		<g>
			<circle cx="21.6" cy="50.4" r="0.744"/>
			<circle cx="7.2" cy="64.8" r="0.744"/>
		</g>
	</g>
	<g>
		<g>
			<circle cx="108" cy="28.8" r="0.744"/>
			<circle cx="93.6" cy="43.2" r="0.744"/>
		</g>
		<g>
			<circle cx="86.4" cy="28.8" r="0.744"/>
			<circle cx="72" cy="43.2" r="0.744"/>
		</g>
		<g>
			<circle cx="64.8" cy="28.8" r="0.744"/>
			<circle cx="50.401" cy="43.2" r="0.744"/>
		</g>
		<g>
			<circle cx="43.2" cy="28.8" r="0.744"/>
			<circle cx="28.801" cy="43.2" r="0.744"/>
		</g>
		<g>
			<circle cx="21.6" cy="28.8" r="0.744"/>
			<circle cx="7.2" cy="43.2" r="0.744"/>
		</g>
	</g>
	<g>
		<g>
			<circle cx="108" cy="7.2" r="0.744"/>
			<circle cx="93.6" cy="21.6" r="0.744"/>
		</g>
		<g>
			<circle cx="86.4" cy="7.2" r="0.744"/>
			<circle cx="72" cy="21.6" r="0.744"/>
		</g>
		<g>
			<circle cx="64.8" cy="7.2" r="0.744"/>
			<circle cx="50.401" cy="21.6" r="0.744"/>
		</g>
		<g>
			<circle cx="43.2" cy="7.2" r="0.744"/>
			<circle cx="28.801" cy="21.6" r="0.744"/>
		</g>
		<g>
			<circle cx="21.6" cy="7.2" r="0.744"/>
			<circle cx="7.2" cy="21.6" r="0.744"/>
		</g>
	</g>
</g>
<g>
	<g>
		<g>
			<g>
				<g>
					<line fill="none" stroke="#000000" stroke-width="0.7" stroke-linecap="round" x1="13.963" y1="9.744" x2="16.51" y2="12.29"/>
				</g>
				<g>
					<line fill="none" stroke="#000000" stroke-width="0.7" stroke-linecap="round" x1="35.563" y1="9.744" x2="38.11" y2="12.29"/>
				</g>
				<g>
					<line fill="none" stroke="#000000" stroke-width="0.7" stroke-linecap="round" x1="57.163" y1="9.744" x2="59.71" y2="12.29"/>
				</g>
				<g>
					
						<line fill="none" stroke="#000000" stroke-width="0.7" stroke-linecap="round" x1="78.764" y1="9.744" x2="81.311" y2="12.29"/>
				</g>
				<g>
					
						<line fill="none" stroke="#000000" stroke-width="0.7" stroke-linecap="round" x1="100.363" y1="9.744" x2="102.91" y2="12.29"/>
				</g>
			</g>
			<g>
				<g>
					
						<line fill="none" stroke="#000000" stroke-width="0.7" stroke-linecap="round" x1="13.963" y1="31.344" x2="16.51" y2="33.89"/>
				</g>
				<g>
					
						<line fill="none" stroke="#000000" stroke-width="0.7" stroke-linecap="round" x1="35.563" y1="31.344" x2="38.11" y2="33.89"/>
				</g>
				<g>
					
						<line fill="none" stroke="#000000" stroke-width="0.7" stroke-linecap="round" x1="57.163" y1="31.344" x2="59.71" y2="33.89"/>
				</g>
				<g>
					
						<line fill="none" stroke="#000000" stroke-width="0.7" stroke-linecap="round" x1="78.764" y1="31.344" x2="81.311" y2="33.89"/>
				</g>
				<g>
					
						<line fill="none" stroke="#000000" stroke-width="0.7" stroke-linecap="round" x1="100.363" y1="31.344" x2="102.91" y2="33.89"/>
				</g>
			</g>
			<g>
				<g>
					
						<line fill="none" stroke="#000000" stroke-width="0.7" stroke-linecap="round" x1="13.963" y1="52.942" x2="16.51" y2="55.488"/>
				</g>
				<g>
					
						<line fill="none" stroke="#000000" stroke-width="0.7" stroke-linecap="round" x1="35.563" y1="52.942" x2="38.11" y2="55.488"/>
				</g>
				<g>
					
						<line fill="none" stroke="#000000" stroke-width="0.7" stroke-linecap="round" x1="57.163" y1="52.942" x2="59.71" y2="55.488"/>
				</g>
				<g>
					
						<line fill="none" stroke="#000000" stroke-width="0.7" stroke-linecap="round" x1="78.764" y1="52.942" x2="81.311" y2="55.488"/>
				</g>
				<g>
					
						<line fill="none" stroke="#000000" stroke-width="0.7" stroke-linecap="round" x1="100.363" y1="52.942" x2="102.91" y2="55.488"/>
				</g>
			</g>
			<g>
				<g>
					
						<line fill="none" stroke="#000000" stroke-width="0.7" stroke-linecap="round" x1="13.963" y1="74.543" x2="16.51" y2="77.089"/>
				</g>
				<g>
					
						<line fill="none" stroke="#000000" stroke-width="0.7" stroke-linecap="round" x1="35.563" y1="74.543" x2="38.11" y2="77.089"/>
				</g>
				<g>
					
						<line fill="none" stroke="#000000" stroke-width="0.7" stroke-linecap="round" x1="57.163" y1="74.543" x2="59.71" y2="77.089"/>
				</g>
				<g>
					
						<line fill="none" stroke="#000000" stroke-width="0.7" stroke-linecap="round" x1="78.764" y1="74.543" x2="81.311" y2="77.089"/>
				</g>
				<g>
					
						<line fill="none" stroke="#000000" stroke-width="0.7" stroke-linecap="round" x1="100.363" y1="74.543" x2="102.91" y2="77.089"/>
				</g>
			</g>
			<g>
				<g>
					
						<line fill="none" stroke="#000000" stroke-width="0.7" stroke-linecap="round" x1="13.963" y1="96.142" x2="16.51" y2="98.689"/>
				</g>
				<g>
					
						<line fill="none" stroke="#000000" stroke-width="0.7" stroke-linecap="round" x1="35.563" y1="96.142" x2="38.11" y2="98.689"/>
				</g>
				<g>
					
						<line fill="none" stroke="#000000" stroke-width="0.7" stroke-linecap="round" x1="57.163" y1="96.142" x2="59.71" y2="98.689"/>
				</g>
				<g>
					
						<line fill="none" stroke="#000000" stroke-width="0.7" stroke-linecap="round" x1="78.764" y1="96.142" x2="81.311" y2="98.689"/>
				</g>
				<g>
					
						<line fill="none" stroke="#000000" stroke-width="0.7" stroke-linecap="round" x1="100.363" y1="96.142" x2="102.91" y2="98.689"/>
				</g>
			</g>
			<g>
				<g>
					
						<line fill="none" stroke="#000000" stroke-width="0.7" stroke-linecap="round" x1="13.963" y1="117.742" x2="16.51" y2="120.289"/>
				</g>
				<g>
					
						<line fill="none" stroke="#000000" stroke-width="0.7" stroke-linecap="round" x1="35.563" y1="117.742" x2="38.11" y2="120.289"/>
				</g>
				<g>
					
						<line fill="none" stroke="#000000" stroke-width="0.7" stroke-linecap="round" x1="57.163" y1="117.742" x2="59.71" y2="120.289"/>
				</g>
				<g>
					
						<line fill="none" stroke="#000000" stroke-width="0.7" stroke-linecap="round" x1="78.764" y1="117.742" x2="81.311" y2="120.289"/>
				</g>
				<g>
					
						<line fill="none" stroke="#000000" stroke-width="0.7" stroke-linecap="round" x1="100.363" y1="117.742" x2="102.91" y2="120.289"/>
				</g>
			</g>
			<g>
				<g>
					
						<line fill="none" stroke="#000000" stroke-width="0.7" stroke-linecap="round" x1="13.963" y1="139.341" x2="16.51" y2="141.888"/>
				</g>
				<g>
					
						<line fill="none" stroke="#000000" stroke-width="0.7" stroke-linecap="round" x1="35.563" y1="139.341" x2="38.11" y2="141.888"/>
				</g>
				<g>
					
						<line fill="none" stroke="#000000" stroke-width="0.7" stroke-linecap="round" x1="57.163" y1="139.341" x2="59.71" y2="141.888"/>
				</g>
				<g>
					
						<line fill="none" stroke="#000000" stroke-width="0.7" stroke-linecap="round" x1="78.764" y1="139.341" x2="81.311" y2="141.888"/>
				</g>
				<g>
					
						<line fill="none" stroke="#000000" stroke-width="0.7" stroke-linecap="round" x1="100.363" y1="139.341" x2="102.91" y2="141.888"/>
				</g>
			</g>
		</g>
		<g>
			<g>
				<g>
					
						<line fill="none" stroke="#000000" stroke-width="0.7" stroke-linecap="round" x1="16.51" y1="12.29" x2="19.055" y2="14.836"/>
				</g>
				<g>
					
						<line fill="none" stroke="#000000" stroke-width="0.7" stroke-linecap="round" x1="38.11" y1="12.29" x2="40.655" y2="14.836"/>
				</g>
				<g>
					
						<line fill="none" stroke="#000000" stroke-width="0.7" stroke-linecap="round" x1="59.71" y1="12.29" x2="62.256" y2="14.836"/>
				</g>
				<g>
					
						<line fill="none" stroke="#000000" stroke-width="0.7" stroke-linecap="round" x1="81.311" y1="12.29" x2="83.855" y2="14.836"/>
				</g>
				<g>
					
						<line fill="none" stroke="#000000" stroke-width="0.7" stroke-linecap="round" x1="102.91" y1="12.29" x2="105.455" y2="14.836"/>
				</g>
			</g>
			<g>
				<g>
					
						<line fill="none" stroke="#000000" stroke-width="0.7" stroke-linecap="round" x1="16.51" y1="33.89" x2="19.055" y2="36.436"/>
				</g>
				<g>
					
						<line fill="none" stroke="#000000" stroke-width="0.7" stroke-linecap="round" x1="38.11" y1="33.89" x2="40.655" y2="36.436"/>
				</g>
				<g>
					
						<line fill="none" stroke="#000000" stroke-width="0.7" stroke-linecap="round" x1="59.71" y1="33.89" x2="62.256" y2="36.436"/>
				</g>
				<g>
					
						<line fill="none" stroke="#000000" stroke-width="0.7" stroke-linecap="round" x1="81.311" y1="33.89" x2="83.855" y2="36.436"/>
				</g>
				<g>
					
						<line fill="none" stroke="#000000" stroke-width="0.7" stroke-linecap="round" x1="102.91" y1="33.89" x2="105.455" y2="36.436"/>
				</g>
			</g>
			<g>
				<g>
					
						<line fill="none" stroke="#000000" stroke-width="0.7" stroke-linecap="round" x1="16.51" y1="55.488" x2="19.055" y2="58.035"/>
				</g>
				<g>
					
						<line fill="none" stroke="#000000" stroke-width="0.7" stroke-linecap="round" x1="38.11" y1="55.488" x2="40.655" y2="58.035"/>
				</g>
				<g>
					
						<line fill="none" stroke="#000000" stroke-width="0.7" stroke-linecap="round" x1="59.71" y1="55.488" x2="62.256" y2="58.035"/>
				</g>
				<g>
					
						<line fill="none" stroke="#000000" stroke-width="0.7" stroke-linecap="round" x1="81.311" y1="55.488" x2="83.855" y2="58.035"/>
				</g>
				<g>
					
						<line fill="none" stroke="#000000" stroke-width="0.7" stroke-linecap="round" x1="102.91" y1="55.488" x2="105.455" y2="58.035"/>
				</g>
			</g>
			<g>
				<g>
					
						<line fill="none" stroke="#000000" stroke-width="0.7" stroke-linecap="round" x1="16.51" y1="77.089" x2="19.055" y2="79.634"/>
				</g>
				<g>
					
						<line fill="none" stroke="#000000" stroke-width="0.7" stroke-linecap="round" x1="38.11" y1="77.089" x2="40.655" y2="79.634"/>
				</g>
				<g>
					
						<line fill="none" stroke="#000000" stroke-width="0.7" stroke-linecap="round" x1="59.71" y1="77.089" x2="62.256" y2="79.634"/>
				</g>
				<g>
					
						<line fill="none" stroke="#000000" stroke-width="0.7" stroke-linecap="round" x1="81.311" y1="77.089" x2="83.855" y2="79.634"/>
				</g>
				<g>
					
						<line fill="none" stroke="#000000" stroke-width="0.7" stroke-linecap="round" x1="102.91" y1="77.089" x2="105.455" y2="79.634"/>
				</g>
			</g>
			<g>
				<g>
					
						<line fill="none" stroke="#000000" stroke-width="0.7" stroke-linecap="round" x1="16.51" y1="98.689" x2="19.055" y2="101.234"/>
				</g>
				<g>
					
						<line fill="none" stroke="#000000" stroke-width="0.7" stroke-linecap="round" x1="38.11" y1="98.689" x2="40.655" y2="101.234"/>
				</g>
				<g>
					
						<line fill="none" stroke="#000000" stroke-width="0.7" stroke-linecap="round" x1="59.71" y1="98.689" x2="62.256" y2="101.234"/>
				</g>
				<g>
					
						<line fill="none" stroke="#000000" stroke-width="0.7" stroke-linecap="round" x1="81.311" y1="98.689" x2="83.855" y2="101.234"/>
				</g>
				<g>
					
						<line fill="none" stroke="#000000" stroke-width="0.7" stroke-linecap="round" x1="102.91" y1="98.689" x2="105.455" y2="101.234"/>
				</g>
			</g>
			<g>
				<g>
					
						<line fill="none" stroke="#000000" stroke-width="0.7" stroke-linecap="round" x1="16.51" y1="120.289" x2="19.055" y2="122.833"/>
				</g>
				<g>
					
						<line fill="none" stroke="#000000" stroke-width="0.7" stroke-linecap="round" x1="38.11" y1="120.289" x2="40.655" y2="122.833"/>
				</g>
				<g>
					
						<line fill="none" stroke="#000000" stroke-width="0.7" stroke-linecap="round" x1="59.71" y1="120.289" x2="62.256" y2="122.833"/>
				</g>
				<g>
					
						<line fill="none" stroke="#000000" stroke-width="0.7" stroke-linecap="round" x1="81.311" y1="120.289" x2="83.855" y2="122.833"/>
				</g>
				<g>
					
						<line fill="none" stroke="#000000" stroke-width="0.7" stroke-linecap="round" x1="102.91" y1="120.289" x2="105.455" y2="122.833"/>
				</g>
			</g>
			<g>
				<g>
					
						<line fill="none" stroke="#000000" stroke-width="0.7" stroke-linecap="round" x1="16.51" y1="141.888" x2="19.055" y2="144.433"/>
				</g>
				<g>
					
						<line fill="none" stroke="#000000" stroke-width="0.7" stroke-linecap="round" x1="38.11" y1="141.888" x2="40.655" y2="144.433"/>
				</g>
				<g>
					
						<line fill="none" stroke="#000000" stroke-width="0.7" stroke-linecap="round" x1="59.71" y1="141.888" x2="62.256" y2="144.433"/>
				</g>
				<g>
					
						<line fill="none" stroke="#000000" stroke-width="0.7" stroke-linecap="round" x1="81.311" y1="141.888" x2="83.855" y2="144.433"/>
				</g>
				<g>
					
						<line fill="none" stroke="#000000" stroke-width="0.7" stroke-linecap="round" x1="102.91" y1="141.888" x2="105.455" y2="144.433"/>
				</g>
			</g>
		</g>
		<g>
			<g>
				<g>
					<polygon fill="#FFFFFF" points="16.51,12.29 13.963,19.927 11.418,17.382 8.872,14.836 					"/>
					<polygon fill="none" stroke="#000000" stroke-width="0.7" stroke-linecap="round" points="16.51,12.29 13.963,19.927 
						11.418,17.382 8.872,14.836 					"/>
				</g>
				<g>
					<polygon fill="#FFFFFF" points="38.11,12.29 35.563,19.927 33.018,17.382 30.472,14.836 					"/>
					<polygon fill="none" stroke="#000000" stroke-width="0.7" stroke-linecap="round" points="38.11,12.29 35.563,19.927 
						33.018,17.382 30.472,14.836 					"/>
				</g>
				<g>
					<polygon fill="#FFFFFF" points="59.71,12.29 57.163,19.927 54.618,17.382 52.072,14.836 					"/>
					<polygon fill="none" stroke="#000000" stroke-width="0.7" stroke-linecap="round" points="59.71,12.29 57.163,19.927 
						54.618,17.382 52.072,14.836 					"/>
				</g>
				<g>
					<polygon fill="#FFFFFF" points="81.311,12.29 78.764,19.927 76.219,17.382 73.672,14.836 					"/>
					<polygon fill="none" stroke="#000000" stroke-width="0.7" stroke-linecap="round" points="81.311,12.29 78.764,19.927 
						76.219,17.382 73.672,14.836 					"/>
				</g>
				<g>
					<polygon fill="#FFFFFF" points="102.91,12.29 100.363,19.927 97.818,17.382 95.273,14.836 					"/>
					<polygon fill="none" stroke="#000000" stroke-width="0.7" stroke-linecap="round" points="102.91,12.29 100.363,19.927 
						97.818,17.382 95.273,14.836 					"/>
				</g>
			</g>
			<g>
				<g>
					<polygon fill="#FFFFFF" points="16.51,33.89 13.963,41.525 11.418,38.98 8.872,36.436 					"/>
					<polygon fill="none" stroke="#000000" stroke-width="0.7" stroke-linecap="round" points="16.51,33.89 13.963,41.525 
						11.418,38.98 8.872,36.436 					"/>
				</g>
				<g>
					<polygon fill="#FFFFFF" points="38.11,33.89 35.563,41.525 33.018,38.98 30.472,36.436 					"/>
					<polygon fill="none" stroke="#000000" stroke-width="0.7" stroke-linecap="round" points="38.11,33.89 35.563,41.525 
						33.018,38.98 30.472,36.436 					"/>
				</g>
				<g>
					<polygon fill="#FFFFFF" points="59.71,33.89 57.163,41.525 54.618,38.98 52.072,36.436 					"/>
					<polygon fill="none" stroke="#000000" stroke-width="0.7" stroke-linecap="round" points="59.71,33.89 57.163,41.525 
						54.618,38.98 52.072,36.436 					"/>
				</g>
				<g>
					<polygon fill="#FFFFFF" points="81.311,33.89 78.764,41.525 76.219,38.98 73.672,36.436 					"/>
					<polygon fill="none" stroke="#000000" stroke-width="0.7" stroke-linecap="round" points="81.311,33.89 78.764,41.525 
						76.219,38.98 73.672,36.436 					"/>
				</g>
				<g>
					<polygon fill="#FFFFFF" points="102.91,33.89 100.363,41.525 97.818,38.98 95.273,36.436 					"/>
					<polygon fill="none" stroke="#000000" stroke-width="0.7" stroke-linecap="round" points="102.91,33.89 100.363,41.525 
						97.818,38.98 95.273,36.436 					"/>
				</g>
			</g>
			<g>
				<g>
					<polygon fill="#FFFFFF" points="16.51,55.488 13.963,63.126 11.418,60.581 8.872,58.035 					"/>
					<polygon fill="none" stroke="#000000" stroke-width="0.7" stroke-linecap="round" points="16.51,55.488 13.963,63.126 
						11.418,60.581 8.872,58.035 					"/>
				</g>
				<g>
					<polygon fill="#FFFFFF" points="38.11,55.488 35.563,63.126 33.018,60.581 30.472,58.035 					"/>
					<polygon fill="none" stroke="#000000" stroke-width="0.7" stroke-linecap="round" points="38.11,55.488 35.563,63.126 
						33.018,60.581 30.472,58.035 					"/>
				</g>
				<g>
					<polygon fill="#FFFFFF" points="59.71,55.488 57.163,63.126 54.618,60.581 52.072,58.035 					"/>
					<polygon fill="none" stroke="#000000" stroke-width="0.7" stroke-linecap="round" points="59.71,55.488 57.163,63.126 
						54.618,60.581 52.072,58.035 					"/>
				</g>
				<g>
					<polygon fill="#FFFFFF" points="81.311,55.488 78.764,63.126 76.219,60.581 73.672,58.035 					"/>
					<polygon fill="none" stroke="#000000" stroke-width="0.7" stroke-linecap="round" points="81.311,55.488 78.764,63.126 
						76.219,60.581 73.672,58.035 					"/>
				</g>
				<g>
					<polygon fill="#FFFFFF" points="102.91,55.488 100.363,63.126 97.818,60.581 95.273,58.035 					"/>
					<polygon fill="none" stroke="#000000" stroke-width="0.7" stroke-linecap="round" points="102.91,55.488 100.363,63.126 
						97.818,60.581 95.273,58.035 					"/>
				</g>
			</g>
			<g>
				<g>
					<polygon fill="#FFFFFF" points="16.51,77.089 13.963,84.726 11.418,82.181 8.872,79.634 					"/>
					<polygon fill="none" stroke="#000000" stroke-width="0.7" stroke-linecap="round" points="16.51,77.089 13.963,84.726 
						11.418,82.181 8.872,79.634 					"/>
				</g>
				<g>
					<polygon fill="#FFFFFF" points="38.11,77.089 35.563,84.726 33.018,82.181 30.472,79.634 					"/>
					<polygon fill="none" stroke="#000000" stroke-width="0.7" stroke-linecap="round" points="38.11,77.089 35.563,84.726 
						33.018,82.181 30.472,79.634 					"/>
				</g>
				<g>
					<polygon fill="#FFFFFF" points="59.71,77.089 57.163,84.726 54.618,82.181 52.072,79.634 					"/>
					<polygon fill="none" stroke="#000000" stroke-width="0.7" stroke-linecap="round" points="59.71,77.089 57.163,84.726 
						54.618,82.181 52.072,79.634 					"/>
				</g>
				<g>
					<polygon fill="#FFFFFF" points="81.311,77.089 78.764,84.726 76.219,82.181 73.672,79.634 					"/>
					<polygon fill="none" stroke="#000000" stroke-width="0.7" stroke-linecap="round" points="81.311,77.089 78.764,84.726 
						76.219,82.181 73.672,79.634 					"/>
				</g>
				<g>
					<polygon fill="#FFFFFF" points="102.91,77.089 100.363,84.726 97.818,82.181 95.273,79.634 					"/>
					<polygon fill="none" stroke="#000000" stroke-width="0.7" stroke-linecap="round" points="102.91,77.089 100.363,84.726 
						97.818,82.181 95.273,79.634 					"/>
				</g>
			</g>
			<g>
				<g>
					<polygon fill="#FFFFFF" points="16.51,98.689 13.963,106.326 11.418,103.779 8.872,101.234 					"/>
					<polygon fill="none" stroke="#000000" stroke-width="0.7" stroke-linecap="round" points="16.51,98.689 13.963,106.326 
						11.418,103.779 8.872,101.234 					"/>
				</g>
				<g>
					<polygon fill="#FFFFFF" points="38.11,98.689 35.563,106.326 33.018,103.779 30.472,101.234 					"/>
					<polygon fill="none" stroke="#000000" stroke-width="0.7" stroke-linecap="round" points="38.11,98.689 35.563,106.326 
						33.018,103.779 30.472,101.234 					"/>
				</g>
				<g>
					<polygon fill="#FFFFFF" points="59.71,98.689 57.163,106.326 54.618,103.779 52.072,101.234 					"/>
					<polygon fill="none" stroke="#000000" stroke-width="0.7" stroke-linecap="round" points="59.71,98.689 57.163,106.326 
						54.618,103.779 52.072,101.234 					"/>
				</g>
				<g>
					<polygon fill="#FFFFFF" points="81.311,98.689 78.764,106.326 76.219,103.779 73.672,101.234 					"/>
					<polygon fill="none" stroke="#000000" stroke-width="0.7" stroke-linecap="round" points="81.311,98.689 78.764,106.326 
						76.219,103.779 73.672,101.234 					"/>
				</g>
				<g>
					<polygon fill="#FFFFFF" points="102.91,98.689 100.363,106.326 97.818,103.779 95.273,101.234 					"/>
					<polygon fill="none" stroke="#000000" stroke-width="0.7" stroke-linecap="round" points="102.91,98.689 100.363,106.326 
						97.818,103.779 95.273,101.234 					"/>
				</g>
			</g>
			<g>
				<g>
					<polygon fill="#FFFFFF" points="16.51,120.289 13.963,127.925 11.418,125.38 8.872,122.833 					"/>
					<polygon fill="none" stroke="#000000" stroke-width="0.7" stroke-linecap="round" points="16.51,120.289 13.963,127.925 
						11.418,125.38 8.872,122.833 					"/>
				</g>
				<g>
					<polygon fill="#FFFFFF" points="38.11,120.289 35.563,127.925 33.018,125.38 30.472,122.833 					"/>
					<polygon fill="none" stroke="#000000" stroke-width="0.7" stroke-linecap="round" points="38.11,120.289 35.563,127.925 
						33.018,125.38 30.472,122.833 					"/>
				</g>
				<g>
					<polygon fill="#FFFFFF" points="59.71,120.289 57.163,127.925 54.618,125.38 52.072,122.833 					"/>
					<polygon fill="none" stroke="#000000" stroke-width="0.7" stroke-linecap="round" points="59.71,120.289 57.163,127.925 
						54.618,125.38 52.072,122.833 					"/>
				</g>
				<g>
					<polygon fill="#FFFFFF" points="81.311,120.289 78.764,127.925 76.219,125.38 73.672,122.833 					"/>
					<polygon fill="none" stroke="#000000" stroke-width="0.7" stroke-linecap="round" points="81.311,120.289 78.764,127.925 
						76.219,125.38 73.672,122.833 					"/>
				</g>
				<g>
					<polygon fill="#FFFFFF" points="102.91,120.289 100.363,127.925 97.818,125.38 95.273,122.833 					"/>
					<polygon fill="none" stroke="#000000" stroke-width="0.7" stroke-linecap="round" points="102.91,120.289 100.363,127.925 
						97.818,125.38 95.273,122.833 					"/>
				</g>
			</g>
			<g>
				<g>
					<polygon fill="#FFFFFF" points="16.51,141.888 13.963,149.523 11.418,146.98 8.872,144.433 					"/>
					<polygon fill="none" stroke="#000000" stroke-width="0.7" stroke-linecap="round" points="16.51,141.888 13.963,149.523 
						11.418,146.98 8.872,144.433 					"/>
				</g>
				<g>
					<polygon fill="#FFFFFF" points="38.11,141.888 35.563,149.523 33.018,146.98 30.472,144.433 					"/>
					<polygon fill="none" stroke="#000000" stroke-width="0.7" stroke-linecap="round" points="38.11,141.888 35.563,149.523 
						33.018,146.98 30.472,144.433 					"/>
				</g>
				<g>
					<polygon fill="#FFFFFF" points="59.71,141.888 57.163,149.523 54.618,146.98 52.072,144.433 					"/>
					<polygon fill="none" stroke="#000000" stroke-width="0.7" stroke-linecap="round" points="59.71,141.888 57.163,149.523 
						54.618,146.98 52.072,144.433 					"/>
				</g>
				<g>
					<polygon fill="#FFFFFF" points="81.311,141.888 78.764,149.523 76.219,146.98 73.672,144.433 					"/>
					<polygon fill="none" stroke="#000000" stroke-width="0.7" stroke-linecap="round" points="81.311,141.888 78.764,149.523 
						76.219,146.98 73.672,144.433 					"/>
				</g>
				<g>
					<polygon fill="#FFFFFF" points="102.91,141.888 100.363,149.523 97.818,146.98 95.273,144.433 					"/>
					<polygon fill="none" stroke="#000000" stroke-width="0.7" stroke-linecap="round" points="102.91,141.888 100.363,149.523 
						97.818,146.98 95.273,144.433 					"/>
				</g>
			</g>
		</g>
		<g>
			<g>
				<g>
					
						<line fill="none" stroke="#000000" stroke-width="0.45" stroke-linecap="round" x1="11.418" y1="17.382" x2="16.51" y2="12.29"/>
				</g>
				<g>
					
						<line fill="none" stroke="#000000" stroke-width="0.45" stroke-linecap="round" x1="33.018" y1="17.382" x2="38.11" y2="12.29"/>
				</g>
				<g>
					
						<line fill="none" stroke="#000000" stroke-width="0.45" stroke-linecap="round" x1="54.618" y1="17.382" x2="59.71" y2="12.29"/>
				</g>
				<g>
					
						<line fill="none" stroke="#000000" stroke-width="0.45" stroke-linecap="round" x1="76.219" y1="17.382" x2="81.311" y2="12.29"/>
				</g>
				<g>
					
						<line fill="none" stroke="#000000" stroke-width="0.45" stroke-linecap="round" x1="97.818" y1="17.382" x2="102.91" y2="12.29"/>
				</g>
			</g>
			<g>
				<g>
					
						<line fill="none" stroke="#000000" stroke-width="0.45" stroke-linecap="round" x1="11.418" y1="38.98" x2="16.51" y2="33.89"/>
				</g>
				<g>
					
						<line fill="none" stroke="#000000" stroke-width="0.45" stroke-linecap="round" x1="33.018" y1="38.98" x2="38.11" y2="33.89"/>
				</g>
				<g>
					
						<line fill="none" stroke="#000000" stroke-width="0.45" stroke-linecap="round" x1="54.618" y1="38.98" x2="59.71" y2="33.89"/>
				</g>
				<g>
					
						<line fill="none" stroke="#000000" stroke-width="0.45" stroke-linecap="round" x1="76.219" y1="38.98" x2="81.311" y2="33.89"/>
				</g>
				<g>
					
						<line fill="none" stroke="#000000" stroke-width="0.45" stroke-linecap="round" x1="97.818" y1="38.98" x2="102.91" y2="33.89"/>
				</g>
			</g>
			<g>
				<g>
					
						<line fill="none" stroke="#000000" stroke-width="0.45" stroke-linecap="round" x1="11.418" y1="60.581" x2="16.51" y2="55.488"/>
				</g>
				<g>
					
						<line fill="none" stroke="#000000" stroke-width="0.45" stroke-linecap="round" x1="33.018" y1="60.581" x2="38.11" y2="55.488"/>
				</g>
				<g>
					
						<line fill="none" stroke="#000000" stroke-width="0.45" stroke-linecap="round" x1="54.618" y1="60.581" x2="59.71" y2="55.488"/>
				</g>
				<g>
					
						<line fill="none" stroke="#000000" stroke-width="0.45" stroke-linecap="round" x1="76.219" y1="60.581" x2="81.311" y2="55.488"/>
				</g>
				<g>
					
						<line fill="none" stroke="#000000" stroke-width="0.45" stroke-linecap="round" x1="97.818" y1="60.581" x2="102.91" y2="55.488"/>
				</g>
			</g>
			<g>
				<g>
					
						<line fill="none" stroke="#000000" stroke-width="0.45" stroke-linecap="round" x1="11.418" y1="82.181" x2="16.51" y2="77.089"/>
				</g>
				<g>
					
						<line fill="none" stroke="#000000" stroke-width="0.45" stroke-linecap="round" x1="33.018" y1="82.181" x2="38.11" y2="77.089"/>
				</g>
				<g>
					
						<line fill="none" stroke="#000000" stroke-width="0.45" stroke-linecap="round" x1="54.618" y1="82.181" x2="59.71" y2="77.089"/>
				</g>
				<g>
					
						<line fill="none" stroke="#000000" stroke-width="0.45" stroke-linecap="round" x1="76.219" y1="82.181" x2="81.311" y2="77.089"/>
				</g>
				<g>
					
						<line fill="none" stroke="#000000" stroke-width="0.45" stroke-linecap="round" x1="97.818" y1="82.181" x2="102.91" y2="77.089"/>
				</g>
			</g>
			<g>
				<g>
					
						<line fill="none" stroke="#000000" stroke-width="0.45" stroke-linecap="round" x1="11.418" y1="103.779" x2="16.51" y2="98.689"/>
				</g>
				<g>
					
						<line fill="none" stroke="#000000" stroke-width="0.45" stroke-linecap="round" x1="33.018" y1="103.779" x2="38.11" y2="98.689"/>
				</g>
				<g>
					
						<line fill="none" stroke="#000000" stroke-width="0.45" stroke-linecap="round" x1="54.618" y1="103.779" x2="59.71" y2="98.689"/>
				</g>
				<g>
					
						<line fill="none" stroke="#000000" stroke-width="0.45" stroke-linecap="round" x1="76.219" y1="103.779" x2="81.311" y2="98.689"/>
				</g>
				<g>
					
						<line fill="none" stroke="#000000" stroke-width="0.45" stroke-linecap="round" x1="97.818" y1="103.779" x2="102.91" y2="98.689"/>
				</g>
			</g>
			<g>
				<g>
					
						<line fill="none" stroke="#000000" stroke-width="0.45" stroke-linecap="round" x1="11.418" y1="125.38" x2="16.51" y2="120.289"/>
				</g>
				<g>
					
						<line fill="none" stroke="#000000" stroke-width="0.45" stroke-linecap="round" x1="33.018" y1="125.38" x2="38.11" y2="120.289"/>
				</g>
				<g>
					
						<line fill="none" stroke="#000000" stroke-width="0.45" stroke-linecap="round" x1="54.618" y1="125.38" x2="59.71" y2="120.289"/>
				</g>
				<g>
					
						<line fill="none" stroke="#000000" stroke-width="0.45" stroke-linecap="round" x1="76.219" y1="125.38" x2="81.311" y2="120.289"/>
				</g>
				<g>
					
						<line fill="none" stroke="#000000" stroke-width="0.45" stroke-linecap="round" x1="97.818" y1="125.38" x2="102.91" y2="120.289"/>
				</g>
			</g>
			<g>
				<g>
					
						<line fill="none" stroke="#000000" stroke-width="0.45" stroke-linecap="round" x1="11.418" y1="146.98" x2="16.51" y2="141.888"/>
				</g>
				<g>
					
						<line fill="none" stroke="#000000" stroke-width="0.45" stroke-linecap="round" x1="33.018" y1="146.98" x2="38.11" y2="141.888"/>
				</g>
				<g>
					
						<line fill="none" stroke="#000000" stroke-width="0.45" stroke-linecap="round" x1="54.618" y1="146.98" x2="59.71" y2="141.888"/>
				</g>
				<g>
					
						<line fill="none" stroke="#000000" stroke-width="0.45" stroke-linecap="round" x1="76.219" y1="146.98" x2="81.311" y2="141.888"/>
				</g>
				<g>
					
						<line fill="none" stroke="#000000" stroke-width="0.45" stroke-linecap="round" x1="97.818" y1="146.98" x2="102.91" y2="141.888"/>
				</g>
			</g>
		</g>
		<g id="connector1pin_1_">
			<g>
				<g>
					<line fill="none" stroke="#000000" stroke-width="0.7" stroke-linecap="round" x1="21.6" y1="7.198" x2="16.51" y2="12.29"/>
				</g>
				<g>
					<line fill="none" stroke="#000000" stroke-width="0.7" stroke-linecap="round" x1="43.2" y1="7.198" x2="38.11" y2="12.29"/>
				</g>
				<g>
					<line fill="none" stroke="#000000" stroke-width="0.7" stroke-linecap="round" x1="64.801" y1="7.198" x2="59.71" y2="12.29"/>
				</g>
				<g>
					<line fill="none" stroke="#000000" stroke-width="0.7" stroke-linecap="round" x1="86.4" y1="7.198" x2="81.311" y2="12.29"/>
				</g>
				<g>
					<line fill="none" stroke="#000000" stroke-width="0.7" stroke-linecap="round" x1="108" y1="7.198" x2="102.91" y2="12.29"/>
				</g>
			</g>
			<g>
				<g>
					<line fill="none" stroke="#000000" stroke-width="0.7" stroke-linecap="round" x1="21.6" y1="28.799" x2="16.51" y2="33.89"/>
				</g>
				<g>
					<line fill="none" stroke="#000000" stroke-width="0.7" stroke-linecap="round" x1="43.2" y1="28.799" x2="38.11" y2="33.89"/>
				</g>
				<g>
					
						<line fill="none" stroke="#000000" stroke-width="0.7" stroke-linecap="round" x1="64.801" y1="28.799" x2="59.71" y2="33.89"/>
				</g>
				<g>
					<line fill="none" stroke="#000000" stroke-width="0.7" stroke-linecap="round" x1="86.4" y1="28.799" x2="81.311" y2="33.89"/>
				</g>
				<g>
					<line fill="none" stroke="#000000" stroke-width="0.7" stroke-linecap="round" x1="108" y1="28.799" x2="102.91" y2="33.89"/>
				</g>
			</g>
			<g>
				<g>
					<line fill="none" stroke="#000000" stroke-width="0.7" stroke-linecap="round" x1="21.6" y1="50.397" x2="16.51" y2="55.488"/>
				</g>
				<g>
					<line fill="none" stroke="#000000" stroke-width="0.7" stroke-linecap="round" x1="43.2" y1="50.397" x2="38.11" y2="55.488"/>
				</g>
				<g>
					
						<line fill="none" stroke="#000000" stroke-width="0.7" stroke-linecap="round" x1="64.801" y1="50.397" x2="59.71" y2="55.488"/>
				</g>
				<g>
					
						<line fill="none" stroke="#000000" stroke-width="0.7" stroke-linecap="round" x1="86.4" y1="50.397" x2="81.311" y2="55.488"/>
				</g>
				<g>
					<line fill="none" stroke="#000000" stroke-width="0.7" stroke-linecap="round" x1="108" y1="50.397" x2="102.91" y2="55.488"/>
				</g>
			</g>
			<g>
				<g>
					<line fill="none" stroke="#000000" stroke-width="0.7" stroke-linecap="round" x1="21.6" y1="71.998" x2="16.51" y2="77.089"/>
				</g>
				<g>
					<line fill="none" stroke="#000000" stroke-width="0.7" stroke-linecap="round" x1="43.2" y1="71.998" x2="38.11" y2="77.089"/>
				</g>
				<g>
					
						<line fill="none" stroke="#000000" stroke-width="0.7" stroke-linecap="round" x1="64.801" y1="71.998" x2="59.71" y2="77.089"/>
				</g>
				<g>
					
						<line fill="none" stroke="#000000" stroke-width="0.7" stroke-linecap="round" x1="86.4" y1="71.998" x2="81.311" y2="77.089"/>
				</g>
				<g>
					<line fill="none" stroke="#000000" stroke-width="0.7" stroke-linecap="round" x1="108" y1="71.998" x2="102.91" y2="77.089"/>
				</g>
			</g>
			<g>
				<g>
					<line fill="none" stroke="#000000" stroke-width="0.7" stroke-linecap="round" x1="21.6" y1="93.597" x2="16.51" y2="98.689"/>
				</g>
				<g>
					<line fill="none" stroke="#000000" stroke-width="0.7" stroke-linecap="round" x1="43.2" y1="93.597" x2="38.11" y2="98.689"/>
				</g>
				<g>
					
						<line fill="none" stroke="#000000" stroke-width="0.7" stroke-linecap="round" x1="64.801" y1="93.597" x2="59.71" y2="98.689"/>
				</g>
				<g>
					
						<line fill="none" stroke="#000000" stroke-width="0.7" stroke-linecap="round" x1="86.4" y1="93.597" x2="81.311" y2="98.689"/>
				</g>
				<g>
					<line fill="none" stroke="#000000" stroke-width="0.7" stroke-linecap="round" x1="108" y1="93.597" x2="102.91" y2="98.689"/>
				</g>
			</g>
			<g>
				<g>
					
						<line fill="none" stroke="#000000" stroke-width="0.7" stroke-linecap="round" x1="21.6" y1="115.197" x2="16.51" y2="120.289"/>
				</g>
				<g>
					
						<line fill="none" stroke="#000000" stroke-width="0.7" stroke-linecap="round" x1="43.2" y1="115.197" x2="38.11" y2="120.289"/>
				</g>
				<g>
					
						<line fill="none" stroke="#000000" stroke-width="0.7" stroke-linecap="round" x1="64.801" y1="115.197" x2="59.71" y2="120.289"/>
				</g>
				<g>
					
						<line fill="none" stroke="#000000" stroke-width="0.7" stroke-linecap="round" x1="86.4" y1="115.197" x2="81.311" y2="120.289"/>
				</g>
				<g>
					
						<line fill="none" stroke="#000000" stroke-width="0.7" stroke-linecap="round" x1="108" y1="115.197" x2="102.91" y2="120.289"/>
				</g>
			</g>
			<g>
				<g>
					
						<line fill="none" stroke="#000000" stroke-width="0.7" stroke-linecap="round" x1="21.6" y1="136.796" x2="16.51" y2="141.888"/>
				</g>
				<g>
					
						<line fill="none" stroke="#000000" stroke-width="0.7" stroke-linecap="round" x1="43.2" y1="136.796" x2="38.11" y2="141.888"/>
				</g>
				<g>
					
						<line fill="none" stroke="#000000" stroke-width="0.7" stroke-linecap="round" x1="64.801" y1="136.796" x2="59.71" y2="141.888"/>
				</g>
				<g>
					
						<line fill="none" stroke="#000000" stroke-width="0.7" stroke-linecap="round" x1="86.4" y1="136.796" x2="81.311" y2="141.888"/>
				</g>
				<g>
					
						<line fill="none" stroke="#000000" stroke-width="0.7" stroke-linecap="round" x1="108" y1="136.796" x2="102.91" y2="141.888"/>
				</g>
			</g>
		</g>
		<g id="connector1terminal_1_">
		</g>
		<g id="connector0pin">
			<g>
				<g>
					
						<line fill="none" stroke="#000000" stroke-width="0.7" stroke-linecap="round" x1="7.201" y1="21.599" x2="11.418" y2="17.382"/>
				</g>
				<g>
					
						<line fill="none" stroke="#000000" stroke-width="0.7" stroke-linecap="round" x1="28.801" y1="21.599" x2="33.018" y2="17.382"/>
				</g>
				<g>
					
						<line fill="none" stroke="#000000" stroke-width="0.7" stroke-linecap="round" x1="50.401" y1="21.599" x2="54.618" y2="17.382"/>
				</g>
				<g>
					
						<line fill="none" stroke="#000000" stroke-width="0.7" stroke-linecap="round" x1="72.002" y1="21.599" x2="76.219" y2="17.382"/>
				</g>
				<g>
					
						<line fill="none" stroke="#000000" stroke-width="0.7" stroke-linecap="round" x1="93.602" y1="21.599" x2="97.818" y2="17.382"/>
				</g>
			</g>
			<g>
				<g>
					
						<line fill="none" stroke="#000000" stroke-width="0.7" stroke-linecap="round" x1="7.201" y1="43.197" x2="11.418" y2="38.98"/>
				</g>
				<g>
					
						<line fill="none" stroke="#000000" stroke-width="0.7" stroke-linecap="round" x1="28.801" y1="43.197" x2="33.018" y2="38.98"/>
				</g>
				<g>
					
						<line fill="none" stroke="#000000" stroke-width="0.7" stroke-linecap="round" x1="50.401" y1="43.197" x2="54.618" y2="38.98"/>
				</g>
				<g>
					
						<line fill="none" stroke="#000000" stroke-width="0.7" stroke-linecap="round" x1="72.002" y1="43.197" x2="76.219" y2="38.98"/>
				</g>
				<g>
					
						<line fill="none" stroke="#000000" stroke-width="0.7" stroke-linecap="round" x1="93.602" y1="43.197" x2="97.818" y2="38.98"/>
				</g>
			</g>
			<g>
				<g>
					
						<line fill="none" stroke="#000000" stroke-width="0.7" stroke-linecap="round" x1="7.201" y1="64.798" x2="11.418" y2="60.581"/>
				</g>
				<g>
					
						<line fill="none" stroke="#000000" stroke-width="0.7" stroke-linecap="round" x1="28.801" y1="64.798" x2="33.018" y2="60.581"/>
				</g>
				<g>
					
						<line fill="none" stroke="#000000" stroke-width="0.7" stroke-linecap="round" x1="50.401" y1="64.798" x2="54.618" y2="60.581"/>
				</g>
				<g>
					
						<line fill="none" stroke="#000000" stroke-width="0.7" stroke-linecap="round" x1="72.002" y1="64.798" x2="76.219" y2="60.581"/>
				</g>
				<g>
					
						<line fill="none" stroke="#000000" stroke-width="0.7" stroke-linecap="round" x1="93.602" y1="64.798" x2="97.818" y2="60.581"/>
				</g>
			</g>
			<g>
				<g>
					
						<line fill="none" stroke="#000000" stroke-width="0.7" stroke-linecap="round" x1="7.201" y1="86.398" x2="11.418" y2="82.181"/>
				</g>
				<g>
					
						<line fill="none" stroke="#000000" stroke-width="0.7" stroke-linecap="round" x1="28.801" y1="86.398" x2="33.018" y2="82.181"/>
				</g>
				<g>
					
						<line fill="none" stroke="#000000" stroke-width="0.7" stroke-linecap="round" x1="50.401" y1="86.398" x2="54.618" y2="82.181"/>
				</g>
				<g>
					
						<line fill="none" stroke="#000000" stroke-width="0.7" stroke-linecap="round" x1="72.002" y1="86.398" x2="76.219" y2="82.181"/>
				</g>
				<g>
					
						<line fill="none" stroke="#000000" stroke-width="0.7" stroke-linecap="round" x1="93.602" y1="86.398" x2="97.818" y2="82.181"/>
				</g>
			</g>
			<g>
				<g>
					
						<line fill="none" stroke="#000000" stroke-width="0.7" stroke-linecap="round" x1="7.201" y1="107.998" x2="11.418" y2="103.779"/>
				</g>
				<g>
					
						<line fill="none" stroke="#000000" stroke-width="0.7" stroke-linecap="round" x1="28.801" y1="107.998" x2="33.018" y2="103.779"/>
				</g>
				<g>
					
						<line fill="none" stroke="#000000" stroke-width="0.7" stroke-linecap="round" x1="50.401" y1="107.998" x2="54.618" y2="103.779"/>
				</g>
				<g>
					
						<line fill="none" stroke="#000000" stroke-width="0.7" stroke-linecap="round" x1="72.002" y1="107.998" x2="76.219" y2="103.779"/>
				</g>
				<g>
					
						<line fill="none" stroke="#000000" stroke-width="0.7" stroke-linecap="round" x1="93.602" y1="107.998" x2="97.818" y2="103.779"/>
				</g>
			</g>
			<g>
				<g>
					
						<line fill="none" stroke="#000000" stroke-width="0.7" stroke-linecap="round" x1="7.201" y1="129.597" x2="11.418" y2="125.38"/>
				</g>
				<g>
					
						<line fill="none" stroke="#000000" stroke-width="0.7" stroke-linecap="round" x1="28.801" y1="129.597" x2="33.018" y2="125.38"/>
				</g>
				<g>
					
						<line fill="none" stroke="#000000" stroke-width="0.7" stroke-linecap="round" x1="50.401" y1="129.597" x2="54.618" y2="125.38"/>
				</g>
				<g>
					
						<line fill="none" stroke="#000000" stroke-width="0.7" stroke-linecap="round" x1="72.002" y1="129.597" x2="76.219" y2="125.38"/>
				</g>
				<g>
					
						<line fill="none" stroke="#000000" stroke-width="0.7" stroke-linecap="round" x1="93.602" y1="129.597" x2="97.818" y2="125.38"/>
				</g>
			</g>
			<g>
				<g>
					
						<line fill="none" stroke="#000000" stroke-width="0.7" stroke-linecap="round" x1="7.201" y1="151.195" x2="11.418" y2="146.98"/>
				</g>
				<g>
					
						<line fill="none" stroke="#000000" stroke-width="0.7" stroke-linecap="round" x1="28.801" y1="151.195" x2="33.018" y2="146.98"/>
				</g>
				<g>
					
						<line fill="none" stroke="#000000" stroke-width="0.7" stroke-linecap="round" x1="50.401" y1="151.195" x2="54.618" y2="146.98"/>
				</g>
				<g>
					
						<line fill="none" stroke="#000000" stroke-width="0.7" stroke-linecap="round" x1="72.002" y1="151.195" x2="76.219" y2="146.98"/>
				</g>
				<g>
					
						<line fill="none" stroke="#000000" stroke-width="0.7" stroke-linecap="round" x1="93.602" y1="151.195" x2="97.818" y2="146.98"/>
				</g>
			</g>
		</g>
	</g>
	<g>
		<g>
			<line fill="none" stroke="#000000" stroke-width="0.7" stroke-linecap="round" x1="108.001" y1="0" x2="108.001" y2="136.8"/>
		</g>
		<g>
			<line fill="none" stroke="#000000" stroke-width="0.7" stroke-linecap="round" x1="86.4" y1="0" x2="86.4" y2="151.201"/>
		</g>
		<g>
			<line fill="none" stroke="#000000" stroke-width="0.7" stroke-linecap="round" x1="64.801" y1="0" x2="64.801" y2="151.201"/>
		</g>
		<g>
			<line fill="none" stroke="#000000" stroke-width="0.7" stroke-linecap="round" x1="43.2" y1="0" x2="43.2" y2="151.201"/>
		</g>
		<g>
			<line fill="none" stroke="#000000" stroke-width="0.7" stroke-linecap="round" x1="21.6" y1="0" x2="21.6" y2="151.201"/>
		</g>
	</g>
	<g>
		<g>
			<line fill="none" stroke="#787878" stroke-width="0.7" stroke-linecap="round" x1="108.001" y1="0" x2="108.001" y2="7.2"/>
		</g>
		<g>
			<line fill="none" stroke="#787878" stroke-width="0.7" stroke-linecap="round" x1="86.4" y1="0" x2="86.4" y2="7.2"/>
		</g>
		<g>
			<line fill="none" stroke="#787878" stroke-width="0.7" stroke-linecap="round" x1="64.801" y1="0" x2="64.801" y2="7.2"/>
		</g>
		<g>
			<line fill="none" stroke="#787878" stroke-width="0.7" stroke-linecap="round" x1="43.2" y1="0" x2="43.2" y2="7.2"/>
		</g>
		<g>
			<line fill="none" stroke="#787878" stroke-width="0.7" stroke-linecap="round" x1="21.6" y1="0" x2="21.6" y2="7.2"/>
		</g>
	</g>
	<g>
		<g>
			<line fill="none" stroke="#000000" stroke-width="0.7" stroke-linecap="round" x1="0" y1="151.197" x2="93.6" y2="151.197"/>
		</g>
		<g>
			<line fill="none" stroke="#000000" stroke-width="0.7" stroke-linecap="round" x1="0" y1="129.597" x2="108" y2="129.597"/>
		</g>
		<g>
			<line fill="none" stroke="#000000" stroke-width="0.7" stroke-linecap="round" x1="0" y1="107.998" x2="108" y2="107.998"/>
		</g>
		<g>
			<line fill="none" stroke="#000000" stroke-width="0.7" stroke-linecap="round" x1="0" y1="86.398" x2="108" y2="86.398"/>
		</g>
		<g>
			<line fill="none" stroke="#000000" stroke-width="0.7" stroke-linecap="round" x1="0" y1="64.799" x2="108" y2="64.799"/>
		</g>
		<g>
			<line fill="none" stroke="#000000" stroke-width="0.7" stroke-linecap="round" x1="0" y1="43.198" x2="108" y2="43.198"/>
		</g>
		<g>
			<line fill="none" stroke="#000000" stroke-width="0.7" stroke-linecap="round" x1="0" y1="21.6" x2="108" y2="21.6"/>
		</g>
	</g>
	<g>
		<g>
			<line fill="none" stroke="#787878" stroke-width="0.7" stroke-linecap="round" x1="0" y1="151.197" x2="7.2" y2="151.197"/>
		</g>
		<g>
			<line fill="none" stroke="#787878" stroke-width="0.7" stroke-linecap="round" x1="0" y1="129.597" x2="7.2" y2="129.597"/>
		</g>
		<g>
			<line fill="none" stroke="#787878" stroke-width="0.7" stroke-linecap="round" x1="0" y1="107.998" x2="7.2" y2="107.998"/>
		</g>
		<g>
			<line fill="none" stroke="#787878" stroke-width="0.7" stroke-linecap="round" x1="0" y1="86.398" x2="7.2" y2="86.398"/>
		</g>
		<g>
			<line fill="none" stroke="#787878" stroke-width="0.7" stroke-linecap="round" x1="0" y1="64.799" x2="7.2" y2="64.799"/>
		</g>
		<g>
			<line fill="none" stroke="#787878" stroke-width="0.7" stroke-linecap="round" x1="0" y1="43.198" x2="7.2" y2="43.198"/>
		</g>
		<g>
			<line fill="none" stroke="#787878" stroke-width="0.7" stroke-linecap="round" x1="0" y1="21.6" x2="7.2" y2="21.6"/>
		</g>
	</g>
	<g enable-background="new    ">
		<g>
			<text transform="matrix(1 0 0 1 2.4316 148.6519)" fill="#787878" font-family="'Droid Sans'" font-size="2">6</text>
		</g>
		<g>
			<text transform="matrix(1 0 0 1 2.4316 127.0522)" fill="#787878" font-family="'Droid Sans'" font-size="2">5</text>
		</g>
		<g>
			<text transform="matrix(1 0 0 1 2.4316 105.4526)" fill="#787878" font-family="'Droid Sans'" font-size="2">4</text>
		</g>
		<g>
			<text transform="matrix(1 0 0 1 2.4316 83.853)" fill="#787878" font-family="'Droid Sans'" font-size="2">9</text>
		</g>
		<g>
			<text transform="matrix(1 0 0 1 2.4316 62.2524)" fill="#787878" font-family="'Droid Sans'" font-size="2">2</text>
		</g>
		<g>
			<text transform="matrix(1 0 0 1 2.4316 40.6528)" fill="#787878" font-family="'Droid Sans'" font-size="2">11</text>
		</g>
		<g>
			<text transform="matrix(1 0 0 1 2.4316 19.0532)" fill="#787878" font-family="'Droid Sans'" font-size="2">12</text>
		</g>
	</g>
	<g enable-background="new    ">
		<g>
			<text transform="matrix(1 0 0 1 110.498 4.3872)" fill="#787878" font-family="'Droid Sans'" font-size="2">8</text>
		</g>
		<g>
			<text transform="matrix(1 0 0 1 88.8984 4.3872)" fill="#787878" font-family="'Droid Sans'" font-size="2">7</text>
		</g>
		<g>
			<text transform="matrix(1 0 0 1 67.2979 4.3872)" fill="#787878" font-family="'Droid Sans'" font-size="2">10</text>
		</g>
		<g>
			<text transform="matrix(1 0 0 1 45.6982 4.3872)" fill="#787878" font-family="'Droid Sans'" font-size="2">3</text>
		</g>
		<g>
			<text transform="matrix(1 0 0 1 24.0977 4.3872)" fill="#787878" font-family="'Droid Sans'" font-size="2">1</text>
		</g>
	</g>
</g>
</svg>
