<?xml version="1.0" encoding="UTF-8" standalone="no"?> <svg xmlns:svg="http://www.w3.org/2000/svg" xmlns="http://www.w3.org/2000/svg" version="1.2" baseProfile="tiny" x="0in" y="0in" width="0.684in" height="0.584in" viewBox="0 0 68400 58400" ><title>CON_HDR_RA-254P-7C-2R-14N__AMP_102979-Series.fp</title><desc>Geda footprint file 'CON_HDR_RA-254P-7C-2R-14N__AMP_102979-Series.fp' converted by Fritzing</desc><metadata xmlns:fz='http://fritzing.org/gedametadata/1.0/' xmlns:rdf='http://www.w3.org/1999/02/22-rdf-syntax-ns#'><rdf:RDF><rdf:Description rdf:about=''><fz:attr name='geda filename'>CON_HDR_RA-254P-7C-2R-14N__AMP_102979-Series.fp</fz:attr>
<fz:attr name='fritzing version'>0.4.0b.06.21.4282</fz:attr>
<fz:attr name='conversion date'>27/06/2010 07:15:06</fz:attr>
<fz:attr name='dist-license'>GPL</fz:attr>
<fz:attr name='use-license'>unlimited</fz:attr>
<fz:attr name='author'>gEDA project</fz:attr>
<fz:attr name='license-url'>http://www.gnu.org/licenses/gpl.html</fz:attr>
</rdf:Description></rdf:RDF></metadata><g id="copper0">
 <g id="copper1">
  <circle fill="none" cx="4200" cy="12600" connectorname="" stroke="#ff9400" r="2175" id="connector0pin" stroke-width="850"/>
  <circle fill="none" cx="4200" cy="2600" connectorname="" stroke="#ff9400" r="2175" id="connector1pin" stroke-width="850"/>
  <circle fill="none" cx="14200" cy="12600" connectorname="" stroke="#ff9400" r="2175" id="connector2pin" stroke-width="850"/>
  <circle fill="none" cx="14200" cy="2600" connectorname="" stroke="#ff9400" r="2175" id="connector3pin" stroke-width="850"/>
  <circle fill="none" cx="24200" cy="12600" connectorname="" stroke="#ff9400" r="2175" id="connector4pin" stroke-width="850"/>
  <circle fill="none" cx="24200" cy="2600" connectorname="" stroke="#ff9400" r="2175" id="connector5pin" stroke-width="850"/>
  <circle fill="none" cx="34200" cy="12600" connectorname="" stroke="#ff9400" r="2175" id="connector6pin" stroke-width="850"/>
  <circle fill="none" cx="34200" cy="2600" connectorname="" stroke="#ff9400" r="2175" id="connector7pin" stroke-width="850"/>
  <circle fill="none" cx="44200" cy="12600" connectorname="" stroke="#ff9400" r="2175" id="connector8pin" stroke-width="850"/>
  <circle fill="none" cx="44200" cy="2600" connectorname="" stroke="#ff9400" r="2175" id="connector9pin" stroke-width="850"/>
  <circle fill="none" cx="54200" cy="12600" connectorname="" stroke="#ff9400" r="2175" id="connector10pin" stroke-width="850"/>
  <circle fill="none" cx="54200" cy="2600" connectorname="" stroke="#ff9400" r="2175" id="connector11pin" stroke-width="850"/>
  <circle fill="none" cx="64200" cy="12600" connectorname="" stroke="#ff9400" r="2175" id="connector12pin" stroke-width="850"/>
  <circle fill="none" cx="64200" cy="2600" connectorname="" stroke="#ff9400" r="2175" id="connector13pin" stroke-width="850"/>
 </g>
</g>
<g id="silkscreen">
 <line fill="none" stroke="white" y1="22100" x1="4500" y2="22100" stroke-width="9000" x2="63900"/>
 <line fill="none" stroke="white" y1="18100" x1="500" y2="26100" stroke-width="1000" x2="500"/>
 <line fill="none" stroke="white" y1="26100" x1="500" y2="26100" stroke-width="1000" x2="67900"/>
 <line fill="none" stroke="white" y1="26100" x1="67900" y2="18100" stroke-width="1000" x2="67900"/>
 <line fill="none" stroke="white" y1="18100" x1="67900" y2="18100" stroke-width="1000" x2="500"/>
 <line fill="none" stroke="white" y1="18100" x1="1000" y2="26100" stroke-width="1000" x2="1000"/>
 <line fill="none" stroke="white" y1="18100" x1="67400" y2="26100" stroke-width="1000" x2="67400"/>
 <line fill="none" stroke="white" y1="18100" x1="1500" y2="26100" stroke-width="1000" x2="1500"/>
 <line fill="none" stroke="white" y1="18100" x1="66900" y2="26100" stroke-width="1000" x2="66900"/>
 <line fill="none" stroke="white" y1="18100" x1="2000" y2="26100" stroke-width="1000" x2="2000"/>
 <line fill="none" stroke="white" y1="18100" x1="66400" y2="26100" stroke-width="1000" x2="66400"/>
 <line fill="none" stroke="white" y1="18100" x1="2500" y2="26100" stroke-width="1000" x2="2500"/>
 <line fill="none" stroke="white" y1="18100" x1="65900" y2="26100" stroke-width="1000" x2="65900"/>
 <line fill="none" stroke="white" y1="18100" x1="3000" y2="26100" stroke-width="1000" x2="3000"/>
 <line fill="none" stroke="white" y1="18100" x1="65400" y2="26100" stroke-width="1000" x2="65400"/>
 <line fill="none" stroke="white" y1="18100" x1="3500" y2="26100" stroke-width="1000" x2="3500"/>
 <line fill="none" stroke="white" y1="18100" x1="64900" y2="26100" stroke-width="1000" x2="64900"/>
 <line fill="none" stroke="white" y1="18100" x1="4000" y2="26100" stroke-width="1000" x2="4000"/>
 <line fill="none" stroke="white" y1="18100" x1="64400" y2="26100" stroke-width="1000" x2="64400"/>
 <line fill="none" stroke="white" y1="18100" x1="4500" y2="26100" stroke-width="1000" x2="4500"/>
 <line fill="none" stroke="white" y1="18100" x1="63900" y2="26100" stroke-width="1000" x2="63900"/>
 <line fill="none" stroke="white" y1="17450" x1="4200" y2="57150" stroke-width="2500" x2="4200"/>
 <line fill="none" stroke="white" y1="17450" x1="14200" y2="57150" stroke-width="2500" x2="14200"/>
 <line fill="none" stroke="white" y1="17450" x1="24200" y2="57150" stroke-width="2500" x2="24200"/>
 <line fill="none" stroke="white" y1="17450" x1="34200" y2="57150" stroke-width="2500" x2="34200"/>
 <line fill="none" stroke="white" y1="17450" x1="44200" y2="57150" stroke-width="2500" x2="44200"/>
 <line fill="none" stroke="white" y1="17450" x1="54200" y2="57150" stroke-width="2500" x2="54200"/>
 <line fill="none" stroke="white" y1="17450" x1="64200" y2="57150" stroke-width="2500" x2="64200"/>
</g>
</svg>