<?xml version="1.0" encoding="UTF-8" standalone="no"?>
<svg xmlns:svg="http://www.w3.org/2000/svg" xmlns="http://www.w3.org/2000/svg" version="1.2" baseProfile="tiny" x="0in" y="0in" width="0.1712in" height="0.4578in" viewBox="0 0 1712 4578" >
<title>SparkFun.mod</title>
<desc>Kicad module 'SparkFun-SWITCH-SPDT_LOCK.007S' from file 'SparkFun.mod' converted by Fritzing</desc>
<metadata xmlns:fz='http://fritzing.org/kicadmetadata/1.0/' xmlns:rdf='http://www.w3.org/1999/02/22-rdf-syntax-ns#'>
<rdf:RDF><rdf:Description rdf:about=''>
<fz:attr name='kicad filename'>SparkFun.mod</fz:attr>
<fz:attr name='kicad module'>SparkFun-SWITCH-SPDT_LOCK.007S</fz:attr>
<fz:attr name='fritzing version'>0.4.1b.07.04.4318</fz:attr>
<fz:attr name='conversion date'>17/07/2010 17:18:05</fz:attr>
<fz:attr name='dist-license'>GPL</fz:attr>
<fz:attr name='use-license'>unlimited</fz:attr>
<fz:attr name='author'>KICAD project</fz:attr>
<fz:attr name='license-url'>http://www.gnu.org/licenses/gpl.html</fz:attr>
<fz:comment></fz:comment>
<fz:attr name='keyword'></fz:attr>
</rdf:Description></rdf:RDF></metadata><g id="copper0">
 <g id="copper1">
  <g connectorname="1" id="connector0pin">
   <circle fill="none" cx="856" cy="1219" stroke="#ff9400" r="285" stroke-width="170"/>
  </g>
  <g connectorname="2" id="connector1pin">
   <circle fill="none" cx="856" cy="2289" stroke="#ff9400" r="285" stroke-width="170"/>
  </g>
  <g connectorname="3" id="connector2pin">
   <circle fill="none" cx="856" cy="3359" stroke="#ff9400" r="285" stroke-width="170"/>
  </g>
 </g>
</g>
<g id="silkscreen">
 <line fill="none" stroke="white" y1="2409" x1="766" y2="2409" stroke-width="26" x2="946"/>
 <line fill="none" stroke="white" y1="2409" x1="946" y2="2169" stroke-width="26" x2="946"/>
 <line fill="none" stroke="white" y1="2169" x1="766" y2="2169" stroke-width="26" x2="946"/>
 <line fill="none" stroke="white" y1="2409" x1="766" y2="2169" stroke-width="26" x2="766"/>
 <line fill="none" stroke="white" y1="1409" x1="766" y2="1409" stroke-width="26" x2="946"/>
 <line fill="none" stroke="white" y1="1409" x1="946" y2="1169" stroke-width="26" x2="946"/>
 <line fill="none" stroke="white" y1="1169" x1="766" y2="1169" stroke-width="26" x2="946"/>
 <line fill="none" stroke="white" y1="1409" x1="766" y2="1169" stroke-width="26" x2="766"/>
 <line fill="none" stroke="white" y1="3409" x1="766" y2="3409" stroke-width="26" x2="946"/>
 <line fill="none" stroke="white" y1="3409" x1="946" y2="3169" stroke-width="26" x2="946"/>
 <line fill="none" stroke="white" y1="3169" x1="766" y2="3169" stroke-width="26" x2="946"/>
 <line fill="none" stroke="white" y1="3409" x1="766" y2="3169" stroke-width="26" x2="766"/>
 <line fill="none" stroke="white" y1="0" x1="1712" y2="0" stroke-width="80" x2="0"/>
 <line fill="none" stroke="white" y1="0" x1="0" y2="4578" stroke-width="80" x2="0"/>
 <line fill="none" stroke="white" y1="4578" x1="0" y2="4578" stroke-width="80" x2="1712"/>
 <line fill="none" stroke="white" y1="4578" x1="1712" y2="0" stroke-width="80" x2="1712"/>
</g>
</svg>