<?xml version="1.0" encoding="UTF-8" standalone="no"?>
<svg xmlns:svg="http://www.w3.org/2000/svg" xmlns="http://www.w3.org/2000/svg" version="1.2" baseProfile="tiny" x="0in" y="0in" width="0.213in" height="0.201in" viewBox="0 0 2130 2010" >
<title>SparkFun.mod</title>
<desc>Kicad module 'SparkFun-MLP-24' from file 'SparkFun.mod' converted by Fritzing</desc>
<metadata xmlns:fz='http://fritzing.org/kicadmetadata/1.0/' xmlns:rdf='http://www.w3.org/1999/02/22-rdf-syntax-ns#'>
<rdf:RDF><rdf:Description rdf:about=''>
<fz:attr name='kicad filename'>SparkFun.mod</fz:attr>
<fz:attr name='kicad module'>SparkFun-MLP-24</fz:attr>
<fz:attr name='fritzing version'>0.4.1b.07.04.4318</fz:attr>
<fz:attr name='conversion date'>17/07/2010 17:16:23</fz:attr>
<fz:attr name='dist-license'>GPL</fz:attr>
<fz:attr name='use-license'>unlimited</fz:attr>
<fz:attr name='author'>KICAD project</fz:attr>
<fz:attr name='license-url'>http://www.gnu.org/licenses/gpl.html</fz:attr>
<fz:comment></fz:comment>
<fz:attr name='keyword'></fz:attr>
</rdf:Description></rdf:RDF></metadata><g id="copper1">
 <rect width="393" x="868.5" y="808.5" fill="#ffbf00" connectorname="0" height="393" id="nonconn0" stroke-width="0"/>
 <rect width="240" x="0" y="306" fill="#ffbf00" connectorname="1" height="120" id="connector0pad" stroke-width="0"/>
 <rect width="240" x="0" y="562" fill="#ffbf00" connectorname="2" height="120" id="connector1pad" stroke-width="0"/>
 <rect width="240" x="0" y="818" fill="#ffbf00" connectorname="3" height="120" id="connector2pad" stroke-width="0"/>
 <rect width="240" x="0" y="1072" fill="#ffbf00" connectorname="4" height="120" id="connector3pad" stroke-width="0"/>
 <rect width="240" x="0" y="1328" fill="#ffbf00" connectorname="5" height="120" id="connector4pad" stroke-width="0"/>
 <rect width="240" x="0" y="1584" fill="#ffbf00" connectorname="6" height="120" id="connector5pad" stroke-width="0"/>
 <rect width="240" x="306" y="1890" fill="#ffbf00" connectorname="7" height="120" id="connector6pad" stroke-width="0"/>
 <rect width="240" x="562" y="1890" fill="#ffbf00" connectorname="8" height="120" id="connector7pad" stroke-width="0"/>
 <rect width="240" x="818" y="1890" fill="#ffbf00" connectorname="9" height="120" id="connector8pad" stroke-width="0"/>
 <rect width="240" x="1072" y="1890" fill="#ffbf00" connectorname="10" height="120" id="connector9pad" stroke-width="0"/>
 <rect width="240" x="1328" y="1890" fill="#ffbf00" connectorname="11" height="120" id="connector10pad" stroke-width="0"/>
 <rect width="240" x="1584" y="1890" fill="#ffbf00" connectorname="12" height="120" id="connector11pad" stroke-width="0"/>
 <rect width="240" x="1890" y="1584" fill="#ffbf00" connectorname="13" height="120" id="connector12pad" stroke-width="0"/>
 <rect width="240" x="1890" y="1328" fill="#ffbf00" connectorname="14" height="120" id="connector13pad" stroke-width="0"/>
 <rect width="240" x="1890" y="1072" fill="#ffbf00" connectorname="15" height="120" id="connector14pad" stroke-width="0"/>
 <rect width="240" x="1890" y="818" fill="#ffbf00" connectorname="16" height="120" id="connector15pad" stroke-width="0"/>
 <rect width="240" x="1890" y="562" fill="#ffbf00" connectorname="17" height="120" id="connector16pad" stroke-width="0"/>
 <rect width="240" x="1890" y="306" fill="#ffbf00" connectorname="18" height="120" id="connector17pad" stroke-width="0"/>
 <rect width="240" x="1584" y="0" fill="#ffbf00" connectorname="19" height="120" id="connector18pad" stroke-width="0"/>
 <rect width="240" x="1328" y="0" fill="#ffbf00" connectorname="20" height="120" id="connector19pad" stroke-width="0"/>
 <rect width="240" x="1072" y="0" fill="#ffbf00" connectorname="21" height="120" id="connector20pad" stroke-width="0"/>
 <rect width="240" x="818" y="0" fill="#ffbf00" connectorname="22" height="120" id="connector21pad" stroke-width="0"/>
 <rect width="240" x="562" y="0" fill="#ffbf00" connectorname="23" height="120" id="connector22pad" stroke-width="0"/>
 <rect width="240" x="306" y="0" fill="#ffbf00" connectorname="24" height="120" id="connector23pad" stroke-width="0"/>
</g>
<g id="silkscreen">
 <line fill="none" stroke="white" y1="665" x1="25" y2="665" stroke-width="26" x2="225"/>
 <line fill="none" stroke="white" y1="665" x1="225" y2="585" stroke-width="26" x2="225"/>
 <line fill="none" stroke="white" y1="585" x1="25" y2="585" stroke-width="26" x2="225"/>
 <line fill="none" stroke="white" y1="665" x1="25" y2="585" stroke-width="26" x2="25"/>
 <line fill="none" stroke="white" y1="405" x1="25" y2="405" stroke-width="26" x2="225"/>
 <line fill="none" stroke="white" y1="405" x1="225" y2="325" stroke-width="26" x2="225"/>
 <line fill="none" stroke="white" y1="325" x1="25" y2="325" stroke-width="26" x2="225"/>
 <line fill="none" stroke="white" y1="405" x1="25" y2="325" stroke-width="26" x2="25"/>
 <line fill="none" stroke="white" y1="915" x1="25" y2="915" stroke-width="26" x2="225"/>
 <line fill="none" stroke="white" y1="915" x1="225" y2="835" stroke-width="26" x2="225"/>
 <line fill="none" stroke="white" y1="835" x1="25" y2="835" stroke-width="26" x2="225"/>
 <line fill="none" stroke="white" y1="915" x1="25" y2="835" stroke-width="26" x2="25"/>
 <line fill="none" stroke="white" y1="1175" x1="25" y2="1175" stroke-width="26" x2="225"/>
 <line fill="none" stroke="white" y1="1175" x1="225" y2="1095" stroke-width="26" x2="225"/>
 <line fill="none" stroke="white" y1="1095" x1="25" y2="1095" stroke-width="26" x2="225"/>
 <line fill="none" stroke="white" y1="1175" x1="25" y2="1095" stroke-width="26" x2="25"/>
 <line fill="none" stroke="white" y1="1434" x1="25" y2="1434" stroke-width="26" x2="225"/>
 <line fill="none" stroke="white" y1="1434" x1="225" y2="1345" stroke-width="26" x2="225"/>
 <line fill="none" stroke="white" y1="1345" x1="25" y2="1345" stroke-width="26" x2="225"/>
 <line fill="none" stroke="white" y1="1434" x1="25" y2="1345" stroke-width="26" x2="25"/>
 <line fill="none" stroke="white" y1="1985" x1="325" y2="1985" stroke-width="26" x2="525"/>
 <line fill="none" stroke="white" y1="1985" x1="525" y2="1905" stroke-width="26" x2="525"/>
 <line fill="none" stroke="white" y1="1905" x1="325" y2="1905" stroke-width="26" x2="525"/>
 <line fill="none" stroke="white" y1="1985" x1="325" y2="1905" stroke-width="26" x2="325"/>
 <line fill="none" stroke="white" y1="1685" x1="25" y2="1685" stroke-width="26" x2="225"/>
 <line fill="none" stroke="white" y1="1685" x1="225" y2="1605" stroke-width="26" x2="225"/>
 <line fill="none" stroke="white" y1="1605" x1="25" y2="1605" stroke-width="26" x2="225"/>
 <line fill="none" stroke="white" y1="1685" x1="25" y2="1605" stroke-width="26" x2="25"/>
 <line fill="none" stroke="white" y1="1985" x1="585" y2="1985" stroke-width="26" x2="785"/>
 <line fill="none" stroke="white" y1="1985" x1="785" y2="1905" stroke-width="26" x2="785"/>
 <line fill="none" stroke="white" y1="1905" x1="585" y2="1905" stroke-width="26" x2="785"/>
 <line fill="none" stroke="white" y1="1985" x1="585" y2="1905" stroke-width="26" x2="585"/>
 <line fill="none" stroke="white" y1="1985" x1="835" y2="1985" stroke-width="26" x2="1035"/>
 <line fill="none" stroke="white" y1="1985" x1="1035" y2="1905" stroke-width="26" x2="1035"/>
 <line fill="none" stroke="white" y1="1905" x1="835" y2="1905" stroke-width="26" x2="1035"/>
 <line fill="none" stroke="white" y1="1985" x1="835" y2="1905" stroke-width="26" x2="835"/>
 <line fill="none" stroke="white" y1="1985" x1="1095" y2="1985" stroke-width="26" x2="1295"/>
 <line fill="none" stroke="white" y1="1985" x1="1295" y2="1905" stroke-width="26" x2="1295"/>
 <line fill="none" stroke="white" y1="1905" x1="1095" y2="1905" stroke-width="26" x2="1295"/>
 <line fill="none" stroke="white" y1="1985" x1="1095" y2="1905" stroke-width="26" x2="1095"/>
 <line fill="none" stroke="white" y1="1985" x1="1345" y2="1985" stroke-width="26" x2="1545"/>
 <line fill="none" stroke="white" y1="1985" x1="1545" y2="1905" stroke-width="26" x2="1545"/>
 <line fill="none" stroke="white" y1="1905" x1="1345" y2="1905" stroke-width="26" x2="1545"/>
 <line fill="none" stroke="white" y1="1985" x1="1345" y2="1905" stroke-width="26" x2="1345"/>
 <line fill="none" stroke="white" y1="1985" x1="1605" y2="1985" stroke-width="26" x2="1805"/>
 <line fill="none" stroke="white" y1="1985" x1="1805" y2="1905" stroke-width="26" x2="1805"/>
 <line fill="none" stroke="white" y1="1905" x1="1605" y2="1905" stroke-width="26" x2="1805"/>
 <line fill="none" stroke="white" y1="1985" x1="1605" y2="1905" stroke-width="26" x2="1605"/>
 <line fill="none" stroke="white" y1="1685" x1="1905" y2="1685" stroke-width="26" x2="2105"/>
 <line fill="none" stroke="white" y1="1685" x1="2105" y2="1605" stroke-width="26" x2="2105"/>
 <line fill="none" stroke="white" y1="1605" x1="1905" y2="1605" stroke-width="26" x2="2105"/>
 <line fill="none" stroke="white" y1="1685" x1="1905" y2="1605" stroke-width="26" x2="1905"/>
 <line fill="none" stroke="white" y1="1430" x1="1905" y2="1430" stroke-width="26" x2="2105"/>
 <line fill="none" stroke="white" y1="1430" x1="2105" y2="1350" stroke-width="26" x2="2105"/>
 <line fill="none" stroke="white" y1="1350" x1="1905" y2="1350" stroke-width="26" x2="2105"/>
 <line fill="none" stroke="white" y1="1430" x1="1905" y2="1350" stroke-width="26" x2="1905"/>
 <line fill="none" stroke="white" y1="1170" x1="1905" y2="1170" stroke-width="26" x2="2105"/>
 <line fill="none" stroke="white" y1="1170" x1="2105" y2="1090" stroke-width="26" x2="2105"/>
 <line fill="none" stroke="white" y1="1090" x1="1905" y2="1090" stroke-width="26" x2="2105"/>
 <line fill="none" stroke="white" y1="1170" x1="1905" y2="1090" stroke-width="26" x2="1905"/>
 <line fill="none" stroke="white" y1="920" x1="1905" y2="920" stroke-width="26" x2="2105"/>
 <line fill="none" stroke="white" y1="920" x1="2105" y2="840" stroke-width="26" x2="2105"/>
 <line fill="none" stroke="white" y1="840" x1="1905" y2="840" stroke-width="26" x2="2105"/>
 <line fill="none" stroke="white" y1="920" x1="1905" y2="840" stroke-width="26" x2="1905"/>
 <line fill="none" stroke="white" y1="660" x1="1905" y2="660" stroke-width="26" x2="2105"/>
 <line fill="none" stroke="white" y1="660" x1="2105" y2="580" stroke-width="26" x2="2105"/>
 <line fill="none" stroke="white" y1="580" x1="1905" y2="580" stroke-width="26" x2="2105"/>
 <line fill="none" stroke="white" y1="660" x1="1905" y2="580" stroke-width="26" x2="1905"/>
 <line fill="none" stroke="white" y1="405" x1="1905" y2="405" stroke-width="26" x2="2105"/>
 <line fill="none" stroke="white" y1="405" x1="2105" y2="325" stroke-width="26" x2="2105"/>
 <line fill="none" stroke="white" y1="325" x1="1905" y2="325" stroke-width="26" x2="2105"/>
 <line fill="none" stroke="white" y1="405" x1="1905" y2="325" stroke-width="26" x2="1905"/>
 <line fill="none" stroke="white" y1="105" x1="1605" y2="105" stroke-width="26" x2="1805"/>
 <line fill="none" stroke="white" y1="105" x1="1805" y2="25" stroke-width="26" x2="1805"/>
 <line fill="none" stroke="white" y1="25" x1="1605" y2="25" stroke-width="26" x2="1805"/>
 <line fill="none" stroke="white" y1="105" x1="1605" y2="25" stroke-width="26" x2="1605"/>
 <line fill="none" stroke="white" y1="105" x1="1350" y2="105" stroke-width="26" x2="1550"/>
 <line fill="none" stroke="white" y1="105" x1="1550" y2="25" stroke-width="26" x2="1550"/>
 <line fill="none" stroke="white" y1="25" x1="1350" y2="25" stroke-width="26" x2="1550"/>
 <line fill="none" stroke="white" y1="105" x1="1350" y2="25" stroke-width="26" x2="1350"/>
 <line fill="none" stroke="white" y1="105" x1="1090" y2="105" stroke-width="26" x2="1290"/>
 <line fill="none" stroke="white" y1="105" x1="1290" y2="25" stroke-width="26" x2="1290"/>
 <line fill="none" stroke="white" y1="25" x1="1090" y2="25" stroke-width="26" x2="1290"/>
 <line fill="none" stroke="white" y1="105" x1="1090" y2="25" stroke-width="26" x2="1090"/>
 <line fill="none" stroke="white" y1="105" x1="835" y2="105" stroke-width="26" x2="1035"/>
 <line fill="none" stroke="white" y1="105" x1="1035" y2="25" stroke-width="26" x2="1035"/>
 <line fill="none" stroke="white" y1="25" x1="835" y2="25" stroke-width="26" x2="1035"/>
 <line fill="none" stroke="white" y1="105" x1="835" y2="25" stroke-width="26" x2="835"/>
 <line fill="none" stroke="white" y1="105" x1="585" y2="105" stroke-width="26" x2="785"/>
 <line fill="none" stroke="white" y1="105" x1="785" y2="25" stroke-width="26" x2="785"/>
 <line fill="none" stroke="white" y1="25" x1="585" y2="25" stroke-width="26" x2="785"/>
 <line fill="none" stroke="white" y1="105" x1="585" y2="25" stroke-width="26" x2="585"/>
 <line fill="none" stroke="white" y1="105" x1="325" y2="105" stroke-width="26" x2="525"/>
 <line fill="none" stroke="white" y1="105" x1="525" y2="25" stroke-width="26" x2="525"/>
 <line fill="none" stroke="white" y1="25" x1="325" y2="25" stroke-width="26" x2="525"/>
 <line fill="none" stroke="white" y1="105" x1="325" y2="25" stroke-width="26" x2="325"/>
 <line fill="none" stroke="white" y1="1160" x1="920" y2="1160" stroke-width="26" x2="1220"/>
 <line fill="none" stroke="white" y1="1160" x1="1220" y2="855" stroke-width="26" x2="1220"/>
 <line fill="none" stroke="white" y1="855" x1="920" y2="855" stroke-width="26" x2="1220"/>
 <line fill="none" stroke="white" y1="1160" x1="920" y2="855" stroke-width="26" x2="920"/>
 <line fill="none" stroke="white" y1="21" x1="81" y2="21" stroke-width="50" x2="2049"/>
 <line fill="none" stroke="white" y1="21" x1="2049" y2="1989" stroke-width="50" x2="2049"/>
 <line fill="none" stroke="white" y1="1989" x1="2049" y2="1989" stroke-width="50" x2="81"/>
 <line fill="none" stroke="white" y1="1989" x1="81" y2="21" stroke-width="50" x2="81"/>
 <circle fill="none" cx="170" cy="110" stroke="white" r="52.3259" stroke-width="25"/>
</g>
</svg>