<?xml version="1.0" encoding="UTF-8" standalone="no"?>
<svg xmlns:svg="http://www.w3.org/2000/svg" xmlns="http://www.w3.org/2000/svg" version="1.2" baseProfile="tiny" x="0in" y="0in" width="0.1141in" height="0.1417in" viewBox="0 0 1141 1417" >
<title>SparkFun.mod</title>
<desc>Kicad module 'SparkFun-SOT23' from file 'SparkFun.mod' converted by Fritzing</desc>
<metadata xmlns:fz='http://fritzing.org/kicadmetadata/1.0/' xmlns:rdf='http://www.w3.org/1999/02/22-rdf-syntax-ns#'>
<rdf:RDF><rdf:Description rdf:about=''>
<fz:attr name='kicad filename'>SparkFun.mod</fz:attr>
<fz:attr name='kicad module'>SparkFun-SOT23</fz:attr>
<fz:attr name='fritzing version'>0.4.1b.07.04.4318</fz:attr>
<fz:attr name='conversion date'>17/07/2010 17:17:49</fz:attr>
<fz:attr name='dist-license'>GPL</fz:attr>
<fz:attr name='use-license'>unlimited</fz:attr>
<fz:attr name='author'>KICAD project</fz:attr>
<fz:attr name='license-url'>http://www.gnu.org/licenses/gpl.html</fz:attr>
<fz:comment>SOT-23</fz:comment>
<fz:attr name='keyword'>SOT-23</fz:attr>
</rdf:Description></rdf:RDF></metadata><g id="copper1">
 <rect width="393" x="0" y="866" fill="#ffbf00" connectorname="1" height="551" id="connector0pad" stroke-width="0"/>
 <rect width="393" x="748" y="866" fill="#ffbf00" connectorname="2" height="551" id="connector1pad" stroke-width="0"/>
 <rect width="393" x="374" y="0" fill="#ffbf00" connectorname="3" height="551" id="connector2pad" stroke-width="0"/>
</g>
<g id="silkscreen">
 <line fill="none" stroke="white" y1="428.5" x1="480.5" y2="428.5" stroke-width="26" x2="660.5"/>
 <line fill="none" stroke="white" y1="428.5" x1="660.5" y2="199.5" stroke-width="26" x2="660.5"/>
 <line fill="none" stroke="white" y1="199.5" x1="480.5" y2="199.5" stroke-width="26" x2="660.5"/>
 <line fill="none" stroke="white" y1="428.5" x1="480.5" y2="199.5" stroke-width="26" x2="480.5"/>
 <line fill="none" stroke="white" y1="1217.5" x1="850.5" y2="1217.5" stroke-width="26" x2="1030.5"/>
 <line fill="none" stroke="white" y1="1217.5" x1="1030.5" y2="988.5" stroke-width="26" x2="1030.5"/>
 <line fill="none" stroke="white" y1="988.5" x1="850.5" y2="988.5" stroke-width="26" x2="1030.5"/>
 <line fill="none" stroke="white" y1="1217.5" x1="850.5" y2="988.5" stroke-width="26" x2="850.5"/>
 <line fill="none" stroke="white" y1="1217.5" x1="110.5" y2="1217.5" stroke-width="26" x2="290.5"/>
 <line fill="none" stroke="white" y1="1217.5" x1="290.5" y2="988.5" stroke-width="26" x2="290.5"/>
 <line fill="none" stroke="white" y1="988.5" x1="110.5" y2="988.5" stroke-width="26" x2="290.5"/>
 <line fill="none" stroke="white" y1="1217.5" x1="110.5" y2="988.5" stroke-width="26" x2="110.5"/>
 <line fill="none" stroke="white" y1="448.5" x1="1130.5" y2="968.5" stroke-width="60" x2="1130.5"/>
 <line fill="none" stroke="white" y1="968.5" x1="1130.5" y2="968.5" stroke-width="60" x2="10.5"/>
 <line fill="none" stroke="white" y1="968.5" x1="10.5" y2="448.5" stroke-width="60" x2="10.5"/>
 <line fill="none" stroke="white" y1="448.5" x1="10.5" y2="448.5" stroke-width="60" x2="1130.5"/>
</g>
</svg>