<?xml version="1.0" encoding="UTF-8" standalone="no"?>
<svg xmlns:svg="http://www.w3.org/2000/svg" xmlns="http://www.w3.org/2000/svg" version="1.2" baseProfile="tiny" x="0in" y="0in" width="1.45in" height="1.1in" viewBox="0 0 14500 11000" >
<title>SparkFun.mod</title>
<desc>Kicad module 'SparkFun-COPERNICUS-DIP' from file 'SparkFun.mod' converted by Fritzing</desc>
<metadata xmlns:fz='http://fritzing.org/kicadmetadata/1.0/' xmlns:rdf='http://www.w3.org/1999/02/22-rdf-syntax-ns#'>
<rdf:RDF><rdf:Description rdf:about=''>
<fz:attr name='kicad filename'>SparkFun.mod</fz:attr>
<fz:attr name='kicad module'>SparkFun-COPERNICUS-DIP</fz:attr>
<fz:attr name='fritzing version'>0.4.1b.07.04.4318</fz:attr>
<fz:attr name='conversion date'>17/07/2010 17:15:22</fz:attr>
<fz:attr name='dist-license'>GPL</fz:attr>
<fz:attr name='use-license'>unlimited</fz:attr>
<fz:attr name='author'>KICAD project</fz:attr>
<fz:attr name='license-url'>http://www.gnu.org/licenses/gpl.html</fz:attr>
<fz:comment></fz:comment>
<fz:attr name='keyword'></fz:attr>
</rdf:Description></rdf:RDF></metadata><g id="copper0">
 <g id="copper1">
  <g connectorname="1" id="connector0pin">
   <circle fill="none" cx="4500" cy="10000" stroke="#ff9400" r="250" stroke-width="100"/>
  </g>
  <g connectorname="2" id="connector1pin">
   <circle fill="none" cx="5500" cy="10000" stroke="#ff9400" r="250" stroke-width="100"/>
  </g>
  <g connectorname="3" id="connector2pin">
   <circle fill="none" cx="6500" cy="10000" stroke="#ff9400" r="250" stroke-width="100"/>
  </g>
  <g connectorname="4" id="connector3pin">
   <circle fill="none" cx="7500" cy="10000" stroke="#ff9400" r="250" stroke-width="100"/>
  </g>
  <g connectorname="5" id="connector4pin">
   <circle fill="none" cx="8500" cy="10000" stroke="#ff9400" r="250" stroke-width="100"/>
  </g>
  <g connectorname="6" id="connector5pin">
   <circle fill="none" cx="9500" cy="10000" stroke="#ff9400" r="250" stroke-width="100"/>
  </g>
  <g connectorname="7" id="connector6pin">
   <circle fill="none" cx="10500" cy="10000" stroke="#ff9400" r="250" stroke-width="100"/>
  </g>
  <g connectorname="8" id="connector7pin">
   <circle fill="none" cx="11500" cy="10000" stroke="#ff9400" r="250" stroke-width="100"/>
  </g>
  <g connectorname="9" id="connector8pin">
   <circle fill="none" cx="12500" cy="10000" stroke="#ff9400" r="250" stroke-width="100"/>
  </g>
  <g connectorname="10" id="connector9pin">
   <circle fill="none" cx="13500" cy="10000" stroke="#ff9400" r="250" stroke-width="100"/>
  </g>
  <g connectorname="11" id="connector10pin">
   <circle fill="none" cx="13500" cy="1000" stroke="#ff9400" r="250" stroke-width="100"/>
  </g>
  <g connectorname="12" id="connector11pin">
   <circle fill="none" cx="12500" cy="1000" stroke="#ff9400" r="250" stroke-width="100"/>
  </g>
  <g connectorname="13" id="connector12pin">
   <circle fill="none" cx="11500" cy="1000" stroke="#ff9400" r="250" stroke-width="100"/>
  </g>
  <g connectorname="14" id="connector13pin">
   <circle fill="none" cx="10500" cy="1000" stroke="#ff9400" r="250" stroke-width="100"/>
  </g>
  <g connectorname="15" id="connector14pin">
   <circle fill="none" cx="9500" cy="1000" stroke="#ff9400" r="250" stroke-width="100"/>
  </g>
  <g connectorname="16" id="connector15pin">
   <circle fill="none" cx="8500" cy="1000" stroke="#ff9400" r="250" stroke-width="100"/>
  </g>
  <g connectorname="17" id="connector16pin">
   <circle fill="none" cx="7500" cy="1000" stroke="#ff9400" r="250" stroke-width="100"/>
  </g>
  <g connectorname="18" id="connector17pin">
   <circle fill="none" cx="6500" cy="1000" stroke="#ff9400" r="250" stroke-width="100"/>
  </g>
  <g connectorname="19" id="connector18pin">
   <circle fill="none" cx="5500" cy="1000" stroke="#ff9400" r="250" stroke-width="100"/>
  </g>
  <g connectorname="20" id="connector19pin">
   <circle fill="none" cx="4500" cy="1000" stroke="#ff9400" r="250" stroke-width="100"/>
  </g>
 </g>
</g>
<g id="silkscreen">
 <line fill="none" stroke="white" y1="10100" x1="10400" y2="10100" stroke-width="26" x2="10600"/>
 <line fill="none" stroke="white" y1="10100" x1="10600" y2="9900" stroke-width="26" x2="10600"/>
 <line fill="none" stroke="white" y1="9900" x1="10400" y2="9900" stroke-width="26" x2="10600"/>
 <line fill="none" stroke="white" y1="10100" x1="10400" y2="9900" stroke-width="26" x2="10400"/>
 <line fill="none" stroke="white" y1="10100" x1="9400" y2="10100" stroke-width="26" x2="9600"/>
 <line fill="none" stroke="white" y1="10100" x1="9600" y2="9900" stroke-width="26" x2="9600"/>
 <line fill="none" stroke="white" y1="9900" x1="9400" y2="9900" stroke-width="26" x2="9600"/>
 <line fill="none" stroke="white" y1="10100" x1="9400" y2="9900" stroke-width="26" x2="9400"/>
 <line fill="none" stroke="white" y1="10100" x1="8400" y2="10100" stroke-width="26" x2="8600"/>
 <line fill="none" stroke="white" y1="10100" x1="8600" y2="9900" stroke-width="26" x2="8600"/>
 <line fill="none" stroke="white" y1="9900" x1="8400" y2="9900" stroke-width="26" x2="8600"/>
 <line fill="none" stroke="white" y1="10100" x1="8400" y2="9900" stroke-width="26" x2="8400"/>
 <line fill="none" stroke="white" y1="10100" x1="7400" y2="10100" stroke-width="26" x2="7600"/>
 <line fill="none" stroke="white" y1="10100" x1="7600" y2="9900" stroke-width="26" x2="7600"/>
 <line fill="none" stroke="white" y1="9900" x1="7400" y2="9900" stroke-width="26" x2="7600"/>
 <line fill="none" stroke="white" y1="10100" x1="7400" y2="9900" stroke-width="26" x2="7400"/>
 <line fill="none" stroke="white" y1="10100" x1="6400" y2="10100" stroke-width="26" x2="6600"/>
 <line fill="none" stroke="white" y1="10100" x1="6600" y2="9900" stroke-width="26" x2="6600"/>
 <line fill="none" stroke="white" y1="9900" x1="6400" y2="9900" stroke-width="26" x2="6600"/>
 <line fill="none" stroke="white" y1="10100" x1="6400" y2="9900" stroke-width="26" x2="6400"/>
 <line fill="none" stroke="white" y1="10100" x1="5400" y2="10100" stroke-width="26" x2="5600"/>
 <line fill="none" stroke="white" y1="10100" x1="5600" y2="9900" stroke-width="26" x2="5600"/>
 <line fill="none" stroke="white" y1="9900" x1="5400" y2="9900" stroke-width="26" x2="5600"/>
 <line fill="none" stroke="white" y1="10100" x1="5400" y2="9900" stroke-width="26" x2="5400"/>
 <line fill="none" stroke="white" y1="10100" x1="4400" y2="10100" stroke-width="26" x2="4600"/>
 <line fill="none" stroke="white" y1="10100" x1="4600" y2="9900" stroke-width="26" x2="4600"/>
 <line fill="none" stroke="white" y1="9900" x1="4400" y2="9900" stroke-width="26" x2="4600"/>
 <line fill="none" stroke="white" y1="10100" x1="4400" y2="9900" stroke-width="26" x2="4400"/>
 <line fill="none" stroke="white" y1="10100" x1="13400" y2="10100" stroke-width="26" x2="13600"/>
 <line fill="none" stroke="white" y1="10100" x1="13600" y2="9900" stroke-width="26" x2="13600"/>
 <line fill="none" stroke="white" y1="9900" x1="13400" y2="9900" stroke-width="26" x2="13600"/>
 <line fill="none" stroke="white" y1="10100" x1="13400" y2="9900" stroke-width="26" x2="13400"/>
 <line fill="none" stroke="white" y1="10100" x1="12400" y2="10100" stroke-width="26" x2="12600"/>
 <line fill="none" stroke="white" y1="10100" x1="12600" y2="9900" stroke-width="26" x2="12600"/>
 <line fill="none" stroke="white" y1="9900" x1="12400" y2="9900" stroke-width="26" x2="12600"/>
 <line fill="none" stroke="white" y1="10100" x1="12400" y2="9900" stroke-width="26" x2="12400"/>
 <line fill="none" stroke="white" y1="10100" x1="11399" y2="10100" stroke-width="26" x2="11600"/>
 <line fill="none" stroke="white" y1="10100" x1="11600" y2="9900" stroke-width="26" x2="11600"/>
 <line fill="none" stroke="white" y1="9900" x1="11399" y2="9900" stroke-width="26" x2="11600"/>
 <line fill="none" stroke="white" y1="10100" x1="11399" y2="9900" stroke-width="26" x2="11399"/>
 <line fill="none" stroke="white" y1="1100" x1="10400" y2="1100" stroke-width="26" x2="10600"/>
 <line fill="none" stroke="white" y1="1100" x1="10600" y2="900" stroke-width="26" x2="10600"/>
 <line fill="none" stroke="white" y1="900" x1="10400" y2="900" stroke-width="26" x2="10600"/>
 <line fill="none" stroke="white" y1="1100" x1="10400" y2="900" stroke-width="26" x2="10400"/>
 <line fill="none" stroke="white" y1="1100" x1="9400" y2="1100" stroke-width="26" x2="9600"/>
 <line fill="none" stroke="white" y1="1100" x1="9600" y2="900" stroke-width="26" x2="9600"/>
 <line fill="none" stroke="white" y1="900" x1="9400" y2="900" stroke-width="26" x2="9600"/>
 <line fill="none" stroke="white" y1="1100" x1="9400" y2="900" stroke-width="26" x2="9400"/>
 <line fill="none" stroke="white" y1="1100" x1="8400" y2="1100" stroke-width="26" x2="8600"/>
 <line fill="none" stroke="white" y1="1100" x1="8600" y2="900" stroke-width="26" x2="8600"/>
 <line fill="none" stroke="white" y1="900" x1="8400" y2="900" stroke-width="26" x2="8600"/>
 <line fill="none" stroke="white" y1="1100" x1="8400" y2="900" stroke-width="26" x2="8400"/>
 <line fill="none" stroke="white" y1="1100" x1="7400" y2="1100" stroke-width="26" x2="7600"/>
 <line fill="none" stroke="white" y1="1100" x1="7600" y2="900" stroke-width="26" x2="7600"/>
 <line fill="none" stroke="white" y1="900" x1="7400" y2="900" stroke-width="26" x2="7600"/>
 <line fill="none" stroke="white" y1="1100" x1="7400" y2="900" stroke-width="26" x2="7400"/>
 <line fill="none" stroke="white" y1="1100" x1="6400" y2="1100" stroke-width="26" x2="6600"/>
 <line fill="none" stroke="white" y1="1100" x1="6600" y2="900" stroke-width="26" x2="6600"/>
 <line fill="none" stroke="white" y1="900" x1="6400" y2="900" stroke-width="26" x2="6600"/>
 <line fill="none" stroke="white" y1="1100" x1="6400" y2="900" stroke-width="26" x2="6400"/>
 <line fill="none" stroke="white" y1="1100" x1="5400" y2="1100" stroke-width="26" x2="5600"/>
 <line fill="none" stroke="white" y1="1100" x1="5600" y2="900" stroke-width="26" x2="5600"/>
 <line fill="none" stroke="white" y1="900" x1="5400" y2="900" stroke-width="26" x2="5600"/>
 <line fill="none" stroke="white" y1="1100" x1="5400" y2="900" stroke-width="26" x2="5400"/>
 <line fill="none" stroke="white" y1="1100" x1="4400" y2="1100" stroke-width="26" x2="4600"/>
 <line fill="none" stroke="white" y1="1100" x1="4600" y2="900" stroke-width="26" x2="4600"/>
 <line fill="none" stroke="white" y1="900" x1="4400" y2="900" stroke-width="26" x2="4600"/>
 <line fill="none" stroke="white" y1="1100" x1="4400" y2="900" stroke-width="26" x2="4400"/>
 <line fill="none" stroke="white" y1="1100" x1="13400" y2="1100" stroke-width="26" x2="13600"/>
 <line fill="none" stroke="white" y1="1100" x1="13600" y2="900" stroke-width="26" x2="13600"/>
 <line fill="none" stroke="white" y1="900" x1="13400" y2="900" stroke-width="26" x2="13600"/>
 <line fill="none" stroke="white" y1="1100" x1="13400" y2="900" stroke-width="26" x2="13400"/>
 <line fill="none" stroke="white" y1="1100" x1="12400" y2="1100" stroke-width="26" x2="12600"/>
 <line fill="none" stroke="white" y1="1100" x1="12600" y2="900" stroke-width="26" x2="12600"/>
 <line fill="none" stroke="white" y1="900" x1="12400" y2="900" stroke-width="26" x2="12600"/>
 <line fill="none" stroke="white" y1="1100" x1="12400" y2="900" stroke-width="26" x2="12400"/>
 <line fill="none" stroke="white" y1="1100" x1="11399" y2="1100" stroke-width="26" x2="11600"/>
 <line fill="none" stroke="white" y1="1100" x1="11600" y2="900" stroke-width="26" x2="11600"/>
 <line fill="none" stroke="white" y1="900" x1="11399" y2="900" stroke-width="26" x2="11600"/>
 <line fill="none" stroke="white" y1="1100" x1="11399" y2="900" stroke-width="26" x2="11399"/>
 <line fill="none" stroke="white" y1="9500" x1="10250" y2="9500" stroke-width="80" x2="10750"/>
 <line fill="none" stroke="white" y1="9500" x1="10750" y2="9750" stroke-width="80" x2="11000"/>
 <line fill="none" stroke="white" y1="10250" x1="11000" y2="10500" stroke-width="80" x2="10750"/>
 <line fill="none" stroke="white" y1="9750" x1="9000" y2="9500" stroke-width="80" x2="9250"/>
 <line fill="none" stroke="white" y1="9500" x1="9250" y2="9500" stroke-width="80" x2="9750"/>
 <line fill="none" stroke="white" y1="9500" x1="9750" y2="9750" stroke-width="80" x2="10000"/>
 <line fill="none" stroke="white" y1="10250" x1="10000" y2="10500" stroke-width="80" x2="9750"/>
 <line fill="none" stroke="white" y1="10500" x1="9750" y2="10500" stroke-width="80" x2="9250"/>
 <line fill="none" stroke="white" y1="10500" x1="9250" y2="10250" stroke-width="80" x2="9000"/>
 <line fill="none" stroke="white" y1="9500" x1="10250" y2="9750" stroke-width="80" x2="10000"/>
 <line fill="none" stroke="white" y1="10250" x1="10000" y2="10500" stroke-width="80" x2="10250"/>
 <line fill="none" stroke="white" y1="10500" x1="10750" y2="10500" stroke-width="80" x2="10250"/>
 <line fill="none" stroke="white" y1="9500" x1="7250" y2="9500" stroke-width="80" x2="7750"/>
 <line fill="none" stroke="white" y1="9500" x1="7750" y2="9750" stroke-width="80" x2="8000"/>
 <line fill="none" stroke="white" y1="10250" x1="8000" y2="10500" stroke-width="80" x2="7750"/>
 <line fill="none" stroke="white" y1="9750" x1="8000" y2="9500" stroke-width="80" x2="8250"/>
 <line fill="none" stroke="white" y1="9500" x1="8250" y2="9500" stroke-width="80" x2="8750"/>
 <line fill="none" stroke="white" y1="9500" x1="8750" y2="9750" stroke-width="80" x2="9000"/>
 <line fill="none" stroke="white" y1="10250" x1="9000" y2="10500" stroke-width="80" x2="8750"/>
 <line fill="none" stroke="white" y1="10500" x1="8750" y2="10500" stroke-width="80" x2="8250"/>
 <line fill="none" stroke="white" y1="10500" x1="8250" y2="10250" stroke-width="80" x2="8000"/>
 <line fill="none" stroke="white" y1="9750" x1="6000" y2="9500" stroke-width="80" x2="6250"/>
 <line fill="none" stroke="white" y1="9500" x1="6250" y2="9500" stroke-width="80" x2="6750"/>
 <line fill="none" stroke="white" y1="9500" x1="6750" y2="9750" stroke-width="80" x2="7000"/>
 <line fill="none" stroke="white" y1="10250" x1="7000" y2="10500" stroke-width="80" x2="6750"/>
 <line fill="none" stroke="white" y1="10500" x1="6750" y2="10500" stroke-width="80" x2="6250"/>
 <line fill="none" stroke="white" y1="10500" x1="6250" y2="10250" stroke-width="80" x2="6000"/>
 <line fill="none" stroke="white" y1="9500" x1="7250" y2="9750" stroke-width="80" x2="7000"/>
 <line fill="none" stroke="white" y1="10250" x1="7000" y2="10500" stroke-width="80" x2="7250"/>
 <line fill="none" stroke="white" y1="10500" x1="7750" y2="10500" stroke-width="80" x2="7250"/>
 <line fill="none" stroke="white" y1="9500" x1="4250" y2="9500" stroke-width="80" x2="4750"/>
 <line fill="none" stroke="white" y1="9500" x1="4750" y2="9750" stroke-width="80" x2="5000"/>
 <line fill="none" stroke="white" y1="10250" x1="5000" y2="10500" stroke-width="80" x2="4750"/>
 <line fill="none" stroke="white" y1="9750" x1="5000" y2="9500" stroke-width="80" x2="5250"/>
 <line fill="none" stroke="white" y1="9500" x1="5250" y2="9500" stroke-width="80" x2="5750"/>
 <line fill="none" stroke="white" y1="9500" x1="5750" y2="9750" stroke-width="80" x2="6000"/>
 <line fill="none" stroke="white" y1="10250" x1="6000" y2="10500" stroke-width="80" x2="5750"/>
 <line fill="none" stroke="white" y1="10500" x1="5750" y2="10500" stroke-width="80" x2="5250"/>
 <line fill="none" stroke="white" y1="10500" x1="5250" y2="10250" stroke-width="80" x2="5000"/>
 <line fill="none" stroke="white" y1="9750" x1="4000" y2="10250" stroke-width="80" x2="4000"/>
 <line fill="none" stroke="white" y1="9500" x1="4250" y2="9750" stroke-width="80" x2="4000"/>
 <line fill="none" stroke="white" y1="10250" x1="4000" y2="10500" stroke-width="80" x2="4250"/>
 <line fill="none" stroke="white" y1="10500" x1="4750" y2="10500" stroke-width="80" x2="4250"/>
 <line fill="none" stroke="white" y1="9750" x1="13000" y2="9500" stroke-width="80" x2="13250"/>
 <line fill="none" stroke="white" y1="9500" x1="13250" y2="9500" stroke-width="80" x2="13750"/>
 <line fill="none" stroke="white" y1="9500" x1="13750" y2="9750" stroke-width="80" x2="14000"/>
 <line fill="none" stroke="white" y1="10250" x1="14000" y2="10500" stroke-width="80" x2="13750"/>
 <line fill="none" stroke="white" y1="10500" x1="13750" y2="10500" stroke-width="80" x2="13250"/>
 <line fill="none" stroke="white" y1="10500" x1="13250" y2="10250" stroke-width="80" x2="13000"/>
 <line fill="none" stroke="white" y1="9500" x1="11250" y2="9500" stroke-width="80" x2="11750"/>
 <line fill="none" stroke="white" y1="9500" x1="11750" y2="9750" stroke-width="80" x2="12000"/>
 <line fill="none" stroke="white" y1="10250" x1="12000" y2="10500" stroke-width="80" x2="11750"/>
 <line fill="none" stroke="white" y1="9750" x1="12000" y2="9500" stroke-width="80" x2="12250"/>
 <line fill="none" stroke="white" y1="9500" x1="12250" y2="9500" stroke-width="80" x2="12750"/>
 <line fill="none" stroke="white" y1="9500" x1="12750" y2="9750" stroke-width="80" x2="13000"/>
 <line fill="none" stroke="white" y1="10250" x1="13000" y2="10500" stroke-width="80" x2="12750"/>
 <line fill="none" stroke="white" y1="10500" x1="12750" y2="10500" stroke-width="80" x2="12250"/>
 <line fill="none" stroke="white" y1="10500" x1="12250" y2="10250" stroke-width="80" x2="12000"/>
 <line fill="none" stroke="white" y1="9500" x1="11250" y2="9750" stroke-width="80" x2="11000"/>
 <line fill="none" stroke="white" y1="10250" x1="11000" y2="10500" stroke-width="80" x2="11250"/>
 <line fill="none" stroke="white" y1="10500" x1="11750" y2="10500" stroke-width="80" x2="11250"/>
 <line fill="none" stroke="white" y1="9750" x1="14000" y2="10250" stroke-width="80" x2="14000"/>
 <line fill="none" stroke="white" y1="500" x1="10250" y2="500" stroke-width="80" x2="10750"/>
 <line fill="none" stroke="white" y1="500" x1="10750" y2="750" stroke-width="80" x2="11000"/>
 <line fill="none" stroke="white" y1="1250" x1="11000" y2="1500" stroke-width="80" x2="10750"/>
 <line fill="none" stroke="white" y1="750" x1="9000" y2="500" stroke-width="80" x2="9250"/>
 <line fill="none" stroke="white" y1="500" x1="9250" y2="500" stroke-width="80" x2="9750"/>
 <line fill="none" stroke="white" y1="500" x1="9750" y2="750" stroke-width="80" x2="10000"/>
 <line fill="none" stroke="white" y1="1250" x1="10000" y2="1500" stroke-width="80" x2="9750"/>
 <line fill="none" stroke="white" y1="1500" x1="9750" y2="1500" stroke-width="80" x2="9250"/>
 <line fill="none" stroke="white" y1="1500" x1="9250" y2="1250" stroke-width="80" x2="9000"/>
 <line fill="none" stroke="white" y1="500" x1="10250" y2="750" stroke-width="80" x2="10000"/>
 <line fill="none" stroke="white" y1="1250" x1="10000" y2="1500" stroke-width="80" x2="10250"/>
 <line fill="none" stroke="white" y1="1500" x1="10750" y2="1500" stroke-width="80" x2="10250"/>
 <line fill="none" stroke="white" y1="500" x1="7250" y2="500" stroke-width="80" x2="7750"/>
 <line fill="none" stroke="white" y1="500" x1="7750" y2="750" stroke-width="80" x2="8000"/>
 <line fill="none" stroke="white" y1="1250" x1="8000" y2="1500" stroke-width="80" x2="7750"/>
 <line fill="none" stroke="white" y1="750" x1="8000" y2="500" stroke-width="80" x2="8250"/>
 <line fill="none" stroke="white" y1="500" x1="8250" y2="500" stroke-width="80" x2="8750"/>
 <line fill="none" stroke="white" y1="500" x1="8750" y2="750" stroke-width="80" x2="9000"/>
 <line fill="none" stroke="white" y1="1250" x1="9000" y2="1500" stroke-width="80" x2="8750"/>
 <line fill="none" stroke="white" y1="1500" x1="8750" y2="1500" stroke-width="80" x2="8250"/>
 <line fill="none" stroke="white" y1="1500" x1="8250" y2="1250" stroke-width="80" x2="8000"/>
 <line fill="none" stroke="white" y1="750" x1="6000" y2="500" stroke-width="80" x2="6250"/>
 <line fill="none" stroke="white" y1="500" x1="6250" y2="500" stroke-width="80" x2="6750"/>
 <line fill="none" stroke="white" y1="500" x1="6750" y2="750" stroke-width="80" x2="7000"/>
 <line fill="none" stroke="white" y1="1250" x1="7000" y2="1500" stroke-width="80" x2="6750"/>
 <line fill="none" stroke="white" y1="1500" x1="6750" y2="1500" stroke-width="80" x2="6250"/>
 <line fill="none" stroke="white" y1="1500" x1="6250" y2="1250" stroke-width="80" x2="6000"/>
 <line fill="none" stroke="white" y1="500" x1="7250" y2="750" stroke-width="80" x2="7000"/>
 <line fill="none" stroke="white" y1="1250" x1="7000" y2="1500" stroke-width="80" x2="7250"/>
 <line fill="none" stroke="white" y1="1500" x1="7750" y2="1500" stroke-width="80" x2="7250"/>
 <line fill="none" stroke="white" y1="500" x1="4250" y2="500" stroke-width="80" x2="4750"/>
 <line fill="none" stroke="white" y1="500" x1="4750" y2="750" stroke-width="80" x2="5000"/>
 <line fill="none" stroke="white" y1="1250" x1="5000" y2="1500" stroke-width="80" x2="4750"/>
 <line fill="none" stroke="white" y1="750" x1="5000" y2="500" stroke-width="80" x2="5250"/>
 <line fill="none" stroke="white" y1="500" x1="5250" y2="500" stroke-width="80" x2="5750"/>
 <line fill="none" stroke="white" y1="500" x1="5750" y2="750" stroke-width="80" x2="6000"/>
 <line fill="none" stroke="white" y1="1250" x1="6000" y2="1500" stroke-width="80" x2="5750"/>
 <line fill="none" stroke="white" y1="1500" x1="5750" y2="1500" stroke-width="80" x2="5250"/>
 <line fill="none" stroke="white" y1="1500" x1="5250" y2="1250" stroke-width="80" x2="5000"/>
 <line fill="none" stroke="white" y1="750" x1="4000" y2="1250" stroke-width="80" x2="4000"/>
 <line fill="none" stroke="white" y1="500" x1="4250" y2="750" stroke-width="80" x2="4000"/>
 <line fill="none" stroke="white" y1="1250" x1="4000" y2="1500" stroke-width="80" x2="4250"/>
 <line fill="none" stroke="white" y1="1500" x1="4750" y2="1500" stroke-width="80" x2="4250"/>
 <line fill="none" stroke="white" y1="750" x1="13000" y2="500" stroke-width="80" x2="13250"/>
 <line fill="none" stroke="white" y1="500" x1="13250" y2="500" stroke-width="80" x2="13750"/>
 <line fill="none" stroke="white" y1="500" x1="13750" y2="750" stroke-width="80" x2="14000"/>
 <line fill="none" stroke="white" y1="1250" x1="14000" y2="1500" stroke-width="80" x2="13750"/>
 <line fill="none" stroke="white" y1="1500" x1="13750" y2="1500" stroke-width="80" x2="13250"/>
 <line fill="none" stroke="white" y1="1500" x1="13250" y2="1250" stroke-width="80" x2="13000"/>
 <line fill="none" stroke="white" y1="500" x1="11250" y2="500" stroke-width="80" x2="11750"/>
 <line fill="none" stroke="white" y1="500" x1="11750" y2="750" stroke-width="80" x2="12000"/>
 <line fill="none" stroke="white" y1="1250" x1="12000" y2="1500" stroke-width="80" x2="11750"/>
 <line fill="none" stroke="white" y1="750" x1="12000" y2="500" stroke-width="80" x2="12250"/>
 <line fill="none" stroke="white" y1="500" x1="12250" y2="500" stroke-width="80" x2="12750"/>
 <line fill="none" stroke="white" y1="500" x1="12750" y2="750" stroke-width="80" x2="13000"/>
 <line fill="none" stroke="white" y1="1250" x1="13000" y2="1500" stroke-width="80" x2="12750"/>
 <line fill="none" stroke="white" y1="1500" x1="12750" y2="1500" stroke-width="80" x2="12250"/>
 <line fill="none" stroke="white" y1="1500" x1="12250" y2="1250" stroke-width="80" x2="12000"/>
 <line fill="none" stroke="white" y1="500" x1="11250" y2="750" stroke-width="80" x2="11000"/>
 <line fill="none" stroke="white" y1="1250" x1="11000" y2="1500" stroke-width="80" x2="11250"/>
 <line fill="none" stroke="white" y1="1500" x1="11750" y2="1500" stroke-width="80" x2="11250"/>
 <line fill="none" stroke="white" y1="750" x1="14000" y2="1250" stroke-width="80" x2="14000"/>
 <line fill="none" stroke="white" y1="0" x1="2000" y2="2000" stroke-width="50" x2="2000"/>
 <line fill="none" stroke="white" y1="2000" x1="2000" y2="4500" stroke-width="50" x2="2000"/>
 <line fill="none" stroke="white" y1="4500" x1="2000" y2="11000" stroke-width="50" x2="2000"/>
 <line fill="none" stroke="white" y1="11000" x1="2000" y2="11000" stroke-width="50" x2="14500"/>
 <line fill="none" stroke="white" y1="11000" x1="14500" y2="0" stroke-width="50" x2="14500"/>
 <line fill="none" stroke="white" y1="0" x1="14500" y2="0" stroke-width="50" x2="2000"/>
 <line fill="none" stroke="white" y1="2000" x1="2000" y2="2000" stroke-width="50" x2="0"/>
 <line fill="none" stroke="white" y1="2000" x1="0" y2="4500" stroke-width="50" x2="0"/>
 <line fill="none" stroke="white" y1="4500" x1="0" y2="4500" stroke-width="50" x2="2000"/>
</g>
</svg>