<?xml version="1.0" encoding="UTF-8" standalone="no"?>
<svg xmlns:svg="http://www.w3.org/2000/svg" xmlns="http://www.w3.org/2000/svg" version="1.2" baseProfile="tiny" x="0in" y="0in" width="0.170225in" height="0.166143in" viewBox="0 0 1702.25 1661.43" >
<title>SparkFun.mod</title>
<desc>Kicad module 'SparkFun-SFE-LOGO' from file 'SparkFun.mod' converted by Fritzing</desc>
<metadata xmlns:fz='http://fritzing.org/kicadmetadata/1.0/' xmlns:rdf='http://www.w3.org/1999/02/22-rdf-syntax-ns#'>
<rdf:RDF><rdf:Description rdf:about=''>
<fz:attr name='kicad filename'>SparkFun.mod</fz:attr>
<fz:attr name='kicad module'>SparkFun-SFE-LOGO</fz:attr>
<fz:attr name='fritzing version'>0.4.1b.07.04.4318</fz:attr>
<fz:attr name='conversion date'>17/07/2010 17:17:20</fz:attr>
<fz:attr name='dist-license'>GPL</fz:attr>
<fz:attr name='use-license'>unlimited</fz:attr>
<fz:attr name='author'>KICAD project</fz:attr>
<fz:attr name='license-url'>http://www.gnu.org/licenses/gpl.html</fz:attr>
<fz:comment></fz:comment>
<fz:attr name='keyword'></fz:attr>
</rdf:Description></rdf:RDF></metadata><g id="silkscreen">
 <line fill="none" stroke="white" y1="1536.87" x1="744.566" y2="1536.87" stroke-width="26" x2="758.566"/>
 <line fill="none" stroke="white" y1="1536.87" x1="758.566" y2="1500.87" stroke-width="26" x2="758.566"/>
 <line fill="none" stroke="white" y1="1500.87" x1="744.566" y2="1500.87" stroke-width="26" x2="758.566"/>
 <line fill="none" stroke="white" y1="1536.87" x1="744.566" y2="1500.87" stroke-width="26" x2="744.566"/>
 <line fill="none" stroke="white" y1="28.8669" x1="751.566" y2="28.8669" stroke-width="50" x2="1144.57"/>
 <path fill="none" stroke="white" stroke-width="25" d="M1407.42,495.447a491.867,491.867,0,0,0,-773.854,399.416"/>
 <path fill="none" stroke="white" stroke-width="25" d="M657.725,1582.63a414.566,414.566,0,0,0,-24.1593,-687.766"/>
 <path fill="none" stroke="white" stroke-width="25" d="M1701.51,472.397a476.681,476.681,0,0,0,-792.946,382.472"/>
 <path fill="none" stroke="white" stroke-width="25" d="M658.789,1583.79a433.554,433.554,0,0,0,249.777,-728.919"/>
</g>
</svg>