<?xml version="1.0" encoding="utf-8"?>
<!-- Generator: Adobe Illustrator 15.0.2, SVG Export Plug-In . SVG Version: 6.00 Build 0)  -->
<!DOCTYPE svg PUBLIC "-//W3C//DTD SVG 1.1//EN" "http://www.w3.org/Graphics/SVG/1.1/DTD/svg11.dtd">
<svg version="1.1" id="Layer_1" xmlns="http://www.w3.org/2000/svg" xmlns:xlink="http://www.w3.org/1999/xlink" x="0px" y="0px"
	 width="6.463px" height="5.621px" viewBox="0 0 6.463 5.621" enable-background="new 0 0 6.463 5.621" xml:space="preserve">
<rect x="1.534" y="2.448" opacity="0.7" fill="#231F20" enable-background="new    " width="2.579" height="2.168"/>
<path opacity="0.7" fill="none" stroke="#231F20" stroke-width="0.6347" stroke-miterlimit="10" enable-background="new    " d="
	M2.03,2.448c0-0.149,0-0.283,0-0.328c0-0.462,0.355-0.836,0.792-0.836c0.438,0,0.794,0.374,0.794,0.836c0,0.051,0,0.184,0,0.328"/>
<path opacity="0.8" fill="none" stroke="#FFFFFF" stroke-width="0.0949" stroke-miterlimit="10" enable-background="new    " d="
	M2.251,2.448c0-0.104,0-0.199,0-0.231c0-0.424,0.246-0.683,0.575-0.696c0,0,0.152-0.024,0.295,0.087"/>
<polyline opacity="0.8" fill="none" stroke="#FFFFFF" stroke-width="0.0974" stroke-miterlimit="10" enable-background="new    " points="
	1.534,4.555 4.061,4.555 4.061,2.448 "/>
<path opacity="0.8" fill="none" stroke="#FFFFFF" stroke-width="0.0974" stroke-miterlimit="10" enable-background="new    " d="
	M3.895,2.449V1.981c0,0-0.041-0.234-0.088-0.328"/>
</svg>
