<?xml version="1.0" encoding="utf-8"?>
<!-- Generator: Adobe Illustrator 16.0.0, SVG Export Plug-In . SVG Version: 6.00 Build 0)  -->
<!DOCTYPE svg PUBLIC "-//W3C//DTD SVG 1.1//EN" "http://www.w3.org/Graphics/SVG/1.1/DTD/svg11.dtd">
<svg version="1.1"
	 id="svg2" xmlns:rdf="http://www.w3.org/1999/02/22-rdf-syntax-ns#" xmlns:cc="http://creativecommons.org/ns#" xmlns:dc="http://purl.org/dc/elements/1.1/" xmlns:svg="http://www.w3.org/2000/svg" xmlns:inkscape="http://www.inkscape.org/namespaces/inkscape" xmlns:sodipodi="http://sodipodi.sourceforge.net/DTD/sodipodi-0.dtd"
	 xmlns="http://www.w3.org/2000/svg" xmlns:xlink="http://www.w3.org/1999/xlink" x="0px" y="0px" width="51.047px"
	 height="63.152px" viewBox="0 0 51.047 63.152" enable-background="new 0 0 51.047 63.152" xml:space="preserve">
<g id="schematic" transform="translate(18,0)">
	<g transform="translate(-18,0)">
		<rect id="connector2pin" x="42.633" y="1.237" width="1.894" height="9.783"/>
		<rect id="connector2terminal" x="43.142" y="0.876" width="0.866" height="0.684"/>
		<rect id="connector1pin" x="42" y="52.568" width="1.894" height="9.781"/>
		<rect id="connector1terminal" x="43" y="62.131" width="0.867" height="0.686"/>
		<rect id="connector0pin" x="2.057" y="30.747" width="9.781" height="1.894"/>
		<rect id="connector0terminal" x="1.591" y="31.268" width="0.686" height="0.867"/>
	</g>
	<g id="g10">
		<path id="path12" d="M24,62.04V44.135c0-0.615,0.498-1.111,1.112-1.111l0,0c0.615,0,1.113,0.496,1.113,1.111l0,0V62.04
			c0,0.615-0.498,1.112-1.113,1.112l0,0C24.498,63.152,24,62.655,24,62.04L24,62.04z"/>
	</g>
	<g id="g14">
		<path id="path16" d="M24.463,19.799V1.742c0-0.616,0.498-1.114,1.115-1.114l0,0c0.614,0,1.112,0.498,1.112,1.114l0,0v18.057
			c0,0.615-0.498,1.113-1.112,1.113l0,0C24.961,20.912,24.463,20.414,24.463,19.799L24.463,19.799z"/>
	</g>
	<g id="g18">
		<polygon id="polygon20" points="11.293,42.116 11.293,20.578 13.521,20.578 13.521,42.116 		"/>
	</g>
	<circle id="circle22" fill="none" stroke="#000000" stroke-width="1.8499" cx="16.558" cy="31.807" r="14.953"/>
	<g id="g24" transform="matrix(1.0465553,0,0,1,0.772538,0)">
		<path id="path26" d="M-15.345,33c-0.689,0-1.249-0.559-1.249-1.247l0,0c0-0.69,0.56-1.249,1.249-1.249l0,0h25.678
			c0.689,0,1.249,0.559,1.249,1.249l0,0c0,0.688-0.56,1.247-1.249,1.247l0,0H-15.345L-15.345,33z"/>
	</g>
	<g id="g28" transform="matrix(0,0.7099862,-1.0297267,0,58.7496,10.788261)">
		<g id="g30">
			<path id="path32" d="M0,0.001"/>
		</g>
		<g id="g34">
			<polygon id="polygon36" points="11.448,32.791 13.327,30.917 24.443,39.413 22.567,41.285 			"/>
		</g>
		<g id="g38">
			<polygon id="polygon40" points="21.542,32.992 27.821,44.923 13.01,37.941 			"/>
		</g>
	</g>
	<g id="g42" transform="matrix(0,0.7132717,-1.0489602,0,45.677399,26.264345)">
		<polygon id="polygon44" points="10.169,30.92 24.928,19.084 26.18,20.644 11.419,32.481 		"/>
	</g>
</g>
</svg>
