<?xml version='1.0' encoding='UTF-8' standalone='no'?>
<!-- Created with Fritzing (http://www.fritzing.org/) -->
<svg xmlns="http://www.w3.org/2000/svg"  width="3.57664in" x="0in" version="1.2" y="0in" height="7.11995in" viewBox="0 0 257.518 512.636" baseProfile="tiny">
 <desc >Fritzing schematic generated by brd2svg</desc>
 <g  id="schematic">
  <rect  width="212.599" x="22.4598" y="22.4598" fill="none" height="467.716" stroke="#000000" stroke-linejoin="round" stroke-linecap="round" stroke-width="2.4"/>
  <text  x="128.759" y="64.9795" font-family="Droid Sans" fill="#000000" text-anchor="middle" stroke="none" id="label" font-size="18">Arduino</text>
  <text  x="128.759" y="86.2394" font-family="Droid Sans" fill="#000000" text-anchor="middle" stroke="none" id="label" font-size="18">Micro</text>
  <text  x="128.759" y="107.499" font-family="Droid Sans" fill="#000000" text-anchor="middle" stroke="none" id="label" font-size="18">Rev03</text>
  <line  fill="none" stroke="#000000" stroke-linejoin="round" stroke-linecap="round" y1="64.9795" stroke-width="2.4" x1="1.2" y2="64.9795" x2="21.2599"/>
  <rect  width="21.2599" x="0" y="63.7795" fill="none" height="2.4" id="connector45pin" stroke-width="0" connectorName="RESET"/>
  <rect  width="2.4" x="0" y="63.7795" fill="none" height="2.4" id="connector45terminal" stroke-width="0"/>
  <text  x="27.7399" y="67.3795" font-family="Droid Sans" fill="#000000" text-anchor="start" stroke="none" id="label45" font-size="9.936">RESET</text>
  <line  fill="none" stroke="#000000" stroke-linejoin="round" stroke-linecap="round" y1="86.2394" stroke-width="2.4" x1="1.2" y2="86.2394" x2="21.2599"/>
  <rect  width="21.2599" x="0" y="85.0392" fill="none" height="2.4" id="connector78pin" stroke-width="0" connectorName="AREF"/>
  <rect  width="2.4" x="0" y="85.0392" fill="none" height="2.4" id="connector78terminal" stroke-width="0"/>
  <text  x="27.7399" y="88.6392" font-family="Droid Sans" fill="#000000" text-anchor="start" stroke="none" id="label78" font-size="9.936">AREF</text>
  <line  fill="none" stroke="#000000" stroke-linejoin="round" stroke-linecap="round" y1="128.759" stroke-width="2.4" x1="1.2" y2="128.759" x2="21.2599"/>
  <rect  width="21.2599" x="0" y="127.559" fill="none" height="2.4" id="connector77pin" stroke-width="0" connectorName="A0"/>
  <rect  width="2.4" x="0" y="127.559" fill="none" height="2.4" id="connector77terminal" stroke-width="0"/>
  <text  x="27.7399" y="131.159" font-family="Droid Sans" fill="#000000" text-anchor="start" stroke="none" id="label77" font-size="9.936">A0</text>
  <line  fill="none" stroke="#000000" stroke-linejoin="round" stroke-linecap="round" y1="150.019" stroke-width="2.4" x1="1.2" y2="150.019" x2="21.2599"/>
  <rect  width="21.2599" x="0" y="148.819" fill="none" height="2.4" id="connector76pin" stroke-width="0" connectorName="A1"/>
  <rect  width="2.4" x="0" y="148.819" fill="none" height="2.4" id="connector76terminal" stroke-width="0"/>
  <text  x="27.7399" y="152.419" font-family="Droid Sans" fill="#000000" text-anchor="start" stroke="none" id="label76" font-size="9.936">A1</text>
  <line  fill="none" stroke="#000000" stroke-linejoin="round" stroke-linecap="round" y1="171.279" stroke-width="2.4" x1="1.2" y2="171.279" x2="21.2599"/>
  <rect  width="21.2599" x="0" y="170.078" fill="none" height="2.4" id="connector75pin" stroke-width="0" connectorName="A2"/>
  <rect  width="2.4" x="0" y="170.078" fill="none" height="2.4" id="connector75terminal" stroke-width="0"/>
  <text  x="27.7399" y="173.678" font-family="Droid Sans" fill="#000000" text-anchor="start" stroke="none" id="label75" font-size="9.936">A2</text>
  <line  fill="none" stroke="#000000" stroke-linejoin="round" stroke-linecap="round" y1="192.539" stroke-width="2.4" x1="1.2" y2="192.539" x2="21.2599"/>
  <rect  width="21.2599" x="0" y="191.339" fill="none" height="2.4" id="connector74pin" stroke-width="0" connectorName="A3"/>
  <rect  width="2.4" x="0" y="191.339" fill="none" height="2.4" id="connector74terminal" stroke-width="0"/>
  <text  x="27.7399" y="194.939" font-family="Droid Sans" fill="#000000" text-anchor="start" stroke="none" id="label74" font-size="9.936">A3</text>
  <line  fill="none" stroke="#000000" stroke-linejoin="round" stroke-linecap="round" y1="213.798" stroke-width="2.4" x1="1.2" y2="213.798" x2="21.2599"/>
  <rect  width="21.2599" x="0" y="212.599" fill="none" height="2.4" id="connector73pin" stroke-width="0" connectorName="A4"/>
  <rect  width="2.4" x="0" y="212.599" fill="none" height="2.4" id="connector73terminal" stroke-width="0"/>
  <text  x="27.7399" y="216.199" font-family="Droid Sans" fill="#000000" text-anchor="start" stroke="none" id="label73" font-size="9.936">A4</text>
  <line  fill="none" stroke="#000000" stroke-linejoin="round" stroke-linecap="round" y1="235.058" stroke-width="2.4" x1="1.2" y2="235.058" x2="21.2599"/>
  <rect  width="21.2599" x="0" y="233.858" fill="none" height="2.4" id="connector72pin" stroke-width="0" connectorName="A5"/>
  <rect  width="2.4" x="0" y="233.858" fill="none" height="2.4" id="connector72terminal" stroke-width="0"/>
  <text  x="27.7399" y="237.458" font-family="Droid Sans" fill="#000000" text-anchor="start" stroke="none" id="label72" font-size="9.936">A5</text>
  <line  fill="none" stroke="#000000" stroke-linejoin="round" stroke-linecap="round" y1="64.9795" stroke-width="2.4" x1="235.058" y2="64.9795" x2="256.318"/>
  <rect  width="21.2599" x="236.258" y="63.7795" fill="none" connectorname="D13 PWM" height="2.4" id="connector80pin" stroke-width="0"/>
  <rect  width="2.4" x="255.118" y="63.7795" fill="none" height="2.4" id="connector80terminal" stroke-width="0"/>
  <text  x="229.778" y="67.3795" font-family="Droid Sans" fill="#000000" text-anchor="end" stroke="none" id="label80" font-size="9.936">D13 PWM</text>
  <line  fill="none" stroke="#000000" stroke-linejoin="round" stroke-linecap="round" y1="86.2394" stroke-width="2.4" x1="235.058" y2="86.2394" x2="256.318"/>
  <rect  width="21.2599" x="236.258" y="85.0392" fill="none" connectorname="D12 PWM/A11" height="2.4" id="connector63pin" stroke-width="0"/>
  <rect  width="2.4" x="255.118" y="85.0392" fill="none" height="2.4" id="connector63terminal" stroke-width="0"/>
  <text  x="229.778" y="88.6392" font-family="Droid Sans" fill="#000000" text-anchor="end" stroke="none" id="label63" font-size="9.936">D12 PWM/A11</text>
  <line  fill="none" stroke="#000000" stroke-linejoin="round" stroke-linecap="round" y1="107.499" stroke-width="2.4" x1="235.058" y2="107.499" x2="256.318"/>
  <rect  width="21.2599" x="236.258" y="106.299" fill="none" connectorname="D11 PWM" height="2.4" id="connector62pin" stroke-width="0"/>
  <rect  width="2.4" x="255.118" y="106.299" fill="none" height="2.4" id="connector62terminal" stroke-width="0"/>
  <text  x="229.778" y="109.899" font-family="Droid Sans" fill="#000000" text-anchor="end" stroke="none" id="label62" font-size="9.936">D11 PWM</text>
  <line  fill="none" stroke="#000000" stroke-linejoin="round" stroke-linecap="round" y1="128.759" stroke-width="2.4" x1="235.058" y2="128.759" x2="256.318"/>
  <rect  width="21.2599" x="236.258" y="127.559" fill="none" connectorname="D10 PWM/A10" height="2.4" id="connector61pin" stroke-width="0"/>
  <rect  width="2.4" x="255.118" y="127.559" fill="none" height="2.4" id="connector61terminal" stroke-width="0"/>
  <text  x="229.778" y="131.159" font-family="Droid Sans" fill="#000000" text-anchor="end" stroke="none" id="label61" font-size="9.936">D10 PWM/A10</text>
  <line  fill="none" stroke="#000000" stroke-linejoin="round" stroke-linecap="round" y1="150.019" stroke-width="2.4" x1="235.058" y2="150.019" x2="256.318"/>
  <rect  width="21.2599" x="236.258" y="148.819" fill="none" connectorname="D9 PWM/A9" height="2.4" id="connector60pin" stroke-width="0"/>
  <rect  width="2.4" x="255.118" y="148.819" fill="none" height="2.4" id="connector60terminal" stroke-width="0"/>
  <text  x="229.778" y="152.419" font-family="Droid Sans" fill="#000000" text-anchor="end" stroke="none" id="label60" font-size="9.936">D9 PWM/A9</text>
  <line  fill="none" stroke="#000000" stroke-linejoin="round" stroke-linecap="round" y1="171.279" stroke-width="2.4" x1="235.058" y2="171.279" x2="256.318"/>
  <rect  width="21.2599" x="236.258" y="170.078" fill="none" connectorname="D8 PWM/A8" height="2.4" id="connector59pin" stroke-width="0"/>
  <rect  width="2.4" x="255.118" y="170.078" fill="none" height="2.4" id="connector59terminal" stroke-width="0"/>
  <text  x="229.778" y="173.678" font-family="Droid Sans" fill="#000000" text-anchor="end" stroke="none" id="label59" font-size="9.936">D8 PWM/A8</text>
  <line  fill="none" stroke="#000000" stroke-linejoin="round" stroke-linecap="round" y1="192.539" stroke-width="2.4" x1="235.058" y2="192.539" x2="256.318"/>
  <rect  width="21.2599" x="236.258" y="191.339" fill="none" connectorname="D7" height="2.4" id="connector58pin" stroke-width="0"/>
  <rect  width="2.4" x="255.118" y="191.339" fill="none" height="2.4" id="connector58terminal" stroke-width="0"/>
  <text  x="229.778" y="194.939" font-family="Droid Sans" fill="#000000" text-anchor="end" stroke="none" id="label58" font-size="9.936">D7</text>
  <line  fill="none" stroke="#000000" stroke-linejoin="round" stroke-linecap="round" y1="213.798" stroke-width="2.4" x1="235.058" y2="213.798" x2="256.318"/>
  <rect  width="21.2599" x="236.258" y="212.599" fill="none" connectorname="D6 PWM/A7" height="2.4" id="connector57pin" stroke-width="0"/>
  <rect  width="2.4" x="255.118" y="212.599" fill="none" height="2.4" id="connector57terminal" stroke-width="0"/>
  <text  x="229.778" y="216.199" font-family="Droid Sans" fill="#000000" text-anchor="end" stroke="none" id="label57" font-size="9.936">D6 PWM/A7</text>
  <line  fill="none" stroke="#000000" stroke-linejoin="round" stroke-linecap="round" y1="235.058" stroke-width="2.4" x1="235.058" y2="235.058" x2="256.318"/>
  <rect  width="21.2599" x="236.258" y="233.858" fill="none" connectorname="D5 PWM" height="2.4" id="connector56pin" stroke-width="0"/>
  <rect  width="2.4" x="255.118" y="233.858" fill="none" height="2.4" id="connector56terminal" stroke-width="0"/>
  <text  x="229.778" y="237.458" font-family="Droid Sans" fill="#000000" text-anchor="end" stroke="none" id="label56" font-size="9.936">D5 PWM</text>
  <line  fill="none" stroke="#000000" stroke-linejoin="round" stroke-linecap="round" y1="256.318" stroke-width="2.4" x1="235.058" y2="256.318" x2="256.318"/>
  <rect  width="21.2599" x="236.258" y="255.118" fill="none" connectorname="D4 PWM/A6" height="2.4" id="connector55pin" stroke-width="0"/>
  <rect  width="2.4" x="255.118" y="255.118" fill="none" height="2.4" id="connector55terminal" stroke-width="0"/>
  <text  x="229.778" y="258.718" font-family="Droid Sans" fill="#000000" text-anchor="end" stroke="none" id="label55" font-size="9.936">D4 PWM/A6</text>
  <line  fill="none" stroke="#000000" stroke-linejoin="round" stroke-linecap="round" y1="277.578" stroke-width="2.4" x1="235.058" y2="277.578" x2="256.318"/>
  <rect  width="21.2599" x="236.258" y="276.378" fill="none" connectorname="D3/SCL" height="2.4" id="connector54pin" stroke-width="0"/>
  <rect  width="2.4" x="255.118" y="276.378" fill="none" height="2.4" id="connector54terminal" stroke-width="0"/>
  <text  x="229.778" y="279.978" font-family="Droid Sans" fill="#000000" text-anchor="end" stroke="none" id="label54" font-size="9.936">D3/SCL</text>
  <line  fill="none" stroke="#000000" stroke-linejoin="round" stroke-linecap="round" y1="298.837" stroke-width="2.4" x1="235.058" y2="298.837" x2="256.318"/>
  <rect  width="21.2599" x="236.258" y="297.638" fill="none" connectorname="D2/SDA" height="2.4" id="connector53pin" stroke-width="0"/>
  <rect  width="2.4" x="255.118" y="297.638" fill="none" height="2.4" id="connector53terminal" stroke-width="0"/>
  <text  x="229.778" y="301.238" font-family="Droid Sans" fill="#000000" text-anchor="end" stroke="none" id="label53" font-size="9.936">D2/SDA</text>
  <line  fill="none" stroke="#000000" stroke-linejoin="round" stroke-linecap="round" y1="320.098" stroke-width="2.4" x1="235.058" y2="320.098" x2="256.318"/>
  <rect  width="21.2599" x="236.258" y="318.897" fill="none" connectorname="D1/TX" height="2.4" id="connector49pin" stroke-width="0"/>
  <rect  width="2.4" x="255.118" y="318.897" fill="none" height="2.4" id="connector49terminal" stroke-width="0"/>
  <text  x="229.778" y="322.497" font-family="Droid Sans" fill="#000000" text-anchor="end" stroke="none" id="label49" font-size="9.936">D1/TX</text>
  <line  fill="none" stroke="#000000" stroke-linejoin="round" stroke-linecap="round" y1="341.358" stroke-width="2.4" x1="235.058" y2="341.358" x2="256.318"/>
  <rect  width="21.2599" x="236.258" y="340.158" fill="none" connectorname="D0/RX" height="2.4" id="connector50pin" stroke-width="0"/>
  <rect  width="2.4" x="255.118" y="340.158" fill="none" height="2.4" id="connector50terminal" stroke-width="0"/>
  <text  x="229.778" y="343.758" font-family="Droid Sans" fill="#000000" text-anchor="end" stroke="none" id="label50" font-size="9.936">D0/RX</text>
  <line  fill="none" stroke="#000000" stroke-linejoin="round" stroke-linecap="round" y1="383.877" stroke-width="2.4" x1="235.058" y2="383.877" x2="256.318"/>
  <rect  width="21.2599" x="236.258" y="382.677" fill="none" connectorname="MOSI" height="2.4" id="connector44pin" stroke-width="0"/>
  <rect  width="2.4" x="255.118" y="382.677" fill="none" height="2.4" id="connector44terminal" stroke-width="0"/>
  <text  x="229.778" y="386.277" font-family="Droid Sans" fill="#000000" text-anchor="end" stroke="none" id="label44" font-size="9.936">MOSI</text>
  <line  fill="none" stroke="#000000" stroke-linejoin="round" stroke-linecap="round" y1="405.137" stroke-width="2.4" x1="235.058" y2="405.137" x2="256.318"/>
  <rect  width="21.2599" x="236.258" y="403.937" fill="none" connectorname="MISO" height="2.4" id="connector41pin" stroke-width="0"/>
  <rect  width="2.4" x="255.118" y="403.937" fill="none" height="2.4" id="connector41terminal" stroke-width="0"/>
  <text  x="229.778" y="407.537" font-family="Droid Sans" fill="#000000" text-anchor="end" stroke="none" id="label41" font-size="9.936">MISO</text>
  <line  fill="none" stroke="#000000" stroke-linejoin="round" stroke-linecap="round" y1="426.397" stroke-width="2.4" x1="235.058" y2="426.397" x2="256.318"/>
  <rect  width="21.2599" x="236.258" y="425.197" fill="none" connectorname="SCK" height="2.4" id="connector43pin" stroke-width="0"/>
  <rect  width="2.4" x="255.118" y="425.197" fill="none" height="2.4" id="connector43terminal" stroke-width="0"/>
  <text  x="229.778" y="428.797" font-family="Droid Sans" fill="#000000" text-anchor="end" stroke="none" id="label43" font-size="9.936">SCK</text>
  <line  fill="none" stroke="#000000" stroke-linejoin="round" stroke-linecap="round" y1="447.656" stroke-width="2.4" x1="235.058" y2="447.656" x2="256.318"/>
  <rect  width="21.2599" x="236.258" y="446.457" fill="none" connectorname="RXLED/SS" height="2.4" id="connector48pin" stroke-width="0"/>
  <rect  width="2.4" x="255.118" y="446.457" fill="none" height="2.4" id="connector48terminal" stroke-width="0"/>
  <text  x="229.778" y="450.057" font-family="Droid Sans" fill="#000000" text-anchor="end" stroke="none" id="label48" font-size="9.936">RXLED/SS</text>
  <line  fill="none" stroke="#000000" stroke-linejoin="round" stroke-linecap="round" y1="1.2" stroke-width="2.4" x1="75.6094" y2="21.2599" x2="75.6094"/>
  <rect  width="2.4" x="74.4091" y="0" fill="none" connectorname="3V3" height="21.2599" id="connector79pin" stroke-width="0"/>
  <rect  width="2.4" x="74.4091" y="0" fill="none" height="0" id="connector79terminal" stroke-width="0"/>
  <text  x="75.6094" y="33.8599" font-family="Droid Sans" fill="#000000" text-anchor="middle" stroke="none" id="label79" font-size="9.936">3V3</text>
  <line  fill="none" stroke="#000000" stroke-linejoin="round" stroke-linecap="round" y1="1.2" stroke-width="2.4" x1="118.129" y2="21.2599" x2="118.129"/>
  <rect  width="2.4" x="116.929" y="0" fill="none" connectorname="5V" height="21.2599" id="connector42pin" stroke-width="0"/>
  <rect  width="2.4" x="116.929" y="0" fill="none" height="0" id="connector42terminal" stroke-width="0"/>
  <text  x="118.129" y="33.8599" font-family="Droid Sans" fill="#000000" text-anchor="middle" stroke="none" id="label42" font-size="9.936">5V</text>
  <line  fill="none" stroke="#000000" stroke-linejoin="round" stroke-linecap="round" y1="1.2" stroke-width="2.4" x1="160.649" y2="21.2599" x2="160.649"/>
  <rect  width="2.4" x="159.449" y="0" fill="none" connectorname="VIN" height="21.2599" id="connector66pin" stroke-width="0"/>
  <rect  width="2.4" x="159.449" y="0" fill="none" height="0" id="connector66terminal" stroke-width="0"/>
  <text  x="160.649" y="33.8599" font-family="Droid Sans" fill="#000000" text-anchor="middle" stroke="none" id="label66" font-size="9.936">VIN</text>
  <line  fill="none" stroke="#000000" stroke-linejoin="round" stroke-linecap="round" y1="491.376" stroke-width="2.4" x1="128.759" y2="511.436" x2="128.759"/>
  <rect  width="2.4" x="127.559" y="491.376" fill="none" connectorname="GND" height="21.2599" id="connector46pin" stroke-width="0"/>
  <rect  width="2.4" x="127.559" y="512.636" fill="none" height="0" id="connector46terminal" stroke-width="0"/>
  <text  x="128.759" y="485.616" font-family="Droid Sans" fill="#000000" text-anchor="middle" stroke="none" id="label46" font-size="9.936">GND</text>
  <rect  width="2.4" x="116.929" y="0" fill="none" connectorname="5V" height="21.2599" id="connector69pin" stroke-width="0"/>
  <rect  width="2.4" x="116.929" y="0" fill="none" height="0" id="connector69terminal" stroke-width="0"/>
  <rect  width="2.4" x="127.559" y="491.376" fill="none" connectorname="GND" height="21.2599" id="connector52pin" stroke-width="0"/>
  <rect  width="2.4" x="127.559" y="512.636" fill="none" height="0" id="connector52terminal" stroke-width="0"/>
  <rect  width="2.4" x="127.559" y="491.376" fill="none" connectorname="GND" height="21.2599" id="connector67pin" stroke-width="0"/>
  <rect  width="2.4" x="127.559" y="512.636" fill="none" height="0" id="connector67terminal" stroke-width="0"/>
  <rect  width="21.2599" x="0" y="63.7795" fill="none" height="2.4" id="connector68pin" stroke-width="0" connectorName="RESET"/>
  <rect  width="2.4" x="0" y="63.7795" fill="none" height="2.4" id="connector68terminal" stroke-width="0"/>
  <rect  width="21.2599" x="0" y="63.7795" fill="none" height="2.4" id="connector51pin" stroke-width="0" connectorName="RESET"/>
  <rect  width="2.4" x="0" y="63.7795" fill="none" height="2.4" id="connector51terminal" stroke-width="0"/>
  <rect  width="21.2599" x="236.258" y="382.677" fill="none" connectorname="MOSI" height="2.4" id="connector47pin" stroke-width="0"/>
  <rect  width="2.4" x="255.118" y="382.677" fill="none" height="2.4" id="connector47terminal" stroke-width="0"/>
  <rect  width="21.2599" x="236.258" y="403.937" fill="none" connectorname="MISO" height="2.4" id="connector65pin" stroke-width="0"/>
  <rect  width="2.4" x="255.118" y="403.937" fill="none" height="2.4" id="connector65terminal" stroke-width="0"/>
  <rect  width="21.2599" x="236.258" y="425.197" fill="none" connectorname="SCK" height="2.4" id="connector64pin" stroke-width="0"/>
  <rect  width="2.4" x="255.118" y="425.197" fill="none" height="2.4" id="connector64terminal" stroke-width="0"/>
 </g>
</svg>
