<?xml version='1.0' encoding='utf-8'?>
<!DOCTYPE svg>
<!-- Generator: Adobe Illustrator 15.0.0, SVG Export Plug-In . SVG Version: 6.00 Build 0)  -->
<svg xmlns="http://www.w3.org/2000/svg" width="0.593167in" x="0px" version="1.1" y="0px" gorn="0"  height="1.0611in" viewBox="0 0 42.708 76.399" xmlns:xml="http://www.w3.org/XML/1998/namespace" id="Layer_1" enable-background="new 0 0 42.708 76.399" xml:space="preserve">
    <desc >
        <referenceFile >rj-11 schematic.svg</referenceFile>
    </desc>
    <g >
        <rect width="41.688" x="0.521" y="7.644" fill="#FFFFFF"  height="68.255"/>
        <path  d="M42.708,76.399H0.021V7.144h42.688V76.399z M1.021,75.399h40.688V8.144H1.021V75.399z"/>
    </g>
    <g >
        <path  d="M27.44,11.393c-0.229,0.121-0.483,0.171-0.742,0.171c-0.557,0-0.959-0.363-0.959-0.933s0.402-0.933,0.959-0.933c0.28,0,0.526,0.063,0.706,0.229l-0.276,0.3c-0.105-0.11-0.232-0.167-0.43-0.167c-0.334,0-0.554,0.241-0.554,0.571c0,0.333,0.22,0.571,0.554,0.571c0.17,0,0.295-0.048,0.367-0.085v-0.291h-0.318v-0.36h0.693V11.393z"/>
        <path  d="M27.785,9.744h0.531l0.756,1.233h0.005V9.744h0.39v1.775h-0.51l-0.774-1.267h-0.008v1.267h-0.39V9.744z"/>
        <path  d="M29.828,9.744h0.587c0.574,0,1.05,0.241,1.05,0.894c0,0.572-0.467,0.882-0.999,0.882h-0.638V9.744z M30.218,11.156h0.204c0.362,0,0.637-0.139,0.637-0.542c0-0.347-0.279-0.511-0.609-0.511h-0.231V11.156z"/>
    </g>
    <g >
        <path  d="M11.405,9.738h0.447l0.438,1.164h0.004l0.447-1.164h0.42l-0.733,1.775h-0.313L11.405,9.738z"/>
        <path  d="M14.507,10.201c-0.079-0.095-0.192-0.147-0.337-0.147c-0.295,0-0.513,0.24-0.513,0.571c0,0.333,0.218,0.572,0.501,0.572c0.156,0,0.285-0.069,0.364-0.19l0.326,0.244c-0.146,0.21-0.397,0.309-0.639,0.309c-0.557,0-0.96-0.364-0.96-0.935c0-0.567,0.403-0.931,0.96-0.931c0.196,0,0.447,0.066,0.598,0.259L14.507,10.201z"/>
        <path  d="M16.225,10.201c-0.078-0.095-0.192-0.147-0.337-0.147c-0.296,0-0.514,0.24-0.514,0.571c0,0.333,0.218,0.572,0.501,0.572c0.157,0,0.286-0.069,0.365-0.19l0.325,0.244c-0.146,0.21-0.396,0.309-0.641,0.309c-0.553,0-0.958-0.364-0.958-0.935c0-0.567,0.405-0.931,0.958-0.931c0.198,0,0.451,0.066,0.602,0.259L16.225,10.201z"/>
    </g>
    <g >
        <path  d="M18.657,9.698h0.703c0.392,0,0.718,0.125,0.718,0.572c0,0.445-0.302,0.582-0.7,0.582h-0.305v0.736h-0.416V9.698z M19.073,10.499h0.278c0.147,0,0.294-0.051,0.294-0.229c0-0.193-0.198-0.221-0.357-0.221h-0.215V10.499z"/>
        <path  d="M20.338,9.698h0.732c0.387,0,0.713,0.133,0.713,0.572c0,0.266-0.142,0.473-0.409,0.52l0.48,0.799h-0.499l-0.395-0.756h-0.206v0.756h-0.417V9.698z M20.755,10.481H21c0.152,0,0.35-0.006,0.35-0.213c0-0.189-0.17-0.219-0.322-0.219h-0.272V10.481z"/>
        <path  d="M22.069,9.698h0.705c0.33,0,0.691,0.07,0.691,0.48c0,0.211-0.131,0.355-0.326,0.416v0.006c0.248,0.031,0.414,0.217,0.414,0.461c0,0.396-0.374,0.527-0.711,0.527h-0.773V9.698z M22.485,10.452h0.302c0.128,0,0.262-0.053,0.262-0.203c0-0.158-0.149-0.199-0.28-0.199h-0.283V10.452z M22.485,11.235h0.375c0.13,0,0.277-0.057,0.277-0.221c0-0.178-0.201-0.209-0.337-0.209h-0.315V11.235z"/>
    </g>
    <g >
        <path  d="M4.193,40.426H3.735l1.681-3.863h0.382l1.681,3.863H7.02l-0.426-1.015H4.619L4.193,40.426z M4.766,39.051h1.676l-0.835-2.03L4.766,39.051z"/>
        <path  d="M9.195,38.2H8.458v1.506c0,0.382,0.147,0.458,0.372,0.458c0.125,0,0.262-0.038,0.371-0.098l0.017,0.333c-0.131,0.06-0.306,0.093-0.486,0.093c-0.273,0-0.633-0.12-0.633-0.682V38.2H7.558v-0.327h0.541v-0.721h0.359v0.721h0.737V38.2z"/>
        <path  d="M10.13,40.426H9.77v-4.125h0.36V40.426z"/>
        <path  d="M12.636,38.86v-0.065c0-0.442-0.213-0.66-0.655-0.66c-0.3,0-0.562,0.104-0.78,0.3l-0.218-0.256c0.234-0.24,0.6-0.371,1.08-0.371c0.502,0,0.934,0.284,0.934,0.906v1.14c0,0.196,0.021,0.437,0.043,0.573H12.69c-0.022-0.125-0.033-0.278-0.033-0.415h-0.011c-0.208,0.338-0.491,0.48-0.9,0.48c-0.453,0-0.879-0.251-0.879-0.748c0-0.829,0.977-0.884,1.587-0.884H12.636z M12.45,39.155c-0.366,0-1.19,0.027-1.19,0.54c0,0.338,0.312,0.469,0.601,0.469c0.523,0,0.775-0.371,0.775-0.824v-0.185H12.45z"/>
        <path  d="M15.187,38.478c-0.109-0.208-0.29-0.344-0.551-0.344c-0.251,0-0.53,0.109-0.53,0.382c0,0.24,0.169,0.327,0.502,0.404l0.366,0.087c0.354,0.082,0.622,0.338,0.622,0.699c0,0.556-0.497,0.786-0.993,0.786c-0.388,0-0.742-0.137-0.982-0.497l0.311-0.213c0.147,0.229,0.372,0.382,0.671,0.382c0.295,0,0.601-0.131,0.601-0.425c0-0.257-0.218-0.344-0.486-0.41l-0.349-0.082c-0.174-0.043-0.655-0.185-0.655-0.671c0-0.529,0.464-0.77,0.944-0.77c0.355,0,0.688,0.126,0.852,0.458L15.187,38.478z"/>
        <path  d="M18.069,37.506c-0.136-0.174-0.409-0.256-0.617-0.256c-0.24,0-0.572,0.109-0.572,0.398c0,0.704,1.778,0.251,1.778,1.604c0,0.862-0.693,1.271-1.49,1.271c-0.497,0-0.933-0.147-1.299-0.486l0.606-0.666c0.174,0.229,0.458,0.366,0.742,0.366c0.278,0,0.589-0.131,0.589-0.404c0-0.709-1.812-0.328-1.812-1.615c0-0.824,0.714-1.255,1.473-1.255c0.437,0,0.857,0.115,1.185,0.404L18.069,37.506z"/>
        <path  d="M20.986,38.631c-0.082-0.115-0.234-0.202-0.404-0.202c-0.408,0-0.654,0.272-0.654,0.671s0.246,0.671,0.654,0.671c0.181,0,0.312-0.092,0.404-0.202l0.541,0.567c-0.258,0.262-0.634,0.355-0.945,0.355c-0.818,0-1.473-0.546-1.473-1.392s0.654-1.392,1.473-1.392c0.312,0,0.688,0.093,0.945,0.354L20.986,38.631z"/>
        <path  d="M22.244,36.464c0.262,0,0.475,0.213,0.475,0.475c0,0.262-0.213,0.475-0.475,0.475s-0.475-0.213-0.475-0.475C21.769,36.677,21.982,36.464,22.244,36.464z M21.833,37.774h0.819v2.652h-0.819V37.774z"/>
        <path  d="M25.753,39.968c-0.262,0.333-0.693,0.524-1.119,0.524c-0.818,0-1.473-0.546-1.473-1.392s0.654-1.392,1.473-1.392c0.765,0,1.245,0.546,1.245,1.392v0.256H23.98c0.065,0.311,0.3,0.513,0.617,0.513c0.267,0,0.446-0.136,0.583-0.322L25.753,39.968z M25.06,38.8c0.006-0.273-0.207-0.502-0.501-0.502c-0.361,0-0.558,0.246-0.579,0.502H25.06z"/>
        <path  d="M26.378,37.774h0.785v0.36h0.012c0.108-0.208,0.376-0.426,0.774-0.426c0.829,0,0.982,0.546,0.982,1.255v1.462h-0.819v-1.298c0-0.306-0.005-0.698-0.425-0.698c-0.426,0-0.492,0.333-0.492,0.676v1.32h-0.817V37.774z"/>
        <path  d="M31.319,38.429h-0.721v0.884c0,0.283,0.033,0.491,0.388,0.491c0.087,0,0.263-0.011,0.333-0.076v0.682c-0.18,0.065-0.381,0.082-0.573,0.082c-0.545,0-0.965-0.224-0.965-0.802v-1.26h-0.524v-0.655h0.524v-0.786h0.817v0.786h0.721V38.429z"/>
        <path  d="M32.156,36.464c0.263,0,0.475,0.213,0.475,0.475c0,0.262-0.212,0.475-0.475,0.475c-0.262,0-0.474-0.213-0.474-0.475C31.682,36.677,31.894,36.464,32.156,36.464z M31.747,37.774h0.819v2.652h-0.819V37.774z"/>
        <path  d="M33.44,38.429H32.9v-0.655h0.54v-0.469c0-0.578,0.147-1.069,1.037-1.069c0.163,0,0.327,0.011,0.479,0.049l-0.038,0.693c-0.093-0.032-0.169-0.054-0.268-0.054c-0.262,0-0.393,0.082-0.393,0.431v0.42h0.605v0.655h-0.605v1.997H33.44V38.429z"/>
        <path  d="M35.597,36.464c0.262,0,0.474,0.213,0.474,0.475c0,0.262-0.212,0.475-0.474,0.475s-0.475-0.213-0.475-0.475C35.123,36.677,35.335,36.464,35.597,36.464z M35.188,37.774h0.818v2.652h-0.818V37.774z"/>
        <path  d="M38.392,38.631c-0.083-0.115-0.235-0.202-0.403-0.202c-0.41,0-0.655,0.272-0.655,0.671s0.245,0.671,0.655,0.671c0.18,0,0.311-0.092,0.403-0.202l0.54,0.567c-0.257,0.262-0.633,0.355-0.943,0.355c-0.819,0-1.474-0.546-1.474-1.392s0.654-1.392,1.474-1.392c0.311,0,0.687,0.093,0.943,0.354L38.392,38.631z"/>
    </g>
    <g >
        <path  d="M5.417,42.23h0.611c0.462,0,0.953,0.067,0.953,0.658c0,0.348-0.226,0.574-0.598,0.632l0.679,1.101H6.715l-0.649-1.074H5.701v1.074H5.417V42.23z M5.701,43.283h0.253c0.314,0,0.723,0,0.723-0.395c0-0.345-0.301-0.395-0.578-0.395H5.701V43.283z"/>
        <path  d="M8.512,44.003c0,0.32-0.172,0.679-0.683,0.679c-0.338,0-0.578-0.173-0.639-0.513l0.284-0.059c0.037,0.19,0.159,0.308,0.358,0.308c0.324,0,0.395-0.253,0.395-0.514V42.23h0.284V44.003z"/>
        <path  d="M8.955,43.688h0.827v0.243H8.955V43.688z"/>
        <path  d="M11.145,44.621h-0.284v-2.027h-0.007l-0.429,0.361l-0.169-0.205l0.642-0.52h0.247V44.621z"/>
        <path  d="M13.02,44.621h-0.284v-2.027h-0.007L12.3,42.955l-0.169-0.205l0.642-0.52h0.247V44.621z"/>
        <path  d="M16.589,42.723c-0.142-0.192-0.368-0.291-0.598-0.291c-0.534,0-0.913,0.47-0.913,0.993c0,0.555,0.375,0.993,0.913,0.993c0.291,0,0.523-0.117,0.692-0.333l0.212,0.179c-0.212,0.286-0.523,0.418-0.905,0.418c-0.686,0-1.216-0.53-1.216-1.257c0-0.702,0.507-1.256,1.216-1.256c0.324,0,0.642,0.112,0.845,0.375L16.589,42.723z"/>
        <path  d="M17.993,42.999c0.487,0,0.844,0.338,0.844,0.832c0,0.492-0.357,0.831-0.844,0.831c-0.486,0-0.845-0.339-0.845-0.831C17.148,43.337,17.507,42.999,17.993,42.999z M17.993,44.418c0.341,0,0.561-0.257,0.561-0.587c0-0.332-0.219-0.588-0.561-0.588c-0.341,0-0.561,0.257-0.561,0.588C17.432,44.161,17.652,44.418,17.993,44.418z"/>
        <path  d="M19.244,43.415c0-0.145-0.014-0.27-0.014-0.375h0.25c0,0.084,0.007,0.172,0.007,0.26h0.006c0.071-0.155,0.267-0.301,0.527-0.301c0.416,0,0.601,0.265,0.601,0.646v0.977h-0.264v-0.949c0-0.263-0.115-0.429-0.361-0.429c-0.341,0-0.49,0.247-0.49,0.608v0.771h-0.263V43.415z"/>
        <path  d="M21.119,43.415c0-0.145-0.014-0.27-0.014-0.375h0.25c0,0.084,0.007,0.172,0.007,0.26h0.006c0.071-0.155,0.267-0.301,0.527-0.301c0.416,0,0.602,0.265,0.602,0.646v0.977h-0.264v-0.949c0-0.263-0.115-0.429-0.361-0.429c-0.341,0-0.49,0.247-0.49,0.608v0.771h-0.263V43.415z"/>
        <path  d="M24.405,44.334c-0.186,0.24-0.408,0.328-0.702,0.328c-0.496,0-0.8-0.372-0.8-0.831c0-0.491,0.344-0.832,0.81-0.832c0.446,0,0.751,0.305,0.751,0.829v0.084h-1.277c0.021,0.273,0.23,0.506,0.517,0.506c0.226,0,0.379-0.081,0.504-0.239L24.405,44.334z M24.179,43.688c-0.011-0.267-0.186-0.446-0.477-0.446s-0.483,0.179-0.517,0.446H24.179z"/>
        <path  d="M25.993,43.436c-0.111-0.136-0.24-0.193-0.398-0.193c-0.355,0-0.534,0.264-0.534,0.588c0,0.323,0.213,0.587,0.534,0.587c0.173,0,0.305-0.061,0.402-0.195l0.195,0.186c-0.152,0.176-0.368,0.254-0.598,0.254c-0.49,0-0.817-0.345-0.817-0.831c0-0.479,0.33-0.832,0.817-0.832c0.232,0,0.449,0.078,0.608,0.25L25.993,43.436z"/>
        <path  d="M27.358,43.264h-0.466v0.79c0,0.203,0.003,0.364,0.235,0.364c0.078,0,0.162-0.017,0.234-0.054l0.01,0.24c-0.092,0.041-0.21,0.058-0.308,0.058c-0.375,0-0.436-0.203-0.436-0.53v-0.868h-0.345V43.04h0.345v-0.449h0.264v0.449h0.466V43.264z"/>
        <path  d="M28.433,42.999c0.486,0,0.846,0.338,0.846,0.832c0,0.492-0.359,0.831-0.846,0.831c-0.485,0-0.844-0.339-0.844-0.831C27.589,43.337,27.948,42.999,28.433,42.999z M28.433,44.418c0.342,0,0.562-0.257,0.562-0.587c0-0.332-0.22-0.588-0.562-0.588c-0.341,0-0.561,0.257-0.561,0.588C27.873,44.161,28.092,44.418,28.433,44.418z"/>
        <path  d="M29.683,43.415c0-0.145-0.014-0.27-0.014-0.375h0.25c0,0.084,0.007,0.172,0.007,0.26h0.008c0.07-0.155,0.267-0.301,0.526-0.301c0.034,0,0.07,0.004,0.107,0.018l-0.017,0.267c-0.044-0.013-0.094-0.02-0.142-0.02c-0.321,0-0.463,0.226-0.463,0.587v0.771h-0.264V43.415z"/>
        <path  d="M33.503,44.621h-0.26l-0.449-1.216h-0.008l-0.397,1.216h-0.271l-0.514-1.582h0.291l0.361,1.217h0.006l0.41-1.217h0.276l0.416,1.217h0.006l0.358-1.217h0.284L33.503,44.621z"/>
        <path  d="M34.461,42.23c0.109,0,0.193,0.087,0.193,0.192c0,0.112-0.081,0.193-0.193,0.193c-0.11,0-0.191-0.082-0.191-0.193C34.27,42.317,34.354,42.23,34.461,42.23z M34.331,43.04h0.263v1.582h-0.263V43.04z"/>
        <path  d="M35.981,43.264h-0.467v0.79c0,0.203,0.003,0.364,0.236,0.364c0.077,0,0.162-0.017,0.233-0.054l0.01,0.24c-0.091,0.041-0.209,0.058-0.307,0.058c-0.376,0-0.437-0.203-0.437-0.53v-0.868h-0.344V43.04h0.344v-0.449h0.264v0.449h0.467V43.264z"/>
        <path  d="M36.303,42.067h0.264v1.193h0.007c0.071-0.125,0.26-0.261,0.507-0.261c0.415,0,0.602,0.265,0.602,0.646v0.977h-0.264v-0.949c0-0.263-0.115-0.429-0.362-0.429c-0.342,0-0.489,0.247-0.489,0.608v0.771h-0.264V42.067z"/>
        <path  d="M10.007,46.276h0.729c0.396,0,0.794,0.147,0.794,0.587c0,0.277-0.162,0.463-0.419,0.541v0.007c0.308,0.027,0.541,0.273,0.541,0.588c0,0.526-0.49,0.668-0.932,0.668h-0.713V46.276z M10.291,47.289h0.392c0.267,0,0.543-0.057,0.543-0.389c0-0.294-0.257-0.361-0.514-0.361h-0.422V47.289z M10.291,48.404h0.479c0.277,0,0.578-0.112,0.578-0.416c0-0.334-0.284-0.436-0.571-0.436h-0.486V48.404z"/>
        <path  d="M12.084,47.461c0-0.145-0.014-0.27-0.014-0.375h0.25c0,0.085,0.007,0.172,0.007,0.26h0.006c0.071-0.154,0.267-0.299,0.527-0.299c0.034,0,0.071,0.003,0.108,0.016l-0.017,0.268c-0.044-0.014-0.095-0.021-0.142-0.021c-0.321,0-0.463,0.227-0.463,0.588v0.77h-0.263V47.461z"/>
        <path  d="M14.622,48.38c-0.186,0.24-0.409,0.328-0.703,0.328c-0.497,0-0.801-0.372-0.801-0.831c0-0.49,0.345-0.83,0.811-0.83c0.446,0,0.75,0.304,0.75,0.827v0.084h-1.277c0.021,0.273,0.23,0.507,0.517,0.507c0.227,0,0.378-0.082,0.503-0.239L14.622,48.38z M14.396,47.734c-0.01-0.267-0.186-0.445-0.476-0.445s-0.483,0.179-0.517,0.445H14.396z"/>
        <path  d="M15.065,47.289c0.162-0.166,0.398-0.242,0.628-0.242c0.466,0,0.662,0.223,0.662,0.668v0.68c0,0.091,0.011,0.191,0.024,0.272h-0.253c-0.017-0.071-0.017-0.169-0.017-0.235h-0.007c-0.104,0.161-0.28,0.276-0.52,0.276c-0.321,0-0.588-0.162-0.588-0.47c0-0.523,0.608-0.554,0.997-0.554h0.102v-0.048c0-0.229-0.146-0.348-0.392-0.348c-0.169,0-0.344,0.057-0.47,0.172L15.065,47.289z M15.828,47.907c-0.334,0-0.551,0.092-0.551,0.304c0,0.199,0.149,0.274,0.349,0.274c0.304,0,0.459-0.22,0.466-0.477v-0.102H15.828z"/>
        <path  d="M16.836,46.113h0.263v1.67l0.719-0.697h0.375l-0.763,0.72l0.841,0.861h-0.388l-0.784-0.83v0.83h-0.263V46.113z"/>
        <path  d="M19.275,47.047c0.487,0,0.844,0.337,0.844,0.83s-0.357,0.831-0.844,0.831c-0.486,0-0.845-0.338-0.845-0.831S18.789,47.047,19.275,47.047z M19.275,48.465c0.341,0,0.561-0.257,0.561-0.588s-0.219-0.588-0.561-0.588c-0.341,0-0.561,0.257-0.561,0.588S18.934,48.465,19.275,48.465z"/>
        <path  d="M21.903,48.292c0,0.146,0.014,0.271,0.014,0.375h-0.25c0-0.084-0.006-0.172-0.006-0.26h-0.007c-0.071,0.156-0.267,0.301-0.527,0.301c-0.415,0-0.601-0.264-0.601-0.646v-0.977h0.263v0.949c0,0.264,0.115,0.43,0.361,0.43c0.341,0,0.49-0.246,0.49-0.608v-0.771h0.264V48.292z"/>
        <path  d="M23.264,47.31h-0.466v0.79c0,0.203,0.003,0.365,0.235,0.365c0.078,0,0.163-0.017,0.234-0.055l0.01,0.241c-0.091,0.04-0.21,0.057-0.308,0.057c-0.375,0-0.436-0.203-0.436-0.53V47.31H22.19v-0.224h0.344v-0.449h0.264v0.449h0.466V47.31z"/>
        <path  d="M24.572,46.276h0.729c0.396,0,0.794,0.147,0.794,0.587c0,0.277-0.163,0.463-0.42,0.541v0.007c0.309,0.027,0.541,0.273,0.541,0.588c0,0.526-0.489,0.668-0.933,0.668h-0.712V46.276z M24.855,47.289h0.392c0.268,0,0.544-0.057,0.544-0.389c0-0.294-0.257-0.361-0.514-0.361h-0.422V47.289z M24.855,48.404h0.48c0.276,0,0.577-0.112,0.577-0.416c0-0.334-0.284-0.436-0.57-0.436h-0.487V48.404z"/>
        <path  d="M27.402,47.047c0.486,0,0.845,0.337,0.845,0.83s-0.358,0.831-0.845,0.831s-0.844-0.338-0.844-0.831S26.916,47.047,27.402,47.047z M27.402,48.465c0.342,0,0.561-0.257,0.561-0.588s-0.219-0.588-0.561-0.588c-0.341,0-0.561,0.257-0.561,0.588S27.061,48.465,27.402,48.465z"/>
        <path  d="M28.631,47.289c0.162-0.166,0.399-0.242,0.629-0.242c0.466,0,0.661,0.223,0.661,0.668v0.68c0,0.091,0.01,0.191,0.024,0.272h-0.254c-0.018-0.071-0.018-0.169-0.018-0.235h-0.006c-0.104,0.161-0.28,0.276-0.521,0.276c-0.32,0-0.587-0.162-0.587-0.47c0-0.523,0.607-0.554,0.996-0.554h0.102v-0.048c0-0.229-0.146-0.348-0.393-0.348c-0.169,0-0.344,0.057-0.47,0.172L28.631,47.289z M29.395,47.907c-0.335,0-0.551,0.092-0.551,0.304c0,0.199,0.149,0.274,0.348,0.274c0.304,0,0.46-0.22,0.467-0.477v-0.102H29.395z"/>
        <path  d="M30.403,47.461c0-0.145-0.015-0.27-0.015-0.375h0.25c0,0.085,0.007,0.172,0.007,0.26h0.008c0.07-0.154,0.267-0.299,0.526-0.299c0.034,0,0.07,0.003,0.107,0.016L31.27,47.33c-0.044-0.014-0.094-0.021-0.142-0.021c-0.321,0-0.463,0.227-0.463,0.588v0.77h-0.263V47.461z"/>
        <path  d="M32.842,48.388h-0.007c-0.098,0.179-0.324,0.32-0.608,0.32c-0.442,0-0.79-0.357-0.79-0.831c0-0.479,0.334-0.83,0.831-0.83c0.229,0,0.423,0.101,0.567,0.27h0.007v-1.203h0.263v2.554h-0.263V48.388z M32.281,47.289c-0.341,0-0.561,0.257-0.561,0.588s0.22,0.588,0.561,0.588c0.342,0,0.562-0.257,0.562-0.588S32.623,47.289,32.281,47.289z"/>
    </g>
    <g gorn="0.7"  id="GND">
        <path  d="M13.75,8.145c-0.276,0-0.5-0.224-0.5-0.5v-7.12c0-0.276,0.224-0.5,0.5-0.5s0.5,0.224,0.5,0.5v7.12C14.25,7.921,14.026,8.145,13.75,8.145z"/>
    </g>
    <g gorn="0.8"  id="PRB">
        <path  d="M20.979,8.145c-0.276,0-0.5-0.224-0.5-0.5v-7.12c0-0.276,0.224-0.5,0.5-0.5s0.5,0.224,0.5,0.5v7.12C21.479,7.921,21.255,8.145,20.979,8.145z"/>
    </g>
    <g gorn="0.9"  id="VCC">
        <path  d="M28.228,8.145c-0.275,0-0.5-0.224-0.5-0.5v-7.12c0-0.276,0.225-0.5,0.5-0.5c0.277,0,0.5,0.224,0.5,0.5v7.12C28.728,7.921,28.505,8.145,28.228,8.145z"/>
    </g>
    <rect width="0.977" x="27.728" y="0.025" fill="none" gorn="0.10"  height="0.977" id="connector2pin"/>
    <rect width="0.977" x="20.502" y="0.025" fill="none" gorn="0.11"  height="0.977" id="connector1pin"/>
    <rect width="0.977" x="13.262" y="0.025" fill="none" gorn="0.12"  height="0.977" id="connector0pin"/>
</svg>
