<?xml version='1.0' encoding='UTF-8' standalone='no'?>
<!-- Created with Fritzing (http://www.fritzing.org/) -->
<svg xmlns="http://www.w3.org/2000/svg" width="3.28136in" x="0in" version="1.2" y="0in" height="8.8916in" viewBox="0 0 236.258 640.195" baseProfile="tiny">
 <desc >Fritzing schematic generated by brd2svg</desc>
 <g  id="schematic" stroke-width="0">
  <rect  width="191.339" x="22.4598" y="22.4598" fill="none" height="595.276" stroke="#000000" stroke-linejoin="round" stroke-linecap="round" stroke-width="2.4"/>
  <text  x="118.129" y="64.9795" font-family="Droid Sans" fill="#000000" text-anchor="middle" stroke="none" id="label" stroke-width="0" font-size="18">PWM</text>
  <text  x="118.129" y="86.2394" font-family="Droid Sans" fill="#000000" text-anchor="middle" stroke="none" id="label" stroke-width="0" font-size="18">Shield</text>
  <line  fill="none" stroke="#000000" stroke-linejoin="round" stroke-linecap="round" y1="64.9795" stroke-width="2.4" x1="1.2" y2="64.9795" x2="21.2599"/>
  <rect  width="21.2599" x="0" y="63.7795" fill="none" height="2.4" id="connector146pin" stroke-width="0" connectorName="RES"/>
  <rect  width="2.4" x="0" y="63.7795" fill="none" height="2.4" id="connector146terminal" stroke-width="0"/>
  <text  x="27.7399" y="67.3795" font-family="Droid Sans" fill="#000000" text-anchor="start" stroke="none" id="label146" stroke-width="0" font-size="9.936">RES</text>
  <line  fill="none" stroke="#000000" stroke-linejoin="round" stroke-linecap="round" y1="86.2394" stroke-width="2.4" x1="1.2" y2="86.2394" x2="21.2599"/>
  <rect  width="21.2599" x="0" y="85.0392" fill="none" height="2.4" id="connector130pin" stroke-width="0" connectorName="AREF"/>
  <rect  width="2.4" x="0" y="85.0392" fill="none" height="2.4" id="connector130terminal" stroke-width="0"/>
  <text  x="27.7399" y="88.6392" font-family="Droid Sans" fill="#000000" text-anchor="start" stroke="none" id="label130" stroke-width="0" font-size="9.936">AREF</text>
  <line  fill="none" stroke="#000000" stroke-linejoin="round" stroke-linecap="round" y1="128.759" stroke-width="2.4" x1="1.2" y2="128.759" x2="21.2599"/>
  <rect  width="21.2599" x="0" y="127.559" fill="none" height="2.4" id="connector124pin" stroke-width="0" connectorName="A0"/>
  <rect  width="2.4" x="0" y="127.559" fill="none" height="2.4" id="connector124terminal" stroke-width="0"/>
  <text  x="27.7399" y="131.159" font-family="Droid Sans" fill="#000000" text-anchor="start" stroke="none" id="label124" stroke-width="0" font-size="9.936">A0</text>
  <line  fill="none" stroke="#000000" stroke-linejoin="round" stroke-linecap="round" y1="150.019" stroke-width="2.4" x1="1.2" y2="150.019" x2="21.2599"/>
  <rect  width="21.2599" x="0" y="148.819" fill="none" height="2.4" id="connector125pin" stroke-width="0" connectorName="A1"/>
  <rect  width="2.4" x="0" y="148.819" fill="none" height="2.4" id="connector125terminal" stroke-width="0"/>
  <text  x="27.7399" y="152.419" font-family="Droid Sans" fill="#000000" text-anchor="start" stroke="none" id="label125" stroke-width="0" font-size="9.936">A1</text>
  <line  fill="none" stroke="#000000" stroke-linejoin="round" stroke-linecap="round" y1="171.279" stroke-width="2.4" x1="1.2" y2="171.279" x2="21.2599"/>
  <rect  width="21.2599" x="0" y="170.078" fill="none" height="2.4" id="connector126pin" stroke-width="0" connectorName="A2"/>
  <rect  width="2.4" x="0" y="170.078" fill="none" height="2.4" id="connector126terminal" stroke-width="0"/>
  <text  x="27.7399" y="173.678" font-family="Droid Sans" fill="#000000" text-anchor="start" stroke="none" id="label126" stroke-width="0" font-size="9.936">A2</text>
  <line  fill="none" stroke="#000000" stroke-linejoin="round" stroke-linecap="round" y1="192.539" stroke-width="2.4" x1="1.2" y2="192.539" x2="21.2599"/>
  <rect  width="21.2599" x="0" y="191.339" fill="none" height="2.4" id="connector127pin" stroke-width="0" connectorName="A3"/>
  <rect  width="2.4" x="0" y="191.339" fill="none" height="2.4" id="connector127terminal" stroke-width="0"/>
  <text  x="27.7399" y="194.939" font-family="Droid Sans" fill="#000000" text-anchor="start" stroke="none" id="label127" stroke-width="0" font-size="9.936">A3</text>
  <line  fill="none" stroke="#000000" stroke-linejoin="round" stroke-linecap="round" y1="213.798" stroke-width="2.4" x1="1.2" y2="213.798" x2="21.2599"/>
  <rect  width="21.2599" x="0" y="212.599" fill="none" height="2.4" id="connector128pin" stroke-width="0" connectorName="A4"/>
  <rect  width="2.4" x="0" y="212.599" fill="none" height="2.4" id="connector128terminal" stroke-width="0"/>
  <text  x="27.7399" y="216.199" font-family="Droid Sans" fill="#000000" text-anchor="start" stroke="none" id="label128" stroke-width="0" font-size="9.936">A4</text>
  <line  fill="none" stroke="#000000" stroke-linejoin="round" stroke-linecap="round" y1="235.058" stroke-width="2.4" x1="1.2" y2="235.058" x2="21.2599"/>
  <rect  width="21.2599" x="0" y="233.858" fill="none" height="2.4" id="connector129pin" stroke-width="0" connectorName="A5"/>
  <rect  width="2.4" x="0" y="233.858" fill="none" height="2.4" id="connector129terminal" stroke-width="0"/>
  <text  x="27.7399" y="237.458" font-family="Droid Sans" fill="#000000" text-anchor="start" stroke="none" id="label129" stroke-width="0" font-size="9.936">A5</text>
  <line  fill="none" stroke="#000000" stroke-linejoin="round" stroke-linecap="round" y1="426.397" stroke-width="2.4" x1="1.2" y2="426.397" x2="21.2599"/>
  <rect  width="21.2599" x="0" y="425.197" fill="none" height="2.4" id="connector11pin" stroke-width="0" connectorName="OUT0"/>
  <rect  width="2.4" x="0" y="425.197" fill="none" height="2.4" id="connector11terminal" stroke-width="0"/>
  <text  x="27.7399" y="428.797" font-family="Droid Sans" fill="#000000" text-anchor="start" stroke="none" id="label11" stroke-width="0" font-size="9.936">OUT0</text>
  <line  fill="none" stroke="#000000" stroke-linejoin="round" stroke-linecap="round" y1="447.656" stroke-width="2.4" x1="1.2" y2="447.656" x2="21.2599"/>
  <rect  width="21.2599" x="0" y="446.457" fill="none" height="2.4" id="connector14pin" stroke-width="0" connectorName="OUT1"/>
  <rect  width="2.4" x="0" y="446.457" fill="none" height="2.4" id="connector14terminal" stroke-width="0"/>
  <text  x="27.7399" y="450.057" font-family="Droid Sans" fill="#000000" text-anchor="start" stroke="none" id="label14" stroke-width="0" font-size="9.936">OUT1</text>
  <line  fill="none" stroke="#000000" stroke-linejoin="round" stroke-linecap="round" y1="468.917" stroke-width="2.4" x1="1.2" y2="468.917" x2="21.2599"/>
  <rect  width="21.2599" x="0" y="467.716" fill="none" height="2.4" id="connector17pin" stroke-width="0" connectorName="OUT2"/>
  <rect  width="2.4" x="0" y="467.716" fill="none" height="2.4" id="connector17terminal" stroke-width="0"/>
  <text  x="27.7399" y="471.316" font-family="Droid Sans" fill="#000000" text-anchor="start" stroke="none" id="label17" stroke-width="0" font-size="9.936">OUT2</text>
  <line  fill="none" stroke="#000000" stroke-linejoin="round" stroke-linecap="round" y1="490.177" stroke-width="2.4" x1="1.2" y2="490.177" x2="21.2599"/>
  <rect  width="21.2599" x="0" y="488.976" fill="none" height="2.4" id="connector20pin" stroke-width="0" connectorName="OUT3"/>
  <rect  width="2.4" x="0" y="488.976" fill="none" height="2.4" id="connector20terminal" stroke-width="0"/>
  <text  x="27.7399" y="492.576" font-family="Droid Sans" fill="#000000" text-anchor="start" stroke="none" id="label20" stroke-width="0" font-size="9.936">OUT3</text>
  <line  fill="none" stroke="#000000" stroke-linejoin="round" stroke-linecap="round" y1="511.436" stroke-width="2.4" x1="1.2" y2="511.436" x2="21.2599"/>
  <rect  width="21.2599" x="0" y="510.236" fill="none" height="2.4" id="connector23pin" stroke-width="0" connectorName="OUT4"/>
  <rect  width="2.4" x="0" y="510.236" fill="none" height="2.4" id="connector23terminal" stroke-width="0"/>
  <text  x="27.7399" y="513.836" font-family="Droid Sans" fill="#000000" text-anchor="start" stroke="none" id="label23" stroke-width="0" font-size="9.936">OUT4</text>
  <line  fill="none" stroke="#000000" stroke-linejoin="round" stroke-linecap="round" y1="532.696" stroke-width="2.4" x1="1.2" y2="532.696" x2="21.2599"/>
  <rect  width="21.2599" x="0" y="531.496" fill="none" height="2.4" id="connector26pin" stroke-width="0" connectorName="OUT5"/>
  <rect  width="2.4" x="0" y="531.496" fill="none" height="2.4" id="connector26terminal" stroke-width="0"/>
  <text  x="27.7399" y="535.096" font-family="Droid Sans" fill="#000000" text-anchor="start" stroke="none" id="label26" stroke-width="0" font-size="9.936">OUT5</text>
  <line  fill="none" stroke="#000000" stroke-linejoin="round" stroke-linecap="round" y1="553.956" stroke-width="2.4" x1="1.2" y2="553.956" x2="21.2599"/>
  <rect  width="21.2599" x="0" y="552.756" fill="none" height="2.4" id="connector29pin" stroke-width="0" connectorName="OUT6"/>
  <rect  width="2.4" x="0" y="552.756" fill="none" height="2.4" id="connector29terminal" stroke-width="0"/>
  <text  x="27.7399" y="556.356" font-family="Droid Sans" fill="#000000" text-anchor="start" stroke="none" id="label29" stroke-width="0" font-size="9.936">OUT6</text>
  <line  fill="none" stroke="#000000" stroke-linejoin="round" stroke-linecap="round" y1="575.216" stroke-width="2.4" x1="1.2" y2="575.216" x2="21.2599"/>
  <rect  width="21.2599" x="0" y="574.016" fill="none" height="2.4" id="connector32pin" stroke-width="0" connectorName="OUT7"/>
  <rect  width="2.4" x="0" y="574.016" fill="none" height="2.4" id="connector32terminal" stroke-width="0"/>
  <text  x="27.7399" y="577.616" font-family="Droid Sans" fill="#000000" text-anchor="start" stroke="none" id="label32" stroke-width="0" font-size="9.936">OUT7</text>
  <line  fill="none" stroke="#000000" stroke-linejoin="round" stroke-linecap="round" y1="64.9795" stroke-width="2.4" x1="213.798" y2="64.9795" x2="235.058"/>
  <rect  width="21.2599" x="214.998" y="63.7795" fill="none" connectorname="SCLK" height="2.4" id="connector40pin" stroke-width="0"/>
  <rect  width="2.4" x="233.858" y="63.7795" fill="none" height="2.4" id="connector40terminal" stroke-width="0"/>
  <text  x="208.518" y="67.3795" font-family="Droid Sans" fill="#000000" text-anchor="end" stroke="none" id="label40" stroke-width="0" font-size="9.936">SCLK</text>
  <line  fill="none" stroke="#000000" stroke-linejoin="round" stroke-linecap="round" y1="86.2394" stroke-width="2.4" x1="213.798" y2="86.2394" x2="235.058"/>
  <rect  width="21.2599" x="214.998" y="85.0392" fill="none" connectorname="D12" height="2.4" id="connector141pin" stroke-width="0"/>
  <rect  width="2.4" x="233.858" y="85.0392" fill="none" height="2.4" id="connector141terminal" stroke-width="0"/>
  <text  x="208.518" y="88.6392" font-family="Droid Sans" fill="#000000" text-anchor="end" stroke="none" id="label141" stroke-width="0" font-size="9.936">D12</text>
  <line  fill="none" stroke="#000000" stroke-linejoin="round" stroke-linecap="round" y1="107.499" stroke-width="2.4" x1="213.798" y2="107.499" x2="235.058"/>
  <rect  width="21.2599" x="214.998" y="106.299" fill="none" connectorname="SIN - D11" height="2.4" id="connector140pin" stroke-width="0"/>
  <rect  width="2.4" x="233.858" y="106.299" fill="none" height="2.4" id="connector140terminal" stroke-width="0"/>
  <text  x="208.518" y="109.899" font-family="Droid Sans" fill="#000000" text-anchor="end" stroke="none" id="label140" stroke-width="0" font-size="9.936">SIN - D11</text>
  <line  fill="none" stroke="#000000" stroke-linejoin="round" stroke-linecap="round" y1="128.759" stroke-width="2.4" x1="213.798" y2="128.759" x2="235.058"/>
  <rect  width="21.2599" x="214.998" y="127.559" fill="none" connectorname="BLANK" height="2.4" id="connector38pin" stroke-width="0"/>
  <rect  width="2.4" x="233.858" y="127.559" fill="none" height="2.4" id="connector38terminal" stroke-width="0"/>
  <text  x="208.518" y="131.159" font-family="Droid Sans" fill="#000000" text-anchor="end" stroke="none" id="label38" stroke-width="0" font-size="9.936">BLANK</text>
  <line  fill="none" stroke="#000000" stroke-linejoin="round" stroke-linecap="round" y1="150.019" stroke-width="2.4" x1="213.798" y2="150.019" x2="235.058"/>
  <rect  width="21.2599" x="214.998" y="148.819" fill="none" connectorname="XLAT" height="2.4" id="connector37pin" stroke-width="0"/>
  <rect  width="2.4" x="233.858" y="148.819" fill="none" height="2.4" id="connector37terminal" stroke-width="0"/>
  <text  x="208.518" y="152.419" font-family="Droid Sans" fill="#000000" text-anchor="end" stroke="none" id="label37" stroke-width="0" font-size="9.936">XLAT</text>
  <line  fill="none" stroke="#000000" stroke-linejoin="round" stroke-linecap="round" y1="171.279" stroke-width="2.4" x1="213.798" y2="171.279" x2="235.058"/>
  <rect  width="21.2599" x="214.998" y="170.078" fill="none" connectorname="D8" height="2.4" id="connector137pin" stroke-width="0"/>
  <rect  width="2.4" x="233.858" y="170.078" fill="none" height="2.4" id="connector137terminal" stroke-width="0"/>
  <text  x="208.518" y="173.678" font-family="Droid Sans" fill="#000000" text-anchor="end" stroke="none" id="label137" stroke-width="0" font-size="9.936">D8</text>
  <line  fill="none" stroke="#000000" stroke-linejoin="round" stroke-linecap="round" y1="192.539" stroke-width="2.4" x1="213.798" y2="192.539" x2="235.058"/>
  <rect  width="21.2599" x="214.998" y="191.339" fill="none" connectorname="D7" height="2.4" id="connector136pin" stroke-width="0"/>
  <rect  width="2.4" x="233.858" y="191.339" fill="none" height="2.4" id="connector136terminal" stroke-width="0"/>
  <text  x="208.518" y="194.939" font-family="Droid Sans" fill="#000000" text-anchor="end" stroke="none" id="label136" stroke-width="0" font-size="9.936">D7</text>
  <line  fill="none" stroke="#000000" stroke-linejoin="round" stroke-linecap="round" y1="213.798" stroke-width="2.4" x1="213.798" y2="213.798" x2="235.058"/>
  <rect  width="21.2599" x="214.998" y="212.599" fill="none" connectorname="D6" height="2.4" id="connector135pin" stroke-width="0"/>
  <rect  width="2.4" x="233.858" y="212.599" fill="none" height="2.4" id="connector135terminal" stroke-width="0"/>
  <text  x="208.518" y="216.199" font-family="Droid Sans" fill="#000000" text-anchor="end" stroke="none" id="label135" stroke-width="0" font-size="9.936">D6</text>
  <line  fill="none" stroke="#000000" stroke-linejoin="round" stroke-linecap="round" y1="235.058" stroke-width="2.4" x1="213.798" y2="235.058" x2="235.058"/>
  <rect  width="21.2599" x="214.998" y="233.858" fill="none" connectorname="D5" height="2.4" id="connector134pin" stroke-width="0"/>
  <rect  width="2.4" x="233.858" y="233.858" fill="none" height="2.4" id="connector134terminal" stroke-width="0"/>
  <text  x="208.518" y="237.458" font-family="Droid Sans" fill="#000000" text-anchor="end" stroke="none" id="label134" stroke-width="0" font-size="9.936">D5</text>
  <line  fill="none" stroke="#000000" stroke-linejoin="round" stroke-linecap="round" y1="256.318" stroke-width="2.4" x1="213.798" y2="256.318" x2="235.058"/>
  <rect  width="21.2599" x="214.998" y="255.118" fill="none" connectorname="D4" height="2.4" id="connector133pin" stroke-width="0"/>
  <rect  width="2.4" x="233.858" y="255.118" fill="none" height="2.4" id="connector133terminal" stroke-width="0"/>
  <text  x="208.518" y="258.718" font-family="Droid Sans" fill="#000000" text-anchor="end" stroke="none" id="label133" stroke-width="0" font-size="9.936">D4</text>
  <line  fill="none" stroke="#000000" stroke-linejoin="round" stroke-linecap="round" y1="277.578" stroke-width="2.4" x1="213.798" y2="277.578" x2="235.058"/>
  <rect  width="21.2599" x="214.998" y="276.378" fill="none" connectorname="GSCLK" height="2.4" id="connector36pin" stroke-width="0"/>
  <rect  width="2.4" x="233.858" y="276.378" fill="none" height="2.4" id="connector36terminal" stroke-width="0"/>
  <text  x="208.518" y="279.978" font-family="Droid Sans" fill="#000000" text-anchor="end" stroke="none" id="label36" stroke-width="0" font-size="9.936">GSCLK</text>
  <line  fill="none" stroke="#000000" stroke-linejoin="round" stroke-linecap="round" y1="298.837" stroke-width="2.4" x1="213.798" y2="298.837" x2="235.058"/>
  <rect  width="21.2599" x="214.998" y="297.638" fill="none" connectorname="D2" height="2.4" id="connector131pin" stroke-width="0"/>
  <rect  width="2.4" x="233.858" y="297.638" fill="none" height="2.4" id="connector131terminal" stroke-width="0"/>
  <text  x="208.518" y="301.238" font-family="Droid Sans" fill="#000000" text-anchor="end" stroke="none" id="label131" stroke-width="0" font-size="9.936">D2</text>
  <line  fill="none" stroke="#000000" stroke-linejoin="round" stroke-linecap="round" y1="320.098" stroke-width="2.4" x1="213.798" y2="320.098" x2="235.058"/>
  <rect  width="21.2599" x="214.998" y="318.897" fill="none" connectorname="TX" height="2.4" id="connector148pin" stroke-width="0"/>
  <rect  width="2.4" x="233.858" y="318.897" fill="none" height="2.4" id="connector148terminal" stroke-width="0"/>
  <text  x="208.518" y="322.497" font-family="Droid Sans" fill="#000000" text-anchor="end" stroke="none" id="label148" stroke-width="0" font-size="9.936">TX</text>
  <line  fill="none" stroke="#000000" stroke-linejoin="round" stroke-linecap="round" y1="341.358" stroke-width="2.4" x1="213.798" y2="341.358" x2="235.058"/>
  <rect  width="21.2599" x="214.998" y="340.158" fill="none" connectorname="RX" height="2.4" id="connector147pin" stroke-width="0"/>
  <rect  width="2.4" x="233.858" y="340.158" fill="none" height="2.4" id="connector147terminal" stroke-width="0"/>
  <text  x="208.518" y="343.758" font-family="Droid Sans" fill="#000000" text-anchor="end" stroke="none" id="label147" stroke-width="0" font-size="9.936">RX</text>
  <line  fill="none" stroke="#000000" stroke-linejoin="round" stroke-linecap="round" y1="383.877" stroke-width="2.4" x1="213.798" y2="383.877" x2="235.058"/>
  <rect  width="21.2599" x="214.998" y="382.677" fill="none" connectorname="SOUT" height="2.4" id="connector39pin" stroke-width="0"/>
  <rect  width="2.4" x="233.858" y="382.677" fill="none" height="2.4" id="connector39terminal" stroke-width="0"/>
  <text  x="208.518" y="386.277" font-family="Droid Sans" fill="#000000" text-anchor="end" stroke="none" id="label39" stroke-width="0" font-size="9.936">SOUT</text>
  <line  fill="none" stroke="#000000" stroke-linejoin="round" stroke-linecap="round" y1="426.397" stroke-width="2.4" x1="213.798" y2="426.397" x2="235.058"/>
  <rect  width="21.2599" x="214.998" y="425.197" fill="none" connectorname="OUT15" height="2.4" id="connector60pin" stroke-width="0"/>
  <rect  width="2.4" x="233.858" y="425.197" fill="none" height="2.4" id="connector60terminal" stroke-width="0"/>
  <text  x="208.518" y="428.797" font-family="Droid Sans" fill="#000000" text-anchor="end" stroke="none" id="label60" stroke-width="0" font-size="9.936">OUT15</text>
  <line  fill="none" stroke="#000000" stroke-linejoin="round" stroke-linecap="round" y1="447.656" stroke-width="2.4" x1="213.798" y2="447.656" x2="235.058"/>
  <rect  width="21.2599" x="214.998" y="446.457" fill="none" connectorname="OUT14" height="2.4" id="connector57pin" stroke-width="0"/>
  <rect  width="2.4" x="233.858" y="446.457" fill="none" height="2.4" id="connector57terminal" stroke-width="0"/>
  <text  x="208.518" y="450.057" font-family="Droid Sans" fill="#000000" text-anchor="end" stroke="none" id="label57" stroke-width="0" font-size="9.936">OUT14</text>
  <line  fill="none" stroke="#000000" stroke-linejoin="round" stroke-linecap="round" y1="468.917" stroke-width="2.4" x1="213.798" y2="468.917" x2="235.058"/>
  <rect  width="21.2599" x="214.998" y="467.716" fill="none" connectorname="OUT13" height="2.4" id="connector54pin" stroke-width="0"/>
  <rect  width="2.4" x="233.858" y="467.716" fill="none" height="2.4" id="connector54terminal" stroke-width="0"/>
  <text  x="208.518" y="471.316" font-family="Droid Sans" fill="#000000" text-anchor="end" stroke="none" id="label54" stroke-width="0" font-size="9.936">OUT13</text>
  <line  fill="none" stroke="#000000" stroke-linejoin="round" stroke-linecap="round" y1="490.177" stroke-width="2.4" x1="213.798" y2="490.177" x2="235.058"/>
  <rect  width="21.2599" x="214.998" y="488.976" fill="none" connectorname="OUT12" height="2.4" id="connector51pin" stroke-width="0"/>
  <rect  width="2.4" x="233.858" y="488.976" fill="none" height="2.4" id="connector51terminal" stroke-width="0"/>
  <text  x="208.518" y="492.576" font-family="Droid Sans" fill="#000000" text-anchor="end" stroke="none" id="label51" stroke-width="0" font-size="9.936">OUT12</text>
  <line  fill="none" stroke="#000000" stroke-linejoin="round" stroke-linecap="round" y1="511.436" stroke-width="2.4" x1="213.798" y2="511.436" x2="235.058"/>
  <rect  width="21.2599" x="214.998" y="510.236" fill="none" connectorname="OUT11" height="2.4" id="connector48pin" stroke-width="0"/>
  <rect  width="2.4" x="233.858" y="510.236" fill="none" height="2.4" id="connector48terminal" stroke-width="0"/>
  <text  x="208.518" y="513.836" font-family="Droid Sans" fill="#000000" text-anchor="end" stroke="none" id="label48" stroke-width="0" font-size="9.936">OUT11</text>
  <line  fill="none" stroke="#000000" stroke-linejoin="round" stroke-linecap="round" y1="532.696" stroke-width="2.4" x1="213.798" y2="532.696" x2="235.058"/>
  <rect  width="21.2599" x="214.998" y="531.496" fill="none" connectorname="OUT10" height="2.4" id="connector45pin" stroke-width="0"/>
  <rect  width="2.4" x="233.858" y="531.496" fill="none" height="2.4" id="connector45terminal" stroke-width="0"/>
  <text  x="208.518" y="535.096" font-family="Droid Sans" fill="#000000" text-anchor="end" stroke="none" id="label45" stroke-width="0" font-size="9.936">OUT10</text>
  <line  fill="none" stroke="#000000" stroke-linejoin="round" stroke-linecap="round" y1="553.956" stroke-width="2.4" x1="213.798" y2="553.956" x2="235.058"/>
  <rect  width="21.2599" x="214.998" y="552.756" fill="none" connectorname="OUT9" height="2.4" id="connector8pin" stroke-width="0"/>
  <rect  width="2.4" x="233.858" y="552.756" fill="none" height="2.4" id="connector8terminal" stroke-width="0"/>
  <text  x="208.518" y="556.356" font-family="Droid Sans" fill="#000000" text-anchor="end" stroke="none" id="label8" stroke-width="0" font-size="9.936">OUT9</text>
  <line  fill="none" stroke="#000000" stroke-linejoin="round" stroke-linecap="round" y1="575.216" stroke-width="2.4" x1="213.798" y2="575.216" x2="235.058"/>
  <rect  width="21.2599" x="214.998" y="574.016" fill="none" connectorname="OUT8" height="2.4" id="connector35pin" stroke-width="0"/>
  <rect  width="2.4" x="233.858" y="574.016" fill="none" height="2.4" id="connector35terminal" stroke-width="0"/>
  <text  x="208.518" y="577.616" font-family="Droid Sans" fill="#000000" text-anchor="end" stroke="none" id="label35" stroke-width="0" font-size="9.936">OUT8</text>
  <line  fill="none" stroke="#000000" stroke-linejoin="round" stroke-linecap="round" y1="1.2" stroke-width="2.4" x1="64.9795" y2="21.2599" x2="64.9795"/>
  <rect  width="2.4" x="63.7795" y="0" fill="none" connectorname="3.3V" height="21.2599" id="connector122pin" stroke-width="0"/>
  <rect  width="2.4" x="63.7795" y="0" fill="none" height="0" id="connector122terminal" stroke-width="0"/>
  <text  x="64.9795" y="33.8599" font-family="Droid Sans" fill="#000000" text-anchor="middle" stroke="none" id="label122" stroke-width="0" font-size="9.936">3.3V</text>
  <line  fill="none" stroke="#000000" stroke-linejoin="round" stroke-linecap="round" y1="1.2" stroke-width="2.4" x1="86.2394" y2="21.2599" x2="86.2394"/>
  <rect  width="2.4" x="85.0392" y="0" fill="none" connectorname="5V_A" height="21.2599" id="connector123pin" stroke-width="0"/>
  <rect  width="2.4" x="85.0392" y="0" fill="none" height="0" id="connector123terminal" stroke-width="0"/>
  <text  x="86.2394" y="33.8599" font-family="Droid Sans" fill="#000000" text-anchor="middle" stroke="none" id="label123" stroke-width="0" font-size="9.936">5V_A</text>
  <line  fill="none" stroke="#000000" stroke-linejoin="round" stroke-linecap="round" y1="1.2" stroke-width="2.4" x1="107.499" y2="21.2599" x2="107.499"/>
  <rect  width="2.4" x="106.299" y="0" fill="none" connectorname="VCC" height="21.2599" id="connector7pin" stroke-width="0"/>
  <rect  width="2.4" x="106.299" y="0" fill="none" height="0" id="connector7terminal" stroke-width="0"/>
  <text  x="107.499" y="33.8599" font-family="Droid Sans" fill="#000000" text-anchor="middle" stroke="none" id="label7" stroke-width="0" font-size="9.936">VCC</text>
  <line  fill="none" stroke="#000000" stroke-linejoin="round" stroke-linecap="round" y1="1.2" stroke-width="2.4" x1="128.759" y2="21.2599" x2="128.759"/>
  <rect  width="2.4" x="127.559" y="0" fill="none" connectorname="VIN" height="21.2599" id="connector61pin" stroke-width="0"/>
  <rect  width="2.4" x="127.559" y="0" fill="none" height="0" id="connector61terminal" stroke-width="0"/>
  <text  x="128.759" y="33.8599" font-family="Droid Sans" fill="#000000" text-anchor="middle" stroke="none" id="label61" stroke-width="0" font-size="9.936">VIN</text>
  <line  fill="none" stroke="#000000" stroke-linejoin="round" stroke-linecap="round" y1="618.936" stroke-width="2.4" x1="118.129" y2="638.995" x2="118.129"/>
  <rect  width="2.4" x="116.929" y="618.936" fill="none" connectorname="GND" height="21.2599" id="connector6pin" stroke-width="0"/>
  <rect  width="2.4" x="116.929" y="640.195" fill="none" height="0" id="connector6terminal" stroke-width="0"/>
  <text  x="118.129" y="613.176" font-family="Droid Sans" fill="#000000" text-anchor="middle" stroke="none" id="label6" stroke-width="0" font-size="9.936">GND</text>
  <rect  width="2.4" x="106.299" y="0" fill="none" connectorname="VCC" height="21.2599" id="connector10pin" stroke-width="0"/>
  <rect  width="2.4" x="106.299" y="0" fill="none" height="0" id="connector10terminal" stroke-width="0"/>
  <rect  width="2.4" x="106.299" y="0" fill="none" connectorname="VCC" height="21.2599" id="connector13pin" stroke-width="0"/>
  <rect  width="2.4" x="106.299" y="0" fill="none" height="0" id="connector13terminal" stroke-width="0"/>
  <rect  width="2.4" x="106.299" y="0" fill="none" connectorname="VCC" height="21.2599" id="connector16pin" stroke-width="0"/>
  <rect  width="2.4" x="106.299" y="0" fill="none" height="0" id="connector16terminal" stroke-width="0"/>
  <rect  width="2.4" x="106.299" y="0" fill="none" connectorname="VCC" height="21.2599" id="connector19pin" stroke-width="0"/>
  <rect  width="2.4" x="106.299" y="0" fill="none" height="0" id="connector19terminal" stroke-width="0"/>
  <rect  width="2.4" x="106.299" y="0" fill="none" connectorname="VCC" height="21.2599" id="connector22pin" stroke-width="0"/>
  <rect  width="2.4" x="106.299" y="0" fill="none" height="0" id="connector22terminal" stroke-width="0"/>
  <rect  width="2.4" x="106.299" y="0" fill="none" connectorname="VCC" height="21.2599" id="connector25pin" stroke-width="0"/>
  <rect  width="2.4" x="106.299" y="0" fill="none" height="0" id="connector25terminal" stroke-width="0"/>
  <rect  width="2.4" x="106.299" y="0" fill="none" connectorname="VCC" height="21.2599" id="connector28pin" stroke-width="0"/>
  <rect  width="2.4" x="106.299" y="0" fill="none" height="0" id="connector28terminal" stroke-width="0"/>
  <rect  width="2.4" x="106.299" y="0" fill="none" connectorname="VCC" height="21.2599" id="connector31pin" stroke-width="0"/>
  <rect  width="2.4" x="106.299" y="0" fill="none" height="0" id="connector31terminal" stroke-width="0"/>
  <rect  width="2.4" x="106.299" y="0" fill="none" connectorname="VCC" height="21.2599" id="connector34pin" stroke-width="0"/>
  <rect  width="2.4" x="106.299" y="0" fill="none" height="0" id="connector34terminal" stroke-width="0"/>
  <rect  width="2.4" x="106.299" y="0" fill="none" connectorname="VCC" height="21.2599" id="connector41pin" stroke-width="0"/>
  <rect  width="2.4" x="106.299" y="0" fill="none" height="0" id="connector41terminal" stroke-width="0"/>
  <rect  width="2.4" x="106.299" y="0" fill="none" connectorname="VCC" height="21.2599" id="connector44pin" stroke-width="0"/>
  <rect  width="2.4" x="106.299" y="0" fill="none" height="0" id="connector44terminal" stroke-width="0"/>
  <rect  width="2.4" x="106.299" y="0" fill="none" connectorname="VCC" height="21.2599" id="connector47pin" stroke-width="0"/>
  <rect  width="2.4" x="106.299" y="0" fill="none" height="0" id="connector47terminal" stroke-width="0"/>
  <rect  width="2.4" x="106.299" y="0" fill="none" connectorname="VCC" height="21.2599" id="connector50pin" stroke-width="0"/>
  <rect  width="2.4" x="106.299" y="0" fill="none" height="0" id="connector50terminal" stroke-width="0"/>
  <rect  width="2.4" x="106.299" y="0" fill="none" connectorname="VCC" height="21.2599" id="connector53pin" stroke-width="0"/>
  <rect  width="2.4" x="106.299" y="0" fill="none" height="0" id="connector53terminal" stroke-width="0"/>
  <rect  width="2.4" x="106.299" y="0" fill="none" connectorname="VCC" height="21.2599" id="connector56pin" stroke-width="0"/>
  <rect  width="2.4" x="106.299" y="0" fill="none" height="0" id="connector56terminal" stroke-width="0"/>
  <rect  width="2.4" x="106.299" y="0" fill="none" connectorname="VCC" height="21.2599" id="connector59pin" stroke-width="0"/>
  <rect  width="2.4" x="106.299" y="0" fill="none" height="0" id="connector59terminal" stroke-width="0"/>
  <rect  width="2.4" x="127.559" y="0" fill="none" connectorname="VIN" height="21.2599" id="connector64pin" stroke-width="0"/>
  <rect  width="2.4" x="127.559" y="0" fill="none" height="0" id="connector64terminal" stroke-width="0"/>
  <rect  width="2.4" x="127.559" y="0" fill="none" connectorname="VIN" height="21.2599" id="connector66pin" stroke-width="0"/>
  <rect  width="2.4" x="127.559" y="0" fill="none" height="0" id="connector66terminal" stroke-width="0"/>
  <rect  width="2.4" x="116.929" y="618.936" fill="none" connectorname="GND" height="21.2599" id="connector143pin" stroke-width="0"/>
  <rect  width="2.4" x="116.929" y="640.195" fill="none" height="0" id="connector143terminal" stroke-width="0"/>
  <rect  width="2.4" x="116.929" y="618.936" fill="none" connectorname="GND" height="21.2599" id="connector144pin" stroke-width="0"/>
  <rect  width="2.4" x="116.929" y="640.195" fill="none" height="0" id="connector144terminal" stroke-width="0"/>
  <rect  width="2.4" x="116.929" y="618.936" fill="none" connectorname="GND" height="21.2599" id="connector145pin" stroke-width="0"/>
  <rect  width="2.4" x="116.929" y="640.195" fill="none" height="0" id="connector145terminal" stroke-width="0"/>
  <rect  width="2.4" x="116.929" y="618.936" fill="none" connectorname="GND" height="21.2599" id="connector9pin" stroke-width="0"/>
  <rect  width="2.4" x="116.929" y="640.195" fill="none" height="0" id="connector9terminal" stroke-width="0"/>
  <rect  width="2.4" x="116.929" y="618.936" fill="none" connectorname="GND" height="21.2599" id="connector12pin" stroke-width="0"/>
  <rect  width="2.4" x="116.929" y="640.195" fill="none" height="0" id="connector12terminal" stroke-width="0"/>
  <rect  width="2.4" x="116.929" y="618.936" fill="none" connectorname="GND" height="21.2599" id="connector15pin" stroke-width="0"/>
  <rect  width="2.4" x="116.929" y="640.195" fill="none" height="0" id="connector15terminal" stroke-width="0"/>
  <rect  width="2.4" x="116.929" y="618.936" fill="none" connectorname="GND" height="21.2599" id="connector18pin" stroke-width="0"/>
  <rect  width="2.4" x="116.929" y="640.195" fill="none" height="0" id="connector18terminal" stroke-width="0"/>
  <rect  width="2.4" x="116.929" y="618.936" fill="none" connectorname="GND" height="21.2599" id="connector21pin" stroke-width="0"/>
  <rect  width="2.4" x="116.929" y="640.195" fill="none" height="0" id="connector21terminal" stroke-width="0"/>
  <rect  width="2.4" x="116.929" y="618.936" fill="none" connectorname="GND" height="21.2599" id="connector24pin" stroke-width="0"/>
  <rect  width="2.4" x="116.929" y="640.195" fill="none" height="0" id="connector24terminal" stroke-width="0"/>
  <rect  width="2.4" x="116.929" y="618.936" fill="none" connectorname="GND" height="21.2599" id="connector27pin" stroke-width="0"/>
  <rect  width="2.4" x="116.929" y="640.195" fill="none" height="0" id="connector27terminal" stroke-width="0"/>
  <rect  width="2.4" x="116.929" y="618.936" fill="none" connectorname="GND" height="21.2599" id="connector30pin" stroke-width="0"/>
  <rect  width="2.4" x="116.929" y="640.195" fill="none" height="0" id="connector30terminal" stroke-width="0"/>
  <rect  width="2.4" x="116.929" y="618.936" fill="none" connectorname="GND" height="21.2599" id="connector33pin" stroke-width="0"/>
  <rect  width="2.4" x="116.929" y="640.195" fill="none" height="0" id="connector33terminal" stroke-width="0"/>
  <rect  width="2.4" x="116.929" y="618.936" fill="none" connectorname="GND" height="21.2599" id="connector42pin" stroke-width="0"/>
  <rect  width="2.4" x="116.929" y="640.195" fill="none" height="0" id="connector42terminal" stroke-width="0"/>
  <rect  width="2.4" x="116.929" y="618.936" fill="none" connectorname="GND" height="21.2599" id="connector43pin" stroke-width="0"/>
  <rect  width="2.4" x="116.929" y="640.195" fill="none" height="0" id="connector43terminal" stroke-width="0"/>
  <rect  width="2.4" x="116.929" y="618.936" fill="none" connectorname="GND" height="21.2599" id="connector46pin" stroke-width="0"/>
  <rect  width="2.4" x="116.929" y="640.195" fill="none" height="0" id="connector46terminal" stroke-width="0"/>
  <rect  width="2.4" x="116.929" y="618.936" fill="none" connectorname="GND" height="21.2599" id="connector49pin" stroke-width="0"/>
  <rect  width="2.4" x="116.929" y="640.195" fill="none" height="0" id="connector49terminal" stroke-width="0"/>
  <rect  width="2.4" x="116.929" y="618.936" fill="none" connectorname="GND" height="21.2599" id="connector52pin" stroke-width="0"/>
  <rect  width="2.4" x="116.929" y="640.195" fill="none" height="0" id="connector52terminal" stroke-width="0"/>
  <rect  width="2.4" x="116.929" y="618.936" fill="none" connectorname="GND" height="21.2599" id="connector55pin" stroke-width="0"/>
  <rect  width="2.4" x="116.929" y="640.195" fill="none" height="0" id="connector55terminal" stroke-width="0"/>
  <rect  width="2.4" x="116.929" y="618.936" fill="none" connectorname="GND" height="21.2599" id="connector58pin" stroke-width="0"/>
  <rect  width="2.4" x="116.929" y="640.195" fill="none" height="0" id="connector58terminal" stroke-width="0"/>
  <rect  width="2.4" x="116.929" y="618.936" fill="none" connectorname="GND" height="21.2599" id="connector63pin" stroke-width="0"/>
  <rect  width="2.4" x="116.929" y="640.195" fill="none" height="0" id="connector63terminal" stroke-width="0"/>
  <rect  width="2.4" x="116.929" y="618.936" fill="none" connectorname="GND" height="21.2599" id="connector62pin" stroke-width="0"/>
  <rect  width="2.4" x="116.929" y="640.195" fill="none" height="0" id="connector62terminal" stroke-width="0"/>
  <rect  width="2.4" x="116.929" y="618.936" fill="none" connectorname="GND" height="21.2599" id="connector65pin" stroke-width="0"/>
  <rect  width="2.4" x="116.929" y="640.195" fill="none" height="0" id="connector65terminal" stroke-width="0"/>
  <rect  width="21.2599" x="214.998" y="63.7795" fill="none" connectorname="SCLK" height="2.4" id="connector142pin" stroke-width="0"/>
  <rect  width="2.4" x="233.858" y="63.7795" fill="none" height="2.4" id="connector142terminal" stroke-width="0"/>
  <rect  width="21.2599" x="214.998" y="127.559" fill="none" connectorname="BLANK" height="2.4" id="connector139pin" stroke-width="0"/>
  <rect  width="2.4" x="233.858" y="127.559" fill="none" height="2.4" id="connector139terminal" stroke-width="0"/>
  <rect  width="21.2599" x="214.998" y="148.819" fill="none" connectorname="XLAT" height="2.4" id="connector138pin" stroke-width="0"/>
  <rect  width="2.4" x="233.858" y="148.819" fill="none" height="2.4" id="connector138terminal" stroke-width="0"/>
  <rect  width="21.2599" x="214.998" y="276.378" fill="none" connectorname="GSCLK" height="2.4" id="connector132pin" stroke-width="0"/>
  <rect  width="2.4" x="233.858" y="276.378" fill="none" height="2.4" id="connector132terminal" stroke-width="0"/>
 </g>
</svg>
