<?xml version="1.0" encoding="utf-8"?>
<!-- Generator: Adobe Illustrator 16.0.0, SVG Export Plug-In . SVG Version: 6.00 Build 0)  -->
<!DOCTYPE svg PUBLIC "-//W3C//DTD SVG 1.1//EN" "http://www.w3.org/Graphics/SVG/1.1/DTD/svg11.dtd">
<svg version="1.1" id="Ebene_1" xmlns="http://www.w3.org/2000/svg" xmlns:xlink="http://www.w3.org/1999/xlink" x="0px" y="0px"
	 width="300.037px" height="406.336px" viewBox="0 0 300.037 406.336" enable-background="new 0 0 300.037 406.336"
	 xml:space="preserve">
<desc>Fritzing schematic generated by brd2svg</desc>
<g id="schematic">
	<text id="label" transform="matrix(1 0 0 1 117.5615 64.9805)" font-family="'Droid Sans'" font-size="18">Arduino</text>
	<text id="label" transform="matrix(1 0 0 1 139.8457 86.2393)" font-family="'Droid Sans'" font-size="18">BT</text>
	
		<line fill="none" stroke="#000000" stroke-width="2.4" stroke-linecap="round" stroke-linejoin="round" x1="1.2" y1="64.979" x2="21.26" y2="64.979"/>
	<rect id="connector174pin" y="63.78" fill="none" width="21.26" height="2.4"/>
	<rect id="connector174terminal" y="63.78" fill="none" width="2.399" height="2.4"/>
	<text id="label174" transform="matrix(1 0 0 1 27.7402 67.3809)" font-family="'Droid Sans'" font-size="9.936">RESET</text>
	
		<line fill="none" stroke="#000000" stroke-width="2.4" stroke-linecap="round" stroke-linejoin="round" x1="1.2" y1="86.24" x2="21.26" y2="86.24"/>
	<rect id="connector199pin" y="85.04" fill="none" width="21.26" height="2.4"/>
	<rect id="connector199terminal" y="85.04" fill="none" width="2.399" height="2.4"/>
	<text id="label199" transform="matrix(1 0 0 1 27.7402 88.6396)" font-family="'Droid Sans'" font-size="9.936">RESET WT11/D7</text>
	
		<line fill="none" stroke="#000000" stroke-width="2.4" stroke-linecap="round" stroke-linejoin="round" x1="1.2" y1="107.499" x2="21.26" y2="107.499"/>
	<rect id="connector183pin" y="106.299" fill="none" width="21.26" height="2.4"/>
	<rect id="connector183terminal" y="106.299" fill="none" width="2.399" height="2.4"/>
	<text id="label183" transform="matrix(1 0 0 1 27.7402 109.9004)" font-family="'Droid Sans'" font-size="9.936">AREF</text>
	
		<line fill="none" stroke="#000000" stroke-width="2.4" stroke-linecap="round" stroke-linejoin="round" x1="1.2" y1="128.759" x2="21.26" y2="128.759"/>
	<rect id="connector223pin" y="127.559" fill="none" width="21.26" height="2.4"/>
	<rect id="connector223terminal" y="127.559" fill="none" width="2.399" height="2.4"/>
	<text id="label223" transform="matrix(1 0 0 1 27.7402 131.1602)" font-family="'Droid Sans'" font-size="9.936">N/C</text>
	
		<line fill="none" stroke="#000000" stroke-width="2.4" stroke-linecap="round" stroke-linejoin="round" x1="1.2" y1="171.279" x2="21.26" y2="171.279"/>
	<rect id="connector186pin" y="170.078" fill="none" width="21.26" height="2.4"/>
	<rect id="connector186terminal" y="170.078" fill="none" width="2.399" height="2.4"/>
	<text id="label186" transform="matrix(1 0 0 1 27.7402 173.6777)" font-family="'Droid Sans'" font-size="9.936">A0</text>
	
		<line fill="none" stroke="#000000" stroke-width="2.4" stroke-linecap="round" stroke-linejoin="round" x1="1.2" y1="192.539" x2="21.26" y2="192.539"/>
	<rect id="connector187pin" y="191.339" fill="none" width="21.26" height="2.4"/>
	<rect id="connector187terminal" y="191.339" fill="none" width="2.399" height="2.4"/>
	<text id="label187" transform="matrix(1 0 0 1 27.7402 194.9395)" font-family="'Droid Sans'" font-size="9.936">A1</text>
	
		<line fill="none" stroke="#000000" stroke-width="2.4" stroke-linecap="round" stroke-linejoin="round" x1="1.2" y1="213.798" x2="21.26" y2="213.798"/>
	<rect id="connector188pin" y="212.6" fill="none" width="21.26" height="2.398"/>
	<rect id="connector188terminal" y="212.6" fill="none" width="2.399" height="2.398"/>
	<text id="label188" transform="matrix(1 0 0 1 27.7402 216.1992)" font-family="'Droid Sans'" font-size="9.936">A2</text>
	
		<line fill="none" stroke="#000000" stroke-width="2.4" stroke-linecap="round" stroke-linejoin="round" x1="1.2" y1="235.059" x2="21.26" y2="235.059"/>
	<rect id="connector189pin" y="233.857" fill="none" width="21.26" height="2.4"/>
	<rect id="connector189terminal" y="233.857" fill="none" width="2.399" height="2.4"/>
	<text id="label189" transform="matrix(1 0 0 1 27.7402 237.459)" font-family="'Droid Sans'" font-size="9.936">A3</text>
	
		<line fill="none" stroke="#000000" stroke-width="2.4" stroke-linecap="round" stroke-linejoin="round" x1="1.2" y1="256.318" x2="21.26" y2="256.318"/>
	<rect id="connector184pin" y="255.118" fill="none" width="21.26" height="2.399"/>
	<rect id="connector184terminal" y="255.118" fill="none" width="2.399" height="2.399"/>
	<text id="label184" transform="matrix(1 0 0 1 27.7402 258.7188)" font-family="'Droid Sans'" font-size="9.936">A4/SDA</text>
	
		<line fill="none" stroke="#000000" stroke-width="2.4" stroke-linecap="round" stroke-linejoin="round" x1="1.2" y1="277.579" x2="21.26" y2="277.579"/>
	<rect id="connector185pin" y="276.378" fill="none" width="21.26" height="2.399"/>
	<rect id="connector185terminal" y="276.378" fill="none" width="2.399" height="2.399"/>
	<text id="label185" transform="matrix(1 0 0 1 27.7402 279.9785)" font-family="'Droid Sans'" font-size="9.936">A5/SCL</text>
	
		<line fill="none" stroke="#000000" stroke-width="2.4" stroke-linecap="round" stroke-linejoin="round" x1="1.2" y1="320.098" x2="21.26" y2="320.098"/>
	<rect id="connector200pin" y="318.897" fill="none" width="21.26" height="2.399"/>
	<rect id="connector200terminal" y="318.897" fill="none" width="2.399" height="2.399"/>
	<text id="label200" transform="matrix(1 0 0 1 27.7402 322.498)" font-family="'Droid Sans'" font-size="9.936">JP1_1</text>
	
		<line fill="none" stroke="#000000" stroke-width="2.4" stroke-linecap="round" stroke-linejoin="round" x1="1.2" y1="341.358" x2="21.26" y2="341.358"/>
	<rect id="connector201pin" y="340.159" fill="none" width="21.26" height="2.399"/>
	<rect id="connector201terminal" y="340.159" fill="none" width="2.399" height="2.399"/>
	<text id="label201" transform="matrix(1 0 0 1 27.7402 343.7578)" font-family="'Droid Sans'" font-size="9.936">JP1_2</text>
	
		<line fill="none" stroke="#000000" stroke-width="2.4" stroke-linecap="round" stroke-linejoin="round" x1="277.578" y1="64.979" x2="298.837" y2="64.979"/>
	<rect id="connector192pin" x="278.778" y="63.78" fill="none" width="21.261" height="2.4"/>
	<rect id="connector192terminal" x="297.638" y="63.78" fill="none" width="2.4" height="2.4"/>
	<text id="label192" transform="matrix(1 0 0 1 245.0283 67.3809)" font-family="'Droid Sans'" font-size="9.936">RX/D0</text>
	
		<line fill="none" stroke="#000000" stroke-width="2.4" stroke-linecap="round" stroke-linejoin="round" x1="277.578" y1="86.24" x2="298.837" y2="86.24"/>
	<rect id="connector193pin" x="278.778" y="85.04" fill="none" width="21.261" height="2.4"/>
	<rect id="connector193terminal" x="297.638" y="85.04" fill="none" width="2.4" height="2.4"/>
	<text id="label193" transform="matrix(1 0 0 1 245.7314 88.6396)" font-family="'Droid Sans'" font-size="9.936">TX/D1</text>
	
		<rect x="22.46" y="22.46" fill="none" stroke="#000000" stroke-width="2.4" stroke-linecap="round" stroke-linejoin="round" width="255.117" height="361.417"/>
	
		<line fill="none" stroke="#000000" stroke-width="2.4" stroke-linecap="round" stroke-linejoin="round" x1="277.578" y1="107.499" x2="298.837" y2="107.499"/>
	<rect id="connector194pin" x="278.778" y="106.299" fill="none" width="21.261" height="2.4"/>
	<rect id="connector194terminal" x="297.638" y="106.299" fill="none" width="2.4" height="2.4"/>
	<text id="label194" transform="matrix(1 0 0 1 260.0283 109.8999)" font-family="'Droid Sans'" font-size="9.936">D2</text>
	
		<line fill="none" stroke="#000000" stroke-width="2.4" stroke-linecap="round" stroke-linejoin="round" x1="277.578" y1="128.759" x2="298.837" y2="128.759"/>
	<rect id="connector195pin" x="278.778" y="127.559" fill="none" width="21.261" height="2.4"/>
	<rect id="connector195terminal" x="297.638" y="127.559" fill="none" width="2.4" height="2.4"/>
	<text id="label195" transform="matrix(1 0 0 1 234.2959 131.1587)" font-family="'Droid Sans'" font-size="9.936">PWM D3</text>
	
		<line fill="none" stroke="#000000" stroke-width="2.4" stroke-linecap="round" stroke-linejoin="round" x1="277.578" y1="150.019" x2="298.837" y2="150.019"/>
	<rect id="connector196pin" x="278.778" y="148.818" fill="none" width="21.261" height="2.4"/>
	<rect id="connector196terminal" x="297.638" y="148.818" fill="none" width="2.4" height="2.4"/>
	<text id="label196" transform="matrix(1 0 0 1 260.0283 152.4175)" font-family="'Droid Sans'" font-size="9.936">D4</text>
	
		<line fill="none" stroke="#000000" stroke-width="2.4" stroke-linecap="round" stroke-linejoin="round" x1="277.578" y1="171.279" x2="298.837" y2="171.279"/>
	<rect id="connector197pin" x="278.778" y="170.079" fill="none" width="21.261" height="2.4"/>
	<rect id="connector197terminal" x="297.638" y="170.079" fill="none" width="2.4" height="2.4"/>
	<text id="label197" transform="matrix(1 0 0 1 234.2959 173.6792)" font-family="'Droid Sans'" font-size="9.936">PWM D5</text>
	
		<line fill="none" stroke="#000000" stroke-width="2.4" stroke-linecap="round" stroke-linejoin="round" x1="277.578" y1="192.538" x2="298.837" y2="192.538"/>
	<rect id="connector198pin" x="278.778" y="191.339" fill="none" width="21.261" height="2.398"/>
	<rect id="connector198terminal" x="297.638" y="191.339" fill="none" width="2.4" height="2.398"/>
	<text id="label198" transform="matrix(1 0 0 1 234.2959 194.939)" font-family="'Droid Sans'" font-size="9.936">PWM D6</text>
	
		<line fill="none" stroke="#000000" stroke-width="2.4" stroke-linecap="round" stroke-linejoin="round" x1="96.869" y1="1.2" x2="96.869" y2="21.26"/>
	<rect id="connector220pin" x="95.669" fill="none" width="2.4" height="21.26"/>
	<polygon id="connector220terminal" fill="none" points="95.669,0 98.07,0 98.07,0 	"/>
	<text id="label220" transform="matrix(1 0 0 1 88.5757 33.8604)" font-family="'Droid Sans'" font-size="9.936">3V3</text>
	
		<line fill="none" stroke="#000000" stroke-width="2.4" stroke-linecap="round" stroke-linejoin="round" x1="139.389" y1="1.2" x2="139.389" y2="21.26"/>
	<rect id="connector171pin" x="138.189" fill="none" width="2.4" height="21.26"/>
	<polygon id="connector171terminal" fill="none" points="138.189,0 140.589,0 140.589,0 	"/>
	<text id="label171" transform="matrix(1 0 0 1 133.832 33.8604)" font-family="'Droid Sans'" font-size="9.936">5V</text>
	
		<line fill="none" stroke="#000000" stroke-width="2.4" stroke-linecap="round" stroke-linejoin="round" x1="181.909" y1="1.2" x2="181.909" y2="21.26"/>
	<rect id="connector216pin" x="180.708" fill="none" width="2.398" height="21.26"/>
	<polygon id="connector216terminal" fill="none" points="180.708,0 183.108,0 183.108,0 	"/>
	<text id="label216" transform="matrix(1 0 0 1 173.7822 33.8604)" font-family="'Droid Sans'" font-size="9.936">VIN</text>
	
		<line fill="none" stroke="#000000" stroke-width="2.4" stroke-linecap="round" stroke-linejoin="round" x1="150.019" y1="385.077" x2="150.019" y2="405.137"/>
	<rect id="connector175pin" x="148.819" y="385.077" fill="none" width="2.4" height="21.26"/>
	<polygon id="connector175terminal" fill="none" points="148.819,406.336 151.219,406.336 151.219,406.336 	"/>
	<text id="label175" transform="matrix(1 0 0 1 139.5713 379.3184)" font-family="'Droid Sans'" font-size="9.936">GND</text>
	<rect id="connector222pin" x="138.189" fill="none" width="2.4" height="21.26"/>
	<polygon id="connector222terminal" fill="none" points="138.189,0 140.589,0 140.589,0 	"/>
	<rect id="connector219pin" x="138.189" fill="none" width="2.4" height="21.26"/>
	<polygon id="connector219terminal" fill="none" points="138.189,0 140.589,0 140.589,0 	"/>
	<rect id="connector217pin" x="148.819" y="385.077" fill="none" width="2.4" height="21.26"/>
	<polygon id="connector217terminal" fill="none" points="148.819,406.336 151.219,406.336 151.219,406.336 	"/>
	<rect id="connector218pin" x="148.819" y="385.077" fill="none" width="2.4" height="21.26"/>
	<polygon id="connector218terminal" fill="none" points="148.819,406.336 151.219,406.336 151.219,406.336 	"/>
	<rect id="connector182pin" x="148.819" y="385.077" fill="none" width="2.4" height="21.26"/>
	<polygon id="connector182terminal" fill="none" points="148.819,406.336 151.219,406.336 151.219,406.336 	"/>
	<rect id="connector221pin" y="63.78" fill="none" width="21.26" height="2.4"/>
	<rect id="connector221terminal" y="63.78" fill="none" width="2.399" height="2.4"/>
	<rect id="connector190pin" y="255.118" fill="none" width="21.26" height="2.399"/>
	<rect id="connector190terminal" y="255.118" fill="none" width="2.399" height="2.399"/>
	<rect id="connector191pin" y="276.378" fill="none" width="21.26" height="2.399"/>
	<rect id="connector191terminal" y="276.378" fill="none" width="2.399" height="2.399"/>
	<g>
		
			<line fill="none" stroke="#000000" stroke-width="2.4" stroke-linecap="round" stroke-linejoin="round" x1="277.578" y1="278.176" x2="298.837" y2="278.176"/>
		<rect id="connector178pin" x="278.778" y="276.975" fill="none" width="21.261" height="2.4"/>
		<rect id="connector178terminal" x="297.638" y="276.975" fill="none" width="2.4" height="2.4"/>
		<text id="label178" transform="matrix(1 0 0 1 214.8018 280.5762)" font-family="'Droid Sans'" font-size="9.936">SS/PWM D10</text>
		
			<line fill="none" stroke="#000000" stroke-width="2.4" stroke-linecap="round" stroke-linejoin="round" x1="277.578" y1="235.658" x2="298.837" y2="235.658"/>
		<rect id="connector176pin" x="278.778" y="234.457" fill="none" width="21.261" height="2.4"/>
		<rect id="connector176terminal" x="297.638" y="234.457" fill="none" width="2.4" height="2.4"/>
		<text id="label176_2_" transform="matrix(1 0 0 1 260.0283 238.0576)" font-family="'Droid Sans'" font-size="9.936">D8</text>
		
			<line fill="none" stroke="#000000" stroke-width="2.4" stroke-linecap="round" stroke-linejoin="round" x1="277.578" y1="256.918" x2="298.837" y2="256.918"/>
		<rect id="connector177pin" x="278.778" y="255.717" fill="none" width="21.261" height="2.4"/>
		<rect id="connector177terminal" x="297.638" y="255.717" fill="none" width="2.4" height="2.4"/>
		<text id="label177" transform="matrix(1 0 0 1 234.2959 259.3174)" font-family="'Droid Sans'" font-size="9.936">PWM D9</text>
		
			<line fill="none" stroke="#000000" stroke-width="2.4" stroke-linecap="round" stroke-linejoin="round" x1="277.578" y1="299.438" x2="298.837" y2="299.438"/>
		<rect id="connector173pin" x="278.778" y="298.236" fill="none" width="21.261" height="2.4"/>
		<rect id="connector173terminal" x="297.638" y="298.236" fill="none" width="2.4" height="2.4"/>
		<text id="label173" transform="matrix(1 0 0 1 227.7549 301.8379)" font-family="'Droid Sans'" font-size="9.936">MOSI/D11</text>
		
			<line fill="none" stroke="#000000" stroke-width="2.4" stroke-linecap="round" stroke-linejoin="round" x1="277.578" y1="320.695" x2="298.837" y2="320.695"/>
		<rect id="connector170pin" x="278.778" y="319.498" fill="none" width="21.261" height="2.398"/>
		<rect id="connector170terminal" x="297.638" y="319.498" fill="none" width="2.4" height="2.398"/>
		<text id="label170" transform="matrix(1 0 0 1 226.7549 323.0977)" font-family="'Droid Sans'" font-size="9.936">MISO/D12</text>
		
			<line fill="none" stroke="#000000" stroke-width="2.4" stroke-linecap="round" stroke-linejoin="round" x1="277.578" y1="341.957" x2="298.837" y2="341.957"/>
		<rect id="connector172pin" x="278.778" y="340.756" fill="none" width="21.261" height="2.4"/>
		<rect id="connector172terminal" x="297.638" y="340.756" fill="none" width="2.4" height="2.4"/>
		<text id="label172" transform="matrix(1 0 0 1 234.0986 344.3574)" font-family="'Droid Sans'" font-size="9.936">SCK/D13</text>
		<rect id="connector179pin" x="278.778" y="298.236" fill="none" width="21.261" height="2.4"/>
		<rect id="connector179terminal" x="297.638" y="298.236" fill="none" width="2.4" height="2.4"/>
		<rect id="connector180pin" x="278.778" y="319.498" fill="none" width="21.261" height="2.398"/>
		<rect id="connector180terminal" x="297.638" y="319.498" fill="none" width="2.4" height="2.398"/>
		<rect id="connector181pin" x="278.778" y="340.756" fill="none" width="21.261" height="2.4"/>
		<rect id="connector181terminal" x="297.638" y="340.756" fill="none" width="2.4" height="2.4"/>
	</g>
</g>
</svg>
