<?xml version='1.0' encoding='UTF-8' standalone='no'?>
<!-- Created with Fritzing (http://www.fritzing.org/) -->
<svg xmlns="http://www.w3.org/2000/svg" width="0.75in" x="0in" version="1.2" y="0in" height="0.3in" viewBox="0 0 54 21.6" baseProfile="tiny">
 <desc >Fritzing footprint generated by brd2svg</desc>
 <g  id="silkscreen" stroke-width="0">
  <path  fill="none" stroke="white" stroke-width="0.576" d="M0.288,21.312L53.712,21.312L53.712,0.288L0.288,0.288L0.288,21.312"/>
  <g  stroke-width="0">
   <title >element:JP1</title>
   <g  stroke-width="0">
    <title >package:1X03</title>
    <line  stroke="white" stroke-linecap="round" y1="14.4" x1="5.4" y2="16.2" stroke-width="0.576" x2="7.2"/>
    <line  stroke="white" stroke-linecap="round" y1="16.2" x1="7.2" y2="19.8" stroke-width="0.576" x2="7.2"/>
    <line  stroke="white" stroke-linecap="round" y1="19.8" x1="7.2" y2="21.6" stroke-width="0.576" x2="5.4"/>
    <line  stroke="white" stroke-linecap="round" y1="21.6" x1="1.8" y2="19.8" stroke-width="0.576" x2="0"/>
    <line  stroke="white" stroke-linecap="round" y1="19.8" x1="0" y2="16.2" stroke-width="0.576" x2="0"/>
    <line  stroke="white" stroke-linecap="round" y1="16.2" x1="0" y2="14.4" stroke-width="0.576" x2="1.8"/>
    <line  stroke="white" stroke-linecap="round" y1="1.8" x1="7.2" y2="5.4" stroke-width="0.576" x2="7.2"/>
    <line  stroke="white" stroke-linecap="round" y1="5.4" x1="7.2" y2="7.2" stroke-width="0.576" x2="5.4"/>
    <line  stroke="white" stroke-linecap="round" y1="7.2" x1="1.8" y2="5.4" stroke-width="0.576" x2="0"/>
    <line  stroke="white" stroke-linecap="round" y1="7.2" x1="5.4" y2="9" stroke-width="0.576" x2="7.2"/>
    <line  stroke="white" stroke-linecap="round" y1="9" x1="7.2" y2="12.6" stroke-width="0.576" x2="7.2"/>
    <line  stroke="white" stroke-linecap="round" y1="12.6" x1="7.2" y2="14.4" stroke-width="0.576" x2="5.4"/>
    <line  stroke="white" stroke-linecap="round" y1="14.4" x1="1.8" y2="12.6" stroke-width="0.576" x2="0"/>
    <line  stroke="white" stroke-linecap="round" y1="12.6" x1="0" y2="9" stroke-width="0.576" x2="0"/>
    <line  stroke="white" stroke-linecap="round" y1="9" x1="0" y2="7.2" stroke-width="0.576" x2="1.8"/>
    <line  stroke="white" stroke-linecap="round" y1="0" x1="5.4" y2="0" stroke-width="0.576" x2="1.8"/>
    <line  stroke="white" stroke-linecap="round" y1="1.8" x1="7.2" y2="0" stroke-width="0.576" x2="5.4"/>
    <line  stroke="white" stroke-linecap="round" y1="0" x1="1.8" y2="1.8" stroke-width="0.576" x2="0"/>
    <line  stroke="white" stroke-linecap="round" y1="5.4" x1="0" y2="1.8" stroke-width="0.576" x2="0"/>
    <line  stroke="white" stroke-linecap="round" y1="21.6" x1="5.4" y2="21.6" stroke-width="0.576" x2="1.8"/>
   </g>
  </g>
  <g  stroke-width="0">
   <title >element:U1</title>
   <g  stroke-width="0">
    <title >package:HIH-4030</title>
    <line  stroke="white" stroke-linecap="round" y1="4.32" x1="43.56" y2="4.32" stroke-width="0.576" x2="45.72"/>
    <line  stroke="white" stroke-linecap="round" y1="4.32" x1="45.72" y2="6.12" stroke-width="0.576" x2="45.72"/>
    <line  stroke="white" stroke-linecap="round" y1="16.92" x1="43.56" y2="16.92" stroke-width="0.576" x2="45.72"/>
    <line  stroke="white" stroke-linecap="round" y1="16.92" x1="45.72" y2="15.48" stroke-width="0.576" x2="45.72"/>
    <line  stroke="white" stroke-linecap="round" y1="4.68" x1="22.32" y2="4.68" stroke-width="0.576" x2="20.52"/>
    <line  stroke="white" stroke-linecap="round" y1="4.68" x1="20.52" y2="5.76" stroke-width="0.576" x2="20.52"/>
    <line  stroke="white" stroke-linecap="round" y1="15.84" x1="20.52" y2="16.92" stroke-width="0.576" x2="20.52"/>
    <line  stroke="white" stroke-linecap="round" y1="16.92" x1="20.52" y2="16.92" stroke-width="0.576" x2="22.32"/>
   </g>
  </g>
 </g>
 <g  id="copper1" stroke-width="0">
  <g  id="copper0" stroke-width="0">
   <circle  fill="none" cx="3.6" cy="10.8" connectorname="OUT" stroke="#F7BD13" r="2.052" id="connector1pad" stroke-width="1.224"/>
   <circle  fill="none" cx="3.6" cy="18" connectorname="VCC" stroke="#F7BD13" r="2.052" id="connector2pad" stroke-width="1.224"/>
   <circle  fill="none" cx="3.6" cy="3.6" connectorname="GND" stroke="#F7BD13" r="2.052" id="connector0pad" stroke-width="1.224"/>
  </g>
 </g>
</svg>
