<?xml version='1.0' encoding='UTF-8' standalone='no'?>
<!-- Created with Fritzing (http://www.fritzing.org/) -->
<svg xmlns="http://www.w3.org/2000/svg" width="0.6in" x="0in" version="1.2" y="0in" height="0.6in" viewBox="0 0 43.2 43.2" baseProfile="tiny">
 <desc >Fritzing footprint generated by brd2svg</desc>
 <g  id="silkscreen" stroke-width="0">
  <path  fill="none" stroke="white" stroke-width="0.576" d="M42.912,42.912L42.912,0.288L0.288,0.288L0.288,42.912L42.912,42.912"/>
  <line  stroke="white" stroke-linecap="round" y1="23.4" x1="3.24" y2="23.4" stroke-width="0.72" x2="7.92"/>
  <line  stroke="white" stroke-linecap="round" y1="23.4" x1="7.92" y2="24.84" stroke-width="0.72" x2="6.48"/>
  <line  stroke="white" stroke-linecap="round" y1="23.4" x1="7.92" y2="21.96" stroke-width="0.72" x2="6.48"/>
  <g  stroke-width="0">
   <title >element:HMC6352</title>
   <g  stroke-width="0">
    <title >package:LCC24</title>
    <line  stroke="white" stroke-linecap="round" y1="30.7842" x1="30.8126" y2="28.8" stroke-width="0.576" x2="30.8126"/>
    <line  stroke="white" stroke-linecap="round" y1="14.5984" x1="30.8126" y2="12.3591" stroke-width="0.576" x2="30.8126"/>
    <line  stroke="white" stroke-linecap="round" y1="12.3591" x1="14.7969" y2="12.3591" stroke-width="0.576" x2="13.0961"/>
    <line  stroke="white" stroke-linecap="round" y1="12.3591" x1="13.0961" y2="13.0677" stroke-width="0.576" x2="12.3874"/>
    <line  stroke="white" stroke-linecap="round" y1="13.0677" x1="12.3874" y2="14.6268" stroke-width="0.576" x2="12.3874"/>
    <line  stroke="white" stroke-linecap="round" y1="12.3591" x1="30.8126" y2="12.3591" stroke-width="0.576" x2="28.5165"/>
    <line  stroke="white" stroke-linecap="round" y1="30.7842" x1="30.8126" y2="30.7842" stroke-width="0.576" x2="28.4882"/>
    <line  stroke="white" stroke-linecap="round" y1="28.3465" x1="12.3874" y2="30.7842" stroke-width="0.576" x2="12.3874"/>
    <line  stroke="white" stroke-linecap="round" y1="30.7842" x1="12.3874" y2="30.7842" stroke-width="0.576" x2="14.6551"/>
   </g>
  </g>
  <g  stroke-width="0">
   <title >element:SL1</title>
   <g  stroke-width="0">
    <title >package:1X04</title>
    <line  stroke="white" stroke-linecap="round" y1="36" x1="30.6" y2="36" stroke-width="0.576" x2="34.2"/>
    <line  stroke="white" stroke-linecap="round" y1="36" x1="34.2" y2="37.8" stroke-width="0.576" x2="36"/>
    <line  stroke="white" stroke-linecap="round" y1="41.4" x1="36" y2="43.2" stroke-width="0.576" x2="34.2"/>
    <line  stroke="white" stroke-linecap="round" y1="37.8" x1="21.6" y2="36" stroke-width="0.576" x2="23.4"/>
    <line  stroke="white" stroke-linecap="round" y1="36" x1="23.4" y2="36" stroke-width="0.576" x2="27"/>
    <line  stroke="white" stroke-linecap="round" y1="36" x1="27" y2="37.8" stroke-width="0.576" x2="28.8"/>
    <line  stroke="white" stroke-linecap="round" y1="41.4" x1="28.8" y2="43.2" stroke-width="0.576" x2="27"/>
    <line  stroke="white" stroke-linecap="round" y1="43.2" x1="27" y2="43.2" stroke-width="0.576" x2="23.4"/>
    <line  stroke="white" stroke-linecap="round" y1="43.2" x1="23.4" y2="41.4" stroke-width="0.576" x2="21.6"/>
    <line  stroke="white" stroke-linecap="round" y1="36" x1="30.6" y2="37.8" stroke-width="0.576" x2="28.8"/>
    <line  stroke="white" stroke-linecap="round" y1="41.4" x1="28.8" y2="43.2" stroke-width="0.576" x2="30.6"/>
    <line  stroke="white" stroke-linecap="round" y1="43.2" x1="34.2" y2="43.2" stroke-width="0.576" x2="30.6"/>
    <line  stroke="white" stroke-linecap="round" y1="36" x1="9" y2="36" stroke-width="0.576" x2="12.6"/>
    <line  stroke="white" stroke-linecap="round" y1="36" x1="12.6" y2="37.8" stroke-width="0.576" x2="14.4"/>
    <line  stroke="white" stroke-linecap="round" y1="41.4" x1="14.4" y2="43.2" stroke-width="0.576" x2="12.6"/>
    <line  stroke="white" stroke-linecap="round" y1="37.8" x1="14.4" y2="36" stroke-width="0.576" x2="16.2"/>
    <line  stroke="white" stroke-linecap="round" y1="36" x1="16.2" y2="36" stroke-width="0.576" x2="19.8"/>
    <line  stroke="white" stroke-linecap="round" y1="36" x1="19.8" y2="37.8" stroke-width="0.576" x2="21.6"/>
    <line  stroke="white" stroke-linecap="round" y1="41.4" x1="21.6" y2="43.2" stroke-width="0.576" x2="19.8"/>
    <line  stroke="white" stroke-linecap="round" y1="43.2" x1="19.8" y2="43.2" stroke-width="0.576" x2="16.2"/>
    <line  stroke="white" stroke-linecap="round" y1="43.2" x1="16.2" y2="41.4" stroke-width="0.576" x2="14.4"/>
    <line  stroke="white" stroke-linecap="round" y1="37.8" x1="7.2" y2="41.4" stroke-width="0.576" x2="7.2"/>
    <line  stroke="white" stroke-linecap="round" y1="36" x1="9" y2="37.8" stroke-width="0.576" x2="7.2"/>
    <line  stroke="white" stroke-linecap="round" y1="41.4" x1="7.2" y2="43.2" stroke-width="0.576" x2="9"/>
    <line  stroke="white" stroke-linecap="round" y1="43.2" x1="12.6" y2="43.2" stroke-width="0.576" x2="9"/>
    <line  stroke="white" stroke-linecap="round" y1="37.8" x1="36" y2="41.4" stroke-width="0.576" x2="36"/>
   </g>
  </g>
 </g>
 <g  id="copper1" stroke-width="0">
  <g  id="copper0" stroke-width="0">
   <circle  fill="none" cx="18" cy="39.6" connectorname="VCC" stroke="#F7BD13" r="2.052" id="connector33pad" stroke-width="1.224"/>
   <circle  fill="none" cx="32.4" cy="39.6" connectorname="SCL" stroke="#F7BD13" r="2.052" id="connector35pad" stroke-width="1.224"/>
   <circle  fill="none" cx="10.8" cy="39.6" connectorname="GND" stroke="#F7BD13" r="2.052" id="connector32pad" stroke-width="1.224"/>
   <rect  width="4.104" x="8.748" y="37.548" fill="none" height="4.104" stroke="#F7BD13" stroke-width="1.224"/>
   <circle  fill="none" cx="25.2" cy="39.6" connectorname="SDA" stroke="#F7BD13" r="2.052" id="connector34pad" stroke-width="1.224"/>
  </g>
 </g>
</svg>
