<?xml version='1.0' encoding='UTF-8' standalone='no'?>
<!-- Created with Fritzing (http://www.fritzing.org/) -->
<svg xmlns="http://www.w3.org/2000/svg" width="0.347638in" x="0in" version="1.2" y="0in"  height="0.4in" viewBox="0 0 347.638 400" baseProfile="tiny" xmlns:svg="http://www.w3.org/2000/svg">
 <desc>Fritzing breadboard generated by brd2svg</desc>
 <g id="breadboard">
  <g id="icon">
   <path fill="#1F7A34" stroke="none" stroke-width="0" d="M0,0L0,170A30,30 0 0 1 0,230L0,400L347.638,400L347.638,0L0,0z"/>
   <g transform="translate(26.1811,170.472)">
    <g transform="matrix(0.5, 0, 0, 0.5, 73.8189, 14.7638)">
     <rect width="47.2442" x="0" y="35.4331" fill="#F7BD13" connectorname="P$1" height="23.622" stroke="none" stroke-linecap="round" stroke-width="0"/>
     <rect width="47.2442" x="0" y="0" fill="#F7BD13" connectorname="P$2" height="23.622" stroke="none" stroke-linecap="round" stroke-width="0"/>
     <rect width="47.2442" x="248.032" y="35.4331" fill="#F7BD13" connectorname="NC2" height="23.622" stroke="none" stroke-linecap="round" stroke-width="0"/>
     <rect width="47.2442" x="248.032" y="0" fill="#F7BD13" connectorname="NC1" height="23.622" stroke="none" stroke-linecap="round" stroke-width="0"/>
     <rect width="197.913" x="48.6811" y="1.43701" fill="#303030" height="56.1811" stroke="none" stroke-width="0"/>
     <polygon fill="#1f1f1f" points="48.6811,1.43701 246.594,1.43701 236.594,11.437 58.6811,11.437"/>
     <polygon fill="#1f1f1f" points="48.6811,57.6181 246.594,57.6181 236.594,47.6181 58.6811,47.6181"/>
     <polygon fill="#000000" points="48.6811,1.43701 48.6811,57.6181 58.6811,47.6181 58.6811,11.437"/>
     <polygon fill="#3d3d3d" points="246.594,1.43701 246.594,57.6181 236.594,47.6181 236.594,11.437"/>
     <circle fill="#1f1f1f" cx="78.6811" cy="27.6181" stroke="none" r="10" stroke-width="0"/>
    </g>
   </g>
   <text x="50" y="224.375" font-family="OCRA" fill="white" text-anchor="start" stroke="none" id="label" stroke-width="0" font-size="65">CRYSTAL-32KHZ-SMD_EPSON_MC146</text>
   <g transform="translate(137.319,326.05)">
    <g transform="rotate(-90)">
     <text x="0" y="0" font-family="OCRA" fill="white" text-anchor="start" stroke="none" stroke-width="0" font-size="45">NC1</text>
    </g>
   </g>
   <g transform="translate(137.319,73.95)">
    <g transform="rotate(-90)">
     <text x="0" y="0" font-family="OCRA" fill="white" text-anchor="end" stroke="none" stroke-width="0" font-size="45">P$2</text>
    </g>
   </g>
   <g transform="translate(237.319,326.05)">
    <g transform="rotate(-90)">
     <text x="0" y="0" font-family="OCRA" fill="white" text-anchor="start" stroke="none" stroke-width="0" font-size="45">P$1</text>
    </g>
   </g>
   <g transform="translate(237.319,73.95)">
    <g transform="rotate(-90)">
     <text x="0" y="0" font-family="OCRA" fill="white" text-anchor="end" stroke="none" stroke-width="0" font-size="45">NC2</text>
    </g>
   </g>
  </g>
  <g transform="translate(107.854,334.05)">
   <rect width="31.93" x="0" y="0" fill="#8D8C8C" height="31.9" id="connector0pin" stroke-width="0"/>
   <rect width="16.4442" x="7.79153" y="7.73544" fill="#8C8663" height="16.4152" stroke-width="0"/>
   <polygon fill="#B8AF82" points="0,31.9,7.79153,24.1368,7.79153,6.97162,0,0" stroke-width="0"/>
   <polygon fill="#80795B" points="24.2079,7.76321,7.90264,7.76321,0,0,31.93,0" stroke-width="0"/>
   <polygon fill="#5E5B43" points="24.2079,24.1368,24.2079,7.76321,31.93,0,31.93,31.9" stroke-width="0"/>
   <polygon fill="#9A916C" points="0,31.9,7.87486,24.1368,24.2079,24.1368,31.93,31.9" stroke-width="0"/>
  </g>
  <g transform="translate(107.854,34.05)">
   <rect width="31.93" x="0" y="0" fill="#8D8C8C" height="31.9" id="connector3pin" stroke-width="0"/>
   <rect width="16.4442" x="7.79153" y="7.73544" fill="#8C8663" height="16.4152" stroke-width="0"/>
   <polygon fill="#B8AF82" points="0,31.9,7.79153,24.1368,7.79153,6.97162,0,0" stroke-width="0"/>
   <polygon fill="#80795B" points="24.2079,7.76321,7.90264,7.76321,0,0,31.93,0" stroke-width="0"/>
   <polygon fill="#5E5B43" points="24.2079,24.1368,24.2079,7.76321,31.93,0,31.93,31.9" stroke-width="0"/>
   <polygon fill="#9A916C" points="0,31.9,7.87486,24.1368,24.2079,24.1368,31.93,31.9" stroke-width="0"/>
  </g>
  <g transform="translate(207.854,334.05)">
   <rect width="31.93" x="0" y="0" fill="#8D8C8C" height="31.9" id="connector1pin" stroke-width="0"/>
   <rect width="16.4442" x="7.79153" y="7.73544" fill="#8C8663" height="16.4152" stroke-width="0"/>
   <polygon fill="#B8AF82" points="0,31.9,7.79153,24.1368,7.79153,6.97162,0,0" stroke-width="0"/>
   <polygon fill="#80795B" points="24.2079,7.76321,7.90264,7.76321,0,0,31.93,0" stroke-width="0"/>
   <polygon fill="#5E5B43" points="24.2079,24.1368,24.2079,7.76321,31.93,0,31.93,31.9" stroke-width="0"/>
   <polygon fill="#9A916C" points="0,31.9,7.87486,24.1368,24.2079,24.1368,31.93,31.9" stroke-width="0"/>
  </g>
  <g transform="translate(207.854,34.05)">
   <rect width="31.93" x="0" y="0" fill="#8D8C8C" height="31.9" id="connector2pin" stroke-width="0"/>
   <rect width="16.4442" x="7.79153" y="7.73544" fill="#8C8663" height="16.4152" stroke-width="0"/>
   <polygon fill="#B8AF82" points="0,31.9,7.79153,24.1368,7.79153,6.97162,0,0" stroke-width="0"/>
   <polygon fill="#80795B" points="24.2079,7.76321,7.90264,7.76321,0,0,31.93,0" stroke-width="0"/>
   <polygon fill="#5E5B43" points="24.2079,24.1368,24.2079,7.76321,31.93,0,31.93,31.9" stroke-width="0"/>
   <polygon fill="#9A916C" points="0,31.9,7.87486,24.1368,24.2079,24.1368,31.93,31.9" stroke-width="0"/>
  </g>
 </g>
</svg>
