<?xml version='1.0' encoding='UTF-8' standalone='no'?>
<!-- Created with Fritzing (http://www.fritzing.org/) -->
<svg xmlns="http://www.w3.org/2000/svg" width="0.680306in" x="0in" version="1.2" y="0in"  height="1in" viewBox="0 0 680.306 1000" baseProfile="tiny" xmlns:svg="http://www.w3.org/2000/svg">
 <desc>Fritzing breadboard generated by brd2svg</desc>
 <g id="breadboard">
  <g id="icon">
   <path fill="#1F7A34" stroke="none" stroke-width="0" d="M0,0L0,470A30,30 0 0 1 0,530L0,1000L680.306,1000L680.306,0L0,0z"/>
   <g transform="translate(100,167.32)">
    <g id="Ebene_1">
     <polygon fill="#E6E6E6" points="102.431,0,0,32.9028,0,90.7778,480.306,90.7778,480.306,32.9028,377.875,0"/>
     <rect width="480.306" x="0" y="72.2639" fill="#1A1A1A" height="430.806"/>
     <rect width="480.306" x="0" y="503.056" height="70.875"/>
     <g id="silkscreen">
      <rect width="41.3472" x="219.486" y="540.792" fill="#E6E6E6" height="56.2917"/>
      <rect width="41.3472" x="119.486" y="540.792" fill="#E6E6E6" height="56.2917"/>
      <rect width="41.3472" x="319.486" y="540.792" fill="#E6E6E6" height="56.2917"/>
     </g>
     <g id="silkscreen_1_">
      <rect width="41.3472" x="219.486" y="597.083" fill="#CCCCCC" height="20.8333"/>
      <rect width="41.3472" x="119.486" y="597.083" fill="#CCCCCC" height="20.8333"/>
      <rect width="41.3472" x="319.486" y="597.083" fill="#CCCCCC" height="20.8333"/>
     </g>
     <g id="silkscreen_2_">
      <rect width="41.3472" x="219.486" y="617.917" fill="#E6E6E6" height="47.4444"/>
      <rect width="41.3472" x="119.486" y="617.917" fill="#E6E6E6" height="47.4444"/>
      <rect width="41.3472" x="319.486" y="617.917" fill="#E6E6E6" height="47.4444"/>
     </g>
     <path d="M0,343.028c27.8056,0,50.3472,22.5417,50.3472,50.3472S27.8056,443.722,0,443.722L0,343.028z"/>
     <path d="M480.306,443.722c-27.8056,0,-50.3472,-22.5417,-50.3472,-50.3472s22.5417,-50.3472,50.3472,-50.3472L480.306,443.722z"/>
     <text transform="matrix(1, 0, 0, 1, 150, 220.14)">
      <tspan x="0" y="0" fill="#808080" font-family="'Droid Sans'" font-size="3.3766">LD1085</tspan>
      <tspan x="7.512" y="4.052" fill="#808080" font-family="'Droid Sans'" font-size="3.3766">Vb</tspan>
     </text>
     <g opacity="0.2">
      <polygon fill="#FFFFFF" points="0,38.0278,102.431,5.125,377.875,5.125,480.306,38.0278,480.306,32.9028,377.875,0,102.431,0,0,32.9028"/>
      <rect width="480.306" x="0" y="72.2639" fill="#FFFFFF" height="5.125"/>
      <rect width="480.306" x="0" y="497.931" height="5.125"/>
      <path fill="#FFFFFF" d="M50.3472,393.375c0,-27.8056,-22.5417,-50.3472,-50.3472,-50.3472l0,-5.125c27.8056,0,50.3472,22.5417,50.3472,50.3472L50.3472,393.375z"/>
      <path fill="#FFFFFF" d="M480.306,343.028c-27.8056,0,-50.3472,22.5417,-50.3472,50.3472l0,-5.125c0,-27.8056,22.5417,-50.3472,50.3472,-50.3472L480.306,343.028z"/>
     </g>
     <rect width="41.3472" x="219.486" opacity="0.2" y="540.792" height="2.16667"/>
     <rect width="41.3472" x="119.486" opacity="0.2" y="540.792" height="2.16667"/>
     <rect width="41.3472" x="319.486" opacity="0.2" y="540.792" height="2.16667"/>
     <rect width="41.3472" x="219.486" opacity="0.2" y="594.903" fill="#FFFFFF" height="2.16667"/>
     <rect width="41.3472" x="119.486" opacity="0.2" y="594.903" fill="#FFFFFF" height="2.16667"/>
     <rect width="41.3472" x="319.486" opacity="0.2" y="594.903" fill="#FFFFFF" height="2.16667"/>
     <rect width="41.3472" x="219.486" opacity="0.2" y="617.917" height="2.16667"/>
     <rect width="41.3472" x="119.486" opacity="0.2" y="617.917" height="2.16667"/>
     <rect width="41.3472" x="319.486" opacity="0.2" y="617.917" height="2.16667"/>
    </g>
    <g id="Ebene_2"/>
   </g>
  </g>
  <g transform="translate(274.188,934.05)">
   <rect width="31.93" x="0" y="0" fill="#8D8C8C" height="31.9" id="connector0pin"/>
   <rect width="16.4442" x="7.79153" y="7.73544" fill="#8C8663" height="16.4152"/>
   <polygon fill="#B8AF82" points="0,31.9,7.79153,24.1368,7.79153,6.97162,0,0"/>
   <polygon fill="#80795B" points="24.2079,7.76321,7.90264,7.76321,0,0,31.93,0"/>
   <polygon fill="#5E5B43" points="24.2079,24.1368,24.2079,7.76321,31.93,0,31.93,31.9"/>
   <polygon fill="#9A916C" points="0,31.9,7.87486,24.1368,24.2079,24.1368,31.93,31.9"/>
  </g>
  <g transform="translate(274.188,34.05)">
   <rect width="31.93" x="0" y="0" fill="#8D8C8C" height="31.9" id="connector3pin"/>
   <rect width="16.4442" x="7.79153" y="7.73544" fill="#8C8663" height="16.4152"/>
   <polygon fill="#B8AF82" points="0,31.9,7.79153,24.1368,7.79153,6.97162,0,0"/>
   <polygon fill="#80795B" points="24.2079,7.76321,7.90264,7.76321,0,0,31.93,0"/>
   <polygon fill="#5E5B43" points="24.2079,24.1368,24.2079,7.76321,31.93,0,31.93,31.9"/>
   <polygon fill="#9A916C" points="0,31.9,7.87486,24.1368,24.2079,24.1368,31.93,31.9"/>
  </g>
  <g transform="translate(374.188,934.05)">
   <rect width="31.93" x="0" y="0" fill="#8D8C8C" height="31.9" id="connector1pin"/>
   <rect width="16.4442" x="7.79153" y="7.73544" fill="#8C8663" height="16.4152"/>
   <polygon fill="#B8AF82" points="0,31.9,7.79153,24.1368,7.79153,6.97162,0,0"/>
   <polygon fill="#80795B" points="24.2079,7.76321,7.90264,7.76321,0,0,31.93,0"/>
   <polygon fill="#5E5B43" points="24.2079,24.1368,24.2079,7.76321,31.93,0,31.93,31.9"/>
   <polygon fill="#9A916C" points="0,31.9,7.87486,24.1368,24.2079,24.1368,31.93,31.9"/>
  </g>
  <g transform="translate(374.188,34.05)">
   <rect width="31.93" x="0" y="0" fill="#8D8C8C" height="31.9" id="connector2pin"/>
   <rect width="16.4442" x="7.79153" y="7.73544" fill="#8C8663" height="16.4152"/>
   <polygon fill="#B8AF82" points="0,31.9,7.79153,24.1368,7.79153,6.97162,0,0"/>
   <polygon fill="#80795B" points="24.2079,7.76321,7.90264,7.76321,0,0,31.93,0"/>
   <polygon fill="#5E5B43" points="24.2079,24.1368,24.2079,7.76321,31.93,0,31.93,31.9"/>
   <polygon fill="#9A916C" points="0,31.9,7.87486,24.1368,24.2079,24.1368,31.93,31.9"/>
  </g>
 </g>
</svg>
