<?xml version='1.0' encoding='UTF-8' standalone='no'?>
<!-- Created with Fritzing (http://www.fritzing.org/) -->
<svg xmlns="http://www.w3.org/2000/svg" width="0.481056in" x="0in" version="1.2" y="0in"  height="0.6in" viewBox="0 0 481.056 600" baseProfile="tiny" xmlns:svg="http://www.w3.org/2000/svg">
 <desc>Fritzing breadboard generated by brd2svg</desc>
 <g id="breadboard">
  <g id="icon">
   <path fill="#1F7A34" stroke="none" stroke-width="0" d="M0,0L0,270A30,30 0 0 1 0,330L0,600L481.056,600L481.056,0L0,0z"/>
   <g transform="translate(100,166.445)">
    <polygon fill="#254E89" points="0,27.1806,5.48611,27.1806,5.48611,71.6667,0,71.6667,0,177.542,137.792,177.542,275.583,177.542,275.583,71.6667,281.083,71.6667,281.083,27.1806,275.583,27.1806,275.583,0,137.792,0,0,0"/>
    <polygon fill="#123C66" points="0,267.111,137.792,267.111,275.583,267.111,275.583,86.1806,137.792,86.1806,0,86.1806"/>
    <g>
     <path fill="#3A5C8E" d="M206.333,75.4583c17.3056,0,31.4167,-14.3056,31.4167,-31.9722l-62.7917,0C174.903,61.1667,189,75.4583,206.333,75.4583z"/>
     <path fill="#123C66" d="M206.333,11.5972c-17.3056,0,-31.3889,14.3194,-31.3889,31.9167l62.7778,0C237.722,25.9028,223.667,11.5972,206.333,11.5972z"/>
     <polygon fill="#254E89" points="168.736,93.5417,168.736,191.778,195.319,191.778,195.319,267.097,217.486,267.097,217.486,191.778,242.111,191.778,242.111,93.5417"/>
     <rect width="67.4167" x="171.736" y="96.0139" fill="#8D8C8C" height="92.8056"/>
     <path fill="#A0A0A0" d="M205.417,158.458c15.9722,0,28.9722,-13.2083,28.9722,-29.5556l-58.0278,0C176.389,145.25,189.403,158.458,205.417,158.458z"/>
     <path fill="#565656" d="M205.417,99.5c-15.9861,0,-29.0556,13.1667,-29.0556,29.4861l58.0278,0C234.389,112.681,221.472,99.5,205.417,99.5z"/>
     <ellipse fill="#383838" cx="205.389" cy="128.986" rx="22.4861" ry="22.8889"/>
     <rect width="16.4722" x="198.194" y="188.792" fill="#6D6D6D" height="78.3472"/>
     <g>
      <g>
       <polygon fill="#A0A0A0" points="186.208,112.847,176.194,102.681,172.889,102.431,172.889,97.1528,238.042,97.1528,238.042,102.361,235.875,102.361,224.778,112.847" stroke="#57585A" stroke-width="2.36111" stroke-miterlimit="10"/>
      </g>
     </g>
     <g>
      <path fill="#8B8B8B" d="M206.333,69.2639c-13.9722,0,-25.3333,-11.5556,-25.3333,-25.7639c0,-14.1806,11.3611,-25.75,25.3333,-25.75c6.68056,0,13.0278,2.61111,17.7917,7.41667c4.86111,4.88889,7.54167,11.375,7.54167,18.3194C231.667,57.7083,220.306,69.2639,206.333,69.2639z"/>
      <g>
       <path d="M206.333,18.0833c13.8056,0,25.0139,11.3889,24.9861,25.4167c0,14.0556,-11.1806,25.4167,-24.9861,25.4167c-13.7778,0,-24.9861,-11.3611,-24.9861,-25.4167C181.347,29.4722,192.556,18.0833,206.333,18.0833M206.333,17.3889c-14.1806,0,-25.7083,11.7083,-25.7083,26.1111s11.5,26.1389,25.7083,26.1389c14.1667,0,25.6667,-11.7361,25.6667,-26.1389c0.0277778,-7.04167,-2.68056,-13.6111,-7.625,-18.5972C219.514,20.0556,213.097,17.3889,206.333,17.3889L206.333,17.3889z"/>
      </g>
      <g opacity="0.5">
       <path d="M206.333,20.1667c6.05556,0,11.75,2.375,16.0556,6.69444c4.375,4.40278,6.81944,10.3056,6.79167,16.6111c0,12.8889,-10.2361,23.3611,-22.8611,23.3611c-12.6389,0,-22.8889,-10.4722,-22.8889,-23.3611C183.417,30.6389,193.694,20.1667,206.333,20.1667M206.333,18.0833c-13.7778,0,-24.9861,11.3889,-24.9861,25.4167c0,14.0556,11.2083,25.4167,24.9861,25.4167c13.8056,0,24.9861,-11.3611,24.9861,-25.4167C231.333,29.4722,220.139,18.0833,206.333,18.0833L206.333,18.0833z"/>
      </g>
     </g>
     <g>
      <path fill="#707070" d="M183.417,43.5c0,2.11111,0.347222,4.11111,0.861111,6.08333l44.0278,0C228.833,47.6389,229.167,45.625,229.167,43.5c0,-2.02778,-0.305556,-4.02778,-0.847222,-5.95833l-44.0833,0C183.792,39.4583,183.417,41.4306,183.417,43.5z"/>
     </g>
     <polygon fill="#545252" points="224.889,37.5417,212.222,37.5417,212.222,21.9861,200.444,21.9861,200.444,37.5417,187.806,37.5417,187.806,49.5,200.444,49.5,200.444,65.0694,212.222,65.0694,212.222,49.5,224.889,49.5"/>
    </g>
    <g>
     <path fill="#3A5C8E" d="M68.5278,75.4583c17.3056,0,31.4167,-14.3056,31.4167,-31.9722L37.1389,43.4861C37.1111,61.1667,51.1944,75.4583,68.5278,75.4583z"/>
     <path fill="#123C66" d="M68.5278,11.5972c-17.3056,0,-31.4028,14.3194,-31.4028,31.9167l62.7917,0C99.9444,25.9028,85.8611,11.5972,68.5278,11.5972z"/>
     <polygon fill="#254E89" points="30.9306,93.5417,30.9306,191.778,57.5139,191.778,57.5139,267.097,79.7083,267.097,79.7083,191.778,104.306,191.778,104.306,93.5417"/>
     <rect width="67.4167" x="33.9444" y="96.0139" fill="#8D8C8C" height="92.8056"/>
     <path fill="#A0A0A0" d="M67.625,158.458c15.9722,0,28.9722,-13.2083,28.9722,-29.5556L38.5833,128.903C38.6111,145.25,51.5972,158.458,67.625,158.458z"/>
     <path fill="#565656" d="M67.625,99.5c-16,0,-29.0556,13.1667,-29.0556,29.4861l58.0278,0C96.5972,112.681,83.6667,99.5,67.625,99.5z"/>
     <ellipse fill="#383838" cx="67.5972" cy="128.986" rx="22.4861" ry="22.8889"/>
     <rect width="16.4722" x="60.3889" y="188.792" fill="#6D6D6D" height="78.3472"/>
     <g>
      <g>
       <polygon fill="#A0A0A0" points="48.4306,112.847,38.3889,102.681,35.0833,102.431,35.0833,97.1528,100.236,97.1528,100.236,102.361,98.0694,102.361,86.9722,112.847" stroke="#57585A" stroke-width="2.36111" stroke-miterlimit="10"/>
      </g>
     </g>
     <g>
      <path fill="#8B8B8B" d="M68.5278,69.2639c-13.9861,0,-25.3333,-11.5556,-25.3333,-25.7639c0,-14.1806,11.3472,-25.75,25.3333,-25.75c6.68056,0,13.0278,2.61111,17.7778,7.41667c4.875,4.88889,7.54167,11.375,7.54167,18.3194C93.8611,57.7083,82.5,69.2639,68.5278,69.2639z"/>
      <g>
       <path d="M68.5278,18.0833c13.7917,0,25.0139,11.3889,24.9861,25.4167c0,14.0556,-11.1944,25.4167,-24.9861,25.4167c-13.7778,0,-25,-11.3611,-25,-25.4167C43.5417,29.4722,54.75,18.0833,68.5278,18.0833M68.5278,17.3889c-14.1806,0,-25.7083,11.7083,-25.7083,26.1111s11.5,26.1389,25.7083,26.1389c14.1667,0,25.6667,-11.7361,25.6667,-26.1389C94.2083,36.4583,91.5,29.8611,86.5694,24.9028C81.7083,20.0556,75.3056,17.3889,68.5278,17.3889L68.5278,17.3889z"/>
      </g>
      <g opacity="0.5">
       <path d="M68.5278,20.1667c6.05556,0,11.75,2.375,16.0417,6.69444c4.38889,4.40278,6.83333,10.3056,6.80556,16.6111c0,12.8889,-10.25,23.3611,-22.8611,23.3611c-12.6389,0,-22.8889,-10.4722,-22.8889,-23.3611C45.625,30.6389,55.8889,20.1667,68.5278,20.1667M68.5278,18.0833c-13.7778,0,-25,11.3889,-25,25.4167c0,14.0556,11.2222,25.4167,25,25.4167c13.7917,0,24.9861,-11.3611,24.9861,-25.4167C93.5417,29.4722,82.3194,18.0833,68.5278,18.0833L68.5278,18.0833z"/>
      </g>
     </g>
     <g>
      <path fill="#707070" d="M45.625,43.5c0,2.11111,0.347222,4.11111,0.861111,6.08333l44.0278,0C91.0417,47.625,91.3889,45.6111,91.3889,43.5c0,-2.02778,-0.305556,-4.02778,-0.847222,-5.95833L46.4722,37.5417C45.9861,39.4583,45.625,41.4306,45.625,43.5z"/>
     </g>
     <polygon fill="#545252" points="87.0833,37.5417,74.4167,37.5417,74.4167,21.9861,62.6389,21.9861,62.6389,37.5417,50,37.5417,50,49.5,62.6389,49.5,62.6389,65.0694,74.4167,65.0694,74.4167,49.5,87.0833,49.5"/>
    </g>
   </g>
  </g>
  <g transform="translate(224.563,534.05)">
   <rect width="31.93" x="0" y="0" fill="#8D8C8C" height="31.9" id="connector0pin"/>
   <rect width="16.4442" x="7.79153" y="7.73544" fill="#8C8663" height="16.4152"/>
   <polygon fill="#B8AF82" points="0,31.9,7.79153,24.1368,7.79153,6.97162,0,0"/>
   <polygon fill="#80795B" points="24.2079,7.76321,7.90264,7.76321,0,0,31.93,0"/>
   <polygon fill="#5E5B43" points="24.2079,24.1368,24.2079,7.76321,31.93,0,31.93,31.9"/>
   <polygon fill="#9A916C" points="0,31.9,7.87486,24.1368,24.2079,24.1368,31.93,31.9"/>
  </g>
  <g transform="translate(224.563,34.05)">
   <rect width="31.93" x="0" y="0" fill="#8D8C8C" height="31.9" id="connector1pin"/>
   <rect width="16.4442" x="7.79153" y="7.73544" fill="#8C8663" height="16.4152"/>
   <polygon fill="#B8AF82" points="0,31.9,7.79153,24.1368,7.79153,6.97162,0,0"/>
   <polygon fill="#80795B" points="24.2079,7.76321,7.90264,7.76321,0,0,31.93,0"/>
   <polygon fill="#5E5B43" points="24.2079,24.1368,24.2079,7.76321,31.93,0,31.93,31.9"/>
   <polygon fill="#9A916C" points="0,31.9,7.87486,24.1368,24.2079,24.1368,31.93,31.9"/>
  </g>
 </g>
</svg>
