<?xml version='1.0' encoding='UTF-8' standalone='no'?>
<!-- Created with Fritzing (http://www.fritzing.org/) -->
<svg xmlns="http://www.w3.org/2000/svg" width="0.841222in" x="0in" version="1.2" y="0in"  height="1in" viewBox="0 0 841.222 1000" baseProfile="tiny" xmlns:svg="http://www.w3.org/2000/svg">
 <desc>Fritzing breadboard generated by brd2svg</desc>
 <g id="breadboard">
  <g id="icon">
   <path fill="#1F7A34" stroke="none" stroke-width="0" d="M0,0L0,470A30,30 0 0 1 0,530L0,1000L841.222,1000L841.222,0L0,0z"/>
   <g transform="translate(100,105.334)">
    <g>
     <rect width="607.986" x="16.6111" y="90.2778" fill="#1A1A1A" height="453.764"/>
     <g>
      <g enable-background="new    ">
       <g>
        <polyline fill="#B3B3B3" points="32.6806,779.903,32.6806,739.722,167.306,739.722,167.306,779.903,32.6806,779.903"/>
        <polyline fill="#B3B3B3" points="32.6806,739.722,32.6806,545.653,608.556,545.653,608.556,623.778,608.556,628.514,608.681,628.514,608.681,658.958,608.556,658.958,608.556,663.778,608.556,739.722,473.944,739.722,608.556,739.722,608.556,779.903,473.944,779.903,395.292,779.903,395.292,784.764,245.931,784.764,245.931,779.903,167.306,779.903,167.306,739.722,32.6806,739.722"/>
        <polyline fill="#B3B3B3" points="624.542,538.208,16.5556,538.208,16.5556,789.403,624.542,789.403,624.542,789.333,16.5556,789.333,16.5556,786.208,624.542,786.208,618.431,786.208,618.431,705.597,624.542,705.597,624.542,538.208"/>
        <polyline fill="#333333" points="595.542,658.958,595.542,734.778,464.292,734.778,464.292,744.708,463.931,744.708,463.931,753.333,395.292,753.333,395.292,776.403,395.292,779.903,473.944,779.903,473.944,739.722,608.556,739.722,608.556,663.778,595.542,663.778,595.542,658.958"/>
        <polyline fill="#333333" points="608.556,545.653,32.6806,545.653,32.6806,739.722,167.306,739.722,167.306,779.903,245.931,779.903,245.931,753.333,177.306,753.333,177.306,744.708,176.931,744.708,176.931,734.778,45.8056,734.778,45.8056,663.778,32.6806,663.778,32.6806,623.778,45.8056,623.778,45.8056,552.694,131.931,552.694,149.306,552.694,154.667,552.694,158.056,552.694,160.681,552.694,165.931,552.694,168.681,552.694,172.042,552.694,176.931,552.694,194.306,552.694,199.681,552.694,203.056,552.694,205.681,552.694,210.931,552.694,213.681,552.694,217.056,552.694,221.931,552.694,239.306,552.694,244.681,552.694,248.056,552.694,250.806,552.694,255.931,552.694,258.556,552.694,262.056,552.694,266.931,552.694,284.292,552.694,289.681,552.694,293.056,552.694,295.806,552.694,300.931,552.694,303.556,552.694,307.056,552.694,311.931,552.694,329.292,552.694,334.667,552.694,338.167,552.694,340.806,552.694,345.931,552.694,348.667,552.694,352.042,552.694,356.944,552.694,374.306,552.694,379.667,552.694,383.167,552.694,385.806,552.694,390.917,552.694,393.667,552.694,397.056,552.694,401.917,552.694,419.306,552.694,424.681,552.694,428.056,552.694,430.792,552.694,436.042,552.694,438.667,552.694,442.069,552.694,446.917,552.694,464.292,552.694,469.681,552.694,473.042,552.694,475.806,552.694,481.042,552.694,483.681,552.694,487.056,552.694,491.917,552.694,509.306,552.694,595.542,552.694,595.542,628.514,595.542,623.778,608.556,623.778,608.556,545.653"/>
        <polyline points="177.306,753.278,177.306,744.708,463.792,744.708,463.792,753.278,177.306,753.278"/>
        <polyline points="131.931,734.778,131.931,680.333,149.306,680.333,149.306,734.778,131.931,734.778"/>
        <polyline points="221.931,744.708,221.931,680.333,239.306,680.333,239.306,744.708,221.931,744.708"/>
        <polyline points="266.931,744.708,266.931,680.333,284.292,680.333,284.292,744.708,266.931,744.708"/>
        <polyline points="311.931,744.708,311.931,680.333,329.292,680.333,329.292,744.708,311.931,744.708"/>
        <polyline points="356.944,744.708,356.944,680.333,374.306,680.333,374.306,744.708,356.944,744.708"/>
        <polyline points="401.917,744.708,401.917,680.333,419.306,680.333,419.306,744.708,401.917,744.708"/>
        <polyline points="491.917,734.778,491.917,680.333,509.306,680.333,509.306,734.778,491.917,734.778"/>
        <polyline points="595.542,552.694,509.306,552.694,509.306,675.639,491.917,675.639,491.917,552.694,487.056,552.694,487.056,656.347,469.681,656.347,469.681,552.694,464.292,552.694,464.292,675.639,446.917,675.639,446.917,552.694,442.069,552.694,442.069,656.347,424.681,656.347,424.681,552.694,419.306,552.694,419.306,675.639,401.917,675.639,401.917,552.694,397.056,552.694,397.056,656.347,379.667,656.347,379.667,552.694,374.306,552.694,374.306,675.639,356.944,675.639,356.944,552.694,352.042,552.694,352.042,656.347,334.667,656.347,334.667,552.694,329.292,552.694,329.292,675.639,311.931,675.639,311.931,552.694,307.056,552.694,307.056,656.347,289.681,656.347,289.681,552.694,284.292,552.694,284.292,675.639,266.931,675.639,266.931,552.694,262.056,552.694,262.056,656.347,244.681,656.347,244.681,552.694,239.306,552.694,239.306,675.639,221.931,675.639,221.931,552.694,217.056,552.694,217.056,656.347,199.681,656.347,199.681,552.694,194.306,552.694,194.306,675.639,176.931,675.639,176.931,552.694,172.042,552.694,172.042,656.347,154.667,656.347,154.667,552.694,149.306,552.694,149.306,675.639,131.931,675.639,131.931,552.694,45.8056,552.694,45.8056,623.778,45.8056,628.514,48.3056,628.514,51.6667,628.514,53.4306,628.514,55.4306,628.514,58.8056,628.514,58.8056,658.958,45.8056,658.958,45.8056,663.778,45.8056,734.778,176.931,734.778,176.931,680.333,194.306,680.333,194.306,744.708,177.306,744.708,177.306,753.333,245.931,753.333,245.931,779.903,245.931,776.403,395.292,776.403,395.292,753.333,463.931,753.333,463.931,744.708,446.917,744.708,446.917,680.333,464.292,680.333,464.292,734.778,595.542,734.778,595.542,658.958,582.417,658.958,582.417,628.514,585.778,628.514,587.806,628.514,589.694,628.514,592.931,628.514,595.542,628.514,595.542,552.694"/>
        <polyline fill="#1A1A1A" points="463.792,744.708,177.306,744.708,177.306,753.278,463.792,753.278,463.792,744.708"/>
        <polyline fill="#1A1A1A" points="395.292,776.403,245.931,776.403,245.931,779.903,245.931,784.764,395.292,784.764,395.292,779.903,395.292,776.403"/>
        <polyline points="608.556,658.958,595.542,658.958,595.542,663.778,608.556,663.778,608.556,658.958"/>
        <polyline points="608.556,623.778,595.542,623.778,595.542,628.514,596.431,628.514,608.556,628.514,608.556,623.778"/>
        <polyline points="45.8056,623.778,32.6806,623.778,32.6806,663.778,45.8056,663.778,45.8056,658.958,32.6806,658.958,32.6806,628.514,44.8056,628.514,45.8056,628.514,45.8056,623.778"/>
        <polyline fill="#CCCCCC" points="608.681,628.514,608.556,628.514,596.431,628.514,596.431,658.958,582.417,658.958,582.417,628.514,582.417,658.958,595.542,658.958,608.556,658.958,608.681,658.958,608.681,628.514"/>
        <polyline fill="#B3B3B3" points="596.431,628.514,595.542,628.514,592.931,628.514,592.931,658.958,582.417,658.958,582.417,628.514,582.417,658.958,596.431,658.958,596.431,628.514"/>
        <polyline fill="#999999" points="592.931,628.514,589.694,628.514,589.694,658.958,582.417,658.958,582.417,628.514,582.417,658.958,592.931,658.958,592.931,628.514"/>
        <polyline fill="#808080" points="589.694,628.514,587.806,628.514,587.806,658.958,585.778,658.958,585.778,628.514,582.417,628.514,582.417,658.958,589.694,658.958,589.694,628.514"/>
        <polyline fill="#CCCCCC" points="587.806,628.514,585.778,628.514,585.778,658.958,587.806,658.958,587.806,628.514"/>
        <polyline fill="#CCCCCC" points="44.8056,628.514,32.6806,628.514,32.6806,658.958,45.8056,658.958,58.8056,658.958,44.8056,658.958,44.8056,628.514"/>
        <polyline fill="#B3B3B3" points="48.3056,628.514,45.8056,628.514,44.8056,628.514,44.8056,658.958,58.8056,658.958,48.3056,658.958,48.3056,628.514"/>
        <polyline fill="#999999" points="51.6667,628.514,48.3056,628.514,48.3056,658.958,58.8056,658.958,51.6667,658.958,51.6667,628.514"/>
        <polyline fill="#808080" points="58.8056,628.514,55.4306,628.514,55.4306,658.958,53.4306,658.958,53.4306,628.514,51.6667,628.514,51.6667,658.958,58.8056,658.958,58.8056,628.514"/>
        <polyline fill="#CCCCCC" points="55.4306,628.514,53.4306,628.514,53.4306,658.958,55.4306,658.958,55.4306,628.514"/>
        <polyline fill="#0F0F0F" points="509.306,680.333,491.917,680.333,491.917,734.778,509.306,734.778,509.306,680.333"/>
        <polyline fill="#252525" points="464.292,734.778,463.931,734.778,463.931,744.708,464.292,744.708,464.292,734.778"/>
        <polyline fill="#0F0F0F" points="464.292,680.333,446.917,680.333,446.917,744.708,463.931,744.708,463.931,734.778,464.292,734.778,464.292,680.333"/>
        <polyline fill="#0F0F0F" points="419.306,680.333,401.917,680.333,401.917,744.708,419.306,744.708,419.306,680.333"/>
        <polyline fill="#0F0F0F" points="374.306,680.333,356.944,680.333,356.944,744.708,374.306,744.708,374.306,680.333"/>
        <polyline fill="#0F0F0F" points="329.292,680.333,311.931,680.333,311.931,744.708,329.292,744.708,329.292,680.333"/>
        <polyline fill="#0F0F0F" points="284.292,680.333,266.931,680.333,266.931,744.708,284.292,744.708,284.292,680.333"/>
        <polyline fill="#0F0F0F" points="239.306,680.333,221.931,680.333,221.931,744.708,239.306,744.708,239.306,680.333"/>
        <polyline fill="#252525" points="177.306,734.778,176.931,734.778,176.931,744.708,177.306,744.708,177.306,734.778"/>
        <polyline fill="#0F0F0F" points="194.306,680.333,176.931,680.333,176.931,734.778,177.306,734.778,177.306,744.708,194.306,744.708,194.306,680.333"/>
        <polyline fill="#0F0F0F" points="149.306,680.333,131.931,680.333,131.931,734.778,149.306,734.778,149.306,680.333"/>
        <polyline fill="#0D0D0D" points="509.306,552.694,491.917,552.694,491.917,675.639,509.306,675.639,509.306,552.694"/>
        <polyline fill="#0D0D0D" points="464.292,552.694,446.917,552.694,446.917,675.639,464.292,675.639,464.292,552.694"/>
        <polyline fill="#0D0D0D" points="419.306,552.694,401.917,552.694,401.917,675.639,419.306,675.639,419.306,552.694"/>
        <polyline fill="#0D0D0D" points="374.306,552.694,356.944,552.694,356.944,675.639,374.306,675.639,374.306,552.694"/>
        <polyline fill="#0D0D0D" points="329.292,552.694,311.931,552.694,311.931,675.639,329.292,675.639,329.292,552.694"/>
        <polyline fill="#0D0D0D" points="284.292,552.694,266.931,552.694,266.931,675.639,284.292,675.639,284.292,552.694"/>
        <polyline fill="#0D0D0D" points="239.306,552.694,221.931,552.694,221.931,675.639,239.306,675.639,239.306,552.694"/>
        <polyline fill="#0D0D0D" points="194.306,552.694,176.931,552.694,176.931,675.639,194.306,675.639,194.306,552.694"/>
        <polyline fill="#0D0D0D" points="149.306,552.694,131.931,552.694,131.931,675.639,149.306,675.639,149.306,552.694"/>
        <polyline fill="#6F4813" points="487.056,552.694,483.681,552.694,483.681,656.347,473.042,656.347,473.042,552.694,469.681,552.694,469.681,656.347,487.056,656.347,487.056,552.694"/>
        <polyline fill="#6F4813" points="442.069,552.694,438.667,552.694,438.667,656.347,428.056,656.347,428.056,552.694,424.681,552.694,424.681,656.347,442.069,656.347,442.069,552.694"/>
        <polyline fill="#6F4813" points="397.056,552.694,393.667,552.694,393.667,656.347,383.167,656.347,383.167,552.694,379.667,552.694,379.667,656.347,397.056,656.347,397.056,552.694"/>
        <polyline fill="#6F4813" points="352.042,552.694,348.667,552.694,348.667,656.347,338.167,656.347,338.167,552.694,334.667,552.694,334.667,656.347,352.042,656.347,352.042,552.694"/>
        <polyline fill="#6F4813" points="307.056,552.694,303.556,552.694,303.556,656.347,293.056,656.347,293.056,552.694,289.681,552.694,289.681,656.347,307.056,656.347,307.056,552.694"/>
        <polyline fill="#6F4813" points="262.056,552.694,258.556,552.694,258.556,656.347,248.056,656.347,248.056,552.694,244.681,552.694,244.681,656.347,262.056,656.347,262.056,552.694"/>
        <polyline fill="#6F4813" points="217.056,552.694,213.681,552.694,213.681,656.347,203.056,656.347,203.056,552.694,199.681,552.694,199.681,656.347,217.056,656.347,217.056,552.694"/>
        <polyline fill="#6F4813" points="172.042,552.694,168.681,552.694,168.681,656.347,158.056,656.347,158.056,552.694,154.667,552.694,154.667,656.347,172.042,656.347,172.042,552.694"/>
        <polyline fill="#78592E" points="483.681,552.694,481.042,552.694,481.042,656.347,475.806,656.347,475.806,552.694,473.042,552.694,473.042,656.347,483.681,656.347,483.681,552.694"/>
        <polyline fill="#78592E" points="438.667,552.694,436.042,552.694,436.042,656.347,430.792,656.347,430.792,552.694,428.056,552.694,428.056,656.347,438.667,656.347,438.667,552.694"/>
        <polyline fill="#78592E" points="393.667,552.694,390.917,552.694,390.917,656.347,385.806,656.347,385.806,552.694,383.167,552.694,383.167,656.347,393.667,656.347,393.667,552.694"/>
        <polyline fill="#78592E" points="348.667,552.694,345.931,552.694,345.931,656.347,340.806,656.347,340.806,552.694,338.167,552.694,338.167,656.347,348.667,656.347,348.667,552.694"/>
        <polyline fill="#78592E" points="303.556,552.694,300.931,552.694,300.931,656.347,295.806,656.347,295.806,552.694,293.056,552.694,293.056,656.347,303.556,656.347,303.556,552.694"/>
        <polyline fill="#78592E" points="258.556,552.694,255.931,552.694,255.931,656.347,250.806,656.347,250.806,552.694,248.056,552.694,248.056,656.347,258.556,656.347,258.556,552.694"/>
        <polyline fill="#78592E" points="213.681,552.694,210.931,552.694,210.931,656.347,205.681,656.347,205.681,552.694,203.056,552.694,203.056,656.347,213.681,656.347,213.681,552.694"/>
        <polyline fill="#78592E" points="168.681,552.694,165.931,552.694,165.931,656.347,160.681,656.347,160.681,552.694,158.056,552.694,158.056,656.347,168.681,656.347,168.681,552.694"/>
        <polyline fill="#81694A" points="481.042,552.694,475.806,552.694,475.806,656.347,481.042,656.347,481.042,552.694"/>
        <polyline fill="#81694A" points="436.042,552.694,430.792,552.694,430.792,656.347,436.042,656.347,436.042,552.694"/>
        <polyline fill="#81694A" points="390.917,552.694,385.806,552.694,385.806,656.347,390.917,656.347,390.917,552.694"/>
        <polyline fill="#81694A" points="345.931,552.694,340.806,552.694,340.806,656.347,345.931,656.347,345.931,552.694"/>
        <polyline fill="#81694A" points="300.931,552.694,295.806,552.694,295.806,656.347,300.931,656.347,300.931,552.694"/>
        <polyline fill="#81694A" points="255.931,552.694,250.806,552.694,250.806,656.347,255.931,656.347,255.931,552.694"/>
        <polyline fill="#81694A" points="210.931,552.694,205.681,552.694,205.681,656.347,210.931,656.347,210.931,552.694"/>
        <polyline fill="#81694A" points="165.931,552.694,160.681,552.694,160.681,656.347,165.931,656.347,165.931,552.694"/>
        <polyline fill="#999999" points="624.542,786.208,16.5556,786.208,16.5556,789.333,624.542,789.333,624.542,786.208"/>
        <polyline fill="#999999" points="624.542,705.597,618.431,705.597,618.431,786.208,624.542,786.208,624.542,705.597"/>
       </g>
      </g>
     </g>
     <g>
      <path fill="#B3B3B3" d="M167.097,408.625c0,-5.5,4.5,-9.98611,10.0556,-9.98611l36.7917,0c5.5,0,10.0556,4.5,10.0556,9.98611l0,131.236c0,5.5,-4.5,9.98611,-10.0556,9.98611l-36.7917,0c-5.5,0,-10.0556,-4.48611,-10.0556,-9.98611L167.097,408.625z"/>
      <path fill="#B3B3B3" d="M417.194,408.625c0,-5.5,4.5,-9.98611,10.0694,-9.98611l36.7778,0c5.5,0,10.0694,4.5,10.0694,9.98611l0,131.236c0,5.5,-4.5,9.98611,-10.0694,9.98611l-36.7778,0c-5.5,0,-10.0694,-4.48611,-10.0694,-9.98611L417.194,408.625z"/>
      <path fill="#CCCCCC" d="M167.097,408.625c0,-5.5,4.5,-9.98611,10.0556,-9.98611l36.7917,0c5.5,0,10.0556,4.5,10.0556,9.98611l0,16.2222L167.083,424.847L167.097,408.625L167.097,408.625z"/>
      <path fill="#CCCCCC" d="M417.194,408.625c0,-5.5,4.5,-9.98611,10.0694,-9.98611l36.7778,0c5.5,0,10.0694,4.5,10.0694,9.98611l0,16.2222l-56.9167,0L417.194,408.625z"/>
      <rect width="56.9167" x="167.097" y="422.264" fill="#999999" height="56.4306"/>
      <rect width="56.9167" x="417.194" y="422.264" fill="#999999" height="56.4306"/>
      <rect width="56.9167" x="167.097" y="457.833" fill="#B3B3B3" height="53.8194"/>
      <rect width="56.9167" x="417.194" y="457.833" fill="#B3B3B3" height="53.8194"/>
      <rect width="56.9167" x="167.097" y="482.583" fill="#CCCCCC" height="20.4028"/>
      <rect width="56.9167" x="417.194" y="482.583" fill="#CCCCCC" height="20.4028"/>
      <rect width="56.9167" x="167.097" y="420.111" fill="#E6E6E6" height="4.31944"/>
      <rect width="56.9167" x="167.139" y="412.514" fill="#F2F2F2" height="6.79167"/>
      <path fill="#CCCCCC" d="M624.625,393.375L624.625,10.0139l0,-10l-10.0139,0L26.6389,0.0138889L16.6111,0.0138889l0,10l0,383.361l4,0l0,144.847L26.6667,538.222l119.819,0l10,0l0.652778,-9.95833l4.66667,-70.8889l4.66667,-70.8889c0.361111,-5.48611,5.16667,-9.97222,10.7083,-9.97222l37.0278,0c5.5,0,10.25,4.48611,10.6667,9.97222l4.66667,70.8889l4.66667,70.8889l0,0l0.666667,9.95833l10.0556,0l151.639,0l10.0139,0l0.680556,-9.95833l0,0l4.80556,-70.8889l4.83333,-70.9028c0.319444,-5.48611,5.18056,-9.95833,10.6667,-9.95833l36.5139,0c5.5,0,10.2778,4.47222,10.7083,9.95833l4.80556,70.9028l4.77778,70.8889l0,0l0.680556,9.95833l9.97222,0l119.819,0L620.833,538.222l0,-144.861L624.625,393.375L624.625,393.375z"/>
     </g>
     <rect width="48.2639" x="16.6111" opacity="0.37" fill="#E6E6E6" height="538.208" enable-background="new    "/>
     <rect width="48.2222" x="576.417" opacity="0.37" fill="#808080" height="538.208" enable-background="new    "/>
     <path opacity="0.45" fill="#E6E6E6" enable-background="new    " d="M195.528,538.208l-28.4306,0c0,0,0,-122.958,0,-129.583c0,-6.65278,6.01389,-10.0139,10.0556,-10.0139s18.375,0,18.375,0L195.528,538.208z"/>
     <path opacity="0.45" fill="#E6E6E6" enable-background="new    " d="M445.611,538.208l-28.375,0c0,0,0,-122.958,0,-129.583c0,-6.65278,5.94444,-10.0139,9.98611,-10.0139s18.3889,0,18.3889,0L445.611,538.208L445.611,538.208z"/>
     <path opacity="0.45" fill="#B3B3B3" enable-background="new    " d="M445.667,538.208l28.4444,0c0,0,0,-122.958,0,-129.583c0,-6.65278,-6.04167,-10.0139,-10.0833,-10.0139s-18.3611,0,-18.3611,0L445.667,538.208z"/>
     <path opacity="0.45" fill="#B3B3B3" enable-background="new    " d="M195.528,538.208l28.4861,0c0,0,0,-122.958,0,-129.583c0,-6.65278,-6.01389,-10.0139,-10.0556,-10.0139s-18.4306,0,-18.4306,0L195.528,538.208z"/>
     <rect width="56.9167" x="167.097" opacity="0.76" y="485.611" fill="#E6E6E6" height="11.2917" enable-background="new    "/>
     <rect width="56.9167" x="417.194" opacity="0.76" y="485.611" fill="#E6E6E6" height="11.2917" enable-background="new    "/>
     <rect width="56.9167" x="417.194" opacity="0.76" y="420.111" fill="#E6E6E6" height="4.31944" enable-background="new    "/>
     <rect width="56.875" x="417.25" opacity="0.76" y="413.972" fill="#F2F2F2" height="5.69444" enable-background="new    "/>
     <g>
      <g>
       <rect width="5.36111" x="0.152778" y="577.944" fill="#999999" height="23.5972"/>
       <rect width="5.36111" x="0.152778" y="577.944" fill="#999999" height="23.5972"/>
      </g>
      <path fill="#999999" d="M16.5556,667.403c0,0,-9.13889,-41.5417,-10.875,-65.8472L0.152778,601.556c1.73611,24.3056,10.875,65.8472,10.875,65.8472s3.52778,20.7917,5.51389,26.4306C16.5556,680.375,16.5556,667.403,16.5556,667.403z"/>
      <path fill="#CCCCCC" d="M16.5556,643.958c0,0,-9.29167,-41.7083,-11.0278,-66.0139L0,577.944c1.73611,24.3056,11.0278,66.0139,11.0278,66.0139s3.52778,20.7917,5.51389,26.4306C16.5556,656.944,16.5556,643.958,16.5556,643.958z"/>
     </g>
     <g>
      <g>
       <rect width="5.36111" x="635.708" y="577.944" fill="#999999" height="23.5972"/>
       <rect width="5.36111" x="635.708" y="577.944" fill="#999999" height="23.5972"/>
      </g>
      <path fill="#999999" d="M624.667,667.403c0,0,9.125,-41.5417,10.8611,-65.8472l5.51389,0c-1.73611,24.3056,-10.8611,65.8472,-10.8611,65.8472s-3.52778,20.7917,-5.51389,26.4306C624.667,680.375,624.667,667.403,624.667,667.403z"/>
      <path fill="#CCCCCC" d="M624.667,643.958c0,0,9.30556,-41.7083,11.0417,-66.0139l5.51389,0c-1.73611,24.3056,-11.0417,66.0139,-11.0417,66.0139s-3.52778,20.7917,-5.51389,26.4306C624.667,656.944,624.667,643.958,624.667,643.958z"/>
     </g>
    </g>
   </g>
  </g>
  <g transform="translate(254.646,934.05)">
   <rect width="31.93" x="0" y="0" fill="#8D8C8C" height="31.9" id="connector0pin"/>
   <rect width="16.4442" x="7.79153" y="7.73544" fill="#8C8663" height="16.4152"/>
   <polygon fill="#B8AF82" points="0,31.9,7.79153,24.1368,7.79153,6.97162,0,0"/>
   <polygon fill="#80795B" points="24.2079,7.76321,7.90264,7.76321,0,0,31.93,0"/>
   <polygon fill="#5E5B43" points="24.2079,24.1368,24.2079,7.76321,31.93,0,31.93,31.9"/>
   <polygon fill="#9A916C" points="0,31.9,7.87486,24.1368,24.2079,24.1368,31.93,31.9"/>
  </g>
  <g transform="translate(254.646,34.05)">
   <rect width="31.93" x="0" y="0" fill="#8D8C8C" height="31.9" id="connector7pin"/>
   <rect width="16.4442" x="7.79153" y="7.73544" fill="#8C8663" height="16.4152"/>
   <polygon fill="#B8AF82" points="0,31.9,7.79153,24.1368,7.79153,6.97162,0,0"/>
   <polygon fill="#80795B" points="24.2079,7.76321,7.90264,7.76321,0,0,31.93,0"/>
   <polygon fill="#5E5B43" points="24.2079,24.1368,24.2079,7.76321,31.93,0,31.93,31.9"/>
   <polygon fill="#9A916C" points="0,31.9,7.87486,24.1368,24.2079,24.1368,31.93,31.9"/>
  </g>
  <g transform="translate(354.646,934.05)">
   <rect width="31.93" x="0" y="0" fill="#8D8C8C" height="31.9" id="connector1pin"/>
   <rect width="16.4442" x="7.79153" y="7.73544" fill="#8C8663" height="16.4152"/>
   <polygon fill="#B8AF82" points="0,31.9,7.79153,24.1368,7.79153,6.97162,0,0"/>
   <polygon fill="#80795B" points="24.2079,7.76321,7.90264,7.76321,0,0,31.93,0"/>
   <polygon fill="#5E5B43" points="24.2079,24.1368,24.2079,7.76321,31.93,0,31.93,31.9"/>
   <polygon fill="#9A916C" points="0,31.9,7.87486,24.1368,24.2079,24.1368,31.93,31.9"/>
  </g>
  <g transform="translate(354.646,34.05)">
   <rect width="31.93" x="0" y="0" fill="#8D8C8C" height="31.9" id="connector6pin"/>
   <rect width="16.4442" x="7.79153" y="7.73544" fill="#8C8663" height="16.4152"/>
   <polygon fill="#B8AF82" points="0,31.9,7.79153,24.1368,7.79153,6.97162,0,0"/>
   <polygon fill="#80795B" points="24.2079,7.76321,7.90264,7.76321,0,0,31.93,0"/>
   <polygon fill="#5E5B43" points="24.2079,24.1368,24.2079,7.76321,31.93,0,31.93,31.9"/>
   <polygon fill="#9A916C" points="0,31.9,7.87486,24.1368,24.2079,24.1368,31.93,31.9"/>
  </g>
  <g transform="translate(454.646,934.05)">
   <rect width="31.93" x="0" y="0" fill="#8D8C8C" height="31.9" id="connector2pin"/>
   <rect width="16.4442" x="7.79153" y="7.73544" fill="#8C8663" height="16.4152"/>
   <polygon fill="#B8AF82" points="0,31.9,7.79153,24.1368,7.79153,6.97162,0,0"/>
   <polygon fill="#80795B" points="24.2079,7.76321,7.90264,7.76321,0,0,31.93,0"/>
   <polygon fill="#5E5B43" points="24.2079,24.1368,24.2079,7.76321,31.93,0,31.93,31.9"/>
   <polygon fill="#9A916C" points="0,31.9,7.87486,24.1368,24.2079,24.1368,31.93,31.9"/>
  </g>
  <g transform="translate(454.646,34.05)">
   <rect width="31.93" x="0" y="0" fill="#8D8C8C" height="31.9" id="connector5pin"/>
   <rect width="16.4442" x="7.79153" y="7.73544" fill="#8C8663" height="16.4152"/>
   <polygon fill="#B8AF82" points="0,31.9,7.79153,24.1368,7.79153,6.97162,0,0"/>
   <polygon fill="#80795B" points="24.2079,7.76321,7.90264,7.76321,0,0,31.93,0"/>
   <polygon fill="#5E5B43" points="24.2079,24.1368,24.2079,7.76321,31.93,0,31.93,31.9"/>
   <polygon fill="#9A916C" points="0,31.9,7.87486,24.1368,24.2079,24.1368,31.93,31.9"/>
  </g>
  <g transform="translate(554.646,934.05)">
   <rect width="31.93" x="0" y="0" fill="#8D8C8C" height="31.9" id="connector3pin"/>
   <rect width="16.4442" x="7.79153" y="7.73544" fill="#8C8663" height="16.4152"/>
   <polygon fill="#B8AF82" points="0,31.9,7.79153,24.1368,7.79153,6.97162,0,0"/>
   <polygon fill="#80795B" points="24.2079,7.76321,7.90264,7.76321,0,0,31.93,0"/>
   <polygon fill="#5E5B43" points="24.2079,24.1368,24.2079,7.76321,31.93,0,31.93,31.9"/>
   <polygon fill="#9A916C" points="0,31.9,7.87486,24.1368,24.2079,24.1368,31.93,31.9"/>
  </g>
  <g transform="translate(554.646,34.05)">
   <rect width="31.93" x="0" y="0" fill="#8D8C8C" height="31.9" id="connector4pin"/>
   <rect width="16.4442" x="7.79153" y="7.73544" fill="#8C8663" height="16.4152"/>
   <polygon fill="#B8AF82" points="0,31.9,7.79153,24.1368,7.79153,6.97162,0,0"/>
   <polygon fill="#80795B" points="24.2079,7.76321,7.90264,7.76321,0,0,31.93,0"/>
   <polygon fill="#5E5B43" points="24.2079,24.1368,24.2079,7.76321,31.93,0,31.93,31.9"/>
   <polygon fill="#9A916C" points="0,31.9,7.87486,24.1368,24.2079,24.1368,31.93,31.9"/>
  </g>
 </g>
</svg>
