<?xml version='1.0' encoding='UTF-8' standalone='no'?>
<!-- Created with Fritzing (http://www.fritzing.org/) -->
<svg xmlns="http://www.w3.org/2000/svg" width="0.5in" x="0in" version="1.2" y="0in"  height="0.6in" viewBox="0 0 500 600" baseProfile="tiny" xmlns:svg="http://www.w3.org/2000/svg">
 <desc>Fritzing breadboard generated by brd2svg</desc>
 <g id="breadboard">
  <g id="icon">
   <path fill="#1F7A34" stroke="none" stroke-width="0" d="M0,0L0,270A30,30 0 0 1 0,330L0,600L500,600L500,0L0,0z"/>
   <g transform="translate(178.111,185.597)">
    <g>
     <g>
      <g>
       <g>
        <rect width="15.7639" x="0" y="75.0972" fill="#F7BD13" height="7.875"/>
       </g>
       <g>
        <rect width="15.7639" x="0" y="94.8194" fill="#F7BD13" height="7.875"/>
       </g>
       <g>
        <rect width="15.7639" x="0" y="114.542" fill="#F7BD13" height="7.875"/>
       </g>
       <g>
        <rect width="15.7639" x="0" y="134.264" fill="#F7BD13" height="7.88889"/>
       </g>
       <g>
        <rect width="15.7639" x="0" y="153.986" fill="#F7BD13" height="7.88889"/>
       </g>
       <rect width="15.625" x="0" opacity="0.2" y="153.931" fill="#FFFFFF" height="1.25"/>
       <rect width="15.625" x="0" opacity="0.2" y="161.264" height="0.680556"/>
       <rect width="15.625" x="0" opacity="0.2" y="134.194" fill="#FFFFFF" height="1.27778"/>
       <rect width="15.625" x="0" opacity="0.2" y="141.542" height="0.680556"/>
       <rect width="15.625" x="0" opacity="0.2" y="114.472" fill="#FFFFFF" height="1.26389"/>
       <rect width="15.625" x="0" opacity="0.2" y="121.792" height="0.708333"/>
       <rect width="15.625" x="0" opacity="0.2" y="94.75" fill="#FFFFFF" height="1.26389"/>
       <rect width="15.625" x="0" opacity="0.2" y="102.083" height="0.694444"/>
       <rect width="15.625" x="0" opacity="0.2" y="75.0278" fill="#FFFFFF" height="1.26389"/>
       <rect width="15.625" x="0" opacity="0.2" y="82.3611" height="0.694444"/>
      </g>
      <polygon fill="#CCCCCC" points="127.819,228.806,127.819,16.1944,15.7639,16.1944,15.7639,228.806,59.6944,228.806,61.8472,225.792,81.7639,225.792,83.9028,228.778"/>
      <g>
       <polygon fill="#F2F2F2" points="15.7639,0,15.7639,212.611,59.6944,212.611,61.8472,209.597,81.7639,209.597,83.9028,212.611,127.819,212.611,127.819,0"/>
       <rect width="24.2083" x="59.6944" y="3.72222" fill="#E6E6E6" height="10"/>
       <rect width="73.1667" x="35.2222" y="24.7222" fill="#E6E6E6" height="162.889"/>
       <rect width="73.1667" x="35.2222" y="24.7222" fill="#CCCCCC" height="13.1528"/>
       <rect width="24.2083" x="59.6944" y="13.1389" fill="#CCCCCC" height="11.5694"/>
       <rect width="24.2083" x="59.6944" y="182.778" fill="#E6E6E6" height="22.3472"/>
       <rect width="24.2083" x="59.6944" y="174.444" fill="#F2F2F2" height="13.1528"/>
      </g>
      <polyline fill="#B3B3B3" points="83.9028,228.778,83.9028,212.611,83.9028,212.611,81.7639,209.597,61.8472,209.597,59.6944,212.611,59.6944,228.806,61.8472,225.792,81.7639,225.792,83.9028,228.778"/>
      <g>
       <g>
        <rect width="19.4444" x="15.7639" y="54.6944" fill="#E6E6E6" height="4.34722"/>
       </g>
       <g>
        <rect width="19.4444" x="15.7639" y="74.4028" fill="#E6E6E6" height="4.34722"/>
       </g>
       <g>
        <rect width="19.4444" x="15.7639" y="94.125" fill="#E6E6E6" height="4.34722"/>
       </g>
       <g>
        <rect width="19.4444" x="15.7639" y="113.847" fill="#E6E6E6" height="4.36111"/>
       </g>
       <g>
        <rect width="19.4444" x="15.7639" y="133.569" fill="#E6E6E6" height="4.36111"/>
       </g>
       <g>
        <rect width="19.4444" x="15.7639" y="137.931" fill="#CCCCCC" height="12.2083"/>
       </g>
       <g>
        <rect width="19.4306" x="15.9583" y="118.264" fill="#CCCCCC" height="12.2083"/>
       </g>
       <g>
        <rect width="19.4444" x="15.7639" y="98.4861" fill="#CCCCCC" height="12.2083"/>
       </g>
       <g>
        <rect width="19.4444" x="15.7639" y="78.7639" fill="#CCCCCC" height="12.2083"/>
       </g>
       <g>
        <rect width="19.4444" x="15.7639" y="59.0417" fill="#CCCCCC" height="12.2083"/>
       </g>
       <g>
        <rect width="19.4444" x="15.7639" y="153.319" fill="#E6E6E6" height="4.34722"/>
       </g>
      </g>
      <g>
       <g>
        <rect width="8.75" x="16.7361" y="62.2083" fill="#F7BD13" height="7.95833"/>
        <rect width="4.86111" x="30.3611" y="62.2083" fill="#F7BD13" height="7.95833"/>
        <polygon fill="#DCA811" points="26.1944,71.25,25.5,71.25,25.5,62.2083"/>
        <polygon fill="#DCA811" points="29.6528,71.25,30.3611,71.25,30.3611,62.2083"/>
        <polygon fill="#DCA811" points="16.0417,71.25,16.7361,71.25,16.7361,62.2083"/>
        <polygon fill="#DCA811" points="15.0833,83.0139,15.7917,83.0139,15.7917,73.9583"/>
        <rect width="8.75" x="16.7361" opacity="0.2" y="62.2083" fill="#FFFFFF" height="1.26389"/>
        <rect width="5.02778" x="30.3611" opacity="0.2" y="62.2083" fill="#FFFFFF" height="1.26389"/>
        <rect width="8.75" x="16.7361" opacity="0.2" y="69.5278" height="0.694444"/>
        <rect width="5.02778" x="30.3611" opacity="0.2" y="69.5278" height="0.694444"/>
        <rect width="19.4444" x="15.7639" opacity="0.2" y="78.7639" height="1.41667"/>
       </g>
       <g>
        <rect width="8.75" x="16.7361" y="81.9167" fill="#F7BD13" height="7.95833"/>
        <rect width="4.86111" x="30.3611" y="81.9167" fill="#F7BD13" height="7.95833"/>
        <polygon fill="#DCA811" points="26.1944,90.9722,25.5,90.9722,25.5,81.9167"/>
        <polygon fill="#DCA811" points="29.6528,90.9722,30.3611,90.9722,30.3611,81.9167"/>
        <polygon fill="#DCA811" points="16.0417,90.9722,16.7361,90.9722,16.7361,81.9167"/>
        <polygon fill="#DCA811" points="15.0833,102.722,15.7917,102.722,15.7917,93.6806"/>
        <rect width="8.75" x="16.7361" opacity="0.2" y="81.9167" fill="#FFFFFF" height="1.26389"/>
        <rect width="5.02778" x="30.3611" opacity="0.2" y="81.9167" fill="#FFFFFF" height="1.26389"/>
        <rect width="8.75" x="16.7361" opacity="0.2" y="89.25" height="0.694444"/>
        <rect width="5.02778" x="30.3611" opacity="0.2" y="89.25" height="0.694444"/>
        <rect width="19.4444" x="15.7639" opacity="0.2" y="98.4861" height="1.41667"/>
       </g>
       <g>
        <rect width="8.75" x="16.7361" y="101.639" fill="#F7BD13" height="7.95833"/>
        <rect width="4.86111" x="30.3611" y="101.639" fill="#F7BD13" height="7.95833"/>
        <polygon fill="#DCA811" points="26.1944,110.694,25.5,110.694,25.5,101.639"/>
        <polygon fill="#DCA811" points="29.6528,110.694,30.3611,110.694,30.3611,101.639"/>
        <polygon fill="#DCA811" points="16.0417,110.694,16.7361,110.694,16.7361,101.639"/>
        <polygon fill="#DCA811" points="15.0833,122.444,15.7917,122.444,15.7917,113.403"/>
        <rect width="8.75" x="16.7361" opacity="0.2" y="101.639" fill="#FFFFFF" height="1.26389"/>
        <rect width="5.02778" x="30.3611" opacity="0.2" y="101.639" fill="#FFFFFF" height="1.26389"/>
        <rect width="8.75" x="16.7361" opacity="0.2" y="108.972" height="0.694444"/>
        <rect width="5.02778" x="30.3611" opacity="0.2" y="108.972" height="0.694444"/>
        <rect width="19.4444" x="15.7639" opacity="0.2" y="118.208" height="1.41667"/>
       </g>
       <g>
        <rect width="8.75" x="16.7361" y="121.361" fill="#F7BD13" height="7.97222"/>
        <rect width="4.86111" x="30.3611" y="121.361" fill="#F7BD13" height="7.97222"/>
        <polygon fill="#DCA811" points="26.1944,130.417,25.5,130.417,25.5,121.361"/>
        <polygon fill="#DCA811" points="29.6528,130.417,30.3611,130.417,30.3611,121.361"/>
        <polygon fill="#DCA811" points="16.0417,130.417,16.7361,130.417,16.7361,121.361"/>
        <polygon fill="#DCA811" points="15.0833,142.194,15.7917,142.194,15.7917,133.125"/>
        <rect width="8.75" x="16.7361" opacity="0.2" y="121.361" fill="#FFFFFF" height="1.27778"/>
        <rect width="5.02778" x="30.3611" opacity="0.2" y="121.361" fill="#FFFFFF" height="1.27778"/>
        <rect width="8.75" x="16.7361" opacity="0.2" y="128.681" height="0.708333"/>
        <rect width="5.02778" x="30.3611" opacity="0.2" y="128.681" height="0.708333"/>
        <rect width="19.4444" x="15.7639" opacity="0.2" y="137.931" height="1.41667"/>
       </g>
       <g>
        <rect width="8.75" x="16.7361" y="141.111" fill="#F7BD13" height="7.94444"/>
        <rect width="4.86111" x="30.3611" y="141.111" fill="#F7BD13" height="7.94444"/>
        <polygon fill="#DCA811" points="26.1944,150.139,25.5,150.139,25.5,141.111"/>
        <polygon fill="#DCA811" points="29.6528,150.139,30.3611,150.139,30.3611,141.111"/>
        <polygon fill="#DCA811" points="16.0417,150.139,16.7361,150.139,16.7361,141.111"/>
        <polygon fill="#DCA811" points="15.0833,161.917,15.7917,161.917,15.7917,152.847"/>
        <rect width="8.75" x="16.7361" opacity="0.2" y="141.111" fill="#FFFFFF" height="1.25"/>
        <rect width="5.02778" x="30.3611" opacity="0.2" y="141.111" fill="#FFFFFF" height="1.25"/>
        <rect width="8.75" x="16.7361" opacity="0.2" y="148.431" height="0.680556"/>
        <rect width="5.02778" x="30.3611" opacity="0.2" y="148.431" height="0.680556"/>
        <rect width="19.4444" x="15.7639" opacity="0.2" y="157.653" height="1.41667"/>
       </g>
      </g>
      <g>
       <g>
        <rect width="19.4306" x="108.569" y="54.6944" fill="#E6E6E6" height="4.34722"/>
       </g>
       <g>
        <rect width="19.4306" x="108.569" y="74.4028" fill="#E6E6E6" height="4.34722"/>
       </g>
       <g>
        <rect width="19.4306" x="108.569" y="94.125" fill="#E6E6E6" height="4.34722"/>
       </g>
       <g>
        <rect width="19.4306" x="108.569" y="113.847" fill="#E6E6E6" height="4.36111"/>
       </g>
       <g>
        <rect width="19.4306" x="108.569" y="133.569" fill="#E6E6E6" height="4.36111"/>
       </g>
       <g>
        <rect width="19.4306" x="108.569" y="137.931" fill="#CCCCCC" height="12.2083"/>
       </g>
       <g>
        <rect width="19.4306" x="108.389" y="118.264" fill="#CCCCCC" height="12.2083"/>
       </g>
       <g>
        <rect width="19.4306" x="108.569" y="98.4861" fill="#CCCCCC" height="12.2083"/>
       </g>
       <g>
        <rect width="19.4306" x="108.569" y="78.7639" fill="#CCCCCC" height="12.2083"/>
       </g>
       <g>
        <rect width="19.4306" x="108.569" y="59.0417" fill="#CCCCCC" height="12.2083"/>
       </g>
       <g>
        <rect width="19.4306" x="108.569" y="153.319" fill="#E6E6E6" height="4.34722"/>
       </g>
      </g>
      <g>
       <g>
        <rect width="15.7778" x="128" y="75.0972" fill="#F7BD13" height="7.875"/>
       </g>
       <g>
        <rect width="15.7778" x="128" y="94.8194" fill="#F7BD13" height="7.875"/>
       </g>
       <g>
        <rect width="15.7778" x="128" y="114.542" fill="#F7BD13" height="7.875"/>
       </g>
       <g>
        <rect width="15.7778" x="128" y="134.264" fill="#F7BD13" height="7.88889"/>
       </g>
       <g>
        <rect width="15.7778" x="128" y="153.986" fill="#F7BD13" height="7.88889"/>
       </g>
       <rect width="15.625" x="128.153" opacity="0.2" y="153.931" fill="#FFFFFF" height="1.25"/>
       <rect width="15.625" x="128.153" opacity="0.2" y="161.264" height="0.680556"/>
       <rect width="15.625" x="128.153" opacity="0.2" y="134.194" fill="#FFFFFF" height="1.27778"/>
       <rect width="15.625" x="128.153" opacity="0.2" y="141.542" height="0.680556"/>
       <rect width="15.625" x="128.153" opacity="0.2" y="114.472" fill="#FFFFFF" height="1.26389"/>
       <rect width="15.625" x="128.153" opacity="0.2" y="121.792" height="0.708333"/>
       <rect width="15.625" x="128.153" opacity="0.2" y="94.75" fill="#FFFFFF" height="1.26389"/>
       <rect width="15.625" x="128.153" opacity="0.2" y="102.083" height="0.694444"/>
       <rect width="15.625" x="128.153" opacity="0.2" y="75.0278" fill="#FFFFFF" height="1.26389"/>
       <rect width="15.625" x="128.153" opacity="0.2" y="82.3611" height="0.694444"/>
      </g>
      <g>
       <g>
        <rect width="8.76389" x="118.278" y="62.2083" fill="#F7BD13" height="7.95833"/>
        <rect width="4.86111" x="108.569" y="62.2083" fill="#F7BD13" height="7.95833"/>
        <polygon fill="#DCA811" points="117.569,71.25,118.278,71.25,118.278,62.2083"/>
        <polygon fill="#DCA811" points="114.125,71.25,113.417,71.25,113.417,62.2083"/>
        <polygon fill="#DCA811" points="127.75,71.25,127.042,71.25,127.042,62.2083"/>
        <polygon fill="#DCA811" points="128.694,83.0139,127.986,83.0139,127.986,73.9583"/>
        <rect width="8.76389" x="118.278" opacity="0.2" y="62.2083" fill="#FFFFFF" height="1.26389"/>
        <rect width="5.02778" x="108.389" opacity="0.2" y="62.2083" fill="#FFFFFF" height="1.26389"/>
        <rect width="8.76389" x="118.278" opacity="0.2" y="69.5278" height="0.694444"/>
        <rect width="5.02778" x="108.389" opacity="0.2" y="69.5278" height="0.694444"/>
        <rect width="19.4306" x="108.569" opacity="0.2" y="78.7639" height="1.41667"/>
       </g>
       <g>
        <rect width="8.76389" x="118.278" y="81.9167" fill="#F7BD13" height="7.95833"/>
        <rect width="4.86111" x="108.569" y="81.9167" fill="#F7BD13" height="7.95833"/>
        <polygon fill="#DCA811" points="117.569,90.9722,118.278,90.9722,118.278,81.9167"/>
        <polygon fill="#DCA811" points="114.125,90.9722,113.417,90.9722,113.417,81.9167"/>
        <polygon fill="#DCA811" points="127.75,90.9722,127.042,90.9722,127.042,81.9167"/>
        <polygon fill="#DCA811" points="128.694,102.722,127.986,102.722,127.986,93.6806"/>
        <rect width="8.76389" x="118.278" opacity="0.2" y="81.9167" fill="#FFFFFF" height="1.26389"/>
        <rect width="5.02778" x="108.389" opacity="0.2" y="81.9167" fill="#FFFFFF" height="1.26389"/>
        <rect width="8.76389" x="118.278" opacity="0.2" y="89.25" height="0.694444"/>
        <rect width="5.02778" x="108.389" opacity="0.2" y="89.25" height="0.694444"/>
        <rect width="19.4306" x="108.569" opacity="0.2" y="98.4861" height="1.41667"/>
       </g>
       <g>
        <rect width="8.76389" x="118.278" y="101.639" fill="#F7BD13" height="7.95833"/>
        <rect width="4.86111" x="108.569" y="101.639" fill="#F7BD13" height="7.95833"/>
        <polygon fill="#DCA811" points="117.569,110.694,118.278,110.694,118.278,101.639"/>
        <polygon fill="#DCA811" points="114.125,110.694,113.417,110.694,113.417,101.639"/>
        <polygon fill="#DCA811" points="127.75,110.694,127.042,110.694,127.042,101.639"/>
        <polygon fill="#DCA811" points="128.694,122.444,127.986,122.444,127.986,113.403"/>
        <rect width="8.76389" x="118.278" opacity="0.2" y="101.639" fill="#FFFFFF" height="1.26389"/>
        <rect width="5.02778" x="108.389" opacity="0.2" y="101.639" fill="#FFFFFF" height="1.26389"/>
        <rect width="8.76389" x="118.278" opacity="0.2" y="108.972" height="0.694444"/>
        <rect width="5.02778" x="108.389" opacity="0.2" y="108.972" height="0.694444"/>
        <rect width="19.4306" x="108.569" opacity="0.2" y="118.208" height="1.41667"/>
       </g>
       <g>
        <rect width="8.76389" x="118.278" y="121.361" fill="#F7BD13" height="7.97222"/>
        <rect width="4.86111" x="108.569" y="121.361" fill="#F7BD13" height="7.97222"/>
        <polygon fill="#DCA811" points="117.569,130.417,118.278,130.417,118.278,121.361"/>
        <polygon fill="#DCA811" points="114.125,130.417,113.417,130.417,113.417,121.361"/>
        <polygon fill="#DCA811" points="127.75,130.417,127.042,130.417,127.042,121.361"/>
        <polygon fill="#DCA811" points="128.694,142.194,127.986,142.194,127.986,133.125"/>
        <rect width="8.76389" x="118.278" opacity="0.2" y="121.361" fill="#FFFFFF" height="1.27778"/>
        <rect width="5.02778" x="108.389" opacity="0.2" y="121.361" fill="#FFFFFF" height="1.27778"/>
        <rect width="8.76389" x="118.278" opacity="0.2" y="128.681" height="0.708333"/>
        <rect width="5.02778" x="108.389" opacity="0.2" y="128.681" height="0.708333"/>
        <rect width="19.4306" x="108.569" opacity="0.2" y="137.931" height="1.41667"/>
       </g>
       <g>
        <rect width="8.76389" x="118.278" y="141.111" fill="#F7BD13" height="7.94444"/>
        <rect width="4.86111" x="108.569" y="141.111" fill="#F7BD13" height="7.94444"/>
        <polygon fill="#DCA811" points="117.569,150.139,118.278,150.139,118.278,141.111"/>
        <polygon fill="#DCA811" points="114.125,150.139,113.417,150.139,113.417,141.111"/>
        <polygon fill="#DCA811" points="127.75,150.139,127.042,150.139,127.042,141.111"/>
        <polygon fill="#DCA811" points="128.694,161.917,127.986,161.917,127.986,152.847"/>
        <rect width="8.76389" x="118.278" opacity="0.2" y="141.111" fill="#FFFFFF" height="1.25"/>
        <rect width="5.02778" x="108.389" opacity="0.2" y="141.111" fill="#FFFFFF" height="1.25"/>
        <rect width="8.76389" x="118.278" opacity="0.2" y="148.431" height="0.680556"/>
        <rect width="5.02778" x="108.389" opacity="0.2" y="148.431" height="0.680556"/>
        <rect width="19.4306" x="108.569" opacity="0.2" y="157.653" height="1.41667"/>
       </g>
      </g>
     </g>
     <g opacity="0.2">
      <rect width="112.056" x="15.7639" fill="#FFFFFF" height="1.97222"/>
      <rect width="73.1667" x="35.2222" y="187.597" fill="#FFFFFF" height="1.98611"/>
      <rect width="24.2083" x="59.6944" y="13.1389" fill="#FFFFFF" height="1.97222"/>
      <rect width="24.2083" x="59.6944" y="174.444" fill="#FFFFFF" height="1.98611"/>
     </g>
     <g opacity="0.2">
      <polygon points="127.819,228.806,83.9028,228.778,81.7639,225.792,61.8472,225.792,59.6944,228.806,15.7639,228.806,15.7639,227.403,59.6944,227.403,61.8472,224.389,81.7639,224.389,83.9028,227.375,127.819,227.403"/>
      <polygon fill="#FFFFFF" points="127.819,212.611,83.9028,212.611,81.7639,209.597,61.8472,209.597,59.6944,212.611,15.7639,212.611,15.7639,211.208,59.6944,211.208,61.8472,208.194,81.7639,208.194,83.9028,211.208,127.819,211.208"/>
      <rect width="24.4722" x="35.2222" y="24.7222" height="1.41667"/>
      <rect width="24.4861" x="83.9028" y="24.7222" height="1.41667"/>
      <rect width="73.1667" x="35.2222" y="37.875" height="1.41667"/>
      <rect width="24.2083" x="59.6944" y="205.125" height="1.41667"/>
     </g>
    </g>
   </g>
  </g>
  <g transform="translate(34.035,534.05)">
   <rect width="31.93" x="0" y="0" fill="#8D8C8C" height="31.9" id="connector0pin"/>
   <rect width="16.4442" x="7.79153" y="7.73544" fill="#8C8663" height="16.4152"/>
   <polygon fill="#B8AF82" points="0,31.9,7.79153,24.1368,7.79153,6.97162,0,0"/>
   <polygon fill="#80795B" points="24.2079,7.76321,7.90264,7.76321,0,0,31.93,0"/>
   <polygon fill="#5E5B43" points="24.2079,24.1368,24.2079,7.76321,31.93,0,31.93,31.9"/>
   <polygon fill="#9A916C" points="0,31.9,7.87486,24.1368,24.2079,24.1368,31.93,31.9"/>
  </g>
  <g transform="translate(34.035,34.05)">
   <rect width="31.93" x="0" y="0" fill="#8D8C8C" height="31.9" id="connector9pin"/>
   <rect width="16.4442" x="7.79153" y="7.73544" fill="#8C8663" height="16.4152"/>
   <polygon fill="#B8AF82" points="0,31.9,7.79153,24.1368,7.79153,6.97162,0,0"/>
   <polygon fill="#80795B" points="24.2079,7.76321,7.90264,7.76321,0,0,31.93,0"/>
   <polygon fill="#5E5B43" points="24.2079,24.1368,24.2079,7.76321,31.93,0,31.93,31.9"/>
   <polygon fill="#9A916C" points="0,31.9,7.87486,24.1368,24.2079,24.1368,31.93,31.9"/>
  </g>
  <g transform="translate(134.035,534.05)">
   <rect width="31.93" x="0" y="0" fill="#8D8C8C" height="31.9" id="connector1pin"/>
   <rect width="16.4442" x="7.79153" y="7.73544" fill="#8C8663" height="16.4152"/>
   <polygon fill="#B8AF82" points="0,31.9,7.79153,24.1368,7.79153,6.97162,0,0"/>
   <polygon fill="#80795B" points="24.2079,7.76321,7.90264,7.76321,0,0,31.93,0"/>
   <polygon fill="#5E5B43" points="24.2079,24.1368,24.2079,7.76321,31.93,0,31.93,31.9"/>
   <polygon fill="#9A916C" points="0,31.9,7.87486,24.1368,24.2079,24.1368,31.93,31.9"/>
  </g>
  <g transform="translate(134.035,34.05)">
   <rect width="31.93" x="0" y="0" fill="#8D8C8C" height="31.9" id="connector8pin"/>
   <rect width="16.4442" x="7.79153" y="7.73544" fill="#8C8663" height="16.4152"/>
   <polygon fill="#B8AF82" points="0,31.9,7.79153,24.1368,7.79153,6.97162,0,0"/>
   <polygon fill="#80795B" points="24.2079,7.76321,7.90264,7.76321,0,0,31.93,0"/>
   <polygon fill="#5E5B43" points="24.2079,24.1368,24.2079,7.76321,31.93,0,31.93,31.9"/>
   <polygon fill="#9A916C" points="0,31.9,7.87486,24.1368,24.2079,24.1368,31.93,31.9"/>
  </g>
  <g transform="translate(234.035,534.05)">
   <rect width="31.93" x="0" y="0" fill="#8D8C8C" height="31.9" id="connector2pin"/>
   <rect width="16.4442" x="7.79153" y="7.73544" fill="#8C8663" height="16.4152"/>
   <polygon fill="#B8AF82" points="0,31.9,7.79153,24.1368,7.79153,6.97162,0,0"/>
   <polygon fill="#80795B" points="24.2079,7.76321,7.90264,7.76321,0,0,31.93,0"/>
   <polygon fill="#5E5B43" points="24.2079,24.1368,24.2079,7.76321,31.93,0,31.93,31.9"/>
   <polygon fill="#9A916C" points="0,31.9,7.87486,24.1368,24.2079,24.1368,31.93,31.9"/>
  </g>
  <g transform="translate(234.035,34.05)">
   <rect width="31.93" x="0" y="0" fill="#8D8C8C" height="31.9" id="connector7pin"/>
   <rect width="16.4442" x="7.79153" y="7.73544" fill="#8C8663" height="16.4152"/>
   <polygon fill="#B8AF82" points="0,31.9,7.79153,24.1368,7.79153,6.97162,0,0"/>
   <polygon fill="#80795B" points="24.2079,7.76321,7.90264,7.76321,0,0,31.93,0"/>
   <polygon fill="#5E5B43" points="24.2079,24.1368,24.2079,7.76321,31.93,0,31.93,31.9"/>
   <polygon fill="#9A916C" points="0,31.9,7.87486,24.1368,24.2079,24.1368,31.93,31.9"/>
  </g>
  <g transform="translate(334.035,534.05)">
   <rect width="31.93" x="0" y="0" fill="#8D8C8C" height="31.9" id="connector3pin"/>
   <rect width="16.4442" x="7.79153" y="7.73544" fill="#8C8663" height="16.4152"/>
   <polygon fill="#B8AF82" points="0,31.9,7.79153,24.1368,7.79153,6.97162,0,0"/>
   <polygon fill="#80795B" points="24.2079,7.76321,7.90264,7.76321,0,0,31.93,0"/>
   <polygon fill="#5E5B43" points="24.2079,24.1368,24.2079,7.76321,31.93,0,31.93,31.9"/>
   <polygon fill="#9A916C" points="0,31.9,7.87486,24.1368,24.2079,24.1368,31.93,31.9"/>
  </g>
  <g transform="translate(334.035,34.05)">
   <rect width="31.93" x="0" y="0" fill="#8D8C8C" height="31.9" id="connector6pin"/>
   <rect width="16.4442" x="7.79153" y="7.73544" fill="#8C8663" height="16.4152"/>
   <polygon fill="#B8AF82" points="0,31.9,7.79153,24.1368,7.79153,6.97162,0,0"/>
   <polygon fill="#80795B" points="24.2079,7.76321,7.90264,7.76321,0,0,31.93,0"/>
   <polygon fill="#5E5B43" points="24.2079,24.1368,24.2079,7.76321,31.93,0,31.93,31.9"/>
   <polygon fill="#9A916C" points="0,31.9,7.87486,24.1368,24.2079,24.1368,31.93,31.9"/>
  </g>
  <g transform="translate(434.035,534.05)">
   <rect width="31.93" x="0" y="0" fill="#8D8C8C" height="31.9" id="connector4pin"/>
   <rect width="16.4442" x="7.79153" y="7.73544" fill="#8C8663" height="16.4152"/>
   <polygon fill="#B8AF82" points="0,31.9,7.79153,24.1368,7.79153,6.97162,0,0"/>
   <polygon fill="#80795B" points="24.2079,7.76321,7.90264,7.76321,0,0,31.93,0"/>
   <polygon fill="#5E5B43" points="24.2079,24.1368,24.2079,7.76321,31.93,0,31.93,31.9"/>
   <polygon fill="#9A916C" points="0,31.9,7.87486,24.1368,24.2079,24.1368,31.93,31.9"/>
  </g>
  <g transform="translate(434.035,34.05)">
   <rect width="31.93" x="0" y="0" fill="#8D8C8C" height="31.9" id="connector5pin"/>
   <rect width="16.4442" x="7.79153" y="7.73544" fill="#8C8663" height="16.4152"/>
   <polygon fill="#B8AF82" points="0,31.9,7.79153,24.1368,7.79153,6.97162,0,0"/>
   <polygon fill="#80795B" points="24.2079,7.76321,7.90264,7.76321,0,0,31.93,0"/>
   <polygon fill="#5E5B43" points="24.2079,24.1368,24.2079,7.76321,31.93,0,31.93,31.9"/>
   <polygon fill="#9A916C" points="0,31.9,7.87486,24.1368,24.2079,24.1368,31.93,31.9"/>
  </g>
 </g>
</svg>
