<?xml version='1.0' encoding='UTF-8' standalone='no'?>
<!-- Created with Fritzing (http://www.fritzing.org/) -->
<svg xmlns="http://www.w3.org/2000/svg" width="0.644875in" x="0in" version="1.2" y="0in"  height="0.6in" viewBox="0 0 644.875 600" baseProfile="tiny" xmlns:svg="http://www.w3.org/2000/svg">
 <desc>Fritzing breadboard generated by brd2svg</desc>
 <g id="breadboard">
  <g id="icon">
   <path fill="#1F7A34" stroke="none" stroke-width="0" d="M0,0L0,270A30,30 0 0 1 0,330L0,600L644.875,600L644.875,0L0,0z"/>
   <g transform="translate(100,199.111)">
    <g>
     <rect width="444.875" x="0" y="125.75" fill="#1A1A1A" height="39.3611"/>
     <rect width="444.875" x="0" y="15.5" fill="#4D4D4D" height="110.25"/>
     <rect width="260.361" x="90.5556" y="33.4167" fill="#B0A68B" height="105.625"/>
     <rect width="51.2222" x="248.056" y="42.0972" fill="#CDC1AC" height="51.2222"/>
     <rect width="51.2222" x="145.625" y="42.0972" fill="#CDC1AC" height="51.2222"/>
     <rect width="51.2222" x="196.833" y="51.2222" fill="#C0B297" height="42.0972"/>
     <rect width="211" x="116.944" y="125.75" fill="#CCCCCC" height="4.90278"/>
     <g>
      <g>
       <path fill="#666666" d="M92.3611,199.833c0,1.09722,0.902778,2.01389,2.01389,2.01389l19.9583,0c1.09722,0,2,-0.888889,2,-2.01389l0,-1.18056c0,-1.09722,-0.888889,-2,-2,-2L94.3611,196.653c-1.09722,0,-2.01389,0.875,-2.01389,2L92.3472,199.833z"/>
      </g>
      <g>
       <path fill="#B7B7B7" d="M92.3611,198.417c0,1.08333,0.902778,2,2.01389,2l19.9583,0c1.09722,0,2,-0.875,2,-2l0,-35.7639c0,-1.09722,-0.888889,-2,-2,-2L94.3611,160.653c-1.09722,0,-2.01389,0.875,-2.01389,2L92.3472,198.417z"/>
      </g>
      <rect width="23.9583" x="92.3611" y="175.778" fill="#808080" height="2.15278"/>
      <rect width="23.9583" x="92.3611" y="177.931" fill="#CCCCCC" height="6.94444"/>
     </g>
     <g>
      <g>
       <path fill="#666666" d="M151.417,199.833c0,1.09722,0.902778,2.01389,2.01389,2.01389l19.9583,0c1.09722,0,2,-0.888889,2,-2.01389l0,-1.18056c0,-1.09722,-0.888889,-2,-2,-2l-19.9583,0c-1.09722,0,-2.01389,0.875,-2.01389,2L151.417,199.833z"/>
      </g>
      <g>
       <path fill="#B7B7B7" d="M151.417,198.417c0,1.08333,0.902778,2,2.01389,2l19.9583,0c1.09722,0,2,-0.875,2,-2l0,-35.7639c0,-1.09722,-0.888889,-2,-2,-2l-19.9583,0c-1.09722,0,-2.01389,0.875,-2.01389,2L151.417,198.417z"/>
      </g>
      <rect width="23.9583" x="151.417" y="175.778" fill="#808080" height="2.15278"/>
      <rect width="23.9583" x="151.417" y="177.931" fill="#CCCCCC" height="6.94444"/>
     </g>
     <g>
      <g>
       <path fill="#666666" d="M269.528,199.833c0,1.09722,0.902778,2.01389,2.01389,2.01389l19.9583,0c1.09722,0,2,-0.888889,2,-2.01389l0,-1.18056c0,-1.09722,-0.888889,-2,-2,-2L271.528,196.653c-1.09722,0,-2.01389,0.875,-2.01389,2L269.514,199.833z"/>
      </g>
      <g>
       <path fill="#B7B7B7" d="M269.528,198.417c0,1.08333,0.902778,2,2.01389,2l19.9583,0c1.09722,0,2,-0.875,2,-2l0,-35.7639c0,-1.09722,-0.888889,-2,-2,-2L271.528,160.653c-1.09722,0,-2.01389,0.875,-2.01389,2L269.514,198.417z"/>
      </g>
      <rect width="23.9583" x="269.528" y="175.778" fill="#808080" height="2.15278"/>
      <rect width="23.9583" x="269.528" y="177.931" fill="#CCCCCC" height="6.94444"/>
     </g>
     <g>
      <g>
       <path fill="#666666" d="M328.569,199.833c0,1.09722,0.902778,2.01389,2.01389,2.01389l19.9583,0c1.09722,0,2,-0.888889,2,-2.01389l0,-1.18056c0,-1.09722,-0.888889,-2,-2,-2l-19.9583,0c-1.09722,0,-2.01389,0.875,-2.01389,2L328.569,199.833z"/>
      </g>
      <g>
       <path fill="#B7B7B7" d="M328.569,198.417c0,1.08333,0.902778,2,2.01389,2l19.9583,0c1.09722,0,2,-0.875,2,-2l0,-35.7639c0,-1.09722,-0.888889,-2,-2,-2l-19.9583,0c-1.09722,0,-2.01389,0.875,-2.01389,2L328.569,198.417z"/>
      </g>
      <rect width="23.9583" x="328.569" y="175.778" fill="#808080" height="2.15278"/>
      <rect width="23.9583" x="328.569" y="177.931" fill="#CCCCCC" height="6.94444"/>
     </g>
     <rect width="224.653" x="110.111" y="42.9722" fill="#999999" height="3.94444"/>
     <rect width="248.847" x="98.0139" y="120.819" fill="#999999" height="1.97222"/>
     <rect width="50.0417" x="47.9583" y="125.75" fill="#999999" height="1.97222"/>
     <rect width="50.0417" x="346.875" y="125.75" fill="#999999" height="1.97222"/>
     <rect width="444.875" x="0" y="118.042" fill="#999999" height="1.97222"/>
     <path fill="#E6E6E6" d="M396.917,125.75L396.917,125.319c0,-3.81944,3.125,-6.94444,6.94444,-6.94444l41.0139,0L444.875,22.8889l-41.0139,0c-3.81944,0,-6.94444,-3.125,-6.94444,-6.94444L396.917,15.5L47.9583,15.5l0,0.430556c0,3.81944,-3.125,6.94444,-6.94444,6.94444L0,22.875l0,95.4861l41.0139,0c3.81944,0,6.94444,3.125,6.94444,6.94444l0,0.430556l50.0417,0L98,121.097L116.944,121.097l0,4.65278l211,0L327.944,121.097l18.9306,0l0,4.65278L396.917,125.75zM334.778,93.3194L110.111,93.3194L110.111,42.9722l224.653,0L334.764,93.3194z"/>
     <rect width="51.2222" x="196.833" y="0" fill="#DED8C8" height="51.2222"/>
     <rect width="51.2222" x="196.833" opacity="0.2" y="0" fill="#FFFFFF" height="3.20833"/>
    </g>
    <path fill="#CCCCCC" d="M354.264,145.403l0,-2.88889c0,-0.0694444,0.0694444,-0.125,0.0694444,-0.194444L354.333,125.75l-7.45833,0l0,4.90278l-9.47222,0l0,8.40278L107.472,139.056L107.472,130.639L98,130.639L98,125.75L90.5556,125.75l0,19.9306c0.152778,3.69444,3.16667,6.66667,6.88889,6.66667l249.875,0C351.125,152.347,354.264,149.222,354.264,145.403z"/>
   </g>
  </g>
  <g transform="translate(156.472,534.05)">
   <rect width="31.93" x="0" y="0" fill="#8D8C8C" height="31.9" id="connector0pin"/>
   <rect width="16.4442" x="7.79153" y="7.73544" fill="#8C8663" height="16.4152"/>
   <polygon fill="#B8AF82" points="0,31.9,7.79153,24.1368,7.79153,6.97162,0,0"/>
   <polygon fill="#80795B" points="24.2079,7.76321,7.90264,7.76321,0,0,31.93,0"/>
   <polygon fill="#5E5B43" points="24.2079,24.1368,24.2079,7.76321,31.93,0,31.93,31.9"/>
   <polygon fill="#9A916C" points="0,31.9,7.87486,24.1368,24.2079,24.1368,31.93,31.9"/>
  </g>
  <g transform="translate(156.472,34.05)">
   <rect width="31.93" x="0" y="0" fill="#8D8C8C" height="31.9" id="connector7pin"/>
   <rect width="16.4442" x="7.79153" y="7.73544" fill="#8C8663" height="16.4152"/>
   <polygon fill="#B8AF82" points="0,31.9,7.79153,24.1368,7.79153,6.97162,0,0"/>
   <polygon fill="#80795B" points="24.2079,7.76321,7.90264,7.76321,0,0,31.93,0"/>
   <polygon fill="#5E5B43" points="24.2079,24.1368,24.2079,7.76321,31.93,0,31.93,31.9"/>
   <polygon fill="#9A916C" points="0,31.9,7.87486,24.1368,24.2079,24.1368,31.93,31.9"/>
  </g>
  <g transform="translate(256.472,534.05)">
   <rect width="31.93" x="0" y="0" fill="#8D8C8C" height="31.9" id="connector1pin"/>
   <rect width="16.4442" x="7.79153" y="7.73544" fill="#8C8663" height="16.4152"/>
   <polygon fill="#B8AF82" points="0,31.9,7.79153,24.1368,7.79153,6.97162,0,0"/>
   <polygon fill="#80795B" points="24.2079,7.76321,7.90264,7.76321,0,0,31.93,0"/>
   <polygon fill="#5E5B43" points="24.2079,24.1368,24.2079,7.76321,31.93,0,31.93,31.9"/>
   <polygon fill="#9A916C" points="0,31.9,7.87486,24.1368,24.2079,24.1368,31.93,31.9"/>
  </g>
  <g transform="translate(256.472,34.05)">
   <rect width="31.93" x="0" y="0" fill="#8D8C8C" height="31.9" id="connector6pin"/>
   <rect width="16.4442" x="7.79153" y="7.73544" fill="#8C8663" height="16.4152"/>
   <polygon fill="#B8AF82" points="0,31.9,7.79153,24.1368,7.79153,6.97162,0,0"/>
   <polygon fill="#80795B" points="24.2079,7.76321,7.90264,7.76321,0,0,31.93,0"/>
   <polygon fill="#5E5B43" points="24.2079,24.1368,24.2079,7.76321,31.93,0,31.93,31.9"/>
   <polygon fill="#9A916C" points="0,31.9,7.87486,24.1368,24.2079,24.1368,31.93,31.9"/>
  </g>
  <g transform="translate(356.472,534.05)">
   <rect width="31.93" x="0" y="0" fill="#8D8C8C" height="31.9" id="connector2pin"/>
   <rect width="16.4442" x="7.79153" y="7.73544" fill="#8C8663" height="16.4152"/>
   <polygon fill="#B8AF82" points="0,31.9,7.79153,24.1368,7.79153,6.97162,0,0"/>
   <polygon fill="#80795B" points="24.2079,7.76321,7.90264,7.76321,0,0,31.93,0"/>
   <polygon fill="#5E5B43" points="24.2079,24.1368,24.2079,7.76321,31.93,0,31.93,31.9"/>
   <polygon fill="#9A916C" points="0,31.9,7.87486,24.1368,24.2079,24.1368,31.93,31.9"/>
  </g>
  <g transform="translate(356.472,34.05)">
   <rect width="31.93" x="0" y="0" fill="#8D8C8C" height="31.9" id="connector5pin"/>
   <rect width="16.4442" x="7.79153" y="7.73544" fill="#8C8663" height="16.4152"/>
   <polygon fill="#B8AF82" points="0,31.9,7.79153,24.1368,7.79153,6.97162,0,0"/>
   <polygon fill="#80795B" points="24.2079,7.76321,7.90264,7.76321,0,0,31.93,0"/>
   <polygon fill="#5E5B43" points="24.2079,24.1368,24.2079,7.76321,31.93,0,31.93,31.9"/>
   <polygon fill="#9A916C" points="0,31.9,7.87486,24.1368,24.2079,24.1368,31.93,31.9"/>
  </g>
  <g transform="translate(456.473,534.05)">
   <rect width="31.93" x="0" y="0" fill="#8D8C8C" height="31.9" id="connector3pin"/>
   <rect width="16.4442" x="7.79153" y="7.73544" fill="#8C8663" height="16.4152"/>
   <polygon fill="#B8AF82" points="0,31.9,7.79153,24.1368,7.79153,6.97162,0,0"/>
   <polygon fill="#80795B" points="24.2079,7.76321,7.90264,7.76321,0,0,31.93,0"/>
   <polygon fill="#5E5B43" points="24.2079,24.1368,24.2079,7.76321,31.93,0,31.93,31.9"/>
   <polygon fill="#9A916C" points="0,31.9,7.87486,24.1368,24.2079,24.1368,31.93,31.9"/>
  </g>
  <g transform="translate(456.473,34.05)">
   <rect width="31.93" x="0" y="0" fill="#8D8C8C" height="31.9" id="connector4pin"/>
   <rect width="16.4442" x="7.79153" y="7.73544" fill="#8C8663" height="16.4152"/>
   <polygon fill="#B8AF82" points="0,31.9,7.79153,24.1368,7.79153,6.97162,0,0"/>
   <polygon fill="#80795B" points="24.2079,7.76321,7.90264,7.76321,0,0,31.93,0"/>
   <polygon fill="#5E5B43" points="24.2079,24.1368,24.2079,7.76321,31.93,0,31.93,31.9"/>
   <polygon fill="#9A916C" points="0,31.9,7.87486,24.1368,24.2079,24.1368,31.93,31.9"/>
  </g>
 </g>
</svg>
