<?xml version='1.0' encoding='UTF-8' standalone='no'?>
<!-- Created with Fritzing (http://www.fritzing.org/) -->
<svg xmlns="http://www.w3.org/2000/svg" width="1.2in" x="0in" version="1.2" y="0in"  height="1.2in" viewBox="0 0 1200 1200" baseProfile="tiny" xmlns:svg="http://www.w3.org/2000/svg">
 <desc>Fritzing breadboard generated by brd2svg</desc>
 <g id="breadboard">
  <g id="icon">
   <path fill="#1F7A34" stroke="none" stroke-width="0" d="M0,0L0,570A30,30 0 0 1 0,630L0,1200L1200,1200L1200,0L0,0z"/>
   <g transform="translate(273.125,165.091)">
    <g>
     <rect width="653.75" y="182.889" fill="#1A1A1A" height="653.75"/>
     <rect width="653.75" opacity="0.4" y="829.889" height="6.75"/>
     <rect width="653.75" y="128.472" fill="#333333" height="653.75"/>
     <rect width="653.75" opacity="0.2" y="128.472" fill="#FFFFFF" height="5.23611"/>
     <rect width="653.75" y="399.306" fill="#1A1A1A" height="56.0417"/>
     <circle fill="#1A1A1A" cx="326.875" cy="455.347" r="326.875"/>
     <circle fill="#333333" cx="326.875" cy="399.319" r="326.875"/>
     <rect width="541.667" x="56.0417" y="270.833" fill="#1A1A1A" height="128.472"/>
     <circle fill="#1A1A1A" cx="326.875" cy="399.306" r="270.833"/>
     <path opacity="0.2" fill="#FFFFFF" d="M0,407.819C0,227.292,146.347,80.9444,326.875,80.9444c180.528,0,326.875,146.347,326.875,326.875L653.75,399.306c0,-180.528,-146.347,-326.875,-326.875,-326.875C146.347,72.4444,0,218.778,0,399.306L0,407.819z"/>
     <circle fill="#CB0E34" cx="326.875" cy="270.847" r="238.597"/>
     <path opacity="0.2" fill="#1A1A1A" d="M254.472,288.153c0,-39.9861,32.4167,-61.1111,72.4028,-61.1111c39.9722,0,72.3889,21.125,72.3889,61.1111L399.264,279.444c0,-39.9861,-32.4167,-72.4028,-72.3889,-72.4028c-39.9861,0,-72.4028,32.4167,-72.4028,72.4028L254.472,288.153z"/>
     <path fill="#333333" d="M326.875,0c-149.583,0,-270.833,121.25,-270.833,270.833s121.25,270.833,270.833,270.833c149.569,0,270.833,-121.25,270.833,-270.833S476.444,0,326.875,0zM326.875,343.236c-39.9861,0,-72.4028,-32.4167,-72.4028,-72.4028s32.4167,-72.4028,72.4028,-72.4028c39.9722,0,72.3889,32.4167,72.3889,72.4028S366.861,343.236,326.875,343.236z"/>
    </g>
    <g>
     <path fill="#333333" d="M593.125,319.444c-0.638889,3.51389,-1.58333,6.90278,-2.36111,10.3611l0,57.0833l2.16667,-12.5139L593.125,319.444z"/>
     <path fill="#333333" d="M573.403,382.208l0,56.1944c2.52778,-5.55556,4.79167,-11.2361,6.94444,-17l0,-55.6528C578.25,371.361,575.833,376.792,573.403,382.208z"/>
     <path fill="#333333" d="M556.042,414.458l0,56.125c2.375,-3.76389,4.76389,-7.54167,6.94444,-11.4306l0,-56.3056C560.764,406.806,558.444,410.653,556.042,414.458z"/>
     <path fill="#333333" d="M538.681,439.042l0,56.1806c2.41667,-3.02778,4.66667,-6.16667,6.94444,-9.29167l0,-55.875C543.403,433.111,541.042,436.069,538.681,439.042z"/>
     <path fill="#333333" d="M521.319,458.958l0,56.0139c2.38889,-2.47222,4.63889,-5.06944,6.94444,-7.63889L528.264,451.389C525.986,453.944,523.694,456.5,521.319,458.958z"/>
     <path fill="#333333" d="M503.958,475.458l0,55.8611c2.36111,-2.04167,4.65278,-4.18056,6.94444,-6.30556l0,-55.9444C508.597,471.208,506.333,473.389,503.958,475.458z"/>
     <path fill="#333333" d="M486.597,489.292l0,55.7917c2.33333,-1.70833,4.66667,-3.40278,6.94444,-5.19444l0,-55.9583C491.236,485.722,488.958,487.556,486.597,489.292z"/>
     <path fill="#333333" d="M469.236,500.972l0,55.8333c2.30556,-1.43056,4.69444,-2.72222,6.94444,-4.22222l0,-56.0972C473.889,498.014,471.583,499.514,469.236,500.972z"/>
     <path fill="#333333" d="M451.875,510.833l0,55.9861c2.33333,-1.20833,4.65278,-2.41667,6.94444,-3.70833l0,-55.9583C456.542,508.444,454.194,509.625,451.875,510.833z"/>
     <path fill="#333333" d="M434.514,519.139l0,56.0417c2.36111,-1.01389,4.61111,-2.25,6.94444,-3.34722l0,-55.6389C439.194,517.264,436.819,518.139,434.514,519.139z"/>
     <path fill="#333333" d="M417.153,526.069l0,55.7222c2.33333,-0.819444,4.65278,-1.65278,6.94444,-2.54167l0,-55.7083C421.806,524.431,419.472,525.25,417.153,526.069z"/>
     <path fill="#333333" d="M399.792,531.694l0,55.6389c2.29167,-0.638889,4.66667,-1.08333,6.94444,-1.79167L406.736,529.444C404.403,530.153,402.153,531.042,399.792,531.694z"/>
     <path fill="#333333" d="M382.431,535.736l0,56.0556c2.36111,-0.486111,4.61111,-1.23611,6.94444,-1.79167l0,-55.8472C387.069,534.708,384.764,535.264,382.431,535.736z"/>
     <path fill="#333333" d="M365.069,538.736l0,55.8194c2.31944,-0.319444,4.63889,-0.680556,6.94444,-1.05556L372.014,537.778C369.722,538.181,367.375,538.403,365.069,538.736z"/>
     <path fill="#333333" d="M347.708,540.736l0,55.7639c2.30556,-0.180556,4.65278,-0.138889,6.94444,-0.361111L354.653,540.139C352.347,540.375,350.028,540.556,347.708,540.736z"/>
     <path fill="#333333" d="M330.347,541.514l0,55.8472c2.33333,-0.0277778,4.625,-0.263889,6.94444,-0.347222l0,-55.8056C334.972,541.292,332.681,541.486,330.347,541.514z"/>
     <path fill="#333333" d="M312.986,541.056l0,55.7917c2.31944,0.125,4.61111,0.291667,6.94444,0.347222l0,-55.8333C317.597,541.306,315.292,541.167,312.986,541.056z"/>
     <path fill="#333333" d="M295.625,539.667l0,55.9306c2.30556,0.263889,4.625,0.5,6.94444,0.708333l0,-55.7361C300.222,540.375,297.944,539.931,295.625,539.667z"/>
     <path fill="#333333" d="M278.264,537.319l0,55.625c2.29167,0.416667,4.625,0.708333,6.94444,1.06944l0,-55.7639C282.903,537.903,280.542,537.722,278.264,537.319z"/>
     <path fill="#333333" d="M260.903,533.361l0,55.75c2.31944,0.583333,4.59722,1.26389,6.94444,1.79167l0,-55.9444C265.528,534.431,263.194,533.944,260.903,533.361z"/>
     <path fill="#333333" d="M243.542,528.319l0,56.0278c2.30556,0.736111,4.625,1.41667,6.94444,2.08333l0,-55.8611C248.139,529.875,245.847,529.069,243.542,528.319z"/>
     <path fill="#333333" d="M226.181,522.069l0,55.9028c2.27778,0.916667,4.625,1.69444,6.94444,2.55556l0,-55.5833C230.764,524.083,228.5,523.014,226.181,522.069z"/>
     <path fill="#333333" d="M208.819,514.514l0,55.6528c2.31944,1.125,4.59722,2.29167,6.94444,3.34722l0,-55.8472C213.444,516.625,211.097,515.625,208.819,514.514z"/>
     <path fill="#333333" d="M191.458,505.306l0,55.7083c2.33333,1.34722,4.56944,2.84722,6.94444,4.13889l0,-56.1667C196.097,507.736,193.722,506.625,191.458,505.306z"/>
     <path fill="#333333" d="M174.097,494.236l0,56.0278c2.26389,1.54167,4.625,2.93056,6.94444,4.40278l0,-55.9583C178.722,497.236,176.361,495.806,174.097,494.236z"/>
     <path fill="#333333" d="M156.736,481.222l0,56.0694c2.25,1.81944,4.63889,3.44444,6.94444,5.19444l0,-55.875C161.347,484.833,159,483.069,156.736,481.222z"/>
     <path fill="#333333" d="M139.375,465.861l0,55.9861c2.26389,2.16667,4.61111,4.22222,6.94444,6.30556l0,-55.9028C143.972,470.153,141.639,468.056,139.375,465.861z"/>
     <path fill="#333333" d="M122.014,447.597l0,55.9167c2.25,2.61111,4.59722,5.125,6.94444,7.65278l0,-56C126.625,452.653,124.25,450.194,122.014,447.597z"/>
     <path fill="#333333" d="M104.653,425.25l0,56.0417c2.20833,3.18056,4.59722,6.20833,6.94444,9.27778l0,-56.0278C109.25,431.458,106.861,428.417,104.653,425.25z"/>
     <path fill="#333333" d="M87.2917,396.278l0,56.5417c2.16667,4.11111,4.56944,8.05556,6.94444,12.0417l0,-55.8056C91.75,404.903,89.5417,400.569,87.2917,396.278z"/>
     <path fill="#333333" d="M69.9306,355.125l0,56.8056c2.125,6.41667,4.36111,12.7778,6.94444,18.9722l0,-56.9444C74.3333,367.792,72.0278,361.528,69.9306,355.125z"/>
     <path fill="#333333" d="M56.0417,326.708c0,14.0833,1.40278,27.7917,3.47222,41.2917l0,-50.2222C58.1528,316.139,56.0417,315.389,56.0417,326.708z"/>
    </g>
    <path opacity="0.2" fill="#FFFFFF" d="M56.0417,279.542c0,-149.583,121.25,-270.833,270.833,-270.833c149.569,0,270.833,121.25,270.833,270.833L597.708,270.833c0,-149.583,-121.25,-270.833,-270.833,-270.833c-149.583,0,-270.833,121.25,-270.833,270.833L56.0417,279.542z"/>
    <path opacity="0.2" d="M597.708,262.139c0,149.583,-121.25,270.833,-270.833,270.833c-149.569,0,-270.833,-121.25,-270.833,-270.833L56.0417,270.833c0,149.583,121.25,270.833,270.833,270.833c149.583,0,270.833,-121.25,270.833,-270.833L597.708,262.139z"/>
    <path opacity="0.2" d="M597.708,326.278c0,149.583,-121.25,270.833,-270.833,270.833c-149.569,0,-270.833,-121.25,-270.833,-270.833l0,8.70833c0,149.583,121.25,270.833,270.833,270.833c149.583,0,270.833,-121.25,270.833,-270.833L597.708,326.278z"/>
    <path opacity="0.2" d="M597.708,399.069c0,149.583,-121.25,270.833,-270.833,270.833s-270.833,-121.25,-270.833,-270.833l0,8.70833c0,149.583,121.25,270.833,270.833,270.833s270.833,-121.25,270.833,-270.833L597.708,399.069z"/>
    <path fill="#1A1A1A" d="M254.472,279.542c0,-39.9861,32.4167,-72.4028,72.4028,-72.4028c39.9722,0,72.3889,32.4167,72.3889,72.4028L399.264,270.833c0,-39.9861,-32.4167,-72.4028,-72.3889,-72.4028c-39.9861,0,-72.4028,32.4167,-72.4028,72.4028L254.472,279.542z"/>
   </g>
  </g>
  <g transform="translate(34.035,1134.05)">
   <rect width="31.93" x="0" y="0" fill="#8D8C8C" height="31.9" id="connector0pin"/>
   <rect width="16.4442" x="7.79153" y="7.73544" fill="#8C8663" height="16.4152"/>
   <polygon fill="#B8AF82" points="0,31.9,7.79153,24.1368,7.79153,6.97162,0,0"/>
   <polygon fill="#80795B" points="24.2079,7.76321,7.90264,7.76321,0,0,31.93,0"/>
   <polygon fill="#5E5B43" points="24.2079,24.1368,24.2079,7.76321,31.93,0,31.93,31.9"/>
   <polygon fill="#9A916C" points="0,31.9,7.87486,24.1368,24.2079,24.1368,31.93,31.9"/>
  </g>
  <g transform="translate(34.035,34.05)">
   <rect width="31.93" x="0" y="0" fill="#8D8C8C" height="31.9" id="connector23pin"/>
   <rect width="16.4442" x="7.79153" y="7.73544" fill="#8C8663" height="16.4152"/>
   <polygon fill="#B8AF82" points="0,31.9,7.79153,24.1368,7.79153,6.97162,0,0"/>
   <polygon fill="#80795B" points="24.2079,7.76321,7.90264,7.76321,0,0,31.93,0"/>
   <polygon fill="#5E5B43" points="24.2079,24.1368,24.2079,7.76321,31.93,0,31.93,31.9"/>
   <polygon fill="#9A916C" points="0,31.9,7.87486,24.1368,24.2079,24.1368,31.93,31.9"/>
  </g>
  <g transform="translate(134.035,1134.05)">
   <rect width="31.93" x="0" y="0" fill="#8D8C8C" height="31.9" id="connector1pin"/>
   <rect width="16.4442" x="7.79153" y="7.73544" fill="#8C8663" height="16.4152"/>
   <polygon fill="#B8AF82" points="0,31.9,7.79153,24.1368,7.79153,6.97162,0,0"/>
   <polygon fill="#80795B" points="24.2079,7.76321,7.90264,7.76321,0,0,31.93,0"/>
   <polygon fill="#5E5B43" points="24.2079,24.1368,24.2079,7.76321,31.93,0,31.93,31.9"/>
   <polygon fill="#9A916C" points="0,31.9,7.87486,24.1368,24.2079,24.1368,31.93,31.9"/>
  </g>
  <g transform="translate(134.035,34.05)">
   <rect width="31.93" x="0" y="0" fill="#8D8C8C" height="31.9" id="connector22pin"/>
   <rect width="16.4442" x="7.79153" y="7.73544" fill="#8C8663" height="16.4152"/>
   <polygon fill="#B8AF82" points="0,31.9,7.79153,24.1368,7.79153,6.97162,0,0"/>
   <polygon fill="#80795B" points="24.2079,7.76321,7.90264,7.76321,0,0,31.93,0"/>
   <polygon fill="#5E5B43" points="24.2079,24.1368,24.2079,7.76321,31.93,0,31.93,31.9"/>
   <polygon fill="#9A916C" points="0,31.9,7.87486,24.1368,24.2079,24.1368,31.93,31.9"/>
  </g>
  <g transform="translate(234.035,1134.05)">
   <rect width="31.93" x="0" y="0" fill="#8D8C8C" height="31.9" id="connector2pin"/>
   <rect width="16.4442" x="7.79153" y="7.73544" fill="#8C8663" height="16.4152"/>
   <polygon fill="#B8AF82" points="0,31.9,7.79153,24.1368,7.79153,6.97162,0,0"/>
   <polygon fill="#80795B" points="24.2079,7.76321,7.90264,7.76321,0,0,31.93,0"/>
   <polygon fill="#5E5B43" points="24.2079,24.1368,24.2079,7.76321,31.93,0,31.93,31.9"/>
   <polygon fill="#9A916C" points="0,31.9,7.87486,24.1368,24.2079,24.1368,31.93,31.9"/>
  </g>
  <g transform="translate(234.035,34.05)">
   <rect width="31.93" x="0" y="0" fill="#8D8C8C" height="31.9" id="connector21pin"/>
   <rect width="16.4442" x="7.79153" y="7.73544" fill="#8C8663" height="16.4152"/>
   <polygon fill="#B8AF82" points="0,31.9,7.79153,24.1368,7.79153,6.97162,0,0"/>
   <polygon fill="#80795B" points="24.2079,7.76321,7.90264,7.76321,0,0,31.93,0"/>
   <polygon fill="#5E5B43" points="24.2079,24.1368,24.2079,7.76321,31.93,0,31.93,31.9"/>
   <polygon fill="#9A916C" points="0,31.9,7.87486,24.1368,24.2079,24.1368,31.93,31.9"/>
  </g>
  <g transform="translate(334.035,1134.05)">
   <rect width="31.93" x="0" y="0" fill="#8D8C8C" height="31.9" id="connector3pin"/>
   <rect width="16.4442" x="7.79153" y="7.73544" fill="#8C8663" height="16.4152"/>
   <polygon fill="#B8AF82" points="0,31.9,7.79153,24.1368,7.79153,6.97162,0,0"/>
   <polygon fill="#80795B" points="24.2079,7.76321,7.90264,7.76321,0,0,31.93,0"/>
   <polygon fill="#5E5B43" points="24.2079,24.1368,24.2079,7.76321,31.93,0,31.93,31.9"/>
   <polygon fill="#9A916C" points="0,31.9,7.87486,24.1368,24.2079,24.1368,31.93,31.9"/>
  </g>
  <g transform="translate(334.035,34.05)">
   <rect width="31.93" x="0" y="0" fill="#8D8C8C" height="31.9" id="connector20pin"/>
   <rect width="16.4442" x="7.79153" y="7.73544" fill="#8C8663" height="16.4152"/>
   <polygon fill="#B8AF82" points="0,31.9,7.79153,24.1368,7.79153,6.97162,0,0"/>
   <polygon fill="#80795B" points="24.2079,7.76321,7.90264,7.76321,0,0,31.93,0"/>
   <polygon fill="#5E5B43" points="24.2079,24.1368,24.2079,7.76321,31.93,0,31.93,31.9"/>
   <polygon fill="#9A916C" points="0,31.9,7.87486,24.1368,24.2079,24.1368,31.93,31.9"/>
  </g>
  <g transform="translate(434.035,1134.05)">
   <rect width="31.93" x="0" y="0" fill="#8D8C8C" height="31.9" id="connector4pin"/>
   <rect width="16.4442" x="7.79153" y="7.73544" fill="#8C8663" height="16.4152"/>
   <polygon fill="#B8AF82" points="0,31.9,7.79153,24.1368,7.79153,6.97162,0,0"/>
   <polygon fill="#80795B" points="24.2079,7.76321,7.90264,7.76321,0,0,31.93,0"/>
   <polygon fill="#5E5B43" points="24.2079,24.1368,24.2079,7.76321,31.93,0,31.93,31.9"/>
   <polygon fill="#9A916C" points="0,31.9,7.87486,24.1368,24.2079,24.1368,31.93,31.9"/>
  </g>
  <g transform="translate(434.035,34.05)">
   <rect width="31.93" x="0" y="0" fill="#8D8C8C" height="31.9" id="connector19pin"/>
   <rect width="16.4442" x="7.79153" y="7.73544" fill="#8C8663" height="16.4152"/>
   <polygon fill="#B8AF82" points="0,31.9,7.79153,24.1368,7.79153,6.97162,0,0"/>
   <polygon fill="#80795B" points="24.2079,7.76321,7.90264,7.76321,0,0,31.93,0"/>
   <polygon fill="#5E5B43" points="24.2079,24.1368,24.2079,7.76321,31.93,0,31.93,31.9"/>
   <polygon fill="#9A916C" points="0,31.9,7.87486,24.1368,24.2079,24.1368,31.93,31.9"/>
  </g>
  <g transform="translate(534.035,1134.05)">
   <rect width="31.93" x="0" y="0" fill="#8D8C8C" height="31.9" id="connector5pin"/>
   <rect width="16.4442" x="7.79153" y="7.73544" fill="#8C8663" height="16.4152"/>
   <polygon fill="#B8AF82" points="0,31.9,7.79153,24.1368,7.79153,6.97162,0,0"/>
   <polygon fill="#80795B" points="24.2079,7.76321,7.90264,7.76321,0,0,31.93,0"/>
   <polygon fill="#5E5B43" points="24.2079,24.1368,24.2079,7.76321,31.93,0,31.93,31.9"/>
   <polygon fill="#9A916C" points="0,31.9,7.87486,24.1368,24.2079,24.1368,31.93,31.9"/>
  </g>
  <g transform="translate(534.035,34.05)">
   <rect width="31.93" x="0" y="0" fill="#8D8C8C" height="31.9" id="connector18pin"/>
   <rect width="16.4442" x="7.79153" y="7.73544" fill="#8C8663" height="16.4152"/>
   <polygon fill="#B8AF82" points="0,31.9,7.79153,24.1368,7.79153,6.97162,0,0"/>
   <polygon fill="#80795B" points="24.2079,7.76321,7.90264,7.76321,0,0,31.93,0"/>
   <polygon fill="#5E5B43" points="24.2079,24.1368,24.2079,7.76321,31.93,0,31.93,31.9"/>
   <polygon fill="#9A916C" points="0,31.9,7.87486,24.1368,24.2079,24.1368,31.93,31.9"/>
  </g>
  <g transform="translate(634.035,1134.05)">
   <rect width="31.93" x="0" y="0" fill="#8D8C8C" height="31.9" id="connector6pin"/>
   <rect width="16.4442" x="7.79153" y="7.73544" fill="#8C8663" height="16.4152"/>
   <polygon fill="#B8AF82" points="0,31.9,7.79153,24.1368,7.79153,6.97162,0,0"/>
   <polygon fill="#80795B" points="24.2079,7.76321,7.90264,7.76321,0,0,31.93,0"/>
   <polygon fill="#5E5B43" points="24.2079,24.1368,24.2079,7.76321,31.93,0,31.93,31.9"/>
   <polygon fill="#9A916C" points="0,31.9,7.87486,24.1368,24.2079,24.1368,31.93,31.9"/>
  </g>
  <g transform="translate(634.035,34.05)">
   <rect width="31.93" x="0" y="0" fill="#8D8C8C" height="31.9" id="connector17pin"/>
   <rect width="16.4442" x="7.79153" y="7.73544" fill="#8C8663" height="16.4152"/>
   <polygon fill="#B8AF82" points="0,31.9,7.79153,24.1368,7.79153,6.97162,0,0"/>
   <polygon fill="#80795B" points="24.2079,7.76321,7.90264,7.76321,0,0,31.93,0"/>
   <polygon fill="#5E5B43" points="24.2079,24.1368,24.2079,7.76321,31.93,0,31.93,31.9"/>
   <polygon fill="#9A916C" points="0,31.9,7.87486,24.1368,24.2079,24.1368,31.93,31.9"/>
  </g>
  <g transform="translate(734.035,1134.05)">
   <rect width="31.93" x="0" y="0" fill="#8D8C8C" height="31.9" id="connector7pin"/>
   <rect width="16.4442" x="7.79153" y="7.73544" fill="#8C8663" height="16.4152"/>
   <polygon fill="#B8AF82" points="0,31.9,7.79153,24.1368,7.79153,6.97162,0,0"/>
   <polygon fill="#80795B" points="24.2079,7.76321,7.90264,7.76321,0,0,31.93,0"/>
   <polygon fill="#5E5B43" points="24.2079,24.1368,24.2079,7.76321,31.93,0,31.93,31.9"/>
   <polygon fill="#9A916C" points="0,31.9,7.87486,24.1368,24.2079,24.1368,31.93,31.9"/>
  </g>
  <g transform="translate(734.035,34.05)">
   <rect width="31.93" x="0" y="0" fill="#8D8C8C" height="31.9" id="connector16pin"/>
   <rect width="16.4442" x="7.79153" y="7.73544" fill="#8C8663" height="16.4152"/>
   <polygon fill="#B8AF82" points="0,31.9,7.79153,24.1368,7.79153,6.97162,0,0"/>
   <polygon fill="#80795B" points="24.2079,7.76321,7.90264,7.76321,0,0,31.93,0"/>
   <polygon fill="#5E5B43" points="24.2079,24.1368,24.2079,7.76321,31.93,0,31.93,31.9"/>
   <polygon fill="#9A916C" points="0,31.9,7.87486,24.1368,24.2079,24.1368,31.93,31.9"/>
  </g>
  <g transform="translate(834.035,1134.05)">
   <rect width="31.93" x="0" y="0" fill="#8D8C8C" height="31.9" id="connector8pin"/>
   <rect width="16.4442" x="7.79153" y="7.73544" fill="#8C8663" height="16.4152"/>
   <polygon fill="#B8AF82" points="0,31.9,7.79153,24.1368,7.79153,6.97162,0,0"/>
   <polygon fill="#80795B" points="24.2079,7.76321,7.90264,7.76321,0,0,31.93,0"/>
   <polygon fill="#5E5B43" points="24.2079,24.1368,24.2079,7.76321,31.93,0,31.93,31.9"/>
   <polygon fill="#9A916C" points="0,31.9,7.87486,24.1368,24.2079,24.1368,31.93,31.9"/>
  </g>
  <g transform="translate(834.035,34.05)">
   <rect width="31.93" x="0" y="0" fill="#8D8C8C" height="31.9" id="connector15pin"/>
   <rect width="16.4442" x="7.79153" y="7.73544" fill="#8C8663" height="16.4152"/>
   <polygon fill="#B8AF82" points="0,31.9,7.79153,24.1368,7.79153,6.97162,0,0"/>
   <polygon fill="#80795B" points="24.2079,7.76321,7.90264,7.76321,0,0,31.93,0"/>
   <polygon fill="#5E5B43" points="24.2079,24.1368,24.2079,7.76321,31.93,0,31.93,31.9"/>
   <polygon fill="#9A916C" points="0,31.9,7.87486,24.1368,24.2079,24.1368,31.93,31.9"/>
  </g>
  <g transform="translate(934.035,1134.05)">
   <rect width="31.93" x="0" y="0" fill="#8D8C8C" height="31.9" id="connector9pin"/>
   <rect width="16.4442" x="7.79153" y="7.73544" fill="#8C8663" height="16.4152"/>
   <polygon fill="#B8AF82" points="0,31.9,7.79153,24.1368,7.79153,6.97162,0,0"/>
   <polygon fill="#80795B" points="24.2079,7.76321,7.90264,7.76321,0,0,31.93,0"/>
   <polygon fill="#5E5B43" points="24.2079,24.1368,24.2079,7.76321,31.93,0,31.93,31.9"/>
   <polygon fill="#9A916C" points="0,31.9,7.87486,24.1368,24.2079,24.1368,31.93,31.9"/>
  </g>
  <g transform="translate(934.035,34.05)">
   <rect width="31.93" x="0" y="0" fill="#8D8C8C" height="31.9" id="connector14pin"/>
   <rect width="16.4442" x="7.79153" y="7.73544" fill="#8C8663" height="16.4152"/>
   <polygon fill="#B8AF82" points="0,31.9,7.79153,24.1368,7.79153,6.97162,0,0"/>
   <polygon fill="#80795B" points="24.2079,7.76321,7.90264,7.76321,0,0,31.93,0"/>
   <polygon fill="#5E5B43" points="24.2079,24.1368,24.2079,7.76321,31.93,0,31.93,31.9"/>
   <polygon fill="#9A916C" points="0,31.9,7.87486,24.1368,24.2079,24.1368,31.93,31.9"/>
  </g>
  <g transform="translate(1034.04,1134.05)">
   <rect width="31.93" x="0" y="0" fill="#8D8C8C" height="31.9" id="connector10pin"/>
   <rect width="16.4442" x="7.79153" y="7.73544" fill="#8C8663" height="16.4152"/>
   <polygon fill="#B8AF82" points="0,31.9,7.79153,24.1368,7.79153,6.97162,0,0"/>
   <polygon fill="#80795B" points="24.2079,7.76321,7.90264,7.76321,0,0,31.93,0"/>
   <polygon fill="#5E5B43" points="24.2079,24.1368,24.2079,7.76321,31.93,0,31.93,31.9"/>
   <polygon fill="#9A916C" points="0,31.9,7.87486,24.1368,24.2079,24.1368,31.93,31.9"/>
  </g>
  <g transform="translate(1034.04,34.05)">
   <rect width="31.93" x="0" y="0" fill="#8D8C8C" height="31.9" id="connector13pin"/>
   <rect width="16.4442" x="7.79153" y="7.73544" fill="#8C8663" height="16.4152"/>
   <polygon fill="#B8AF82" points="0,31.9,7.79153,24.1368,7.79153,6.97162,0,0"/>
   <polygon fill="#80795B" points="24.2079,7.76321,7.90264,7.76321,0,0,31.93,0"/>
   <polygon fill="#5E5B43" points="24.2079,24.1368,24.2079,7.76321,31.93,0,31.93,31.9"/>
   <polygon fill="#9A916C" points="0,31.9,7.87486,24.1368,24.2079,24.1368,31.93,31.9"/>
  </g>
  <g transform="translate(1134.04,1134.05)">
   <rect width="31.93" x="0" y="0" fill="#8D8C8C" height="31.9" id="connector11pin"/>
   <rect width="16.4442" x="7.79153" y="7.73544" fill="#8C8663" height="16.4152"/>
   <polygon fill="#B8AF82" points="0,31.9,7.79153,24.1368,7.79153,6.97162,0,0"/>
   <polygon fill="#80795B" points="24.2079,7.76321,7.90264,7.76321,0,0,31.93,0"/>
   <polygon fill="#5E5B43" points="24.2079,24.1368,24.2079,7.76321,31.93,0,31.93,31.9"/>
   <polygon fill="#9A916C" points="0,31.9,7.87486,24.1368,24.2079,24.1368,31.93,31.9"/>
  </g>
  <g transform="translate(1134.04,34.05)">
   <rect width="31.93" x="0" y="0" fill="#8D8C8C" height="31.9" id="connector12pin"/>
   <rect width="16.4442" x="7.79153" y="7.73544" fill="#8C8663" height="16.4152"/>
   <polygon fill="#B8AF82" points="0,31.9,7.79153,24.1368,7.79153,6.97162,0,0"/>
   <polygon fill="#80795B" points="24.2079,7.76321,7.90264,7.76321,0,0,31.93,0"/>
   <polygon fill="#5E5B43" points="24.2079,24.1368,24.2079,7.76321,31.93,0,31.93,31.9"/>
   <polygon fill="#9A916C" points="0,31.9,7.87486,24.1368,24.2079,24.1368,31.93,31.9"/>
  </g>
 </g>
</svg>
