<?xml version='1.0' encoding='UTF-8' standalone='no'?>
<!-- Created with Fritzing (http://www.fritzing.org/) -->
<svg xmlns="http://www.w3.org/2000/svg" width="1.8in" x="0in" version="1.2" y="0in"  height="1.6in" viewBox="0 0 1800 1600" baseProfile="tiny" xmlns:svg="http://www.w3.org/2000/svg">
 <desc>Fritzing breadboard generated by brd2svg</desc>
 <g id="breadboard">
  <g id="icon">
   <path fill="#1F7A34" stroke="none" stroke-width="0" d="M0,0L0,770A30,30 0 0 1 0,830L0,1600L1800,1600L1800,0L0,0z"/>
   <g transform="translate(160.55,173.41)">
    <path fill="#B3B3B3" d="M0,1104.17l0,107.347c0,22.9167,18.75,41.6667,41.6667,41.6667l1395.57,0c22.9167,0,41.6667,-18.75,41.6667,-41.6667L1478.9,1104.17L0,1104.17z"/>
    <rect width="1478.9" x="0" y="27.7778" fill="#CCCCCC" height="1076.39"/>
    <path fill="#1F7A34" d="M0,27.7778l0,1076.39l1478.9,0L1478.9,27.7778L0,27.7778zM105.597,186.333c-19.1667,0,-34.7222,-15.5556,-34.7222,-34.7222s15.5556,-34.7222,34.7222,-34.7222s34.7222,15.5556,34.7222,34.7222S124.764,186.333,105.597,186.333zM1365.44,1013.1c-19.1944,0,-34.7222,-15.5278,-34.7222,-34.7222s15.5278,-34.7222,34.7222,-34.7222s34.7222,15.5278,34.7222,34.7222S1384.64,1013.1,1365.44,1013.1zM1365.44,186.347c-19.1944,0,-34.7222,-15.5556,-34.7222,-34.7361s15.5278,-34.7361,34.7222,-34.7361s34.7222,15.5556,34.7222,34.7361S1384.64,186.347,1365.44,186.347z"/>
    <polygon fill="#E6E6E6" points="239.486,0,239.486,181.417,105.597,181.417,105.597,1011.28,1251.86,1011.28,1251.86,0"/>
    <rect width="133.889" x="105.597" opacity="0.2" y="181.417" fill="#FFFFFF" height="13.8889"/>
    <rect width="1146.26" x="105.597" y="1011.28" fill="#B3B3B3" height="48.6111"/>
    <circle fill="#B3B3B3" cx="50.4722" cy="278.639" r="13.8889"/>
    <circle fill="#B3B3B3" cx="50.4722" cy="886.278" r="13.8889"/>
    <g>
     <rect width="10.8194" x="1263.08" y="369.375" fill="#F7BD13" height="39.3611"/>
     <rect width="10.8194" x="1263.08" y="369.375" fill="#FCE5A1" height="1"/>
     <rect width="10.8194" x="1263.08" y="408.736" fill="#B98E0E" height="1.72222"/>
     <rect width="86.6111" x="1300.49" y="468.833" fill="#B98E0E" height="1.70833"/>
     <rect width="86.6111" x="1300.49" y="457.194" fill="#F7BD13" height="11.9306"/>
    </g>
    <rect width="147.264" x="1270.15" y="312.653" fill="#E6E6E6" height="147.25"/>
    <polygon opacity="0.22" fill="#1D1D1B" points="1415.83,315.236,1415.83,458.444,1271.74,458.25,1270.15,459.833,1417.4,459.833,1417.4,312.792" enable-background="new    "/>
    <polygon opacity="0.42" fill="#FFFFFF" points="1271.74,458.319,1271.74,314.222,1415.83,314.222,1417.4,312.625,1270.15,312.625,1270.15,459.889" enable-background="new    "/>
    <polygon fill="#B3B3B3" points="1270.15,458.708,1270.15,464.264,1300.49,464.264,1300.49,461.486,1387.11,461.486,1387.11,464.264,1417.4,464.264,1417.4,458.708"/>
    <rect width="86.6111" x="1300.49" y="461.486" fill="#B98E0E" height="0.902778"/>
    <rect width="41.1528" x="1383.31" y="369.375" fill="#F7BD13" height="39.3611"/>
    <rect width="41.2083" x="1383.31" y="369.375" fill="#FCE5A1" height="1"/>
    <rect width="32.5556" x="1383.28" opacity="0.22" y="368.361" fill="#1D1D1B" height="1.01389" enable-background="new    "/>
    <rect width="7.05556" x="1417.4" y="408.736" fill="#B98E0E" height="1.72222"/>
    <g>
     <circle fill="#FAD771" cx="1343.79" cy="386.278" r="51.2778"/>
     <circle fill="#FEE98C" cx="1343.79" cy="387.375" r="51.9167"/>
     <circle fill="#ECB74D" cx="1343.82" cy="386.278" r="50.1667"/>
     <g>
      <path fill="#DB7D00" d="M1293.64,387.847c0,-27.7083,22.4444,-50.1528,50.1389,-50.1528c27.7222,0,50.1528,22.4583,50.1528,50.1528l0,-1.56944c0,-27.7083,-22.4306,-50.1528,-50.1528,-50.1528c-27.6944,0,-50.1389,22.4583,-50.1389,50.1528L1293.64,387.847z"/>
     </g>
     <g>
      <g>
       <circle fill="#FEE068" cx="1343.79" cy="386.278" r="14.6944"/>
      </g>
      <rect width="29.375" x="1329.08" y="372.681" fill="#FEE068" height="13.5972"/>
      <circle fill="#ECC847" cx="1343.79" cy="374.708" r="14.6944"/>
      <circle fill="#FBC91A" cx="1343.79" cy="371.583" r="9.56944"/>
      <g opacity="0.51">
       <path opacity="0.16" fill="#1D1D1B" enable-background="new    " d="M1343.79,381.139c5.29167,0,9.55556,-4.29167,9.55556,-9.55556l5.125,3.15278c0,8.125,-6.56944,14.6944,-14.6806,14.6944L1343.79,381.139L1343.79,381.139z"/>
       <path opacity="0.27" fill="#1D1D1B" enable-background="new    " d="M1343.79,400.986c8.13889,0,14.7083,-6.56944,14.7083,-14.6944l0,-11.5833c0,8.125,-6.56944,14.6944,-14.7083,14.6944L1343.79,400.986z"/>
      </g>
      <path opacity="0.25" fill="#FFFFFF" enable-background="new    " d="M1343.79,360c-9.55556,0,-14.7083,6.70833,-14.7083,14.7222c0,6.79167,14.7083,0,14.7083,0S1343.17,365.194,1343.79,360z"/>
     </g>
     <path fill="#E8A00E" d="M1292.51,374.708c0,28.3333,22.9444,51.2639,51.2639,51.2639c28.3472,0,51.2639,-22.9306,51.2639,-51.2639l0,11.5694c0,28.3333,-22.9167,51.2639,-51.2639,51.2639c-28.3194,0,-51.2639,-22.9306,-51.2639,-51.2639L1292.51,374.708z"/>
     <path fill="#E8A00E" d="M1294.32,374.708c0,-27.3333,22.1528,-49.4861,49.4861,-49.4861c27.3194,0,49.4861,22.1667,49.4861,49.4861l0,11.5694c0,-27.3333,-22.1667,-49.4861,-49.4861,-49.4861c-27.3472,0,-49.4861,22.1667,-49.4861,49.4861L1294.32,374.708z"/>
     <path fill="#FEE068" d="M1343.79,323.431c-28.3194,0,-51.2639,22.9583,-51.2639,51.2778c0,28.3333,22.9444,51.2639,51.2639,51.2639c28.3472,0,51.2639,-22.9306,51.2639,-51.2639C1395.06,346.389,1372.14,323.431,1343.79,323.431zM1343.79,424.194c-27.3333,0,-49.4861,-22.1528,-49.4861,-49.4861s22.1528,-49.4861,49.4861,-49.4861c27.3472,0,49.4861,22.1667,49.4861,49.4861S1371.12,424.194,1343.79,424.194z"/>
     <path opacity="0.49" fill="#FFFFFF" enable-background="new    " d="M1294.32,373.903c0,-27.3333,22.1528,-49.4861,49.4861,-49.4861c27.3194,0,49.4861,22.1528,49.4861,49.4861l0,0.819444c0,-27.3333,-22.1667,-49.4861,-49.4861,-49.4861c-27.3472,0,-49.4861,22.1528,-49.4861,49.4861L1294.32,373.903z"/>
     <path opacity="0.12" enable-background="new    " d="M1395.03,375.764c0,28.3056,-22.9167,51.2361,-51.2361,51.2361s-51.2361,-22.9306,-51.2361,-51.2361l0,-0.847222c0,28.3056,22.9444,51.25,51.2361,51.25c28.3194,0,51.2361,-22.9444,51.2361,-51.25L1395.03,375.764z"/>
     <path opacity="0.12" enable-background="new    " d="M1395.9,387.819c0,28.7639,-23.3611,52.0972,-52.1111,52.0972c-28.7778,0,-52.0833,-23.3333,-52.0833,-52.0972l0,-0.847222c0,28.7639,23.3056,52.0972,52.0833,52.0972c28.75,0,52.1111,-23.3333,52.1111,-52.0972L1395.9,387.819z"/>
    </g>
    <rect width="30.3472" x="1270.15" y="584.194" fill="#F7BD13" height="104.167"/>
    <rect width="30.3472" x="1328.64" y="674.472" fill="#F7BD13" height="104.167"/>
    <rect width="30.3472" x="1380.72" y="584.194" fill="#F7BD13" height="104.167"/>
    <circle fill="#333333" cx="338.667" cy="164.056" r="17.3611"/>
    <circle fill="#333333" cx="498.389" cy="164.056" r="17.3611"/>
    <circle fill="#333333" cx="756.806" cy="164.056" r="17.3611"/>
    <circle fill="#333333" cx="1192.83" cy="164.056" r="17.3611"/>
    <rect width="319.444" x="828.25" y="56.4167" fill="#333333" height="107.639"/>
    <rect width="871.528" x="338.667" y="236.972" fill="#F2F2F2" height="722.222"/>
    <g>
     <path fill="#7EB4F0" d="M447.417,402.417l93.3889,0c54,0,72.7917,19.5694,61.5694,72.7917l-9.91667,46.1806c-8.61111,40.6944,-27.6528,76.6944,-86.875,76.6944l-99.6528,0L447.417,402.417zM512.361,565.986c25.3056,0,38.0972,-22.6944,42.5278,-44.6111l9.91667,-46.1806c7.04167,-32.6111,-2.08333,-40.6944,-30.7917,-40.6944l-55.8333,0l-27.9167,131.486L512.361,565.986z"/>
     <path fill="#7EB4F0" d="M676.653,435.986l1.44444,0c16.7222,-25.0833,39.25,-30.8889,66.1528,-30.8889c70.875,0,63.6111,44.7083,51.25,103.222c-12,55.9722,-27.2639,91.9583,-92.6806,91.9583c-23.2639,0,-46.8889,-4.36111,-51.6111,-27.625l-1.81944,0l-22.8889,107.944L580.694,680.597l58.1528,-273.319l45.7917,0L676.653,435.986zM749.708,508.306c9.08333,-43.25,15.2639,-68.3194,-26.5278,-68.3194c-46.8889,0,-50.5278,22.8889,-59.9722,68.3194c-8.72222,40.7083,-6.18056,57.0694,33.4444,57.0694C728.264,565.375,739.167,556.292,749.708,508.306z"/>
     <path fill="#7EB4F0" d="M833.722,562.875l-19.0833,35.2083l-36.9583,0l101.167,-185.972l52.5694,0l23.5556,185.972l-36.1944,0l-4.72222,-35.2083L833.722,562.875zM900.431,439.389l-0.5,0l-52.3194,96.4583l64.2222,0L900.431,439.389z"/>
     <path fill="#7EB4F0" d="M1107.21,474.347l2.22222,-10.1667c4.45833,-21.5694,-3.47222,-23.0556,-34.7083,-23.0556c-35.9583,0,-43.6528,5.94444,-51.3333,42.4028l-8.66667,41.1667c-7.69444,37.1944,-4.72222,44.375,32.7222,44.375c28.75,0,41.9028,-0.986111,47.3472,-27.5139l2.23611,-10.1667l35.7083,0l-2.48611,12.1528c-11.1667,56.0417,-42.9028,54.0694,-89.2778,56.0417c-65.9444,2.48611,-73.1528,-19.0972,-62.2222,-73.4028l8.93056,-42.6528c12.6389,-59.5139,38.6806,-72.9028,93.4722,-72.9028c46.375,0,72.6389,0.25,63.9722,53.5556l-2.23611,10.1667L1107.21,474.347z"/>
    </g>
    <g>
     <path fill="#7EB4F0" d="M442.681,817l-11.2083,0l10.3472,-48.7639l-17.1111,0l2.02778,-9.56944l45.4306,0l-2.02778,9.56944l-17.1111,0L442.681,817z"/>
     <path fill="#7EB4F0" d="M489.944,782.778l27.2917,0l-2.02778,9.18056l-27.2917,0l-3.26389,15.4722l29.0139,0l-2.02778,9.55556l-40.2222,0l12.375,-58.3333l39.9722,0l-2.02778,9.56944l-28.7778,0L489.944,782.778z"/>
     <path fill="#7EB4F0" d="M570.431,778.194l0.694444,-3.19444c1.40278,-6.75,-1.08333,-7.23611,-10.8889,-7.23611c-11.2778,0,-13.6944,1.875,-16.0972,13.3056l-2.72222,12.9167c-2.40278,11.6667,-1.47222,13.9167,10.2639,13.9167c9.02778,0,13.1389,-0.305556,14.8611,-8.625l0.694444,-3.19444l11.2083,0l-0.777778,3.80556c-3.5,17.5833,-13.4583,16.9722,-28,17.5833c-20.6944,0.791667,-22.9444,-5.98611,-19.5278,-23.0139l2.80556,-13.375c3.97222,-18.6806,12.1389,-22.8611,29.3194,-22.8611c14.5417,0,22.7917,0.0833333,20.0694,16.7917l-0.694444,3.19444L570.431,778.208z"/>
     <path fill="#7EB4F0" d="M638.472,817l-11.2083,0l5.29167,-24.8889L605.417,792.111l-5.29167,24.8889l-11.1944,0l12.3611,-58.3333L612.5,758.667l-5.05556,23.8889l27.1528,0l5.05556,-23.8889l11.1944,0L638.472,817z"/>
     <path fill="#7EB4F0" d="M711.194,758.667l11.1944,0l-12.3611,58.3333l-18.5833,0l-14.4722,-48.7639l-0.388889,0l-9.41667,48.7639L655.972,817l12.3611,-58.3333l18.5139,0l14.625,48.7778l0.305556,0L711.194,758.667z"/>
     <path fill="#7EB4F0" d="M782.917,779.514l-3.26389,15.7083c-3.97222,18.6806,-11.9722,22.25,-29.6389,22.25c-18.0417,0,-24.0278,-3.11111,-19.9167,-22.25l3.26389,-15.7083c3.88889,-18.125,10.7361,-21.3056,29.2361,-21.3056C779.417,758.194,786.958,760.764,782.917,779.514zM744.569,779.514l-3.26389,15.7083c-2.48611,11.5972,-0.472222,12.6806,10.7361,12.6806c10.1806,0,14,-1.40278,16.4167,-12.6806l3.26389,-15.7083c2.56944,-10.9722,-1.16667,-11.75,-11.125,-11.75C748.542,767.764,746.819,770.25,744.569,779.514z"/>
     <path fill="#7EB4F0" d="M803.597,807.431l27.2222,0l-2.02778,9.55556l-38.4167,0l12.3611,-58.3333l11.1944,0L803.597,807.431z"/>
     <path fill="#7EB4F0" d="M896.903,779.514l-3.26389,15.7083c-3.95833,18.6806,-11.9722,22.25,-29.6389,22.25c-18.0417,0,-24.0139,-3.11111,-19.9167,-22.25l3.26389,-15.7083c3.88889,-18.125,10.7361,-21.3056,29.2361,-21.3056C893.403,758.194,900.944,760.764,896.903,779.514zM858.556,779.514l-3.26389,15.7083c-2.48611,11.5972,-0.458333,12.6806,10.7361,12.6806c10.1806,0,14,-1.40278,16.4028,-12.6806l3.26389,-15.7083c2.58333,-10.9722,-1.16667,-11.75,-11.125,-11.75C862.514,767.764,860.806,770.25,858.556,779.514z"/>
     <path fill="#7EB4F0" d="M959.278,786.042l-2.26389,10.5833c-3.65278,17.2639,-8.79167,20.8333,-29.5556,20.8333c-18.6667,0,-24.9583,-3.25,-20.7639,-23.0139l2.80556,-13.375c4.125,-19.4444,12.5139,-22.8611,30.5556,-22.8611c14.2361,0,25.5972,-0.708333,21.1528,18.0417l-11.125,0c1.875,-8.55556,-2.33333,-8.47222,-12.0556,-8.47222c-13.0556,0,-14.7639,2.02778,-17.3472,13.3056L917.903,794.444c-2.5,12.2083,-0.861111,13.4583,11.5833,13.4583c10.6667,0,14.0139,-0.236111,16.3472,-11.2778l0.375,-2.09722l-14.6944,0l1.86111,-8.47222L959.278,786.056z"/>
     <path fill="#7EB4F0" d="M979.319,817l-11.1944,0l12.3611,-58.3333l11.2083,0L979.319,817z"/>
     <path fill="#7EB4F0" d="M1014.53,782.778l27.2917,0l-2.02778,9.18056L1012.5,791.958l-3.26389,15.4722l29.0139,0l-2.02778,9.55556l-40.2222,0l12.375,-58.3333l39.9722,0l-2.02778,9.56944l-28.7778,0L1014.53,782.778z"/>
     <path fill="#7EB4F0" d="M1064.75,798.403l-0.625,2.72222c-1.40278,6.68056,1.41667,7.16667,11.75,7.16667c10.1806,0,11.9722,-1.875,13.3889,-8.63889c1.77778,-8.31944,-2.88889,-7.23611,-11.5139,-7.69444c-12.375,-0.791667,-22.4722,-0.305556,-18.8194,-17.2778c3.34722,-16.0139,13.6111,-16.4861,27.6111,-16.4861c11.8889,0,21.5417,0.375,18.2639,15.7083l-0.375,1.875l-11.2083,0l0.388889,-1.875c1.31944,-6.29167,-1.16667,-6.54167,-9.02778,-6.54167c-11.125,0,-13.1389,1.09722,-14.4583,7.30556c-1.55556,7.16667,-0.166667,7.38889,11.125,8.09722c17.7222,1.08333,22.3889,2.02778,19.2083,16.875c-3.41667,16.4167,-11.5,17.8056,-26.5139,17.8056c-12.9167,0,-24.5,0.388889,-21,-16.3333l0.611111,-2.72222L1064.75,798.389z"/>
     <path d="M561.597,914.222l-7.16667,0l-10.8889,-37.4722l-0.111111,0l-11.0556,37.4722l-7.04167,0l-12.7778,-41.6389l4.83333,0l11.3194,38.0278l0.111111,0l11.2222,-38.0278l6.94444,0l11.0972,38.0278l0.111111,0l11.6111,-38.0278l4.88889,0L561.597,914.222z"/>
     <path d="M583.736,910.056l21.2083,0l0,4.16667l-25.9306,0l0,-41.6389l4.72222,0L583.736,910.056z"/>
     <path d="M645.542,914.222l-7.72222,0l-23.375,-37.7639l-0.111111,0l0,37.7639l-4.72222,0l0,-41.6389l7.77778,0l23.3194,38.0278l0.111111,0l0,-38.0278l4.72222,0L645.542,914.222z"/>
     <path d="M652.722,914.222l0,-41.6389l21.1111,0c7.81944,0,9.65278,3.72222,9.65278,10.9861c0,4.38889,-0.888889,7.33333,-5.20833,8.77778l0,0.111111c5.54167,1,6.43056,5,6.43056,10.1528c0,7.5,-2.77778,11.6111,-9.83333,11.6111L652.722,914.222zM657.444,890.722l13.7222,0c5.66667,0,7.59722,-1.27778,7.59722,-7.77778c0,-5.59722,-2.16667,-6.20833,-7.11111,-6.20833l-14.2083,0L657.444,890.722zM657.444,910.056l14.9444,0c5.11111,0,7.59722,-0.611111,7.59722,-7c0,-5.5,-0.833333,-8.27778,-7.04167,-8.16667l-15.5,0L657.444,910.056z"/>
     <path d="M702.389,896.958l0,4.16667l-14.4861,0l0,-4.16667L702.389,896.958z"/>
     <path d="M705.944,872.583l20.2639,0c5.05556,0,14.2778,0.666667,14.2778,16.0417l0,9.94444c0,4.09722,-0.666667,15.6528,-13.1667,15.6528l-21.375,0L705.944,872.583zM726.208,910.056c8.33333,0,9.44444,-4.88889,9.55556,-12.3333l0,-10.9306c0,-2.33333,-0.833333,-10.0556,-8.77778,-10.0556l-16.3194,0l0,33.3056L726.208,910.042z"/>
     <path d="M751.889,914.222l-4.72222,0l0,-41.6389l4.72222,0L751.889,914.222z"/>
     <path d="M770.333,896.958l0,4.16667l-14.4861,0l0,-4.16667L770.333,896.958z"/>
     <path d="M773.889,872.583l20.2639,0c5.05556,0,14.2639,0.666667,14.2639,16.0417l0,9.94444c0,4.09722,-0.666667,15.6528,-13.1528,15.6528L773.889,914.222L773.889,872.583zM794.153,910.056c8.33333,0,9.44444,-4.88889,9.55556,-12.3333l0,-10.9306c0,-2.33333,-0.833333,-10.0556,-8.77778,-10.0556L778.611,876.736l0,33.3056L794.153,910.042z"/>
     <path d="M814.389,872.583l21.2083,0c8.04167,0,9.93056,5.44444,9.93056,12.5972c0,3.72222,-0.0555556,12.8333,-10.1528,12.8333l-16.2639,0l0,16.2083l-4.72222,0L814.389,872.583zM819.111,876.736l0,17.0972l12.2083,0c6.27778,0,9.5,0.0555556,9.5,-8.05556c0,-8,-1.44444,-9.04167,-7.26389,-9.04167L819.111,876.736z"/>
     <path d="M849.278,899.5l0,-12.2083c0.277778,-13.3333,4.77778,-15.0556,17.6528,-15.0556c13,0,17.5,1.72222,17.7639,15.0556l0,12.2083c-0.277778,13.3333,-4.77778,15.0556,-17.6528,15.0556C854.056,914.556,849.556,912.833,849.278,899.5zM854,887.292l0,12.2083c0,10.8194,2.70833,10.8889,12.9306,10.8889c10.3333,0,13.0556,-0.0694444,13.0556,-10.8889l0,-12.2083c0,-10.8333,-2.72222,-10.8889,-13.0556,-10.8889C856.708,876.403,854,876.458,854,887.292z"/>
     <path d="M887.611,899.5l0,-12.2083c0.291667,-13.3333,4.77778,-15.0556,17.6528,-15.0556c13,0,17.5,1.72222,17.7639,15.0556l0,12.2083c-0.277778,13.3333,-4.77778,15.0556,-17.6528,15.0556C892.389,914.556,887.889,912.833,887.611,899.5zM892.333,887.292l0,12.2083c0,10.8194,2.72222,10.8889,12.9444,10.8889c10.3194,0,13.0417,-0.0694444,13.0417,-10.8889l0,-12.2083c0,-10.8333,-2.72222,-10.8889,-13.0417,-10.8889C895.056,876.403,892.333,876.458,892.333,887.292z"/>
     <path d="M925.944,899.5l0,-12.2083c0.291667,-13.3333,4.77778,-15.0556,17.6528,-15.0556c13,0,17.5,1.72222,17.7639,15.0556l0,12.2083c-0.277778,13.3333,-4.77778,15.0556,-17.6528,15.0556C930.708,914.556,926.222,912.833,925.944,899.5zM930.667,887.292l0,12.2083c0,10.8194,2.72222,10.8889,12.9444,10.8889c10.3194,0,13.0417,-0.0694444,13.0417,-10.8889l0,-12.2083c0,-10.8333,-2.72222,-10.8889,-13.0417,-10.8889C933.389,876.403,930.667,876.458,930.667,887.292z"/>
     <path d="M987.708,914.222l-4.72222,0l0,-38.0278l-10.6667,11.7222l-2.94444,-2.83333l11.5,-12.4861l6.81944,0L987.694,914.222z"/>
    </g>
    <g>
     <path fill="#F7BD13" d="M1088.67,99.8194c-7.63889,0,-13.8889,-5.08333,-13.8889,-11.2917s-6.25,-11.2917,-13.8889,-11.2917l-194.444,0c-7.63889,0,-13.8889,6.25,-13.8889,13.8889l0,38.1944c0,7.63889,6.25,13.8889,13.8889,13.8889l194.444,0c7.63889,0,13.8889,-5.08333,13.8889,-11.2917s6.25,-11.2917,13.8889,-11.2917l17.3611,0c7.63889,0,13.8889,-4.68056,13.8889,-10.4167s-6.25,-10.4167,-13.8889,-10.4167L1088.67,99.7917z"/>
    </g>
    <g>
     <rect width="227.056" x="1251.86" opacity="0.2" y="27.7778" fill="#FFFFFF" height="9.68056"/>
     <rect width="239.486" x="0" opacity="0.2" y="27.7778" fill="#FFFFFF" height="9.68056"/>
     <rect width="1012.38" x="239.486" opacity="0.2" fill="#FFFFFF" height="9.68056"/>
     <rect width="871.528" x="338.667" opacity="0.2" y="959.194" height="2.41667"/>
    </g>
    <g>
     <rect width="1478.9" x="0" opacity="0.2" y="1104.17" height="9.68056"/>
     <path fill="#103D1A" d="M140.319,161.292c0,-19.1667,-15.5556,-34.7222,-34.7222,-34.7222s-34.7222,15.5556,-34.7222,34.7222l0,-9.68056c0,-19.1667,15.5556,-34.7222,34.7222,-34.7222s34.7222,15.5556,34.7222,34.7222L140.319,161.292z"/>
     <path fill="#103D1A" d="M1400.17,988.056c0,-19.1944,-15.5278,-34.7222,-34.7222,-34.7222s-34.7222,15.5278,-34.7222,34.7222l0,-9.68056c0,-19.1944,15.5278,-34.7222,34.7222,-34.7222s34.7222,15.5278,34.7222,34.7222L1400.17,988.056z"/>
     <path fill="#103D1A" d="M1400.17,161.292c0,-19.1806,-15.5278,-34.7361,-34.7222,-34.7361s-34.7222,15.5556,-34.7222,34.7361l0,-9.68056c0,-19.1806,15.5278,-34.7361,34.7222,-34.7361s34.7222,15.5556,34.7222,34.7361L1400.17,161.292z"/>
     <rect width="1146.26" x="105.597" opacity="0.2" y="1011.28" height="9.68056"/>
     <rect width="1146.26" x="105.597" opacity="0.2" y="1059.89" height="9.68056"/>
     <path fill="#103D1A" d="M64.3611,288.319c0,-7.66667,-6.22222,-13.8889,-13.8889,-13.8889s-13.8889,6.22222,-13.8889,13.8889l0,-9.68056c0,-7.66667,6.22222,-13.8889,13.8889,-13.8889s13.8889,6.22222,13.8889,13.8889L64.3611,288.319z"/>
     <path fill="#103D1A" d="M64.3611,895.958c0,-7.68056,-6.22222,-13.8889,-13.8889,-13.8889s-13.8889,6.20833,-13.8889,13.8889l0,-9.68056c0,-7.68056,6.22222,-13.8889,13.8889,-13.8889s13.8889,6.20833,13.8889,13.8889L64.3611,895.958z"/>
     <path opacity="0.2" d="M356.028,173.736c0,-9.58333,-7.77778,-17.3611,-17.3611,-17.3611s-17.3611,7.77778,-17.3611,17.3611l0,-9.68056c0,-9.58333,7.77778,-17.3611,17.3611,-17.3611s17.3611,7.77778,17.3611,17.3611L356.028,173.736z"/>
     <path opacity="0.2" d="M515.75,173.736c0,-9.58333,-7.77778,-17.3611,-17.3611,-17.3611s-17.3611,7.77778,-17.3611,17.3611l0,-9.68056c0,-9.58333,7.77778,-17.3611,17.3611,-17.3611s17.3611,7.77778,17.3611,17.3611L515.75,173.736z"/>
     <path opacity="0.2" d="M774.167,173.736c0,-9.58333,-7.77778,-17.3611,-17.3611,-17.3611s-17.3611,7.77778,-17.3611,17.3611l0,-9.68056c0,-9.58333,7.77778,-17.3611,17.3611,-17.3611s17.3611,7.77778,17.3611,17.3611L774.167,173.736z"/>
     <path opacity="0.2" d="M1210.19,173.736c0,-9.58333,-7.77778,-17.3611,-17.3611,-17.3611s-17.3611,7.77778,-17.3611,17.3611l0,-9.68056c0,-9.58333,7.77778,-17.3611,17.3611,-17.3611s17.3611,7.77778,17.3611,17.3611L1210.19,173.736z"/>
    </g>
    <path opacity="0.2" d="M0,1206.31c0,22.9167,18.75,41.6667,41.6667,41.6667l1395.57,0c22.9167,0,41.6667,-18.75,41.6667,-41.6667l0,5.20833c0,22.9167,-18.75,41.6667,-41.6667,41.6667L41.6667,1253.18c-22.9167,0,-41.6667,-18.75,-41.6667,-41.6667L0,1206.31z"/>
   </g>
  </g>
  <g transform="translate(34.035,1534.05)">
   <rect width="31.93" x="0" y="0" fill="#8D8C8C" height="31.9" id="connector0pin"/>
   <rect width="16.4442" x="7.79153" y="7.73544" fill="#8C8663" height="16.4152"/>
   <polygon fill="#B8AF82" points="0,31.9,7.79153,24.1368,7.79153,6.97162,0,0"/>
   <polygon fill="#80795B" points="24.2079,7.76321,7.90264,7.76321,0,0,31.93,0"/>
   <polygon fill="#5E5B43" points="24.2079,24.1368,24.2079,7.76321,31.93,0,31.93,31.9"/>
   <polygon fill="#9A916C" points="0,31.9,7.87486,24.1368,24.2079,24.1368,31.93,31.9"/>
  </g>
  <g transform="translate(34.035,34.05)">
   <rect width="31.93" x="0" y="0" fill="#8D8C8C" height="31.9" id="connector35pin"/>
   <rect width="16.4442" x="7.79153" y="7.73544" fill="#8C8663" height="16.4152"/>
   <polygon fill="#B8AF82" points="0,31.9,7.79153,24.1368,7.79153,6.97162,0,0"/>
   <polygon fill="#80795B" points="24.2079,7.76321,7.90264,7.76321,0,0,31.93,0"/>
   <polygon fill="#5E5B43" points="24.2079,24.1368,24.2079,7.76321,31.93,0,31.93,31.9"/>
   <polygon fill="#9A916C" points="0,31.9,7.87486,24.1368,24.2079,24.1368,31.93,31.9"/>
  </g>
  <g transform="translate(134.035,1534.05)">
   <rect width="31.93" x="0" y="0" fill="#8D8C8C" height="31.9" id="connector1pin"/>
   <rect width="16.4442" x="7.79153" y="7.73544" fill="#8C8663" height="16.4152"/>
   <polygon fill="#B8AF82" points="0,31.9,7.79153,24.1368,7.79153,6.97162,0,0"/>
   <polygon fill="#80795B" points="24.2079,7.76321,7.90264,7.76321,0,0,31.93,0"/>
   <polygon fill="#5E5B43" points="24.2079,24.1368,24.2079,7.76321,31.93,0,31.93,31.9"/>
   <polygon fill="#9A916C" points="0,31.9,7.87486,24.1368,24.2079,24.1368,31.93,31.9"/>
  </g>
  <g transform="translate(134.035,34.05)">
   <rect width="31.93" x="0" y="0" fill="#8D8C8C" height="31.9" id="connector34pin"/>
   <rect width="16.4442" x="7.79153" y="7.73544" fill="#8C8663" height="16.4152"/>
   <polygon fill="#B8AF82" points="0,31.9,7.79153,24.1368,7.79153,6.97162,0,0"/>
   <polygon fill="#80795B" points="24.2079,7.76321,7.90264,7.76321,0,0,31.93,0"/>
   <polygon fill="#5E5B43" points="24.2079,24.1368,24.2079,7.76321,31.93,0,31.93,31.9"/>
   <polygon fill="#9A916C" points="0,31.9,7.87486,24.1368,24.2079,24.1368,31.93,31.9"/>
  </g>
  <g transform="translate(234.035,1534.05)">
   <rect width="31.93" x="0" y="0" fill="#8D8C8C" height="31.9" id="connector2pin"/>
   <rect width="16.4442" x="7.79153" y="7.73544" fill="#8C8663" height="16.4152"/>
   <polygon fill="#B8AF82" points="0,31.9,7.79153,24.1368,7.79153,6.97162,0,0"/>
   <polygon fill="#80795B" points="24.2079,7.76321,7.90264,7.76321,0,0,31.93,0"/>
   <polygon fill="#5E5B43" points="24.2079,24.1368,24.2079,7.76321,31.93,0,31.93,31.9"/>
   <polygon fill="#9A916C" points="0,31.9,7.87486,24.1368,24.2079,24.1368,31.93,31.9"/>
  </g>
  <g transform="translate(234.035,34.05)">
   <rect width="31.93" x="0" y="0" fill="#8D8C8C" height="31.9" id="connector33pin"/>
   <rect width="16.4442" x="7.79153" y="7.73544" fill="#8C8663" height="16.4152"/>
   <polygon fill="#B8AF82" points="0,31.9,7.79153,24.1368,7.79153,6.97162,0,0"/>
   <polygon fill="#80795B" points="24.2079,7.76321,7.90264,7.76321,0,0,31.93,0"/>
   <polygon fill="#5E5B43" points="24.2079,24.1368,24.2079,7.76321,31.93,0,31.93,31.9"/>
   <polygon fill="#9A916C" points="0,31.9,7.87486,24.1368,24.2079,24.1368,31.93,31.9"/>
  </g>
  <g transform="translate(334.035,1534.05)">
   <rect width="31.93" x="0" y="0" fill="#8D8C8C" height="31.9" id="connector3pin"/>
   <rect width="16.4442" x="7.79153" y="7.73544" fill="#8C8663" height="16.4152"/>
   <polygon fill="#B8AF82" points="0,31.9,7.79153,24.1368,7.79153,6.97162,0,0"/>
   <polygon fill="#80795B" points="24.2079,7.76321,7.90264,7.76321,0,0,31.93,0"/>
   <polygon fill="#5E5B43" points="24.2079,24.1368,24.2079,7.76321,31.93,0,31.93,31.9"/>
   <polygon fill="#9A916C" points="0,31.9,7.87486,24.1368,24.2079,24.1368,31.93,31.9"/>
  </g>
  <g transform="translate(334.035,34.05)">
   <rect width="31.93" x="0" y="0" fill="#8D8C8C" height="31.9" id="connector32pin"/>
   <rect width="16.4442" x="7.79153" y="7.73544" fill="#8C8663" height="16.4152"/>
   <polygon fill="#B8AF82" points="0,31.9,7.79153,24.1368,7.79153,6.97162,0,0"/>
   <polygon fill="#80795B" points="24.2079,7.76321,7.90264,7.76321,0,0,31.93,0"/>
   <polygon fill="#5E5B43" points="24.2079,24.1368,24.2079,7.76321,31.93,0,31.93,31.9"/>
   <polygon fill="#9A916C" points="0,31.9,7.87486,24.1368,24.2079,24.1368,31.93,31.9"/>
  </g>
  <g transform="translate(434.035,1534.05)">
   <rect width="31.93" x="0" y="0" fill="#8D8C8C" height="31.9" id="connector4pin"/>
   <rect width="16.4442" x="7.79153" y="7.73544" fill="#8C8663" height="16.4152"/>
   <polygon fill="#B8AF82" points="0,31.9,7.79153,24.1368,7.79153,6.97162,0,0"/>
   <polygon fill="#80795B" points="24.2079,7.76321,7.90264,7.76321,0,0,31.93,0"/>
   <polygon fill="#5E5B43" points="24.2079,24.1368,24.2079,7.76321,31.93,0,31.93,31.9"/>
   <polygon fill="#9A916C" points="0,31.9,7.87486,24.1368,24.2079,24.1368,31.93,31.9"/>
  </g>
  <g transform="translate(434.035,34.05)">
   <rect width="31.93" x="0" y="0" fill="#8D8C8C" height="31.9" id="connector31pin"/>
   <rect width="16.4442" x="7.79153" y="7.73544" fill="#8C8663" height="16.4152"/>
   <polygon fill="#B8AF82" points="0,31.9,7.79153,24.1368,7.79153,6.97162,0,0"/>
   <polygon fill="#80795B" points="24.2079,7.76321,7.90264,7.76321,0,0,31.93,0"/>
   <polygon fill="#5E5B43" points="24.2079,24.1368,24.2079,7.76321,31.93,0,31.93,31.9"/>
   <polygon fill="#9A916C" points="0,31.9,7.87486,24.1368,24.2079,24.1368,31.93,31.9"/>
  </g>
  <g transform="translate(534.035,1534.05)">
   <rect width="31.93" x="0" y="0" fill="#8D8C8C" height="31.9" id="connector5pin"/>
   <rect width="16.4442" x="7.79153" y="7.73544" fill="#8C8663" height="16.4152"/>
   <polygon fill="#B8AF82" points="0,31.9,7.79153,24.1368,7.79153,6.97162,0,0"/>
   <polygon fill="#80795B" points="24.2079,7.76321,7.90264,7.76321,0,0,31.93,0"/>
   <polygon fill="#5E5B43" points="24.2079,24.1368,24.2079,7.76321,31.93,0,31.93,31.9"/>
   <polygon fill="#9A916C" points="0,31.9,7.87486,24.1368,24.2079,24.1368,31.93,31.9"/>
  </g>
  <g transform="translate(534.035,34.05)">
   <rect width="31.93" x="0" y="0" fill="#8D8C8C" height="31.9" id="connector30pin"/>
   <rect width="16.4442" x="7.79153" y="7.73544" fill="#8C8663" height="16.4152"/>
   <polygon fill="#B8AF82" points="0,31.9,7.79153,24.1368,7.79153,6.97162,0,0"/>
   <polygon fill="#80795B" points="24.2079,7.76321,7.90264,7.76321,0,0,31.93,0"/>
   <polygon fill="#5E5B43" points="24.2079,24.1368,24.2079,7.76321,31.93,0,31.93,31.9"/>
   <polygon fill="#9A916C" points="0,31.9,7.87486,24.1368,24.2079,24.1368,31.93,31.9"/>
  </g>
  <g transform="translate(634.035,1534.05)">
   <rect width="31.93" x="0" y="0" fill="#8D8C8C" height="31.9" id="connector6pin"/>
   <rect width="16.4442" x="7.79153" y="7.73544" fill="#8C8663" height="16.4152"/>
   <polygon fill="#B8AF82" points="0,31.9,7.79153,24.1368,7.79153,6.97162,0,0"/>
   <polygon fill="#80795B" points="24.2079,7.76321,7.90264,7.76321,0,0,31.93,0"/>
   <polygon fill="#5E5B43" points="24.2079,24.1368,24.2079,7.76321,31.93,0,31.93,31.9"/>
   <polygon fill="#9A916C" points="0,31.9,7.87486,24.1368,24.2079,24.1368,31.93,31.9"/>
  </g>
  <g transform="translate(634.035,34.05)">
   <rect width="31.93" x="0" y="0" fill="#8D8C8C" height="31.9" id="connector29pin"/>
   <rect width="16.4442" x="7.79153" y="7.73544" fill="#8C8663" height="16.4152"/>
   <polygon fill="#B8AF82" points="0,31.9,7.79153,24.1368,7.79153,6.97162,0,0"/>
   <polygon fill="#80795B" points="24.2079,7.76321,7.90264,7.76321,0,0,31.93,0"/>
   <polygon fill="#5E5B43" points="24.2079,24.1368,24.2079,7.76321,31.93,0,31.93,31.9"/>
   <polygon fill="#9A916C" points="0,31.9,7.87486,24.1368,24.2079,24.1368,31.93,31.9"/>
  </g>
  <g transform="translate(734.035,1534.05)">
   <rect width="31.93" x="0" y="0" fill="#8D8C8C" height="31.9" id="connector7pin"/>
   <rect width="16.4442" x="7.79153" y="7.73544" fill="#8C8663" height="16.4152"/>
   <polygon fill="#B8AF82" points="0,31.9,7.79153,24.1368,7.79153,6.97162,0,0"/>
   <polygon fill="#80795B" points="24.2079,7.76321,7.90264,7.76321,0,0,31.93,0"/>
   <polygon fill="#5E5B43" points="24.2079,24.1368,24.2079,7.76321,31.93,0,31.93,31.9"/>
   <polygon fill="#9A916C" points="0,31.9,7.87486,24.1368,24.2079,24.1368,31.93,31.9"/>
  </g>
  <g transform="translate(734.035,34.05)">
   <rect width="31.93" x="0" y="0" fill="#8D8C8C" height="31.9" id="connector28pin"/>
   <rect width="16.4442" x="7.79153" y="7.73544" fill="#8C8663" height="16.4152"/>
   <polygon fill="#B8AF82" points="0,31.9,7.79153,24.1368,7.79153,6.97162,0,0"/>
   <polygon fill="#80795B" points="24.2079,7.76321,7.90264,7.76321,0,0,31.93,0"/>
   <polygon fill="#5E5B43" points="24.2079,24.1368,24.2079,7.76321,31.93,0,31.93,31.9"/>
   <polygon fill="#9A916C" points="0,31.9,7.87486,24.1368,24.2079,24.1368,31.93,31.9"/>
  </g>
  <g transform="translate(834.035,1534.05)">
   <rect width="31.93" x="0" y="0" fill="#8D8C8C" height="31.9" id="connector8pin"/>
   <rect width="16.4442" x="7.79153" y="7.73544" fill="#8C8663" height="16.4152"/>
   <polygon fill="#B8AF82" points="0,31.9,7.79153,24.1368,7.79153,6.97162,0,0"/>
   <polygon fill="#80795B" points="24.2079,7.76321,7.90264,7.76321,0,0,31.93,0"/>
   <polygon fill="#5E5B43" points="24.2079,24.1368,24.2079,7.76321,31.93,0,31.93,31.9"/>
   <polygon fill="#9A916C" points="0,31.9,7.87486,24.1368,24.2079,24.1368,31.93,31.9"/>
  </g>
  <g transform="translate(834.035,34.05)">
   <rect width="31.93" x="0" y="0" fill="#8D8C8C" height="31.9" id="connector27pin"/>
   <rect width="16.4442" x="7.79153" y="7.73544" fill="#8C8663" height="16.4152"/>
   <polygon fill="#B8AF82" points="0,31.9,7.79153,24.1368,7.79153,6.97162,0,0"/>
   <polygon fill="#80795B" points="24.2079,7.76321,7.90264,7.76321,0,0,31.93,0"/>
   <polygon fill="#5E5B43" points="24.2079,24.1368,24.2079,7.76321,31.93,0,31.93,31.9"/>
   <polygon fill="#9A916C" points="0,31.9,7.87486,24.1368,24.2079,24.1368,31.93,31.9"/>
  </g>
  <g transform="translate(934.035,1534.05)">
   <rect width="31.93" x="0" y="0" fill="#8D8C8C" height="31.9" id="connector9pin"/>
   <rect width="16.4442" x="7.79153" y="7.73544" fill="#8C8663" height="16.4152"/>
   <polygon fill="#B8AF82" points="0,31.9,7.79153,24.1368,7.79153,6.97162,0,0"/>
   <polygon fill="#80795B" points="24.2079,7.76321,7.90264,7.76321,0,0,31.93,0"/>
   <polygon fill="#5E5B43" points="24.2079,24.1368,24.2079,7.76321,31.93,0,31.93,31.9"/>
   <polygon fill="#9A916C" points="0,31.9,7.87486,24.1368,24.2079,24.1368,31.93,31.9"/>
  </g>
  <g transform="translate(934.035,34.05)">
   <rect width="31.93" x="0" y="0" fill="#8D8C8C" height="31.9" id="connector26pin"/>
   <rect width="16.4442" x="7.79153" y="7.73544" fill="#8C8663" height="16.4152"/>
   <polygon fill="#B8AF82" points="0,31.9,7.79153,24.1368,7.79153,6.97162,0,0"/>
   <polygon fill="#80795B" points="24.2079,7.76321,7.90264,7.76321,0,0,31.93,0"/>
   <polygon fill="#5E5B43" points="24.2079,24.1368,24.2079,7.76321,31.93,0,31.93,31.9"/>
   <polygon fill="#9A916C" points="0,31.9,7.87486,24.1368,24.2079,24.1368,31.93,31.9"/>
  </g>
  <g transform="translate(1034.04,1534.05)">
   <rect width="31.93" x="0" y="0" fill="#8D8C8C" height="31.9" id="connector10pin"/>
   <rect width="16.4442" x="7.79153" y="7.73544" fill="#8C8663" height="16.4152"/>
   <polygon fill="#B8AF82" points="0,31.9,7.79153,24.1368,7.79153,6.97162,0,0"/>
   <polygon fill="#80795B" points="24.2079,7.76321,7.90264,7.76321,0,0,31.93,0"/>
   <polygon fill="#5E5B43" points="24.2079,24.1368,24.2079,7.76321,31.93,0,31.93,31.9"/>
   <polygon fill="#9A916C" points="0,31.9,7.87486,24.1368,24.2079,24.1368,31.93,31.9"/>
  </g>
  <g transform="translate(1034.04,34.05)">
   <rect width="31.93" x="0" y="0" fill="#8D8C8C" height="31.9" id="connector25pin"/>
   <rect width="16.4442" x="7.79153" y="7.73544" fill="#8C8663" height="16.4152"/>
   <polygon fill="#B8AF82" points="0,31.9,7.79153,24.1368,7.79153,6.97162,0,0"/>
   <polygon fill="#80795B" points="24.2079,7.76321,7.90264,7.76321,0,0,31.93,0"/>
   <polygon fill="#5E5B43" points="24.2079,24.1368,24.2079,7.76321,31.93,0,31.93,31.9"/>
   <polygon fill="#9A916C" points="0,31.9,7.87486,24.1368,24.2079,24.1368,31.93,31.9"/>
  </g>
  <g transform="translate(1134.04,1534.05)">
   <rect width="31.93" x="0" y="0" fill="#8D8C8C" height="31.9" id="connector11pin"/>
   <rect width="16.4442" x="7.79153" y="7.73544" fill="#8C8663" height="16.4152"/>
   <polygon fill="#B8AF82" points="0,31.9,7.79153,24.1368,7.79153,6.97162,0,0"/>
   <polygon fill="#80795B" points="24.2079,7.76321,7.90264,7.76321,0,0,31.93,0"/>
   <polygon fill="#5E5B43" points="24.2079,24.1368,24.2079,7.76321,31.93,0,31.93,31.9"/>
   <polygon fill="#9A916C" points="0,31.9,7.87486,24.1368,24.2079,24.1368,31.93,31.9"/>
  </g>
  <g transform="translate(1134.04,34.05)">
   <rect width="31.93" x="0" y="0" fill="#8D8C8C" height="31.9" id="connector24pin"/>
   <rect width="16.4442" x="7.79153" y="7.73544" fill="#8C8663" height="16.4152"/>
   <polygon fill="#B8AF82" points="0,31.9,7.79153,24.1368,7.79153,6.97162,0,0"/>
   <polygon fill="#80795B" points="24.2079,7.76321,7.90264,7.76321,0,0,31.93,0"/>
   <polygon fill="#5E5B43" points="24.2079,24.1368,24.2079,7.76321,31.93,0,31.93,31.9"/>
   <polygon fill="#9A916C" points="0,31.9,7.87486,24.1368,24.2079,24.1368,31.93,31.9"/>
  </g>
  <g transform="translate(1234.04,1534.05)">
   <rect width="31.93" x="0" y="0" fill="#8D8C8C" height="31.9" id="connector12pin"/>
   <rect width="16.4442" x="7.79153" y="7.73544" fill="#8C8663" height="16.4152"/>
   <polygon fill="#B8AF82" points="0,31.9,7.79153,24.1368,7.79153,6.97162,0,0"/>
   <polygon fill="#80795B" points="24.2079,7.76321,7.90264,7.76321,0,0,31.93,0"/>
   <polygon fill="#5E5B43" points="24.2079,24.1368,24.2079,7.76321,31.93,0,31.93,31.9"/>
   <polygon fill="#9A916C" points="0,31.9,7.87486,24.1368,24.2079,24.1368,31.93,31.9"/>
  </g>
  <g transform="translate(1234.04,34.05)">
   <rect width="31.93" x="0" y="0" fill="#8D8C8C" height="31.9" id="connector23pin"/>
   <rect width="16.4442" x="7.79153" y="7.73544" fill="#8C8663" height="16.4152"/>
   <polygon fill="#B8AF82" points="0,31.9,7.79153,24.1368,7.79153,6.97162,0,0"/>
   <polygon fill="#80795B" points="24.2079,7.76321,7.90264,7.76321,0,0,31.93,0"/>
   <polygon fill="#5E5B43" points="24.2079,24.1368,24.2079,7.76321,31.93,0,31.93,31.9"/>
   <polygon fill="#9A916C" points="0,31.9,7.87486,24.1368,24.2079,24.1368,31.93,31.9"/>
  </g>
  <g transform="translate(1334.04,1534.05)">
   <rect width="31.93" x="0" y="0" fill="#8D8C8C" height="31.9" id="connector13pin"/>
   <rect width="16.4442" x="7.79153" y="7.73544" fill="#8C8663" height="16.4152"/>
   <polygon fill="#B8AF82" points="0,31.9,7.79153,24.1368,7.79153,6.97162,0,0"/>
   <polygon fill="#80795B" points="24.2079,7.76321,7.90264,7.76321,0,0,31.93,0"/>
   <polygon fill="#5E5B43" points="24.2079,24.1368,24.2079,7.76321,31.93,0,31.93,31.9"/>
   <polygon fill="#9A916C" points="0,31.9,7.87486,24.1368,24.2079,24.1368,31.93,31.9"/>
  </g>
  <g transform="translate(1334.04,34.05)">
   <rect width="31.93" x="0" y="0" fill="#8D8C8C" height="31.9" id="connector22pin"/>
   <rect width="16.4442" x="7.79153" y="7.73544" fill="#8C8663" height="16.4152"/>
   <polygon fill="#B8AF82" points="0,31.9,7.79153,24.1368,7.79153,6.97162,0,0"/>
   <polygon fill="#80795B" points="24.2079,7.76321,7.90264,7.76321,0,0,31.93,0"/>
   <polygon fill="#5E5B43" points="24.2079,24.1368,24.2079,7.76321,31.93,0,31.93,31.9"/>
   <polygon fill="#9A916C" points="0,31.9,7.87486,24.1368,24.2079,24.1368,31.93,31.9"/>
  </g>
  <g transform="translate(1434.04,1534.05)">
   <rect width="31.93" x="0" y="0" fill="#8D8C8C" height="31.9" id="connector14pin"/>
   <rect width="16.4442" x="7.79153" y="7.73544" fill="#8C8663" height="16.4152"/>
   <polygon fill="#B8AF82" points="0,31.9,7.79153,24.1368,7.79153,6.97162,0,0"/>
   <polygon fill="#80795B" points="24.2079,7.76321,7.90264,7.76321,0,0,31.93,0"/>
   <polygon fill="#5E5B43" points="24.2079,24.1368,24.2079,7.76321,31.93,0,31.93,31.9"/>
   <polygon fill="#9A916C" points="0,31.9,7.87486,24.1368,24.2079,24.1368,31.93,31.9"/>
  </g>
  <g transform="translate(1434.04,34.05)">
   <rect width="31.93" x="0" y="0" fill="#8D8C8C" height="31.9" id="connector21pin"/>
   <rect width="16.4442" x="7.79153" y="7.73544" fill="#8C8663" height="16.4152"/>
   <polygon fill="#B8AF82" points="0,31.9,7.79153,24.1368,7.79153,6.97162,0,0"/>
   <polygon fill="#80795B" points="24.2079,7.76321,7.90264,7.76321,0,0,31.93,0"/>
   <polygon fill="#5E5B43" points="24.2079,24.1368,24.2079,7.76321,31.93,0,31.93,31.9"/>
   <polygon fill="#9A916C" points="0,31.9,7.87486,24.1368,24.2079,24.1368,31.93,31.9"/>
  </g>
  <g transform="translate(1534.04,1534.05)">
   <rect width="31.93" x="0" y="0" fill="#8D8C8C" height="31.9" id="connector15pin"/>
   <rect width="16.4442" x="7.79153" y="7.73544" fill="#8C8663" height="16.4152"/>
   <polygon fill="#B8AF82" points="0,31.9,7.79153,24.1368,7.79153,6.97162,0,0"/>
   <polygon fill="#80795B" points="24.2079,7.76321,7.90264,7.76321,0,0,31.93,0"/>
   <polygon fill="#5E5B43" points="24.2079,24.1368,24.2079,7.76321,31.93,0,31.93,31.9"/>
   <polygon fill="#9A916C" points="0,31.9,7.87486,24.1368,24.2079,24.1368,31.93,31.9"/>
  </g>
  <g transform="translate(1534.04,34.05)">
   <rect width="31.93" x="0" y="0" fill="#8D8C8C" height="31.9" id="connector20pin"/>
   <rect width="16.4442" x="7.79153" y="7.73544" fill="#8C8663" height="16.4152"/>
   <polygon fill="#B8AF82" points="0,31.9,7.79153,24.1368,7.79153,6.97162,0,0"/>
   <polygon fill="#80795B" points="24.2079,7.76321,7.90264,7.76321,0,0,31.93,0"/>
   <polygon fill="#5E5B43" points="24.2079,24.1368,24.2079,7.76321,31.93,0,31.93,31.9"/>
   <polygon fill="#9A916C" points="0,31.9,7.87486,24.1368,24.2079,24.1368,31.93,31.9"/>
  </g>
  <g transform="translate(1634.04,1534.05)">
   <rect width="31.93" x="0" y="0" fill="#8D8C8C" height="31.9" id="connector16pin"/>
   <rect width="16.4442" x="7.79153" y="7.73544" fill="#8C8663" height="16.4152"/>
   <polygon fill="#B8AF82" points="0,31.9,7.79153,24.1368,7.79153,6.97162,0,0"/>
   <polygon fill="#80795B" points="24.2079,7.76321,7.90264,7.76321,0,0,31.93,0"/>
   <polygon fill="#5E5B43" points="24.2079,24.1368,24.2079,7.76321,31.93,0,31.93,31.9"/>
   <polygon fill="#9A916C" points="0,31.9,7.87486,24.1368,24.2079,24.1368,31.93,31.9"/>
  </g>
  <g transform="translate(1634.04,34.05)">
   <rect width="31.93" x="0" y="0" fill="#8D8C8C" height="31.9" id="connector19pin"/>
   <rect width="16.4442" x="7.79153" y="7.73544" fill="#8C8663" height="16.4152"/>
   <polygon fill="#B8AF82" points="0,31.9,7.79153,24.1368,7.79153,6.97162,0,0"/>
   <polygon fill="#80795B" points="24.2079,7.76321,7.90264,7.76321,0,0,31.93,0"/>
   <polygon fill="#5E5B43" points="24.2079,24.1368,24.2079,7.76321,31.93,0,31.93,31.9"/>
   <polygon fill="#9A916C" points="0,31.9,7.87486,24.1368,24.2079,24.1368,31.93,31.9"/>
  </g>
  <g transform="translate(1734.04,1534.05)">
   <rect width="31.93" x="0" y="0" fill="#8D8C8C" height="31.9" id="connector17pin"/>
   <rect width="16.4442" x="7.79153" y="7.73544" fill="#8C8663" height="16.4152"/>
   <polygon fill="#B8AF82" points="0,31.9,7.79153,24.1368,7.79153,6.97162,0,0"/>
   <polygon fill="#80795B" points="24.2079,7.76321,7.90264,7.76321,0,0,31.93,0"/>
   <polygon fill="#5E5B43" points="24.2079,24.1368,24.2079,7.76321,31.93,0,31.93,31.9"/>
   <polygon fill="#9A916C" points="0,31.9,7.87486,24.1368,24.2079,24.1368,31.93,31.9"/>
  </g>
  <g transform="translate(1734.04,34.05)">
   <rect width="31.93" x="0" y="0" fill="#8D8C8C" height="31.9" id="connector18pin"/>
   <rect width="16.4442" x="7.79153" y="7.73544" fill="#8C8663" height="16.4152"/>
   <polygon fill="#B8AF82" points="0,31.9,7.79153,24.1368,7.79153,6.97162,0,0"/>
   <polygon fill="#80795B" points="24.2079,7.76321,7.90264,7.76321,0,0,31.93,0"/>
   <polygon fill="#5E5B43" points="24.2079,24.1368,24.2079,7.76321,31.93,0,31.93,31.9"/>
   <polygon fill="#9A916C" points="0,31.9,7.87486,24.1368,24.2079,24.1368,31.93,31.9"/>
  </g>
 </g>
</svg>
