G75*
G70*
%OFA0B0*%
%FSLAX24Y24*%
%IPPOS*%
%LPD*%
%AMOC8*
5,1,8,0,0,1.08239X$1,22.5*
%
%ADD10C,0.0000*%
D10*
X000101Y000252D02*
X039471Y000252D01*
X039471Y031748D01*
X000101Y031748D01*
X000101Y000252D01*
X043351Y020502D02*
X043354Y020561D01*
X043362Y020620D01*
X043375Y020677D01*
X043394Y020734D01*
X043417Y020788D01*
X043446Y020840D01*
X043479Y020889D01*
X043516Y020935D01*
X043557Y020977D01*
X043602Y021015D01*
X043651Y021050D01*
X043702Y021079D01*
X043756Y021104D01*
X043811Y021124D01*
X043869Y021138D01*
X043927Y021148D01*
X043986Y021152D01*
X044045Y021150D01*
X044104Y021144D01*
X044162Y021132D01*
X044219Y021114D01*
X044273Y021092D01*
X044326Y021065D01*
X044376Y021033D01*
X044423Y020997D01*
X044466Y020956D01*
X044505Y020912D01*
X044540Y020865D01*
X044571Y020814D01*
X044597Y020761D01*
X044618Y020706D01*
X044634Y020649D01*
X044645Y020591D01*
X044650Y020532D01*
X044650Y020472D01*
X044645Y020413D01*
X044634Y020355D01*
X044618Y020298D01*
X044597Y020243D01*
X044571Y020190D01*
X044540Y020139D01*
X044505Y020092D01*
X044466Y020048D01*
X044423Y020007D01*
X044376Y019971D01*
X044326Y019939D01*
X044273Y019912D01*
X044219Y019890D01*
X044162Y019872D01*
X044104Y019860D01*
X044045Y019854D01*
X043986Y019852D01*
X043927Y019856D01*
X043869Y019866D01*
X043811Y019880D01*
X043756Y019900D01*
X043702Y019925D01*
X043651Y019954D01*
X043602Y019989D01*
X043557Y020027D01*
X043516Y020069D01*
X043479Y020115D01*
X043446Y020164D01*
X043417Y020216D01*
X043394Y020270D01*
X043375Y020327D01*
X043362Y020384D01*
X043354Y020443D01*
X043351Y020502D01*
X043351Y025002D02*
X043354Y025061D01*
X043362Y025120D01*
X043375Y025177D01*
X043394Y025234D01*
X043417Y025288D01*
X043446Y025340D01*
X043479Y025389D01*
X043516Y025435D01*
X043557Y025477D01*
X043602Y025515D01*
X043651Y025550D01*
X043702Y025579D01*
X043756Y025604D01*
X043811Y025624D01*
X043869Y025638D01*
X043927Y025648D01*
X043986Y025652D01*
X044045Y025650D01*
X044104Y025644D01*
X044162Y025632D01*
X044219Y025614D01*
X044273Y025592D01*
X044326Y025565D01*
X044376Y025533D01*
X044423Y025497D01*
X044466Y025456D01*
X044505Y025412D01*
X044540Y025365D01*
X044571Y025314D01*
X044597Y025261D01*
X044618Y025206D01*
X044634Y025149D01*
X044645Y025091D01*
X044650Y025032D01*
X044650Y024972D01*
X044645Y024913D01*
X044634Y024855D01*
X044618Y024798D01*
X044597Y024743D01*
X044571Y024690D01*
X044540Y024639D01*
X044505Y024592D01*
X044466Y024548D01*
X044423Y024507D01*
X044376Y024471D01*
X044326Y024439D01*
X044273Y024412D01*
X044219Y024390D01*
X044162Y024372D01*
X044104Y024360D01*
X044045Y024354D01*
X043986Y024352D01*
X043927Y024356D01*
X043869Y024366D01*
X043811Y024380D01*
X043756Y024400D01*
X043702Y024425D01*
X043651Y024454D01*
X043602Y024489D01*
X043557Y024527D01*
X043516Y024569D01*
X043479Y024615D01*
X043446Y024664D01*
X043417Y024716D01*
X043394Y024770D01*
X043375Y024827D01*
X043362Y024884D01*
X043354Y024943D01*
X043351Y025002D01*
M02*
