G75*
G70*
%OFA0B0*%
%FSLAX24Y24*%
%IPPOS*%
%LPD*%
%AMOC8*
5,1,8,0,0,1.08239X$1,22.5*
%
%ADD10C,0.0070*%
%ADD11C,0.0630*%
%ADD12C,0.1240*%
%ADD13C,0.0700*%
%ADD14O,0.1575X0.0787*%
%ADD15C,0.0240*%
%ADD16C,0.0850*%
%ADD17C,0.0160*%
%ADD18C,0.0472*%
%ADD19C,0.0500*%
%ADD20C,0.1000*%
%ADD21C,0.0600*%
D10*
X001567Y013287D02*
X001567Y013917D01*
X001777Y013917D02*
X001356Y013917D01*
X002001Y013812D02*
X002001Y013392D01*
X002106Y013287D01*
X002316Y013287D01*
X002421Y013392D01*
X002421Y013812D01*
X002316Y013917D01*
X002106Y013917D01*
X002001Y013812D01*
X002645Y013812D02*
X002645Y013707D01*
X002751Y013602D01*
X003066Y013602D01*
X003066Y013287D02*
X002751Y013287D01*
X002645Y013392D01*
X002645Y013497D01*
X002751Y013602D01*
X002645Y013812D02*
X002751Y013917D01*
X003066Y013917D01*
X003066Y013287D01*
D11*
X005601Y013502D03*
X005601Y012502D03*
X008351Y012502D03*
X008351Y013502D03*
X008351Y011502D03*
X008351Y010502D03*
X008351Y009502D03*
X008351Y008502D03*
X008351Y007502D03*
X008351Y006502D03*
X008851Y004502D03*
X009851Y004502D03*
X010851Y004502D03*
X011851Y004502D03*
X012851Y004502D03*
X013851Y004502D03*
X014851Y004502D03*
X015851Y004502D03*
X016851Y004502D03*
X017851Y004502D03*
X018851Y004502D03*
X019851Y004502D03*
X020851Y004502D03*
X021851Y004502D03*
X022851Y004502D03*
X023851Y004502D03*
X024851Y004502D03*
X025851Y004502D03*
X026851Y004502D03*
X027851Y004502D03*
X028851Y004502D03*
X029851Y004502D03*
X030851Y004502D03*
X031851Y004502D03*
X031851Y003502D03*
X030851Y003502D03*
X029851Y003502D03*
X028851Y003502D03*
X027851Y003502D03*
X026851Y003502D03*
X025851Y003502D03*
X024851Y003502D03*
X023851Y003502D03*
X022851Y003502D03*
X021851Y003502D03*
X020851Y003502D03*
X019851Y003502D03*
X018851Y003502D03*
X017851Y003502D03*
X016851Y003502D03*
X015851Y003502D03*
X014851Y003502D03*
X013851Y003502D03*
X012851Y003502D03*
X011851Y003502D03*
X010851Y003502D03*
X009851Y003502D03*
X008851Y003502D03*
X007851Y003502D03*
X007851Y004502D03*
X005601Y006502D03*
X005601Y007502D03*
X002851Y008002D03*
X001851Y008002D03*
X001851Y009002D03*
X002851Y009002D03*
X002851Y010002D03*
X001851Y010002D03*
X001851Y007002D03*
X002851Y007002D03*
X002851Y006002D03*
X001851Y006002D03*
X001851Y005002D03*
X002851Y005002D03*
X002851Y004002D03*
X001851Y004002D03*
X001851Y003002D03*
X002851Y003002D03*
X011351Y006502D03*
X012351Y006502D03*
X012351Y007502D03*
X012351Y008502D03*
X012351Y009502D03*
X012351Y010502D03*
X011351Y010502D03*
X011351Y009502D03*
X011351Y008502D03*
X011351Y007502D03*
X015351Y007502D03*
X016351Y007502D03*
X016351Y008502D03*
X015351Y008502D03*
X015351Y009502D03*
X016351Y009502D03*
X016351Y010502D03*
X015351Y010502D03*
X015351Y011502D03*
X016351Y011502D03*
X016351Y012502D03*
X015351Y012502D03*
X015351Y013502D03*
X016351Y013502D03*
X016351Y015502D03*
X015351Y015502D03*
X014351Y015502D03*
X012851Y015502D03*
X011851Y015502D03*
X010851Y015502D03*
X009851Y015502D03*
X008851Y015502D03*
X007851Y015502D03*
X006851Y015502D03*
X005851Y015502D03*
X002851Y017002D03*
X001851Y017002D03*
X001851Y018002D03*
X002851Y018002D03*
X002851Y019002D03*
X001851Y019002D03*
X001851Y020002D03*
X002851Y020002D03*
X002851Y021002D03*
X001851Y021002D03*
X001851Y022002D03*
X002851Y022002D03*
X002851Y023002D03*
X001851Y023002D03*
X001851Y024002D03*
X002851Y024002D03*
X002851Y025002D03*
X001851Y025002D03*
X001851Y026002D03*
X002851Y026002D03*
X002851Y027002D03*
X001851Y027002D03*
X001851Y028002D03*
X002851Y028002D03*
X002851Y029002D03*
X001851Y029002D03*
X007851Y022502D03*
X008851Y022502D03*
X009851Y022502D03*
X010851Y022502D03*
X011851Y022502D03*
X012851Y022502D03*
X013851Y022502D03*
X014851Y022502D03*
X015851Y022502D03*
X016851Y022502D03*
X017851Y022502D03*
X018851Y022502D03*
X019851Y022502D03*
X020851Y022502D03*
X021851Y022502D03*
X022851Y022502D03*
X023851Y022502D03*
X024851Y022502D03*
X025851Y022502D03*
X026851Y022502D03*
X027851Y022502D03*
X028851Y022502D03*
X029851Y022502D03*
X030851Y022502D03*
X031851Y022502D03*
X031851Y021502D03*
X030851Y021502D03*
X029851Y021502D03*
X028851Y021502D03*
X027851Y021502D03*
X026851Y021502D03*
X025851Y021502D03*
X024851Y021502D03*
X023851Y021502D03*
X022851Y021502D03*
X021851Y021502D03*
X020851Y021502D03*
X019851Y021502D03*
X018851Y021502D03*
X017851Y021502D03*
X016851Y021502D03*
X015851Y021502D03*
X014851Y021502D03*
X013851Y021502D03*
X012851Y021502D03*
X011851Y021502D03*
X010851Y021502D03*
X009851Y021502D03*
X008851Y021502D03*
X007851Y021502D03*
X007851Y018502D03*
X008851Y018502D03*
X009851Y018502D03*
X010851Y018502D03*
X011851Y018502D03*
X012851Y018502D03*
X014351Y018502D03*
X015351Y018502D03*
X016351Y018502D03*
X017351Y018502D03*
X018351Y018502D03*
X019351Y018502D03*
X020351Y018502D03*
X021351Y018502D03*
X022851Y018502D03*
X023851Y018502D03*
X024851Y018502D03*
X025851Y018502D03*
X026851Y018502D03*
X027851Y018502D03*
X028851Y018502D03*
X029851Y018502D03*
X031851Y018502D03*
X031851Y017502D03*
X032851Y015752D03*
X032851Y014752D03*
X031351Y013502D03*
X031351Y012502D03*
X031351Y011502D03*
X031351Y010502D03*
X031351Y009502D03*
X031351Y008502D03*
X031351Y007502D03*
X031351Y006502D03*
X028351Y006502D03*
X028351Y007502D03*
X028351Y008502D03*
X028351Y009502D03*
X028351Y010502D03*
X027351Y010502D03*
X027351Y009502D03*
X027351Y008502D03*
X027351Y007502D03*
X027351Y006502D03*
X024351Y006502D03*
X023351Y006502D03*
X023351Y007502D03*
X024351Y007502D03*
X024351Y008502D03*
X023351Y008502D03*
X023351Y009502D03*
X024351Y009502D03*
X024351Y010502D03*
X023351Y010502D03*
X023351Y011502D03*
X024351Y011502D03*
X024351Y012502D03*
X023351Y012502D03*
X023351Y013502D03*
X024351Y013502D03*
X024851Y015502D03*
X025851Y015502D03*
X026851Y015502D03*
X027851Y015502D03*
X028851Y015502D03*
X029851Y015502D03*
X028351Y013502D03*
X028351Y012502D03*
X028351Y011502D03*
X027351Y011502D03*
X027351Y012502D03*
X027351Y013502D03*
X023851Y015502D03*
X022851Y015502D03*
X021351Y015502D03*
X020351Y015502D03*
X019351Y015502D03*
X018351Y015502D03*
X017351Y015502D03*
X019351Y013502D03*
X020351Y013502D03*
X020351Y012502D03*
X019351Y012502D03*
X019351Y011502D03*
X020351Y011502D03*
X020351Y010502D03*
X019351Y010502D03*
X019351Y009502D03*
X020351Y009502D03*
X020351Y008502D03*
X019351Y008502D03*
X019351Y007502D03*
X020351Y007502D03*
X020351Y006502D03*
X019351Y006502D03*
X016351Y006502D03*
X015351Y006502D03*
X012351Y011502D03*
X012351Y012502D03*
X012351Y013502D03*
X011351Y013502D03*
X011351Y012502D03*
X011351Y011502D03*
X006851Y018502D03*
X005851Y018502D03*
X021601Y028752D03*
X021601Y029752D03*
X036351Y015252D03*
X037351Y015252D03*
X037351Y014252D03*
X036351Y014252D03*
X036351Y013252D03*
X037351Y013252D03*
X037351Y012252D03*
X036351Y012252D03*
X036351Y011252D03*
X037351Y011252D03*
X037351Y010252D03*
X036351Y010252D03*
X036351Y009252D03*
X037351Y009252D03*
X037351Y008252D03*
X036351Y008252D03*
X036351Y005502D03*
X037351Y005502D03*
X038351Y005502D03*
X035351Y005502D03*
X034351Y005502D03*
X034351Y001502D03*
X035351Y001502D03*
X036351Y001502D03*
X037351Y001502D03*
X038351Y001502D03*
D12*
X020351Y027502D03*
X025351Y029502D03*
X029291Y029502D03*
X032241Y029502D03*
X035191Y029502D03*
X006351Y027502D03*
D13*
X030351Y026252D03*
X030351Y024252D03*
D14*
X037101Y024002D03*
X037101Y025002D03*
X037101Y026002D03*
X037101Y021502D03*
X037101Y020502D03*
X037101Y019502D03*
D15*
X043751Y020502D02*
X043753Y020534D01*
X043759Y020565D01*
X043769Y020596D01*
X043783Y020625D01*
X043801Y020652D01*
X043821Y020676D01*
X043845Y020697D01*
X043871Y020716D01*
X043900Y020731D01*
X043930Y020742D01*
X043961Y020749D01*
X043993Y020752D01*
X044025Y020751D01*
X044057Y020746D01*
X044087Y020737D01*
X044117Y020724D01*
X044144Y020707D01*
X044169Y020687D01*
X044191Y020664D01*
X044211Y020638D01*
X044226Y020610D01*
X044238Y020581D01*
X044246Y020550D01*
X044250Y020518D01*
X044250Y020486D01*
X044246Y020454D01*
X044238Y020423D01*
X044226Y020394D01*
X044211Y020366D01*
X044191Y020340D01*
X044169Y020317D01*
X044144Y020297D01*
X044117Y020280D01*
X044087Y020267D01*
X044057Y020258D01*
X044025Y020253D01*
X043993Y020252D01*
X043961Y020255D01*
X043930Y020262D01*
X043900Y020273D01*
X043871Y020288D01*
X043845Y020307D01*
X043821Y020328D01*
X043801Y020352D01*
X043783Y020379D01*
X043769Y020408D01*
X043759Y020439D01*
X043753Y020470D01*
X043751Y020502D01*
X043751Y025002D02*
X043753Y025034D01*
X043759Y025065D01*
X043769Y025096D01*
X043783Y025125D01*
X043801Y025152D01*
X043821Y025176D01*
X043845Y025197D01*
X043871Y025216D01*
X043900Y025231D01*
X043930Y025242D01*
X043961Y025249D01*
X043993Y025252D01*
X044025Y025251D01*
X044057Y025246D01*
X044087Y025237D01*
X044117Y025224D01*
X044144Y025207D01*
X044169Y025187D01*
X044191Y025164D01*
X044211Y025138D01*
X044226Y025110D01*
X044238Y025081D01*
X044246Y025050D01*
X044250Y025018D01*
X044250Y024986D01*
X044246Y024954D01*
X044238Y024923D01*
X044226Y024894D01*
X044211Y024866D01*
X044191Y024840D01*
X044169Y024817D01*
X044144Y024797D01*
X044117Y024780D01*
X044087Y024767D01*
X044057Y024758D01*
X044025Y024753D01*
X043993Y024752D01*
X043961Y024755D01*
X043930Y024762D01*
X043900Y024773D01*
X043871Y024788D01*
X043845Y024807D01*
X043821Y024828D01*
X043801Y024852D01*
X043783Y024879D01*
X043769Y024908D01*
X043759Y024939D01*
X043753Y024970D01*
X043751Y025002D01*
D16*
X032851Y013502D03*
X032851Y009502D03*
D17*
X000851Y000752D02*
X000601Y001002D01*
X000601Y007752D01*
X000851Y008002D01*
X001851Y008002D01*
X002351Y007502D02*
X001101Y007502D01*
X000851Y007252D01*
X000851Y001252D01*
X001101Y001002D01*
X031601Y001002D01*
X033351Y002752D01*
X033851Y002252D02*
X032351Y000752D01*
X000851Y000752D01*
X001351Y001252D02*
X001101Y001502D01*
X001101Y006752D01*
X001351Y007002D01*
X001851Y007002D01*
X002351Y007502D02*
X002851Y008002D01*
X002851Y007002D02*
X003351Y007002D01*
X003601Y006752D01*
X003601Y006002D01*
X003851Y005752D01*
X004351Y005752D01*
X004601Y005502D01*
X004601Y003002D01*
X004851Y002752D01*
X012351Y002752D01*
X012601Y003002D01*
X018851Y003002D01*
X020101Y001752D01*
X029601Y001752D01*
X029851Y002002D01*
X031351Y002002D01*
X032101Y002752D02*
X030101Y002752D01*
X029851Y003002D01*
X029851Y003502D01*
X029351Y004002D02*
X028851Y004502D01*
X029351Y004002D02*
X033601Y004002D01*
X033851Y004252D01*
X033851Y011002D01*
X034101Y011252D01*
X036351Y011252D01*
X036851Y010752D02*
X034601Y010752D01*
X034351Y010502D01*
X034351Y005502D01*
X035351Y005502D02*
X035351Y009502D01*
X035601Y009752D01*
X036851Y009752D01*
X037351Y010252D01*
X036851Y010752D02*
X037351Y011252D01*
X036351Y010252D02*
X035101Y010252D01*
X034851Y010002D01*
X034851Y003502D01*
X034601Y003252D01*
X032601Y003252D01*
X032101Y002752D01*
X030351Y001502D02*
X030101Y001252D01*
X001351Y001252D01*
X003601Y002002D02*
X003601Y003752D01*
X003351Y004002D01*
X002851Y004002D01*
X002351Y004502D02*
X001851Y004002D01*
X002351Y004502D02*
X003601Y004502D01*
X003851Y004252D01*
X003851Y002252D01*
X004101Y002002D01*
X013351Y002002D01*
X013101Y002502D02*
X014601Y002502D01*
X015101Y002002D01*
X018101Y002002D01*
X018351Y002252D01*
X018351Y002502D01*
X017351Y002502D02*
X017101Y002752D01*
X012851Y002752D01*
X012601Y002502D01*
X004601Y002502D01*
X004351Y002752D01*
X004351Y005252D01*
X004101Y005502D01*
X002351Y005502D01*
X001851Y005002D01*
X002851Y005002D02*
X003851Y005002D01*
X004101Y004752D01*
X004101Y002502D01*
X004351Y002252D01*
X012851Y002252D01*
X013101Y002502D01*
X012851Y001752D02*
X003851Y001752D01*
X003601Y002002D01*
X009351Y007502D02*
X009851Y007002D01*
X011601Y007002D01*
X012101Y007502D01*
X012351Y007502D01*
X013351Y007502D01*
X013851Y007002D01*
X015601Y007002D01*
X016101Y007502D01*
X016351Y007502D01*
X017351Y007502D01*
X017851Y007002D01*
X019601Y007002D01*
X020101Y007502D01*
X020351Y007502D01*
X021351Y007502D01*
X021851Y007002D01*
X023601Y007002D01*
X024101Y007502D01*
X024351Y007502D01*
X025351Y007502D01*
X025851Y007002D01*
X026101Y007002D01*
X027601Y007002D01*
X028101Y007502D01*
X028351Y007502D01*
X028101Y008002D02*
X029351Y008002D01*
X029851Y007502D01*
X031351Y007502D01*
X031351Y008502D02*
X029851Y008502D01*
X029351Y009002D01*
X028101Y009002D01*
X027601Y008502D01*
X027351Y008502D01*
X025851Y008502D01*
X025351Y009002D01*
X024101Y009002D01*
X023601Y008502D01*
X023351Y008502D01*
X021851Y008502D01*
X021351Y009002D01*
X020101Y009002D01*
X019601Y008502D01*
X019351Y008502D01*
X017851Y008502D01*
X017351Y009002D01*
X016101Y009002D01*
X015601Y008502D01*
X015351Y008502D01*
X013851Y008502D01*
X013351Y009002D01*
X012101Y009002D01*
X011601Y008502D01*
X011351Y008502D01*
X011601Y008002D02*
X012101Y008502D01*
X012351Y008502D01*
X013351Y008502D01*
X013851Y008002D01*
X015601Y008002D01*
X016101Y008502D01*
X016351Y008502D01*
X017351Y008502D01*
X017851Y008002D01*
X019601Y008002D01*
X020101Y008502D01*
X020351Y008502D01*
X021351Y008502D01*
X021851Y008002D01*
X023601Y008002D01*
X024101Y008502D01*
X024351Y008502D01*
X025351Y008502D01*
X025851Y008002D01*
X026101Y008002D01*
X027601Y008002D01*
X028101Y008502D01*
X028351Y008502D01*
X028101Y008002D02*
X027601Y007502D01*
X027351Y007502D01*
X025851Y007502D01*
X025351Y008002D01*
X024101Y008002D01*
X023601Y007502D01*
X023351Y007502D01*
X021851Y007502D01*
X021351Y008002D01*
X020101Y008002D01*
X019601Y007502D01*
X019351Y007502D01*
X017851Y007502D01*
X017351Y008002D01*
X016101Y008002D01*
X015601Y007502D01*
X015351Y007502D01*
X013851Y007502D01*
X013351Y008002D01*
X012101Y008002D01*
X011601Y007502D01*
X011351Y007502D01*
X011601Y008002D02*
X009851Y008002D01*
X009351Y008502D01*
X008351Y008502D01*
X007851Y008502D02*
X007601Y008252D01*
X006601Y008252D01*
X006601Y009002D02*
X007351Y009002D01*
X007601Y009252D01*
X007601Y012502D01*
X008101Y013002D01*
X009351Y013002D01*
X009851Y012502D01*
X011351Y012502D01*
X011601Y013002D02*
X012101Y013502D01*
X012351Y013502D01*
X013351Y013502D01*
X013851Y013002D01*
X015601Y013002D01*
X016101Y013502D01*
X016351Y013502D01*
X017351Y013502D01*
X017851Y013002D01*
X019601Y013002D01*
X020101Y013502D01*
X020351Y013502D01*
X021851Y013502D01*
X022351Y013002D01*
X023601Y013002D01*
X024101Y013502D01*
X024351Y013502D01*
X025351Y013502D01*
X025851Y013002D01*
X027601Y013002D01*
X028101Y013502D01*
X028351Y013502D01*
X028101Y013002D02*
X029351Y013002D01*
X029851Y012502D01*
X029351Y012002D02*
X029851Y011502D01*
X029351Y012002D02*
X028101Y012002D01*
X027601Y011502D01*
X027351Y011502D01*
X027601Y012002D02*
X028101Y012502D01*
X028351Y012502D01*
X028101Y013002D02*
X027601Y012502D01*
X027351Y012502D01*
X027601Y012002D02*
X025851Y012002D01*
X025351Y012502D01*
X024351Y012502D01*
X024101Y012502D01*
X023601Y012002D01*
X021851Y012002D01*
X021351Y012502D01*
X020351Y012502D01*
X020101Y012502D01*
X019601Y012002D01*
X017851Y012002D01*
X017351Y012502D01*
X016351Y012502D01*
X016101Y012502D01*
X015601Y012002D01*
X013851Y012002D01*
X013351Y012502D01*
X012351Y012502D01*
X012101Y012502D01*
X011601Y012002D01*
X009851Y012002D01*
X009351Y012502D01*
X008351Y012502D01*
X008101Y012002D02*
X007851Y011752D01*
X007851Y008502D01*
X008351Y009502D02*
X009351Y009502D01*
X009851Y009002D01*
X011601Y009002D01*
X012101Y009502D01*
X012351Y009502D01*
X013351Y009502D01*
X013851Y009002D01*
X015601Y009002D01*
X016101Y009502D01*
X016351Y009502D01*
X017351Y009502D01*
X017851Y009002D01*
X019601Y009002D01*
X020101Y009502D01*
X020351Y009502D01*
X021351Y009502D01*
X021851Y009002D01*
X023601Y009002D01*
X024101Y009502D01*
X024351Y009502D01*
X025351Y009502D01*
X025851Y009002D01*
X027601Y009002D01*
X028101Y009502D01*
X028351Y009502D01*
X027601Y010002D02*
X028101Y010502D01*
X028351Y010502D01*
X028101Y011002D02*
X029351Y011002D01*
X029851Y010502D01*
X031351Y010502D01*
X031351Y009502D02*
X030351Y009502D01*
X028101Y011002D02*
X027601Y010502D01*
X027351Y010502D01*
X026101Y010502D01*
X025851Y010502D01*
X025351Y011002D01*
X024101Y011002D01*
X023601Y010502D01*
X023351Y010502D01*
X021851Y010502D01*
X021351Y011002D01*
X020101Y011002D01*
X019601Y010502D01*
X019351Y010502D01*
X017851Y010502D01*
X017351Y011002D01*
X016101Y011002D01*
X015601Y010502D01*
X015351Y010502D01*
X013851Y010502D01*
X013351Y011002D01*
X012101Y011002D01*
X011601Y010502D01*
X011351Y010502D01*
X011601Y010002D02*
X012101Y010502D01*
X012351Y010502D01*
X013351Y010502D01*
X013851Y010002D01*
X015601Y010002D01*
X016101Y010502D01*
X016351Y010502D01*
X017351Y010502D01*
X017851Y010002D01*
X019601Y010002D01*
X020101Y010502D01*
X020351Y010502D01*
X021351Y010502D01*
X021851Y010002D01*
X023601Y010002D01*
X024101Y010502D01*
X024351Y010502D01*
X025351Y010502D01*
X025851Y010002D01*
X027601Y010002D01*
X027601Y011002D02*
X028101Y011502D01*
X028351Y011502D01*
X027601Y011002D02*
X025851Y011002D01*
X025351Y011502D01*
X024351Y011502D01*
X024101Y011502D01*
X023601Y011002D01*
X021851Y011002D01*
X021351Y011502D01*
X020351Y011502D01*
X020101Y011502D01*
X019601Y011002D01*
X017851Y011002D01*
X017351Y011502D01*
X016351Y011502D01*
X016101Y011502D01*
X015601Y011002D01*
X013851Y011002D01*
X013351Y011502D01*
X012351Y011502D01*
X012101Y011502D01*
X011601Y011002D01*
X009851Y011002D01*
X009351Y011502D01*
X008351Y011502D01*
X008101Y012002D02*
X009351Y012002D01*
X009851Y011502D01*
X011351Y011502D01*
X011601Y013002D02*
X009851Y013002D01*
X009351Y013502D01*
X008351Y013502D01*
X008351Y010502D02*
X009351Y010502D01*
X009851Y010002D01*
X011601Y010002D01*
X014101Y011502D02*
X015351Y011502D01*
X015351Y012502D02*
X014101Y012502D01*
X018101Y012502D02*
X019351Y012502D01*
X019351Y011502D02*
X018101Y011502D01*
X021101Y012002D02*
X021351Y012002D01*
X021851Y011502D01*
X023351Y011502D01*
X023351Y012502D02*
X022101Y012502D01*
X021851Y012752D01*
X024101Y010002D02*
X025351Y010002D01*
X025851Y009502D01*
X026101Y009502D01*
X024101Y010002D02*
X023601Y009502D01*
X023351Y009502D01*
X024101Y007002D02*
X025351Y007002D01*
X025851Y006502D01*
X027351Y006502D01*
X027601Y006502D01*
X028101Y007002D01*
X029351Y007002D01*
X029851Y006502D01*
X031351Y006502D01*
X036351Y005502D02*
X036351Y008252D01*
X036351Y009252D01*
X036851Y008752D02*
X036851Y006002D01*
X037351Y005502D01*
X038351Y005502D02*
X038351Y008002D01*
X038101Y008252D01*
X037351Y008252D01*
X036851Y008752D02*
X037351Y009252D01*
X029101Y002252D02*
X021601Y002252D01*
X021351Y002502D01*
X021351Y004002D01*
X021851Y004502D01*
X021851Y006502D02*
X023351Y006502D01*
X023601Y006502D01*
X024101Y007002D01*
X021851Y006502D02*
X021351Y007002D01*
X020101Y007002D01*
X019601Y006502D01*
X019351Y006502D01*
X017851Y006502D01*
X017351Y007002D01*
X016101Y007002D01*
X015601Y006502D01*
X015351Y006502D01*
X013851Y006502D01*
X013351Y007002D01*
X012101Y007002D01*
X011601Y006502D01*
X011351Y006502D01*
X009351Y007502D02*
X008351Y007502D01*
X014351Y002002D02*
X014351Y001752D01*
X014101Y001502D01*
X013101Y001502D01*
X012851Y001752D01*
X034351Y001502D02*
X035351Y001502D01*
X035851Y002002D01*
X036851Y002002D01*
X037351Y001502D01*
X029851Y018502D02*
X029851Y019752D01*
X029351Y020252D01*
X029351Y025752D01*
X029101Y026002D01*
X019101Y026002D01*
X018101Y027002D01*
X011601Y027002D01*
X009351Y024752D01*
X005601Y024752D01*
X005351Y025002D01*
X005351Y028752D01*
X005101Y029002D01*
X002851Y029002D01*
X002851Y028002D02*
X004851Y028002D01*
X005101Y027752D01*
X005101Y024752D01*
X005351Y024502D01*
X015351Y024502D01*
X015601Y024252D01*
X025101Y024252D01*
X025351Y024002D01*
X025351Y020502D01*
X025851Y020002D01*
X027351Y020002D01*
X027851Y019502D01*
X027851Y018502D01*
X028351Y019752D02*
X028351Y023502D01*
X028351Y025502D01*
X028101Y025752D01*
X018851Y025752D01*
X018101Y026502D01*
X017351Y026502D01*
X012351Y026502D01*
X011351Y026002D02*
X015351Y026002D01*
X016351Y025002D01*
X026601Y025002D01*
X026851Y024752D01*
X026851Y022502D01*
X027351Y022002D02*
X027351Y025002D01*
X027101Y025252D01*
X017101Y025252D01*
X016851Y025502D01*
X016351Y026002D02*
X018101Y026002D01*
X018601Y025502D01*
X027601Y025502D01*
X027851Y025252D01*
X027851Y022502D01*
X027351Y022002D02*
X027851Y021502D01*
X026851Y021502D02*
X026351Y022002D01*
X026351Y024502D01*
X026101Y024752D01*
X016101Y024752D01*
X015351Y025502D01*
X013351Y025502D01*
X015351Y025002D02*
X015851Y024502D01*
X025601Y024502D01*
X025851Y024252D01*
X025851Y022502D01*
X024351Y023752D02*
X024101Y024002D01*
X015351Y024002D01*
X015101Y024252D01*
X005101Y024252D01*
X004851Y024502D01*
X004851Y026752D01*
X004601Y027002D01*
X002851Y027002D01*
X002851Y026002D02*
X004351Y026002D01*
X004601Y025752D01*
X004601Y024252D01*
X005101Y023752D01*
X005101Y021002D01*
X005351Y020752D01*
X022601Y020752D01*
X022851Y020502D01*
X022851Y018502D01*
X021351Y018502D02*
X021351Y020252D01*
X021101Y020502D01*
X005101Y020502D01*
X004851Y020752D01*
X004851Y023502D01*
X004351Y024002D01*
X004351Y024752D01*
X004101Y025002D01*
X002851Y025002D01*
X002851Y024002D02*
X003851Y024002D01*
X004601Y023252D01*
X004601Y020502D01*
X004851Y020252D01*
X019101Y020252D01*
X019351Y020002D01*
X019351Y018502D01*
X016351Y018502D02*
X016351Y019752D01*
X016101Y020002D01*
X004601Y020002D01*
X004351Y020252D01*
X004351Y022752D01*
X004101Y023002D01*
X002851Y023002D01*
X002851Y022002D02*
X003851Y022002D01*
X004101Y021752D01*
X004101Y020002D01*
X004351Y019752D01*
X014101Y019752D01*
X014351Y019502D01*
X014351Y018502D01*
X012851Y018502D02*
X012851Y019252D01*
X012601Y019502D01*
X004101Y019502D01*
X003851Y019752D01*
X003851Y020752D01*
X003601Y021002D01*
X002851Y021002D01*
X002851Y020002D02*
X003351Y020002D01*
X003601Y019752D01*
X003601Y019502D01*
X003851Y019252D01*
X010601Y019252D01*
X010851Y019002D01*
X010851Y018502D01*
X007851Y018502D02*
X007851Y018752D01*
X007601Y019002D01*
X002851Y019002D01*
X003601Y018002D02*
X004101Y018502D01*
X005851Y018502D01*
X003601Y018002D02*
X002851Y018002D01*
X006351Y023252D02*
X013351Y023252D01*
X013851Y023752D01*
X014601Y023752D01*
X014851Y023502D01*
X023101Y023502D01*
X023351Y023252D01*
X023351Y022002D01*
X023851Y021502D01*
X023851Y022502D02*
X023851Y023502D01*
X023601Y023752D01*
X015101Y023752D01*
X014851Y024002D01*
X009601Y024002D01*
X009351Y023752D01*
X010351Y025002D02*
X015351Y025002D01*
X014351Y023252D02*
X022601Y023252D01*
X022851Y023002D01*
X022851Y022502D01*
X024351Y023752D02*
X024351Y020502D01*
X024851Y020002D01*
X024851Y018502D01*
X018601Y027252D02*
X011351Y027252D01*
X009351Y025252D01*
X006351Y025252D01*
X006351Y026002D02*
X009601Y026002D01*
X011351Y027752D01*
X019101Y027752D01*
D18*
X019101Y027752D03*
X018601Y027252D03*
X017351Y026502D03*
X016851Y025502D03*
X016351Y026002D03*
X013351Y025502D03*
X012351Y026502D03*
X011351Y026002D03*
X010351Y025002D03*
X009351Y023752D03*
X006351Y023252D03*
X006351Y025252D03*
X006351Y026002D03*
X014351Y023252D03*
X021851Y013502D03*
X021851Y012752D03*
X021101Y012002D03*
X018101Y012502D03*
X018101Y011502D03*
X014101Y011502D03*
X014101Y012502D03*
X006601Y009002D03*
X006601Y008252D03*
X013351Y002002D03*
X014351Y002002D03*
X017351Y002502D03*
X018351Y002502D03*
X026101Y007002D03*
X026101Y008002D03*
X026101Y009502D03*
X026101Y010502D03*
X029851Y011502D03*
X029851Y012502D03*
X030351Y009502D03*
X033351Y002752D03*
X033851Y002252D03*
X031351Y002002D03*
X030351Y001502D03*
X029101Y002252D03*
X028351Y019752D03*
X028351Y023502D03*
D19*
X028851Y018502D02*
X028851Y017502D01*
X023851Y017502D01*
X023851Y018502D01*
X023851Y017502D02*
X020351Y017502D01*
X020351Y018502D01*
X020351Y017502D02*
X015351Y017502D01*
X015351Y018502D01*
X015351Y017502D02*
X011851Y017502D01*
X011851Y018502D01*
X011851Y017502D02*
X006851Y017502D01*
X004601Y017502D01*
X004601Y017002D01*
X004601Y012502D01*
X005601Y012502D01*
X005601Y013502D02*
X005601Y013752D01*
X007851Y015502D02*
X007851Y016502D01*
X016351Y016502D01*
X016351Y015502D01*
X017351Y015502D02*
X017351Y014502D01*
X018351Y014502D02*
X018351Y015502D01*
X019351Y014502D02*
X019351Y013502D01*
X023351Y013502D02*
X023351Y014502D01*
X024851Y015502D02*
X024851Y016502D01*
X031601Y016502D01*
X031601Y015752D01*
X032851Y015752D01*
X032851Y014752D02*
X032851Y014502D01*
X031351Y014502D02*
X031351Y013502D01*
X027351Y013502D02*
X027351Y014502D01*
X026851Y014502D02*
X026851Y015502D01*
X025851Y015502D02*
X025851Y014502D01*
X024851Y016502D02*
X016351Y016502D01*
X015351Y014502D02*
X015351Y013502D01*
X011351Y013502D02*
X011351Y014502D01*
X009851Y014502D02*
X009851Y015502D01*
X008851Y015502D02*
X008851Y014502D01*
X006851Y017502D02*
X006851Y018502D01*
X004601Y017002D02*
X002851Y017002D01*
X001851Y017002D01*
X001851Y018002D01*
X001851Y019002D01*
X001851Y020002D01*
X001851Y021002D01*
X001851Y022002D01*
X001851Y023002D01*
X001851Y024002D01*
X001851Y025002D01*
X001851Y026002D01*
X001851Y027002D01*
X001851Y028002D01*
X001851Y029002D01*
X001851Y011252D02*
X001851Y010002D01*
X002851Y010002D02*
X002851Y011252D01*
X002851Y009002D02*
X001851Y009002D01*
X002851Y009002D02*
X004101Y009002D01*
X004101Y006502D01*
X005601Y006502D01*
X005601Y006252D01*
X005601Y007502D02*
X005601Y007752D01*
X008351Y006502D02*
X008351Y005502D01*
X012351Y005502D02*
X012351Y006502D01*
X016351Y006502D02*
X016351Y005502D01*
X020351Y005502D02*
X020351Y006502D01*
X024351Y006502D02*
X024351Y005502D01*
X028351Y005502D02*
X028351Y006502D01*
X036351Y012252D02*
X036351Y012752D01*
X036351Y013252D01*
X037351Y013252D01*
X037351Y012252D01*
X036351Y012252D01*
X036351Y014252D02*
X036351Y015252D01*
X036851Y015252D01*
X037351Y015252D01*
X037351Y014252D01*
X036351Y014252D01*
X030851Y017502D02*
X028851Y017502D01*
X030851Y017502D02*
X030851Y018502D01*
X031851Y018502D01*
X036101Y021502D02*
X037101Y021502D01*
X037101Y020502D02*
X038101Y020502D01*
X038101Y025002D02*
X037101Y025002D01*
X037101Y026002D02*
X036101Y026002D01*
D20*
X035351Y026002D01*
X035351Y021502D01*
X036101Y021502D01*
X038101Y020502D02*
X038851Y020502D01*
X038851Y025002D01*
X038851Y031002D01*
X035101Y031002D01*
X006351Y031002D01*
X000601Y031002D01*
X000601Y011252D01*
X001851Y011252D01*
X002851Y011252D01*
X005601Y011252D01*
X005601Y010002D01*
X005601Y007752D01*
X005601Y006252D02*
X005601Y005502D01*
X008351Y005502D01*
X012351Y005502D01*
X016351Y005502D01*
X020351Y005502D01*
X024351Y005502D01*
X028351Y005502D01*
X032851Y005502D01*
X032851Y009502D01*
X032851Y012252D01*
X034101Y012252D01*
X034101Y015752D01*
X032851Y015752D01*
X032851Y017002D02*
X032851Y026252D01*
X031101Y028002D01*
X029291Y028002D01*
X029291Y029502D01*
X032241Y029502D02*
X034101Y027642D01*
X034101Y018252D01*
X036851Y018252D01*
X036851Y015252D01*
X035351Y017002D02*
X035351Y012752D01*
X036351Y012752D01*
X032851Y013502D02*
X032851Y014502D01*
X031351Y014502D01*
X027351Y014502D01*
X026851Y014502D01*
X025851Y014502D01*
X023351Y014502D01*
X019351Y014502D01*
X018351Y014502D01*
X017351Y014502D01*
X015351Y014502D01*
X011351Y014502D01*
X009851Y014502D01*
X008851Y014502D01*
X006851Y014502D01*
X006851Y013752D01*
X005601Y013752D01*
X006851Y013752D02*
X006851Y011252D01*
X005601Y011252D01*
X006351Y027502D02*
X006351Y031002D01*
X032851Y017002D02*
X035351Y017002D01*
X038101Y025002D02*
X038851Y025002D01*
X035191Y029502D02*
X035191Y031002D01*
X035101Y031002D01*
D21*
X036351Y015252D02*
X037351Y014252D01*
X036351Y014252D02*
X037351Y015252D01*
X037351Y013252D02*
X036351Y012252D01*
X036351Y013252D02*
X037351Y012252D01*
M02*
