G75*
G70*
%OFA0B0*%
%FSLAX25Y25*%
%IPPOS*%
%LPD*%
%AMOC8*
5,1,8,0,0,1.08239X$1,22.5*
%
%ADD14C,0.01000*%
%ADD48C,0.00800*%
X0020000Y0020000D02*
G75*
%LPD*%
D48*
X0043980Y0093680D02*
X0047050Y0093680D01*
X0048580Y0093680D02*
X0050110Y0095210D01*
X0049350Y0095210D02*
X0051650Y0095210D01*
X0049350Y0095210D02*
X0048580Y0095980D01*
X0048580Y0097520D01*
X0049350Y0098280D01*
X0051650Y0098280D01*
X0051650Y0093680D01*
X0047050Y0096750D02*
X0045510Y0098280D01*
X0045510Y0093680D01*
X0068480Y0097180D02*
X0071550Y0097180D01*
X0073080Y0097180D02*
X0074610Y0098710D01*
X0073080Y0097950D02*
X0073850Y0097180D01*
X0075380Y0097180D01*
X0076150Y0097950D01*
X0076150Y0101020D01*
X0075380Y0101780D01*
X0073850Y0101780D01*
X0073080Y0101020D01*
X0073080Y0097950D01*
X0070010Y0097180D02*
X0070010Y0101780D01*
X0071550Y0100250D01*
D14*
X0019500Y0019500D02*
X0019500Y0114460D01*
X0125200Y0114460D01*
X0125200Y0019500D01*
X0019500Y0019500D01*
X0020000Y0126460D02*
G75*
%LPD*%
D48*
X0043980Y0200140D02*
X0047050Y0200140D01*
X0048580Y0200140D02*
X0050110Y0201670D01*
X0049350Y0201670D02*
X0051650Y0201670D01*
X0049350Y0201670D02*
X0048580Y0202440D01*
X0048580Y0203980D01*
X0049350Y0204740D01*
X0051650Y0204740D01*
X0051650Y0200140D01*
X0047050Y0203210D02*
X0045510Y0204740D01*
X0045510Y0200140D01*
X0068480Y0203640D02*
X0071550Y0203640D01*
X0073080Y0203640D02*
X0074610Y0205170D01*
X0073080Y0204410D02*
X0073850Y0203640D01*
X0075380Y0203640D01*
X0076150Y0204410D01*
X0076150Y0207480D01*
X0075380Y0208240D01*
X0073850Y0208240D01*
X0073080Y0207480D01*
X0073080Y0204410D01*
X0070010Y0203640D02*
X0070010Y0208240D01*
X0071550Y0206710D01*
D14*
X0019500Y0125960D02*
X0019500Y0220920D01*
X0125200Y0220920D01*
X0125200Y0125960D01*
X0019500Y0125960D01*
X0020000Y0232920D02*
G75*
%LPD*%
D48*
X0043980Y0306600D02*
X0047050Y0306600D01*
X0048580Y0306600D02*
X0050110Y0308130D01*
X0049350Y0308130D02*
X0051650Y0308130D01*
X0049350Y0308130D02*
X0048580Y0308900D01*
X0048580Y0310440D01*
X0049350Y0311200D01*
X0051650Y0311200D01*
X0051650Y0306600D01*
X0047050Y0309670D02*
X0045510Y0311200D01*
X0045510Y0306600D01*
X0068480Y0310100D02*
X0071550Y0310100D01*
X0073080Y0310100D02*
X0074610Y0311630D01*
X0073080Y0310870D02*
X0073850Y0310100D01*
X0075380Y0310100D01*
X0076150Y0310870D01*
X0076150Y0313940D01*
X0075380Y0314700D01*
X0073850Y0314700D01*
X0073080Y0313940D01*
X0073080Y0310870D01*
X0070010Y0310100D02*
X0070010Y0314700D01*
X0071550Y0313170D01*
D14*
X0019500Y0232420D02*
X0019500Y0327380D01*
X0125200Y0327380D01*
X0125200Y0232420D01*
X0019500Y0232420D01*
X0020000Y0339380D02*
G75*
%LPD*%
D48*
X0043980Y0413060D02*
X0047050Y0413060D01*
X0048580Y0413060D02*
X0050110Y0414590D01*
X0049350Y0414590D02*
X0051650Y0414590D01*
X0049350Y0414590D02*
X0048580Y0415360D01*
X0048580Y0416900D01*
X0049350Y0417660D01*
X0051650Y0417660D01*
X0051650Y0413060D01*
X0047050Y0416130D02*
X0045510Y0417660D01*
X0045510Y0413060D01*
X0068480Y0416560D02*
X0071550Y0416560D01*
X0073080Y0416560D02*
X0074610Y0418090D01*
X0073080Y0417330D02*
X0073850Y0416560D01*
X0075380Y0416560D01*
X0076150Y0417330D01*
X0076150Y0420400D01*
X0075380Y0421160D01*
X0073850Y0421160D01*
X0073080Y0420400D01*
X0073080Y0417330D01*
X0070010Y0416560D02*
X0070010Y0421160D01*
X0071550Y0419630D01*
D14*
X0019500Y0338880D02*
X0019500Y0433840D01*
X0125200Y0433840D01*
X0125200Y0338880D01*
X0019500Y0338880D01*
X0137200Y0020000D02*
G75*
%LPD*%
D48*
X0157480Y0043980D02*
X0157480Y0047050D01*
X0157480Y0048580D02*
X0155950Y0050110D01*
X0155950Y0049350D02*
X0155950Y0051650D01*
X0155950Y0049350D02*
X0155180Y0048580D01*
X0153640Y0048580D01*
X0152880Y0049350D01*
X0152880Y0051650D01*
X0157480Y0051650D01*
X0154410Y0047050D02*
X0152880Y0045510D01*
X0157480Y0045510D01*
X0153980Y0068480D02*
X0153980Y0071550D01*
X0153980Y0073080D02*
X0152450Y0074610D01*
X0153210Y0073080D02*
X0153980Y0073850D01*
X0153980Y0075380D01*
X0153210Y0076150D01*
X0150140Y0076150D01*
X0149380Y0075380D01*
X0149380Y0073850D01*
X0150140Y0073080D01*
X0153210Y0073080D01*
X0153980Y0070010D02*
X0149380Y0070010D01*
X0150910Y0071550D01*
D14*
X0136700Y0019500D02*
X0136700Y0125200D01*
X0231660Y0125200D01*
X0231660Y0019500D01*
X0136700Y0019500D01*
X0137200Y0137200D02*
G75*
%LPD*%
D48*
X0217920Y0157480D02*
X0214850Y0157480D01*
X0213320Y0157480D02*
X0211790Y0155950D01*
X0212550Y0155950D02*
X0210250Y0155950D01*
X0212550Y0155950D02*
X0213320Y0155180D01*
X0213320Y0153640D01*
X0212550Y0152880D01*
X0210250Y0152880D01*
X0210250Y0157480D01*
X0214850Y0154410D02*
X0216390Y0152880D01*
X0216390Y0157480D01*
X0193420Y0153980D02*
X0190350Y0153980D01*
X0188820Y0153980D02*
X0187290Y0152450D01*
X0188820Y0153210D02*
X0188050Y0153980D01*
X0186520Y0153980D01*
X0185750Y0153210D01*
X0185750Y0150140D01*
X0186520Y0149380D01*
X0188050Y0149380D01*
X0188820Y0150140D01*
X0188820Y0153210D01*
X0191890Y0153980D02*
X0191890Y0149380D01*
X0190350Y0150910D01*
D14*
X0136700Y0136700D02*
X0136700Y0231660D01*
X0242400Y0231660D01*
X0242400Y0136700D01*
X0136700Y0136700D01*
X0137200Y0243660D02*
G75*
%LPD*%
D48*
X0210880Y0324380D02*
X0210880Y0321310D01*
X0210880Y0319780D02*
X0212410Y0318250D01*
X0212410Y0319010D02*
X0212410Y0316710D01*
X0212410Y0319010D02*
X0213180Y0319780D01*
X0214720Y0319780D01*
X0215480Y0319010D01*
X0215480Y0316710D01*
X0210880Y0316710D01*
X0213950Y0321310D02*
X0215480Y0322850D01*
X0210880Y0322850D01*
X0214380Y0299880D02*
X0214380Y0296810D01*
X0214380Y0295280D02*
X0215910Y0293750D01*
X0215150Y0295280D02*
X0214380Y0294510D01*
X0214380Y0292980D01*
X0215150Y0292210D01*
X0218220Y0292210D01*
X0218980Y0292980D01*
X0218980Y0294510D01*
X0218220Y0295280D01*
X0215150Y0295280D01*
X0214380Y0298350D02*
X0218980Y0298350D01*
X0217450Y0296810D01*
D14*
X0136700Y0243160D02*
X0136700Y0348860D01*
X0231660Y0348860D01*
X0231660Y0243160D01*
X0136700Y0243160D01*
X0137200Y0360860D02*
G75*
%LPD*%
D48*
X0157480Y0384840D02*
X0157480Y0387910D01*
X0157480Y0389440D02*
X0155950Y0390970D01*
X0155950Y0390210D02*
X0155950Y0392510D01*
X0155950Y0390210D02*
X0155180Y0389440D01*
X0153640Y0389440D01*
X0152880Y0390210D01*
X0152880Y0392510D01*
X0157480Y0392510D01*
X0154410Y0387910D02*
X0152880Y0386370D01*
X0157480Y0386370D01*
X0153980Y0409340D02*
X0153980Y0412410D01*
X0153980Y0413940D02*
X0152450Y0415470D01*
X0153210Y0413940D02*
X0153980Y0414710D01*
X0153980Y0416240D01*
X0153210Y0417010D01*
X0150140Y0417010D01*
X0149380Y0416240D01*
X0149380Y0414710D01*
X0150140Y0413940D01*
X0153210Y0413940D01*
X0153980Y0410870D02*
X0149380Y0410870D01*
X0150910Y0412410D01*
D14*
X0136700Y0360360D02*
X0136700Y0466060D01*
X0231660Y0466060D01*
X0231660Y0360360D01*
X0136700Y0360360D01*
D14*
X0023000Y0010500D02*
X0010500Y0010500D01*
X0010500Y0023000D01*
X0251400Y0023000D02*
X0251400Y0010500D01*
X0238900Y0010500D01*
X0238900Y0475060D02*
X0251400Y0475060D01*
X0251400Y0462560D01*
X0010500Y0462560D02*
X0010500Y0475060D01*
X0023000Y0475060D01*
M02*
