%
T01C0.024000
X6885Y7148
X11385Y9548
X11385Y10148
X6885Y17794
X11385Y20194
X11385Y20794
X6885Y28440
X11385Y30840
X11385Y31440
X6885Y39086
X11385Y41486
X11385Y42086
X17968Y6885
X15568Y11385
X14968Y11385
X19305Y17968
X14805Y15568
X14805Y14968
X18868Y29951
X21268Y25451
X21868Y25451
X17968Y40971
X15568Y45471
X14968Y45471
T02C0.040000
X10824Y4740
X10824Y3756
X10824Y15386
X10824Y14402
X10824Y26032
X10824Y25048
X10824Y36678
X10824Y35694
X20376Y10824
X21360Y10824
X15366Y20376
X15366Y21360
X16460Y26012
X15476Y26012
X20376Y44910
X21360Y44910
T03C0.052000
X2885Y3148
X4885Y3148
X2885Y7148
X9485Y7448
X2885Y13794
X4885Y13794
X2885Y17794
X9485Y18094
X2885Y24440
X4885Y24440
X2885Y28440
X9485Y28740
X2885Y35086
X4885Y35086
X2885Y39086
X9485Y39386
X21968Y2885
X21968Y4885
X17968Y2885
X17668Y9485
X23305Y21968
X21305Y21968
X23305Y17968
X16705Y17668
X14868Y33951
X14868Y31951
X18868Y33951
X19168Y27351
X21968Y36971
X21968Y38971
X17968Y36971
X17668Y43571
M30
