G75*
G70*
%OFA0B0*%
%FSLAX25Y25*%
%IPPOS*%
%LPD*%
%AMOC8*
5,1,8,0,0,1.08239X$1,22.5*
%
%ADD12OC8,0.09300*%
%ADD16R,0.07100X0.08670*%
%ADD18O,0.12800X0.06800*%
%ADD19O,0.08600X0.16400*%
%ADD23O,0.16400X0.08600*%
%ADD28C,0.03200*%
%ADD30R,0.04800X0.04800*%
%ADD31R,0.04740X0.06310*%
%ADD32C,0.04800*%
%ADD40R,0.06310X0.04740*%
%ADD41R,0.08670X0.07100*%
%ADD42O,0.06800X0.12800*%
X0020000Y0020000D02*
G75*
%LPD*%
D28*
X0068850Y0071480D03*
D12*
X0094850Y0074480D03*
X0028850Y0071480D03*
D19*
X0028850Y0031480D03*
D23*
X0048850Y0031480D03*
D31*
X0065110Y0085150D03*
X0072590Y0085150D03*
X0068850Y0093810D03*
D16*
X0052360Y0088480D03*
X0041340Y0088480D03*
D18*
X0108240Y0047400D03*
X0108240Y0037560D03*
D32*
X0113850Y0101480D03*
D30*
X0113850Y0095480D03*
X0020000Y0126460D02*
G75*
%LPD*%
D28*
X0068850Y0177940D03*
D12*
X0094850Y0180940D03*
X0028850Y0177940D03*
D19*
X0028850Y0137940D03*
D23*
X0048850Y0137940D03*
D31*
X0065110Y0191610D03*
X0072590Y0191610D03*
X0068850Y0200270D03*
D16*
X0052360Y0194940D03*
X0041340Y0194940D03*
D18*
X0108240Y0153860D03*
X0108240Y0144020D03*
D32*
X0113850Y0207940D03*
D30*
X0113850Y0201940D03*
X0020000Y0232920D02*
G75*
%LPD*%
D28*
X0068850Y0284400D03*
D12*
X0094850Y0287400D03*
X0028850Y0284400D03*
D19*
X0028850Y0244400D03*
D23*
X0048850Y0244400D03*
D31*
X0065110Y0298070D03*
X0072590Y0298070D03*
X0068850Y0306730D03*
D16*
X0052360Y0301400D03*
X0041340Y0301400D03*
D18*
X0108240Y0260320D03*
X0108240Y0250480D03*
D32*
X0113850Y0314400D03*
D30*
X0113850Y0308400D03*
X0020000Y0339380D02*
G75*
%LPD*%
D28*
X0068850Y0390860D03*
D12*
X0094850Y0393860D03*
X0028850Y0390860D03*
D19*
X0028850Y0350860D03*
D23*
X0048850Y0350860D03*
D31*
X0065110Y0404530D03*
X0072590Y0404530D03*
X0068850Y0413190D03*
D16*
X0052360Y0407860D03*
X0041340Y0407860D03*
D18*
X0108240Y0366780D03*
X0108240Y0356940D03*
D32*
X0113850Y0420860D03*
D30*
X0113850Y0414860D03*
X0137200Y0020000D02*
G75*
%LPD*%
D28*
X0179680Y0068850D03*
D12*
X0176680Y0094850D03*
X0179680Y0028850D03*
D23*
X0219680Y0028850D03*
D19*
X0219680Y0048850D03*
D40*
X0166010Y0065110D03*
X0166010Y0072590D03*
X0157350Y0068850D03*
D41*
X0162680Y0052360D03*
X0162680Y0041340D03*
D42*
X0203760Y0108240D03*
X0213600Y0108240D03*
D32*
X0149680Y0113850D03*
D30*
X0155680Y0113850D03*
X0137200Y0137200D02*
G75*
%LPD*%
D28*
X0193050Y0179680D03*
D12*
X0167050Y0176680D03*
X0233050Y0179680D03*
D19*
X0233050Y0219680D03*
D23*
X0213050Y0219680D03*
D31*
X0196790Y0166010D03*
X0189310Y0166010D03*
X0193050Y0157350D03*
D16*
X0209540Y0162680D03*
X0220560Y0162680D03*
D18*
X0153660Y0203760D03*
X0153660Y0213600D03*
D32*
X0148050Y0149680D03*
D30*
X0148050Y0155680D03*
X0137200Y0243660D02*
G75*
%LPD*%
D28*
X0188680Y0299510D03*
D12*
X0191680Y0273510D03*
X0188680Y0339510D03*
D23*
X0148680Y0339510D03*
D19*
X0148680Y0319510D03*
D40*
X0202350Y0303250D03*
X0202350Y0295770D03*
X0211010Y0299510D03*
D41*
X0205680Y0316000D03*
X0205680Y0327020D03*
D42*
X0164600Y0260120D03*
X0154760Y0260120D03*
D32*
X0218680Y0254510D03*
D30*
X0212680Y0254510D03*
X0137200Y0360860D02*
G75*
%LPD*%
D28*
X0179680Y0409710D03*
D12*
X0176680Y0435710D03*
X0179680Y0369710D03*
D23*
X0219680Y0369710D03*
D19*
X0219680Y0389710D03*
D40*
X0166010Y0405970D03*
X0166010Y0413450D03*
X0157350Y0409710D03*
D41*
X0162680Y0393220D03*
X0162680Y0382200D03*
D42*
X0203760Y0449100D03*
X0213600Y0449100D03*
D32*
X0149680Y0454710D03*
D30*
X0155680Y0454710D03*
M02*
