G75*
G70*
%OFA0B0*%
%FSLAX24Y24*%
%IPPOS*%
%LPD*%
%AMOC8*
5,1,8,0,0,1.08239X$1,22.5*
%
%ADD10OC8,0.0850*%
%ADD11O,0.0780X0.1560*%
%ADD12O,0.1560X0.0780*%
%ADD13R,0.0394X0.0551*%
%ADD14R,0.0630X0.0787*%
%ADD15O,0.1200X0.0600*%
%ADD16C,0.0400*%
%ADD17C,0.0100*%
%ADD18R,0.0400X0.0400*%
D10*
X001625Y005625D03*
X008225Y005925D03*
D11*
X001625Y001625D03*
D12*
X003625Y001625D03*
D13*
X005251Y006992D03*
X005999Y006992D03*
X005625Y007858D03*
D14*
X003976Y007325D03*
X002874Y007325D03*
D15*
X009564Y003217D03*
X009564Y002233D03*
D16*
X010125Y008625D03*
D17*
X002165Y001011D02*
X002080Y000927D01*
X010760Y000927D01*
X010760Y009423D01*
X001190Y009423D01*
X001190Y006003D01*
X001387Y006200D01*
X001863Y006200D01*
X002200Y005863D01*
X002200Y005387D01*
X001863Y005050D01*
X001387Y005050D01*
X001190Y005247D01*
X001190Y002343D01*
X001401Y002555D01*
X001849Y002555D01*
X002165Y002239D01*
X002165Y001011D01*
X002165Y001019D02*
X010760Y001019D01*
X010760Y001118D02*
X004271Y001118D01*
X004239Y001085D02*
X004555Y001401D01*
X004555Y001849D01*
X004239Y002165D01*
X003011Y002165D01*
X002695Y001849D01*
X002695Y001401D01*
X003011Y001085D01*
X004239Y001085D01*
X004370Y001216D02*
X010760Y001216D01*
X010760Y001315D02*
X004468Y001315D01*
X004555Y001413D02*
X010760Y001413D01*
X010760Y001512D02*
X004555Y001512D01*
X004555Y001610D02*
X010760Y001610D01*
X010760Y001709D02*
X004555Y001709D01*
X004555Y001807D02*
X009053Y001807D01*
X009078Y001783D02*
X010051Y001783D01*
X010314Y002046D01*
X010314Y002419D01*
X010051Y002683D01*
X009078Y002683D01*
X008814Y002419D01*
X008814Y002046D01*
X009078Y001783D01*
X008955Y001906D02*
X004497Y001906D01*
X004399Y002004D02*
X008856Y002004D01*
X008814Y002103D02*
X004300Y002103D01*
X002949Y002103D02*
X002165Y002103D01*
X002165Y002004D02*
X002851Y002004D01*
X002752Y001906D02*
X002165Y001906D01*
X002165Y001807D02*
X002695Y001807D01*
X002695Y001709D02*
X002165Y001709D01*
X002165Y001610D02*
X002695Y001610D01*
X002695Y001512D02*
X002165Y001512D01*
X002165Y001413D02*
X002695Y001413D01*
X002781Y001315D02*
X002165Y001315D01*
X002165Y001216D02*
X002880Y001216D01*
X002979Y001118D02*
X002165Y001118D01*
X002165Y002202D02*
X008814Y002202D01*
X008814Y002300D02*
X002103Y002300D01*
X002005Y002399D02*
X008814Y002399D01*
X008892Y002497D02*
X001906Y002497D01*
X001344Y002497D02*
X001190Y002497D01*
X001190Y002399D02*
X001245Y002399D01*
X001190Y002596D02*
X008991Y002596D01*
X009078Y002767D02*
X010051Y002767D01*
X010314Y003031D01*
X010314Y003403D01*
X010051Y003667D01*
X009078Y003667D01*
X008814Y003403D01*
X008814Y003031D01*
X009078Y002767D01*
X009052Y002793D02*
X001190Y002793D01*
X001190Y002891D02*
X008953Y002891D01*
X008855Y002990D02*
X001190Y002990D01*
X001190Y003088D02*
X008814Y003088D01*
X008814Y003187D02*
X001190Y003187D01*
X001190Y003286D02*
X008814Y003286D01*
X008814Y003384D02*
X001190Y003384D01*
X001190Y003483D02*
X008894Y003483D01*
X008992Y003581D02*
X001190Y003581D01*
X001190Y003680D02*
X010760Y003680D01*
X010760Y003778D02*
X001190Y003778D01*
X001190Y003877D02*
X010760Y003877D01*
X010760Y003975D02*
X001190Y003975D01*
X001190Y004074D02*
X010760Y004074D01*
X010760Y004172D02*
X001190Y004172D01*
X001190Y004271D02*
X010760Y004271D01*
X010760Y004370D02*
X001190Y004370D01*
X001190Y004468D02*
X010760Y004468D01*
X010760Y004567D02*
X001190Y004567D01*
X001190Y004665D02*
X010760Y004665D01*
X010760Y004764D02*
X001190Y004764D01*
X001190Y004862D02*
X010760Y004862D01*
X010760Y004961D02*
X001190Y004961D01*
X001190Y005059D02*
X001377Y005059D01*
X001279Y005158D02*
X001190Y005158D01*
X001872Y005059D02*
X005501Y005059D01*
X005511Y005055D02*
X005738Y005055D01*
X005948Y005142D01*
X006108Y005302D01*
X006195Y005511D01*
X006195Y005738D01*
X006108Y005948D01*
X005948Y006108D01*
X005738Y006195D01*
X005511Y006195D01*
X005302Y006108D01*
X005142Y005948D01*
X005055Y005738D01*
X005055Y005511D01*
X005142Y005302D01*
X005302Y005142D01*
X005511Y005055D01*
X005286Y005158D02*
X001971Y005158D01*
X002070Y005256D02*
X005187Y005256D01*
X005120Y005355D02*
X002168Y005355D01*
X002200Y005454D02*
X005079Y005454D01*
X005055Y005552D02*
X002200Y005552D01*
X002200Y005651D02*
X005055Y005651D01*
X005059Y005749D02*
X002200Y005749D01*
X002200Y005848D02*
X005100Y005848D01*
X005141Y005946D02*
X002117Y005946D01*
X002018Y006045D02*
X005239Y006045D01*
X005387Y006143D02*
X001920Y006143D01*
X001330Y006143D02*
X001190Y006143D01*
X001190Y006045D02*
X001232Y006045D01*
X001190Y006242D02*
X003325Y006242D01*
X003342Y006225D02*
X005542Y006225D01*
X005708Y006225D01*
X006049Y006566D01*
X006258Y006566D01*
X006346Y006654D01*
X006346Y007330D01*
X006258Y007417D01*
X005740Y007417D01*
X005652Y007330D01*
X005652Y006735D01*
X005598Y006680D01*
X005598Y007330D01*
X005510Y007417D01*
X004992Y007417D01*
X004904Y007330D01*
X004904Y006654D01*
X004933Y006625D01*
X003508Y006625D01*
X003301Y006831D01*
X003339Y006869D01*
X003339Y007781D01*
X003251Y007869D01*
X002497Y007869D01*
X002409Y007781D01*
X002409Y006869D01*
X002497Y006781D01*
X002786Y006781D01*
X003225Y006342D01*
X003342Y006225D01*
X003227Y006340D02*
X001190Y006340D01*
X001190Y006439D02*
X003128Y006439D01*
X003029Y006537D02*
X001190Y006537D01*
X001190Y006636D02*
X002931Y006636D01*
X002832Y006735D02*
X001190Y006735D01*
X001190Y006833D02*
X002445Y006833D01*
X002409Y006932D02*
X001190Y006932D01*
X001190Y007030D02*
X002409Y007030D01*
X002409Y007129D02*
X001190Y007129D01*
X001190Y007227D02*
X002409Y007227D01*
X002409Y007326D02*
X001190Y007326D01*
X001190Y007424D02*
X002409Y007424D01*
X002409Y007523D02*
X001190Y007523D01*
X001190Y007621D02*
X002409Y007621D01*
X002409Y007720D02*
X001190Y007720D01*
X001190Y007819D02*
X002447Y007819D01*
X002874Y007325D02*
X002874Y006976D01*
X003425Y006425D01*
X005625Y006425D01*
X006025Y006825D01*
X005999Y006851D01*
X005999Y006992D01*
X005652Y007030D02*
X005598Y007030D01*
X005598Y006932D02*
X005652Y006932D01*
X005652Y006833D02*
X005598Y006833D01*
X005598Y006735D02*
X005652Y006735D01*
X006020Y006537D02*
X010760Y006537D01*
X010760Y006439D02*
X008524Y006439D01*
X008463Y006500D02*
X008275Y006500D01*
X008275Y005975D01*
X008800Y005975D01*
X008800Y006163D01*
X008463Y006500D01*
X008275Y006439D02*
X008175Y006439D01*
X008175Y006500D02*
X007987Y006500D01*
X007650Y006163D01*
X007650Y005975D01*
X008175Y005975D01*
X008175Y006500D01*
X008175Y006340D02*
X008275Y006340D01*
X008275Y006242D02*
X008175Y006242D01*
X008175Y006143D02*
X008275Y006143D01*
X008275Y006045D02*
X008175Y006045D01*
X008175Y005975D02*
X008275Y005975D01*
X008275Y005875D01*
X008800Y005875D01*
X008800Y005687D01*
X008463Y005350D01*
X008275Y005350D01*
X008275Y005875D01*
X008175Y005875D01*
X008175Y005350D01*
X007987Y005350D01*
X007650Y005687D01*
X007650Y005875D01*
X008175Y005875D01*
X008175Y005975D01*
X008175Y005946D02*
X006109Y005946D01*
X006150Y005848D02*
X007650Y005848D01*
X007650Y005749D02*
X006190Y005749D01*
X006195Y005651D02*
X007686Y005651D01*
X007785Y005552D02*
X006195Y005552D01*
X006171Y005454D02*
X007883Y005454D01*
X007982Y005355D02*
X006130Y005355D01*
X006063Y005256D02*
X010760Y005256D01*
X010760Y005158D02*
X005964Y005158D01*
X005749Y005059D02*
X010760Y005059D01*
X010760Y005355D02*
X008468Y005355D01*
X008567Y005454D02*
X010760Y005454D01*
X010760Y005552D02*
X008665Y005552D01*
X008764Y005651D02*
X010760Y005651D01*
X010760Y005749D02*
X008800Y005749D01*
X008800Y005848D02*
X010760Y005848D01*
X010760Y005946D02*
X008275Y005946D01*
X008275Y005848D02*
X008175Y005848D01*
X008175Y005749D02*
X008275Y005749D01*
X008275Y005651D02*
X008175Y005651D01*
X008175Y005552D02*
X008275Y005552D01*
X008275Y005454D02*
X008175Y005454D01*
X008175Y005355D02*
X008275Y005355D01*
X008800Y006045D02*
X010760Y006045D01*
X010760Y006143D02*
X008800Y006143D01*
X008721Y006242D02*
X010760Y006242D01*
X010760Y006340D02*
X008622Y006340D01*
X007926Y006439D02*
X005922Y006439D01*
X005823Y006340D02*
X007827Y006340D01*
X007729Y006242D02*
X005725Y006242D01*
X005863Y006143D02*
X007650Y006143D01*
X007650Y006045D02*
X006011Y006045D01*
X006328Y006636D02*
X010760Y006636D01*
X010760Y006735D02*
X006346Y006735D01*
X006346Y006833D02*
X010760Y006833D01*
X010760Y006932D02*
X006346Y006932D01*
X006346Y007030D02*
X010760Y007030D01*
X010760Y007129D02*
X006346Y007129D01*
X006346Y007227D02*
X010760Y007227D01*
X010760Y007326D02*
X006346Y007326D01*
X005972Y007520D02*
X005884Y007432D01*
X005366Y007432D01*
X005278Y007520D01*
X005278Y007658D01*
X004441Y007658D01*
X004441Y006869D01*
X004353Y006781D01*
X003599Y006781D01*
X003511Y006869D01*
X003511Y007781D01*
X003599Y007869D01*
X003825Y007869D01*
X003825Y007941D01*
X003942Y008058D01*
X004108Y008058D01*
X005278Y008058D01*
X005278Y008196D01*
X005366Y008284D01*
X005884Y008284D01*
X005972Y008196D01*
X005972Y007520D01*
X005972Y007523D02*
X010760Y007523D01*
X010760Y007621D02*
X005972Y007621D01*
X005972Y007720D02*
X009818Y007720D01*
X009775Y007763D02*
X009863Y007675D01*
X010387Y007675D01*
X010475Y007763D01*
X010475Y008287D01*
X010387Y008375D01*
X010370Y008375D01*
X010422Y008427D01*
X010475Y008555D01*
X010475Y008694D01*
X010422Y008823D01*
X010323Y008922D01*
X010194Y008975D01*
X010055Y008975D01*
X009927Y008922D01*
X009828Y008823D01*
X009775Y008694D01*
X009775Y008555D01*
X009828Y008427D01*
X009880Y008375D01*
X009863Y008375D01*
X009775Y008287D01*
X009775Y007763D01*
X009775Y007819D02*
X005972Y007819D01*
X005972Y007917D02*
X009775Y007917D01*
X009775Y008016D02*
X005972Y008016D01*
X005972Y008114D02*
X009775Y008114D01*
X009775Y008213D02*
X005955Y008213D01*
X005625Y007858D02*
X004025Y007858D01*
X004025Y007325D01*
X003976Y007325D01*
X003511Y007326D02*
X003339Y007326D01*
X003339Y007424D02*
X003511Y007424D01*
X003511Y007523D02*
X003339Y007523D01*
X003339Y007621D02*
X003511Y007621D01*
X003511Y007720D02*
X003339Y007720D01*
X003301Y007819D02*
X003549Y007819D01*
X003825Y007917D02*
X001190Y007917D01*
X001190Y008016D02*
X003900Y008016D01*
X004441Y007621D02*
X005278Y007621D01*
X005278Y007523D02*
X004441Y007523D01*
X004441Y007424D02*
X010760Y007424D01*
X010760Y007720D02*
X010432Y007720D01*
X010475Y007819D02*
X010760Y007819D01*
X010760Y007917D02*
X010475Y007917D01*
X010475Y008016D02*
X010760Y008016D01*
X010760Y008114D02*
X010475Y008114D01*
X010475Y008213D02*
X010760Y008213D01*
X010760Y008311D02*
X010451Y008311D01*
X010405Y008410D02*
X010760Y008410D01*
X010760Y008508D02*
X010455Y008508D01*
X010475Y008607D02*
X010760Y008607D01*
X010760Y008705D02*
X010470Y008705D01*
X010430Y008804D02*
X010760Y008804D01*
X010760Y008903D02*
X010342Y008903D01*
X010760Y009001D02*
X001190Y009001D01*
X001190Y008903D02*
X009908Y008903D01*
X009820Y008804D02*
X001190Y008804D01*
X001190Y008705D02*
X009779Y008705D01*
X009775Y008607D02*
X001190Y008607D01*
X001190Y008508D02*
X009794Y008508D01*
X009845Y008410D02*
X001190Y008410D01*
X001190Y008311D02*
X009799Y008311D01*
X010760Y009100D02*
X001190Y009100D01*
X001190Y009198D02*
X010760Y009198D01*
X010760Y009297D02*
X001190Y009297D01*
X001190Y009395D02*
X010760Y009395D01*
X005652Y007326D02*
X005598Y007326D01*
X005598Y007227D02*
X005652Y007227D01*
X005652Y007129D02*
X005598Y007129D01*
X004904Y007129D02*
X004441Y007129D01*
X004441Y007227D02*
X004904Y007227D01*
X004904Y007326D02*
X004441Y007326D01*
X004441Y007030D02*
X004904Y007030D01*
X004904Y006932D02*
X004441Y006932D01*
X004405Y006833D02*
X004904Y006833D01*
X004904Y006735D02*
X003398Y006735D01*
X003303Y006833D02*
X003547Y006833D01*
X003511Y006932D02*
X003339Y006932D01*
X003339Y007030D02*
X003511Y007030D01*
X003511Y007129D02*
X003339Y007129D01*
X003339Y007227D02*
X003511Y007227D01*
X003496Y006636D02*
X004922Y006636D01*
X005278Y008114D02*
X001190Y008114D01*
X001190Y008213D02*
X005295Y008213D01*
X010136Y003581D02*
X010760Y003581D01*
X010760Y003483D02*
X010235Y003483D01*
X010314Y003384D02*
X010760Y003384D01*
X010760Y003286D02*
X010314Y003286D01*
X010314Y003187D02*
X010760Y003187D01*
X010760Y003088D02*
X010314Y003088D01*
X010274Y002990D02*
X010760Y002990D01*
X010760Y002891D02*
X010175Y002891D01*
X010076Y002793D02*
X010760Y002793D01*
X010760Y002694D02*
X001190Y002694D01*
X010075Y001807D02*
X010760Y001807D01*
X010760Y001906D02*
X010174Y001906D01*
X010272Y002004D02*
X010760Y002004D01*
X010760Y002103D02*
X010314Y002103D01*
X010314Y002202D02*
X010760Y002202D01*
X010760Y002300D02*
X010314Y002300D01*
X010314Y002399D02*
X010760Y002399D01*
X010760Y002497D02*
X010236Y002497D01*
X010138Y002596D02*
X010760Y002596D01*
D18*
X010125Y008025D03*
M02*
