<?xml version="1.0" encoding="utf-8"?>
<!-- Generator: Adobe Illustrator 16.0.1, SVG Export Plug-In . SVG Version: 6.00 Build 0)  -->
<!DOCTYPE svg PUBLIC "-//W3C//DTD SVG 1.1 Tiny//EN" "http://www.w3.org/Graphics/SVG/1.1/DTD/svg11-tiny.dtd">
<svg version="1.1" baseProfile="tiny" id="_x30_" xmlns:xml="http://www.w3.org/XML/1998/namespace"
	 xmlns="http://www.w3.org/2000/svg" xmlns:xlink="http://www.w3.org/1999/xlink" x="0px" y="0px" width="43.7px" height="29.8px"
	 viewBox="0.548 4.372 43.7 29.8" xml:space="preserve">
<desc  oldid="0.0" id="0.0.0">
	<referenceFile  oldid="0.0.0" id="0.0.0.0">Schematic.AD584.svg</referenceFile>
</desc>
<line id="connector1pin" fill="none" stroke="#000000" x1="14.948" y1="12.072" x2="0.548" y2="12.074"/>
<rect id="connector1terminal" x="0.548" y="12.071" fill="none" width="0.071" height="0.005"/>
<line id="connector2pin" fill="none" stroke="#000000" x1="14.948" y1="19.271" x2="0.548" y2="19.271"/>
<rect id="connector2terminal" x="0.548" y="19.277" fill="none" width="0.006" height="0.074"/>
<line id="connector3pin" fill="none" stroke="#000000" x1="0.548" y1="26.472" x2="14.948" y2="26.472"/>
<rect id="connector3terminal" x="0.548" y="26.436" width="0.004" height="0.039"/>
<text transform="matrix(0.8074 0 0 1 17.8372 21.1367)" font-family="'ArialMT'" font-size="4">V</text>
<text transform="matrix(0.8074 0 0 1 19.8132 21.1367)" font-family="'ArialMT'" font-size="4">o</text>
<text id="_x30_.1.16_1_" transform="matrix(0.8074 0 0 1 17.8372 13.9365)" font-family="'ArialMT'" font-size="4">V+</text>
<text id="_x30_.1.16_2_" transform="matrix(0.8074 0 0 1 17.8372 28.3359)" font-family="'ArialMT'" font-size="4">GND</text>
<text id="_x30_.1.22" transform="matrix(0.9059 0 0 1 24.1477 10.0713)" font-family="'ArialMT'" font-size="4">AD22100</text>
<polygon fill="none" stroke="#000000" points="14.948,4.872 43.747,4.872 43.747,33.672 14.948,33.672 "/>
</svg>
