<?xml version='1.0' encoding='UTF-8' standalone='no'?>
<!-- Created with Fritzing (http://www.fritzing.org/) -->
<svg xmlns="http://www.w3.org/2000/svg" width="2.98609in" x="0in" version="1.2" y="0in" height="5.64357in" viewBox="0 0 214.998 406.337" baseProfile="tiny">
 <desc >Fritzing schematic generated by brd2svg</desc>
 <g  id="schematic" stroke-width="0">
  <rect  width="170.078" x="22.4598" y="22.4598" fill="none" height="361.418" stroke="#000000" stroke-linejoin="round" stroke-linecap="round" stroke-width="2.4"/>
  <text  x="107.499" y="64.9795" font-family="Droid Sans" fill="#000000" text-anchor="middle" stroke="none" id="label" stroke-width="0" font-size="18">Ethernet</text>
  <text  x="107.499" y="86.2394" font-family="Droid Sans" fill="#000000" text-anchor="middle" stroke="none" id="label" stroke-width="0" font-size="18">Pro</text>
  <line  fill="none" stroke="#000000" stroke-linejoin="round" stroke-linecap="round" y1="64.9795" stroke-width="2.4" x1="1.2" y2="64.9795" x2="21.2599"/>
  <rect  width="21.2599" x="0" y="63.7795" fill="none" height="2.4" id="connector102pin" stroke-width="0" connectorName="RESET"/>
  <rect  width="2.4" x="0" y="63.7795" fill="none" height="2.4" id="connector102terminal" stroke-width="0"/>
  <text  x="27.7399" y="67.3795" font-family="Droid Sans" fill="#000000" text-anchor="start" stroke="none" id="label102" stroke-width="0" font-size="9.936">RESET</text>
  <line  fill="none" stroke="#000000" stroke-linejoin="round" stroke-linecap="round" y1="86.2394" stroke-width="2.4" x1="1.2" y2="86.2394" x2="21.2599"/>
  <rect  width="21.2599" x="0" y="85.0392" fill="none" height="2.4" id="connector75pin" stroke-width="0" connectorName="AREF"/>
  <rect  width="2.4" x="0" y="85.0392" fill="none" height="2.4" id="connector75terminal" stroke-width="0"/>
  <text  x="27.7399" y="88.6392" font-family="Droid Sans" fill="#000000" text-anchor="start" stroke="none" id="label75" stroke-width="0" font-size="9.936">AREF</text>
  <line  fill="none" stroke="#000000" stroke-linejoin="round" stroke-linecap="round" y1="128.759" stroke-width="2.4" x1="1.2" y2="128.759" x2="21.2599"/>
  <rect  width="21.2599" x="0" y="127.559" fill="none" height="2.4" id="connector0pin" stroke-width="0" connectorName="AD0"/>
  <rect  width="2.4" x="0" y="127.559" fill="none" height="2.4" id="connector0terminal" stroke-width="0"/>
  <text  x="27.7399" y="131.159" font-family="Droid Sans" fill="#000000" text-anchor="start" stroke="none" id="label0" stroke-width="0" font-size="9.936">AD0</text>
  <line  fill="none" stroke="#000000" stroke-linejoin="round" stroke-linecap="round" y1="150.019" stroke-width="2.4" x1="1.2" y2="150.019" x2="21.2599"/>
  <rect  width="21.2599" x="0" y="148.819" fill="none" height="2.4" id="connector1pin" stroke-width="0" connectorName="AD1"/>
  <rect  width="2.4" x="0" y="148.819" fill="none" height="2.4" id="connector1terminal" stroke-width="0"/>
  <text  x="27.7399" y="152.419" font-family="Droid Sans" fill="#000000" text-anchor="start" stroke="none" id="label1" stroke-width="0" font-size="9.936">AD1</text>
  <line  fill="none" stroke="#000000" stroke-linejoin="round" stroke-linecap="round" y1="171.279" stroke-width="2.4" x1="1.2" y2="171.279" x2="21.2599"/>
  <rect  width="21.2599" x="0" y="170.078" fill="none" height="2.4" id="connector2pin" stroke-width="0" connectorName="AD2"/>
  <rect  width="2.4" x="0" y="170.078" fill="none" height="2.4" id="connector2terminal" stroke-width="0"/>
  <text  x="27.7399" y="173.678" font-family="Droid Sans" fill="#000000" text-anchor="start" stroke="none" id="label2" stroke-width="0" font-size="9.936">AD2</text>
  <line  fill="none" stroke="#000000" stroke-linejoin="round" stroke-linecap="round" y1="192.539" stroke-width="2.4" x1="1.2" y2="192.539" x2="21.2599"/>
  <rect  width="21.2599" x="0" y="191.339" fill="none" height="2.4" id="connector3pin" stroke-width="0" connectorName="AD3"/>
  <rect  width="2.4" x="0" y="191.339" fill="none" height="2.4" id="connector3terminal" stroke-width="0"/>
  <text  x="27.7399" y="194.939" font-family="Droid Sans" fill="#000000" text-anchor="start" stroke="none" id="label3" stroke-width="0" font-size="9.936">AD3</text>
  <line  fill="none" stroke="#000000" stroke-linejoin="round" stroke-linecap="round" y1="213.798" stroke-width="2.4" x1="1.2" y2="213.798" x2="21.2599"/>
  <rect  width="21.2599" x="0" y="212.599" fill="none" height="2.4" id="connector4pin" stroke-width="0" connectorName="AD4"/>
  <rect  width="2.4" x="0" y="212.599" fill="none" height="2.4" id="connector4terminal" stroke-width="0"/>
  <text  x="27.7399" y="216.199" font-family="Droid Sans" fill="#000000" text-anchor="start" stroke="none" id="label4" stroke-width="0" font-size="9.936">AD4</text>
  <line  fill="none" stroke="#000000" stroke-linejoin="round" stroke-linecap="round" y1="235.058" stroke-width="2.4" x1="1.2" y2="235.058" x2="21.2599"/>
  <rect  width="21.2599" x="0" y="233.858" fill="none" height="2.4" id="connector5pin" stroke-width="0" connectorName="AD5"/>
  <rect  width="2.4" x="0" y="233.858" fill="none" height="2.4" id="connector5terminal" stroke-width="0"/>
  <text  x="27.7399" y="237.458" font-family="Droid Sans" fill="#000000" text-anchor="start" stroke="none" id="label5" stroke-width="0" font-size="9.936">AD5</text>
  <line  fill="none" stroke="#000000" stroke-linejoin="round" stroke-linecap="round" y1="64.9795" stroke-width="2.4" x1="192.539" y2="64.9795" x2="213.798"/>
  <rect  width="21.2599" x="193.738" y="63.7795" fill="none" connectorname="SCLK" height="2.4" id="connector73pin" stroke-width="0"/>
  <rect  width="2.4" x="212.599" y="63.7795" fill="none" height="2.4" id="connector73terminal" stroke-width="0"/>
  <text  x="187.258" y="67.3795" font-family="Droid Sans" fill="#000000" text-anchor="end" stroke="none" id="label73" stroke-width="0" font-size="9.936">SCLK</text>
  <line  fill="none" stroke="#000000" stroke-linejoin="round" stroke-linecap="round" y1="86.2394" stroke-width="2.4" x1="192.539" y2="86.2394" x2="213.798"/>
  <rect  width="21.2599" x="193.738" y="85.0392" fill="none" connectorname="MISO" height="2.4" id="connector72pin" stroke-width="0"/>
  <rect  width="2.4" x="212.599" y="85.0392" fill="none" height="2.4" id="connector72terminal" stroke-width="0"/>
  <text  x="187.258" y="88.6392" font-family="Droid Sans" fill="#000000" text-anchor="end" stroke="none" id="label72" stroke-width="0" font-size="9.936">MISO</text>
  <line  fill="none" stroke="#000000" stroke-linejoin="round" stroke-linecap="round" y1="107.499" stroke-width="2.4" x1="192.539" y2="107.499" x2="213.798"/>
  <rect  width="21.2599" x="193.738" y="106.299" fill="none" connectorname="MOSI" height="2.4" id="connector71pin" stroke-width="0"/>
  <rect  width="2.4" x="212.599" y="106.299" fill="none" height="2.4" id="connector71terminal" stroke-width="0"/>
  <text  x="187.258" y="109.899" font-family="Droid Sans" fill="#000000" text-anchor="end" stroke="none" id="label71" stroke-width="0" font-size="9.936">MOSI</text>
  <line  fill="none" stroke="#000000" stroke-linejoin="round" stroke-linecap="round" y1="128.759" stroke-width="2.4" x1="192.539" y2="128.759" x2="213.798"/>
  <rect  width="21.2599" x="193.738" y="127.559" fill="none" connectorname="*CS" height="2.4" id="connector70pin" stroke-width="0"/>
  <rect  width="2.4" x="212.599" y="127.559" fill="none" height="2.4" id="connector70terminal" stroke-width="0"/>
  <text  x="187.258" y="131.159" font-family="Droid Sans" fill="#000000" text-anchor="end" stroke="none" id="label70" stroke-width="0" font-size="9.936">*CS</text>
  <line  fill="none" stroke="#000000" stroke-linejoin="round" stroke-linecap="round" y1="150.019" stroke-width="2.4" x1="192.539" y2="150.019" x2="213.798"/>
  <rect  width="21.2599" x="193.738" y="148.819" fill="none" connectorname="IO9" height="2.4" id="connector69pin" stroke-width="0"/>
  <rect  width="2.4" x="212.599" y="148.819" fill="none" height="2.4" id="connector69terminal" stroke-width="0"/>
  <text  x="187.258" y="152.419" font-family="Droid Sans" fill="#000000" text-anchor="end" stroke="none" id="label69" stroke-width="0" font-size="9.936">IO9</text>
  <line  fill="none" stroke="#000000" stroke-linejoin="round" stroke-linecap="round" y1="171.279" stroke-width="2.4" x1="192.539" y2="171.279" x2="213.798"/>
  <rect  width="21.2599" x="193.738" y="170.078" fill="none" connectorname="IO8" height="2.4" id="connector68pin" stroke-width="0"/>
  <rect  width="2.4" x="212.599" y="170.078" fill="none" height="2.4" id="connector68terminal" stroke-width="0"/>
  <text  x="187.258" y="173.678" font-family="Droid Sans" fill="#000000" text-anchor="end" stroke="none" id="label68" stroke-width="0" font-size="9.936">IO8</text>
  <line  fill="none" stroke="#000000" stroke-linejoin="round" stroke-linecap="round" y1="192.539" stroke-width="2.4" x1="192.539" y2="192.539" x2="213.798"/>
  <rect  width="21.2599" x="193.738" y="191.339" fill="none" connectorname="IO7" height="2.4" id="connector83pin" stroke-width="0"/>
  <rect  width="2.4" x="212.599" y="191.339" fill="none" height="2.4" id="connector83terminal" stroke-width="0"/>
  <text  x="187.258" y="194.939" font-family="Droid Sans" fill="#000000" text-anchor="end" stroke="none" id="label83" stroke-width="0" font-size="9.936">IO7</text>
  <line  fill="none" stroke="#000000" stroke-linejoin="round" stroke-linecap="round" y1="213.798" stroke-width="2.4" x1="192.539" y2="213.798" x2="213.798"/>
  <rect  width="21.2599" x="193.738" y="212.599" fill="none" connectorname="IO6" height="2.4" id="connector82pin" stroke-width="0"/>
  <rect  width="2.4" x="212.599" y="212.599" fill="none" height="2.4" id="connector82terminal" stroke-width="0"/>
  <text  x="187.258" y="216.199" font-family="Droid Sans" fill="#000000" text-anchor="end" stroke="none" id="label82" stroke-width="0" font-size="9.936">IO6</text>
  <line  fill="none" stroke="#000000" stroke-linejoin="round" stroke-linecap="round" y1="235.058" stroke-width="2.4" x1="192.539" y2="235.058" x2="213.798"/>
  <rect  width="21.2599" x="193.738" y="233.858" fill="none" connectorname="IO5" height="2.4" id="connector81pin" stroke-width="0"/>
  <rect  width="2.4" x="212.599" y="233.858" fill="none" height="2.4" id="connector81terminal" stroke-width="0"/>
  <text  x="187.258" y="237.458" font-family="Droid Sans" fill="#000000" text-anchor="end" stroke="none" id="label81" stroke-width="0" font-size="9.936">IO5</text>
  <line  fill="none" stroke="#000000" stroke-linejoin="round" stroke-linecap="round" y1="256.318" stroke-width="2.4" x1="192.539" y2="256.318" x2="213.798"/>
  <rect  width="21.2599" x="193.738" y="255.118" fill="none" connectorname="IO4" height="2.4" id="connector80pin" stroke-width="0"/>
  <rect  width="2.4" x="212.599" y="255.118" fill="none" height="2.4" id="connector80terminal" stroke-width="0"/>
  <text  x="187.258" y="258.718" font-family="Droid Sans" fill="#000000" text-anchor="end" stroke="none" id="label80" stroke-width="0" font-size="9.936">IO4</text>
  <line  fill="none" stroke="#000000" stroke-linejoin="round" stroke-linecap="round" y1="277.578" stroke-width="2.4" x1="192.539" y2="277.578" x2="213.798"/>
  <rect  width="21.2599" x="193.738" y="276.378" fill="none" connectorname="IO3" height="2.4" id="connector79pin" stroke-width="0"/>
  <rect  width="2.4" x="212.599" y="276.378" fill="none" height="2.4" id="connector79terminal" stroke-width="0"/>
  <text  x="187.258" y="279.978" font-family="Droid Sans" fill="#000000" text-anchor="end" stroke="none" id="label79" stroke-width="0" font-size="9.936">IO3</text>
  <line  fill="none" stroke="#000000" stroke-linejoin="round" stroke-linecap="round" y1="298.837" stroke-width="2.4" x1="192.539" y2="298.837" x2="213.798"/>
  <rect  width="21.2599" x="193.738" y="297.638" fill="none" connectorname="IO2" height="2.4" id="connector78pin" stroke-width="0"/>
  <rect  width="2.4" x="212.599" y="297.638" fill="none" height="2.4" id="connector78terminal" stroke-width="0"/>
  <text  x="187.258" y="301.238" font-family="Droid Sans" fill="#000000" text-anchor="end" stroke="none" id="label78" stroke-width="0" font-size="9.936">IO2</text>
  <line  fill="none" stroke="#000000" stroke-linejoin="round" stroke-linecap="round" y1="320.098" stroke-width="2.4" x1="192.539" y2="320.098" x2="213.798"/>
  <rect  width="21.2599" x="193.738" y="318.897" fill="none" connectorname="IO1" height="2.4" id="connector77pin" stroke-width="0"/>
  <rect  width="2.4" x="212.599" y="318.897" fill="none" height="2.4" id="connector77terminal" stroke-width="0"/>
  <text  x="187.258" y="322.497" font-family="Droid Sans" fill="#000000" text-anchor="end" stroke="none" id="label77" stroke-width="0" font-size="9.936">IO1</text>
  <line  fill="none" stroke="#000000" stroke-linejoin="round" stroke-linecap="round" y1="341.358" stroke-width="2.4" x1="192.539" y2="341.358" x2="213.798"/>
  <rect  width="21.2599" x="193.738" y="340.158" fill="none" connectorname="IO0" height="2.4" id="connector76pin" stroke-width="0"/>
  <rect  width="2.4" x="212.599" y="340.158" fill="none" height="2.4" id="connector76terminal" stroke-width="0"/>
  <text  x="187.258" y="343.758" font-family="Droid Sans" fill="#000000" text-anchor="end" stroke="none" id="label76" stroke-width="0" font-size="9.936">IO0</text>
  <line  fill="none" stroke="#000000" stroke-linejoin="round" stroke-linecap="round" y1="1.2" stroke-width="2.4" x1="75.6094" y2="21.2599" x2="75.6094"/>
  <rect  width="2.4" x="74.4091" y="0" fill="none" connectorname="5V" height="21.2599" id="connector99pin" stroke-width="0"/>
  <rect  width="2.4" x="74.4091" y="0" fill="none" height="0" id="connector99terminal" stroke-width="0"/>
  <text  x="75.6094" y="33.8599" font-family="Droid Sans" fill="#000000" text-anchor="middle" stroke="none" id="label99" stroke-width="0" font-size="9.936">5V</text>
  <line  fill="none" stroke="#000000" stroke-linejoin="round" stroke-linecap="round" y1="1.2" stroke-width="2.4" x1="96.8695" y2="21.2599" x2="96.8695"/>
  <rect  width="2.4" x="95.6693" y="0" fill="none" connectorname="3.3V" height="21.2599" id="connector129pin" stroke-width="0"/>
  <rect  width="2.4" x="95.6693" y="0" fill="none" height="0" id="connector129terminal" stroke-width="0"/>
  <text  x="96.8695" y="33.8599" font-family="Droid Sans" fill="#000000" text-anchor="middle" stroke="none" id="label129" stroke-width="0" font-size="9.936">3.3V</text>
  <line  fill="none" stroke="#000000" stroke-linejoin="round" stroke-linecap="round" y1="1.2" stroke-width="2.4" x1="118.129" y2="21.2599" x2="118.129"/>
  <rect  width="2.4" x="116.929" y="0" fill="none" connectorname="VIN" height="21.2599" id="connector133pin" stroke-width="0"/>
  <rect  width="2.4" x="116.929" y="0" fill="none" height="0" id="connector133terminal" stroke-width="0"/>
  <text  x="118.129" y="33.8599" font-family="Droid Sans" fill="#000000" text-anchor="middle" stroke="none" id="label133" stroke-width="0" font-size="9.936">VIN</text>
  <line  fill="none" stroke="#000000" stroke-linejoin="round" stroke-linecap="round" y1="385.077" stroke-width="2.4" x1="107.499" y2="405.137" x2="107.499"/>
  <rect  width="2.4" x="106.299" y="385.077" fill="none" connectorname="GND" height="21.2599" id="connector74pin" stroke-width="0"/>
  <rect  width="2.4" x="106.299" y="406.337" fill="none" height="0" id="connector74terminal" stroke-width="0"/>
  <text  x="107.499" y="379.317" font-family="Droid Sans" fill="#000000" text-anchor="middle" stroke="none" id="label74" stroke-width="0" font-size="9.936">GND</text>
  <rect  width="2.4" x="74.4091" y="0" fill="none" connectorname="5V" height="21.2599" id="connector130pin" stroke-width="0"/>
  <rect  width="2.4" x="74.4091" y="0" fill="none" height="0" id="connector130terminal" stroke-width="0"/>
  <rect  width="2.4" x="106.299" y="385.077" fill="none" connectorname="GND" height="21.2599" id="connector103pin" stroke-width="0"/>
  <rect  width="2.4" x="106.299" y="406.337" fill="none" height="0" id="connector103terminal" stroke-width="0"/>
  <rect  width="2.4" x="106.299" y="385.077" fill="none" connectorname="GND" height="21.2599" id="connector131pin" stroke-width="0"/>
  <rect  width="2.4" x="106.299" y="406.337" fill="none" height="0" id="connector131terminal" stroke-width="0"/>
  <rect  width="2.4" x="106.299" y="385.077" fill="none" connectorname="GND" height="21.2599" id="connector132pin" stroke-width="0"/>
  <rect  width="2.4" x="106.299" y="406.337" fill="none" height="0" id="connector132terminal" stroke-width="0"/>
  <rect  width="21.2599" x="0" y="63.7795" fill="none" height="2.4" id="connector128pin" stroke-width="0" connectorName="RESET"/>
  <rect  width="2.4" x="0" y="63.7795" fill="none" height="2.4" id="connector128terminal" stroke-width="0"/>
  <rect  width="21.2599" x="193.738" y="63.7795" fill="none" connectorname="SCLK" height="2.4" id="connector100pin" stroke-width="0"/>
  <rect  width="2.4" x="212.599" y="63.7795" fill="none" height="2.4" id="connector100terminal" stroke-width="0"/>
  <rect  width="21.2599" x="193.738" y="85.0392" fill="none" connectorname="MISO" height="2.4" id="connector98pin" stroke-width="0"/>
  <rect  width="2.4" x="212.599" y="85.0392" fill="none" height="2.4" id="connector98terminal" stroke-width="0"/>
  <rect  width="21.2599" x="193.738" y="106.299" fill="none" connectorname="MOSI" height="2.4" id="connector101pin" stroke-width="0"/>
  <rect  width="2.4" x="212.599" y="106.299" fill="none" height="2.4" id="connector101terminal" stroke-width="0"/>
 </g>
</svg>
