<?xml version='1.0' encoding='UTF-8' standalone='no'?>
<!-- Created with Fritzing (http://www.fritzing.org/) -->
<svg xmlns="http://www.w3.org/2000/svg"  width="3.87192in" x="0in" version="1.2" y="0in" height="6.82467in" viewBox="0 0 278.778 491.376" baseProfile="tiny">
 <desc >Fritzing schematic generated by brd2svg</desc>
 <g  id="schematic">
  <rect  width="233.858" x="22.4598" y="22.4598" fill="none" height="446.457" stroke="#000000" stroke-linejoin="round" stroke-linecap="round" stroke-width="2.4"/>
  <text  x="139.389" y="64.9795" font-family="Droid Sans" fill="#000000" text-anchor="middle" stroke="none" id="label" font-size="18">Arduino</text>
  <text  x="139.389" y="86.2394" font-family="Droid Sans" fill="#000000" text-anchor="middle" stroke="none" id="label" font-size="18">Uno</text>
  <text  x="139.389" y="107.499" font-family="Droid Sans" fill="#000000" text-anchor="middle" stroke="none" id="label" font-size="18">(Rev3)</text>
  <line  fill="none" stroke="#000000" stroke-linejoin="round" stroke-linecap="round" y1="64.9795" stroke-width="2.4" x1="1.2" y2="64.9795" x2="21.2599"/>
  <rect  width="21.2599" x="0" y="63.7795" fill="none" height="2.4" id="connector43pin" stroke-width="0" connectorName="RESET"/>
  <rect  width="2.4" x="0" y="63.7795" fill="none" height="2.4" id="connector43terminal" stroke-width="0"/>
  <text  x="27.7399" y="67.3795" font-family="Droid Sans" fill="#000000" text-anchor="start" stroke="none" id="label43" font-size="9.936">RESET</text>
  <line  fill="none" stroke="#000000" stroke-linejoin="round" stroke-linecap="round" y1="86.2394" stroke-width="2.4" x1="1.2" y2="86.2394" x2="21.2599"/>
  <rect  width="21.2599" x="0" y="85.0392" fill="none" height="2.4" id="connector49pin" stroke-width="0" connectorName="RESET2"/>
  <rect  width="2.4" x="0" y="85.0392" fill="none" height="2.4" id="connector49terminal" stroke-width="0"/>
  <text  x="27.7399" y="88.6392" font-family="Droid Sans" fill="#000000" text-anchor="start" stroke="none" id="label49" font-size="9.936">RESET2</text>
  <line  fill="none" stroke="#000000" stroke-linejoin="round" stroke-linecap="round" y1="107.499" stroke-width="2.4" x1="1.2" y2="107.499" x2="21.2599"/>
  <rect  width="21.2599" x="0" y="106.299" fill="none" height="2.4" id="connector58pin" stroke-width="0" connectorName="AREF"/>
  <rect  width="2.4" x="0" y="106.299" fill="none" height="2.4" id="connector58terminal" stroke-width="0"/>
  <text  x="27.7399" y="109.899" font-family="Droid Sans" fill="#000000" text-anchor="start" stroke="none" id="label58" font-size="9.936">AREF</text>
  <line  fill="none" stroke="#000000" stroke-linejoin="round" stroke-linecap="round" y1="128.759" stroke-width="2.4" x1="1.2" y2="128.759" x2="21.2599"/>
  <rect  width="21.2599" x="0" y="127.559" fill="none" height="2.4" id="connector83pin" stroke-width="0" connectorName="N/C"/>
  <rect  width="2.4" x="0" y="127.559" fill="none" height="2.4" id="connector83terminal" stroke-width="0"/>
  <text  x="27.7399" y="131.159" font-family="Droid Sans" fill="#000000" text-anchor="start" stroke="none" id="label83" font-size="9.936">N/C</text>
  <line  fill="none" stroke="#000000" stroke-linejoin="round" stroke-linecap="round" y1="171.279" stroke-width="2.4" x1="1.2" y2="171.279" x2="21.2599"/>
  <rect  width="21.2599" x="0" y="170.078" fill="none" height="2.4" id="connector0pin" stroke-width="0" connectorName="A0"/>
  <rect  width="2.4" x="0" y="170.078" fill="none" height="2.4" id="connector0terminal" stroke-width="0"/>
  <text  x="27.7399" y="173.678" font-family="Droid Sans" fill="#000000" text-anchor="start" stroke="none" id="label0" font-size="9.936">A0</text>
  <line  fill="none" stroke="#000000" stroke-linejoin="round" stroke-linecap="round" y1="192.539" stroke-width="2.4" x1="1.2" y2="192.539" x2="21.2599"/>
  <rect  width="21.2599" x="0" y="191.339" fill="none" height="2.4" id="connector1pin" stroke-width="0" connectorName="A1"/>
  <rect  width="2.4" x="0" y="191.339" fill="none" height="2.4" id="connector1terminal" stroke-width="0"/>
  <text  x="27.7399" y="194.939" font-family="Droid Sans" fill="#000000" text-anchor="start" stroke="none" id="label1" font-size="9.936">A1</text>
  <line  fill="none" stroke="#000000" stroke-linejoin="round" stroke-linecap="round" y1="213.798" stroke-width="2.4" x1="1.2" y2="213.798" x2="21.2599"/>
  <rect  width="21.2599" x="0" y="212.599" fill="none" height="2.4" id="connector2pin" stroke-width="0" connectorName="A2"/>
  <rect  width="2.4" x="0" y="212.599" fill="none" height="2.4" id="connector2terminal" stroke-width="0"/>
  <text  x="27.7399" y="216.199" font-family="Droid Sans" fill="#000000" text-anchor="start" stroke="none" id="label2" font-size="9.936">A2</text>
  <line  fill="none" stroke="#000000" stroke-linejoin="round" stroke-linecap="round" y1="235.058" stroke-width="2.4" x1="1.2" y2="235.058" x2="21.2599"/>
  <rect  width="21.2599" x="0" y="233.858" fill="none" height="2.4" id="connector3pin" stroke-width="0" connectorName="A3"/>
  <rect  width="2.4" x="0" y="233.858" fill="none" height="2.4" id="connector3terminal" stroke-width="0"/>
  <text  x="27.7399" y="237.458" font-family="Droid Sans" fill="#000000" text-anchor="start" stroke="none" id="label3" font-size="9.936">A3</text>
  <line  fill="none" stroke="#000000" stroke-linejoin="round" stroke-linecap="round" y1="256.318" stroke-width="2.4" x1="1.2" y2="256.318" x2="21.2599"/>
  <rect  width="21.2599" x="0" y="255.118" fill="none" height="2.4" id="connector4pin" stroke-width="0" connectorName="A4/SDA"/>
  <rect  width="2.4" x="0" y="255.118" fill="none" height="2.4" id="connector4terminal" stroke-width="0"/>
  <text  x="27.7399" y="258.718" font-family="Droid Sans" fill="#000000" text-anchor="start" stroke="none" id="label4" font-size="9.936">A4/SDA</text>
  <line  fill="none" stroke="#000000" stroke-linejoin="round" stroke-linecap="round" y1="277.578" stroke-width="2.4" x1="1.2" y2="277.578" x2="21.2599"/>
  <rect  width="21.2599" x="0" y="276.378" fill="none" height="2.4" id="connector5pin" stroke-width="0" connectorName="A5/SCL"/>
  <rect  width="2.4" x="0" y="276.378" fill="none" height="2.4" id="connector5terminal" stroke-width="0"/>
  <text  x="27.7399" y="279.978" font-family="Droid Sans" fill="#000000" text-anchor="start" stroke="none" id="label5" font-size="9.936">A5/SCL</text>
  <line  fill="none" stroke="#000000" stroke-linejoin="round" stroke-linecap="round" y1="64.9795" stroke-width="2.4" x1="256.318" y2="64.9795" x2="277.578"/>
  <rect  width="21.2599" x="257.518" y="63.7795" fill="none" connectorname="TX/D0" height="2.4" id="connector61pin" stroke-width="0"/>
  <rect  width="2.4" x="276.378" y="63.7795" fill="none" height="2.4" id="connector61terminal" stroke-width="0"/>
  <text  x="251.038" y="67.3795" font-family="Droid Sans" fill="#000000" text-anchor="end" stroke="none" id="label61" font-size="9.936">TX/D0</text>
  <line  fill="none" stroke="#000000" stroke-linejoin="round" stroke-linecap="round" y1="86.2394" stroke-width="2.4" x1="256.318" y2="86.2394" x2="277.578"/>
  <rect  width="21.2599" x="257.518" y="85.0392" fill="none" connectorname="RX/D1" height="2.4" id="connector62pin" stroke-width="0"/>
  <rect  width="2.4" x="276.378" y="85.0392" fill="none" height="2.4" id="connector62terminal" stroke-width="0"/>
  <text  x="251.038" y="88.6392" font-family="Droid Sans" fill="#000000" text-anchor="end" stroke="none" id="label62" font-size="9.936">RX/D1</text>
  <line  fill="none" stroke="#000000" stroke-linejoin="round" stroke-linecap="round" y1="107.499" stroke-width="2.4" x1="256.318" y2="107.499" x2="277.578"/>
  <rect  width="21.2599" x="257.518" y="106.299" fill="none" connectorname="D2" height="2.4" id="connector63pin" stroke-width="0"/>
  <rect  width="2.4" x="276.378" y="106.299" fill="none" height="2.4" id="connector63terminal" stroke-width="0"/>
  <text  x="251.038" y="109.899" font-family="Droid Sans" fill="#000000" text-anchor="end" stroke="none" id="label63" font-size="9.936">D2</text>
  <line  fill="none" stroke="#000000" stroke-linejoin="round" stroke-linecap="round" y1="128.759" stroke-width="2.4" x1="256.318" y2="128.759" x2="277.578"/>
  <rect  width="21.2599" x="257.518" y="127.559" fill="none" connectorname="PWM D3" height="2.4" id="connector64pin" stroke-width="0"/>
  <rect  width="2.4" x="276.378" y="127.559" fill="none" height="2.4" id="connector64terminal" stroke-width="0"/>
  <text  x="251.038" y="131.159" font-family="Droid Sans" fill="#000000" text-anchor="end" stroke="none" id="label64" font-size="9.936">PWM D3</text>
  <line  fill="none" stroke="#000000" stroke-linejoin="round" stroke-linecap="round" y1="150.019" stroke-width="2.4" x1="256.318" y2="150.019" x2="277.578"/>
  <rect  width="21.2599" x="257.518" y="148.819" fill="none" connectorname="D4" height="2.4" id="connector65pin" stroke-width="0"/>
  <rect  width="2.4" x="276.378" y="148.819" fill="none" height="2.4" id="connector65terminal" stroke-width="0"/>
  <text  x="251.038" y="152.419" font-family="Droid Sans" fill="#000000" text-anchor="end" stroke="none" id="label65" font-size="9.936">D4</text>
  <line  fill="none" stroke="#000000" stroke-linejoin="round" stroke-linecap="round" y1="171.279" stroke-width="2.4" x1="256.318" y2="171.279" x2="277.578"/>
  <rect  width="21.2599" x="257.518" y="170.078" fill="none" connectorname="PWM D5" height="2.4" id="connector66pin" stroke-width="0"/>
  <rect  width="2.4" x="276.378" y="170.078" fill="none" height="2.4" id="connector66terminal" stroke-width="0"/>
  <text  x="251.038" y="173.678" font-family="Droid Sans" fill="#000000" text-anchor="end" stroke="none" id="label66" font-size="9.936">PWM D5</text>
  <line  fill="none" stroke="#000000" stroke-linejoin="round" stroke-linecap="round" y1="192.539" stroke-width="2.4" x1="256.318" y2="192.539" x2="277.578"/>
  <rect  width="21.2599" x="257.518" y="191.339" fill="none" connectorname="PWM D6" height="2.4" id="connector67pin" stroke-width="0"/>
  <rect  width="2.4" x="276.378" y="191.339" fill="none" height="2.4" id="connector67terminal" stroke-width="0"/>
  <text  x="251.038" y="194.939" font-family="Droid Sans" fill="#000000" text-anchor="end" stroke="none" id="label67" font-size="9.936">PWM D6</text>
  <line  fill="none" stroke="#000000" stroke-linejoin="round" stroke-linecap="round" y1="213.798" stroke-width="2.4" x1="256.318" y2="213.798" x2="277.578"/>
  <rect  width="21.2599" x="257.518" y="212.599" fill="none" connectorname="D7" height="2.4" id="connector68pin" stroke-width="0"/>
  <rect  width="2.4" x="276.378" y="212.599" fill="none" height="2.4" id="connector68terminal" stroke-width="0"/>
  <text  x="251.038" y="216.199" font-family="Droid Sans" fill="#000000" text-anchor="end" stroke="none" id="label68" font-size="9.936">D7</text>
  <line  fill="none" stroke="#000000" stroke-linejoin="round" stroke-linecap="round" y1="235.058" stroke-width="2.4" x1="256.318" y2="235.058" x2="277.578"/>
  <rect  width="21.2599" x="257.518" y="233.858" fill="none" connectorname="D8" height="2.4" id="connector51pin" stroke-width="0"/>
  <rect  width="2.4" x="276.378" y="233.858" fill="none" height="2.4" id="connector51terminal" stroke-width="0"/>
  <text  x="251.038" y="237.458" font-family="Droid Sans" fill="#000000" text-anchor="end" stroke="none" id="label51" font-size="9.936">D8</text>
  <line  fill="none" stroke="#000000" stroke-linejoin="round" stroke-linecap="round" y1="256.318" stroke-width="2.4" x1="256.318" y2="256.318" x2="277.578"/>
  <rect  width="21.2599" x="257.518" y="255.118" fill="none" connectorname="PWM D9" height="2.4" id="connector52pin" stroke-width="0"/>
  <rect  width="2.4" x="276.378" y="255.118" fill="none" height="2.4" id="connector52terminal" stroke-width="0"/>
  <text  x="251.038" y="258.718" font-family="Droid Sans" fill="#000000" text-anchor="end" stroke="none" id="label52" font-size="9.936">PWM D9</text>
  <line  fill="none" stroke="#000000" stroke-linejoin="round" stroke-linecap="round" y1="277.578" stroke-width="2.4" x1="256.318" y2="277.578" x2="277.578"/>
  <rect  width="21.2599" x="257.518" y="276.378" fill="none" connectorname="SS/PWM D10" height="2.4" id="connector53pin" stroke-width="0"/>
  <rect  width="2.4" x="276.378" y="276.378" fill="none" height="2.4" id="connector53terminal" stroke-width="0"/>
  <text  x="251.038" y="279.978" font-family="Droid Sans" fill="#000000" text-anchor="end" stroke="none" id="label53" font-size="9.936">SS/PWM D10</text>
  <line  fill="none" stroke="#000000" stroke-linejoin="round" stroke-linecap="round" y1="298.837" stroke-width="2.4" x1="256.318" y2="298.837" x2="277.578"/>
  <rect  width="21.2599" x="257.518" y="297.638" fill="none" connectorname="MOSI/PWM D11" height="2.4" id="connector54pin" stroke-width="0"/>
  <rect  width="2.4" x="276.378" y="297.638" fill="none" height="2.4" id="connector54terminal" stroke-width="0"/>
  <text  x="251.038" y="301.238" font-family="Droid Sans" fill="#000000" text-anchor="end" stroke="none" id="label54" font-size="9.936">MOSI/PWM D11</text>
  <line  fill="none" stroke="#000000" stroke-linejoin="round" stroke-linecap="round" y1="320.098" stroke-width="2.4" x1="256.318" y2="320.098" x2="277.578"/>
  <rect  width="21.2599" x="257.518" y="318.897" fill="none" connectorname="MISO/D12" height="2.4" id="connector55pin" stroke-width="0"/>
  <rect  width="2.4" x="276.378" y="318.897" fill="none" height="2.4" id="connector55terminal" stroke-width="0"/>
  <text  x="251.038" y="322.497" font-family="Droid Sans" fill="#000000" text-anchor="end" stroke="none" id="label55" font-size="9.936">MISO/D12</text>
  <line  fill="none" stroke="#000000" stroke-linejoin="round" stroke-linecap="round" y1="341.358" stroke-width="2.4" x1="256.318" y2="341.358" x2="277.578"/>
  <rect  width="21.2599" x="257.518" y="340.158" fill="none" connectorname="SCK/D13" height="2.4" id="connector56pin" stroke-width="0"/>
  <rect  width="2.4" x="276.378" y="340.158" fill="none" height="2.4" id="connector56terminal" stroke-width="0"/>
  <text  x="251.038" y="343.758" font-family="Droid Sans" fill="#000000" text-anchor="end" stroke="none" id="label56" font-size="9.936">SCK/D13</text>
  <line  fill="none" stroke="#000000" stroke-linejoin="round" stroke-linecap="round" y1="383.877" stroke-width="2.4" x1="256.318" y2="383.877" x2="277.578"/>
  <rect  width="21.2599" x="257.518" y="382.677" fill="none" connectorname="ICSP2 MISO" height="2.4" id="connector45pin" stroke-width="0"/>
  <rect  width="2.4" x="276.378" y="382.677" fill="none" height="2.4" id="connector45terminal" stroke-width="0"/>
  <text  x="251.038" y="386.277" font-family="Droid Sans" fill="#000000" text-anchor="end" stroke="none" id="label45" font-size="9.936">ICSP2 MISO</text>
  <line  fill="none" stroke="#000000" stroke-linejoin="round" stroke-linecap="round" y1="405.137" stroke-width="2.4" x1="256.318" y2="405.137" x2="277.578"/>
  <rect  width="21.2599" x="257.518" y="403.937" fill="none" connectorname="ICSP2 SCK" height="2.4" id="connector47pin" stroke-width="0"/>
  <rect  width="2.4" x="276.378" y="403.937" fill="none" height="2.4" id="connector47terminal" stroke-width="0"/>
  <text  x="251.038" y="407.537" font-family="Droid Sans" fill="#000000" text-anchor="end" stroke="none" id="label47" font-size="9.936">ICSP2 SCK</text>
  <line  fill="none" stroke="#000000" stroke-linejoin="round" stroke-linecap="round" y1="426.397" stroke-width="2.4" x1="256.318" y2="426.397" x2="277.578"/>
  <rect  width="21.2599" x="257.518" y="425.197" fill="none" connectorname="ICSP MOSI" height="2.4" id="connector48pin" stroke-width="0"/>
  <rect  width="2.4" x="276.378" y="425.197" fill="none" height="2.4" id="connector48terminal" stroke-width="0"/>
  <text  x="251.038" y="428.797" font-family="Droid Sans" fill="#000000" text-anchor="end" stroke="none" id="label48" font-size="9.936">ICSP MOSI</text>
  <line  fill="none" stroke="#000000" stroke-linejoin="round" stroke-linecap="round" y1="1.2" stroke-width="2.4" x1="86.2394" y2="21.2599" x2="86.2394"/>
  <rect  width="2.4" x="85.0392" y="0" fill="none" connectorname="3V3" height="21.2599" id="connector86pin" stroke-width="0"/>
  <rect  width="2.4" x="85.0392" y="0" fill="none" height="0" id="connector86terminal" stroke-width="0"/>
  <text  x="86.2394" y="33.8599" font-family="Droid Sans" fill="#000000" text-anchor="middle" stroke="none" id="label86" font-size="9.936">3V3</text>
  <line  fill="none" stroke="#000000" stroke-linejoin="round" stroke-linecap="round" y1="1.2" stroke-width="2.4" x1="128.759" y2="21.2599" x2="128.759"/>
  <rect  width="2.4" x="127.559" y="0" fill="none" connectorname="5V" height="21.2599" id="connector40pin" stroke-width="0"/>
  <rect  width="2.4" x="127.559" y="0" fill="none" height="0" id="connector40terminal" stroke-width="0"/>
  <text  x="128.759" y="33.8599" font-family="Droid Sans" fill="#000000" text-anchor="middle" stroke="none" id="label40" font-size="9.936">5V</text>
  <line  fill="none" stroke="#000000" stroke-linejoin="round" stroke-linecap="round" y1="1.2" stroke-width="2.4" x1="171.279" y2="21.2599" x2="171.279"/>
  <rect  width="2.4" x="170.078" y="0" fill="none" connectorname="VIN" height="21.2599" id="connector90pin" stroke-width="0"/>
  <rect  width="2.4" x="170.078" y="0" fill="none" height="0" id="connector90terminal" stroke-width="0"/>
  <text  x="171.279" y="33.8599" font-family="Droid Sans" fill="#000000" text-anchor="middle" stroke="none" id="label90" font-size="9.936">VIN</text>
  <line  fill="none" stroke="#000000" stroke-linejoin="round" stroke-linecap="round" y1="470.117" stroke-width="2.4" x1="139.389" y2="490.177" x2="139.389"/>
  <rect  width="2.4" x="138.189" y="470.117" fill="none" connectorname="GND" height="21.2599" id="connector44pin" stroke-width="0"/>
  <rect  width="2.4" x="138.189" y="491.376" fill="none" height="0" id="connector44terminal" stroke-width="0"/>
  <text  x="139.389" y="464.357" font-family="Droid Sans" fill="#000000" text-anchor="middle" stroke="none" id="label44" font-size="9.936">GND</text>
  <rect  width="2.4" x="127.559" y="0" fill="none" connectorname="5V" height="21.2599" id="connector46pin" stroke-width="0"/>
  <rect  width="2.4" x="127.559" y="0" fill="none" height="0" id="connector46terminal" stroke-width="0"/>
  <rect  width="2.4" x="127.559" y="0" fill="none" connectorname="5V" height="21.2599" id="connector84pin" stroke-width="0"/>
  <rect  width="2.4" x="127.559" y="0" fill="none" height="0" id="connector84terminal" stroke-width="0"/>
  <rect  width="2.4" x="127.559" y="0" fill="none" connectorname="5V" height="21.2599" id="connector87pin" stroke-width="0"/>
  <rect  width="2.4" x="127.559" y="0" fill="none" height="0" id="connector87terminal" stroke-width="0"/>
  <rect  width="2.4" x="138.189" y="470.117" fill="none" connectorname="GND" height="21.2599" id="connector88pin" stroke-width="0"/>
  <rect  width="2.4" x="138.189" y="491.376" fill="none" height="0" id="connector88terminal" stroke-width="0"/>
  <rect  width="2.4" x="138.189" y="470.117" fill="none" connectorname="GND" height="21.2599" id="connector89pin" stroke-width="0"/>
  <rect  width="2.4" x="138.189" y="491.376" fill="none" height="0" id="connector89terminal" stroke-width="0"/>
  <rect  width="2.4" x="138.189" y="470.117" fill="none" connectorname="GND" height="21.2599" id="connector50pin" stroke-width="0"/>
  <rect  width="2.4" x="138.189" y="491.376" fill="none" height="0" id="connector50terminal" stroke-width="0"/>
  <rect  width="2.4" x="138.189" y="470.117" fill="none" connectorname="GND" height="21.2599" id="connector57pin" stroke-width="0"/>
  <rect  width="2.4" x="138.189" y="491.376" fill="none" height="0" id="connector57terminal" stroke-width="0"/>
  <rect  width="21.2599" x="0" y="63.7795" fill="none" height="2.4" id="connector85pin" stroke-width="0" connectorName="RESET"/>
  <rect  width="2.4" x="0" y="63.7795" fill="none" height="2.4" id="connector85terminal" stroke-width="0"/>
  <rect  width="21.2599" x="0" y="255.118" fill="none" height="2.4" id="connector59pin" stroke-width="0" connectorName="A4/SDA"/>
  <rect  width="2.4" x="0" y="255.118" fill="none" height="2.4" id="connector59terminal" stroke-width="0"/>
  <rect  width="21.2599" x="0" y="276.378" fill="none" height="2.4" id="connector60pin" stroke-width="0" connectorName="A5/SCL"/>
  <rect  width="2.4" x="0" y="276.378" fill="none" height="2.4" id="connector60terminal" stroke-width="0"/>
 </g>
</svg>
