<?xml version='1.0' encoding='utf-8'?>
<!DOCTYPE svg>
<!-- Generator: Adobe Illustrator 15.0.0, SVG Export Plug-In . SVG Version: 6.00 Build 0)  -->
<svg xmlns="http://www.w3.org/2000/svg" width="0.58275in" x="0px" version="1.1" y="0px"  height="0.784944in" viewBox="0 0 41.958 56.516" xmlns:xml="http://www.w3.org/XML/1998/namespace" enable-background="new 0 0 41.958 56.516" xml:space="preserve">
    <desc >
        <referenceFile >bnc schematic.svg</referenceFile>
    </desc>
    <g gorn="0.1"  id="pins">
        <g gorn="0.1.0"  id="GND">
            <path  d="M14.289,8.12c-0.276,0-0.5-0.224-0.5-0.5V0.5c0-0.276,0.224-0.5,0.5-0.5s0.5,0.224,0.5,0.5v7.12C14.789,7.896,14.565,8.12,14.289,8.12z"/>
        </g>
        <g gorn="0.1.1"  id="TX">
            <path  d="M21.807,8.12c-0.276,0-0.5-0.224-0.5-0.5V0.5c0-0.276,0.224-0.5,0.5-0.5s0.5,0.224,0.5,0.5v7.12C22.307,7.896,22.083,8.12,21.807,8.12z"/>
        </g>
        <g gorn="0.1.2"  id="RX">
            <path  d="M29.256,8.12c-0.276,0-0.5-0.224-0.5-0.5V0.5c0-0.276,0.224-0.5,0.5-0.5s0.5,0.224,0.5,0.5v7.12C29.756,7.896,29.532,8.12,29.256,8.12z"/>
        </g>
        <rect width="0.977" x="28.756" fill="none" gorn="0.1.3"  height="0.977" id="connector2pin"/>
        <rect width="0.977" x="21.33" fill="none" gorn="0.1.4"  height="0.977" id="connector1pin"/>
        <rect width="0.977" x="13.801" fill="none" gorn="0.1.5"  height="0.977" id="connector0pin"/>
    </g>
    <g gorn="0.2"  id="Layer_1">
        <rect width="40.947" x="0.558" y="8.121" fill="#FFFFFF"  height="47.896" stroke="#000000" stroke-width="1" stroke-miterlimit="10"/>
        <g >
            <g >
                <path  d="M27.998,11.659c-0.246,0.129-0.52,0.183-0.799,0.183c-0.596,0-1.029-0.39-1.029-1.001c0-0.61,0.434-1.002,1.029-1.002c0.303,0,0.568,0.068,0.759,0.246l-0.295,0.323c-0.114-0.119-0.25-0.181-0.464-0.181c-0.358,0-0.592,0.258-0.592,0.613s0.233,0.614,0.592,0.614c0.183,0,0.317-0.052,0.396-0.094V11.05h-0.341v-0.387h0.744V11.659z"/>
                <path  d="M28.367,9.888h0.569l0.812,1.323h0.006V9.888h0.418v1.905h-0.549l-0.832-1.356h-0.006v1.356h-0.418V9.888z"/>
                <path  d="M30.561,9.888h0.629c0.613,0,1.128,0.261,1.128,0.958c0,0.616-0.504,0.947-1.07,0.947h-0.687V9.888z M30.979,11.406h0.218c0.391,0,0.684-0.147,0.684-0.581c0-0.375-0.298-0.55-0.652-0.55h-0.249V11.406z"/>
            </g>
        </g>
        <g >
            <path  d="M19.358,9.9h0.703c0.392,0,0.718,0.125,0.718,0.572c0,0.445-0.302,0.582-0.7,0.582h-0.305v0.736h-0.416V9.9z M19.774,10.701h0.278c0.147,0,0.294-0.051,0.294-0.229c0-0.193-0.198-0.221-0.357-0.221h-0.215V10.701z"/>
            <path  d="M21.04,9.9h0.732c0.387,0,0.713,0.133,0.713,0.572c0,0.266-0.142,0.473-0.409,0.52l0.48,0.799h-0.499l-0.395-0.756h-0.206v0.756H21.04V9.9z M21.457,10.683h0.245c0.152,0,0.35-0.006,0.35-0.213c0-0.189-0.17-0.219-0.322-0.219h-0.272V10.683z"/>
            <path  d="M22.771,9.9h0.705c0.33,0,0.691,0.07,0.691,0.48c0,0.211-0.131,0.355-0.326,0.416v0.006c0.248,0.031,0.414,0.217,0.414,0.461c0,0.396-0.374,0.527-0.711,0.527h-0.773V9.9z M23.187,10.654h0.302c0.128,0,0.262-0.053,0.262-0.203c0-0.158-0.149-0.199-0.28-0.199h-0.283V10.654z M23.187,11.437h0.375c0.13,0,0.277-0.057,0.277-0.221c0-0.178-0.201-0.209-0.337-0.209h-0.315V11.437z"/>
        </g>
        <g >
            <path  d="M3.98,32.002H3.521l1.681-3.863h0.382l1.681,3.863H6.807l-0.426-1.015H4.406L3.98,32.002z M4.553,30.627h1.676l-0.835-2.03L4.553,30.627z"/>
            <path  d="M8.981,29.776H8.245v1.506c0,0.382,0.147,0.458,0.372,0.458c0.125,0,0.262-0.038,0.371-0.098l0.017,0.333c-0.131,0.06-0.306,0.093-0.486,0.093c-0.273,0-0.633-0.12-0.633-0.682v-1.61H7.345v-0.327h0.541v-0.721h0.359v0.721h0.737V29.776z"/>
            <path  d="M9.917,32.002h-0.36v-4.125h0.36V32.002z"/>
            <path  d="M12.422,30.437v-0.065c0-0.442-0.213-0.66-0.655-0.66c-0.3,0-0.562,0.104-0.78,0.3l-0.218-0.256c0.234-0.24,0.6-0.371,1.08-0.371c0.502,0,0.934,0.284,0.934,0.906v1.14c0,0.196,0.021,0.437,0.043,0.573h-0.349c-0.022-0.125-0.033-0.278-0.033-0.415h-0.011c-0.208,0.338-0.491,0.48-0.9,0.48c-0.453,0-0.879-0.251-0.879-0.748c0-0.829,0.977-0.884,1.587-0.884H12.422z M12.237,30.731c-0.366,0-1.19,0.027-1.19,0.54c0,0.338,0.312,0.469,0.601,0.469c0.523,0,0.775-0.371,0.775-0.824v-0.185H12.237z"/>
            <path  d="M14.973,30.055c-0.109-0.208-0.29-0.344-0.551-0.344c-0.251,0-0.53,0.109-0.53,0.382c0,0.24,0.169,0.327,0.502,0.404l0.366,0.087c0.354,0.082,0.622,0.338,0.622,0.699c0,0.556-0.497,0.786-0.993,0.786c-0.388,0-0.742-0.137-0.982-0.497l0.311-0.213c0.147,0.229,0.372,0.382,0.671,0.382c0.295,0,0.601-0.131,0.601-0.425c0-0.257-0.218-0.344-0.486-0.41l-0.349-0.082C13.98,30.78,13.5,30.639,13.5,30.153c0-0.529,0.464-0.77,0.944-0.77c0.355,0,0.688,0.126,0.852,0.458L14.973,30.055z"/>
            <path  d="M17.856,29.083c-0.136-0.174-0.409-0.256-0.617-0.256c-0.24,0-0.572,0.109-0.572,0.398c0,0.704,1.778,0.251,1.778,1.604c0,0.862-0.693,1.271-1.49,1.271c-0.497,0-0.933-0.147-1.299-0.486l0.606-0.666c0.174,0.229,0.458,0.366,0.742,0.366c0.278,0,0.589-0.131,0.589-0.404c0-0.709-1.812-0.328-1.812-1.615c0-0.824,0.714-1.255,1.473-1.255c0.437,0,0.857,0.115,1.185,0.404L17.856,29.083z"/>
            <path  d="M20.772,30.208c-0.082-0.115-0.234-0.202-0.404-0.202c-0.408,0-0.654,0.272-0.654,0.671s0.246,0.671,0.654,0.671c0.181,0,0.312-0.092,0.404-0.202l0.541,0.567c-0.258,0.262-0.634,0.355-0.945,0.355c-0.818,0-1.473-0.546-1.473-1.392s0.654-1.392,1.473-1.392c0.312,0,0.688,0.093,0.945,0.354L20.772,30.208z"/>
            <path  d="M22.03,28.041c0.262,0,0.475,0.213,0.475,0.475c0,0.262-0.213,0.475-0.475,0.475s-0.475-0.213-0.475-0.475C21.556,28.254,21.769,28.041,22.03,28.041z M21.62,29.351h0.819v2.652H21.62V29.351z"/>
            <path  d="M25.54,31.544c-0.262,0.333-0.693,0.524-1.119,0.524c-0.818,0-1.473-0.546-1.473-1.392s0.654-1.392,1.473-1.392c0.765,0,1.245,0.546,1.245,1.392v0.256h-1.899c0.065,0.311,0.3,0.513,0.617,0.513c0.267,0,0.446-0.136,0.583-0.322L25.54,31.544z M24.847,30.376c0.006-0.273-0.207-0.502-0.501-0.502c-0.361,0-0.558,0.246-0.579,0.502H24.847z"/>
            <path  d="M26.165,29.351h0.785v0.36h0.012c0.108-0.208,0.376-0.426,0.774-0.426c0.829,0,0.982,0.546,0.982,1.255v1.462h-0.819v-1.298c0-0.306-0.005-0.698-0.425-0.698c-0.426,0-0.492,0.333-0.492,0.676v1.32h-0.817V29.351z"/>
            <path  d="M31.105,30.006h-0.721v0.884c0,0.283,0.033,0.491,0.388,0.491c0.087,0,0.263-0.011,0.333-0.076v0.682c-0.18,0.065-0.381,0.082-0.573,0.082c-0.545,0-0.965-0.224-0.965-0.802v-1.26h-0.524v-0.655h0.524v-0.786h0.817v0.786h0.721V30.006z"/>
            <path  d="M31.942,28.041c0.263,0,0.475,0.213,0.475,0.475c0,0.262-0.212,0.475-0.475,0.475c-0.262,0-0.474-0.213-0.474-0.475C31.469,28.254,31.681,28.041,31.942,28.041z M31.533,29.351h0.819v2.652h-0.819V29.351z"/>
            <path  d="M33.227,30.006h-0.54v-0.655h0.54v-0.469c0-0.578,0.147-1.069,1.037-1.069c0.163,0,0.327,0.011,0.479,0.049l-0.038,0.693c-0.093-0.032-0.169-0.054-0.268-0.054c-0.262,0-0.393,0.082-0.393,0.431v0.42h0.605v0.655h-0.605v1.997h-0.818V30.006z"/>
            <path  d="M35.384,28.041c0.262,0,0.474,0.213,0.474,0.475c0,0.262-0.212,0.475-0.474,0.475s-0.475-0.213-0.475-0.475C34.909,28.254,35.122,28.041,35.384,28.041z M34.975,29.351h0.818v2.652h-0.818V29.351z"/>
            <path  d="M38.179,30.208c-0.083-0.115-0.235-0.202-0.403-0.202c-0.41,0-0.655,0.272-0.655,0.671s0.245,0.671,0.655,0.671c0.18,0,0.311-0.092,0.403-0.202l0.54,0.567c-0.257,0.262-0.633,0.355-0.943,0.355c-0.819,0-1.474-0.546-1.474-1.392s0.654-1.392,1.474-1.392c0.311,0,0.687,0.093,0.943,0.354L38.179,30.208z"/>
        </g>
        <g >
            <path  d="M3.496,33.244h0.59c0.365,0,0.696,0.129,0.696,0.545c0,0.435-0.371,0.55-0.651,0.55H3.732v0.893H3.496V33.244z M3.732,34.12h0.399c0.235,0,0.398-0.106,0.398-0.329c0-0.222-0.163-0.329-0.398-0.329H3.732V34.12z"/>
            <path  d="M5.12,34.229c0-0.121-0.012-0.225-0.012-0.312h0.208c0,0.07,0.006,0.143,0.006,0.216h0.005c0.059-0.129,0.222-0.25,0.438-0.25c0.028,0,0.059,0.003,0.09,0.014L5.841,34.12c-0.037-0.011-0.079-0.017-0.118-0.017c-0.267,0-0.385,0.188-0.385,0.488v0.64H5.12V34.229z"/>
            <path  d="M7.23,34.993c-0.154,0.199-0.34,0.272-0.584,0.272c-0.413,0-0.666-0.309-0.666-0.69c0-0.407,0.287-0.691,0.674-0.691c0.371,0,0.624,0.252,0.624,0.688v0.07H6.216c0.017,0.227,0.191,0.421,0.43,0.421c0.188,0,0.314-0.067,0.418-0.199L7.23,34.993z M7.042,34.457c-0.009-0.222-0.154-0.371-0.396-0.371s-0.401,0.149-0.43,0.371H7.042z"/>
            <path  d="M7.531,34.457h0.688v0.202H7.531V34.457z"/>
            <path  d="M9.234,33.244h0.222l0.845,1.988h-0.275l-0.202-0.489H8.83l-0.205,0.489H8.358L9.234,33.244z M9.341,33.547H9.336l-0.413,0.977h0.812L9.341,33.547z"/>
            <path  d="M10.552,34.886c0.087,0.106,0.183,0.177,0.337,0.177c0.138,0,0.289-0.059,0.289-0.202c0-0.141-0.14-0.177-0.281-0.208c-0.25-0.056-0.463-0.109-0.463-0.382c0-0.255,0.247-0.387,0.492-0.387c0.185,0,0.356,0.07,0.446,0.239l-0.183,0.121c-0.056-0.093-0.149-0.157-0.278-0.157c-0.121,0-0.258,0.059-0.258,0.183c0,0.109,0.157,0.157,0.332,0.191c0.233,0.045,0.429,0.129,0.429,0.393c0,0.297-0.264,0.413-0.525,0.413c-0.222,0-0.382-0.059-0.511-0.244L10.552,34.886z"/>
            <path  d="M11.747,34.886c0.087,0.106,0.183,0.177,0.337,0.177c0.138,0,0.289-0.059,0.289-0.202c0-0.141-0.14-0.177-0.281-0.208c-0.25-0.056-0.463-0.109-0.463-0.382c0-0.255,0.247-0.387,0.491-0.387c0.185,0,0.356,0.07,0.446,0.239l-0.183,0.121c-0.056-0.093-0.148-0.157-0.278-0.157c-0.121,0-0.258,0.059-0.258,0.183c0,0.109,0.157,0.157,0.331,0.191c0.233,0.045,0.43,0.129,0.43,0.393c0,0.297-0.264,0.413-0.525,0.413c-0.222,0-0.382-0.059-0.511-0.244L11.747,34.886z"/>
            <path  d="M14.087,34.993c-0.154,0.199-0.34,0.272-0.584,0.272c-0.413,0-0.666-0.309-0.666-0.69c0-0.407,0.287-0.691,0.674-0.691c0.371,0,0.624,0.252,0.624,0.688v0.07h-1.062c0.017,0.227,0.191,0.421,0.43,0.421c0.188,0,0.314-0.067,0.418-0.199L14.087,34.993z M13.899,34.457c-0.008-0.222-0.155-0.371-0.396-0.371s-0.401,0.149-0.43,0.371H13.899z"/>
            <path  d="M14.473,34.229c0-0.121-0.012-0.225-0.012-0.312h0.208c0,0.07,0.006,0.143,0.006,0.216h0.005c0.059-0.129,0.222-0.25,0.438-0.25c0.284,0,0.374,0.16,0.416,0.25c0.095-0.155,0.216-0.25,0.416-0.25c0.376,0,0.5,0.21,0.5,0.55v0.797H16.23v-0.786c0-0.183-0.064-0.359-0.32-0.359c-0.186,0-0.34,0.152-0.34,0.387v0.758h-0.219v-0.744c0-0.289-0.073-0.401-0.252-0.401c-0.284,0-0.407,0.205-0.407,0.505v0.64h-0.219V34.229z"/>
            <path  d="M16.851,33.109h0.219v1h0.005c0.121-0.14,0.281-0.225,0.472-0.225c0.413,0,0.691,0.292,0.691,0.691c0,0.393-0.289,0.69-0.657,0.69c-0.236,0-0.424-0.118-0.506-0.267H17.07v0.233h-0.219V33.109z M17.536,35.063c0.283,0,0.466-0.213,0.466-0.488c0-0.275-0.183-0.489-0.466-0.489c-0.284,0-0.466,0.213-0.466,0.489C17.07,34.85,17.252,35.063,17.536,35.063z"/>
            <path  d="M18.595,33.109h0.219v2.123h-0.219V33.109z"/>
            <path  d="M20.422,34.993c-0.154,0.199-0.34,0.272-0.584,0.272c-0.413,0-0.666-0.309-0.666-0.69c0-0.407,0.287-0.691,0.674-0.691c0.371,0,0.624,0.252,0.624,0.688v0.07h-1.062c0.017,0.227,0.191,0.421,0.43,0.421c0.188,0,0.314-0.067,0.418-0.199L20.422,34.993z M20.234,34.457c-0.008-0.222-0.155-0.371-0.396-0.371s-0.401,0.149-0.43,0.371H20.234z"/>
            <path  d="M21.899,34.999h-0.005c-0.082,0.148-0.27,0.267-0.505,0.267c-0.368,0-0.657-0.298-0.657-0.69c0-0.399,0.278-0.691,0.691-0.691c0.191,0,0.351,0.084,0.472,0.225h0.005v-1h0.219v2.123h-0.219V34.999z M21.434,34.086c-0.284,0-0.466,0.213-0.466,0.489c0,0.275,0.183,0.488,0.466,0.488c0.283,0,0.466-0.213,0.466-0.488C21.899,34.299,21.717,34.086,21.434,34.086z"/>
            <path  d="M23.34,33.244h1.232v0.219h-0.997v0.657h0.927v0.219h-0.927v0.893H23.34V33.244z"/>
            <path  d="M26.034,34.993c-0.155,0.199-0.34,0.272-0.584,0.272c-0.413,0-0.666-0.309-0.666-0.69c0-0.407,0.286-0.691,0.674-0.691c0.371,0,0.623,0.252,0.623,0.688v0.07h-1.061c0.017,0.227,0.19,0.421,0.43,0.421c0.188,0,0.314-0.067,0.418-0.199L26.034,34.993z M25.846,34.457c-0.009-0.222-0.154-0.371-0.396-0.371c-0.242,0-0.402,0.149-0.43,0.371H25.846z"/>
            <path  d="M26.42,34.229c0-0.121-0.012-0.225-0.012-0.312h0.208c0,0.07,0.006,0.143,0.006,0.216h0.006c0.059-0.129,0.222-0.25,0.438-0.25c0.283,0,0.373,0.16,0.416,0.25c0.095-0.155,0.216-0.25,0.415-0.25c0.376,0,0.5,0.21,0.5,0.55v0.797h-0.22v-0.786c0-0.183-0.064-0.359-0.319-0.359c-0.186,0-0.34,0.152-0.34,0.387v0.758h-0.219v-0.744c0-0.289-0.073-0.401-0.253-0.401c-0.283,0-0.407,0.205-0.407,0.505v0.64H26.42V34.229z"/>
            <path  d="M28.792,34.086c0.135-0.138,0.331-0.202,0.521-0.202c0.388,0,0.551,0.185,0.551,0.556v0.564c0,0.076,0.008,0.16,0.02,0.228h-0.211c-0.014-0.059-0.014-0.14-0.014-0.197h-0.006c-0.087,0.135-0.232,0.23-0.433,0.23c-0.267,0-0.488-0.135-0.488-0.39c0-0.435,0.506-0.46,0.828-0.46h0.085v-0.04c0-0.191-0.121-0.289-0.326-0.289c-0.141,0-0.286,0.048-0.391,0.143L28.792,34.086z M29.426,34.6c-0.277,0-0.457,0.076-0.457,0.253c0,0.166,0.123,0.227,0.289,0.227c0.253,0,0.382-0.182,0.388-0.396V34.6H29.426z"/>
            <path  d="M30.284,33.109h0.219v2.123h-0.219V33.109z"/>
            <path  d="M32.11,34.993c-0.154,0.199-0.339,0.272-0.584,0.272c-0.412,0-0.665-0.309-0.665-0.69c0-0.407,0.286-0.691,0.674-0.691c0.371,0,0.623,0.252,0.623,0.688v0.07h-1.061c0.017,0.227,0.19,0.421,0.429,0.421c0.188,0,0.314-0.067,0.419-0.199L32.11,34.993z M31.923,34.457c-0.009-0.222-0.154-0.371-0.396-0.371c-0.241,0-0.401,0.149-0.429,0.371H31.923z"/>
            <path  d="M33.315,33.244h0.606c0.328,0,0.66,0.124,0.66,0.488c0,0.23-0.135,0.385-0.349,0.449v0.006c0.256,0.022,0.449,0.228,0.449,0.488c0,0.438-0.407,0.556-0.774,0.556h-0.593V33.244z M33.552,34.086h0.325c0.222,0,0.452-0.048,0.452-0.323c0-0.244-0.214-0.301-0.427-0.301h-0.351V34.086z M33.552,35.012h0.398c0.23,0,0.479-0.092,0.479-0.345c0-0.278-0.235-0.362-0.474-0.362h-0.404V35.012z"/>
            <path  d="M35.082,33.244h0.298l1.15,1.651h0.006v-1.651h0.236v1.988h-0.298l-1.151-1.651h-0.006v1.651h-0.235V33.244z"/>
            <path  d="M38.656,33.654c-0.118-0.16-0.306-0.242-0.497-0.242c-0.443,0-0.758,0.39-0.758,0.826c0,0.46,0.312,0.825,0.758,0.825c0.241,0,0.436-0.098,0.576-0.278l0.177,0.149c-0.177,0.238-0.436,0.348-0.753,0.348c-0.57,0-1.011-0.44-1.011-1.044c0-0.584,0.421-1.045,1.011-1.045c0.27,0,0.533,0.093,0.702,0.312L38.656,33.654z"/>
        </g>
        <g >
            <path  d="M12.342,9.852h0.592l0.841,1.373h0.005V9.852h0.437v1.977h-0.57l-0.862-1.407h-0.006v1.407h-0.436V9.852z"/>
            <path  d="M15.916,10.366c-0.087-0.104-0.213-0.162-0.374-0.162c-0.33,0-0.573,0.268-0.573,0.637c0,0.368,0.243,0.637,0.559,0.637c0.176,0,0.318-0.078,0.408-0.213l0.363,0.271c-0.165,0.234-0.444,0.343-0.715,0.343c-0.617,0-1.067-0.404-1.067-1.038s0.45-1.039,1.067-1.039c0.22,0,0.499,0.075,0.667,0.29L15.916,10.366z"/>
        </g>
    </g>
</svg>
