<?xml version='1.0' encoding='utf-8'?>
<!DOCTYPE svg>
<!-- Generator: Adobe Illustrator 15.0.0, SVG Export Plug-In . SVG Version: 6.00 Build 0)  -->
<svg xmlns="http://www.w3.org/2000/svg" width="0.749792in" x="0px" version="1.1" y="0px" gorn="0"  height="1.02943in" viewBox="0 0 53.985 74.119" xmlns:xml="http://www.w3.org/XML/1998/namespace" id="Layer_1" enable-background="new 0 0 53.985 74.119" xml:space="preserve">
    <desc >
        <referenceFile >EC schematic.svg</referenceFile>
    </desc>
    <g gorn="0.1"  id="pins">
        <g gorn="0.1.0"  id="RX">
            <path  d="M34.599,8.12c-0.275,0-0.5-0.224-0.5-0.5V0.5c0-0.276,0.225-0.5,0.5-0.5c0.277,0,0.5,0.224,0.5,0.5v7.12C35.099,7.896,34.876,8.12,34.599,8.12z"/>
        </g>
        <g gorn="0.1.1"  id="TX">
            <path  d="M27.149,8.12c-0.275,0-0.5-0.224-0.5-0.5V0.5c0-0.276,0.225-0.5,0.5-0.5c0.277,0,0.5,0.224,0.5,0.5v7.12C27.649,7.896,27.427,8.12,27.149,8.12z"/>
        </g>
        <g gorn="0.1.2"  id="GND">
            <path  d="M19.632,8.12c-0.275,0-0.5-0.224-0.5-0.5V0.5c0-0.276,0.225-0.5,0.5-0.5c0.277,0,0.5,0.224,0.5,0.5v7.12C20.132,7.896,19.909,8.12,19.632,8.12z"/>
        </g>
        <g gorn="0.1.3"  id="RX_1_">
            <path  d="M19.632,65.999c0.275,0,0.5,0.224,0.5,0.5v7.12c0,0.275-0.225,0.5-0.5,0.5c-0.277,0-0.5-0.225-0.5-0.5v-7.12C19.132,66.223,19.354,65.999,19.632,65.999z"/>
        </g>
        <g gorn="0.1.4"  id="TX_1_">
            <path  d="M27.081,65.999c0.275,0,0.5,0.224,0.5,0.5v7.12c0,0.275-0.225,0.5-0.5,0.5c-0.277,0-0.5-0.225-0.5-0.5v-7.12C26.581,66.223,26.804,65.999,27.081,65.999z"/>
        </g>
        <g gorn="0.1.5"  id="GND_1_">
            <path  d="M34.599,65.999c0.275,0,0.5,0.224,0.5,0.5v7.12c0,0.275-0.225,0.5-0.5,0.5c-0.277,0-0.5-0.225-0.5-0.5v-7.12C34.099,66.223,34.321,65.999,34.599,65.999z"/>
        </g>
        <rect width="0.977" x="34.11" y="73.143" fill="none" gorn="0.1.6"  height="0.977" id="connector5pin"/>
        <rect width="0.977" x="26.581" y="73.143" fill="none" gorn="0.1.7"  height="0.977" id="connector4pin"/>
        <rect width="0.977" x="19.155" y="73.143" fill="none" gorn="0.1.8"  height="0.977" id="connector3pin"/>
        <rect width="0.977" x="19.144" fill="none" gorn="0.1.9"  height="0.977" id="connector0pin"/>
        <rect width="0.977" x="26.673" fill="none" gorn="0.1.10"  height="0.977" id="connector1pin"/>
        <rect width="0.977" x="34.099" fill="none" gorn="0.1.11"  height="0.977" id="connector2pin"/>
    </g>
    <g >
        <rect width="52.985" x="0.5" y="7.891" fill="#FFFFFF"  height="58.522"/>
        <path  d="M53.985,66.913H0V7.391h53.985V66.913z M1,65.913h51.985V8.391H1V65.913z"/>
    </g>
    <g >
        <g >
            <path  d="M33.165,63.633c-0.251,0.132-0.528,0.186-0.813,0.186c-0.603,0-1.042-0.396-1.042-1.016c0-0.619,0.439-1.016,1.042-1.016c0.307,0,0.576,0.068,0.771,0.249l-0.302,0.327c-0.113-0.12-0.253-0.183-0.47-0.183c-0.362,0-0.6,0.261-0.6,0.622c0,0.359,0.237,0.623,0.6,0.623c0.188,0,0.322-0.052,0.401-0.096v-0.314h-0.347v-0.394h0.758V63.633z"/>
            <path  d="M33.538,61.836h0.578l0.822,1.344h0.006v-1.344h0.426v1.934h-0.557l-0.844-1.376h-0.006v1.376h-0.426V61.836z"/>
            <path  d="M35.763,61.836h0.639c0.622,0,1.146,0.266,1.146,0.972c0,0.626-0.511,0.962-1.088,0.962h-0.696V61.836z M36.188,63.376h0.222c0.396,0,0.694-0.149,0.694-0.59c0-0.379-0.303-0.557-0.664-0.557h-0.252V63.376z"/>
        </g>
    </g>
    <g >
        <g >
            <path  d="M24.182,61.836h0.718c0.401,0,0.735,0.129,0.735,0.588c0,0.453-0.31,0.592-0.717,0.592h-0.311v0.754h-0.426V61.836z M24.607,62.655h0.285c0.149,0,0.3-0.052,0.3-0.231c0-0.2-0.202-0.227-0.366-0.227h-0.219V62.655z"/>
            <path  d="M25.902,61.836h0.747c0.396,0,0.729,0.137,0.729,0.588c0,0.271-0.145,0.48-0.419,0.528l0.492,0.817h-0.51l-0.404-0.771h-0.21v0.771h-0.426V61.836z M26.328,62.637h0.25c0.157,0,0.358-0.006,0.358-0.217c0-0.193-0.175-0.223-0.33-0.223h-0.278V62.637z"/>
            <path  d="M27.671,61.836h0.72c0.339,0,0.708,0.072,0.708,0.491c0,0.216-0.133,0.364-0.333,0.427v0.005c0.255,0.032,0.424,0.222,0.424,0.473c0,0.405-0.383,0.538-0.728,0.538h-0.791V61.836z M28.098,62.609h0.308c0.131,0,0.269-0.055,0.269-0.211c0-0.16-0.154-0.201-0.287-0.201h-0.289V62.609z M28.098,63.408h0.382c0.134,0,0.283-0.057,0.283-0.225c0-0.184-0.204-0.214-0.344-0.214h-0.321V63.408z"/>
        </g>
    </g>
    <g >
        <g >
            <path  d="M16.576,61.836h0.486l0.479,1.269h0.005l0.487-1.269h0.455L17.69,63.77h-0.343L16.576,61.836z"/>
            <path  d="M19.954,62.338c-0.085-0.1-0.208-0.157-0.366-0.157c-0.322,0-0.56,0.261-0.56,0.622c0,0.359,0.237,0.623,0.546,0.623c0.172,0,0.312-0.077,0.398-0.208l0.355,0.266c-0.161,0.229-0.435,0.335-0.7,0.335c-0.603,0-1.041-0.396-1.041-1.016c0-0.619,0.438-1.016,1.041-1.016c0.217,0,0.49,0.074,0.654,0.283L19.954,62.338z"/>
            <path  d="M21.824,62.338c-0.085-0.1-0.208-0.157-0.367-0.157c-0.322,0-0.559,0.261-0.559,0.622c0,0.359,0.236,0.623,0.547,0.623c0.171,0,0.311-0.077,0.397-0.208l0.355,0.266c-0.161,0.229-0.435,0.335-0.699,0.335c-0.604,0-1.044-0.396-1.044-1.016c0-0.619,0.44-1.016,1.044-1.016c0.216,0,0.488,0.074,0.652,0.283L21.824,62.338z"/>
        </g>
    </g>
    <g >
        <path  d="M18.242,12.143c-0.251,0.131-0.526,0.186-0.811,0.186c-0.604,0-1.044-0.396-1.044-1.016c0-0.621,0.44-1.017,1.044-1.017c0.306,0,0.577,0.068,0.771,0.249L17.9,10.873c-0.113-0.121-0.253-0.185-0.469-0.185c-0.363,0-0.602,0.264-0.602,0.624s0.238,0.622,0.602,0.622c0.186,0,0.322-0.052,0.401-0.096v-0.313h-0.347v-0.394h0.756V12.143z"/>
        <path  d="M18.616,10.345h0.578l0.822,1.345h0.005v-1.345h0.427v1.934h-0.558l-0.843-1.376h-0.005v1.376h-0.427V10.345z"/>
        <path  d="M20.842,10.345h0.639c0.621,0,1.144,0.265,1.144,0.973c0,0.625-0.511,0.961-1.087,0.961h-0.695V10.345z M21.268,11.885h0.221c0.396,0,0.692-0.149,0.692-0.59c0-0.379-0.302-0.557-0.663-0.557h-0.25V11.885z"/>
    </g>
    <g >
        <g >
            <path  d="M26.137,10.723h-0.551v-0.378h1.529v0.378h-0.552v1.556h-0.427V10.723z"/>
            <path  d="M27.811,11.269l-0.639-0.924h0.535l0.413,0.678l0.396-0.678h0.516l-0.625,0.915l0.699,1.019H28.57L28.098,11.5l-0.459,0.778h-0.504L27.811,11.269z"/>
        </g>
    </g>
    <g >
        <g >
            <path  d="M33.273,10.345h0.748c0.396,0,0.729,0.137,0.729,0.588c0,0.27-0.145,0.48-0.418,0.53l0.492,0.815h-0.511l-0.405-0.772H33.7v0.772h-0.427V10.345z M33.7,11.145h0.25c0.156,0,0.357-0.004,0.357-0.214c0-0.195-0.174-0.225-0.33-0.225H33.7V11.145z"/>
            <path  d="M35.522,11.269l-0.639-0.924h0.535l0.412,0.678l0.396-0.678h0.517l-0.626,0.915l0.698,1.019h-0.535L35.81,11.5l-0.459,0.778h-0.505L35.522,11.269z"/>
        </g>
    </g>
    <g >
        <g >
            <path  d="M4.416,36.518H3.809l2.228-5.121h0.507l2.228,5.121H8.163l-0.564-1.345H4.98L4.416,36.518z M5.176,34.695h2.221l-1.106-2.69L5.176,34.695z"/>
            <path  d="M11.046,33.566h-0.977v1.997c0,0.506,0.195,0.607,0.492,0.607c0.166,0,0.348-0.051,0.492-0.13l0.021,0.441c-0.174,0.08-0.405,0.123-0.644,0.123c-0.362,0-0.839-0.159-0.839-0.904v-2.134H8.876v-0.434h0.717v-0.955h0.477v0.955h0.977V33.566z"/>
            <path  d="M12.285,36.518h-0.478V31.05h0.478V36.518z"/>
            <path  d="M15.606,34.442v-0.087c0-0.586-0.282-0.875-0.868-0.875c-0.397,0-0.745,0.137-1.034,0.397l-0.289-0.34c0.311-0.318,0.795-0.492,1.432-0.492c0.666,0,1.237,0.376,1.237,1.201v1.512c0,0.26,0.028,0.579,0.058,0.759h-0.463c-0.029-0.167-0.044-0.369-0.044-0.55h-0.014c-0.275,0.449-0.651,0.637-1.193,0.637c-0.601,0-1.165-0.333-1.165-0.991c0-1.099,1.295-1.171,2.104-1.171H15.606z M15.36,34.833c-0.484,0-1.577,0.036-1.577,0.716c0,0.449,0.413,0.622,0.796,0.622c0.694,0,1.027-0.492,1.027-1.092v-0.246H15.36z"/>
            <path  d="M18.987,33.936c-0.145-0.275-0.384-0.456-0.73-0.456c-0.333,0-0.702,0.145-0.702,0.506c0,0.318,0.225,0.434,0.666,0.535l0.484,0.116c0.47,0.108,0.824,0.448,0.824,0.926c0,0.738-0.658,1.042-1.316,1.042c-0.514,0-0.983-0.181-1.302-0.658l0.412-0.282c0.195,0.304,0.492,0.506,0.89,0.506c0.391,0,0.796-0.173,0.796-0.564c0-0.34-0.289-0.456-0.644-0.542l-0.463-0.109c-0.231-0.058-0.868-0.246-0.868-0.889c0-0.702,0.615-1.02,1.251-1.02c0.471,0,0.912,0.167,1.129,0.607L18.987,33.936z"/>
            <path  d="M22.809,32.648c-0.181-0.231-0.542-0.34-0.817-0.34c-0.318,0-0.759,0.145-0.759,0.528c0,0.933,2.357,0.333,2.357,2.126c0,1.143-0.919,1.686-1.975,1.686c-0.658,0-1.236-0.195-1.722-0.644l0.804-0.882c0.231,0.304,0.607,0.485,0.983,0.485c0.369,0,0.781-0.174,0.781-0.535c0-0.94-2.401-0.434-2.401-2.141c0-1.092,0.947-1.664,1.952-1.664c0.579,0,1.136,0.152,1.57,0.535L22.809,32.648z"/>
            <path  d="M26.674,34.138c-0.107-0.152-0.311-0.268-0.535-0.268c-0.542,0-0.867,0.361-0.867,0.89c0,0.528,0.325,0.889,0.867,0.889c0.239,0,0.413-0.123,0.535-0.268l0.717,0.752c-0.34,0.347-0.839,0.47-1.252,0.47c-1.084,0-1.952-0.724-1.952-1.844c0-1.121,0.868-1.845,1.952-1.845c0.413,0,0.912,0.123,1.252,0.47L26.674,34.138z"/>
            <path  d="M28.342,31.267c0.347,0,0.629,0.282,0.629,0.629s-0.282,0.629-0.629,0.629c-0.348,0-0.63-0.282-0.63-0.629S27.994,31.267,28.342,31.267z M27.799,33.002h1.085v3.515h-1.085V33.002z"/>
            <path  d="M32.994,35.91c-0.348,0.441-0.919,0.694-1.483,0.694c-1.085,0-1.952-0.724-1.952-1.844c0-1.121,0.867-1.845,1.952-1.845c1.013,0,1.649,0.724,1.649,1.845v0.34h-2.518c0.087,0.412,0.398,0.68,0.818,0.68c0.354,0,0.592-0.181,0.773-0.427L32.994,35.91z M32.075,34.362c0.007-0.362-0.274-0.666-0.665-0.666c-0.479,0-0.738,0.326-0.768,0.666H32.075z"/>
            <path  d="M33.822,33.002h1.041v0.478h0.015c0.145-0.275,0.499-0.564,1.026-0.564c1.1,0,1.303,0.724,1.303,1.664v1.938h-1.086v-1.721c0-0.405-0.006-0.926-0.563-0.926c-0.563,0-0.651,0.441-0.651,0.896v1.75h-1.084V33.002z"/>
            <path  d="M40.371,33.871h-0.955v1.171c0,0.376,0.044,0.651,0.514,0.651c0.115,0,0.348-0.014,0.441-0.101v0.904c-0.238,0.086-0.506,0.108-0.76,0.108c-0.723,0-1.279-0.297-1.279-1.063v-1.67h-0.695v-0.868h0.695v-1.042h1.084v1.042h0.955V33.871z"/>
            <path  d="M41.48,31.267c0.348,0,0.629,0.282,0.629,0.629s-0.281,0.629-0.629,0.629s-0.629-0.282-0.629-0.629S41.133,31.267,41.48,31.267z M40.938,33.002h1.086v3.515h-1.086V33.002z"/>
            <path  d="M43.182,33.871h-0.716v-0.868h0.716V32.38c0-0.767,0.195-1.417,1.375-1.417c0.217,0,0.434,0.015,0.636,0.065l-0.051,0.918c-0.122-0.043-0.224-0.072-0.354-0.072c-0.347,0-0.521,0.109-0.521,0.572v0.557h0.803v0.868h-0.803v2.647h-1.085V33.871z"/>
            <path  d="M46.041,31.267c0.348,0,0.629,0.282,0.629,0.629s-0.281,0.629-0.629,0.629c-0.347,0-0.629-0.282-0.629-0.629S45.694,31.267,46.041,31.267z M45.499,33.002h1.085v3.515h-1.085V33.002z"/>
            <path  d="M49.746,34.138c-0.109-0.152-0.312-0.268-0.535-0.268c-0.543,0-0.868,0.361-0.868,0.89c0,0.528,0.325,0.889,0.868,0.889c0.238,0,0.412-0.123,0.535-0.268l0.716,0.752c-0.34,0.347-0.839,0.47-1.251,0.47c-1.086,0-1.953-0.724-1.953-1.844c0-1.121,0.867-1.845,1.953-1.845c0.412,0,0.911,0.123,1.251,0.47L49.746,34.138z"/>
        </g>
        <g >
            <path  d="M7.707,38.91c-0.212-0.287-0.551-0.434-0.894-0.434c-0.798,0-1.364,0.702-1.364,1.484c0,0.828,0.561,1.485,1.364,1.485c0.434,0,0.782-0.177,1.035-0.5l0.318,0.268c-0.318,0.429-0.783,0.626-1.354,0.626c-1.025,0-1.818-0.793-1.818-1.879c0-1.051,0.758-1.879,1.818-1.879c0.484,0,0.959,0.167,1.263,0.561L7.707,38.91z"/>
            <path  d="M9.812,39.324c0.728,0,1.263,0.506,1.263,1.243s-0.535,1.242-1.263,1.242s-1.263-0.505-1.263-1.242S9.084,39.324,9.812,39.324z M9.812,41.446c0.51,0,0.838-0.384,0.838-0.879s-0.328-0.879-0.838-0.879c-0.511,0-0.839,0.384-0.839,0.879S9.301,41.446,9.812,41.446z"/>
            <path  d="M11.684,39.946c0-0.218-0.021-0.404-0.021-0.561h0.374c0,0.126,0.01,0.257,0.01,0.389h0.011c0.105-0.232,0.398-0.45,0.788-0.45c0.621,0,0.898,0.395,0.898,0.965v1.46h-0.394V40.33c0-0.395-0.172-0.642-0.541-0.642c-0.51,0-0.732,0.368-0.732,0.909v1.151h-0.394V39.946z"/>
            <path  d="M16.455,41.33h-0.011c-0.146,0.268-0.484,0.479-0.908,0.479c-0.662,0-1.183-0.535-1.183-1.242c0-0.718,0.5-1.243,1.243-1.243c0.343,0,0.631,0.152,0.848,0.404h0.011v-1.798h0.394v3.818h-0.394V41.33z M15.616,39.688c-0.51,0-0.838,0.384-0.838,0.879s0.328,0.879,0.838,0.879c0.511,0,0.839-0.384,0.839-0.879S16.127,39.688,15.616,39.688z"/>
            <path  d="M19.636,41.188c0,0.217,0.02,0.404,0.02,0.561h-0.373c0-0.126-0.011-0.258-0.011-0.389h-0.01c-0.106,0.232-0.399,0.449-0.788,0.449c-0.621,0-0.899-0.394-0.899-0.965v-1.459h0.395v1.419c0,0.394,0.172,0.642,0.54,0.642c0.511,0,0.732-0.369,0.732-0.909v-1.151h0.395V41.188z"/>
            <path  d="M22.063,39.977c-0.167-0.202-0.358-0.288-0.597-0.288c-0.53,0-0.798,0.394-0.798,0.879c0,0.484,0.318,0.879,0.798,0.879c0.258,0,0.455-0.091,0.602-0.293l0.293,0.277c-0.228,0.263-0.551,0.379-0.895,0.379c-0.731,0-1.222-0.515-1.222-1.242c0-0.718,0.495-1.243,1.222-1.243c0.349,0,0.672,0.116,0.909,0.374L22.063,39.977z"/>
            <path  d="M24.107,39.719H23.41V40.9c0,0.303,0.005,0.546,0.354,0.546c0.116,0,0.243-0.025,0.349-0.081l0.016,0.358c-0.137,0.061-0.313,0.086-0.46,0.086c-0.561,0-0.651-0.303-0.651-0.793v-1.298h-0.516v-0.333h0.516v-0.672h0.394v0.672h0.697V39.719z"/>
            <path  d="M24.823,38.173c0.162,0,0.288,0.132,0.288,0.288c0,0.167-0.121,0.288-0.288,0.288c-0.166,0-0.287-0.121-0.287-0.288C24.536,38.305,24.662,38.173,24.823,38.173z M24.627,39.386h0.394v2.363h-0.394V39.386z"/>
            <path  d="M26.879,41.749h-0.435l-0.965-2.363h0.46l0.737,1.854h0.011l0.702-1.854h0.424L26.879,41.749z"/>
            <path  d="M28.469,38.173c0.161,0,0.287,0.132,0.287,0.288c0,0.167-0.121,0.288-0.287,0.288c-0.167,0-0.288-0.121-0.288-0.288C28.181,38.305,28.307,38.173,28.469,38.173z M28.271,39.386h0.394v2.363h-0.394V39.386z"/>
            <path  d="M30.741,39.719h-0.697V40.9c0,0.303,0.005,0.546,0.354,0.546c0.116,0,0.242-0.025,0.349-0.081l0.015,0.358c-0.136,0.061-0.313,0.086-0.459,0.086c-0.561,0-0.651-0.303-0.651-0.793v-1.298h-0.516v-0.333h0.516v-0.672h0.394v0.672h0.697V39.719z"/>
            <path  d="M32.093,42.289c-0.156,0.399-0.313,0.672-0.788,0.672c-0.11,0-0.247-0.01-0.354-0.061l0.051-0.344c0.081,0.031,0.167,0.041,0.278,0.041c0.257,0,0.354-0.156,0.439-0.389l0.161-0.444l-0.979-2.379h0.459l0.732,1.854h0.011l0.702-1.854h0.429L32.093,42.289z"/>
            <path  d="M37.637,38.91c-0.212-0.287-0.55-0.434-0.894-0.434c-0.798,0-1.363,0.702-1.363,1.484c0,0.828,0.561,1.485,1.363,1.485c0.435,0,0.783-0.177,1.035-0.5l0.318,0.268c-0.318,0.429-0.783,0.626-1.354,0.626c-1.025,0-1.818-0.793-1.818-1.879c0-1.051,0.758-1.879,1.818-1.879c0.484,0,0.96,0.167,1.263,0.561L37.637,38.91z"/>
            <path  d="M38.848,38.173c0.161,0,0.287,0.132,0.287,0.288c0,0.167-0.121,0.288-0.287,0.288c-0.167,0-0.288-0.121-0.288-0.288C38.56,38.305,38.686,38.173,38.848,38.173z M38.65,39.386h0.394v2.363H38.65V39.386z"/>
            <path  d="M39.827,39.946c0-0.218-0.021-0.404-0.021-0.561h0.374c0,0.126,0.01,0.257,0.01,0.389h0.01c0.106-0.232,0.399-0.45,0.788-0.45c0.051,0,0.106,0.006,0.162,0.025l-0.025,0.399c-0.065-0.021-0.142-0.03-0.212-0.03c-0.48,0-0.692,0.338-0.692,0.879v1.151h-0.394V39.946z"/>
            <path  d="M43.194,39.977c-0.167-0.202-0.358-0.288-0.596-0.288c-0.53,0-0.798,0.394-0.798,0.879c0,0.484,0.317,0.879,0.798,0.879c0.257,0,0.454-0.091,0.601-0.293l0.293,0.277c-0.228,0.263-0.551,0.379-0.894,0.379c-0.732,0-1.223-0.515-1.223-1.242c0-0.718,0.495-1.243,1.223-1.243c0.349,0,0.672,0.116,0.909,0.374L43.194,39.977z"/>
            <path  d="M46.007,41.188c0,0.217,0.021,0.404,0.021,0.561h-0.374c0-0.126-0.011-0.258-0.011-0.389h-0.01c-0.105,0.232-0.398,0.449-0.788,0.449c-0.621,0-0.898-0.394-0.898-0.965v-1.459h0.394v1.419c0,0.394,0.172,0.642,0.541,0.642c0.51,0,0.731-0.369,0.731-0.909v-1.151h0.395V41.188z"/>
            <path  d="M46.985,38.173c0.161,0,0.287,0.132,0.287,0.288c0,0.167-0.121,0.288-0.287,0.288c-0.167,0-0.288-0.121-0.288-0.288C46.697,38.305,46.823,38.173,46.985,38.173z M46.788,39.386h0.394v2.363h-0.394V39.386z"/>
            <path  d="M49.257,39.719H48.56V40.9c0,0.303,0.005,0.546,0.354,0.546c0.116,0,0.242-0.025,0.349-0.081l0.015,0.358c-0.136,0.061-0.313,0.086-0.459,0.086c-0.561,0-0.651-0.303-0.651-0.793v-1.298H47.65v-0.333h0.516v-0.672h0.394v0.672h0.697V39.719z"/>
        </g>
    </g>
</svg>
