<?xml version="1.0" encoding="utf-8"?>
<!-- Generator: Adobe Illustrator 16.0.0, SVG Export Plug-In . SVG Version: 6.00 Build 0)  -->
<svg version="1.2" baseProfile="tiny" id="Layer_1" xmlns:svg="http://www.w3.org/2000/svg"
	 xmlns="http://www.w3.org/2000/svg" xmlns:xlink="http://www.w3.org/1999/xlink" x="0px" y="0px" width="65.84px"
	 height="44.316px" viewBox="0 0 65.84 44.316" xml:space="preserve">
<g id="schematic">
	
	<rect x="14.934" y="0.609" fill="#FFFFFF" stroke="#000000" stroke-width="0.9" stroke-linecap="round" stroke-linejoin="round" width="36" height="43.2"/>
	
		<text transform="matrix(1 0 0 1 16.9639 8.676)" fill="#787878" font-family="'DroidSans'" font-size="3.5">MOSI</text>
	

		<text transform="matrix(1 0 0 1 16.9639 23.0764)" fill="#787878" font-family="'DroidSans'" font-size="3.5">RESET</text>


		<text transform="matrix(1 0 0 1 16.9639 30.2756)" fill="#787878" font-family="'DroidSans'" font-size="3.5">SCK</text>

		<text transform="matrix(1 0 0 1 16.9639 37.4749)" fill="#787878" font-family="'DroidSans'" font-size="3.5">MISO</text>

		<text transform="matrix(1 0 0 1 44.729 8.676)" fill="#787878" font-family="'DroidSans'" font-size="3.5">+5</text>

		<text transform="matrix(1 0 0 1 42.3638 15.8752)" fill="#787878" font-family="'DroidSans'" font-size="3.5">TXD</text>

		<text transform="matrix(1 0 0 1 16.9634 15.8752)" fill="#787878" font-family="'DroidSans'" font-size="3.5">GND</text>

		<text transform="matrix(1 0 0 1 42.0513 23.0764)" fill="#787878" font-family="'DroidSans'" font-size="3.5">RXD</text>

		<text transform="matrix(1 0 0 1 41.2388 30.2756)" fill="#787878" font-family="'DroidSans'" font-size="3.5">GND</text>

		<text transform="matrix(1 0 0 1 41.2388 37.4749)" fill="#787878" font-family="'DroidSans'" font-size="3.5">GND</text>

		<text transform="matrix(1 0 0 1 9.9219 6.6721)" fill="#8C8C8C" font-family="'DroidSans'" font-size="2.5">1</text>

		<text transform="matrix(1 0 0 1 54.9761 6.6721)" fill="#8C8C8C" font-family="'DroidSans'" font-size="2.5">2</text>

		<text transform="matrix(1 0 0 1 9.9219 13.8713)" fill="#8C8C8C" font-family="'DroidSans'" font-size="2.5">3</text>

		<text transform="matrix(1 0 0 1 54.9761 13.8713)" fill="#8C8C8C" font-family="'DroidSans'" font-size="2.5">4</text>

		<text transform="matrix(1 0 0 1 9.9219 21.0725)" fill="#8C8C8C" font-family="'DroidSans'" font-size="2.5">5</text>

		<text transform="matrix(1 0 0 1 54.9761 21.0725)" fill="#8C8C8C" font-family="'DroidSans'" font-size="2.5">6</text>

		<text transform="matrix(1 0 0 1 9.9219 28.2717)" fill="#8C8C8C" font-family="'DroidSans'" font-size="2.5">7</text>

		<text transform="matrix(1 0 0 1 54.9761 28.2717)" fill="#8C8C8C" font-family="'DroidSans'" font-size="2.5">8</text>

		<text transform="matrix(1 0 0 1 9.9219 35.4709)" fill="#8C8C8C" font-family="'DroidSans'" font-size="2.5">9</text>

		<text transform="matrix(1 0 0 1 54.9751 35.4709)" fill="#8C8C8C" font-family="'DroidSans'" font-size="2.5">10</text>

	
	<line id="connector9pin" fill="none" stroke="#787878" stroke-width="0.75" stroke-linecap="round" x1="65.333" y1="36.609" x2="50.932" y2="36.609"/>
	<rect id="connector9terminal" x="64.452" y="36.299" fill="none" width="1.234" height="0.641"/>
	<rect id="connector8terminal" x="0.139" y="36.283" fill="none" width="1.328" height="0.656"/>
	
		<line id="connector8pin" fill="none" stroke="#787878" stroke-width="0.75" stroke-linecap="round" x1="0.533" y1="36.609" x2="14.933" y2="36.609"/>
	
		<line id="connector7pin" fill="none" stroke="#787878" stroke-width="0.75" stroke-linecap="round" x1="65.333" y1="29.409" x2="50.932" y2="29.409"/>
	<rect id="connector7terminal" x="64.639" y="29.018" fill="none" width="1.047" height="0.781"/>
	<rect id="connector6terminal" x="0.139" y="29.08" fill="none" width="1.063" height="0.656"/>
	
	<line id="connector6pin" fill="none" stroke="#787878" stroke-width="0.75" stroke-linecap="round" x1="0.533" y1="29.409" x2="14.933" y2="29.409"/>
	
	<line id="connector5pin" fill="none" stroke="#787878" stroke-width="0.75" stroke-linecap="round" x1="65.333" y1="22.208" x2="50.932" y2="22.208"/>
	<rect id="connector5terminal" x="64.639" y="21.862" fill="none" width="1.047" height="0.672"/>
	<rect id="connector4terminal" x="0.139" y="21.848" fill="none" width="1.063" height="0.719"/>
	
	<line id="connector4pin" fill="none" stroke="#787878" stroke-width="0.75" stroke-linecap="round" x1="0.533" y1="22.208" x2="14.933" y2="22.208"/>
	
	<line id="connector3pin" fill="none" stroke="#787878" stroke-width="0.75" stroke-linecap="round" x1="65.333" y1="15.009" x2="50.932" y2="15.009"/>
	<rect id="connector3terminal" x="64.639" y="14.643" fill="none" width="1.047" height="0.719"/>
	<rect id="connector2terminal" x="0.139" y="14.658" fill="none" width="1.063" height="0.656"/>
	
	<line id="connector2pin" fill="none" stroke="#787878" stroke-width="0.75" stroke-linecap="round" x1="0.533" y1="15.009" x2="14.933" y2="15.009"/>
	
	<line id="connector1pin" fill="none" stroke="#787878" stroke-width="0.75" stroke-linecap="round" x1="65.333" y1="7.809" x2="50.932" y2="7.809"/>
	<polygon id="connector1terminal" fill="none" points="64.639,8.158 65.686,8.158 65.67,7.455 64.639,7.455 	"/>
	
	<line id="connector0pin" fill="none" stroke="#787878" stroke-width="0.75" stroke-linecap="round" x1="0.533" y1="7.809" x2="14.933" y2="7.809"/>
	<rect id="connector0terminal" x="0.139" y="7.44" fill="none" width="1.063" height="0.734"/>


<text transform="matrix(1 0 0 1 29.2456 16.0549)" font-family="'DroidSans'" font-size="4.25">A</text>
<text transform="matrix(1 0 0 1 31.7026 16.0549)" font-family="'DroidSans'" font-size="4.25">V</text>
<text transform="matrix(1 0 0 1 34.1157 16.0549)" font-family="'DroidSans'" font-size="4.25">R</text>
<text transform="matrix(1 0 0 1 29.8867 21.6487)" font-family="'DroidSans'" font-size="4.25">SPI</text>
<text transform="matrix(1 0 0 1 27.4126 27.2444)" font-family="'DroidSans'" font-size="4.25">PROG</text>
</g>
</svg>
