<?xml version="1.0" encoding="utf-8"?>
<!-- Generator: Adobe Illustrator 16.0.0, SVG Export Plug-In . SVG Version: 6.00 Build 0)  -->
<!DOCTYPE svg PUBLIC "-//W3C//DTD SVG 1.1//EN" "http://www.w3.org/Graphics/SVG/1.1/DTD/svg11.dtd">
<svg version="1.1" id="Layer_1" xmlns:xml="http://www.w3.org/XML/1998/namespace"
	 xmlns="http://www.w3.org/2000/svg" xmlns:xlink="http://www.w3.org/1999/xlink" x="0px" y="0px" width="86.287px"
	 height="208.8px" viewBox="0 0 86.287 208.8" enable-background="new 0 0 86.287 208.8" xml:space="preserve">
<desc>
	<referenceFile>io-shield-schematic.svg</referenceFile>
</desc>
<g>
	<g>
		
			<line id="connector27terminal" fill="none" stroke="#787878" stroke-width="0.5" stroke-linecap="round" stroke-linejoin="round" x1="85.063" y1="28.827" x2="86.058" y2="28.816"/>
		
			<line id="connector25terminal" fill="none" stroke="#787878" stroke-width="0.5" stroke-linecap="round" stroke-linejoin="round" x1="85.063" y1="43.227" x2="86.058" y2="43.217"/>
		
			<line id="connector24terminal" fill="none" stroke="#787878" stroke-width="0.5" stroke-linecap="round" stroke-linejoin="round" x1="85.063" y1="50.422" x2="86.058" y2="50.412"/>
		
			<line id="connector23terminal" fill="none" stroke="#787878" stroke-width="0.5" stroke-linecap="round" stroke-linejoin="round" x1="85.063" y1="57.615" x2="86.058" y2="57.604"/>
		
			<line id="connector22terminal" fill="none" stroke="#787878" stroke-width="0.5" stroke-linecap="round" stroke-linejoin="round" x1="85.063" y1="64.809" x2="86.058" y2="64.799"/>
		
			<line id="connector21terminal" fill="none" stroke="#787878" stroke-width="0.5" stroke-linecap="round" stroke-linejoin="round" x1="85.063" y1="72.003" x2="86.058" y2="71.994"/>
		
			<line id="connector20terminal" fill="none" stroke="#787878" stroke-width="0.5" stroke-linecap="round" stroke-linejoin="round" x1="85.063" y1="79.198" x2="86.058" y2="79.187"/>
		
			<line id="connector19terminal" fill="none" stroke="#787878" stroke-width="0.5" stroke-linecap="round" stroke-linejoin="round" x1="85.063" y1="86.391" x2="86.058" y2="86.381"/>
		
			<line id="connector18terminal" fill="none" stroke="#787878" stroke-width="0.5" stroke-linecap="round" stroke-linejoin="round" x1="85.063" y1="93.585" x2="86.058" y2="93.576"/>
		
			<line id="connector17terminal" fill="none" stroke="#787878" stroke-width="0.5" stroke-linecap="round" stroke-linejoin="round" x1="85.063" y1="100.78" x2="86.058" y2="100.769"/>
		
			<line id="connector16terminal" fill="none" stroke="#787878" stroke-width="0.5" stroke-linecap="round" stroke-linejoin="round" x1="85.063" y1="107.974" x2="86.058" y2="107.964"/>
		
			<line id="connector15terminal" fill="none" stroke="#787878" stroke-width="0.5" stroke-linecap="round" stroke-linejoin="round" x1="85.063" y1="115.167" x2="86.058" y2="115.158"/>
		
			<line id="connector14terminal" fill="none" stroke="#787878" stroke-width="0.5" stroke-linecap="round" stroke-linejoin="round" x1="85.063" y1="122.362" x2="86.058" y2="122.351"/>
		
			<line id="connector13terminal" fill="none" stroke="#787878" stroke-width="0.5" stroke-linecap="round" stroke-linejoin="round" x1="85.063" y1="129.544" x2="86.058" y2="129.544"/>
		
			<line id="connector12terminal" fill="none" stroke="#787878" stroke-width="0.5" stroke-linecap="round" stroke-linejoin="round" x1="85.063" y1="136.75" x2="86.058" y2="136.75"/>
		<g id="connector0terminal">
			<path fill="none" d="M0.681,29.054h-0.992c-0.138,0-0.25-0.112-0.25-0.25s0.112-0.25,0.25-0.25h0.992
				c0.138,0,0.25,0.112,0.25,0.25S0.819,29.054,0.681,29.054z"/>
		</g>
		<g id="connector6terminal">
			<path fill="none" d="M0.682,43.455H-0.31c-0.138,0-0.25-0.112-0.25-0.25s0.112-0.25,0.25-0.25h0.992
				c0.138,0,0.25,0.112,0.25,0.25S0.82,43.455,0.682,43.455z"/>
		</g>
		<g id="connector7terminal">
			<path fill="none" d="M0.682,50.65H-0.31c-0.138,0-0.25-0.112-0.25-0.25s0.112-0.25,0.25-0.25h0.992c0.138,0,0.25,0.112,0.25,0.25
				S0.82,50.65,0.682,50.65z"/>
		</g>
		<g id="connector8terminal">
			<path fill="none" d="M0.682,57.843H-0.31c-0.138,0-0.25-0.112-0.25-0.25s0.112-0.25,0.25-0.25h0.992
				c0.138,0,0.25,0.112,0.25,0.25S0.82,57.843,0.682,57.843z"/>
		</g>
		<g id="connector9terminal">
			<path fill="none" d="M0.682,65.038H-0.31c-0.138,0-0.25-0.112-0.25-0.25s0.112-0.25,0.25-0.25h0.992
				c0.138,0,0.25,0.112,0.25,0.25S0.82,65.038,0.682,65.038z"/>
		</g>
		<g id="connector10terminal">
			<path fill="none" d="M0.682,72.232H-0.31c-0.138,0-0.25-0.112-0.25-0.25s0.112-0.25,0.25-0.25h0.992
				c0.138,0,0.25,0.112,0.25,0.25S0.82,72.232,0.682,72.232z"/>
		</g>
		<g id="connector11terminal">
			<path fill="none" d="M0.682,79.426H-0.31c-0.138,0-0.25-0.112-0.25-0.25s0.112-0.25,0.25-0.25h0.992
				c0.138,0,0.25,0.112,0.25,0.25S0.82,79.426,0.682,79.426z"/>
		</g>
		<g id="connector28terminal">
			<path fill="none" d="M0.682,93.857H-0.31c-0.138,0-0.25-0.112-0.25-0.25s0.112-0.25,0.25-0.25h0.992
				c0.138,0,0.25,0.112,0.25,0.25S0.82,93.857,0.682,93.857z"/>
		</g>
		<g id="connector29terminal">
			<path fill="none" d="M0.682,101.051H-0.31c-0.138,0-0.25-0.112-0.25-0.25s0.112-0.25,0.25-0.25h0.992
				c0.138,0,0.25,0.112,0.25,0.25S0.82,101.051,0.682,101.051z"/>
		</g>
		<g id="connector30terminal">
			<path fill="none" d="M0.682,108.245H-0.31c-0.138,0-0.25-0.112-0.25-0.25s0.112-0.25,0.25-0.25h0.992
				c0.138,0,0.25,0.112,0.25,0.25S0.82,108.245,0.682,108.245z"/>
		</g>
		<g id="connector31terminal">
			<path fill="none" d="M0.682,115.438H-0.31c-0.138,0-0.25-0.112-0.25-0.25s0.112-0.25,0.25-0.25h0.992
				c0.138,0,0.25,0.112,0.25,0.25S0.82,115.438,0.682,115.438z"/>
		</g>
		<g id="connector32terminal">
			<path fill="none" d="M0.682,122.631H-0.31c-0.138,0-0.25-0.112-0.25-0.25s0.112-0.25,0.25-0.25h0.992
				c0.138,0,0.25,0.112,0.25,0.25S0.82,122.631,0.682,122.631z"/>
		</g>
		<g id="connector33terminal">
			<path fill="none" d="M0.682,129.827H-0.31c-0.138,0-0.25-0.112-0.25-0.25s0.112-0.25,0.25-0.25h0.992
				c0.138,0,0.25,0.112,0.25,0.25S0.82,129.827,0.682,129.827z"/>
		</g>
		<g id="connector34terminal">
			<path fill="none" d="M0.682,137.02H-0.31c-0.138,0-0.25-0.112-0.25-0.25s0.112-0.25,0.25-0.25h0.992
				c0.138,0,0.25,0.112,0.25,0.25S0.82,137.02,0.682,137.02z"/>
		</g>
		<g id="connector35terminal">
			<path fill="none" d="M0.682,144.213H-0.31c-0.138,0-0.25-0.112-0.25-0.25s0.112-0.25,0.25-0.25h0.992
				c0.138,0,0.25,0.112,0.25,0.25S0.82,144.213,0.682,144.213z"/>
		</g>
		<g id="connector36terminal">
			<path fill="none" d="M0.682,151.409H-0.31c-0.138,0-0.25-0.112-0.25-0.25s0.112-0.25,0.25-0.25h0.992
				c0.138,0,0.25,0.112,0.25,0.25S0.82,151.409,0.682,151.409z"/>
		</g>
		
			<line id="connector2terminal" fill="none" stroke="#787878" stroke-width="0.5" stroke-linecap="round" stroke-linejoin="round" x1="35.938" y1="1.334" x2="35.938" y2="0.343"/>
		
			<line id="connector26terminal" fill="none" stroke="#787878" stroke-width="0.5" stroke-linecap="round" stroke-linejoin="round" x1="43.139" y1="208.343" x2="43.139" y2="207.349"/>
		
			<line id="connector4terminal" fill="none" stroke="#787878" stroke-width="0.5" stroke-linecap="round" stroke-linejoin="round" x1="43.139" y1="208.343" x2="43.139" y2="207.349"/>
		
			<line id="connector1terminal" fill="none" stroke="#787878" stroke-width="0.5" stroke-linecap="round" stroke-linejoin="round" x1="28.761" y1="1.334" x2="28.761" y2="0.343"/>
		
			<line id="connector5terminal" fill="none" stroke="#787878" stroke-width="0.5" stroke-linecap="round" stroke-linejoin="round" x1="50.339" y1="1.334" x2="50.339" y2="0.343"/>
		<g id="connector37terminal">
			<path fill="none" d="M0.682,158.604H-0.31c-0.138,0-0.25-0.112-0.25-0.25s0.112-0.25,0.25-0.25h0.992
				c0.138,0,0.25,0.112,0.25,0.25S0.82,158.604,0.682,158.604z"/>
		</g>
		<g id="connector38terminal">
			<path fill="none" d="M0.682,165.797H-0.31c-0.138,0-0.25-0.112-0.25-0.25s0.112-0.25,0.25-0.25h0.992
				c0.138,0,0.25,0.112,0.25,0.25S0.82,165.797,0.682,165.797z"/>
		</g>
		<g id="connector39terminal">
			<path fill="none" d="M0.682,172.991H-0.31c-0.138,0-0.25-0.112-0.25-0.25s0.112-0.25,0.25-0.25h0.992
				c0.138,0,0.25,0.112,0.25,0.25S0.82,172.991,0.682,172.991z"/>
		</g>
		
			<line id="connector40terminal" fill="none" stroke="#787878" stroke-width="0.5" stroke-linecap="round" stroke-linejoin="round" x1="85.063" y1="151.22" x2="86.058" y2="151.226"/>
		
			<line id="connector41terminal" fill="none" stroke="#787878" stroke-width="0.5" stroke-linecap="round" stroke-linejoin="round" x1="85.063" y1="158.414" x2="86.058" y2="158.403"/>
		
			<line id="connector42terminal" fill="none" stroke="#787878" stroke-width="0.5" stroke-linecap="round" stroke-linejoin="round" x1="85.063" y1="165.607" x2="86.058" y2="165.597"/>
		
			<line id="connector43terminal" fill="none" stroke="#787878" stroke-width="0.5" stroke-linecap="round" stroke-linejoin="round" x1="85.063" y1="172.802" x2="86.058" y2="172.792"/>
	</g>
	
		<rect x="14.332" y="14.388" fill="#FFFFFF" fill-opacity="0" stroke="#231F20" stroke-width="0.8725" stroke-miterlimit="10" width="57.601" height="179.992"/>
	
		<line id="connector3pin" fill="none" stroke="#787878" stroke-width="0.9747" stroke-linecap="round" stroke-linejoin="round" x1="43.139" y1="208.328" x2="43.139" y2="194.38"/>
	<g>
		
			<line id="connector27pin" fill="none" stroke="#787878" stroke-width="0.7" stroke-linecap="round" stroke-linejoin="round" x1="71.794" y1="28.811" x2="85.808" y2="28.801"/>
		
			<line id="connector25pin" fill="none" stroke="#787878" stroke-width="0.7" stroke-linecap="round" stroke-linejoin="round" x1="71.794" y1="43.211" x2="85.808" y2="43.201"/>
		
			<line id="connector24pin" fill="none" stroke="#787878" stroke-width="0.7" stroke-linecap="round" stroke-linejoin="round" x1="71.794" y1="50.406" x2="85.808" y2="50.396"/>
		
			<line id="connector23pin" fill="none" stroke="#787878" stroke-width="0.7" stroke-linecap="round" stroke-linejoin="round" x1="71.794" y1="57.599" x2="85.808" y2="57.589"/>
		
			<line id="connector22pin" fill="none" stroke="#787878" stroke-width="0.7" stroke-linecap="round" stroke-linejoin="round" x1="71.794" y1="64.793" x2="85.808" y2="64.783"/>
		
			<line id="connector21pin" fill="none" stroke="#787878" stroke-width="0.7" stroke-linecap="round" stroke-linejoin="round" x1="71.794" y1="71.988" x2="85.808" y2="71.978"/>
		
			<line id="connector20pin" fill="none" stroke="#787878" stroke-width="0.7" stroke-linecap="round" stroke-linejoin="round" x1="71.794" y1="79.182" x2="85.808" y2="79.171"/>
		
			<line id="connector19pin" fill="none" stroke="#787878" stroke-width="0.7" stroke-linecap="round" stroke-linejoin="round" x1="71.794" y1="86.375" x2="85.808" y2="86.365"/>
		
			<line id="connector18pin" fill="none" stroke="#787878" stroke-width="0.7" stroke-linecap="round" stroke-linejoin="round" x1="71.794" y1="93.57" x2="85.808" y2="93.56"/>
		
			<line id="connector17pin" fill="none" stroke="#787878" stroke-width="0.7" stroke-linecap="round" stroke-linejoin="round" x1="71.794" y1="100.764" x2="85.808" y2="100.753"/>
		
			<line id="connector16pin" fill="none" stroke="#787878" stroke-width="0.7" stroke-linecap="round" stroke-linejoin="round" x1="71.794" y1="107.958" x2="85.808" y2="107.949"/>
		
			<line id="connector15pin" fill="none" stroke="#787878" stroke-width="0.7" stroke-linecap="round" stroke-linejoin="round" x1="71.794" y1="115.152" x2="85.808" y2="115.142"/>
		
			<line id="connector14pin" fill="none" stroke="#787878" stroke-width="0.7" stroke-linecap="round" stroke-linejoin="round" x1="71.794" y1="122.346" x2="85.808" y2="122.335"/>
		
			<line id="connector13pin" fill="none" stroke="#787878" stroke-width="0.7" stroke-linecap="round" stroke-linejoin="round" x1="71.794" y1="129.53" x2="85.808" y2="129.53"/>
		
			<line id="connector12pin" fill="none" stroke="#787878" stroke-width="0.7" stroke-linecap="round" stroke-linejoin="round" x1="71.794" y1="136.734" x2="85.808" y2="136.733"/>
		
			<line id="connector0pin" fill="none" stroke="#787878" stroke-width="0.7" stroke-linecap="round" stroke-linejoin="round" x1="0.386" y1="28.801" x2="14.332" y2="28.801"/>
		
			<line id="connector6pin" fill="none" stroke="#787878" stroke-width="0.7" stroke-linecap="round" stroke-linejoin="round" x1="0.386" y1="43.201" x2="14.332" y2="43.201"/>
		
			<line id="connector7pin" fill="none" stroke="#787878" stroke-width="0.7" stroke-linecap="round" stroke-linejoin="round" x1="0.386" y1="50.396" x2="14.332" y2="50.396"/>
		
			<line id="connector8pin" fill="none" stroke="#787878" stroke-width="0.7" stroke-linecap="round" stroke-linejoin="round" x1="0.386" y1="57.59" x2="14.332" y2="57.59"/>
		
			<line id="connector9pin" fill="none" stroke="#787878" stroke-width="0.7" stroke-linecap="round" stroke-linejoin="round" x1="0.386" y1="64.784" x2="14.332" y2="64.784"/>
		
			<line id="connector10pin" fill="none" stroke="#787878" stroke-width="0.7" stroke-linecap="round" stroke-linejoin="round" x1="0.386" y1="71.978" x2="14.332" y2="71.978"/>
		
			<line id="connector11pin" fill="none" stroke="#787878" stroke-width="0.7" stroke-linecap="round" stroke-linejoin="round" x1="0.386" y1="79.172" x2="14.332" y2="79.172"/>
		
			<line id="connector28pin" fill="none" stroke="#787878" stroke-width="0.7" stroke-linecap="round" stroke-linejoin="round" x1="0.386" y1="93.603" x2="14.332" y2="93.603"/>
		
			<line id="connector29pin" fill="none" stroke="#787878" stroke-width="0.7" stroke-linecap="round" stroke-linejoin="round" x1="0.386" y1="100.797" x2="14.332" y2="100.797"/>
		
			<line id="connector30pin" fill="none" stroke="#787878" stroke-width="0.7" stroke-linecap="round" stroke-linejoin="round" x1="0.386" y1="107.992" x2="14.332" y2="107.992"/>
		
			<line id="connector31pin" fill="none" stroke="#787878" stroke-width="0.7" stroke-linecap="round" stroke-linejoin="round" x1="0.386" y1="115.185" x2="14.332" y2="115.185"/>
		
			<line id="connector32pin" fill="none" stroke="#787878" stroke-width="0.7" stroke-linecap="round" stroke-linejoin="round" x1="0.386" y1="122.378" x2="14.332" y2="122.378"/>
		
			<line id="connector33pin" fill="none" stroke="#787878" stroke-width="0.7" stroke-linecap="round" stroke-linejoin="round" x1="0.386" y1="129.574" x2="14.332" y2="129.574"/>
		
			<line id="connector34pin" fill="none" stroke="#787878" stroke-width="0.7" stroke-linecap="round" stroke-linejoin="round" x1="0.386" y1="136.767" x2="14.332" y2="136.767"/>
		
			<line id="connector35pin" fill="none" stroke="#787878" stroke-width="0.7" stroke-linecap="round" stroke-linejoin="round" x1="0.386" y1="143.96" x2="14.332" y2="143.96"/>
		
			<line id="connector36pin" fill="none" stroke="#787878" stroke-width="0.7" stroke-linecap="round" stroke-linejoin="round" x1="0.386" y1="151.156" x2="14.332" y2="151.156"/>
		
			<line id="connector2pin" fill="none" stroke="#787878" stroke-width="0.7" stroke-linecap="round" stroke-linejoin="round" x1="35.938" y1="14.395" x2="35.938" y2="0.327"/>
		
			<line id="connector26pin" fill="none" stroke="#787878" stroke-width="0.7" stroke-linecap="round" stroke-linejoin="round" x1="43.139" y1="208.328" x2="43.139" y2="194.38"/>
		
			<line id="connector4pin" fill="none" stroke="#787878" stroke-width="0.7" stroke-linecap="round" stroke-linejoin="round" x1="43.139" y1="208.328" x2="43.139" y2="194.378"/>
		
			<line id="connector1pin" fill="none" stroke="#787878" stroke-width="0.7" stroke-linecap="round" stroke-linejoin="round" x1="28.761" y1="14.395" x2="28.761" y2="0.327"/>
		
			<line id="connector5pin" fill="none" stroke="#787878" stroke-width="0.7" stroke-linecap="round" stroke-linejoin="round" x1="50.339" y1="14.395" x2="50.339" y2="0.327"/>
		
			<line id="connector37pin" fill="none" stroke="#787878" stroke-width="0.7" stroke-linecap="round" stroke-linejoin="round" x1="0.386" y1="158.35" x2="14.332" y2="158.35"/>
		
			<line id="connector38pin" fill="none" stroke="#787878" stroke-width="0.7" stroke-linecap="round" stroke-linejoin="round" x1="0.386" y1="165.544" x2="14.332" y2="165.544"/>
		
			<line id="connector39pin" fill="none" stroke="#787878" stroke-width="0.7" stroke-linecap="round" stroke-linejoin="round" x1="0.386" y1="172.738" x2="14.332" y2="172.738"/>
		
			<line id="connector40pin" fill="none" stroke="#787878" stroke-width="0.7" stroke-linecap="round" stroke-linejoin="round" x1="71.794" y1="151.205" x2="85.808" y2="151.21"/>
		
			<line id="connector41pin" fill="none" stroke="#787878" stroke-width="0.7" stroke-linecap="round" stroke-linejoin="round" x1="71.794" y1="158.397" x2="85.808" y2="158.387"/>
		
			<line id="connector42pin" fill="none" stroke="#787878" stroke-width="0.7" stroke-linecap="round" stroke-linejoin="round" x1="71.794" y1="165.591" x2="85.808" y2="165.582"/>
		
			<line id="connector43pin" fill="none" stroke="#787878" stroke-width="0.7" stroke-linecap="round" stroke-linejoin="round" x1="71.794" y1="172.787" x2="85.808" y2="172.776"/>
	</g>
	<text transform="matrix(1 0 0 1 66.5186 29.978)" fill="#8C8C8C" font-family="'DroidSans'" font-size="3.5">A</text>
	<text transform="matrix(1 0 0 1 63.0791 44.147)" fill="#8C8C8C" font-family="'DroidSans'" font-size="3.5">D13</text>
	<text transform="matrix(1 0 0 1 62.5713 51.3413)" fill="#8C8C8C" font-family="'DroidSans'" font-size="3.5">D12</text>
	<text transform="matrix(1 0 0 1 62.5713 58.5347)" fill="#8C8C8C" font-family="'DroidSans'" font-size="3.5">D11</text>
	<text transform="matrix(1 0 0 1 62.5713 65.73)" fill="#8C8C8C" font-family="'DroidSans'" font-size="3.5">D10</text>
	<text transform="matrix(1 0 0 1 64.6016 72.9224)" fill="#8C8C8C" font-family="'DroidSans'" font-size="3.5">D9</text>
	<text transform="matrix(1 0 0 1 64.6016 80.8022)" fill="#8C8C8C" font-family="'DroidSans'" font-size="3.5">D8</text>
	<text transform="matrix(1 0 0 1 64.6016 87.312)" fill="#8C8C8C" font-family="'DroidSans'" font-size="3.5">D7</text>
	<text transform="matrix(1 0 0 1 64.6016 94.9595)" fill="#8C8C8C" font-family="'DroidSans'" font-size="3.5">D6</text>
	<text transform="matrix(1 0 0 1 64.6016 101.7007)" fill="#8C8C8C" font-family="'DroidSans'" font-size="3.5">D5</text>
	<text transform="matrix(1 0 0 1 64.6016 116.0884)" fill="#8C8C8C" font-family="'DroidSans'" font-size="3.5">D3</text>
	<text transform="matrix(1 0 0 1 64.6016 123.8345)" fill="#8C8C8C" font-family="'DroidSans'" font-size="3.5">D2</text>
	<text transform="matrix(1 0 0 1 64.6016 130.4761)" fill="#8C8C8C" font-family="'DroidSans'" font-size="3.5">D1</text>
	<text transform="matrix(1 0 0 1 64.6016 137.6685)" fill="#8C8C8C" font-family="'DroidSans'" font-size="3.5">D0</text>
	<text transform="matrix(1 0 0 1 64.6016 109.5015)" fill="#8C8C8C" font-family="'DroidSans'" font-size="3.5">D4</text>
	<text transform="matrix(1 0 0 1 15.9668 153.1616)" fill="#8C8C8C" font-family="'DroidSans'" font-size="3.5">D34</text>
	<text transform="matrix(1 0 0 1 15.4033 94.9595)" fill="#8C8C8C" font-family="'DroidSans'" font-size="3.5">D26</text>
	<text transform="matrix(1 0 0 1 15.4033 102.1519)" fill="#8C8C8C" font-family="'DroidSans'" font-size="3.5">D27</text>
	<text transform="matrix(1 0 0 1 15.4033 109.3472)" fill="#8C8C8C" font-family="'DroidSans'" font-size="3.5">D28</text>
	<text transform="matrix(1 0 0 1 15.4033 116.5425)" fill="#8C8C8C" font-family="'DroidSans'" font-size="3.5">D29</text>
	<text transform="matrix(1 0 0 1 15.4033 123.7349)" fill="#8C8C8C" font-family="'DroidSans'" font-size="3.5">D30</text>
	<text transform="matrix(1 0 0 1 15.4033 130.9302)" fill="#8C8C8C" font-family="'DroidSans'" font-size="3.5">D31</text>
	<text transform="matrix(1 0 0 1 15.4033 138.1245)" fill="#8C8C8C" font-family="'DroidSans'" font-size="3.5">D32</text>
	<text transform="matrix(1 0 0 1 15.4033 145.3179)" fill="#8C8C8C" font-family="'DroidSans'" font-size="3.5">D33</text>
	<text transform="matrix(1 0 0 1 15.9668 160.356)" fill="#8C8C8C" font-family="'DroidSans'" font-size="3.5">D35</text>
	<text transform="matrix(1 0 0 1 15.9668 167.5503)" fill="#8C8C8C" font-family="'DroidSans'" font-size="3.5">D36</text>
	<text transform="matrix(1 0 0 1 15.9668 174.7437)" fill="#8C8C8C" font-family="'DroidSans'" font-size="3.5">D37</text>
	<text transform="matrix(1 0 0 1 62.6826 152.5435)" fill="#8C8C8C" font-family="'DroidSans'" font-size="3.5">D38</text>
	<text transform="matrix(1 0 0 1 63.1914 159.7388)" fill="#8C8C8C" font-family="'DroidSans'" font-size="3.5">D39</text>
	<text transform="matrix(1 0 0 1 62.6826 166.9331)" fill="#8C8C8C" font-family="'DroidSans'" font-size="3.5">D40</text>
	<text transform="matrix(1 0 0 1 62.6826 174.1265)" fill="#8C8C8C" font-family="'DroidSans'" font-size="3.5">D41</text>
	<text transform="matrix(1 0 0 1 16.0239 29.9058)" fill="#8C8C8C" font-family="'DroidSans'" font-size="3.5">RST</text>
	<text transform="matrix(1 0 0 1 16.4756 44.8335)" fill="#8C8C8C" font-family="'DroidSans'" font-size="3.5">A0</text>
	<text transform="matrix(1 0 0 1 16.4756 52.0269)" fill="#8C8C8C" font-family="'DroidSans'" font-size="3.5">A1</text>
	<text transform="matrix(1 0 0 1 16.4756 59.2202)" fill="#8C8C8C" font-family="'DroidSans'" font-size="3.5">A2</text>
	<text transform="matrix(1 0 0 1 16.4756 66.4155)" fill="#8C8C8C" font-family="'DroidSans'" font-size="3.5">A3</text>
	<text transform="matrix(1 0 0 1 16.4756 73.6099)" fill="#8C8C8C" font-family="'DroidSans'" font-size="3.5">A4</text>
	<text transform="matrix(1 0 0 1 16.4756 80.8022)" fill="#8C8C8C" font-family="'DroidSans'" font-size="3.5">A5</text>
	<text transform="matrix(0 1 -1 0 24.4873 50.8306)" fill="#8C8C8C" font-family="'DroidSans'" font-size="3.5">Analog In</text>
	<text transform="matrix(0 1 -1 0 25.2725 118.3013)" fill="#8C8C8C" font-family="'DroidSans'" font-size="3.5">Digital Input/Output</text>
	<text transform="matrix(0 -1 1 0 62.5703 149.2163)" fill="#8C8C8C" font-family="'DroidSans'" font-size="3.5">Digital Input/Output</text>
	<g>
		<text transform="matrix(1 0 0 1 30.0342 36.0269)" font-family="'DroidSans'" font-size="3.5">Basic IO Shield</text>
	</g>
	<text transform="matrix(1 0 0 1 25.4331 17.981)" fill="#8C8C8C" font-family="'DroidSans'" font-size="3.5">3V3</text>
	<text transform="matrix(1 0 0 1 48.1396 17.981)" fill="#8C8C8C" font-family="'DroidSans'" font-size="3.5">Vin</text>
	<text transform="matrix(1 0 0 1 33.6826 17.981)" fill="#8C8C8C" font-family="'DroidSans'" font-size="3.5">5V</text>
	<text transform="matrix(1 0 0 1 35.2275 22.3804)" fill="#8C8C8C" font-family="'DroidSans'" font-size="3.5">Power</text>
	<text transform="matrix(1 0 0 1 39.98 192.3813)" fill="#8C8C8C" font-family="'DroidSans'" font-size="3.5">GND</text>
</g>
</svg>
