<?xml version='1.0' encoding='utf-8'?>
<!DOCTYPE svg PUBLIC '-//W3C//DTD SVG 1.1//EN' 'http://www.w3.org/Graphics/SVG/1.1/DTD/svg11.dtd'>
<!-- Generator: Adobe Illustrator 14.0.0, SVG Export Plug-In . SVG Version: 6.00 Build 43363)  -->
<svg xmlns="http://www.w3.org/2000/svg" width="3.52943in" xml:space="preserve" xmlns:xml="http://www.w3.org/XML/1998/namespace" x="0px" version="1.1" y="0px" height="5.77571in" viewBox="0 0 254.119 415.851" id="svg" enable-background="new 0.053 0.719 254.119 415.851">
 <g xmlns="http://www.w3.org/2000/svg" id="schematic">
 <rect xmlns="http://www.w3.org/2000/svg" width="2.101" x="140.791" y="1.695" fill="none" height="10.488" id="connector60pin"/>
 <rect xmlns="http://www.w3.org/2000/svg" width="2.101" x="140.791" y="1.695" fill="none" height="1.995" id="connector60terminal"/>
 <rect xmlns="http://www.w3.org/2000/svg" width="2.099" x="126.034" y="405.107" fill="none" height="10.488" id="connector59pin"/>
 <rect xmlns="http://www.w3.org/2000/svg" width="2.099" x="126.034" y="413.603" fill="none" height="1.992" id="connector59terminal"/>
 <rect xmlns="http://www.w3.org/2000/svg" width="2.099" x="126.034" y="405.107" fill="none" height="10.488" id="connector58pin"/>
 <rect xmlns="http://www.w3.org/2000/svg" width="2.099" x="126.034" y="413.603" fill="none" height="1.992" id="connector58terminal"/>
 <rect xmlns="http://www.w3.org/2000/svg" width="2.099" x="126.034" y="405.107" fill="none" height="10.488" id="connector57pin"/>
 <rect xmlns="http://www.w3.org/2000/svg" width="2.099" x="126.034" y="413.603" fill="none" height="1.992" id="connector57terminal"/>
 <rect xmlns="http://www.w3.org/2000/svg" width="2.099" x="126.034" y="405.107" fill="none" height="10.488" id="connector56pin"/>
 <rect xmlns="http://www.w3.org/2000/svg" width="2.099" x="126.034" y="413.603" fill="none" height="1.992" id="connector56terminal"/>
 <rect xmlns="http://www.w3.org/2000/svg" width="2.099" x="126.034" y="405.107" fill="none" height="10.488" id="connector55pin"/>
 <rect xmlns="http://www.w3.org/2000/svg" width="2.099" x="126.034" y="413.603" fill="none" height="1.992" id="connector55terminal"/>
 <rect xmlns="http://www.w3.org/2000/svg" width="2.098" x="98.315" y="1.695" fill="none" height="10.488" id="connector54pin"/>
 <rect xmlns="http://www.w3.org/2000/svg" width="2.098" x="98.315" y="1.695" fill="none" height="1.995" id="connector54terminal"/>
 <rect xmlns="http://www.w3.org/2000/svg" width="2.098" x="98.315" y="1.695" fill="none" height="10.488" id="connector53pin"/>
 <rect xmlns="http://www.w3.org/2000/svg" width="2.098" x="98.315" y="1.695" fill="none" height="1.995" id="connector53terminal"/>
 <rect xmlns="http://www.w3.org/2000/svg" width="2.098" x="98.315" y="1.695" fill="none" height="10.488" id="connector52pin"/>
 <rect xmlns="http://www.w3.org/2000/svg" width="2.098" x="98.315" y="1.695" fill="none" height="1.995" id="connector52terminal"/>
 <rect xmlns="http://www.w3.org/2000/svg" width="2.098" x="98.315" y="1.695" fill="none" height="10.488" id="connector51pin"/>
 <rect xmlns="http://www.w3.org/2000/svg" width="2.098" x="98.315" y="1.695" fill="none" height="1.995" id="connector51terminal"/>
 <rect xmlns="http://www.w3.org/2000/svg" width="2.099" x="126.034" y="405.107" fill="none" height="10.488" id="connector50pin"/>
 <rect xmlns="http://www.w3.org/2000/svg" width="2.099" x="126.034" y="413.603" fill="none" height="1.992" id="connector50terminal"/>
 <rect xmlns="http://www.w3.org/2000/svg" width="2.099" x="126.034" y="405.107" fill="none" height="10.488" id="connector49pin"/>
 <rect xmlns="http://www.w3.org/2000/svg" width="2.099" x="126.034" y="413.603" fill="none" height="1.992" id="connector49terminal"/>
 <rect xmlns="http://www.w3.org/2000/svg" width="2.099" x="126.034" y="405.107" fill="none" height="10.488" id="connector48pin"/>
 <rect xmlns="http://www.w3.org/2000/svg" width="2.099" x="126.034" y="413.603" fill="none" height="1.992" id="connector48terminal"/>
 <rect xmlns="http://www.w3.org/2000/svg" width="2.099" x="126.034" y="405.107" fill="none" height="10.488" id="connector47pin"/>
 <rect xmlns="http://www.w3.org/2000/svg" width="2.099" x="126.034" y="413.603" fill="none" height="1.992" id="connector47terminal"/>
 <rect xmlns="http://www.w3.org/2000/svg" width="2.098" x="98.315" y="1.695" fill="none" height="10.488" id="connector46pin"/>
 <rect xmlns="http://www.w3.org/2000/svg" width="2.098" x="98.315" y="1.695" fill="none" height="1.995" id="connector46terminal"/>
 <rect xmlns="http://www.w3.org/2000/svg" width="2.098" x="98.315" y="1.695" fill="none" height="10.488" id="connector45pin"/>
 <rect xmlns="http://www.w3.org/2000/svg" width="2.098" x="98.315" y="1.695" fill="none" height="1.995" id="connector45terminal"/>
 <rect xmlns="http://www.w3.org/2000/svg" width="2.098" x="98.315" y="1.695" fill="none" height="10.488" id="connector44pin"/>
 <rect xmlns="http://www.w3.org/2000/svg" width="2.098" x="98.315" y="1.695" fill="none" height="1.995" id="connector44terminal"/>
 <rect xmlns="http://www.w3.org/2000/svg" width="2.098" x="98.315" y="1.695" fill="none" height="10.488" id="connector43pin"/>
 <rect xmlns="http://www.w3.org/2000/svg" width="2.098" x="98.315" y="1.695" fill="none" height="1.995" id="connector43terminal"/>
 <rect xmlns="http://www.w3.org/2000/svg" width="10.488" x="1.26" y="339.537" fill="none" height="2.098" id="connector42pin"/>
 <rect xmlns="http://www.w3.org/2000/svg" width="1.994" x="1.26" y="339.537" fill="none" height="2.098" id="connector42terminal"/>
 <rect xmlns="http://www.w3.org/2000/svg" width="10.488" x="1.26" y="318.279" fill="none" height="2.098" id="connector41pin"/>
 <rect xmlns="http://www.w3.org/2000/svg" width="1.994" x="1.26" y="318.279" fill="none" height="2.098" id="connector41terminal"/>
 <rect xmlns="http://www.w3.org/2000/svg" width="10.488" x="1.26" y="297.019" fill="none" height="2.098" id="connector40pin"/>
 <rect xmlns="http://www.w3.org/2000/svg" width="1.994" x="1.26" y="297.019" fill="none" height="2.098" id="connector40terminal"/>
 <rect xmlns="http://www.w3.org/2000/svg" width="10.488" x="1.26" y="275.757" fill="none" height="2.1" id="connector39pin"/>
 <rect xmlns="http://www.w3.org/2000/svg" width="1.994" x="1.26" y="275.757" fill="none" height="2.1" id="connector39terminal"/>
 <rect xmlns="http://www.w3.org/2000/svg" width="10.488" x="1.26" y="254.498" fill="none" height="2.1" id="connector38pin"/>
 <rect xmlns="http://www.w3.org/2000/svg" width="1.994" x="1.26" y="254.498" fill="none" height="2.1" id="connector38terminal"/>
 <rect xmlns="http://www.w3.org/2000/svg" width="10.488" x="1.26" y="233.263" fill="none" height="2.1" id="connector37pin"/>
 <rect xmlns="http://www.w3.org/2000/svg" width="1.994" x="1.26" y="233.263" fill="none" height="2.1" id="connector37terminal"/>
 <rect xmlns="http://www.w3.org/2000/svg" width="10.488" x="1.26" y="212.029" fill="none" height="2.1" id="connector36pin"/>
 <rect xmlns="http://www.w3.org/2000/svg" width="1.994" x="1.26" y="212.029" fill="none" height="2.1" id="connector36terminal"/>
 <rect xmlns="http://www.w3.org/2000/svg" width="10.488" x="1.26" y="190.791" fill="none" height="2.099" id="connector35pin"/>
 <rect xmlns="http://www.w3.org/2000/svg" width="1.994" x="1.26" y="190.791" fill="none" height="2.099" id="connector35terminal"/>
 <rect xmlns="http://www.w3.org/2000/svg" width="2.098" x="98.315" y="1.695" fill="none" height="10.488" id="connector34pin"/>
 <rect xmlns="http://www.w3.org/2000/svg" width="2.098" x="98.315" y="1.695" fill="none" height="1.995" id="connector34terminal"/>
 <rect xmlns="http://www.w3.org/2000/svg" width="2.099" x="126.034" y="405.107" fill="none" height="10.488" id="connector33pin"/>
 <rect xmlns="http://www.w3.org/2000/svg" width="2.099" x="126.034" y="413.603" fill="none" height="1.992" id="connector33terminal"/>
 <rect xmlns="http://www.w3.org/2000/svg" width="10.488" x="242.422" y="128.347" fill="none" height="2.099" id="connector32pin"/>
 <rect xmlns="http://www.w3.org/2000/svg" width="1.994" x="250.916" y="128.347" fill="none" height="2.099" id="connector32terminal"/>
 <rect xmlns="http://www.w3.org/2000/svg" width="2.098" x="98.315" y="1.695" fill="none" height="10.488" id="connector31pin"/>
 <rect xmlns="http://www.w3.org/2000/svg" width="2.098" x="98.315" y="1.695" fill="none" height="1.995" id="connector31terminal"/>
 <rect xmlns="http://www.w3.org/2000/svg" width="10.484" x="242.531" y="191.97" fill="none" height="2.098" id="connector30pin"/>
 <rect xmlns="http://www.w3.org/2000/svg" width="1.994" x="250.916" y="191.97" fill="none" height="2.099" id="connector30terminal"/>
 <rect xmlns="http://www.w3.org/2000/svg" width="10.484" x="242.531" y="212.83" fill="none" height="2.098" id="connector29pin"/>
 <rect xmlns="http://www.w3.org/2000/svg" width="1.994" x="251.022" y="212.83" fill="none" height="2.098" id="connector29terminal"/>
 <rect xmlns="http://www.w3.org/2000/svg" width="2.099" x="126.034" y="405.107" fill="none" height="10.488" id="connector28pin"/>
 <rect xmlns="http://www.w3.org/2000/svg" width="2.099" x="126.034" y="413.603" fill="none" height="1.992" id="connector28terminal"/>
 <rect xmlns="http://www.w3.org/2000/svg" width="2.098" x="98.315" y="1.695" fill="none" height="10.488" id="connector27pin"/>
 <rect xmlns="http://www.w3.org/2000/svg" width="2.098" x="98.315" y="1.695" fill="none" height="1.995" id="connector27terminal"/>
 <rect xmlns="http://www.w3.org/2000/svg" width="10.484" x="242.531" y="191.97" fill="none" height="2.098" id="connector26pin"/>
 <rect xmlns="http://www.w3.org/2000/svg" width="1.994" x="250.916" y="191.97" fill="none" height="2.099" id="connector26terminal"/>
 <rect xmlns="http://www.w3.org/2000/svg" width="10.484" x="242.531" y="212.83" fill="none" height="2.098" id="connector25pin"/>
 <rect xmlns="http://www.w3.org/2000/svg" width="1.994" x="251.022" y="212.83" fill="none" height="2.098" id="connector25terminal"/>
 <rect xmlns="http://www.w3.org/2000/svg" width="2.099" x="126.034" y="405.107" fill="none" height="10.488" id="connector24pin"/>
 <rect xmlns="http://www.w3.org/2000/svg" width="2.099" x="126.034" y="413.603" fill="none" height="1.992" id="connector24terminal"/>
 <rect xmlns="http://www.w3.org/2000/svg" width="2.099" x="126.034" y="405.107" fill="none" height="10.488" id="connector23pin"/>
 <rect xmlns="http://www.w3.org/2000/svg" width="2.099" x="126.034" y="413.603" fill="none" height="1.992" id="connector23terminal"/>
 <rect xmlns="http://www.w3.org/2000/svg" width="2.098" x="98.315" y="1.695" fill="none" height="10.488" id="connector22pin"/>
 <rect xmlns="http://www.w3.org/2000/svg" width="2.098" x="98.315" y="1.695" fill="none" height="1.995" id="connector22terminal"/>
 <rect xmlns="http://www.w3.org/2000/svg" width="10.488" x="242.477" y="339.496" fill="none" height="2.102" id="connector21pin"/>
 <rect xmlns="http://www.w3.org/2000/svg" width="1.993" x="250.972" y="339.496" fill="none" height="2.102" id="connector21terminal"/>
 <rect xmlns="http://www.w3.org/2000/svg" width="2.098" x="98.315" y="1.695" fill="none" height="10.488" id="connector20pin"/>
 <rect xmlns="http://www.w3.org/2000/svg" width="2.098" x="98.315" y="1.695" fill="none" height="1.995" id="connector20terminal"/>
 <rect xmlns="http://www.w3.org/2000/svg" width="2.098" x="98.315" y="1.695" fill="none" height="10.488" id="connector19pin"/>
 <rect xmlns="http://www.w3.org/2000/svg" width="2.098" x="98.315" y="1.695" fill="none" height="1.995" id="connector19terminal"/>
 <rect xmlns="http://www.w3.org/2000/svg" width="10.488" x="242.477" y="339.496" fill="none" height="2.102" id="connector18pin"/>
 <rect xmlns="http://www.w3.org/2000/svg" width="1.993" x="250.972" y="339.496" fill="none" height="2.102" id="connector18terminal"/>
 <rect xmlns="http://www.w3.org/2000/svg" width="2.098" x="98.315" y="1.695" fill="none" height="10.488" id="connector17pin"/>
 <rect xmlns="http://www.w3.org/2000/svg" width="2.098" x="98.315" y="1.695" fill="none" height="1.995" id="connector17terminal"/>
 <rect xmlns="http://www.w3.org/2000/svg" width="2.098" x="98.315" y="1.695" fill="none" height="10.488" id="connector16pin"/>
 <rect xmlns="http://www.w3.org/2000/svg" width="2.098" x="98.315" y="1.695" fill="none" height="1.995" id="connector16terminal"/>
 <rect xmlns="http://www.w3.org/2000/svg" width="10.488" x="242.477" y="318.347" fill="none" height="2.1" id="connector15pin"/>
 <rect xmlns="http://www.w3.org/2000/svg" width="1.993" x="250.972" y="318.347" fill="none" height="2.1" id="connector15terminal"/>
 <rect xmlns="http://www.w3.org/2000/svg" width="2.099" x="126.034" y="405.107" fill="none" height="10.488" id="connector14pin"/>
 <rect xmlns="http://www.w3.org/2000/svg" width="2.099" x="126.034" y="413.603" fill="none" height="1.992" id="connector14terminal"/>
 <rect xmlns="http://www.w3.org/2000/svg" width="2.098" x="98.315" y="1.695" fill="none" height="10.488" id="connector13pin"/>
 <rect xmlns="http://www.w3.org/2000/svg" width="2.098" x="98.315" y="1.695" fill="none" height="1.995" id="connector13terminal"/>
 <rect xmlns="http://www.w3.org/2000/svg" width="10.488" x="242.477" y="318.347" fill="none" height="2.1" id="connector12pin"/>
 <rect xmlns="http://www.w3.org/2000/svg" width="1.993" x="250.972" y="318.347" fill="none" height="2.1" id="connector12terminal"/>
 <rect xmlns="http://www.w3.org/2000/svg" width="2.099" x="126.034" y="405.107" fill="none" height="10.488" id="connector11pin"/>
 <rect xmlns="http://www.w3.org/2000/svg" width="2.099" x="126.034" y="413.603" fill="none" height="1.992" id="connector11terminal"/>
 <rect xmlns="http://www.w3.org/2000/svg" width="2.098" x="98.315" y="1.695" fill="none" height="10.488" id="connector10pin"/>
 <rect xmlns="http://www.w3.org/2000/svg" width="2.098" x="98.315" y="1.695" fill="none" height="1.995" id="connector10terminal"/>
 <rect xmlns="http://www.w3.org/2000/svg" width="10.488" x="242.477" y="296.857" fill="none" height="2.098" id="connector9pin"/>
 <rect xmlns="http://www.w3.org/2000/svg" width="1.993" x="250.972" y="296.857" fill="none" height="2.098" id="connector9terminal"/>
 <rect xmlns="http://www.w3.org/2000/svg" width="2.098" x="98.315" y="1.695" fill="none" height="10.488" id="connector8pin"/>
 <rect xmlns="http://www.w3.org/2000/svg" width="2.098" x="98.315" y="1.695" fill="none" height="1.995" id="connector8terminal"/>
 <rect xmlns="http://www.w3.org/2000/svg" width="2.098" x="98.315" y="1.695" fill="none" height="10.488" id="connector7pin"/>
 <rect xmlns="http://www.w3.org/2000/svg" width="2.098" x="98.315" y="1.695" fill="none" height="1.995" id="connector7terminal"/>
 <rect xmlns="http://www.w3.org/2000/svg" width="10.488" x="242.477" y="296.857" fill="none" height="2.098" id="connector6pin"/>
 <rect xmlns="http://www.w3.org/2000/svg" width="1.993" x="250.972" y="296.857" fill="none" height="2.098" id="connector6terminal"/>
 <rect xmlns="http://www.w3.org/2000/svg" width="2.098" x="98.315" y="1.695" fill="none" height="10.488" id="connector5pin"/>
 <rect xmlns="http://www.w3.org/2000/svg" width="2.098" x="98.315" y="1.695" fill="none" height="1.995" id="connector5terminal"/>
 <rect xmlns="http://www.w3.org/2000/svg" width="2.098" x="98.315" y="1.695" fill="none" height="10.488" id="connector4pin"/>
 <rect xmlns="http://www.w3.org/2000/svg" width="2.098" x="98.315" y="1.695" fill="none" height="1.995" id="connector4terminal"/>
 <rect xmlns="http://www.w3.org/2000/svg" width="10.488" x="242.477" y="275.621" fill="none" height="2.1" id="connector3pin"/>
 <rect xmlns="http://www.w3.org/2000/svg" width="1.993" x="250.972" y="275.621" fill="none" height="2.1" id="connector3terminal"/>
 <rect xmlns="http://www.w3.org/2000/svg" width="2.099" x="126.034" y="405.107" fill="none" height="10.488" id="connector2pin"/>
 <rect xmlns="http://www.w3.org/2000/svg" width="2.099" x="126.034" y="413.603" fill="none" height="1.992" id="connector2terminal"/>
 <rect xmlns="http://www.w3.org/2000/svg" width="2.098" x="98.315" y="1.695" fill="none" height="10.488" id="connector1pin"/>
 <rect xmlns="http://www.w3.org/2000/svg" width="2.098" x="98.315" y="1.695" fill="none" height="1.995" id="connector1terminal"/>
 <rect xmlns="http://www.w3.org/2000/svg" width="10.488" x="242.477" y="275.621" fill="none" height="2.1" id="connector0pin"/>
 <rect xmlns="http://www.w3.org/2000/svg" width="1.993" x="250.972" y="275.621" fill="none" height="2.1" id="connector0terminal"/>
  <rect xmlns="http://www.w3.org/2000/svg" width="209.276" x="22.446" y="22.931" fill="none" height="371.425" stroke="#000000" stroke-linejoin="round" stroke-linecap="round" stroke-width="2.415"/>
  <line xmlns="http://www.w3.org/2000/svg" fill="none" stroke="#000000" stroke-linejoin="round" stroke-linecap="round" y1="276.837" stroke-width="2.415" x1="252.965" y2="276.837" x2="231.723"/>
  <line xmlns="http://www.w3.org/2000/svg" fill="none" stroke="#000000" stroke-linejoin="round" stroke-linecap="round" y1="298.076" stroke-width="2.415" x1="252.965" y2="298.076" x2="231.723"/>
  <line xmlns="http://www.w3.org/2000/svg" fill="none" stroke="#000000" stroke-linejoin="round" stroke-linecap="round" y1="319.31" stroke-width="2.415" x1="252.965" y2="319.31" x2="231.723"/>
  <line xmlns="http://www.w3.org/2000/svg" fill="none" stroke="#000000" stroke-linejoin="round" stroke-linecap="round" y1="129.329" stroke-width="2.415" x1="252.965" y2="129.329" x2="231.723"/>
  <line xmlns="http://www.w3.org/2000/svg" fill="none" stroke="#000000" stroke-linejoin="round" stroke-linecap="round" y1="340.546" stroke-width="2.415" x1="252.965" y2="340.546" x2="231.723"/>
  <text xmlns="http://www.w3.org/2000/svg" font-family="Droid Sans" transform="matrix(1 0 0 1 194.053 132.0601)" font-size="9.9889">VUNR</text>
  <text xmlns="http://www.w3.org/2000/svg" font-family="Droid Sans" transform="matrix(1 0 0 1 201.7805 195.9702)" font-size="9.9889">SDA</text>
  <line xmlns="http://www.w3.org/2000/svg" fill="none" stroke="#000000" stroke-linejoin="round" stroke-linecap="round" y1="193.019" stroke-width="1.9517" x1="231.781" y2="193.019" x2="253.016"/>
  <text xmlns="http://www.w3.org/2000/svg" font-family="Droid Sans" transform="matrix(1 0 0 1 203.759 216.8296)" font-size="9.9889">SCL</text>
  <line xmlns="http://www.w3.org/2000/svg" fill="none" stroke="#000000" stroke-linejoin="round" stroke-linecap="round" y1="213.878" stroke-width="1.9517" x1="231.781" y2="213.878" x2="253.016"/>
  <line xmlns="http://www.w3.org/2000/svg" fill="none" stroke="#000000" stroke-linejoin="round" stroke-linecap="round" y1="22.931" stroke-width="1.9517" x1="141.842" y2="1.695" x2="141.842"/>
  <line xmlns="http://www.w3.org/2000/svg" fill="none" stroke="#000000" stroke-linejoin="round" stroke-linecap="round" y1="22.931" stroke-width="1.9517" x1="99.319" y2="1.695" x2="99.319"/>
  <text xmlns="http://www.w3.org/2000/svg" font-family="Droid Sans" transform="matrix(1 0 0 1 123.8909 40.0913)" font-size="9.9889">VIN/BAT</text>
  <text xmlns="http://www.w3.org/2000/svg" font-family="Droid Sans" transform="matrix(1 0 0 1 93.3464 40.0913)" font-size="9.9889">5V</text>
  <line xmlns="http://www.w3.org/2000/svg" fill="none" stroke="#000000" stroke-linejoin="round" stroke-linecap="round" y1="191.869" stroke-width="2.415" x1="1.26" y2="191.869" x2="22.446"/>
  <line xmlns="http://www.w3.org/2000/svg" fill="none" stroke="#000000" stroke-linejoin="round" stroke-linecap="round" y1="213.105" stroke-width="2.415" x1="1.26" y2="213.105" x2="22.446"/>
  <line xmlns="http://www.w3.org/2000/svg" fill="none" stroke="#000000" stroke-linejoin="round" stroke-linecap="round" y1="234.339" stroke-width="2.415" x1="1.26" y2="234.339" x2="22.446"/>
  <line xmlns="http://www.w3.org/2000/svg" fill="none" stroke="#000000" stroke-linejoin="round" stroke-linecap="round" y1="255.576" stroke-width="2.415" x1="1.26" y2="255.576" x2="22.446"/>
  <line xmlns="http://www.w3.org/2000/svg" fill="none" stroke="#000000" stroke-linejoin="round" stroke-linecap="round" y1="276.814" stroke-width="2.415" x1="1.26" y2="276.814" x2="22.446"/>
  <line xmlns="http://www.w3.org/2000/svg" fill="none" stroke="#000000" stroke-linejoin="round" stroke-linecap="round" y1="298.05" stroke-width="2.415" x1="1.26" y2="298.05" x2="22.446"/>
  <text xmlns="http://www.w3.org/2000/svg" font-family="Droid Sans" transform="matrix(1 0 0 1 32.2913 194.3589)" font-size="9.9889">1</text>
  <text xmlns="http://www.w3.org/2000/svg" font-family="Droid Sans" transform="matrix(1 0 0 1 32.2913 215.7964)" font-size="9.9889">2</text>
  <text xmlns="http://www.w3.org/2000/svg" font-family="Droid Sans" transform="matrix(1 0 0 1 32.2913 237.2339)" font-size="9.9889">3</text>
  <text xmlns="http://www.w3.org/2000/svg" font-family="Droid Sans" transform="matrix(1 0 0 1 32.2913 258.6714)" font-size="9.9889">4</text>
  <text xmlns="http://www.w3.org/2000/svg" font-family="Droid Sans" transform="matrix(1 0 0 1 32.2913 280.1089)" font-size="9.9889">5</text>
  <text xmlns="http://www.w3.org/2000/svg" font-family="Droid Sans" transform="matrix(1 0 0 1 32.2913 301.5503)" font-size="9.9889">6</text>
  <line xmlns="http://www.w3.org/2000/svg" fill="none" stroke="#000000" stroke-linejoin="round" stroke-linecap="round" y1="319.31" stroke-width="2.415" x1="1.26" y2="319.31" x2="22.446"/>
  <text xmlns="http://www.w3.org/2000/svg" font-family="Droid Sans" transform="matrix(1 0 0 1 32.2913 322.8101)" font-size="9.9889">7</text>
  <line xmlns="http://www.w3.org/2000/svg" fill="none" stroke="#000000" stroke-linejoin="round" stroke-linecap="round" y1="340.57" stroke-width="2.415" x1="1.26" y2="340.57" x2="22.446"/>
  <text xmlns="http://www.w3.org/2000/svg" font-family="Droid Sans" transform="matrix(1 0 0 1 32.2913 344.0679)" font-size="9.9889">8</text>
  <text xmlns="http://www.w3.org/2000/svg" font-family="Droid Sans" transform="matrix(0 1 -1 0 57.3381 197.2871)" font-size="9.9889">Sensor / Digital &amp; Analog Input</text>
  <text xmlns="http://www.w3.org/2000/svg" font-family="Droid Sans" transform="matrix(0 -1 1 0 180.1555 356.6675)" font-size="9.9889">Servo Motor / Output</text>
  <text xmlns="http://www.w3.org/2000/svg" font-family="Droid Sans" transform="matrix(0 -1 1 0 180.1555 233.146)" font-size="9.9889">I2C / Ext. Bus</text>
  <text xmlns="http://www.w3.org/2000/svg" font-family="Droid Sans" transform="matrix(1 0 0 1 112.9299 60.3081)" font-size="9.9889">Power</text>
  <text xmlns="http://www.w3.org/2000/svg" font-family="Droid Sans" transform="matrix(1 0 0 1 79.1125 94.8657)" font-size="17.98">Gogo Board</text>
  <text xmlns="http://www.w3.org/2000/svg" font-family="Droid Sans" transform="matrix(1 0 0 1 114.7688 116.4419)" font-size="17.98">4.0</text>
  <line xmlns="http://www.w3.org/2000/svg" fill="none" stroke="#000000" stroke-linejoin="round" stroke-linecap="round" y1="415.595" stroke-width="1.9517" x1="127.084" y2="394.357" x2="127.084"/>
  <text xmlns="http://www.w3.org/2000/svg" font-family="Droid Sans" transform="matrix(1 0 0 1 116.5784 384.1685)" font-size="9.9889">GND</text>
  <text xmlns="http://www.w3.org/2000/svg" font-family="Droid Sans" transform="matrix(1 0 0 1 193.7131 279.6313)" font-size="9.9889">SV1/A</text>
  <text xmlns="http://www.w3.org/2000/svg" font-family="Droid Sans" transform="matrix(1 0 0 1 193.5842 301.0718)" font-size="9.9889">SV2/B</text>
  <text xmlns="http://www.w3.org/2000/svg" font-family="Droid Sans" transform="matrix(1 0 0 1 193.7659 322.3315)" font-size="9.9889">SV3/C</text>
  <text xmlns="http://www.w3.org/2000/svg" font-family="Droid Sans" transform="matrix(1 0 0 1 192.9553 343.5894)" font-size="9.9889">SV4/D</text>
  <text xmlns="http://www.w3.org/2000/svg" font-family="Droid Sans" transform="matrix(1 0 0 1 234.5579 316.1675)" font-size="6.9922">PWM</text>
  <text xmlns="http://www.w3.org/2000/svg" font-family="Droid Sans" transform="matrix(1 0 0 1 234.5579 295.1812)" font-size="6.9922">PWM</text>
  <text xmlns="http://www.w3.org/2000/svg" font-family="Droid Sans" transform="matrix(1 0 0 1 234.5579 337.1528)" font-size="6.9922">PWM</text>
  <text xmlns="http://www.w3.org/2000/svg" font-family="Droid Sans" transform="matrix(1 0 0 1 234.5579 274.1958)" font-size="6.9922">PWM</text>
 </g>
</svg>
