<?xml version='1.0' encoding='UTF-8'?>
<!DOCTYPE svg PUBLIC '-//W3C//DTD SVG 1.1//EN' 'http://www.w3.org/Graphics/SVG/1.1/DTD/svg11.dtd'>
<!-- Creator: CorelDRAW -->
<svg width="50mm" xmlns="http://www.w3.org/2000/svg" height="48mm" viewBox="0 0 50 48" xmlns:xlink="http://www.w3.org/1999/xlink" style="shape-rendering:geometricPrecision; text-rendering:geometricPrecision; image-rendering:optimizeQuality; fill-rule:evenodd; clip-rule:evenodd" xml:space="preserve">
 <g id="schematic">
  <defs>
   <style type="text/css"><![CDATA[
    .str1 {stroke:black;stroke-width:0.635;stroke-linecap:round;stroke-linejoin:round}
    .str0 {stroke:black;stroke-width:0.672;stroke-linecap:round;stroke-linejoin:round}
    .fil1 {fill:none}
    .fil0 {fill:black;fill-rule:nonzero}
   ]]></style>
  </defs>
  <g id="Capa_x0020_1">
   <metadata id="CorelCorpID_0Corel-Layer"/>
   <path class="fil0" d="M17.4943 10.0119l0 1.8733 -0.5768 0 0 -4.5328 1.1039 0c0.5503,0 0.9556,0.1058 1.2181,0.3196 0.2625,0.2127 0.3937,0.5344 0.3937,0.9673 0,0.1799 -0.0254,0.3365 -0.0751,0.4709 -0.0508,0.1345 -0.1186,0.2498 -0.2022,0.3461 -0.0836,0.0953 -0.1788,0.1757 -0.2868,0.2403 -0.1069,0.0635 -0.218,0.1164 -0.3313,0.1577l1.2341 2.0309 -0.6795 0 -1.088 -1.8733 -0.7101 0zm0 -0.4889l0.508 0c0.1863,0 0.345,-0.0191 0.4752,-0.055 0.1302,-0.036 0.2371,-0.09 0.3207,-0.1609 0.0836,-0.0709 0.145,-0.1598 0.1831,-0.2667 0.0381,-0.1069 0.0571,-0.2307 0.0571,-0.3736 0,-0.1492 -0.0212,-0.2752 -0.0635,-0.3778 -0.0423,-0.1037 -0.1069,-0.1884 -0.1926,-0.2551 -0.0857,-0.0656 -0.1937,-0.1143 -0.3249,-0.1439 -0.1312,-0.0296 -0.2868,-0.0445 -0.4667,-0.0445l-0.4964 0 0 1.6775zm6.387 2.3622l-0.5768 0 0 -2.1146 -2.0648 0 0 2.1146 -0.5768 0 0 -4.5328 0.5768 0 0 1.9092 2.0648 0 0 -1.9092 0.5768 0 0 4.5328zm2.5548 0l-0.58 0 0 -4.0248 -1.2954 0 0 -0.508 3.1687 0 0 0.508 -1.2933 0 0 4.0248zm4.5572 -2.2722c0,0.3651 -0.0254,0.6932 -0.0783,0.9821 -0.0529,0.29 -0.1376,0.5344 -0.254,0.7355 -0.1174,0.2001 -0.2677,0.3535 -0.4519,0.4583 -0.1841,0.1058 -0.4074,0.1587 -0.6699,0.1587 -0.2434,0 -0.4561,-0.0529 -0.6371,-0.1587 -0.181,-0.1048 -0.3302,-0.2582 -0.4488,-0.4583 -0.1195,-0.2011 -0.2084,-0.4455 -0.2667,-0.7355 -0.0592,-0.2889 -0.0889,-0.617 -0.0889,-0.9821 0,-0.3662 0.0265,-0.6943 0.0794,-0.9832 0.0529,-0.29 0.1365,-0.5345 0.2508,-0.7335 0.1154,-0.2 0.2636,-0.3524 0.4467,-0.4572 0.1831,-0.1058 0.4042,-0.1587 0.6646,-0.1587 0.2466,0 0.4604,0.0529 0.6424,0.1566 0.182,0.1048 0.3323,0.2572 0.453,0.4562 0.1196,0.1989 0.2095,0.4434 0.2688,0.7334 0.0603,0.2889 0.0899,0.6181 0.0899,0.9864zm-2.3219 0c0,0.309 0.0158,0.5799 0.0465,0.8117 0.0307,0.2318 0.0805,0.4244 0.1493,0.5778 0.0677,0.1546 0.1576,0.2699 0.2677,0.3482 0.1111,0.0773 0.2455,0.1154 0.4043,0.1154 0.1598,0 0.2953,-0.0381 0.4064,-0.1143 0.1122,-0.0762 0.2032,-0.1916 0.2741,-0.344 0.072,-0.1534 0.1238,-0.346 0.1556,-0.5778 0.0317,-0.2328 0.0476,-0.5059 0.0476,-0.817 0,-0.3101 -0.0159,-0.5811 -0.0476,-0.8128 -0.0318,-0.2318 -0.0836,-0.4234 -0.1556,-0.5768 -0.0709,-0.1535 -0.1619,-0.2678 -0.2741,-0.344 -0.1111,-0.0762 -0.2466,-0.1154 -0.4064,-0.1154 -0.1588,0 -0.2932,0.0392 -0.4043,0.1154 -0.1101,0.0762 -0.2,0.1905 -0.2677,0.344 -0.0688,0.1534 -0.1186,0.345 -0.1493,0.5768 -0.0307,0.2317 -0.0465,0.5027 -0.0465,0.8128zm5.5996 -1.2002c0,0.1503 -0.0233,0.2879 -0.0709,0.4117 -0.0476,0.1249 -0.1143,0.2318 -0.2,0.3228 -0.0857,0.091 -0.1884,0.1661 -0.308,0.2244 -0.1206,0.0592 -0.254,0.1016 -0.4,0.1259l0 0.019c0.3651,0.0456 0.6434,0.162 0.8339,0.3482 0.1895,0.1874 0.2847,0.4308 0.2847,0.7303 0,0.199 -0.0328,0.381 -0.1005,0.5461 -0.0667,0.1651 -0.1694,0.308 -0.3059,0.4276 -0.1355,0.1195 -0.309,0.2127 -0.5175,0.2794 -0.2085,0.0656 -0.4551,0.0994 -0.7408,0.0994 -0.2255,0 -0.4382,-0.0179 -0.6372,-0.0529 -0.1989,-0.0349 -0.3873,-0.0995 -0.563,-0.1926l0 -0.527c0.1799,0.0952 0.3747,0.1682 0.5842,0.2201 0.2106,0.0518 0.4117,0.0772 0.6033,0.0772 0.1905,0 0.3545,-0.0201 0.4931,-0.0613 0.1387,-0.0413 0.253,-0.1006 0.3429,-0.1768 0.09,-0.0772 0.1556,-0.1704 0.1979,-0.2826 0.0424,-0.1111 0.0635,-0.236 0.0635,-0.3746 0,-0.1408 -0.0264,-0.2614 -0.0814,-0.362 -0.0551,-0.0994 -0.1334,-0.182 -0.2339,-0.2476 -0.1016,-0.0656 -0.2255,-0.1132 -0.3715,-0.1439 -0.145,-0.0318 -0.3101,-0.0466 -0.4943,-0.0466l-0.4116 0 0 -0.4688 0.4116 0c0.1673,0 0.3165,-0.0202 0.4467,-0.0614 0.1301,-0.0413 0.2391,-0.1006 0.327,-0.1768 0.0878,-0.0762 0.1545,-0.1672 0.2,-0.273 0.0455,-0.1059 0.0688,-0.2212 0.0688,-0.3472 0,-0.1079 -0.019,-0.2032 -0.0561,-0.2889 -0.037,-0.0846 -0.0899,-0.1566 -0.1587,-0.2148 -0.0678,-0.0593 -0.1493,-0.1037 -0.2445,-0.1355 -0.0953,-0.0307 -0.2,-0.0466 -0.3165,-0.0466 -0.2211,0 -0.4159,0.035 -0.5842,0.1048 -0.1682,0.0688 -0.3291,0.1588 -0.4826,0.271l-0.2846 -0.3874c0.0783,-0.0646 0.1661,-0.1238 0.2614,-0.1799 0.0963,-0.0561 0.201,-0.1048 0.3153,-0.1471 0.1133,-0.0424 0.235,-0.0762 0.3641,-0.1016 0.1291,-0.0244 0.2657,-0.0371 0.4106,-0.0371 0.2234,0 0.4191,0.0286 0.5874,0.0836 0.1694,0.0561 0.3101,0.1345 0.4234,0.235 0.1143,0.0995 0.2,0.2191 0.2571,0.3556 0.0582,0.1376 0.0868,0.2879 0.0868,0.4519z"/>
   <path class="fil0" d="M34.0491 25.322l0.8338 0 0 1.2353c-0.0629,0.0206 -0.127,0.0388 -0.1911,0.0553 -0.0647,0.0159 -0.1305,0.0294 -0.1982,0.04 -0.0676,0.0112 -0.1387,0.0194 -0.2134,0.0253 -0.0747,0.0059 -0.1552,0.0088 -0.2417,0.0088 -0.1799,0 -0.3398,-0.0306 -0.4786,-0.0906 -0.1387,-0.0605 -0.2563,-0.1464 -0.3516,-0.2587 -0.0952,-0.1117 -0.1675,-0.2481 -0.2169,-0.408 -0.0494,-0.1599 -0.0741,-0.3404 -0.0741,-0.5398 0,-0.1975 0.0276,-0.3763 0.0817,-0.5362 0.0547,-0.1593 0.1341,-0.2951 0.2387,-0.4069 0.1047,-0.1123 0.2335,-0.1981 0.3869,-0.2587 0.1535,-0.0599 0.3281,-0.0905 0.5245,-0.0905 0.1276,0 0.2499,0.0129 0.3669,0.0382 0.117,0.0253 0.2263,0.0617 0.3275,0.11l-0.1241 0.2792c-0.0417,-0.0194 -0.0858,-0.0382 -0.1335,-0.0552 -0.0476,-0.0171 -0.097,-0.0324 -0.1475,-0.0459 -0.0506,-0.0129 -0.1023,-0.0235 -0.1558,-0.0317 -0.0536,-0.0077 -0.1065,-0.0118 -0.1594,-0.0118 -0.1399,0 -0.264,0.0229 -0.3722,0.0694 -0.1076,0.0464 -0.1981,0.1135 -0.271,0.2011 -0.0729,0.087 -0.1288,0.1934 -0.1664,0.3186 -0.0376,0.1253 -0.057,0.2664 -0.057,0.4234 0,0.1493 0.0158,0.2863 0.0476,0.4104 0.0317,0.124 0.0817,0.2305 0.1505,0.3204 0.0688,0.0894 0.1582,0.1588 0.2669,0.2082 0.1094,0.0493 0.2411,0.074 0.3946,0.074 0.0505,0 0.097,-0.0011 0.1387,-0.0041 0.0418,-0.0029 0.0806,-0.007 0.1164,-0.0111 0.0353,-0.0047 0.0694,-0.01 0.1006,-0.0165 0.0317,-0.0065 0.0623,-0.0124 0.0923,-0.0182l0 -0.7509 -0.5151 0 0 -0.2828zm3.3162 1.33l-0.3704 0 -1.2383 -2.0843 -0.0141 0c0.007,0.0882 0.0129,0.1763 0.0176,0.2634 0.0041,0.0746 0.0083,0.1528 0.0112,0.2346 0.0024,0.0811 0.0041,0.1546 0.0041,0.2205l0 1.3658 -0.2963 0 0 -2.5183 0.3669 0 1.2335 2.0738 0.0118 0c-0.0035,-0.087 -0.0071,-0.1735 -0.0118,-0.2581 -0.0011,-0.0371 -0.0029,-0.0747 -0.0047,-0.1129 -0.0017,-0.0388 -0.0029,-0.077 -0.0047,-0.1158 -0.0017,-0.0383 -0.0029,-0.0753 -0.0035,-0.1106 -0.0006,-0.0358 -0.0012,-0.0688 -0.0012,-0.0982l0 -1.3782 0.2999 0 0 2.5183zm2.5406 -1.2835c0,0.2128 -0.0276,0.3992 -0.0823,0.5591 -0.0553,0.1605 -0.1352,0.294 -0.2399,0.4016 -0.1041,0.107 -0.2328,0.1882 -0.3845,0.2417 -0.1523,0.0541 -0.3252,0.0811 -0.518,0.0811l-0.6303 0 0 -2.5183 0.7008 0c0.1758,0 0.3352,0.0265 0.4775,0.0794 0.1423,0.0523 0.2634,0.1311 0.3633,0.2346 0.1,0.1041 0.177,0.2328 0.2317,0.3869 0.0547,0.154 0.0817,0.3322 0.0817,0.5339zm-0.3392 0.0106c0,-0.1676 -0.0189,-0.3128 -0.0571,-0.4351 -0.0376,-0.1223 -0.0929,-0.2229 -0.1652,-0.3023 -0.0723,-0.0793 -0.1611,-0.1381 -0.2669,-0.1763 -0.1059,-0.0389 -0.2258,-0.0577 -0.3599,-0.0577l-0.3463 0 0 1.9685 0.2793 0c0.3028,0 0.5315,-0.0834 0.6856,-0.251 0.1534,-0.1682 0.2305,-0.4163 0.2305,-0.7461z"/>
   <g id="_124346152">
    <line class="fil1 str0" id="_124350400" y1="25.2701" x1="41.2144" y2="25.2701" x2="48.7644"/>
   </g>
   <rect width="31.4731" x="9.3501" y="1.476" class="fil1 str1" height="45.1638"/>
   <line class="fil1 str0" y1="25.392" x1="1.4316" y2="25.392" x2="8.9816"/>
   <line class="fil1 str0" y1="17.8917" x1="1.4316" y2="17.8917" x2="8.9816"/>
   <line class="fil1 str0" y1="32.892" x1="1.4316" y2="32.892" x2="8.9816"/>
   <path class="fil0" d="M11.8841 32.892l0.8338 0 0 1.2353c-0.0629,0.0206 -0.127,0.0388 -0.1911,0.0553 -0.0647,0.0159 -0.1305,0.0294 -0.1982,0.04 -0.0676,0.0112 -0.1387,0.0194 -0.2134,0.0253 -0.0747,0.0059 -0.1552,0.0088 -0.2417,0.0088 -0.1799,0 -0.3398,-0.0306 -0.4786,-0.0906 -0.1387,-0.0605 -0.2563,-0.1464 -0.3516,-0.2587 -0.0952,-0.1117 -0.1675,-0.2481 -0.2169,-0.408 -0.0494,-0.1599 -0.0741,-0.3404 -0.0741,-0.5398 0,-0.1975 0.0276,-0.3763 0.0817,-0.5362 0.0547,-0.1593 0.1341,-0.2951 0.2387,-0.4069 0.1047,-0.1123 0.2335,-0.1981 0.3869,-0.2587 0.1535,-0.0599 0.3281,-0.0905 0.5245,-0.0905 0.1276,0 0.2499,0.0129 0.3669,0.0382 0.117,0.0253 0.2263,0.0617 0.3275,0.11l-0.1241 0.2792c-0.0417,-0.0194 -0.0858,-0.0382 -0.1335,-0.0552 -0.0476,-0.0171 -0.097,-0.0324 -0.1475,-0.0459 -0.0506,-0.0129 -0.1023,-0.0235 -0.1558,-0.0317 -0.0536,-0.0077 -0.1065,-0.0118 -0.1594,-0.0118 -0.1399,0 -0.264,0.0229 -0.3722,0.0694 -0.1076,0.0464 -0.1981,0.1135 -0.271,0.2011 -0.0729,0.087 -0.1288,0.1934 -0.1664,0.3186 -0.0376,0.1253 -0.057,0.2664 -0.057,0.4234 0,0.1493 0.0158,0.2863 0.0476,0.4104 0.0317,0.124 0.0817,0.2305 0.1505,0.3204 0.0688,0.0894 0.1582,0.1588 0.2669,0.2082 0.1094,0.0493 0.2411,0.074 0.3946,0.074 0.0505,0 0.097,-0.0011 0.1387,-0.0041 0.0418,-0.0029 0.0806,-0.007 0.1164,-0.0111 0.0353,-0.0047 0.0694,-0.01 0.1006,-0.0165 0.0317,-0.0065 0.0623,-0.0124 0.0923,-0.0182l0 -0.7509 -0.5151 0 0 -0.2828zm3.3162 1.33l-0.3704 0 -1.2383 -2.0843 -0.0141 0c0.007,0.0882 0.0129,0.1763 0.0176,0.2634 0.0041,0.0746 0.0083,0.1528 0.0112,0.2346 0.0024,0.0811 0.0041,0.1546 0.0041,0.2205l0 1.3658 -0.2963 0 0 -2.5183 0.3669 0 1.2335 2.0738 0.0118 0c-0.0035,-0.087 -0.0071,-0.1735 -0.0118,-0.2581 -0.0011,-0.0371 -0.0029,-0.0747 -0.0047,-0.1129 -0.0017,-0.0388 -0.0029,-0.077 -0.0047,-0.1158 -0.0017,-0.0383 -0.0029,-0.0753 -0.0035,-0.1106 -0.0006,-0.0358 -0.0012,-0.0688 -0.0012,-0.0982l0 -1.3782 0.2999 0 0 2.5183zm2.5406 -1.2835c0,0.2128 -0.0276,0.3992 -0.0823,0.5591 -0.0553,0.1605 -0.1352,0.294 -0.2399,0.4016 -0.1041,0.107 -0.2328,0.1882 -0.3845,0.2417 -0.1523,0.0541 -0.3252,0.0811 -0.518,0.0811l-0.6303 0 0 -2.5183 0.7008 0c0.1758,0 0.3352,0.0265 0.4775,0.0794 0.1423,0.0523 0.2634,0.1311 0.3633,0.2346 0.1,0.1041 0.177,0.2328 0.2317,0.3869 0.0547,0.154 0.0817,0.3322 0.0817,0.5339zm-0.3392 0.0106c0,-0.1676 -0.0189,-0.3128 -0.0571,-0.4351 -0.0376,-0.1223 -0.0929,-0.2229 -0.1652,-0.3023 -0.0723,-0.0793 -0.1611,-0.1381 -0.2669,-0.1763 -0.1059,-0.0389 -0.2258,-0.0577 -0.3599,-0.0577l-0.3463 0 0 1.9685 0.2793 0c0.3028,0 0.5315,-0.0834 0.6856,-0.251 0.1534,-0.1682 0.2305,-0.4163 0.2305,-0.7461z"/>
   <path class="fil0" d="M12.6968 25.151c0,0.2128 -0.0276,0.3992 -0.0823,0.5591 -0.0553,0.1605 -0.1352,0.294 -0.2399,0.4016 -0.1041,0.107 -0.2328,0.1882 -0.3845,0.2417 -0.1523,0.0541 -0.3252,0.0811 -0.518,0.0811l-0.6303 0 0 -2.5183 0.7008 0c0.1758,0 0.3352,0.0265 0.4775,0.0794 0.1423,0.0523 0.2634,0.1311 0.3633,0.2346 0.1,0.1041 0.177,0.2328 0.2317,0.3869 0.0547,0.154 0.0817,0.3322 0.0817,0.5339zm-0.3392 0.0106c0,-0.1676 -0.0189,-0.3128 -0.0571,-0.4351 -0.0376,-0.1223 -0.0929,-0.2229 -0.1652,-0.3023 -0.0723,-0.0793 -0.1611,-0.1381 -0.2669,-0.1763 -0.1059,-0.0389 -0.2258,-0.0577 -0.3599,-0.0577l-0.3463 0 0 1.9685 0.2793 0c0.3028,0 0.5315,-0.0834 0.6856,-0.251 0.1534,-0.1682 0.2305,-0.4163 0.2305,-0.7461zm2.3718 1.2729l-0.2758 -0.7802 -0.9389 0 -0.2787 0.7802 -0.324 0 0.9249 -2.5288 0.2928 0 0.9266 2.5288 -0.3269 0zm-0.3775 -1.0648l-0.2546 -0.7303c-0.007,-0.0205 -0.0152,-0.0458 -0.0252,-0.0758 -0.0094,-0.0294 -0.02,-0.0617 -0.03,-0.0964 -0.0106,-0.0341 -0.0206,-0.07 -0.0312,-0.1076 -0.01,-0.0371 -0.02,-0.0735 -0.0294,-0.1094 -0.0076,0.0359 -0.017,0.0723 -0.0276,0.1105 -0.01,0.0377 -0.0206,0.0741 -0.0306,0.1094 -0.0106,0.0347 -0.0206,0.067 -0.0306,0.0964 -0.0094,0.0294 -0.0176,0.0535 -0.0247,0.0729l-0.2499 0.7303 0.7338 0zm1.781 1.0648l-0.3222 0 0 -2.236 -0.7197 0 0 -0.2823 1.7604 0 0 0.2823 -0.7185 0 0 2.236zm2.5717 0l-0.2758 -0.7802 -0.9389 0 -0.2787 0.7802 -0.324 0 0.9249 -2.5288 0.2928 0 0.9266 2.5288 -0.3269 0zm-0.3775 -1.0648l-0.2546 -0.7303c-0.007,-0.0205 -0.0152,-0.0458 -0.0252,-0.0758 -0.0094,-0.0294 -0.02,-0.0617 -0.03,-0.0964 -0.0106,-0.0341 -0.0206,-0.07 -0.0312,-0.1076 -0.01,-0.0371 -0.02,-0.0735 -0.0294,-0.1094 -0.0076,0.0359 -0.017,0.0723 -0.0276,0.1105 -0.01,0.0377 -0.0206,0.0741 -0.0306,0.1094 -0.0106,0.0347 -0.0206,0.067 -0.0306,0.0964 -0.0094,0.0294 -0.0176,0.0535 -0.0247,0.0729l-0.2499 0.7303 0.7338 0zm0.8455 0.264l0 -0.2899 0.8543 0 0 0.2899 -0.8543 0zm2.426 0.2822c0,0.0917 -0.0171,0.1723 -0.05,0.2411 -0.0335,0.0688 -0.0817,0.127 -0.144,0.1734 -0.0624,0.0465 -0.1382,0.0812 -0.2264,0.1041 -0.0888,0.0229 -0.1881,0.0347 -0.2981,0.0347 -0.1252,0 -0.2328,-0.01 -0.3222,-0.0306 -0.0894,-0.02 -0.1682,-0.0494 -0.2358,-0.0888l0 -0.2857c0.0353,0.0182 0.0753,0.0364 0.1188,0.0541 0.0435,0.0182 0.0894,0.0341 0.1376,0.0476 0.0482,0.0135 0.0982,0.0247 0.1493,0.0335 0.0512,0.0088 0.1017,0.0129 0.1523,0.0129 0.0747,0 0.1382,-0.0064 0.1905,-0.0188 0.0517,-0.0129 0.0947,-0.0305 0.127,-0.0541 0.0329,-0.0235 0.057,-0.0523 0.0717,-0.0864 0.0147,-0.0341 0.0224,-0.0717 0.0224,-0.1129 0,-0.0353 -0.0059,-0.0676 -0.0171,-0.0964 -0.0117,-0.0288 -0.0323,-0.057 -0.0629,-0.0853 -0.0306,-0.0282 -0.0723,-0.0564 -0.1252,-0.0852 -0.0523,-0.0288 -0.1206,-0.0606 -0.2029,-0.0964 -0.0829,-0.0359 -0.157,-0.0706 -0.2234,-0.1053 -0.0658,-0.0341 -0.1217,-0.0729 -0.1676,-0.1152 -0.0458,-0.0424 -0.0811,-0.0918 -0.1058,-0.147 -0.0247,-0.0559 -0.037,-0.1223 -0.037,-0.1993 0,-0.0806 0.0152,-0.1517 0.047,-0.2147 0.0317,-0.0623 0.0764,-0.1146 0.1335,-0.1575 0.0576,-0.0424 0.1264,-0.0747 0.2069,-0.0965 0.08,-0.0217 0.17,-0.0323 0.2687,-0.0323 0.1112,0 0.2135,0.0118 0.3058,0.0359 0.0923,0.0241 0.1799,0.0558 0.2628,0.0946l-0.1088 0.2535c-0.0747,-0.0336 -0.1511,-0.0624 -0.2299,-0.0871 -0.0788,-0.0247 -0.1587,-0.037 -0.2405,-0.037 -0.117,0 -0.2034,0.0194 -0.2598,0.0576 -0.0565,0.0388 -0.0847,0.0935 -0.0847,0.1646 0,0.04 0.0065,0.0753 0.02,0.1053 0.0129,0.0294 0.0359,0.0576 0.0682,0.0841 0.0317,0.0264 0.0753,0.0535 0.1288,0.0799 0.054,0.0271 0.1211,0.0577 0.2016,0.0906 0.0829,0.0347 0.1564,0.0688 0.2217,0.1035 0.0647,0.0346 0.1199,0.0735 0.1658,0.1164 0.0459,0.0429 0.0811,0.0917 0.1052,0.147 0.0242,0.0552 0.0365,0.1211 0.0365,0.1981zm0.7731 0.5186l-0.3133 0 0 -1.8915 0.3133 0 0 1.8915zm-0.3374 -2.403c0,-0.0688 0.0176,-0.1188 0.0523,-0.15 0.0353,-0.0311 0.0782,-0.0464 0.1299,-0.0464 0.0253,0 0.0494,0.0035 0.0718,0.0112 0.0223,0.0076 0.0417,0.0194 0.0582,0.0352 0.017,0.0165 0.03,0.0365 0.0399,0.0612 0.0095,0.0247 0.0147,0.0541 0.0147,0.0888 0,0.0664 -0.0182,0.1164 -0.0546,0.1487 -0.0359,0.033 -0.0794,0.0494 -0.13,0.0494 -0.0517,0 -0.0946,-0.0159 -0.1299,-0.0482 -0.0347,-0.0323 -0.0523,-0.0823 -0.0523,-0.1499zm2.3941 0.5115l0 0.1946 -0.3392 0.0465c0.0323,0.0405 0.0594,0.0917 0.0811,0.1546 0.0218,0.0623 0.033,0.1335 0.033,0.2123 0,0.0876 -0.0136,0.1681 -0.0406,0.2422 -0.0271,0.0741 -0.0682,0.1382 -0.1223,0.1923 -0.0547,0.0535 -0.1223,0.0958 -0.2029,0.1264 -0.0799,0.0306 -0.1734,0.0459 -0.2804,0.0459 -0.0253,0 -0.0506,-0.0006 -0.0759,-0.0012 -0.0253,-0.0006 -0.0458,-0.0024 -0.0623,-0.0059 -0.0194,0.0112 -0.0382,0.0241 -0.0576,0.0388 -0.0188,0.0141 -0.0359,0.0306 -0.0518,0.0488 -0.0152,0.0188 -0.0276,0.0394 -0.0376,0.0623 -0.01,0.023 -0.0147,0.0482 -0.0147,0.0759 0,0.0305 0.0071,0.0558 0.0206,0.0746 0.0141,0.0189 0.0323,0.0336 0.0559,0.0441 0.0241,0.01 0.0517,0.0171 0.084,0.0206 0.0318,0.0035 0.0659,0.0053 0.1012,0.0053l0.3034 0c0.107,0 0.1969,0.0135 0.2704,0.0406 0.0735,0.027 0.1335,0.0635 0.1799,0.1093 0.0465,0.0459 0.08,0.1 0.1012,0.1629 0.0205,0.0623 0.0305,0.1288 0.0305,0.1987 0,0.1012 -0.0182,0.1917 -0.0558,0.2723 -0.0371,0.0805 -0.0947,0.1481 -0.1711,0.204 -0.077,0.0559 -0.1746,0.0982 -0.2922,0.1282 -0.1176,0.03 -0.2564,0.0447 -0.4163,0.0447 -0.1229,0 -0.2299,-0.0118 -0.3216,-0.0359 -0.0923,-0.0241 -0.1688,-0.0594 -0.2293,-0.1053 -0.0612,-0.0458 -0.1065,-0.1011 -0.137,-0.1663 -0.0306,-0.0647 -0.0459,-0.1376 -0.0459,-0.2194 0,-0.0688 0.0112,-0.1293 0.0341,-0.1816 0.0223,-0.0524 0.0523,-0.0976 0.09,-0.1353 0.0382,-0.0382 0.0817,-0.0688 0.1317,-0.0929 0.0499,-0.0241 0.1023,-0.0429 0.1564,-0.0552 -0.0482,-0.0218 -0.0882,-0.0565 -0.1194,-0.1035 -0.0306,-0.0471 -0.0464,-0.1012 -0.0464,-0.1617 0,-0.07 0.0188,-0.1305 0.0552,-0.1817 0.0371,-0.0511 0.0947,-0.1011 0.1741,-0.1493 -0.0494,-0.0206 -0.0947,-0.0488 -0.1353,-0.0853 -0.0405,-0.0359 -0.0752,-0.0776 -0.1034,-0.1241 -0.0283,-0.0464 -0.05,-0.097 -0.0653,-0.1522 -0.0153,-0.0553 -0.0235,-0.1118 -0.0235,-0.1705 0,-0.1024 0.0147,-0.1935 0.0435,-0.274 0.0282,-0.0806 0.0711,-0.1488 0.127,-0.2047 0.0564,-0.0564 0.1264,-0.0993 0.2105,-0.1293 0.0835,-0.03 0.1811,-0.0447 0.2928,-0.0447 0.0423,0 0.0864,0.0029 0.1317,0.0094 0.0453,0.0059 0.0835,0.0147 0.1146,0.0247l0.625 0zm-1.397 2.2014c0,0.0429 0.0077,0.0823 0.0224,0.1187 0.0153,0.0371 0.0394,0.0688 0.0735,0.0953 0.0341,0.0264 0.0788,0.047 0.134,0.0629 0.0559,0.0153 0.1253,0.0229 0.2076,0.0229 0.214,0 0.3739,-0.0329 0.4798,-0.0988 0.1064,-0.0664 0.1593,-0.1611 0.1593,-0.2851 0,-0.0529 -0.0065,-0.0959 -0.0206,-0.1294 -0.0135,-0.0335 -0.0364,-0.0594 -0.0682,-0.0782 -0.0311,-0.0188 -0.0729,-0.0317 -0.1246,-0.0388 -0.0518,-0.007 -0.1147,-0.0106 -0.1894,-0.0106l-0.3033 0c-0.04,0 -0.0818,0.0047 -0.1259,0.0141 -0.0435,0.0089 -0.0835,0.0265 -0.1193,0.0518 -0.0365,0.0253 -0.0665,0.06 -0.09,0.1041 -0.0235,0.0441 -0.0353,0.1011 -0.0353,0.1711zm0.1588 -1.5934c0,0.1323 0.0311,0.2305 0.0929,0.2945 0.0623,0.0647 0.1499,0.0965 0.2634,0.0965 0.1152,0 0.2023,-0.0318 0.2611,-0.0953 0.0593,-0.0641 0.0887,-0.164 0.0887,-0.3004 0,-0.1417 -0.03,-0.2452 -0.0905,-0.3122 -0.06,-0.0665 -0.1476,-0.1 -0.2628,-0.1 -0.1135,0 -0.2005,0.0347 -0.2617,0.1035 -0.0605,0.0688 -0.0911,0.1734 -0.0911,0.3134zm2.7905 1.2835l0 -1.2177c0,-0.1493 -0.0306,-0.2616 -0.0906,-0.3363 -0.0605,-0.0747 -0.1546,-0.1117 -0.2834,-0.1117 -0.0929,0 -0.1711,0.0147 -0.2346,0.0447 -0.0629,0.03 -0.1134,0.0741 -0.1523,0.1329 -0.0382,0.0582 -0.0658,0.1299 -0.0829,0.2152 -0.0164,0.0846 -0.0247,0.1822 -0.0247,0.2928l0 0.9801 -0.3133 0 0 -1.8915 0.2546 0 0.0452 0.2552 0.0171 0c0.0288,-0.0494 0.0629,-0.0923 0.1023,-0.1282 0.04,-0.0364 0.0829,-0.0664 0.1299,-0.0905 0.0471,-0.0241 0.097,-0.0424 0.15,-0.0535 0.0529,-0.0118 0.107,-0.0171 0.1622,-0.0171 0.2099,0 0.3681,0.0547 0.4745,0.1641 0.1059,0.1099 0.1594,0.2851 0.1594,0.5262l0 1.2353 -0.3134 0zm1.9614 0l-0.0635 -0.2616 -0.0141 0c-0.0376,0.0517 -0.0752,0.0958 -0.1134,0.1334 -0.0377,0.0371 -0.0794,0.0676 -0.1241,0.0917 -0.0447,0.0242 -0.0947,0.0424 -0.1499,0.0536 -0.0553,0.0117 -0.1188,0.0176 -0.1911,0.0176 -0.0794,0 -0.1523,-0.0112 -0.2187,-0.0341 -0.0665,-0.0224 -0.1241,-0.0565 -0.1729,-0.1029 -0.0488,-0.0465 -0.087,-0.1053 -0.1147,-0.1758 -0.0276,-0.0706 -0.0417,-0.1541 -0.0417,-0.2505 0,-0.1887 0.0664,-0.3334 0.1993,-0.4345 0.1323,-0.1011 0.3346,-0.1558 0.6056,-0.1652l0.3169 -0.0118 0 -0.1193c0,-0.0765 -0.0088,-0.1411 -0.0253,-0.1929 -0.0164,-0.0517 -0.0405,-0.0929 -0.0723,-0.1246 -0.0317,-0.0318 -0.0705,-0.0541 -0.117,-0.0682 -0.0464,-0.0136 -0.0999,-0.0206 -0.1593,-0.0206 -0.0953,0 -0.184,0.0135 -0.2664,0.0411 -0.0817,0.0277 -0.1611,0.0612 -0.2369,0.1l-0.11 -0.2358c0.0847,-0.0458 0.18,-0.0852 0.284,-0.117 0.1047,-0.0323 0.2146,-0.0482 0.3293,-0.0482 0.117,0 0.2181,0.0118 0.304,0.0353 0.0852,0.0235 0.1564,0.0605 0.2116,0.1117 0.0559,0.0512 0.0976,0.1164 0.1253,0.1958 0.0276,0.0788 0.0411,0.1746 0.0411,0.2875l0 1.2953 -0.2258 0zm-0.575 -0.2187c0.07,0 0.1347,-0.0112 0.1946,-0.0329 0.0594,-0.0218 0.1112,-0.0547 0.1547,-0.0988 0.0441,-0.0441 0.0782,-0.1 0.1029,-0.167 0.0247,-0.0676 0.037,-0.1464 0.037,-0.237l0 -0.1705 -0.2464 0.0118c-0.1034,0.0047 -0.1899,0.0165 -0.2604,0.0347 -0.07,0.0182 -0.1258,0.0441 -0.1676,0.0764 -0.0417,0.0329 -0.0723,0.0723 -0.0905,0.1188 -0.0183,0.0464 -0.0277,0.0993 -0.0277,0.1576 0,0.1058 0.0277,0.1834 0.0835,0.2328 0.0559,0.0494 0.1288,0.0741 0.2199,0.0741zm1.6951 0.2187l-0.3133 0 0 -2.6805 0.3133 0 0 2.6805z"/>
   <path class="fil0" d="M12.1993 16.7757l0.341 0 -0.842 2.5183 -0.3222 0 -0.839 -2.5183 0.3393 0 0.508 1.597c0.0335,0.104 0.0623,0.2052 0.0864,0.3022 0.0241,0.097 0.0459,0.1881 0.0653,0.2728 0.0176,-0.0847 0.0393,-0.1758 0.0658,-0.2728 0.0259,-0.097 0.057,-0.2017 0.0929,-0.3128l0.5045 -1.5864zm1.3641 2.553c-0.1159,0 -0.2246,-0.0182 -0.3252,-0.0547 -0.1011,-0.0359 -0.1893,-0.0935 -0.264,-0.1723 -0.0747,-0.0782 -0.1329,-0.1787 -0.1758,-0.301 -0.0423,-0.1223 -0.0635,-0.2699 -0.0635,-0.4422 0,-0.1799 0.0218,-0.3333 0.0653,-0.4592 0.0441,-0.1252 0.1041,-0.2275 0.1805,-0.3063 0.0758,-0.0788 0.1652,-0.1358 0.2675,-0.1717 0.1023,-0.0353 0.2117,-0.0529 0.3293,-0.0529 0.0893,0 0.177,0.0094 0.2622,0.0288 0.0858,0.02 0.1576,0.0441 0.2146,0.0723l-0.0929 0.2658c-0.0264,-0.0118 -0.0558,-0.0229 -0.0876,-0.0341 -0.0323,-0.0106 -0.0658,-0.0206 -0.0999,-0.0288 -0.0347,-0.0088 -0.0688,-0.0159 -0.1018,-0.0206 -0.0335,-0.0053 -0.0652,-0.0082 -0.0946,-0.0082 -0.1805,0 -0.3122,0.0582 -0.3946,0.1734 -0.0829,0.1153 -0.124,0.2946 -0.124,0.538 0,0.2423 0.0417,0.4198 0.1246,0.5315 0.0835,0.1123 0.2099,0.1682 0.3799,0.1682 0.0929,0 0.1775,-0.0106 0.2522,-0.0318 0.0753,-0.0217 0.1441,-0.0464 0.2064,-0.0752l0 0.2793c-0.0623,0.0329 -0.1288,0.0582 -0.1993,0.0758 -0.0706,0.0171 -0.157,0.0259 -0.2593,0.0259zm1.6328 0c-0.1159,0 -0.2246,-0.0182 -0.3252,-0.0547 -0.1011,-0.0359 -0.1893,-0.0935 -0.264,-0.1723 -0.0747,-0.0782 -0.1329,-0.1787 -0.1758,-0.301 -0.0423,-0.1223 -0.0635,-0.2699 -0.0635,-0.4422 0,-0.1799 0.0218,-0.3333 0.0653,-0.4592 0.0441,-0.1252 0.1041,-0.2275 0.1805,-0.3063 0.0758,-0.0788 0.1652,-0.1358 0.2675,-0.1717 0.1023,-0.0353 0.2117,-0.0529 0.3293,-0.0529 0.0893,0 0.177,0.0094 0.2622,0.0288 0.0858,0.02 0.1576,0.0441 0.2146,0.0723l-0.0929 0.2658c-0.0264,-0.0118 -0.0558,-0.0229 -0.0876,-0.0341 -0.0323,-0.0106 -0.0658,-0.0206 -0.0999,-0.0288 -0.0347,-0.0088 -0.0688,-0.0159 -0.1018,-0.0206 -0.0335,-0.0053 -0.0652,-0.0082 -0.0946,-0.0082 -0.1805,0 -0.3122,0.0582 -0.3946,0.1734 -0.0829,0.1153 -0.124,0.2946 -0.124,0.538 0,0.2423 0.0417,0.4198 0.1246,0.5315 0.0835,0.1123 0.2099,0.1682 0.3799,0.1682 0.0929,0 0.1775,-0.0106 0.2522,-0.0318 0.0753,-0.0217 0.1441,-0.0464 0.2064,-0.0752l0 0.2793c-0.0623,0.0329 -0.1288,0.0582 -0.1993,0.0758 -0.0706,0.0171 -0.157,0.0259 -0.2593,0.0259z"/>
  </g>
  <rect width="1.411111111111111" x="0.9810874704491797" y="17.09456264775413" fill="none" height="1.411111111111111" id="connector8"/>
  <rect width="1.411111111111111" x="1.281323877068561" y="24.67553191489362" fill="none" height="1.411111111111111" id="connector9"/>
  <rect width="1.411111111111111" x="1.206264775413718" y="32.10638297872341" fill="none" height="1.411111111111111" id="connector10"/>
  <rect width="1.411111111111111" x="47.59278959810875" y="24.45035460992908" fill="none" height="1.411111111111111" id="connector11"/>
 </g>
</svg>
