<?xml version="1.0" encoding="utf-8"?>
<!-- Generator: Adobe Illustrator 16.0.0, SVG Export Plug-In . SVG Version: 6.00 Build 0)  -->
<!DOCTYPE svg PUBLIC "-//W3C//DTD SVG 1.1//EN" "http://www.w3.org/Graphics/SVG/1.1/DTD/svg11.dtd">
<svg version="1.1" id="svg2" xmlns="http://www.w3.org/2000/svg" xmlns:xlink="http://www.w3.org/1999/xlink" x="0px" y="0px"
	 width="58.4px" height="58.5px" viewBox="0 0 58.4 58.5" enable-background="new 0 0 58.4 58.5" xml:space="preserve">
<g id="schematic">
	<g>
		
			<rect id="part_symbol" x="7.6" y="0.45" fill="#FFFFFF" stroke="#000000" stroke-width="0.9002" stroke-linecap="round" width="43.196" height="57.6"/>
		<polyline fill="none" stroke="#000000" stroke-width="0.7" stroke-linecap="round" points="50.799,7.9 39.1,7.9 39.1,39.563 
			40.887,39.563 		"/>
		<line fill="none" stroke="#000000" stroke-width="0.7" stroke-linecap="round" x1="19.666" y1="22.301" x2="16.066" y2="22.301"/>
		<line fill="none" stroke="#000000" stroke-width="0.7" stroke-linecap="round" x1="16.066" y1="22.301" x2="12.466" y2="22.301"/>
		<polygon fill="#FFFFFF" stroke="#000000" stroke-width="0.7" stroke-linecap="round" points="16.066,22.301 12.466,15.101 
			16.066,15.101 19.666,15.101 		"/>
		
			<line fill="none" stroke="#000000" stroke-width="0.45" stroke-linecap="round" x1="16.066" y1="15.101" x2="16.066" y2="22.301"/>
		<polyline id="connector1pin_1_" fill="none" stroke="#000000" stroke-width="0.7" stroke-linecap="round" points="7.76,29.501 
			16.066,29.501 16.066,22.301 		"/>
		<polyline id="connector0pin_1_" fill="none" stroke="#000000" stroke-width="0.7" stroke-linecap="round" points="7.6,7.9 
			16.066,7.9 16.066,15.101 		"/>
		<text transform="matrix(1 0 0 1 3.175 6.2275)" fill="#787878" font-family="'DroidSans'" font-size="2">1</text>
		<text transform="matrix(1 0 0 1 3.175 28.1504)" fill="#787878" font-family="'DroidSans'" font-size="2">2</text>
		<text transform="matrix(1 0 0 1 3.175 49.75)" fill="#787878" font-family="'DroidSans'" font-size="2">3</text>
		<line fill="none" stroke="#000000" stroke-width="0.7" stroke-linecap="round" x1="40.887" y1="34.631" x2="40.887" y2="45.432"/>
		<polyline id="connector1pin_4_" fill="none" stroke="#000000" stroke-width="0.7" stroke-linecap="round" points="40.887,40.878 
			47.387,44.967 47.387,51.102 50.639,51.102 		"/>
		<polyline id="connector1pin_2_" fill="none" stroke="#000000" stroke-width="0.7" stroke-linecap="round" points="50.639,29.5 
			47.387,29.5 47.387,34.631 40.887,38.521 		"/>
		<text transform="matrix(1 0 0 1 53.5422 27.8262)" fill="#787878" font-family="'DroidSans'" font-size="2">5</text>
		<text transform="matrix(1 0 0 1 53.5422 6.2275)" fill="#787878" font-family="'DroidSans'" font-size="2">6</text>
		<text transform="matrix(1 0 0 1 53.5422 49.75)" fill="#787878" font-family="'DroidSans'" font-size="2">4</text>
		<text transform="matrix(1 0 0 1 22.6501 9.54)" font-family="'DroidSans'" font-size="5.5">4N35</text>
		
			<line fill="none" stroke="#000000" stroke-width="0.45" stroke-linecap="round" x1="24.167" y1="19.602" x2="21.827" y2="17.261"/>
		
			<line fill="none" stroke="#000000" stroke-width="0.45" stroke-linecap="round" x1="23.806" y1="22.841" x2="21.466" y2="20.501"/>
		<rect id="connector1terminal_1_" x="16.066" y="29.501" fill="none" width="0.001" height="0.001"/>
		<path d="M23.266,20.138l1.438-1.438l1.08,2.521L23.266,20.138z"/>
		<path d="M22.909,23.378l1.438-1.438l1.08,2.521L22.909,23.378z"/>
		<path d="M43.76,43.839l1.112-1.704l1.577,2.243L43.76,43.839z"/>
		<text transform="matrix(1 0 0 1 10.4138 52.2441)" fill="#787878" font-family="'DroidSans'" font-size="4.5">NC</text>
	</g>
	<g>
		
			<line id="connector1pin" fill="none" stroke="#787878" stroke-width="0.7" stroke-linecap="round" stroke-linejoin="round" x1="0.4" y1="29.5" x2="7.6" y2="29.5"/>
		
			<line id="connector0pin" fill="none" stroke="#787878" stroke-width="0.7" stroke-linecap="round" stroke-linejoin="round" x1="0.4" y1="7.9" x2="7.6" y2="7.9"/>
		<rect id="connector0terminal" x="0.001" y="7.542" fill="none" width="1.216" height="0.708"/>
		<rect id="connector1terminal" x="0.001" y="29.146" fill="none" width="1.216" height="0.708"/>
		<rect id="connector2terminal" x="0.001" y="50.73" fill="none" width="1.216" height="0.708"/>
		<rect id="connector5terminal" x="57.185" y="7.542" fill="none" width="1.216" height="0.708"/>
		<rect id="connector4terminal" x="57.185" y="29.146" fill="none" width="1.216" height="0.708"/>
		<rect id="connector3terminal" x="57.185" y="50.73" fill="none" width="1.216" height="0.708"/>
		
			<line id="connector3pin" fill="none" stroke="#787878" stroke-width="0.7" stroke-linecap="round" stroke-linejoin="round" x1="50.799" y1="51.102" x2="58" y2="51.102"/>
		
			<line id="connector4pin" fill="none" stroke="#787878" stroke-width="0.7" stroke-linecap="round" stroke-linejoin="round" x1="50.799" y1="29.5" x2="58" y2="29.5"/>
		
			<line id="connector5pin" fill="none" stroke="#787878" stroke-width="0.7" stroke-linecap="round" stroke-linejoin="round" x1="50.799" y1="7.9" x2="58" y2="7.9"/>
		
			<line id="connector2pin" fill="none" stroke="#787878" stroke-width="0.7" stroke-linecap="round" stroke-linejoin="round" x1="0.4" y1="51.102" x2="7.6" y2="51.102"/>
	</g>
</g>
</svg>
