<?xml version="1.0" encoding="utf-8"?>
<svg version="1.2" baseProfile="tiny" id="svg2" xmlns="http://www.w3.org/2000/svg" xmlns:xlink="http://www.w3.org/1999/xlink"
	 y="0px" width="1.35in" height="1.143in">


<g id="schematic">	
	<rect id="connector0pin" x="0.75" y="87.833" fill="none" width="12" height="2"/>
	<rect id="connector1pin" x="0.75" y="29.833" fill="none" width="12" height="2"/>
	<rect id="connector2pin" x="0.75" y="58.833" fill="none" width="12" height="2"/>

	<rect id="connector0terminal" x="0.75" y="87.833" fill="none" width="1" height="2"/>
	<rect id="connector1terminal" x="0.75" y="29.833" fill="none" width="1" height="2"/>
	<rect id="connector2terminal" x="0.75" y="58.833" fill="none" width="1" height="2"/>
	<g id="Diagram">
	
		<rect x="24" y="17.833" fill="none" stroke="#000000" stroke-width="2" stroke-linecap="round" stroke-linejoin="round" width="75" height="84"/>
	
		<line fill="#FFFFFF" stroke="#000000" stroke-width="2" stroke-linecap="round" stroke-linejoin="round" x1="24" y1="88.833" x2="1" y2="88.833"/>
	
		<line fill="none" stroke="#000000" stroke-width="2" stroke-linecap="round" stroke-linejoin="round" x1="1" y1="30.833" x2="24" y2="30.833"/>
	
		<line fill="none" stroke="#000000" stroke-width="2" stroke-linecap="round" stroke-linejoin="round" x1="1" y1="59.833" x2="24" y2="59.833"/>
	<g>
		<path fill="#FFFFFF" stroke="#000000" stroke-width="2" stroke-linecap="round" stroke-linejoin="round" d="M119.867,41.336
			c-1.383-3.148-4.733-4.815-7.975-4.205V37.13l-36.491,5.867l0.005,0.011c-1.513,0.211-3.023,0.616-4.492,1.261
			c-8.596,3.775-12.504,13.805-8.729,22.401s13.805,12.504,22.4,8.729c1.469-0.645,2.789-1.484,3.968-2.455l0.005,0.011
			l29.011-22.899l-0.001-0.002C120.21,48.08,121.25,44.485,119.867,41.336z"/>
		
			<circle fill="none" stroke="#000000" stroke-width="2" stroke-linecap="round" stroke-linejoin="round" cx="77.75" cy="59.833" r="9.75"/>
		
			<circle fill="#FFFFFF" stroke="#000000" stroke-width="2" stroke-linecap="round" stroke-linejoin="round" cx="113.229" cy="44.251" r="3.105"/>
	</g>
</g>
<g id="Text">
	<g>
		<path d="M15.138,28.083v-0.972h2.099v-5.732l-1.919,0.755l-0.191-1.007l2.362-0.84h0.863v6.824h1.848v0.972H15.138z"/>
	</g>
	<g>
		<path d="M14.945,56.833v-0.876l1.716-1.69c1.643-1.607,1.931-2.159,1.931-2.915c0-0.815-0.552-1.463-1.547-1.463
			c-0.708,0-1.368,0.3-1.764,0.612l-0.264-0.936c0.588-0.372,1.355-0.636,2.219-0.636c1.703,0,2.53,1.067,2.53,2.243
			c0,1.02-0.371,1.799-1.919,3.263l-1.451,1.379v0.012c0.504-0.012,1.38-0.023,2.471-0.023h1.188v1.031H14.945z"/>
	</g>
	<g>
		<path d="M16.661,85.704c-0.54,0-1.092-0.084-1.487-0.192l0.119-0.971c0.433,0.144,0.936,0.239,1.476,0.239
			c1.308,0,1.991-0.588,1.991-1.439c0-0.852-0.672-1.391-1.943-1.391c-0.432,0-0.768,0.012-1.175,0.06v-0.863h0.275
			c1.679,0,2.687-0.456,2.687-1.439c0-0.708-0.563-1.139-1.475-1.139c-0.66,0-1.224,0.18-1.716,0.444l-0.107-0.948
			c0.563-0.228,1.223-0.396,2.015-0.396c1.607,0,2.423,0.803,2.423,1.871c0,0.924-0.552,1.547-1.487,1.823l-0.012,0.012
			c0.971,0.096,1.69,0.887,1.69,1.823C19.935,84.732,18.651,85.704,16.661,85.704z"/>
	</g>
	<g>
		<path d="M30,89.596v-0.936h6.596v0.936H30z"/>
	</g>
	<g>
		<path d="M30.106,64.025c-0.372,0-0.66-0.013-1.008-0.072v2.962H28.02v-8.923h1.043c0,0.336-0.024,0.876-0.096,1.212l0.024,0.012
			c0.336-0.827,1.056-1.331,2.003-1.331c1.392,0,2.183,0.983,2.183,2.807C33.177,62.813,32.037,64.025,30.106,64.025z M30.73,58.771
			c-1.08,0-1.631,1.26-1.631,2.303v1.968c0.312,0.096,0.648,0.144,1.056,0.144c1.139,0,1.895-0.684,1.895-2.398
			C32.049,59.503,31.629,58.771,30.73,58.771z"/>
		<path d="M38.529,63.953c0-0.359,0.036-0.899,0.096-1.26h-0.024c-0.348,0.816-1.08,1.368-2.099,1.368
			c-1.368,0-1.787-0.852-1.787-1.907v-4.162h1.067v3.838c0,0.852,0.24,1.344,1.02,1.344c0.983,0,1.703-1.008,1.703-2.327v-2.854
			h1.067v5.961H38.529z"/>
		<path d="M41.615,63.953v-8.755h1.079v8.755H41.615z"/>
		<path d="M45.695,64.061c-0.456,0-0.948-0.049-1.319-0.156l0.096-0.96c0.384,0.156,0.875,0.24,1.319,0.24
			c0.768,0,1.295-0.348,1.295-0.911c0-1.344-2.771-0.504-2.771-2.603c0-1.02,0.792-1.787,2.375-1.787
			c0.359,0,0.792,0.048,1.151,0.119l-0.084,0.888c-0.348-0.12-0.768-0.18-1.164-0.18c-0.792,0-1.164,0.336-1.164,0.852
			c0,1.319,2.783,0.563,2.783,2.591C48.213,63.245,47.254,64.061,45.695,64.061z"/>
		<path d="M54.321,60.942h-3.898c-0.048,1.56,0.612,2.243,1.883,2.243c0.576,0,1.175-0.12,1.703-0.359l0.156,0.863
			c-0.6,0.239-1.319,0.372-2.063,0.372c-1.811,0-2.794-0.96-2.794-3.059c0-1.787,0.972-3.118,2.663-3.118
			c1.679,0,2.387,1.139,2.387,2.506C54.357,60.535,54.345,60.703,54.321,60.942z M51.922,58.675c-0.78,0-1.343,0.588-1.463,1.499
			h2.794C53.277,59.263,52.762,58.675,51.922,58.675z"/>
	</g>
	<g>
		<path d="M33.802,32.084v2.41h-1.02v-2.41h-2.278v-0.899h2.278v-2.398h1.02v2.398h2.291v0.899H33.802z"/>
	</g>
	<g>
		<path d="M29.209,12.514c-1.044,0-1.962-0.126-2.737-0.342l0.216-1.873c0.792,0.306,1.674,0.504,2.593,0.504
			c1.278,0,2.376-0.522,2.376-1.854c0-2.557-5.33-1.477-5.33-5.402C26.328,1.458,27.913,0,30.722,0c0.684,0,1.53,0.09,2.196,0.234
			L32.72,1.962c-0.648-0.216-1.369-0.342-2.089-0.342c-1.53,0-2.232,0.685-2.232,1.693c0,2.431,5.383,1.548,5.383,5.383
			C33.782,10.911,31.964,12.514,29.209,12.514z"/>
		<path d="M42.926,8.012h-5.708c-0.054,2.035,0.864,2.953,2.646,2.953c0.864,0,1.765-0.18,2.575-0.541l0.252,1.513
			c-0.937,0.378-2.053,0.576-3.169,0.576c-2.755,0-4.286-1.44-4.286-4.591c0-2.701,1.477-4.718,4.087-4.718
			c2.557,0,3.655,1.747,3.655,3.871C42.98,7.328,42.962,7.634,42.926,8.012z M39.253,4.627c-1.08,0-1.836,0.792-1.999,2.052h3.799
			C41.09,5.401,40.388,4.627,39.253,4.627z"/>
		<path d="M49.729,5.113c-1.783-0.342-2.647,0.9-2.647,3.583v3.637h-1.927V3.385h1.836c0,0.504-0.054,1.296-0.18,1.98h0.036
			c0.396-1.206,1.296-2.323,2.971-2.143L49.729,5.113z"/>
		<path d="M55.561,12.333h-1.962L50.25,3.385h2.125l1.675,4.735c0.216,0.612,0.414,1.243,0.576,1.836h0.018
			c0.144-0.558,0.324-1.188,0.522-1.764l1.71-4.808h2.071L55.561,12.333z"/>
		<path d="M63.805,12.514c-2.485,0-4.105-1.387-4.105-4.538c0-2.701,1.747-4.771,4.466-4.771c2.395,0,4.087,1.333,4.087,4.483
			C68.252,10.443,66.452,12.514,63.805,12.514z M64.003,4.825c-1.17,0-2.305,0.9-2.305,2.953c0,2.017,0.792,3.079,2.287,3.079
			c1.242,0,2.287-0.972,2.287-3.043C66.271,5.906,65.533,4.825,64.003,4.825z"/>
	</g>
</g>
</g>
</svg>
