<?xml version="1.0" encoding="utf-8"?>
<!-- Generator: Adobe Illustrator 16.0.0, SVG Export Plug-In . SVG Version: 6.00 Build 0)  -->
<!DOCTYPE svg PUBLIC "-//W3C//DTD SVG 1.1//EN" "http://www.w3.org/Graphics/SVG/1.1/DTD/svg11.dtd">
<svg version="1.1" id="Layer_1" xmlns:svg="http://www.w3.org/2000/svg"
	 xmlns="http://www.w3.org/2000/svg" xmlns:xlink="http://www.w3.org/1999/xlink" x="0px" y="0px" width="29.875px"
	 height="65.953px" viewBox="0 0 29.875 65.953" enable-background="new 0 0 29.875 65.953" xml:space="preserve">
<g id="schematic">
	
		<rect x="7.776" y="0.576" fill="#FFFFFF" stroke="#000000" stroke-width="0.9" stroke-linecap="round" stroke-linejoin="round" width="21.6" height="64.8"/>
	
		<line id="connector4pin" fill="none" stroke="#787878" stroke-width="0.75" stroke-linecap="round" x1="0.576" y1="7.776" x2="7.776" y2="7.776"/>
	<polygon id="connector4terminal" fill="none" points="0.576,7.776 0.576,7.776 0.576,7.776 	"/>
	<text transform="matrix(1 0 0 1 10.0703 8.6387)" font-family="'DroidSans'" font-size="3.024">VCC</text>
	
		<line id="connector0pin" fill="none" stroke="#787878" stroke-width="0.75" stroke-linecap="round" x1="0.576" y1="14.976" x2="7.776" y2="14.976"/>
	<polygon id="connector0terminal" fill="none" points="0.576,14.976 0.576,14.976 0.576,14.976 	"/>
	<text transform="matrix(1 0 0 1 10.0703 15.8398)" font-family="'DroidSans'" font-size="3.024">GND</text>
	
		<line id="connector5pin" fill="none" stroke="#787878" stroke-width="0.75" stroke-linecap="round" x1="0.576" y1="22.176" x2="7.776" y2="22.176"/>
	<polygon id="connector5terminal" fill="none" points="0.576,22.176 0.576,22.176 0.576,22.176 	"/>
	<text transform="matrix(1 0 0 1 10.0703 23.0381)" font-family="'DroidSans'" font-size="3.024">X</text>
	
		<line id="connector6pin" fill="none" stroke="#787878" stroke-width="0.75" stroke-linecap="round" x1="0.576" y1="29.376" x2="7.776" y2="29.376"/>
	<polygon id="connector6terminal" fill="none" points="0.576,29.376 0.576,29.376 0.576,29.376 	"/>
	<text transform="matrix(1 0 0 1 10.0703 30.2393)" font-family="'DroidSans'" font-size="3.024">Y</text>
	
		<line id="connector7pin" fill="none" stroke="#787878" stroke-width="0.75" stroke-linecap="round" x1="0.576" y1="36.576" x2="7.776" y2="36.576"/>
	<polygon id="connector7terminal" fill="none" points="0.576,36.576 0.576,36.576 0.576,36.576 	"/>
	<text transform="matrix(1 0 0 1 10.0703 37.4385)" font-family="'DroidSans'" font-size="3.024">Z</text>
	
		<line id="connector1pin" fill="none" stroke="#787878" stroke-width="0.75" stroke-linecap="round" x1="0.576" y1="43.775" x2="7.776" y2="43.775"/>
	<rect id="connector1terminal" x="0.576" y="43.775" fill="none" width="0" height="0.002"/>
	<text transform="matrix(1 0 0 1 10.0703 44.6377)" font-family="'DroidSans'" font-size="3.024">GS1</text>
	
		<line id="connector2pin" fill="none" stroke="#787878" stroke-width="0.75" stroke-linecap="round" x1="0.576" y1="50.977" x2="7.776" y2="50.977"/>
	<polygon id="connector2terminal" fill="none" points="0.576,50.977 0.576,50.977 0.576,50.977 	"/>
	<text transform="matrix(1 0 0 1 10.0703 51.8389)" font-family="'DroidSans'" font-size="3.024">GS2</text>
	
		<line id="connector3pin" fill="none" stroke="#787878" stroke-width="0.75" stroke-linecap="round" x1="0.576" y1="58.176" x2="7.776" y2="58.176"/>
	<polygon id="connector3terminal" fill="none" points="0.576,58.176 0.576,58.176 0.576,58.176 	"/>
	<text transform="matrix(1 0 0 1 10.0703 59.0381)" font-family="'DroidSans'" font-size="3.024">SLP</text>
</g>
</svg>
