<?xml version="1.0" encoding="utf-8"?>
<!-- Generator: Adobe Illustrator 16.0.0, SVG Export Plug-In . SVG Version: 6.00 Build 0)  -->
<!DOCTYPE svg PUBLIC "-//W3C//DTD SVG 1.1//EN" "http://www.w3.org/Graphics/SVG/1.1/DTD/svg11.dtd">
<svg version="1.1" id="Layer_1" xmlns:svg="http://www.w3.org/2000/svg"
	 xmlns="http://www.w3.org/2000/svg" xmlns:xlink="http://www.w3.org/1999/xlink" x="0px" y="0px" width="29.51px" height="22.32px"
	 viewBox="0 0 29.51 22.32" enable-background="new 0 0 29.51 22.32" xml:space="preserve">
<g id="schematic">
	<rect x="7.55" y="0.36" fill="#FFFFFF" width="21.6" height="21.6"/>
	<text id="label" transform="matrix(1 0 0 1 13.7275 11.7263)" font-family="'DroidSans'" font-size="4.25">TOUCH</text>
	<line fill="none" stroke="#000000" stroke-width="0.9" stroke-linecap="round" x1="7.55" y1="0.36" x2="29.149" y2="0.36"/>
	<line fill="none" stroke="#000000" stroke-width="0.9" stroke-linecap="round" x1="29.149" y1="0.36" x2="29.149" y2="21.96"/>
	<line fill="none" stroke="#000000" stroke-width="0.9" stroke-linecap="round" x1="29.149" y1="21.96" x2="7.55" y2="21.96"/>
	<line fill="none" stroke="#000000" stroke-width="0.9" stroke-linecap="round" x1="7.55" y1="21.96" x2="7.55" y2="0.36"/>
	
		<line id="connector0pin" fill="none" stroke="#787878" stroke-width="0.75" stroke-linecap="round" x1="0.35" y1="7.56" x2="7.55" y2="7.56"/>
	<polygon id="connector0terminal" fill="none" points="1.13,7.91 0,7.91 0,7.207 1.13,7.191 	"/>
	<text transform="matrix(1 0 0 1 3.2607 6.5105)" fill="#8C8C8C" font-family="'DroidSans'" font-size="2.5">1</text>
	<text transform="matrix(1 0 0 1 9.6484 8.2605)" fill="#787878" font-family="'DroidSans'" font-size="3.5">T1</text>
	
		<line id="connector1pin" fill="none" stroke="#787878" stroke-width="0.75" stroke-linecap="round" x1="0.35" y1="14.76" x2="7.55" y2="14.76"/>
	<polygon id="connector1terminal" fill="none" points="1.067,15.113 0,15.097 0,14.394 1.052,14.41 	"/>
	<text transform="matrix(1 0 0 1 3.2607 13.7107)" fill="#8C8C8C" font-family="'DroidSans'" font-size="2.5">2</text>
	<text transform="matrix(1 0 0 1 9.6484 15.4607)" fill="#787878" font-family="'DroidSans'" font-size="3.5">T2</text>
</g>
</svg>
