<?xml version="1.0" encoding="utf-8"?>
<!-- Generator: Adobe Illustrator 16.0.0, SVG Export Plug-In . SVG Version: 6.00 Build 0)  -->
<!DOCTYPE svg PUBLIC "-//W3C//DTD SVG 1.1//EN" "http://www.w3.org/Graphics/SVG/1.1/DTD/svg11.dtd">
<svg version="1.1" id="Layer_1" xmlns:svg="http://www.w3.org/2000/svg"
	 xmlns="http://www.w3.org/2000/svg" xmlns:xlink="http://www.w3.org/1999/xlink" x="0px" y="0px" width="123.1px" height="43.9px"
	 viewBox="0 0 123.1 43.9" enable-background="new 0 0 123.1 43.9" xml:space="preserve">
<g id="schematic">
	<polygon fill="#FFFFFF" stroke="#000000" stroke-width="0.9" stroke-linecap="round" stroke-linejoin="round" points="86.75,7.551 
		115.55,21.95 86.75,36.35 	"/>
	<line fill="none" stroke="#000000" stroke-width="0.1524" stroke-linecap="round" x1="11.15" y1="12.95" x2="11.15" y2="16.551"/>
	<line fill="none" stroke="#000000" stroke-width="0.1524" stroke-linecap="round" x1="9.35" y1="14.75" x2="12.95" y2="14.75"/>
	<line fill="none" stroke="#000000" stroke-width="0.1524" stroke-linecap="round" x1="9.35" y1="29.15" x2="12.95" y2="29.15"/>
	<line fill="none" stroke="#000000" stroke-width="0.75" stroke-linecap="round" x1="14.75" y1="7.551" x2="14.75" y2="10.934"/>
	<line fill="none" stroke="#000000" stroke-width="0.75" stroke-linecap="round" x1="14.75" y1="33.038" x2="14.75" y2="36.35"/>
	<polygon fill="#FFFFFF" stroke="#000000" stroke-width="0.9" stroke-linecap="round" stroke-linejoin="round" points="7.55,36.35 
		7.55,7.551 36.35,21.95 	"/>
	<line fill="none" stroke="#000000" stroke-width="0.75" stroke-linecap="round" x1="21.95" y1="29.15" x2="21.95" y2="21.95"/>
	<rect x="14.75" y="19.79" width="9.36" height="4.32"/>
	
		<line id="connector1pin" fill="none" stroke="#787878" stroke-width="0.75" stroke-linecap="round" x1="0.35" y1="29.15" x2="7.55" y2="29.15"/>
	<rect id="connector1terminal" x="0.35" y="29.15" fill="none" width="0" height="0"/>
	<text transform="matrix(1 0 0 1 3.2607 28.0994)" fill="#8C8C8C" font-family="'DroidSans'" font-size="2.5">2</text>
	
		<line id="connector2pin" fill="none" stroke="#787878" stroke-width="0.75" stroke-linecap="round" x1="0.35" y1="14.75" x2="7.55" y2="14.75"/>
	<rect id="connector2terminal" x="0.35" y="14.75" fill="none" width="0" height="0.001"/>
	<text transform="matrix(1 0 0 1 3.2607 13.699)" fill="#8C8C8C" font-family="'DroidSans'" font-size="2.5">3</text>
	
		<line id="connector0pin" fill="none" stroke="#787878" stroke-width="0.75" stroke-linecap="round" x1="43.55" y1="21.95" x2="36.35" y2="21.95"/>
	<rect id="connector0terminal" x="43.55" y="21.95" fill="none" width="0" height="0"/>
	<text transform="matrix(1 0 0 1 39.2607 20.9011)" fill="#8C8C8C" font-family="'DroidSans'" font-size="2.5">1</text>
	
		<line id="connector7pin" fill="none" stroke="#787878" stroke-width="0.75" stroke-linecap="round" x1="14.75" y1="0.35" x2="14.75" y2="7.551"/>
	<rect id="connector7terminal" x="14.75" y="0.35" fill="none" width="0" height="0"/>
	<g transform="translate(4.83306,1.39347)">
		<g transform="rotate(270)">
			<text transform="matrix(1 0 0 1 -3.2459 8.8652)" fill="#8C8C8C" font-family="'DroidSans'" font-size="2.5">8</text>
		</g>
	</g>
	
		<line id="connector3pin" fill="none" stroke="#787878" stroke-width="0.75" stroke-linecap="round" x1="14.75" y1="43.551" x2="14.75" y2="36.35"/>
	<rect id="connector3terminal" x="14.75" y="43.551" fill="none" width="0" height="0"/>
	<g transform="translate(4.83306,14.0935)">
		<g transform="rotate(270)">
			<text transform="matrix(1 0 0 1 -26.5459 8.8652)" fill="#8C8C8C" font-family="'DroidSans'" font-size="2.5">4</text>
		</g>
	</g>
	
		<line id="connector8pin" fill="none" stroke="#787878" stroke-width="0.75" stroke-linecap="round" x1="21.95" y1="36.35" x2="21.95" y2="29.15"/>
	<rect id="connector8terminal" x="21.95" y="36.35" fill="none" width="0" height="0"/>
	<g transform="translate(7.37306,11.5535)">
		<g transform="rotate(270)">
			<text transform="matrix(1 0 0 1 -21.8828 13.5273)" fill="#8C8C8C" font-family="'DroidSans'" font-size="2.5">9</text>
		</g>
	</g>
	<line fill="none" stroke="#000000" stroke-width="0.5" stroke-linecap="round" x1="90.351" y1="12.95" x2="90.351" y2="16.551"/>
	<line fill="none" stroke="#000000" stroke-width="0.5" stroke-linecap="round" x1="88.55" y1="14.75" x2="92.149" y2="14.75"/>
	<line fill="none" stroke="#000000" stroke-width="0.5" stroke-linecap="round" x1="88.55" y1="29.15" x2="92.149" y2="29.15"/>
	
		<line id="connector5pin" fill="none" stroke="#787878" stroke-width="0.75" stroke-linecap="round" x1="79.55" y1="29.15" x2="86.75" y2="29.15"/>
	<rect id="connector5terminal" x="79.55" y="29.15" fill="none" width="0" height="0"/>
	<text transform="matrix(1 0 0 1 82.46 28.0994)" fill="#8C8C8C" font-family="'DroidSans'" font-size="2.5">6</text>
	
		<line id="connector4pin" fill="none" stroke="#787878" stroke-width="0.75" stroke-linecap="round" x1="79.55" y1="14.75" x2="86.75" y2="14.75"/>
	<rect id="connector4terminal" x="79.55" y="14.75" fill="none" width="0" height="0.001"/>
	<text transform="matrix(1 0 0 1 82.46 13.699)" fill="#8C8C8C" font-family="'DroidSans'" font-size="2.5">5</text>
	
		<line id="connector6pin" fill="none" stroke="#787878" stroke-width="0.75" stroke-linecap="round" x1="122.75" y1="21.95" x2="115.55" y2="21.95"/>
	<rect id="connector6terminal" x="122.75" y="21.95" fill="none" width="0.001" height="0"/>
	<text transform="matrix(1 0 0 1 118.4609 20.9011)" fill="#8C8C8C" font-family="'DroidSans'" font-size="2.5">7</text>
</g>
</svg>
