<?xml version="1.0" encoding="utf-8"?>
<!-- Generator: Adobe Illustrator 16.0.0, SVG Export Plug-In . SVG Version: 6.00 Build 0)  -->
<!DOCTYPE svg PUBLIC "-//W3C//DTD SVG 1.1//EN" "http://www.w3.org/Graphics/SVG/1.1/DTD/svg11.dtd">
<svg version="1.1" id="Layer_1" xmlns:svg="http://www.w3.org/2000/svg"
	 xmlns="http://www.w3.org/2000/svg" xmlns:xlink="http://www.w3.org/1999/xlink" x="0px" y="0px" width="65.5px" height="58.3px"
	 viewBox="0 0 65.5 58.3" enable-background="new 0 0 65.5 58.3" xml:space="preserve">
<g id="schematic">
	<path fill="#FFFFFF" stroke="#000000" stroke-width="0.9" stroke-linecap="round" stroke-linejoin="round" d="M7.55,7.55v43.2h28.8
		c11.93,0,21.601-9.67,21.601-21.6c0-11.929-9.671-21.6-21.601-21.6H7.55z"/>
	
		<line id="connector1pin" fill="none" stroke="#787878" stroke-width="0.75" stroke-linecap="round" x1="0.35" y1="36.35" x2="7.55" y2="36.35"/>
	<rect id="connector1terminal" x="0.35" y="36.35" fill="none" width="0" height="0.001"/>
	<text transform="matrix(1 0 0 1 3.2617 35.2993)" fill="#8C8C8C" font-family="'DroidSans'" font-size="2.5">2</text>
	
		<line id="connector0pin" fill="none" stroke="#787878" stroke-width="0.75" stroke-linecap="round" x1="0.35" y1="21.95" x2="7.55" y2="21.95"/>
	<rect id="connector0terminal" x="0.35" y="21.95" fill="none" width="0" height="0"/>
	<text transform="matrix(1 0 0 1 3.2617 20.9009)" fill="#8C8C8C" font-family="'DroidSans'" font-size="2.5">1</text>
	
		<line id="connector4pin" fill="none" stroke="#787878" stroke-width="0.75" stroke-linecap="round" x1="29.15" y1="0.35" x2="29.15" y2="7.55"/>
	<rect id="connector4terminal" x="29.15" y="0.35" fill="none" width="0" height="0"/>
	<g transform="translate(9.91306,1.39347)">
		<g transform="rotate(270)">
			<text transform="matrix(1 0 0 1 -3.2457 18.1866)" fill="#8C8C8C" font-family="'DroidSans'" font-size="2.5">5</text>
		</g>
	</g>
	
		<line id="connector2pin" fill="none" stroke="#787878" stroke-width="0.75" stroke-linecap="round" x1="29.15" y1="57.951" x2="29.15" y2="50.75"/>
	<rect id="connector2terminal" x="29.15" y="57.951" fill="none" width="0" height="0"/>
	<g transform="translate(9.91306,19.1735)">
		<g transform="rotate(270)">
			<text transform="matrix(1 0 0 1 -35.8661 18.1866)" fill="#8C8C8C" font-family="'DroidSans'" font-size="2.5">3</text>
		</g>
	</g>
	
		<line id="connector3pin" fill="none" stroke="#787878" stroke-width="0.75" stroke-linecap="round" x1="65.15" y1="29.15" x2="57.95" y2="29.15"/>
	<rect id="connector3terminal" x="65.15" y="29.15" fill="none" width="0" height="0"/>
	<text transform="matrix(1 0 0 1 60.8613 28.1001)" fill="#8C8C8C" font-family="'DroidSans'" font-size="2.5">4</text>
</g>
</svg>
