<?xml version="1.0" encoding="utf-8"?>
<!-- Generator: Adobe Illustrator 16.0.0, SVG Export Plug-In . SVG Version: 6.00 Build 0)  -->
<!DOCTYPE svg PUBLIC "-//W3C//DTD SVG 1.1//EN" "http://www.w3.org/Graphics/SVG/1.1/DTD/svg11.dtd">
<svg version="1.1" id="Layer_1" xmlns:svg="http://www.w3.org/2000/svg"
	 xmlns="http://www.w3.org/2000/svg" xmlns:xlink="http://www.w3.org/1999/xlink" x="0px" y="0px" width="137.5px"
	 height="166.32px" viewBox="0 0 137.5 166.32" enable-background="new 0 0 137.5 166.32" xml:space="preserve">
<g id="schematic">
	<rect x="14.75" y="0.36" fill="#FFFFFF" width="108" height="165.6"/>
	<rect x="14.75" y="0.36" fill="#FFFFFF" width="108" height="165.6"/>
	<rect x="14.75" y="0.36" fill="#FFFFFF" width="108" height="165.6"/>
	<text id="label_5_" transform="matrix(1 0 0 1 67.5791 85.4265)" font-family="'DroidSans'" font-size="4.25">2</text>
	<line fill="none" stroke="#000000" stroke-width="0.9" stroke-linecap="round" x1="14.75" y1="0.36" x2="122.75" y2="0.36"/>
	<line fill="none" stroke="#000000" stroke-width="0.9" stroke-linecap="round" x1="122.75" y1="0.36" x2="122.75" y2="165.96"/>
	<line fill="none" stroke="#000000" stroke-width="0.9" stroke-linecap="round" x1="122.75" y1="165.96" x2="14.75" y2="165.96"/>
	<line fill="none" stroke="#000000" stroke-width="0.9" stroke-linecap="round" x1="14.75" y1="165.96" x2="14.75" y2="0.36"/>
	
		<line id="connector18pin" fill="none" stroke="#787878" stroke-width="0.75" stroke-linecap="round" x1="137.15" y1="158.76" x2="122.75" y2="158.76"/>
	<rect id="connector18terminal" x="137.15" y="158.76" fill="none" width="0" height="0.001"/>
	<text transform="matrix(1 0 0 1 128.5713 157.7097)" fill="#8C8C8C" font-family="'DroidSans'" font-size="2.5">19</text>
	<text transform="matrix(1 0 0 1 106.4717 159.4587)" fill="#787878" font-family="'DroidSans'" font-size="3.5">PB5(SCK)</text>
	
		<line id="connector9pin" fill="none" stroke="#787878" stroke-width="0.75" stroke-linecap="round" x1="0.35" y1="65.16" x2="14.75" y2="65.16"/>
	<rect id="connector9terminal" x="0.35" y="65.16" fill="none" width="0" height="0"/>
	<text transform="matrix(1 0 0 1 6.1738 64.1101)" fill="#8C8C8C" font-family="'DroidSans'" font-size="2.5">10</text>
	<text transform="matrix(1 0 0 1 16.8486 65.8591)" fill="#787878" font-family="'DroidSans'" font-size="3.5">PB7(XTAL2/TOSC2)</text>
	
		<line id="connector8pin" fill="none" stroke="#787878" stroke-width="0.75" stroke-linecap="round" x1="0.35" y1="50.76" x2="14.75" y2="50.76"/>
	<rect id="connector8terminal" x="0.35" y="50.76" fill="none" width="0" height="0"/>
	<text transform="matrix(1 0 0 1 6.8604 49.7097)" fill="#8C8C8C" font-family="'DroidSans'" font-size="2.5">9</text>
	<text transform="matrix(1 0 0 1 16.8486 51.4587)" fill="#787878" font-family="'DroidSans'" font-size="3.5">PB6(XTAL1/TOSC1)</text>
	
		<line id="connector7pin" fill="none" stroke="#787878" stroke-width="0.75" stroke-linecap="round" x1="0.35" y1="122.76" x2="14.75" y2="122.76"/>
	<rect id="connector7terminal" x="0.35" y="122.76" fill="none" width="0" height="0.001"/>
	<text transform="matrix(1 0 0 1 6.8604 121.7087)" fill="#8C8C8C" font-family="'DroidSans'" font-size="2.5">8</text>
	<text transform="matrix(1 0 0 1 16.8486 123.4587)" fill="#787878" font-family="'DroidSans'" font-size="3.5">GND</text>
	
		<line id="connector6pin" fill="none" stroke="#787878" stroke-width="0.75" stroke-linecap="round" x1="0.35" y1="86.76" x2="14.75" y2="86.76"/>
	<rect id="connector6terminal" x="0.35" y="86.76" fill="none" width="0" height="0.001"/>
	<text transform="matrix(1 0 0 1 6.8604 85.7097)" fill="#8C8C8C" font-family="'DroidSans'" font-size="2.5">7</text>
	<text transform="matrix(1 0 0 1 16.8486 87.4597)" fill="#787878" font-family="'DroidSans'" font-size="3.5">VCC</text>
	
		<line id="connector21pin" fill="none" stroke="#787878" stroke-width="0.75" stroke-linecap="round" x1="0.35" y1="129.96" x2="14.75" y2="129.96"/>
	<rect id="connector21terminal" x="0.35" y="129.96" fill="none" width="0" height="0.001"/>
	<text transform="matrix(1 0 0 1 6.1738 128.9109)" fill="#8C8C8C" font-family="'DroidSans'" font-size="2.5">22</text>
	<text transform="matrix(1 0 0 1 16.8486 130.6599)" fill="#787878" font-family="'DroidSans'" font-size="3.5">AGND</text>
	
		<line id="connector20pin" fill="none" stroke="#787878" stroke-width="0.75" stroke-linecap="round" x1="0.35" y1="101.16" x2="14.75" y2="101.16"/>
	<rect id="connector20terminal" x="0.35" y="101.16" fill="none" width="0" height="0"/>
	<text transform="matrix(1 0 0 1 6.1738 100.1101)" fill="#8C8C8C" font-family="'DroidSans'" font-size="2.5">21</text>
	<text transform="matrix(1 0 0 1 16.8486 101.8601)" fill="#787878" font-family="'DroidSans'" font-size="3.5">AREF</text>
	
		<line id="connector19pin" fill="none" stroke="#787878" stroke-width="0.75" stroke-linecap="round" x1="0.35" y1="93.96" x2="14.75" y2="93.96"/>
	<rect id="connector19terminal" x="0.35" y="93.96" fill="none" width="0" height="0.001"/>
	<text transform="matrix(1 0 0 1 6.1738 92.9099)" fill="#8C8C8C" font-family="'DroidSans'" font-size="2.5">20</text>
	<text transform="matrix(1 0 0 1 16.8486 94.6599)" fill="#787878" font-family="'DroidSans'" font-size="3.5">AVCC</text>
	
		<line id="connector17pin" fill="none" stroke="#787878" stroke-width="0.75" stroke-linecap="round" x1="137.15" y1="151.56" x2="122.75" y2="151.56"/>
	<rect id="connector17terminal" x="137.15" y="151.56" fill="none" width="0" height="0"/>
	<text transform="matrix(1 0 0 1 128.5713 150.5095)" fill="#8C8C8C" font-family="'DroidSans'" font-size="2.5">18</text>
	<text transform="matrix(1 0 0 1 103.7803 152.2595)" fill="#787878" font-family="'DroidSans'" font-size="3.5">PB4(MISO)</text>
	
		<line id="connector16pin" fill="none" stroke="#787878" stroke-width="0.75" stroke-linecap="round" x1="137.15" y1="144.36" x2="122.75" y2="144.36"/>
	<rect id="connector16terminal" x="137.15" y="144.36" fill="none" width="0" height="0"/>
	<text transform="matrix(1 0 0 1 128.5713 143.3093)" fill="#8C8C8C" font-family="'DroidSans'" font-size="2.5">17</text>
	<text transform="matrix(1 0 0 1 95.8369 145.0593)" fill="#787878" font-family="'DroidSans'" font-size="3.5">PB3(MOSI/OC2)</text>
	
		<line id="connector15pin" fill="none" stroke="#787878" stroke-width="0.75" stroke-linecap="round" x1="137.15" y1="137.16" x2="122.75" y2="137.16"/>
	<rect id="connector15terminal" x="137.15" y="137.16" fill="none" width="0" height="0"/>
	<text transform="matrix(1 0 0 1 128.5713 136.1091)" fill="#8C8C8C" font-family="'DroidSans'" font-size="2.5">16</text>
	<text transform="matrix(1 0 0 1 98.6768 137.8601)" fill="#787878" font-family="'DroidSans'" font-size="3.5">PB2(SS/OC1B)</text>
	
		<line id="connector14pin" fill="none" stroke="#787878" stroke-width="0.75" stroke-linecap="round" x1="137.15" y1="129.96" x2="122.75" y2="129.96"/>
	<rect id="connector14terminal" x="137.15" y="129.96" fill="none" width="0" height="0.001"/>
	<text transform="matrix(1 0 0 1 128.5713 128.9109)" fill="#8C8C8C" font-family="'DroidSans'" font-size="2.5">15</text>
	<text transform="matrix(1 0 0 1 103.6611 130.6599)" fill="#787878" font-family="'DroidSans'" font-size="3.5">PB1(OC1A)</text>
	
		<line id="connector13pin" fill="none" stroke="#787878" stroke-width="0.75" stroke-linecap="round" x1="137.15" y1="122.76" x2="122.75" y2="122.76"/>
	<rect id="connector13terminal" x="137.15" y="122.76" fill="none" width="0" height="0.001"/>
	<text transform="matrix(1 0 0 1 128.5713 121.7087)" fill="#8C8C8C" font-family="'DroidSans'" font-size="2.5">14</text>
	<text transform="matrix(1 0 0 1 107.1455 123.4587)" fill="#787878" font-family="'DroidSans'" font-size="3.5">PB0(ICP)</text>
	
		<line id="connector12pin" fill="none" stroke="#787878" stroke-width="0.75" stroke-linecap="round" x1="137.15" y1="108.36" x2="122.75" y2="108.36"/>
	<rect id="connector12terminal" x="137.15" y="108.36" fill="none" width="0" height="0"/>
	<text transform="matrix(1 0 0 1 128.5713 107.3093)" fill="#8C8C8C" font-family="'DroidSans'" font-size="2.5">13</text>
	<text transform="matrix(1 0 0 1 104.4111 109.0583)" fill="#787878" font-family="'DroidSans'" font-size="3.5">PD7(AIN1)</text>
	
		<line id="connector11pin" fill="none" stroke="#787878" stroke-width="0.75" stroke-linecap="round" x1="137.15" y1="101.16" x2="122.75" y2="101.16"/>
	<rect id="connector11terminal" x="137.15" y="101.16" fill="none" width="0" height="0"/>
	<text transform="matrix(1 0 0 1 128.5713 100.1101)" fill="#8C8C8C" font-family="'DroidSans'" font-size="2.5">12</text>
	<text transform="matrix(1 0 0 1 104.4111 101.8601)" fill="#787878" font-family="'DroidSans'" font-size="3.5">PD6(AIN0)</text>
	
		<line id="connector10pin" fill="none" stroke="#787878" stroke-width="0.75" stroke-linecap="round" x1="137.15" y1="93.96" x2="122.75" y2="93.96"/>
	<rect id="connector10terminal" x="137.15" y="93.96" fill="none" width="0" height="0.001"/>
	<text transform="matrix(1 0 0 1 128.5713 92.9099)" fill="#8C8C8C" font-family="'DroidSans'" font-size="2.5">11</text>
	<text transform="matrix(1 0 0 1 108.46 94.6599)" fill="#787878" font-family="'DroidSans'" font-size="3.5">PD5(T1)</text>
	
		<line id="connector5pin" fill="none" stroke="#787878" stroke-width="0.75" stroke-linecap="round" x1="137.15" y1="86.76" x2="122.75" y2="86.76"/>
	<rect id="connector5terminal" x="137.15" y="86.76" fill="none" width="0" height="0.001"/>
	<text transform="matrix(1 0 0 1 129.2617 85.7097)" fill="#8C8C8C" font-family="'DroidSans'" font-size="2.5">6</text>
	<text transform="matrix(1 0 0 1 101.1729 87.4597)" fill="#787878" font-family="'DroidSans'" font-size="3.5">PD4(XCK/T0)</text>
	
		<line id="connector4pin" fill="none" stroke="#787878" stroke-width="0.75" stroke-linecap="round" x1="137.15" y1="79.56" x2="122.75" y2="79.56"/>
	<rect id="connector4terminal" x="137.15" y="79.56" fill="none" width="0" height="0"/>
	<text transform="matrix(1 0 0 1 129.2617 78.5095)" fill="#8C8C8C" font-family="'DroidSans'" font-size="2.5">5</text>
	<text transform="matrix(1 0 0 1 104.7236 80.2595)" fill="#787878" font-family="'DroidSans'" font-size="3.5">PD3(INT1)</text>
	
		<line id="connector3pin" fill="none" stroke="#787878" stroke-width="0.75" stroke-linecap="round" x1="137.15" y1="72.36" x2="122.75" y2="72.36"/>
	<rect id="connector3terminal" x="137.15" y="72.36" fill="none" width="0" height="0"/>
	<text transform="matrix(1 0 0 1 129.2617 71.3083)" fill="#8C8C8C" font-family="'DroidSans'" font-size="2.5">4</text>
	<text transform="matrix(1 0 0 1 104.7236 73.0593)" fill="#787878" font-family="'DroidSans'" font-size="3.5">PD2(INT0)</text>
	
		<line id="connector2pin" fill="none" stroke="#787878" stroke-width="0.75" stroke-linecap="round" x1="137.15" y1="65.16" x2="122.75" y2="65.16"/>
	<rect id="connector2terminal" x="137.15" y="65.16" fill="none" width="0" height="0"/>
	<text transform="matrix(1 0 0 1 129.2617 64.1101)" fill="#8C8C8C" font-family="'DroidSans'" font-size="2.5">3</text>
	<text transform="matrix(1 0 0 1 106.0791 65.8591)" fill="#787878" font-family="'DroidSans'" font-size="3.5">PD1(TXD)</text>
	
		<line id="connector1pin" fill="none" stroke="#787878" stroke-width="0.75" stroke-linecap="round" x1="137.15" y1="57.96" x2="122.75" y2="57.96"/>
	<rect id="connector1terminal" x="137.15" y="57.96" fill="none" width="0" height="0.001"/>
	<text transform="matrix(1 0 0 1 129.2617 56.9099)" fill="#8C8C8C" font-family="'DroidSans'" font-size="2.5">2</text>
	<text transform="matrix(1 0 0 1 105.832 58.6609)" fill="#787878" font-family="'DroidSans'" font-size="3.5">PD0(RXD)</text>
	
		<line id="connector27pin" fill="none" stroke="#787878" stroke-width="0.75" stroke-linecap="round" x1="137.15" y1="43.56" x2="122.75" y2="43.56"/>
	<rect id="connector27terminal" x="137.15" y="43.56" fill="none" width="0" height="0"/>
	<text transform="matrix(1 0 0 1 128.5713 42.5095)" fill="#8C8C8C" font-family="'DroidSans'" font-size="2.5">28</text>
	<text transform="matrix(1 0 0 1 97.0107 44.2605)" fill="#787878" font-family="'DroidSans'" font-size="3.5">PC5(ADC5/SCL)</text>
	
		<line id="connector26pin" fill="none" stroke="#787878" stroke-width="0.75" stroke-linecap="round" x1="137.15" y1="36.36" x2="122.75" y2="36.36"/>
	<rect id="connector26terminal" x="137.15" y="36.36" fill="none" width="0" height="0"/>
	<text transform="matrix(1 0 0 1 128.5713 35.3093)" fill="#8C8C8C" font-family="'DroidSans'" font-size="2.5">27</text>
	<text transform="matrix(1 0 0 1 96.3525 37.0583)" fill="#787878" font-family="'DroidSans'" font-size="3.5">PC4(ADC4/SDA)</text>
	
		<line id="connector25pin" fill="none" stroke="#787878" stroke-width="0.75" stroke-linecap="round" x1="137.15" y1="29.16" x2="122.75" y2="29.16"/>
	<rect id="connector25terminal" x="137.15" y="29.16" fill="none" width="0" height="0"/>
	<text transform="matrix(1 0 0 1 128.5713 28.1091)" fill="#8C8C8C" font-family="'DroidSans'" font-size="2.5">26</text>
	<text transform="matrix(1 0 0 1 103.9619 29.8601)" fill="#787878" font-family="'DroidSans'" font-size="3.5">PC3(ADC3)</text>
	
		<line id="connector24pin" fill="none" stroke="#787878" stroke-width="0.75" stroke-linecap="round" x1="137.15" y1="21.96" x2="122.75" y2="21.96"/>
	<rect id="connector24terminal" x="137.15" y="21.96" fill="none" width="0" height="0.001"/>
	<text transform="matrix(1 0 0 1 128.5713 20.9099)" fill="#8C8C8C" font-family="'DroidSans'" font-size="2.5">25</text>
	<text transform="matrix(1 0 0 1 103.9619 22.6599)" fill="#787878" font-family="'DroidSans'" font-size="3.5">PC2(ADC2)</text>
	
		<line id="connector23pin" fill="none" stroke="#787878" stroke-width="0.75" stroke-linecap="round" x1="137.15" y1="14.76" x2="122.75" y2="14.76"/>
	<rect id="connector23terminal" x="137.15" y="14.76" fill="none" width="0" height="0"/>
	<text transform="matrix(1 0 0 1 128.5713 13.7087)" fill="#8C8C8C" font-family="'DroidSans'" font-size="2.5">24</text>
	<text transform="matrix(1 0 0 1 103.9619 15.4587)" fill="#787878" font-family="'DroidSans'" font-size="3.5">PC1(ADC1)</text>
	
		<line id="connector22pin" fill="none" stroke="#787878" stroke-width="0.75" stroke-linecap="round" x1="137.15" y1="7.56" x2="122.75" y2="7.56"/>
	<rect id="connector22terminal" x="137.15" y="7.56" fill="none" width="0" height="0"/>
	<text transform="matrix(1 0 0 1 128.5713 6.5105)" fill="#8C8C8C" font-family="'DroidSans'" font-size="2.5">23</text>
	<text transform="matrix(1 0 0 1 103.9619 8.2605)" fill="#787878" font-family="'DroidSans'" font-size="3.5">PC0(ADC0)</text>
	
		<line id="connector0pin" fill="none" stroke="#787878" stroke-width="0.75" stroke-linecap="round" x1="0.35" y1="7.56" x2="14.75" y2="7.56"/>
	<rect id="connector0terminal" x="0.35" y="7.56" fill="none" width="0" height="0"/>
	<text transform="matrix(1 0 0 1 6.8604 6.5105)" fill="#8C8C8C" font-family="'DroidSans'" font-size="2.5">1</text>
	<text transform="matrix(1 0 0 1 16.8486 8.2605)" fill="#787878" font-family="'DroidSans'" font-size="3.5">PC6(/RESET)</text>
	<text id="label_1_" transform="matrix(1 0 0 1 66.4092 76.3601)" font-family="'DroidSans'" font-size="4.25">23</text>
	<text id="label_2_" transform="matrix(1 0 0 1 65.6592 80.8923)" font-family="'DroidSans'" font-size="4.25">I/O</text>
</g>
</svg>
