<?xml version="1.0" encoding="utf-8"?>
<!-- Generator: Adobe Illustrator 16.0.0, SVG Export Plug-In . SVG Version: 6.00 Build 0)  -->
<!DOCTYPE svg PUBLIC "-//W3C//DTD SVG 1.1//EN" "http://www.w3.org/Graphics/SVG/1.1/DTD/svg11.dtd">
<svg version="1.1" id="Layer_1" xmlns:svg="http://www.w3.org/2000/svg"
	 xmlns="http://www.w3.org/2000/svg" xmlns:xlink="http://www.w3.org/1999/xlink" x="0px" y="0px" width="37.07px"
	 height="44.641px" viewBox="0 0 37.07 44.641" enable-background="new 0 0 37.07 44.641" xml:space="preserve">
<g id="schematic">
	<rect x="7.55" y="0.72" fill="#FFFFFF" width="28.802" height="43.199"/>
	<text transform="matrix(1 0 0 1 17.3762 20.052)" font-family="'DroidSans'" font-size="4.25">MICRO</text>
	<text transform="matrix(1 0 0 1 18.6262 24.5872)" font-family="'DroidSans'" font-size="4.25">PLUG</text>
	<line fill="none" stroke="#000000" stroke-width="0.9" stroke-linecap="round" x1="7.55" y1="0.72" x2="7.55" y2="43.92"/>
	<line fill="none" stroke="#000000" stroke-width="0.9" stroke-linecap="round" x1="7.55" y1="43.92" x2="36.35" y2="43.92"/>
	<line fill="none" stroke="#000000" stroke-width="0.9" stroke-linecap="round" x1="36.35" y1="43.92" x2="36.35" y2="0.72"/>
	<line fill="none" stroke="#000000" stroke-width="0.9" stroke-linecap="round" x1="36.35" y1="0.72" x2="7.55" y2="0.72"/>
	
		<line id="connector0pin" fill="none" stroke="#787878" stroke-width="0.75" stroke-linecap="round" x1="0.35" y1="7.92" x2="7.55" y2="7.92"/>
	<rect id="connector0terminal" x="0.35" y="7.92" fill="none" width="0" height="0.001"/>
	<text transform="matrix(1 0 0 1 3.2615 6.8694)" fill="#8C8C8C" font-family="'DroidSans'" font-size="2.5">1</text>
	<text transform="matrix(1 0 0 1 9.6497 8.6194)" fill="#787878" font-family="'DroidSans'" font-size="3.5">V</text>
	<text transform="matrix(1 0 0 1 11.5671 8.6194)" fill="#787878" font-family="'DroidSans'" font-size="3.5">C</text>
	<text transform="matrix(1 0 0 1 13.6082 8.6194)" fill="#787878" font-family="'DroidSans'" font-size="3.5">C</text>
	
		<line id="connector1pin" fill="none" stroke="#787878" stroke-width="0.75" stroke-linecap="round" x1="0.35" y1="15.12" x2="7.55" y2="15.12"/>
	<polygon id="connector1terminal" fill="none" points="0.35,15.12 0.35,15.12 0.35,15.12 	"/>
	<text transform="matrix(1 0 0 1 3.2615 14.0706)" fill="#8C8C8C" font-family="'DroidSans'" font-size="2.5">2</text>
	<text transform="matrix(1 0 0 1 9.6497 15.8206)" fill="#787878" font-family="'DroidSans'" font-size="3.5">D-</text>
	
		<line id="connector2pin" fill="none" stroke="#787878" stroke-width="0.75" stroke-linecap="round" x1="0.35" y1="22.32" x2="7.55" y2="22.32"/>
	<polygon id="connector2terminal" fill="none" points="0.35,22.32 0.35,22.32 0.35,22.32 	"/>
	<text transform="matrix(1 0 0 1 3.2615 21.2698)" fill="#8C8C8C" font-family="'DroidSans'" font-size="2.5">3</text>
	<text transform="matrix(1 0 0 1 9.6497 23.0198)" fill="#787878" font-family="'DroidSans'" font-size="3.5">D+</text>
	
		<line id="connector3pin" fill="none" stroke="#787878" stroke-width="0.75" stroke-linecap="round" x1="0.35" y1="29.52" x2="7.55" y2="29.52"/>
	<polygon id="connector3terminal" fill="none" points="0.35,29.52 0.35,29.52 0.35,29.52 	"/>
	<text transform="matrix(1 0 0 1 3.2615 28.469)" fill="#8C8C8C" font-family="'DroidSans'" font-size="2.5">4</text>
	<text transform="matrix(1 0 0 1 9.6497 30.219)" fill="#787878" font-family="'DroidSans'" font-size="3.5">ID</text>
	
		<line id="connector4pin" fill="none" stroke="#787878" stroke-width="0.75" stroke-linecap="round" x1="0.35" y1="36.72" x2="7.55" y2="36.72"/>
	<polygon id="connector4terminal" fill="none" points="0.35,36.72 0.35,36.72 0.35,36.72 	"/>
	<text transform="matrix(1 0 0 1 3.2615 35.6702)" fill="#8C8C8C" font-family="'DroidSans'" font-size="2.5">5</text>
	<text transform="matrix(1 0 0 1 9.6497 37.4202)" fill="#787878" font-family="'DroidSans'" font-size="3.5">GND</text>
</g>
</svg>
