<?xml version="1.0" encoding="utf-8"?>
<!-- Generator: Adobe Illustrator 16.0.0, SVG Export Plug-In . SVG Version: 6.00 Build 0)  -->
<!DOCTYPE svg PUBLIC "-//W3C//DTD SVG 1.1//EN" "http://www.w3.org/Graphics/SVG/1.1/DTD/svg11.dtd">
<svg version="1.1"
	 id="svg2" xmlns:rdf="http://www.w3.org/1999/02/22-rdf-syntax-ns#" xmlns:cc="http://creativecommons.org/ns#" xmlns:dc="http://purl.org/dc/elements/1.1/" xmlns:svg="http://www.w3.org/2000/svg" xmlns:inkscape="http://www.inkscape.org/namespaces/inkscape" xmlns:sodipodi="http://sodipodi.sourceforge.net/DTD/sodipodi-0.dtd" sodipodi:docname="spdt-switch.svg" inkscape:output_extension="org.inkscape.output.svg.inkscape" sodipodi:version="0.32" inkscape:version="0.46"
	 xmlns="http://www.w3.org/2000/svg" xmlns:xlink="http://www.w3.org/1999/xlink" x="0px" y="0px" width="28.8px" height="62.817px"
	 viewBox="0 0 28.8 62.817" enable-background="new 0 0 28.8 62.817" xml:space="preserve">
<defs>
	
	
		<inkscape:perspective  sodipodi:type="inkscape:persp3d" inkscape:vp_y="0 : 1000 : 0" inkscape:vp_x="0 : 31.5 : 1" inkscape:vp_z="36 : 31.5 : 1" id="perspective25" inkscape:persp3d-origin="18 : 21 : 1">
		</inkscape:perspective>
</defs>
<sodipodi:namedview  inkscape:cy="31.5" inkscape:cx="18" inkscape:zoom="7.8412698" gridtolerance="10.0" borderopacity="1.0" guidetolerance="10.0" bordercolor="#666666" pagecolor="#ffffff" objecttolerance="10.0" showgrid="false" id="base" inkscape:current-layer="svg2" inkscape:window-y="25" inkscape:window-x="100" inkscape:window-height="728" inkscape:pageopacity="0.0" inkscape:pageshadow="2" inkscape:window-width="645">
	</sodipodi:namedview>
<g id="schematic">
	<path id="path2400" d="M7.104,20c0,1.162-0.942,2.104-2.104,2.104S2.896,21.162,2.896,20l0,0c0-1.162,0.942-2.104,2.104-2.104
		S7.104,18.838,7.104,20z"/>
	
		<line id="line2398" fill="none" stroke="#000000" stroke-width="2.2284" stroke-linecap="round" x1="5" y1="1.233" x2="5" y2="19.289"/>
	
		<line id="line14" fill="none" stroke="#000000" stroke-width="2.2284" stroke-linecap="round" x1="16.578" y1="44.006" x2="16.578" y2="61.91"/>
	
		<line id="line18" fill="none" stroke="#000000" stroke-width="2.2" stroke-linecap="round" x1="16.578" y1="44.006" x2="8.5" y2="21.295"/>
	<path id="path2402" d="M27.105,20c0,1.162-0.943,2.104-2.105,2.104S22.896,21.162,22.896,20s0.941-2.104,2.104-2.104
		S27.105,18.838,27.105,20L27.105,20z"/>
	<rect id="connector1terminal" x="16.128" y="62.131" width="0.867" height="0.687"/>
	<rect id="connector1pin" x="15.649" y="52.418" width="1.894" height="9.781"/>
	<rect id="connector0terminal" x="4.5" y="1.017" width="0.867" height="0.684"/>
	<rect id="connector2terminal" x="24.5" y="1.017" width="0.867" height="0.684"/>
	<rect id="connector2pin" x="24" y="1.7" width="1.894" height="9.783"/>
	
		<line id="line16" fill="none" stroke="#000000" stroke-width="2.2284" stroke-linecap="round" x1="25" y1="1.233" x2="25" y2="19.289"/>
	<rect id="connector0pin" x="4" y="1.7" width="1.893" height="9.783"/>
</g>
</svg>
