<?xml version="1.0" encoding="utf-8"?>
<!-- Generator: Adobe Illustrator 16.0.0, SVG Export Plug-In . SVG Version: 6.00 Build 0)  -->
<!DOCTYPE svg PUBLIC "-//W3C//DTD SVG 1.1//EN" "http://www.w3.org/Graphics/SVG/1.1/DTD/svg11.dtd">
<svg version="1.1"
	xmlns:svg="http://www.w3.org/2000/svg" xmlns="http://www.w3.org/2000/svg" x="0px" y="0px" width="51.083px"
	 height="51.176px" viewBox="0 0 51.083 51.176" enable-background="new 0 0 51.083 51.176" xml:space="preserve">
<g id="schematic">
	
		<rect id="part_symbol" x="7.6" y="0.5" fill="#FFFFFF" stroke="#000000" stroke-width="0.7796" stroke-linecap="round" width="43.2" height="43.2"/>
	<text transform="matrix(1 0 0 1 3.175 27.6863)" fill="#787878" font-family="'DroidSans'" font-size="2">C</text>
	<path fill="none" stroke="#000000" stroke-width="0.45" stroke-linecap="round" stroke-linejoin="round" d="
		M7.6,29.289h5.219V27.75c0.781,0,1.415-0.635,1.415-1.415S13.6,24.92,12.819,24.92c0.781,0,1.415-0.632,1.415-1.415
		c0-0.781-0.634-1.415-1.415-1.415c0.781,0,1.415-0.634,1.415-1.415S13.6,19.26,12.819,19.26c0.781,0,1.415-0.634,1.415-1.415
		S13.6,16.43,12.819,16.43h-0.068v-1.54H7.6"/>
	<path id="path3892_3_" fill="none" stroke="#000000" stroke-width="0.45" stroke-linecap="round" stroke-linejoin="round" d="
		M12.75,22.089H7.6"/>
	
		<line id="connector2pin" fill="none" stroke="#787878" stroke-width="0.7" stroke-linecap="round" stroke-linejoin="round" x1="0.4" y1="29.3" x2="7.6" y2="29.3"/>
	
		<line id="connector1pin" fill="none" stroke="#787878" stroke-width="0.7" stroke-linecap="round" stroke-linejoin="round" x1="0.4" y1="22.099" x2="7.6" y2="22.099"/>
	
		<line id="connector0pin" fill="none" stroke="#787878" stroke-width="0.7" stroke-linecap="round" stroke-linejoin="round" x1="0.4" y1="14.9" x2="7.6" y2="14.9"/>
	<path id="path3892_1_" fill="none" stroke="#000000" stroke-width="0.45" stroke-linecap="round" stroke-linejoin="round" d="
		M36.401,43.7v-5.219h-1.539c0-0.781-0.635-1.415-1.415-1.415c-0.779,0-1.415,0.634-1.415,1.415c0-0.781-0.632-1.415-1.414-1.415
		c-0.781,0-1.416,0.634-1.416,1.415c0-0.781-0.634-1.415-1.415-1.415s-1.415,0.634-1.415,1.415c0-0.781-0.634-1.415-1.415-1.415
		s-1.415,0.634-1.415,1.415v0.068h-1.54v5.15"/>
	<path id="path3892_4_" fill="none" stroke="#000000" stroke-width="0.45" stroke-linecap="round" stroke-linejoin="round" d="
		M29.2,38.55v5.15"/>
	
		<line id="connector5pin" fill="none" stroke="#787878" stroke-width="0.7" stroke-linecap="round" stroke-linejoin="round" x1="36.401" y1="50.9" x2="36.401" y2="43.7"/>
	
		<line id="connector4pin" fill="none" stroke="#787878" stroke-width="0.7" stroke-linecap="round" stroke-linejoin="round" x1="29.2" y1="50.9" x2="29.2" y2="43.7"/>
	<rect id="connector0terminal" x="0" y="14.519" fill="none" width="1.144" height="0.719"/>
	<rect id="connector1terminal" x="0" y="21.754" fill="none" width="1.144" height="0.719"/>
	<rect id="connector2terminal" x="0" y="28.941" fill="none" width="1.144" height="0.719"/>
	<rect id="connector3terminal" x="21.623" y="50.031" fill="none" width="0.719" height="1.145"/>
	<rect id="connector4terminal" x="28.858" y="50.031" fill="none" width="0.719" height="1.145"/>
	<rect id="connector5terminal" x="36.045" y="50.031" fill="none" width="0.719" height="1.145"/>
	<text transform="matrix(1 0 0 1 3.175 13.3611)" fill="#787878" font-family="'DroidSans'" font-size="2">A</text>
	<text transform="matrix(1 0 0 1 3.175 20.5603)" fill="#787878" font-family="'DroidSans'" font-size="2">0</text>
	<text transform="matrix(1 0 0 1 33.675 48.4783)" fill="#787878" font-family="'DroidSans'" font-size="2">D</text>
	<text transform="matrix(1 0 0 1 19.092 48.4783)" fill="#787878" font-family="'DroidSans'" font-size="2">B</text>
	<text transform="matrix(1 0 0 1 26.2922 48.4783)" fill="#787878" font-family="'DroidSans'" font-size="2">0</text>
	<text transform="matrix(1 0 0 1 15.3713 9.7195)" font-family="'DroidSans'" font-size="5.5">ROB-08420</text>
	<path fill="none" stroke="#000000" stroke-width="0.45" d="M38.701,22.099c0,5.244-4.256,9.5-9.5,9.5c-5.244,0-9.5-4.256-9.5-9.5
		c0-5.242,4.257-9.5,9.5-9.5C34.445,12.599,38.701,16.857,38.701,22.099z"/>
	
		<line id="connector3pin" fill="none" stroke="#787878" stroke-width="0.7" stroke-linecap="round" stroke-linejoin="round" x1="22" y1="50.9" x2="22" y2="43.7"/>
</g>
</svg>
