<?xml version="1.0" encoding="utf-8"?>
<!-- Generator: Adobe Illustrator 16.0.0, SVG Export Plug-In . SVG Version: 6.00 Build 0)  -->
<!DOCTYPE svg PUBLIC "-//W3C//DTD SVG 1.1//EN" "http://www.w3.org/Graphics/SVG/1.1/DTD/svg11.dtd">
<svg version="1.1" id="Layer_1" xmlns:svg="http://www.w3.org/2000/svg"
	 xmlns="http://www.w3.org/2000/svg" xmlns:xlink="http://www.w3.org/1999/xlink" x="0px" y="0px" width="36.584px"
	 height="21.321px" viewBox="0 0 36.584 21.321" enable-background="new 0 0 36.584 21.321" xml:space="preserve">
<g id="schematic">
	
		<line fill="none" stroke="#000000" stroke-width="0.9" stroke-linecap="round" stroke-linejoin="round" x1="18" y1="19.926" x2="21.601" y2="16.326"/>
	
		<line fill="none" stroke="#000000" stroke-width="0.9" stroke-linecap="round" stroke-linejoin="round" x1="21.601" y1="16.326" x2="25.2" y2="19.926"/>
	
		<line fill="none" stroke="#000000" stroke-width="0.9" stroke-linecap="round" stroke-linejoin="round" x1="25.2" y1="19.926" x2="28.8" y2="19.926"/>
	
		<line fill="none" stroke="#000000" stroke-width="0.9" stroke-linecap="round" stroke-linejoin="round" x1="28.8" y1="12.726" x2="18" y2="12.726"/>
	
		<line fill="none" stroke="#000000" stroke-width="0.9" stroke-linecap="round" stroke-linejoin="round" x1="18" y1="12.726" x2="14.4" y2="16.326"/>
	
		<line fill="none" stroke="#000000" stroke-width="0.9" stroke-linecap="round" stroke-linejoin="round" x1="14.4" y1="16.326" x2="10.8" y2="12.726"/>
	
		<line fill="none" stroke="#000000" stroke-width="0.9" stroke-linecap="round" stroke-linejoin="round" x1="28.8" y1="5.527" x2="7.2" y2="5.527"/>
	<rect y="10.567" width="14.4" height="4.319"/>
	
		<line id="connector0pin" fill="none" stroke="#787878" stroke-width="0.75" stroke-linecap="round" x1="36" y1="12.726" x2="28.8" y2="12.726"/>
	<rect id="connector0terminal" x="36" y="12.726" fill="none" width="0.001" height="0.001"/>
	<text transform="matrix(1 0 0 1 25.7002 11.0022)" font-family="'DroidSans'" font-size="3.024">RIGHT</text>
	
		<line id="connector3pin" fill="none" stroke="#787878" stroke-width="0.75" stroke-linecap="round" x1="36" y1="19.926" x2="28.8" y2="19.926"/>
	<rect id="connector3terminal" x="36" y="19.926" fill="none" width="0.001" height="0"/>
	<text transform="matrix(1 0 0 1 25.7002 18.2034)" font-family="'DroidSans'" font-size="3.024">LEFT</text>
	
		<line id="connector2pin" fill="none" stroke="#787878" stroke-width="0.75" stroke-linecap="round" x1="36" y1="5.527" x2="28.8" y2="5.527"/>
	<rect id="connector2terminal" x="36" y="5.527" fill="none" width="0.001" height="0"/>
	<text transform="matrix(1 0 0 1 25.7002 3.802)" font-family="'DroidSans'" font-size="3.024">SLEEVE</text>
</g>
</svg>
