<?xml version="1.0" encoding="utf-8"?>
<!-- Generator: Adobe Illustrator 15.1.0, SVG Export Plug-In . SVG Version: 6.00 Build 0)  -->
<!DOCTYPE svg PUBLIC "-//W3C//DTD SVG 1.1//EN" "http://www.w3.org/Graphics/SVG/1.1/DTD/svg11.dtd">
<svg version="1.1" id="svg2" xmlns:xml="http://www.w3.org/XML/1998/namespace"
	 xmlns="http://www.w3.org/2000/svg" xmlns:xlink="http://www.w3.org/1999/xlink" x="0px" y="0px" width="17.002px"
	 height="43.199px" viewBox="0 0 17.002 43.199" enable-background="new 0 0 17.002 43.199" xml:space="preserve">
<g id="schematic">
	<polyline fill="none" stroke="#000000" stroke-width="0.7" stroke-linecap="round" points="10.375,36.001 10.375,34.559 
		7.494,32.4 13.974,28.799 7.494,25.199 13.974,21.6 7.494,18 13.974,14.4 7.494,10.8 10.375,8.64 10.375,7.2 	"/>
	
		<line id="connector0pin_2_" fill="none" stroke="#787878" stroke-width="0.7" stroke-linecap="round" x1="10.375" y1="43.199" x2="10.375" y2="36.001"/>
	<path id="connector0terminal_2_" fill="none" d="M10.375,43.199L10.375,43.199L10.375,43.199z"/>
	<g transform="translate(0.9906,14.0462)">
		<g transform="rotate(270)">
			<text transform="matrix(1 0 0 1 -26.394 7.8698)" fill="#787878" font-family="'Droid Sans'" font-size="2">1</text>
		</g>
	</g>
	
		<line id="connector1pin_2_" fill="none" stroke="#787878" stroke-width="0.7" stroke-linecap="round" x1="10.375" y1="0" x2="10.375" y2="7.2"/>
	<path id="connector1terminal_2_" fill="none" d="M10.375,0L10.375,0L10.375,0z"/>
	<g transform="translate(0.9906,1.3462)">
		<g transform="rotate(270)">
			<text transform="matrix(1 0 0 1 -3.094 7.8698)" fill="#787878" font-family="'Droid Sans'" font-size="2">2</text>
		</g>
	</g>
</g>
<g>
	<g>
		<polyline fill="none" stroke="#000000" stroke-width="0.7" stroke-linecap="round" points="4.125,19.59 16.563,26.898 
			16.563,37.167 		"/>
	</g>
</g>
<rect id="connector1pin" x="9.396" y="0.685" fill="none" width="1.895" height="7"/>
<rect id="connector1terminal" x="9.874" y="0" fill="none" width="0.867" height="0.686"/>
<rect id="connector0pin" x="9.399" y="35.584" fill="none" width="1.893" height="7"/>
<rect id="connector0terminal" x="9.878" y="42.514" fill="none" width="0.867" height="0.686"/>
</svg>
