<?xml version="1.0" encoding="utf-8"?>
<!-- Generator: Adobe Illustrator 16.0.0, SVG Export Plug-In . SVG Version: 6.00 Build 0)  -->
<svg version="1.2" baseProfile="tiny" id="Layer_1" xmlns:svg="http://www.w3.org/2000/svg"
	 xmlns="http://www.w3.org/2000/svg" xmlns:xlink="http://www.w3.org/1999/xlink" x="0px" y="0px" width="346.773px"
	 height="373.58px" viewBox="0 0 346.773 373.58" xml:space="preserve">
<g id="schematic">
	<g id="g3349" transform="translate(-364.49953,-5.1233531)">
		<text id="text6034-82-5" transform="matrix(1 0 0 1 659.7063 141.087)" font-family="'DroidSans'" font-size="10">XIN</text>
		<text id="text6034-1" transform="matrix(1 0 0 1 402.0218 272.9141)" font-family="'DroidSans'" font-size="10">P1.5</text>
		<text id="text6034-0" transform="matrix(1 0 0 1 402.0218 299.4883)" font-family="'DroidSans'" font-size="10">P2.0</text>
		<text id="text6034-6" transform="matrix(1 0 0 1 402.0218 326.0635)" font-family="'DroidSans'" font-size="10">P2.1</text>
		<text id="text6034-7" transform="matrix(1 0 0 1 402.0218 352.6378)" font-family="'DroidSans'" font-size="10">P2.2</text>
		<text id="text6034-27" transform="matrix(1 0 0 1 402.0218 166.6143)" font-family="'DroidSans'" font-size="10">P1.1 (TXD)</text>
		<text id="text6034-67" transform="matrix(1 0 0 1 402.0218 140.0401)" font-family="'DroidSans'" font-size="10">P1.0 (LED1)</text>
		<text id="text6034-08" transform="matrix(1 0 0 1 402.0218 193.1895)" font-family="'DroidSans'" font-size="10">P1.2 (RXD)</text>
		<text id="text6034-03" transform="matrix(1 0 0 1 402.0218 219.7637)" font-family="'DroidSans'" font-size="10">P1.3 (S2)</text>
		<text id="text6034-71" transform="matrix(1 0 0 1 402.0218 246.3389)" font-family="'DroidSans'" font-size="10">P1.4</text>
		<g id="text6034-2-0">
			<text transform="matrix(1 0 0 1 650.9895 168.4532)" font-family="'DroidSans'" font-size="10">X</text>
			<text transform="matrix(1 0 0 1 656.2571 168.4532)" font-family="'DroidSans'" font-size="10">O</text>
			<text transform="matrix(1 0 0 1 663.679 168.4532)" font-family="'DroidSans'" font-size="10">U</text>
			<text transform="matrix(1 0 0 1 670.6614 168.4532)" font-family="'DroidSans'" font-size="10">T</text>
		</g>
		<text id="text6034-89-9" transform="matrix(1 0 0 1 652.2258 115.3038)" font-family="'DroidSans'" font-size="10">GND</text>
		<text id="text6034-5-2" transform="matrix(1 0 0 1 652.4055 195.0284)" font-family="'DroidSans'" font-size="10">TEST</text>
		<text id="text6034-57-8" transform="matrix(1 0 0 1 656.9758 221.6026)" font-family="'DroidSans'" font-size="10">RST</text>
		<text id="text6034-27-5" transform="matrix(1 0 0 1 653.7981 274.752)" font-family="'DroidSans'" font-size="10">P1.6</text>
		<text id="text6034-67-1" transform="matrix(1 0 0 1 653.7981 248.1778)" font-family="'DroidSans'" font-size="10">P1.7</text>
		<text id="text6034-08-2" transform="matrix(1 0 0 1 653.7981 301.3272)" font-family="'DroidSans'" font-size="10">P2.5</text>
		<text id="text6034-03-1" transform="matrix(1 0 0 1 653.7981 327.9024)" font-family="'DroidSans'" font-size="10">P2.4</text>
		<text id="text6034-71-8" transform="matrix(1 0 0 1 653.7981 354.4766)" font-family="'DroidSans'" font-size="10">P2.3</text>
		<text id="text4976" transform="matrix(1 0 0 1 454.2293 78.6905)" font-family="'DroidSans'" font-size="18">TI Launchpad MSP430</text>
	</g>
	<g id="g3265">
		
			<rect id="rect6160" x="29.625" y="0.833" fill="none" stroke="#000000" stroke-width="1.533" stroke-linecap="round" width="291.023" height="372.049"/>
		
			<line id="line6166-0-9-1-8" fill="none" stroke="#000000" stroke-width="2.6" stroke-linecap="round" x1="3.05" y1="105.832" x2="29.625" y2="105.832"/>
		
			<line id="line6166-0-20-4-9" fill="none" stroke="#000000" stroke-width="2.6" stroke-linecap="round" x1="3.05" y1="132.407" x2="29.625" y2="132.407"/>
		
			<line id="line6166-0-1-8-8" fill="none" stroke="#000000" stroke-width="2.6" stroke-linecap="round" x1="3.05" y1="158.983" x2="29.625" y2="158.983"/>
		
			<line id="line6166-0-2-2-5-4" fill="none" stroke="#000000" stroke-width="2.6" stroke-linecap="round" x1="3.05" y1="185.557" x2="29.625" y2="185.557"/>
		
			<line id="line6166-0-7-6-1-2" fill="none" stroke="#000000" stroke-width="2.6" stroke-linecap="round" x1="3.05" y1="212.132" x2="29.625" y2="212.132"/>
		
			<line id="line6166-0-5-4-9-6" fill="none" stroke="#000000" stroke-width="2.6" stroke-linecap="round" x1="3.05" y1="238.706" x2="29.625" y2="238.706"/>
		
			<line id="line6166-0-0-7-9-8" fill="none" stroke="#000000" stroke-width="2.6" stroke-linecap="round" x1="3.05" y1="265.281" x2="29.625" y2="265.281"/>
		
			<line id="line6166-0-73-9-6-7" fill="none" stroke="#000000" stroke-width="2.6" stroke-linecap="round" x1="3.05" y1="291.857" x2="29.625" y2="291.857"/>
		
			<line id="line6166-0-9-3-7-8" fill="none" stroke="#000000" stroke-width="2.6" stroke-linecap="round" x1="3.05" y1="318.431" x2="29.625" y2="318.431"/>
		
			<line id="line6166-0-20-2-9-5" fill="none" stroke="#000000" stroke-width="2.6" stroke-linecap="round" x1="3.05" y1="345.008" x2="29.625" y2="345.008"/>
		
			<line id="line6166-0-9-1-8-1" fill="none" stroke="#000000" stroke-width="2.6" stroke-linecap="round" x1="320.648" y1="107.133" x2="347.222" y2="107.133"/>
		
			<line id="line6166-0-20-4-9-6" fill="none" stroke="#000000" stroke-width="2.6" stroke-linecap="round" x1="320.648" y1="133.707" x2="347.222" y2="133.707"/>
		
			<line id="line6166-0-1-8-8-9" fill="none" stroke="#000000" stroke-width="2.6" stroke-linecap="round" x1="320.648" y1="160.282" x2="347.222" y2="160.282"/>
		
			<line id="line6166-0-2-2-5-4-1" fill="none" stroke="#000000" stroke-width="2.6" stroke-linecap="round" x1="320.648" y1="186.857" x2="347.222" y2="186.857"/>
		
			<line id="line6166-0-7-6-1-2-2" fill="none" stroke="#000000" stroke-width="2.6" stroke-linecap="round" x1="320.648" y1="213.432" x2="347.222" y2="213.432"/>
		
			<line id="line6166-0-5-4-9-6-1" fill="none" stroke="#000000" stroke-width="2.6" stroke-linecap="round" x1="320.648" y1="240.007" x2="347.222" y2="240.007"/>
		
			<line id="line6166-0-0-7-9-8-4" fill="none" stroke="#000000" stroke-width="2.6" stroke-linecap="round" x1="320.648" y1="266.581" x2="347.222" y2="266.581"/>
		
			<line id="line6166-0-73-9-6-7-6" fill="none" stroke="#000000" stroke-width="2.6" stroke-linecap="round" x1="320.648" y1="293.156" x2="347.222" y2="293.156"/>
		
			<line id="line6166-0-9-3-7-8-0" fill="none" stroke="#000000" stroke-width="2.6" stroke-linecap="round" x1="320.648" y1="319.731" x2="347.222" y2="319.731"/>
		
			<line id="line6166-0-20-2-9-5-7" fill="none" stroke="#000000" stroke-width="2.6" stroke-linecap="round" x1="320.648" y1="346.306" x2="347.222" y2="346.306"/>
		<rect x="333.833" y="207.493" fill="none" width="5" height="5"/>
		<rect x="7.764" y="155.736" fill="none" width="5" height="5"/>
		<rect x="333.833" y="179.889" fill="none" width="5" height="5"/>
		<rect x="6.038" y="129.858" fill="none" width="5" height="5"/>
		<rect x="6.038" y="102.253" fill="none" width="5" height="5"/>
		<rect x="332.108" y="155.736" fill="none" width="5" height="5"/>
		<rect x="335.558" y="129.858" fill="none" width="5" height="5"/>
		<rect x="335.558" y="102.253" fill="none" width="5" height="5"/>
		<rect x="-2.588" y="342.061" fill="none" width="5" height="5"/>
		<rect x="2.588" y="314.457" fill="none" width="5" height="5"/>
		<rect x="328.658" y="342.061" fill="none" width="5" height="5"/>
		<rect x="2.588" y="288.579" fill="none" width="5" height="5"/>
		<rect id="connector3" x="0.863" y="262.7" fill="none" width="5" height="5"/>
		<rect x="335.558" y="314.457" fill="none" width="5" height="5"/>
		<rect x="2.588" y="233.371" fill="none" width="5" height="5"/>
		<rect x="332.108" y="288.579" fill="none" width="5" height="5"/>
		<rect x="4.313" y="209.219" fill="none" width="5" height="5"/>
		<rect x="330.382" y="259.25" fill="none" width="5" height="5"/>
		<rect x="6.038" y="183.34" fill="none" width="5" height="5"/>
		<rect x="330.382" y="235.097" fill="none" width="5" height="5"/>
	</g>
	<rect id="connector15terminal" x="344.355" y="213.431" fill="none" width="0.002" height="0.002"/>
	<rect id="connector7terminal" x="3.388" y="159.382" fill="none" width="0.002" height="0.002"/>
	<rect id="connector16terminal" x="343.208" y="185.827" fill="none" width="0.002" height="0.002"/>
	<rect id="connector8terminal" x="3.955" y="132.358" fill="none" width="0.002" height="0.002"/>
	<rect id="connector17terminal" x="344.921" y="159.382" fill="none" width="0.002" height="0.002"/>
	<rect id="connector9terminal" x="2.809" y="107.045" fill="none" width="0.002" height="0.002"/>
	<rect id="connector18terminal" x="344.934" y="133.503" fill="none" width="0.002" height="0.002"/>
	<rect id="connector19terminal" x="344.934" y="107.045" fill="none" width="0.002" height="0.002"/>
	<rect id="connector0terminal" x="4.496" y="344.561" fill="none" width="0.002" height="0.002"/>
	<rect id="connector1terminal" x="3.942" y="318.104" fill="none" width="0.002" height="0.002"/>
	<rect id="connector10terminal" x="341.471" y="346.853" fill="none" width="0.002" height="0.002"/>
	<rect id="connector2terminal" x="2.796" y="292.225" fill="none" width="0.002" height="0.002"/>
	<rect id="connector11terminal" x="342.642" y="319.249" fill="none" width="0.002" height="0.004"/>
	<rect id="connector4terminal" x="2.796" y="238.163" fill="none" width="0.002" height="0.002"/>
	<rect id="connector12terminal" x="342.63" y="293.371" fill="none" width="0.002" height="0.002"/>
	<rect id="connector5terminal" x="3.375" y="211.719" fill="none" width="0.002" height="0.002"/>
	<rect id="connector13terminal" x="343.197" y="266.334" fill="none" width="0.002" height="0.002"/>
	<rect id="connector6terminal" x="2.809" y="184.694" fill="none" width="0.002" height="0.002"/>
	<rect id="connector14terminal" x="344.342" y="239.889" fill="none" width="0.004" height="0.002"/>
	<rect id="connector15" x="321.324" y="212.222" fill="none" width="25.531" height="2.418"/>
	<rect id="connector7" x="3.05" y="157.54" fill="none" width="25.589" height="2.625"/>
	<rect id="connector16" x="321.324" y="185.602" fill="none" width="25.449" height="2.464"/>
	<rect id="connector8" x="2.809" y="131.165" fill="none" width="25.829" height="2.25"/>
	<rect id="connector17" x="321.324" y="158.991" fill="none" width="25.449" height="2.5"/>
	<rect id="connector9" x="3.05" y="104.545" fill="none" width="25.589" height="2.5"/>
	<rect id="connector18" x="321.324" y="132.358" fill="none" width="25.449" height="2.559"/>
	<rect id="connector19" x="321.719" y="105.79" fill="none" width="25.715" height="2.667"/>
	<rect id="connector0" x="1.996" y="343.54" fill="none" width="26.891" height="2.625"/>
	<rect id="connector1" x="3.05" y="316.957" fill="none" width="25.837" height="2.5"/>
	<rect id="connector10" x="321.324" y="344.957" fill="none" width="25.898" height="2.558"/>
	<rect id="connector2" x="2.884" y="290.415" fill="none" width="26.003" height="2.5"/>
	<rect id="connector11" x="321.324" y="318.522" fill="none" width="25.898" height="2.418"/>
	<rect id="connector4" x="2.588" y="237.415" fill="none" width="26.049" height="2.5"/>
	<rect id="connector12" x="321.324" y="291.902" fill="none" width="25.898" height="2.463"/>
	
		<rect id="connector5" x="2.588" y="210.666" transform="matrix(-1 -0.0015 0.0015 -1 30.8982 424.1063)" fill="none" width="26.049" height="2.75"/>
	<rect id="connector13" x="321.324" y="265.29" fill="none" width="25.898" height="2.501"/>
	<rect id="connector6" x="3.05" y="183.915" fill="none" width="25.589" height="2.875"/>
	<rect id="connector14" x="321.324" y="238.563" fill="none" width="25.518" height="2.652"/>
</g>
</svg>
