<?xml version="1.0" encoding="utf-8"?>
<svg version="1.2" baseProfile="tiny" id="svg2" xmlns="http://www.w3.org/2000/svg" xmlns:xlink="http://www.w3.org/1999/xlink"
	 x="0px" y="0px" width="0.40in" height="0.33in" viewBox="0 0 40 33" xml:space="preserve">

<rect id="connector0pin" x="3.5" y="28.66" fill="#8C8C8C" width="3" height="4.34"/>
<rect id="connector1pin" x="13.5" y="28.66" fill="#8C8C8C" width="3" height="4.34"/>
<rect id="connector2pin" x="23.5" y="28.66" fill="#8C8C8C" width="3" height="4.34"/>
<rect id="connector3pin" x="33.5" y="28.66" fill="#8C8C8C" width="3" height="4.34"/>
<rect id="connector4pin" x="33.5" fill="#8C8C8C" width="3" height="4.34"/>
<rect id="connector5pin" x="23.5" fill="#8C8C8C" width="3" height="4.34"/>
<rect id="connector6pin" x="13.5" fill="#8C8C8C" width="3" height="4.34"/>
<rect id="connector7pin" x="3.5" fill="#8C8C8C" width="3" height="4.34"/>
<rect id="connector0terminal" x="3.5" y="30" fill="#8C8C8C" width="3" height="3"/>
<rect id="connector1terminal" x="13.5" y="30" fill="#8C8C8C" width="3" height="3"/>
<rect id="connector2terminal" x="23.5" y="30" fill="#8C8C8C" width="3" height="3"/>
<rect id="connector3terminal" x="33.5" y="30" fill="#8C8C8C" width="3" height="3"/>
<rect id="connector4terminal" x="33.5" fill="#8C8C8C" width="3" height="3"/>
<rect id="connector5terminal" x="23.5" fill="#8C8C8C" width="3" height="3"/>
<rect id="connector6terminal" x="13.5" fill="#8C8C8C" width="3" height="3"/>
<rect id="connector7terminal" x="3.5" fill="#8C8C8C" width="3" height="3"/>
<g id="breadboard">
	<rect x="3.5" y="26.32" fill="#8C8C8C" width="3" height="6.68"/>
	<rect x="13.5" y="26.32" fill="#8C8C8C" width="3" height="6.68"/>
	<rect x="23.5" y="26.32" fill="#8C8C8C" width="3" height="6.68"/>
	<rect x="33.5" y="26.32" fill="#8C8C8C" width="3" height="6.68"/>
	<rect x="3.5" fill="#8C8C8C" width="3" height="6.68"/>
	<rect x="13.5" fill="#8C8C8C" width="3" height="6.68"/>
	<rect x="23.5" fill="#8C8C8C" width="3" height="6.68"/>
	<rect x="33.5" fill="#8C8C8C" width="3" height="6.68"/>
	<polygon fill="#3D3D3D" points="0,3 40,3 39.25,11.5 0,11.5 	"/>
	<polygon points="0,21.5 39.25,21.5 40,30 0,30 	"/>
	<polygon fill="#8C8C8C" points="8.5,4.34 8.5,3.26 6.5,2.34 3.5,2.34 3.5,4.34 	"/>
	<polygon fill="#8C8C8C" points="18.5,4.34 18.5,3.26 16.5,2.34 13.5,2.34 11.5,3.26 11.5,4.34 	"/>
	<polygon fill="#8C8C8C" points="36.5,4.34 36.5,2.34 33.5,2.34 31.5,3.26 31.5,4.34 	"/>
	<polygon fill="#8C8C8C" points="28.5,4.34 28.5,3.26 26.5,2.34 23.5,2.34 21.5,3.26 21.5,4.34 	"/>
	<polygon fill="#8C8C8C" points="3.5,28.66 3.5,30.66 6.5,30.66 8.5,29.74 8.5,28.66 	"/>
	<polygon fill="#8C8C8C" points="31.5,28.66 31.5,29.74 33.5,30.66 36.5,30.66 36.5,28.66 	"/>
	<polygon fill="#8C8C8C" points="11.5,28.66 11.5,29.74 13.5,30.66 16.5,30.66 18.5,29.74 18.5,28.66 	"/>
	<polygon fill="#8C8C8C" points="21.5,28.66 21.5,29.74 23.5,30.66 26.5,30.66 28.5,29.74 28.5,28.66 	"/>
	<polygon fill="#141414" points="40,3 39.25,5.46 37.853,5.46 37.853,27.53 39.25,27.54 40,30 	"/>
	<polygon fill="#1F1F1F" points="0,3 0.75,5.46 0.75,11.5 5,11.5 5,21.5 0.75,21.5 0.75,27.54 0,30 	"/>
	<polygon fill="#1C1C1C" points="5,11.5 0.75,11.46 0.56,13.58 0.56,16.49 5,16.49 	"/>
	<polygon fill="#383838" points="0.75,21.55 5,21.55 5,16.49 0.56,16.49 0.56,19.42 	"/>
	<path fill="#303030" d="M0.75,5.46v5.99c2.38,0.45,4.19,2.53,4.19,5.04c0,2.51-1.8,4.6-4.19,5.05v5.99h38.5V5.46H0.75z"/>
	<path fill="#262626" d="M0.56,13.58v5.83c1.47-0.17,2.62-1.4,2.62-2.92C3.18,14.97,2.04,13.75,0.56,13.58z"/>
	<circle fill="#212121" cx="6.5" cy="23.47" r="2.06"/>
	<g>
		<path fill="#665E55" d="M10.09,14.369v-0.875h3.5v-0.875h-3.5V9.994h5.25v0.875h-3.5v0.875h2.625v0.875h0.875v0.875h-0.875v0.875
			H10.09z"/>
		<path fill="#665E55" d="M16.215,14.369v-0.875h3.5v-0.875h-3.5V9.994h5.25v0.875h-3.5v0.875h2.625v0.875h0.875v0.875H20.59v0.875
			H16.215z"/>
		<path fill="#665E55" d="M22.339,14.369v-0.875h3.5v-0.875h-3.5V9.994h5.25v0.875h-3.5v0.875h2.625v0.875h0.875v0.875h-0.875v0.875
			H22.339z"/>
	</g>
</g>
</svg>
