<?xml version="1.0" encoding="utf-8"?>
<!DOCTYPE svg PUBLIC "-//W3C//DTD SVG 1.1 Basic//EN" "http://www.w3.org/Graphics/SVG/1.1/DTD/svg11-basic.dtd">
<svg version="1.1" baseProfile="basic" id="svg" xmlns:xml="http://www.w3.org/XML/1998/namespace"
	 xmlns="http://www.w3.org/2000/svg" xmlns:xlink="http://www.w3.org/1999/xlink" x="0px" y="0px" width="0.481in"
	 height="0.735in" viewBox="0 0 34.632 52.92" xml:space="preserve">
<rect id="connector9pin" x="1.911" y="0.006" fill="none" width="2.152" height="3.141"/>
<rect id="connector9terminal" x="1.911" y="1.135" fill="none" width="2.152" height="0.397"/>
<rect id="connector8pin" x="9.07" y="0.006" fill="none" width="2.153" height="3.141"/>
<rect id="connector8terminal" x="9.07" y="1.135" fill="none" width="2.153" height="0.397"/>
<rect id="connector7pin" x="16.27" y="0.006" fill="none" width="2.151" height="3.141"/>
<rect id="connector7terminal" x="16.27" y="1.135" fill="none" width="2.151" height="0.397"/>
<rect id="connector6pin" x="23.43" y="0.006" fill="none" width="2.151" height="3.141"/>
<rect id="connector6terminal" x="23.43" y="1.135" fill="none" width="2.151" height="0.397"/>
<rect id="connector5pin" x="30.58" y="0.006" fill="none" width="2.15" height="3.141"/>
<rect id="connector5terminal" x="30.58" y="1.135" fill="none" width="2.15" height="0.397"/>
<rect id="connector4pin" x="30.57" y="49.78" fill="none" width="2.151" height="3.14"/>
<rect id="connector4terminal" x="30.57" y="51.386" fill="none" width="2.151" height="0.396"/>
<rect id="connector3pin" x="23.4" y="49.78" fill="none" width="2.15" height="3.14"/>
<rect id="connector3terminal" x="23.4" y="51.386" fill="none" width="2.15" height="0.396"/>
<rect id="connector2pin" x="16.211" y="49.78" fill="none" width="2.15" height="3.14"/>
<rect id="connector2terminal" x="16.211" y="51.386" fill="none" width="2.15" height="0.396"/>
<rect id="connector1pin" x="9.05" y="49.78" fill="none" width="2.153" height="3.14"/>
<rect id="connector1terminal" x="9.05" y="51.386" fill="none" width="2.153" height="0.396"/>
<rect id="connector0pin" x="1.911" y="49.78" fill="none" width="2.152" height="3.14"/>
<rect id="connector0terminal" x="1.911" y="51.386" fill="none" width="2.152" height="0.396"/>
<g id="breadboard">
	<g>
		<path fill="#919191" d="M1.911,2.294c0,0.469,0.381,0.851,0.849,0.851h0.457c0.466,0,0.848-0.382,0.848-0.851v-1.44
			c0-0.466-0.382-0.853-0.848-0.853H2.758c-0.467,0-0.849,0.387-0.849,0.853L1.911,2.294L1.911,2.294z"/>
		<path fill="#919191" d="M11.212,0.853c0-0.467-0.381-0.852-0.849-0.852H9.929c-0.466,0-0.848,0.387-0.848,0.853v1.437
			c0,0.471,0.381,0.853,0.848,0.853h0.437c0.467,0,0.849-0.382,0.849-0.853L11.212,0.853L11.212,0.853z"/>
		<path fill="#919191" d="M16.269,2.294c0,0.469,0.383,0.851,0.849,0.851h0.457c0.463,0,0.846-0.382,0.846-0.851v-1.44
			c0-0.466-0.383-0.853-0.846-0.853h-0.457c-0.466,0-0.849,0.387-0.849,0.853V2.294z"/>
		<path fill="#919191" d="M25.572,0.853c0-0.467-0.383-0.852-0.854-0.852H24.28c-0.469,0-0.852,0.387-0.852,0.853v1.437
			c0,0.471,0.383,0.853,0.852,0.853h0.438c0.471,0,0.854-0.382,0.854-0.853V0.853z"/>
		<path fill="#919191" d="M32.721,0.853C32.721,0.386,32.339,0,31.873,0h-0.438c-0.466,0-0.854,0.386-0.854,0.853V2.29
			c0,0.469,0.388,0.853,0.854,0.853h0.438c0.467,0,0.854-0.384,0.854-0.853V0.853H32.721z"/>
	</g>
	<g>
		<path fill="#919191" d="M32.721,50.63c0-0.469-0.382-0.854-0.851-0.854h-0.455c-0.465,0-0.854,0.387-0.854,0.854v1.438
			c0,0.471,0.389,0.854,0.854,0.854h0.455c0.469,0,0.851-0.383,0.851-0.854V50.63z"/>
		<path fill="#919191" d="M23.419,52.069c0,0.469,0.384,0.851,0.848,0.851h0.438c0.476,0,0.854-0.382,0.854-0.851v-1.438
			c0-0.468-0.384-0.85-0.854-0.85h-0.438c-0.467,0-0.85,0.382-0.85,0.85L23.419,52.069L23.419,52.069z"/>
		<path fill="#919191" d="M18.362,50.63c0-0.469-0.382-0.854-0.85-0.854h-0.457c-0.466,0-0.849,0.387-0.849,0.854v1.438
			c0,0.471,0.382,0.854,0.849,0.854h0.457c0.468,0,0.85-0.383,0.85-0.854V50.63z"/>
		<path fill="#919191" d="M9.061,52.069c0,0.469,0.381,0.851,0.849,0.851h0.436c0.467,0,0.849-0.382,0.849-0.851v-1.438
			c0-0.468-0.382-0.85-0.849-0.85H9.909c-0.467,0-0.849,0.382-0.849,0.85L9.061,52.069L9.061,52.069z"/>
		<path fill="#919191" d="M1.911,52.069c0,0.469,0.381,0.851,0.849,0.851h0.437c0.467,0,0.848-0.382,0.848-0.851v-1.438
			c0-0.468-0.381-0.85-0.848-0.85H2.758c-0.467,0-0.849,0.382-0.849,0.85L1.911,52.069L1.911,52.069z"/>
	</g>
	<g>
		<rect x="0.002" y="1.572" fill="#ADADAD" width="34.626" height="49.774"/>
		<g>
			<g>
				<path fill="#FF034B" d="M25.759,9.143l-1.807,14.696l1.553,1.772l1.986-1.768l1.805-14.697c0.142-1.142-0.193-2.172-0.854-2.917
					L25.634,8.73C25.731,8.837,25.783,8.984,25.759,9.143z"/>
				<path fill="#FF034B" d="M11.474,8.555h13.77c0.154,0,0.301,0.065,0.396,0.18l2.809-2.502C27.794,5.485,26.816,5.02,25.68,5.02
					H11.909c-1.14,0-2.227,0.468-3.065,1.213l2.193,2.502C11.158,8.62,11.312,8.555,11.474,8.555z"/>
				<polygon fill="#FF034B" points="9.004,23.844 7.02,25.612 8.572,27.38 23.523,27.38 23.523,27.38 25.505,25.612 23.957,23.844 
									"/>
				<path fill="#FF034B" d="M23.523,27.38l-1.809,14.697c-0.021,0.16-0.104,0.311-0.229,0.416l2.188,2.502
					c0.845-0.746,1.436-1.777,1.568-2.918L27.05,27.38l-1.549-1.77L23.523,27.38z"/>
				<path fill="#FF034B" d="M21.052,42.672H7.284c-0.16,0-0.298-0.062-0.395-0.178L4.08,44.997c0.656,0.746,1.63,1.211,2.768,1.211
					h13.772c1.144,0,2.227-0.465,3.062-1.211l-2.19-2.503C21.371,42.603,21.214,42.672,21.052,42.672z"/>
				<path fill="#FF034B" d="M6.767,42.079l1.805-14.697l-1.551-1.77L5.035,27.38L3.229,42.079c-0.141,1.143,0.197,2.172,0.852,2.918
					l2.809-2.502C6.795,42.39,6.747,42.239,6.767,42.079z"/>
				<path fill="#FF034B" d="M9.004,23.844L9.004,23.844L10.81,9.148c0.02-0.16,0.104-0.312,0.227-0.417L8.844,6.229
					c-0.839,0.748-1.43,1.777-1.568,2.917L5.468,23.843l1.552,1.769L9.004,23.844z"/>
				<circle fill="#FF034B" cx="29.328" cy="43.724" r="2.103"/>
			</g>
			<g opacity="0.29">
				<path fill="#4D4D4D" d="M28.38,6.889c0.397,0.627,0.568,1.395,0.473,2.203L27.07,23.621l-1.52,1.353l-1.119-1.271l1.777-14.495
					c0.021-0.123,0.012-0.247-0.021-0.362L28.38,6.889 M28.447,6.229l-2.809,2.5c0.094,0.104,0.146,0.258,0.123,0.417l-1.805,14.697
					l1.551,1.769l1.986-1.768l1.805-14.696C29.438,8.008,29.103,6.976,28.447,6.229L28.447,6.229z"/>
				<path fill="#4D4D4D" d="M25.675,5.468c0.811,0,1.544,0.262,2.109,0.742l-2.195,1.957c-0.107-0.042-0.229-0.062-0.353-0.062
					H11.474c-0.115,0-0.229,0.021-0.338,0.058L9.489,6.285c0.726-0.526,1.568-0.814,2.418-0.814L25.675,5.468 M25.675,5.017H11.908
					c-1.14,0-2.227,0.466-3.065,1.21l2.193,2.504c0.122-0.106,0.277-0.179,0.438-0.179H25.24c0.158,0,0.303,0.065,0.396,0.179
					l2.806-2.504C27.791,5.481,26.818,5.017,25.675,5.017L25.675,5.017z"/>
				<path fill="#4D4D4D" d="M23.751,24.295l1.123,1.278l-1.521,1.356H8.775l-1.121-1.276l1.522-1.355L23.751,24.295 M23.957,23.844
					H9.005l-1.984,1.768l1.551,1.768h14.949l1.984-1.768L23.957,23.844L23.957,23.844z"/>
				<path fill="#4D4D4D" d="M25.466,26.252l1.121,1.272l-1.781,14.498c-0.104,0.854-0.49,1.654-1.1,2.312L22.06,42.46
					c0.051-0.104,0.084-0.221,0.102-0.334l1.784-14.525L25.466,26.252 M25.505,25.612l-1.98,1.768l-1.811,14.697
					c-0.021,0.16-0.104,0.312-0.229,0.416l2.188,2.504c0.844-0.748,1.435-1.777,1.565-2.92L27.05,27.38L25.505,25.612L25.505,25.612
					z"/>
				<path fill="#4D4D4D" d="M6.935,43.06c0.11,0.043,0.229,0.062,0.349,0.062h13.772c0.113,0,0.229-0.021,0.34-0.059l1.643,1.877
					c-0.729,0.522-1.562,0.812-2.418,0.812H6.849c-0.808,0-1.541-0.267-2.112-0.744L6.935,43.06 M21.492,42.495
					c-0.121,0.104-0.271,0.178-0.438,0.178H7.285c-0.16,0-0.298-0.062-0.395-0.178l-2.809,2.502c0.656,0.746,1.63,1.211,2.768,1.211
					h13.771c1.145,0,2.226-0.465,3.062-1.211L21.492,42.495L21.492,42.495z"/>
				<path fill="#4D4D4D" d="M6.981,26.252l1.121,1.272L6.321,42.022c-0.016,0.117-0.008,0.24,0.02,0.354l-2.194,1.955
					c-0.403-0.628-0.567-1.395-0.469-2.203l1.784-14.527L6.981,26.252 M7.02,25.612L5.035,27.38L3.229,42.079
					c-0.141,1.143,0.197,2.172,0.852,2.918l2.809-2.502c-0.095-0.105-0.145-0.256-0.124-0.416l1.805-14.697L7.02,25.612L7.02,25.612
					z"/>
				<path fill="#4D4D4D" d="M8.818,6.884l1.643,1.873c-0.05,0.104-0.083,0.222-0.098,0.333L8.579,23.622l-1.52,1.353l-1.121-1.271
					L7.72,9.199C7.825,8.351,8.21,7.542,8.818,6.884 M8.842,6.229c-0.838,0.748-1.43,1.777-1.568,2.917L5.467,23.842l1.553,1.769
					l1.985-1.768l1.806-14.697c0.02-0.159,0.105-0.312,0.227-0.416L8.842,6.229L8.842,6.229z"/>
				<path fill="#4D4D4D" d="M29.328,42.069c0.91,0,1.652,0.742,1.652,1.647c0,0.912-0.742,1.652-1.652,1.652
					c-0.912,0-1.654-0.74-1.654-1.652C27.673,42.813,28.416,42.069,29.328,42.069 M29.328,41.621c-1.162,0-2.103,0.937-2.103,2.103
					c0,1.161,0.94,2.104,2.103,2.104c1.164,0,2.104-0.938,2.104-2.104C31.431,42.56,30.492,41.621,29.328,41.621L29.328,41.621z"/>
			</g>
		</g>
	</g>
</g>
</svg>
