<?xml version='1.0' encoding='UTF-8' standalone='no'?>
<!-- Created with Fritzing (http://www.fritzing.org/) -->
<svg xmlns="http://www.w3.org/2000/svg" width="0.7in" x="0in" version="1.2" y="0in" height="1.3in" viewBox="0 0 50.4 93.6" baseProfile="tiny">
 <desc >Fritzing breadboard generated by brd2svg</desc>
 <g  id="breadboard" stroke-width="0">
  <g  id="icon" stroke-width="0">
   <path  fill="#147390" stroke="none" stroke-width="0" d="M0,0L0,93.6L50.4,93.6L50.4,0L0,0M41.76,3.6a1.44,1.44,0,1,1,2.88,0,1.44,1.44,0,1,1,-2.88,0zM34.56,3.6a1.44,1.44,0,1,1,2.88,0,1.44,1.44,0,1,1,-2.88,0zM27.36,3.6a1.44,1.44,0,1,1,2.88,0,1.44,1.44,0,1,1,-2.88,0zM20.16,3.6a1.44,1.44,0,1,1,2.88,0,1.44,1.44,0,1,1,-2.88,0zM12.96,3.6a1.44,1.44,0,1,1,2.88,0,1.44,1.44,0,1,1,-2.88,0zM5.76,3.6a1.44,1.44,0,1,1,2.88,0,1.44,1.44,0,1,1,-2.88,0zM37.44,43.2a1.44,1.44,0,1,1,2.88,0,1.44,1.44,0,1,1,-2.88,0zM37.44,36a1.44,1.44,0,1,1,2.88,0,1.44,1.44,0,1,1,-2.88,0zM45.36,10.8a1.44,1.44,0,1,1,2.88,0,1.44,1.44,0,1,1,-2.88,0zM45.36,18a1.44,1.44,0,1,1,2.88,0,1.44,1.44,0,1,1,-2.88,0zM45.36,25.2a1.44,1.44,0,1,1,2.88,0,1.44,1.44,0,1,1,-2.88,0zM45.36,32.4a1.44,1.44,0,1,1,2.88,0,1.44,1.44,0,1,1,-2.88,0zM45.36,39.6a1.44,1.44,0,1,1,2.88,0,1.44,1.44,0,1,1,-2.88,0zM45.36,46.8a1.44,1.44,0,1,1,2.88,0,1.44,1.44,0,1,1,-2.88,0zM45.36,54a1.44,1.44,0,1,1,2.88,0,1.44,1.44,0,1,1,-2.88,0zM45.36,61.2a1.44,1.44,0,1,1,2.88,0,1.44,1.44,0,1,1,-2.88,0zM45.36,68.4a1.44,1.44,0,1,1,2.88,0,1.44,1.44,0,1,1,-2.88,0zM45.36,75.6a1.44,1.44,0,1,1,2.88,0,1.44,1.44,0,1,1,-2.88,0zM45.36,82.8a1.44,1.44,0,1,1,2.88,0,1.44,1.44,0,1,1,-2.88,0zM45.36,90a1.44,1.44,0,1,1,2.88,0,1.44,1.44,0,1,1,-2.88,0zM2.16,90a1.44,1.44,0,1,1,2.88,0,1.44,1.44,0,1,1,-2.88,0zM2.16,82.8a1.44,1.44,0,1,1,2.88,0,1.44,1.44,0,1,1,-2.88,0zM2.16,75.6a1.44,1.44,0,1,1,2.88,0,1.44,1.44,0,1,1,-2.88,0zM2.16,68.4a1.44,1.44,0,1,1,2.88,0,1.44,1.44,0,1,1,-2.88,0zM2.16,61.2a1.44,1.44,0,1,1,2.88,0,1.44,1.44,0,1,1,-2.88,0zM2.16,54a1.44,1.44,0,1,1,2.88,0,1.44,1.44,0,1,1,-2.88,0zM2.16,46.8a1.44,1.44,0,1,1,2.88,0,1.44,1.44,0,1,1,-2.88,0zM2.16,39.6a1.44,1.44,0,1,1,2.88,0,1.44,1.44,0,1,1,-2.88,0zM2.16,32.4a1.44,1.44,0,1,1,2.88,0,1.44,1.44,0,1,1,-2.88,0zM2.16,25.2a1.44,1.44,0,1,1,2.88,0,1.44,1.44,0,1,1,-2.88,0zM2.16,18a1.44,1.44,0,1,1,2.88,0,1.44,1.44,0,1,1,-2.88,0zM2.16,10.8a1.44,1.44,0,1,1,2.88,0,1.44,1.44,0,1,1,-2.88,0z"/>
   <g  stroke-width="0">
    <title >layer 21</title>
    <g  stroke-width="0">
     <title >text:Reset</title>
     <text  x="18.36" y="74.16" font-family="OCRA" fill="white" text-anchor="start" stroke="none" stroke-width="0" font-size="3.94582">Reset</text>
    </g>
    <g  stroke-width="0">
     <title >text:9</title>
     <g  stroke-width="0" transform="matrix(1, 0, 0, 1, 9.36, 91.08)">
      <g  stroke-width="0" transform="rotate(-90)">
       <text  x="0" y="0" font-family="OCRA" fill="white" text-anchor="start" stroke="none" stroke-width="0" font-size="3.3408">9</text>
      </g>
     </g>
    </g>
    <g  stroke-width="0">
     <title >text:8</title>
     <g  stroke-width="0" transform="matrix(1, 0, 0, 1, 9.504, 83.88)">
      <g  stroke-width="0" transform="rotate(-90)">
       <text  x="0" y="0" font-family="OCRA" fill="white" text-anchor="start" stroke="none" stroke-width="0" font-size="3.3408">8</text>
      </g>
     </g>
    </g>
    <g  stroke-width="0">
     <title >text:7</title>
     <g  stroke-width="0" transform="matrix(1, 0, 0, 1, 9.504, 76.32)">
      <g  stroke-width="0" transform="rotate(-90)">
       <text  x="0" y="0" font-family="OCRA" fill="white" text-anchor="start" stroke="none" stroke-width="0" font-size="3.3408">7</text>
      </g>
     </g>
    </g>
    <g  stroke-width="0">
     <title >text:6</title>
     <g  stroke-width="0" transform="matrix(1, 0, 0, 1, 9.504, 69.48)">
      <g  stroke-width="0" transform="rotate(-90)">
       <text  x="0" y="0" font-family="OCRA" fill="white" text-anchor="start" stroke="none" stroke-width="0" font-size="3.3408">6</text>
      </g>
     </g>
    </g>
    <g  stroke-width="0">
     <title >text:5</title>
     <g  stroke-width="0" transform="matrix(1, 0, 0, 1, 9.504, 62.28)">
      <g  stroke-width="0" transform="rotate(-90)">
       <text  x="0" y="0" font-family="OCRA" fill="white" text-anchor="start" stroke="none" stroke-width="0" font-size="3.3408">5</text>
      </g>
     </g>
    </g>
    <g  stroke-width="0">
     <title >text:4</title>
     <g  stroke-width="0" transform="matrix(1, 0, 0, 1, 9.36, 55.08)">
      <g  stroke-width="0" transform="rotate(-90)">
       <text  x="0" y="0" font-family="OCRA" fill="white" text-anchor="start" stroke="none" stroke-width="0" font-size="3.3408">4</text>
      </g>
     </g>
    </g>
    <g  stroke-width="0">
     <title >text:3</title>
     <g  stroke-width="0" transform="matrix(1, 0, 0, 1, 9.36, 47.88)">
      <g  stroke-width="0" transform="rotate(-90)">
       <text  x="0" y="0" font-family="OCRA" fill="white" text-anchor="start" stroke="none" stroke-width="0" font-size="3.3408">3</text>
      </g>
     </g>
    </g>
    <g  stroke-width="0">
     <title >text:2</title>
     <g  stroke-width="0" transform="matrix(1, 0, 0, 1, 9, 40.32)">
      <g  stroke-width="0" transform="rotate(-90)">
       <text  x="0" y="0" font-family="OCRA" fill="white" text-anchor="start" stroke="none" stroke-width="0" font-size="2.67264">2</text>
      </g>
     </g>
    </g>
    <g  stroke-width="0">
     <title >text:GND</title>
     <g  stroke-width="0" transform="matrix(1, 0, 0, 1, 9, 35.64)">
      <g  stroke-width="0" transform="rotate(-90)">
       <text  x="0" y="0" font-family="OCRA" fill="white" text-anchor="start" stroke="none" stroke-width="0" font-size="2.67264">GND</text>
      </g>
     </g>
    </g>
    <g  stroke-width="0">
     <title >text:RST</title>
     <g  stroke-width="0" transform="matrix(1, 0, 0, 1, 9, 28.08)">
      <g  stroke-width="0" transform="rotate(-90)">
       <text  x="0" y="0" font-family="OCRA" fill="white" text-anchor="start" stroke="none" stroke-width="0" font-size="2.67264">RST</text>
      </g>
     </g>
    </g>
    <g  stroke-width="0">
     <title >text:RXI</title>
     <g  stroke-width="0" transform="matrix(1, 0, 0, 1, 9, 20.88)">
      <g  stroke-width="0" transform="rotate(-90)">
       <text  x="0" y="0" font-family="OCRA" fill="white" text-anchor="start" stroke="none" stroke-width="0" font-size="2.67264">RXI</text>
      </g>
     </g>
    </g>
    <g  stroke-width="0">
     <title >text:TXO</title>
     <g  stroke-width="0" transform="matrix(1, 0, 0, 1, 9, 13.68)">
      <g  stroke-width="0" transform="rotate(-90)">
       <text  x="0" y="0" font-family="OCRA" fill="white" text-anchor="start" stroke="none" stroke-width="0" font-size="2.67264">TXO</text>
      </g>
     </g>
    </g>
    <g  stroke-width="0">
     <title >text:TXO</title>
     <text  x="33.12" y="8.64" font-family="OCRA" fill="white" text-anchor="start" stroke="none" stroke-width="0" font-size="2.67264">TXO</text>
    </g>
    <g  stroke-width="0">
     <title >text:RXI</title>
     <text  x="26.28" y="8.64" font-family="OCRA" fill="white" text-anchor="start" stroke="none" stroke-width="0" font-size="2.67264">RXI</text>
    </g>
    <g  stroke-width="0">
     <title >text:RAW</title>
     <g  stroke-width="0" transform="matrix(1, 0, 0, 1, 43.92, 13.68)">
      <g  stroke-width="0" transform="rotate(-90)">
       <text  x="0" y="0" font-family="OCRA" fill="white" text-anchor="start" stroke="none" stroke-width="0" font-size="2.67264">RAW</text>
      </g>
     </g>
    </g>
    <g  stroke-width="0">
     <title >text:GND</title>
     <g  stroke-width="0" transform="matrix(1, 0, 0, 1, 43.92, 20.88)">
      <g  stroke-width="0" transform="rotate(-90)">
       <text  x="0" y="0" font-family="OCRA" fill="white" text-anchor="start" stroke="none" stroke-width="0" font-size="2.67264">GND</text>
      </g>
     </g>
    </g>
    <g  stroke-width="0">
     <title >text:RST</title>
     <g  stroke-width="0" transform="matrix(1, 0, 0, 1, 43.92, 28.08)">
      <g  stroke-width="0" transform="rotate(-90)">
       <text  x="0" y="0" font-family="OCRA" fill="white" text-anchor="start" stroke="none" stroke-width="0" font-size="2.67264">RST</text>
      </g>
     </g>
    </g>
    <g  stroke-width="0">
     <title >text:VCC</title>
     <g  stroke-width="0" transform="matrix(1, 0, 0, 1, 43.92, 35.28)">
      <g  stroke-width="0" transform="rotate(-90)">
       <text  x="0" y="0" font-family="OCRA" fill="white" text-anchor="start" stroke="none" stroke-width="0" font-size="2.67264">VCC</text>
      </g>
     </g>
    </g>
    <g  stroke-width="0">
     <title >text:A3</title>
     <g  stroke-width="0" transform="matrix(1, 0, 0, 1, 43.92, 41.4)">
      <g  stroke-width="0" transform="rotate(-90)">
       <text  x="0" y="0" font-family="OCRA" fill="white" text-anchor="start" stroke="none" stroke-width="0" font-size="2.67264">A3</text>
      </g>
     </g>
    </g>
    <g  stroke-width="0">
     <title >text:A2</title>
     <g  stroke-width="0" transform="matrix(1, 0, 0, 1, 43.92, 48.6)">
      <g  stroke-width="0" transform="rotate(-90)">
       <text  x="0" y="0" font-family="OCRA" fill="white" text-anchor="start" stroke="none" stroke-width="0" font-size="2.67264">A2</text>
      </g>
     </g>
    </g>
    <g  stroke-width="0">
     <title >text:A1</title>
     <g  stroke-width="0" transform="matrix(1, 0, 0, 1, 43.92, 56.16)">
      <g  stroke-width="0" transform="rotate(-90)">
       <text  x="0" y="0" font-family="OCRA" fill="white" text-anchor="start" stroke="none" stroke-width="0" font-size="3.3408">A1</text>
      </g>
     </g>
    </g>
    <g  stroke-width="0">
     <title >text:A0</title>
     <g  stroke-width="0" transform="matrix(1, 0, 0, 1, 43.92, 63.36)">
      <g  stroke-width="0" transform="rotate(-90)">
       <text  x="0" y="0" font-family="OCRA" fill="white" text-anchor="start" stroke="none" stroke-width="0" font-size="3.3408">A0</text>
      </g>
     </g>
    </g>
    <g  stroke-width="0">
     <title >text:13</title>
     <g  stroke-width="0" transform="matrix(1, 0, 0, 1, 43.92, 70.56)">
      <g  stroke-width="0" transform="rotate(-90)">
       <text  x="0" y="0" font-family="OCRA" fill="white" text-anchor="start" stroke="none" stroke-width="0" font-size="3.3408">13</text>
      </g>
     </g>
    </g>
    <g  stroke-width="0">
     <title >text:12</title>
     <g  stroke-width="0" transform="matrix(1, 0, 0, 1, 43.92, 77.76)">
      <g  stroke-width="0" transform="rotate(-90)">
       <text  x="0" y="0" font-family="OCRA" fill="white" text-anchor="start" stroke="none" stroke-width="0" font-size="3.3408">12</text>
      </g>
     </g>
    </g>
    <g  stroke-width="0">
     <title >text:11</title>
     <g  stroke-width="0" transform="matrix(1, 0, 0, 1, 43.92, 84.96)">
      <g  stroke-width="0" transform="rotate(-90)">
       <text  x="0" y="0" font-family="OCRA" fill="white" text-anchor="start" stroke="none" stroke-width="0" font-size="3.3408">11</text>
      </g>
     </g>
    </g>
    <g  stroke-width="0">
     <title >text:10</title>
     <g  stroke-width="0" transform="matrix(1, 0, 0, 1, 43.92, 92.16)">
      <g  stroke-width="0" transform="rotate(-90)">
       <text  x="0" y="0" font-family="OCRA" fill="white" text-anchor="start" stroke="none" stroke-width="0" font-size="3.3408">10</text>
      </g>
     </g>
    </g>
    <g  stroke-width="0">
     <title >text:VCC</title>
     <text  x="18.72" y="8.64" font-family="OCRA" fill="white" text-anchor="start" stroke="none" stroke-width="0" font-size="2.67264">VCC</text>
    </g>
    <g  stroke-width="0">
     <title >text:GND</title>
     <text  x="11.52" y="8.64" font-family="OCRA" fill="white" text-anchor="start" stroke="none" stroke-width="0" font-size="2.67264">GND</text>
    </g>
    <g  stroke-width="0">
     <title >text:BLK</title>
     <g  stroke-width="0" transform="matrix(1, 0, 0, 1, 3.6, 6.48)">
      <g  stroke-width="0" transform="rotate(-90)">
       <text  x="0" y="0" font-family="OCRA" fill="white" text-anchor="start" stroke="none" stroke-width="0" font-size="2.67264">BLK</text>
      </g>
     </g>
    </g>
    <g  stroke-width="0">
     <title >text:GRN</title>
     <g  stroke-width="0" transform="matrix(1, 0, 0, 1, 48.96, 6.48)">
      <g  stroke-width="0" transform="rotate(-90)">
       <text  x="0" y="0" font-family="OCRA" fill="white" text-anchor="start" stroke="none" stroke-width="0" font-size="2.67264">GRN</text>
      </g>
     </g>
    </g>
    <g  stroke-width="0">
     <title >text:Arduino Pro</title>
     <text  x="11.88" y="15.84" font-family="OCRA" fill="white" text-anchor="start" stroke="none" stroke-width="0" font-size="3.3408">Arduino Pro</text>
    </g>
    <g  stroke-width="0">
     <title >text:Mini</title>
     <text  x="21.24" y="12.24" font-family="OCRA" fill="white" text-anchor="start" stroke="none" stroke-width="0" font-size="3.3408">Mini</text>
    </g>
    <g  stroke-width="0">
     <title >text:Released under the Creative Commons Attribution Share-Alike 3.0 License</title>
     <text  x="-122.4" y="108" font-family="OCRA" fill="white" text-anchor="start" stroke="none" stroke-width="0" font-size="5.8464">Released under the Creative Commons Attribution Share-Alike 3.0 License</text>
    </g>
    <g  stroke-width="0">
     <title >text:http://creativecommons.org/licenses/by-sa/3.0</title>
     <text  x="-72" y="115.2" font-family="OCRA" fill="white" text-anchor="start" stroke="none" stroke-width="0" font-size="5.8464">http://creativecommons.org/licenses/by-sa/3.0</text>
    </g>
    <g  stroke-width="0">
     <title >element:C1</title>
     <g  stroke-width="0">
      <title >package:C0402</title>
     </g>
    </g>
    <g  stroke-width="0">
     <title >element:C2</title>
     <g  stroke-width="0">
      <title >package:C0402</title>
     </g>
    </g>
    <g  stroke-width="0">
     <title >element:C3</title>
     <g  stroke-width="0">
      <title >package:C0402</title>
     </g>
    </g>
    <g  stroke-width="0">
     <title >element:C10</title>
     <g  stroke-width="0">
      <title >package:C0402</title>
     </g>
    </g>
    <g  stroke-width="0">
     <title >element:C13</title>
     <g  stroke-width="0">
      <title >package:EIA3216</title>
      <line  stroke="white" stroke-linecap="round" y1="28.0346" x1="17.8016" y2="32.2866" stroke-width="0.576" x2="17.8016"/>
      <line  stroke="white" stroke-linecap="round" y1="32.2866" x1="17.8016" y2="32.2866" stroke-width="0.576" x2="10.9984"/>
      <line  stroke="white" stroke-linecap="round" y1="32.2866" x1="10.9984" y2="28.0346" stroke-width="0.576" x2="10.9984"/>
      <line  stroke="white" stroke-linecap="round" y1="22.3654" x1="17.8016" y2="19.2473" stroke-width="0.576" x2="17.8016"/>
      <line  stroke="white" stroke-linecap="round" y1="19.2473" x1="17.8016" y2="18.1134" stroke-width="0.576" x2="16.6677"/>
      <line  stroke="white" stroke-linecap="round" y1="18.1134" x1="16.6677" y2="18.1134" stroke-width="0.576" x2="12.1323"/>
      <line  stroke="white" stroke-linecap="round" y1="18.1134" x1="12.1323" y2="19.2473" stroke-width="0.576" x2="10.9984"/>
      <line  stroke="white" stroke-linecap="round" y1="19.2473" x1="10.9984" y2="22.3654" stroke-width="0.576" x2="10.9984"/>
     </g>
    </g>
    <g  stroke-width="0">
     <title >element:C19</title>
     <g  stroke-width="0">
      <title >package:EIA3216</title>
      <line  stroke="white" stroke-linecap="round" y1="28.0346" x1="40.8416" y2="32.2866" stroke-width="0.576" x2="40.8416"/>
      <line  stroke="white" stroke-linecap="round" y1="32.2866" x1="40.8416" y2="32.2866" stroke-width="0.576" x2="34.0384"/>
      <line  stroke="white" stroke-linecap="round" y1="32.2866" x1="34.0384" y2="28.0346" stroke-width="0.576" x2="34.0384"/>
      <line  stroke="white" stroke-linecap="round" y1="22.3654" x1="40.8416" y2="19.2473" stroke-width="0.576" x2="40.8416"/>
      <line  stroke="white" stroke-linecap="round" y1="19.2473" x1="40.8416" y2="18.1134" stroke-width="0.576" x2="39.7077"/>
      <line  stroke="white" stroke-linecap="round" y1="18.1134" x1="39.7077" y2="18.1134" stroke-width="0.576" x2="35.1723"/>
      <line  stroke="white" stroke-linecap="round" y1="18.1134" x1="35.1723" y2="19.2473" stroke-width="0.576" x2="34.0384"/>
      <line  stroke="white" stroke-linecap="round" y1="19.2473" x1="34.0384" y2="22.3654" stroke-width="0.576" x2="34.0384"/>
     </g>
    </g>
    <g  stroke-width="0">
     <title >element:D3</title>
     <g  stroke-width="0">
      <title >package:LED-0603</title>
      <line  stroke="white" stroke-linecap="round" y1="86.8817" x1="37.5761" y2="86.8817" stroke-width="0.576" x2="38.88"/>
      <line  stroke="white" stroke-linecap="round" y1="86.8817" x1="40.1839" y2="86.8817" stroke-width="0.576" x2="38.88"/>
      <line  stroke="white" stroke-linecap="round" y1="86.8817" x1="38.88" y2="86.0033" stroke-width="0.576" x2="38.0012"/>
      <line  stroke="white" stroke-linecap="round" y1="86.9105" x1="38.88" y2="86.0033" stroke-width="0.576" x2="39.7871"/>
      <line  stroke="white" stroke-linecap="round" y1="86.0033" x1="39.7871" y2="86.0033" stroke-width="0.576" x2="38.0012"/>
     </g>
    </g>
    <g  stroke-width="0">
     <title >element:JP1</title>
     <g  stroke-width="0">
      <title >package:1X06</title>
     </g>
    </g>
    <g  stroke-width="0">
     <title >element:JP2</title>
     <g  stroke-width="0">
      <title >package:1X02</title>
     </g>
    </g>
    <g  stroke-width="0">
     <title >element:JP6</title>
     <g  stroke-width="0">
      <title >package:1X12</title>
     </g>
    </g>
    <g  stroke-width="0">
     <title >element:JP7</title>
     <g  stroke-width="0">
      <title >package:1X12</title>
     </g>
    </g>
    <g  stroke-width="0">
     <title >element:LED1</title>
     <g  stroke-width="0">
      <title >package:LED-0603</title>
      <line  stroke="white" stroke-linecap="round" y1="33.7039" x1="25.6819" y2="32.4" stroke-width="0.576" x2="25.6819"/>
      <line  stroke="white" stroke-linecap="round" y1="31.0961" x1="25.6819" y2="32.4" stroke-width="0.576" x2="25.6819"/>
      <line  stroke="white" stroke-linecap="round" y1="32.4" x1="25.6819" y2="33.2788" stroke-width="0.576" x2="24.8031"/>
      <line  stroke="white" stroke-linecap="round" y1="32.4" x1="25.7103" y2="31.4929" stroke-width="0.576" x2="24.8031"/>
      <line  stroke="white" stroke-linecap="round" y1="31.4929" x1="24.8031" y2="33.2788" stroke-width="0.576" x2="24.8031"/>
     </g>
    </g>
    <g  stroke-width="0">
     <title >element:Q1</title>
     <g  stroke-width="0">
      <title >package:RESONATOR-SMD</title>
      <line  stroke="white" stroke-linecap="round" y1="33.7011" x1="10.3974" y2="33.4176" stroke-width="0.576" x2="10.3974"/>
      <line  stroke="white" stroke-linecap="round" y1="33.4176" x1="10.3974" y2="33.4176" stroke-width="0.576" x2="14.0826"/>
      <line  stroke="white" stroke-linecap="round" y1="33.4176" x1="14.0826" y2="33.7011" stroke-width="0.576" x2="14.0826"/>
      <line  stroke="white" stroke-linecap="round" y1="43.3389" x1="14.0826" y2="43.7641" stroke-width="0.576" x2="14.0826"/>
      <line  stroke="white" stroke-linecap="round" y1="43.7641" x1="14.0826" y2="43.7641" stroke-width="0.576" x2="10.3974"/>
      <line  stroke="white" stroke-linecap="round" y1="43.7641" x1="10.3974" y2="43.3389" stroke-width="0.576" x2="10.3974"/>
     </g>
    </g>
    <g  stroke-width="0">
     <title >element:R2</title>
     <g  stroke-width="0">
      <title >package:C0402</title>
     </g>
    </g>
    <g  stroke-width="0">
     <title >element:R6</title>
     <g  stroke-width="0">
      <title >package:C0402</title>
     </g>
    </g>
    <g  stroke-width="0">
     <title >element:R11</title>
     <g  stroke-width="0">
      <title >package:C0402</title>
     </g>
    </g>
    <g  stroke-width="0">
     <title >element:S2</title>
     <g  stroke-width="0">
      <title >package:TACTILE_SWITCH_SMD</title>
      <line  stroke="white" stroke-linecap="round" y1="79.285" x1="32.4" y2="86.4" stroke-width="0.576" x2="32.4"/>
      <line  stroke="white" stroke-linecap="round" y1="90" x1="29.5654" y2="90" stroke-width="0.576" x2="20.8346"/>
      <line  stroke="white" stroke-linecap="round" y1="86.315" x1="18" y2="79.285" stroke-width="0.576" x2="18"/>
      <line  stroke="white" stroke-linecap="round" y1="75.6" x1="20.8346" y2="75.6" stroke-width="0.576" x2="29.5654"/>
      <circle  fill="none" cx="25.2" cy="82.8" stroke="white" r="3.6" stroke-width="0.576"/>
     </g>
    </g>
    <g  stroke-width="0">
     <title >element:U$1</title>
     <g  stroke-width="0">
      <title >package:SFE-LOGO-FLAME</title>
      <g  stroke-width="0">
       <title >polygon</title>
       <path  fill="none" stroke="white" stroke-linecap="round" stroke-width="0.072" d="M13.4283,70.9415L13.2913,70.92M13.2913,70.92L13.0249,70.899M13.0249,70.899L12.7585,70.92M12.7585,70.92L12.5603,70.9721M12.5603,70.9721L12.3767,71.0631M12.3767,71.0631L12.2148,71.189M12.2148,71.189L12.0818,71.3449M12.0818,71.3449L11.9681,71.5524M11.9681,71.5524L11.8999,71.7789M11.8999,71.7789L11.8803,72.0144M11.8803,72.0144L11.8803,76.3128M11.8803,76.3128L13.2625,74.7576M13.2625,74.7576L13.5085,74.5322M13.5085,74.5322L13.7953,74.3616M13.7953,74.3616L13.9008,74.3234M13.9008,74.3234L14.0113,74.304M14.0113,74.304L14.6593,74.304M14.6593,74.304L15.0458,74.2687M15.0458,74.2687L15.4196,74.1643M15.4196,74.1643L15.7683,73.9944M15.7683,73.9944L16.0962,73.7626M16.0962,73.7626L16.3888,73.4875M16.3888,73.4875L16.6393,73.1736M16.6393,73.1736L16.9078,72.697M16.9078,72.697L17.0858,72.18M17.0858,72.18L17.1675,71.6394M17.1675,71.6394L17.1505,71.0929M17.1505,71.0929L17.0918,70.7981M17.0918,70.7981L16.9903,70.5152M16.9903,70.5152L16.8483,70.2505M16.8483,70.2505L16.5912,69.9281M16.5912,69.9281L16.2723,69.6671M16.2723,69.6671L16.2723,69.9191M16.2723,69.9191L16.2666,69.9602M16.2666,69.9602L16.2505,69.9985M16.2505,69.9985L16.1662,70.1025M16.1662,70.1025L16.0563,70.1785M16.0563,70.1785L15.9985,70.2M15.9985,70.2L15.8363,70.2176M15.8363,70.2176L15.6758,70.1878M15.6758,70.1878L15.5305,70.1135M15.5305,70.1135L15.2713,69.9265M15.2713,69.9265L15.1515,69.8233M15.1515,69.8233L15.0483,69.7031M15.0483,69.7031L14.9652,69.5684M14.9652,69.5684L14.9043,69.4225M14.9043,69.4225L14.8859,69.3297M14.8859,69.3297L14.8898,69.2351M14.8898,69.2351L14.9369,69.0792M14.9369,69.0792L15.0228,68.9406M15.0228,68.9406L15.1418,68.8295M15.1418,68.8295L15.2858,68.7529M15.2858,68.7529L15.431,68.7121M15.431,68.7121L15.5809,68.6951M15.5809,68.6951L15.7538,68.6951M15.7538,68.6951L15.7535,68.6951M15.7535,68.6951L15.7465,68.688M15.7465,68.688L15.6231,68.5922M15.6231,68.5922L15.4803,68.5295M15.4803,68.5295L15.3793,68.4865M15.3793,68.4865L15.3145,68.4575M15.3145,68.4575L15.0656,68.3955M15.0656,68.3955L14.8105,68.3711M14.8105,68.3711L14.5642,68.3898M14.5642,68.3898L14.326,68.4556M14.326,68.4556L14.1049,68.5655M14.1049,68.5655L13.8847,68.7243M13.8847,68.7243L13.6873,68.9111M13.6873,68.9111L13.5652,69.0823M13.5652,69.0823L13.4895,69.2785M13.4895,69.2785L13.4649,69.4873M13.4649,69.4873L13.4932,69.6957M13.4932,69.6957L13.5723,69.8905M13.5723,69.8905L13.9085,70.3891M13.9085,70.3891L14.3209,70.8265M14.3209,70.8265L14.4294,70.954M14.4294,70.954L14.5014,71.1051M14.5014,71.1051L14.5321,71.2695M14.5321,71.2695L14.5191,71.4365M14.5191,71.4365L14.4635,71.5944M14.4635,71.5944L14.3688,71.7324M14.3688,71.7324L14.2418,71.8415M14.2418,71.8415L14.082,71.9277M14.082,71.9277L13.9099,71.9858M13.9099,71.9858L13.7305,72.0144M13.7305,72.0144L13.5207,72.0043M13.5207,72.0043L13.32,71.9428M13.32,71.9428L13.1403,71.8345M13.1403,71.8345L13.045,71.7341M13.045,71.7341L12.9818,71.6111M12.9818,71.6111L12.9537,71.4849M12.9537,71.4849L12.9537,71.3557M12.9537,71.3557L12.9818,71.2295M12.9818,71.2295L13.0073,71.1811M13.0073,71.1811L13.0465,71.1431M13.0465,71.1431L13.2843,70.9705M13.2843,70.9705L13.3288,70.9466M13.3288,70.9466L13.3781,70.9367M13.3781,70.9367L13.4283,70.9415M11.8803,76.248L11.9378,76.248M11.8803,76.176L12.0019,76.176M11.8803,76.104L12.0657,76.104M11.8803,76.032L12.1298,76.032M11.8803,75.96L12.1938,75.96M11.8803,75.888L12.2579,75.888M11.8803,75.816L12.3216,75.816M11.8803,75.744L12.3857,75.744M11.8803,75.672L12.4497,75.672M11.8803,75.6L12.5135,75.6M11.8803,75.528L12.5776,75.528M11.8803,75.456L12.6417,75.456M11.8803,75.384L12.7058,75.384M11.8803,75.312L12.7695,75.312M11.8803,75.24L12.8336,75.24M11.8803,75.168L12.8976,75.168M11.8803,75.096L12.9614,75.096M11.8803,75.024L13.0254,75.024M11.8803,74.952L13.0895,74.952M11.8803,74.88L13.1536,74.88M11.8803,74.808L13.2174,74.808M11.8803,74.736L13.2857,74.736M11.8803,74.664L13.3645,74.664M11.8803,74.592L13.443,74.592M11.8803,74.52L13.5289,74.52M11.8803,74.448L13.65,74.448M11.8803,74.376L13.771,74.376M11.8803,74.304L14.6593,74.304M11.8803,74.232L15.1775,74.232M11.8803,74.16L15.4287,74.16M11.8803,74.088L15.5764,74.088M11.8803,74.016L15.7241,74.016M11.8803,73.944L15.8397,73.944M11.8803,73.872L15.9414,73.872M11.8803,73.8L16.0435,73.8M11.8803,73.728L16.1331,73.728M11.8803,73.656L16.2096,73.656M11.8803,73.584L16.2859,73.584M11.8803,73.512L16.3624,73.512M11.8803,73.44L16.4265,73.44M11.8803,73.368L16.484,73.368M11.8803,73.296L16.5416,73.296M11.8803,73.224L16.5988,73.224M11.8803,73.152L16.6513,73.152M11.8803,73.08L16.6918,73.08M11.8803,73.008L16.7324,73.008M11.8803,72.936L16.7732,72.936M11.8803,72.864L16.8137,72.864M11.8803,72.792L16.8543,72.792M11.8803,72.72L16.8948,72.72M11.8803,72.648L16.9245,72.648M11.8803,72.576L16.9494,72.576M11.8803,72.504L16.9741,72.504M11.8803,72.432L16.9988,72.432M11.8803,72.36L17.0238,72.36M11.8803,72.288L17.0484,72.288M11.8803,72.216L17.0734,72.216M11.8803,72.144L17.0912,72.144M11.8803,72.072L17.102,72.072M11.8817,72L13.5079,72M13.8212,72L17.1127,72M11.8876,71.928L13.2956,71.928M14.0814,71.928L17.1238,71.928M11.8936,71.856L13.1763,71.856M14.2152,71.856L17.1346,71.856M11.8996,71.784L13.0927,71.784M14.309,71.784L17.1454,71.784M11.9202,71.712L13.0337,71.712M14.383,71.712L17.1564,71.712M11.9418,71.64L12.9969,71.64M14.4323,71.64L17.1672,71.64M11.9636,71.568L12.9725,71.568M14.4729,71.568L17.1654,71.568M11.9993,71.496L12.9563,71.496M14.4984,71.496L17.1632,71.496M12.0388,71.424L12.9537,71.424M14.5202,71.424L17.1609,71.424M12.0781,71.352L12.9543,71.352M14.5259,71.352L17.1587,71.352M12.1374,71.28L12.9705,71.28M14.5315,71.28L17.1564,71.28M12.1986,71.208L12.9932,71.208M14.5205,71.208L17.1541,71.208M12.2831,71.136L13.0561,71.136M14.5071,71.136L17.1518,71.136M12.3758,71.064L13.1553,71.064M14.4816,71.064L17.1448,71.064M12.5204,70.992L13.2546,70.992M14.4473,70.992L17.1306,70.992M12.7585,70.92L13.2913,70.92M14.4003,70.92L17.1161,70.92M14.3391,70.848L17.102,70.848M14.2733,70.776L17.0842,70.776M14.2052,70.704L17.058,70.704M14.1375,70.632L17.0322,70.632M14.0694,70.56L17.0065,70.56M14.0018,70.488L16.9759,70.488M13.9337,70.416L16.9373,70.416M13.8779,70.344L16.8988,70.344M13.8294,70.272L16.8599,70.272M13.7809,70.2L15.7416,70.2M15.9985,70.2L16.8083,70.2M13.7324,70.128L15.5588,70.128M16.1294,70.128L16.7508,70.128M13.6837,70.056L15.4508,70.056M16.204,70.056L16.6932,70.056M13.6352,69.984L15.3513,69.984M16.2567,69.984L16.636,69.984M13.5868,69.912L15.2546,69.912M16.2723,69.912L16.5716,69.912M13.5516,69.84L15.171,69.84M16.2723,69.84L16.4838,69.84M13.5224,69.768L15.1042,69.768M16.2723,69.768L16.3956,69.768M13.4932,69.696L15.044,69.696M16.2723,69.696L16.3077,69.696M13.4833,69.624L14.9995,69.624M13.4736,69.552L14.9584,69.552M13.466,69.48L14.9284,69.48M13.4745,69.408L14.9015,69.408M13.483,69.336L14.8873,69.336M13.4952,69.264L14.8884,69.264M13.523,69.192L14.9026,69.192M13.5508,69.12L14.9244,69.12M13.5899,69.048L14.9561,69.048M13.6412,68.976L15.0007,68.976M13.695,68.904L15.0619,68.904M13.771,68.832L15.139,68.832M13.847,68.76L15.2722,68.76M13.9351,68.688L15.7465,68.688M14.0352,68.616L15.654,68.616M14.1483,68.544L15.5135,68.544M14.2932,68.472L15.3471,68.472M14.5273,68.4L15.084,68.4"/>
      </g>
     </g>
    </g>
    <g  stroke-width="0">
     <title >element:U$2</title>
     <g  stroke-width="0">
      <title >package:FIDUCIAL-1X2</title>
     </g>
    </g>
    <g  stroke-width="0">
     <title >element:U$4</title>
     <g  stroke-width="0">
      <title >package:FIDUCIAL-1X2</title>
     </g>
    </g>
    <g  stroke-width="0">
     <title >element:U$11</title>
     <g  stroke-width="0">
      <title >package:SFE-NEW-WEBLOGO</title>
     </g>
    </g>
    <g  stroke-width="0">
     <title >element:U1</title>
     <g  stroke-width="0">
      <title >package:TQFP32-08</title>
      <line  stroke="white" stroke-linecap="round" y1="54" x1="39.2508" y2="68.0511" stroke-width="0.432" x2="25.1997"/>
      <line  stroke="white" stroke-linecap="round" y1="68.0511" x1="25.1997" y2="54" stroke-width="0.432" x2="11.1489"/>
      <line  stroke="white" stroke-linecap="round" y1="54" x1="11.1489" y2="40.661" stroke-width="0.432" x2="24.4882"/>
      <line  stroke="white" stroke-linecap="round" y1="40.661" x1="25.9115" y2="54" stroke-width="0.432" x2="39.2508"/>
      <line  stroke="white" stroke-linecap="round" y1="40.661" x1="25.9115" y2="40.661" stroke-width="0.432" x2="24.4882"/>
      <circle  fill="none" cx="25.2" cy="43.0033" stroke="white" r="1.0182" stroke-width="0.432"/>
     </g>
    </g>
    <g  stroke-width="0">
     <title >element:U2</title>
     <g  stroke-width="0">
      <title >package:SOT23-5</title>
      <line  stroke="white" stroke-linecap="round" y1="21.168" x1="22.9028" y2="21.168" stroke-width="0.432" x2="27.4972"/>
      <line  stroke="white" stroke-linecap="round" y1="29.232" x1="27.4972" y2="29.232" stroke-width="0.432" x2="22.9028"/>
      <line  stroke="white" stroke-linecap="round" y1="26.6808" x1="22.9028" y2="23.7192" stroke-width="0.432" x2="22.9028"/>
      <line  stroke="white" stroke-linecap="round" y1="26.4121" x1="27.4972" y2="26.6808" stroke-width="0.432" x2="27.4972"/>
      <line  stroke="white" stroke-linecap="round" y1="23.7192" x1="27.4972" y2="23.9879" stroke-width="0.432" x2="27.4972"/>
      <line  stroke="white" stroke-linecap="round" y1="28.9633" x1="27.4972" y2="29.232" stroke-width="0.432" x2="27.4972"/>
      <line  stroke="white" stroke-linecap="round" y1="21.168" x1="27.4972" y2="21.4367" stroke-width="0.432" x2="27.4972"/>
      <line  stroke="white" stroke-linecap="round" y1="21.4367" x1="22.9028" y2="21.168" stroke-width="0.432" x2="22.9028"/>
      <line  stroke="white" stroke-linecap="round" y1="29.232" x1="22.9028" y2="28.9633" stroke-width="0.432" x2="22.9028"/>
     </g>
    </g>
   </g>
   <rect  width="6.80315" x="10.9984" y="18.1134" fill="#333333" height="14.1732" stroke="none" fill-opacity="1" stroke-width="0"/>
   <rect  width="6.80315" x="34.0384" y="18.1134" fill="#333333" height="14.1732" stroke="none" fill-opacity="1" stroke-width="0"/>
   <rect  width="2.60788" x="37.5761" y="86.0033" fill="#ffffff" height="0.907085" stroke="none" fill-opacity="0.15" stroke-width="0"/>
   <rect  width="0.907085" x="24.8031" y="31.0961" fill="#ffffff" height="2.60788" stroke="none" fill-opacity="0.15" stroke-width="0"/>
   <rect  width="3.68504" x="10.3974" y="33.4176" fill="#ffffff" height="10.3465" stroke="none" fill-opacity="0.15" stroke-width="0"/>
   
   <polygon fill="#333333"  stroke="none" fill-opacity="1" stroke-width="0" 
		points="11.1489,54.356 25.1998,40.661 39.2507,54.356 25.1998,68.051"/>
   
   <!-- <rect  width="28.1018" x="11.1489" y="40.661" fill="#333333" height="27.39" stroke="none" fill-opacity="1" stroke-width="0"/> -->
   
   <rect  width="4.59439" x="22.9028" y="21.168" fill="#333333" height="8.064" stroke="none" fill-opacity="1" stroke-width="0"/>
   <circle  fill="none" cx="43.2" cy="3.6" connectorname="DTR" stroke="#9A916C" r="1.872" id="connector14pin" stroke-width="0.864"/>
   <circle  fill="none" cx="36" cy="3.6" connectorname="TXO" stroke="#9A916C" r="1.872" id="connector15pin" stroke-width="0.864"/>
   <circle  fill="none" cx="28.8" cy="3.6" connectorname="RXI" stroke="#9A916C" r="1.872" id="connector16pin" stroke-width="0.864"/>
   <circle  fill="none" cx="21.6" cy="3.6" connectorname="VCC" stroke="#9A916C" r="1.872" id="connector17pin" stroke-width="0.864"/>
   <circle  fill="none" cx="14.4" cy="3.6" connectorname="GND" stroke="#9A916C" r="1.872" id="connector18pin" stroke-width="0.864"/>
   <circle  fill="none" cx="7.2" cy="3.6" connectorname="GND" stroke="#9A916C" r="1.872" id="connector19pin" stroke-width="0.864"/>
   <circle  fill="none" cx="38.88" cy="43.2" connectorname="A4" stroke="#9A916C" r="1.872" id="connector20pin" stroke-width="0.864"/>
   <circle  fill="none" cx="38.88" cy="36" connectorname="A5" stroke="#9A916C" r="1.872" id="connector21pin" stroke-width="0.864"/>
   <circle  fill="none" cx="46.8" cy="10.8" connectorname="RAW" stroke="#9A916C" r="1.872" id="connector22pin" stroke-width="0.864"/>
   <circle  fill="none" cx="46.8" cy="18" connectorname="GND" stroke="#9A916C" r="1.872" id="connector23pin" stroke-width="0.864"/>
   <circle  fill="none" cx="46.8" cy="25.2" connectorname="RESET" stroke="#9A916C" r="1.872" id="connector24pin" stroke-width="0.864"/>
   <circle  fill="none" cx="46.8" cy="32.4" connectorname="VCC" stroke="#9A916C" r="1.872" id="connector25pin" stroke-width="0.864"/>
   <circle  fill="none" cx="46.8" cy="39.6" connectorname="A3" stroke="#9A916C" r="1.872" id="connector26pin" stroke-width="0.864"/>
   <circle  fill="none" cx="46.8" cy="46.8" connectorname="A2" stroke="#9A916C" r="1.872" id="connector27pin" stroke-width="0.864"/>
   <circle  fill="none" cx="46.8" cy="54" connectorname="A1" stroke="#9A916C" r="1.872" id="connector28pin" stroke-width="0.864"/>
   <circle  fill="none" cx="46.8" cy="61.2" connectorname="A0" stroke="#9A916C" r="1.872" id="connector29pin" stroke-width="0.864"/>
   <circle  fill="none" cx="46.8" cy="68.4" connectorname="SCK" stroke="#9A916C" r="1.872" id="connector30pin" stroke-width="0.864"/>
   <circle  fill="none" cx="46.8" cy="75.6" connectorname="MISO" stroke="#9A916C" r="1.872" id="connector31pin" stroke-width="0.864"/>
   <circle  fill="none" cx="46.8" cy="82.8" connectorname="MOSI" stroke="#9A916C" r="1.872" id="connector32pin" stroke-width="0.864"/>
   <circle  fill="none" cx="46.8" cy="90" connectorname="D10" stroke="#9A916C" r="1.872" id="connector33pin" stroke-width="0.864"/>
   <circle  fill="none" cx="3.6" cy="90" connectorname="D9" stroke="#9A916C" r="1.872" id="connector34pin" stroke-width="0.864"/>
   <circle  fill="none" cx="3.6" cy="82.8" connectorname="D8" stroke="#9A916C" r="1.872" id="connector35pin" stroke-width="0.864"/>
   <circle  fill="none" cx="3.6" cy="75.6" connectorname="D7" stroke="#9A916C" r="1.872" id="connector36pin" stroke-width="0.864"/>
   <circle  fill="none" cx="3.6" cy="68.4" connectorname="D6" stroke="#9A916C" r="1.872" id="connector37pin" stroke-width="0.864"/>
   <circle  fill="none" cx="3.6" cy="61.2" connectorname="D5" stroke="#9A916C" r="1.872" id="connector38pin" stroke-width="0.864"/>
   <circle  fill="none" cx="3.6" cy="54" connectorname="D4" stroke="#9A916C" r="1.872" id="connector39pin" stroke-width="0.864"/>
   <circle  fill="none" cx="3.6" cy="46.8" connectorname="D3" stroke="#9A916C" r="1.872" id="connector40pin" stroke-width="0.864"/>
   <circle  fill="none" cx="3.6" cy="39.6" connectorname="D2" stroke="#9A916C" r="1.872" id="connector41pin" stroke-width="0.864"/>
   <circle  fill="none" cx="3.6" cy="32.4" connectorname="GND" stroke="#9A916C" r="1.872" id="connector42pin" stroke-width="0.864"/>
   <circle  fill="none" cx="3.6" cy="25.2" connectorname="RESET" stroke="#9A916C" r="1.872" id="connector43pin" stroke-width="0.864"/>
   <circle  fill="none" cx="3.6" cy="18" connectorname="RXI" stroke="#9A916C" r="1.872" id="connector44pin" stroke-width="0.864"/>
   <circle  fill="none" cx="3.6" cy="10.8" connectorname="TXO" stroke="#9A916C" r="1.872" id="connector45pin" stroke-width="0.864"/>
  </g>
  <g  id="tactile_switch_smd" stroke-width="0" transform="matrix(1, 0, 0, 1, 17.021, 74.628)">
   <g  stroke-width="0" transform="matrix(-1, 0, 0, -1, 16.392, 16.392)">
    <polygon  fill="#6D6D6D" points="1.142,12.976,3.41499,15.25,12.9779,15.25,15.25,12.976,15.25,3.41299,12.9779,1.141,3.41499,1.141,1.142,3.41299" stroke-width="0"/>
    <rect  width="9.56297" x="3.41499" y="0" fill="#6D6D6D" height="16.392" stroke-width="0"/>
    <rect  width="16.392" x="0" y="3.41299" fill="#6D6D6D" height="9.56196" stroke-width="0"/>
    <polygon  fill="#7F7F7F" points="1.82699,12.513,3.87899,14.565,12.513,14.565,14.566,12.513,14.566,3.87699,12.513,1.82599,3.87899,1.82599,1.82699,3.87699" stroke-width="0"/>
    <polyline  opacity="0.2" fill="none" points="4.10499,2.15999,2.16099,4.10298,2.16099,12.2869,4.10499,14.232,12.288,14.232" stroke="#FFFFFF" stroke-width="0.236899" stroke-miterlimit="10"/>
    <polyline  opacity="0.2" fill="none" points="12.289,14.232,14.233,12.289,14.233,4.10499,12.289,2.15999,4.10599,2.15999" stroke="#606060" stroke-width="0.236899" stroke-miterlimit="10"/>
    <g  stroke-width="0">
     <path  fill="#BCA16A" stroke-width="0" d="M8.19598,11.923c-2.055,0,-3.72699,-1.672,-3.72699,-3.72699c0,-2.055,1.672,-3.72799,3.72699,-3.72799s3.72699,1.672,3.72699,3.72799C11.922,10.251,10.25,11.923,8.19598,11.923z"/>
     <path  fill="#606060" stroke-width="0" d="M8.19598,4.71899c1.92,0,3.47699,1.55699,3.47699,3.47799c0,1.92,-1.55699,3.47699,-3.47699,3.47699s-3.47699,-1.55699,-3.47699,-3.47699C4.71899,6.27498,6.27598,4.71899,8.19598,4.71899M8.19598,4.21899c-2.19299,0,-3.97698,1.78399,-3.97698,3.97799c0,2.192,1.78399,3.97698,3.97698,3.97698c2.192,0,3.97698,-1.78399,3.97698,-3.97698C12.172,6.00299,10.3879,4.21899,8.19598,4.21899L8.19598,4.21899z"/>
    </g>
    <path  opacity="0.2" fill="#BCA16A" stroke="#FFFFFF" stroke-width="0.530399" d="M10.39,10.389c-1.212,1.212,-3.17699,1.212,-4.38899,0c-1.212,-1.213,-1.212,-3.17799,0,-4.38998" stroke-miterlimit="10"/>
    <path  opacity="0.2" fill="#BCA16A" stroke="#606060" stroke-width="0.530399" d="M6.00098,5.99898c1.212,-1.212,3.17699,-1.212,4.38899,0c1.212,1.213,1.212,3.17699,0,4.38998" stroke-miterlimit="10"/>
   </g>
  </g>
 </g>
</svg>
