<?xml version="1.0" encoding="utf-8"?>
<!-- Generator: Adobe Illustrator 16.0.0, SVG Export Plug-In . SVG Version: 6.00 Build 0)  -->
<!DOCTYPE svg PUBLIC "-//W3C//DTD SVG 1.1//EN" "http://www.w3.org/Graphics/SVG/1.1/DTD/svg11.dtd">
<svg version="1.1" id="Ebene_1" xmlns="http://www.w3.org/2000/svg" xmlns:xlink="http://www.w3.org/1999/xlink" x="0px" y="0px"
	 width="142.824px" height="50.4px" viewBox="0 0 142.824 50.4" enable-background="new 0 0 142.824 50.4" xml:space="preserve">
<desc>Fritzing breadboard generated by brd2svg</desc>
<g>
	<g id="breadboardbreadboard">
		<g id="icon">
			<path fill="#0F7391" d="M6.023,0v50.4h136.801V0H6.023 M10.847,14.273c0.548,0,0.992,0.442,0.992,0.991s-0.444,0.991-0.992,0.991
				c-0.548,0-0.992-0.442-0.992-0.991S10.3,14.273,10.847,14.273z M9.407,14.273c0.548,0,0.992,0.442,0.992,0.991
				s-0.444,0.991-0.992,0.991c-0.548,0-0.992-0.442-0.992-0.991S8.859,14.273,9.407,14.273z M10.847,34.144
				c0.548,0,0.992,0.443,0.992,0.992c0,0.548-0.444,0.991-0.992,0.991c-0.548,0-0.992-0.443-0.992-0.991
				C9.855,34.588,10.3,34.144,10.847,34.144z M9.407,34.144c0.548,0,0.992,0.443,0.992,0.992c0,0.548-0.444,0.991-0.992,0.991
				c-0.548,0-0.992-0.443-0.992-0.991C8.415,34.588,8.859,34.144,9.407,34.144z M17.76,16.792c0.548,0,0.992,0.444,0.992,0.992
				s-0.444,0.992-0.992,0.992c-0.548,0-0.992-0.444-0.992-0.992S17.212,16.792,17.76,16.792z M17.76,17.512
				c0.548,0,0.992,0.443,0.992,0.991c0,0.549-0.444,0.992-0.992,0.992c-0.548,0-0.992-0.443-0.992-0.992
				C16.768,17.956,17.212,17.512,17.76,17.512z M17.76,30.905c0.548,0,0.992,0.444,0.992,0.992s-0.444,0.992-0.992,0.992l0,0
				c-0.548,0-0.992-0.444-0.992-0.992S17.212,30.905,17.76,30.905z M17.76,31.624c0.548,0,0.992,0.444,0.992,0.992
				s-0.444,0.992-0.992,0.992l0,0c-0.548,0-0.992-0.444-0.992-0.992S17.212,31.624,17.76,31.624z M9.623,1.9
				c0.939,0,1.701,0.762,1.701,1.701c0,0.938-0.762,1.7-1.701,1.7c-0.938,0-1.7-0.763-1.7-1.7C7.923,2.661,8.684,1.9,9.623,1.9
				L9.623,1.9z M9.623,45.1c0.939,0,1.701,0.762,1.701,1.699c0,0.939-0.762,1.701-1.701,1.701c-0.938,0-1.7-0.762-1.7-1.701
				C7.923,45.862,8.684,45.1,9.623,45.1z M139.223,1.9c0.938,0,1.7,0.762,1.7,1.701c0,0.938-0.762,1.7-1.7,1.7
				s-1.701-0.763-1.701-1.7C137.522,2.661,138.285,1.9,139.223,1.9z M139.223,45.1c0.938,0,1.7,0.762,1.7,1.699
				c0,0.939-0.762,1.701-1.7,1.701s-1.701-0.762-1.701-1.701C137.522,45.862,138.285,45.1,139.223,45.1z M121.223,38.254
				c0.743,0,1.347,0.604,1.347,1.348c0,0.743-0.604,1.346-1.347,1.346c-0.744,0-1.347-0.603-1.347-1.346
				C119.876,38.857,120.479,38.254,121.223,38.254L121.223,38.254z M121.223,31.054c0.743-0.001,1.347,0.602,1.348,1.345
				c0.001,0.744-0.603,1.348-1.345,1.349c-0.001,0-0.002,0-0.003,0c-0.744,0-1.347-0.604-1.347-1.347
				C119.876,31.656,120.479,31.054,121.223,31.054L121.223,31.054L121.223,31.054z M128.423,38.254c0.744,0,1.347,0.604,1.347,1.348
				c0,0.743-0.603,1.346-1.347,1.346c-0.743,0-1.346-0.603-1.346-1.346C127.078,38.857,127.679,38.254,128.423,38.254z
				 M128.423,31.054c0.744-0.001,1.348,0.602,1.349,1.345c0.001,0.744-0.603,1.348-1.347,1.349c0,0,0,0-0.002,0
				c-0.743,0-1.346-0.604-1.346-1.347C127.078,31.656,127.679,31.054,128.423,31.054L128.423,31.054z M135.623,38.254
				c0.744,0,1.348,0.604,1.348,1.348c0,0.743-0.604,1.346-1.348,1.346c-0.742,0-1.346-0.603-1.346-1.346
				C134.277,38.857,134.88,38.254,135.623,38.254z M135.623,31.054c0.744-0.001,1.349,0.602,1.35,1.345
				c0,0.744-0.602,1.348-1.346,1.349c-0.002,0-0.002,0-0.004,0c-0.742,0-1.346-0.604-1.346-1.347
				C134.277,31.656,134.88,31.054,135.623,31.054L135.623,31.054z M132.023,2.305c0.716,0,1.296,0.58,1.296,1.296
				s-0.58,1.296-1.296,1.296s-1.296-0.58-1.296-1.296S131.307,2.305,132.023,2.305z M124.824,2.305c0.715,0,1.295,0.58,1.295,1.296
				s-0.58,1.296-1.295,1.296c-0.717,0-1.297-0.58-1.297-1.296S124.107,2.305,124.824,2.305z M117.623,2.305
				c0.717,0,1.297,0.58,1.297,1.296s-0.58,1.296-1.297,1.296c-0.715,0-1.295-0.58-1.295-1.296S116.908,2.305,117.623,2.305z
				 M110.423,2.305c0.717,0,1.297,0.58,1.297,1.296s-0.58,1.296-1.297,1.296c-0.715,0-1.295-0.58-1.295-1.296
				S109.708,2.305,110.423,2.305z M103.223,2.305c0.716,0,1.296,0.58,1.296,1.296s-0.58,1.296-1.296,1.296s-1.296-0.58-1.296-1.296
				S102.507,2.305,103.223,2.305z M96.023,2.305c0.717,0,1.296,0.58,1.296,1.296s-0.58,1.296-1.296,1.296l0,0
				c-0.716,0-1.296-0.58-1.296-1.296S95.307,2.305,96.023,2.305z M88.824,2.305c0.715,0,1.295,0.58,1.295,1.296
				s-0.58,1.296-1.295,1.296l0,0c-0.717,0-1.297-0.58-1.297-1.296S88.107,2.305,88.824,2.305z M81.623,2.305
				c0.717,0,1.297,0.58,1.297,1.296s-0.58,1.296-1.297,1.296c-0.715,0-1.295-0.58-1.295-1.296S80.908,2.305,81.623,2.305
				L81.623,2.305z M74.423,2.305c0.717,0,1.297,0.58,1.297,1.296s-0.58,1.296-1.297,1.296c-0.715,0-1.295-0.58-1.295-1.296
				S73.708,2.305,74.423,2.305z M67.223,2.305c0.716,0,1.296,0.58,1.296,1.296s-0.58,1.296-1.296,1.296
				c-0.716,0-1.296-0.58-1.296-1.296S66.508,2.305,67.223,2.305z M60.023,2.305c0.716,0,1.296,0.58,1.296,1.296
				s-0.58,1.296-1.296,1.296l0,0c-0.716,0-1.296-0.58-1.296-1.296S59.307,2.305,60.023,2.305z M52.823,2.305
				c0.716,0,1.296,0.58,1.296,1.296s-0.58,1.296-1.296,1.296c-0.716,0-1.296-0.58-1.296-1.296S52.107,2.305,52.823,2.305z
				 M45.623,2.305c0.716,0,1.297,0.58,1.297,1.296s-0.581,1.296-1.297,1.296c-0.715,0-1.296-0.58-1.296-1.296
				S44.908,2.305,45.623,2.305z M38.424,2.305c0.716,0,1.296,0.58,1.296,1.296s-0.58,1.296-1.296,1.296
				c-0.716,0-1.296-0.58-1.296-1.296S37.708,2.305,38.424,2.305z M31.223,2.305c0.716,0,1.296,0.58,1.296,1.296
				s-0.58,1.296-1.296,1.296c-0.716,0-1.296-0.58-1.296-1.296S30.508,2.305,31.223,2.305z M24.023,2.305
				c0.716,0,1.296,0.58,1.296,1.296s-0.58,1.296-1.296,1.296s-1.296-0.58-1.296-1.296S23.307,2.305,24.023,2.305z M16.823,2.305
				c0.716,0,1.296,0.58,1.296,1.296s-0.58,1.296-1.296,1.296l0,0c-0.716,0-1.296-0.58-1.296-1.296S16.107,2.305,16.823,2.305z
				 M132.023,45.504c0.716,0,1.297,0.579,1.297,1.295c0.001,0.717-0.578,1.298-1.295,1.299c0,0-0.001,0-0.002,0
				c-0.716,0-1.297-0.58-1.297-1.295c-0.001-0.717,0.579-1.298,1.295-1.299C132.022,45.504,132.022,45.504,132.023,45.504z
				 M124.824,45.504c0.715,0,1.297,0.579,1.297,1.295c0,0.717-0.58,1.298-1.295,1.299h-0.002c-0.717,0-1.297-0.58-1.298-1.295
				c-0.001-0.717,0.579-1.298,1.295-1.299C124.822,45.504,124.824,45.504,124.824,45.504z M117.623,45.504
				c0.717,0,1.297,0.579,1.299,1.295c0,0.717-0.58,1.298-1.295,1.299c-0.002,0-0.002,0-0.004,0c-0.715,0-1.295-0.58-1.297-1.295
				c0-0.717,0.579-1.298,1.295-1.299C117.623,45.504,117.623,45.504,117.623,45.504z M110.423,45.504
				c0.717,0,1.297,0.579,1.298,1.295c0.001,0.717-0.579,1.298-1.296,1.299h-0.002c-0.715,0-1.297-0.58-1.297-1.295
				c0-0.717,0.578-1.298,1.295-1.299H110.423z M103.223,45.504c0.716,0,1.296,0.579,1.297,1.295
				c0.001,0.717-0.579,1.298-1.295,1.299c-0.001,0-0.001,0-0.002,0c-0.716,0-1.298-0.58-1.298-1.295c0-0.717,0.58-1.298,1.296-1.299
				C103.221,45.504,103.222,45.504,103.223,45.504z M96.023,45.504c0.717,0,1.297,0.579,1.297,1.295
				c0.001,0.717-0.578,1.298-1.295,1.299c0,0-0.001,0-0.002,0c-0.716,0-1.297-0.58-1.297-1.295
				c-0.001-0.717,0.579-1.298,1.295-1.299C96.022,45.504,96.022,45.504,96.023,45.504z M74.423,45.504
				c0.717,0,1.297,0.579,1.298,1.295c0.001,0.717-0.579,1.298-1.296,1.299h-0.002c-0.715,0-1.297-0.58-1.297-1.295
				c0-0.717,0.58-1.298,1.295-1.299H74.423z M67.223,45.504c0.716,0,1.296,0.579,1.297,1.295c0.001,0.717-0.579,1.298-1.295,1.299
				c-0.001,0-0.001,0-0.002,0c-0.716,0-1.297-0.58-1.297-1.295c-0.001-0.717,0.579-1.298,1.295-1.299
				C67.221,45.504,67.222,45.504,67.223,45.504z M60.023,45.504c0.716,0,1.297,0.579,1.297,1.295
				c0.001,0.717-0.579,1.298-1.295,1.299c0,0-0.001,0-0.002,0c-0.716,0-1.297-0.58-1.297-1.295
				c-0.001-0.717,0.579-1.298,1.295-1.299C60.022,45.504,60.022,45.504,60.023,45.504z M52.823,45.504
				c0.716,0,1.297,0.579,1.298,1.295c0,0.717-0.58,1.298-1.295,1.299c-0.001,0-0.002,0-0.003,0c-0.716,0-1.296-0.58-1.297-1.295
				c-0.001-0.717,0.579-1.298,1.295-1.299C52.822,45.504,52.823,45.504,52.823,45.504z M45.623,45.504
				c0.716,0,1.297,0.579,1.298,1.295c0,0.717-0.579,1.298-1.295,1.299c-0.001,0-0.002,0-0.003,0c-0.715,0-1.296-0.58-1.297-1.295
				c0-0.717,0.579-1.298,1.295-1.299C45.622,45.504,45.623,45.504,45.623,45.504z M38.424,45.504c0.716,0,1.296,0.579,1.297,1.295
				c0.001,0.717-0.579,1.298-1.295,1.299c-0.001,0-0.002,0-0.002,0c-0.716,0-1.297-0.58-1.298-1.295c0-0.717,0.58-1.298,1.295-1.299
				C38.422,45.504,38.423,45.504,38.424,45.504z M31.223,45.504c0.716,0,1.296,0.579,1.297,1.295
				c0.001,0.717-0.579,1.298-1.295,1.299c-0.001,0-0.001,0-0.002,0c-0.716,0-1.297-0.58-1.297-1.295
				c-0.001-0.717,0.579-1.298,1.295-1.299C31.221,45.504,31.222,45.504,31.223,45.504z M24.023,45.504
				c0.716,0,1.297,0.579,1.297,1.295c0.001,0.717-0.579,1.298-1.295,1.299c0,0-0.001,0-0.002,0c-0.716,0-1.297-0.58-1.297-1.295
				c-0.001-0.717,0.579-1.298,1.295-1.299C24.022,45.504,24.022,45.504,24.023,45.504z M16.823,45.504
				c0.716,0,1.297,0.579,1.298,1.295c0,0.717-0.58,1.298-1.295,1.299c-0.001,0-0.002,0-0.003,0c-0.716,0-1.296-0.58-1.297-1.295
				c-0.001-0.717,0.579-1.298,1.295-1.299C16.822,45.504,16.823,45.504,16.823,45.504z"/>
			<g>
				<title>layer 21</title>
				<g>
					<path fill="#FFFFFF" d="M118.612,8.119c-0.004,0-0.009,0.001-0.014,0h-1.944c-0.125,0-0.238-0.067-0.298-0.178
						s-0.053-0.243,0.017-0.347l0.974-1.459c0.125-0.188,0.437-0.188,0.562,0l0.93,1.394c0.07,0.062,0.113,0.152,0.113,0.253
						C118.951,7.969,118.798,8.119,118.612,8.119z"/>
				</g>
				<g>
					<path fill="#FFFFFF" d="M109.405,5.995c0.005,0,0.009-0.001,0.015,0h1.943c0.125,0,0.238,0.068,0.299,0.178
						c0.059,0.11,0.053,0.243-0.018,0.348l-0.973,1.459c-0.125,0.188-0.438,0.188-0.563,0l-0.93-1.395
						c-0.069-0.062-0.113-0.151-0.113-0.253C109.067,6.146,109.218,5.995,109.405,5.995z"/>
				</g>
				<circle fill="none" stroke="#FFFFFF" stroke-width="1.152" cx="117.623" cy="43.2" r="0.509"/>
				<g>
					<title>text:TX1</title>
					
						<text transform="matrix(-4.371139e-008 1 -1 -4.371139e-008 120.1421 1.4407)" fill="#FFFFFF" font-family="'OCRA'" font-size="2.3386">TX1</text>
				</g>
				<g>
					<title>text:RX1</title>
					
						<text transform="matrix(-4.371139e-008 1 -1 -4.371139e-008 112.9429 1.4407)" fill="#FFFFFF" font-family="'OCRA'" font-size="2.3386">RX1</text>
				</g>
				<g>
					<title>text:RST</title>
					
						<text transform="matrix(-4.371139e-008 1 -1 -4.371139e-008 105.7437 1.4407)" fill="#FFFFFF" font-family="'OCRA'" font-size="2.3386">RST</text>
				</g>
				<g>
					<title>text:GND</title>
					
						<text transform="matrix(-4.371139e-008 1 -1 -4.371139e-008 98.5444 1.4407)" fill="#FFFFFF" font-family="'OCRA'" font-size="2.3386">GND</text>
				</g>
				<g>
					<title>text:D2</title>
					
						<text transform="matrix(-4.371139e-008 1 -1 -4.371139e-008 90.9819 1.801)" fill="#FFFFFF" font-family="'OCRA'" font-size="2.3386">D2</text>
				</g>
				<g>
					<title>text:D3</title>
					
						<text transform="matrix(-4.371139e-008 1 -1 -4.371139e-008 83.7827 1.801)" fill="#FFFFFF" font-family="'OCRA'" font-size="2.3386">D3</text>
				</g>
				<g>
					<title>text:D4</title>
					
						<text transform="matrix(-4.371139e-008 1 -1 -4.371139e-008 76.9429 1.801)" fill="#FFFFFF" font-family="'OCRA'" font-size="2.3386">D4</text>
				</g>
				<g>
					<title>text:D5</title>
					
						<text transform="matrix(-4.371139e-008 1 -1 -4.371139e-008 69.7437 1.801)" fill="#FFFFFF" font-family="'OCRA'" font-size="2.3386">D5</text>
				</g>
				<g>
					<title>text:D6</title>
					
						<text transform="matrix(-4.371139e-008 1 -1 -4.371139e-008 62.5444 1.801)" fill="#FFFFFF" font-family="'OCRA'" font-size="2.3386">D6</text>
				</g>
				<g>
					<title>text:D7</title>
					
						<text transform="matrix(-4.371139e-008 1 -1 -4.371139e-008 55.3413 2.1614)" fill="#FFFFFF" font-family="'OCRA'" font-size="2.3386">D7</text>
				</g>
				<g>
					<title>text:D8</title>
					
						<text transform="matrix(-4.371139e-008 1 -1 -4.371139e-008 48.1421 1.801)" fill="#FFFFFF" font-family="'OCRA'" font-size="2.3386">D8</text>
				</g>
				<g>
					<title>text:D9</title>
					
						<text transform="matrix(-4.371139e-008 1 -1 -4.371139e-008 40.9429 1.801)" fill="#FFFFFF" font-family="'OCRA'" font-size="2.3386">D9</text>
				</g>
				<g>
					<title>text:D10</title>
					
						<text transform="matrix(-4.371139e-008 1 -1 -4.371139e-008 33.7437 1.0813)" fill="#FFFFFF" font-family="'OCRA'" font-size="2.3386">D10</text>
				</g>
				<g>
					<title>text:D11</title>
					
						<text transform="matrix(-4.371139e-008 1 -1 -4.371139e-008 26.5444 1.0813)" fill="#FFFFFF" font-family="'OCRA'" font-size="2.3386">D11</text>
				</g>
				<g>
					<title>text:D12</title>
					
						<text transform="matrix(-4.371139e-008 1 -1 -4.371139e-008 19.3413 1.0813)" fill="#FFFFFF" font-family="'OCRA'" font-size="2.3386">D12</text>
				</g>
				<g>
					<title>text:D13</title>
					
						<text transform="matrix(-4.371139e-008 1 -1 -4.371139e-008 19.3413 43.9207)" fill="#FFFFFF" font-family="'OCRA'" font-size="2.3386">D13</text>
				</g>
				<g>
					<title>text:3V3</title>
					
						<text transform="matrix(-4.371139e-008 1 -1 -4.371139e-008 26.1812 43.9207)" fill="#FFFFFF" font-family="'OCRA'" font-size="2.3386">3V3</text>
				</g>
				<g>
					<title>text:REF</title>
					
						<text transform="matrix(-4.371139e-008 1 -1 -4.371139e-008 33.3843 44.282)" fill="#FFFFFF" font-family="'OCRA'" font-size="2.3386">REF</text>
				</g>
				<g>
					<title>text:A0</title>
					
						<text transform="matrix(-4.371139e-008 1 -1 -4.371139e-008 40.9429 45.0007)" fill="#FFFFFF" font-family="'OCRA'" font-size="2.3386">A0</text>
				</g>
				<g>
					<title>text:A1</title>
					
						<text transform="matrix(-4.371139e-008 1 -1 -4.371139e-008 48.1421 45.0007)" fill="#FFFFFF" font-family="'OCRA'" font-size="2.3386">A1</text>
				</g>
				<g>
					<title>text:A2</title>
					
						<text transform="matrix(-4.371139e-008 1 -1 -4.371139e-008 55.3413 45.0007)" fill="#FFFFFF" font-family="'OCRA'" font-size="2.3386">A2</text>
				</g>
				<g>
					<title>text:A3</title>
					
						<text transform="matrix(-4.371139e-008 1 -1 -4.371139e-008 62.5444 45.0007)" fill="#FFFFFF" font-family="'OCRA'" font-size="2.3386">A3</text>
				</g>
				<g>
					<title>text:A4</title>
					
						<text transform="matrix(-4.371139e-008 1 -1 -4.371139e-008 69.7437 44.6414)" fill="#FFFFFF" font-family="'OCRA'" font-size="2.3386">A4</text>
				</g>
				<g>
					<title>text:A5</title>
					
						<text transform="matrix(-4.371139e-008 1 -1 -4.371139e-008 76.9429 45.0007)" fill="#FFFFFF" font-family="'OCRA'" font-size="2.3386">A5</text>
				</g>
				<g>
					<title>text:NC</title>
					
						<text transform="matrix(-4.371139e-008 1 -1 -4.371139e-008 84.1421 45.0007)" fill="#FFFFFF" font-family="'OCRA'" font-size="2.3386">NC</text>
				</g>
				<g>
					<title>text:NC</title>
					
						<text transform="matrix(-4.371139e-008 1 -1 -4.371139e-008 91.3413 45.3601)" fill="#FFFFFF" font-family="'OCRA'" font-size="2.3386">NC</text>
				</g>
				<g>
					<title>text:5V</title>
					
						<text transform="matrix(-4.371139e-008 1 -1 -4.371139e-008 98.5444 45.0007)" fill="#FFFFFF" font-family="'OCRA'" font-size="2.3386">5V</text>
				</g>
				<g>
					<title>text:RST</title>
					
						<text transform="matrix(-4.371139e-008 1 -1 -4.371139e-008 105.7437 44.282)" fill="#FFFFFF" font-family="'OCRA'" font-size="2.3386">RST</text>
				</g>
				<g>
					<title>text:GND</title>
					
						<text transform="matrix(-4.371139e-008 1 -1 -4.371139e-008 112.9429 43.9207)" fill="#FFFFFF" font-family="'OCRA'" font-size="2.3386">GND</text>
				</g>
				<g>
					<title>text:VIN</title>
					
						<text transform="matrix(-4.371139e-008 1 -1 -4.371139e-008 120.1421 44.282)" fill="#FFFFFF" font-family="'OCRA'" font-size="2.3386">VIN</text>
				</g>
				<g>
					<title>text:ICSP</title>
					
						<text transform="matrix(-4.371139e-008 1 -1 -4.371139e-008 114.7437 32.6179)" fill="#FFFFFF" font-family="'OCRA'" font-size="2.6726">ICSP</text>
				</g>
				<g>
					<title>text:TX</title>
					<g transform="matrix(1, 0, 0, 1, 20.16, 43.2)">
						<g transform="rotate(270)">
							<text transform="matrix(0 1 -1 0 23.0391 79.4626)" fill="#FFFFFF" font-family="'OCRA'" font-size="2.6726">TX</text>
						</g>
					</g>
				</g>
				<g>
					<title>text:RX</title>
					<g transform="matrix(1, 0, 0, 1, 20.16, 37.8)">
						<g transform="rotate(270)">
							<text transform="matrix(0 1 -1 0 17.6391 84.8629)" fill="#FFFFFF" font-family="'OCRA'" font-size="2.6726">RX</text>
						</g>
					</g>
				</g>
				<g>
					<title>text:L</title>
					<text transform="matrix(1 0 0 1 48.1416 26.0818)" fill="#FFFFFF" font-family="'OCRA'" font-size="3.3408">L</text>
				</g>
				<g>
					<title>text:SS</title>
					
						<text transform="matrix(-4.371139e-008 1 -1 -4.371139e-008 127.3413 1.801)" fill="#FFFFFF" font-family="'OCRA'" font-size="2.3386">SS</text>
				</g>
				<g>
					<title>text:MOSI</title>
					
						<text transform="matrix(-4.371139e-008 1 -1 -4.371139e-008 134.5444 0.7209)" fill="#FFFFFF" font-family="'OCRA'" font-size="2.3386">MOSI</text>
				</g>
				<g>
					<title>text:SCK</title>
					
						<text transform="matrix(-4.371139e-008 1 -1 -4.371139e-008 134.5444 44.282)" fill="#FFFFFF" font-family="'OCRA'" font-size="2.3386">SCK</text>
				</g>
				<g>
					<title>text:MISO</title>
					
						<text transform="matrix(-4.371139e-008 1 -1 -4.371139e-008 127.3413 43.5613)" fill="#FFFFFF" font-family="'OCRA'" font-size="2.3386">MISO</text>
				</g>
				<g>
					<title>element:C1</title>
					<g>
						<title>package:C0402</title>
					</g>
				</g>
				<g>
					<title>element:C2</title>
					<g>
						<title>package:C0402</title>
					</g>
				</g>
				<g>
					<title>element:C3</title>
					<g>
						<title>package:SMC_B</title>
					</g>
				</g>
				<g>
					<title>element:C4</title>
					<g>
						<title>package:C0402</title>
					</g>
				</g>
				<g>
					<title>element:C5</title>
					<g>
						<title>package:C0402</title>
					</g>
				</g>
				<g>
					<title>element:C6</title>
					<g>
						<title>package:C0402</title>
					</g>
				</g>
				<g>
					<title>element:C7</title>
					<g>
						<title>package:C0402</title>
					</g>
				</g>
				<g>
					<title>element:C9</title>
					<g>
						<title>package:C0402</title>
					</g>
				</g>
				<g>
					<title>element:C10</title>
					<g>
						<title>package:C0402</title>
					</g>
				</g>
				<g>
					<title>element:C11</title>
					<g>
						<title>package:C0402</title>
					</g>
				</g>
				<g>
					<title>element:C12</title>
					<g>
						<title>package:C0402</title>
					</g>
				</g>
				<g>
					<title>element:C13</title>
					<g>
						<title>package:C0402</title>
					</g>
				</g>
				<g>
					<title>element:C14</title>
					<g>
						<title>package:SMC_B</title>
					</g>
				</g>
				<g>
					<title>element:D2</title>
					<g>
						<title>package:MINIMELF</title>
					</g>
				</g>
				<g>
					<title>element:F1</title>
					<g>
						<title>package:L1812</title>
					</g>
				</g>
				<g>
					<title>element:J5</title>
					<g>
						<title>package:HEAD17-NOSS</title>
					</g>
				</g>
				<g>
					<title>element:J6</title>
					<g>
						<title>package:HEAD17-NOSS-1</title>
					</g>
				</g>
				<g>
					<title>element:ON</title>
					<g>
						<title>package:CHIPLED_0805</title>
					</g>
				</g>
				<g>
					<title>element:R1</title>
					<g>
						<title>package:R0402</title>
					</g>
				</g>
				<g>
					<title>element:R2</title>
					<g>
						<title>package:R0402</title>
					</g>
				</g>
				<g>
					<title>element:R4</title>
					<g>
						<title>package:R0402</title>
					</g>
				</g>
				<g>
					<title>element:R5</title>
					<g>
						<title>package:R0402</title>
					</g>
				</g>
				<g>
					<title>element:R6</title>
					<g>
						<title>package:R0402</title>
					</g>
				</g>
				<g>
					<title>element:R7</title>
					<g>
						<title>package:R0402</title>
					</g>
				</g>
				<g>
					<title>element:R8</title>
					<g>
						<title>package:R0402</title>
					</g>
				</g>
				<g>
					<title>element:R9</title>
					<g>
						<title>package:R0402</title>
					</g>
				</g>
				<g>
					<title>element:RP3</title>
					<g>
						<title>package:CAY16</title>
					</g>
				</g>
				<g>
					<title>element:T1</title>
					<g>
						<title>package:SOT-23</title>
					</g>
				</g>
				<g>
					<title>element:T2</title>
					<g>
						<title>package:SOT-23</title>
					</g>
				</g>
				<g>
					<title>element:U$37</title>
					<g>
						<title>package:FIDUCIA-MOUNT</title>
					</g>
				</g>
				<g>
					<title>element:U$53</title>
					<g>
						<title>package:FIDUCIAL-1X2</title>
					</g>
				</g>
				<g>
					<title>element:U1</title>
					<g>
						<title>package:QFN44ML7X7</title>
					</g>
				</g>
				<g>
					<title>element:U2</title>
					<g>
						<title>package:SOT223</title>
					</g>
				</g>
				<g>
					<title>element:U4</title>
					<g>
						<title>package:SOT23-DBV</title>
					</g>
				</g>
				<g>
					<title>element:Z1</title>
					<g>
						<title>package:CT/CN0603</title>
					</g>
				</g>
				<g>
					<title>element:Z2</title>
					<g>
						<title>package:CT/CN0603</title>
					</g>
				</g>
			</g>
			<circle id="connector41pin" fill="none" stroke="#9A916C" stroke-width="0.864" cx="121.223" cy="39.601" r="1.778"/>
			<circle id="connector42pin" fill="none" stroke="#9A916C" stroke-width="0.864" cx="121.223" cy="32.401" r="1.778"/>
			<circle id="connector43pin" fill="none" stroke="#9A916C" stroke-width="0.864" cx="128.423" cy="39.601" r="1.778"/>
			<circle id="connector44pin" fill="none" stroke="#9A916C" stroke-width="0.864" cx="128.423" cy="32.401" r="1.778"/>
			<circle id="connector45pin" fill="none" stroke="#9A916C" stroke-width="0.864" cx="135.623" cy="39.601" r="1.779"/>
			<circle id="connector46pin" fill="none" stroke="#9A916C" stroke-width="0.864" cx="135.623" cy="32.401" r="1.779"/>
			<circle id="connector47pin" fill="none" stroke="#9A916C" stroke-width="0.936" cx="132.023" cy="3.601" r="1.764"/>
			<rect x="130.259" y="1.836" fill="none" stroke="#9A916C" stroke-width="0.936" width="3.527" height="3.528"/>
			<circle id="connector48pin" fill="none" stroke="#9A916C" stroke-width="0.936" cx="124.824" cy="3.601" r="1.764"/>
			<circle id="connector49pin" fill="none" stroke="#9A916C" stroke-width="0.936" cx="117.623" cy="3.601" r="1.764"/>
			<circle id="connector50pin" fill="none" stroke="#9A916C" stroke-width="0.936" cx="110.423" cy="3.601" r="1.764"/>
			<circle id="connector51pin" fill="none" stroke="#9A916C" stroke-width="0.936" cx="103.223" cy="3.601" r="1.764"/>
			<circle id="connector52pin" fill="none" stroke="#9A916C" stroke-width="0.936" cx="96.023" cy="3.601" r="1.764"/>
			<circle id="connector53pin" fill="none" stroke="#9A916C" stroke-width="0.936" cx="88.824" cy="3.601" r="1.764"/>
			<circle id="connector54pin" fill="none" stroke="#9A916C" stroke-width="0.936" cx="81.623" cy="3.601" r="1.764"/>
			<circle id="connector55pin" fill="none" stroke="#9A916C" stroke-width="0.936" cx="74.423" cy="3.601" r="1.764"/>
			<circle id="connector56pin" fill="none" stroke="#9A916C" stroke-width="0.936" cx="67.223" cy="3.601" r="1.764"/>
			<circle id="connector57pin" fill="none" stroke="#9A916C" stroke-width="0.936" cx="60.023" cy="3.601" r="1.764"/>
			<circle id="connector58pin" fill="none" stroke="#9A916C" stroke-width="0.936" cx="52.823" cy="3.601" r="1.764"/>
			<circle id="connector59pin" fill="none" stroke="#9A916C" stroke-width="0.936" cx="45.623" cy="3.601" r="1.764"/>
			<circle id="connector60pin" fill="none" stroke="#9A916C" stroke-width="0.936" cx="38.423" cy="3.601" r="1.764"/>
			<circle id="connector61pin" fill="none" stroke="#9A916C" stroke-width="0.936" cx="31.223" cy="3.601" r="1.764"/>
			<circle id="connector62pin" fill="none" stroke="#9A916C" stroke-width="0.936" cx="24.023" cy="3.601" r="1.764"/>
			<circle id="connector63pin" fill="none" stroke="#9A916C" stroke-width="0.936" cx="16.823" cy="3.601" r="1.764"/>
			<circle id="connector64pin" fill="none" stroke="#9A916C" stroke-width="0.936" cx="132.023" cy="46.8" r="1.764"/>
			<circle id="connector65pin" fill="none" stroke="#9A916C" stroke-width="0.936" cx="124.824" cy="46.8" r="1.764"/>
			<circle id="connector66pin" fill="none" stroke="#9A916C" stroke-width="0.936" cx="117.623" cy="46.8" r="1.764"/>
			<circle id="connector67pin" fill="none" stroke="#9A916C" stroke-width="0.936" cx="110.423" cy="46.8" r="1.764"/>
			<circle id="connector68pin" fill="none" stroke="#9A916C" stroke-width="0.936" cx="103.223" cy="46.8" r="1.764"/>
			<circle id="connector69pin" fill="none" stroke="#9A916C" stroke-width="0.936" cx="96.023" cy="46.8" r="1.764"/>
			<circle id="connector72pin" fill="none" stroke="#9A916C" stroke-width="0.936" cx="74.423" cy="46.8" r="1.764"/>
			<circle id="connector73pin" fill="none" stroke="#9A916C" stroke-width="0.936" cx="67.223" cy="46.8" r="1.764"/>
			<circle id="connector74pin" fill="none" stroke="#9A916C" stroke-width="0.936" cx="60.023" cy="46.8" r="1.764"/>
			<circle id="connector75pin" fill="none" stroke="#9A916C" stroke-width="0.936" cx="52.823" cy="46.8" r="1.764"/>
			<circle id="connector76pin" fill="none" stroke="#9A916C" stroke-width="0.936" cx="45.623" cy="46.8" r="1.764"/>
			<circle id="connector77pin" fill="none" stroke="#9A916C" stroke-width="0.936" cx="38.423" cy="46.8" r="1.764"/>
			<circle id="connector78pin" fill="none" stroke="#9A916C" stroke-width="0.936" cx="31.223" cy="46.8" r="1.764"/>
			<circle id="connector79pin" fill="none" stroke="#9A916C" stroke-width="0.936" cx="24.023" cy="46.8" r="1.764"/>
			<circle id="connector80pin" fill="none" stroke="#9A916C" stroke-width="0.936" cx="16.823" cy="46.8" r="1.764"/>
		</g>
		<g id="c0402" transform="matrix(1, 0, 0, 1, 19.3128, 132.584)">
			<g>
				<g>
					<rect x="-11.625" y="-113.27" fill="#999999" width="2.551" height="5.669"/>
				</g>
				<g>
					<path fill="none" stroke="#FFFFFF" stroke-width="0.25" stroke-miterlimit="10" d="M-10.782-108.946"/>
				</g>
				<g>
					<path fill="#CBA580" d="M-11.181-108.825v-3.363c0-0.076,0.052-0.139,0.114-0.139h1.436c0.063,0,0.115,0.063,0.115,0.139v3.598
						c0,0.074-0.053,0.139-0.115,0.139H-9.96c-0.034,0-0.061,0.033-0.061,0.072v0.17c0,0.02-0.013,0.029-0.027,0.029
						c-0.014,0-0.026-0.013-0.026-0.029v-0.17c0-0.077,0.054-0.14,0.116-0.14h0.326c0.034,0,0.063-0.033,0.063-0.073v-3.596
						c0-0.042-0.026-0.073-0.063-0.073h-1.438c-0.033,0-0.062,0.033-0.062,0.073v3.363c0,0.045,0.027,0.076,0.062,0.076h1.319
						c0.034,0,0.062-0.031,0.062-0.076v-3.135c0-0.041-0.027-0.073-0.062-0.073h-1.186c-0.033,0-0.063,0.032-0.063,0.073v2.909
						c0,0.045,0.015,0.069,0.021,0.072h1.101c0.034,0,0.061-0.032,0.061-0.072v-2.679c0-0.042-0.026-0.075-0.061-0.075h-0.934
						c-0.034,0-0.062,0.033-0.062,0.075v2.468c0,0.041,0.026,0.074,0.062,0.074h0.815c0.033,0,0.062-0.033,0.062-0.074v-2.272
						c0-0.039-0.027-0.073-0.062-0.073h-0.797c-0.015,0-0.027-0.015-0.027-0.031c0-0.02,0.014-0.032,0.027-0.032h0.797
						c0.063,0,0.114,0.063,0.114,0.138v2.271c0,0.077-0.052,0.138-0.114,0.138h-0.815c-0.063,0-0.115-0.061-0.115-0.138v-2.467
						c0-0.077,0.051-0.14,0.115-0.14h0.934c0.063,0,0.115,0.063,0.115,0.14v2.679c0,0.075-0.051,0.137-0.115,0.137h-1.103
						c-0.041,0-0.072-0.06-0.072-0.137v-2.909c0-0.076,0.052-0.138,0.114-0.138h1.187c0.063,0,0.115,0.063,0.115,0.138v3.136
						c0,0.077-0.052,0.141-0.115,0.141h-1.318C-11.131-108.684-11.181-108.747-11.181-108.825z"/>
				</g>
				<g>
					<g>
						<g opacity="0.2">
							<rect x="-9.112" y="-113.27" fill="#FFFFFF" width="0.038" height="5.669"/>
						</g>
					</g>
					<g>
						<g>
							<path fill="#DCDCDC" d="M-9.159-112.659h0.085v-0.61h-2.551v0.609c0.217,0.043,0.478,0.096,0.719,0.096
								C-10.623-112.564-9.405-112.601-9.159-112.659z"/>
						</g>
						<g>
							<path fill="#DCDCDC" d="M-10.906-108.308c-0.241,0-0.5,0.053-0.719,0.098v0.61h2.551v-0.612h-0.085
								C-9.405-108.27-10.622-108.308-10.906-108.308z"/>
						</g>
						<g opacity="0.5">
							<rect x="-9.112" y="-113.27" fill="#FFFFFF" width="0.038" height="0.609"/>
						</g>
						<g opacity="0.5">
							<rect x="-9.112" y="-108.213" fill="#FFFFFF" width="0.038" height="0.611"/>
						</g>
						<g>
							<line fill="none" x1="-11.62" y1="-112.727" x2="-11.62" y2="-112.727"/>
						</g>
					</g>
				</g>
			</g>
		</g>
		<g id="c0402_1_" transform="matrix(1, 0, 0, 1, 35.8572, 54.8245)">
			<g>
				<g>
					<rect x="49.592" y="-18.967" fill="#999999" width="2.551" height="5.669"/>
				</g>
				<g>
					<path fill="none" stroke="#FFFFFF" stroke-width="0.25" stroke-miterlimit="10" d="M50.433-14.642"/>
				</g>
				<g>
					<path fill="#CBA580" d="M50.033-14.521v-3.364c0-0.076,0.053-0.138,0.115-0.138h1.436c0.063,0,0.114,0.063,0.114,0.138v3.598
						c0,0.073-0.052,0.14-0.114,0.14h-0.328c-0.033,0-0.062,0.032-0.062,0.071v0.17c0,0.02-0.013,0.029-0.026,0.029
						s-0.025-0.013-0.025-0.029v-0.17c0-0.077,0.053-0.141,0.115-0.141h0.326c0.033,0,0.063-0.032,0.063-0.072v-3.596
						c0-0.042-0.027-0.073-0.063-0.073h-1.438c-0.034,0-0.063,0.032-0.063,0.073v3.364c0,0.044,0.026,0.075,0.063,0.075h1.318
						c0.035,0,0.062-0.031,0.062-0.075v-3.136c0-0.041-0.026-0.072-0.062-0.072h-1.187c-0.033,0-0.062,0.031-0.062,0.072v2.909
						c0,0.045,0.015,0.069,0.021,0.071h1.103c0.033,0,0.061-0.031,0.061-0.071v-2.68c0-0.042-0.025-0.074-0.061-0.074h-0.936
						c-0.034,0-0.061,0.032-0.061,0.074v2.469c0,0.041,0.024,0.073,0.061,0.073h0.816c0.033,0,0.061-0.032,0.061-0.073v-2.271
						c0-0.04-0.025-0.074-0.061-0.074h-0.797c-0.017,0-0.027-0.014-0.027-0.031c0-0.019,0.013-0.032,0.027-0.032h0.797
						c0.063,0,0.113,0.063,0.113,0.139v2.271c0,0.076-0.053,0.138-0.113,0.138h-0.816c-0.063,0-0.114-0.062-0.114-0.138v-2.468
						c0-0.076,0.052-0.138,0.114-0.138h0.936c0.063,0,0.113,0.062,0.113,0.138v2.68c0,0.074-0.051,0.138-0.113,0.138h-1.104
						c-0.041,0-0.071-0.061-0.071-0.138v-2.909c0-0.075,0.053-0.138,0.113-0.138h1.188c0.063,0,0.115,0.063,0.115,0.138v3.136
						c0,0.078-0.053,0.141-0.115,0.141h-1.317C50.084-14.381,50.033-14.442,50.033-14.521z"/>
				</g>
				<g>
					<g>
						<g opacity="0.2">
							<rect x="52.104" y="-18.967" fill="#FFFFFF" width="0.038" height="5.669"/>
						</g>
					</g>
					<g>
						<g>
							<path fill="#DCDCDC" d="M52.056-18.355h0.086v-0.612h-2.551v0.611c0.217,0.043,0.477,0.095,0.719,0.095
								C50.593-18.26,51.81-18.298,52.056-18.355z"/>
						</g>
						<g>
							<path fill="#DCDCDC" d="M50.31-14.005c-0.242,0-0.5,0.054-0.719,0.099v0.609h2.551v-0.611h-0.086
								C51.81-13.967,50.593-14.005,50.31-14.005z"/>
						</g>
						<g opacity="0.5">
							<rect x="52.104" y="-18.967" fill="#FFFFFF" width="0.038" height="0.611"/>
						</g>
						<g opacity="0.5">
							<rect x="52.104" y="-13.909" fill="#FFFFFF" width="0.038" height="0.61"/>
						</g>
						<g>
							<line fill="none" x1="49.595" y1="-18.424" x2="49.595" y2="-18.424"/>
						</g>
					</g>
				</g>
			</g>
		</g>
		<g id="c0402_2_" transform="matrix(1, 0, 0, 1, 29.7528, 49.9045)">
			<g transform="matrix(-1, 0, 0, -1, 5.67, 2.551)">
				<g>
					<g>
						<rect x="-57.497" y="17.032" fill="#999999" width="2.552" height="5.669"/>
					</g>
					<g>
						<path fill="none" stroke="#FFFFFF" stroke-width="0.25" stroke-miterlimit="10" d="M-56.653,21.358"/>
					</g>
					<g>
						<path fill="#CBA580" d="M-57.053,21.479v-3.364c0-0.077,0.053-0.139,0.114-0.139h1.437c0.063,0,0.115,0.063,0.115,0.139v3.597
							c0,0.074-0.054,0.14-0.115,0.14h-0.328c-0.034,0-0.063,0.032-0.063,0.071v0.171c0,0.02-0.012,0.028-0.025,0.028
							c-0.015,0-0.026-0.012-0.026-0.028v-0.171c0-0.076,0.053-0.14,0.116-0.14h0.326c0.033,0,0.063-0.033,0.063-0.073v-3.595
							c0-0.042-0.025-0.074-0.063-0.074h-1.438c-0.034,0-0.062,0.033-0.062,0.074v3.364c0,0.044,0.025,0.075,0.062,0.075h1.319
							c0.033,0,0.061-0.031,0.061-0.075v-3.136c0-0.041-0.025-0.072-0.061-0.072h-1.188c-0.031,0-0.063,0.031-0.063,0.072v2.908
							c0,0.045,0.016,0.07,0.021,0.072h1.102c0.035,0,0.062-0.032,0.062-0.072v-2.679c0-0.042-0.026-0.075-0.062-0.075h-0.935
							c-0.032,0-0.062,0.033-0.062,0.075v2.468c0,0.041,0.027,0.074,0.062,0.074h0.815c0.033,0,0.063-0.033,0.063-0.074V18.77
							c0-0.04-0.027-0.074-0.063-0.074h-0.797c-0.014,0-0.026-0.015-0.026-0.032c0-0.017,0.015-0.032,0.026-0.032h0.797
							c0.064,0,0.115,0.063,0.115,0.14v2.271c0,0.077-0.053,0.139-0.115,0.139h-0.815c-0.063,0-0.114-0.062-0.114-0.139v-2.467
							c0-0.077,0.051-0.138,0.114-0.138h0.935c0.063,0,0.115,0.061,0.115,0.138v2.679c0,0.075-0.052,0.138-0.115,0.138h-1.104
							c-0.041,0-0.07-0.061-0.07-0.138v-2.908c0-0.076,0.051-0.139,0.112-0.139h1.188c0.063,0,0.115,0.063,0.115,0.139v3.136
							c0,0.077-0.054,0.14-0.115,0.14h-1.318C-57.002,21.618-57.053,21.556-57.053,21.479z"/>
					</g>
					<g>
						<g>
							<g opacity="0.2">
								<rect x="-54.983" y="17.032" fill="#FFFFFF" width="0.038" height="5.669"/>
							</g>
						</g>
						<g>
							<g>
								<path fill="#DCDCDC" d="M-55.03,17.645h0.085v-0.612h-2.552v0.611c0.218,0.043,0.478,0.095,0.72,0.095
									C-56.495,17.739-55.276,17.701-55.03,17.645z"/>
							</g>
							<g>
								<path fill="#DCDCDC" d="M-56.777,21.994c-0.242,0-0.5,0.053-0.72,0.098v0.61h2.552V22.09h-0.085
									C-55.276,22.032-56.493,21.994-56.777,21.994z"/>
							</g>
							<g opacity="0.5">
								<rect x="-54.983" y="17.032" fill="#FFFFFF" width="0.038" height="0.611"/>
							</g>
							<g opacity="0.5">
								<rect x="-54.983" y="22.09" fill="#FFFFFF" width="0.038" height="0.611"/>
							</g>
							<g>
								<line fill="none" x1="-57.491" y1="17.575" x2="-57.491" y2="17.575"/>
							</g>
						</g>
					</g>
				</g>
			</g>
		</g>
		<g id="c0402_3_" transform="matrix(1, 0, 0, 1, 16.1927, 51.3445)">
			<g transform="matrix(-1, 0, 0, -1, 5.67, 2.551)">
				<g>
					<g>
						<rect x="-69.617" y="32.031" fill="#999999" width="2.553" height="5.67"/>
					</g>
					<g>
						<path fill="none" stroke="#FFFFFF" stroke-width="0.25" stroke-miterlimit="10" d="M-68.774,36.357"/>
					</g>
					<g>
						<path fill="#CBA580" d="M-69.173,36.478v-3.364c0-0.075,0.052-0.138,0.114-0.138h1.436c0.063,0,0.115,0.063,0.115,0.138v3.599
							c0,0.073-0.053,0.139-0.115,0.139h-0.328c-0.033,0-0.061,0.033-0.061,0.072v0.17c0,0.019-0.012,0.029-0.027,0.029
							c-0.014,0-0.025-0.014-0.025-0.029v-0.17c0-0.077,0.054-0.142,0.117-0.142h0.324c0.034,0,0.063-0.031,0.063-0.071v-3.597
							c0-0.042-0.026-0.072-0.063-0.072h-1.438c-0.033,0-0.063,0.031-0.063,0.072v3.364c0,0.044,0.027,0.076,0.063,0.076h1.318
							c0.034,0,0.063-0.032,0.063-0.076v-3.135c0-0.041-0.027-0.073-0.063-0.073h-1.186c-0.033,0-0.063,0.032-0.063,0.073v2.909
							c0,0.045,0.016,0.068,0.021,0.07h1.102c0.033,0,0.061-0.03,0.061-0.07v-2.681c0-0.042-0.026-0.073-0.061-0.073h-0.935
							c-0.034,0-0.062,0.031-0.062,0.073v2.47c0,0.041,0.025,0.072,0.062,0.072h0.815c0.032,0,0.062-0.031,0.062-0.072v-2.272
							c0-0.04-0.026-0.074-0.062-0.074h-0.797c-0.016,0-0.027-0.014-0.027-0.03c0-0.02,0.014-0.032,0.027-0.032h0.797
							c0.063,0,0.113,0.062,0.113,0.138v2.271c0,0.076-0.052,0.138-0.113,0.138h-0.815c-0.063,0-0.115-0.062-0.115-0.138v-2.469
							c0-0.075,0.052-0.138,0.115-0.138h0.935c0.063,0,0.114,0.063,0.114,0.138v2.681c0,0.074-0.051,0.137-0.114,0.137h-1.104
							c-0.041,0-0.072-0.06-0.072-0.137v-2.909c0-0.076,0.053-0.138,0.114-0.138h1.187c0.063,0,0.115,0.063,0.115,0.138v3.135
							c0,0.078-0.052,0.141-0.115,0.141h-1.316C-69.123,36.618-69.173,36.556-69.173,36.478z"/>
					</g>
					<g>
						<g>
							<g opacity="0.2">
								<rect x="-67.104" y="32.031" fill="#FFFFFF" width="0.039" height="5.67"/>
							</g>
						</g>
						<g>
							<g>
								<path fill="#DCDCDC" d="M-67.15,32.644h0.086v-0.612h-2.553v0.611c0.219,0.043,0.479,0.095,0.721,0.095
									C-68.613,32.739-67.397,32.701-67.15,32.644z"/>
							</g>
							<g>
								<path fill="#DCDCDC" d="M-68.897,36.994c-0.242,0-0.5,0.054-0.721,0.099v0.609h2.553v-0.611h-0.086
									C-67.397,37.031-68.613,36.994-68.897,36.994z"/>
							</g>
							<g opacity="0.5">
								<rect x="-67.104" y="32.031" fill="#FFFFFF" width="0.039" height="0.611"/>
							</g>
							<g opacity="0.5">
								<rect x="-67.104" y="37.091" fill="#FFFFFF" width="0.039" height="0.61"/>
							</g>
							<g>
								<line fill="none" x1="-69.611" y1="32.575" x2="-69.611" y2="32.575"/>
							</g>
						</g>
					</g>
				</g>
			</g>
		</g>
		<g id="c0402_4_" transform="matrix(1, 0, 0, 1, 8.26135, 43.7845)">
			<g transform="matrix(-1, 0, 0, -1, 5.67, 2.551)">
				<g>
					<g>
						<rect x="-85.107" y="32.404" fill="#999999" width="2.551" height="5.669"/>
					</g>
					<g>
						<path fill="none" stroke="#FFFFFF" stroke-width="0.25" stroke-miterlimit="10" d="M-84.265,36.729"/>
					</g>
					<g>
						<path fill="#CBA580" d="M-84.664,36.85v-3.364c0-0.077,0.052-0.138,0.113-0.138h1.437c0.063,0,0.115,0.062,0.115,0.138v3.597
							c0,0.074-0.054,0.141-0.115,0.141h-0.328c-0.034,0-0.062,0.032-0.062,0.07v0.171c0,0.02-0.012,0.028-0.026,0.028
							s-0.026-0.012-0.026-0.028v-0.171c0-0.076,0.055-0.14,0.116-0.14h0.326c0.034,0,0.063-0.033,0.063-0.073v-3.595
							c0-0.042-0.026-0.074-0.063-0.074h-1.438c-0.033,0-0.062,0.033-0.062,0.074v3.364c0,0.044,0.026,0.075,0.062,0.075h1.319
							c0.034,0,0.062-0.031,0.062-0.075v-3.136c0-0.041-0.026-0.072-0.062-0.072h-1.187c-0.032,0-0.063,0.031-0.063,0.072v2.908
							c0,0.045,0.016,0.07,0.021,0.072h1.101c0.034,0,0.062-0.032,0.062-0.072v-2.679c0-0.042-0.026-0.075-0.062-0.075h-0.935
							c-0.033,0-0.061,0.033-0.061,0.075v2.468c0,0.041,0.025,0.074,0.061,0.074h0.816c0.032,0,0.062-0.033,0.062-0.074v-2.271
							c0-0.04-0.027-0.074-0.062-0.074h-0.798c-0.015,0-0.026-0.015-0.026-0.032s0.014-0.032,0.026-0.032h0.798
							c0.063,0,0.113,0.063,0.113,0.14v2.271c0,0.077-0.052,0.139-0.113,0.139h-0.816c-0.063,0-0.114-0.062-0.114-0.139v-2.467
							c0-0.077,0.051-0.138,0.114-0.138h0.935c0.063,0,0.115,0.061,0.115,0.138v2.679c0,0.075-0.052,0.138-0.115,0.138h-1.103
							c-0.041,0-0.072-0.061-0.072-0.138v-2.908c0-0.075,0.052-0.139,0.113-0.139h1.188c0.063,0,0.115,0.063,0.115,0.139v3.136
							c0,0.077-0.053,0.14-0.115,0.14h-1.318C-84.614,36.99-84.664,36.928-84.664,36.85z"/>
					</g>
					<g>
						<g>
							<g opacity="0.2">
								<rect x="-82.595" y="32.404" fill="#FFFFFF" width="0.039" height="5.669"/>
							</g>
						</g>
						<g>
							<g>
								<path fill="#DCDCDC" d="M-82.642,33.016h0.086v-0.612h-2.552v0.611c0.218,0.043,0.478,0.095,0.72,0.095
									C-84.105,33.111-82.888,33.073-82.642,33.016z"/>
							</g>
							<g>
								<path fill="#DCDCDC" d="M-84.388,37.366c-0.242,0-0.5,0.053-0.72,0.099v0.609h2.552v-0.612h-0.086
									C-82.888,37.404-84.105,37.366-84.388,37.366z"/>
							</g>
							<g opacity="0.5">
								<rect x="-82.595" y="32.404" fill="#FFFFFF" width="0.039" height="0.611"/>
							</g>
							<g opacity="0.5">
								<rect x="-82.595" y="37.461" fill="#FFFFFF" width="0.039" height="0.611"/>
							</g>
							<g>
								<line fill="none" x1="-85.103" y1="32.947" x2="-85.103" y2="32.947"/>
							</g>
						</g>
					</g>
				</g>
			</g>
		</g>
		<g id="con2_usb_micro_b_at_1_" transform="matrix(1, 0, 0, 1, 14.5557, 123.449)">
			<g id="con2_usb_micro_b_at" transform="matrix(1, 0, 0, 1, 18.6038, 120.082)">
				<g>
					<rect x="-15.021" y="-222.516" fill="#666666" width="1.236" height="0.99"/>
					<rect x="-14.881" y="-222.516" fill="#999999" width="1.097" height="0.09"/>
				</g>
				<g>
					<rect x="-15.021" y="-220.671" fill="#666666" width="1.236" height="0.99"/>
					<rect x="-14.881" y="-220.671" fill="#999999" width="1.097" height="0.09"/>
				</g>
				<g>
					<rect x="-15.021" y="-218.83" fill="#666666" width="1.236" height="0.99"/>
					<rect x="-14.881" y="-218.83" fill="#999999" width="1.097" height="0.089"/>
				</g>
				<g>
					<rect x="-15.021" y="-216.986" fill="#666666" width="1.236" height="0.99"/>
					<rect x="-14.881" y="-216.986" fill="#999999" width="1.097" height="0.088"/>
				</g>
				<g>
					<rect x="-15.021" y="-215.144" fill="#666666" width="1.236" height="0.989"/>
					<rect x="-14.881" y="-215.144" fill="#999999" width="1.097" height="0.088"/>
				</g>
				<g>
					<polygon fill="#B3B3B3" points="-31.747,-208.896 -31.747,-227.74 -14.737,-227.74 -14.737,-208.895 					"/>
					<rect x="-24.392" y="-208.692" fill="#666666" width="3.041" height="0.995"/>
					<rect x="-24.392" y="-228.975" fill="#666666" width="3.041" height="1.003"/>
					<rect x="-14.867" y="-227.74" fill="#CCCCCC" width="0.13" height="18.846"/>
					<rect x="-30.352" y="-223.479" fill="#333333" width="15.615" height="10.29"/>
					<polygon fill="#B3B3B3" points="-31.377,-227.972 -31.854,-227.972 -32.936,-228.611 -32.936,-228.975 					"/>
					<polygon fill="#CCCCCC" points="-31.854,-227.972 -31.854,-227.971 -32.393,-227.972 -32.936,-228.611 					"/>
					<polygon fill="#B3B3B3" points="-32.936,-207.693 -32.936,-208.057 -31.854,-208.696 -31.377,-208.696 					"/>
					<polygon fill="#CCCCCC" points="-32.936,-208.057 -32.393,-208.696 -31.854,-208.697 -31.854,-208.696 					"/>
					<g>
						<g>
							<rect x="-31.375" y="-214.4" fill="#F2F2F2" width="0.648" height="0.478"/>
						</g>
						<g>
							<rect x="-31.375" y="-216.487" fill="#F2F2F2" width="0.648" height="0.479"/>
						</g>
						<g>
							<rect x="-31.375" y="-218.571" fill="#F2F2F2" width="0.648" height="0.477"/>
						</g>
						<g>
							<rect x="-31.375" y="-220.657" fill="#F2F2F2" width="0.648" height="0.477"/>
						</g>
						<g>
							<rect x="-31.375" y="-222.742" fill="#F2F2F2" width="0.648" height="0.477"/>
						</g>
						<g>
							<rect x="-31.375" y="-222.742" fill="#808080" width="0.648" height="0.096"/>
						</g>
						<g>
							<rect x="-31.375" y="-220.657" fill="#808080" width="0.648" height="0.097"/>
						</g>
						<g>
							<rect x="-31.375" y="-218.571" fill="#808080" width="0.648" height="0.098"/>
						</g>
						<g>
							<rect x="-31.375" y="-216.486" fill="#808080" width="0.648" height="0.098"/>
						</g>
						<g>
							<rect x="-31.375" y="-214.399" fill="#808080" width="0.648" height="0.098"/>
						</g>
					</g>
					<path fill="#4D4D4D" d="M-31.56-223.255v0.515h0.396v0.477h-0.396v1.608h0.396v0.477h-0.396v1.608h0.396v0.477h-0.396v1.607
						h0.396v0.479h-0.396v1.607h0.396v0.478h-0.396v0.323v0.271c0,0.078,0.063,0.145,0.146,0.145h1.064
						c0.08,0,0.146-0.063,0.146-0.145v-10.004c0-0.078-0.063-0.146-0.146-0.146h-1.064c-0.077,0-0.146,0.064-0.146,0.146V-223.255z"
						/>
					<path fill="#CCCCCC" d="M-15.304-227.972l0.567,0.229v2.534c0,0-0.112-2.303-0.282-2.385s-0.285,0.109-0.285,0.109V-227.972z"
						/>
					<path fill="#CCCCCC" d="M-15.304-208.696l0.566-0.229v-2.534c0,0-0.113,2.302-0.283,2.384c-0.17,0.082-0.283-0.108-0.283-0.108
						V-208.696z"/>
					<path fill="#E6E6E6" d="M-14.737-212.085h-1.635v-1.604h1.635v-0.461h-0.565v-8.363h0.565v-0.523h-1.636v-1.605h1.636v-3.325
						h-17.008v19.272h17.008V-212.085z M-28.594-223.04h-0.813v-1.594h0.881c0.276-0.427,0.76-0.708,1.307-0.708
						c0.598,0,1.105,0.22,1.369,0.708l0,0h4.479v1.593h-4.481c-0.264,0.486-0.773,0.824-1.371,0.824
						C-27.82-222.216-28.331-222.552-28.594-223.04z M-28.594-212.152h-0.813v-1.592h0.881c0.276-0.427,0.76-0.707,1.307-0.707
						c0.598,0,1.105,0.217,1.369,0.707l0,0h4.479v1.592h-4.481c-0.264,0.49-0.773,0.826-1.371,0.826
						C-27.82-211.326-28.331-211.661-28.594-212.152z"/>
					<polygon fill="#F2F2F2" points="-31.747,-227.565 -31.747,-227.972 -15.304,-227.972 -15.304,-226.44 					"/>
					<polygon fill="#999999" points="-31.747,-208.696 -20.767,-209.266 -15.304,-209.832 -15.304,-208.696 					"/>
					<rect x="-21.503" y="-224.633" fill="#CCCCCC" width="0.131" height="1.593"/>
					<rect x="-21.503" y="-213.742" fill="#CCCCCC" width="0.131" height="1.591"/>
					<rect x="-31.544" y="-227.026" fill="#B3B3B3" width="0.66" height="17.387"/>
					<rect x="-31.747" y="-227.026" fill="#CCCCCC" width="0.313" height="17.387"/>
				</g>
			</g>
		</g>
		<g id="_x32_x03" transform="matrix(1, 0, 0, 1, 25.3785, 7.19519)">
			<g transform="matrix(0, 1, -1, 0, 17.793, -3.52001)">
				<g>
					<polygon fill="#404040" points="37.939,-95.976 34.008,-95.976 30.668,-95.976 26.734,-95.976 25.223,-94.465 25.223,-90.534 
						26.734,-89.025 30.668,-89.025 34.008,-89.025 37.939,-89.025 39.453,-90.534 39.453,-94.465 					"/>
					<polygon fill="#404040" points="37.939,-88.794 34.008,-88.794 30.668,-88.794 26.734,-88.794 25.223,-87.285 25.223,-83.353 
						26.734,-81.84 30.668,-81.84 34.008,-81.84 37.939,-81.84 39.453,-83.353 39.453,-87.285 					"/>
					<polygon fill="#404040" points="37.939,-81.617 34.008,-81.617 30.668,-81.617 26.734,-81.617 25.223,-80.105 25.223,-76.172 
						26.734,-74.663 30.668,-74.663 34.008,-74.663 37.939,-74.663 39.453,-76.172 39.453,-80.105 					"/>
					<polygon fill="#404040" points="37.939,-95.976 34.008,-95.976 30.668,-95.976 26.734,-95.976 25.223,-94.465 25.223,-90.534 
						26.734,-89.025 30.668,-89.025 34.008,-89.025 37.939,-89.025 39.453,-90.534 39.453,-94.465 					"/>
					<polygon fill="#404040" points="37.939,-88.794 34.008,-88.794 30.668,-88.794 26.734,-88.794 25.223,-87.285 25.223,-83.353 
						26.734,-81.84 30.668,-81.84 34.008,-81.84 37.939,-81.84 39.453,-83.353 39.453,-87.285 					"/>
					<polygon fill="#404040" points="37.939,-81.617 34.008,-81.617 30.668,-81.617 26.734,-81.617 25.223,-80.105 25.223,-76.172 
						26.734,-74.663 30.668,-74.663 34.008,-74.663 37.939,-74.663 39.453,-76.172 39.453,-80.105 					"/>
					
						<rect x="27.63" y="-79.423" transform="matrix(2.578893e-006 1 -1 2.578893e-006 -49.4937 -107.0538)" fill="#8D8C8C" width="2.3" height="2.298"/>
					
						<rect x="34.83" y="-79.423" transform="matrix(2.578893e-006 1 -1 2.578893e-006 -42.295 -114.2535)" fill="#8D8C8C" width="2.299" height="2.298"/>
					
						<rect x="27.631" y="-86.62" transform="matrix(2.578893e-006 1 -1 2.578893e-006 -56.6915 -114.2515)" fill="#8D8C8C" width="2.299" height="2.298"/>
					
						<rect x="34.83" y="-86.621" transform="matrix(2.578893e-006 1 -1 2.578893e-006 -49.4928 -121.4512)" fill="#8D8C8C" width="2.298" height="2.298"/>
					
						<rect x="27.632" y="-93.819" transform="matrix(2.578893e-006 1 -1 2.578893e-006 -63.8897 -121.4497)" fill="#8D8C8C" width="2.297" height="2.298"/>
					
						<rect x="34.83" y="-93.819" transform="matrix(2.578893e-006 1 -1 2.578893e-006 -56.691 -128.6494)" fill="#8D8455" width="2.298" height="2.298"/>
					
						<rect x="35.39" y="-93.263" transform="matrix(2.578893e-006 1 -1 2.578893e-006 -56.6881 -128.6514)" fill="#8C8663" width="1.184" height="1.186"/>
					<polygon fill="#B8AF82" points="34.831,-93.819 35.39,-93.26 36.571,-93.26 37.129,-93.819 					"/>
					<polygon fill="#80795B" points="36.571,-92.079 36.571,-93.26 37.129,-93.819 37.129,-91.521 					"/>
					<polygon fill="#5E5B43" points="35.39,-92.079 36.571,-92.079 37.129,-91.521 34.831,-91.521 					"/>
					<polygon fill="#9A916C" points="34.831,-93.819 35.39,-93.26 35.39,-92.079 34.831,-91.521 					"/>
					
						<rect x="28.189" y="-93.262" transform="matrix(2.578893e-006 1 -1 2.578893e-006 -63.8897 -121.4507)" fill="#8C8663" width="1.183" height="1.184"/>
					<polygon fill="#B8AF82" points="27.632,-93.819 28.189,-93.26 29.371,-93.26 29.929,-93.819 					"/>
					<polygon fill="#80795B" points="29.371,-92.079 29.371,-93.26 29.929,-93.819 29.929,-91.521 					"/>
					<polygon fill="#5E5B43" points="28.189,-92.079 29.371,-92.079 29.929,-91.521 27.632,-91.521 					"/>
					<polygon fill="#9A916C" points="27.632,-93.819 28.189,-93.26 28.189,-92.079 27.632,-91.521 					"/>
					
						<rect x="35.389" y="-86.064" transform="matrix(2.578893e-006 1 -1 2.578893e-006 -49.4898 -121.4531)" fill="#8C8663" width="1.186" height="1.186"/>
					<polygon fill="#B8AF82" points="34.831,-86.62 35.39,-86.064 36.571,-86.064 37.129,-86.62 					"/>
					<polygon fill="#80795B" points="36.571,-84.881 36.571,-86.064 37.129,-86.62 37.129,-84.323 					"/>
					<polygon fill="#5E5B43" points="35.39,-84.881 36.571,-84.881 37.129,-84.323 34.831,-84.323 					"/>
					<polygon fill="#9A916C" points="34.831,-86.62 35.39,-86.064 35.39,-84.881 34.831,-84.323 					"/>
					
						<rect x="28.188" y="-86.064" transform="matrix(2.578893e-006 1 -1 2.578893e-006 -56.6915 -114.2525)" fill="#8C8663" width="1.185" height="1.184"/>
					<polygon fill="#B8AF82" points="27.632,-86.62 28.189,-86.064 29.371,-86.064 29.929,-86.62 					"/>
					<polygon fill="#80795B" points="29.371,-84.881 29.371,-86.064 29.929,-86.62 29.929,-84.323 					"/>
					<polygon fill="#5E5B43" points="28.189,-84.881 29.371,-84.881 29.929,-84.323 27.632,-84.323 					"/>
					<polygon fill="#9A916C" points="27.632,-86.62 28.189,-86.064 28.189,-84.881 27.632,-84.323 					"/>
					
						<rect x="35.389" y="-78.864" transform="matrix(2.578893e-006 1 -1 2.578893e-006 -42.2892 -114.2525)" fill="#8C8663" width="1.187" height="1.186"/>
					<polygon fill="#B8AF82" points="34.831,-79.422 35.39,-78.863 36.571,-78.863 37.129,-79.422 					"/>
					<polygon fill="#80795B" points="36.571,-77.68 36.571,-78.863 37.129,-79.422 37.129,-77.124 					"/>
					<polygon fill="#5E5B43" points="35.39,-77.68 36.571,-77.68 37.129,-77.124 34.831,-77.124 					"/>
					<polygon fill="#9A916C" points="34.831,-79.422 35.39,-78.863 35.39,-77.68 34.831,-77.124 					"/>
					
						<rect x="28.187" y="-78.863" transform="matrix(2.578893e-006 1 -1 2.578893e-006 -49.4903 -107.0513)" fill="#8C8663" width="1.187" height="1.184"/>
					<polygon fill="#B8AF82" points="27.632,-79.422 28.189,-78.863 29.371,-78.863 29.929,-79.422 					"/>
					<polygon fill="#80795B" points="29.371,-77.68 29.371,-78.863 29.929,-79.422 29.929,-77.124 					"/>
					<polygon fill="#5E5B43" points="28.189,-77.68 29.371,-77.68 29.929,-77.124 27.632,-77.124 					"/>
					<polygon fill="#9A916C" points="27.632,-79.422 28.189,-78.863 28.189,-77.68 27.632,-77.124 					"/>
				</g>
			</g>
		</g>
		<g id="chipled_0805" transform="matrix(1, 0, 0, 1, 23.7674, 93.6158)">
			<g transform="matrix(0, -1, 1, 0, -1.77951, 5.62951)">
				<g id="led-0603_1_" transform="matrix(1, 0, 0, 1, 21.5539, 31.3385)">
					<line fill="none" x1="55.641" y1="-9.73" x2="48.406" y2="-9.73"/>
					
						<rect x="50.052" y="-11.489" transform="matrix(-2.547107e-006 -1 1 -2.547107e-006 59.7838 44.1524)" fill="#F2F2F2" width="3.833" height="7.348"/>
					<path opacity="0.7" fill="#22B573" enable-background="new    " d="M50.893-9.732c0,0-0.645,0.468-0.867,0.427
						c-0.219-0.041-0.541,0.147-0.676,0l0.02-0.425L50.893-9.732z"/>
					<g>
						
							<rect x="51.558" y="-8.213" transform="matrix(-2.547107e-006 -1 1 -2.547107e-006 59.8243 44.2525)" fill="#FFFFFF" width="0.961" height="0.854"/>
						
							<rect x="52.014" y="-8.694" transform="matrix(-2.547107e-006 -1 1 -2.547107e-006 60.3058 43.771)" fill="#B3B3B3" width="0.049" height="0.854"/>
					</g>
					<g>
						<polygon fill="#D1C690" points="50.313,-9.307 49.35,-9.412 49.35,-8.68 50.313,-8.785 						"/>
						<g>
							<path fill="#D1C690" d="M50.253-9.109c0.002,0,0.004,0,0.008,0c0.266,0.035,0.447,0.104,0.598,0.162
								c0.209,0.08,0.561,0.782,0.828,0.696c0.027-0.012,0.062,0.011,0.066,0.043c0.008,0.035-0.01,0.068-0.039,0.078
								c-0.305,0.095-0.674-0.617-0.895-0.701c-0.146-0.06-0.316-0.123-0.57-0.155c-0.03-0.004-0.057-0.032-0.049-0.067
								C50.203-9.084,50.225-9.109,50.253-9.109z"/>
						</g>
						<polygon fill="#D1C690" points="53.733,-6.419 54.7,-6.317 54.7,-7.046 53.733,-6.944 						"/>
						<g>
							<path fill="#D1C690" d="M52.081-7.941c0.023,0,0.049,0.021,0.055,0.048c0.063,0.292,1.088,1.151,1.885,1.151
								c0.033,0,0.059,0.026,0.059,0.063c-0.002,0.033-0.025,0.063-0.059,0.063h-0.002c-0.749,0-1.891-0.77-1.993-1.245
								c-0.008-0.035,0.014-0.067,0.041-0.078C52.072-7.941,52.076-7.941,52.081-7.941z"/>
						</g>
						<path fill="#D1C690" d="M51.61-7.957c0,0,0.356,0.002,0.385-0.311c-0.07,0-0.385,0-0.385,0V-7.957z"/>
						<path fill="#D1C690" d="M52.046-7.637c0,0-0.158-0.307-0.053-0.352c0.105-0.048,0.178-0.052,0.238,0.028
							C52.294-7.877,52.046-7.637,52.046-7.637z"/>
						<path fill="#9D956C" d="M51.686-8.305c-0.27,0.084-0.619-0.618-0.828-0.698c-0.145-0.061-0.33-0.127-0.598-0.162v0.059
							c0.266,0.035,0.447,0.104,0.598,0.162c0.209,0.08,0.561,0.782,0.828,0.696V-8.305z"/>
						<polygon fill="#9D956C" points="53.733,-6.999 54.7,-7.101 54.7,-7.046 53.733,-6.944 						"/>
						<path fill="#9D956C" d="M52.137-7.951c0.063,0.291,1.07,1.212,1.885,1.149v0.06c-0.877,0.061-1.825-0.859-1.887-1.151
							L52.137-7.951z"/>
						<path fill="#9D956C" d="M51.994-8.324c-0.07,0-0.383,0-0.383,0v0.058c0,0,0.313,0,0.383,0V-8.324z"/>
						<path fill="#9D956C" d="M52.233-8.012c-0.063-0.08-0.131-0.076-0.236-0.031l-0.002,0.06c0.105-0.049,0.179-0.052,0.238,0.028
							V-8.012z"/>
					</g>
					
						<rect x="52.027" y="-8.037" transform="matrix(-2.547107e-006 -1 1 -2.547107e-006 57.9776 46.1275)" opacity="0.5" fill="#FFFFFF" enable-background="new    " width="0.051" height="4.224"/>
					<path opacity="0.5" fill="#F2F2F2" enable-background="new    " d="M54.682-5.899V-9.73h-5.316l-0.005,3.831H54.682z"/>
					<path opacity="0.55" fill="#FFFFFF" enable-background="new    " d="M54.632-6.55v0.271c-0.019,0.151,0.012,0.271-0.098,0.271
						c-0.611,0-4.703,0-4.854,0c-0.168,0-0.176-0.065,0.012-0.065c0.132,0,3.895,0,4.348,0c0.457,0,0.518-0.104,0.518-0.197
						l-0.002-0.271C54.554-6.724,54.632-6.724,54.632-6.55z"/>
					<path opacity="0.03" enable-background="new    " d="M49.505-9.509c0-0.068-0.012-0.139,0.098-0.139c0.611,0,4.667,0,4.817,0
						c0.168,0,0.176,0.065-0.008,0.065c-0.137,0-3.14,0.002-3.59,0.002C50.227-9.58,49.505-9.509,49.505-9.509z"/>
					<path fill="#D1C690" d="M55.64-9.732h-0.77v0.521c0,0.125-0.08,0.213-0.188,0.268v3.047h1.01v-3.783V-9.73"/>
					
						<rect x="55.161" y="-6.427" transform="matrix(-2.547107e-006 -1 1 -2.547107e-006 61.111 49.2637)" opacity="0.5" fill="#FFFFFF" enable-background="new    " width="0.052" height="1.007"/>
					<path fill="#D1C690" d="M48.294-9.732v0.05v3.783h1.071v-3.464c-0.104-0.056-0.19-0.146-0.19-0.271v-0.101h-0.83"/>
					
						<rect x="48.805" y="-6.46" transform="matrix(-2.547107e-006 -1 1 -2.547107e-006 54.755 42.9068)" opacity="0.5" fill="#FFFFFF" enable-background="new    " width="0.052" height="1.071"/>
				</g>
			</g>
		</g>
		<g id="chipled_0805_1_" transform="matrix(1, 0, 0, 1, 11.6415, 32.1755)">
			<g transform="matrix(0, 1, -1, 0, 5.62951, 1.77951)">
				<g id="led-0603_2_" transform="matrix(1, 0, 0, 1, 21.5539, 31.3385)">
					<line fill="none" x1="-38.299" y1="-122.917" x2="-45.535" y2="-122.917"/>
					
						<rect x="-43.89" y="-124.676" transform="matrix(2.578893e-006 1 -1 2.578893e-006 -162.974 -79.0287)" fill="#F2F2F2" width="3.834" height="7.349"/>
					<path opacity="0.7" fill="#22B573" enable-background="new    " d="M-43.047-122.919c0,0-0.646,0.467-0.867,0.426
						c-0.219-0.041-0.541,0.148-0.676,0l0.019-0.424L-43.047-122.919z"/>
					<g>
						
							<rect x="-42.382" y="-121.4" transform="matrix(2.578893e-006 1 -1 2.578893e-006 -162.8744 -79.0717)" fill="#FFFFFF" width="0.961" height="0.854"/>
						
							<rect x="-41.926" y="-121.881" transform="matrix(2.578893e-006 1 -1 2.578893e-006 -163.3553 -79.5526)" fill="#B3B3B3" width="0.05" height="0.854"/>
					</g>
					<g>
						<polygon fill="#D1C690" points="-43.627,-122.495 -44.59,-122.598 -44.59,-121.868 -43.627,-121.971 						"/>
						<g>
							<path fill="#D1C690" d="M-43.688-122.296c0.002,0,0.005,0,0.009,0c0.266,0.035,0.446,0.104,0.598,0.162
								c0.209,0.08,0.56,0.781,0.828,0.694c0.026-0.012,0.061,0.013,0.065,0.043c0.009,0.035-0.01,0.067-0.039,0.078
								c-0.305,0.097-0.674-0.616-0.894-0.7c-0.147-0.061-0.317-0.123-0.571-0.154c-0.028-0.004-0.056-0.033-0.049-0.068
								C-43.738-122.271-43.715-122.296-43.688-122.296z"/>
						</g>
						<polygon fill="#D1C690" points="-40.207,-119.607 -39.241,-119.504 -39.241,-120.234 -40.207,-120.131 						"/>
						<g>
							<path fill="#D1C690" d="M-41.86-121.128c0.024,0,0.049,0.02,0.056,0.047c0.063,0.291,1.088,1.152,1.885,1.152
								c0.033,0,0.058,0.024,0.058,0.063c-0.002,0.033-0.024,0.063-0.058,0.063h-0.002c-0.749,0-1.892-0.771-1.993-1.244
								c-0.008-0.035,0.013-0.068,0.041-0.078C-41.87-121.128-41.865-121.128-41.86-121.128z"/>
						</g>
						<path fill="#D1C690" d="M-42.33-121.144c0,0,0.356,0.003,0.384-0.312c-0.069,0-0.384,0-0.384,0V-121.144z"/>
						<path fill="#D1C690" d="M-41.895-120.825c0,0-0.157-0.307-0.053-0.352c0.106-0.047,0.178-0.053,0.239,0.027
							C-41.647-121.064-41.895-120.825-41.895-120.825z"/>
						<path fill="#9D956C" d="M-42.254-121.493c-0.271,0.084-0.619-0.618-0.828-0.698c-0.146-0.06-0.33-0.127-0.598-0.162v0.06
							c0.266,0.035,0.446,0.104,0.598,0.162c0.209,0.08,0.56,0.782,0.828,0.695V-121.493z"/>
						<polygon fill="#9D956C" points="-40.207,-120.186 -39.241,-120.29 -39.241,-120.234 -40.207,-120.131 						"/>
						<path fill="#9D956C" d="M-41.803-121.137c0.063,0.291,1.069,1.211,1.885,1.147v0.062c-0.877,0.059-1.826-0.861-1.887-1.152
							L-41.803-121.137z"/>
						<path fill="#9D956C" d="M-41.947-121.51c-0.069,0-0.382,0-0.382,0v0.057c0,0,0.313,0,0.382,0V-121.51z"/>
						<path fill="#9D956C" d="M-41.707-121.2c-0.063-0.08-0.131-0.076-0.237-0.031l-0.002,0.061
							c0.106-0.049,0.179-0.051,0.239,0.028V-121.2z"/>
					</g>
					
						<rect x="-41.914" y="-121.222" transform="matrix(2.578893e-006 1 -1 2.578893e-006 -160.9999 -77.2216)" opacity="0.5" fill="#FFFFFF" enable-background="new    " width="0.051" height="4.223"/>
					<path opacity="0.5" fill="#F2F2F2" enable-background="new    " d="M-39.258-119.087v-3.83h-5.316l-0.005,3.83H-39.258z"/>
					<path opacity="0.55" fill="#FFFFFF" enable-background="new    " d="M-39.308-119.738v0.271
						c-0.02,0.15,0.012,0.271-0.099,0.271c-0.611,0-4.703,0-4.854,0c-0.168,0-0.177-0.064,0.012-0.064c0.132,0,3.894,0,4.347,0
						c0.457,0,0.519-0.104,0.519-0.197l-0.002-0.271C-39.386-119.913-39.308-119.913-39.308-119.738z"/>
					<path opacity="0.03" enable-background="new    " d="M-44.436-122.697c0-0.067-0.012-0.138,0.099-0.138c0.61,0,4.667,0,4.816,0
						c0.168,0,0.177,0.063-0.008,0.063c-0.136,0-3.139,0.003-3.589,0.003C-43.713-122.766-44.436-122.697-44.436-122.697z"/>
					<path fill="#D1C690" d="M-38.3-122.919h-0.771v0.521c0,0.125-0.08,0.214-0.188,0.269v3.047h1.01v-3.783v-0.051"/>
					
						<rect x="-38.779" y="-119.614" transform="matrix(2.578893e-006 1 -1 2.578893e-006 -157.8632 -80.3583)" opacity="0.5" fill="#FFFFFF" enable-background="new    " width="0.053" height="1.006"/>
					<path fill="#D1C690" d="M-45.647-122.919v0.049v3.783h1.072v-3.463c-0.104-0.058-0.19-0.146-0.19-0.271v-0.1h-0.83"/>
					
						<rect x="-45.136" y="-119.647" transform="matrix(2.578893e-006 1 -1 2.578893e-006 -164.2201 -74.0004)" opacity="0.5" fill="#FFFFFF" enable-background="new    " width="0.052" height="1.072"/>
				</g>
			</g>
		</g>
		<g id="chipled_0805_2_" transform="matrix(1, 0, 0, 1, 11.6415, 37.5755)">
			<g transform="matrix(0, 1, -1, 0, 5.62951, 1.77951)">
				<g id="led-0603_3_" transform="matrix(1, 0, 0, 1, 21.5539, 31.3385)">
					<line fill="none" x1="-43.699" y1="-117.516" x2="-50.935" y2="-117.516"/>
					
						<rect x="-49.29" y="-119.276" transform="matrix(2.578893e-006 1 -1 2.578893e-006 -162.9741 -68.2279)" fill="#F2F2F2" width="3.834" height="7.35"/>
					<path opacity="0.7" fill="#22B573" enable-background="new    " d="M-48.447-117.518c0,0-0.646,0.467-0.867,0.426
						c-0.219-0.041-0.541,0.147-0.676,0l0.019-0.424L-48.447-117.518z"/>
					<g>
						
							<rect x="-47.782" y="-116" transform="matrix(2.578893e-006 1 -1 2.578893e-006 -162.8745 -68.2708)" fill="#FFFFFF" width="0.961" height="0.854"/>
						
							<rect x="-47.326" y="-116.482" transform="matrix(2.578893e-006 1 -1 2.578893e-006 -163.3554 -68.7528)" fill="#B3B3B3" width="0.049" height="0.854"/>
					</g>
					<g>
						<polygon fill="#D1C690" points="-49.027,-117.094 -49.99,-117.199 -49.99,-116.467 -49.027,-116.572 						"/>
						<g>
							<path fill="#D1C690" d="M-49.088-116.896c0.002,0,0.005,0,0.009,0c0.266,0.035,0.446,0.104,0.598,0.162
								c0.209,0.08,0.56,0.782,0.828,0.696c0.026-0.012,0.061,0.011,0.065,0.043c0.009,0.035-0.01,0.068-0.039,0.078
								c-0.305,0.095-0.674-0.617-0.894-0.701c-0.147-0.061-0.317-0.123-0.571-0.155c-0.028-0.004-0.056-0.032-0.049-0.067
								C-49.138-116.872-49.115-116.896-49.088-116.896z"/>
						</g>
						<polygon fill="#D1C690" points="-45.607,-114.208 -44.641,-114.104 -44.641,-114.835 -45.607,-114.731 						"/>
						<g>
							<path fill="#D1C690" d="M-47.26-115.727c0.024,0,0.049,0.02,0.056,0.047c0.063,0.293,1.088,1.151,1.885,1.151
								c0.033,0,0.058,0.026,0.058,0.063c-0.002,0.033-0.024,0.063-0.058,0.063h-0.002c-0.749,0-1.892-0.77-1.993-1.245
								c-0.008-0.034,0.013-0.067,0.041-0.077C-47.269-115.727-47.265-115.727-47.26-115.727z"/>
						</g>
						<path fill="#D1C690" d="M-47.73-115.745c0,0,0.356,0.003,0.384-0.311c-0.069,0-0.384,0-0.384,0V-115.745z"/>
						<path fill="#D1C690" d="M-47.295-115.424c0,0-0.157-0.308-0.053-0.353c0.106-0.048,0.178-0.052,0.239,0.028
							C-47.047-115.665-47.295-115.424-47.295-115.424z"/>
						<path fill="#9D956C" d="M-47.654-116.092c-0.271,0.084-0.619-0.619-0.828-0.699c-0.146-0.06-0.33-0.127-0.598-0.162v0.061
							c0.266,0.034,0.446,0.104,0.598,0.161c0.209,0.08,0.56,0.782,0.828,0.696V-116.092z"/>
						<polygon fill="#9D956C" points="-45.607,-114.786 -44.641,-114.887 -44.641,-114.835 -45.607,-114.731 						"/>
						<path fill="#9D956C" d="M-47.203-115.738c0.063,0.291,1.069,1.212,1.885,1.149v0.06c-0.877,0.062-1.825-0.858-1.887-1.151
							L-47.203-115.738z"/>
						<path fill="#9D956C" d="M-47.347-116.111c-0.069,0-0.382,0-0.382,0v0.058c0,0,0.313,0,0.382,0V-116.111z"/>
						<path fill="#9D956C" d="M-47.107-115.799c-0.063-0.08-0.131-0.076-0.237-0.031l-0.002,0.06
							c0.106-0.049,0.179-0.052,0.239,0.028V-115.799z"/>
					</g>
					
						<rect x="-47.314" y="-115.822" transform="matrix(2.578893e-006 1 -1 2.578893e-006 -160.9985 -66.4222)" opacity="0.5" fill="#FFFFFF" enable-background="new    " width="0.053" height="4.223"/>
					<path opacity="0.5" fill="#F2F2F2" enable-background="new    " d="M-44.658-113.685v-3.831h-5.316l-0.005,3.831H-44.658z"/>
					<path opacity="0.55" fill="#FFFFFF" enable-background="new    " d="M-44.708-114.338v0.271
						c-0.019,0.15,0.012,0.271-0.099,0.271c-0.611,0-4.703,0-4.854,0c-0.168,0-0.177-0.065,0.012-0.065c0.132,0,3.894,0,4.347,0
						c0.457,0,0.519-0.104,0.519-0.196l-0.002-0.271C-44.786-114.512-44.708-114.512-44.708-114.338z"/>
					<path opacity="0.03" enable-background="new    " d="M-49.836-117.297c0-0.067-0.012-0.138,0.099-0.138c0.61,0,4.667,0,4.816,0
						c0.168,0,0.177,0.063-0.008,0.063c-0.136,0-3.139,0.002-3.589,0.002C-49.113-117.367-49.836-117.297-49.836-117.297z"/>
					<path fill="#D1C690" d="M-43.7-117.518h-0.771v0.521c0,0.125-0.08,0.213-0.188,0.268v3.049h1.01v-3.785v-0.049"/>
					
						<rect x="-44.179" y="-114.213" transform="matrix(2.578893e-006 1 -1 2.578893e-006 -157.8627 -69.5579)" opacity="0.5" fill="#FFFFFF" enable-background="new    " width="0.053" height="1.006"/>
					<path fill="#D1C690" d="M-51.047-117.518v0.049v3.784h1.072v-3.465c-0.104-0.056-0.19-0.146-0.19-0.271v-0.102h-0.83"/>
					
						<rect x="-50.536" y="-114.247" transform="matrix(2.578893e-006 1 -1 2.578893e-006 -164.2202 -63.2005)" opacity="0.5" fill="#FFFFFF" enable-background="new    " width="0.053" height="1.072"/>
				</g>
			</g>
		</g>
		<g id="smd_157sw" transform="matrix(1, 0, 0, 1, 8.7817, 8.95615)">
			<g transform="matrix(0, -1, 1, 0, 0.777996, 13.82)">
				<polygon fill="#CCCCCC" points="14.176,122.834 13.808,122.834 13.808,114.569 14.176,114.569 14.176,108.325 -1.804,108.325 
					-1.804,129.08 14.176,129.08 				"/>
				<polygon fill="#CCCCCC" points="-4.364,114.569 -3.995,114.569 -3.995,122.834 -4.364,122.834 -4.364,129.08 11.495,129.08 
					11.495,108.325 -4.364,108.325 				"/>
				<circle fill="#641D1C" cx="4.907" cy="118.702" r="5.117"/>
				<path opacity="0.2" enable-background="new    " d="M4.657,113.586c-2.827,0-5.118,2.289-5.118,5.115s2.289,5.119,5.118,5.119
					h0.249c-2.827,0-5.118-2.291-5.118-5.119c0-2.826,2.291-5.115,5.118-5.115H4.657z"/>
				<circle fill="#852725" cx="4.906" cy="118.702" r="4.93"/>
				<circle fill="#852725" cx="5.022" cy="118.702" r="4.929"/>
				<g>
					<path opacity="0.1" enable-background="new    " d="M9.836,118.584c0-2.723-2.206-4.93-4.931-4.93
						c-2.724,0-4.93,2.207-4.93,4.93v0.234c0-2.723,2.208-4.93,4.93-4.93c2.725,0,4.931,2.207,4.931,4.93V118.584z"/>
					<path opacity="0.2" fill="#FFFFFF" enable-background="new    " d="M-0.023,118.584c0,2.725,2.208,4.931,4.93,4.931
						c2.725,0,4.931-2.206,4.931-4.931v0.234c0,2.723-2.206,4.93-4.931,4.93c-2.724,0-4.93-2.207-4.93-4.93V118.584z"/>
				</g>
				
					<rect x="10.866" y="125.774" transform="matrix(-2.547107e-006 -1 1 -2.547107e-006 -111.969 139.9499)" opacity="0.2" fill="#FFFFFF" enable-background="new    " width="6.248" height="0.371"/>
				
					<rect x="10.868" y="111.261" transform="matrix(-2.547107e-006 -1 1 -2.547107e-006 -97.4564 125.4372)" opacity="0.2" fill="#FFFFFF" enable-background="new    " width="6.244" height="0.371"/>
				
					<rect x="9.491" y="118.517" transform="matrix(-2.547107e-006 -1 1 -2.547107e-006 -105.0779 132.3254)" opacity="0.2" fill="#FFFFFF" enable-background="new    " width="8.266" height="0.368"/>
				
					<rect x="-7.288" y="125.775" transform="matrix(-2.547107e-006 -1 1 -2.547107e-006 -130.1234 121.7956)" opacity="0.2" enable-background="new    " width="6.248" height="0.369"/>
				
					<rect x="-7.286" y="111.263" transform="matrix(-2.547107e-006 -1 1 -2.547107e-006 -115.6102 107.2834)" opacity="0.2" enable-background="new    " width="6.244" height="0.368"/>
				
					<rect x="-7.928" y="118.517" transform="matrix(-2.547107e-006 -1 1 -2.547107e-006 -122.4964 114.907)" opacity="0.2" enable-background="new    " width="8.266" height="0.369"/>
			</g>
			<g>
				<rect x="106.328" y="1.664" fill="#E6E6E6" width="2.75" height="2.251"/>
				<rect x="106.328" y="13.914" fill="#E6E6E6" width="2.75" height="2.251"/>
				<rect x="129.703" y="7.29" fill="#E6E6E6" width="2.75" height="3.417"/>
				<rect x="129.703" y="1.664" fill="#E6E6E6" width="2.75" height="2.251"/>
				<rect x="129.703" y="13.914" fill="#E6E6E6" width="2.75" height="2.251"/>
				<rect x="132.12" y="7.29" opacity="0.2" fill="#FFFFFF" enable-background="new    " width="0.333" height="3.417"/>
				<rect x="132.12" y="1.664" opacity="0.2" fill="#FFFFFF" enable-background="new    " width="0.333" height="2.251"/>
				<rect x="132.12" y="13.914" opacity="0.2" fill="#FFFFFF" enable-background="new    " width="0.333" height="2.251"/>
				<rect x="106.286" y="1.681" opacity="0.2" enable-background="new    " width="0.102" height="2.251"/>
				<rect x="106.286" y="13.931" opacity="0.2" enable-background="new    " width="0.102" height="2.251"/>
				<rect x="108.73" y="1.65" opacity="0.1" enable-background="new    " width="0.334" height="2.251"/>
				<rect x="108.73" y="13.9" opacity="0.1" enable-background="new    " width="0.334" height="2.251"/>
			</g>
		</g>
		<g>
			<path fill="#FFFFFF" d="M42.343,30.826c0,1.65-1.35,3-3,3h-9.456c-1.65,0-3-1.35-3-3v-0.075c0-1.65,1.35-3,3-3h9.456
				c1.65,0,3,1.35,3,3V30.826z"/>
			<g>
				<g id="_x30_.1.0.2.31">
					<g id="_x30_.1.0.2.31.0">
						<title  id="0.1.0.2.31.0.0">text:Arduino</title>
						<g id="_x30_.1.0.2.31.0.1" transform="matrix(1 0 0 1 109.0161 55.1792)">
							
								<text id="_x30_.1.0.2.31.0.1.0" transform="matrix(1 0 0 1 -87.4512 -28.9695)" fill="#FFFFFF" font-family="'OCRA'" font-size="4.1688">Arduino</text>
						</g>
					</g>
					<g id="_x30_.1.0.2.31.1">
						<title  id="0.1.0.2.31.1.0">text:TM</title>
						<g id="_x30_.1.0.2.31.1.1" transform="matrix(1 0 0 1 138.9976 51.5815)">
							
								<text id="_x30_.1.0.2.31.1.1.0" transform="matrix(1 0 0 1 -97.5943 -38.9055)" fill="#FFFFFF" font-family="'OCRA'" font-size="1.516">TM</text>
						</g>
					</g>
				</g>
				<g id="_x30_.1.0.96.0.0">
					<path id="_x30_.1.0.96.0.0.0" fill="#FFFFFF" d="M31.796,15.053c0.515-0.564,0.91-1.083,1.383-1.505
						c1.801-1.616,3.83-2.213,6.152-1.233c2.198,0.923,3.384,3.214,2.909,5.548c-0.441,2.155-2.515,3.796-4.777,3.876
						c-2.097,0.071-3.673-0.867-4.984-2.389c-0.202-0.234-0.391-0.477-0.648-0.788c-0.182,0.216-0.323,0.377-0.458,0.549
						c-1.406,1.769-3.149,2.773-5.494,2.62c-2.298-0.146-4.402-2.256-4.544-4.552c-0.182-2.912,2.038-5.299,5.12-5.325
						c2.041-0.018,3.638,1.037,4.882,2.624C31.476,14.65,31.614,14.823,31.796,15.053z"/>
					<path id="_x30_.1.0.96.0.0.1" fill="#0F7391" d="M26.755,13.467c-2.123-0.002-3.675,1.358-3.845,3.118
						c-0.153,1.56,1.085,3.117,2.789,3.489c1.68,0.364,3.021-0.333,4.034-1.552c1.551-1.866,1.498-1.544,0.018-3.396
						C28.931,14.096,27.809,13.519,26.755,13.467z"/>
					<path id="_x30_.1.0.96.0.0.2" fill="#0F7391" d="M37.273,13.453c-0.259,0.016-0.449,0.011-0.632,0.048
						c-1.8,0.363-2.93,1.56-3.778,3.086c-0.065,0.121-0.069,0.343-0.001,0.459c0.765,1.326,1.723,2.46,3.247,2.94
						c1.479,0.463,2.771,0.081,3.79-1.054c0.914-1.015,1.12-2.217,0.516-3.473C39.775,14.134,38.634,13.549,37.273,13.453z"/>
				</g>
				<g id="_x30_.1.0.96.0.1">
					<path id="_x30_.1.0.96.0.1.0" fill="#FFFFFF" d="M28.273,17.187c0,0.048-0.039,0.083-0.086,0.083h-3.139
						c-0.048,0-0.087-0.038-0.087-0.083v-0.95c0-0.047,0.039-0.084,0.087-0.084h3.139c0.046,0,0.086,0.039,0.086,0.084V17.187z"/>
				</g>
				<g id="_x30_.1.0.96.0.2">
					<path id="_x30_.1.0.96.0.2.0" fill="#FFFFFF" d="M38.637,16.24c0-0.048-0.038-0.084-0.085-0.084h-0.924
						c-0.046,0-0.085-0.039-0.085-0.085v-0.922c0-0.05-0.038-0.086-0.083-0.086h-0.95c-0.049,0-0.085,0.039-0.085,0.086v0.922
						c0,0.049-0.037,0.085-0.086,0.085h-0.922c-0.048,0-0.086,0.039-0.086,0.084v0.95c0,0.048,0.04,0.086,0.086,0.086h0.922
						c0.049,0,0.086,0.039,0.086,0.084v0.922c0,0.048,0.038,0.084,0.085,0.084h0.95c0.047,0,0.083-0.039,0.083-0.084V17.36
						c0-0.048,0.04-0.084,0.085-0.084h0.924c0.048,0,0.085-0.041,0.085-0.086V16.24z"/>
				</g>
			</g>
			<g id="_x30_.1.0.1.16">
				<title  id="0.1.0.1.16.0">text:Arduino</title>
				
					<text id="_x30_.1.0.1.16.1" transform="matrix(1 0 0 1 28.2729 32.3796)" fill="#0F7391" font-family="'OCRA'" font-size="3.576">MICRO</text>
			</g>
		</g>
	</g>
	
		<rect x="57.598" y="15.355" transform="matrix(0.7071 -0.7071 0.7071 0.7071 1.9001 55.1542)" fill="#333333" width="19.858" height="19.857"/>
	<g>
		<g>
			<circle fill="#E6E6E6" cx="16.782" cy="3.596" r="1.892"/>
			<path opacity="0.2" fill="#FFFFFF" enable-background="new    " d="M16.454,5.489c1.045,0,1.892-0.848,1.892-1.893
				s-0.847-1.893-1.892-1.893h0.328c1.045,0,1.892,0.848,1.892,1.893s-0.847,1.893-1.892,1.893H16.454z"/>
			<path opacity="0.1" fill="#1A1A1A" enable-background="new    " d="M17.125,1.704c-1.045,0-1.892,0.848-1.892,1.893
				s0.847,1.893,1.892,1.893h-0.343c-1.045,0-1.892-0.848-1.892-1.893s0.847-1.893,1.892-1.893H17.125z"/>
			<g>
				<rect x="15.989" y="2.803" fill="#CCCCCC" width="1.587" height="1.587"/>
				<rect x="17.454" y="2.803" opacity="0.2" fill="#FFFFFF" enable-background="new    " width="0.122" height="1.587"/>
				<rect x="15.989" y="2.803" opacity="0.1" enable-background="new    " width="0.122" height="1.587"/>
			</g>
		</g>
		<g>
			<circle fill="#E6E6E6" cx="23.982" cy="3.596" r="1.892"/>
			<path opacity="0.2" fill="#FFFFFF" enable-background="new    " d="M23.654,5.489c1.045,0,1.892-0.848,1.892-1.893
				s-0.847-1.893-1.892-1.893h0.328c1.045,0,1.892,0.848,1.892,1.893s-0.847,1.893-1.892,1.893H23.654z"/>
			<path opacity="0.1" fill="#1A1A1A" enable-background="new    " d="M24.325,1.704c-1.045,0-1.892,0.848-1.892,1.893
				s0.847,1.893,1.892,1.893h-0.343c-1.045,0-1.892-0.848-1.892-1.893s0.847-1.893,1.892-1.893H24.325z"/>
			<g>
				<rect x="23.189" y="2.803" fill="#CCCCCC" width="1.587" height="1.587"/>
				<rect x="24.654" y="2.803" opacity="0.2" fill="#FFFFFF" enable-background="new    " width="0.122" height="1.587"/>
				<rect x="23.189" y="2.803" opacity="0.1" enable-background="new    " width="0.122" height="1.587"/>
			</g>
		</g>
		<g>
			<circle fill="#E6E6E6" cx="31.182" cy="3.596" r="1.892"/>
			<path opacity="0.2" fill="#FFFFFF" enable-background="new    " d="M30.854,5.489c1.045,0,1.892-0.848,1.892-1.893
				s-0.847-1.893-1.892-1.893h0.328c1.045,0,1.892,0.848,1.892,1.893s-0.847,1.893-1.892,1.893H30.854z"/>
			<path opacity="0.1" fill="#1A1A1A" enable-background="new    " d="M31.525,1.704c-1.045,0-1.892,0.848-1.892,1.893
				s0.847,1.893,1.892,1.893h-0.343c-1.045,0-1.892-0.848-1.892-1.893s0.847-1.893,1.892-1.893H31.525z"/>
			<g>
				<rect x="30.389" y="2.803" fill="#CCCCCC" width="1.587" height="1.587"/>
				<rect x="31.854" y="2.803" opacity="0.2" fill="#FFFFFF" enable-background="new    " width="0.122" height="1.587"/>
				<rect x="30.389" y="2.803" opacity="0.1" enable-background="new    " width="0.122" height="1.587"/>
			</g>
		</g>
		<g>
			<circle fill="#E6E6E6" cx="38.383" cy="3.596" r="1.892"/>
			<path opacity="0.2" fill="#FFFFFF" enable-background="new    " d="M38.054,5.489c1.045,0,1.892-0.848,1.892-1.893
				s-0.847-1.893-1.892-1.893h0.328c1.045,0,1.892,0.848,1.892,1.893s-0.847,1.893-1.892,1.893H38.054z"/>
			<path opacity="0.1" fill="#1A1A1A" enable-background="new    " d="M38.725,1.704c-1.045,0-1.892,0.848-1.892,1.893
				s0.847,1.893,1.892,1.893h-0.343c-1.045,0-1.892-0.848-1.892-1.893s0.847-1.893,1.892-1.893H38.725z"/>
			<g>
				<rect x="37.59" y="2.803" fill="#CCCCCC" width="1.587" height="1.587"/>
				<rect x="39.054" y="2.803" opacity="0.2" fill="#FFFFFF" enable-background="new    " width="0.122" height="1.587"/>
				<rect x="37.59" y="2.803" opacity="0.1" enable-background="new    " width="0.122" height="1.587"/>
			</g>
		</g>
		<g>
			<circle fill="#E6E6E6" cx="45.583" cy="3.596" r="1.892"/>
			<path opacity="0.2" fill="#FFFFFF" enable-background="new    " d="M45.255,5.489c1.045,0,1.892-0.848,1.892-1.893
				S46.3,1.704,45.255,1.704h0.328c1.045,0,1.892,0.848,1.892,1.893s-0.847,1.893-1.892,1.893H45.255z"/>
			<path opacity="0.1" fill="#1A1A1A" enable-background="new    " d="M45.925,1.704c-1.045,0-1.892,0.848-1.892,1.893
				s0.847,1.893,1.892,1.893h-0.343c-1.045,0-1.892-0.848-1.892-1.893s0.847-1.893,1.892-1.893H45.925z"/>
			<g>
				<rect x="44.79" y="2.803" fill="#CCCCCC" width="1.587" height="1.587"/>
				<rect x="46.255" y="2.803" opacity="0.2" fill="#FFFFFF" enable-background="new    " width="0.122" height="1.587"/>
				<rect x="44.79" y="2.803" opacity="0.1" enable-background="new    " width="0.122" height="1.587"/>
			</g>
		</g>
		<g>
			<circle fill="#E6E6E6" cx="52.783" cy="3.596" r="1.892"/>
			<path opacity="0.2" fill="#FFFFFF" enable-background="new    " d="M52.455,5.489c1.045,0,1.892-0.848,1.892-1.893
				S53.5,1.704,52.455,1.704h0.328c1.045,0,1.892,0.848,1.892,1.893s-0.847,1.893-1.892,1.893H52.455z"/>
			<path opacity="0.1" fill="#1A1A1A" enable-background="new    " d="M53.126,1.704c-1.045,0-1.892,0.848-1.892,1.893
				s0.847,1.893,1.892,1.893h-0.343c-1.045,0-1.892-0.848-1.892-1.893s0.847-1.893,1.892-1.893H53.126z"/>
			<g>
				<rect x="51.99" y="2.803" fill="#CCCCCC" width="1.587" height="1.587"/>
				<rect x="53.455" y="2.803" opacity="0.2" fill="#FFFFFF" enable-background="new    " width="0.122" height="1.587"/>
				<rect x="51.99" y="2.803" opacity="0.1" enable-background="new    " width="0.122" height="1.587"/>
			</g>
		</g>
		<g>
			<circle fill="#E6E6E6" cx="59.983" cy="3.596" r="1.892"/>
			<path opacity="0.2" fill="#FFFFFF" enable-background="new    " d="M59.655,5.489c1.045,0,1.892-0.848,1.892-1.893
				S60.7,1.704,59.655,1.704h0.328c1.045,0,1.892,0.848,1.892,1.893s-0.847,1.893-1.892,1.893H59.655z"/>
			<path opacity="0.1" fill="#1A1A1A" enable-background="new    " d="M60.326,1.704c-1.045,0-1.892,0.848-1.892,1.893
				s0.847,1.893,1.892,1.893h-0.343c-1.045,0-1.892-0.848-1.892-1.893s0.847-1.893,1.892-1.893H60.326z"/>
			<g>
				<rect x="59.19" y="2.803" fill="#CCCCCC" width="1.587" height="1.587"/>
				<rect x="60.655" y="2.803" opacity="0.2" fill="#FFFFFF" enable-background="new    " width="0.122" height="1.587"/>
				<rect x="59.19" y="2.803" opacity="0.1" enable-background="new    " width="0.122" height="1.587"/>
			</g>
		</g>
		<g>
			<circle fill="#E6E6E6" cx="67.183" cy="3.596" r="1.892"/>
			<path opacity="0.2" fill="#FFFFFF" enable-background="new    " d="M66.855,5.489c1.045,0,1.892-0.848,1.892-1.893
				S67.9,1.704,66.855,1.704h0.328c1.045,0,1.892,0.848,1.892,1.893s-0.847,1.893-1.892,1.893H66.855z"/>
			<path opacity="0.1" fill="#1A1A1A" enable-background="new    " d="M67.526,1.704c-1.045,0-1.892,0.848-1.892,1.893
				s0.847,1.893,1.892,1.893h-0.343c-1.045,0-1.892-0.848-1.892-1.893s0.847-1.893,1.892-1.893H67.526z"/>
			<g>
				<rect x="66.39" y="2.803" fill="#CCCCCC" width="1.587" height="1.587"/>
				<rect x="67.855" y="2.803" opacity="0.2" fill="#FFFFFF" enable-background="new    " width="0.122" height="1.587"/>
				<rect x="66.39" y="2.803" opacity="0.1" enable-background="new    " width="0.122" height="1.587"/>
			</g>
		</g>
		<g>
			<circle fill="#E6E6E6" cx="74.382" cy="3.596" r="1.892"/>
			<path opacity="0.2" fill="#FFFFFF" enable-background="new    " d="M74.055,5.489c1.045,0,1.892-0.848,1.892-1.893
				S75.1,1.704,74.055,1.704h0.327c1.045,0,1.893,0.848,1.893,1.893s-0.848,1.893-1.893,1.893H74.055z"/>
			<path opacity="0.1" fill="#1A1A1A" enable-background="new    " d="M74.726,1.704c-1.045,0-1.893,0.848-1.893,1.893
				s0.848,1.893,1.893,1.893h-0.344c-1.045,0-1.891-0.848-1.891-1.893s0.846-1.893,1.891-1.893H74.726z"/>
			<g>
				<rect x="73.589" y="2.803" fill="#CCCCCC" width="1.589" height="1.587"/>
				<rect x="75.054" y="2.803" opacity="0.2" fill="#FFFFFF" enable-background="new    " width="0.123" height="1.587"/>
				<rect x="73.589" y="2.803" opacity="0.1" enable-background="new    " width="0.123" height="1.587"/>
			</g>
		</g>
		<g>
			<circle fill="#E6E6E6" cx="81.583" cy="3.596" r="1.892"/>
			<path opacity="0.2" fill="#FFFFFF" enable-background="new    " d="M81.255,5.489c1.045,0,1.893-0.848,1.893-1.893
				S82.3,1.704,81.255,1.704h0.328c1.045,0,1.893,0.848,1.893,1.893s-0.848,1.893-1.893,1.893H81.255z"/>
			<path opacity="0.1" fill="#1A1A1A" enable-background="new    " d="M81.925,1.704c-1.045,0-1.891,0.848-1.891,1.893
				s0.846,1.893,1.891,1.893h-0.342c-1.045,0-1.894-0.848-1.894-1.893s0.849-1.893,1.894-1.893H81.925z"/>
			<g>
				<rect x="80.791" y="2.803" fill="#CCCCCC" width="1.586" height="1.587"/>
				<rect x="82.255" y="2.803" opacity="0.2" fill="#FFFFFF" enable-background="new    " width="0.121" height="1.587"/>
				<rect x="80.791" y="2.803" opacity="0.1" enable-background="new    " width="0.121" height="1.587"/>
			</g>
		</g>
		<g>
			<circle fill="#E6E6E6" cx="88.785" cy="3.596" r="1.892"/>
			<path opacity="0.2" fill="#FFFFFF" enable-background="new    " d="M88.457,5.489c1.045,0,1.892-0.848,1.892-1.893
				s-0.847-1.893-1.892-1.893h0.326c1.045,0,1.893,0.848,1.893,1.893s-0.848,1.893-1.893,1.893H88.457z"/>
			<path opacity="0.1" fill="#1A1A1A" enable-background="new    " d="M89.126,1.704c-1.045,0-1.893,0.848-1.893,1.893
				s0.848,1.893,1.893,1.893h-0.344c-1.045,0-1.891-0.848-1.891-1.893s0.846-1.893,1.891-1.893H89.126z"/>
			<g>
				<rect x="87.99" y="2.803" fill="#CCCCCC" width="1.588" height="1.587"/>
				<rect x="89.455" y="2.803" opacity="0.2" fill="#FFFFFF" enable-background="new    " width="0.123" height="1.587"/>
				<rect x="87.99" y="2.803" opacity="0.1" enable-background="new    " width="0.123" height="1.587"/>
			</g>
		</g>
		<g>
			<circle fill="#E6E6E6" cx="95.984" cy="3.596" r="1.892"/>
			<path opacity="0.2" fill="#FFFFFF" enable-background="new    " d="M95.656,5.489c1.045,0,1.893-0.848,1.893-1.893
				s-0.848-1.893-1.893-1.893h0.328c1.045,0,1.893,0.848,1.893,1.893s-0.848,1.893-1.893,1.893H95.656z"/>
			<path opacity="0.1" fill="#1A1A1A" enable-background="new    " d="M96.328,1.704c-1.045,0-1.893,0.848-1.893,1.893
				s0.848,1.893,1.893,1.893h-0.344c-1.045,0-1.893-0.848-1.893-1.893s0.848-1.893,1.893-1.893H96.328z"/>
			<g>
				<rect x="95.191" y="2.803" fill="#CCCCCC" width="1.586" height="1.587"/>
				<rect x="96.656" y="2.803" opacity="0.2" fill="#FFFFFF" enable-background="new    " width="0.121" height="1.587"/>
				<rect x="95.191" y="2.803" opacity="0.1" enable-background="new    " width="0.121" height="1.587"/>
			</g>
		</g>
		<g>
			<circle fill="#E6E6E6" cx="103.184" cy="3.596" r="1.892"/>
			<path opacity="0.2" fill="#FFFFFF" enable-background="new    " d="M102.856,5.489c1.045,0,1.892-0.848,1.892-1.893
				s-0.847-1.893-1.892-1.893h0.327c1.045,0,1.893,0.848,1.893,1.893s-0.848,1.893-1.893,1.893H102.856z"/>
			<path opacity="0.1" fill="#1A1A1A" enable-background="new    " d="M103.527,1.704c-1.045,0-1.893,0.848-1.893,1.893
				s0.848,1.893,1.893,1.893h-0.344c-1.045,0-1.891-0.848-1.891-1.893s0.846-1.893,1.891-1.893H103.527z"/>
			<g>
				<rect x="102.39" y="2.803" fill="#CCCCCC" width="1.588" height="1.587"/>
				<rect x="103.855" y="2.803" opacity="0.2" fill="#FFFFFF" enable-background="new    " width="0.123" height="1.587"/>
				<rect x="102.39" y="2.803" opacity="0.1" enable-background="new    " width="0.123" height="1.587"/>
			</g>
		</g>
		<g>
			<circle fill="#E6E6E6" cx="110.384" cy="3.596" r="1.892"/>
			<path opacity="0.2" fill="#FFFFFF" enable-background="new    " d="M110.056,5.489c1.045,0,1.893-0.848,1.893-1.893
				s-0.848-1.893-1.893-1.893h0.328c1.045,0,1.892,0.848,1.892,1.893s-0.847,1.893-1.892,1.893H110.056z"/>
			<path opacity="0.1" fill="#1A1A1A" enable-background="new    " d="M110.727,1.704c-1.045,0-1.892,0.848-1.892,1.893
				s0.847,1.893,1.892,1.893h-0.343c-1.045,0-1.893-0.848-1.893-1.893s0.848-1.893,1.893-1.893H110.727z"/>
			<g>
				<rect x="109.591" y="2.803" fill="#CCCCCC" width="1.586" height="1.587"/>
				<rect x="111.056" y="2.803" opacity="0.2" fill="#FFFFFF" enable-background="new    " width="0.121" height="1.587"/>
				<rect x="109.591" y="2.803" opacity="0.1" enable-background="new    " width="0.121" height="1.587"/>
			</g>
		</g>
		<g>
			<circle fill="#E6E6E6" cx="117.585" cy="3.596" r="1.892"/>
			<path opacity="0.2" fill="#FFFFFF" enable-background="new    " d="M117.257,5.489c1.045,0,1.892-0.848,1.892-1.893
				s-0.847-1.893-1.892-1.893h0.326c1.045,0,1.894,0.848,1.894,1.893s-0.849,1.893-1.894,1.893H117.257z"/>
			<path opacity="0.1" fill="#1A1A1A" enable-background="new    " d="M117.927,1.704c-1.045,0-1.893,0.848-1.893,1.893
				s0.848,1.893,1.893,1.893h-0.344c-1.045,0-1.892-0.848-1.892-1.893s0.847-1.893,1.892-1.893H117.927z"/>
			<g>
				<rect x="116.791" y="2.803" fill="#CCCCCC" width="1.588" height="1.587"/>
				<rect x="118.255" y="2.803" opacity="0.2" fill="#FFFFFF" enable-background="new    " width="0.123" height="1.587"/>
				<rect x="116.791" y="2.803" opacity="0.1" enable-background="new    " width="0.123" height="1.587"/>
			</g>
		</g>
		<g>
			<circle fill="#E6E6E6" cx="124.785" cy="3.596" r="1.892"/>
			<path opacity="0.2" fill="#FFFFFF" enable-background="new    " d="M124.457,5.489c1.045,0,1.893-0.848,1.893-1.893
				s-0.848-1.893-1.893-1.893h0.328c1.045,0,1.893,0.848,1.893,1.893s-0.848,1.893-1.893,1.893H124.457z"/>
			<path opacity="0.1" fill="#1A1A1A" enable-background="new    " d="M125.128,1.704c-1.045,0-1.893,0.848-1.893,1.893
				s0.848,1.893,1.893,1.893h-0.344c-1.045,0-1.893-0.848-1.893-1.893s0.848-1.893,1.893-1.893H125.128z"/>
			<g>
				<rect x="123.992" y="2.803" fill="#CCCCCC" width="1.586" height="1.587"/>
				<rect x="125.457" y="2.803" opacity="0.2" fill="#FFFFFF" enable-background="new    " width="0.121" height="1.587"/>
				<rect x="123.992" y="2.803" opacity="0.1" enable-background="new    " width="0.121" height="1.587"/>
			</g>
		</g>
		<g>
			<circle fill="#E6E6E6" cx="131.985" cy="3.596" r="1.892"/>
			<path opacity="0.2" fill="#FFFFFF" enable-background="new    " d="M131.658,5.489c1.045,0,1.891-0.848,1.891-1.893
				s-0.846-1.893-1.891-1.893h0.326c1.045,0,1.893,0.848,1.893,1.893s-0.848,1.893-1.893,1.893H131.658z"/>
			<path opacity="0.1" fill="#1A1A1A" enable-background="new    " d="M132.328,1.704c-1.045,0-1.893,0.848-1.893,1.893
				s0.848,1.893,1.893,1.893h-0.344c-1.045,0-1.891-0.848-1.891-1.893s0.846-1.893,1.891-1.893H132.328z"/>
			<g>
				<rect x="131.191" y="2.803" fill="#CCCCCC" width="1.588" height="1.587"/>
				<rect x="132.656" y="2.803" opacity="0.2" fill="#FFFFFF" enable-background="new    " width="0.123" height="1.587"/>
				<rect x="131.191" y="2.803" opacity="0.1" enable-background="new    " width="0.123" height="1.587"/>
			</g>
		</g>
	</g>
	<g>
		<g>
			<circle fill="#E6E6E6" cx="16.813" cy="46.835" r="1.892"/>
			<path opacity="0.2" fill="#FFFFFF" enable-background="new    " d="M16.485,48.728c1.045,0,1.892-0.849,1.892-1.894
				s-0.847-1.891-1.892-1.891h0.328c1.045,0,1.892,0.846,1.892,1.891s-0.847,1.894-1.892,1.894H16.485z"/>
			<path opacity="0.1" fill="#1A1A1A" enable-background="new    " d="M17.156,44.945c-1.045,0-1.892,0.846-1.892,1.891
				s0.847,1.894,1.892,1.894h-0.343c-1.045,0-1.892-0.849-1.892-1.894s0.847-1.891,1.892-1.891H17.156z"/>
			<g>
				<rect x="16.02" y="46.042" fill="#CCCCCC" width="1.587" height="1.588"/>
				<rect x="17.485" y="46.042" opacity="0.2" fill="#FFFFFF" enable-background="new    " width="0.122" height="1.588"/>
				<rect x="16.02" y="46.042" opacity="0.1" enable-background="new    " width="0.122" height="1.588"/>
			</g>
		</g>
		<g>
			<circle fill="#E6E6E6" cx="24.013" cy="46.835" r="1.892"/>
			<path opacity="0.2" fill="#FFFFFF" enable-background="new    " d="M23.685,48.728c1.045,0,1.892-0.849,1.892-1.894
				s-0.847-1.891-1.892-1.891h0.328c1.045,0,1.892,0.846,1.892,1.891s-0.847,1.894-1.892,1.894H23.685z"/>
			<path opacity="0.1" fill="#1A1A1A" enable-background="new    " d="M24.356,44.945c-1.045,0-1.892,0.846-1.892,1.891
				s0.847,1.894,1.892,1.894h-0.343c-1.045,0-1.892-0.849-1.892-1.894s0.847-1.891,1.892-1.891H24.356z"/>
			<g>
				<rect x="23.22" y="46.042" fill="#CCCCCC" width="1.587" height="1.588"/>
				<rect x="24.685" y="46.042" opacity="0.2" fill="#FFFFFF" enable-background="new    " width="0.122" height="1.588"/>
				<rect x="23.22" y="46.042" opacity="0.1" enable-background="new    " width="0.122" height="1.588"/>
			</g>
		</g>
		<g>
			<circle fill="#E6E6E6" cx="31.214" cy="46.835" r="1.892"/>
			<path opacity="0.2" fill="#FFFFFF" enable-background="new    " d="M30.885,48.728c1.045,0,1.892-0.849,1.892-1.894
				s-0.847-1.891-1.892-1.891h0.328c1.045,0,1.892,0.846,1.892,1.891s-0.847,1.894-1.892,1.894H30.885z"/>
			<path opacity="0.1" fill="#1A1A1A" enable-background="new    " d="M31.556,44.945c-1.045,0-1.892,0.846-1.892,1.891
				s0.847,1.894,1.892,1.894h-0.343c-1.045,0-1.892-0.849-1.892-1.894s0.847-1.891,1.892-1.891H31.556z"/>
			<g>
				<rect x="30.421" y="46.042" fill="#CCCCCC" width="1.587" height="1.588"/>
				<rect x="31.885" y="46.042" opacity="0.2" fill="#FFFFFF" enable-background="new    " width="0.122" height="1.588"/>
				<rect x="30.421" y="46.042" opacity="0.1" enable-background="new    " width="0.122" height="1.588"/>
			</g>
		</g>
		<g>
			<circle fill="#E6E6E6" cx="38.414" cy="46.835" r="1.892"/>
			<path opacity="0.2" fill="#FFFFFF" enable-background="new    " d="M38.086,48.728c1.045,0,1.892-0.849,1.892-1.894
				s-0.847-1.891-1.892-1.891h0.328c1.045,0,1.892,0.846,1.892,1.891s-0.847,1.894-1.892,1.894H38.086z"/>
			<path opacity="0.1" fill="#1A1A1A" enable-background="new    " d="M38.757,44.945c-1.045,0-1.892,0.846-1.892,1.891
				s0.847,1.894,1.892,1.894h-0.343c-1.045,0-1.892-0.849-1.892-1.894s0.847-1.891,1.892-1.891H38.757z"/>
			<g>
				<rect x="37.621" y="46.042" fill="#CCCCCC" width="1.587" height="1.588"/>
				<rect x="39.086" y="46.042" opacity="0.2" fill="#FFFFFF" enable-background="new    " width="0.122" height="1.588"/>
				<rect x="37.621" y="46.042" opacity="0.1" enable-background="new    " width="0.122" height="1.588"/>
			</g>
		</g>
		<g>
			<circle fill="#E6E6E6" cx="45.614" cy="46.835" r="1.892"/>
			<path opacity="0.2" fill="#FFFFFF" enable-background="new    " d="M45.286,48.728c1.045,0,1.892-0.849,1.892-1.894
				s-0.847-1.891-1.892-1.891h0.328c1.045,0,1.892,0.846,1.892,1.891s-0.847,1.894-1.892,1.894H45.286z"/>
			<path opacity="0.1" fill="#1A1A1A" enable-background="new    " d="M45.957,44.945c-1.045,0-1.892,0.846-1.892,1.891
				s0.847,1.894,1.892,1.894h-0.343c-1.045,0-1.892-0.849-1.892-1.894s0.847-1.891,1.892-1.891H45.957z"/>
			<g>
				<rect x="44.821" y="46.042" fill="#CCCCCC" width="1.587" height="1.588"/>
				<rect x="46.286" y="46.042" opacity="0.2" fill="#FFFFFF" enable-background="new    " width="0.122" height="1.588"/>
				<rect x="44.821" y="46.042" opacity="0.1" enable-background="new    " width="0.122" height="1.588"/>
			</g>
		</g>
		<g>
			<circle fill="#E6E6E6" cx="52.814" cy="46.835" r="1.892"/>
			<path opacity="0.2" fill="#FFFFFF" enable-background="new    " d="M52.486,48.728c1.045,0,1.892-0.849,1.892-1.894
				s-0.847-1.891-1.892-1.891h0.328c1.045,0,1.892,0.846,1.892,1.891s-0.847,1.894-1.892,1.894H52.486z"/>
			<path opacity="0.1" fill="#1A1A1A" enable-background="new    " d="M53.157,44.945c-1.045,0-1.892,0.846-1.892,1.891
				s0.847,1.894,1.892,1.894h-0.343c-1.045,0-1.892-0.849-1.892-1.894s0.847-1.891,1.892-1.891H53.157z"/>
			<g>
				<rect x="52.021" y="46.042" fill="#CCCCCC" width="1.587" height="1.588"/>
				<rect x="53.486" y="46.042" opacity="0.2" fill="#FFFFFF" enable-background="new    " width="0.122" height="1.588"/>
				<rect x="52.021" y="46.042" opacity="0.1" enable-background="new    " width="0.122" height="1.588"/>
			</g>
		</g>
		<g>
			<circle fill="#E6E6E6" cx="60.014" cy="46.835" r="1.892"/>
			<path opacity="0.2" fill="#FFFFFF" enable-background="new    " d="M59.686,48.728c1.045,0,1.892-0.849,1.892-1.894
				s-0.847-1.891-1.892-1.891h0.328c1.045,0,1.892,0.846,1.892,1.891s-0.847,1.894-1.892,1.894H59.686z"/>
			<path opacity="0.1" fill="#1A1A1A" enable-background="new    " d="M60.357,44.945c-1.045,0-1.892,0.846-1.892,1.891
				s0.847,1.894,1.892,1.894h-0.343c-1.045,0-1.892-0.849-1.892-1.894s0.847-1.891,1.892-1.891H60.357z"/>
			<g>
				<rect x="59.221" y="46.042" fill="#CCCCCC" width="1.587" height="1.588"/>
				<rect x="60.686" y="46.042" opacity="0.2" fill="#FFFFFF" enable-background="new    " width="0.122" height="1.588"/>
				<rect x="59.221" y="46.042" opacity="0.1" enable-background="new    " width="0.122" height="1.588"/>
			</g>
		</g>
		<g>
			<circle fill="#E6E6E6" cx="67.215" cy="46.835" r="1.892"/>
			<path opacity="0.2" fill="#FFFFFF" enable-background="new    " d="M66.886,48.728c1.045,0,1.892-0.849,1.892-1.894
				s-0.847-1.891-1.892-1.891h0.328c1.045,0,1.892,0.846,1.892,1.891s-0.847,1.894-1.892,1.894H66.886z"/>
			<path opacity="0.1" fill="#1A1A1A" enable-background="new    " d="M67.557,44.945c-1.045,0-1.892,0.846-1.892,1.891
				s0.847,1.894,1.892,1.894h-0.343c-1.045,0-1.892-0.849-1.892-1.894s0.847-1.891,1.892-1.891H67.557z"/>
			<g>
				<rect x="66.422" y="46.042" fill="#CCCCCC" width="1.587" height="1.588"/>
				<rect x="67.886" y="46.042" opacity="0.2" fill="#FFFFFF" enable-background="new    " width="0.122" height="1.588"/>
				<rect x="66.422" y="46.042" opacity="0.1" enable-background="new    " width="0.122" height="1.588"/>
			</g>
		</g>
		<g>
			<circle fill="#E6E6E6" cx="74.416" cy="46.835" r="1.892"/>
			<path opacity="0.2" fill="#FFFFFF" enable-background="new    " d="M74.087,48.728c1.045,0,1.892-0.849,1.892-1.894
				s-0.847-1.891-1.892-1.891h0.326c1.045,0,1.894,0.846,1.894,1.891s-0.849,1.894-1.894,1.894H74.087z"/>
			<path opacity="0.1" fill="#1A1A1A" enable-background="new    " d="M74.757,44.945c-1.045,0-1.893,0.846-1.893,1.891
				s0.848,1.894,1.893,1.894h-0.344c-1.045,0-1.891-0.849-1.891-1.894s0.846-1.891,1.891-1.891H74.757z"/>
			<g>
				<rect x="73.621" y="46.042" fill="#CCCCCC" width="1.588" height="1.588"/>
				<rect x="75.085" y="46.042" opacity="0.2" fill="#FFFFFF" enable-background="new    " width="0.123" height="1.588"/>
				<rect x="73.621" y="46.042" opacity="0.1" enable-background="new    " width="0.123" height="1.588"/>
			</g>
		</g>
		<g>
			<circle fill="#E6E6E6" cx="81.614" cy="46.835" r="1.892"/>
			<path opacity="0.2" fill="#FFFFFF" enable-background="new    " d="M81.287,48.728c1.045,0,1.893-0.849,1.893-1.894
				s-0.848-1.891-1.893-1.891h0.328c1.045,0,1.893,0.846,1.893,1.891s-0.848,1.894-1.893,1.894H81.287z"/>
			<path opacity="0.1" fill="#1A1A1A" enable-background="new    " d="M81.958,44.945c-1.045,0-1.893,0.846-1.893,1.891
				s0.848,1.894,1.893,1.894h-0.344c-1.045,0-1.893-0.849-1.893-1.894s0.848-1.891,1.893-1.891H81.958z"/>
			<g>
				<rect x="80.822" y="46.042" fill="#CCCCCC" width="1.586" height="1.588"/>
				<rect x="82.287" y="46.042" opacity="0.2" fill="#FFFFFF" enable-background="new    " width="0.121" height="1.588"/>
				<rect x="80.822" y="46.042" opacity="0.1" enable-background="new    " width="0.121" height="1.588"/>
			</g>
		</g>
		<g>
			<circle fill="#E6E6E6" cx="88.815" cy="46.835" r="1.892"/>
			<path opacity="0.2" fill="#FFFFFF" enable-background="new    " d="M88.487,48.728c1.046,0,1.892-0.849,1.892-1.894
				s-0.846-1.891-1.892-1.891h0.327c1.045,0,1.893,0.846,1.893,1.891s-0.848,1.894-1.893,1.894H88.487z"/>
			<path opacity="0.1" fill="#1A1A1A" enable-background="new    " d="M89.158,44.945c-1.045,0-1.893,0.846-1.893,1.891
				s0.848,1.894,1.893,1.894h-0.344c-1.045,0-1.891-0.849-1.891-1.894s0.846-1.891,1.891-1.891H89.158z"/>
			<g>
				<rect x="88.021" y="46.042" fill="#CCCCCC" width="1.588" height="1.588"/>
				<rect x="89.486" y="46.042" opacity="0.2" fill="#FFFFFF" enable-background="new    " width="0.123" height="1.588"/>
				<rect x="88.021" y="46.042" opacity="0.1" enable-background="new    " width="0.123" height="1.588"/>
			</g>
		</g>
		<g>
			<circle fill="#E6E6E6" cx="96.015" cy="46.835" r="1.892"/>
			<path opacity="0.2" fill="#FFFFFF" enable-background="new    " d="M95.687,48.728c1.045,0,1.893-0.849,1.893-1.894
				s-0.848-1.891-1.893-1.891h0.328c1.045,0,1.893,0.846,1.893,1.891s-0.848,1.894-1.893,1.894H95.687z"/>
			<path opacity="0.1" fill="#1A1A1A" enable-background="new    " d="M96.358,44.945c-1.045,0-1.892,0.846-1.892,1.891
				s0.847,1.894,1.892,1.894h-0.343c-1.045,0-1.893-0.849-1.893-1.894s0.848-1.891,1.893-1.891H96.358z"/>
			<g>
				<rect x="95.222" y="46.042" fill="#CCCCCC" width="1.586" height="1.588"/>
				<rect x="96.687" y="46.042" opacity="0.2" fill="#FFFFFF" enable-background="new    " width="0.121" height="1.588"/>
				<rect x="95.222" y="46.042" opacity="0.1" enable-background="new    " width="0.121" height="1.588"/>
			</g>
		</g>
		<g>
			<circle fill="#E6E6E6" cx="103.216" cy="46.835" r="1.892"/>
			<path opacity="0.2" fill="#FFFFFF" enable-background="new    " d="M102.887,48.728c1.045,0,1.892-0.849,1.892-1.894
				s-0.847-1.891-1.892-1.891h0.327c1.045,0,1.893,0.846,1.893,1.891s-0.848,1.894-1.893,1.894H102.887z"/>
			<path opacity="0.1" fill="#1A1A1A" enable-background="new    " d="M103.558,44.945c-1.045,0-1.893,0.846-1.893,1.891
				s0.848,1.894,1.893,1.894h-0.344c-1.045,0-1.891-0.849-1.891-1.894s0.846-1.891,1.891-1.891H103.558z"/>
			<g>
				<rect x="102.421" y="46.042" fill="#CCCCCC" width="1.588" height="1.588"/>
				<rect x="103.886" y="46.042" opacity="0.2" fill="#FFFFFF" enable-background="new    " width="0.123" height="1.588"/>
				<rect x="102.421" y="46.042" opacity="0.1" enable-background="new    " width="0.123" height="1.588"/>
			</g>
		</g>
		<g>
			<circle fill="#E6E6E6" cx="110.416" cy="46.835" r="1.892"/>
			<path opacity="0.2" fill="#FFFFFF" enable-background="new    " d="M110.087,48.728c1.045,0,1.893-0.849,1.893-1.894
				s-0.848-1.891-1.893-1.891h0.328c1.045,0,1.893,0.846,1.893,1.891s-0.848,1.894-1.893,1.894H110.087z"/>
			<path opacity="0.1" fill="#1A1A1A" enable-background="new    " d="M110.757,44.945c-1.045,0-1.891,0.846-1.891,1.891
				s0.846,1.894,1.891,1.894h-0.342c-1.045,0-1.894-0.849-1.894-1.894s0.849-1.891,1.894-1.891H110.757z"/>
			<g>
				<rect x="109.623" y="46.042" fill="#CCCCCC" width="1.586" height="1.588"/>
				<rect x="111.087" y="46.042" opacity="0.2" fill="#FFFFFF" enable-background="new    " width="0.121" height="1.588"/>
				<rect x="109.623" y="46.042" opacity="0.1" enable-background="new    " width="0.121" height="1.588"/>
			</g>
		</g>
		<g>
			<circle fill="#E6E6E6" cx="117.617" cy="46.835" r="1.892"/>
			<path opacity="0.2" fill="#FFFFFF" enable-background="new    " d="M117.289,48.728c1.045,0,1.892-0.849,1.892-1.894
				s-0.847-1.891-1.892-1.891h0.326c1.045,0,1.893,0.846,1.893,1.891s-0.848,1.894-1.893,1.894H117.289z"/>
			<path opacity="0.1" fill="#1A1A1A" enable-background="new    " d="M117.958,44.945c-1.045,0-1.893,0.846-1.893,1.891
				s0.848,1.894,1.893,1.894h-0.344c-1.045,0-1.891-0.849-1.891-1.894s0.846-1.891,1.891-1.891H117.958z"/>
			<g>
				<rect x="116.822" y="46.042" fill="#CCCCCC" width="1.588" height="1.588"/>
				<rect x="118.287" y="46.042" opacity="0.2" fill="#FFFFFF" enable-background="new    " width="0.123" height="1.588"/>
				<rect x="116.822" y="46.042" opacity="0.1" enable-background="new    " width="0.123" height="1.588"/>
			</g>
		</g>
		<g>
			<circle fill="#E6E6E6" cx="124.816" cy="46.835" r="1.892"/>
			<path opacity="0.2" fill="#FFFFFF" enable-background="new    " d="M124.488,48.728c1.045,0,1.893-0.849,1.893-1.894
				s-0.848-1.891-1.893-1.891h0.328c1.045,0,1.893,0.846,1.893,1.891s-0.848,1.894-1.893,1.894H124.488z"/>
			<path opacity="0.1" fill="#1A1A1A" enable-background="new    " d="M125.16,44.945c-1.046,0-1.893,0.846-1.893,1.891
				s0.847,1.894,1.893,1.894h-0.344c-1.045,0-1.893-0.849-1.893-1.894s0.848-1.891,1.893-1.891H125.16z"/>
			<g>
				<rect x="124.023" y="46.042" fill="#CCCCCC" width="1.586" height="1.588"/>
				<rect x="125.488" y="46.042" opacity="0.2" fill="#FFFFFF" enable-background="new    " width="0.121" height="1.588"/>
				<rect x="124.023" y="46.042" opacity="0.1" enable-background="new    " width="0.121" height="1.588"/>
			</g>
		</g>
		<g>
			<circle fill="#E6E6E6" cx="132.016" cy="46.835" r="1.892"/>
			<path opacity="0.2" fill="#FFFFFF" enable-background="new    " d="M131.688,48.728c1.045,0,1.892-0.849,1.892-1.894
				s-0.847-1.891-1.892-1.891h0.327c1.045,0,1.893,0.846,1.893,1.891s-0.848,1.894-1.893,1.894H131.688z"/>
			<path opacity="0.1" fill="#1A1A1A" enable-background="new    " d="M132.359,44.945c-1.045,0-1.893,0.846-1.893,1.891
				s0.848,1.894,1.893,1.894h-0.344c-1.045,0-1.891-0.849-1.891-1.894s0.846-1.891,1.891-1.891H132.359z"/>
			<g>
				<rect x="131.222" y="46.042" fill="#CCCCCC" width="1.588" height="1.588"/>
				<rect x="132.687" y="46.042" opacity="0.2" fill="#FFFFFF" enable-background="new    " width="0.123" height="1.588"/>
				<rect x="131.222" y="46.042" opacity="0.1" enable-background="new    " width="0.123" height="1.588"/>
			</g>
		</g>
	</g>
</g>
</svg>
