<?xml version="1.0" encoding="utf-8"?>
<!-- Generator: Adobe Illustrator 16.0.0, SVG Export Plug-In . SVG Version: 6.00 Build 0)  -->
<!DOCTYPE svg PUBLIC "-//W3C//DTD SVG 1.1//EN" "http://www.w3.org/Graphics/SVG/1.1/DTD/svg11.dtd">
<svg version="1.1" id="Ebene_1" xmlns="http://www.w3.org/2000/svg" xmlns:xlink="http://www.w3.org/1999/xlink" x="0px" y="0px"
	 width="79.2px" height="186.568px" viewBox="0 0 79.2 186.568" enable-background="new 0 0 79.2 186.568" xml:space="preserve">
<desc>Fritzing breadboard generated by brd2svg</desc>
<g>
	<g id="breadboard">
		<g id="icon">
			<path fill="#0F7391" d="M75.6,64.169v122.399h-72V64.169L0,60.569V2.97h79.2v57.6L75.6,64.169 M63.595,70.718
				c-0.003,0.666,0.536,1.207,1.2,1.208c0.666,0.002,1.207-0.535,1.209-1.201c0-0.002,0-0.005,0-0.008
				c0.002-0.666-0.535-1.206-1.201-1.208c-0.665-0.002-1.206,0.536-1.208,1.201C63.595,70.713,63.595,70.715,63.595,70.718z
				 M63.595,79.222c-0.003,0.666,0.536,1.207,1.2,1.208c0.666,0.002,1.207-0.535,1.209-1.201c0-0.002,0-0.005,0-0.008
				c0.002-0.666-0.535-1.207-1.201-1.208c-0.665-0.002-1.206,0.536-1.208,1.201C63.595,79.217,63.595,79.219,63.595,79.222z
				 M5.76,89.369c0,0.796,0.645,1.439,1.44,1.439c0.795,0,1.44-0.645,1.44-1.439c0-0.796-0.645-1.44-1.44-1.44
				C6.405,87.929,5.76,88.573,5.76,89.369L5.76,89.369z M5.76,96.569c0,0.795,0.645,1.439,1.44,1.439c0.795,0,1.44-0.646,1.44-1.439
				s-0.645-1.439-1.44-1.439C6.405,95.129,5.76,95.774,5.76,96.569L5.76,96.569z M5.76,103.769c0,0.796,0.645,1.44,1.44,1.44
				c0.795,0,1.44-0.646,1.44-1.44s-0.645-1.438-1.44-1.438C6.405,102.329,5.76,102.974,5.76,103.769L5.76,103.769z M5.76,110.97
				c0,0.795,0.645,1.439,1.44,1.439c0.795,0,1.44-0.646,1.44-1.439c0-0.796-0.645-1.441-1.44-1.441
				C6.405,109.528,5.76,110.174,5.76,110.97L5.76,110.97z M5.76,118.169c0,0.795,0.645,1.438,1.44,1.438
				c0.795,0,1.44-0.645,1.44-1.438s-0.645-1.439-1.44-1.439C6.405,116.729,5.76,117.374,5.76,118.169z M5.76,125.369
				c0,0.796,0.645,1.439,1.44,1.439c0.795,0,1.44-0.645,1.44-1.439c0-0.796-0.645-1.44-1.44-1.44
				C6.405,123.929,5.76,124.573,5.76,125.369z M5.76,132.569c0,0.795,0.645,1.439,1.44,1.439c0.795,0,1.44-0.646,1.44-1.439
				s-0.645-1.439-1.44-1.439C6.405,131.129,5.76,131.774,5.76,132.569z M5.76,139.769c0,0.796,0.645,1.44,1.44,1.44
				c0.795,0,1.44-0.646,1.44-1.44s-0.645-1.438-1.44-1.438C6.405,138.329,5.76,138.974,5.76,139.769L5.76,139.769z M5.76,146.97
				c0,0.795,0.645,1.439,1.44,1.439c0.795,0,1.44-0.646,1.44-1.439c0-0.796-0.645-1.441-1.44-1.441
				C6.405,145.528,5.76,146.174,5.76,146.97z M5.76,154.169c0,0.795,0.645,1.438,1.44,1.438c0.795,0,1.44-0.645,1.44-1.438
				s-0.645-1.439-1.44-1.439C6.405,152.729,5.76,153.374,5.76,154.169L5.76,154.169z M5.76,161.369c0,0.796,0.645,1.439,1.44,1.439
				c0.795,0,1.44-0.645,1.44-1.439c0-0.796-0.645-1.44-1.44-1.44C6.405,159.929,5.76,160.573,5.76,161.369z M5.76,168.569
				c0,0.795,0.645,1.439,1.44,1.439c0.795,0,1.44-0.646,1.44-1.439s-0.645-1.439-1.44-1.439
				C6.405,167.129,5.76,167.774,5.76,168.569L5.76,168.569z M5.76,175.769c0,0.796,0.645,1.44,1.44,1.44
				c0.795,0,1.44-0.646,1.44-1.44s-0.645-1.438-1.44-1.438C6.405,174.329,5.76,174.974,5.76,175.769L5.76,175.769z M5.76,182.97
				c0,0.795,0.645,1.439,1.44,1.439c0.795,0,1.44-0.646,1.44-1.439c0-0.796-0.645-1.441-1.44-1.441
				C6.405,181.528,5.76,182.174,5.76,182.97z M48.959,35.37c0,0.795,0.645,1.439,1.439,1.439s1.439-0.645,1.439-1.439l0,0
				c0-0.795-0.645-1.44-1.439-1.44S48.959,34.573,48.959,35.37z M56.161,35.37c0,0.795,0.646,1.439,1.439,1.439
				s1.439-0.645,1.439-1.439l0,0c0-0.795-0.646-1.44-1.439-1.44S56.161,34.573,56.161,35.37z M30.96,157.769
				c0,0.796,0.645,1.44,1.44,1.44s1.44-0.646,1.44-1.44s-0.645-1.438-1.44-1.438S30.96,156.974,30.96,157.769z M30.96,150.569
				c0,0.795,0.645,1.439,1.44,1.439s1.44-0.646,1.44-1.439s-0.645-1.439-1.44-1.439S30.96,149.774,30.96,150.569L30.96,150.569z
				 M38.16,157.769c0,0.796,0.645,1.44,1.44,1.44s1.439-0.646,1.439-1.44s-0.646-1.438-1.439-1.438
				C38.805,156.329,38.16,156.974,38.16,157.769z M38.16,150.569c0,0.795,0.645,1.439,1.44,1.439s1.439-0.646,1.439-1.439
				s-0.646-1.439-1.439-1.439C38.805,149.129,38.16,149.774,38.16,150.569L38.16,150.569z M45.36,157.769
				c0,0.796,0.645,1.44,1.439,1.44c0.796,0,1.441-0.646,1.441-1.44s-0.646-1.438-1.441-1.438
				C46.004,156.329,45.36,156.974,45.36,157.769z M45.36,150.569c0,0.795,0.645,1.439,1.439,1.439c0.796,0,1.441-0.646,1.441-1.439
				s-0.646-1.439-1.441-1.439S45.36,149.774,45.36,150.569L45.36,150.569z M70.56,89.369c-0.001,0.796,0.644,1.439,1.438,1.441
				c0.795,0,1.439-0.643,1.44-1.438c0-0.001,0-0.003,0-0.004c0.001-0.797-0.644-1.44-1.438-1.442
				c-0.795-0.001-1.44,0.643-1.441,1.438C70.56,89.365,70.56,89.368,70.56,89.369z M70.56,96.569
				c-0.001,0.795,0.644,1.44,1.438,1.441c0.795,0.002,1.439-0.643,1.44-1.438c0-0.002,0-0.003,0-0.004
				c0.001-0.795-0.644-1.44-1.438-1.441s-1.44,0.644-1.441,1.438C70.56,96.566,70.56,96.567,70.56,96.569z M70.56,103.769
				c-0.001,0.796,0.644,1.441,1.438,1.442s1.439-0.644,1.44-1.438c0,0,0-0.002,0-0.004c0.001-0.795-0.644-1.439-1.438-1.44
				c-0.795-0.002-1.44,0.643-1.441,1.438C70.56,103.767,70.56,103.768,70.56,103.769z M70.56,110.97
				c-0.001,0.795,0.644,1.44,1.438,1.441s1.439-0.644,1.44-1.438c0-0.002,0-0.004,0-0.004c0.001-0.796-0.644-1.441-1.438-1.443
				c-0.795,0-1.44,0.645-1.441,1.438C70.56,110.966,70.56,110.968,70.56,110.97z M70.56,118.169c-0.001,0.795,0.644,1.44,1.438,1.44
				c0.795,0.002,1.439-0.643,1.44-1.438c0-0.001,0-0.002,0-0.004c0.001-0.795-0.644-1.441-1.438-1.441
				c-0.795-0.002-1.44,0.644-1.441,1.438C70.56,118.167,70.56,118.167,70.56,118.169z M70.56,125.369
				c-0.001,0.796,0.644,1.439,1.438,1.441c0.795,0,1.439-0.643,1.44-1.438c0-0.001,0-0.003,0-0.004
				c0.001-0.797-0.644-1.44-1.438-1.442c-0.795-0.001-1.44,0.643-1.441,1.438C70.56,125.365,70.56,125.368,70.56,125.369z
				 M70.56,132.569c-0.001,0.795,0.644,1.44,1.438,1.441c0.795,0.002,1.439-0.643,1.44-1.438c0-0.002,0-0.003,0-0.004
				c0.001-0.795-0.644-1.44-1.438-1.441s-1.44,0.644-1.441,1.438C70.56,132.566,70.56,132.567,70.56,132.569z M70.56,139.769
				c-0.001,0.796,0.644,1.441,1.438,1.442s1.439-0.644,1.44-1.438c0,0,0-0.002,0-0.004c0.001-0.795-0.644-1.439-1.438-1.44
				c-0.795-0.002-1.44,0.643-1.441,1.438C70.56,139.767,70.56,139.768,70.56,139.769z M70.56,146.97
				c-0.001,0.795,0.644,1.44,1.438,1.441s1.439-0.644,1.44-1.438c0-0.002,0-0.004,0-0.004c0.001-0.796-0.644-1.441-1.438-1.443
				c-0.795,0-1.44,0.645-1.441,1.439C70.56,146.966,70.56,146.968,70.56,146.97z M70.56,154.169c-0.001,0.795,0.644,1.44,1.438,1.44
				c0.795,0.002,1.439-0.643,1.44-1.438c0-0.001,0-0.002,0-0.004c0.001-0.795-0.644-1.441-1.438-1.441
				c-0.795-0.002-1.44,0.644-1.441,1.438C70.56,154.167,70.56,154.167,70.56,154.169z M70.56,161.369
				c-0.001,0.796,0.644,1.439,1.438,1.441c0.795,0,1.439-0.643,1.44-1.438c0-0.001,0-0.003,0-0.004
				c0.001-0.797-0.644-1.44-1.438-1.442c-0.795-0.001-1.44,0.643-1.441,1.438C70.56,161.365,70.56,161.368,70.56,161.369z
				 M70.56,168.569c-0.001,0.795,0.644,1.44,1.438,1.441c0.795,0.002,1.439-0.643,1.44-1.438c0-0.002,0-0.003,0-0.004
				c0.001-0.795-0.644-1.44-1.438-1.441s-1.44,0.644-1.441,1.438C70.56,168.566,70.56,168.567,70.56,168.569z M70.56,175.769
				c-0.001,0.796,0.644,1.441,1.438,1.442s1.439-0.644,1.44-1.438c0,0,0-0.002,0-0.004c0.001-0.795-0.644-1.439-1.438-1.44
				c-0.795-0.002-1.44,0.643-1.441,1.438C70.56,175.767,70.56,175.768,70.56,175.769z M70.56,182.97
				c-0.001,0.795,0.644,1.44,1.438,1.441s1.439-0.644,1.44-1.438c0-0.002,0-0.004,0-0.004c0.001-0.796-0.644-1.441-1.438-1.443
				c-0.795,0-1.44,0.645-1.441,1.439C70.56,182.966,70.56,182.968,70.56,182.97z M23.76,35.37c0,0.795,0.644,1.439,1.439,1.44
				c0.795,0.001,1.441-0.644,1.441-1.438c0,0,0-0.001,0-0.002c0-0.795-0.645-1.44-1.44-1.44C24.405,33.93,23.76,34.573,23.76,35.37z
				 M30.96,35.37c0,0.795,0.645,1.439,1.44,1.439s1.44-0.645,1.44-1.439l0,0c0-0.795-0.645-1.44-1.44-1.44S30.96,34.573,30.96,35.37
				z M47.161,74.969c0,0.795,0.646,1.44,1.439,1.44s1.439-0.646,1.439-1.44s-0.646-1.44-1.439-1.44S47.161,74.174,47.161,74.969z
				 M47.161,67.77c0,0.795,0.646,1.44,1.439,1.44s1.439-0.646,1.439-1.44S49.394,66.33,48.6,66.33S47.161,66.974,47.161,67.77z
				 M27.36,67.77c0,0.795,0.645,1.44,1.44,1.44c0.795,0,1.44-0.646,1.44-1.44s-0.645-1.439-1.44-1.439
				C28.005,66.33,27.36,66.974,27.36,67.77z M27.36,74.969c0,0.795,0.645,1.44,1.44,1.44c0.795,0,1.44-0.646,1.44-1.44
				s-0.645-1.44-1.44-1.44C28.005,73.529,27.36,74.174,27.36,74.969z"/>
			<g>
				<title>layer 21</title>
				<g>
					<title>text:D2</title>
					<text transform="matrix(1 0 0 1 12.6001 105.5686)" fill="#FFFFFF" font-family="'OCRA'" font-size="4.176">D2</text>
				</g>
				<g>
					<title>text:D3*</title>
					<text transform="matrix(1 0 0 1 12.6001 112.7688)" fill="#FFFFFF" font-family="'OCRA'" font-size="4.176">D3*</text>
				</g>
				<g>
					<title>text:D4</title>
					<text transform="matrix(1 0 0 1 12.6001 119.969)" fill="#FFFFFF" font-family="'OCRA'" font-size="4.176">D4</text>
				</g>
				<g>
					<title>text:D5*</title>
					<text transform="matrix(1 0 0 1 12.6001 127.1682)" fill="#FFFFFF" font-family="'OCRA'" font-size="4.176">D5*</text>
				</g>
				<g>
					<title>text:D6*</title>
					<text transform="matrix(1 0 0 1 12.6001 134.3674)" fill="#FFFFFF" font-family="'OCRA'" font-size="4.176">D6*</text>
				</g>
				<g>
					<title>text:D7</title>
					<text transform="matrix(1 0 0 1 12.6001 141.5686)" fill="#FFFFFF" font-family="'OCRA'" font-size="4.176">D7</text>
				</g>
				<g>
					<title>text:D8</title>
					<text transform="matrix(1 0 0 1 12.6001 148.7688)" fill="#FFFFFF" font-family="'OCRA'" font-size="4.176">D8</text>
				</g>
				<g>
					<title>text:D9*</title>
					<text transform="matrix(1 0 0 1 12.6001 155.969)" fill="#FFFFFF" font-family="'OCRA'" font-size="4.176">D9*</text>
				</g>
				<g>
					<title>text:D10*</title>
					<text transform="matrix(1 0 0 1 12.6001 163.1682)" fill="#FFFFFF" font-family="'OCRA'" font-size="4.176">D10*</text>
				</g>
				<g>
					<title>text:D11*</title>
					<text transform="matrix(1 0 0 1 12.6001 170.3684)" fill="#FFFFFF" font-family="'OCRA'" font-size="4.176">D11*</text>
				</g>
				<g>
					<title>text:A0</title>
					<text transform="matrix(1 0 0 1 61.4614 134.9436)" fill="#FFFFFF" font-family="'OCRA'" font-size="4.176">A0</text>
				</g>
				<g>
					<title>text:A1</title>
					<text transform="matrix(1 0 0 1 61.4614 142.1448)" fill="#FFFFFF" font-family="'OCRA'" font-size="4.176">A1</text>
				</g>
				<g>
					<title>text:A2</title>
					<text transform="matrix(1 0 0 1 61.4614 149.344)" fill="#FFFFFF" font-family="'OCRA'" font-size="4.176">A2</text>
				</g>
				<g>
					<title>text:A3</title>
					<text transform="matrix(1 0 0 1 61.4614 156.5452)" fill="#FFFFFF" font-family="'OCRA'" font-size="4.176">A3</text>
				</g>
				<g>
					<title>text:A4</title>
					<text transform="matrix(1 0 0 1 61.4614 163.7434)" fill="#FFFFFF" font-family="'OCRA'" font-size="4.176">A4</text>
				</g>
				<g>
					<title>text:A5</title>
					<text transform="matrix(1 0 0 1 61.4614 170.9436)" fill="#FFFFFF" font-family="'OCRA'" font-size="4.176">A5</text>
				</g>
				<g>
					<title>text:A6</title>
					<text transform="matrix(1 0 0 1 61.4614 178.1438)" fill="#FFFFFF" font-family="'OCRA'" font-size="4.176">A6</text>
				</g>
				<g>
					<title>text:A7</title>
					<text transform="matrix(1 0 0 1 61.4614 185.344)" fill="#FFFFFF" font-family="'OCRA'" font-size="4.176">A7</text>
				</g>
				<g>
					<title>text:ON</title>
					<text transform="matrix(1 0 0 1 15.48 76.4084)" fill="#FFFFFF" font-family="'OCRA'" font-size="3.3408">ON</text>
				</g>
				<g>
					<title>text:RSSI</title>
					<text transform="matrix(1 0 0 1 15.48 83.6077)" fill="#FFFFFF" font-family="'OCRA'" font-size="3.3408">RSSI</text>
				</g>
				<g>
					<title>text:D12</title>
					<text transform="matrix(1 0 0 1 12.6001 177.5686)" fill="#FFFFFF" font-family="'OCRA'" font-size="4.176">D12</text>
				</g>
				<g>
					<title>text:D13</title>
					<text transform="matrix(1 0 0 1 12.6001 184.7688)" fill="#FFFFFF" font-family="'OCRA'" font-size="4.176">D13</text>
				</g>
				<g>
					<title>text:GND</title>
					<text transform="matrix(1 0 0 1 12.6001 98.3684)" fill="#FFFFFF" font-family="'OCRA'" font-size="4.176">GND</text>
				</g>
				<g>
					<title>text:3V3</title>
					<text transform="matrix(1 0 0 1 12.6001 91.1682)" fill="#FFFFFF" font-family="'OCRA'" font-size="4.176">3V3</text>
				</g>
				<g>
					<title>text:CHG</title>
					<text transform="matrix(1 0 0 1 15.48 69.2092)" fill="#FFFFFF" font-family="'OCRA'" font-size="3.3408">CHG</text>
				</g>
				<g>
					<title>text:ON</title>
					<text transform="matrix(1 0 0 1 54.5688 73.2698)" fill="#FFFFFF" font-family="'OCRA'" font-size="3.3408">ON</text>
				</g>
				<g>
					<title>text:OFF</title>
					<text transform="matrix(1 0 0 1 52.1538 80.469)" fill="#FFFFFF" font-family="'OCRA'" font-size="3.3408">OFF</text>
				</g>
				<g>
					<title>text:GND</title>
					<text transform="matrix(1 0 0 1 58.4419 91.7434)" fill="#FFFFFF" font-family="'OCRA'" font-size="4.176">GND</text>
				</g>
				<g>
					<title>text:AREF</title>
					<text transform="matrix(1 0 0 1 55.4233 98.9436)" fill="#FFFFFF" font-family="'OCRA'" font-size="4.176">AREF</text>
				</g>
				<g>
					<title>text:3V3</title>
					<text transform="matrix(1 0 0 1 58.4419 106.1448)" fill="#FFFFFF" font-family="'OCRA'" font-size="4.176">3V3</text>
				</g>
				<g>
					<title>text:RXI</title>
					<text transform="matrix(1 0 0 1 58.4419 113.344)" fill="#FFFFFF" font-family="'OCRA'" font-size="4.176">RXI</text>
				</g>
				<g>
					<title>text:TXO</title>
					<text transform="matrix(1 0 0 1 58.4419 120.5452)" fill="#FFFFFF" font-family="'OCRA'" font-size="4.176">TXO</text>
				</g>
				<g>
					<title>text:DTR</title>
					<text transform="matrix(1 0 0 1 58.4419 127.7434)" fill="#FFFFFF" font-family="'OCRA'" font-size="4.176">DTR</text>
				</g>
				<g>
					<title>text:S. Kobayashi and N. Seidle</title>
				</g>
				<g>
					<title>text:DTR</title>
					<text transform="matrix(1 0 0 1 33.48 76.4084)" fill="#FFFFFF" font-family="'OCRA'" font-size="3.3408">DTR</text>
				</g>
				<g>
					<title>text:CTS</title>
					<text transform="matrix(1 0 0 1 33.48 69.2092)" fill="#FFFFFF" font-family="'OCRA'" font-size="3.3408">CTS</text>
				</g>
				<g>
					<title>text:Arduino Fio Reference Design</title>
				</g>
				<g>
					<title>element:JP2</title>
					<g>
						<title>package:1X02</title>
					</g>
				</g>
				<g>
					<title>element:JP3</title>
					<g>
						<title>package:S2B-PH</title>
					</g>
				</g>
				<g>
					<title>element:JP6</title>
					<g>
						<title>package:1X02</title>
					</g>
				</g>
				<g>
					<title>element:JP7</title>
					<g>
						<title>package:1X02</title>
					</g>
				</g>
				<g>
					<title>element:TP1</title>
					<g>
						<title>package:PAD.03X.05</title>
					</g>
				</g>
				<g>
					<title>element:TP2</title>
					<g>
						<title>package:PAD.03X.05</title>
					</g>
				</g>
				<g>
					<title>element:U$1</title>
					<g>
						<title>package:SFE-NEW-WEBLOGO</title>
					</g>
				</g>
				<g>
					<title>element:U$4</title>
					<g>
						<title>package:FIDUCIAL-1X2</title>
					</g>
				</g>
				<g>
					<title>element:U$5</title>
					<g>
						<title>package:FIDUCIAL-1X2</title>
					</g>
				</g>
				<g>
					<title>element:U$6</title>
					<g>
						<title>package:FUNNEL_LOGO_BOTTOM_V2</title>
					</g>
				</g>
				<g>
					<title>element:U4</title>
					<g>
						<title>package:XBEE-SMD</title>
					</g>
				</g>
			</g>
			<rect x="29.636" y="117.206" fill="#333333" width="19.87" height="19.871"/>
			<circle id="connector22pin" fill="none" stroke="#9A916C" stroke-width="1.224" cx="7.2" cy="89.369" r="2.052"/>
			<circle id="connector23pin" fill="none" stroke="#9A916C" stroke-width="1.224" cx="7.2" cy="96.569" r="2.052"/>
			<circle id="connector24pin" fill="none" stroke="#9A916C" stroke-width="1.224" cx="7.2" cy="103.77" r="2.052"/>
			<circle id="connector25pin" fill="none" stroke="#9A916C" stroke-width="1.224" cx="7.2" cy="110.969" r="2.052"/>
			<circle id="connector26pin" fill="none" stroke="#9A916C" stroke-width="1.224" cx="7.2" cy="118.169" r="2.052"/>
			<circle id="connector27pin" fill="none" stroke="#9A916C" stroke-width="1.224" cx="7.2" cy="125.369" r="2.052"/>
			<circle id="connector28pin" fill="none" stroke="#9A916C" stroke-width="1.224" cx="7.2" cy="132.569" r="2.052"/>
			<circle id="connector29pin" fill="none" stroke="#9A916C" stroke-width="1.224" cx="7.2" cy="139.77" r="2.052"/>
			<circle id="connector30pin" fill="none" stroke="#9A916C" stroke-width="1.224" cx="7.2" cy="146.969" r="2.052"/>
			<circle id="connector31pin" fill="none" stroke="#9A916C" stroke-width="1.224" cx="7.2" cy="154.169" r="2.052"/>
			<circle id="connector32pin" fill="none" stroke="#9A916C" stroke-width="1.224" cx="7.2" cy="161.369" r="2.052"/>
			<circle id="connector33pin" fill="none" stroke="#9A916C" stroke-width="1.224" cx="7.2" cy="168.569" r="2.052"/>
			<circle id="connector34pin" fill="none" stroke="#9A916C" stroke-width="1.224" cx="7.2" cy="175.77" r="2.052"/>
			<circle id="connector35pin" fill="none" stroke="#9A916C" stroke-width="1.224" cx="7.2" cy="182.969" r="2.052"/>
			<circle id="connector36pin" fill="none" stroke="#9A916C" stroke-width="1.224" cx="50.4" cy="35.369" r="2.052"/>
			<circle id="connector37pin" fill="none" stroke="#9A916C" stroke-width="1.224" cx="57.6" cy="35.369" r="2.052"/>
			<circle id="connector42pin" fill="none" stroke="#9A916C" stroke-width="1.224" cx="32.4" cy="157.77" r="2.052"/>
			<circle id="connector43pin" fill="none" stroke="#9A916C" stroke-width="1.224" cx="32.4" cy="150.569" r="2.052"/>
			<circle id="connector44pin" fill="none" stroke="#9A916C" stroke-width="1.224" cx="39.6" cy="157.77" r="2.052"/>
			<circle id="connector45pin" fill="none" stroke="#9A916C" stroke-width="1.224" cx="39.6" cy="150.569" r="2.052"/>
			<circle id="connector46pin" fill="none" stroke="#9A916C" stroke-width="1.224" cx="46.799" cy="157.77" r="2.052"/>
			<circle id="connector47pin" fill="none" stroke="#9A916C" stroke-width="1.224" cx="46.799" cy="150.569" r="2.052"/>
			<circle id="connector48pin" fill="none" stroke="#9A916C" stroke-width="1.224" cx="72" cy="89.369" r="2.052"/>
			<circle id="connector49pin" fill="none" stroke="#9A916C" stroke-width="1.224" cx="72" cy="96.569" r="2.052"/>
			<circle id="connector50pin" fill="none" stroke="#9A916C" stroke-width="1.224" cx="72" cy="103.77" r="2.052"/>
			<circle id="connector51pin" fill="none" stroke="#9A916C" stroke-width="1.224" cx="72" cy="110.969" r="2.052"/>
			<circle id="connector52pin" fill="none" stroke="#9A916C" stroke-width="1.224" cx="72" cy="118.169" r="2.052"/>
			<circle id="connector53pin" fill="none" stroke="#9A916C" stroke-width="1.224" cx="72" cy="125.369" r="2.052"/>
			<circle id="connector54pin" fill="none" stroke="#9A916C" stroke-width="1.224" cx="72" cy="132.569" r="2.052"/>
			<circle id="connector55pin" fill="none" stroke="#9A916C" stroke-width="1.224" cx="72" cy="139.77" r="2.052"/>
			<circle id="connector56pin" fill="none" stroke="#9A916C" stroke-width="1.224" cx="72" cy="146.969" r="2.052"/>
			<circle id="connector57pin" fill="none" stroke="#9A916C" stroke-width="1.224" cx="72" cy="154.169" r="2.052"/>
			<circle id="connector58pin" fill="none" stroke="#9A916C" stroke-width="1.224" cx="72" cy="161.369" r="2.052"/>
			<circle id="connector59pin" fill="none" stroke="#9A916C" stroke-width="1.224" cx="72" cy="168.569" r="2.052"/>
			<circle id="connector60pin" fill="none" stroke="#9A916C" stroke-width="1.224" cx="72" cy="175.77" r="2.052"/>
			<circle id="connector61pin" fill="none" stroke="#9A916C" stroke-width="1.224" cx="72" cy="182.969" r="2.052"/>
			<circle id="connector62pin" fill="none" stroke="#9A916C" stroke-width="1.224" cx="25.2" cy="35.369" r="2.052"/>
			<circle id="connector63pin" fill="none" stroke="#9A916C" stroke-width="1.224" cx="32.4" cy="35.369" r="2.052"/>
			<circle id="connector64pin" fill="none" stroke="#9A916C" stroke-width="1.224" cx="48.6" cy="74.969" r="2.052"/>
			<circle id="connector65pin" fill="none" stroke="#9A916C" stroke-width="1.224" cx="48.6" cy="67.769" r="2.052"/>
			<circle id="connector66pin" fill="none" stroke="#9A916C" stroke-width="1.224" cx="28.8" cy="67.769" r="2.052"/>
			<circle id="connector67pin" fill="none" stroke="#9A916C" stroke-width="1.224" cx="28.8" cy="74.969" r="2.052"/>
		</g>
		<g id="_x30_402-cap_1_" transform="matrix(1, 0, 0, 1, 41.7942, 119.863)">
			<g id="_x30_402-cap" transform="matrix(1, 0, 0, 1, 10.275, 76.1789)">
				<g transform="matrix(0, 1, -1, 0, 4.1105, -1.5595)">
					<g>
						<g>
							
								<rect x="-87.811" y="10.265" transform="matrix(2.578893e-006 1 -1 2.578893e-006 -73.4311 99.6306)" fill="#534741" width="2.56" height="5.67"/>
							
								<rect x="-86.543" y="11.532" transform="matrix(2.578893e-006 1 -1 2.578893e-006 -72.1655 100.9001)" opacity="0.2" enable-background="new    " width="0.021" height="5.67"/>
							
								<rect x="-86.547" y="9" transform="matrix(2.578893e-006 1 -1 2.578893e-006 -74.6968 98.3669)" opacity="0.2" fill="#FFFFFF" enable-background="new    " width="0.03" height="5.67"/>
						</g>
						<g>
							<path fill="#DCDCDC" d="M-84.518,11.819L-84.518,11.819L-84.518,11.819h-0.063l0,0c-0.062,0.171-0.101,0.812-0.101,1.002
								c0,0.199,0.035,1.38,0.101,1.558h0.889v-2.56H-84.518z"/>
							<path fill="#DCDCDC" d="M-88.479,11.89v-0.071h-0.888v2.558h0.888c0.063-0.181,0.139-1.354,0.139-1.556
								C-88.342,12.585-88.395,12.095-88.479,11.89z"/>
							
								<rect x="-88.938" y="13.918" transform="matrix(2.578893e-006 1 -1 2.578893e-006 -74.561 103.2848)" opacity="0.15" enable-background="new    " width="0.029" height="0.888"/>
							
								<rect x="-88.938" y="11.392" transform="matrix(2.578893e-006 1 -1 2.578893e-006 -77.0869 100.758)" opacity="0.5" fill="#FFFFFF" enable-background="new    " width="0.031" height="0.887"/>
							<path fill="#D1C690" d="M-83.696,14.378h-0.888"/>
							
								<rect x="-84.155" y="13.917" transform="matrix(2.578893e-006 1 -1 2.578893e-006 -69.7783 98.5021)" opacity="0.15" enable-background="new    " width="0.029" height="0.889"/>
							
								<rect x="-84.156" y="11.389" transform="matrix(2.578893e-006 1 -1 2.578893e-006 -72.3066 95.9738)" opacity="0.5" fill="#FFFFFF" enable-background="new    " width="0.031" height="0.889"/>
							<line fill="none" x1="-88.824" y1="14.376" x2="-88.824" y2="14.376"/>
						</g>
					</g>
				</g>
			</g>
			<rect x="0.016" y="-9.18" opacity="0.1" enable-background="new    " width="2.542" height="0.115"/>
			<rect x="0.016" y="-14.748" opacity="0.2" fill="#FFFFFF" enable-background="new    " width="2.542" height="0.115"/>
		</g>
		<g id="_x30_402-cap_5_" transform="matrix(1, 0, 0, 1, 39.9942, 157.663)">
			<g id="_x30_402-cap_4_" transform="matrix(1, 0, 0, 1, 10.275, 76.1789)">
				<g transform="matrix(0, 1, -1, 0, 4.1105, -1.5595)">
					<g>
						<g>
							
								<rect x="-90.642" y="13.326" transform="matrix(2.578893e-006 1 -1 2.578893e-006 -73.2003 102.4125)" fill="#534741" width="5.67" height="2.561"/>
							
								<rect x="-91.908" y="14.594" transform="matrix(2.578893e-006 1 -1 2.578893e-006 -74.4679 103.6782)" opacity="0.2" enable-background="new    " width="5.67" height="0.021"/>
							
								<rect x="-89.376" y="14.589" transform="matrix(2.578893e-006 1 -1 2.578893e-006 -71.9359 101.1457)" opacity="0.2" fill="#FFFFFF" enable-background="new    " width="5.67" height="0.031"/>
						</g>
						<g>
							<path fill="#DCDCDC" d="M-86.526,16.619L-86.526,16.619L-86.526,16.619v-0.065l0,0c-0.172-0.06-0.813-0.101-1.002-0.101
								c-0.199,0-1.379,0.035-1.558,0.101v0.888h2.56V16.619z"/>
							<path fill="#DCDCDC" d="M-86.597,12.657h0.07V11.77h-2.559v0.887c0.182,0.063,1.354,0.141,1.557,0.141
								C-87.293,12.795-86.802,12.742-86.597,12.657z"/>
							
								<rect x="-89.512" y="12.198" transform="matrix(2.578893e-006 1 -1 2.578893e-006 -76.8553 101.2819)" opacity="0.15" enable-background="new    " width="0.887" height="0.03"/>
							
								<rect x="-86.985" y="12.198" transform="matrix(2.578893e-006 1 -1 2.578893e-006 -74.328 98.7546)" opacity="0.5" fill="#FFFFFF" enable-background="new    " width="0.887" height="0.03"/>
							<path fill="#D1C690" d="M-89.085,17.442v-0.889"/>
							
								<rect x="-89.513" y="16.982" transform="matrix(2.578893e-006 1 -1 2.578893e-006 -72.0719 106.0654)" opacity="0.15" enable-background="new    " width="0.888" height="0.03"/>
							
								<rect x="-86.986" y="16.982" transform="matrix(2.578893e-006 1 -1 2.578893e-006 -69.5436 103.538)" opacity="0.5" fill="#FFFFFF" enable-background="new    " width="0.889" height="0.031"/>
							<line fill="none" x1="-89.084" y1="12.313" x2="-89.084" y2="12.313"/>
						</g>
					</g>
				</g>
			</g>
			<rect x="-3.068" y="-14.457" opacity="0.1" enable-background="new    " width="0.117" height="2.542"/>
			<rect x="2.498" y="-14.457" opacity="0.2" fill="#FFFFFF" enable-background="new    " width="0.115" height="2.542"/>
		</g>
		<g id="_x30_402-cap_7_" transform="matrix(1, 0, 0, 1, 27.6468, 53.8996)">
			<g transform="matrix(-1, 0, 0, -1, 2.559, 5.67)">
				<g id="_x30_402-cap_6_" transform="matrix(1, 0, 0, 1, 10.275, 76.1789)">
					<g transform="matrix(0, 1, -1, 0, 4.1105, -1.5595)">
						<g>
							<g>
								
									<rect x="-59.867" y="11.824" transform="matrix(-2.547107e-006 -1 1 -2.547107e-006 -70.1356 -43.9284)" fill="#534741" width="5.67" height="2.56"/>
								
									<rect x="-58.599" y="13.095" transform="matrix(-2.547107e-006 -1 1 -2.547107e-006 -68.8695 -42.6594)" opacity="0.2" enable-background="new    " width="5.67" height="0.021"/>
								
									<rect x="-61.13" y="13.09" transform="matrix(-2.547107e-006 -1 1 -2.547107e-006 -71.4008 -45.1896)" opacity="0.2" fill="#FFFFFF" enable-background="new    " width="5.67" height="0.031"/>
							</g>
							<g>
								<path fill="#DCDCDC" d="M-58.312,11.09L-58.312,11.09L-58.312,11.09v0.065l0,0c0.171,0.06,0.812,0.1,1.002,0.1
									c0.199,0,1.379-0.035,1.557-0.1v-0.888h-2.559V11.09z"/>
								<path fill="#DCDCDC" d="M-58.239,15.052h-0.071v0.887h2.558v-0.887c-0.181-0.063-1.354-0.139-1.556-0.139
									C-57.544,14.914-58.036,14.968-58.239,15.052z"/>
								
									<rect x="-56.212" y="15.481" transform="matrix(-2.547107e-006 -1 1 -2.547107e-006 -71.2643 -40.2724)" opacity="0.15" enable-background="new    " width="0.887" height="0.03"/>
								
									<rect x="-58.74" y="15.48" transform="matrix(-2.547107e-006 -1 1 -2.547107e-006 -73.7921 -42.8002)" opacity="0.5" fill="#FFFFFF" enable-background="new    " width="0.887" height="0.031"/>
								<path fill="#D1C690" d="M-55.752,10.269v0.888"/>
								
									<rect x="-56.212" y="10.697" transform="matrix(-2.547107e-006 -1 1 -2.547107e-006 -66.4808 -45.0559)" opacity="0.15" enable-background="new    " width="0.888" height="0.03"/>
								
									<rect x="-58.741" y="10.697" transform="matrix(-2.547107e-006 -1 1 -2.547107e-006 -69.0089 -47.5844)" opacity="0.5" fill="#FFFFFF" enable-background="new    " width="0.888" height="0.03"/>
								<line fill="none" x1="-55.753" y1="15.396" x2="-55.753" y2="15.396"/>
							</g>
						</g>
					</g>
				</g>
				<rect x="4.012" y="16.317" opacity="0.1" enable-background="new    " width="0.116" height="2.542"/>
				<rect x="-1.553" y="16.317" opacity="0.2" fill="#FFFFFF" enable-background="new    " width="0.116" height="2.542"/>
			</g>
		</g>
		<g id="_x30_402-cap_9_" transform="matrix(1, 0, 0, 1, 48.9942, 58.6635)">
			<g id="_x30_402-cap_8_" transform="matrix(1, 0, 0, 1, 10.275, 76.1789)">
				<g transform="matrix(0, 1, -1, 0, 4.1105, -1.5595)">
					<g>
						<g>
							
								<rect x="-87.81" y="10.265" transform="matrix(2.578893e-006 1 -1 2.578893e-006 -73.431 99.6302)" fill="#534741" width="2.56" height="5.67"/>
							
								<rect x="-86.543" y="11.532" transform="matrix(2.578893e-006 1 -1 2.578893e-006 -72.1659 100.8992)" opacity="0.2" enable-background="new    " width="0.021" height="5.67"/>
							
								<rect x="-86.547" y="8.999" transform="matrix(2.578893e-006 1 -1 2.578893e-006 -74.6971 98.366)" opacity="0.2" fill="#FFFFFF" enable-background="new    " width="0.031" height="5.67"/>
						</g>
						<g>
							<path fill="#DCDCDC" d="M-84.518,11.819L-84.518,11.819L-84.518,11.819h-0.065l0,0c-0.06,0.172-0.1,0.813-0.1,1.002
								c0,0.199,0.035,1.379,0.1,1.558h0.889v-2.56H-84.518z"/>
							<path fill="#DCDCDC" d="M-88.48,11.89v-0.071h-0.887v2.56h0.887c0.063-0.183,0.139-1.354,0.139-1.558
								C-88.342,12.586-88.396,12.095-88.48,11.89z"/>
							
								<rect x="-88.939" y="13.918" transform="matrix(2.578893e-006 1 -1 2.578893e-006 -74.5614 103.2849)" opacity="0.15" enable-background="new    " width="0.031" height="0.887"/>
							
								<rect x="-88.937" y="11.391" transform="matrix(2.578893e-006 1 -1 2.578893e-006 -77.0872 100.7581)" opacity="0.5" fill="#FFFFFF" enable-background="new    " width="0.029" height="0.888"/>
							<path fill="#D1C690" d="M-83.696,14.377h-0.889"/>
							
								<rect x="-84.156" y="13.918" transform="matrix(2.578893e-006 1 -1 2.578893e-006 -69.7787 98.5022)" opacity="0.15" enable-background="new    " width="0.031" height="0.888"/>
							
								<rect x="-84.155" y="11.391" transform="matrix(2.578893e-006 1 -1 2.578893e-006 -72.305 95.9739)" opacity="0.5" fill="#FFFFFF" enable-background="new    " width="0.031" height="0.888"/>
							<line fill="none" x1="-88.824" y1="14.377" x2="-88.824" y2="14.377"/>
						</g>
					</g>
				</g>
			</g>
			<rect x="0.016" y="-9.181" opacity="0.1" enable-background="new    " width="2.542" height="0.116"/>
			<rect x="0.016" y="-14.747" opacity="0.2" fill="#FFFFFF" enable-background="new    " width="2.542" height="0.116"/>
		</g>
		<g id="led-0603" transform="matrix(1, 0, 0, 1, 37.9464, 194.938)">
			<g transform="matrix(0, -1, 1, 0, -2.0035, 4.5385)">
				<g id="led-0603_1_" transform="matrix(1, 0, 0, 1, 21.5539, 31.3385)">
					<g transform="matrix(0, -1, 1, 0, 1.7065, 4.8135)">
						<g>
							<g>
								<rect x="29.659" y="-7.379" fill="#DCDCDC" width="6.422" height="1.399"/>
								<line fill="none" x1="29.659" y1="-6.017" x2="36.081" y2="-6.017"/>
							</g>
							<g>
								<rect x="30.616" y="-8.49" fill="#F2F2F2" width="4.505" height="2.476"/>
								<path fill="#22B573" fill-opacity="0.7" d="M34.408-6.015c0,0-0.168-0.468,0.052-0.427c0.218,0.041,0.54-0.147,0.676,0
									l-0.015,0.425L34.408-6.015z"/>
								<g>
									<g>
										<rect x="32.442" y="-7.799" fill="#FFFFFF" width="0.854" height="0.961"/>
										<rect x="32.442" y="-6.861" fill="#B3B3B3" width="0.854" height="0.049"/>
									</g>
									<g>
										<polygon fill="#D1C690" points="34.172,-6.439 35.135,-6.336 35.135,-7.066 34.172,-6.963 										"/>
										<g>
											<path fill="#D1C690" d="M34.46-6.638c-0.002,0-0.005,0-0.007,0c-0.267-0.035-0.449-0.104-0.598-0.162
												c-0.209-0.08-0.361-0.142-0.633-0.056c-0.027,0.013-0.059-0.01-0.066-0.043c-0.008-0.034,0.009-0.067,0.039-0.077
												c0.303-0.095,0.478-0.025,0.697,0.059c0.148,0.06,0.318,0.123,0.572,0.156c0.03,0.004,0.054,0.033,0.049,0.067
												C34.511-6.662,34.487-6.638,34.46-6.638z"/>
										</g>
										<polygon fill="#D1C690" points="31.567,-7.968 30.602,-8.072 30.602,-7.342 31.567,-7.445 										"/>
										<g>
											<path fill="#D1C690" d="M32.827-7.164c-0.025,0-0.049-0.02-0.055-0.047c-0.063-0.291-0.949-0.42-1.492-0.438
												c-0.033,0-0.057-0.025-0.057-0.063c0.002-0.035,0.025-0.063,0.057-0.063h0.002c0.152,0.005,1.498,0.054,1.6,0.529
												c0.007,0.035-0.012,0.068-0.042,0.078C32.836-7.164,32.832-7.164,32.827-7.164z"/>
										</g>
										<path fill="#D1C690" d="M33.297-7.148c0,0-0.356-0.002-0.382,0.312c0.071,0,0.382,0,0.382,0V-7.148z"/>
										<path fill="#D1C690" d="M32.863-7.467c0,0,0.158,0.305,0.052,0.351c-0.107,0.047-0.178,0.051-0.24-0.028
											C32.614-7.228,32.863-7.467,32.863-7.467z"/>
										<path fill="#9D956C" d="M33.222-6.799c0.271-0.084,0.423-0.024,0.632,0.056c0.147,0.061,0.331,0.127,0.598,0.161
											l0.001-0.057c-0.267-0.035-0.449-0.104-0.598-0.162c-0.209-0.08-0.361-0.142-0.633-0.056V-6.799z"/>
										<polygon fill="#9D956C" points="31.567,-7.39 30.602,-7.287 30.602,-7.342 31.567,-7.445 										"/>
										<path fill="#9D956C" d="M32.77-7.154c-0.061-0.291-0.947-0.42-1.492-0.434v-0.061c0.545,0.018,1.434,0.146,1.494,0.438
											L32.77-7.154z"/>
										<path fill="#9D956C" d="M32.914-6.781c0.071,0,0.382,0,0.382,0v-0.057c0,0-0.311,0-0.382,0V-6.781z"/>
										<path fill="#9D956C" d="M32.674-7.092c0.063,0.08,0.131,0.076,0.239,0.031l0.001-0.06
											c-0.107,0.049-0.178,0.051-0.24-0.029V-7.092z"/>
									</g>
								</g>
								<rect x="31.137" y="-8.49" opacity="0.5" fill="#FFFFFF" enable-background="new    " width="3.461" height="0.051"/>
								<g opacity="0.25">
									<path fill="#FFFFFF" d="M32.329-7.742c0-0.049,0.035-0.088,0.076-0.088h0.326c0.043,0,0.078-0.039,0.078-0.086v-0.033
										c0,0.049-0.035,0.088-0.078,0.088h-0.326c-0.043,0-0.078,0.039-0.078,0.086L32.329-7.742L32.329-7.742z"/>
									<path fill="#FFFFFF" d="M34.319-8.07c0-0.049-0.036-0.088-0.077-0.088h-1.356c-0.043,0-0.076,0.039-0.076,0.088v-0.032
										c0-0.05,0.032-0.089,0.076-0.089h1.356c0.041,0,0.077,0.039,0.077,0.089V-8.07z"/>
									<path fill="#FFFFFF" d="M34.6-6.597h-0.207c-0.041,0-0.075-0.039-0.075-0.088v-0.031c0,0.047,0.034,0.086,0.075,0.086
										h0.206L34.6-6.597L34.6-6.597z"/>
									<path fill="#FFFFFF" d="M31.137-8.158h1.029c0.041,0,0.078,0.039,0.078,0.088v-0.032c0-0.05-0.035-0.089-0.078-0.089
										h-1.029V-8.158L31.137-8.158z"/>
								</g>
								<g>
									<path opacity="0.5" fill="#F2F2F2" enable-background="new    " d="M30.618-8.49v2.476h4.505V-8.49H30.618z"/>
									<path opacity="0.55" fill="#FFFFFF" enable-background="new    " d="M30.669-7.838v-0.271
										c0.017-0.151-0.012-0.27,0.096-0.27c0.613,0,3.946,0,4.098,0c0.167,0,0.175,0.064-0.012,0.064c-0.131,0-3.132,0-3.585,0
										c-0.457,0-0.519,0.104-0.519,0.197l0.003,0.272C30.747-7.664,30.669-7.664,30.669-7.838z"/>
									<path opacity="0.03" enable-background="new    " d="M35.073-6.236c0,0.068,0.012,0.138-0.097,0.138
										c-0.612,0-3.944,0-4.094,0c-0.168,0-0.176-0.066,0.008-0.066c0.136,0,3.138-0.002,3.592-0.002
										C35.073-6.168,35.073-6.236,35.073-6.236z"/>
								</g>
							</g>
							<g>
								<path fill="#D1C690" d="M29.661-6.015h0.77v-0.521c0-0.125,0.082-0.213,0.188-0.268v-1.688H29.61v2.426v0.051"/>
								<rect x="29.61" y="-8.49" opacity="0.5" fill="#FFFFFF" enable-background="new    " width="1.006" height="0.051"/>
							</g>
							<g>
								<path fill="#D1C690" d="M36.13-6.015v-0.05V-8.49h-1.009v2.105C35.225-6.33,35.31-6.24,35.31-6.114v0.1h0.77"/>
								<rect x="35.12" y="-8.49" opacity="0.5" fill="#FFFFFF" enable-background="new    " width="1.009" height="0.051"/>
							</g>
						</g>
					</g>
				</g>
			</g>
		</g>
		<g id="led-0603_3_" transform="matrix(1, 0, 0, 1, 9.91858, 93.1536)">
			<g transform="matrix(0, 1, -1, 0, 4.5385, 2.0035)">
				<g id="led-0603_2_" transform="matrix(1, 0, 0, 1, 21.5539, 31.3385)">
					<g transform="matrix(0, -1, 1, 0, 1.7065, 4.8135)">
						<g>
							<g>
								<rect x="29.659" y="-36.235" fill="#DCDCDC" width="6.422" height="1.399"/>
								<line fill="none" x1="29.659" y1="-34.873" x2="36.081" y2="-34.873"/>
							</g>
							<g>
								<rect x="30.616" y="-37.347" fill="#F2F2F2" width="4.505" height="2.475"/>
								<path fill="#22B573" fill-opacity="0.7" d="M34.408-34.871c0,0-0.168-0.467,0.052-0.426c0.218,0.041,0.54-0.147,0.676,0
									l-0.015,0.424L34.408-34.871z"/>
								<g>
									<g>
										<rect x="32.441" y="-36.654" fill="#FFFFFF" width="0.854" height="0.961"/>
										<rect x="32.442" y="-35.717" fill="#B3B3B3" width="0.854" height="0.049"/>
									</g>
									<g>
										<polygon fill="#D1C690" points="34.172,-35.295 35.135,-35.191 35.135,-35.922 34.172,-35.818 										"/>
										<g>
											<path fill="#D1C690" d="M34.46-35.494c-0.002,0-0.005,0-0.007,0c-0.267-0.034-0.449-0.104-0.598-0.162
												c-0.209-0.079-0.361-0.141-0.633-0.055c-0.027,0.012-0.059-0.01-0.066-0.043c-0.008-0.035,0.009-0.068,0.039-0.078
												c0.303-0.094,0.478-0.024,0.697,0.06c0.148,0.059,0.318,0.123,0.572,0.155c0.03,0.005,0.054,0.033,0.049,0.068
												C34.511-35.518,34.487-35.494,34.46-35.494z"/>
										</g>
										<polygon fill="#D1C690" points="31.567,-36.824 30.602,-36.928 30.602,-36.198 31.567,-36.301 										"/>
										<g>
											<path fill="#D1C690" d="M32.827-36.021c-0.025,0-0.049-0.021-0.055-0.047c-0.063-0.291-0.949-0.42-1.492-0.437
												c-0.033,0-0.057-0.027-0.057-0.063c0.002-0.035,0.025-0.063,0.057-0.063h0.002c0.152,0.004,1.498,0.053,1.6,0.529
												c0.007,0.035-0.012,0.067-0.042,0.078C32.836-36.021,32.832-36.021,32.827-36.021z"/>
										</g>
										<path fill="#D1C690" d="M33.297-36.004c0,0-0.356-0.002-0.382,0.312c0.071,0,0.382,0,0.382,0V-36.004z"/>
										<path fill="#D1C690" d="M32.863-36.323c0,0,0.158,0.306,0.052,0.351c-0.107,0.047-0.178,0.051-0.24-0.029
											C32.614-36.084,32.863-36.323,32.863-36.323z"/>
										<path fill="#9D956C" d="M33.222-35.654c0.271-0.084,0.423-0.025,0.632,0.055c0.147,0.059,0.331,0.127,0.598,0.162
											l0.001-0.058c-0.267-0.034-0.449-0.104-0.598-0.162c-0.209-0.079-0.361-0.141-0.633-0.055V-35.654z"/>
										<polygon fill="#9D956C" points="31.567,-36.246 30.602,-36.143 30.602,-36.198 31.567,-36.301 										"/>
										<path fill="#9D956C" d="M32.77-36.01c-0.061-0.291-0.947-0.42-1.492-0.434v-0.06c0.545,0.017,1.434,0.146,1.494,0.437
											L32.77-36.01z"/>
										<path fill="#9D956C" d="M32.914-35.637c0.071,0,0.382,0,0.382,0v-0.057c0,0-0.311,0-0.382,0V-35.637z"/>
										<path fill="#9D956C" d="M32.674-35.948c0.063,0.08,0.131,0.076,0.239,0.031l0.001-0.059
											c-0.107,0.049-0.178,0.051-0.24-0.029V-35.948z"/>
									</g>
								</g>
								<rect x="31.138" y="-37.346" opacity="0.5" fill="#FFFFFF" enable-background="new    " width="3.462" height="0.051"/>
								<g opacity="0.25">
									<path fill="#FFFFFF" d="M32.329-36.598c0-0.049,0.035-0.088,0.076-0.088h0.326c0.043,0,0.078-0.039,0.078-0.086v-0.033
										c0,0.049-0.035,0.088-0.078,0.088h-0.326c-0.043,0-0.078,0.039-0.078,0.086L32.329-36.598L32.329-36.598z"/>
									<path fill="#FFFFFF" d="M34.319-36.926c0-0.049-0.036-0.088-0.077-0.088h-1.356c-0.043,0-0.076,0.039-0.076,0.088v-0.033
										c0-0.049,0.032-0.088,0.076-0.088h1.356c0.041,0,0.077,0.039,0.077,0.088V-36.926z"/>
									<path fill="#FFFFFF" d="M34.6-35.453h-0.207c-0.041,0-0.075-0.039-0.075-0.088v-0.031c0,0.048,0.034,0.087,0.075,0.087
										h0.206L34.6-35.453L34.6-35.453z"/>
									<path fill="#FFFFFF" d="M31.137-37.014h1.029c0.041,0,0.078,0.039,0.078,0.088v-0.033c0-0.049-0.035-0.088-0.078-0.088
										h-1.029V-37.014z"/>
								</g>
								<g>
									<path opacity="0.5" fill="#F2F2F2" enable-background="new    " d="M30.618-37.346v2.475h4.505v-2.475H30.618z"/>
									<path opacity="0.55" fill="#FFFFFF" enable-background="new    " d="M30.669-36.693v-0.271
										c0.016-0.152-0.012-0.27,0.096-0.27c0.613,0,3.944,0,4.096,0c0.167,0,0.175,0.065-0.012,0.065c-0.131,0-3.133,0-3.586,0
										c-0.457,0-0.518,0.104-0.518,0.197l0.002,0.272C30.747-36.521,30.669-36.521,30.669-36.693z"/>
									<path opacity="0.03" enable-background="new    " d="M35.073-35.092c0,0.068,0.012,0.137-0.097,0.137
										c-0.612,0-3.944,0-4.095,0c-0.168,0-0.176-0.065,0.008-0.065c0.135,0,3.137-0.002,3.591-0.002
										C35.073-35.023,35.073-35.092,35.073-35.092z"/>
								</g>
							</g>
							<g>
								<path fill="#D1C690" d="M29.661-34.871h0.77v-0.52c0-0.125,0.082-0.213,0.188-0.269v-1.688H29.61v2.426v0.049"/>
								<rect x="29.61" y="-37.347" opacity="0.5" fill="#FFFFFF" enable-background="new    " width="1.006" height="0.051"/>
							</g>
							<g>
								<path fill="#D1C690" d="M36.13-34.871v-0.049v-2.426h-1.009v2.104c0.105,0.056,0.19,0.146,0.19,0.271v0.098h0.769"/>
								<rect x="35.121" y="-37.346" opacity="0.5" fill="#FFFFFF" enable-background="new    " width="1.009" height="0.051"/>
							</g>
						</g>
					</g>
				</g>
			</g>
		</g>
		<g id="led-0603_5_" transform="matrix(1, 0, 0, 1, 9.91858, 85.9536)">
			<g transform="matrix(0, 1, -1, 0, 4.5385, 2.0035)">
				<g id="led-0603_4_" transform="matrix(1, 0, 0, 1, 21.5539, 31.3385)">
					<g transform="matrix(0, -1, 1, 0, 1.7065, 4.8135)">
						<g>
							<g>
								<rect x="29.659" y="-36.235" fill="#DCDCDC" width="6.422" height="1.399"/>
								<line fill="none" x1="29.659" y1="-34.874" x2="36.081" y2="-34.874"/>
							</g>
							<g>
								<rect x="30.616" y="-37.346" fill="#F2F2F2" width="4.505" height="2.475"/>
								<path fill="#22B573" fill-opacity="0.7" d="M34.408-34.871c0,0-0.168-0.468,0.052-0.427c0.218,0.041,0.54-0.147,0.676,0
									l-0.015,0.424L34.408-34.871z"/>
								<g>
									<g>
										<rect x="32.441" y="-36.654" fill="#FFFFFF" width="0.854" height="0.961"/>
										<rect x="32.442" y="-35.717" fill="#B3B3B3" width="0.854" height="0.049"/>
									</g>
									<g>
										<polygon fill="#D1C690" points="34.172,-35.295 35.135,-35.191 35.135,-35.922 34.172,-35.818 										"/>
										<g>
											<path fill="#D1C690" d="M34.46-35.494c-0.002,0-0.005,0-0.007,0c-0.267-0.035-0.449-0.105-0.598-0.162
												c-0.209-0.08-0.361-0.142-0.633-0.056c-0.027,0.013-0.059-0.01-0.066-0.043c-0.008-0.035,0.009-0.067,0.039-0.078
												c0.303-0.094,0.478-0.024,0.697,0.06c0.148,0.059,0.318,0.123,0.572,0.156c0.03,0.004,0.054,0.032,0.049,0.067
												C34.511-35.518,34.487-35.494,34.46-35.494z"/>
										</g>
										<polygon fill="#D1C690" points="31.567,-36.824 30.602,-36.928 30.602,-36.197 31.567,-36.301 										"/>
										<g>
											<path fill="#D1C690" d="M32.827-36.02c-0.025,0-0.049-0.021-0.055-0.047c-0.063-0.291-0.949-0.42-1.492-0.437
												c-0.033,0-0.057-0.026-0.057-0.063c0.002-0.035,0.025-0.063,0.057-0.063h0.002c0.152,0.004,1.498,0.054,1.6,0.529
												c0.007,0.035-0.012,0.068-0.042,0.078C32.836-36.02,32.832-36.02,32.827-36.02z"/>
										</g>
										<path fill="#D1C690" d="M33.297-36.004c0,0-0.356-0.002-0.382,0.312c0.071,0,0.382,0,0.382,0V-36.004z"/>
										<path fill="#D1C690" d="M32.863-36.322c0,0,0.158,0.305,0.052,0.35c-0.107,0.047-0.178,0.051-0.24-0.029
											C32.614-36.084,32.863-36.322,32.863-36.322z"/>
										<path fill="#9D956C" d="M33.222-35.654c0.271-0.084,0.423-0.025,0.632,0.055c0.147,0.059,0.331,0.127,0.598,0.162
											l0.001-0.057c-0.267-0.035-0.449-0.105-0.598-0.162c-0.209-0.08-0.361-0.142-0.633-0.056V-35.654z"/>
										<polygon fill="#9D956C" points="31.567,-36.246 30.602,-36.143 30.602,-36.197 31.567,-36.301 										"/>
										<path fill="#9D956C" d="M32.77-36.01c-0.061-0.291-0.947-0.42-1.492-0.434v-0.06c0.545,0.017,1.434,0.146,1.494,0.437
											L32.77-36.01z"/>
										<path fill="#9D956C" d="M32.914-35.637c0.071,0,0.382,0,0.382,0v-0.057c0,0-0.311,0-0.382,0V-35.637z"/>
										<path fill="#9D956C" d="M32.674-35.947c0.063,0.08,0.131,0.076,0.239,0.03l0.001-0.059
											c-0.107,0.049-0.178,0.051-0.24-0.029V-35.947z"/>
									</g>
								</g>
								<rect x="31.138" y="-37.346" opacity="0.5" fill="#FFFFFF" enable-background="new    " width="3.462" height="0.051"/>
								<g opacity="0.25">
									<path fill="#FFFFFF" d="M32.329-36.598c0-0.049,0.035-0.088,0.076-0.088h0.326c0.043,0,0.078-0.039,0.078-0.086v-0.033
										c0,0.049-0.035,0.088-0.078,0.088h-0.326c-0.043,0-0.078,0.039-0.078,0.086L32.329-36.598L32.329-36.598z"/>
									<path fill="#FFFFFF" d="M34.319-36.926c0-0.049-0.036-0.088-0.077-0.088h-1.356c-0.043,0-0.076,0.039-0.076,0.088v-0.033
										c0-0.049,0.032-0.088,0.076-0.088h1.356c0.041,0,0.077,0.039,0.077,0.088V-36.926z"/>
									<path fill="#FFFFFF" d="M34.6-35.453h-0.207c-0.041,0-0.075-0.039-0.075-0.089v-0.03c0,0.047,0.034,0.086,0.075,0.086
										h0.206L34.6-35.453L34.6-35.453z"/>
									<path fill="#FFFFFF" d="M31.137-37.014h1.029c0.041,0,0.078,0.039,0.078,0.088v-0.033c0-0.049-0.035-0.088-0.078-0.088
										h-1.029V-37.014z"/>
								</g>
								<g>
									<path opacity="0.5" fill="#F2F2F2" enable-background="new    " d="M30.618-37.346v2.475h4.505v-2.475H30.618z"/>
									<path opacity="0.55" fill="#FFFFFF" enable-background="new    " d="M30.669-36.693v-0.271
										c0.016-0.151-0.012-0.27,0.096-0.27c0.613,0,3.944,0,4.096,0c0.167,0,0.175,0.065-0.012,0.065c-0.131,0-3.133,0-3.586,0
										c-0.457,0-0.518,0.105-0.518,0.197l0.002,0.273C30.747-36.52,30.669-36.52,30.669-36.693z"/>
									<path opacity="0.03" enable-background="new    " d="M35.073-35.092c0,0.068,0.012,0.137-0.097,0.137
										c-0.612,0-3.944,0-4.095,0c-0.168,0-0.176-0.065,0.008-0.065c0.135,0,3.137-0.002,3.591-0.002
										C35.073-35.023,35.073-35.092,35.073-35.092z"/>
								</g>
							</g>
							<g>
								<path fill="#D1C690" d="M29.661-34.871h0.77v-0.521c0-0.125,0.082-0.213,0.188-0.268v-1.688H29.61v2.426v0.049"/>
								<rect x="29.61" y="-37.346" opacity="0.5" fill="#FFFFFF" enable-background="new    " width="1.006" height="0.051"/>
							</g>
							<g>
								<path fill="#D1C690" d="M36.13-34.871v-0.05v-2.426h-1.009v2.105c0.105,0.055,0.19,0.145,0.19,0.271v0.098h0.769"/>
								<rect x="35.121" y="-37.346" opacity="0.5" fill="#FFFFFF" enable-background="new    " width="1.009" height="0.051"/>
							</g>
						</g>
					</g>
				</g>
			</g>
		</g>
		<g id="led-0603_7_" transform="matrix(1, 0, 0, 1, 9.91858, 78.7536)">
			<g transform="matrix(0, 1, -1, 0, 4.5385, 2.0035)">
				<g id="led-0603_6_" transform="matrix(1, 0, 0, 1, 21.5539, 31.3385)">
					<g transform="matrix(0, -1, 1, 0, 1.7065, 4.8135)">
						<g>
							<g>
								<rect x="29.659" y="-36.235" fill="#DCDCDC" width="6.422" height="1.4"/>
								<line fill="none" x1="29.659" y1="-34.873" x2="36.081" y2="-34.873"/>
							</g>
							<g>
								<rect x="30.616" y="-37.347" fill="#F2F2F2" width="4.505" height="2.476"/>
								<path fill="#22B573" fill-opacity="0.7" d="M34.408-34.871c0,0-0.168-0.468,0.052-0.427c0.218,0.041,0.54-0.147,0.676,0
									l-0.015,0.425L34.408-34.871z"/>
								<g>
									<g>
										<rect x="32.441" y="-36.654" fill="#FFFFFF" width="0.854" height="0.961"/>
										<rect x="32.442" y="-35.717" fill="#B3B3B3" width="0.854" height="0.05"/>
									</g>
									<g>
										<polygon fill="#D1C690" points="34.172,-35.295 35.135,-35.191 35.135,-35.923 34.172,-35.818 										"/>
										<g>
											<path fill="#D1C690" d="M34.46-35.495c-0.002,0-0.005,0-0.007,0c-0.267-0.035-0.449-0.104-0.598-0.162
												c-0.209-0.08-0.361-0.142-0.633-0.055c-0.027,0.012-0.059-0.011-0.066-0.044c-0.008-0.034,0.009-0.067,0.039-0.077
												c0.303-0.095,0.478-0.025,0.697,0.059c0.148,0.059,0.318,0.123,0.572,0.156c0.03,0.004,0.054,0.033,0.049,0.067
												C34.511-35.518,34.487-35.495,34.46-35.495z"/>
										</g>
										<polygon fill="#D1C690" points="31.567,-36.824 30.602,-36.928 30.602,-36.197 31.567,-36.301 										"/>
										<g>
											<path fill="#D1C690" d="M32.827-36.02c-0.025,0-0.049-0.02-0.055-0.047c-0.063-0.291-0.949-0.42-1.492-0.436
												c-0.033,0-0.057-0.027-0.057-0.063c0.002-0.035,0.025-0.063,0.057-0.063h0.002c0.152,0.005,1.498,0.054,1.6,0.529
												c0.007,0.035-0.012,0.068-0.042,0.078C32.836-36.02,32.832-36.02,32.827-36.02z"/>
										</g>
										<path fill="#D1C690" d="M33.297-36.005c0,0-0.356-0.002-0.382,0.312c0.071,0,0.382,0,0.382,0V-36.005z"/>
										<path fill="#D1C690" d="M32.863-36.322c0,0,0.158,0.305,0.052,0.35c-0.107,0.047-0.178,0.051-0.24-0.028
											C32.614-36.084,32.863-36.322,32.863-36.322z"/>
										<path fill="#9D956C" d="M33.222-35.654c0.271-0.084,0.423-0.025,0.632,0.055c0.147,0.06,0.331,0.127,0.598,0.162
											l0.001-0.057c-0.267-0.035-0.449-0.104-0.598-0.162c-0.209-0.08-0.361-0.142-0.633-0.055V-35.654z"/>
										<polygon fill="#9D956C" points="31.567,-36.246 30.602,-36.143 30.602,-36.197 31.567,-36.301 										"/>
										<path fill="#9D956C" d="M32.77-36.01c-0.061-0.291-0.947-0.42-1.492-0.434v-0.059c0.545,0.016,1.434,0.145,1.494,0.436
											L32.77-36.01z"/>
										<path fill="#9D956C" d="M32.914-35.637c0.071,0,0.382,0,0.382,0v-0.057c0,0-0.311,0-0.382,0V-35.637z"/>
										<path fill="#9D956C" d="M32.674-35.947c0.063,0.08,0.131,0.076,0.239,0.031l0.001-0.06
											c-0.107,0.049-0.178,0.051-0.24-0.029V-35.947z"/>
									</g>
								</g>
								<rect x="31.138" y="-37.346" opacity="0.5" fill="#FFFFFF" enable-background="new    " width="3.462" height="0.052"/>
								<g opacity="0.25">
									<path fill="#FFFFFF" d="M32.329-36.598c0-0.049,0.035-0.088,0.076-0.088h0.326c0.043,0,0.078-0.039,0.078-0.086v-0.033
										c0,0.049-0.035,0.088-0.078,0.088h-0.326c-0.043,0-0.078,0.039-0.078,0.086L32.329-36.598L32.329-36.598z"/>
									<path fill="#FFFFFF" d="M34.319-36.926c0-0.049-0.036-0.088-0.077-0.088h-1.356c-0.043,0-0.076,0.039-0.076,0.088v-0.032
										c0-0.05,0.032-0.089,0.076-0.089h1.356c0.041,0,0.077,0.039,0.077,0.089V-36.926z"/>
									<path fill="#FFFFFF" d="M34.6-35.453h-0.207c-0.041,0-0.075-0.039-0.075-0.088v-0.031c0,0.047,0.034,0.086,0.075,0.086
										h0.206L34.6-35.453L34.6-35.453z"/>
									<path fill="#FFFFFF" d="M31.137-37.014h1.029c0.041,0,0.078,0.039,0.078,0.088v-0.032c0-0.05-0.035-0.089-0.078-0.089
										h-1.029V-37.014z"/>
								</g>
								<g>
									<path opacity="0.5" fill="#F2F2F2" enable-background="new    " d="M30.618-37.346v2.476h4.505v-2.476H30.618z"/>
									<path opacity="0.55" fill="#FFFFFF" enable-background="new    " d="M30.669-36.693v-0.271
										c0.016-0.151-0.012-0.27,0.096-0.27c0.613,0,3.944,0,4.096,0c0.167,0,0.175,0.066-0.012,0.066c-0.131,0-3.133,0-3.586,0
										c-0.457,0-0.518,0.104-0.518,0.196l0.002,0.273C30.747-36.52,30.669-36.52,30.669-36.693z"/>
									<path opacity="0.03" enable-background="new    " d="M35.073-35.092c0,0.068,0.012,0.138-0.097,0.138
										c-0.612,0-3.944,0-4.095,0c-0.168,0-0.176-0.066,0.008-0.066c0.135,0,3.137-0.002,3.591-0.002
										C35.073-35.023,35.073-35.092,35.073-35.092z"/>
								</g>
							</g>
							<g>
								<path fill="#D1C690" d="M29.661-34.871h0.77v-0.521c0-0.125,0.082-0.213,0.188-0.268v-1.688H29.61v2.426v0.05"/>
								<rect x="29.61" y="-37.347" opacity="0.5" fill="#FFFFFF" enable-background="new    " width="1.006" height="0.051"/>
							</g>
							<g>
								<path fill="#D1C690" d="M36.13-34.871v-0.049v-2.427h-1.009v2.105c0.105,0.055,0.19,0.145,0.19,0.271v0.099h0.769"/>
								<rect x="35.121" y="-37.347" opacity="0.5" fill="#FFFFFF" enable-background="new    " width="1.009" height="0.051"/>
							</g>
						</g>
					</g>
				</g>
			</g>
		</g>
		<g id="s2b-ph_1_" transform="matrix(1, 0, 0, 1, 43.1025, 21.7416)">
			<g id="s2b-ph" transform="matrix(1, 0, 0, 1, 10.788, 32.4744)">
				<g transform="matrix(0, 1, -1, 0, 23.0625, -1.61147)">
					<g>
						<g>
							<g>
								<polygon fill="#B7B7B7" points="-24.123,25.858 -24.123,24.133 -35.796,24.133 -35.796,25.858 								"/>
								<polygon fill="#B7B7B7" points="-24.123,18.66 -24.123,16.935 -35.796,16.935 -35.796,18.66 								"/>
							</g>
						</g>
						
							<rect x="-53.778" y="13.669" transform="matrix(2.578893e-006 1 -1 2.578893e-006 -19.9265 62.9528)" fill="#AD9E73" width="24.676" height="15.688"/>
						<g>
							<polygon fill="#C2B990" points="-36.981,14.113 -36.981,16.074 -37.995,16.074 -37.995,26.888 -36.981,26.888 
								-36.981,28.712 -33.598,28.712 -33.598,14.113 							"/>
						</g>
						
							<rect x="-60.03" y="20.062" transform="matrix(2.578893e-006 1 -1 2.578893e-006 -29.2219 72.2482)" fill="#F1F3E6" width="18.59" height="2.902"/>
						<polygon opacity="0.5" fill="#A0916B" enable-background="new    " points="-36.985,28.712 -36.985,26.888 -38.001,26.888 
							-38.001,16.074 -36.985,16.074 -36.985,14.113 -39.864,14.113 -39.864,16.074 -39.864,26.888 -39.864,28.712 						"/>
						
							<rect x="-51.361" y="18.792" transform="matrix(2.578893e-006 1 -1 2.578893e-006 -22.6467 65.4709)" opacity="0.1" fill="#FFFFFF" enable-background="new    " width="14.604" height="5.239"/>
						
							<rect x="-53.475" y="18.79" transform="matrix(2.578893e-006 1 -1 2.578893e-006 -24.7629 67.5841)" opacity="0.1" fill="#FFFFFF" enable-background="new    " width="14.604" height="5.24"/>
						<g>
							<g>
								<path fill="#F1F3E6" d="M-33.598,33.85h2.861v-3.041h-2.861V33.85z"/>
							</g>
						</g>
						<g>
							<g>
								<path fill="#F1F3E6" d="M-33.598,12.219h2.861V9.176h-2.861V12.219z"/>
							</g>
						</g>
						<g>
							<g>
								<polygon fill="#F1F3E6" points="-49.283,33.85 -33.598,33.85 -33.598,28.712 -46.172,28.712 -46.172,25.671 -33.598,25.671 
									-33.598,17.156 -46.172,17.156 -46.172,14.113 -33.598,14.113 -33.598,9.176 -49.283,9.176 								"/>
							</g>
						</g>
						
							<rect x="-34.959" y="10.538" transform="matrix(2.578893e-006 1 -1 2.578893e-006 -22.7405 44.1359)" opacity="0.4" fill="#C2B990" enable-background="new    " width="3.041" height="0.32"/>
						
							<rect x="-34.959" y="32.169" transform="matrix(2.578893e-006 1 -1 2.578893e-006 -1.1091 65.7692)" opacity="0.4" fill="#C2B990" enable-background="new    " width="3.04" height="0.322"/>
						
							<rect x="-52.256" y="25.74" transform="matrix(2.578893e-006 1 -1 2.578893e-006 -23.5432 77.9269)" opacity="0.4" fill="#AD9E73" enable-background="new    " width="3.041" height="2.904"/>
						
							<rect x="-52.258" y="14.18" transform="matrix(2.578893e-006 1 -1 2.578893e-006 -35.1037 66.3683)" opacity="0.4" fill="#AD9E73" enable-background="new    " width="3.043" height="2.904"/>
					</g>
				</g>
			</g>
		</g>
		<g id="_x30_402-res" transform="matrix(1, 0, 0, 1, 25.5942, 195.463)">
			<g id="_x30_402-res_1_" transform="matrix(1, 0, 0, 1, 10.275, 83.3789)">
				<g transform="matrix(0, 1, -1, 0, 4.1105, -1.5595)">
					<g>
						<g>
							
								<rect x="-96.561" y="11.821" transform="matrix(2.578893e-006 1 -1 2.578893e-006 -80.6254 106.8254)" fill="#333333" width="5.67" height="2.559"/>
							
								<rect x="-97.828" y="13.09" transform="matrix(2.578893e-006 1 -1 2.578893e-006 -81.892 108.0939)" opacity="0.2" enable-background="new    " width="5.67" height="0.021"/>
						</g>
						<g>
							<path fill="#CCCCCC" d="M-92.446,15.115L-92.446,15.115L-92.446,15.115v-0.066l0,0c-0.171-0.06-0.812-0.101-1.002-0.101
								c-0.199,0-1.38,0.034-1.557,0.101v0.889h2.559V15.115z"/>
							<path fill="#CCCCCC" d="M-92.519,11.152h0.071v-0.887h-2.558v0.887c0.181,0.063,1.078,0.117,1.277,0.117
								C-93.489,11.269-92.723,11.236-92.519,11.152z"/>
							
								<rect x="-95.432" y="10.694" transform="matrix(2.578893e-006 1 -1 2.578893e-006 -84.2793 105.6979)" opacity="0.15" enable-background="new    " width="0.887" height="0.03"/>
							
								<rect x="-92.905" y="10.694" transform="matrix(2.578893e-006 1 -1 2.578893e-006 -81.7524 103.1701)" opacity="0.5" fill="#FFFFFF" enable-background="new    " width="0.887" height="0.03"/>
							
								<rect x="-95.431" y="15.477" transform="matrix(2.578893e-006 1 -1 2.578893e-006 -79.4951 110.4801)" opacity="0.15" enable-background="new    " width="0.887" height="0.03"/>
							
								<rect x="-92.905" y="15.479" transform="matrix(2.578893e-006 1 -1 2.578893e-006 -76.9668 107.9538)" opacity="0.5" fill="#FFFFFF" enable-background="new    " width="0.889" height="0.028"/>
							<line fill="none" x1="-95.004" y1="10.808" x2="-95.004" y2="10.808"/>
						</g>
					</g>
				</g>
			</g>
			<rect x="-1.561" y="-13.169" opacity="0.1" enable-background="new    " width="0.115" height="2.542"/>
			<rect x="4.004" y="-13.169" opacity="0.2" fill="#FFFFFF" enable-background="new    " width="0.116" height="2.542"/>
		</g>
		<g id="_x30_402-res_3_" transform="matrix(1, 0, 0, 1, 16.5942, 98.2634)">
			<g id="_x30_402-res_2_" transform="matrix(1, 0, 0, 1, 10.275, 83.3789)">
				<g transform="matrix(0, 1, -1, 0, 4.1105, -1.5595)">
					<g>
						<g>
							
								<rect x="-97.148" y="11.822" transform="matrix(2.578893e-006 1 -1 2.578893e-006 -81.2115 107.4143)" fill="#333333" width="5.67" height="2.559"/>
							
								<rect x="-98.416" y="13.09" transform="matrix(2.578893e-006 1 -1 2.578893e-006 -82.4795 108.6814)" opacity="0.2" enable-background="new    " width="5.67" height="0.021"/>
						</g>
						<g>
							<path fill="#CCCCCC" d="M-93.034,15.115L-93.034,15.115L-93.034,15.115v-0.066l0,0c-0.171-0.061-0.813-0.102-1.002-0.102
								c-0.199,0-1.38,0.035-1.558,0.102v0.888h2.56V15.115z"/>
							<path fill="#CCCCCC" d="M-93.105,11.152h0.071v-0.887h-2.559v0.887c0.182,0.063,1.078,0.117,1.279,0.117
								C-94.077,11.269-93.31,11.236-93.105,11.152z"/>
							
								<rect x="-96.02" y="10.695" transform="matrix(2.578893e-006 1 -1 2.578893e-006 -84.8672 106.2859)" opacity="0.15" enable-background="new    " width="0.887" height="0.029"/>
							
								<rect x="-93.493" y="10.694" transform="matrix(2.578893e-006 1 -1 2.578893e-006 -82.3401 103.7583)" opacity="0.5" fill="#FFFFFF" enable-background="new    " width="0.887" height="0.029"/>
							
								<rect x="-96.02" y="15.477" transform="matrix(2.578893e-006 1 -1 2.578893e-006 -80.0843 111.0679)" opacity="0.15" enable-background="new    " width="0.888" height="0.03"/>
							
								<rect x="-93.493" y="15.478" transform="matrix(2.578893e-006 1 -1 2.578893e-006 -77.5555 108.542)" opacity="0.5" fill="#FFFFFF" enable-background="new    " width="0.888" height="0.03"/>
							<line fill="none" x1="-95.592" y1="10.808" x2="-95.592" y2="10.808"/>
						</g>
					</g>
				</g>
			</g>
			<rect x="-1.562" y="-13.757" opacity="0.1" enable-background="new    " width="0.115" height="2.542"/>
			<rect x="4.004" y="-13.757" opacity="0.2" fill="#FFFFFF" enable-background="new    " width="0.116" height="2.542"/>
		</g>
		<g id="_x30_402-res_5_" transform="matrix(1, 0, 0, 1, 16.5942, 91.0634)">
			<g id="_x30_402-res_4_" transform="matrix(1, 0, 0, 1, 10.275, 83.3789)">
				<g transform="matrix(0, 1, -1, 0, 4.1105, -1.5595)">
					<g>
						<g>
							
								<rect x="-97.149" y="11.822" transform="matrix(2.578893e-006 1 -1 2.578893e-006 -81.2122 107.414)" fill="#333333" width="5.671" height="2.559"/>
							
								<rect x="-98.416" y="13.091" transform="matrix(2.578893e-006 1 -1 2.578893e-006 -82.4797 108.6826)" opacity="0.2" enable-background="new    " width="5.67" height="0.021"/>
						</g>
						<g>
							<path fill="#CCCCCC" d="M-93.034,15.115L-93.034,15.115L-93.034,15.115v-0.066l0,0c-0.171-0.06-0.813-0.101-1.002-0.101
								c-0.199,0-1.38,0.035-1.558,0.101v0.889h2.56V15.115z"/>
							<path fill="#CCCCCC" d="M-93.105,11.152h0.071v-0.887h-2.558v0.887c0.181,0.063,1.077,0.117,1.277,0.117
								C-94.077,11.269-93.311,11.236-93.105,11.152z"/>
							
								<rect x="-96.02" y="10.694" transform="matrix(2.578893e-006 1 -1 2.578893e-006 -84.8672 106.2854)" opacity="0.15" enable-background="new    " width="0.887" height="0.03"/>
							
								<rect x="-93.493" y="10.694" transform="matrix(2.578893e-006 1 -1 2.578893e-006 -82.3408 103.758)" opacity="0.5" fill="#FFFFFF" enable-background="new    " width="0.887" height="0.029"/>
							
								<rect x="-96.02" y="15.477" transform="matrix(2.578893e-006 1 -1 2.578893e-006 -80.083 111.0676)" opacity="0.15" enable-background="new    " width="0.889" height="0.03"/>
							
								<rect x="-93.493" y="15.478" transform="matrix(2.578893e-006 1 -1 2.578893e-006 -77.5562 108.5407)" opacity="0.5" fill="#FFFFFF" enable-background="new    " width="0.888" height="0.029"/>
							<line fill="none" x1="-95.592" y1="10.808" x2="-95.592" y2="10.808"/>
						</g>
					</g>
				</g>
			</g>
			<rect x="-1.562" y="-13.758" opacity="0.1" enable-background="new    " width="0.116" height="2.542"/>
			<rect x="4.004" y="-13.758" opacity="0.2" fill="#FFFFFF" enable-background="new    " width="0.116" height="2.542"/>
		</g>
		<g id="_x30_402-res_7_" transform="matrix(1, 0, 0, 1, 52.1385, 180.355)">
			<g transform="matrix(0, -1, 1, 0, -1.5555, 4.1145)">
				<g id="_x30_402-res_6_" transform="matrix(1, 0, 0, 1, 10.275, 83.3789)">
					<g transform="matrix(0, 1, -1, 0, 4.1105, -1.5595)">
						<g>
							<g>
								<rect x="-80.259" y="-4.47" fill="#333333" width="2.562" height="5.671"/>
								<rect x="-77.722" y="-4.47" opacity="0.2" enable-background="new    " width="0.021" height="5.671"/>
							</g>
							<g>
								<path fill="#CCCCCC" d="M-80.257-3.649L-80.257-3.649L-80.257-3.649v0.066l0,0c0.17,0.061,0.812,0.102,1.002,0.102
									c0.199,0,1.379-0.035,1.558-0.102v-0.89h-2.56V-3.649z"/>
								<path fill="#CCCCCC" d="M-80.187,0.313h-0.07V1.2h2.558V0.313c-0.181-0.063-1.078-0.117-1.279-0.117
									C-79.214,0.196-79.982,0.229-80.187,0.313z"/>
								<rect x="-77.73" y="0.313" opacity="0.15" enable-background="new    " width="0.029" height="0.888"/>
								<rect x="-80.257" y="0.313" opacity="0.5" fill="#FFFFFF" enable-background="new    " width="0.029" height="0.888"/>
								<rect x="-77.732" y="-4.47" opacity="0.15" enable-background="new    " width="0.031" height="0.888"/>
								<rect x="-80.259" y="-4.472" opacity="0.5" fill="#FFFFFF" enable-background="new    " width="0.031" height="0.89"/>
								<line fill="none" x1="-77.701" y1="0.657" x2="-77.701" y2="0.657"/>
							</g>
						</g>
					</g>
				</g>
				
					<rect x="17.539" y="2.775" transform="matrix(-2.547107e-006 -1 1 -2.547107e-006 15.9772 21.642)" opacity="0.1" enable-background="new    " width="2.541" height="0.114"/>
				
					<rect x="11.973" y="2.774" transform="matrix(-2.547107e-006 -1 1 -2.547107e-006 10.4112 16.0761)" opacity="0.2" fill="#FFFFFF" enable-background="new    " width="2.541" height="0.117"/>
			</g>
		</g>
		<g id="_x30_402-res_9_" transform="matrix(1, 0, 0, 1, 56.9025, 69.0078)">
			<g transform="matrix(0, 1, -1, 0, 4.1145, 1.5555)">
				<g id="_x30_402-res_8_" transform="matrix(1, 0, 0, 1, 10.275, 83.3789)">
					<g transform="matrix(0, 1, -1, 0, 4.1105, -1.5595)">
						<g>
							<g>
								<rect x="-80.258" y="25.012" fill="#333333" width="2.559" height="5.67"/>
								<rect x="-80.257" y="25.012" opacity="0.2" enable-background="new    " width="0.021" height="5.67"/>
							</g>
							<g>
								<path fill="#CCCCCC" d="M-77.699,29.861L-77.699,29.861L-77.699,29.861v-0.064l0,0c-0.17-0.061-0.812-0.102-1.002-0.102
									c-0.199,0-1.38,0.035-1.557,0.102v0.888h2.559V29.861z"/>
								<path fill="#CCCCCC" d="M-77.772,25.898h0.072v-0.887h-2.559v0.887c0.182,0.064,1.078,0.117,1.277,0.117
									C-78.742,26.016-77.977,25.983-77.772,25.898z"/>
								<rect x="-80.257" y="25.011" opacity="0.15" enable-background="new    " width="0.03" height="0.888"/>
								<rect x="-77.731" y="25.011" opacity="0.5" fill="#FFFFFF" enable-background="new    " width="0.031" height="0.887"/>
								<rect x="-80.256" y="29.794" opacity="0.15" enable-background="new    " width="0.029" height="0.889"/>
								<rect x="-77.729" y="29.794" opacity="0.5" fill="#FFFFFF" enable-background="new    " width="0.029" height="0.889"/>
								<line fill="none" x1="-80.257" y1="25.554" x2="-80.257" y2="25.554"/>
							</g>
						</g>
					</g>
				</g>
				
					<rect x="-17.522" y="2.79" transform="matrix(2.578893e-006 1 -1 2.578893e-006 -13.4019 19.0992)" opacity="0.1" enable-background="new    " width="2.543" height="0.117"/>
				
					<rect x="-11.956" y="2.791" transform="matrix(2.578893e-006 1 -1 2.578893e-006 -7.8355 13.5338)" opacity="0.2" fill="#FFFFFF" enable-background="new    " width="2.542" height="0.116"/>
			</g>
		</g>
		<g id="_x30_402-res_11_" transform="matrix(1, 0, 0, 1, 24.0468, 71.8996)">
			<g transform="matrix(-1, 0, 0, -1, 2.559, 5.67)">
				<g id="_x30_402-res_10_" transform="matrix(1, 0, 0, 1, 10.275, 83.3789)">
					<g transform="matrix(0, 1, -1, 0, 4.1105, -1.5595)">
						<g>
							<g>
								
									<rect x="-67.067" y="11.821" transform="matrix(-2.547107e-006 -1 1 -2.547107e-006 -77.3333 -51.1308)" fill="#333333" width="5.67" height="2.56"/>
								
									<rect x="-68.335" y="13.091" transform="matrix(-2.547107e-006 -1 1 -2.547107e-006 -78.6006 -52.3986)" opacity="0.2" enable-background="new    " width="5.67" height="0.021"/>
							</g>
							<g>
								<path fill="#CCCCCC" d="M-62.952,15.115L-62.952,15.115L-62.952,15.115v-0.066l0,0c-0.171-0.06-0.812-0.101-1.002-0.101
									c-0.199,0-1.38,0.035-1.557,0.101v0.888h2.559V15.115z"/>
								<path fill="#CCCCCC" d="M-63.022,11.152h0.07v-0.887h-2.558v0.887c0.181,0.063,1.078,0.117,1.279,0.117
									C-63.995,11.269-63.228,11.236-63.022,11.152z"/>
								
									<rect x="-65.939" y="10.694" transform="matrix(-2.547107e-006 -1 1 -2.547107e-006 -76.2044 -54.7861)" opacity="0.15" enable-background="new    " width="0.887" height="0.029"/>
								
									<rect x="-63.411" y="10.693" transform="matrix(-2.547107e-006 -1 1 -2.547107e-006 -73.6755 -52.2592)" opacity="0.5" fill="#FFFFFF" enable-background="new    " width="0.887" height="0.03"/>
								
									<rect x="-65.939" y="15.477" transform="matrix(-2.547107e-006 -1 1 -2.547107e-006 -80.9871 -50.0024)" opacity="0.15" enable-background="new    " width="0.888" height="0.03"/>
								
									<rect x="-63.412" y="15.478" transform="matrix(-2.547107e-006 -1 1 -2.547107e-006 -78.4602 -47.4755)" opacity="0.5" fill="#FFFFFF" enable-background="new    " width="0.888" height="0.029"/>
								<line fill="none" x1="-65.511" y1="10.808" x2="-65.511" y2="10.808"/>
							</g>
						</g>
					</g>
				</g>
				<rect x="-1.562" y="16.324" opacity="0.1" enable-background="new    " width="0.116" height="2.542"/>
				<rect x="4.004" y="16.324" opacity="0.2" fill="#FFFFFF" enable-background="new    " width="0.116" height="2.542"/>
			</g>
		</g>
		<g id="tactile_switch_smd_2_" transform="matrix(1, 0, 0, 1, 32.048, 179.366)">
			<g transform="matrix(-1, 0, 0, -1, 15.104, 15.102)">
				<g id="tactile_switch_smd_1_" transform="matrix(1, 0, 0, 1, 17.004, 77.8536)">
					<g transform="matrix(-1, 0, 0, -1, 16.392, 16.373)">
						<g id="tactile_switch_smd" transform="matrix(1, 0, 0, 1, 17.021, 74.628)">
							<g transform="matrix(-1, 0, 0, -1, 16.392, 16.392)">
								<polygon fill="#6D6D6D" points="1.071,23.494 3.165,25.59 11.976,25.59 14.069,23.494 14.069,14.682 11.976,12.59 
									3.165,12.59 1.071,14.682 								"/>
								<rect x="3.165" y="11.54" fill="#6D6D6D" width="8.813" height="15.102"/>
								<rect x="0.018" y="14.682" fill="#6D6D6D" width="15.104" height="8.812"/>
								<polygon fill="#7F7F7F" points="1.704,23.067 3.592,24.958 11.547,24.958 13.439,23.067 13.439,15.112 11.547,13.221 
									3.592,13.221 1.704,15.112 								"/>
								
									<polyline opacity="0.2" fill="none" stroke="#FFFFFF" stroke-width="0.2183" stroke-miterlimit="10" enable-background="new    " points="
									3.801,13.529 2.01,15.32 2.01,22.86 3.801,24.652 11.339,24.652 								"/>
								
									<polyline opacity="0.2" fill="none" stroke="#606060" stroke-width="0.2183" stroke-miterlimit="10" enable-background="new    " points="
									11.34,24.652 13.132,22.861 13.132,15.321 11.34,13.529 3.801,13.529 								"/>
								<g>
									<path fill="#BCA16A" d="M7.571,22.526c-1.895,0-3.436-1.541-3.436-3.436s1.541-3.437,3.436-3.437
										c1.893,0,3.435,1.541,3.435,3.437C11.002,20.984,9.462,22.526,7.571,22.526z"/>
									<path fill="#606060" d="M7.571,15.887c1.769,0,3.204,1.437,3.204,3.205c0,1.77-1.436,3.203-3.204,3.203
										c-1.77,0-3.203-1.436-3.203-3.203C4.368,17.32,5.801,15.887,7.571,15.887 M7.571,15.426c-2.021,0-3.665,1.645-3.665,3.664
										c0,2.021,1.644,3.666,3.665,3.666c2.019,0,3.665-1.646,3.665-3.666C11.233,17.069,9.589,15.426,7.571,15.426L7.571,15.426z
										"/>
								</g>
								
									<path opacity="0.2" fill="#BCA16A" stroke="#FFFFFF" stroke-width="0.4887" stroke-miterlimit="10" enable-background="new    " d="
									M9.591,21.11c-1.116,1.117-2.928,1.117-4.043,0c-1.116-1.117-1.116-2.928,0-4.044"/>
								
									<path opacity="0.2" fill="#BCA16A" stroke="#606060" stroke-width="0.4887" stroke-miterlimit="10" enable-background="new    " d="
									M5.548,17.067c1.115-1.116,2.928-1.116,4.042,0c1.117,1.117,1.117,2.927,0,4.044"/>
							</g>
						</g>
					</g>
				</g>
			</g>
		</g>
		<g id="ayz0202_1_" transform="matrix(1, 0, 0, 1, 54.536, 83.317)">
			<g transform="matrix(0, 1, -1, 0, 16.6635, -3.86449)">
				<g id="ayz0202" transform="matrix(1, 0, 0, 1, 97.7364, 63.0318)">
					<g transform="matrix(0, 1, -1, 0, 17.056, -3.47098)">
						<g>
							<g>
								<g>
									<g>
										<path fill="#666666" d="M-46.907,127.336c0.078,0,0.146-0.065,0.146-0.146v-1.438c0-0.079-0.063-0.146-0.146-0.146h-0.086
											c-0.078,0-0.146,0.065-0.146,0.146v1.438c0,0.078,0.063,0.146,0.146,0.146H-46.907z"/>
									</g>
									<g>
										<path fill="#666666" d="M-46.907,120.137c0.078,0,0.146-0.064,0.146-0.146v-1.436c0-0.078-0.063-0.146-0.146-0.146h-0.086
											c-0.078,0-0.146,0.064-0.146,0.146v1.436c0,0.08,0.063,0.146,0.146,0.146H-46.907z"/>
									</g>
									<g>
										<path fill="#666666" d="M-46.907,112.933c0.078,0,0.146-0.063,0.146-0.146v-1.436c0-0.078-0.063-0.146-0.146-0.146h-0.086
											c-0.078,0-0.146,0.063-0.146,0.146v1.436c0,0.08,0.063,0.146,0.146,0.146H-46.907z"/>
									</g>
								</g>
								<g>
									<g>
										<path fill="#B7B7B7" d="M-47.01,127.336c0.078,0,0.145-0.065,0.145-0.146v-1.438c0-0.079-0.063-0.146-0.145-0.146
											l-1.785,0.001c-0.08,0-0.144,0.065-0.144,0.146v1.438c0,0.078,0.063,0.146,0.144,0.146H-47.01z"/>
									</g>
									<g>
										<path fill="#B7B7B7" d="M-47.01,120.137c0.078,0,0.145-0.064,0.145-0.146v-1.436c0-0.078-0.063-0.146-0.145-0.146
											l-1.785,0.002c-0.08,0-0.144,0.064-0.144,0.146v1.438c0,0.078,0.063,0.146,0.144,0.146L-47.01,120.137z"/>
									</g>
									<g>
										<path fill="#B7B7B7" d="M-47.01,112.933c0.078,0,0.145-0.063,0.145-0.146v-1.436c0-0.078-0.063-0.146-0.145-0.146
											l-1.785,0.003c-0.08,0-0.144,0.063-0.144,0.145v1.436c0,0.08,0.063,0.146,0.144,0.146L-47.01,112.933z"/>
									</g>
								</g>
								<g>
									<g>
										<path fill="#B7B7B7" d="M-56.842,127.337c0.078,0,0.146-0.065,0.146-0.146v-1.438c0-0.079-0.064-0.146-0.146-0.146h-2.572
											c-0.08,0-0.146,0.065-0.146,0.146v1.438c0,0.078,0.063,0.146,0.146,0.146H-56.842z"/>
									</g>
									<g>
										<path fill="#B7B7B7" d="M-56.842,120.137c0.078,0,0.146-0.064,0.146-0.146v-1.436c0-0.078-0.064-0.146-0.146-0.146h-2.572
											c-0.08,0.002-0.146,0.064-0.146,0.146v1.436c0,0.08,0.063,0.146,0.146,0.146H-56.842z"/>
									</g>
									<g>
										<path fill="#B7B7B7" d="M-56.842,112.935c0.078,0,0.146-0.063,0.146-0.146v-1.436c0-0.078-0.064-0.145-0.146-0.145h-2.572
											c-0.08,0.002-0.146,0.063-0.146,0.145v1.438c0,0.077,0.063,0.145,0.146,0.145h2.572V112.935z"/>
									</g>
								</g>
							</g>
						</g>
						<rect x="-57.95" y="109.011" fill="#1E1E1E" width="9.504" height="20.527"/>
						<rect x="-57.229" y="113.953" fill="#F2F2F2" width="2.68" height="10.644"/>
						<rect x="-54.549" y="113.955" fill="#CCCCCC" width="0.135" height="10.642"/>
						<path fill="#898989" d="M-55.463,110.539c0,0.229-0.188,0.201-0.428,0.201h-2.061v3.648c0,0.231,0.19,0.426,0.428,0.426h3.215
							c0.23,0,0.426,0.189,0.426,0.426v8.07c0,0.232-0.188,0.425-0.426,0.425h-3.215c-0.23,0-0.428,0.191-0.428,0.427v3.647h2.061
							c0.232,0,0.43-0.022,0.43,0.203v1.277c0,0.236,0.188,0.248,0.424,0.248h3.893c0.232,0,0.426-0.012,0.426-0.248v-1.276
							c0-0.229,0.19-0.203,0.43-0.203h1.832v-17.066h-1.836c-0.231,0-0.428,0.021-0.428-0.203v-1.276
							c0-0.236-0.188-0.248-0.426-0.248h-3.891c-0.231,0-0.426,0.012-0.426,0.248V110.539z"/>
						<g>
							<path opacity="0.3" fill="#FFFFFF" enable-background="new    " d="M-50.728,129.29v-0.237h-4.742v0.237
								c0,0.236,0.19,0.248,0.427,0.248h3.895C-50.918,129.538-50.728,129.528-50.728,129.29z"/>
							<rect x="-55.471" y="128.565" opacity="0.1" fill="#FFFFFF" enable-background="new    " width="4.743" height="0.485"/>
						</g>
						<g>
							<path opacity="0.3" fill="#FFFFFF" enable-background="new    " d="M-50.728,109.262v0.238h-4.742v-0.238
								c0-0.236,0.19-0.248,0.427-0.248h3.895C-50.918,109.012-50.728,109.021-50.728,109.262z"/>
							<rect x="-55.469" y="109.498" opacity="0.1" fill="#FFFFFF" enable-background="new    " width="4.742" height="0.488"/>
						</g>
						<path fill="#898989" d="M-49.814,112.443c0.289,0,0.524,0.25,0.524,0.56v12.547c0,0.309-0.235,0.559-0.524,0.559
							s-0.522-0.25-0.522-0.559v-12.547C-50.338,112.693-50.103,112.443-49.814,112.443z"/>
						<g>
							<path fill="#666666" d="M-50.338,113.002v12.547c0,0.309,0.235,0.559,0.524,0.559v-0.237c-0.158,0-0.287-0.145-0.287-0.317
								v-12.549c0-0.177,0.129-0.318,0.287-0.318v-0.234C-50.103,112.443-50.338,112.693-50.338,113.002z"/>
							<path opacity="0.3" fill="#FFFFFF" enable-background="new    " d="M-49.527,113.002v12.547c0,0.178-0.13,0.317-0.287,0.317
								v0.237c0.289,0,0.524-0.25,0.524-0.559v-12.547c0-0.307-0.235-0.557-0.524-0.557v0.236
								C-49.657,112.681-49.527,112.826-49.527,113.002z"/>
						</g>
						<g>
							<path opacity="0.3" fill="#FFFFFF" enable-background="new    " d="M-58.295,129.538h2.125c0.154,0,0.284-0.012,0.284-0.248
								v-0.237h-2.409V129.538z"/>
							<rect x="-58.295" y="128.564" opacity="0.1" fill="#FFFFFF" enable-background="new    " width="2.41" height="0.486"/>
						</g>
						<g>
							<path opacity="0.3" fill="#FFFFFF" enable-background="new    " d="M-48.471,129.538h-1.568
								c-0.157,0-0.287-0.012-0.287-0.248v-0.237h1.855V129.538z"/>
							<rect x="-50.328" y="128.565" opacity="0.1" fill="#FFFFFF" enable-background="new    " width="1.855" height="0.485"/>
						</g>
						<g>
							<path opacity="0.3" fill="#FFFFFF" enable-background="new    " d="M-58.295,109.012h2.125c0.154,0,0.284,0.012,0.284,0.248
								v0.237h-2.409V109.012z"/>
							<rect x="-58.295" y="109.499" opacity="0.1" fill="#FFFFFF" enable-background="new    " width="2.41" height="0.484"/>
						</g>
						<g>
							<path opacity="0.3" fill="#FFFFFF" enable-background="new    " d="M-48.471,109.012h-1.568
								c-0.157,0-0.287,0.012-0.287,0.248v0.237h1.855V109.012z"/>
							<rect x="-50.328" y="109.498" opacity="0.1" fill="#FFFFFF" enable-background="new    " width="1.854" height="0.486"/>
						</g>
						<rect x="-58.471" y="125.612" fill="#CCCCCC" width="0.5" height="1.728"/>
						<rect x="-58.448" y="118.411" fill="#CCCCCC" width="0.5" height="1.726"/>
						<rect x="-58.473" y="111.21" fill="#CCCCCC" width="0.5" height="1.729"/>
						<g>
							<path fill="#F2F2F2" d="M-55.362,119.467c0.156,0,0.283,0.127,0.283,0.283v3.557c0,0.155-0.127,0.283-0.283,0.283h-2.232
								c-0.154,0-0.281-0.127-0.281-0.283v-3.557c0-0.156,0.127-0.283,0.281-0.283H-55.362z"/>
							<g opacity="0.59">
								<path fill="none" stroke="#FFFFFF" stroke-width="0.1899" stroke-linecap="round" stroke-miterlimit="10" d="
									M-55.278,123.349h-2.229c-0.097,0-0.173-0.075-0.173-0.171v-3.469"/>
							</g>
							<path fill="#CCCCCC" d="M-55.362,119.467c0.156,0,0.283,0.127,0.283,0.283v3.557c0,0.155-0.127,0.283-0.283,0.283h0.813
								c0.125,0,0.28-0.127,0.28-0.283v-3.557c0-0.156-0.125-0.283-0.28-0.283H-55.362z"/>
							<g opacity="0.2">
								<path fill="none" stroke="#454545" stroke-width="0.1899" stroke-linecap="round" stroke-miterlimit="10" d="
									M-57.678,119.71h2.229c0.095,0,0.173,0.075,0.173,0.17v3.47"/>
							</g>
							<g opacity="0.2">
								<path fill="none" stroke="#000000" stroke-width="0.1899" stroke-linecap="round" stroke-miterlimit="10" d="
									M-54.414,119.71v3.64"/>
							</g>
							
								<path opacity="0.85" fill="none" stroke="#FFFFFF" stroke-width="0.1899" stroke-linecap="round" stroke-miterlimit="10" enable-background="new    " d="
								M-55.946,122.058c-0.295,0.295-0.77,0.295-1.063,0.002c-0.297-0.293-0.295-0.771,0-1.063"/>
							
								<path opacity="0.2" fill="none" stroke="#454545" stroke-width="0.1899" stroke-linecap="round" stroke-miterlimit="10" enable-background="new    " d="
								M-57.01,120.998c0.295-0.293,0.771-0.293,1.063,0c0.296,0.293,0.293,0.771,0,1.062"/>
						</g>
						<rect x="-48.485" y="125.609" fill="#CCCCCC" width="0.5" height="1.728"/>
						<rect x="-48.483" y="118.408" fill="#CCCCCC" width="0.5" height="1.726"/>
						<rect x="-48.484" y="111.21" fill="#CCCCCC" width="0.5" height="1.727"/>
						<rect x="-48.595" y="110.742" fill="#666666" width="0.149" height="17.067"/>
						<g>
							<path fill="#666666" d="M-50.17,127.809c-0.231,0-0.427-0.024-0.427,0.203v1.277c0,0.236-0.19,0.248-0.426,0.248h-0.123
								c0.231,0,0.426-0.012,0.426-0.248v-1.276c0-0.229,0.19-0.203,0.427-0.203L-50.17,127.809L-50.17,127.809z"/>
						</g>
						<g>
							<path fill="#666666" d="M-50.295,110.738c-0.231,0-0.427,0.023-0.427-0.201v-1.276c0-0.238-0.19-0.248-0.426-0.248h0.125
								c0.233,0,0.426,0.01,0.426,0.248v1.276c0,0.229,0.19,0.201,0.427,0.201H-50.295z"/>
						</g>
					</g>
				</g>
			</g>
		</g>
		<g id="sot23-5" transform="matrix(1, 0, 0, 1, 35.2173, 54.0725)">
			<g transform="matrix(-1, 0, 0, -1, 8.064, 8.47001)">
				<g>
					<rect x="0.224" y="21.32" fill="#999999" width="1.457" height="2.062"/>
					<rect x="2.984" y="21.32" fill="#999999" width="1.456" height="2.062"/>
					<rect x="5.744" y="21.32" fill="#999999" width="1.455" height="2.062"/>
					<rect x="0.224" y="23.317" opacity="0.2" fill="#FFFFFF" enable-background="new    " width="1.457" height="0.063"/>
					<rect x="2.984" y="23.317" opacity="0.2" fill="#FFFFFF" enable-background="new    " width="1.456" height="0.063"/>
					<rect x="5.744" y="23.317" opacity="0.2" fill="#FFFFFF" enable-background="new    " width="1.455" height="0.063"/>
					<rect x="5.744" y="14.911" fill="#999999" width="1.455" height="2.225"/>
					<rect x="0.224" y="14.911" fill="#999999" width="1.457" height="2.225"/>
					<rect x="-0.321" y="17.135" fill="#303030" width="8.064" height="4.185"/>
					<polygon fill="#1F1F1F" points="-0.321,17.136 7.744,17.136 7.441,17.439 -0.017,17.439 					"/>
					<polygon fill="#1F1F1F" points="-0.321,21.32 7.744,21.32 7.441,21.016 -0.017,21.016 					"/>
					<polygon points="-0.321,17.136 -0.321,21.32 -0.017,21.016 -0.017,17.439 					"/>
					<polygon fill="#3D3D3D" points="7.744,17.136 7.744,21.32 7.441,21.016 7.441,17.439 					"/>
					<circle fill="#1F1F1F" cx="0.59" cy="20.409" r="0.303"/>
				</g>
			</g>
		</g>
		<g id="sot23-5_1_" transform="matrix(1, 0, 0, 1, 35.2173, 54.0725)">
			<g transform="matrix(-1, 0, 0, -1, 8.064, 8.47001)">
				<g>
					<rect x="-0.096" y="2.086" fill="#999999" width="2.061" height="1.457"/>
					<rect x="-0.096" y="4.846" fill="#999999" width="2.061" height="1.456"/>
					<rect x="-0.096" y="7.606" fill="#999999" width="2.061" height="1.455"/>
					<rect x="-0.096" y="2.086" opacity="0.2" fill="#FFFFFF" enable-background="new    " width="0.064" height="1.457"/>
					<rect x="-0.096" y="4.846" opacity="0.2" fill="#FFFFFF" enable-background="new    " width="0.064" height="1.456"/>
					<rect x="-0.096" y="7.606" opacity="0.2" fill="#FFFFFF" enable-background="new    " width="0.064" height="1.455"/>
					<rect x="6.149" y="7.606" fill="#999999" width="2.225" height="1.455"/>
					<rect x="5.874" y="2.087" fill="#999999" width="2.776" height="1.458"/>
					<rect x="1.965" y="1.541" fill="#303030" width="4.186" height="8.063"/>
					<polygon fill="#1F1F1F" points="6.149,1.541 6.149,9.606 5.847,9.303 5.847,1.845 					"/>
					<polygon fill="#1F1F1F" points="1.965,1.541 1.965,9.606 2.269,9.303 2.269,1.845 					"/>
					<polygon points="6.149,1.541 1.965,1.541 2.269,1.845 5.847,1.845 					"/>
					<polygon fill="#3D3D3D" points="6.149,9.606 1.965,9.606 2.269,9.303 5.847,9.303 					"/>
					<circle fill="#1F1F1F" cx="2.877" cy="2.451" r="0.304"/>
				</g>
			</g>
		</g>
		<g id="eia3216" transform="matrix(1, 0, 0, 1, 32.0499, 101.627)">
			<g transform="matrix(0, 1, -1, 0, 9.7915, -3.5475)">
				
					<rect x="-11.833" y="-4.427" transform="matrix(2.578893e-006 1 -1 2.578893e-006 -6.4692 10.953)" fill="#333333" width="6.243" height="13.338"/>
				<path fill="#CCCCCC" d="M-13.295-0.858h-2.086v6.217h2.086V-0.858z"/>
				<path fill="#D1C690" d="M-2.04,5.363h-2.088"/>
				<line fill="none" x1="-14.104" y1="5.359" x2="-14.104" y2="5.359"/>
				
					<rect x="-8.774" y="-1.387" transform="matrix(2.578893e-006 1 -1 2.578893e-006 -3.4282 13.994)" opacity="0.1" enable-background="new    " width="0.125" height="13.34"/>
				
					<rect x="-8.774" y="-7.467" transform="matrix(2.578893e-006 1 -1 2.578893e-006 -9.5088 7.9135)" opacity="0.2" fill="#FFFFFF" enable-background="new    " width="0.125" height="13.338"/>
				<text transform="matrix(1 0 0 1 -11.6896 3.509)" fill="#CCCCCC" font-family="'DroidSans'" font-size="3.4824">C106</text>
			</g>
		</g>
		<g id="con2_usb_micro_b_at_2_" transform="matrix(1, 0, 0, 1, 14.5557, 123.449)">
			<g id="con2_usb_micro_b_at_3_" transform="matrix(1, 0, 0, 1, 18.6038, 120.082)">
				<rect x="-21.389" y="-237.925" fill="#CCCCCC" width="5.375" height="7.151"/>
				<rect x="-21.389" y="-222.294" fill="#CCCCCC" width="5.375" height="7.151"/>
				<rect x="3.846" y="-237.925" fill="#CCCCCC" width="5.375" height="7.151"/>
				<rect x="-21.389" y="-237.925" fill="#F2F2F2" width="5.375" height="0.151"/>
				<rect x="3.846" y="-237.925" fill="#F2F2F2" width="5.375" height="0.151"/>
				<rect x="-21.389" y="-230.964" opacity="0.2" enable-background="new    " width="5.375" height="0.19"/>
				<rect x="3.846" y="-230.964" opacity="0.2" enable-background="new    " width="5.375" height="0.19"/>
				<rect x="3.846" y="-222.294" fill="#CCCCCC" width="5.375" height="7.151"/>
				<rect x="-21.389" y="-222.294" fill="#F2F2F2" width="5.375" height="0.193"/>
				<rect x="3.846" y="-222.294" fill="#F2F2F2" width="5.375" height="0.193"/>
				<g>
					<rect x="-2.033" y="-218.399" fill="#666666" width="1.252" height="2.982"/>
					<rect x="-0.894" y="-218.224" fill="#999999" width="0.113" height="2.81"/>
				</g>
				<g>
					<rect x="-4.367" y="-218.399" fill="#666666" width="1.254" height="2.982"/>
					<rect x="-3.228" y="-218.224" fill="#999999" width="0.115" height="2.81"/>
				</g>
				<g>
					<rect x="-6.695" y="-218.399" fill="#666666" width="1.254" height="2.982"/>
					<rect x="-5.555" y="-218.224" fill="#999999" width="0.113" height="2.81"/>
				</g>
				<g>
					<rect x="-9.027" y="-218.399" fill="#666666" width="1.254" height="2.982"/>
					<rect x="-7.885" y="-218.224" fill="#999999" width="0.111" height="2.81"/>
				</g>
				<g>
					<rect x="-11.355" y="-218.399" fill="#666666" width="1.252" height="2.982"/>
					<rect x="-10.217" y="-218.224" fill="#999999" width="0.113" height="2.81"/>
				</g>
				<g>
					<polygon fill="#B3B3B3" points="-16.699,-243.467 4.524,-243.467 4.524,-218.08 -16.699,-218.08 					"/>
					<rect x="-16.699" y="-218.227" fill="#CCCCCC" width="21.223" height="0.146"/>
					<rect x="-15.039" y="-241.896" fill="#333333" width="17.938" height="23.816"/>
					<path fill="#CCCCCC" d="M4.783-218.718l-0.258,0.639H1.672c0,0,2.594-0.125,2.686-0.317c0.092-0.192-0.123-0.321-0.123-0.321
						H4.783z"/>
					<path fill="#CCCCCC" d="M-16.924-218.718l0.258,0.637h2.854c0,0-2.592-0.126-2.684-0.316c-0.094-0.191,0.121-0.319,0.121-0.319
						L-16.924-218.718L-16.924-218.718z"/>
					<path fill="#E6E6E6" d="M-16.924-243.465v25.384h6.143v-0.636h9.418v0.636H4.78v-25.384H-16.924z M-13.293-231.024
						c0,0.138-0.112,0.25-0.25,0.25h-0.729c-0.138,0-0.25-0.112-0.25-0.25v-6.651c0-0.138,0.112-0.25,0.25-0.25h0.729
						c0.138,0,0.25,0.112,0.25,0.25V-231.024z M-9.146-240.911h0.175c0.138,0,0.257,0.111,0.265,0.25l0.566,9.917
						c0.008,0.137,0.127,0.25,0.265,0.25h3.667c0.138,0,0.257-0.112,0.265-0.25l0.566-9.917c0.008-0.138,0.127-0.25,0.265-0.25
						h0.175c0.138,0,0.243,0.111,0.235,0.25l-0.716,12.542c-0.008,0.137-0.127,0.25-0.265,0.25h-4.718
						c-0.138,0-0.257-0.112-0.265-0.25l-0.716-12.542C-9.39-240.799-9.284-240.911-9.146-240.911z M-12.91-239.87l0.864-0.864
						c0.097-0.098,0.289-0.177,0.427-0.177h0.601c0.138,0,0.25,0.111,0.25,0.25v9.638c0,0.138-0.112,0.25-0.25,0.25h-0.601
						c-0.138,0-0.25-0.112-0.25-0.25v-7.202c0-0.138-0.08-0.33-0.177-0.427l-0.864-0.864
						C-13.008-239.614-13.008-239.773-12.91-239.87z M1.024-221.745c0,0.138-0.112,0.25-0.25,0.25h-13.17
						c-0.138,0-0.25-0.112-0.25-0.25v-0.833c0-0.139,0.112-0.25,0.25-0.25h13.17c0.138,0,0.25,0.111,0.25,0.25V-221.745z
						 M1.045-239.517l-0.864,0.864c-0.097,0.097-0.177,0.289-0.177,0.427v7.202c0,0.138-0.112,0.25-0.25,0.25h-0.601
						c-0.138,0-0.25-0.112-0.25-0.25v-9.638c0-0.139,0.112-0.25,0.25-0.25h0.601c0.138,0,0.33,0.079,0.427,0.177l0.864,0.864
						C1.143-239.773,1.143-239.614,1.045-239.517z M2.656-231.024c0,0.138-0.112,0.25-0.25,0.25H1.678
						c-0.138,0-0.25-0.112-0.25-0.25v-6.651c0-0.138,0.112-0.25,0.25-0.25h0.729c0.138,0,0.25,0.112,0.25,0.25L2.656-231.024
						L2.656-231.024z"/>
					<polygon fill="#F2F2F2" points="4.326,-243.467 4.783,-243.467 4.783,-218.067 3.059,-218.067 					"/>
					<polygon fill="#F2F2F2" points="-16.924,-243.467 -16.283,-224.87 -15.644,-218.067 -16.924,-218.067 					"/>
					<polyline fill="#F2F2F2" points="-16.922,-243.115 -16.922,-243.467 4.779,-243.467 4.779,-243.115 					"/>
				</g>
			</g>
		</g>
	</g>
	<rect x="11.771" y="28.232" opacity="0.2" enable-background="new    " width="5.375" height="0.156"/>
	<rect x="37.005" y="28.232" opacity="0.2" enable-background="new    " width="5.375" height="0.156"/>
</g>
</svg>
