<?xml version='1.0' encoding='utf-8'?>
<!DOCTYPE svg>
<!-- Generator: Adobe Illustrator 15.0.0, SVG Export Plug-In . SVG Version: 6.00 Build 0)  -->
<svg xmlns="http://www.w3.org/2000/svg" width="0.548125in" x="0px" version="1.1" y="0px" gorn="0"  height="0.806083in" viewBox="0 0 39.465 58.038" xmlns:xml="http://www.w3.org/XML/1998/namespace" id="Layer_1" enable-background="new 0 0 39.465 58.038" xml:space="preserve">
    <desc >
        <referenceFile >orp.svg</referenceFile>
    </desc>
    <g >
        <path fill="#007DC5"  d="M0,0.384v57.271h39.465V0.384H0z M37.558,32.619c-0.606,0-1.098-0.491-1.098-1.097c0-0.607,0.491-1.098,1.098-1.098s1.097,0.49,1.097,1.098C38.654,32.128,38.164,32.619,37.558,32.619z M37.558,25.316c-0.606,0-1.098-0.492-1.098-1.098c0-0.604,0.491-1.097,1.098-1.097s1.097,0.492,1.097,1.097C38.654,24.824,38.164,25.316,37.558,25.316z M37.558,17.686c-0.606,0-1.098-0.492-1.098-1.096c0-0.607,0.491-1.099,1.098-1.099s1.097,0.491,1.097,1.099C38.654,17.193,38.164,17.686,37.558,17.686z M37.558,10.076c-0.606,0-1.098-0.492-1.098-1.098c0-0.606,0.491-1.098,1.098-1.098s1.097,0.491,1.097,1.098C38.654,9.584,38.164,10.076,37.558,10.076z M37.558,3.082c-0.606,0-1.098-0.492-1.098-1.098c0-0.606,0.491-1.098,1.098-1.098s1.097,0.491,1.097,1.098C38.654,2.59,38.164,3.082,37.558,3.082z"/>
        <circle fill="none" cx="37.555"  cy="1.984" stroke="#E7BC20" r="1.098" stroke-width="0.3692" stroke-miterlimit="10"/>
        <circle fill="none" cx="37.555"  cy="8.951" stroke="#E7BC20" r="1.098" stroke-width="0.3692" stroke-miterlimit="10"/>
        <circle fill="none" cx="37.555"  cy="16.59" stroke="#E7BC20" r="1.098" stroke-width="0.3692" stroke-miterlimit="10"/>
        <circle fill="none" cx="37.555"  cy="24.202" stroke="#E7BC20" r="1.097" stroke-width="0.3692" stroke-miterlimit="10"/>
        <circle fill="none" cx="37.555"  cy="31.538" stroke="#E7BC20" r="1.098" stroke-width="0.3692" stroke-miterlimit="10"/>
        <polygon points="29.6,0.384 29.23,0 24.384,0 24.045,0.384 " />
        <polygon points="22.563,0.384 22.193,0 17.349,0 17.01,0.384 " />
        <polygon points="15.527,0.384 15.158,0 10.313,0 9.975,0.384 " />
        <polygon points="9.936,57.654 10.305,58.038 15.15,58.038 15.488,57.654 " />
        <polygon points="17.01,57.654 17.379,58.038 22.225,58.038 22.563,57.654 " />
        <polygon points="24.045,57.654 24.414,58.038 29.26,58.038 29.6,57.654 " />
        <g >
            <rect width="2.615" x="1.528" y="1.491" fill="#D1D3D4"  height="4.707"/>
            <rect width="2.615" x="1.528" y="2.63"  height="2.431"/>
        </g>
        <g >
            <rect width="4.707" x="1.975" y="18.814" fill="#D1D3D4"  height="2.615"/>
            <rect width="2.43" x="3.113" y="18.814"  height="2.615"/>
        </g>
        <g >
            <rect width="4.707" x="1.975" y="23.993" fill="#D1D3D4"  height="2.614"/>
            <rect width="2.43" x="3.113" y="23.993"  height="2.614"/>
        </g>
        <g >
            <rect width="4.708" x="10.983" y="18.814" fill="#D1D3D4"  height="2.615"/>
            <rect width="2.431" x="12.122" y="18.814"  height="2.615"/>
        </g>
        <g >
            <rect width="4.707" x="9.769" y="23.993" fill="#D1D3D4"  height="2.614"/>
            <rect width="2.432" x="10.906" y="23.993"  height="2.614"/>
        </g>
        <g >
            <rect width="4.707" x="29.477" y="24.316" fill="#D1D3D4"  height="2.616"/>
            <rect width="2.431" x="30.614" y="24.316"  height="2.616"/>
        </g>
        <g >
            <rect width="4.707" x="29.553" y="30.717" fill="#D1D3D4"  height="2.615"/>
            <rect width="2.431" x="30.691" y="30.717"  height="2.615"/>
        </g>
        <g >
            <rect width="2.615" x="5.646" y="1.491" fill="#D1D3D4"  height="4.707"/>
            <rect width="2.615" x="5.646" y="2.63"  height="2.431"/>
        </g>
        <g >
            <rect width="2.615" x="30.973" y="48.443" fill="#D1D3D4"  height="4.707"/>
            <rect width="2.615" x="30.973" y="49.581"  height="2.432"/>
        </g>
        <g >
            <rect width="2.615" x="18.08" y="21.993" fill="#D1D3D4"  height="4.708"/>
            <rect width="2.615" x="18.08" y="23.132"  height="2.431"/>
        </g>
        <g >
            <rect width="2.615" x="23.902" y="26.874" fill="#D1D3D4"  height="4.707"/>
            <rect width="2.615" x="23.902" y="28.013"  height="2.431"/>
        </g>
        <g >
            <rect width="2.615" x="36.037" y="48.443" fill="#D1D3D4"  height="4.707"/>
            <rect width="2.615" x="36.037" y="49.581"  height="2.432"/>
        </g>
        <g >
            <path fill="#FFFFFF"  d="M11.481,8.112c-0.246,0.129-0.516,0.182-0.793,0.182c-0.591,0-1.021-0.387-1.021-0.993c0-0.605,0.43-0.994,1.021-0.994c0.299,0,0.563,0.068,0.753,0.244l-0.294,0.321c-0.112-0.118-0.248-0.18-0.459-0.18c-0.354,0-0.588,0.256-0.588,0.608s0.233,0.609,0.588,0.609c0.182,0,0.315-0.05,0.392-0.095V7.51h-0.338V7.126h0.739V8.112z"/>
            <path fill="#FFFFFF"  d="M11.846,6.356h0.567l0.804,1.313h0.006V6.356h0.415v1.89h-0.544l-0.825-1.345h-0.005v1.345h-0.418V6.356z"/>
            <path fill="#FFFFFF"  d="M14.021,6.356h0.625c0.609,0,1.119,0.259,1.119,0.95c0,0.611-0.499,0.939-1.063,0.939h-0.682V6.356z M14.438,7.862h0.217c0.388,0,0.678-0.146,0.678-0.577c0-0.371-0.296-0.545-0.648-0.545h-0.246V7.862z"/>
        </g>
        <g >
            <g >
                <path fill="#FFFFFF"  d="M25.575,51.465c-0.245,0.129-0.515,0.182-0.793,0.182c-0.591,0-1.021-0.387-1.021-0.993s0.43-0.994,1.021-0.994c0.299,0,0.563,0.068,0.753,0.244l-0.293,0.321c-0.113-0.119-0.249-0.18-0.46-0.18c-0.356,0-0.587,0.256-0.587,0.608s0.23,0.609,0.587,0.609c0.182,0,0.315-0.051,0.392-0.095v-0.306h-0.338v-0.384h0.739V51.465z"/>
                <path fill="#FFFFFF"  d="M25.94,49.708h0.565l0.805,1.313h0.004v-1.313h0.418v1.891h-0.545l-0.825-1.346h-0.005v1.346H25.94V49.708z"/>
                <path fill="#FFFFFF"  d="M28.115,49.708h0.625c0.609,0,1.119,0.259,1.119,0.95c0,0.612-0.499,0.94-1.063,0.94h-0.682V49.708z M28.533,51.215h0.216c0.387,0,0.678-0.147,0.678-0.577c0-0.371-0.296-0.546-0.648-0.546h-0.245V51.215z"/>
            </g>
        </g>
        <g >
            <g >
                <path fill="#FFFFFF"  d="M17.331,49.708h0.703c0.392,0,0.718,0.125,0.718,0.573c0,0.444-0.302,0.581-0.7,0.581h-0.305v0.736h-0.416V49.708z M17.747,50.509h0.278c0.147,0,0.294-0.051,0.294-0.228c0-0.194-0.198-0.221-0.357-0.221h-0.215V50.509z"/>
                <path fill="#FFFFFF"  d="M19.013,49.708h0.732c0.387,0,0.713,0.133,0.713,0.573c0,0.265-0.142,0.472-0.409,0.519l0.48,0.799H20.03l-0.395-0.755H19.43v0.755h-0.417V49.708z M19.43,50.491h0.245c0.152,0,0.35-0.006,0.35-0.212c0-0.189-0.17-0.219-0.322-0.219H19.43V50.491z"/>
                <path fill="#FFFFFF"  d="M20.743,49.708h0.705c0.33,0,0.691,0.07,0.691,0.48c0,0.211-0.131,0.355-0.326,0.417v0.005c0.248,0.032,0.414,0.217,0.414,0.462c0,0.396-0.374,0.526-0.711,0.526h-0.773V49.708z M21.159,50.463h0.302c0.128,0,0.262-0.053,0.262-0.204c0-0.158-0.149-0.198-0.28-0.198h-0.283V50.463z M21.159,51.246h0.375c0.13,0,0.277-0.057,0.277-0.222c0-0.178-0.201-0.208-0.337-0.208h-0.315V51.246z"/>
            </g>
        </g>
        <g >
            <g >
                <path fill="#FFFFFF"  d="M9.968,49.708h0.476l0.467,1.238h0.006l0.475-1.238h0.446l-0.78,1.891h-0.334L9.968,49.708z"/>
                <path fill="#FFFFFF"  d="M13.27,50.199c-0.082-0.099-0.203-0.154-0.357-0.154c-0.314,0-0.547,0.256-0.547,0.608s0.232,0.609,0.533,0.609c0.168,0,0.305-0.075,0.391-0.204l0.347,0.259c-0.157,0.225-0.425,0.329-0.684,0.329c-0.59,0-1.02-0.387-1.02-0.993s0.43-0.994,1.02-0.994c0.212,0,0.478,0.073,0.639,0.278L13.27,50.199z"/>
                <path fill="#FFFFFF"  d="M15.099,50.199c-0.083-0.099-0.202-0.154-0.358-0.154c-0.314,0-0.547,0.256-0.547,0.608s0.232,0.609,0.534,0.609c0.169,0,0.304-0.075,0.39-0.204l0.348,0.259c-0.158,0.225-0.425,0.329-0.684,0.329c-0.59,0-1.021-0.387-1.021-0.993s0.431-0.994,1.021-0.994c0.211,0,0.479,0.073,0.638,0.278L15.099,50.199z"/>
            </g>
        </g>
        <g >
            <g >
                <path fill="#FFFFFF"  d="M1.145,54.436c0-0.867,0.628-1.508,1.499-1.508c0.872,0,1.499,0.641,1.499,1.508s-0.627,1.508-1.499,1.508C1.772,55.943,1.145,55.303,1.145,54.436z M3.778,54.436c0-0.662-0.462-1.191-1.135-1.191S1.51,53.773,1.51,54.436c0,0.66,0.461,1.19,1.134,1.19S3.778,55.096,3.778,54.436z"/>
                <path fill="#FFFFFF"  d="M4.69,53h0.733c0.555,0,1.143,0.081,1.143,0.791c0,0.417-0.271,0.688-0.717,0.758l0.814,1.32H6.246l-0.777-1.288H5.031v1.288H4.69V53z M5.031,54.264h0.304c0.376,0,0.867,0,0.867-0.473c0-0.414-0.36-0.474-0.693-0.474H5.031V54.264z"/>
                <path fill="#FFFFFF"  d="M7.166,53h0.852c0.526,0,1.005,0.188,1.005,0.787c0,0.628-0.535,0.794-0.94,0.794H7.507v1.288H7.166V53z M7.507,54.264h0.575c0.341,0,0.575-0.153,0.575-0.473c0-0.32-0.234-0.474-0.575-0.474H7.507V54.264z"/>
            </g>
        </g>
        <g >
            <g >
                <path fill="#FFFFFF"  d="M18.589,6.725H18.05V6.356h1.496v0.368h-0.539v1.521h-0.418V6.725z"/>
                <path fill="#FFFFFF"  d="M20.226,7.258l-0.625-0.901h0.523l0.403,0.662l0.388-0.662h0.504l-0.611,0.895l0.684,0.995h-0.523l-0.462-0.761l-0.448,0.761h-0.494L20.226,7.258z"/>
            </g>
        </g>
        <g >
            <g >
                <path fill="#FFFFFF"  d="M30.357,3.612h0.732c0.387,0,0.713,0.133,0.713,0.573c0,0.265-0.143,0.47-0.408,0.519l0.48,0.798h-0.5l-0.396-0.756h-0.205v0.756h-0.417V3.612z M30.774,4.395h0.246c0.152,0,0.35-0.006,0.35-0.212c0-0.188-0.171-0.219-0.323-0.219h-0.272V4.395z"/>
                <path fill="#FFFFFF"  d="M32.558,4.514l-0.625-0.901h0.524l0.402,0.662l0.387-0.662h0.505L33.14,4.507l0.685,0.995H33.3l-0.462-0.761l-0.449,0.761h-0.494L32.558,4.514z"/>
            </g>
        </g>
        <g >
            <rect width="1.23" x="24.594" y="8.403" fill="#D1D3D4"  height="1.827"/>
            <rect width="1.229" x="26.604" y="8.403" fill="#D1D3D4"  height="1.827"/>
            <rect width="1.23" x="28.492" y="8.403" fill="#D1D3D4"  height="1.827"/>
            <rect width="1.231" x="30.357" y="8.403" fill="#D1D3D4"  height="1.827"/>
            <rect width="1.23" x="24.594" y="20.834" fill="#D1D3D4"  height="1.826"/>
            <rect width="1.229" x="26.604" y="20.834" fill="#D1D3D4"  height="1.826"/>
            <rect width="1.23" x="28.492" y="20.834" fill="#D1D3D4"  height="1.826"/>
            <rect width="1.231" x="30.357" y="20.834" fill="#D1D3D4"  height="1.826"/>
            <rect width="14.256" x="21.086" y="12.035" fill="#D1D3D4"  height="1.292"/>
            <rect width="14.256" x="21.086" y="13.881" fill="#D1D3D4"  height="1.292"/>
            <rect width="14.256" x="21.086" y="15.829" fill="#D1D3D4"  height="1.292"/>
            <rect width="14.256" x="21.086" y="17.688" fill="#D1D3D4"  height="1.292"/>
            <rect width="11.59" x="22.563" y="9.768"  height="11.662"/>
        </g>
        <rect width="1.887" x="3.139" y="10.23" fill="#D1D3D4"  height="3.097"/>
        <rect width="2.128" x="3.139" y="14.291" fill="#D1D3D4"  height="3.037"/>
        <rect width="2.354" x="12.122" y="14.527" fill="#D1D3D4"  height="2.801"/>
        <rect width="2.354" x="12.122" y="10.23" fill="#D1D3D4"  height="3.097"/>
        <rect width="8.932" x="4.328" y="10.049" fill="#F3E38E"  height="7.639"/>
        <rect width="0.457" x="5.189" opacity="0.5" y="10.049" fill="#39B54A"  height="7.639"/>
        <g >
            <rect width="3.016" x="1.805" y="29.769" fill="#D1D3D4"  height="1.046"/>
            <rect width="3.016" x="1.805" y="31.717" fill="#D1D3D4"  height="1.046"/>
            <rect width="3.016" x="1.805" y="33.666" fill="#D1D3D4"  height="1.046"/>
            <rect width="3.016" x="1.805" y="35.614" fill="#D1D3D4"  height="1.046"/>
            <rect width="3.015" x="18.004" y="35.614" fill="#D1D3D4"  height="1.046"/>
            <rect width="3.015" x="18.004" y="33.666" fill="#D1D3D4"  height="1.046"/>
            <rect width="3.015" x="18.004" y="31.717" fill="#D1D3D4"  height="1.046"/>
            <rect width="3.015" x="18.004" y="29.769" fill="#D1D3D4"  height="1.046"/>
            <rect width="13.184" x="4.82" y="28.835"  height="8.82"/>
        </g>
        <g >
            <rect width="1.867" x="30.973" y="36.156" fill="#D1D3D4"  height="3.077"/>
            <rect width="1.865" x="36.412" y="36.156" fill="#D1D3D4"  height="3.077"/>
            <rect width="1.865" x="36.412" y="43.829" fill="#D1D3D4"  height="3.077"/>
            <rect width="1.866" x="33.692" y="43.829" fill="#D1D3D4"  height="3.077"/>
            <rect width="1.867" x="30.973" y="43.829" fill="#D1D3D4"  height="3.077"/>
            <rect width="8.425" x="30.568" y="39.233"  height="4.596"/>
        </g>
        <g >
            <path fill="#FFFFFF"  d="M3.903,41.512l0.017-1.77c0,0,4.627,0.579,2.914,5.07l-1.336-0.796C5.498,44.017,6.294,41.509,3.903,41.512z"/>
            <path fill="#FFFFFF"  d="M3.946,48.152l-1.573,0.807c0,0-1.639-4.364,3.078-4.938l-0.028,1.554C5.423,45.574,2.832,46.037,3.946,48.152z"/>
            <path fill="#FFFFFF"  d="M9.779,44.826l1.486,0.957c0,0-2.959,3.604-5.815-0.191l1.359-0.754C6.81,44.838,8.506,46.849,9.779,44.826z"/>
        </g>
    </g>
    <circle fill="#D1D3D4" cx="26.822" gorn="0.2"  cy="3.143" id="connector2pin" r="2.011"/>
    <circle fill="#D1D3D4" cx="19.787" gorn="0.3"  cy="3.143" id="connector1pin" r="2.01"/>
    <rect width="4.207" x="10.647" y="1.133" fill="#D1D3D4" gorn="0.4"  height="4.03" id="connector0pin"/>
    <circle fill="#D1D3D4" cx="12.717" gorn="0.5"  cy="54.68" id="connector3pin" r="2.01"/>
    <circle fill="#D1D3D4" cx="19.732" gorn="0.6"  cy="54.68" id="connector4pin" r="2.01"/>
    <rect width="4.208" x="24.707" y="52.658" fill="#D1D3D4" gorn="0.7"  height="4.03" id="connector5pin"/>
</svg>
