<?xml version='1.0' encoding='utf-8'?>
<!-- Generator: Adobe Illustrator 14.0.0, SVG Export Plug-In . SVG Version: 6.00 Build 43363)  -->
<svg xmlns="http://www.w3.org/2000/svg" width="0.453903in" xml:space="preserve" xmlns:xml="http://www.w3.org/XML/1998/namespace" x="0px" version="1.2" y="0px" height="1.39778in" viewBox="0 0 32.681 100.64" baseProfile="tiny" id="svg">
 <g xmlns="http://www.w3.org/2000/svg" id="breadboard">
  <rect xmlns="http://www.w3.org/2000/svg" width="30.324" x="2.357" fill="#357A51" height="100.64"/>
  <rect xmlns="http://www.w3.org/2000/svg" width="4.25" x="23.208" y="31.199" fill="#3C875A" height="7.75"/>
  <g xmlns="http://www.w3.org/2000/svg">
   <g xmlns="http://www.w3.org/2000/svg">
    <path xmlns="http://www.w3.org/2000/svg" fill="#3C875A" d="M28.792,32.425c0,0.302-0.256,0.55-0.567,0.55h-0.7c-0.312,0-0.566-0.248-0.566-0.55s0.255-0.55,0.566-0.55h0.7C28.536,31.875,28.792,32.123,28.792,32.425z"/>
   </g>
   <g xmlns="http://www.w3.org/2000/svg">
    <path xmlns="http://www.w3.org/2000/svg" fill="#3C875A" d="M23.782,35.074c0,0.302-0.256,0.55-0.567,0.55h-0.7c-0.312,0-0.566-0.248-0.566-0.55s0.255-0.55,0.566-0.55h0.7C23.526,34.524,23.782,34.771,23.782,35.074z"/>
   </g>
   <g xmlns="http://www.w3.org/2000/svg">
    <path xmlns="http://www.w3.org/2000/svg" fill="#3C875A" d="M28.792,37.722c0,0.302-0.256,0.55-0.567,0.55h-0.7c-0.312,0-0.566-0.248-0.566-0.55s0.255-0.55,0.566-0.55h0.7C28.536,37.172,28.792,37.42,28.792,37.722z"/>
   </g>
  </g>
  <rect xmlns="http://www.w3.org/2000/svg" width="20.903" x="9.282" y="61.062" fill="#3C875A" height="13.438"/>
  <g xmlns="http://www.w3.org/2000/svg">
   <g xmlns="http://www.w3.org/2000/svg">
    <path xmlns="http://www.w3.org/2000/svg" fill="#3C875A" d="M27.896,58.896c-0.28,0-0.509,0.251-0.509,0.559v3.193c0,0.308,0.229,0.559,0.509,0.559s0.509-0.251,0.509-0.559v-3.193C28.405,59.147,28.177,58.896,27.896,58.896z"/>
   </g>
   <g xmlns="http://www.w3.org/2000/svg">
    <path xmlns="http://www.w3.org/2000/svg" fill="#3C875A" d="M26.082,58.896c-0.279,0-0.508,0.251-0.508,0.559v3.193c0,0.308,0.229,0.559,0.508,0.559c0.28,0,0.509-0.251,0.509-0.559v-3.193C26.591,59.147,26.362,58.896,26.082,58.896z"/>
   </g>
   <g xmlns="http://www.w3.org/2000/svg">
    <path xmlns="http://www.w3.org/2000/svg" fill="#3C875A" d="M24.269,58.896c-0.279,0-0.508,0.251-0.508,0.559v3.193c0,0.308,0.229,0.559,0.508,0.559s0.508-0.251,0.508-0.559v-3.193C24.776,59.147,24.548,58.896,24.269,58.896z"/>
   </g>
   <g xmlns="http://www.w3.org/2000/svg">
    <path xmlns="http://www.w3.org/2000/svg" fill="#3C875A" d="M22.453,58.896c-0.279,0-0.508,0.251-0.508,0.559v3.193c0,0.308,0.229,0.559,0.508,0.559c0.28,0,0.509-0.251,0.509-0.559v-3.193C22.962,59.147,22.733,58.896,22.453,58.896z"/>
   </g>
   <g xmlns="http://www.w3.org/2000/svg">
    <path xmlns="http://www.w3.org/2000/svg" fill="#3C875A" d="M20.64,58.896c-0.279,0-0.508,0.251-0.508,0.559v3.193c0,0.308,0.229,0.559,0.508,0.559s0.508-0.251,0.508-0.559v-3.193C21.147,59.147,20.919,58.896,20.64,58.896z"/>
   </g>
   <g xmlns="http://www.w3.org/2000/svg">
    <path xmlns="http://www.w3.org/2000/svg" fill="#3C875A" d="M18.825,58.896c-0.279,0-0.508,0.251-0.508,0.559v3.193c0,0.308,0.229,0.559,0.508,0.559s0.508-0.251,0.508-0.559v-3.193C19.333,59.147,19.104,58.896,18.825,58.896z"/>
   </g>
   <g xmlns="http://www.w3.org/2000/svg">
    <path xmlns="http://www.w3.org/2000/svg" fill="#3C875A" d="M17.011,58.896c-0.28,0-0.508,0.251-0.508,0.559v3.193c0,0.308,0.229,0.559,0.508,0.559s0.508-0.251,0.508-0.559v-3.193C17.519,59.147,17.291,58.896,17.011,58.896z"/>
   </g>
   <g xmlns="http://www.w3.org/2000/svg">
    <path xmlns="http://www.w3.org/2000/svg" fill="#3C875A" d="M15.197,58.896c-0.279,0-0.508,0.251-0.508,0.559v3.193c0,0.308,0.229,0.559,0.508,0.559s0.508-0.251,0.508-0.559v-3.193C15.705,59.147,15.476,58.896,15.197,58.896z"/>
   </g>
   <g xmlns="http://www.w3.org/2000/svg">
    <path xmlns="http://www.w3.org/2000/svg" fill="#3C875A" d="M13.383,58.896c-0.28,0-0.508,0.251-0.508,0.559v3.193c0,0.308,0.229,0.559,0.508,0.559s0.508-0.251,0.508-0.559v-3.193C13.891,59.147,13.663,58.896,13.383,58.896z"/>
   </g>
   <g xmlns="http://www.w3.org/2000/svg">
    <path xmlns="http://www.w3.org/2000/svg" fill="#3C875A" d="M11.569,58.896c-0.279,0-0.508,0.251-0.508,0.559v3.193c0,0.308,0.229,0.559,0.508,0.559s0.508-0.251,0.508-0.559v-3.193C12.077,59.147,11.848,58.896,11.569,58.896z"/>
   </g>
  </g>
  <g xmlns="http://www.w3.org/2000/svg">
   <g xmlns="http://www.w3.org/2000/svg">
    <path xmlns="http://www.w3.org/2000/svg" fill="#3C875A" d="M27.896,72.353c-0.28,0-0.509,0.252-0.509,0.559v3.194c0,0.308,0.229,0.559,0.509,0.559s0.509-0.251,0.509-0.559v-3.194C28.405,72.605,28.177,72.353,27.896,72.353z"/>
   </g>
   <g xmlns="http://www.w3.org/2000/svg">
    <path xmlns="http://www.w3.org/2000/svg" fill="#3C875A" d="M26.082,72.353c-0.279,0-0.508,0.252-0.508,0.559v3.194c0,0.308,0.229,0.559,0.508,0.559c0.28,0,0.509-0.251,0.509-0.559v-3.194C26.591,72.605,26.362,72.353,26.082,72.353z"/>
   </g>
   <g xmlns="http://www.w3.org/2000/svg">
    <path xmlns="http://www.w3.org/2000/svg" fill="#3C875A" d="M24.269,72.353c-0.279,0-0.508,0.252-0.508,0.559v3.194c0,0.308,0.229,0.559,0.508,0.559s0.508-0.251,0.508-0.559v-3.194C24.776,72.605,24.548,72.353,24.269,72.353z"/>
   </g>
   <g xmlns="http://www.w3.org/2000/svg">
    <path xmlns="http://www.w3.org/2000/svg" fill="#3C875A" d="M22.453,72.353c-0.279,0-0.508,0.252-0.508,0.559v3.194c0,0.308,0.229,0.559,0.508,0.559c0.28,0,0.509-0.251,0.509-0.559v-3.194C22.962,72.605,22.733,72.353,22.453,72.353z"/>
   </g>
   <g xmlns="http://www.w3.org/2000/svg">
    <path xmlns="http://www.w3.org/2000/svg" fill="#3C875A" d="M20.64,72.353c-0.279,0-0.508,0.252-0.508,0.559v3.194c0,0.308,0.229,0.559,0.508,0.559s0.508-0.251,0.508-0.559v-3.194C21.147,72.605,20.919,72.353,20.64,72.353z"/>
   </g>
   <g xmlns="http://www.w3.org/2000/svg">
    <path xmlns="http://www.w3.org/2000/svg" fill="#3C875A" d="M18.825,72.353c-0.279,0-0.508,0.252-0.508,0.559v3.194c0,0.308,0.229,0.559,0.508,0.559s0.508-0.251,0.508-0.559v-3.194C19.333,72.605,19.104,72.353,18.825,72.353z"/>
   </g>
   <g xmlns="http://www.w3.org/2000/svg">
    <path xmlns="http://www.w3.org/2000/svg" fill="#3C875A" d="M17.011,72.353c-0.28,0-0.508,0.252-0.508,0.559v3.194c0,0.308,0.229,0.559,0.508,0.559s0.508-0.251,0.508-0.559v-3.194C17.519,72.605,17.291,72.353,17.011,72.353z"/>
   </g>
   <g xmlns="http://www.w3.org/2000/svg">
    <path xmlns="http://www.w3.org/2000/svg" fill="#3C875A" d="M15.197,72.353c-0.279,0-0.508,0.252-0.508,0.559v3.194c0,0.308,0.229,0.559,0.508,0.559s0.508-0.251,0.508-0.559v-3.194C15.705,72.605,15.476,72.353,15.197,72.353z"/>
   </g>
   <g xmlns="http://www.w3.org/2000/svg">
    <path xmlns="http://www.w3.org/2000/svg" fill="#3C875A" d="M13.383,72.353c-0.28,0-0.508,0.252-0.508,0.559v3.194c0,0.308,0.229,0.559,0.508,0.559s0.508-0.251,0.508-0.559v-3.194C13.891,72.605,13.663,72.353,13.383,72.353z"/>
   </g>
   <g xmlns="http://www.w3.org/2000/svg">
    <path xmlns="http://www.w3.org/2000/svg" fill="#3C875A" d="M11.569,72.353c-0.279,0-0.508,0.252-0.508,0.559v3.194c0,0.308,0.229,0.559,0.508,0.559s0.508-0.251,0.508-0.559v-3.194C12.077,72.605,11.848,72.353,11.569,72.353z"/>
   </g>
  </g>
  <rect xmlns="http://www.w3.org/2000/svg" width="10.537" x="13.882" y="42.465" fill="#3C875A" height="13.568"/>
  <g xmlns="http://www.w3.org/2000/svg">
   <g xmlns="http://www.w3.org/2000/svg">
    <path xmlns="http://www.w3.org/2000/svg" fill="#3C875A" d="M14.706,54.079c0.39,0,0.708,0.278,0.708,0.62c0,0.341-0.319,0.619-0.708,0.619h-1.459c-0.39,0-0.708-0.278-0.708-0.619c0-0.342,0.319-0.62,0.708-0.62H14.706z"/>
   </g>
   <g xmlns="http://www.w3.org/2000/svg">
    <path xmlns="http://www.w3.org/2000/svg" fill="#3C875A" d="M14.706,50.446c0.39,0,0.708,0.279,0.708,0.62s-0.319,0.62-0.708,0.62h-1.459c-0.39,0-0.708-0.279-0.708-0.62s0.319-0.62,0.708-0.62H14.706z"/>
   </g>
   <g xmlns="http://www.w3.org/2000/svg">
    <path xmlns="http://www.w3.org/2000/svg" fill="#3C875A" d="M14.706,46.813c0.39,0,0.708,0.279,0.708,0.62c0,0.341-0.319,0.62-0.708,0.62h-1.459c-0.39,0-0.708-0.279-0.708-0.62c0-0.341,0.319-0.62,0.708-0.62H14.706z"/>
   </g>
   <g xmlns="http://www.w3.org/2000/svg">
    <path xmlns="http://www.w3.org/2000/svg" fill="#3C875A" d="M14.706,43.181c0.39,0,0.708,0.279,0.708,0.62c0,0.341-0.319,0.62-0.708,0.62h-1.459c-0.39,0-0.708-0.279-0.708-0.62c0-0.341,0.319-0.62,0.708-0.62H14.706z"/>
   </g>
  </g>
  <g xmlns="http://www.w3.org/2000/svg">
   <g xmlns="http://www.w3.org/2000/svg">
    <path xmlns="http://www.w3.org/2000/svg" fill="#3C875A" d="M25.054,54.079c0.389,0,0.708,0.278,0.708,0.62c0,0.341-0.319,0.619-0.708,0.619h-1.459c-0.391,0-0.709-0.278-0.709-0.619c0-0.342,0.318-0.62,0.709-0.62H25.054z"/>
   </g>
   <g xmlns="http://www.w3.org/2000/svg">
    <path xmlns="http://www.w3.org/2000/svg" fill="#3C875A" d="M25.054,50.446c0.389,0,0.708,0.279,0.708,0.62s-0.319,0.62-0.708,0.62h-1.459c-0.391,0-0.709-0.279-0.709-0.62s0.318-0.62,0.709-0.62H25.054z"/>
   </g>
   <g xmlns="http://www.w3.org/2000/svg">
    <path xmlns="http://www.w3.org/2000/svg" fill="#3C875A" d="M25.054,46.813c0.389,0,0.708,0.279,0.708,0.62c0,0.341-0.319,0.62-0.708,0.62h-1.459c-0.391,0-0.709-0.279-0.709-0.62c0-0.341,0.318-0.62,0.709-0.62H25.054z"/>
   </g>
   <g xmlns="http://www.w3.org/2000/svg">
    <path xmlns="http://www.w3.org/2000/svg" fill="#3C875A" d="M25.054,43.181c0.389,0,0.708,0.279,0.708,0.62c0,0.341-0.319,0.62-0.708,0.62h-1.459c-0.391,0-0.709-0.279-0.709-0.62c0-0.341,0.318-0.62,0.709-0.62H25.054z"/>
   </g>
  </g>
  <rect xmlns="http://www.w3.org/2000/svg" width="10.537" x="13.882" y="14.521" fill="#3C875A" height="13.568"/>
  <g xmlns="http://www.w3.org/2000/svg">
   <g xmlns="http://www.w3.org/2000/svg">
    <path xmlns="http://www.w3.org/2000/svg" fill="#3C875A" d="M14.706,25.851c0.39,0,0.708,0.279,0.708,0.62c0,0.341-0.319,0.62-0.708,0.62h-1.459c-0.39,0-0.708-0.279-0.708-0.62c0-0.341,0.319-0.62,0.708-0.62H14.706z"/>
   </g>
   <g xmlns="http://www.w3.org/2000/svg">
    <path xmlns="http://www.w3.org/2000/svg" fill="#3C875A" d="M14.706,22.218c0.39,0,0.708,0.279,0.708,0.62s-0.319,0.62-0.708,0.62h-1.459c-0.39,0-0.708-0.279-0.708-0.62s0.319-0.62,0.708-0.62H14.706z"/>
   </g>
   <g xmlns="http://www.w3.org/2000/svg">
    <path xmlns="http://www.w3.org/2000/svg" fill="#3C875A" d="M14.706,18.585c0.39,0,0.708,0.279,0.708,0.62c0,0.341-0.319,0.62-0.708,0.62h-1.459c-0.39,0-0.708-0.279-0.708-0.62c0-0.341,0.319-0.62,0.708-0.62H14.706z"/>
   </g>
   <g xmlns="http://www.w3.org/2000/svg">
    <path xmlns="http://www.w3.org/2000/svg" fill="#3C875A" d="M14.706,14.953c0.39,0,0.708,0.279,0.708,0.62c0,0.341-0.319,0.62-0.708,0.62h-1.459c-0.39,0-0.708-0.279-0.708-0.62c0-0.341,0.319-0.62,0.708-0.62H14.706z"/>
   </g>
  </g>
  <g xmlns="http://www.w3.org/2000/svg">
   <g xmlns="http://www.w3.org/2000/svg">
    <path xmlns="http://www.w3.org/2000/svg" fill="#3C875A" d="M25.054,26.134c0.389,0,0.708,0.279,0.708,0.62c0,0.341-0.319,0.62-0.708,0.62h-1.459c-0.391,0-0.709-0.279-0.709-0.62c0-0.341,0.318-0.62,0.709-0.62H25.054z"/>
   </g>
   <g xmlns="http://www.w3.org/2000/svg">
    <path xmlns="http://www.w3.org/2000/svg" fill="#3C875A" d="M25.054,22.501c0.389,0,0.708,0.279,0.708,0.62s-0.319,0.62-0.708,0.62h-1.459c-0.391,0-0.709-0.279-0.709-0.62s0.318-0.62,0.709-0.62H25.054z"/>
   </g>
   <g xmlns="http://www.w3.org/2000/svg">
    <path xmlns="http://www.w3.org/2000/svg" fill="#3C875A" d="M25.054,18.869c0.389,0,0.708,0.279,0.708,0.62c0,0.341-0.319,0.62-0.708,0.62h-1.459c-0.391,0-0.709-0.279-0.709-0.62c0-0.341,0.318-0.62,0.709-0.62H25.054z"/>
   </g>
   <g xmlns="http://www.w3.org/2000/svg">
    <path xmlns="http://www.w3.org/2000/svg" fill="#3C875A" d="M25.054,15.236c0.389,0,0.708,0.279,0.708,0.62c0,0.341-0.319,0.62-0.708,0.62h-1.459c-0.391,0-0.709-0.279-0.709-0.62c0-0.341,0.318-0.62,0.709-0.62H25.054z"/>
   </g>
  </g>
  <rect xmlns="http://www.w3.org/2000/svg" width="2.449" x="12.209" y="30.802" fill="#3C875A" height="8.544"/>
  <g xmlns="http://www.w3.org/2000/svg">
   <g xmlns="http://www.w3.org/2000/svg">
    <path xmlns="http://www.w3.org/2000/svg" fill="#3C875A" d="M14.519,32.212c-0.312,0-0.567-0.229-0.567-0.509c0-0.28,0.255-0.51,0.567-0.51h0.386c0.312,0,0.567,0.229,0.567,0.51c0,0.28-0.255,0.509-0.567,0.509H14.519z"/>
   </g>
   <g xmlns="http://www.w3.org/2000/svg">
    <path xmlns="http://www.w3.org/2000/svg" fill="#3C875A" d="M14.519,34.438c-0.312,0-0.567-0.229-0.567-0.51c0-0.28,0.255-0.509,0.567-0.509h0.386c0.312,0,0.567,0.229,0.567,0.509c0,0.28-0.255,0.51-0.567,0.51H14.519z"/>
   </g>
   <g xmlns="http://www.w3.org/2000/svg">
    <path xmlns="http://www.w3.org/2000/svg" fill="#3C875A" d="M14.519,36.665c-0.312,0-0.567-0.229-0.567-0.51c0-0.28,0.255-0.509,0.567-0.509h0.386c0.312,0,0.567,0.229,0.567,0.509c0,0.28-0.255,0.51-0.567,0.51H14.519z"/>
   </g>
   <g xmlns="http://www.w3.org/2000/svg">
    <path xmlns="http://www.w3.org/2000/svg" fill="#3C875A" d="M14.519,38.891c-0.312,0-0.567-0.229-0.567-0.509c0-0.28,0.255-0.51,0.567-0.51h0.386c0.312,0,0.567,0.229,0.567,0.51c0,0.28-0.255,0.509-0.567,0.509H14.519z"/>
   </g>
   <g xmlns="http://www.w3.org/2000/svg">
    <g xmlns="http://www.w3.org/2000/svg">
     <path xmlns="http://www.w3.org/2000/svg" fill="#3C875A" d="M11.963,32.212c-0.312,0-0.567-0.229-0.567-0.509c0-0.28,0.255-0.51,0.567-0.51h0.386c0.312,0,0.567,0.229,0.567,0.51c0,0.28-0.255,0.509-0.567,0.509H11.963z"/>
    </g>
    <g xmlns="http://www.w3.org/2000/svg">
     <path xmlns="http://www.w3.org/2000/svg" fill="#3C875A" d="M11.963,34.438c-0.312,0-0.567-0.229-0.567-0.51c0-0.28,0.255-0.509,0.567-0.509h0.386c0.312,0,0.567,0.229,0.567,0.509c0,0.28-0.255,0.51-0.567,0.51H11.963z"/>
    </g>
    <g xmlns="http://www.w3.org/2000/svg">
     <path xmlns="http://www.w3.org/2000/svg" fill="#3C875A" d="M11.963,36.665c-0.312,0-0.567-0.229-0.567-0.51c0-0.28,0.255-0.509,0.567-0.509h0.386c0.312,0,0.567,0.229,0.567,0.509c0,0.28-0.255,0.51-0.567,0.51H11.963z"/>
    </g>
    <g xmlns="http://www.w3.org/2000/svg">
     <path xmlns="http://www.w3.org/2000/svg" fill="#3C875A" d="M11.963,38.891c-0.312,0-0.567-0.229-0.567-0.509c0-0.28,0.255-0.51,0.567-0.51h0.386c0.312,0,0.567,0.229,0.567,0.51c0,0.28-0.255,0.509-0.567,0.509H11.963z"/>
    </g>
   </g>
  </g>
  <rect xmlns="http://www.w3.org/2000/svg" width="9.732" x="15.414" y="3.483" fill="#3C875A" height="8.397"/>
  <rect xmlns="http://www.w3.org/2000/svg" width="20.414" x="9.282" y="89.597" fill="#3C875A" height="8.549"/>
  <text xmlns="http://www.w3.org/2000/svg" fill="#FFFFFF" font-family="OCRA" transform="matrix(1 0 0 1 12.2891 81.9761)" font-size="4">B</text>
  <text xmlns="http://www.w3.org/2000/svg" fill="#FFFFFF" font-family="OCRA" transform="matrix(1 0 0 1 15.1689 81.9761)" font-size="4">A</text>
  <text xmlns="http://www.w3.org/2000/svg" fill="#FFFFFF" font-family="OCRA" transform="matrix(1 0 0 1 18.0488 81.9761)" font-size="4">S</text>
  <text xmlns="http://www.w3.org/2000/svg" fill="#FFFFFF" font-family="OCRA" transform="matrix(1 0 0 1 20.9287 81.9761)" font-size="4">I</text>
  <text xmlns="http://www.w3.org/2000/svg" fill="#FFFFFF" font-family="OCRA" transform="matrix(1 0 0 1 23.8096 81.9761)" font-size="4">C</text>
  <text xmlns="http://www.w3.org/2000/svg" fill="#FFFFFF" font-family="OCRA" transform="matrix(1 0 0 1 10.2891 86.9761)" font-size="4">S</text>
  <text xmlns="http://www.w3.org/2000/svg" fill="#FFFFFF" font-family="OCRA" transform="matrix(1 0 0 1 13.1689 86.9761)" font-size="4">t</text>
  <text xmlns="http://www.w3.org/2000/svg" fill="#FFFFFF" font-family="OCRA" transform="matrix(1 0 0 1 16.0488 86.9761)" font-size="4">a</text>
  <text xmlns="http://www.w3.org/2000/svg" fill="#FFFFFF" font-family="OCRA" transform="matrix(1 0 0 1 18.9287 86.9761)" font-size="4">m</text>
  <text xmlns="http://www.w3.org/2000/svg" fill="#FFFFFF" font-family="OCRA" transform="matrix(1 0 0 1 21.8096 86.9761)" font-size="4">p</text>
  <text xmlns="http://www.w3.org/2000/svg" fill="#FFFFFF" font-family="OCRA" transform="matrix(1 0 0 1 24.6885 86.9761)" font-size="4"/>
  <text xmlns="http://www.w3.org/2000/svg" fill="#FFFFFF" font-family="OCRA" transform="matrix(1 0 0 1 25.8086 86.9761)" font-size="4">1</text>
  <g xmlns="http://www.w3.org/2000/svg">
   <g xmlns="http://www.w3.org/2000/svg">
    <rect xmlns="http://www.w3.org/2000/svg" width="4.119" x="3.372" y="1.652" fill="#8C8C8C" height="3.734"/>
    <polygon xmlns="http://www.w3.org/2000/svg" fill="#8C8C8C" points="0.477,4.331 1.417,5.503 2.357,5.503 2.357,1.534 1.417,1.534 0.477,2.706 0,2.706 0,4.331 "/>
    <rect xmlns="http://www.w3.org/2000/svg" width="1.41" x="3.377" y="2.569" fill="#696969" height="1.898"/>
    <rect xmlns="http://www.w3.org/2000/svg" width="4.196" x="1.258" y="2.714" fill="#8C8C8C" height="1.609"/>
    <rect xmlns="http://www.w3.org/2000/svg" width="0.673" x="3.041" y="2.706" fill="#A8A8A8" height="1.623"/>
   </g>
   <g xmlns="http://www.w3.org/2000/svg">
    <rect xmlns="http://www.w3.org/2000/svg" width="4.119" x="3.372" y="8.852" fill="#8C8C8C" height="3.734"/>
    <polygon xmlns="http://www.w3.org/2000/svg" fill="#8C8C8C" points="0.477,11.531 1.417,12.703 2.357,12.703 2.357,8.734 1.417,8.734 0.477,9.906 0,9.906 0,11.531 "/>
    <rect xmlns="http://www.w3.org/2000/svg" width="1.41" x="3.377" y="9.77" fill="#696969" height="1.898"/>
    <rect xmlns="http://www.w3.org/2000/svg" width="4.196" x="1.258" y="9.914" fill="#8C8C8C" height="1.609"/>
    <rect xmlns="http://www.w3.org/2000/svg" width="0.673" x="3.041" y="9.906" fill="#A8A8A8" height="1.623"/>
   </g>
   <g xmlns="http://www.w3.org/2000/svg">
    <rect xmlns="http://www.w3.org/2000/svg" width="4.119" x="3.372" y="16.052" fill="#8C8C8C" height="3.734"/>
    <polygon xmlns="http://www.w3.org/2000/svg" fill="#8C8C8C" points="0.477,18.731 1.417,19.903 2.357,19.903 2.357,15.935 1.417,15.935 0.477,17.106 0,17.106 0,18.731 "/>
    <rect xmlns="http://www.w3.org/2000/svg" width="1.41" x="3.377" y="16.97" fill="#696969" height="1.898"/>
    <rect xmlns="http://www.w3.org/2000/svg" width="4.196" x="1.258" y="17.114" fill="#8C8C8C" height="1.609"/>
    <rect xmlns="http://www.w3.org/2000/svg" width="0.673" x="3.041" y="17.106" fill="#A8A8A8" height="1.623"/>
   </g>
   <g xmlns="http://www.w3.org/2000/svg">
    <rect xmlns="http://www.w3.org/2000/svg" width="4.119" x="3.372" y="23.252" fill="#8C8C8C" height="3.734"/>
    <polygon xmlns="http://www.w3.org/2000/svg" fill="#8C8C8C" points="0.477,25.932 1.417,27.104 2.357,27.104 2.357,23.135 1.417,23.135 0.477,24.307 0,24.307 0,25.932 "/>
    <rect xmlns="http://www.w3.org/2000/svg" width="1.41" x="3.377" y="24.17" fill="#696969" height="1.898"/>
    <rect xmlns="http://www.w3.org/2000/svg" width="4.196" x="1.258" y="24.314" fill="#8C8C8C" height="1.609"/>
    <rect xmlns="http://www.w3.org/2000/svg" width="0.673" x="3.041" y="24.307" fill="#A8A8A8" height="1.623"/>
   </g>
   <g xmlns="http://www.w3.org/2000/svg">
    <rect xmlns="http://www.w3.org/2000/svg" width="4.119" x="3.372" y="30.453" fill="#8C8C8C" height="3.734"/>
    <polygon xmlns="http://www.w3.org/2000/svg" fill="#8C8C8C" points="0.477,33.132 1.417,34.304 2.357,34.304 2.357,30.335 1.417,30.335 0.477,31.507 0,31.507 0,33.132 "/>
    <rect xmlns="http://www.w3.org/2000/svg" width="1.41" x="3.377" y="31.37" fill="#696969" height="1.898"/>
    <rect xmlns="http://www.w3.org/2000/svg" width="4.196" x="1.258" y="31.515" fill="#8C8C8C" height="1.609"/>
    <rect xmlns="http://www.w3.org/2000/svg" width="0.673" x="3.041" y="31.507" fill="#A8A8A8" height="1.623"/>
   </g>
   <g xmlns="http://www.w3.org/2000/svg">
    <rect xmlns="http://www.w3.org/2000/svg" width="4.119" x="3.372" y="37.653" fill="#8C8C8C" height="3.734"/>
    <polygon xmlns="http://www.w3.org/2000/svg" fill="#8C8C8C" points="0.477,40.332 1.417,41.504 2.357,41.504 2.357,37.535 1.417,37.535 0.477,38.707 0,38.707 0,40.332 "/>
    <rect xmlns="http://www.w3.org/2000/svg" width="1.41" x="3.377" y="38.57" fill="#696969" height="1.898"/>
    <rect xmlns="http://www.w3.org/2000/svg" width="4.196" x="1.258" y="38.715" fill="#8C8C8C" height="1.609"/>
    <rect xmlns="http://www.w3.org/2000/svg" width="0.673" x="3.041" y="38.707" fill="#A8A8A8" height="1.623"/>
   </g>
   <g xmlns="http://www.w3.org/2000/svg">
    <rect xmlns="http://www.w3.org/2000/svg" width="4.119" x="3.372" y="44.853" fill="#8C8C8C" height="3.734"/>
    <polygon xmlns="http://www.w3.org/2000/svg" fill="#8C8C8C" points="0.477,47.532 1.417,48.704 2.357,48.704 2.357,44.735 1.417,44.735 0.477,45.907 0,45.907 0,47.532 "/>
    <rect xmlns="http://www.w3.org/2000/svg" width="1.41" x="3.377" y="45.771" fill="#696969" height="1.898"/>
    <rect xmlns="http://www.w3.org/2000/svg" width="4.196" x="1.258" y="45.915" fill="#8C8C8C" height="1.609"/>
    <rect xmlns="http://www.w3.org/2000/svg" width="0.673" x="3.041" y="45.907" fill="#A8A8A8" height="1.623"/>
   </g>
   <g xmlns="http://www.w3.org/2000/svg">
    <rect xmlns="http://www.w3.org/2000/svg" width="4.119" x="3.372" y="52.053" fill="#8C8C8C" height="3.733"/>
    <polygon xmlns="http://www.w3.org/2000/svg" fill="#8C8C8C" points="0.477,54.732 1.417,55.904 2.357,55.904 2.357,51.935 1.417,51.935 0.477,53.107 0,53.107 0,54.732 "/>
    <rect xmlns="http://www.w3.org/2000/svg" width="1.41" x="3.377" y="52.97" fill="#696969" height="1.898"/>
    <rect xmlns="http://www.w3.org/2000/svg" width="4.196" x="1.258" y="53.115" fill="#8C8C8C" height="1.609"/>
    <rect xmlns="http://www.w3.org/2000/svg" width="0.673" x="3.041" y="53.107" fill="#A8A8A8" height="1.623"/>
   </g>
   <g xmlns="http://www.w3.org/2000/svg">
    <rect xmlns="http://www.w3.org/2000/svg" width="4.119" x="3.372" y="59.253" fill="#8C8C8C" height="3.734"/>
    <polygon xmlns="http://www.w3.org/2000/svg" fill="#8C8C8C" points="0.477,61.933 1.417,63.105 2.357,63.105 2.357,59.136 1.417,59.136 0.477,60.308 0,60.308 0,61.933 "/>
    <rect xmlns="http://www.w3.org/2000/svg" width="1.41" x="3.377" y="60.171" fill="#696969" height="1.898"/>
    <rect xmlns="http://www.w3.org/2000/svg" width="4.196" x="1.258" y="60.316" fill="#8C8C8C" height="1.609"/>
    <rect xmlns="http://www.w3.org/2000/svg" width="0.673" x="3.041" y="60.308" fill="#A8A8A8" height="1.623"/>
   </g>
   <g xmlns="http://www.w3.org/2000/svg">
    <rect xmlns="http://www.w3.org/2000/svg" width="4.119" x="3.372" y="66.454" fill="#8C8C8C" height="3.733"/>
    <polygon xmlns="http://www.w3.org/2000/svg" fill="#8C8C8C" points="0.477,69.132 1.417,70.304 2.357,70.304 2.357,66.335 1.417,66.335 0.477,67.507 0,67.507 0,69.132 "/>
    <rect xmlns="http://www.w3.org/2000/svg" width="1.41" x="3.377" y="67.371" fill="#696969" height="1.898"/>
    <rect xmlns="http://www.w3.org/2000/svg" width="4.196" x="1.258" y="67.515" fill="#8C8C8C" height="1.609"/>
    <rect xmlns="http://www.w3.org/2000/svg" width="0.673" x="3.041" y="67.507" fill="#A8A8A8" height="1.623"/>
   </g>
   <g xmlns="http://www.w3.org/2000/svg">
    <rect xmlns="http://www.w3.org/2000/svg" width="4.119" x="3.372" y="73.654" fill="#8C8C8C" height="3.734"/>
    <polygon xmlns="http://www.w3.org/2000/svg" fill="#8C8C8C" points="0.477,76.333 1.417,77.505 2.357,77.505 2.357,73.537 1.417,73.537 0.477,74.708 0,74.708 0,76.333 "/>
    <rect xmlns="http://www.w3.org/2000/svg" width="1.41" x="3.377" y="74.572" fill="#696969" height="1.898"/>
    <rect xmlns="http://www.w3.org/2000/svg" width="4.196" x="1.258" y="74.716" fill="#8C8C8C" height="1.609"/>
    <rect xmlns="http://www.w3.org/2000/svg" width="0.673" x="3.041" y="74.708" fill="#A8A8A8" height="1.623"/>
   </g>
   <g xmlns="http://www.w3.org/2000/svg">
    <rect xmlns="http://www.w3.org/2000/svg" width="4.119" x="3.372" y="80.854" fill="#8C8C8C" height="3.733"/>
    <polygon xmlns="http://www.w3.org/2000/svg" fill="#8C8C8C" points="0.477,83.533 1.417,84.705 2.357,84.705 2.357,80.736 1.417,80.736 0.477,81.908 0,81.908 0,83.533 "/>
    <rect xmlns="http://www.w3.org/2000/svg" width="1.41" x="3.377" y="81.771" fill="#696969" height="1.898"/>
    <rect xmlns="http://www.w3.org/2000/svg" width="4.196" x="1.258" y="81.916" fill="#8C8C8C" height="1.609"/>
    <rect xmlns="http://www.w3.org/2000/svg" width="0.673" x="3.041" y="81.908" fill="#A8A8A8" height="1.623"/>
   </g>
   <g xmlns="http://www.w3.org/2000/svg">
    <rect xmlns="http://www.w3.org/2000/svg" width="4.119" x="3.372" y="88.054" fill="#8C8C8C" height="3.734"/>
    <polygon xmlns="http://www.w3.org/2000/svg" fill="#8C8C8C" points="0.477,90.734 1.417,91.906 2.357,91.906 2.357,87.937 1.417,87.937 0.477,89.109 0,89.109 0,90.734 "/>
    <rect xmlns="http://www.w3.org/2000/svg" width="1.41" x="3.377" y="88.972" fill="#696969" height="1.898"/>
    <rect xmlns="http://www.w3.org/2000/svg" width="4.196" x="1.258" y="89.117" fill="#8C8C8C" height="1.609"/>
    <rect xmlns="http://www.w3.org/2000/svg" width="0.673" x="3.041" y="89.109" fill="#A8A8A8" height="1.623"/>
   </g>
   <g xmlns="http://www.w3.org/2000/svg">
    <rect xmlns="http://www.w3.org/2000/svg" width="4.119" x="3.372" y="95.254" fill="#8C8C8C" height="3.733"/>
    <polygon xmlns="http://www.w3.org/2000/svg" fill="#8C8C8C" points="0.477,97.933 1.417,99.105 2.357,99.105 2.357,95.136 1.417,95.136 0.477,96.308 0,96.308 0,97.933 "/>
    <rect xmlns="http://www.w3.org/2000/svg" width="1.41" x="3.377" y="96.171" fill="#696969" height="1.898"/>
    <rect xmlns="http://www.w3.org/2000/svg" width="4.196" x="1.258" y="96.316" fill="#8C8C8C" height="1.609"/>
    <rect xmlns="http://www.w3.org/2000/svg" width="0.673" x="3.041" y="96.308" fill="#A8A8A8" height="1.623"/>
   </g>
  </g>
 </g>
 <rect xmlns="http://www.w3.org/2000/svg" width="3.125" y="2.444" fill="none" height="2.16" id="connector0pin"/>
 <rect xmlns="http://www.w3.org/2000/svg" width="2.16" x="0.965" y="2.444" fill="none" height="2.16" id="connector0terminal"/>
 <rect xmlns="http://www.w3.org/2000/svg" width="3.125" y="9.645" fill="none" height="2.16" id="connector1pin"/>
 <rect xmlns="http://www.w3.org/2000/svg" width="2.16" x="0.965" y="9.645" fill="none" height="2.16" id="connector1terminal"/>
 <rect xmlns="http://www.w3.org/2000/svg" width="3.125" y="16.845" fill="none" height="2.16" id="connector2pin"/>
 <rect xmlns="http://www.w3.org/2000/svg" width="2.16" x="0.965" y="16.845" fill="none" height="2.16" id="connector2terminal"/>
 <rect xmlns="http://www.w3.org/2000/svg" width="3.125" y="24.045" fill="none" height="2.159" id="connector3pin"/>
 <rect xmlns="http://www.w3.org/2000/svg" width="2.16" x="0.965" y="24.045" fill="none" height="2.159" id="connector3terminal"/>
 <rect xmlns="http://www.w3.org/2000/svg" width="3.125" y="31.244" fill="none" height="2.16" id="connector4pin"/>
 <rect xmlns="http://www.w3.org/2000/svg" width="2.16" x="0.965" y="31.244" fill="none" height="2.16" id="connector4terminal"/>
 <rect xmlns="http://www.w3.org/2000/svg" width="3.125" y="38.444" fill="none" height="2.16" id="connector5pin"/>
 <rect xmlns="http://www.w3.org/2000/svg" width="2.16" x="0.965" y="38.444" fill="none" height="2.16" id="connector5terminal"/>
 <rect xmlns="http://www.w3.org/2000/svg" width="3.125" y="45.645" fill="none" height="2.16" id="connector6pin"/>
 <rect xmlns="http://www.w3.org/2000/svg" width="2.16" x="0.965" y="45.645" fill="none" height="2.16" id="connector6terminal"/>
 <rect xmlns="http://www.w3.org/2000/svg" width="3.125" y="52.845" fill="none" height="2.16" id="connector7pin"/>
 <rect xmlns="http://www.w3.org/2000/svg" width="2.16" x="0.965" y="52.845" fill="none" height="2.16" id="connector7terminal"/>
 <rect xmlns="http://www.w3.org/2000/svg" width="3.125" y="60.044" fill="none" height="2.16" id="connector8pin"/>
 <rect xmlns="http://www.w3.org/2000/svg" width="2.16" x="0.965" y="60.044" fill="none" height="2.16" id="connector8terminal"/>
 <rect xmlns="http://www.w3.org/2000/svg" width="3.125" y="67.244" fill="none" height="2.16" id="connector9pin"/>
 <rect xmlns="http://www.w3.org/2000/svg" width="2.16" x="0.965" y="67.244" fill="none" height="2.16" id="connector9terminal"/>
 <rect xmlns="http://www.w3.org/2000/svg" width="3.125" y="74.445" fill="none" height="2.16" id="connector10pin"/>
 <rect xmlns="http://www.w3.org/2000/svg" width="2.16" x="0.965" y="74.445" fill="none" height="2.16" id="connector10terminal"/>
 <rect xmlns="http://www.w3.org/2000/svg" width="3.125" y="81.644" fill="none" height="2.16" id="connector11pin"/>
 <rect xmlns="http://www.w3.org/2000/svg" width="2.16" x="0.965" y="81.644" fill="none" height="2.16" id="connector11terminal"/>
 <rect xmlns="http://www.w3.org/2000/svg" width="3.125" y="88.845" fill="none" height="2.16" id="connector12pin"/>
 <rect xmlns="http://www.w3.org/2000/svg" width="2.16" x="0.965" y="88.845" fill="none" height="2.16" id="connector12terminal"/>
 <rect xmlns="http://www.w3.org/2000/svg" width="3.125" y="96.042" fill="none" height="2.16" id="connector13pin"/>
 <rect xmlns="http://www.w3.org/2000/svg" width="2.16" x="0.965" y="96.042" fill="none" height="2.16" id="connector13terminal"/>
</svg>
