<?xml version="1.0" encoding="UTF-8"?><!DOCTYPE svg  PUBLIC '-//W3C//DTD SVG 1.1//EN'  'http://www.w3.org/Graphics/SVG/1.1/DTD/svg11.dtd'><svg height="1.215in" id="Layer_1" version="1.1" viewBox="0 0 167.161 87.483" width="2.32168in" x="0px" xmlns="http://www.w3.org/2000/svg" y="0px">
<g id="breadboard">
	<rect fill="#8C8C8C" height="3" id="connector0pin" width="1" x="161.495" y="46.189"/>
	<rect fill="#8C8C8C" height="3" id="connector1pin" width="1" x="161.495" y="32.498"/>

	<line fill="none" id="connector0leg" stroke="#000000" stroke-linecap="round" stroke-width="3" x1="167.161" x2="172.827" y1="47.689" y2="47.689"/>
	<line fill="none" id="connector1leg" stroke="#FF0000" stroke-linecap="round" stroke-width="3" x1="167.161" x2="172.827" y1="33.998" y2="33.998"/>
	
	
	
	<path d="M161.46,85.231c0,1.329-1.199,2.252-2.252,2.252H2.252C0.761,87.483,0,86.727,0,85.231V2.251   C0,1.063,0.928,0,2.252,0h156.956c1.22,0,2.252,0.896,2.252,2.252V85.231z" fill="#1A1A1A"/>
	<path d="M2.346,62.122V9.581c0-0.775,0.425-1.417,0.945-1.417c0.52,0,0.942,0.642,0.942,1.417   l1,25.627c0,0.779,0.428,1.417,0.945,1.417s0.945-0.638,0.945-1.417l1-19.854c0-0.779,0.426-1.418,0.942-1.418   c0.521,0,0.944,0.639,0.944,1.418v15.6" fill="none" stroke="#C9C9C9" stroke-width="1"/>
	<path d="M150.794,59.275v15.6c0,0.779,0.426,1.418,0.942,1.418c0.521,0,0.945-0.639,0.945-1.418   l1-19.854c0-0.779,0.424-1.417,0.944-1.417c0.519,0,0.941,0.638,0.941,1.417l1,25.627c0,0.778,0.428,1.417,0.945,1.417   c0.517,0,0.945-0.639,0.945-1.417V49.2c0-0.776,0.639-1.417,1.418-1.417h1.604" fill="none" stroke="#C9C9C9" stroke-width="1"/>
	<path d="M158.464,13.61v18.972c0,0.778,0.639,1.416,1.418,1.416h1.604" fill="none" stroke="#C9C9C9" stroke-width="1"/>
	<rect fill="#C9C9C9" height="15.783" width="3.789" x="1.865" y="56.509"/>
	<rect fill="#C9C9C9" height="15.786" width="3.229" x="155.348" y="13.695"/>
	<g>
		<path d="M152.505,38c0,2.341-1.913,4.252-4.252,4.252H14.741c-2.339,0-4.252-1.911-4.252-4.252V6.818    c0-2.338,1.913-4.252,4.252-4.252h133.513c2.339,0,4.252,1.914,4.252,4.252L152.505,38L152.505,38z" fill="#353535"/>
		<path d="M111.624,2.632h36.913c2.339,0,4.252,1.911,4.252,4.252v31.189c0,2.338-1.913,4.252-4.252,4.252h-36.913    V2.632z" fill="#CE925D"/>
		<path d="M15.063,40.627c-1.76,0-4.006-1.63-4.006-3.562V28.14    c0,1.934,2.246,4.965,4.006,4.965h132.544c1.761,0,4.006-3.031,4.006-4.965v8.926c0,1.934-2.245,3.562-4.006,3.562H15.063z" enable-background="new    " opacity="0.35"/>
		<path d="M152.385,22.146c0,8.889-0.338,16.093-0.757,16.093s-0.419-32.185,0-32.185S152.385,13.259,152.385,22.146    " fill="#B2B2B2"/>
		<path d="M152.102,27.632c-0.277,0-0.277-11.892,0-11.892l-0.008,0.001c0,0.733,0.594,1.327,1.328,1.327h0.6    c0.732,0,1.327,0.594,1.327,1.328v6.576c0,0.73-0.595,1.328-1.327,1.328h-0.6c-0.734,0-1.328,0.594-1.328,1.326L152.102,27.632    L152.102,27.632z" fill="#7C7C7C"/>
		<g>
			<g>
				<path d="M38.798,19.423l-0.564,1.7h-1.787l2.986-8.992h2.543l3.046,8.992h-1.751l-0.587-1.7H38.798z       M40.752,13.451h-0.024l-1.535,4.666h3.106L40.752,13.451z" fill="#E0E0E0"/>
				<path d="M47.306,19.423l-0.564,1.7h-1.784l2.983-8.992h2.543l3.046,8.992h-1.751l-0.587-1.7H47.306z       M49.26,13.451h-0.024L47.7,18.117h3.106L49.26,13.451z" fill="#E0E0E0"/>
				<path d="M58.49,21.126v-8.992h4.477c1.763,0,2.647,0.357,2.647,2.339c0,1.028-0.189,1.727-1.28,1.988v0.051      c1.259,0.144,1.499,0.972,1.499,2.108c0,1.991-0.815,2.507-2.711,2.507L58.49,21.126L58.49,21.126z M60.217,15.898h2.479      c0.975,0,1.188-0.3,1.188-1.259s-0.384-1.032-1.235-1.032h-2.435L60.217,15.898L60.217,15.898z M60.217,19.651h2.363      c1.028,0,1.521-0.072,1.521-1.175c0-0.983-0.216-1.271-1.232-1.271h-2.65L60.217,19.651L60.217,19.651z" fill="#E0E0E0"/>
				<path d="M71.172,20.334h-0.036c-0.3,0.842-1.223,0.863-1.955,0.863c-1.427,0-2.351-0.3-2.351-2.003      c0-1.511,0.792-1.931,2.351-1.931c0.768,0,1.523,0.012,1.883,0.72h0.048v-0.816c0-1.019-0.084-1.379-1.343-1.379      c-0.66,0-1.188,0.062-1.188,0.875h-1.514c0-1.835,1.263-1.904,2.699-1.904c2.018,0,2.854,0.312,2.854,2.423v3.943h-1.514      L71.172,20.334z M68.341,19.195c0,0.888,0.357,0.972,1.379,0.972c0.803,0,1.391-0.069,1.391-0.972      c0-0.875-0.646-0.899-1.391-0.899C68.952,18.295,68.341,18.295,68.341,19.195z" fill="#E0E0E0"/>
				<path d="M73.358,14.83h0.792v-1.427h1.512v1.427h2.41v1.151h-2.41v3.226c0.014,0.576,0.014,0.839,0.646,0.839      c0.852,0,0.756-0.671,0.756-1.328h1.331c0.024,1.904-0.456,2.479-2.087,2.479c-1.655,0-2.159-0.384-2.159-1.979V15.98h-0.792      L73.358,14.83L73.358,14.83z" fill="#E0E0E0"/>
				<path d="M78.458,14.83h0.792v-1.427h1.511v1.427h2.411v1.151h-2.411v3.226c0.012,0.576,0.012,0.839,0.646,0.839      c0.854,0,0.757-0.671,0.757-1.328h1.332c0.022,1.904-0.457,2.479-2.089,2.479c-1.652,0-2.156-0.384-2.156-1.979V15.98h-0.792      V14.83L78.458,14.83z" fill="#E0E0E0"/>
				<path d="M89.927,19.124c0,1.979-1.141,2.075-2.938,2.075c-2.411,0-2.899-0.768-2.899-3.202      c0-2.255,0.357-3.235,2.899-3.235c2.593,0,2.938,0.756,2.938,3.502h-4.33c0,1.354,0.036,1.787,1.391,1.787      c0.84,0,1.43,0.012,1.43-0.926L89.927,19.124L89.927,19.124z M88.415,17.301c0-1.295-0.192-1.395-1.43-1.395      c-1.308,0-1.391,0.276-1.391,1.395H88.415z" fill="#E0E0E0"/>
				<path d="M92.532,14.83L92.5,15.658h0.06c0.3-0.696,0.948-0.897,1.679-0.897c1.332,0,1.655,0.792,1.655,1.979      v0.504h-1.415v-0.324c0-0.636-0.061-1.008-0.768-1.008c-0.899,0-1.163,0.519-1.142,1.332v3.886h-1.512v-6.296L92.532,14.83      L92.532,14.83z" fill="#E0E0E0"/>
				<path d="M100.413,21.379c-0.351,1.427-0.639,2.539-2.398,2.539c-0.216,0-0.432-0.033-0.648-0.048v-1.14      c0.108,0.012,0.22,0.036,0.324,0.036c0.947,0,1.092-0.912,1.227-1.646h-0.731l-2.075-6.296h1.562l1.595,5.361h0.022l1.225-5.361      h1.535L100.413,21.379z" fill="#E0E0E0"/>
			</g>
		</g>
		<path d="M148.381,14.289c0,1.417-1.54,2.566-3.44,2.566H17.615    c-1.897,0-3.438-1.049-3.438-2.467V6.652c0-1.418,1.54-2.668,3.438-2.668H144.94c1.9,0,3.44,1.15,3.44,2.568V14.289z" enable-background="new    " fill="#FFFFFF" opacity="0.35"/>
	</g>
	<g>
		<path d="M8.499,81.007c0,2.338,1.912,4.252,4.252,4.252h133.51c2.339,0,4.252-1.914,4.252-4.252V49.822    c0-2.338-1.913-4.252-4.252-4.252H12.751c-2.34,0-4.252,1.914-4.252,4.252V81.007z" fill="#353535"/>
		<path d="M49.664,45.573H12.751c-2.34,0-4.252,1.914-4.252,4.252V81.01c0,2.338,1.912,4.252,4.252,4.252h36.913    V45.573z" fill="#CE925D"/>
		<path d="M145.94,83.635c1.76,0,4.006-1.633,4.006-3.563v-8.926    c0,1.934-2.246,4.965-4.006,4.965H13.395c-1.76,0-4.006-3.031-4.006-4.965v8.926c0,1.934,2.246,3.563,4.006,3.563H145.94z" enable-background="new    " opacity="0.35"/>
		<path d="M8.618,65.153c0,8.889,0.34,16.093,0.759,16.093s0.419-32.185,0-32.185S8.618,56.266,8.618,65.153" fill="#B2B2B2"/>
		<path d="M8.901,70.64c0.278,0,0.278-11.892,0-11.892l0.008,0.001c0,0.733-0.594,1.327-1.325,1.327H6.981    c-0.729,0-1.327,0.597-1.327,1.328v6.577c0,0.731,0.598,1.328,1.327,1.328h0.603c0.731,0,1.325,0.594,1.325,1.328L8.901,70.64    L8.901,70.64z" fill="#7C7C7C"/>
		<g>
			<g>
				<path d="M123.065,65.836l0.564-1.701h1.787l-2.986,8.993h-2.543l-3.046-8.993h1.751l0.588,1.701H123.065z       M121.111,71.809h0.024l1.535-4.665h-3.107L121.111,71.809z" fill="#E0E0E0"/>
				<path d="M114.557,65.836l0.564-1.701h1.787l-2.986,8.993h-2.543l-3.046-8.993h1.751l0.588,1.701H114.557z       M112.603,71.809h0.024l1.535-4.665h-3.107L112.603,71.809z" fill="#E0E0E0"/>
				<path d="M103.374,64.132v8.993h-4.478c-1.763,0-2.647-0.356-2.647-2.339c0-1.028,0.189-1.728,1.28-1.988v-0.05      c-1.259-0.145-1.497-0.973-1.497-2.108c0-1.992,0.813-2.507,2.711-2.507H103.374L103.374,64.132z M101.646,65.608h-2.362      c-1.028,0-1.521,0.072-1.521,1.175c0,0.983,0.216,1.271,1.235,1.271h2.647V65.608z M101.646,69.362h-2.481      c-0.975,0-1.188,0.299-1.188,1.259s0.384,1.032,1.235,1.032h2.435V69.362z" fill="#E0E0E0"/>
				<path d="M90.692,64.924h0.036c0.299-0.843,1.222-0.864,1.955-0.864c1.428,0,2.352,0.299,2.352,2.002      c0,1.512-0.791,1.932-2.352,1.932c-0.768,0-1.523-0.012-1.882-0.721h-0.048v0.816c0,1.02,0.084,1.379,1.342,1.379      c0.66,0,1.188-0.062,1.188-0.875h1.515c0,1.834-1.26,1.903-2.699,1.903c-2.014,0-2.853-0.312-2.853-2.422v-3.944h1.511      L90.692,64.924z M93.522,66.063c0-0.887-0.356-0.971-1.379-0.971c-0.804,0-1.391,0.068-1.391,0.971c0,0.876,0.645,0.9,1.391,0.9      C92.911,66.964,93.522,66.964,93.522,66.063z" fill="#E0E0E0"/>
				<path d="M88.506,70.429h-0.792v1.428h-1.512v-1.428h-2.41v-1.15h2.41v-3.227      c-0.014-0.577-0.014-0.843-0.646-0.843c-0.852,0-0.756,0.675-0.756,1.333h-1.331c-0.024-1.905,0.456-2.481,2.087-2.481      c1.655,0,2.159,0.383,2.159,1.979v3.238h0.792L88.506,70.429L88.506,70.429z" fill="#E0E0E0"/>
				<path d="M83.406,70.429h-0.792v1.428h-1.511v-1.428h-2.411v-1.15h2.411v-3.227      c-0.012-0.577-0.012-0.843-0.646-0.843c-0.854,0-0.757,0.675-0.757,1.333h-1.332c-0.022-1.905,0.457-2.481,2.089-2.481      c1.652,0,2.156,0.383,2.156,1.979v3.238h0.792V70.429L83.406,70.429z" fill="#E0E0E0"/>
				<path d="M71.937,66.136c0-1.98,1.141-2.076,2.938-2.076c2.411,0,2.899,0.768,2.899,3.203      c0,2.256-0.357,3.235-2.899,3.235c-2.593,0-2.938-0.756-2.938-3.502h4.33c0-1.354-0.036-1.788-1.391-1.788      c-0.84,0-1.43-0.012-1.43,0.927H71.937L71.937,66.136z M73.448,67.958c0,1.296,0.192,1.396,1.43,1.396      c1.308,0,1.391-0.276,1.391-1.396H73.448z" fill="#E0E0E0"/>
				<path d="M69.331,70.429l0.033-0.827h-0.06c-0.3,0.696-0.948,0.896-1.679,0.896c-1.331,0-1.655-0.791-1.655-1.979      v-0.504h1.415v0.324c0,0.635,0.06,1.008,0.768,1.008c0.899,0,1.163-0.52,1.142-1.332v-3.886h1.511v6.296L69.331,70.429      L69.331,70.429z" fill="#E0E0E0"/>
				<path d="M61.45,63.879c0.351-1.429,0.639-2.541,2.398-2.541c0.216,0,0.432,0.033,0.648,0.048v1.14      c-0.108-0.012-0.219-0.036-0.324-0.036c-0.948,0-1.092,0.912-1.227,1.646h0.731l2.075,6.296h-1.562l-1.595-5.361h-0.023      l-1.225,5.361h-1.535L61.45,63.879z" fill="#E0E0E0"/>
			</g>
		</g>
		<path d="M12.623,57.295c0,1.42,1.54,2.566,3.438,2.566h127.326    c1.897,0,3.438-1.049,3.438-2.467v-7.736c0-1.418-1.541-2.668-3.438-2.668H16.063c-1.897,0-3.438,1.15-3.438,2.568L12.623,57.295    L12.623,57.295z" enable-background="new    " fill="#FFFFFF" opacity="0.35"/>
	</g>
	<g>
		<path d="M8.053,0.143l1.96,1.522c0,0,1.398,1.583,2.616,3.271c0.726,1.006,1.334,4.549,2.23,5.447    c0.899,0.896,2.182,1.09,3.271,1.09c0.303,0,25.249,0,25.552,0c1.09,0,2.37-0.19,3.27-1.09c0.898-0.898,1.509-4.441,2.232-5.447    c1.217-1.688,2.616-3.271,2.616-3.271l1.96-1.522H8.053z" fill="#1A1A1A"/>
		<path d="M10.883,1.292l0.511,0.19c0,0,0,0.707,1.136,1.459    c0.681,0.449,1.246,0.645,2.085,1.047c0.84,0.4,2.035,0.486,3.056,0.486c0.282,0,26.191,0,26.478,0    c1.021,0,2.213-0.086,3.052-0.486c0.841-0.402,1.408-0.598,2.085-1.047c1.14-0.752,1.139-1.459,1.139-1.459l0.501-0.188    L10.883,1.292z" enable-background="new    " fill="#FFFFFF" opacity="0.2"/>
	</g>
	<g>
		<path d="M107.719,0.143l1.96,1.522c0,0,1.398,1.583,2.616,3.271c0.726,1.006,1.335,4.549,2.23,5.447    c0.898,0.896,2.182,1.09,3.271,1.09c0.304,0,25.249,0,25.552,0c1.09,0,2.369-0.19,3.271-1.09c0.897-0.898,1.508-4.441,2.231-5.447    c1.217-1.688,2.615-3.271,2.615-3.271l1.961-1.522H107.719z" fill="#1A1A1A"/>
		<path d="M110.549,1.292l0.511,0.19c0,0,0,0.707,1.136,1.459    c0.681,0.449,1.245,0.645,2.085,1.047c0.843,0.4,2.035,0.486,3.056,0.486c0.282,0,26.192,0,26.479,0    c1.021,0,2.213-0.086,3.053-0.486c0.841-0.402,1.407-0.598,2.087-1.047c1.138-0.752,1.137-1.459,1.137-1.459l0.501-0.188    L110.549,1.292z" enable-background="new    " fill="#FFFFFF" opacity="0.2"/>
	</g>
	<g>
		<path d="M8.053,87.143l1.96-1.525c0,0,1.398-1.582,2.616-3.269c0.726-1.006,1.334-4.549,2.23-5.448    c0.899-0.898,2.182-1.09,3.271-1.09c0.303,0,25.249,0,25.552,0c1.09,0,2.37,0.188,3.27,1.09c0.898,0.899,1.509,4.442,2.232,5.448    c1.217,1.687,2.616,3.269,2.616,3.269l1.96,1.525H8.053z" fill="#1A1A1A"/>
		<path d="M10.883,85.994l0.511-0.188c0,0,0-0.708,1.136-1.46c0.681-0.449,1.246-0.646,2.085-1.045    c0.84-0.401,2.035-0.486,3.056-0.486c0.282,0,26.191,0,26.478,0c1.021,0,2.213,0.085,3.052,0.486    c0.841,0.398,1.408,0.596,2.085,1.045c1.14,0.752,1.139,1.46,1.139,1.46l0.501,0.185L10.883,85.994z"/>
	</g>
	<g>
		<path d="M107.719,87.143l1.96-1.525c0,0,1.398-1.582,2.616-3.269c0.726-1.006,1.335-4.549,2.23-5.448    c0.898-0.898,2.182-1.09,3.271-1.09c0.304,0,25.249,0,25.552,0c1.09,0,2.369,0.188,3.271,1.09c0.898,0.9,1.508,4.442,2.231,5.448    c1.217,1.687,2.615,3.269,2.615,3.269l1.961,1.525H107.719z" fill="#1A1A1A"/>
		<path d="M110.549,85.994l0.511-0.188c0,0,0-0.708,1.136-1.46c0.681-0.449,1.245-0.646,2.085-1.045    c0.843-0.401,2.035-0.486,3.056-0.486c0.282,0,26.192,0,26.479,0c1.021,0,2.213,0.085,3.053,0.486    c0.841,0.398,1.407,0.596,2.087,1.045c1.138,0.752,1.137,1.46,1.137,1.46l0.501,0.185L110.549,85.994z"/>
	</g>
	<path d="M161.495,47.689l5.666,0" fill="none" stroke="#000000" stroke-width="3"/>
	<path d="M161.495,33.998l5.666,0" fill="none" stroke="#FF0000" stroke-width="3"/>
</g>
</svg>