<?xml version='1.0' encoding='utf-8'?>
<!DOCTYPE svg PUBLIC '-//W3C//DTD SVG 1.1//EN' 'http://www.w3.org/Graphics/SVG/1.1/DTD/svg11.dtd'>
<!-- Generator: Adobe Illustrator 13.0.2, SVG Export Plug-In . SVG Version: 6.00 Build 14948)  -->
<svg xmlns="http://www.w3.org/2000/svg" width="2.126389in"  x="0px" version="1.1" y="0px" height="1.843986in" viewBox="0 0 153.1 132.767" >
 <g id="breadboard">
 <rect width="2.999" x="147.467" y="102.505" fill="none" height="1" id="connector0pin"/>
 <rect width="3" x="150.426" y="25.906" fill="none" height="1" id="connector1pin"/>
 
<line id="connector0leg" stroke-linecap="round" x1="153.1" y1="102.505" x2="158.1" y2="102.505" fill="none" stroke="#000000" stroke-width="2.5034"/>
<line id="connector1leg" stroke-linecap="round" x1="153.1" y1="25.906" x2="158.1" y2="25.906" fill="none" stroke="#FF0000" stroke-width="2.5034" />

  <path fill="#1A1A1A" d="M147.45,131.049c0,1.014-1.094,1.718-2.055,1.718H2.059c-1.362,0-2.057-0.576-2.057-1.718V1.715C0.002,0.81,0.85,0,2.059,0h143.336c1.113,0,2.055,0.682,2.055,1.715v63.228V131.049z"/>
  <path fill="none" stroke="#C9C9C9" stroke-width="0.8345" d="M2.145,47.336V7.3c0-0.59,0.388-1.08,0.863-1.08s0.86,0.489,0.86,1.08l0.913,19.527c0,0.594,0.391,1.08,0.863,1.08s0.863-0.486,0.863-1.08L7.42,11.699c0-0.593,0.389-1.08,0.861-1.08c0.475,0,0.861,0.487,0.861,1.08v11.887"/>
  <path fill="none" stroke="#C9C9C9" stroke-width="0.8345" d="M144.715,10.371v14.456c0,0.594,0.583,1.08,1.295,1.08h1.465"/>
  <rect width="3.46" x="1.706" y="43.059" fill="#C9C9C9" height="12.025"/>
  <rect width="2.95" x="141.869" y="10.435" fill="#C9C9C9" height="12.029"/>
  <g >
   <path fill="#353535" d="M139.273,28.955c0,1.784-1.747,3.24-3.883,3.24H13.464c-2.136,0-3.883-1.456-3.883-3.24V5.195c0-1.781,1.747-3.239,3.883-3.239H135.39c2.137,0,3.884,1.458,3.884,3.239L139.273,28.955L139.273,28.955z"/>
   <path fill="#CE925D" d="M101.94,2.005h33.709c2.136,0,3.883,1.457,3.883,3.24v23.766c0,1.782-1.747,3.24-3.883,3.24H101.94V2.005z"/>
   <path opacity="0.35" enable-background="new    " d="M13.758,30.957c-1.607,0-3.658-1.242-3.658-2.714v-6.801c0,1.474,2.051,3.784,3.658,3.784h121.041c1.608,0,3.659-2.31,3.659-3.784v6.802c0,1.474-2.051,2.714-3.659,2.714L13.758,30.957L13.758,30.957z"/>
   <path fill="#B2B2B2" d="M139.164,16.875c0,6.774-0.31,12.263-0.691,12.263s-0.382-24.524,0-24.524S139.164,10.103,139.164,16.875"/>
   <path fill="#7C7C7C" d="M138.906,21.055c-0.254,0-0.254-9.061,0-9.061l-0.008,0c0,0.559,0.543,1.011,1.212,1.011h0.549c0.668,0,1.211,0.453,1.211,1.012v5.011c0,0.557-0.543,1.012-1.211,1.012h-0.549c-0.669,0-1.212,0.452-1.212,1.01L138.906,21.055L138.906,21.055z"/>
   <g >
    <g >
     <path fill="#E0E0E0" d="M35.434,14.8l-0.515,1.295h-1.632l2.727-6.852h2.322l2.781,6.852h-1.599L38.982,14.8H35.434z M37.218,10.25h-0.022l-1.401,3.555h2.836L37.218,10.25z"/>
     <path fill="#E0E0E0" d="M27.472,14.8l-0.515,1.295h-1.632l2.727-6.852h2.322l2.781,6.852h-1.599L31.021,14.8H27.472z M29.256,10.25h-0.022l-1.401,3.555h2.836L29.256,10.25z"/>
     <path fill="#E0E0E0" d="M43.203,14.8l-0.515,1.295h-1.629l2.724-6.852h2.322l2.782,6.852h-1.599L46.752,14.8H43.203z M44.987,10.25h-0.021l-1.403,3.555h2.836L44.987,10.25z"/>
     <path fill="#E0E0E0" d="M53.417,16.098V9.246h4.088c1.61,0,2.417,0.272,2.417,1.783c0,0.783-0.173,1.316-1.169,1.515v0.038c1.15,0.11,1.369,0.741,1.369,1.606c0,1.517-0.745,1.911-2.476,1.911L53.417,16.098L53.417,16.098z M54.994,12.114h2.264c0.891,0,1.085-0.229,1.085-0.959c0-0.731-0.351-0.786-1.128-0.786h-2.224L54.994,12.114L54.994,12.114z M54.994,14.974h2.158c0.938,0,1.389-0.055,1.389-0.896c0-0.749-0.197-0.968-1.125-0.968h-2.42L54.994,14.974L54.994,14.974z"/>
     <path fill="#E0E0E0" d="M64.998,15.494h-0.033c-0.274,0.642-1.117,0.658-1.786,0.658c-1.303,0-2.146-0.229-2.146-1.526c0-1.151,0.723-1.471,2.146-1.471c0.702,0,1.391,0.009,1.72,0.548h0.044v-0.622c0-0.777-0.077-1.051-1.227-1.051c-0.603,0-1.085,0.048-1.085,0.667H61.25c0-1.398,1.153-1.451,2.464-1.451c1.843,0,2.606,0.238,2.606,1.846v3.004h-1.382L64.998,15.494z M62.413,14.626c0,0.676,0.326,0.741,1.259,0.741c0.733,0,1.271-0.053,1.271-0.741c0-0.667-0.59-0.685-1.271-0.685C62.971,13.941,62.413,13.941,62.413,14.626z"/>
     <path fill="#E0E0E0" d="M66.994,11.3h0.724v-1.088h1.38V11.3h2.201v0.877h-2.201v2.458c0.013,0.439,0.013,0.639,0.59,0.639c0.778,0,0.69-0.511,0.69-1.011h1.216c0.022,1.45-0.417,1.889-1.906,1.889c-1.511,0-1.972-0.292-1.972-1.508v-2.467h-0.724L66.994,11.3L66.994,11.3z"/>
     <path fill="#E0E0E0" d="M71.652,11.3h0.723v-1.088h1.38V11.3h2.202v0.877h-2.202v2.458c0.011,0.439,0.011,0.639,0.59,0.639c0.779,0,0.691-0.511,0.691-1.011h1.216c0.021,1.45-0.417,1.889-1.907,1.889c-1.509,0-1.969-0.292-1.969-1.508v-2.467h-0.724L71.652,11.3L71.652,11.3z"/>
     <path fill="#E0E0E0" d="M82.125,14.572c0,1.508-1.042,1.581-2.683,1.581c-2.202,0-2.647-0.585-2.647-2.439c0-1.719,0.326-2.465,2.647-2.465c2.368,0,2.683,0.576,2.683,2.668h-3.954c0,1.032,0.033,1.362,1.27,1.362c0.767,0,1.306,0.009,1.306-0.706L82.125,14.572L82.125,14.572z M80.745,13.183c0-0.987-0.175-1.062-1.306-1.062c-1.194,0-1.27,0.21-1.27,1.062H80.745z"/>
     <path fill="#E0E0E0" d="M84.505,11.3l-0.03,0.631h0.055c0.274-0.53,0.866-0.684,1.533-0.684c1.216,0,1.512,0.604,1.512,1.508v0.384h-1.292v-0.247c0-0.484-0.056-0.768-0.702-0.768c-0.821,0-1.062,0.396-1.042,1.015v2.961h-1.381v-4.798L84.505,11.3L84.505,11.3z"/>
     <path fill="#E0E0E0" d="M91.702,16.29c-0.32,1.088-0.584,1.935-2.19,1.935c-0.197,0-0.394-0.025-0.591-0.037V17.32c0.099,0.009,0.201,0.028,0.295,0.028c0.865,0,0.997-0.695,1.12-1.254h-0.667l-1.895-4.798h1.427l1.456,4.085h0.02l1.119-4.085h1.402L91.702,16.29z"/>
    </g>
   </g>
   <path opacity="0.35" fill="#FFFFFF" enable-background="new    " d="M135.506,10.888c0,1.08-1.406,1.956-3.141,1.956H16.089c-1.732,0-3.14-0.8-3.14-1.88V5.069c0-1.081,1.406-2.033,3.14-2.033h116.275c1.735,0,3.143,0.876,3.143,1.957V10.888L135.506,10.888z"/>
  </g>
  <g >
   <path fill="#353535" d="M7.764,61.726c0,1.781,1.746,3.24,3.883,3.24h121.924c2.136,0,3.883-1.459,3.883-3.24V37.963c0-1.781-1.747-3.24-3.883-3.24H11.647c-2.137,0-3.883,1.458-3.883,3.24V61.726z"/>
   <path fill="#CE925D" d="M45.356,34.726H11.647c-2.137,0-3.883,1.458-3.883,3.239v23.763c0,1.781,1.746,3.24,3.883,3.24h33.709V34.726L45.356,34.726z"/>
   <path opacity="0.35" enable-background="new    " d="M133.278,63.729c1.607,0,3.657-1.244,3.657-2.715v-6.801c0,1.473-2.05,3.782-3.657,3.782H12.235c-1.607,0-3.658-2.309-3.658-3.782v6.801c0,1.474,2.051,2.715,3.658,2.715H133.278z"/>
   <path fill="#B2B2B2" d="M7.873,49.645c0,6.774,0.311,12.263,0.693,12.263c0.383,0,0.383-24.524,0-24.524C8.183,37.384,7.873,42.874,7.873,49.645"/>
   <path fill="#7C7C7C" d="M8.131,53.827c0.253,0,0.253-9.062,0-9.062l0.007,0.001c0,0.558-0.542,1.011-1.209,1.011H6.377c-0.666,0-1.212,0.455-1.212,1.012V51.8c0,0.557,0.546,1.012,1.212,1.012h0.551c0.667,0,1.209,0.452,1.209,1.012L8.131,53.827L8.131,53.827z"/>
   <g >
    <g >
     <path fill="#E0E0E0" d="M112.387,50.167l0.516-1.297h1.632l-2.728,6.853h-2.322l-2.781-6.853h1.6l0.537,1.297H112.387z M110.603,54.717h0.021l1.402-3.555h-2.837L110.603,54.717z"/>
     <path fill="#E0E0E0" d="M120.387,50.167l0.516-1.297h1.632l-2.728,6.853h-2.322l-2.781-6.853h1.6l0.537,1.297H120.387z M118.603,54.717h0.021l1.402-3.555h-2.837L118.603,54.717z"/>
     <path fill="#E0E0E0" d="M104.618,50.167l0.515-1.297h1.633l-2.728,6.853h-2.322l-2.781-6.853h1.599l0.537,1.297H104.618z M102.833,54.717h0.022l1.401-3.555h-2.838L102.833,54.717z"/>
     <path fill="#E0E0E0" d="M94.406,48.867v6.853h-4.09c-1.609,0-2.417-0.271-2.417-1.782c0-0.784,0.173-1.316,1.169-1.514v-0.039c-1.15-0.11-1.368-0.741-1.368-1.606c0-1.518,0.742-1.91,2.477-1.91L94.406,48.867L94.406,48.867z M92.828,49.992h-2.157c-0.939,0-1.39,0.055-1.39,0.895c0,0.749,0.198,0.969,1.127,0.969h2.418L92.828,49.992L92.828,49.992z M92.828,52.852h-2.266c-0.89,0-1.084,0.228-1.084,0.96c0,0.731,0.35,0.787,1.127,0.787h2.224L92.828,52.852L92.828,52.852z"/>
     <path fill="#E0E0E0" d="M82.824,49.471h0.033c0.273-0.643,1.116-0.658,1.785-0.658c1.304,0,2.148,0.228,2.148,1.525c0,1.152-0.723,1.472-2.148,1.472c-0.701,0-1.39-0.009-1.718-0.549h-0.044v0.622c0,0.777,0.077,1.05,1.226,1.05c0.603,0,1.085-0.046,1.085-0.666h1.384c0,1.397-1.151,1.45-2.466,1.45c-1.838,0-2.605-0.238-2.605-1.847v-3.005h1.38L82.824,49.471z M85.408,50.339c0-0.676-0.326-0.74-1.259-0.74c-0.735,0-1.271,0.052-1.271,0.74c0,0.667,0.589,0.686,1.271,0.686C84.851,51.025,85.408,51.025,85.408,50.339z"/>
     <path fill="#E0E0E0" d="M80.828,53.666h-0.723v1.087h-1.381v-1.087h-2.201V52.79h2.201V50.33c-0.013-0.439-0.013-0.642-0.59-0.642c-0.778,0-0.69,0.513-0.69,1.016h-1.215c-0.022-1.452,0.417-1.89,1.906-1.89c1.511,0,1.972,0.292,1.972,1.507v2.467h0.723L80.828,53.666L80.828,53.666z"/>
     <path fill="#E0E0E0" d="M76.17,53.666h-0.723v1.087h-1.38v-1.087h-2.202V52.79h2.202V50.33c-0.011-0.439-0.011-0.642-0.589-0.642c-0.78,0-0.691,0.513-0.691,1.016h-1.217c-0.02-1.452,0.418-1.89,1.908-1.89c1.508,0,1.969,0.292,1.969,1.507v2.467h0.723L76.17,53.666L76.17,53.666z"/>
     <path fill="#E0E0E0" d="M65.697,50.394c0-1.508,1.042-1.581,2.683-1.581c2.202,0,2.647,0.585,2.647,2.44c0,1.72-0.326,2.466-2.647,2.466c-2.368,0-2.683-0.576-2.683-2.669h3.954c0-1.032-0.033-1.362-1.27-1.362c-0.768,0-1.306-0.009-1.306,0.706H65.697L65.697,50.394z M67.077,51.783c0,0.987,0.175,1.063,1.306,1.063c1.195,0,1.271-0.209,1.271-1.063H67.077z"/>
     <path fill="#E0E0E0" d="M63.317,53.666l0.03-0.631h-0.055c-0.274,0.531-0.866,0.684-1.534,0.684c-1.215,0-1.511-0.604-1.511-1.508v-0.384h1.292v0.247c0,0.484,0.055,0.768,0.701,0.768c0.821,0,1.062-0.396,1.043-1.014v-2.961h1.38v4.797L63.317,53.666L63.317,53.666z"/>
     <path fill="#E0E0E0" d="M56.12,48.674c0.32-1.088,0.583-1.936,2.189-1.936c0.197,0,0.395,0.025,0.592,0.036v0.869c-0.099-0.009-0.2-0.027-0.296-0.027c-0.866,0-0.997,0.695-1.121,1.254h0.668l1.895,4.798h-1.427l-1.457-4.085h-0.021l-1.118,4.085h-1.402L56.12,48.674z"/>
    </g>
   </g>
   <path opacity="0.35" fill="#FFFFFF" enable-background="new    " d="M11.53,43.658c0,1.082,1.406,1.955,3.139,1.955h116.276c1.732,0,3.141-0.799,3.141-1.879v-5.895c0-1.081-1.408-2.033-3.141-2.033H14.671c-1.732,0-3.14,0.876-3.14,1.957L11.53,43.658L11.53,43.658z"/>
  </g>
  <path fill="none" stroke="#C9C9C9" stroke-width="0.8345" d="M2.145,113.432V73.396c0-0.591,0.388-1.079,0.863-1.079s0.86,0.488,0.86,1.079l0.913,19.527c0,0.595,0.391,1.08,0.863,1.08s0.863-0.485,0.863-1.08L7.42,77.795c0-0.594,0.389-1.08,0.861-1.08c0.475,0,0.861,0.486,0.861,1.08v11.887"/>
  <path fill="none" stroke="#C9C9C9" stroke-width="0.8345" d="M137.822,57.679V45.792c0-0.594,0.386-1.08,0.861-1.08c0.471,0,0.86,0.486,0.86,1.08l0.913,15.128c0,0.595,0.391,1.08,0.863,1.08c0.472,0,0.863-0.485,0.863-1.08l0.912-19.527c0-0.591,0.387-1.079,0.861-1.079s0.862,0.488,0.862,1.079V81.43"/>
  <path fill="none" stroke="#C9C9C9" stroke-width="0.8345" d="M137.709,111.262v11.887c0,0.594,0.39,1.081,0.861,1.081c0.476,0,0.862-0.487,0.862-1.081l0.914-15.128c0-0.594,0.387-1.08,0.861-1.08s0.86,0.486,0.86,1.08l0.913,19.528c0,0.592,0.391,1.078,0.862,1.078c0.473,0,0.863-0.486,0.863-1.078v-23.965c0-0.59,0.584-1.079,1.295-1.079h1.465"/>
  <rect width="3.46" x="1.706" y="109.155" fill="#C9C9C9" height="12.025"/>
  <rect width="2.95" x="141.869" y="76.531" fill="#C9C9C9" height="12.028"/>
  <g >
   <path fill="#353535" d="M139.273,95.051c0,1.783-1.747,3.24-3.883,3.24H13.464c-2.136,0-3.883-1.457-3.883-3.24V71.291c0-1.781,1.747-3.239,3.883-3.239H135.39c2.137,0,3.884,1.458,3.884,3.239L139.273,95.051L139.273,95.051z"/>
   <path fill="#CE925D" d="M101.94,68.101h33.709c2.136,0,3.883,1.456,3.883,3.239v23.766c0,1.782-1.747,3.24-3.883,3.24H101.94V68.101z"/>
   <path opacity="0.35" enable-background="new    " d="M13.758,97.052c-1.607,0-3.658-1.241-3.658-2.714v-6.801c0,1.474,2.051,3.783,3.658,3.783h121.041c1.608,0,3.659-2.31,3.659-3.783v6.802c0,1.474-2.051,2.714-3.659,2.714L13.758,97.052L13.758,97.052z"/>
   <path fill="#B2B2B2" d="M139.164,82.97c0,6.774-0.31,12.263-0.691,12.263s-0.382-24.523,0-24.523S139.164,76.199,139.164,82.97"/>
   <path fill="#7C7C7C" d="M138.906,87.151c-0.254,0-0.254-9.062,0-9.062l-0.008,0.001c0,0.559,0.543,1.011,1.212,1.011h0.549c0.668,0,1.211,0.452,1.211,1.012v5.011c0,0.557-0.543,1.013-1.211,1.013h-0.549c-0.669,0-1.212,0.452-1.212,1.011L138.906,87.151L138.906,87.151z"/>
   <g >
    <g >
     <path fill="#E0E0E0" d="M35.434,80.895l-0.515,1.296h-1.632l2.727-6.852h2.322l2.781,6.852h-1.599l-0.536-1.296H35.434z M37.218,76.345h-0.022l-1.401,3.556h2.836L37.218,76.345z"/>
     <path fill="#E0E0E0" d="M27.472,80.895l-0.515,1.296h-1.632l2.727-6.852h2.322l2.781,6.852h-1.599l-0.536-1.296H27.472z M29.256,76.345h-0.022l-1.401,3.556h2.836L29.256,76.345z"/>
     <path fill="#E0E0E0" d="M43.203,80.895l-0.515,1.296h-1.629l2.724-6.852h2.322l2.782,6.852h-1.599l-0.536-1.296H43.203z M44.987,76.345h-0.021l-1.403,3.556h2.836L44.987,76.345z"/>
     <path fill="#E0E0E0" d="M53.417,82.194v-6.853h4.088c1.61,0,2.417,0.272,2.417,1.782c0,0.783-0.173,1.316-1.169,1.516v0.038c1.15,0.11,1.369,0.741,1.369,1.606c0,1.518-0.745,1.91-2.476,1.91H53.417L53.417,82.194z M54.994,78.209h2.264c0.891,0,1.085-0.229,1.085-0.959s-0.351-0.786-1.128-0.786h-2.224L54.994,78.209L54.994,78.209z M54.994,81.069h2.158c0.938,0,1.389-0.055,1.389-0.895c0-0.749-0.197-0.969-1.125-0.969h-2.42L54.994,81.069L54.994,81.069z"/>
     <path fill="#E0E0E0" d="M64.998,81.59h-0.033c-0.274,0.641-1.117,0.657-1.786,0.657c-1.303,0-2.146-0.229-2.146-1.526c0-1.151,0.723-1.471,2.146-1.471c0.702,0,1.391,0.009,1.72,0.548h0.044v-0.622c0-0.776-0.077-1.051-1.227-1.051c-0.603,0-1.085,0.048-1.085,0.667H61.25c0-1.397,1.153-1.45,2.464-1.45c1.843,0,2.606,0.237,2.606,1.846v3.004h-1.382L64.998,81.59z M62.413,80.722c0,0.677,0.326,0.741,1.259,0.741c0.733,0,1.271-0.053,1.271-0.741c0-0.667-0.59-0.685-1.271-0.685C62.971,80.037,62.413,80.037,62.413,80.722z"/>
     <path fill="#E0E0E0" d="M66.994,77.396h0.724v-1.088h1.38v1.088h2.201v0.877h-2.201v2.458c0.013,0.439,0.013,0.639,0.59,0.639c0.778,0,0.69-0.51,0.69-1.011h1.216c0.022,1.45-0.417,1.889-1.906,1.889c-1.511,0-1.972-0.292-1.972-1.509v-2.467h-0.724L66.994,77.396L66.994,77.396z"/>
     <path fill="#E0E0E0" d="M71.652,77.396h0.723v-1.088h1.38v1.088h2.202v0.877h-2.202v2.458c0.011,0.439,0.011,0.639,0.59,0.639c0.779,0,0.691-0.51,0.691-1.011h1.216c0.021,1.45-0.417,1.889-1.907,1.889c-1.509,0-1.969-0.292-1.969-1.509v-2.467h-0.724L71.652,77.396L71.652,77.396z"/>
     <path fill="#E0E0E0" d="M82.125,80.668c0,1.508-1.042,1.58-2.683,1.58c-2.202,0-2.647-0.584-2.647-2.439c0-1.719,0.326-2.465,2.647-2.465c2.368,0,2.683,0.576,2.683,2.668h-3.954c0,1.032,0.033,1.361,1.27,1.361c0.767,0,1.306,0.01,1.306-0.705H82.125L82.125,80.668z M80.745,79.279c0-0.987-0.175-1.062-1.306-1.062c-1.194,0-1.27,0.21-1.27,1.062H80.745z"/>
     <path fill="#E0E0E0" d="M84.505,77.396l-0.03,0.631h0.055c0.274-0.53,0.866-0.684,1.533-0.684c1.216,0,1.512,0.604,1.512,1.508v0.384h-1.292v-0.246c0-0.484-0.056-0.769-0.702-0.769c-0.821,0-1.062,0.396-1.042,1.015v2.961h-1.381v-4.797L84.505,77.396L84.505,77.396z"/>
     <path fill="#E0E0E0" d="M91.702,82.385c-0.32,1.088-0.584,1.936-2.19,1.936c-0.197,0-0.394-0.025-0.591-0.037v-0.868c0.099,0.009,0.201,0.028,0.295,0.028c0.865,0,0.997-0.695,1.12-1.255h-0.667l-1.895-4.798h1.427l1.456,4.085h0.02l1.119-4.085h1.402L91.702,82.385z"/>
    </g>
   </g>
   <path opacity="0.35" fill="#FFFFFF" enable-background="new    " d="M135.506,76.983c0,1.08-1.406,1.956-3.141,1.956H16.089c-1.732,0-3.14-0.8-3.14-1.88v-5.895c0-1.08,1.406-2.033,3.14-2.033h116.275c1.735,0,3.143,0.877,3.143,1.957V76.983L135.506,76.983z"/>
  </g>
  <g >
   <path fill="#353535" d="M7.764,127.822c0,1.78,1.746,3.24,3.883,3.24h121.924c2.136,0,3.883-1.46,3.883-3.24v-23.763c0-1.781-1.747-3.24-3.883-3.24H11.647c-2.137,0-3.883,1.459-3.883,3.24V127.822z"/>
   <path fill="#CE925D" d="M45.356,100.822H11.647c-2.137,0-3.883,1.458-3.883,3.239v23.764c0,1.781,1.746,3.239,3.883,3.239h33.709V100.822L45.356,100.822z"/>
   <path opacity="0.35" enable-background="new    " d="M133.278,129.825c1.607,0,3.657-1.244,3.657-2.715v-6.802c0,1.474-2.05,3.782-3.657,3.782H12.235c-1.607,0-3.658-2.309-3.658-3.782v6.802c0,1.474,2.051,2.715,3.658,2.715H133.278z"/>
   <path fill="#B2B2B2" d="M7.873,115.741c0,6.773,0.311,12.264,0.693,12.264c0.383,0,0.383-24.525,0-24.525C8.183,103.479,7.873,108.969,7.873,115.741"/>
   <path fill="#7C7C7C" d="M8.131,119.922c0.253,0,0.253-9.062,0-9.062l0.007,0.001c0,0.559-0.542,1.011-1.209,1.011H6.377c-0.666,0-1.212,0.455-1.212,1.012v5.012c0,0.557,0.546,1.012,1.212,1.012h0.551c0.667,0,1.209,0.452,1.209,1.013L8.131,119.922L8.131,119.922z"/>
   <g >
    <g >
     <path fill="#E0E0E0" d="M112.387,116.262l0.516-1.297h1.632l-2.728,6.853h-2.322l-2.781-6.853h1.6l0.537,1.297H112.387z M110.603,120.813h0.021l1.402-3.555h-2.837L110.603,120.813z"/>
     <path fill="#E0E0E0" d="M120.387,116.262l0.516-1.297h1.632l-2.728,6.853h-2.322l-2.781-6.853h1.6l0.537,1.297H120.387z M118.603,120.813h0.021l1.402-3.555h-2.837L118.603,120.813z"/>
     <path fill="#E0E0E0" d="M104.618,116.262l0.515-1.297h1.633l-2.728,6.853h-2.322l-2.781-6.853h1.599l0.537,1.297H104.618z M102.833,120.813h0.022l1.401-3.555h-2.838L102.833,120.813z"/>
     <path fill="#E0E0E0" d="M94.406,114.963v6.852h-4.09c-1.609,0-2.417-0.271-2.417-1.781c0-0.784,0.173-1.316,1.169-1.515v-0.039c-1.15-0.11-1.368-0.741-1.368-1.606c0-1.518,0.742-1.91,2.477-1.91H94.406L94.406,114.963z M92.828,116.088h-2.157c-0.939,0-1.39,0.055-1.39,0.895c0,0.749,0.198,0.969,1.127,0.969h2.418L92.828,116.088L92.828,116.088z M92.828,118.948h-2.266c-0.89,0-1.084,0.229-1.084,0.96s0.35,0.786,1.127,0.786h2.224L92.828,118.948L92.828,118.948z"/>
     <path fill="#E0E0E0" d="M82.824,115.567h0.033c0.273-0.643,1.116-0.658,1.785-0.658c1.304,0,2.148,0.228,2.148,1.525c0,1.151-0.723,1.472-2.148,1.472c-0.701,0-1.39-0.009-1.718-0.55h-0.044v0.623c0,0.776,0.077,1.05,1.226,1.05c0.603,0,1.085-0.046,1.085-0.666h1.384c0,1.397-1.151,1.45-2.466,1.45c-1.838,0-2.605-0.238-2.605-1.847v-3.005h1.38L82.824,115.567z M85.408,116.434c0-0.676-0.326-0.739-1.259-0.739c-0.735,0-1.271,0.052-1.271,0.739c0,0.668,0.589,0.686,1.271,0.686C84.851,117.122,85.408,117.122,85.408,116.434z"/>
     <path fill="#E0E0E0" d="M80.828,119.762h-0.723v1.087h-1.381v-1.087h-2.201v-0.877h2.201v-2.459c-0.013-0.439-0.013-0.643-0.59-0.643c-0.778,0-0.69,0.514-0.69,1.016h-1.215c-0.022-1.451,0.417-1.89,1.906-1.89c1.511,0,1.972,0.292,1.972,1.507v2.467h0.723L80.828,119.762L80.828,119.762z"/>
     <path fill="#E0E0E0" d="M76.17,119.762h-0.723v1.087h-1.38v-1.087h-2.202v-0.877h2.202v-2.459c-0.011-0.439-0.011-0.643-0.589-0.643c-0.78,0-0.691,0.514-0.691,1.016h-1.217c-0.02-1.451,0.418-1.89,1.908-1.89c1.508,0,1.969,0.292,1.969,1.507v2.467h0.723L76.17,119.762L76.17,119.762z"/>
     <path fill="#E0E0E0" d="M65.697,116.489c0-1.508,1.042-1.58,2.683-1.58c2.202,0,2.647,0.585,2.647,2.439c0,1.721-0.326,2.467-2.647,2.467c-2.368,0-2.683-0.576-2.683-2.67h3.954c0-1.031-0.033-1.361-1.27-1.361c-0.768,0-1.306-0.01-1.306,0.705H65.697L65.697,116.489z M67.077,117.879c0,0.986,0.175,1.062,1.306,1.062c1.195,0,1.271-0.209,1.271-1.062H67.077z"/>
     <path fill="#E0E0E0" d="M63.317,119.762l0.03-0.631h-0.055c-0.274,0.531-0.866,0.684-1.534,0.684c-1.215,0-1.511-0.604-1.511-1.508v-0.385h1.292v0.246c0,0.484,0.055,0.768,0.701,0.768c0.821,0,1.062-0.396,1.043-1.014v-2.961h1.38v4.797L63.317,119.762L63.317,119.762z"/>
     <path fill="#E0E0E0" d="M56.12,114.77c0.32-1.088,0.583-1.936,2.189-1.936c0.197,0,0.395,0.025,0.592,0.036v0.868c-0.099-0.009-0.2-0.027-0.296-0.027c-0.866,0-0.997,0.695-1.121,1.254h0.668l1.895,4.799h-1.427l-1.457-4.086h-0.021l-1.118,4.086h-1.402L56.12,114.77z"/>
    </g>
   </g>
   <path opacity="0.35" fill="#FFFFFF" enable-background="new    " d="M11.53,109.753c0,1.082,1.406,1.955,3.139,1.955h116.276c1.732,0,3.141-0.799,3.141-1.88v-5.895c0-1.08-1.408-2.033-3.141-2.033H14.671c-1.732,0-3.14,0.877-3.14,1.957L11.53,109.753L11.53,109.753z"/>
  </g>
  <g >
   <path fill="#1A1A1A" d="M7.357,0.109l1.79,1.16c0,0,1.276,1.206,2.389,2.492c0.663,0.767,1.218,3.466,2.036,4.151c0.821,0.683,1.993,0.831,2.987,0.831c0.277,0,23.058,0,23.335,0c0.995,0,2.164-0.145,2.986-0.831c0.82-0.685,1.378-3.384,2.039-4.151c1.111-1.286,2.389-2.492,2.389-2.492l1.79-1.16H7.357z"/>
   <path opacity="0.2" fill="#FFFFFF" enable-background="new    " d="M9.941,0.984l0.466,0.145c0,0,0,0.539,1.037,1.111c0.623,0.342,1.138,0.492,1.904,0.798c0.768,0.305,1.858,0.37,2.791,0.37c0.258,0,23.918,0,24.181,0c0.932,0,2.021-0.065,2.787-0.37c0.768-0.306,1.286-0.456,1.904-0.798c1.041-0.573,1.04-1.111,1.04-1.111l0.458-0.144L9.941,0.984z"/>
  </g>
  <g >
   <path fill="#1A1A1A" d="M98.374,0.109l1.79,1.16c0,0,1.276,1.206,2.389,2.492c0.663,0.767,1.219,3.466,2.036,4.151c0.82,0.683,1.993,0.831,2.987,0.831c0.278,0,23.058,0,23.334,0c0.996,0,2.165-0.145,2.988-0.831c0.818-0.685,1.376-3.384,2.036-4.151c1.112-1.286,2.39-2.492,2.39-2.492l1.79-1.16H98.374z"/>
   <path opacity="0.2" fill="#FFFFFF" enable-background="new    " d="M100.958,0.984l0.468,0.145c0,0,0,0.539,1.036,1.111c0.623,0.342,1.138,0.492,1.904,0.798c0.771,0.305,1.858,0.37,2.791,0.37c0.258,0,23.919,0,24.182,0c0.932,0,2.021-0.065,2.788-0.37c0.768-0.306,1.284-0.456,1.905-0.798c1.039-0.573,1.038-1.111,1.038-1.111l0.458-0.144L100.958,0.984z"/>
  </g>
  <g >
   <path fill="#1A1A1A" d="M7.357,132.767l1.79-1.161c0,0,1.276-1.205,2.389-2.492c0.663-0.766,1.218-3.466,2.036-4.15c0.821-0.685,1.993-0.83,2.987-0.83c0.277,0,23.058,0,23.335,0c0.995,0,2.164,0.143,2.986,0.83c0.82,0.685,1.378,3.385,2.039,4.15c1.111,1.287,2.389,2.492,2.389,2.492l1.79,1.161H7.357z"/>
   <path d="M9.941,131.893l0.466-0.145c0,0,0-0.539,1.037-1.111c0.623-0.344,1.138-0.492,1.904-0.798c0.768-0.306,1.858-0.37,2.791-0.37c0.258,0,23.918,0,24.181,0c0.932,0,2.021,0.064,2.787,0.37c0.768,0.304,1.286,0.454,1.904,0.798c1.041,0.572,1.04,1.111,1.04,1.111l0.458,0.141L9.941,131.893z"/>
  </g>
  <g >
   <path fill="#1A1A1A" d="M98.374,132.767l1.79-1.161c0,0,1.276-1.205,2.389-2.492c0.663-0.766,1.219-3.466,2.036-4.15c0.82-0.685,1.993-0.83,2.987-0.83c0.278,0,23.058,0,23.334,0c0.996,0,2.165,0.143,2.988,0.83c0.819,0.686,1.376,3.385,2.036,4.15c1.112,1.287,2.39,2.492,2.39,2.492l1.79,1.161H98.374z"/>
   <path d="M100.958,131.893l0.468-0.145c0,0,0-0.539,1.036-1.111c0.623-0.344,1.138-0.492,1.904-0.798c0.771-0.306,1.858-0.37,2.791-0.37c0.258,0,23.919,0,24.182,0c0.932,0,2.021,0.064,2.788,0.37c0.768,0.304,1.284,0.454,1.905,0.798c1.039,0.572,1.038,1.111,1.038,1.111l0.458,0.141L100.958,131.893z"/>
  </g>
  <path fill="none" stroke="#000000" stroke-width="2.5034" d="M147.467,102.505l5.633,0"/>
  <path fill="none" stroke="#FF0000" stroke-width="2.5034" d="M147.467,25.906l5.633,0"/>
 </g>
</svg>
