<?xml version='1.0' encoding='UTF-8' standalone='no'?>
<!-- Created with Fritzing (http://www.fritzing.org/) -->
<svg xmlns="http://www.w3.org/2000/svg" width="0.8in" x="0in" version="1.2" y="0in" height="0.8in" viewBox="0 0 57.6 57.6" baseProfile="tiny">
 <desc >Fritzing breadboard generated by brd2svg</desc>
 <g  id="breadboard" stroke-width="0">
  <g  id="icon" stroke-width="0">
   <path  fill="#C62717" stroke="none" stroke-width="0" d="M0,57.6L57.6,57.6L57.6,0L43.2,0A17.0739,17.0739,0,0,1,14.4,0L0,0L0,57.6M5.76,54a1.44,1.44,0,1,1,2.88,0,1.44,1.44,0,1,1,-2.88,0zM12.96,54a1.44,1.44,0,1,1,2.88,0,1.44,1.44,0,1,1,-2.88,0zM20.16,54a1.44,1.44,0,1,1,2.88,0,1.44,1.44,0,1,1,-2.88,0zM27.36,54a1.44,1.44,0,1,1,2.88,0,1.44,1.44,0,1,1,-2.88,0zM34.56,54a1.44,1.44,0,1,1,2.88,0,1.44,1.44,0,1,1,-2.88,0zM41.76,54a1.44,1.44,0,1,1,2.88,0,1.44,1.44,0,1,1,-2.88,0zM48.96,54a1.44,1.44,0,1,1,2.88,0,1.44,1.44,0,1,1,-2.88,0z"/>
   <g  stroke-width="0">
    <title >layer 21</title>
    <g  stroke-width="0">
     <title >text:DeadOn RTC</title>
     <g  stroke-width="0" transform="matrix(1, 0, 0, 1, 5.976, 12.6)">
      <g  stroke-width="0" transform="rotate(-90)">
       <text  x="0" y="0" font-family="OCRA" fill="white" text-anchor="end" stroke="none" stroke-width="0" font-size="4.176">DeadOn RTC</text>
      </g>
     </g>
    </g>
    <g  stroke-width="0">
     <title >text:DS3234</title>
     <g  stroke-width="0" transform="matrix(1, 0, 0, 1, 9, 18.36)">
      <g  stroke-width="0" transform="rotate(-90)">
       <text  x="0" y="0" font-family="OCRA" fill="white" text-anchor="start" stroke="none" stroke-width="0" font-size="3.3408">DS3234</text>
      </g>
     </g>
    </g>
    <g  stroke-width="0">
     <title >element:BAT1</title>
     <g  stroke-width="0">
      <title >package:BATTCON_12MM_CURVED</title>
     </g>
    </g>
    <g  stroke-width="0">
     <title >element:C1</title>
     <g  stroke-width="0">
      <title >package:0402-CAP</title>
      <line  stroke="white" stroke-linecap="round" y1="25.2" x1="50.4865" y2="25.2" stroke-width="1.152" x2="50.3135"/>
     </g>
    </g>
    <g  stroke-width="0">
     <title >element:JP1</title>
     <g  stroke-width="0">
      <title >package:1X07</title>
      <line  stroke="white" stroke-linecap="round" y1="50.4" x1="48.6" y2="50.4" stroke-width="0.576" x2="52.2"/>
      <line  stroke="white" stroke-linecap="round" y1="50.4" x1="52.2" y2="52.2" stroke-width="0.576" x2="54"/>
      <line  stroke="white" stroke-linecap="round" y1="55.8" x1="54" y2="57.6" stroke-width="0.576" x2="52.2"/>
      <line  stroke="white" stroke-linecap="round" y1="52.2" x1="39.6" y2="50.4" stroke-width="0.576" x2="41.4"/>
      <line  stroke="white" stroke-linecap="round" y1="50.4" x1="41.4" y2="50.4" stroke-width="0.576" x2="45"/>
      <line  stroke="white" stroke-linecap="round" y1="50.4" x1="45" y2="52.2" stroke-width="0.576" x2="46.8"/>
      <line  stroke="white" stroke-linecap="round" y1="55.8" x1="46.8" y2="57.6" stroke-width="0.576" x2="45"/>
      <line  stroke="white" stroke-linecap="round" y1="57.6" x1="45" y2="57.6" stroke-width="0.576" x2="41.4"/>
      <line  stroke="white" stroke-linecap="round" y1="57.6" x1="41.4" y2="55.8" stroke-width="0.576" x2="39.6"/>
      <line  stroke="white" stroke-linecap="round" y1="50.4" x1="48.6" y2="52.2" stroke-width="0.576" x2="46.8"/>
      <line  stroke="white" stroke-linecap="round" y1="55.8" x1="46.8" y2="57.6" stroke-width="0.576" x2="48.6"/>
      <line  stroke="white" stroke-linecap="round" y1="57.6" x1="52.2" y2="57.6" stroke-width="0.576" x2="48.6"/>
      <line  stroke="white" stroke-linecap="round" y1="50.4" x1="27" y2="50.4" stroke-width="0.576" x2="30.6"/>
      <line  stroke="white" stroke-linecap="round" y1="50.4" x1="30.6" y2="52.2" stroke-width="0.576" x2="32.4"/>
      <line  stroke="white" stroke-linecap="round" y1="55.8" x1="32.4" y2="57.6" stroke-width="0.576" x2="30.6"/>
      <line  stroke="white" stroke-linecap="round" y1="52.2" x1="32.4" y2="50.4" stroke-width="0.576" x2="34.2"/>
      <line  stroke="white" stroke-linecap="round" y1="50.4" x1="34.2" y2="50.4" stroke-width="0.576" x2="37.8"/>
      <line  stroke="white" stroke-linecap="round" y1="50.4" x1="37.8" y2="52.2" stroke-width="0.576" x2="39.6"/>
      <line  stroke="white" stroke-linecap="round" y1="55.8" x1="39.6" y2="57.6" stroke-width="0.576" x2="37.8"/>
      <line  stroke="white" stroke-linecap="round" y1="57.6" x1="37.8" y2="57.6" stroke-width="0.576" x2="34.2"/>
      <line  stroke="white" stroke-linecap="round" y1="57.6" x1="34.2" y2="55.8" stroke-width="0.576" x2="32.4"/>
      <line  stroke="white" stroke-linecap="round" y1="52.2" x1="18" y2="50.4" stroke-width="0.576" x2="19.8"/>
      <line  stroke="white" stroke-linecap="round" y1="50.4" x1="19.8" y2="50.4" stroke-width="0.576" x2="23.4"/>
      <line  stroke="white" stroke-linecap="round" y1="50.4" x1="23.4" y2="52.2" stroke-width="0.576" x2="25.2"/>
      <line  stroke="white" stroke-linecap="round" y1="55.8" x1="25.2" y2="57.6" stroke-width="0.576" x2="23.4"/>
      <line  stroke="white" stroke-linecap="round" y1="57.6" x1="23.4" y2="57.6" stroke-width="0.576" x2="19.8"/>
      <line  stroke="white" stroke-linecap="round" y1="57.6" x1="19.8" y2="55.8" stroke-width="0.576" x2="18"/>
      <line  stroke="white" stroke-linecap="round" y1="50.4" x1="27" y2="52.2" stroke-width="0.576" x2="25.2"/>
      <line  stroke="white" stroke-linecap="round" y1="55.8" x1="25.2" y2="57.6" stroke-width="0.576" x2="27"/>
      <line  stroke="white" stroke-linecap="round" y1="57.6" x1="30.6" y2="57.6" stroke-width="0.576" x2="27"/>
      <line  stroke="white" stroke-linecap="round" y1="50.4" x1="5.4" y2="50.4" stroke-width="0.576" x2="9"/>
      <line  stroke="white" stroke-linecap="round" y1="50.4" x1="9" y2="52.2" stroke-width="0.576" x2="10.8"/>
      <line  stroke="white" stroke-linecap="round" y1="55.8" x1="10.8" y2="57.6" stroke-width="0.576" x2="9"/>
      <line  stroke="white" stroke-linecap="round" y1="52.2" x1="10.8" y2="50.4" stroke-width="0.576" x2="12.6"/>
      <line  stroke="white" stroke-linecap="round" y1="50.4" x1="12.6" y2="50.4" stroke-width="0.576" x2="16.2"/>
      <line  stroke="white" stroke-linecap="round" y1="50.4" x1="16.2" y2="52.2" stroke-width="0.576" x2="18"/>
      <line  stroke="white" stroke-linecap="round" y1="55.8" x1="18" y2="57.6" stroke-width="0.576" x2="16.2"/>
      <line  stroke="white" stroke-linecap="round" y1="57.6" x1="16.2" y2="57.6" stroke-width="0.576" x2="12.6"/>
      <line  stroke="white" stroke-linecap="round" y1="57.6" x1="12.6" y2="55.8" stroke-width="0.576" x2="10.8"/>
      <line  stroke="white" stroke-linecap="round" y1="52.2" x1="3.6" y2="55.8" stroke-width="0.576" x2="3.6"/>
      <line  stroke="white" stroke-linecap="round" y1="50.4" x1="5.4" y2="52.2" stroke-width="0.576" x2="3.6"/>
      <line  stroke="white" stroke-linecap="round" y1="55.8" x1="3.6" y2="57.6" stroke-width="0.576" x2="5.4"/>
      <line  stroke="white" stroke-linecap="round" y1="57.6" x1="9" y2="57.6" stroke-width="0.576" x2="5.4"/>
      <line  stroke="white" stroke-linecap="round" y1="52.2" x1="54" y2="55.8" stroke-width="0.576" x2="54"/>
     </g>
    </g>
    <g  stroke-width="0">
     <title >element:JP3</title>
     <g  stroke-width="0">
      <title >package:FIDUCIAL-1X2</title>
     </g>
    </g>
    <g  stroke-width="0">
     <title >element:JP4</title>
     <g  stroke-width="0">
      <title >package:FIDUCIAL-1X2</title>
     </g>
    </g>
    <g  stroke-width="0">
     <title >element:R1</title>
     <g  stroke-width="0">
      <title >package:0402-RES</title>
     </g>
    </g>
    <g  stroke-width="0">
     <title >element:U1</title>
     <g  stroke-width="0">
      <title >package:DS3234</title>
      <line  stroke="white" stroke-linecap="round" y1="39.4299" x1="10.3748" y2="18.1701" stroke-width="0.72" x2="10.3748"/>
      <line  stroke="white" stroke-linecap="round" y1="39.4299" x1="47.2252" y2="18.1701" stroke-width="0.72" x2="47.2252"/>
      <circle  fill="none" cx="44.9574" cy="25.9654" stroke="white" r="0.566929" stroke-width="0.72"/>
     </g>
    </g>
   </g>
   <rect  width="1.152" x="49.824" y="31.392" fill="#ffffff" height="2.016" stroke="none" fill-opacity="0.15" stroke-width="0"/>
   <rect  width="36.8504" x="10.3748" y="18.1701" fill="#333333" height="21.2599" stroke="none" fill-opacity="1" stroke-width="0"/>
   <circle  fill="none" cx="7.2" cy="54" connectorname="SS" stroke="#9A916C" r="2.052" id="connector5pin" stroke-width="1.224"/>
   <circle  fill="none" cx="14.4" cy="54" connectorname="MOSI" stroke="#9A916C" r="2.052" id="connector6pin" stroke-width="1.224"/>
   <circle  fill="none" cx="21.6" cy="54" connectorname="MISO" stroke="#9A916C" r="2.052" id="connector7pin" stroke-width="1.224"/>
   <circle  fill="none" cx="28.8" cy="54" connectorname="SCLK" stroke="#9A916C" r="2.052" id="connector8pin" stroke-width="1.224"/>
   <circle  fill="none" cx="36" cy="54" connectorname="INT/SQW" stroke="#9A916C" r="2.052" id="connector9pin" stroke-width="1.224"/>
   <circle  fill="none" cx="43.2" cy="54" connectorname="VCC" stroke="#9A916C" r="2.052" id="connector10pin" stroke-width="1.224"/>
   <circle  fill="none" cx="50.4" cy="54" connectorname="GND" stroke="#9A916C" r="2.052" id="connector11pin" stroke-width="1.224"/>
  </g>
  <g  id="sfe-logo-flame" stroke-width="0" transform="matrix(1, 0, 0, 1, 47.7182, 2.72357)">
   <g  stroke-width="0" transform="matrix(0, 1, -1, 0, 6.68652, 1.32751)">
    <g  stroke-width="0">
     <title >element:JP2</title>
     <g  stroke-width="0">
      <title >package:SFE-LOGO-FLAME</title>
      <title >polygon</title>
     </g>
    </g>
    <g  stroke-width="0">
     <path  fill="#FFFFFF" stroke-width="0" d="M4.378,1.29c0,0,0.113,0.482,-0.251,0.55C3.873,1.885,3.464,1.634,3.258,1.383c-0.255,-0.31,-0.223,-0.554,-0.024,-0.770998c0.297,-0.327,0.805003,-0.2,0.805003,-0.2S3.107,-0.406,2.136,0.263C1.273,0.858002,1.521,1.669,2.299,2.376c0.703,0.64,0.144,1.341,-0.564,1.249c-0.486,-0.062,-0.685,-0.45,-0.568,-0.69c0.102,-0.205,0.449,-0.33,0.449,-0.33s-0.4,-0.163,-0.870998,0.016C0.322,2.779,-0.027,3.129,0.001,4.004l0,4.06c0,0,0.438,-0.54,0.949997,-1.088C1.528,6.358,1.79,5.94,2.381,5.99C3.5,6.058,4.308,5.561,4.857,4.764C5.913,3.232,5.087,1.519,4.378,1.29z"/>
    </g>
   </g>
  </g>
 </g>
</svg>
