<?xml version='1.0' encoding='UTF-8' standalone='no'?>
<!-- Created with Fritzing (http://www.fritzing.org/) -->
<svg xmlns="http://www.w3.org/2000/svg" width="0.75in" x="0in" version="1.2" y="0in" height="0.3in" viewBox="0 0 54 21.6" baseProfile="tiny">
 <desc >Fritzing breadboard generated by brd2svg</desc>
 <g  id="breadboard" stroke-width="0">
  <g  id="icon" stroke-width="0">
   <path  fill="#C62717" stroke="none" stroke-width="0" d="M0,21.6L54,21.6L54,0L0,0L0,21.6M2.16,3.6a1.44,1.44,0,1,1,2.88,0,1.44,1.44,0,1,1,-2.88,0zM2.16,10.8a1.44,1.44,0,1,1,2.88,0,1.44,1.44,0,1,1,-2.88,0zM2.16,18a1.44,1.44,0,1,1,2.88,0,1.44,1.44,0,1,1,-2.88,0z"/>
   <g  stroke-width="0">
    <title >layer 21</title>
    <g  stroke-width="0">
     <title >text:Humidity Sensor</title>
     <text  x="16.92" y="20.16" font-family="OCRA" fill="white" text-anchor="start" stroke="none" stroke-width="0" font-size="3.3408">Humidity Sensor</text>
    </g>
    <g  stroke-width="0">
     <title >text:5V</title>
     <text  x="14.76" y="20.376" font-family="OCRA" fill="white" text-anchor="end" stroke="none" stroke-width="0" font-size="4.176">5V</text>
    </g>
    <g  stroke-width="0">
     <title >text:OUT</title>
     <text  x="18" y="13.176" font-family="OCRA" fill="white" text-anchor="end" stroke="none" stroke-width="0" font-size="4.176">OUT</text>
    </g>
    <g  stroke-width="0">
     <title >text:GND</title>
     <text  x="18" y="5.976" font-family="OCRA" fill="white" text-anchor="end" stroke="none" stroke-width="0" font-size="4.176">GND</text>
    </g>
    <g  stroke-width="0">
     <title >element:JP1</title>
     <g  stroke-width="0">
      <title >package:1X03</title>
      <line  stroke="white" stroke-linecap="round" y1="14.4" x1="5.4" y2="16.2" stroke-width="0.576" x2="7.2"/>
      <line  stroke="white" stroke-linecap="round" y1="16.2" x1="7.2" y2="19.8" stroke-width="0.576" x2="7.2"/>
      <line  stroke="white" stroke-linecap="round" y1="19.8" x1="7.2" y2="21.6" stroke-width="0.576" x2="5.4"/>
      <line  stroke="white" stroke-linecap="round" y1="21.6" x1="1.8" y2="19.8" stroke-width="0.576" x2="0"/>
      <line  stroke="white" stroke-linecap="round" y1="19.8" x1="0" y2="16.2" stroke-width="0.576" x2="0"/>
      <line  stroke="white" stroke-linecap="round" y1="16.2" x1="0" y2="14.4" stroke-width="0.576" x2="1.8"/>
      <line  stroke="white" stroke-linecap="round" y1="1.8" x1="7.2" y2="5.4" stroke-width="0.576" x2="7.2"/>
      <line  stroke="white" stroke-linecap="round" y1="5.4" x1="7.2" y2="7.2" stroke-width="0.576" x2="5.4"/>
      <line  stroke="white" stroke-linecap="round" y1="7.2" x1="1.8" y2="5.4" stroke-width="0.576" x2="0"/>
      <line  stroke="white" stroke-linecap="round" y1="7.2" x1="5.4" y2="9" stroke-width="0.576" x2="7.2"/>
      <line  stroke="white" stroke-linecap="round" y1="9" x1="7.2" y2="12.6" stroke-width="0.576" x2="7.2"/>
      <line  stroke="white" stroke-linecap="round" y1="12.6" x1="7.2" y2="14.4" stroke-width="0.576" x2="5.4"/>
      <line  stroke="white" stroke-linecap="round" y1="14.4" x1="1.8" y2="12.6" stroke-width="0.576" x2="0"/>
      <line  stroke="white" stroke-linecap="round" y1="12.6" x1="0" y2="9" stroke-width="0.576" x2="0"/>
      <line  stroke="white" stroke-linecap="round" y1="9" x1="0" y2="7.2" stroke-width="0.576" x2="1.8"/>
      <line  stroke="white" stroke-linecap="round" y1="0" x1="5.4" y2="0" stroke-width="0.576" x2="1.8"/>
      <line  stroke="white" stroke-linecap="round" y1="1.8" x1="7.2" y2="0" stroke-width="0.576" x2="5.4"/>
      <line  stroke="white" stroke-linecap="round" y1="0" x1="1.8" y2="1.8" stroke-width="0.576" x2="0"/>
      <line  stroke="white" stroke-linecap="round" y1="5.4" x1="0" y2="1.8" stroke-width="0.576" x2="0"/>
      <line  stroke="white" stroke-linecap="round" y1="21.6" x1="5.4" y2="21.6" stroke-width="0.576" x2="1.8"/>
     </g>
    </g>
    <g  stroke-width="0">
     <title >element:JP2</title>
     <g  stroke-width="0">
      <title >package:SFE-LOGO-FLAME</title>
     </g>
    </g>
    <g  stroke-width="0">
     <title >element:U1</title>
     <g  stroke-width="0">
      <title >package:HIH-4030</title>
      <line  stroke="white" stroke-linecap="round" y1="4.32" x1="43.56" y2="4.32" stroke-width="0.576" x2="45.72"/>
      <line  stroke="white" stroke-linecap="round" y1="4.32" x1="45.72" y2="6.12" stroke-width="0.576" x2="45.72"/>
      <line  stroke="white" stroke-linecap="round" y1="16.92" x1="43.56" y2="16.92" stroke-width="0.576" x2="45.72"/>
      <line  stroke="white" stroke-linecap="round" y1="16.92" x1="45.72" y2="15.48" stroke-width="0.576" x2="45.72"/>
      <line  stroke="white" stroke-linecap="round" y1="4.68" x1="22.32" y2="4.68" stroke-width="0.576" x2="20.52"/>
      <line  stroke="white" stroke-linecap="round" y1="4.68" x1="20.52" y2="5.76" stroke-width="0.576" x2="20.52"/>
      <line  stroke="white" stroke-linecap="round" y1="15.84" x1="20.52" y2="16.92" stroke-width="0.576" x2="20.52"/>
      <line  stroke="white" stroke-linecap="round" y1="16.92" x1="20.52" y2="16.92" stroke-width="0.576" x2="22.32"/>
     </g>
    </g>
   </g>
   <rect  width="25.2" x="20.52" y="4.32" fill="#333333" height="12.6" stroke="none" fill-opacity="1" stroke-width="0"/>
   <circle  fill="none" cx="3.6" cy="3.6" connectorname="GND" stroke="#9A916C" r="2.052" id="connector0pin" stroke-width="1.224"/>
   <circle  fill="none" cx="3.6" cy="10.8" connectorname="OUT" stroke="#9A916C" r="2.052" id="connector1pin" stroke-width="1.224"/>
   <circle  fill="none" cx="3.6" cy="18" connectorname="VCC" stroke="#9A916C" r="2.052" id="connector2pin" stroke-width="1.224"/>
  </g>
 </g>
</svg>
