<?xml version="1.0" encoding="utf-8"?>
<!-- Generator: Adobe Illustrator 16.0.0, SVG Export Plug-In . SVG Version: 6.00 Build 0)  -->
<!DOCTYPE svg PUBLIC "-//W3C//DTD SVG 1.1//EN" "http://www.w3.org/Graphics/SVG/1.1/DTD/svg11.dtd">
<svg version="1.1" id="Ebene_1" xmlns="http://www.w3.org/2000/svg" xmlns:xlink="http://www.w3.org/1999/xlink" x="0px" y="0px"
	 width="56.693px" height="56.693px" viewBox="0 0 56.693 56.693" enable-background="new 0 0 56.693 56.693" xml:space="preserve">
<desc>Fritzing breadboard generated by brd2svg</desc>
<g id="breadboardbreadboard">
	<g id="icon">
		<path fill="#B0938F" d="M0,28.346c-0.029,15.655,12.638,28.37,28.293,28.399c15.656,0.029,28.371-12.638,28.4-28.293
			c0-0.035,0-0.071,0-0.106C56.722,12.691,44.055-0.024,28.4-0.053S0.029,12.585,0,28.24C0,28.275,0,28.311,0,28.346z M7.954,39.118
			c0-0.93,0.754-1.684,1.684-1.684s1.684,0.754,1.685,1.684l0,0c0,0.93-0.754,1.684-1.685,1.684
			C8.708,40.802,7.954,40.049,7.954,39.118L7.954,39.118z M26.663,6.803c-0.001-0.931,0.753-1.685,1.683-1.685
			c0.93-0.001,1.685,0.753,1.685,1.683c0,0,0,0.001,0,0.002c0.001,0.93-0.753,1.684-1.683,1.685c-0.93,0-1.685-0.753-1.685-1.683
			C26.663,6.804,26.663,6.803,26.663,6.803z M45.371,39.118c0-0.93,0.754-1.684,1.685-1.684c0.93,0,1.684,0.754,1.684,1.684l0,0
			c0,0.93-0.754,1.684-1.684,1.684C46.125,40.802,45.371,40.048,45.371,39.118z"/>
		<path fill="#672E58" d="M44.783,28.385c2.996-1.23,5.107-4.174,5.107-7.613c0-4.545-3.685-8.23-8.229-8.23
			c-1.975,0-3.786,0.697-5.204,1.856c0.073-0.44,0.12-0.889,0.12-1.35c0-4.545-3.685-8.23-8.23-8.23s-8.23,3.685-8.23,8.23
			c0,0.448,0.045,0.884,0.114,1.312c-1.411-1.136-3.202-1.819-5.154-1.819c-4.546,0-8.23,3.685-8.23,8.23
			c0,3.441,2.113,6.386,5.112,7.615C8.962,29.617,6.851,32.56,6.851,36c0,4.545,3.685,8.23,8.23,8.23
			c1.944,0,3.728-0.678,5.136-1.806c-0.06,0.398-0.1,0.804-0.1,1.219c0,4.545,3.685,8.23,8.23,8.23s8.23-3.686,8.23-8.23
			c0-0.43-0.043-0.85-0.106-1.262c1.417,1.154,3.224,1.849,5.194,1.849c4.545,0,8.229-3.685,8.229-8.23
			C49.894,32.559,47.781,29.615,44.783,28.385z M9.637,40.802c-0.93,0.001-1.684-0.753-1.684-1.684c0-0.93,0.754-1.684,1.684-1.684
			s1.684,0.754,1.685,1.684C11.322,40.048,10.568,40.802,9.637,40.802z M30.03,6.803c0.001,0.93-0.753,1.684-1.683,1.685
			c-0.93,0-1.685-0.753-1.685-1.683c0-0.001,0-0.002,0-0.002c-0.001-0.931,0.753-1.685,1.683-1.685
			c0.93-0.001,1.685,0.753,1.685,1.683C30.03,6.802,30.03,6.802,30.03,6.803z M47.055,40.802c-0.931,0-1.685-0.754-1.685-1.684
			s0.754-1.684,1.685-1.684c0.93,0,1.684,0.754,1.684,1.684S47.985,40.802,47.055,40.802z"/>
		<g>
			<title>layer 21</title>
			<g>
				<title>text:S</title>
				<text transform="matrix(1 0 0 1 35.8015 38.5505)" fill="#FFFFFF" font-family="'OCRA'" font-size="5.8464">S</text>
			</g>
			<g>
				<title>text:-</title>
				<text transform="matrix(1 0 0 1 26.6453 17.489)" fill="#FFFFFF" font-family="'OCRA'" font-size="5.8464">-</text>
			</g>
			<g>
				<title>text:+</title>
				<text transform="matrix(1 0 0 1 16.6389 38.5505)" fill="#FFFFFF" font-family="'OCRA'" font-size="5.8464">+</text>
			</g>
			<g>
				<title>element:TEMP+</title>
				<g>
					<title>package:PETAL-SMALL-2SIDE</title>
				</g>
			</g>
			<g>
				<title>element:TEMP-</title>
				<g>
					<title>package:PETAL-SMALL-2SIDE</title>
				</g>
			</g>
			<g>
				<title>element:TEMP1</title>
				<g>
					<title>package:PETAL-NOHOLE-2SIDE</title>
				</g>
			</g>
			<g>
				<title>element:TEMP2</title>
				<g>
					<title>package:PETAL-NOHOLE-2SIDE</title>
				</g>
			</g>
			<g>
				<title>element:TEMP3</title>
				<g>
					<title>package:PETAL-NOHOLE-2SIDE</title>
				</g>
			</g>
			<g>
				<title>element:TEMPS</title>
				<g>
					<title>package:PETAL-SMALL-2SIDE</title>
				</g>
			</g>
			<g>
				<title>element:U$2</title>
				<g>
					<title>package:LOGO-LILYPAD</title>
				</g>
			</g>
		</g>
		<g>
			<title>layer 1</title>
			<g>
				<title>element:C1</title>
				<g>
					<title>package:0603-CAP</title>
				</g>
			</g>
			<g>
				<title>element:TEMP+</title>
				<g>
					<title>package:PETAL-SMALL-2SIDE</title>
					<g>
						<title>polygon</title>
						<path fill="#E8E8E8" d="M7.71,32.376l-0.902,0.495l-0.816,0.626l-0.71,0.745l-0.588,0.844L4.24,36.01l-0.306,0.982
							L3.783,38.01l0.005,1.029l0.162,1.016l0.316,0.979l0.462,0.92l0.564,0.859l0.69,0.764l0.799,0.647l0.889,0.52l0.957,0.377
							l1.003,0.227l1.026,0.07l1.025-0.087l1-0.243l0.95-0.394l0.88-0.534l-1.19-0.23l-1.145-0.397L11.1,42.975l-0.987-0.703
							l-0.877-0.837l-0.749-0.953l-0.606-1.05l-0.451-1.125L7.144,37.13l-0.116-1.207l0.058-1.21l0.229-1.191L7.71,32.376"/>
					</g>
				</g>
			</g>
			<g>
				<title>element:TEMP-</title>
				<g>
					<title>package:PETAL-SMALL-2SIDE</title>
					<g>
						<title>polygon</title>
						<path fill="#E8E8E8" d="M35.149,8.504l0.023-1.028l-0.135-1.021l-0.29-0.987l-0.437-0.931l-0.574-0.854l-0.698-0.756
							l-0.805-0.64l-0.894-0.51L30.38,1.409l-1.006-0.216l-1.027-0.06l-1.027,0.06l-1.006,0.216l-0.961,0.368l-0.894,0.51
							l-0.805,0.64l-0.698,0.756l-0.574,0.854l-0.437,0.931l-0.289,0.987L21.52,7.475l0.023,1.028l0.794-0.915l0.917-0.793
							l1.02-0.655l1.104-0.503l1.163-0.341l1.199-0.173h1.213l1.199,0.173l1.163,0.341l1.104,0.503l1.02,0.655l0.917,0.793
							L35.149,8.504"/>
					</g>
				</g>
			</g>
			<g>
				<title>element:TEMP1</title>
				<g>
					<title>package:PETAL-NOHOLE-2SIDE</title>
					<g>
						<title>polygon</title>
						<path fill="#E8E8E8" d="M14.512,12.534L13.633,12l-0.95-0.394l-1-0.243l-1.025-0.087l-1.026,0.07l-1.003,0.227L7.671,11.95
							l-0.889,0.519l-0.799,0.648l-0.69,0.764L4.728,14.74l-0.462,0.919L3.95,16.638l-0.162,1.016l-0.005,1.029l0.151,1.018
							l0.306,0.982l0.453,0.924l0.588,0.844l0.71,0.745l0.816,0.626l0.902,0.495l-0.396-1.146L7.086,21.98l-0.058-1.21l0.116-1.207
							l0.285-1.178l0.451-1.125l0.606-1.05l0.749-0.953l0.877-0.837l0.987-0.703l1.077-0.556l1.145-0.397L14.512,12.534"/>
					</g>
				</g>
			</g>
			<g>
				<title>element:TEMP2</title>
				<g>
					<title>package:PETAL-NOHOLE-2SIDE</title>
					<g>
						<title>polygon</title>
						<path fill="#E8E8E8" d="M21.544,48.189l-0.023,1.028l0.136,1.021l0.289,0.987l0.437,0.931l0.574,0.854l0.698,0.756l0.805,0.64
							l0.894,0.51l0.961,0.368l1.006,0.216l1.027,0.06l1.027-0.06l1.006-0.216l0.961-0.368l0.894-0.51l0.805-0.64l0.698-0.756
							l0.574-0.854l0.437-0.931l0.29-0.987l0.135-1.021l-0.023-1.028l-0.794,0.915l-0.917,0.793l-1.02,0.655l-1.104,0.503
							l-1.163,0.341l-1.199,0.173H27.74l-1.199-0.173l-1.163-0.341l-1.104-0.503l-1.02-0.655l-0.917-0.793L21.544,48.189"/>
					</g>
				</g>
			</g>
			<g>
				<title>element:TEMP3</title>
				<g>
					<title>package:PETAL-NOHOLE-2SIDE</title>
					<g>
						<title>polygon</title>
						<path fill="#E8E8E8" d="M48.983,24.317l0.902-0.495l0.816-0.626l0.71-0.745L52,21.607l0.453-0.924l0.306-0.982l0.151-1.018
							l-0.005-1.029l-0.162-1.016l-0.316-0.979l-0.462-0.919L51.4,13.881l-0.69-0.764l-0.799-0.648l-0.889-0.519l-0.956-0.377
							l-1.004-0.227l-1.026-0.07l-1.025,0.087l-1,0.243L43.06,12l-0.88,0.534l1.19,0.23l1.145,0.397l1.077,0.556l0.987,0.703
							l0.877,0.837l0.749,0.953l0.606,1.05l0.451,1.125l0.285,1.178l0.116,1.207l-0.058,1.21l-0.229,1.191L48.983,24.317"/>
					</g>
				</g>
			</g>
			<g>
				<title>element:TEMPS</title>
				<g>
					<title>package:PETAL-SMALL-2SIDE</title>
					<g>
						<title>polygon</title>
						<path fill="#E8E8E8" d="M42.18,44.159l0.88,0.534l0.95,0.394l1,0.243l1.025,0.087l1.026-0.07l1.004-0.227l0.956-0.377
							l0.889-0.52l0.799-0.647l0.69-0.764l0.564-0.859l0.462-0.92l0.316-0.979l0.162-1.016l0.005-1.029l-0.151-1.018l-0.306-0.982
							L52,35.086l-0.588-0.844l-0.71-0.745l-0.816-0.626l-0.902-0.495l0.396,1.146l0.229,1.191l0.058,1.21l-0.116,1.207
							l-0.285,1.178l-0.451,1.125l-0.606,1.05l-0.749,0.953l-0.877,0.837l-0.987,0.703l-1.077,0.556l-1.145,0.397L42.18,44.159"/>
					</g>
				</g>
			</g>
			<g>
				<title>element:U$2</title>
				<g>
					<title>package:LOGO-LILYPAD</title>
				</g>
			</g>
			<g>
				<title>element:U1</title>
				<g>
					<title>package:SOT23-3</title>
				</g>
			</g>
		</g>
		<circle id="connector2pin" fill="none" stroke="#9A916C" stroke-width="1.44" cx="9.637" cy="39.118" r="2.404"/>
		<circle id="connector3pin" fill="none" stroke="#9A916C" stroke-width="1.44" cx="28.346" cy="6.803" r="2.404"/>
		<circle id="connector4pin" fill="none" stroke="#9A916C" stroke-width="1.44" cx="47.055" cy="39.118" r="2.404"/>
		<g>
			<g>
				<rect x="25.357" y="29.916" fill="#999999" width="1.405" height="1.989"/>
				<rect x="31.387" y="29.916" fill="#999999" width="1.402" height="1.989"/>
				<rect x="25.357" y="31.845" opacity="0.2" fill="#FFFFFF" enable-background="new    " width="1.405" height="0.06"/>
				<rect x="31.387" y="31.845" opacity="0.2" fill="#FFFFFF" enable-background="new    " width="1.402" height="0.06"/>
				<rect x="28.343" y="24.726" fill="#999999" width="1.463" height="2.146"/>
				<rect x="28.343" y="24.726" opacity="0.2" fill="#FFFFFF" enable-background="new    " width="1.463" height="0.065"/>
				<rect x="24.83" y="26.873" fill="#303030" width="8.487" height="3.043"/>
				<polygon fill="#1F1F1F" points="24.83,26.873 33.317,26.873 33.025,27.165 25.125,27.165 				"/>
				<polygon fill="#1F1F1F" points="24.83,29.916 33.317,29.916 33.025,29.622 25.125,29.622 				"/>
				<polygon points="24.83,26.873 24.83,29.916 25.125,29.622 25.125,27.165 				"/>
				<polygon fill="#3D3D3D" points="33.317,26.873 33.317,29.916 33.025,29.622 33.025,27.165 				"/>
				<path fill="#1F1F1F" d="M25.708,29.329c-0.161,0-0.292-0.128-0.292-0.292c0-0.161,0.131-0.292,0.292-0.292
					c0.162,0,0.293,0.131,0.293,0.292C26.001,29.201,25.869,29.329,25.708,29.329z"/>
				<text transform="matrix(1 0 0 1 26.0007 29.2039)" fill="#808080" font-family="'OCRA'" font-size="2.1907">AEMP</text>
			</g>
		</g>
		<g>
			<g id="_x30_402-cap" transform="matrix(1, 0, 0, 1, 10.275, 76.1789)">
				<g transform="matrix(0, 1, -1, 0, 4.1105, -1.5595)">
					<g>
						<g>
							
								<rect x="-47.348" y="-9.988" transform="matrix(2.578893e-006 1 -1 2.578893e-006 -53.7389 38.7205)" fill="#A67C52" width="2.236" height="4.957"/>
							
								<rect x="-46.24" y="-8.88" transform="matrix(2.578893e-006 1 -1 2.578893e-006 -52.632 39.8289)" opacity="0.2" enable-background="new    " width="0.018" height="4.956"/>
							
								<rect x="-46.244" y="-11.093" transform="matrix(2.578893e-006 1 -1 2.578893e-006 -54.8451 37.6158)" opacity="0.2" fill="#FFFFFF" enable-background="new    " width="0.026" height="4.956"/>
						</g>
						<g>
							<path fill="#DCDCDC" d="M-44.47-8.628L-44.47-8.628L-44.47-8.628h-0.056l0,0c-0.054,0.149-0.089,0.71-0.089,0.875
								c0,0.175,0.032,1.207,0.089,1.362h0.776v-2.237H-44.47z"/>
							<path fill="#DCDCDC" d="M-47.933-8.566v-0.062h-0.775v2.236h0.775c0.055-0.158,0.122-1.184,0.122-1.361
								C-47.813-7.957-47.859-8.387-47.933-8.566z"/>
							
								<rect x="-48.334" y="-6.794" transform="matrix(2.578893e-006 1 -1 2.578893e-006 -54.7262 41.9143)" opacity="0.15" enable-background="new    " width="0.027" height="0.775"/>
							
								<rect x="-48.334" y="-9.001" transform="matrix(2.578893e-006 1 -1 2.578893e-006 -56.934 39.7066)" opacity="0.5" fill="#FFFFFF" enable-background="new    " width="0.027" height="0.775"/>
							<path fill="#D1C690" d="M-43.751-6.391h-0.776"/>
							
								<rect x="-44.152" y="-6.793" transform="matrix(2.578893e-006 1 -1 2.578893e-006 -50.5448 37.7344)" opacity="0.15" enable-background="new    " width="0.025" height="0.776"/>
							
								<rect x="-44.153" y="-9.003" transform="matrix(2.578893e-006 1 -1 2.578893e-006 -52.7543 35.5249)" opacity="0.5" fill="#FFFFFF" enable-background="new    " width="0.026" height="0.776"/>
							<line fill="none" x1="-48.233" y1="-6.392" x2="-48.233" y2="-6.392"/>
						</g>
					</g>
				</g>
			</g>
			<rect x="20.784" y="30.778" opacity="0.1" enable-background="new    " width="2.222" height="0.1"/>
			<rect x="20.784" y="25.911" opacity="0.2" fill="#FFFFFF" enable-background="new    " width="2.222" height="0.102"/>
		</g>
	</g>
</g>
</svg>
