<?xml version='1.0' encoding='UTF-8' standalone='no'?>
<!-- Created with Fritzing (http://www.fritzing.org/) -->
<svg xmlns="http://www.w3.org/2000/svg" width="0.787402in" x="0in" version="1.2" y="0in" height="0.787402in" viewBox="0 0 56.6929 56.6929" baseProfile="tiny">
 <desc >Fritzing breadboard generated by brd2svg</desc>
 <g  id="breadboard" stroke-width="0">
  <g  id="icon" stroke-width="0">
   <path  fill="#672E58" stroke="none" stroke-width="0.576" d="M0,28.3465a28.3465,28.3465,0,1,0,56.6929,0,28.3465,28.3465,0,1,0,-56.6929,0zM7.95398,39.1181a1.68378,1.68378,0,1,1,3.36756,0,1.68378,1.68378,0,1,1,-3.36756,0zM26.6627,6.80315a1.68378,1.68378,0,1,1,3.36756,0,1.68378,1.68378,0,1,1,-3.36756,0zM45.3713,39.1181a1.68378,1.68378,0,1,1,3.36756,0,1.68378,1.68378,0,1,1,-3.36756,0z"/>
   <g  stroke-width="0">
    <title >layer 21</title>
    <g  stroke-width="0">
     <title >text:S</title>
     <text  x="35.8016" y="38.5512" font-family="OCRA" fill="white" text-anchor="start" stroke="none" stroke-width="0" font-size="5.8464">S</text>
    </g>
    <g  stroke-width="0">
     <title >text:-</title>
     <text  x="26.6457" y="17.4897" font-family="OCRA" fill="white" text-anchor="start" stroke="none" stroke-width="0" font-size="5.8464">-</text>
    </g>
    <g  stroke-width="0">
     <title >text:+</title>
     <text  x="16.6393" y="38.5512" font-family="OCRA" fill="white" text-anchor="start" stroke="none" stroke-width="0" font-size="5.8464">+</text>
    </g>
    <g  stroke-width="0">
     <title >element:C1</title>
     <g  stroke-width="0">
      <title >package:0603-CAP</title>
      <line  stroke="white" stroke-linecap="round" y1="28.3465" x1="21.06" y2="28.3465" stroke-width="1.584" x2="21.2329"/>
     </g>
    </g>
    <g  stroke-width="0">
     <title >element:TEMP+</title>
     <g  stroke-width="0">
      <title >package:PETAL-SMALL-2SIDE</title>
     </g>
    </g>
    <g  stroke-width="0">
     <title >element:TEMP-</title>
     <g  stroke-width="0">
      <title >package:PETAL-SMALL-2SIDE</title>
     </g>
    </g>
    <g  stroke-width="0">
     <title >element:TEMP1</title>
     <g  stroke-width="0">
      <title >package:PETAL-NOHOLE-2SIDE</title>
     </g>
    </g>
    <g  stroke-width="0">
     <title >element:TEMP2</title>
     <g  stroke-width="0">
      <title >package:PETAL-NOHOLE-2SIDE</title>
     </g>
    </g>
    <g  stroke-width="0">
     <title >element:TEMP3</title>
     <g  stroke-width="0">
      <title >package:PETAL-NOHOLE-2SIDE</title>
     </g>
    </g>
    <g  stroke-width="0">
     <title >element:TEMPS</title>
     <g  stroke-width="0">
      <title >package:PETAL-SMALL-2SIDE</title>
     </g>
    </g>
    <g  stroke-width="0">
     <title >element:U$2</title>
     <g  stroke-width="0">
      <title >package:LOGO-LILYPAD</title>
     </g>
    </g>
    <g  stroke-width="0">
     <title >element:U1</title>
     <g  stroke-width="0">
      <title >package:SOT23-3</title>
      <line  stroke="white" stroke-linecap="round" y1="26.3622" x1="26.0788" y2="26.3622" stroke-width="0.576" x2="24.378"/>
      <line  stroke="white" stroke-linecap="round" y1="26.3622" x1="24.378" y2="28.6299" stroke-width="0.576" x2="24.378"/>
      <line  stroke="white" stroke-linecap="round" y1="26.3622" x1="30.6142" y2="26.3622" stroke-width="0.576" x2="32.315"/>
      <line  stroke="white" stroke-linecap="round" y1="26.3622" x1="32.315" y2="28.6299" stroke-width="0.576" x2="32.315"/>
     </g>
    </g>
   </g>
   <g  stroke-width="0">
    <title >layer 1</title>
    <g  stroke-width="0">
     <title >element:C1</title>
     <g  stroke-width="0">
      <title >package:0603-CAP</title>
     </g>
    </g>
    <g  stroke-width="0">
     <title >element:TEMP+</title>
     <g  stroke-width="0">
      <title >package:PETAL-SMALL-2SIDE</title>
      <g  stroke-width="0">
       <title >polygon</title>
       <path  fill="white" stroke="none" stroke-linecap="round" stroke-width="0" d="M7.7094,32.3759L6.80712,32.8705L5.99131,33.4973L5.28095,34.2417L4.69276,35.0858L4.24035,36.0096L3.93449,36.9922L3.78255,38.0094L3.78793,39.0385L3.95036,40.0541L4.26614,41.0334L4.72819,41.9527L5.29313,42.8122L5.98337,43.5756L6.78189,44.2238L7.67023,44.7432L8.62726,45.1202L9.63101,45.3467L10.6574,45.4167L11.6824,45.3294L12.6822,45.0865L13.6329,44.6933L14.5125,44.1593L13.3225,43.9288L12.1774,43.5313L11.1002,42.9755L10.1129,42.2719L9.23587,41.4354L8.48664,40.4824L7.88062,39.4327L7.4299,38.3074L7.14388,37.1296L7.02822,35.9229L7.08548,34.7122L7.31398,33.5217L7.7094,32.3759"/>
      </g>
     </g>
    </g>
    <g  stroke-width="0">
     <title >element:TEMP-</title>
     <g  stroke-width="0">
      <title >package:PETAL-SMALL-2SIDE</title>
      <g  stroke-width="0">
       <title >polygon</title>
       <path  fill="white" stroke="none" stroke-linecap="round" stroke-width="0" d="M35.1496,8.50392L35.1723,7.47526L35.0374,6.45534L34.7479,5.46803L34.3111,4.53657L33.7371,3.68277L33.0392,2.92677L32.2342,2.28642L31.3404,1.77676L30.3795,1.40939L29.3735,1.19339L28.3465,1.13386L27.3195,1.19339L26.3135,1.40939L25.3525,1.77676L24.4588,2.28642L23.6537,2.92677L22.9558,3.68277L22.3818,4.53657L21.945,5.46803L21.6556,6.45534L21.5207,7.47526L21.5433,8.50392L22.3379,7.58866L23.2546,6.7955L24.2745,6.14069L25.3775,5.63754L26.5405,5.29626L27.7404,5.12391L28.9525,5.12391L30.1524,5.29626L31.3155,5.63754L32.4184,6.14069L33.4383,6.7955L34.3551,7.58866L35.1496,8.50392"/>
      </g>
     </g>
    </g>
    <g  stroke-width="0">
     <title >element:TEMP1</title>
     <g  stroke-width="0">
      <title >package:PETAL-NOHOLE-2SIDE</title>
      <g  stroke-width="0">
       <title >polygon</title>
       <path  fill="white" stroke="none" stroke-linecap="round" stroke-width="0" d="M14.5125,12.5337L13.6329,11.9996L12.6822,11.6065L11.6824,11.3635L10.6574,11.2762L9.63101,11.3463L8.62726,11.5727L7.67023,11.9498L6.78189,12.469L5.98337,13.1173L5.29313,13.8807L4.72819,14.7401L4.26614,15.6594L3.95036,16.6388L3.78793,17.6545L3.78255,18.6834L3.93449,19.7008L4.24035,20.6833L4.69276,21.6071L5.28095,22.4513L5.99131,23.1956L6.80712,23.8224L7.7094,24.317L7.31398,23.1713L7.08548,21.9807L7.02822,20.77L7.14388,19.5633L7.4299,18.3855L7.88062,17.2601L8.48664,16.2105L9.23587,15.2574L10.1129,14.421L11.1002,13.7174L12.1774,13.1615L13.3225,12.7642L14.5125,12.5337"/>
      </g>
     </g>
    </g>
    <g  stroke-width="0">
     <title >element:TEMP2</title>
     <g  stroke-width="0">
      <title >package:PETAL-NOHOLE-2SIDE</title>
      <g  stroke-width="0">
       <title >polygon</title>
       <path  fill="white" stroke="none" stroke-linecap="round" stroke-width="0" d="M21.5433,48.189L21.5207,49.2177L21.6556,50.2376L21.945,51.2249L22.3818,52.1564L22.9558,53.0101L23.6537,53.7661L24.4588,54.4065L25.3525,54.9161L26.3135,55.2835L27.3195,55.4995L28.3465,55.5591L29.3735,55.4995L30.3795,55.2835L31.3404,54.9161L32.2342,54.4065L33.0392,53.7661L33.7371,53.0101L34.3111,52.1564L34.7479,51.2249L35.0374,50.2376L35.1723,49.2177L35.1496,48.189L34.3551,49.1043L33.4383,49.8974L32.4184,50.5522L31.3155,51.0553L30.1524,51.3967L28.9525,51.569L27.7404,51.569L26.5405,51.3967L25.3775,51.0553L24.2745,50.5522L23.2546,49.8974L22.3379,49.1043L21.5433,48.189"/>
      </g>
     </g>
    </g>
    <g  stroke-width="0">
     <title >element:TEMP3</title>
     <g  stroke-width="0">
      <title >package:PETAL-NOHOLE-2SIDE</title>
      <g  stroke-width="0">
       <title >polygon</title>
       <path  fill="white" stroke="none" stroke-linecap="round" stroke-width="0" d="M48.9835,24.317L49.8858,23.8224L50.7016,23.1956L51.412,22.4513L52.0001,21.6071L52.4526,20.6833L52.7584,19.7008L52.9104,18.6834L52.905,17.6545L52.7425,16.6388L52.4268,15.6594L51.9647,14.7401L51.3998,13.8807L50.7095,13.1173L49.911,12.469L49.0226,11.9498L48.0657,11.5727L47.0619,11.3463L46.0355,11.2762L45.0105,11.3635L44.0107,11.6065L43.06,11.9996L42.1804,12.5337L43.3704,12.7642L44.5156,13.1615L45.5927,13.7174L46.58,14.421L47.4571,15.2574L48.2062,16.2105L48.8123,17.2601L49.263,18.3855L49.549,19.5633L49.6647,20.77L49.6074,21.9807L49.379,23.1713L48.9835,24.317"/>
      </g>
     </g>
    </g>
    <g  stroke-width="0">
     <title >element:TEMPS</title>
     <g  stroke-width="0">
      <title >package:PETAL-SMALL-2SIDE</title>
      <g  stroke-width="0">
       <title >polygon</title>
       <path  fill="white" stroke="none" stroke-linecap="round" stroke-width="0" d="M42.1804,44.1593L43.06,44.6933L44.0107,45.0865L45.0105,45.3294L46.0355,45.4167L47.0619,45.3467L48.0657,45.1202L49.0226,44.7432L49.911,44.2238L50.7095,43.5756L51.3998,42.8122L51.9647,41.9527L52.4268,41.0334L52.7425,40.0541L52.905,39.0385L52.9104,38.0094L52.7584,36.9922L52.4526,36.0096L52.0001,35.0858L51.412,34.2417L50.7016,33.4973L49.8858,32.8705L48.9835,32.3759L49.379,33.5217L49.6074,34.7122L49.6647,35.9229L49.549,37.1296L49.263,38.3074L48.8123,39.4327L48.2062,40.4824L47.4571,41.4354L46.58,42.2719L45.5927,42.9755L44.5156,43.5313L43.3704,43.9288L42.1804,44.1593"/>
      </g>
     </g>
    </g>
    <g  stroke-width="0">
     <title >element:U$2</title>
     <g  stroke-width="0">
      <title >package:LOGO-LILYPAD</title>
     </g>
    </g>
    <g  stroke-width="0">
     <title >element:U1</title>
     <g  stroke-width="0">
      <title >package:SOT23-3</title>
     </g>
    </g>
   </g>
   <rect  width="7.93699" x="24.378" y="26.3622" fill="#333333" height="2.26772" stroke="none" fill-opacity="1" stroke-width="0"/>
   <circle  fill="none" cx="9.63778" cy="39.1181" connectorname="VCC" stroke="#9A916C" r="2.40378" id="connector2pin" stroke-width="1.44"/>
   <circle  fill="none" cx="28.3465" cy="6.80315" connectorname="GND" stroke="#9A916C" r="2.40378" id="connector3pin" stroke-width="1.44"/>
   <circle  fill="none" cx="47.0551" cy="39.1181" connectorname="VO" stroke="#9A916C" r="2.40378" id="connector4pin" stroke-width="1.44"/>
  </g>
 </g>
</svg>
