<?xml version="1.0" encoding="utf-8"?>
<!-- Generator: Adobe Illustrator 15.0.1, SVG Export Plug-In . SVG Version: 6.00 Build 0)  -->
<!DOCTYPE svg PUBLIC "-//W3C//DTD SVG 1.1//EN" "http://www.w3.org/Graphics/SVG/1.1/DTD/svg11.dtd">
<svg version="1.1" id="Ebene_1" xmlns="http://www.w3.org/2000/svg" xmlns:xlink="http://www.w3.org/1999/xlink" x="0px" y="0px"
	 width="141.732px" height="141.732px" viewBox="0 0 141.732 141.732" enable-background="new 0 0 141.732 141.732"
	 xml:space="preserve">
<desc>Fritzing breadboard generated by brd2svg</desc>
<g id="breadboard">
	<g id="icon">
		<path fill="#672E58" d="M0,70.866c-0.062,39.139,31.61,70.919,70.749,70.983c39.14,0.063,70.918-31.609,70.983-70.748
			c0-0.078,0-0.157,0-0.235c0.062-39.138-31.61-70.919-70.749-70.983C31.845-0.183,0.065,31.493,0,70.631
			C0,70.709,0,70.788,0,70.866z M83.282,36.85c-0.004-1.098,0.882-1.987,1.978-1.991c1.098-0.003,1.987,0.882,1.99,1.979
			c0,0.004,0,0.011,0,0.015c0.004,1.096-0.882,1.985-1.978,1.989c-1.098,0.003-1.987-0.882-1.99-1.979
			C83.282,36.859,83.282,36.855,83.282,36.85z M54.482,36.85c-0.004-1.098,0.882-1.987,1.978-1.991
			c1.098-0.003,1.987,0.882,1.99,1.979c0,0.004,0,0.011,0,0.015c0.004,1.096-0.882,1.985-1.978,1.989
			c-1.098,0.003-1.987-0.882-1.99-1.979C54.482,36.859,54.482,36.855,54.482,36.85z M45.51,93.6
			c-0.002-0.666,0.536-1.207,1.201-1.208c0.665-0.002,1.206,0.533,1.208,1.199c0,0.002,0,0.006,0,0.009
			c0.002,0.665-0.536,1.206-1.201,1.208c-0.663,0.002-1.204-0.536-1.208-1.201C45.51,93.604,45.51,93.602,45.51,93.6z M37.007,93.6
			c-0.002-0.666,0.536-1.207,1.201-1.208c0.665-0.002,1.206,0.533,1.208,1.199c0,0.002,0,0.006,0,0.009
			c0.002,0.665-0.536,1.206-1.201,1.208c-0.666,0.002-1.206-0.536-1.208-1.201C37.007,93.604,37.007,93.602,37.007,93.6z
			 M112.626,74.466c-0.001-0.795,0.645-1.438,1.438-1.439s1.438,0.643,1.439,1.438c0,0.002,0,0.003,0,0.004
			c0.002,0.798-0.643,1.441-1.438,1.442c-0.796,0.001-1.441-0.643-1.442-1.438C112.626,74.469,112.626,74.468,112.626,74.466z
			 M105.426,74.466c-0.001-0.795,0.646-1.438,1.438-1.439s1.44,0.643,1.442,1.438c0,0.002,0,0.003,0,0.004
			c0.001,0.798-0.646,1.441-1.438,1.442s-1.438-0.643-1.442-1.438C105.426,74.469,105.426,74.468,105.426,74.466z M112.626,67.266
			c-0.001-0.798,0.645-1.441,1.438-1.442s1.438,0.643,1.439,1.438c0,0.001,0,0.002,0,0.004c0.002,0.795-0.643,1.438-1.438,1.439
			c-0.796,0.001-1.441-0.643-1.442-1.438C112.626,67.268,112.626,67.267,112.626,67.266z M105.426,67.266
			c-0.001-0.798,0.646-1.441,1.438-1.442s1.44,0.643,1.442,1.438c0,0.001,0,0.002,0,0.004c0.001,0.795-0.646,1.438-1.438,1.439
			s-1.438-0.643-1.442-1.438C105.426,67.268,105.426,67.267,105.426,67.266z M112.626,60.066c-0.001-0.795,0.645-1.441,1.438-1.442
			s1.438,0.645,1.439,1.438c0,0.001,0,0.003,0,0.004c0.002,0.795-0.643,1.438-1.438,1.44c-0.796,0.001-1.441-0.644-1.442-1.438
			C112.626,60.069,112.626,60.067,112.626,60.066z M105.426,60.066c-0.001-0.795,0.646-1.441,1.438-1.442s1.44,0.645,1.442,1.438
			c0,0.001,0,0.003,0,0.004c0.001,0.795-0.646,1.438-1.438,1.44c-0.795,0.001-1.438-0.644-1.442-1.438
			C105.426,60.069,105.426,60.067,105.426,60.066z M127.71,79.613c0-2.188,1.773-3.96,3.96-3.96c2.188,0,3.96,1.771,3.96,3.96
			c0.002,2.188-1.77,3.962-3.957,3.963c-2.187,0.002-3.961-1.771-3.963-3.957C127.71,79.617,127.71,79.615,127.71,79.613
			L127.71,79.613z M122.869,45.276c-0.001-2.188,1.771-3.961,3.957-3.963c2.188-0.001,3.962,1.771,3.963,3.958
			c0,0.001,0,0.003,0,0.005c0.002,2.188-1.77,3.962-3.957,3.963c-2.188,0.002-3.961-1.771-3.963-3.957
			C122.869,45.28,122.869,45.278,122.869,45.276z M100.138,19.177c-0.002-2.188,1.77-3.962,3.957-3.963
			c2.187-0.002,3.961,1.771,3.963,3.957c0,0.002,0,0.004,0,0.006c0.001,2.188-1.771,3.963-3.958,3.965
			c-2.188,0.001-3.961-1.771-3.962-3.958C100.138,19.18,100.138,19.179,100.138,19.177z M49.61,129.83
			c-0.001-2.187,1.771-3.961,3.957-3.963c2.188-0.001,3.962,1.771,3.963,3.957c0,0.002,0,0.004,0,0.006
			c0.002,2.188-1.771,3.961-3.957,3.963s-3.961-1.771-3.963-3.957C49.61,129.834,49.61,129.832,49.61,129.83z M84.202,129.83
			c-0.002-2.187,1.771-3.961,3.957-3.963c2.188-0.001,3.961,1.771,3.963,3.957c0,0.002,0,0.004,0,0.006
			c0.002,2.188-1.771,3.961-3.957,3.963c-2.188,0.002-3.962-1.771-3.963-3.957C84.202,129.834,84.202,129.832,84.202,129.83z
			 M113.33,111.091c-0.001-2.187,1.771-3.961,3.957-3.963c2.188-0.001,3.962,1.771,3.963,3.958c0,0.002,0,0.003,0,0.005
			c0.002,2.188-1.77,3.962-3.957,3.965c-2.187,0.002-3.961-1.771-3.963-3.957C113.33,111.094,113.33,111.093,113.33,111.091z
			 M20.482,111.091c0-2.187,1.771-3.96,3.959-3.96c2.188,0,3.961,1.772,3.961,3.959c0,0.001,0,0.001,0,0.001
			c0,2.188-1.772,3.961-3.96,3.961C22.256,115.052,20.482,113.279,20.482,111.091C20.482,111.092,20.482,111.092,20.482,111.091z
			 M10.942,45.304c0-2.188,1.771-3.962,3.96-3.962c2.188,0,3.96,1.773,3.96,3.962c0.001,2.188-1.772,3.961-3.959,3.961
			C12.716,49.265,10.942,47.493,10.942,45.304C10.942,45.305,10.942,45.305,10.942,45.304z M33.702,19.177
			c-0.002-2.188,1.771-3.962,3.957-3.963c2.188-0.002,3.961,1.771,3.963,3.957c0,0.002,0,0.004,0,0.006
			c0.001,2.188-1.771,3.963-3.957,3.965c-2.188,0.001-3.962-1.771-3.963-3.958C33.702,19.18,33.702,19.179,33.702,19.177z
			 M66.906,9.439c-0.001-2.188,1.771-3.961,3.957-3.963c2.188-0.001,3.962,1.771,3.963,3.957c0,0.002,0,0.004,0,0.006
			c0.002,2.188-1.77,3.961-3.957,3.963c-2.187,0.002-3.961-1.771-3.963-3.957C66.906,9.443,66.906,9.441,66.906,9.439z
			 M5.988,79.641c0-2.188,1.771-3.96,3.96-3.961c2.187,0,3.96,1.771,3.961,3.96v0.001c0,2.188-1.771,3.96-3.96,3.961
			C7.761,83.602,5.989,81.83,5.988,79.641L5.988,79.641z"/>
		<g>
			<title>layer 21</title>
			<g>
				<title>text:a0/</title>
				<text transform="matrix(1 0 0 1 111.1335 50.1619)" fill="#FFFFFF" font-family="'OCRA'" font-size="3.3408">a0/</text>
			</g>
			<g>
				<title>text:11</title>
				<text transform="matrix(1 0 0 1 116.7312 79.6472)" fill="#FFFFFF" font-family="'OCRA'" font-size="4.176">11</text>
			</g>
			<g>
				<title>text:10</title>
				<text transform="matrix(1 0 0 1 105.5554 105.1257)" fill="#FFFFFF" font-family="'OCRA'" font-size="4.176">10</text>
			</g>
			<g>
				<title>text:9</title>
				<text transform="matrix(1 0 0 1 84.2175 119.4519)" fill="#FFFFFF" font-family="'OCRA'" font-size="4.176">9</text>
			</g>
			<g>
				<title>text:6</title>
				<text transform="matrix(1 0 0 1 55.5017 120.8113)" fill="#FFFFFF" font-family="'OCRA'" font-size="4.176">6</text>
			</g>
			<g>
				<title>text:+</title>
				<text transform="matrix(1 0 0 1 23.7542 52.407)" fill="#FFFFFF" font-family="'OCRA'" font-size="5.0112">+</text>
			</g>
			<g>
				<title>text:-</title>
				<text transform="matrix(1 0 0 1 42.0657 31.6257)" fill="#FFFFFF" font-family="'OCRA'" font-size="5.0112">-</text>
			</g>
			<g>
				<title>text:3</title>
				<text transform="matrix(1 0 0 1 18.9578 79.5681)" fill="#FFFFFF" font-family="'OCRA'" font-size="4.176">3</text>
			</g>
			<g>
				<title>text:5</title>
				<text transform="matrix(1 0 0 1 30.2737 103.5222)" fill="#FFFFFF" font-family="'OCRA'" font-size="4.176">5</text>
			</g>
			<g>
				<title>text:B</title>
				<text transform="matrix(1 0 0 1 51.533 59.8679)" fill="#FFFFFF" font-family="'OCRA'" font-size="4.176">B</text>
			</g>
			<g>
				<title>text:G</title>
				<text transform="matrix(1 0 0 1 87.5339 59.8679)" fill="#FFFFFF" font-family="'OCRA'" font-size="4.176">G</text>
			</g>
			<g>
				<title>text:14</title>
				<text transform="matrix(1 0 0 1 112.575 54.4812)" fill="#FFFFFF" font-family="'OCRA'" font-size="3.3408">14</text>
			</g>
			<g>
				<title>text:a1/</title>
				<text transform="matrix(1 0 0 1 92.4148 29.282)" fill="#FFFFFF" font-family="'OCRA'" font-size="3.3408">a1/</text>
			</g>
			<g>
				<title>text:15</title>
				<text transform="matrix(1 0 0 1 95.2947 33.6013)" fill="#FFFFFF" font-family="'OCRA'" font-size="3.3408">15</text>
			</g>
			<g>
				<title>text:a2/</title>
				<text transform="matrix(1 0 0 1 67.9338 22.8015)" fill="#FFFFFF" font-family="'OCRA'" font-size="3.3408">a2/</text>
			</g>
			<g>
				<title>text:16</title>
				<text transform="matrix(1 0 0 1 68.6541 27.1218)" fill="#FFFFFF" font-family="'OCRA'" font-size="3.3408">16</text>
			</g>
			<g>
				<title>text:On</title>
				<g transform="matrix(1, 0, 0, 1, 31.1244, 97.5686)">
					<g transform="rotate(-90)">
						<text transform="matrix(1 0 0 1 4.882812e-04 -6.103516e-04)" fill="#FFFFFF" font-family="'OCRA'" font-size="5.8464">On</text>
					</g>
				</g>
			</g>
			<g>
				<title>text:Off</title>
				<g transform="matrix(1, 0, 0, 1, 58.9039, 98.7026)">
					<g transform="rotate(-90)">
						<text transform="matrix(1 0 0 1 7.019043e-04 1.525879e-04)" fill="#FFFFFF" font-family="'OCRA'" font-size="5.8464">Off</text>
					</g>
				</g>
			</g>
			<g>
				<title>element:C1</title>
				<g>
					<title>package:0402-CAP</title>
					
						<line fill="none" stroke="#FFFFFF" stroke-width="1.152" stroke-linecap="round" x1="96.408" y1="68.089" x2="96.234" y2="68.089"/>
				</g>
			</g>
			<g>
				<title>element:C2</title>
				<g>
					<title>package:EIA3528</title>
					
						<line fill="none" stroke="#FFFFFF" stroke-width="0.576" stroke-linecap="round" x1="90.935" y1="98.135" x2="86.116" y2="98.135"/>
					
						<line fill="none" stroke="#FFFFFF" stroke-width="0.576" stroke-linecap="round" x1="86.116" y1="98.135" x2="86.116" y2="89.207"/>
					
						<line fill="none" stroke="#FFFFFF" stroke-width="0.576" stroke-linecap="round" x1="86.116" y1="89.207" x2="90.935" y2="89.207"/>
					
						<line fill="none" stroke="#FFFFFF" stroke-width="0.576" stroke-linecap="round" x1="96.322" y1="97.993" x2="99.722" y2="97.993"/>
					
						<line fill="none" stroke="#FFFFFF" stroke-width="0.576" stroke-linecap="round" x1="99.722" y1="97.993" x2="100.857" y2="97.002"/>
					
						<line fill="none" stroke="#FFFFFF" stroke-width="0.576" stroke-linecap="round" x1="100.857" y1="97.002" x2="100.857" y2="90.056"/>
					
						<line fill="none" stroke="#FFFFFF" stroke-width="0.576" stroke-linecap="round" x1="100.857" y1="90.056" x2="99.722" y2="89.207"/>
					
						<line fill="none" stroke="#FFFFFF" stroke-width="0.576" stroke-linecap="round" x1="99.722" y1="89.207" x2="96.322" y2="89.207"/>
					
						<line fill="none" stroke="#FFFFFF" stroke-width="0.576" stroke-linecap="round" x1="99.722" y1="89.207" x2="96.322" y2="89.207"/>
					
						<line fill="none" stroke="#FFFFFF" stroke-width="0.576" stroke-linecap="round" x1="95.213" y1="89.885" x2="95.213" y2="97.246"/>
				</g>
			</g>
			<g>
				<title>element:C3</title>
				<g>
					<title>package:0402-CAP</title>
					
						<line fill="none" stroke="#FFFFFF" stroke-width="1.152" stroke-linecap="round" x1="90.739" y1="68.089" x2="90.565" y2="68.089"/>
				</g>
			</g>
			<g>
				<title>element:C4</title>
				<g>
					<title>package:0402-CAP</title>
					
						<line fill="none" stroke="#FFFFFF" stroke-width="1.152" stroke-linecap="round" x1="96.234" y1="51.08" x2="96.408" y2="51.08"/>
				</g>
			</g>
			<g>
				<title>element:D2</title>
				<g>
					<title>package:LED-0603</title>
					
						<line fill="none" stroke="#FFFFFF" stroke-width="0.576" stroke-linecap="round" x1="93.005" y1="83.792" x2="93.005" y2="85.096"/>
					
						<line fill="none" stroke="#FFFFFF" stroke-width="0.576" stroke-linecap="round" x1="93.005" y1="86.4" x2="93.005" y2="85.096"/>
					
						<line fill="none" stroke="#FFFFFF" stroke-width="0.576" stroke-linecap="round" x1="93.005" y1="85.096" x2="93.884" y2="84.433"/>
					
						<line fill="none" stroke="#FFFFFF" stroke-width="0.576" stroke-linecap="round" x1="93.049" y1="85.168" x2="93.884" y2="85.716"/>
				</g>
			</g>
			<g>
				<title>element:JP2</title>
				<g>
					<title>package:1X06-SMD</title>
				</g>
			</g>
			<g>
				<title>element:JP3</title>
				<g>
					<title>package:2X3-NS</title>
				</g>
			</g>
			<g>
				<title>element:R1</title>
				<g>
					<title>package:0402-RES</title>
				</g>
			</g>
			<g>
				<title>element:R3</title>
				<g>
					<title>package:0402-RES</title>
				</g>
			</g>
			<g>
				<title>element:S1</title>
				<g>
					<title>package:TACTILE_SWITCH_SMD</title>
					
						<line fill="none" stroke="#FFFFFF" stroke-width="0.576" stroke-linecap="round" x1="36.113" y1="38.211" x2="43.228" y2="38.211"/>
					
						<line fill="none" stroke="#FFFFFF" stroke-width="0.576" stroke-linecap="round" x1="46.829" y1="41.046" x2="46.829" y2="49.776"/>
					
						<line fill="none" stroke="#FFFFFF" stroke-width="0.576" stroke-linecap="round" x1="43.143" y1="52.611" x2="36.113" y2="52.611"/>
					
						<line fill="none" stroke="#FFFFFF" stroke-width="0.576" stroke-linecap="round" x1="32.428" y1="49.776" x2="32.428" y2="41.046"/>
					<circle fill="none" stroke="#FFFFFF" stroke-width="0.576" cx="39.629" cy="45.411" r="3.6"/>
				</g>
			</g>
			<g>
				<title>element:S2</title>
				<g>
					<title>package:AYZ0202</title>
					
						<line fill="none" stroke="#FFFFFF" stroke-width="0.576" stroke-linecap="round" x1="32.259" y1="88.639" x2="32.259" y2="98.56"/>
					
						<line fill="none" stroke="#FFFFFF" stroke-width="0.576" stroke-linecap="round" x1="32.259" y1="98.56" x2="52.668" y2="98.56"/>
					
						<line fill="none" stroke="#FFFFFF" stroke-width="0.576" stroke-linecap="round" x1="52.668" y1="98.56" x2="52.668" y2="88.639"/>
					
						<line fill="none" stroke="#FFFFFF" stroke-width="0.576" stroke-linecap="round" x1="52.668" y1="88.639" x2="32.259" y2="88.639"/>
				</g>
			</g>
			<g>
				<title>element:TP-DTR</title>
				<g>
					<title>package:PAD.03X.05</title>
				</g>
			</g>
			<g>
				<title>element:TP-RAW</title>
				<g>
					<title>package:PAD.03X.05</title>
				</g>
			</g>
			<g>
				<title>element:TP-RX</title>
				<g>
					<title>package:PAD.03X.05</title>
				</g>
			</g>
			<g>
				<title>element:TP-TX</title>
				<g>
					<title>package:PAD.03X.05</title>
				</g>
			</g>
			<g>
				<title>element:U$1</title>
				<g>
					<title>package:LOGO-LPA</title>
					
						<line fill="none" stroke="#FFFFFF" stroke-width="0.576" stroke-linecap="round" x1="60.123" y1="112.308" x2="60.123" y2="106.356"/>
					<path fill="none" stroke="#FFFFFF" stroke-width="0.576" d="M61.824,104.939c-0.861-0.078-1.623,0.556-1.701,1.417"/>
					<path fill="none" stroke="#FFFFFF" stroke-width="0.576" d="M63.524,106.356c-0.078-0.861-0.84-1.495-1.7-1.417"/>
					
						<line fill="none" stroke="#FFFFFF" stroke-width="0.576" stroke-linecap="round" x1="63.524" y1="106.356" x2="63.524" y2="106.923"/>
					<path fill="none" stroke="#FFFFFF" stroke-width="0.576" d="M62.107,108.199c0.743,0.039,1.378-0.532,1.417-1.276"/>
					
						<line fill="none" stroke="#FFFFFF" stroke-width="0.576" stroke-linecap="round" x1="62.107" y1="108.199" x2="61.257" y2="108.199"/>
					<path fill="none" stroke="#FFFFFF" stroke-width="0.576" d="M63.383,112.308c0.55-0.079,0.931-0.586,0.853-1.137"/>
					
						<line fill="none" stroke="#FFFFFF" stroke-width="0.576" stroke-linecap="round" x1="63.383" y1="112.308" x2="62.816" y2="112.308"/>
					<path fill="none" stroke="#FFFFFF" stroke-width="0.576" d="M61.682,110.892c-0.078,0.704,0.43,1.337,1.134,1.416"/>
					<path fill="none" stroke="#FFFFFF" stroke-width="0.576" d="M62.816,109.474c-0.705,0.076-1.213,0.713-1.135,1.417
						c0,0,0,0,0.001,0.001"/>
					
						<line fill="none" stroke="#FFFFFF" stroke-width="0.576" stroke-linecap="round" x1="62.816" y1="109.474" x2="63.099" y2="109.474"/>
					<path fill="none" stroke="#FFFFFF" stroke-width="0.576" d="M64.233,110.608c0-0.626-0.508-1.134-1.134-1.134l0,0"/>
					
						<line fill="none" stroke="#FFFFFF" stroke-width="0.576" stroke-linecap="round" x1="64.233" y1="110.608" x2="64.233" y2="111.174"/>
					<path fill="none" stroke="#FFFFFF" stroke-width="0.576" d="M64.233,111.174c-0.117,0.511,0.199,1.019,0.708,1.137h0.001"/>
					<path fill="none" stroke="#FFFFFF" stroke-width="0.576" d="M64.942,112.308c0.43,0.115,0.874-0.138,0.992-0.566"/>
					
						<line fill="none" stroke="#FFFFFF" stroke-width="0.576" stroke-linecap="round" x1="65.934" y1="111.742" x2="65.934" y2="111.6"/>
					
						<line fill="none" stroke="#FFFFFF" stroke-width="0.576" stroke-linecap="round" x1="65.934" y1="111.6" x2="65.934" y2="110.892"/>
					<path fill="none" stroke="#FFFFFF" stroke-width="0.576" d="M67.21,109.474c-0.744,0.039-1.313,0.674-1.273,1.417
						c0,0,0,0,0,0.001"/>
					<path fill="none" stroke="#FFFFFF" stroke-width="0.576" d="M68.485,111.033c0.078-0.782-0.493-1.48-1.275-1.559"/>
					<path fill="none" stroke="#FFFFFF" stroke-width="0.576" d="M68.485,111.6c0.047-0.188,0.047-0.383,0-0.567"/>
					<path fill="none" stroke="#FFFFFF" stroke-width="0.576" d="M67.635,112.45c0.421-0.104,0.746-0.432,0.853-0.85"/>
					<path fill="none" stroke="#FFFFFF" stroke-width="0.576" d="M65.934,111.6c0.232,0.704,0.996,1.085,1.698,0.85"/>
					
						<line fill="none" stroke="#FFFFFF" stroke-width="0.576" stroke-linecap="round" x1="68.485" y1="111.6" x2="68.485" y2="111.884"/>
					<path fill="none" stroke="#FFFFFF" stroke-width="0.576" d="M68.485,111.884c0,0.313,0.254,0.566,0.564,0.566"/>
					<path fill="none" stroke="#FFFFFF" stroke-width="0.576" d="M69.052,112.45c0.313,0,0.566-0.253,0.567-0.566"/>
					
						<line fill="none" stroke="#FFFFFF" stroke-width="0.576" stroke-linecap="round" x1="68.485" y1="111.316" x2="68.485" y2="105.647"/>
					<path fill="none" stroke="#FFFFFF" stroke-width="0.576" d="M72.879,106.356c0.393,1.879,2.231,3.084,4.11,2.69l0,0"/>
					<path fill="none" stroke="#FFFFFF" stroke-width="0.576" d="M82.516,112.308c0.392,0,0.709-0.317,0.709-0.708"/>
					
						<line fill="none" stroke="#FFFFFF" stroke-width="0.576" stroke-linecap="round" x1="83.225" y1="111.6" x2="83.225" y2="111.458"/>
					
						<line fill="none" stroke="#FFFFFF" stroke-width="0.576" stroke-linecap="round" x1="83.225" y1="111.458" x2="83.225" y2="110.75"/>
					<path fill="none" stroke="#FFFFFF" stroke-width="0.576" d="M84.501,109.474c-0.705,0-1.273,0.569-1.273,1.273"/>
					<path fill="none" stroke="#FFFFFF" stroke-width="0.576" d="M85.776,110.892c0.04-0.744-0.531-1.379-1.274-1.418
						c-0.001,0-0.001,0-0.001,0"/>
					<path fill="none" stroke="#FFFFFF" stroke-width="0.576" d="M85.776,111.458c0.047-0.186,0.047-0.38,0-0.563"/>
					<path fill="none" stroke="#FFFFFF" stroke-width="0.576" d="M84.927,112.308c0.42-0.105,0.745-0.434,0.852-0.853"/>
					<path fill="none" stroke="#FFFFFF" stroke-width="0.576" d="M83.225,111.458c0.233,0.704,0.996,1.085,1.699,0.853"/>
					
						<line fill="none" stroke="#FFFFFF" stroke-width="0.576" stroke-linecap="round" x1="85.776" y1="111.458" x2="85.776" y2="111.742"/>
					<path fill="none" stroke="#FFFFFF" stroke-width="0.576" d="M85.776,111.742c0.079,0.391,0.46,0.645,0.851,0.566"/>
					<path fill="none" stroke="#FFFFFF" stroke-width="0.576" d="M86.627,112.308c0.312-0.001,0.566-0.254,0.566-0.566"/>
					
						<line fill="none" stroke="#FFFFFF" stroke-width="0.576" stroke-linecap="round" x1="85.776" y1="111.174" x2="85.776" y2="105.505"/>
					<path fill="none" stroke="#FFFFFF" stroke-width="0.576" d="M97.824,109.758c-0.704,0.079-1.212,0.712-1.135,1.416"/>
					
						<line fill="none" stroke="#FFFFFF" stroke-width="0.576" stroke-linecap="round" x1="97.824" y1="109.758" x2="98.107" y2="109.758"/>
					<path fill="none" stroke="#FFFFFF" stroke-width="0.576" d="M99.241,110.892c0-0.627-0.507-1.137-1.134-1.137l0,0"/>
					
						<line fill="none" stroke="#FFFFFF" stroke-width="0.576" stroke-linecap="round" x1="99.241" y1="111.174" x2="99.241" y2="110.892"/>
					<path fill="none" stroke="#FFFFFF" stroke-width="0.576" d="M98.107,112.45c0.665-0.039,1.173-0.61,1.134-1.275
						c0,0,0,0,0-0.001"/>
					
						<line fill="none" stroke="#FFFFFF" stroke-width="0.576" stroke-linecap="round" x1="97.824" y1="112.45" x2="98.107" y2="112.45"/>
					<path fill="none" stroke="#FFFFFF" stroke-width="0.576" d="M96.689,111.174c-0.039,0.666,0.468,1.237,1.134,1.276
						c0,0,0,0,0.001,0"/>
					<path fill="none" stroke="#FFFFFF" stroke-width="0.576" d="M97.399,109.899c0.156,0.858,0.979,1.432,1.842,1.272"/>
					
						<line fill="none" stroke="#FFFFFF" stroke-width="0.576" stroke-linecap="round" x1="99.241" y1="111.174" x2="99.099" y2="111.174"/>
					<path fill="none" stroke="#FFFFFF" stroke-width="0.576" d="M99.099,111.174c0.587,0.117,1.155-0.263,1.272-0.85"/>
					
						<line fill="none" stroke="#FFFFFF" stroke-width="0.576" stroke-linecap="round" x1="100.374" y1="110.324" x2="100.374" y2="109.899"/>
					<path fill="none" stroke="#FFFFFF" stroke-width="0.576" d="M96.123,112.308c0.393-0.079,0.646-0.459,0.566-0.853"/>
					
						<line fill="none" stroke="#FFFFFF" stroke-width="0.576" stroke-linecap="round" x1="95.697" y1="112.308" x2="96.123" y2="112.308"/>
					<path fill="none" stroke="#FFFFFF" stroke-width="0.576" d="M95.272,111.6c-0.077,0.312,0.11,0.629,0.425,0.708"/>
					
						<line fill="none" stroke="#FFFFFF" stroke-width="0.576" stroke-linecap="round" x1="95.272" y1="110.466" x2="95.272" y2="111.6"/>
					<path fill="none" stroke="#FFFFFF" stroke-width="0.576" d="M95.272,110.466c-0.039-0.43-0.42-0.747-0.852-0.708"/>
					
						<line fill="none" stroke="#FFFFFF" stroke-width="0.576" stroke-linecap="round" x1="93.997" y1="109.758" x2="94.423" y2="109.758"/>
					<path fill="none" stroke="#FFFFFF" stroke-width="0.576" d="M93.997,109.758c-0.47,0-0.851,0.383-0.851,0.853"/>
					
						<line fill="none" stroke="#FFFFFF" stroke-width="0.576" stroke-linecap="round" x1="93.146" y1="111.458" x2="93.146" y2="109.474"/>
					
						<line fill="none" stroke="#FFFFFF" stroke-width="0.576" stroke-linecap="round" x1="93.146" y1="111.458" x2="93.146" y2="110.608"/>
					<path fill="none" stroke="#FFFFFF" stroke-width="0.576" d="M92.296,112.308c0.472,0,0.853-0.383,0.853-0.853"/>
					<path fill="none" stroke="#FFFFFF" stroke-width="0.576" d="M91.162,111.174c0,0.627,0.508,1.137,1.134,1.137l0,0"/>
					
						<line fill="none" stroke="#FFFFFF" stroke-width="0.576" stroke-linecap="round" x1="91.162" y1="111.033" x2="91.162" y2="109.758"/>
					
						<line fill="none" stroke="#FFFFFF" stroke-width="0.576" stroke-linecap="round" x1="91.162" y1="111.033" x2="91.162" y2="111.174"/>
					
						<line fill="none" stroke="#FFFFFF" stroke-width="0.576" stroke-linecap="round" x1="91.162" y1="111.458" x2="91.162" y2="111.033"/>
					<path fill="none" stroke="#FFFFFF" stroke-width="0.576" d="M90.312,112.308c0.469,0,0.85-0.383,0.85-0.853"/>
					
						<line fill="none" stroke="#FFFFFF" stroke-width="0.576" stroke-linecap="round" x1="89.462" y1="111.174" x2="89.462" y2="109.758"/>
					<path fill="none" stroke="#FFFFFF" stroke-width="0.576" d="M89.462,111.174c-0.078,0.551,0.304,1.058,0.853,1.137"/>
					
						<line fill="none" stroke="#FFFFFF" stroke-width="0.576" stroke-linecap="round" x1="87.193" y1="111.458" x2="87.193" y2="109.758"/>
					<path fill="none" stroke="#FFFFFF" stroke-width="0.576" d="M87.193,111.458c0.118,0.587,0.688,0.968,1.274,0.853l0,0"/>
					<path fill="none" stroke="#FFFFFF" stroke-width="0.576" d="M88.469,112.308c0.589-0.039,1.031-0.549,0.992-1.136v-0.001"/>
					
						<line fill="none" stroke="#FFFFFF" stroke-width="0.576" stroke-linecap="round" x1="81.099" y1="110.041" x2="81.666" y2="110.041"/>
					<path fill="none" stroke="#FFFFFF" stroke-width="0.576" d="M79.399,108.624c0.078,0.861,0.84,1.495,1.7,1.417"/>
					
						<line fill="none" stroke="#FFFFFF" stroke-width="0.576" stroke-linecap="round" x1="79.399" y1="111.458" x2="79.399" y2="108.624"/>
					<path fill="none" stroke="#FFFFFF" stroke-width="0.576" d="M78.264,112.308c0.548,0.076,1.056-0.305,1.135-0.853"/>
					<path fill="none" stroke="#FFFFFF" stroke-width="0.576" d="M77.131,111.174c0,0.627,0.51,1.137,1.136,1.137l0,0"/>
					
						<line fill="none" stroke="#FFFFFF" stroke-width="0.576" stroke-linecap="round" x1="76.847" y1="106.639" x2="77.131" y2="111.174"/>
					<path fill="none" stroke="#FFFFFF" stroke-width="0.576" d="M76.847,106.639c-0.001-0.939-0.764-1.7-1.701-1.7"/>
					
						<line fill="none" stroke="#FFFFFF" stroke-width="0.576" stroke-linecap="round" x1="74.863" y1="104.939" x2="75.146" y2="104.939"/>
					
						<line fill="none" stroke="#FFFFFF" stroke-width="0.576" stroke-linecap="round" x1="74.863" y1="108.624" x2="74.863" y2="104.939"/>
					<path fill="none" stroke="#FFFFFF" stroke-width="0.576" d="M69.194,114.718c3.248-0.115,5.786-2.846,5.669-6.094"/>
					
						<line fill="none" stroke="#FFFFFF" stroke-width="0.576" stroke-linecap="round" x1="81.666" y1="110.041" x2="81.666" y2="111.6"/>
					<path fill="none" stroke="#FFFFFF" stroke-width="0.576" d="M81.666,111.6c0.001,0.391,0.317,0.708,0.709,0.708"/>
					
						<line fill="none" stroke="#FFFFFF" stroke-width="0.576" stroke-linecap="round" x1="50.06" y1="108.907" x2="50.06" y2="108.765"/>
					
						<line fill="none" stroke="#FFFFFF" stroke-width="0.576" stroke-linecap="round" x1="91.162" y1="108.765" x2="91.162" y2="108.907"/>
					<path fill="none" stroke="#FFFFFF" stroke-width="0.576" d="M44.107,103.946c0,2.035,1.647,3.685,3.685,3.685l0,0"/>
					
						<line fill="none" stroke="#FFFFFF" stroke-width="0.576" stroke-linecap="round" x1="47.792" y1="107.631" x2="48.218" y2="107.631"/>
					<path fill="none" stroke="#FFFFFF" stroke-width="0.576" d="M48.218,107.631c1.059,0.039,1.944-0.783,1.984-1.842"/>
					<path fill="none" stroke="#FFFFFF" stroke-width="0.576" d="M50.202,105.789c-0.001-0.47-0.381-0.85-0.851-0.85"/>
					<path fill="none" stroke="#FFFFFF" stroke-width="0.576" d="M46.375,111.174c-0.272-1.213-1.479-1.974-2.69-1.697"/>
					
						<line fill="none" stroke="#FFFFFF" stroke-width="0.576" stroke-linecap="round" x1="49.068" y1="104.939" x2="49.351" y2="104.939"/>
					<path fill="none" stroke="#FFFFFF" stroke-width="0.576" d="M49.068,104.939c-1.096,0-1.984,0.888-1.984,1.981"/>
					<path fill="none" stroke="#FFFFFF" stroke-width="0.576" d="M43.682,109.474c-0.822,0.115-1.396,0.878-1.276,1.697"/>
					
						<line fill="none" stroke="#FFFFFF" stroke-width="0.576" stroke-linecap="round" x1="47.084" y1="108.907" x2="47.084" y2="106.923"/>
					<path fill="none" stroke="#FFFFFF" stroke-width="0.576" d="M43.682,112.308c1.878,0,3.398-1.523,3.399-3.401"/>
					<path fill="none" stroke="#FFFFFF" stroke-width="0.576" d="M42.406,111.174c0.039,0.666,0.61,1.176,1.275,1.137
						c0,0,0,0,0.001,0"/>
					<path fill="none" stroke="#FFFFFF" stroke-width="0.576" d="M47.084,112.167c1.135,0.509,2.468,0.001,2.978-1.134
						c0.001,0,0.001,0,0.001,0"/>
					
						<line fill="none" stroke="#FFFFFF" stroke-width="0.576" stroke-linecap="round" x1="50.06" y1="110.608" x2="50.06" y2="109.758"/>
					
						<line fill="none" stroke="#FFFFFF" stroke-width="0.576" stroke-linecap="round" x1="50.06" y1="110.608" x2="50.06" y2="111.033"/>
					
						<line fill="none" stroke="#FFFFFF" stroke-width="0.576" stroke-linecap="round" x1="52.753" y1="110.324" x2="52.753" y2="105.647"/>
					<path fill="none" stroke="#FFFFFF" stroke-width="0.576" d="M50.06,110.608c-0.117,0.821,0.453,1.582,1.273,1.7"/>
					<path fill="none" stroke="#FFFFFF" stroke-width="0.576" d="M51.336,112.308c0.792-0.102,1.396-0.763,1.417-1.561"/>
					<path fill="none" stroke="#FFFFFF" stroke-width="0.576" d="M52.753,110.75c0.013-0.142,0.013-0.284,0-0.426"/>
					
						<line fill="none" stroke="#FFFFFF" stroke-width="0.576" stroke-linecap="round" x1="52.753" y1="110.892" x2="52.753" y2="110.75"/>
					<path fill="none" stroke="#FFFFFF" stroke-width="0.576" d="M52.753,110.892c0.001,0.78,0.637,1.416,1.417,1.416"/>
					<path fill="none" stroke="#FFFFFF" stroke-width="0.576" d="M54.17,112.308c0.782,0,1.417-0.636,1.418-1.416"/>
					
						<line fill="none" stroke="#FFFFFF" stroke-width="0.576" stroke-linecap="round" x1="55.588" y1="110.892" x2="55.588" y2="109.191"/>
					<path fill="none" stroke="#FFFFFF" stroke-width="0.576" d="M55.588,110.892c0,0.78,0.637,1.416,1.417,1.416"/>
					<path fill="none" stroke="#FFFFFF" stroke-width="0.576" d="M59.272,117.127c-0.156-2.035-1.936-3.558-3.969-3.398"/>
					<path fill="none" stroke="#FFFFFF" stroke-width="0.576" d="M57.005,112.308c0.782,0,1.417-0.636,1.417-1.416"/>
					
						<line fill="none" stroke="#FFFFFF" stroke-width="0.576" stroke-linecap="round" x1="58.422" y1="110.892" x2="58.422" y2="109.191"/>
					
						<line fill="none" stroke="#FFFFFF" stroke-width="0.576" stroke-linecap="round" x1="58.422" y1="113.159" x2="58.422" y2="110.892"/>
					
						<line fill="none" stroke="#FFFFFF" stroke-width="0.576" stroke-linecap="round" x1="54.737" y1="113.726" x2="55.303" y2="113.726"/>
					<path fill="none" stroke="#FFFFFF" stroke-width="0.576" d="M54.737,113.726c-0.939,0-1.701,0.761-1.701,1.698l0,0"/>
					<path fill="none" stroke="#FFFFFF" stroke-width="0.576" d="M54.737,116.844c2.035,0,3.685-1.647,3.685-3.685"/>
					
						<line fill="none" stroke="#FFFFFF" stroke-width="0.576" stroke-linecap="round" x1="54.454" y1="116.844" x2="54.737" y2="116.844"/>
					<path fill="none" stroke="#FFFFFF" stroke-width="0.576" d="M53.036,115.427c0,0.783,0.635,1.417,1.418,1.417"/>
					<path fill="none" stroke="#FFFFFF" stroke-width="0.576" d="M46.375,111.174c0.156,0.783,0.918,1.291,1.701,1.137l0,0"/>
				</g>
			</g>
			<g>
				<title>element:U$4</title>
				<g>
					<title>package:PETAL-LONG-1</title>
				</g>
			</g>
			<g>
				<title>element:U$31</title>
				<g>
					<title>package:PETAL-LONG-1</title>
				</g>
			</g>
			<g>
				<title>element:U$33</title>
				<g>
					<title>package:PETAL-LONG-1</title>
				</g>
			</g>
			<g>
				<title>element:U$35</title>
				<g>
					<title>package:PETAL-LONG-1</title>
				</g>
			</g>
			<g>
				<title>element:U$37</title>
				<g>
					<title>package:PETAL-LONG-1</title>
				</g>
			</g>
			<g>
				<title>element:U$39</title>
				<g>
					<title>package:PETAL-LONG-1</title>
				</g>
			</g>
			<g>
				<title>element:U$41</title>
				<g>
					<title>package:PETAL-LONG-1</title>
				</g>
			</g>
			<g>
				<title>element:U$43</title>
				<g>
					<title>package:PETAL-LONG-1</title>
				</g>
			</g>
			<g>
				<title>element:U$45</title>
				<g>
					<title>package:PETAL-LONG-1</title>
				</g>
			</g>
			<g>
				<title>element:U$47</title>
				<g>
					<title>package:PETAL-LONG-1</title>
				</g>
			</g>
			<g>
				<title>element:U$51</title>
				<g>
					<title>package:PETAL-LONG-1</title>
				</g>
			</g>
			<g>
				<title>element:U1</title>
				<g>
					<title>package:TQFP32-08</title>
					
						<line fill="none" stroke="#FFFFFF" stroke-width="0.432" stroke-linecap="round" x1="80.802" y1="60.93" x2="80.802" y2="80.802"/>
					
						<line fill="none" stroke="#FFFFFF" stroke-width="0.432" stroke-linecap="round" x1="80.802" y1="80.802" x2="60.93" y2="80.802"/>
					
						<line fill="none" stroke="#FFFFFF" stroke-width="0.432" stroke-linecap="round" x1="60.93" y1="80.802" x2="60.93" y2="61.937"/>
					
						<line fill="none" stroke="#FFFFFF" stroke-width="0.432" stroke-linecap="round" x1="61.937" y1="60.93" x2="80.802" y2="60.93"/>
					
						<line fill="none" stroke="#FFFFFF" stroke-width="0.432" stroke-linecap="round" x1="61.937" y1="60.93" x2="60.93" y2="61.937"/>
					<circle fill="none" stroke="#FFFFFF" stroke-width="0.432" cx="63.091" cy="63.09" r="1.018"/>
				</g>
			</g>
			<g>
				<title>element:Y1</title>
				<g>
					<title>package:RESONATOR-SMD</title>
					
						<line fill="none" stroke="#FFFFFF" stroke-width="0.576" stroke-linecap="round" x1="52.809" y1="82.26" x2="49.125" y2="82.26"/>
					
						<line fill="none" stroke="#FFFFFF" stroke-width="0.576" stroke-linecap="round" x1="49.125" y1="72.056" x2="52.809" y2="72.056"/>
				</g>
			</g>
		</g>
		<rect x="86.116" y="89.207" fill="#FFFFFF" fill-opacity="0.15" width="14.74" height="8.929"/>
		<rect x="93.005" y="83.792" fill="#FFFFFF" fill-opacity="0.15" width="0.879" height="2.608"/>
		<rect x="92.911" y="78.419" fill="#FFFFFF" fill-opacity="0.15" width="1.152" height="2.018"/>
		<rect x="101.415" y="50.072" fill="#FFFFFF" fill-opacity="0.15" width="1.152" height="2.017"/>
		<rect x="60.93" y="60.93" fill="#FFFFFF" fill-opacity="0.15" width="19.869" height="19.869"/>
		<rect x="49.125" y="72.056" fill="#FFFFFF" fill-opacity="0.15" width="3.687" height="10.203"/>
		<g>
			<g>
				<path fill="#FFFFFF" d="M78.175,7.076l-0.003-0.028c-0.001-0.009-0.003-0.019-0.005-0.026l-0.242-1.099
					c-0.002-0.01-0.004-0.02-0.008-0.027c-0.002-0.01-0.005-0.018-0.008-0.023L77.5,4.823l-0.012-0.026
					c-0.004-0.008-0.009-0.016-0.013-0.022l-0.569-0.969c-0.005-0.01-0.01-0.019-0.016-0.025c-0.007-0.007-0.013-0.014-0.018-0.021
					l-0.71-0.868c-0.007-0.01-0.013-0.017-0.02-0.022c-0.006-0.006-0.015-0.013-0.021-0.019l-0.841-0.747
					c-0.008-0.009-0.016-0.016-0.023-0.021c-0.007-0.005-0.014-0.01-0.021-0.015L74.29,1.462c-0.007-0.005-0.015-0.01-0.021-0.014
					c-0.01-0.004-0.019-0.008-0.025-0.012l-1.029-0.451c-0.009-0.004-0.018-0.007-0.024-0.011c-0.009-0.003-0.02-0.007-0.026-0.009
					l-1.088-0.282c-0.008-0.002-0.017-0.004-0.025-0.008c-0.01-0.002-0.02-0.003-0.027-0.004L70.9,0.564
					c-0.012-0.001-0.034,0.001-0.034-0.002c0.001,0.004-0.022,0.001-0.034,0.002l-1.118,0.108c-0.009,0.001-0.019,0.002-0.026,0.004
					c-0.011,0.003-0.02,0.005-0.026,0.008l-1.088,0.282c-0.008,0.002-0.017,0.006-0.026,0.009c-0.009,0.003-0.018,0.007-0.025,0.011
					L67.49,1.437c-0.008,0.004-0.017,0.008-0.025,0.012c-0.008,0.004-0.016,0.009-0.021,0.014l-0.947,0.605
					c-0.007,0.005-0.015,0.01-0.021,0.016c-0.01,0.006-0.017,0.014-0.022,0.021l-0.84,0.747c-0.007,0.006-0.014,0.013-0.021,0.02
					c-0.006,0.006-0.012,0.013-0.018,0.021L64.861,3.76L64.845,3.78c-0.007,0.009-0.013,0.018-0.018,0.027L64.26,4.774
					c-0.005,0.008-0.01,0.016-0.014,0.022c-0.004,0.01-0.008,0.019-0.011,0.025l-0.41,1.046c-0.004,0.009-0.007,0.021-0.01,0.029
					c-0.002,0.008-0.004,0.017-0.006,0.022L63.568,7.02c-0.002,0.009-0.003,0.018-0.005,0.025c-0.002,0.011-0.002,0.021-0.002,0.028
					l-0.067,1.122c-0.001,0.012-0.001,0.023,0,0.036c0.001,0.012,0.001,0.022,0.004,0.036l1.7,11.331
					c0.002,0.012,0.004,0.022,0.008,0.036c0,0.002,0,0.002,0,0.003l0,0c0.006,0.021,0.017,0.042,0.025,0.061l0,0l0,0
					c0,0,0,0,0,0.001l0,0c0.011,0.021,0.023,0.039,0.041,0.056l0.001,0.001c0.011,0.013,0.021,0.021,0.035,0.031
					c0.029,0.023,0.062,0.039,0.1,0.048c0.032,0.011,0.067,0.013,0.104,0.01l0,0c0.016-0.003,0.028-0.006,0.045-0.01l0,0
					c0.023-0.006,0.049-0.017,0.068-0.027c0.021-0.014,0.04-0.026,0.06-0.044l0,0l0,0c0.007-0.009,0.014-0.017,0.021-0.022
					l0.653-0.792l0.755-0.663l0.852-0.535l0.927-0.391l0.976-0.239l1.002-0.08l1.002,0.08l0.978,0.239l0.926,0.391l0.851,0.535
					l0.756,0.663l0.654,0.792c0.006,0.008,0.014,0.016,0.021,0.023c0,0,0,0,0.002,0l0,0c0.019,0.018,0.037,0.031,0.06,0.045h0.001
					l0,0c0,0,0,0,0.001,0c0.022,0.012,0.047,0.021,0.072,0.026c0.01,0.002,0.02,0.004,0.029,0.005
					c0.014,0.001,0.024,0.004,0.036,0.004c0.026,0,0.054-0.005,0.076-0.012c0.038-0.01,0.075-0.027,0.107-0.056
					c0.029-0.025,0.055-0.056,0.071-0.089c0.003-0.005,0.001-0.001,0.001-0.002l0,0c0.009-0.018,0.016-0.033,0.021-0.052l0,0
					c0,0,0,0,0-0.002c0,0,0,0,0-0.001c0.004-0.012,0.006-0.022,0.008-0.035l1.699-11.331c0.002-0.014,0.003-0.023,0.004-0.036
					c0-0.014,0-0.024-0.001-0.036L78.175,7.076z M74.826,9.439c0.002,2.188-1.77,3.961-3.957,3.963
					c-2.187,0.002-3.961-1.771-3.963-3.957V9.439c-0.001-2.188,1.771-3.961,3.957-3.963c2.188-0.001,3.962,1.771,3.963,3.957V9.439z
					 M95.847,130.102c-0.001-0.011-0.002-0.02-0.005-0.027c-0.002-0.008-0.003-0.019-0.006-0.027l-0.251-1.096
					c-0.003-0.012-0.006-0.021-0.01-0.034c-0.004-0.012-0.009-0.021-0.014-0.033l-4.812-10.396l-0.009-0.02c0,0,0-0.001-0.001-0.001
					c-0.016-0.026-0.035-0.054-0.059-0.073c0,0,0,0-0.001,0c-0.017-0.016-0.03-0.025-0.05-0.035c0,0-0.001,0-0.001-0.001
					c-0.013-0.007-0.023-0.015-0.039-0.021c-0.032-0.013-0.067-0.02-0.104-0.02c-0.052-0.012-0.08,0.008-0.119,0.023
					c-0.006,0.005-0.013,0.008-0.019,0.012h0.001c0,0.001,0,0.001,0,0.001c-0.026,0.014-0.051,0.032-0.069,0.053
					c-0.001,0.001-0.001,0.001-0.001,0.001c-0.018,0.019-0.032,0.039-0.045,0.062c0,0.001,0,0.001,0,0.001
					c-0.004,0.008-0.008,0.016-0.011,0.021l-0.406,0.943l-0.538,0.848l-0.667,0.752l-0.778,0.636l-0.869,0.503l-0.938,0.358
					l-0.984,0.203l-1.003,0.044l-0.998-0.115l-0.967-0.271l-0.911-0.427l-0.852-0.575c0,0,0-0.001-0.001-0.001
					c-0.002-0.002-0.005-0.004-0.008-0.007c-0.003-0.001-0.003-0.001-0.003-0.001s0,0-0.001,0v-0.001c-0.001,0-0.001,0-0.001,0
					c-0.031-0.021-0.067-0.031-0.104-0.036c-0.001-0.001-0.001-0.001-0.002-0.001c0,0,0,0-0.001,0s-0.001,0-0.001,0
					c-0.011-0.004-0.021-0.004-0.031-0.005c0,0,0,0-0.001,0c0,0,0,0-0.001,0s-0.001,0-0.001,0c-0.012,0-0.04,0.001-0.061,0.007
					c-0.034,0.007-0.065,0.019-0.096,0.034c-0.035,0.021-0.064,0.052-0.091,0.086c-0.023,0.036-0.04,0.076-0.046,0.116
					c0,0.001,0,0.001-0.001,0.001c-0.001,0.014-0.003,0.024-0.003,0.036c0,0.019,0.001,0.033,0.003,0.049l1.549,11.354
					c0.001,0.012,0.003,0.021,0.006,0.035c0.003,0.012,0.008,0.021,0.013,0.032l0.38,1.062c0.002,0.008,0.006,0.016,0.009,0.021
					c0.004,0.012,0.009,0.021,0.014,0.026l0.539,0.985c0.004,0.008,0.009,0.016,0.016,0.022c0.005,0.008,0.011,0.017,0.017,0.022
					l0.687,0.889c0.008,0.008,0.015,0.018,0.021,0.022s0.013,0.013,0.019,0.019l0.818,0.772c0.007,0.007,0.014,0.013,0.021,0.019
					s0.015,0.012,0.021,0.019l0.928,0.633c0.008,0.006,0.018,0.011,0.023,0.016s0.017,0.009,0.023,0.013l1.019,0.48
					c0.008,0.004,0.015,0.007,0.021,0.011c0.013,0.004,0.021,0.007,0.03,0.01l1.078,0.314c0.01,0.002,0.019,0.005,0.028,0.007
					c0.009,0.002,0.018,0.003,0.023,0.004l1.115,0.146c0.015,0.001,0.03,0.002,0.042,0.003h0.014l1.123-0.033
					c0.02,0,0.036-0.002,0.058-0.006l1.103-0.208c0.013-0.002,0.024-0.005,0.037-0.009c0.01-0.003,0.02-0.006,0.028-0.013
					l1.043-0.42c0.008-0.003,0.016-0.006,0.021-0.01c0.01-0.004,0.021-0.01,0.026-0.015l0.964-0.577
					c0.008-0.005,0.016-0.01,0.023-0.018c0.008-0.005,0.015-0.011,0.021-0.017l0.863-0.723c0.007-0.005,0.013-0.013,0.019-0.018
					c0.008-0.008,0.017-0.015,0.021-0.021l0.736-0.849c0.008-0.008,0.015-0.015,0.021-0.021c0.005-0.007,0.01-0.014,0.015-0.021
					l0.599-0.95c0.005-0.009,0.009-0.017,0.013-0.022c0.005-0.009,0.01-0.018,0.014-0.027l0.439-1.032
					c0.004-0.01,0.007-0.017,0.01-0.022c0.003-0.01,0.006-0.021,0.008-0.03l0.273-1.091c0.002-0.01,0.005-0.02,0.006-0.03
					c0.002-0.008,0.003-0.017,0.003-0.022l0.1-1.118c0.001-0.01,0.002-0.019,0.002-0.028c0-0.009,0-0.019-0.001-0.025
					L95.847,130.102z M92.122,129.83c0.002,2.188-1.771,3.961-3.957,3.963c-2.188,0.002-3.962-1.771-3.963-3.957v-0.006
					c-0.002-2.187,1.771-3.961,3.957-3.963c2.188-0.001,3.961,1.771,3.963,3.957V129.83z M61.865,121.584
					c-0.006-0.04-0.021-0.08-0.046-0.116c-0.025-0.035-0.057-0.064-0.093-0.088c-0.027-0.016-0.06-0.025-0.09-0.032
					c-0.02-0.005-0.037-0.007-0.057-0.007h-0.007c-0.001,0-0.001,0-0.002,0c0,0.01-0.021,0.002-0.033,0.003h-0.001
					c-0.001,0-0.001,0.003-0.002,0.003h-0.002c-0.04,0.007-0.078,0.021-0.114,0.046l-0.851,0.575l-0.91,0.427l-0.967,0.271
					l-0.998,0.115l-1.004-0.044l-0.984-0.203l-0.938-0.358l-0.871-0.503l-0.778-0.636l-0.667-0.752l-0.539-0.848l-0.405-0.943
					c-0.003-0.008-0.007-0.016-0.011-0.021v-0.001c-0.014-0.025-0.031-0.051-0.05-0.068l0,0c-0.017-0.019-0.035-0.031-0.055-0.043
					l0,0v-0.001c-0.013-0.006-0.022-0.012-0.033-0.019l0,0c-0.036-0.016-0.074-0.021-0.11-0.021
					c-0.022-0.005-0.074,0.007-0.109,0.021l0,0c-0.011,0.004-0.02,0.01-0.026,0.014c0,0.001,0,0.001-0.001,0.001
					c-0.023,0.013-0.044,0.025-0.062,0.045c0,0,0,0-0.001,0.001c-0.021,0.02-0.039,0.042-0.053,0.066l-0.01,0.021l-4.812,10.396
					c-0.005,0.012-0.01,0.021-0.014,0.033c-0.004,0.013-0.007,0.022-0.01,0.034l-0.251,1.096c-0.002,0.011-0.004,0.02-0.006,0.027
					c-0.001,0.01-0.002,0.019-0.002,0.027l-0.077,1.122c0,0.009-0.001,0.018-0.001,0.025s0,0.021,0.001,0.028l0.1,1.118
					c0,0.008,0.001,0.017,0.002,0.022c0.002,0.012,0.004,0.021,0.007,0.03l0.272,1.091c0.002,0.01,0.005,0.021,0.009,0.029
					c0.002,0.009,0.005,0.016,0.009,0.021l0.44,1.034c0.004,0.01,0.008,0.021,0.013,0.027c0.004,0.008,0.008,0.016,0.015,0.021
					l0.597,0.952c0.004,0.008,0.009,0.017,0.015,0.022c0.006,0.008,0.013,0.016,0.021,0.021l0.737,0.849
					c0.008,0.007,0.016,0.015,0.021,0.021s0.012,0.012,0.019,0.019l0.861,0.723c0.007,0.006,0.014,0.012,0.022,0.017
					c0.007,0.006,0.016,0.013,0.021,0.018l0.965,0.577c0.007,0.005,0.016,0.009,0.021,0.013c0.009,0.005,0.019,0.009,0.026,0.013
					l1.041,0.419c0.012,0.005,0.021,0.009,0.032,0.014c0.011,0.003,0.023,0.006,0.034,0.008l1.104,0.208
					c0.021,0.004,0.038,0.006,0.057,0.006l1.124,0.033h0.013c0.014,0,0.029-0.002,0.043-0.003l1.114-0.146
					c0.01-0.001,0.02-0.003,0.03-0.005c0.008-0.002,0.017-0.004,0.022-0.006l1.081-0.316c0.008-0.002,0.015-0.004,0.023-0.007
					c0.01-0.004,0.02-0.008,0.027-0.013l1.017-0.479c0.008-0.004,0.017-0.008,0.022-0.013c0.008-0.005,0.018-0.01,0.023-0.015
					l0.929-0.637c0.007-0.004,0.014-0.009,0.021-0.014c0.008-0.007,0.016-0.014,0.021-0.021l0.817-0.771
					c0.006-0.006,0.013-0.012,0.019-0.019c0.007-0.009,0.015-0.017,0.021-0.022l0.687-0.89c0.005-0.007,0.01-0.015,0.017-0.021
					c0.005-0.009,0.011-0.018,0.016-0.024l0.54-0.985c0.004-0.007,0.008-0.015,0.012-0.021c0.004-0.01,0.008-0.02,0.011-0.027
					l0.38-1.061c0.004-0.011,0.008-0.021,0.011-0.034c0.003-0.012,0.005-0.021,0.006-0.033l1.549-11.354
					c0.002-0.016,0.003-0.032,0.003-0.049C61.867,121.609,61.866,121.596,61.865,121.584
					C61.865,121.585,61.865,121.585,61.865,121.584z M57.53,129.83c0.002,2.188-1.771,3.961-3.957,3.963s-3.961-1.771-3.963-3.957
					v-0.006c-0.001-2.187,1.771-3.961,3.957-3.963c2.188-0.001,3.962,1.771,3.963,3.957V129.83z M35.804,108.317
					c-0.031-0.026-0.066-0.046-0.104-0.059c0,0,0,0-0.001,0l0,0c-0.02-0.007-0.041-0.011-0.062-0.012l0,0c0,0,0,0-0.001,0l0,0l0,0
					c-0.011-0.002-0.02-0.002-0.026-0.001l-1.027,0.025l-0.995-0.14l-0.96-0.293l-0.9-0.441l-0.82-0.581l-0.717-0.705l-0.595-0.812
					l-0.458-0.894l-0.312-0.955l-0.153-0.994l0.009-1.004l0.17-1.014c0-0.001,0-0.002,0-0.004v-0.002l0,0c0,0,0,0,0-0.001
					c0,0,0,0,0-0.001c0,0,0,0,0-0.001c0,0,0,0,0-0.001c0-0.003,0-0.005,0-0.005c0.004-0.03,0.003-0.062-0.003-0.093v-0.001
					c-0.008-0.025-0.018-0.055-0.03-0.081v-0.001l-0.007-0.012v-0.001l0,0v-0.001c-0.022-0.036-0.054-0.065-0.085-0.087
					c-0.032-0.022-0.069-0.036-0.11-0.043H28.61l0,0l0,0c0,0,0,0-0.001-0.001c0,0,0,0-0.001,0l0,0c0,0,0,0-0.001,0h-0.001
					c-0.001,0-0.002,0-0.002,0l0,0c0,0-0.001,0-0.001-0.001l0,0c-0.036-0.003-0.072-0.002-0.106,0.007l0,0c0,0,0,0-0.001,0
					c0,0,0,0.001-0.001,0.001c-0.018,0.004-0.035,0.011-0.051,0.019h-0.001c-0.001,0,0,0.001-0.001,0.001
					c-0.01,0.007-0.021,0.013-0.029,0.019l-9.677,6.134c-0.011,0.006-0.021,0.013-0.03,0.021c-0.009,0.008-0.018,0.016-0.024,0.021
					l-0.807,0.784c-0.006,0.006-0.013,0.013-0.019,0.02c-0.006,0.01-0.012,0.017-0.02,0.022l-0.672,0.901
					c-0.005,0.007-0.01,0.014-0.015,0.021c-0.005,0.008-0.01,0.017-0.014,0.025l-0.522,0.993c-0.004,0.009-0.008,0.017-0.012,0.022
					c-0.004,0.009-0.007,0.02-0.012,0.027l-0.36,1.063c-0.003,0.01-0.005,0.019-0.008,0.025c-0.002,0.01-0.005,0.02-0.008,0.028
					l-0.188,1.106c-0.001,0.009-0.003,0.021-0.003,0.028c-0.001,0.009-0.001,0.018-0.001,0.025l-0.016,1.124
					c0,0.011,0,0.019,0,0.025c0,0.011,0.003,0.021,0.005,0.03l0.16,1.109c0.001,0.011,0.002,0.02,0.006,0.026
					c0.002,0.01,0.005,0.02,0.008,0.028l0.334,1.07c0.002,0.012,0.005,0.021,0.009,0.027c0.003,0.009,0.007,0.018,0.011,0.023
					l0.497,1.009c0.004,0.009,0.009,0.018,0.014,0.025c0.006,0.007,0.011,0.015,0.016,0.021l0.647,0.918
					c0.008,0.01,0.015,0.02,0.021,0.027c0.008,0.009,0.016,0.017,0.022,0.022l0.815,0.772c0.007,0.007,0.015,0.014,0.022,0.02
					c0.007,0.006,0.014,0.012,0.021,0.017l0.927,0.638c0.008,0.006,0.018,0.011,0.024,0.016s0.016,0.01,0.022,0.014l1.017,0.481
					c0.008,0.004,0.016,0.008,0.022,0.012c0.011,0.004,0.02,0.007,0.027,0.01l1.078,0.317c0.008,0.003,0.017,0.005,0.023,0.008
					c0.012,0.002,0.021,0.004,0.03,0.005l1.113,0.146c0.014,0.002,0.028,0.003,0.043,0.003h0.012l1.124-0.028
					c0.021,0.001,0.038-0.001,0.058-0.007l1.104-0.205l0.026-0.006c0.009-0.002,0.019-0.005,0.025-0.009l1.062-0.375
					c0.008-0.003,0.017-0.006,0.022-0.01c0.011-0.004,0.02-0.01,0.027-0.015l0.986-0.536c0.008-0.005,0.017-0.011,0.022-0.016l0,0
					c0.007-0.005,0.017-0.011,0.021-0.016l0.892-0.685c0.01-0.009,0.021-0.017,0.029-0.023c0.008-0.008,0.016-0.018,0.021-0.025
					l7.451-8.703c0.01-0.012,0.021-0.022,0.027-0.036c0-0.001,0-0.001,0-0.001l0,0c0,0,0,0,0-0.001
					c0.007-0.013,0.014-0.023,0.019-0.037c0.018-0.035,0.024-0.076,0.023-0.119c-0.001-0.041-0.012-0.081-0.027-0.116
					C35.861,108.378,35.836,108.344,35.804,108.317z M28.402,111.091c0,2.188-1.772,3.961-3.96,3.961c-2.188,0-3.96-1.771-3.96-3.96
					c0,0,0,0,0-0.001c0-2.187,1.771-3.96,3.959-3.96C26.629,107.131,28.402,108.903,28.402,111.091L28.402,111.091z M47.572,25.057
					c0.006,0.002,0.013,0.004,0.019,0.005c0,0,0,0,0.001,0h0.001c0.022,0.006,0.047,0.008,0.068,0.008c0.01,0,0.023,0,0.028-0.001
					l0,0c0.018-0.002,0.036-0.005,0.053-0.011l0,0l0,0c0.016-0.007,0.03-0.013,0.045-0.02c0.034-0.017,0.063-0.04,0.087-0.064
					c0.025-0.028,0.045-0.062,0.06-0.101l0,0c0-0.001,0-0.001,0-0.002c0.002-0.007,0.004-0.015,0.006-0.021l0,0l0,0
					c0.007-0.03,0.01-0.062,0.007-0.092l0,0l0,0l0,0c-0.002-0.02-0.005-0.037-0.011-0.059l0,0l0,0
					c-0.003-0.013-0.01-0.024-0.016-0.036L43.232,14.21c-0.004-0.01-0.009-0.021-0.017-0.028c-0.006-0.013-0.013-0.021-0.021-0.032
					l-0.661-0.907c-0.005-0.008-0.012-0.016-0.018-0.023c-0.007-0.007-0.014-0.013-0.02-0.019l-0.796-0.793
					c-0.007-0.007-0.014-0.014-0.021-0.021c-0.008-0.005-0.015-0.01-0.021-0.015l-0.911-0.66c-0.008-0.006-0.016-0.012-0.023-0.017
					c-0.009-0.005-0.017-0.009-0.022-0.012L39.7,11.171c-0.007-0.004-0.015-0.008-0.023-0.011c-0.009-0.004-0.019-0.007-0.026-0.01
					l-1.069-0.345c-0.008-0.005-0.017-0.007-0.023-0.009c-0.011-0.002-0.021-0.004-0.028-0.005l-1.111-0.174
					c-0.009-0.001-0.019-0.003-0.027-0.003c-0.01,0-0.017,0-0.026-0.001l-1.125,0.001h-0.004c-0.019,0-0.035,0.002-0.051,0.004
					l-1.109,0.177c-0.01,0.001-0.021,0.003-0.03,0.006c-0.008,0.004-0.016,0.006-0.022,0.009l-1.069,0.35
					c-0.008,0.002-0.016,0.005-0.022,0.009c-0.011,0.003-0.02,0.008-0.026,0.015l-1.001,0.511c-0.01,0.005-0.021,0.011-0.029,0.017
					c-0.01,0.006-0.019,0.015-0.027,0.021l-0.882,0.694c-0.008,0.008-0.015,0.014-0.021,0.021c-0.006,0.006-0.014,0.013-0.021,0.019
					l-0.762,0.826c-0.006,0.007-0.012,0.016-0.018,0.021c-0.007,0.007-0.013,0.015-0.018,0.021l-0.624,0.938
					c-0.006,0.009-0.012,0.018-0.017,0.025c-0.004,0.009-0.007,0.016-0.01,0.021L30,15.337c-0.004,0.008-0.008,0.019-0.011,0.026
					s-0.006,0.018-0.008,0.027l-0.303,1.083c-0.005,0.009-0.007,0.019-0.009,0.027c-0.002,0.008-0.003,0.019-0.004,0.025
					l-0.131,1.116c-0.001,0.01-0.002,0.02-0.003,0.028c0,0.011,0,0.02,0,0.026l0.046,1.124c0,0.009,0.001,0.018,0.002,0.027
					c0.001,0.009,0.003,0.019,0.005,0.026l0.222,1.104c0.001,0.009,0.003,0.018,0.006,0.024c0.002,0.011,0.006,0.021,0.009,0.027
					l0.391,1.054c0.003,0.011,0.009,0.021,0.014,0.029c0.004,0.008,0.007,0.015,0.012,0.021l0.55,0.979
					c0.005,0.01,0.012,0.021,0.021,0.03c0.007,0.01,0.015,0.02,0.021,0.026l7.552,8.618l0,0c0.003,0.004,0.009,0.008,0.013,0.013
					l0,0l0,0c0.021,0.021,0.048,0.041,0.073,0.056c0.022,0.011,0.047,0.019,0.07,0.022c0.002,0,0.002,0.001,0.001,0
					c0.021,0.005,0.039,0.006,0.061,0.008c0.028,0,0.06-0.007,0.088-0.016l0,0c0.031-0.011,0.062-0.027,0.092-0.051l0,0
					c0.009-0.008,0.018-0.016,0.025-0.024l0,0c0,0,0-0.001,0.002-0.001c0.018-0.02,0.031-0.041,0.045-0.062v-0.001v-0.001l0,0
					c0.011-0.022,0.02-0.047,0.023-0.073c0,0,0,0,0-0.001v-0.002l0,0c0.001-0.007,0.002-0.015,0.003-0.023l0.122-1.019l0.277-0.966
					l0.428-0.909l0.567-0.829l0.69-0.728l0.802-0.609l0.886-0.474l0.951-0.327l0.987-0.17l1.007-0.012l0.992,0.149L47.572,25.057z
					 M41.622,19.177c0.001,2.188-1.771,3.963-3.957,3.965c-2.188,0.001-3.962-1.771-3.963-3.958v-0.007
					c-0.002-2.188,1.771-3.962,3.957-3.963c2.188-0.002,3.961,1.771,3.963,3.957V19.177z M20.844,83.795L20.844,83.795
					L20.844,83.795c0.021-0.009,0.042-0.021,0.061-0.031V83.76l0,0c0.021-0.017,0.043-0.035,0.061-0.061v-0.001
					c0.008-0.009,0.014-0.018,0.02-0.027l0,0c0.019-0.031,0.03-0.067,0.035-0.104c0.005-0.037,0.002-0.075-0.008-0.113
					c-0.005-0.012-0.009-0.021-0.014-0.035c0,0,0,0,0-0.001c-0.01-0.021-0.021-0.046-0.039-0.064l0,0c0-0.001,0-0.001-0.001-0.001
					c-0.014-0.02-0.027-0.033-0.047-0.05l0,0c-0.009-0.008-0.02-0.015-0.03-0.021l-0.876-0.534l-0.764-0.65l-0.651-0.769
					l-0.519-0.857l-0.376-0.934l-0.222-0.979l-0.063-1.004l0.098-0.999l0.257-0.974l0.405-0.919l0.551-0.842l0.689-0.761
					c0.028-0.03,0.048-0.065,0.062-0.104c0.006-0.018,0.01-0.036,0.012-0.056c0.002-0.014,0.002-0.028,0.002-0.043
					c-0.001-0.038-0.01-0.075-0.024-0.108c-0.014-0.033-0.035-0.062-0.062-0.09c-0.01-0.01-0.021-0.019-0.031-0.026
					c-0.001,0,0-0.001-0.001-0.001c-0.02-0.015-0.041-0.023-0.062-0.032c0,0,0,0,0-0.001H19.3c-0.022-0.012-0.049-0.018-0.074-0.021
					l0,0h-0.001l0,0c-0.01-0.001-0.019-0.001-0.025-0.001l-11.46-0.064c-0.011,0-0.023-0.001-0.035,0.001L7.667,72.52l-1.1,0.226
					c-0.01,0.002-0.021,0.004-0.029,0.007s-0.017,0.005-0.023,0.011l-1.054,0.395c-0.009,0.003-0.018,0.007-0.024,0.011
					c-0.01,0.004-0.018,0.008-0.024,0.015l-0.979,0.556c-0.009,0.004-0.017,0.009-0.022,0.013c-0.008,0.006-0.017,0.014-0.022,0.021
					l-0.88,0.699c-0.007,0.007-0.014,0.013-0.021,0.019c-0.007,0.007-0.014,0.014-0.021,0.021L2.71,75.334
					c-0.006,0.007-0.013,0.017-0.019,0.022c-0.005,0.007-0.01,0.014-0.017,0.021l-0.618,0.938c-0.007,0.008-0.012,0.016-0.016,0.021
					c-0.005,0.011-0.009,0.019-0.012,0.025l-0.465,1.023c-0.003,0.008-0.007,0.016-0.01,0.021c-0.005,0.01-0.008,0.021-0.011,0.029
					l-0.299,1.083c-0.002,0.009-0.004,0.018-0.006,0.025c-0.002,0.011-0.003,0.021-0.004,0.027l-0.126,1.117
					c-0.001,0.009-0.002,0.018-0.002,0.025c0,0.011,0,0.021,0,0.028l0.05,1.122c0,0.012,0.001,0.022,0.003,0.034
					s0.004,0.021,0.007,0.033l0.271,1.091c0.002,0.01,0.005,0.02,0.008,0.027c0.003,0.009,0.006,0.018,0.01,0.023l0.438,1.035
					c0.004,0.01,0.008,0.019,0.013,0.027c0.004,0.008,0.008,0.015,0.013,0.021l0.592,0.956c0.007,0.008,0.012,0.016,0.018,0.023
					c0.005,0.008,0.011,0.015,0.017,0.021l0.735,0.851c0.006,0.008,0.013,0.016,0.02,0.021c0.008,0.006,0.015,0.012,0.021,0.018
					l0.856,0.728c0.009,0.006,0.016,0.012,0.021,0.017c0.008,0.006,0.016,0.013,0.024,0.018l0.962,0.582
					c0.007,0.004,0.014,0.008,0.021,0.012c0.009,0.005,0.02,0.009,0.028,0.013l1.041,0.425c0.009,0.006,0.018,0.009,0.025,0.012
					c0.011,0.003,0.02,0.005,0.026,0.007l1.094,0.257c0.011,0.002,0.02,0.004,0.027,0.006l0.028,0.003l1.121,0.081
					c0.009,0.001,0.017,0.001,0.024,0.001c0.018,0,0.021-0.001,0.03-0.002l1.119-0.095c0.012,0,0.023-0.002,0.037-0.005
					c0.011-0.002,0.021-0.005,0.031-0.008L20.815,83.8C20.824,83.802,20.834,83.799,20.844,83.795z M13.909,79.641
					c0,2.188-1.771,3.96-3.96,3.961c-2.188,0-3.96-1.772-3.961-3.96v-0.001c0-2.188,1.771-3.96,3.96-3.961
					C12.135,75.68,13.908,77.453,13.909,79.641L13.909,79.641z M6.224,45.114l0.157,1.113c0.001,0.009,0.002,0.019,0.006,0.026
					c0.002,0.011,0.005,0.02,0.008,0.027l0.331,1.073c0.003,0.009,0.006,0.019,0.009,0.025c0.003,0.01,0.007,0.019,0.011,0.024
					l0.495,1.009c0.004,0.008,0.008,0.019,0.013,0.025s0.012,0.015,0.017,0.021l0.646,0.919c0.005,0.009,0.011,0.017,0.019,0.022
					c0.006,0.007,0.012,0.014,0.019,0.021l0.783,0.81c0.006,0.007,0.013,0.014,0.021,0.02c0.009,0.006,0.016,0.014,0.021,0.019
					l0.897,0.674c0.01,0.006,0.018,0.012,0.024,0.017c0.008,0.004,0.015,0.009,0.023,0.015l0.99,0.523
					c0.013,0.006,0.022,0.012,0.034,0.018c0.011,0.004,0.022,0.008,0.033,0.011l11.016,3.15c0.012,0.005,0.021,0.007,0.029,0.009
					l0,0c0.019,0.003,0.035,0.005,0.052,0.005c0.01,0,0.018,0,0.024-0.001h0.002l0,0c0.026-0.002,0.052-0.008,0.077-0.02l0,0
					c0,0,0,0,0.001,0l0,0l0,0c0.008-0.003,0.016-0.007,0.022-0.011c0.038-0.019,0.069-0.045,0.096-0.076
					c0.021-0.024,0.039-0.058,0.05-0.092l0,0c0.004-0.013,0.007-0.025,0.01-0.039c0.004-0.026,0.005-0.052,0.003-0.077l0,0
					c-0.002-0.021-0.007-0.045-0.014-0.065l0,0l0,0c-0.004-0.013-0.009-0.022-0.016-0.033l-0.447-0.923l-0.291-0.961l-0.133-0.996
					l0.026-1.004l0.188-0.987l0.342-0.945l0.488-0.878l0.623-0.789l0.737-0.68l0.839-0.552l0.917-0.413l0.991-0.268
					c0.01-0.002,0.021-0.006,0.03-0.009l0,0c0.021-0.008,0.042-0.019,0.06-0.031c0.027-0.019,0.053-0.042,0.071-0.068l0,0l0,0
					c0,0,0-0.001,0.001-0.001l0,0l0,0v-0.001c0,0,0-0.001,0.001-0.001l0,0l0,0c0,0,0.001,0,0-0.001l0,0l0,0l0,0l0.001-0.001
					c0.022-0.035,0.037-0.072,0.043-0.11c0.006-0.04,0.005-0.081-0.006-0.122c0-0.001,0-0.001-0.001-0.002c0,0,0,0,0-0.001
					c0,0,0,0,0-0.001l0,0c0,0,0,0,0-0.001l0,0c0,0,0,0,0-0.001c0.001-0.001,0-0.001,0-0.002c0,0,0,0,0-0.001l0,0c0,0,0,0,0-0.001
					l0,0l0,0c-0.01-0.032-0.025-0.062-0.044-0.085l0,0c-0.014-0.021-0.03-0.036-0.049-0.051l0,0l0,0
					c-0.008-0.008-0.018-0.014-0.024-0.019l-9.604-6.246c-0.012-0.007-0.021-0.013-0.031-0.018
					c-0.011-0.006-0.022-0.011-0.033-0.017l-1.048-0.402c-0.009-0.004-0.019-0.007-0.028-0.012
					c-0.008-0.002-0.017-0.004-0.023-0.006l-1.102-0.234c-0.008-0.001-0.016-0.003-0.022-0.004
					c-0.013-0.001-0.021-0.002-0.032-0.004l-1.121-0.062c-0.006,0-0.013-0.001-0.02-0.001c-0.014,0-0.023,0.001-0.035,0.002
					l-1.117,0.101c-0.009,0.003-0.018,0.004-0.027,0.005c-0.01,0.002-0.02,0.004-0.026,0.007l-1.086,0.289
					c-0.011,0.002-0.02,0.005-0.027,0.008s-0.017,0.006-0.025,0.01l-1.025,0.455c-0.011,0.004-0.021,0.008-0.027,0.013
					c-0.007,0.004-0.015,0.011-0.021,0.015L9.065,38.88c-0.008,0.005-0.017,0.012-0.022,0.017c-0.008,0.006-0.015,0.012-0.021,0.019
					l-0.836,0.75c-0.007,0.006-0.017,0.013-0.021,0.021c-0.006,0.007-0.012,0.014-0.018,0.021l-0.709,0.872
					c-0.007,0.008-0.016,0.018-0.021,0.026c-0.004,0.006-0.008,0.013-0.012,0.02l-0.564,0.974c-0.006,0.01-0.012,0.021-0.017,0.029
					c-0.004,0.011-0.008,0.021-0.012,0.031l-0.363,1.062c-0.004,0.011-0.007,0.021-0.009,0.029
					c-0.002,0.008-0.003,0.018-0.005,0.024L6.242,43.88C6.24,43.89,6.239,43.9,6.238,43.911c0,0.008-0.001,0.017-0.001,0.024
					L6.22,45.059c0,0.009,0,0.018,0,0.025C6.221,45.094,6.223,45.105,6.224,45.114z M10.942,45.304c0-2.188,1.771-3.962,3.96-3.962
					c2.188,0,3.96,1.773,3.96,3.962c0.001,2.188-1.772,3.961-3.959,3.961C12.716,49.265,10.942,47.493,10.942,45.304
					C10.942,45.305,10.942,45.305,10.942,45.304z M110.957,22.146c0.007-0.012,0.016-0.021,0.021-0.03l0.55-0.979
					c0.004-0.01,0.009-0.018,0.013-0.024s0.007-0.017,0.01-0.026l0.394-1.055c0.003-0.008,0.006-0.017,0.008-0.025
					c0.003-0.009,0.005-0.019,0.007-0.026l0.222-1.104c0.003-0.01,0.005-0.02,0.006-0.027c0.001-0.011,0.002-0.02,0.002-0.026
					l0.045-1.123c0.001-0.008,0.001-0.017,0.001-0.025c0-0.01-0.001-0.021-0.003-0.029l-0.13-1.116
					c-0.001-0.009-0.003-0.021-0.006-0.028c-0.003-0.009-0.005-0.018-0.007-0.024l-0.305-1.083
					c-0.002-0.011-0.005-0.019-0.008-0.025c-0.003-0.009-0.007-0.018-0.011-0.027l-0.472-1.021
					c-0.003-0.008-0.007-0.018-0.012-0.023c-0.005-0.009-0.01-0.017-0.016-0.023l-0.623-0.938c-0.005-0.008-0.012-0.016-0.018-0.021
					c-0.006-0.008-0.012-0.016-0.019-0.021l-0.765-0.827c-0.005-0.006-0.011-0.011-0.017-0.017
					c-0.008-0.008-0.016-0.015-0.024-0.021l-0.88-0.694c-0.009-0.007-0.019-0.016-0.026-0.021c-0.011-0.007-0.021-0.012-0.029-0.017
					l-1-0.511c-0.009-0.007-0.018-0.011-0.027-0.015c-0.008-0.003-0.016-0.006-0.021-0.009l-1.068-0.349
					c-0.009-0.003-0.018-0.006-0.023-0.01c-0.012-0.002-0.021-0.004-0.029-0.005l-1.11-0.177c-0.01-0.001-0.019-0.002-0.025-0.003
					c-0.012-0.001-0.023-0.001-0.028-0.001l-1.124-0.001h-0.005c-0.02-0.001-0.034,0.002-0.05,0.004l-1.111,0.174
					c-0.009,0.001-0.018,0.003-0.026,0.005c-0.008,0.002-0.019,0.006-0.025,0.01l-1.07,0.346c-0.008,0.002-0.017,0.005-0.023,0.009
					c-0.011,0.003-0.02,0.008-0.025,0.012l-1.002,0.511c-0.008,0.003-0.017,0.007-0.022,0.012c-0.009,0.005-0.017,0.011-0.023,0.017
					l-0.91,0.66c-0.007,0.004-0.015,0.009-0.021,0.016c-0.008,0.008-0.016,0.015-0.021,0.021l-0.796,0.793
					c-0.006,0.006-0.015,0.013-0.021,0.021c-0.006,0.008-0.012,0.015-0.017,0.021l-0.663,0.908
					c-0.007,0.009-0.013,0.019-0.021,0.028c-0.006,0.012-0.012,0.021-0.017,0.032l-4.689,10.453
					c-0.007,0.013-0.011,0.023-0.015,0.036l0,0c-0.006,0.021-0.01,0.039-0.012,0.06l0,0l0,0l0,0c-0.003,0.029,0,0.061,0.007,0.091
					l0,0l0,0c0.002,0.007,0.005,0.015,0.007,0.021c-0.002,0,0.001,0.001,0.001,0.002c0.015,0.039,0.033,0.073,0.062,0.103
					c0.021,0.023,0.05,0.046,0.081,0.062c0.017,0.008,0.032,0.016,0.052,0.021c0.001,0,0.001,0,0.001,0
					c0.017,0.005,0.033,0.008,0.051,0.01h0.002l0,0c0.033,0.003,0.064,0,0.098-0.008c0,0,0,0,0.001,0l0,0c0.001,0,0.001,0,0.001,0
					c0.002,0-0.001,0,0.003,0c0.005-0.001,0.009-0.002,0.014-0.004l0.979-0.313l0.995-0.148l1.003,0.011l0.991,0.17l0.951,0.327
					l0.886,0.474l0.799,0.609l0.692,0.728l0.566,0.829l0.429,0.909l0.275,0.966l0.123,1.02c0.001,0.011,0.004,0.021,0.006,0.029
					c0,0,0,0.001,0.001,0.001c0.005,0.024,0.014,0.046,0.022,0.067c0,0,0,0,0,0.001l0,0c0.014,0.021,0.028,0.045,0.047,0.063
					c0.002,0,0.001,0,0.001,0.001c0.008,0.01,0.017,0.017,0.023,0.021l0,0c0,0,0,0,0.001,0c0,0,0,0,0.001,0
					c0.029,0.024,0.062,0.042,0.099,0.053c0.026,0.008,0.057,0.014,0.084,0.014c0.012,0,0.021,0,0.03-0.002h0.001
					c0.008,0,0.017-0.003,0.023-0.004c0.028-0.006,0.058-0.016,0.083-0.027l0,0h0.001c0.021-0.013,0.04-0.025,0.058-0.042l0,0
					c0.008-0.008,0.015-0.016,0.021-0.021l7.553-8.617C110.942,22.166,110.95,22.156,110.957,22.146z M108.058,19.177
					c0.001,2.188-1.771,3.963-3.958,3.965c-2.188,0.001-3.961-1.771-3.962-3.958v-0.007c-0.002-2.188,1.77-3.962,3.957-3.963
					c2.187-0.002,3.961,1.771,3.963,3.957V19.177z M125.712,111.403c-0.001-0.009-0.003-0.019-0.004-0.025l-0.188-1.105
					c-0.002-0.012-0.004-0.021-0.007-0.029c-0.004-0.008-0.006-0.017-0.009-0.024l-0.358-1.063c-0.003-0.009-0.006-0.02-0.012-0.025
					c-0.004-0.01-0.008-0.019-0.013-0.024l-0.521-0.995c-0.007-0.009-0.012-0.02-0.018-0.026c-0.005-0.007-0.009-0.014-0.014-0.02
					l-0.671-0.901c-0.005-0.007-0.01-0.013-0.018-0.02c-0.007-0.01-0.015-0.018-0.021-0.022l-0.805-0.784
					c-0.01-0.008-0.018-0.016-0.024-0.021c-0.011-0.009-0.021-0.018-0.032-0.022l-9.677-6.133c-0.011-0.007-0.022-0.013-0.034-0.019
					c-0.001,0-0.001-0.002-0.001-0.002c-0.02-0.01-0.04-0.017-0.061-0.021c0,0,0,0-0.001-0.001c-0.027-0.005-0.056-0.01-0.084-0.005
					h-0.001c-0.001,0-0.001,0-0.001,0s0,0-0.001,0c0,0,0,0-0.001,0c-0.009,0.001-0.015,0.002-0.021,0.003h-0.001
					c-0.042,0.008-0.08,0.022-0.112,0.046c-0.03,0.021-0.061,0.05-0.082,0.084c0,0.001-0.001,0.001-0.001,0.002
					c-0.002,0.003-0.003,0.005-0.005,0.008c0,0,0,0,0,0.001c0,0,0,0-0.001,0v0.001c-0.017,0.028-0.025,0.062-0.033,0.093
					c-0.005,0.021-0.006,0.048-0.004,0.071v0.001l0.003,0.026l0.172,1.013l0.009,1.004l-0.154,0.993l-0.31,0.955l-0.46,0.896
					l-0.596,0.81l-0.717,0.705l-0.819,0.581l-0.9,0.443l-0.961,0.293l-0.995,0.138l-1.027-0.025c-0.006,0.001-0.012,0.001-0.02,0
					c-0.001,0-0.001,0-0.001,0c-0.001,0-0.001,0-0.001,0h-0.001c-0.028,0.002-0.058,0.009-0.082,0.019c-0.001,0-0.001,0-0.001,0.001
					c-0.029,0.01-0.06,0.024-0.084,0.047l-0.001,0.001c-0.002,0.001-0.004,0.003-0.007,0.004c-0.03,0.027-0.057,0.062-0.071,0.097
					c-0.019,0.035-0.026,0.074-0.027,0.115v0.018c0.001,0.03,0.007,0.062,0.019,0.09c0.01,0.022,0.021,0.047,0.035,0.066
					c0,0,0,0,0,0.001h0.001c0.007,0.007,0.012,0.016,0.018,0.021l7.452,8.704c0.008,0.01,0.016,0.019,0.023,0.025
					c0.008,0.008,0.02,0.018,0.026,0.022l0.892,0.684c0.007,0.005,0.017,0.012,0.021,0.018c0.009,0.005,0.017,0.01,0.023,0.015
					l0.986,0.536c0.009,0.005,0.018,0.01,0.026,0.014c0.008,0.004,0.017,0.007,0.023,0.011l1.062,0.375
					c0.008,0.003,0.017,0.007,0.023,0.01c0.011,0.002,0.021,0.004,0.027,0.006l1.104,0.205c0.021,0.004,0.037,0.006,0.058,0.006
					l1.123,0.029h0.013c0.014,0,0.028-0.003,0.042-0.004l1.116-0.146c0.009-0.001,0.019-0.003,0.027-0.005
					c0.01-0.002,0.019-0.004,0.025-0.007l1.076-0.319c0.01-0.002,0.02-0.006,0.028-0.009c0.009-0.004,0.017-0.007,0.021-0.012
					l1.017-0.481c0.009-0.004,0.017-0.008,0.022-0.013c0.009-0.006,0.019-0.012,0.025-0.018l0.927-0.637
					c0.008-0.005,0.016-0.011,0.021-0.018c0.009-0.007,0.015-0.013,0.021-0.019l0.814-0.771c0.009-0.009,0.016-0.017,0.021-0.022
					c0.008-0.01,0.015-0.02,0.021-0.029l0.649-0.917l0.016-0.021c0.006-0.008,0.011-0.019,0.015-0.025l0.496-1.006
					c0.005-0.01,0.009-0.02,0.013-0.029c0.003-0.007,0.006-0.015,0.008-0.021l0.334-1.073c0.003-0.009,0.005-0.018,0.009-0.025
					c0.002-0.011,0.004-0.02,0.006-0.027l0.16-1.113c0.002-0.008,0.003-0.017,0.003-0.024c0.002-0.011,0.002-0.021,0.002-0.028
					l-0.017-1.123C125.713,111.424,125.713,111.413,125.712,111.403z M121.25,111.091c0.002,2.188-1.77,3.962-3.957,3.965
					c-2.187,0.002-3.961-1.771-3.963-3.957v-0.008c-0.001-2.187,1.771-3.961,3.957-3.963c2.188-0.001,3.962,1.771,3.963,3.958
					V111.091z M115.158,44.744C115.158,44.745,115.158,44.745,115.158,44.744c0.019,0.025,0.04,0.046,0.064,0.063l0,0h0.001
					c0.018,0.013,0.038,0.022,0.06,0.03h0.001l0,0c0.011,0.004,0.021,0.009,0.031,0.012l0.99,0.266l0.916,0.413l0.839,0.553
					l0.739,0.68l0.622,0.789l0.487,0.878l0.343,0.945l0.188,0.987l0.026,1.004l-0.134,0.996l-0.29,0.962l-0.446,0.923
					c-0.007,0.009-0.011,0.021-0.015,0.028c-0.009,0.022-0.015,0.048-0.017,0.073l0,0c-0.002,0.026-0.001,0.057,0.006,0.086v0.001
					c0.001,0.006,0.003,0.011,0.004,0.017l0,0h0.001c0,0,0,0,0,0.001c0.012,0.04,0.031,0.076,0.057,0.106
					c0.022,0.024,0.053,0.049,0.083,0.065c0.015,0.007,0.026,0.015,0.039,0.02h0.001l0,0c0.023,0.008,0.049,0.013,0.07,0.015l0,0
					h0.001c0.009,0,0.019,0.001,0.025,0.001c0.019,0,0.038-0.002,0.057-0.006h0.001c0.001,0,0.001,0,0.001,0s0,0,0.001,0
					c0.007-0.001,0.014-0.003,0.021-0.005l11.015-3.153c0.012-0.003,0.022-0.006,0.033-0.011c0.012-0.004,0.021-0.01,0.033-0.018
					l0.992-0.523c0.009-0.003,0.016-0.007,0.021-0.012c0.009-0.007,0.018-0.014,0.026-0.02l0.896-0.674
					c0.007-0.005,0.015-0.011,0.021-0.018c0.008-0.007,0.015-0.014,0.021-0.021l0.782-0.808c0.007-0.009,0.014-0.016,0.02-0.021
					c0.007-0.007,0.013-0.014,0.018-0.021l0.646-0.918c0.006-0.01,0.013-0.018,0.018-0.024s0.009-0.016,0.013-0.024l0.495-1.009
					c0.004-0.008,0.008-0.017,0.011-0.023c0.004-0.01,0.007-0.019,0.009-0.026l0.332-1.075c0.003-0.008,0.007-0.018,0.009-0.024
					c0.003-0.011,0.005-0.021,0.006-0.028l0.156-1.113c0.003-0.009,0.004-0.019,0.004-0.026c0.002-0.011,0.002-0.021,0.002-0.028
					l-0.02-1.125c0-0.008,0-0.019-0.001-0.026c-0.001-0.01-0.003-0.02-0.004-0.027l-0.192-1.106c-0.002-0.01-0.004-0.02-0.007-0.03
					c-0.002-0.008-0.005-0.016-0.008-0.022l-0.363-1.062c-0.004-0.012-0.008-0.021-0.014-0.034c-0.004-0.01-0.009-0.019-0.015-0.026
					l-0.563-0.974c-0.005-0.008-0.009-0.015-0.015-0.021c-0.005-0.008-0.013-0.017-0.02-0.023l-0.709-0.872
					c-0.005-0.006-0.01-0.012-0.016-0.018c-0.007-0.008-0.016-0.016-0.023-0.021l-0.836-0.75c-0.007-0.007-0.015-0.014-0.021-0.02
					c-0.007-0.005-0.017-0.01-0.021-0.015l-0.943-0.611c-0.009-0.004-0.016-0.009-0.021-0.013c-0.009-0.005-0.018-0.01-0.027-0.015
					l-1.025-0.455c-0.008-0.003-0.018-0.007-0.023-0.01c-0.01-0.003-0.02-0.006-0.027-0.009l-1.085-0.289
					c-0.01-0.002-0.019-0.004-0.024-0.006c-0.011-0.002-0.021-0.003-0.031-0.004l-1.119-0.114c-0.009-0.001-0.018-0.001-0.024-0.002
					c-0.015,0-0.021,0-0.028,0.001l-1.123,0.062c-0.009,0-0.018,0.002-0.027,0.003c-0.009,0.001-0.019,0.003-0.025,0.005
					l-1.101,0.234c-0.008,0.002-0.017,0.004-0.022,0.007c-0.01,0.004-0.021,0.007-0.028,0.011l-1.048,0.402
					c-0.012,0.005-0.021,0.011-0.033,0.017c-0.011,0.005-0.021,0.012-0.03,0.018l-9.605,6.247h-0.001
					c0.001,0.002-0.001,0-0.001,0.001h-0.001c-0.001,0-0.001,0-0.001,0.001h-0.001c0,0-0.001,0.001-0.002,0.001
					s-0.001,0.001-0.002,0.001c0,0.001-0.001,0-0.001,0s-0.001,0-0.001,0.001c-0.027,0.021-0.051,0.043-0.068,0.069l0,0
					c0,0,0,0-0.001,0c-0.013,0.02-0.023,0.041-0.032,0.062l0,0c-0.001,0-0.001,0-0.001,0v0.002l0,0
					c-0.004,0.01-0.007,0.02-0.009,0.027l0,0c-0.01,0.039-0.011,0.077-0.005,0.114c0.006,0.039,0.02,0.076,0.042,0.11
					C115.15,44.733,115.154,44.739,115.158,44.744z M122.869,45.276c-0.001-2.188,1.771-3.961,3.957-3.963
					c2.188-0.001,3.962,1.771,3.963,3.958v0.005c0.002,2.188-1.77,3.962-3.957,3.963c-2.188,0.002-3.961-1.771-3.963-3.957V45.276z
					 M140.508,79.668l-0.125-1.117c-0.001-0.009-0.002-0.017-0.004-0.023c-0.002-0.01-0.004-0.021-0.007-0.029l-0.3-1.084
					c-0.003-0.008-0.005-0.016-0.008-0.021c-0.003-0.012-0.007-0.021-0.014-0.028l-0.464-1.023
					c-0.004-0.009-0.009-0.018-0.013-0.024c-0.005-0.008-0.01-0.018-0.015-0.022l-0.619-0.938c-0.005-0.007-0.009-0.016-0.016-0.021
					l-0.021-0.021l-0.758-0.83c-0.005-0.007-0.013-0.015-0.02-0.021c-0.008-0.007-0.015-0.014-0.021-0.02l-0.879-0.701
					c-0.008-0.006-0.017-0.012-0.023-0.018c-0.007-0.007-0.015-0.012-0.021-0.016l-0.979-0.554
					c-0.008-0.005-0.016-0.009-0.022-0.013c-0.01-0.006-0.019-0.01-0.025-0.013l-1.054-0.396l-0.023-0.009
					c-0.01-0.003-0.02-0.007-0.029-0.009l-1.101-0.226c-0.012-0.002-0.023-0.004-0.036-0.006c-0.012-0.002-0.021-0.001-0.035-0.001
					l-11.459,0.063c-0.008,0-0.015,0-0.021,0.001c-0.001,0-0.001,0-0.001,0c-0.001,0-0.001,0-0.001,0c-0.001,0-0.001,0-0.001,0
					c-0.027,0.003-0.056,0.011-0.079,0.021c0,0.001-0.001,0.001-0.001,0.001s0,0-0.001,0c-0.021,0.009-0.043,0.021-0.062,0.035
					c0,0-0.001,0-0.001,0.001c-0.011,0.008-0.021,0.016-0.028,0.023c-0.026,0.026-0.05,0.059-0.062,0.089
					c-0.015,0.034-0.021,0.072-0.023,0.112c0,0.001,0,0.001,0,0.001c0,0.01,0,0.021,0.002,0.029v0.001c0,0,0,0,0,0.001
					c0.003,0.027,0.01,0.055,0.02,0.08c0.01,0.021,0.021,0.044,0.036,0.062v0.001c0.006,0.01,0.013,0.018,0.02,0.022l0.69,0.761
					l0.548,0.842l0.408,0.919l0.256,0.973l0.096,1.001l-0.062,1.003l-0.223,0.979l-0.378,0.933l-0.518,0.858l-0.651,0.769
					l-0.765,0.651l-0.877,0.534v0.001h-0.001c-0.002,0.002-0.005,0.003-0.008,0.005c-0.001,0.001-0.001,0.001-0.001,0.001h-0.001
					c0,0.001,0,0.001,0,0.001h-0.001c-0.028,0.021-0.055,0.043-0.071,0.069c0,0.001-0.001,0.001-0.001,0.001
					c-0.012,0.018-0.021,0.034-0.03,0.054c0,0,0,0,0,0.001c0,0,0,0,0,0.001c-0.006,0.015-0.011,0.025-0.014,0.039
					c-0.01,0.036-0.012,0.072-0.008,0.108c0.005,0.037,0.017,0.074,0.036,0.108c0.006,0.01,0.012,0.019,0.019,0.025v0.001
					c0.018,0.022,0.037,0.043,0.06,0.062c0.021,0.014,0.039,0.023,0.062,0.033c0.001,0,0.001,0,0.001,0
					c0.01,0.005,0.019,0.009,0.028,0.012l10.973,3.298l0.035,0.009c0.012,0.002,0.021,0.004,0.035,0.004l1.117,0.098
					c0.011,0.001,0.021,0.002,0.029,0.002s0.02,0,0.026-0.001l1.12-0.082c0.01-0.001,0.02-0.002,0.027-0.005
					c0.011-0.002,0.02-0.004,0.026-0.006l1.095-0.258c0.011-0.002,0.021-0.004,0.027-0.007s0.018-0.006,0.025-0.01l1.038-0.424
					c0.011-0.004,0.02-0.009,0.025-0.013c0.009-0.005,0.017-0.009,0.024-0.014l0.963-0.582c0.008-0.004,0.016-0.009,0.021-0.015
					c0.008-0.007,0.018-0.014,0.022-0.02l0.856-0.725c0.009-0.006,0.016-0.013,0.021-0.02c0.007-0.007,0.014-0.015,0.021-0.021
					l0.734-0.853c0.006-0.007,0.011-0.014,0.017-0.021c0.008-0.008,0.013-0.018,0.018-0.024l0.594-0.955
					c0.004-0.007,0.009-0.015,0.013-0.021c0.006-0.01,0.011-0.021,0.015-0.028l0.437-1.034c0.004-0.009,0.007-0.019,0.01-0.025
					s0.008-0.02,0.01-0.026l0.268-1.092c0.003-0.01,0.005-0.021,0.007-0.03c0.001-0.013,0.003-0.022,0.003-0.037l0.053-1.121
					c0.001-0.01,0.001-0.019,0.001-0.025C140.51,79.686,140.51,79.677,140.508,79.668z M131.673,83.576
					c-2.187,0.002-3.961-1.771-3.963-3.957v-0.006c0-2.188,1.773-3.96,3.96-3.96c2.188,0,3.96,1.771,3.96,3.96
					C135.632,81.801,133.86,83.575,131.673,83.576z"/>
			</g>
		</g>
		<circle id="connector20pin" fill="none" stroke="#9A916C" stroke-width="1.224" cx="114.066" cy="74.466" r="2.052"/>
		<rect x="112.014" y="72.414" fill="none" stroke="#9A916C" stroke-width="1.224" width="4.104" height="4.104"/>
		<circle id="connector21pin" fill="none" stroke="#9A916C" stroke-width="1.224" cx="106.866" cy="74.466" r="2.052"/>
		<circle id="connector22pin" fill="none" stroke="#9A916C" stroke-width="1.224" cx="114.066" cy="67.266" r="2.052"/>
		<circle id="connector23pin" fill="none" stroke="#9A916C" stroke-width="1.224" cx="106.866" cy="67.266" r="2.052"/>
		<circle id="connector24pin" fill="none" stroke="#9A916C" stroke-width="1.224" cx="114.066" cy="60.066" r="2.052"/>
		<circle id="connector25pin" fill="none" stroke="#9A916C" stroke-width="1.224" cx="106.866" cy="60.066" r="2.052"/>
		<g id="connector44pin">
			<path fill="#9A916C" d="M131.67,76.553c1.688,0,3.061,1.373,3.061,3.06c0,1.688-1.373,3.061-3.061,3.061
				c-1.687,0-3.06-1.373-3.06-3.061C128.61,77.927,129.983,76.553,131.67,76.553 M131.67,74.754c-2.684,0-4.859,2.176-4.859,4.859
				c0,2.685,2.176,4.86,4.859,4.86c2.685,0,4.86-2.176,4.86-4.86C136.53,76.929,134.354,74.754,131.67,74.754L131.67,74.754z"/>
		</g>
		<g id="connector45pin">
			<path fill="#9A916C" d="M126.829,42.217c1.688,0,3.061,1.373,3.061,3.06c0,1.688-1.373,3.061-3.061,3.061
				s-3.061-1.373-3.061-3.061C123.768,43.589,125.141,42.217,126.829,42.217 M126.829,40.417c-2.684,0-4.86,2.176-4.86,4.859
				c0,2.685,2.177,4.86,4.86,4.86c2.685,0,4.86-2.176,4.86-4.86C131.689,42.593,129.513,40.417,126.829,40.417L126.829,40.417z"/>
		</g>
		<g id="connector46pin">
			<path fill="#9A916C" d="M104.098,16.117c1.687,0,3.06,1.373,3.06,3.061c0,1.687-1.373,3.06-3.06,3.06
				c-1.688,0-3.061-1.373-3.061-3.06C101.038,17.49,102.411,16.117,104.098,16.117 M104.098,14.317c-2.685,0-4.86,2.176-4.86,4.86
				c0,2.684,2.176,4.859,4.86,4.859c2.684,0,4.859-2.176,4.859-4.859C108.958,16.493,106.782,14.317,104.098,14.317L104.098,14.317z
				"/>
		</g>
		<g id="connector47pin">
			<path fill="#9A916C" d="M53.57,126.769c1.688,0,3.061,1.373,3.061,3.061s-1.373,3.061-3.061,3.061s-3.061-1.373-3.061-3.061
				S51.883,126.769,53.57,126.769 M53.57,124.969c-2.684,0-4.86,2.177-4.86,4.86c0,2.685,2.177,4.86,4.86,4.86
				c2.685,0,4.86-2.176,4.86-4.86C58.43,127.146,56.255,124.969,53.57,124.969L53.57,124.969z"/>
		</g>
		<g id="connector48pin">
			<path fill="#9A916C" d="M88.162,126.769c1.688,0,3.061,1.373,3.061,3.061s-1.373,3.061-3.061,3.061s-3.061-1.373-3.061-3.061
				S86.474,126.769,88.162,126.769 M88.162,124.969c-2.685,0-4.86,2.177-4.86,4.86c0,2.685,2.176,4.86,4.86,4.86
				c2.684,0,4.86-2.176,4.86-4.86C93.022,127.146,90.845,124.969,88.162,124.969L88.162,124.969z"/>
		</g>
		<g id="connector49pin">
			<path fill="#9A916C" d="M117.29,108.031c1.688,0,3.061,1.373,3.061,3.06c0,1.688-1.373,3.061-3.061,3.061
				c-1.687,0-3.06-1.373-3.06-3.061C114.23,109.404,115.603,108.031,117.29,108.031 M117.29,106.231
				c-2.684,0-4.859,2.176-4.859,4.859c0,2.685,2.176,4.86,4.859,4.86c2.685,0,4.86-2.176,4.86-4.86
				C122.15,108.407,119.974,106.231,117.29,106.231L117.29,106.231z"/>
		</g>
		<g id="connector50pin">
			<path fill="#9A916C" d="M24.442,108.031c1.687,0,3.06,1.373,3.06,3.06c0,1.688-1.373,3.061-3.06,3.061
				c-1.688,0-3.061-1.373-3.061-3.061C21.382,109.404,22.755,108.031,24.442,108.031 M24.442,106.231
				c-2.685,0-4.86,2.176-4.86,4.859c0,2.685,2.176,4.86,4.86,4.86c2.684,0,4.859-2.176,4.859-4.86
				C29.302,108.407,27.126,106.231,24.442,106.231L24.442,106.231z"/>
		</g>
		<g id="connector51pin">
			<path fill="#9A916C" d="M14.902,42.245c1.688,0,3.061,1.373,3.061,3.06c0,1.688-1.373,3.061-3.061,3.061
				c-1.687,0-3.06-1.373-3.06-3.061C11.843,43.617,13.215,42.245,14.902,42.245 M14.902,40.445c-2.684,0-4.859,2.176-4.859,4.859
				c0,2.685,2.176,4.86,4.859,4.86c2.685,0,4.86-2.176,4.86-4.86C19.762,42.621,17.587,40.445,14.902,40.445L14.902,40.445z"/>
		</g>
		<g id="connector52pin">
			<path fill="#9A916C" d="M37.662,16.117c1.687,0,3.06,1.373,3.06,3.061c0,1.687-1.373,3.06-3.06,3.06
				c-1.688,0-3.061-1.373-3.061-3.06C34.601,17.49,35.974,16.117,37.662,16.117 M37.662,14.317c-2.685,0-4.86,2.176-4.86,4.86
				c0,2.684,2.176,4.859,4.86,4.859c2.684,0,4.859-2.176,4.859-4.859C42.521,16.493,40.345,14.317,37.662,14.317L37.662,14.317z"/>
		</g>
		<g id="connector53pin">
			<path fill="#9A916C" d="M70.866,6.379c1.688,0,3.061,1.373,3.061,3.061S72.553,12.5,70.866,12.5s-3.061-1.373-3.061-3.061
				S69.178,6.379,70.866,6.379 M70.866,4.579c-2.684,0-4.86,2.177-4.86,4.86c0,2.685,2.177,4.86,4.86,4.86
				c2.685,0,4.86-2.176,4.86-4.86C75.726,6.756,73.551,4.579,70.866,4.579L70.866,4.579z"/>
		</g>
		<g id="connector54pin">
			<path fill="#9A916C" d="M9.948,76.581c1.688,0,3.061,1.373,3.061,3.061s-1.373,3.061-3.061,3.061c-1.687,0-3.06-1.373-3.06-3.061
				S8.261,76.581,9.948,76.581 M9.948,74.781c-2.684,0-4.859,2.176-4.859,4.86s2.176,4.86,4.859,4.86c2.685,0,4.86-2.176,4.86-4.86
				S12.633,74.781,9.948,74.781L9.948,74.781z"/>
		</g>
	</g>
	<g id="jst-2-smd" transform="matrix(1, 0, 0, 1, 21.0642, 57.3355)">
		<g transform="matrix(0, -1, 1, 0, 1.61147, 23.0625)">
			<g>
				<g>
					<g>
						<polygon fill="#B7B7B7" points="7.993,21.451 9.718,21.451 9.718,16.392 7.993,16.392 						"/>
						<polygon fill="#B7B7B7" points="15.192,21.451 16.915,21.451 16.915,16.392 15.192,16.392 						"/>
					</g>
				</g>
				
					<rect x="4.494" y="-1.589" transform="matrix(-2.547107e-06 -1 1 -2.547107e-06 1.5889 23.0847)" fill="#AD9E73" width="15.686" height="24.674"/>
				<g>
					<polygon fill="#C2B990" points="19.739,15.208 17.778,15.208 17.778,14.194 6.963,14.194 6.963,15.208 5.138,15.208 
						5.138,18.589 19.739,18.589 					"/>
				</g>
				
					<rect x="10.884" y="-7.842" transform="matrix(-2.547107e-06 -1 1 -2.547107e-06 10.8843 13.7892)" fill="#F1F3E6" width="2.905" height="18.59"/>
				<polygon opacity="0.5" fill="#A0916B" enable-background="new    " points="5.138,15.203 6.963,15.203 6.963,14.188 
					17.778,14.188 17.778,15.203 19.739,15.203 19.739,12.324 17.778,12.324 6.963,12.324 5.138,12.324 				"/>
				
					<rect x="9.82" y="0.827" transform="matrix(-2.547107e-06 -1 1 -2.547107e-06 4.311 20.5676)" opacity="0.1" fill="#FFFFFF" enable-background="new    " width="5.239" height="14.602"/>
				
					<rect x="9.82" y="-1.286" transform="matrix(-2.547107e-06 -1 1 -2.547107e-06 6.4248 18.4538)" opacity="0.1" fill="#FFFFFF" enable-background="new    " width="5.238" height="14.602"/>
				<g>
					<g>
						<path fill="#F1F3E6" d="M0,18.589v2.862h3.042v-2.862H0z"/>
					</g>
				</g>
				<g>
					<g>
						<path fill="#F1F3E6" d="M21.632,18.589v2.862h3.042v-2.862H21.632z"/>
					</g>
				</g>
				<g>
					<g>
						<polygon fill="#F1F3E6" points="0,2.905 0,18.589 5.138,18.589 5.138,6.016 8.179,6.016 8.179,18.589 16.696,18.589 
							16.696,6.016 19.739,6.016 19.739,18.589 24.674,18.589 24.674,2.905 						"/>
					</g>
				</g>
				
					<rect x="22.991" y="17.229" transform="matrix(-2.547107e-06 -1 1 -2.547107e-06 4.4024 41.9021)" opacity="0.4" fill="#C2B990" enable-background="new    " width="0.322" height="3.041"/>
				
					<rect x="1.36" y="17.229" transform="matrix(-2.547107e-06 -1 1 -2.547107e-06 -17.229 20.2707)" opacity="0.4" fill="#C2B990" enable-background="new    " width="0.322" height="3.042"/>
				
					<rect x="5.206" y="-0.068" transform="matrix(-2.547107e-06 -1 1 -2.547107e-06 5.2065 8.1115)" opacity="0.4" fill="#AD9E73" enable-background="new    " width="2.905" height="3.041"/>
				
					<rect x="16.765" y="-0.069" transform="matrix(-2.547107e-06 -1 1 -2.547107e-06 16.7652 19.6701)" opacity="0.4" fill="#AD9E73" enable-background="new    " width="2.905" height="3.043"/>
			</g>
		</g>
	</g>
	<g id="_x31_x06-smd" transform="matrix(1, 0, 0, 1, 49.2397, 12.0581)">
		<g transform="matrix(-1, 0, 0, -1, 43.203, 39.135)">
			<g>
				<polyline points="0,17.336 43.203,17.336 43.203,11.383 0,11.383 				"/>
				<g>
					<polygon fill="#B8AF82" points="33.553,36.788 32.994,39.134 31.812,39.134 31.254,36.788 31.254,15.904 33.553,15.904 					
						"/>
					<polygon fill="#E2D6A1" points="32.994,39.134 33.151,38.479 31.657,38.479 31.812,39.134 					"/>
				</g>
				<g>
					<polygon fill="#B8AF82" points="26.354,36.788 25.795,39.134 24.614,39.134 24.057,36.788 24.057,15.904 26.354,15.904 					
						"/>
					<polygon fill="#E2D6A1" points="25.795,39.134 25.951,38.479 24.457,38.479 24.614,39.134 					"/>
				</g>
				<g>
					<polygon fill="#B8AF82" points="19.153,36.788 18.596,39.134 17.414,39.134 16.855,36.788 16.855,15.904 19.153,15.904 					
						"/>
					<polygon fill="#E2D6A1" points="18.596,39.134 18.752,38.479 17.258,38.479 17.414,39.134 					"/>
				</g>
				<g>
					<polygon fill="#B8AF82" points="11.955,36.788 11.395,39.134 10.215,39.134 9.657,36.788 9.657,15.904 11.955,15.904 					"/>
					<polygon fill="#E2D6A1" points="11.395,39.134 11.553,38.479 10.059,38.479 10.215,39.134 					"/>
				</g>
				<g>
					<polygon fill="#B8AF82" points="4.75,36.788 4.189,39.134 3.01,39.134 2.451,36.788 2.451,15.904 4.75,15.904 					"/>
					<polygon fill="#E2D6A1" points="4.189,39.134 4.348,38.479 2.854,38.479 3.01,39.134 					"/>
				</g>
				<g>
					<g>
						<g>
							<path fill="#373737" d="M9.305,0"/>
						</g>
					</g>
					<polygon fill="#B8AF82" points="33.553,0 31.254,0 31.254,13.508 33.553,13.508 					"/>
					<polygon fill="#B8AF82" points="26.354,0 24.057,0 24.057,13.508 26.354,13.508 					"/>
					<polygon fill="#B8AF82" points="19.153,0 16.855,0 16.855,13.508 19.153,13.508 					"/>
					<polygon fill="#B8AF82" points="11.955,0 9.657,0 9.657,13.508 11.955,13.508 					"/>
					<polygon fill="#9A916C" points="33.553,0 31.254,0 31.254,0.44 33.553,0.44 					"/>
					<polygon fill="#9A916C" points="26.354,0 24.057,0 24.057,0.44 26.354,0.44 					"/>
					<polygon fill="#9A916C" points="19.153,0 16.855,0 16.855,0.44 19.153,0.44 					"/>
					<polygon fill="#9A916C" points="11.955,0 9.657,0 9.657,0.44 11.955,0.44 					"/>
					<polygon fill="#E2D6A1" points="33.553,0.458 31.254,0.458 31.254,1.117 33.553,1.117 					"/>
					<polygon fill="#E2D6A1" points="26.354,0.458 24.057,0.458 24.057,1.117 26.354,1.117 					"/>
					<polygon fill="#E2D6A1" points="19.153,0.458 16.855,0.458 16.855,1.117 19.153,1.117 					"/>
					<polygon fill="#E2D6A1" points="11.955,0.458 9.657,0.458 9.657,1.117 11.955,1.117 					"/>
					<polygon fill="#B8AF82" points="4.75,0 2.451,0 2.451,13.508 4.75,13.508 					"/>
					<polygon fill="#9A916C" points="4.75,0 2.451,0 2.451,0.44 4.75,0.44 					"/>
					<polygon fill="#E2D6A1" points="4.75,0.458 2.451,0.458 2.451,1.117 4.75,1.117 					"/>
					<g>
						<polygon points="0,11.383 0,17.336 36.004,17.336 36.004,11.383 						"/>
						<g>
							<rect x="8.229" y="11.383" fill="#404040" width="5.154" height="5.953"/>
							<polygon fill="#474747" points="13.383,17.336 14.405,17.336 14.405,11.383 13.383,11.383 							"/>
							<polygon fill="#373737" points="8.229,11.383 7.205,11.383 7.205,17.336 8.229,17.336 							"/>
						</g>
						<g>
							<rect x="29.827" y="11.383" fill="#404040" width="5.153" height="5.953"/>
							<polygon fill="#474747" points="34.98,17.336 36.004,17.336 36.004,11.383 34.98,11.383 							"/>
							<polygon fill="#373737" points="29.826,11.383 28.805,11.383 28.805,17.336 29.826,17.336 							"/>
						</g>
						<g>
							<polygon fill="#B8AF82" points="40.752,36.788 40.194,39.134 39.014,39.134 38.455,36.788 38.455,15.904 40.752,15.904 
															"/>
							<polygon fill="#E2D6A1" points="40.194,39.134 40.352,38.479 38.855,38.479 39.014,39.134 							"/>
						</g>
						<polygon fill="#B8AF82" points="40.752,0 38.455,0 38.455,13.508 40.752,13.508 						"/>
						<polygon fill="#9A916C" points="40.752,0 38.455,0 38.455,0.44 40.752,0.44 						"/>
						<polygon fill="#E2D6A1" points="40.752,0.458 38.455,0.458 38.455,1.117 40.752,1.117 						"/>
						<g>
							<rect x="37.028" y="11.383" fill="#404040" width="5.153" height="5.953"/>
							<polygon fill="#474747" points="42.182,17.336 43.203,17.336 43.203,11.383 42.182,11.383 							"/>
							<polygon fill="#373737" points="37.027,11.383 36.004,11.383 36.004,17.336 37.027,17.336 							"/>
						</g>
						<g>
							<rect x="22.628" y="11.383" fill="#404040" width="5.153" height="5.953"/>
							<polygon fill="#474747" points="27.782,17.336 28.805,17.336 28.805,11.383 27.782,11.383 							"/>
							<polygon fill="#373737" points="22.627,11.383 21.604,11.383 21.604,17.336 22.627,17.336 							"/>
						</g>
						<g>
							<rect x="15.428" y="11.383" fill="#404040" width="5.153" height="5.953"/>
							<polygon fill="#474747" points="20.582,17.336 21.604,17.336 21.604,11.383 20.582,11.383 							"/>
							<polygon fill="#373737" points="15.428,11.383 14.405,11.383 14.405,17.336 15.428,17.336 							"/>
						</g>
						<g>
							<rect x="1.024" y="11.383" fill="#404040" width="5.153" height="5.953"/>
							<polygon fill="#474747" points="6.178,17.336 7.2,17.336 7.2,11.383 6.178,11.383 							"/>
							<polygon fill="#373737" points="1.024,11.383 0,11.383 0,17.336 1.024,17.336 							"/>
						</g>
					</g>
				</g>
			</g>
		</g>
	</g>
	<g id="tactile_switch_smd" transform="matrix(1, 0, 0, 1, 31.4415, 37.2241)">
		<g transform="matrix(0, -1, 1, 0, 0, 16.392)">
			<polygon fill="#6D6D6D" points="1.142,12.976 3.415,15.25 12.978,15.25 15.25,12.976 15.25,3.413 12.978,1.141 3.415,1.141 
				1.142,3.413 			"/>
			
				<rect x="0" y="3.415" transform="matrix(-2.547107e-06 -1 1 -2.547107e-06 4.787445e-04 16.3924)" fill="#6D6D6D" width="16.393" height="9.562"/>
			
				<rect x="3.415" y="-0.002" transform="matrix(-2.547107e-06 -1 1 -2.547107e-06 0.0019 16.3899)" fill="#6D6D6D" width="9.562" height="16.392"/>
			<polygon fill="#7F7F7F" points="1.827,12.513 3.879,14.565 12.513,14.565 14.566,12.513 14.566,3.877 12.513,1.826 3.879,1.826 
				1.827,3.877 			"/>
			
				<polyline opacity="0.2" fill="none" stroke="#FFFFFF" stroke-width="0.2369" stroke-miterlimit="10" enable-background="new    " points="
				4.105,2.16 2.161,4.103 2.161,12.287 4.105,14.232 12.288,14.232 			"/>
			
				<polyline opacity="0.2" fill="none" stroke="#606060" stroke-width="0.2369" stroke-miterlimit="10" enable-background="new    " points="
				12.289,14.232 14.233,12.289 14.233,4.105 12.289,2.16 4.106,2.16 			"/>
			<g>
				<path fill="#BCA16A" d="M8.196,11.923c-2.056,0-3.728-1.672-3.728-3.727s1.672-3.728,3.728-3.728
					c2.055,0,3.727,1.672,3.727,3.728C11.922,10.251,10.25,11.923,8.196,11.923z"/>
				<path fill="#606060" d="M8.196,4.719c1.92,0,3.477,1.557,3.477,3.478c0,1.92-1.557,3.477-3.477,3.477
					c-1.921,0-3.478-1.557-3.478-3.477C4.719,6.275,6.276,4.719,8.196,4.719 M8.196,4.219c-2.193,0-3.978,1.783-3.978,3.978
					c0,2.192,1.784,3.977,3.978,3.977c2.191,0,3.977-1.783,3.977-3.977C12.172,6.003,10.388,4.219,8.196,4.219L8.196,4.219z"/>
			</g>
			
				<path opacity="0.2" fill="#BCA16A" stroke="#FFFFFF" stroke-width="0.5304" stroke-miterlimit="10" enable-background="new    " d="
				M10.39,10.389c-1.212,1.212-3.177,1.212-4.389,0c-1.212-1.213-1.212-3.179,0-4.391"/>
			
				<path opacity="0.2" fill="#BCA16A" stroke="#606060" stroke-width="0.5304" stroke-miterlimit="10" enable-background="new    " d="
				M6.001,5.999c1.212-1.212,3.177-1.212,4.389,0c1.212,1.213,1.212,3.178,0,4.391"/>
		</g>
	</g>
	<g id="ayz0202" transform="matrix(1, 0, 0, 1, 32.2036, 87.4282)">
		<g>
			<g>
				<polygon fill="#B7B7B7" points="2.202,12.353 3.927,12.353 3.927,9.491 2.202,9.491 				"/>
				<polygon fill="#B7B7B7" points="9.402,12.353 11.125,12.353 11.125,9.491 9.402,9.491 				"/>
				<polygon fill="#B7B7B7" points="16.603,12.353 18.324,12.353 18.324,9.491 16.603,9.491 				"/>
			</g>
			<g>
				<polygon fill="#B7B7B7" points="2.202,2.861 3.927,2.861 3.927,0 2.202,0 				"/>
				<polygon fill="#B7B7B7" points="9.402,2.861 11.125,2.861 11.125,0 9.402,0 				"/>
				<polygon fill="#B7B7B7" points="16.603,2.861 18.324,2.861 18.324,0 16.603,0 				"/>
			</g>
		</g>
		<rect x="0" y="1.263" fill="#1E1E1E" width="20.527" height="9.827"/>
		<rect x="4.943" y="1.975" width="10.643" height="0.267"/>
		<path fill="#898989" d="M19.002,4.096c-0.229,0-0.203-0.191-0.203-0.426v-2.06h-3.65c-0.232,0-0.425,0.191-0.425,0.427v2.214
			c0,0.232-0.191,0.425-0.425,0.425h-8.07c-0.232,0-0.425-0.191-0.425-0.425V2.037c0-0.234-0.191-0.427-0.425-0.427H1.73v2.06
			c0,0.233,0.024,0.426-0.203,0.426H0.249c-0.237,0-0.248,0.191-0.248,0.425v3.893c0,0.233,0.011,0.426,0.248,0.426h1.277
			c0.229,0,0.203,0.19,0.203,0.425v1.833h17.068V9.263c0-0.233-0.024-0.425,0.203-0.425h1.276c0.238,0,0.248-0.191,0.248-0.426
			V4.521c0-0.232-0.01-0.425-0.248-0.425H19.002z"/>
		<g>
			<path opacity="0.3" fill="#FFFFFF" enable-background="new    " d="M0.249,8.832h0.238V4.089H0.249
				c-0.237,0-0.248,0.19-0.248,0.425v3.892C0.001,8.641,0.012,8.832,0.249,8.832z"/>
			<rect x="0.488" y="4.089" opacity="0.1" fill="#FFFFFF" enable-background="new    " width="0.487" height="4.743"/>
		</g>
		<g>
			<path opacity="0.3" fill="#FFFFFF" enable-background="new    " d="M20.279,8.832H20.04V4.089h0.238
				c0.237,0,0.248,0.19,0.248,0.425v3.892C20.527,8.641,20.517,8.832,20.279,8.832z"/>
			<rect x="19.553" y="4.089" opacity="0.1" fill="#FFFFFF" enable-background="new    " width="0.487" height="4.743"/>
		</g>
		<path fill="#898989" d="M17.095,9.746c0,0.289-0.25,0.524-0.557,0.524H3.99c-0.307,0-0.557-0.236-0.557-0.524
			c0-0.289,0.25-0.525,0.557-0.525h12.549C16.845,9.221,17.095,9.457,17.095,9.746z"/>
		<g>
			<path fill="#666666" d="M16.538,9.221H3.99c-0.307,0-0.557,0.236-0.557,0.525H3.67c0-0.158,0.143-0.287,0.318-0.287h12.549
				c0.176,0,0.318,0.129,0.318,0.287h0.237C17.095,9.457,16.845,9.221,16.538,9.221z"/>
			<path opacity="0.3" fill="#FFFFFF" enable-background="new    " d="M16.538,10.033H3.99c-0.177,0-0.318-0.13-0.318-0.287H3.434
				c0,0.289,0.25,0.524,0.558,0.524h12.548c0.307,0,0.557-0.235,0.557-0.524h-0.237C16.857,9.904,16.714,10.033,16.538,10.033z"/>
		</g>
		<g>
			<path opacity="0.3" fill="#FFFFFF" enable-background="new    " d="M0.001,1.263v2.125c0,0.158,0.011,0.287,0.248,0.287h0.238
				V1.263H0.001z"/>
			<rect x="0.488" y="1.263" opacity="0.1" fill="#FFFFFF" enable-background="new    " width="0.487" height="2.412"/>
		</g>
		<g>
			<path opacity="0.3" fill="#FFFFFF" enable-background="new    " d="M0.001,11.09V9.519c0-0.158,0.011-0.287,0.248-0.287h0.238
				v1.858H0.001z"/>
			<rect x="0.488" y="9.231" opacity="0.1" fill="#FFFFFF" enable-background="new    " width="0.487" height="1.858"/>
		</g>
		<g>
			<path opacity="0.3" fill="#FFFFFF" enable-background="new    " d="M20.528,1.263v2.125c0,0.158-0.011,0.287-0.248,0.287h-0.238
				V1.263H20.528z"/>
			<rect x="19.554" y="1.263" opacity="0.1" fill="#FFFFFF" enable-background="new    " width="0.487" height="2.412"/>
		</g>
		<g>
			<path opacity="0.3" fill="#FFFFFF" enable-background="new    " d="M20.528,11.09V9.519c0-0.158-0.011-0.287-0.248-0.287h-0.238
				v1.858H20.528z"/>
			<rect x="19.554" y="9.231" opacity="0.1" fill="#FFFFFF" enable-background="new    " width="0.487" height="1.858"/>
		</g>
		<path fill="#232323" d="M14.287,4.197c0,0.156-0.128,0.284-0.283,0.284h-3.559c-0.155,0-0.283-0.127-0.283-0.284V1.965
			c0-0.156,0.127-0.284,0.283-0.284h3.559c0.154,0,0.282,0.127,0.282,0.284L14.287,4.197z"/>
		<g opacity="0.2">
			<path fill="none" stroke="#FFFFFF" stroke-width="0.1899" stroke-linecap="round" stroke-miterlimit="10" d="M10.404,4.28V2.053
				c0-0.093,0.076-0.17,0.17-0.17h3.472"/>
		</g>
		<g opacity="0.2">
			<path fill="none" stroke="#454545" stroke-width="0.1899" stroke-linecap="round" stroke-miterlimit="10" d="M14.045,1.882v2.227
				c0,0.094-0.076,0.17-0.17,0.17h-3.472"/>
		</g>
		
			<path opacity="0.2" fill="none" stroke="#FFFFFF" stroke-width="0.1899" stroke-linecap="round" stroke-miterlimit="10" enable-background="new    " d="
			M11.694,3.612C11.4,3.319,11.4,2.843,11.693,2.55c0.293-0.294,0.771-0.293,1.062,0"/>
		
			<path opacity="0.2" fill="none" stroke="#454545" stroke-width="0.1899" stroke-linecap="round" stroke-miterlimit="10" enable-background="new    " d="
			M12.755,2.55c0.294,0.293,0.294,0.769,0.001,1.062c-0.293,0.294-0.771,0.293-1.062,0"/>
	</g>
</g>
</svg>
