<?xml version="1.0" encoding="utf-8"?>
<!-- Generator: Adobe Illustrator 15.0.2, SVG Export Plug-In . SVG Version: 6.00 Build 0)  -->
<!DOCTYPE svg PUBLIC "-//W3C//DTD SVG 1.1//EN" "http://www.w3.org/Graphics/SVG/1.1/DTD/svg11.dtd">
<svg version="1.1" id="Layer_1" xmlns:svg="http://www.w3.org/2000/svg"
	 xmlns="http://www.w3.org/2000/svg" xmlns:xlink="http://www.w3.org/1999/xlink" x="0px" y="0px" width="43.2px" height="57.6px"
	 viewBox="0 0 43.2 57.6" enable-background="new 0 0 43.2 57.6" xml:space="preserve">
<desc>Fritzing breadboard generated by brd2svg</desc>
<g id="breadboard">
	<g id="icon">
		<path fill="#1F7A34" d="M0,0v26.64c1.193,0,2.16,0.967,2.16,2.16S1.193,30.96,0,30.96V57.6h43.2V0H0z"/>
		<g transform="translate(63.5,726.05)">
			<g transform="rotate(-90)">
				<text transform="matrix(1 0 0 1 673.4042 -58.9282)" fill="#FFFFFF" font-family="'OCRA'" font-size="3.24">1</text>
			</g>
		</g>
		<g transform="translate(63.5,73.95)">
			<g transform="rotate(-90)">
				<text transform="matrix(1 0 0 1 66.3096 -58.9282)" fill="#FFFFFF" font-family="'OCRA'" font-size="3.24">8</text>
			</g>
		</g>
		<g transform="translate(163.5,726.05)">
			<g transform="rotate(-90)">
				<text transform="matrix(1 0 0 1 673.4042 -151.728)" fill="#FFFFFF" font-family="'OCRA'" font-size="3.24">2</text>
			</g>
		</g>
		<g transform="translate(163.5,73.95)">
			<g transform="rotate(-90)">
				<text transform="matrix(1 0 0 1 66.3096 -151.728)" fill="#FFFFFF" font-family="'OCRA'" font-size="3.24">7</text>
			</g>
		</g>
		<g transform="translate(263.5,726.05)">
			<g transform="rotate(-90)">
				<text transform="matrix(1 0 0 1 673.4042 -244.5278)" fill="#FFFFFF" font-family="'OCRA'" font-size="3.24">3</text>
			</g>
		</g>
		<g transform="translate(263.5,73.95)">
			<g transform="rotate(-90)">
				<text transform="matrix(1 0 0 1 66.3096 -244.5278)" fill="#FFFFFF" font-family="'OCRA'" font-size="3.24">6</text>
			</g>
		</g>
		<g transform="translate(363.5,726.05)">
			<g transform="rotate(-90)">
				<text transform="matrix(1 0 0 1 673.4042 -337.3276)" fill="#FFFFFF" font-family="'OCRA'" font-size="3.24">4</text>
			</g>
		</g>
		<g transform="translate(363.5,73.95)">
			<g transform="rotate(-90)">
				<text transform="matrix(1 0 0 1 66.3096 -337.3276)" fill="#FFFFFF" font-family="'OCRA'" font-size="3.24">5</text>
			</g>
		</g>
		<g transform="translate(563.5,73.95)">
			<g transform="rotate(-90)">
				<text transform="matrix(1 0 0 1 66.3096 -522.9282)" fill="#FFFFFF" font-family="'OCRA'" font-size="3.24">S</text>
			</g>
		</g>
		<g>
			<rect x="13.317" y="38.843" width="29.04" height="9.699"/>
			<rect x="21.337" y="11.656" width="20.675" height="23.589"/>
			<path fill="#404040" d="M42.357,32.609h-1.032c-0.43,0-0.781-0.24-0.781-0.531v-2.074c0-0.293,0.353-0.529,0.781-0.529h1.032"/>
			<path opacity="0.1" enable-background="new    " d="M38.967,29.652l2.052,0.105c0.361,0.018,0.657,0.25,0.657,0.518
				s0,1.262,0,1.527s-0.296,0.5-0.657,0.52l-2.161,0.111"/>
			<path fill="#404040" d="M42.357,17.049h-1.032c-0.43,0-0.781-0.239-0.781-0.53v-2.076c0-0.292,0.353-0.528,0.781-0.528h1.032"/>
			<path opacity="0.1" enable-background="new    " d="M38.967,14.092l2.052,0.104c0.361,0.02,0.657,0.251,0.657,0.519
				c0,0.267,0,1.262,0,1.528c0,0.266-0.296,0.498-0.657,0.519l-2.161,0.111"/>
			<rect x="15.241" y="11.655" fill="#404040" width="3.522" height="24.563"/>
			<g>
				<g>
					<rect x="10.673" y="24.93" fill="#B7B7B7" width="4.306" height="0.977"/>
					<rect x="10.673" y="27.892" fill="#B7B7B7" width="4.306" height="0.977"/>
					<rect x="10.673" y="30.851" fill="#B7B7B7" width="4.306" height="0.977"/>
					<rect x="10.673" y="33.812" fill="#B7B7B7" width="4.306" height="0.977"/>
				</g>
			</g>
			<g>
				<g>
					<rect x="10.673" y="12.614" fill="#B7B7B7" width="4.306" height="0.978"/>
					<rect x="10.673" y="15.574" fill="#B7B7B7" width="4.306" height="0.978"/>
					<rect x="10.673" y="18.534" fill="#B7B7B7" width="4.306" height="0.978"/>
					<rect x="10.673" y="21.496" fill="#B7B7B7" width="4.306" height="0.977"/>
				</g>
			</g>
			<g opacity="0.15">
				<polygon points="14.749,24.596 14.493,24.596 14.493,26.253 14.749,26.253 14.749,27.552 14.493,27.552 14.493,29.208 
					14.749,29.208 14.749,30.511 14.493,30.511 14.493,32.169 14.749,32.169 14.749,33.495 14.493,33.495 14.493,35.152 
					14.749,35.152 14.749,35.406 17.102,35.406 17.102,24.239 14.749,24.239 				"/>
			</g>
			<g opacity="0.15">
				<polygon points="14.749,12.229 14.493,12.229 14.493,13.885 14.749,13.885 14.749,15.184 14.493,15.184 14.493,16.842 
					14.749,16.842 14.749,18.144 14.493,18.144 14.493,19.801 14.749,19.801 14.749,21.13 14.493,21.13 14.493,22.785 
					14.749,22.785 14.749,23.039 17.102,23.039 17.102,11.873 14.749,11.873 				"/>
			</g>
			<g>
				<g>
					<rect x="14.927" y="33.591" fill="#B7B7B7" width="0.282" height="1.418"/>
					<rect x="14.927" y="30.632" fill="#B7B7B7" width="0.282" height="1.418"/>
					<rect x="14.927" y="27.671" fill="#B7B7B7" width="0.282" height="1.418"/>
					<rect x="14.927" y="24.711" fill="#B7B7B7" width="0.282" height="1.417"/>
					<rect x="15.069" y="24.93" fill="#B7B7B7" width="2" height="0.977"/>
					<rect x="15.069" y="27.892" fill="#B7B7B7" width="2" height="0.977"/>
					<rect x="15.069" y="30.851" fill="#B7B7B7" width="2" height="0.977"/>
					<rect x="15.069" y="33.812" fill="#B7B7B7" width="2" height="0.977"/>
				</g>
				<rect x="16.468" y="23.606" opacity="0.15" enable-background="new    " width="1.808" height="11.903"/>
			</g>
			<g>
				<g>
					<rect x="14.927" y="21.275" fill="#B7B7B7" width="0.282" height="1.418"/>
					<rect x="14.927" y="18.314" fill="#B7B7B7" width="0.282" height="1.418"/>
					<rect x="14.927" y="15.354" fill="#B7B7B7" width="0.282" height="1.418"/>
					<rect x="14.927" y="12.393" fill="#B7B7B7" width="0.282" height="1.418"/>
					<rect x="15.069" y="12.614" fill="#B7B7B7" width="2" height="0.978"/>
					<rect x="15.069" y="15.574" fill="#B7B7B7" width="2" height="0.978"/>
					<rect x="15.069" y="18.534" fill="#B7B7B7" width="2" height="0.978"/>
					<rect x="15.069" y="21.496" fill="#B7B7B7" width="2" height="0.977"/>
				</g>
				<rect x="16.468" y="11.291" opacity="0.15" enable-background="new    " width="1.808" height="11.901"/>
			</g>
			<g opacity="0.2">
				<path fill="#666666" d="M2.25,11.716l2.338,1.471V36.87l-2.151,1.375v2.213L0,41.87v4.838h2.599c0,0,0-1.451,0-1.875
					c0-0.277,0.479-0.277,0.479,0v0.299c0,0.375,0.077,0.5,0.312,0.5h0.986c0.234,0,0.313-0.125,0.313-0.5v-0.299
					c0-0.277,0.479-0.277,0.479,0v3.986h3.161V9.677H2.25V11.716z"/>
			</g>
			<g>
				<path fill="#606060" d="M2.567,11.716l2.338,1.471V36.87l-2.151,1.375v2.213L0.317,41.87v4.838h2.599c0,0,0-1.451,0-1.875
					c0-0.277,0.479-0.277,0.479,0v0.299c0,0.375,0.078,0.5,0.312,0.5h0.985c0.234,0,0.313-0.125,0.313-0.5v-0.299
					c0-0.277,0.479-0.277,0.479,0v3.986h36.874v-3.795l-0.618-0.08c-0.154-0.02-0.281-0.164-0.281-0.318v-0.172
					c0-0.154,0.127-0.301,0.281-0.318l0.618-0.08V33.353l-18.566,0.521c-0.313,0.01-0.567-0.174-0.567-0.402
					c0-0.23,0.256-0.432,0.566-0.447l17.125-0.881c0.312-0.016,0.565-0.217,0.565-0.445v-1.316c0-0.229-0.255-0.43-0.565-0.445
					L23.79,29.056c-0.312-0.016-0.566-0.217-0.566-0.447c0-0.229,0.256-0.412,0.567-0.402l18.566,0.521V17.791l-18.566,0.521
					c-0.313,0.009-0.567-0.173-0.567-0.402s0.256-0.432,0.566-0.447l17.125-0.88c0.312-0.018,0.565-0.218,0.565-0.446V14.82
					c0-0.229-0.255-0.43-0.565-0.445l-17.125-0.88c-0.312-0.018-0.566-0.219-0.566-0.447c0-0.23,0.256-0.412,0.567-0.403
					l18.566,0.522V9.68H2.567V11.716z M16.774,42.148v-0.375c0-0.154,0.118-0.283,0.264-0.283c0.145,0,0.264,0.053,0.264,0.117
					c0,0.066,0.127,0.119,0.283,0.119h12.479c0.156,0,0.284,0.127,0.284,0.283v6.449H14.582v-1.275c0-0.154,0.126-0.301,0.28-0.324
					l7.674-1.137c0.154-0.021,0.373,0.049,0.483,0.156l0.468,0.449c0.112,0.107,0.332,0.197,0.487,0.197h2.589
					c0.156,0,0.284-0.129,0.284-0.283v-3.469c0-0.156-0.128-0.283-0.284-0.283H24.13c-0.156,0-0.365,0.098-0.466,0.217l-0.823,0.984
					c-0.101,0.119-0.31,0.229-0.465,0.24l-7.515,0.609c-0.154,0.014-0.281-0.104-0.281-0.26c0,0,0-2.514,0-2.613
					c0-0.098,0.115-0.18,0.259-0.18c0.142,0,0.258,0.129,0.258,0.283v0.377c0,0.156,0.127,0.283,0.283,0.283h1.108
					C16.647,42.431,16.774,42.304,16.774,42.148z M16.208,24.563c0.313,0,0.566,0.255,0.566,0.567v9.449
					c0,0.313-0.254,0.566-0.566,0.566h-5.783c-0.313,0-0.566-0.254-0.566-0.566v-9.448c0-0.313,0.254-0.567,0.566-0.567
					L16.208,24.563L16.208,24.563z M16.208,12.219c0.313,0,0.566,0.255,0.566,0.567v9.448c0,0.313-0.254,0.566-0.566,0.566h-5.783
					c-0.313,0-0.566-0.255-0.566-0.566v-9.448c0-0.313,0.254-0.567,0.566-0.567H16.208z"/>
			</g>
			<g opacity="0.24">
				<rect x="5.485" y="47.624" fill="#FFFFFF" width="9.097" height="1"/>
			</g>
			<g opacity="0.24">
				<rect x="0.317" y="45.015" fill="#FFFFFF" width="2.599" height="1.424"/>
			</g>
			<g opacity="0.24">
				<rect x="30.348" y="47.624" fill="#FFFFFF" width="12.01" height="1"/>
			</g>
			<g opacity="0.15">
				<rect x="2.567" y="9.845" fill="#FFFFFF" width="39.791" height="0.699"/>
			</g>
			
				<path opacity="0.24" fill="none" stroke="#FFFFFF" stroke-width="0.25" stroke-linecap="round" stroke-linejoin="round" enable-background="new    " d="
				M14.79,46.745l7.724-1.158c0.154-0.023,0.376,0.043,0.493,0.146l0.553,0.486c0.116,0.104,0.34,0.188,0.496,0.188h2.342"/>
			<rect x="14.582" y="48.458" opacity="0.24" fill="#FFFFFF" enable-background="new    " width="15.767" height="0.166"/>
			<g>
				
					<path opacity="0.15" fill="none" stroke="#FFFFFF" stroke-width="0.1984" stroke-linecap="round" enable-background="new    " d="
					M23.723,29.154c0,0,16.494,0.814,16.967,0.867c0.473,0.051,0.488,0.26,0.488,0.26"/>
				
					<path opacity="0.15" fill="none" stroke="#FFFFFF" stroke-width="0.1984" stroke-linecap="round" enable-background="new    " d="
					M23.694,32.919c0,0,16.522-0.828,16.995-0.881c0.474-0.053,0.488-0.244,0.488-0.244"/>
			</g>
			<g>
				
					<path opacity="0.15" fill="none" stroke="#FFFFFF" stroke-width="0.1984" stroke-linecap="round" enable-background="new    " d="
					M23.723,13.591c0,0,16.494,0.813,16.967,0.866c0.473,0.052,0.488,0.26,0.488,0.26"/>
				
					<path opacity="0.15" fill="none" stroke="#FFFFFF" stroke-width="0.1984" stroke-linecap="round" enable-background="new    " d="
					M23.694,17.354c0,0,16.522-0.829,16.995-0.881c0.474-0.052,0.488-0.245,0.488-0.245"/>
			</g>
			<path opacity="0.3" fill="none" stroke="#FFFFFF" stroke-width="0.2" stroke-linecap="round" enable-background="new    " d="
				M10.375,35.245h5.851c0.358,0,0.652-0.293,0.652-0.652v-9.466c0-0.359-0.294-0.652-0.652-0.652h-5.851"/>
			
				<line opacity="0.77" fill="none" stroke="#353535" stroke-width="0.2" stroke-linecap="round" enable-background="new    " x1="9.749" y1="34.581" x2="9.749" y2="24.995"/>
			<path opacity="0.3" fill="none" stroke="#FFFFFF" stroke-width="0.2" stroke-linecap="round" enable-background="new    " d="
				M10.375,22.897h5.851c0.358,0,0.652-0.293,0.652-0.651v-9.468c0-0.358-0.294-0.651-0.652-0.651h-5.851"/>
			
				<line opacity="0.77" fill="none" stroke="#353535" stroke-width="0.2" stroke-linecap="round" enable-background="new    " x1="9.749" y1="22.234" x2="9.749" y2="12.647"/>
			<rect x="14.79" y="47.624" opacity="0.24" fill="#FFFFFF" enable-background="new    " width="15.559" height="0.551"/>
			
				<line opacity="0.15" fill="none" stroke="#FFFFFF" stroke-width="0.1984" stroke-linecap="round" enable-background="new    " x1="23.739" y1="33.986" x2="42.021" y2="33.464"/>
			
				<line opacity="0.15" fill="none" stroke="#FFFFFF" stroke-width="0.1984" stroke-linecap="round" enable-background="new    " x1="23.739" y1="28.101" x2="42.021" y2="28.624"/>
			
				<line opacity="0.15" fill="none" stroke="#FFFFFF" stroke-width="0.1984" stroke-linecap="round" enable-background="new    " x1="23.739" y1="18.416" x2="42.021" y2="17.892"/>
			
				<line opacity="0.15" fill="none" stroke="#FFFFFF" stroke-width="0.1984" stroke-linecap="round" enable-background="new    " x1="23.739" y1="12.53" x2="42.021" y2="13.052"/>
			<rect x="26.848" y="44.464" fill="#404040" width="3.5" height="0.238"/>
			<rect x="26.848" y="44.464" fill="#353535" width="0.158" height="0.238"/>
			<rect x="30.188" y="44.464" fill="#353535" width="0.159" height="0.238"/>
			<path opacity="0.2" fill="none" stroke="#FFFFFF" stroke-width="0.2" stroke-miterlimit="10" enable-background="new    " d="
				M30.418,41.909c0-0.154-0.127-0.283-0.283-0.283h-12.48c-0.155,0-0.282-0.053-0.282-0.117"/>
			<path opacity="0.24" fill="#FFFFFF" enable-background="new    " d="M16.774,41.773v0.375c0,0.156-0.127,0.283-0.283,0.283
				h-1.109c-0.156,0-0.283-0.127-0.283-0.283v-0.375"/>
			
				<polyline opacity="0.3" fill="none" stroke="#FFFFFF" stroke-width="0.2" stroke-linecap="round" enable-background="new    " points="
				0.417,41.927 2.856,40.515 2.856,38.302 5.006,36.927 5.006,13.128 2.667,11.656 			"/>
			<path opacity="0.24" fill="#FFFFFF" enable-background="new    " d="M3.395,45.132c0,0.375,0.078,0.5,0.312,0.5h0.985
				c0.234,0,0.313-0.125,0.313-0.5H3.395z"/>
		</g>
	</g>
	<g transform="translate(34.035,734.05)">
		<rect id="connector0pad" x="-31.584" y="-681.198" fill="#8D8C8C" width="2.299" height="2.297"/>
		<rect x="-31.023" y="-680.642" fill="#8C8663" width="1.184" height="1.182"/>
		<polygon fill="#B8AF82" points="-31.584,-678.901 -31.023,-679.461 -31.023,-680.696 -31.584,-681.198 		"/>
		<polygon fill="#80795B" points="-29.842,-680.64 -31.015,-680.64 -31.584,-681.198 -29.285,-681.198 		"/>
		<polygon fill="#5E5B43" points="-29.842,-679.461 -29.842,-680.64 -29.285,-681.198 -29.285,-678.901 		"/>
		<polygon fill="#9A916C" points="-31.584,-678.901 -31.017,-679.461 -29.842,-679.461 -29.285,-678.901 		"/>
	</g>
	<g transform="translate(34.035,34.05)">
		<rect id="connector11pad" x="-31.584" y="-31.599" fill="#8D8C8C" width="2.299" height="2.297"/>
		<rect x="-31.023" y="-31.041" fill="#8C8663" width="1.184" height="1.182"/>
		<polygon fill="#B8AF82" points="-31.584,-29.302 -31.023,-29.86 -31.023,-31.097 -31.584,-31.599 		"/>
		<polygon fill="#80795B" points="-29.842,-31.039 -31.015,-31.039 -31.584,-31.599 -29.285,-31.599 		"/>
		<polygon fill="#5E5B43" points="-29.842,-29.86 -29.842,-31.039 -29.285,-31.599 -29.285,-29.302 		"/>
		<polygon fill="#9A916C" points="-31.584,-29.302 -31.017,-29.86 -29.842,-29.86 -29.285,-29.302 		"/>
	</g>
	<g transform="translate(134.035,734.05)">
		<rect id="connector1pad" x="-124.385" y="-681.198" fill="#8D8C8C" width="2.299" height="2.297"/>
		<rect x="-123.824" y="-680.642" fill="#8C8663" width="1.184" height="1.182"/>
		<polygon fill="#B8AF82" points="-124.385,-678.901 -123.824,-679.461 -123.824,-680.696 -124.385,-681.198 		"/>
		<polygon fill="#80795B" points="-122.641,-680.64 -123.815,-680.64 -124.385,-681.198 -122.085,-681.198 		"/>
		<polygon fill="#5E5B43" points="-122.641,-679.461 -122.641,-680.64 -122.085,-681.198 -122.085,-678.901 		"/>
		<polygon fill="#9A916C" points="-124.385,-678.901 -123.818,-679.461 -122.641,-679.461 -122.085,-678.901 		"/>
	</g>
	<g transform="translate(134.035,34.05)">
		<rect id="connector10pad" x="-124.385" y="-31.599" fill="#8D8C8C" width="2.299" height="2.297"/>
		<rect x="-123.824" y="-31.041" fill="#8C8663" width="1.184" height="1.182"/>
		<polygon fill="#B8AF82" points="-124.385,-29.302 -123.824,-29.86 -123.824,-31.097 -124.385,-31.599 		"/>
		<polygon fill="#80795B" points="-122.641,-31.039 -123.815,-31.039 -124.385,-31.599 -122.085,-31.599 		"/>
		<polygon fill="#5E5B43" points="-122.641,-29.86 -122.641,-31.039 -122.085,-31.599 -122.085,-29.302 		"/>
		<polygon fill="#9A916C" points="-124.385,-29.302 -123.818,-29.86 -122.641,-29.86 -122.085,-29.302 		"/>
	</g>
	<g transform="translate(234.035,734.05)">
		<rect id="connector2pad" x="-217.184" y="-681.198" fill="#8D8C8C" width="2.299" height="2.297"/>
		<rect x="-216.623" y="-680.642" fill="#8C8663" width="1.184" height="1.182"/>
		<polygon fill="#B8AF82" points="-217.184,-678.901 -216.623,-679.461 -216.623,-680.696 -217.184,-681.198 		"/>
		<polygon fill="#80795B" points="-215.442,-680.64 -216.616,-680.64 -217.184,-681.198 -214.886,-681.198 		"/>
		<polygon fill="#5E5B43" points="-215.442,-679.461 -215.442,-680.64 -214.886,-681.198 -214.886,-678.901 		"/>
		<polygon fill="#9A916C" points="-217.184,-678.901 -216.618,-679.461 -215.442,-679.461 -214.886,-678.901 		"/>
	</g>
	<g transform="translate(234.035,34.05)">
		<rect id="connector9pad" x="-217.184" y="-31.599" fill="#8D8C8C" width="2.299" height="2.297"/>
		<rect x="-216.623" y="-31.041" fill="#8C8663" width="1.184" height="1.182"/>
		<polygon fill="#B8AF82" points="-217.184,-29.302 -216.623,-29.86 -216.623,-31.097 -217.184,-31.599 		"/>
		<polygon fill="#80795B" points="-215.442,-31.039 -216.616,-31.039 -217.184,-31.599 -214.886,-31.599 		"/>
		<polygon fill="#5E5B43" points="-215.442,-29.86 -215.442,-31.039 -214.886,-31.599 -214.886,-29.302 		"/>
		<polygon fill="#9A916C" points="-217.184,-29.302 -216.618,-29.86 -215.442,-29.86 -214.886,-29.302 		"/>
	</g>
	<g transform="translate(334.035,734.05)">
		<rect id="connector3pad" x="-309.985" y="-681.198" fill="#8D8C8C" width="2.3" height="2.297"/>
		<rect x="-309.423" y="-680.642" fill="#8C8663" width="1.184" height="1.182"/>
		<polygon fill="#B8AF82" points="-309.985,-678.901 -309.423,-679.461 -309.423,-680.696 -309.985,-681.198 		"/>
		<polygon fill="#80795B" points="-308.242,-680.64 -309.415,-680.64 -309.985,-681.198 -307.685,-681.198 		"/>
		<polygon fill="#5E5B43" points="-308.242,-679.461 -308.242,-680.64 -307.685,-681.198 -307.685,-678.901 		"/>
		<polygon fill="#9A916C" points="-309.985,-678.901 -309.417,-679.461 -308.242,-679.461 -307.685,-678.901 		"/>
	</g>
	<g transform="translate(334.035,34.05)">
		<rect id="connector8pad" x="-309.985" y="-31.599" fill="#8D8C8C" width="2.3" height="2.297"/>
		<rect x="-309.423" y="-31.041" fill="#8C8663" width="1.184" height="1.182"/>
		<polygon fill="#B8AF82" points="-309.985,-29.302 -309.423,-29.86 -309.423,-31.097 -309.985,-31.599 		"/>
		<polygon fill="#80795B" points="-308.242,-31.039 -309.415,-31.039 -309.985,-31.599 -307.685,-31.599 		"/>
		<polygon fill="#5E5B43" points="-308.242,-29.86 -308.242,-31.039 -307.685,-31.599 -307.685,-29.302 		"/>
		<polygon fill="#9A916C" points="-309.985,-29.302 -309.417,-29.86 -308.242,-29.86 -307.685,-29.302 		"/>
	</g>
	<g transform="translate(434.035,734.05)">
		<rect id="connector4pad" x="-395.584" y="-731.6" fill="#8D8C8C" width="2.299" height="2.297"/>
		<rect x="-395.024" y="-731.043" fill="#8C8663" width="1.185" height="1.182"/>
		<polygon fill="#B8AF82" points="-395.584,-729.303 -395.024,-729.862 -395.024,-731.098 -395.584,-731.6 		"/>
		<polygon fill="#80795B" points="-393.841,-731.041 -395.016,-731.041 -395.584,-731.6 -393.286,-731.6 		"/>
		<polygon fill="#5E5B43" points="-393.841,-729.862 -393.841,-731.041 -393.286,-731.6 -393.286,-729.303 		"/>
		<polygon fill="#9A916C" points="-395.584,-729.303 -395.018,-729.862 -393.841,-729.862 -393.286,-729.303 		"/>
	</g>
	<g transform="translate(434.035,34.05)">
		<rect id="connector7pad" x="-395.584" y="-31.599" fill="#8D8C8C" width="2.299" height="2.297"/>
		<rect x="-395.024" y="-31.041" fill="#8C8663" width="1.185" height="1.182"/>
		<polygon fill="#B8AF82" points="-395.584,-29.302 -395.024,-29.86 -395.024,-31.097 -395.584,-31.599 		"/>
		<polygon fill="#80795B" points="-393.841,-31.039 -395.016,-31.039 -395.584,-31.599 -393.286,-31.599 		"/>
		<polygon fill="#5E5B43" points="-393.841,-29.86 -393.841,-31.039 -393.286,-31.599 -393.286,-29.302 		"/>
		<polygon fill="#9A916C" points="-395.584,-29.302 -395.018,-29.86 -393.841,-29.86 -393.286,-29.302 		"/>
	</g>
	<g transform="translate(534.035,734.05)">
		<rect id="connector5pad" x="-495.584" y="-731.599" fill="#8D8C8C" width="2.299" height="2.297"/>
		<rect x="-495.023" y="-731.042" fill="#8C8663" width="1.184" height="1.182"/>
		<polygon fill="#B8AF82" points="-495.584,-729.302 -495.023,-729.861 -495.023,-731.097 -495.584,-731.599 		"/>
		<polygon fill="#80795B" points="-493.841,-731.04 -495.015,-731.04 -495.584,-731.599 -493.286,-731.599 		"/>
		<polygon fill="#5E5B43" points="-493.841,-729.861 -493.841,-731.04 -493.286,-731.599 -493.286,-729.302 		"/>
		<polygon fill="#9A916C" points="-495.584,-729.302 -495.017,-729.861 -493.841,-729.861 -493.286,-729.302 		"/>
	</g>
	<g transform="translate(534.035,34.05)">
		<rect id="connector6pad" x="-495.584" y="-31.599" fill="#8D8C8C" width="2.299" height="2.297"/>
		<rect x="-495.023" y="-31.041" fill="#8C8663" width="1.184" height="1.182"/>
		<polygon fill="#B8AF82" points="-495.584,-29.302 -495.023,-29.86 -495.023,-31.097 -495.584,-31.599 		"/>
		<polygon fill="#80795B" points="-493.841,-31.039 -495.015,-31.039 -495.584,-31.599 -493.286,-31.599 		"/>
		<polygon fill="#5E5B43" points="-493.841,-29.86 -493.841,-31.039 -493.286,-31.599 -493.286,-29.302 		"/>
		<polygon fill="#9A916C" points="-495.584,-29.302 -495.017,-29.86 -493.841,-29.86 -493.286,-29.302 		"/>
	</g>
</g>
</svg>
