<?xml version='1.0' encoding='utf-8'?>
<!DOCTYPE svg PUBLIC '-//W3C//DTD SVG 1.1//EN' 'http://www.w3.org/Graphics/SVG/1.1/DTD/svg11.dtd'>
<!-- Generator: Adobe Illustrator 15.0.1, SVG Export Plug-In . SVG Version: 6.00 Build 0)  -->
<svg xmlns="http://www.w3.org/2000/svg" width="1.40158in" xml:space="preserve" xmlns:xml="http://www.w3.org/XML/1998/namespace" x="0px" version="1.1" y="0px" height="1.40158in" viewBox="0 0 100.914 100.914" id="Ebene_1" enable-background="new 0 0 100.914 100.914">
 <desc >Fritzing breadboard generated by brd2svg</desc>
 <g  id="breadboard">
  <g  id="icon">
   <path  fill="#672E58" d="M0,50.457c-0.078,27.867,22.449,50.521,50.315,50.599c27.866,0.076,50.52-22.449,50.598-50.316c0-0.094,0-0.188,0-0.283c0.078-27.866-22.449-50.52-50.316-50.598C22.731-0.219,0.078,22.309,0,50.174C0,50.27,0,50.363,0,50.457z M16.853,46.205c-0.002-0.665,0.536-1.206,1.201-1.208c0.666-0.002,1.206,0.536,1.208,1.201c0,0.002,0,0.005,0,0.007c0.002,0.666-0.536,1.207-1.201,1.208c-0.666,0.002-1.206-0.536-1.208-1.201C16.853,46.209,16.853,46.207,16.853,46.205z M16.853,54.708c-0.002-0.666,0.536-1.207,1.201-1.209c0.666-0.002,1.206,0.537,1.208,1.203c0,0.002,0,0.004,0,0.006c0.002,0.666-0.536,1.207-1.201,1.209s-1.206-0.537-1.208-1.203C16.853,54.712,16.853,54.71,16.853,54.708z M88.978,50.457c-0.002-2.187,1.77-3.961,3.957-3.962c2.186-0.002,3.961,1.771,3.963,3.957c0,0.002,0,0.004,0,0.005c0,2.189-1.771,3.96-3.959,3.962s-3.961-1.77-3.961-3.957C88.978,50.46,88.978,50.458,88.978,50.457z M16.257,80.697c0-2.188,1.772-3.959,3.959-3.961c2.188,0,3.96,1.773,3.96,3.961l0,0c0,2.188-1.771,3.961-3.959,3.961C18.03,84.658,16.257,82.884,16.257,80.697L16.257,80.697z M76.738,80.697c-0.002-2.188,1.77-3.961,3.957-3.963s3.961,1.771,3.963,3.957c0,0.002,0,0.004,0,0.006c0,2.188-1.771,3.961-3.957,3.963s-3.963-1.77-3.963-3.957C76.738,80.701,76.738,80.699,76.738,80.697z M76.738,20.217c-0.002-2.187,1.77-3.961,3.957-3.963c2.188-0.001,3.961,1.771,3.963,3.957c0,0.002,0,0.004,0,0.006c0,2.188-1.771,3.961-3.957,3.964c-2.188,0.001-3.963-1.771-3.963-3.958C76.738,20.222,76.738,20.219,76.738,20.217z M16.257,20.217c0-2.187,1.772-3.96,3.959-3.96c2.188,0,3.96,1.772,3.96,3.959c0,0,0,0,0,0.001c0,2.188-1.771,3.96-3.959,3.96C18.03,24.177,16.257,22.405,16.257,20.217L16.257,20.217z"/>
   <g >
    <title >layer 21</title>
    <g >
     <title >text:On</title>
     <text  fill="#FFFFFF" font-family="OCRA" transform="matrix(1 0 0 1 14.8169 65.5776)" font-size="4.6771">On</text>
    </g>
    <g >
     <title >text:Off</title>
     <text  fill="#FFFFFF" font-family="OCRA" transform="matrix(1 0 0 1 14.0967 39.2979)" font-size="4.6771">Off</text>
    </g>
    <g >
     <title >text:+</title>
     <text  fill="#FFFFFF" font-family="OCRA" transform="matrix(1 0 0 1 85.271 46.7139)" font-size="4.176">+</text>
    </g>
    <g >
     <title >text:-</title>
     <text  fill="#FFFFFF" font-family="OCRA" transform="matrix(1 0 0 1 28.751 23.3135)" font-size="4.176">-</text>
    </g>
    <g >
     <title >text:-</title>
     <text  fill="#FFFFFF" font-family="OCRA" transform="matrix(1 0 0 1 70.1509 23.3135)" font-size="4.176">-</text>
    </g>
    <g >
     <title >text:C</title>
     <text  fill="#FFFFFF" font-family="OCRA" transform="matrix(1 0 0 1 28.8569 81.7788)" font-size="4.176">C</text>
    </g>
    <g >
     <title >text:B</title>
     <text  fill="#FFFFFF" font-family="OCRA" transform="matrix(1 0 0 1 69.896 81.7788)" font-size="4.176">B</text>
    </g>
    <g >
     <title >element:100MA</title>
     <g >
      <title >package:PTC-1206</title>
      <line  fill="none" stroke="#FFFFFF" stroke-linecap="round" y1="52.257" stroke-width="0.576" x1="77.097" y2="48.657" x2="77.097"/>
      <line  fill="none" stroke="#FFFFFF" stroke-linecap="round" y1="48.657" stroke-width="0.576" x1="81.417" y2="52.257" x2="81.417"/>
     </g>
    </g>
    <g >
     <title >element:C2</title>
     <g >
      <title >package:0603-CAP</title>
      <line  fill="none" stroke="#FFFFFF" stroke-linecap="round" y1="32.457" stroke-width="1.584" x1="71.97" y2="32.457" x2="72.144"/>
     </g>
    </g>
    <g >
     <title >element:C10</title>
     <g >
      <title >package:EIA3528-21</title>
      <line  fill="none" stroke="#FFFFFF" stroke-linecap="round" y1="29.905" stroke-width="0.576" x1="60.322" y2="25.086" x2="60.322"/>
      <line  fill="none" stroke="#FFFFFF" stroke-linecap="round" y1="25.086" stroke-width="0.576" x1="60.322" y2="25.086" x2="69.25"/>
      <line  fill="none" stroke="#FFFFFF" stroke-linecap="round" y1="25.086" stroke-width="0.576" x1="69.25" y2="29.905" x2="69.25"/>
      <line  fill="none" stroke="#FFFFFF" stroke-linecap="round" y1="35.292" stroke-width="0.576" x1="60.462" y2="38.693" x2="60.462"/>
      <line  fill="none" stroke="#FFFFFF" stroke-linecap="round" y1="38.693" stroke-width="0.576" x1="60.462" y2="39.827" x2="61.455"/>
      <line  fill="none" stroke="#FFFFFF" stroke-linecap="round" y1="39.827" stroke-width="0.576" x1="61.455" y2="39.827" x2="68.4"/>
      <line  fill="none" stroke="#FFFFFF" stroke-linecap="round" y1="39.827" stroke-width="0.576" x1="68.4" y2="38.693" x2="69.25"/>
      <line  fill="none" stroke="#FFFFFF" stroke-linecap="round" y1="38.693" stroke-width="0.576" x1="69.25" y2="35.292" x2="69.25"/>
     </g>
    </g>
    <g >
     <title >element:C11</title>
     <g >
      <title >package:CPOL_1206</title>
      <line  fill="none" stroke="#FFFFFF" stroke-linecap="round" y1="33.223" stroke-width="0.576" x1="32.938" y2="28.97" x2="32.938"/>
      <line  fill="none" stroke="#FFFFFF" stroke-linecap="round" y1="28.97" stroke-width="0.576" x1="32.938" y2="28.97" x2="39.316"/>
      <line  fill="none" stroke="#FFFFFF" stroke-linecap="round" y1="28.97" stroke-width="0.576" x1="39.316" y2="33.223" x2="39.316"/>
      <line  fill="none" stroke="#FFFFFF" stroke-linecap="round" y1="38.892" stroke-width="0.576" x1="32.797" y2="41.727" x2="32.797"/>
      <line  fill="none" stroke="#FFFFFF" stroke-linecap="round" y1="41.727" stroke-width="0.576" x1="32.797" y2="43.145" x2="33.789"/>
      <line  fill="none" stroke="#FFFFFF" stroke-linecap="round" y1="43.145" stroke-width="0.576" x1="33.789" y2="43.145" x2="38.184"/>
      <line  fill="none" stroke="#FFFFFF" stroke-linecap="round" y1="43.145" stroke-width="0.576" x1="38.184" y2="41.727" x2="39.316"/>
      <line  fill="none" stroke="#FFFFFF" stroke-linecap="round" y1="41.727" stroke-width="0.576" x1="39.316" y2="38.892" x2="39.316"/>
     </g>
    </g>
    <g >
     <title >element:D1</title>
     <g >
      <title >package:SMA-DIODE</title>
      <line  fill="none" stroke="#FFFFFF" stroke-linecap="round" y1="64.175" stroke-width="0.576" x1="33.223" y2="64.175" x2="31.946"/>
      <line  fill="none" stroke="#FFFFFF" stroke-linecap="round" y1="64.175" stroke-width="0.576" x1="31.946" y2="51.138" x2="31.946"/>
      <line  fill="none" stroke="#FFFFFF" stroke-linecap="round" y1="51.138" stroke-width="0.576" x1="31.946" y2="51.138" x2="33.223"/>
      <line  fill="none" stroke="#FFFFFF" stroke-linecap="round" y1="51.138" stroke-width="0.576" x1="38.892" y2="51.138" x2="40.167"/>
      <line  fill="none" stroke="#FFFFFF" stroke-linecap="round" y1="51.138" stroke-width="0.576" x1="40.167" y2="64.175" x2="40.167"/>
      <line  fill="none" stroke="#FFFFFF" stroke-linecap="round" y1="64.175" stroke-width="0.576" x1="40.167" y2="64.175" x2="38.892"/>
      <line  fill="none" stroke="#FFFFFF" stroke-linecap="round" y1="54.822" stroke-width="0.576" x1="33.223" y2="54.822" x2="38.892"/>
     </g>
    </g>
    <g >
     <title >element:D2</title>
     <g >
      <title >package:SMA-DIODE</title>
      <line  fill="none" stroke="#FFFFFF" stroke-linecap="round" y1="33.223" stroke-width="0.576" x1="43.938" y2="31.946" x2="43.938"/>
      <line  fill="none" stroke="#FFFFFF" stroke-linecap="round" y1="31.946" stroke-width="0.576" x1="43.938" y2="31.946" x2="56.976"/>
      <line  fill="none" stroke="#FFFFFF" stroke-linecap="round" y1="31.946" stroke-width="0.576" x1="56.976" y2="33.223" x2="56.976"/>
      <line  fill="none" stroke="#FFFFFF" stroke-linecap="round" y1="38.892" stroke-width="0.576" x1="56.976" y2="40.167" x2="56.976"/>
      <line  fill="none" stroke="#FFFFFF" stroke-linecap="round" y1="40.167" stroke-width="0.576" x1="56.976" y2="40.167" x2="43.938"/>
      <line  fill="none" stroke="#FFFFFF" stroke-linecap="round" y1="40.167" stroke-width="0.576" x1="43.938" y2="38.892" x2="43.938"/>
      <line  fill="none" stroke="#FFFFFF" stroke-linecap="round" y1="33.223" stroke-width="0.576" x1="53.292" y2="38.892" x2="53.292"/>
     </g>
    </g>
    <g >
     <title >element:L1</title>
     <g >
      <title >package:CR54</title>
     </g>
    </g>
    <g >
     <title >element:LED1</title>
     <g >
      <title >package:LED-1206</title>
      <line  fill="none" stroke="#FFFFFF" stroke-linecap="round" y1="53.292" stroke-width="0.576" x1="62.023" y2="57.259" x2="62.023"/>
      <line  fill="none" stroke="#FFFFFF" stroke-linecap="round" y1="57.259" stroke-width="0.576" x1="62.023" y2="57.259" x2="67.691"/>
      <line  fill="none" stroke="#FFFFFF" stroke-linecap="round" y1="57.259" stroke-width="0.576" x1="67.691" y2="53.292" x2="67.691"/>
      <line  fill="none" stroke="#FFFFFF" stroke-linecap="round" y1="47.622" stroke-width="0.576" x1="62.023" y2="43.653" x2="62.023"/>
      <line  fill="none" stroke="#FFFFFF" stroke-linecap="round" y1="43.653" stroke-width="0.576" x1="62.023" y2="43.653" x2="67.691"/>
      <line  fill="none" stroke="#FFFFFF" stroke-linecap="round" y1="43.653" stroke-width="0.576" x1="67.691" y2="47.622" x2="67.691"/>
      <line  fill="none" stroke="#FFFFFF" stroke-linecap="round" y1="49.606" stroke-width="0.576" x1="62.873" y2="49.606" x2="64.857"/>
      <line  fill="none" stroke="#FFFFFF" stroke-linecap="round" y1="49.606" stroke-width="0.576" x1="64.857" y2="49.606" x2="66.841"/>
      <line  fill="none" stroke="#FFFFFF" stroke-linecap="round" y1="49.606" stroke-width="0.576" x1="64.857" y2="51.308" x2="63.156"/>
      <line  fill="none" stroke="#FFFFFF" stroke-linecap="round" y1="51.308" stroke-width="0.576" x1="63.156" y2="51.308" x2="66.558"/>
      <line  fill="none" stroke="#FFFFFF" stroke-linecap="round" y1="51.308" stroke-width="0.576" x1="66.558" y2="49.606" x2="64.857"/>
     </g>
    </g>
    <g >
     <title >element:R1</title>
     <g >
      <title >package:0603-RES</title>
     </g>
    </g>
    <g >
     <title >element:S1</title>
     <g >
      <title >package:AYZ0202</title>
      <line  fill="none" stroke="#FFFFFF" stroke-linecap="round" y1="60.662" stroke-width="0.576" x1="13.097" y2="60.662" x2="23.018"/>
      <line  fill="none" stroke="#FFFFFF" stroke-linecap="round" y1="60.662" stroke-width="0.576" x1="23.018" y2="40.252" x2="23.018"/>
      <line  fill="none" stroke="#FFFFFF" stroke-linecap="round" y1="40.252" stroke-width="0.576" x1="23.018" y2="40.252" x2="13.097"/>
      <line  fill="none" stroke="#FFFFFF" stroke-linecap="round" y1="40.252" stroke-width="0.576" x1="13.097" y2="60.662" x2="13.097"/>
     </g>
    </g>
    <g >
     <title >element:U$1</title>
     <g >
      <title >package:PETAL-LONG-2-2SIDE</title>
     </g>
    </g>
    <g >
     <title >element:U$2</title>
     <g >
      <title >package:PETAL-LONG-2-2SIDE</title>
     </g>
    </g>
    <g >
     <title >element:U$3</title>
     <g >
      <title >package:PETAL-LONG-2-2SIDE</title>
     </g>
    </g>
    <g >
     <title >element:U$4</title>
     <g >
      <title >package:PETAL-LONG-2-2SIDE</title>
     </g>
    </g>
    <g >
     <title >element:U$5</title>
     <g >
      <title >package:PETAL-LONG-2-2SIDE</title>
     </g>
    </g>
    <g >
     <title >element:U$7</title>
     <g >
      <title >package:LOGO-LILYPAD</title>
      <line  fill="none" stroke="#FFFFFF" stroke-linecap="round" y1="15.393" stroke-width="0.576" x1="54.455" y2="9.439" x2="54.455"/>
      <path  fill="none" stroke="#FFFFFF" stroke-width="0.576" d="M56.154,8.022c-0.859-0.078-1.621,0.556-1.699,1.417"/>
      <path  fill="none" stroke="#FFFFFF" stroke-width="0.576" d="M57.855,9.439c-0.078-0.861-0.84-1.496-1.701-1.417"/>
      <line  fill="none" stroke="#FFFFFF" stroke-linecap="round" y1="9.439" stroke-width="0.576" x1="57.855" y2="10.006" x2="57.855"/>
      <path  fill="none" stroke="#FFFFFF" stroke-width="0.576" d="M56.439,11.282c0.742,0.039,1.377-0.532,1.416-1.275"/>
      <line  fill="none" stroke="#FFFFFF" stroke-linecap="round" y1="11.282" stroke-width="0.576" x1="56.439" y2="11.282" x2="55.587"/>
      <path  fill="none" stroke="#FFFFFF" stroke-width="0.576" d="M57.712,15.393c0.549-0.078,0.93-0.586,0.852-1.135"/>
      <line  fill="none" stroke="#FFFFFF" stroke-linecap="round" y1="15.393" stroke-width="0.576" x1="57.712" y2="15.393" x2="57.146"/>
      <path  fill="none" stroke="#FFFFFF" stroke-width="0.576" d="M56.013,13.976c-0.078,0.705,0.43,1.339,1.133,1.417"/>
      <path  fill="none" stroke="#FFFFFF" stroke-width="0.576" d="M57.146,12.559c-0.703,0.077-1.211,0.713-1.133,1.417"/>
      <line  fill="none" stroke="#FFFFFF" stroke-linecap="round" y1="12.559" stroke-width="0.576" x1="57.146" y2="12.559" x2="57.429"/>
      <path  fill="none" stroke="#FFFFFF" stroke-width="0.576" d="M58.564,13.691c0-0.626-0.508-1.134-1.133-1.134h-0.002"/>
      <line  fill="none" stroke="#FFFFFF" stroke-linecap="round" y1="13.691" stroke-width="0.576" x1="58.564" y2="14.258" x2="58.564"/>
      <path  fill="none" stroke="#FFFFFF" stroke-width="0.576" d="M58.564,14.258c-0.117,0.51,0.199,1.017,0.709,1.135l0,0"/>
      <path  fill="none" stroke="#FFFFFF" stroke-width="0.576" d="M59.273,15.393c0.43,0.117,0.875-0.137,0.992-0.566l0,0"/>
      <line  fill="none" stroke="#FFFFFF" stroke-linecap="round" y1="14.825" stroke-width="0.576" x1="60.265" y2="14.685" x2="60.265"/>
      <line  fill="none" stroke="#FFFFFF" stroke-linecap="round" y1="14.685" stroke-width="0.576" x1="60.265" y2="13.976" x2="60.265"/>
      <path  fill="none" stroke="#FFFFFF" stroke-width="0.576" d="M61.541,12.559c-0.744,0.039-1.312,0.674-1.273,1.417"/>
      <path  fill="none" stroke="#FFFFFF" stroke-width="0.576" d="M62.816,14.117c0.078-0.783-0.492-1.481-1.275-1.559l0,0"/>
      <path  fill="none" stroke="#FFFFFF" stroke-width="0.576" d="M62.816,14.685c0.047-0.187,0.047-0.382,0-0.567"/>
      <path  fill="none" stroke="#FFFFFF" stroke-width="0.576" d="M61.964,15.534c0.42-0.104,0.746-0.432,0.852-0.85"/>
      <path  fill="none" stroke="#FFFFFF" stroke-width="0.576" d="M60.265,14.685c0.234,0.704,0.996,1.085,1.699,0.851l0,0"/>
      <line  fill="none" stroke="#FFFFFF" stroke-linecap="round" y1="14.685" stroke-width="0.576" x1="62.816" y2="14.967" x2="62.816"/>
      <path  fill="none" stroke="#FFFFFF" stroke-width="0.576" d="M62.816,14.967c0,0.313,0.254,0.567,0.566,0.567l0,0"/>
      <path  fill="none" stroke="#FFFFFF" stroke-width="0.576" d="M63.382,15.534c0.312,0,0.566-0.253,0.566-0.567l0,0"/>
      <line  fill="none" stroke="#FFFFFF" stroke-linecap="round" y1="14.4" stroke-width="0.576" x1="62.816" y2="8.73" x2="62.816"/>
      <line  fill="none" stroke="#FFFFFF" stroke-linecap="round" y1="11.99" stroke-width="0.576" x1="44.392" y2="11.85" x2="44.392"/>
      <path  fill="none" stroke="#FFFFFF" stroke-width="0.576" d="M38.438,7.03c0,2.035,1.648,3.685,3.685,3.685"/>
      <line  fill="none" stroke="#FFFFFF" stroke-linecap="round" y1="10.715" stroke-width="0.576" x1="42.123" y2="10.715" x2="42.548"/>
      <path  fill="none" stroke="#FFFFFF" stroke-width="0.576" d="M42.548,10.715c1.058,0.039,1.945-0.785,1.984-1.842"/>
      <path  fill="none" stroke="#FFFFFF" stroke-width="0.576" d="M44.532,8.873c0-0.47-0.381-0.851-0.85-0.851l0,0"/>
      <path  fill="none" stroke="#FFFFFF" stroke-width="0.576" d="M40.706,14.258c-0.273-1.213-1.479-1.975-2.692-1.7l0,0"/>
      <line  fill="none" stroke="#FFFFFF" stroke-linecap="round" y1="8.022" stroke-width="0.576" x1="43.398" y2="8.022" x2="43.683"/>
      <path  fill="none" stroke="#FFFFFF" stroke-width="0.576" d="M43.398,8.022c-1.097,0-1.984,0.889-1.984,1.983"/>
      <path  fill="none" stroke="#FFFFFF" stroke-width="0.576" d="M38.014,12.559c-0.822,0.116-1.394,0.878-1.276,1.699l0,0"/>
      <line  fill="none" stroke="#FFFFFF" stroke-linecap="round" y1="11.99" stroke-width="0.576" x1="41.414" y2="10.006" x2="41.414"/>
      <path  fill="none" stroke="#FFFFFF" stroke-width="0.576" d="M38.014,15.393c1.878,0,3.4-1.523,3.4-3.401l0,0"/>
      <path  fill="none" stroke="#FFFFFF" stroke-width="0.576" d="M36.737,14.258c0.039,0.665,0.61,1.174,1.275,1.135l0,0"/>
      <path  fill="none" stroke="#FFFFFF" stroke-width="0.576" d="M41.414,15.25c1.135,0.509,2.468,0.001,2.978-1.134"/>
      <line  fill="none" stroke="#FFFFFF" stroke-linecap="round" y1="13.691" stroke-width="0.576" x1="44.392" y2="12.841" x2="44.392"/>
      <line  fill="none" stroke="#FFFFFF" stroke-linecap="round" y1="13.691" stroke-width="0.576" x1="44.392" y2="14.117" x2="44.392"/>
      <line  fill="none" stroke="#FFFFFF" stroke-linecap="round" y1="13.408" stroke-width="0.576" x1="47.083" y2="8.73" x2="47.083"/>
      <path  fill="none" stroke="#FFFFFF" stroke-width="0.576" d="M44.392,13.691c-0.118,0.822,0.452,1.583,1.274,1.701l0,0"/>
      <path  fill="none" stroke="#FFFFFF" stroke-width="0.576" d="M45.666,15.393c0.792-0.1,1.396-0.762,1.417-1.56"/>
      <path  fill="none" stroke="#FFFFFF" stroke-width="0.576" d="M47.083,13.833c0.011-0.142,0.011-0.284,0-0.425"/>
      <line  fill="none" stroke="#FFFFFF" stroke-linecap="round" y1="13.976" stroke-width="0.576" x1="47.083" y2="13.833" x2="47.083"/>
      <path  fill="none" stroke="#FFFFFF" stroke-width="0.576" d="M47.083,13.976c0,0.782,0.634,1.417,1.417,1.417l0,0"/>
      <path  fill="none" stroke="#FFFFFF" stroke-width="0.576" d="M48.501,15.393c0.783,0,1.417-0.635,1.417-1.417l0,0"/>
      <line  fill="none" stroke="#FFFFFF" stroke-linecap="round" y1="13.976" stroke-width="0.576" x1="49.918" y2="12.274" x2="49.918"/>
      <path  fill="none" stroke="#FFFFFF" stroke-width="0.576" d="M49.918,13.976c0,0.782,0.636,1.417,1.417,1.417l0,0"/>
      <path  fill="none" stroke="#FFFFFF" stroke-width="0.576" d="M53.603,20.211c-0.156-2.035-1.934-3.558-3.968-3.4l0,0"/>
      <path  fill="none" stroke="#FFFFFF" stroke-width="0.576" d="M51.335,15.393c0.783,0,1.418-0.635,1.418-1.417l0,0"/>
      <line  fill="none" stroke="#FFFFFF" stroke-linecap="round" y1="13.976" stroke-width="0.576" x1="52.753" y2="12.274" x2="52.753"/>
      <line  fill="none" stroke="#FFFFFF" stroke-linecap="round" y1="16.243" stroke-width="0.576" x1="52.753" y2="13.976" x2="52.753"/>
      <line  fill="none" stroke="#FFFFFF" stroke-linecap="round" y1="16.811" stroke-width="0.576" x1="49.068" y2="16.811" x2="49.635"/>
      <path  fill="none" stroke="#FFFFFF" stroke-width="0.576" d="M49.068,16.811c-0.939,0-1.701,0.761-1.701,1.7l0,0"/>
      <path  fill="none" stroke="#FFFFFF" stroke-width="0.576" d="M49.068,19.928c2.035,0,3.685-1.649,3.685-3.685"/>
      <line  fill="none" stroke="#FFFFFF" stroke-linecap="round" y1="19.928" stroke-width="0.576" x1="48.784" y2="19.928" x2="49.068"/>
      <path  fill="none" stroke="#FFFFFF" stroke-width="0.576" d="M47.367,18.51c0,0.783,0.635,1.417,1.417,1.417"/>
      <path  fill="none" stroke="#FFFFFF" stroke-width="0.576" d="M40.706,14.258c0.156,0.783,0.918,1.291,1.701,1.135l0,0"/>
     </g>
    </g>
    <g >
     <title >element:U1</title>
     <g >
      <title >package:SOT23-5</title>
      <line  fill="none" stroke="#FFFFFF" stroke-linecap="round" y1="21.226" stroke-width="0.576" x1="49.239" y2="21.226" x2="51.673"/>
      <line  fill="none" stroke="#FFFFFF" stroke-linecap="round" y1="29.289" stroke-width="0.576" x1="51.673" y2="29.289" x2="49.239"/>
      <line  fill="none" stroke="#FFFFFF" stroke-linecap="round" y1="26.019" stroke-width="0.576" x1="48.16" y2="24.496" x2="48.16"/>
     </g>
    </g>
   </g>
   <g >
    <g >
     <path  fill="#FFFFFF" d="M27.375,75.63l-0.252-0.557l-0.348-0.504l-0.433-0.432l-0.502-0.348l-0.557-0.254l-0.592-0.146l-0.61-0.039l-0.606,0.066l-0.584,0.178l-0.562,0.287c-0.012,0.008-0.022,0.014-0.036,0.018c-0.011,0.004-0.021,0.008-0.034,0.012l-3.403,0.898l-3.256,1.15l-0.688,0.758l-0.588,0.896l-0.441,0.979l-0.281,1.035l-0.117,1.066l0.051,1.072l0.219,1.049l0.38,1.004l0.532,0.932l0.667,0.832l0.809,0.658l0.907,0.527l0.98,0.381l1.026,0.221l1.049,0.057l1.045-0.105l1.016-0.27l0.961-0.424l0.883-0.568l0.751-0.672l0.9-2.15l0.755-2.264l0.588-2.316c0.003-0.014,0.007-0.027,0.013-0.039l0,0c0.004-0.012,0.009-0.021,0.015-0.033l0.288-0.562l0.177-0.584l0.07-0.607l-0.04-0.609L27.375,75.63z M20.217,84.658c-2.188,0-3.96-1.773-3.96-3.961s1.773-3.959,3.96-3.959c2.188,0,3.96,1.771,3.96,3.959S22.404,84.658,20.217,84.658z M27.317,22.891l-0.288-0.562c-0.006-0.011-0.012-0.022-0.016-0.036c-0.005-0.011-0.009-0.021-0.011-0.034l-0.897-3.403L24.953,15.6l-0.757-0.688l-0.897-0.588l-0.979-0.441L21.285,13.6l-1.066-0.117l-1.07,0.052l-1.051,0.218l-1.004,0.38l-0.932,0.533l-0.831,0.667l-0.659,0.81l-0.527,0.907l-0.379,0.98l-0.223,1.027l-0.058,1.049l0.106,1.045l0.27,1.015l0.424,0.961l0.569,0.882l0.673,0.751l2.149,0.899l2.264,0.756l2.315,0.587c0.014,0.003,0.026,0.007,0.04,0.013c0.012,0.004,0.022,0.009,0.033,0.015l0.562,0.288l0.585,0.177l0.606,0.069l0.61-0.04l0.593-0.149l0.557-0.252l0.503-0.348l0.433-0.433l0.348-0.502l0.252-0.557l0.149-0.593l0.04-0.61l-0.07-0.606L27.317,22.891z M20.217,24.177c-2.188,0-3.96-1.772-3.96-3.96s1.773-3.96,3.96-3.96c2.188,0,3.96,1.773,3.96,3.96C24.177,22.404,22.404,24.177,20.217,24.177z M73.539,25.284l0.252,0.557l0.348,0.501l0.434,0.434l0.502,0.348l0.559,0.252l0.592,0.149l0.609,0.04l0.607-0.069l0.584-0.177l0.562-0.288c0.012-0.006,0.021-0.011,0.035-0.016c0.01-0.005,0.021-0.009,0.033-0.011l3.404-0.897l3.256-1.152l0.688-0.757l0.59-0.897l0.441-0.979l0.281-1.035l0.117-1.067l-0.053-1.071l-0.219-1.05l-0.381-1.005l-0.531-0.931l-0.666-0.831l-0.809-0.658l-0.908-0.527l-0.979-0.379l-1.027-0.223l-1.049-0.058l-1.045,0.106l-1.018,0.27l-0.961,0.424l-0.883,0.569l-0.752,0.672l-0.898,2.15L74.5,19.939l-0.59,2.316c-0.002,0.014-0.006,0.025-0.01,0.037c-0.006,0.013-0.01,0.023-0.018,0.035l-0.285,0.562l-0.18,0.584l-0.068,0.606l0.041,0.61L73.539,25.284z M80.697,16.256c2.188,0,3.961,1.773,3.961,3.96c0,2.188-1.773,3.96-3.961,3.96s-3.959-1.772-3.959-3.96C76.738,18.029,78.509,16.256,80.697,16.256z M99.742,49.418l-0.268-1.016l-0.426-0.961l-0.568-0.883l-0.701-0.783l-0.814-0.664l-0.906-0.528l-0.98-0.379l-1.027-0.222l-1.006-0.057l-2.156,0.886l-2.137,1.065L86.699,47.1c-0.012,0.007-0.021,0.013-0.033,0.018c-0.014,0.006-0.023,0.01-0.037,0.014l-0.6,0.194l-0.539,0.288l-0.48,0.38l-0.402,0.459l-0.312,0.524l-0.217,0.571l-0.109,0.602v0.611l0.109,0.602l0.217,0.57l0.312,0.525l0.402,0.459l0.48,0.379l0.539,0.287l0.6,0.193c0.012,0.004,0.023,0.008,0.033,0.014c0.012,0.006,0.023,0.012,0.035,0.018l3.041,1.771l3.117,1.488l1.021-0.049l1.051-0.219l1.004-0.381l0.93-0.529l0.838-0.674l0.723-0.795l0.588-0.895l0.441-0.98l0.281-1.035l0.117-1.059L99.742,49.418z M92.937,54.417c-2.188,0-3.959-1.771-3.959-3.96c0-2.187,1.771-3.96,3.959-3.96s3.961,1.773,3.961,3.96C96.898,52.644,95.125,54.417,92.937,54.417z M87.054,78.75l-0.424-0.961l-0.568-0.883l-0.674-0.75l-2.15-0.9L80.974,74.5l-2.316-0.588c-0.012-0.004-0.025-0.006-0.037-0.012c-0.012-0.004-0.023-0.01-0.035-0.018l-0.561-0.287l-0.586-0.178l-0.605-0.066l-0.609,0.039l-0.594,0.146l-0.557,0.254l-0.502,0.348l-0.434,0.432l-0.348,0.504l-0.252,0.557l-0.148,0.592l-0.041,0.609l0.07,0.607l0.178,0.584l0.287,0.562c0.006,0.012,0.01,0.021,0.016,0.031c0.004,0.012,0.008,0.025,0.012,0.037l0.898,3.404l1.15,3.256l0.756,0.688l0.898,0.588l0.979,0.441l1.035,0.281l1.066,0.117l1.072-0.051l1.049-0.219l1.004-0.381l0.932-0.533l0.832-0.666l0.658-0.807l0.527-0.91l0.381-0.979l0.221-1.025l0.059-1.049l-0.107-1.047L87.054,78.75z M80.697,84.658c-2.188,0-3.959-1.773-3.959-3.961s1.771-3.959,3.959-3.959s3.961,1.771,3.961,3.959S82.884,84.658,80.697,84.658z"/>
    </g>
   </g>
   <rect  width="4.32" x="77.097" y="48.657" fill="#FFFFFF" height="3.6" fill-opacity="0.15"/>
   <rect  width="8.93" x="60.322" y="25.086" fill="#FFFFFF" height="14.74" fill-opacity="0.15"/>
   <rect  width="6.521" x="32.797" y="28.97" fill="#FFFFFF" height="14.174" fill-opacity="0.15"/>
   <rect  width="8.221" x="31.946" y="51.138" fill="#FFFFFF" height="13.037" fill-opacity="0.15"/>
   <rect  width="13.039" x="43.938" y="31.946" fill="#FFFFFF" height="8.221" fill-opacity="0.15"/>
   <rect  width="5.668" x="62.023" y="43.653" fill="#FFFFFF" height="13.606" fill-opacity="0.15"/>
   <rect  width="1.295" x="71.41" y="49.377" fill="#FFFFFF" height="2.16" fill-opacity="0.15"/>
   <rect  width="3.513" x="48.16" y="21.226" fill="#FFFFFF" height="8.063" fill-opacity="0.15"/>
   <g  id="connector28pin">
    <path  fill="#9A916C" d="M92.937,47.709c1.515,0,2.748,1.232,2.748,2.747s-1.233,2.748-2.748,2.748s-2.748-1.233-2.748-2.748S91.422,47.709,92.937,47.709 M92.937,46.488c-2.192,0-3.969,1.776-3.969,3.968c0,2.192,1.776,3.969,3.969,3.969c2.191,0,3.969-1.776,3.969-3.969C96.906,48.265,95.128,46.488,92.937,46.488L92.937,46.488z"/>
   </g>
   <g  id="connector29pin">
    <path  fill="#9A916C" d="M20.217,77.949c1.515,0,2.747,1.233,2.747,2.748s-1.232,2.748-2.747,2.748c-1.515,0-2.748-1.233-2.748-2.748S18.702,77.949,20.217,77.949 M20.217,76.728c-2.192,0-3.969,1.777-3.969,3.969c0,2.192,1.777,3.969,3.969,3.969c2.191,0,3.968-1.776,3.968-3.969C24.185,78.505,22.408,76.728,20.217,76.728L20.217,76.728z"/>
   </g>
   <g  id="connector30pin">
    <path  fill="#9A916C" d="M80.697,77.949c1.515,0,2.748,1.233,2.748,2.748s-1.233,2.748-2.748,2.748s-2.748-1.233-2.748-2.748S79.182,77.949,80.697,77.949 M80.697,76.728c-2.191,0-3.969,1.777-3.969,3.969c0,2.192,1.777,3.969,3.969,3.969c2.192,0,3.969-1.776,3.969-3.969C84.666,78.505,82.889,76.728,80.697,76.728L80.697,76.728z"/>
   </g>
   <g  id="connector31pin">
    <path  fill="#9A916C" d="M80.697,17.469c1.515,0,2.748,1.232,2.748,2.748c0,1.515-1.233,2.747-2.748,2.747s-2.748-1.232-2.748-2.747C77.949,18.702,79.182,17.469,80.697,17.469 M80.697,16.248c-2.191,0-3.969,1.776-3.969,3.969c0,2.192,1.777,3.968,3.969,3.968c2.192,0,3.969-1.776,3.969-3.968C84.666,18.024,82.889,16.248,80.697,16.248L80.697,16.248z"/>
   </g>
   <g  id="connector32pin">
    <path  fill="#9A916C" d="M20.217,17.469c1.515,0,2.747,1.232,2.747,2.748c0,1.515-1.232,2.747-2.747,2.747c-1.515,0-2.748-1.232-2.748-2.747C17.469,18.702,18.702,17.469,20.217,17.469 M20.217,16.248c-2.192,0-3.969,1.777-3.969,3.969c0,2.191,1.777,3.968,3.969,3.968c2.191,0,3.968-1.777,3.968-3.968C24.185,18.025,22.408,16.248,20.217,16.248L20.217,16.248z"/>
   </g>
  </g>
  <g  id="jst-2-smd" transform="matrix(1, 0, 0, 1, 38.1458, 68.1876)">
   <g  transform="matrix(-1, 0, 0, -1, 24.674, 21.451)">
    <g >
     <g >
      <g >
       <polygon  fill="#B7B7B7" points="7.993,21.452 9.719,21.452 9.719,16.392 7.993,16.392 "/>
       <polygon  fill="#B7B7B7" points="15.192,21.452 16.915,21.452 16.915,16.392 15.192,16.392 "/>
      </g>
     </g>
     <rect  width="24.674" y="2.905" fill="#AD9E73" height="15.686"/>
     <g >
      <polygon  fill="#C2B990" points="19.739,15.207 17.778,15.207 17.778,14.194 6.963,14.194 6.963,15.207 5.139,15.207 5.139,18.588 19.739,18.588 "/>
     </g>
     <rect  width="18.59" x="3.042" y="0" fill="#F1F3E6" height="2.904"/>
     <polygon  opacity="0.5" fill="#A0916B" points="5.139,15.204 6.963,15.204 6.963,14.188 17.778,14.188 17.778,15.204 19.739,15.204 19.739,12.325 17.778,12.325 6.963,12.325 5.139,12.325 " enable-background="new    "/>
     <rect  width="14.602" x="5.139" opacity="0.1" y="5.508" fill="#FFFFFF" height="5.24" enable-background="new    "/>
     <rect  width="14.602" x="5.139" opacity="0.1" y="3.395" fill="#FFFFFF" height="5.238" enable-background="new    "/>
     <g >
      <g >
       <path  fill="#F1F3E6" d="M0,18.588v2.863h3.042v-2.863H0z"/>
      </g>
     </g>
     <g >
      <g >
       <path  fill="#F1F3E6" d="M21.632,18.588v2.863h3.042v-2.863H21.632z"/>
      </g>
     </g>
     <g >
      <g >
       <polygon  fill="#F1F3E6" points="0,2.905 0,18.588 5.139,18.588 5.139,6.016 8.18,6.016 8.18,18.588 16.696,18.588 16.696,6.016 19.739,6.016 19.739,18.588 24.674,18.588 24.674,2.905 "/>
      </g>
     </g>
     <rect  width="3.041" x="21.632" opacity="0.4" y="18.588" fill="#C2B990" height="0.322" enable-background="new    "/>
     <rect  width="3.042" opacity="0.4" y="18.588" fill="#C2B990" height="0.322" enable-background="new    "/>
     <rect  width="3.041" x="5.139" opacity="0.4" y="0" fill="#AD9E73" height="2.904" enable-background="new    "/>
     <rect  width="3.043" x="16.696" opacity="0.4" y="0" fill="#AD9E73" height="2.904" enable-background="new    "/>
    </g>
   </g>
  </g>
  <g  id="ayz0202" transform="matrix(1, 0, 0, 1, 7.7814, 44.2542)">
   <g  transform="matrix(0, 1, -1, 0, 16.4404, -4.08748)">
    <g >
     <g >
      <polygon  fill="#B7B7B7" points="2.202,12.353 3.927,12.353 3.927,9.491 2.202,9.491 "/>
      <polygon  fill="#B7B7B7" points="9.402,12.353 11.125,12.353 11.125,9.491 9.402,9.491 "/>
      <polygon  fill="#B7B7B7" points="16.602,12.353 18.325,12.353 18.325,9.491 16.602,9.491 "/>
     </g>
     <g >
      <polygon  fill="#B7B7B7" points="2.202,2.861 3.927,2.861 3.927,0 2.202,0 "/>
      <polygon  fill="#B7B7B7" points="9.402,2.861 11.125,2.861 11.125,0 9.402,0 "/>
      <polygon  fill="#B7B7B7" points="16.602,2.861 18.325,2.861 18.325,0 16.602,0 "/>
     </g>
    </g>
    <rect  width="9.827" x="5.351" y="-4.088" fill="#1E1E1E" height="20.528" transform="matrix(2.578893e-06 1 -1 2.578893e-06 16.4406 -4.0878)"/>
    <rect  width="0.266" x="10.131" y="-3.213" height="10.642" transform="matrix(2.578893e-06 1 -1 2.578893e-06 12.372 -8.1559)"/>
    <path  fill="#898989" d="M19.003,4.096c-0.229,0-0.203-0.191-0.203-0.426V1.611h-3.65c-0.233,0-0.426,0.191-0.426,0.426v2.214c0,0.233-0.19,0.425-0.424,0.425H6.229c-0.233,0-0.425-0.191-0.425-0.425V2.037c0-0.234-0.191-0.426-0.425-0.426H1.73V3.67c0,0.234,0.024,0.426-0.203,0.426H0.249c-0.237,0-0.248,0.191-0.248,0.425v3.892c0,0.234,0.011,0.426,0.248,0.426h1.278c0.228,0,0.203,0.191,0.203,0.425v1.833h17.068V9.263c0-0.233-0.023-0.425,0.203-0.425h1.277c0.238,0,0.248-0.191,0.248-0.426V4.521c0-0.233-0.01-0.425-0.248-0.425H19.003z"/>
    <g >
     <path  opacity="0.3" fill="#FFFFFF" enable-background="new    " d="M0.249,8.832h0.239V4.089H0.249c-0.237,0-0.248,0.191-0.248,0.425v3.892C0.001,8.641,0.012,8.832,0.249,8.832z"/>
     <rect  width="4.743" x="-1.64" opacity="0.1" y="6.217" fill="#FFFFFF" height="0.487" enable-background="new    " transform="matrix(2.578893e-06 1 -1 2.578893e-06 7.192 5.7291)"/>
    </g>
    <g >
     <path  opacity="0.3" fill="#FFFFFF" enable-background="new    " d="M20.279,8.832H20.04V4.089h0.239c0.237,0,0.248,0.191,0.248,0.425v3.892C20.527,8.641,20.516,8.832,20.279,8.832z"/>
     <rect  width="4.743" x="17.425" opacity="0.1" y="6.217" fill="#FFFFFF" height="0.486" enable-background="new    " transform="matrix(2.578893e-06 1 -1 2.578893e-06 26.2572 -13.3361)"/>
    </g>
    <path  fill="#898989" d="M17.095,9.746c0,0.289-0.25,0.525-0.557,0.525H3.99c-0.307,0-0.557-0.236-0.557-0.525s0.25-0.525,0.557-0.525h12.548C16.845,9.221,17.095,9.457,17.095,9.746z"/>
    <g >
     <path  fill="#666666" d="M16.538,9.221H3.99c-0.307,0-0.557,0.236-0.557,0.525H3.67c0-0.158,0.143-0.287,0.319-0.287h12.548c0.177,0,0.319,0.129,0.319,0.287h0.236C17.095,9.457,16.845,9.221,16.538,9.221z"/>
     <path  opacity="0.3" fill="#FFFFFF" enable-background="new    " d="M16.538,10.033H3.99c-0.177,0-0.319-0.129-0.319-0.287H3.434c0,0.289,0.25,0.525,0.557,0.525h12.548c0.308,0,0.558-0.236,0.558-0.525h-0.238C16.856,9.904,16.714,10.033,16.538,10.033z"/>
    </g>
    <g >
     <path  opacity="0.3" fill="#FFFFFF" enable-background="new    " d="M0.001,1.263v2.125c0,0.158,0.011,0.287,0.248,0.287h0.239V1.263H0.001z"/>
     <rect  width="2.412" x="-0.475" opacity="0.1" y="2.225" fill="#FFFFFF" height="0.487" enable-background="new    " transform="matrix(2.578893e-06 1 -1 2.578893e-06 3.2003 1.7374)"/>
    </g>
    <g >
     <path  opacity="0.3" fill="#FFFFFF" enable-background="new    " d="M0.001,11.09V9.519c0-0.158,0.011-0.287,0.248-0.287h0.239v1.858H0.001z"/>
     <rect  width="1.858" x="-0.197" opacity="0.1" y="9.917" fill="#FFFFFF" height="0.487" enable-background="new    " transform="matrix(2.578893e-06 1 -1 2.578893e-06 10.8915 9.4285)"/>
    </g>
    <g >
     <path  opacity="0.3" fill="#FFFFFF" enable-background="new    " d="M20.528,1.263v2.125c0,0.158-0.012,0.287-0.248,0.287h-0.239V1.263H20.528z"/>
     <rect  width="2.412" x="18.591" opacity="0.1" y="2.225" fill="#FFFFFF" height="0.487" enable-background="new    " transform="matrix(2.578893e-06 1 -1 2.578893e-06 22.266 -17.3283)"/>
    </g>
    <g >
     <path  opacity="0.3" fill="#FFFFFF" enable-background="new    " d="M20.528,11.09V9.519c0-0.158-0.012-0.287-0.248-0.287h-0.239v1.858H20.528z"/>
     <rect  width="1.858" x="18.868" opacity="0.1" y="9.916" fill="#FFFFFF" height="0.487" enable-background="new    " transform="matrix(2.578893e-06 1 -1 2.578893e-06 29.9571 -9.6371)"/>
    </g>
    <path  fill="#232323" d="M14.287,4.197c0,0.156-0.128,0.284-0.282,0.284h-3.559c-0.156,0-0.284-0.127-0.284-0.284V1.965c0-0.156,0.127-0.284,0.284-0.284h3.559c0.154,0,0.282,0.127,0.282,0.284V4.197z"/>
    <g  opacity="0.2">
     <path  fill="none" stroke="#FFFFFF" stroke-linecap="round" stroke-width="0.1899" d="M10.404,4.28V2.053c0-0.093,0.076-0.17,0.17-0.17h3.471" stroke-miterlimit="10"/>
    </g>
    <g  opacity="0.2">
     <path  fill="none" stroke="#454545" stroke-linecap="round" stroke-width="0.1899" d="M14.046,1.882v2.227c0,0.093-0.076,0.17-0.17,0.17h-3.472" stroke-miterlimit="10"/>
    </g>
    <path  opacity="0.2" fill="none" stroke="#FFFFFF" stroke-linecap="round" enable-background="new    " stroke-width="0.1899" d="M11.694,3.612C11.4,3.319,11.4,2.843,11.692,2.55c0.294-0.294,0.771-0.293,1.062,0" stroke-miterlimit="10"/>
    <path  opacity="0.2" fill="none" stroke="#454545" stroke-linecap="round" enable-background="new    " stroke-width="0.1899" d="M12.755,2.55c0.295,0.293,0.295,0.769,0.002,1.062c-0.293,0.294-0.771,0.293-1.062,0" stroke-miterlimit="10"/>
   </g>
  </g>
 </g>
</svg>
