<?xml version='1.0' encoding='utf-8'?>
<!DOCTYPE svg PUBLIC '-//W3C//DTD SVG 1.1//EN' 'http://www.w3.org/Graphics/SVG/1.1/DTD/svg11.dtd'>
<!-- Generator: Adobe Illustrator 15.0.1, SVG Export Plug-In . SVG Version: 6.00 Build 0)  -->
<svg xmlns="http://www.w3.org/2000/svg" width="2.2in" xml:space="preserve" xmlns:xml="http://www.w3.org/XML/1998/namespace" x="0px" version="1.1" y="0px" height="2.43544in" viewBox="0 0 158.4 175.352" id="Ebene_1" enable-background="new 0 0 158.4 175.352">
 <desc >Fritzing breadboard generated by brd2svg</desc>
 <g  id="breadboard">
  <g  id="icon">
   <g  transform="matrix(0, -1, 1, 0, 62.4756, 131.924)">
    <rect  width="2.834" x="125.543" y="33.334" fill="#9A916C" height="2.781" id="connector128pin" transform="matrix(-2.547107e-06 -1 1 -2.547107e-06 92.2363 161.6848)"/>
   </g>
   <g  transform="matrix(0, -1, 1, 0, 55.2756, 124.724)">
    <rect  width="2.835" x="118.343" y="33.334" fill="#9A916C" height="2.781" id="connector129pin" transform="matrix(-2.547107e-06 -1 1 -2.547107e-06 85.036 154.4851)"/>
   </g>
   <g  transform="matrix(0, -1, 1, 0, 48.0756, 117.524)">
    <rect  width="2.835" x="111.143" y="33.334" fill="#9A916C" height="2.781" id="connector130pin" transform="matrix(-2.547107e-06 -1 1 -2.547107e-06 77.8362 147.2849)"/>
   </g>
   <g  transform="matrix(0, -1, 1, 0, 40.8756, 110.324)">
    <rect  width="2.835" x="103.943" y="33.334" fill="#9A916C" height="2.781" id="connector131pin" transform="matrix(-2.547107e-06 -1 1 -2.547107e-06 70.6364 140.0847)"/>
   </g>
   <g  transform="matrix(0, -1, 1, 0, 33.6756, 103.124)">
    <rect  width="2.834" x="96.743" y="33.334" fill="#9A916C" height="2.781" id="connector132pin" transform="matrix(-2.547107e-06 -1 1 -2.547107e-06 63.4361 132.885)"/>
   </g>
   <g  transform="matrix(0, -1, 1, 0, 26.4756, 95.9242)">
    <rect  width="2.834" x="89.544" y="33.334" fill="#9A916C" height="2.781" id="connector133pin" transform="matrix(-2.547107e-06 -1 1 -2.547107e-06 56.2364 125.685)"/>
   </g>
   <rect  width="2.781" x="59.809" y="167.921" fill="none" height="2.781" stroke="#9A916C" id="connector134pin" stroke-width="0.864"/>
   <rect  width="2.781" x="67.01" y="167.921" fill="none" height="2.781" stroke="#9A916C" id="connector135pin" stroke-width="0.864"/>
   <rect  width="2.781" x="74.21" y="167.921" fill="none" height="2.781" stroke="#9A916C" id="connector136pin" stroke-width="0.864"/>
   <rect  width="2.78" x="81.41" y="167.921" fill="none" height="2.781" stroke="#9A916C" id="connector137pin" stroke-width="0.864"/>
   <rect  width="2.781" x="88.609" y="167.921" fill="none" height="2.781" stroke="#9A916C" id="connector138pin" stroke-width="0.864"/>
   <rect  width="2.781" x="95.809" y="167.921" fill="none" height="2.781" stroke="#9A916C" id="connector139pin" stroke-width="0.864"/>
  </g>
  <g >
   <g >
    <g >
     <path  d="M158.078,33.762V8.632h-24.965v1.088h-26.736V8.632H53.113v1.088H26.377V8.632H1.411v25.131H0.322v26.736h1.089v53.265H0.322v26.735h1.089v25.132h156.667v-25.132h-1.089v-26.735h1.089V60.499h-1.089V33.762H158.078z M26.377,166.719h26.736v-1.088H26.377V166.719z M106.377,166.719h26.736v-1.088h-26.736V166.719L106.377,166.719z"/>
    </g>
   </g>
   <g >
    <g >
     <circle  fill="#FFFFFF" cx="10.037" cy="17.597" r="6.52"/>
     <circle  fill="#FFFFFF" cx="29.953" cy="17.597" r="6.52"/>
     <circle  fill="#FFFFFF" cx="49.87" cy="17.597" r="6.52"/>
     <circle  fill="#FFFFFF" cx="69.786" cy="17.597" r="6.52"/>
     <circle  fill="#FFFFFF" cx="89.703" cy="17.597" r="6.52"/>
     <circle  fill="#FFFFFF" cx="109.619" cy="17.597" r="6.52"/>
     <circle  fill="#FFFFFF" cx="129.536" cy="17.597" r="6.52"/>
     <circle  fill="#FFFFFF" cx="149.452" cy="17.597" r="6.52"/>
    </g>
    <g >
     <circle  fill="#FFFFFF" cx="10.037" cy="37.464" r="6.52"/>
     <circle  fill="#FFFFFF" cx="29.953" cy="37.464" r="6.52"/>
     <circle  fill="#FFFFFF" cx="49.87" cy="37.464" r="6.52"/>
     <circle  fill="#FFFFFF" cx="69.786" cy="37.464" r="6.52"/>
     <circle  fill="#FFFFFF" cx="89.703" cy="37.464" r="6.52"/>
     <circle  fill="#FFFFFF" cx="109.619" cy="37.464" r="6.52"/>
     <circle  fill="#FFFFFF" cx="129.536" cy="37.464" r="6.52"/>
     <circle  fill="#FFFFFF" cx="149.452" cy="37.464" r="6.52"/>
    </g>
    <g >
     <circle  fill="#FFFFFF" cx="10.037" cy="57.331" r="6.52"/>
     <circle  fill="#FFFFFF" cx="29.953" cy="57.331" r="6.52"/>
     <circle  fill="#FFFFFF" cx="49.87" cy="57.331" r="6.52"/>
     <circle  fill="#FFFFFF" cx="69.786" cy="57.331" r="6.52"/>
     <circle  fill="#FFFFFF" cx="89.703" cy="57.331" r="6.52"/>
     <circle  fill="#FFFFFF" cx="109.619" cy="57.331" r="6.52"/>
     <circle  fill="#FFFFFF" cx="129.536" cy="57.331" r="6.52"/>
     <circle  fill="#FFFFFF" cx="149.452" cy="57.331" r="6.52"/>
    </g>
    <g >
     <circle  fill="#FFFFFF" cx="10.037" cy="77.197" r="6.52"/>
     <circle  fill="#FFFFFF" cx="29.953" cy="77.197" r="6.52"/>
     <circle  fill="#FFFFFF" cx="49.87" cy="77.197" r="6.52"/>
     <circle  fill="#FFFFFF" cx="69.786" cy="77.197" r="6.52"/>
     <circle  fill="#FFFFFF" cx="89.703" cy="77.197" r="6.52"/>
     <circle  fill="#FFFFFF" cx="109.619" cy="77.197" r="6.52"/>
     <circle  fill="#FFFFFF" cx="129.536" cy="77.197" r="6.52"/>
     <circle  fill="#FFFFFF" cx="149.452" cy="77.197" r="6.52"/>
    </g>
    <g >
     <circle  fill="#FFFFFF" cx="10.037" cy="97.063" r="6.52"/>
     <circle  fill="#FFFFFF" cx="29.953" cy="97.063" r="6.52"/>
     <circle  fill="#FFFFFF" cx="49.87" cy="97.063" r="6.52"/>
     <circle  fill="#FFFFFF" cx="69.786" cy="97.063" r="6.52"/>
     <circle  fill="#FFFFFF" cx="89.703" cy="97.063" r="6.52"/>
     <circle  fill="#FFFFFF" cx="109.619" cy="97.063" r="6.52"/>
     <circle  fill="#FFFFFF" cx="129.536" cy="97.063" r="6.52"/>
     <circle  fill="#FFFFFF" cx="149.452" cy="97.063" r="6.52"/>
    </g>
    <g >
     <circle  fill="#FFFFFF" cx="10.037" cy="116.929" r="6.52"/>
     <circle  fill="#FFFFFF" cx="29.953" cy="116.929" r="6.52"/>
     <circle  fill="#FFFFFF" cx="49.87" cy="116.929" r="6.52"/>
     <circle  fill="#FFFFFF" cx="69.786" cy="116.929" r="6.52"/>
     <circle  fill="#FFFFFF" cx="89.703" cy="116.929" r="6.52"/>
     <circle  fill="#FFFFFF" cx="109.619" cy="116.929" r="6.52"/>
     <circle  fill="#FFFFFF" cx="129.536" cy="116.929" r="6.52"/>
     <circle  fill="#FFFFFF" cx="149.452" cy="116.929" r="6.52"/>
    </g>
    <g >
     <circle  fill="#FFFFFF" cx="10.037" cy="136.797" r="6.52"/>
     <circle  fill="#FFFFFF" cx="29.953" cy="136.797" r="6.52"/>
     <circle  fill="#FFFFFF" cx="49.87" cy="136.797" r="6.52"/>
     <circle  fill="#FFFFFF" cx="69.786" cy="136.797" r="6.52"/>
     <circle  fill="#FFFFFF" cx="89.703" cy="136.797" r="6.52"/>
     <circle  fill="#FFFFFF" cx="109.619" cy="136.797" r="6.52"/>
     <circle  fill="#FFFFFF" cx="129.536" cy="136.797" r="6.52"/>
     <circle  fill="#FFFFFF" cx="149.452" cy="136.797" r="6.52"/>
    </g>
    <g >
     <circle  fill="#FFFFFF" cx="10.037" cy="156.664" r="6.52"/>
     <circle  fill="#FFFFFF" cx="29.953" cy="156.664" r="6.52"/>
     <circle  fill="#FFFFFF" cx="49.87" cy="156.664" r="6.52"/>
     <circle  fill="#FFFFFF" cx="69.786" cy="156.664" r="6.52"/>
     <circle  fill="#FFFFFF" cx="89.703" cy="156.664" r="6.52"/>
     <circle  fill="#FFFFFF" cx="109.619" cy="156.664" r="6.52"/>
     <circle  fill="#FFFFFF" cx="129.536" cy="156.664" r="6.52"/>
     <circle  fill="#FFFFFF" cx="149.452" cy="156.664" r="6.52"/>
    </g>
   </g>
  </g>
  <g >
   <rect  width="43.199" x="57.599" y="165.685" fill="#404040" height="7.198"/>
   <rect  width="0" x="59.809" y="167.894" height="0"/>
   <polygon  fill="#2A2A29" points="58.785,166.869 59.807,167.894 62.593,167.894 63.617,166.869 "/>
   <polygon  fill="#474747" points="63.617,166.869 62.593,167.896 62.593,170.677 63.617,171.701 "/>
   <polygon  fill="#595959" points="63.616,171.701 62.592,170.677 59.807,170.677 58.785,171.701 "/>
   <polygon  fill="#373737" points="58.783,171.701 59.807,170.676 59.807,167.894 58.783,166.869 "/>
   <rect  width="2.78" x="67.01" y="167.894" height="2.78"/>
   <rect  width="2.78" x="59.811" y="167.894" height="2.78"/>
   <polygon  fill="#2A2A29" points="65.984,166.869 67.009,167.894 69.791,167.894 70.815,166.869 "/>
   <polygon  fill="#474747" points="70.815,166.869 69.791,167.896 69.791,170.677 70.815,171.701 "/>
   <polygon  fill="#595959" points="70.815,171.701 69.79,170.677 67.009,170.677 65.984,171.701 "/>
   <polygon  fill="#373737" points="65.982,171.701 67.009,170.676 67.009,167.894 65.982,166.869 "/>
   <rect  width="2.781" x="74.21" y="167.894" height="2.78"/>
   <polygon  fill="#2A2A29" points="73.183,166.869 74.208,167.894 76.992,167.894 78.015,166.869 "/>
   <polygon  fill="#474747" points="78.015,166.869 76.992,167.896 76.992,170.677 78.015,171.701 "/>
   <polygon  fill="#595959" points="78.015,171.701 76.991,170.677 74.208,170.677 73.183,171.701 "/>
   <polygon  fill="#373737" points="73.181,171.701 74.208,170.676 74.208,167.894 73.181,166.869 "/>
   <rect  width="2.781" x="81.411" y="167.894" height="2.78"/>
   <polygon  fill="#2A2A29" points="80.385,166.869 81.409,167.894 84.192,167.894 85.218,166.869 "/>
   <polygon  fill="#474747" points="85.218,166.869 84.192,167.896 84.192,170.677 85.218,171.701 "/>
   <polygon  fill="#595959" points="85.216,171.701 84.19,170.677 81.409,170.677 80.385,171.701 "/>
   <polygon  fill="#373737" points="80.382,171.701 81.409,170.676 81.409,167.894 80.382,166.869 "/>
   <rect  width="2.78" x="88.61" y="167.894" height="2.78"/>
   <rect  width="2.781" x="95.808" y="167.894" height="2.78"/>
   <polygon  fill="#2A2A29" points="87.585,166.869 88.608,167.894 91.39,167.894 92.417,166.869 "/>
   <polygon  fill="#474747" points="92.417,166.869 91.39,167.896 91.39,170.677 92.417,171.701 "/>
   <polygon  fill="#595959" points="92.415,171.701 91.39,170.677 88.608,170.677 87.585,171.701 "/>
   <polygon  fill="#373737" points="87.583,171.701 88.608,170.676 88.608,167.894 87.583,166.869 "/>
   <polygon  points="97.2,169.285 97.2,169.285 97.2,169.285 "/>
   <polygon  fill="#2A2A29" points="94.784,166.869 95.806,167.894 98.593,167.894 99.616,166.869 "/>
   <polygon  fill="#474747" points="99.616,166.869 98.593,167.896 98.593,170.677 99.616,171.701 "/>
   <polygon  fill="#595959" points="99.616,171.701 98.591,170.677 95.806,170.677 94.784,171.701 "/>
   <polygon  fill="#373737" points="94.782,171.701 95.806,170.676 95.806,167.894 94.782,166.869 "/>
  </g>
  <g >
   <polygon  fill="#404040" points="59.163,1.432 57.599,2.996 57.599,7.069 59.163,8.632 63.235,8.632 64.8,7.069 64.8,2.996 63.235,1.432 "/>
   <rect  width="2.297" x="60.052" y="3.882" fill="#8D8C8C" height="2.299"/>
   <rect  width="1.183" x="60.609" y="4.44" fill="#8C8663" height="1.184"/>
   <polygon  fill="#B8AF82" points="60.052,3.882 60.609,4.44 61.79,4.44 62.347,3.882 "/>
   <polygon  fill="#80795B" points="61.79,5.622 61.79,4.44 62.347,3.882 62.347,6.181 "/>
   <polygon  fill="#5E5B43" points="60.609,5.622 61.79,5.622 62.347,6.181 60.052,6.181 "/>
   <polygon  fill="#9A916C" points="60.052,3.882 60.609,4.44 60.609,5.622 60.052,6.181 "/>
   <polygon  fill="#404040" points="66.363,1.432 64.8,2.996 64.8,7.069 66.363,8.632 70.435,8.632 72,7.069 72,2.996 70.435,1.432 "/>
   <rect  width="2.298" x="67.251" y="3.882" fill="#8D8C8C" height="2.299"/>
   <rect  width="1.183" x="67.808" y="4.44" fill="#8C8663" height="1.184"/>
   <polygon  fill="#B8AF82" points="67.251,3.882 67.808,4.44 68.991,4.44 69.549,3.882 "/>
   <polygon  fill="#80795B" points="68.991,5.622 68.991,4.44 69.549,3.882 69.549,6.181 "/>
   <polygon  fill="#5E5B43" points="67.808,5.622 68.991,5.622 69.549,6.181 67.251,6.181 "/>
   <polygon  fill="#9A916C" points="67.251,3.882 67.808,4.44 67.808,5.622 67.251,6.181 "/>
   <polygon  fill="#404040" points="73.562,1.432 72,2.996 72,7.069 73.562,8.632 77.635,8.632 79.2,7.069 79.2,2.996 77.635,1.432 "/>
   <rect  width="2.297" x="74.452" y="3.882" fill="#8D8C8C" height="2.299"/>
   <rect  width="1.185" x="75.009" y="4.44" fill="#8C8663" height="1.184"/>
   <polygon  fill="#B8AF82" points="74.452,3.882 75.009,4.44 76.19,4.44 76.749,3.882 "/>
   <polygon  fill="#80795B" points="76.19,5.622 76.19,4.44 76.749,3.882 76.749,6.181 "/>
   <polygon  fill="#5E5B43" points="75.009,5.622 76.19,5.622 76.749,6.181 74.452,6.181 "/>
   <polygon  fill="#9A916C" points="74.452,3.882 75.009,4.44 75.009,5.622 74.452,6.181 "/>
   <polygon  fill="#404040" points="80.761,1.432 79.2,2.996 79.2,7.069 80.761,8.632 84.836,8.632 86.399,7.069 86.399,2.996 84.836,1.432 "/>
   <rect  width="2.297" x="81.651" y="3.882" fill="#8D8C8C" height="2.299"/>
   <rect  width="1.182" x="82.21" y="4.44" fill="#8C8663" height="1.184"/>
   <polygon  fill="#B8AF82" points="81.651,3.882 82.21,4.44 83.389,4.44 83.948,3.882 "/>
   <polygon  fill="#80795B" points="83.389,5.622 83.389,4.44 83.948,3.882 83.948,6.181 "/>
   <polygon  fill="#5E5B43" points="82.21,5.622 83.389,5.622 83.948,6.181 81.651,6.181 "/>
   <polygon  fill="#9A916C" points="81.651,3.882 82.21,4.44 82.21,5.622 81.651,6.181 "/>
   <polygon  fill="#404040" points="87.964,1.432 86.399,2.996 86.399,7.069 87.964,8.632 92.036,8.632 93.599,7.069 93.599,2.996 92.036,1.432 "/>
   <rect  width="2.299" x="88.85" y="3.882" fill="#8D8C8C" height="2.299"/>
   <rect  width="1.183" x="89.409" y="4.44" fill="#8C8663" height="1.184"/>
   <polygon  fill="#B8AF82" points="88.85,3.882 89.409,4.44 90.591,4.44 91.149,3.882 "/>
   <polygon  fill="#80795B" points="90.591,5.622 90.591,4.44 91.149,3.882 91.149,6.181 "/>
   <polygon  fill="#5E5B43" points="89.409,5.622 90.591,5.622 91.149,6.181 88.85,6.181 "/>
   <polygon  fill="#9A916C" points="88.85,3.882 89.409,4.44 89.409,5.622 88.85,6.181 "/>
   <polygon  fill="#404040" points="95.163,1.432 93.599,2.996 93.599,7.069 95.163,8.632 99.235,8.632 100.8,7.069 100.8,2.996 99.235,1.432 "/>
   <rect  width="2.297" x="96.052" y="3.882" fill="#8D8C8C" height="2.299"/>
   <rect  width="1.183" x="96.609" y="4.44" fill="#8C8663" height="1.184"/>
   <polygon  fill="#B8AF82" points="96.052,3.882 96.609,4.44 97.79,4.44 98.347,3.882 "/>
   <polygon  fill="#80795B" points="97.79,5.622 97.79,4.44 98.347,3.882 98.347,6.181 "/>
   <polygon  fill="#5E5B43" points="96.609,5.622 97.79,5.622 98.347,6.181 96.052,6.181 "/>
   <polygon  fill="#9A916C" points="96.052,3.882 96.609,4.44 96.609,5.622 96.052,6.181 "/>
  </g>
 </g>
</svg>
