<?xml version='1.0' encoding='UTF-8' standalone='no'?>
<!-- Created with Fritzing (http://www.fritzing.org/) -->
<svg xmlns="http://www.w3.org/2000/svg" width="0.908653in" x="0in" version="1.2" y="0in"  height="1in" viewBox="0 0 908.653 1000" baseProfile="tiny" xmlns:svg="http://www.w3.org/2000/svg">
 <desc>Fritzing breadboard generated by brd2svg</desc>
 <g id="breadboard">
  <g id="icon">
   <path fill="#1F7A34" stroke="none" stroke-width="0" d="M0,0L0,470A30,30 0 0 1 0,530L0,1000L908.653,1000L908.653,0L0,0z"/>
   <g transform="translate(100,173.694)">
    <g>
     <path fill="#006837" d="M698.236,598.25c0,-5.75,4.66667,-10.4167,10.4167,-10.4167l0,-57.9167c-5.75,0,-10.4167,-4.66667,-10.4167,-10.4167s4.66667,-10.4167,10.4167,-10.4167l0,-57.9167c-5.75,0,-10.4167,-4.66667,-10.4167,-10.4167s4.66667,-10.4167,10.4167,-10.4167l0,-57.9167c-5.75,0,-10.4167,-4.66667,-10.4167,-10.4167c0,-5.75,4.66667,-10.4167,10.4167,-10.4167l0,-57.9167c-5.75,0,-10.4167,-4.66667,-10.4167,-10.4167s4.66667,-10.4167,10.4167,-10.4167l0,-57.9167c-5.75,0,-10.4167,-4.66667,-10.4167,-10.4167s4.66667,-10.4167,10.4167,-10.4167l0,-57.9167c-5.75,0,-10.4167,-4.66667,-10.4167,-10.4167s4.66667,-10.4167,10.4167,-10.4167l0,-57.9167c-5.75,0,-10.4167,-4.66667,-10.4167,-10.4167s4.66667,-10.4167,10.4167,-10.4167L708.653,0.305556L0,0.305556l0,36.2639c5.75,0,10.4167,4.66667,10.4167,10.4167S5.75,57.4167,0,57.4167l0,57.9167c5.75,0,10.4167,4.66667,10.4167,10.4167S5.75,136.167,0,136.167l0,57.9167c5.75,0,10.4167,4.66667,10.4167,10.4167s-4.66667,10.4167,-10.4167,10.4167l0,57.9167c5.75,0,10.4167,4.66667,10.4167,10.4167s-4.66667,10.4167,-10.4167,10.4167l0,57.9167c5.75,0,10.4167,4.66667,10.4167,10.4167c0,5.76389,-4.66667,10.4167,-10.4167,10.4167l0,57.9167c5.75,0,10.4167,4.66667,10.4167,10.4167s-4.66667,10.4167,-10.4167,10.4167l0,57.9167c5.75,0,10.4167,4.66667,10.4167,10.4167s-4.66667,10.4167,-10.4167,10.4167l0,57.9167c5.75,0,10.4167,4.66667,10.4167,10.4167s-4.66667,10.4167,-10.4167,10.4167l0,30.7917l708.653,0l0,-30.7917C702.903,608.667,698.236,604,698.236,598.25z"/>
     <rect width="708.653" opacity="0.2" fill="#FFFFFF" height="4.5"/>
     <path fill="#999999" d="M564.903,501c0,45.8194,-30.9722,83.3333,-68.8333,83.3333s-68.8333,-37.5139,-68.8333,-83.3333L427.236,210.236c0,-45.8333,30.9722,-83.3333,68.8333,-83.3333s68.8333,37.5,68.8333,83.3333L564.903,501z"/>
     <path opacity="0.2" d="M427.236,509.083c0,45.8194,30.9722,83.3333,68.8333,83.3333s68.8333,-37.5139,68.8333,-83.3333l0,-8.08333c0,45.8194,-30.9722,83.3333,-68.8333,83.3333s-68.8333,-37.5139,-68.8333,-83.3333L427.236,509.083z"/>
     <path fill="#B3B3B3" d="M559.056,481.569c0,45.8472,-28.3472,83.3333,-62.9861,83.3333s-62.9861,-37.4861,-62.9861,-83.3333L433.083,229.653c0,-45.8333,28.3472,-83.3333,62.9861,-83.3333s62.9861,37.5,62.9861,83.3333L559.056,481.569z"/>
     <path opacity="0.2" d="M433.083,475.708c0,45.8472,28.3472,83.3333,62.9861,83.3333s62.9861,-37.4861,62.9861,-83.3333l0,5.86111c0,45.8472,-28.3472,83.3333,-62.9861,83.3333s-62.9861,-37.4861,-62.9861,-83.3333L433.083,475.708z"/>
     <path fill="#E6E6E6" d="M559.056,432.667c0,45.8472,-28.3472,83.3333,-62.9861,83.3333s-62.9861,-37.4861,-62.9861,-83.3333L433.083,180.764c0,-45.8333,28.3472,-83.3333,62.9861,-83.3333s62.9861,37.5,62.9861,83.3333L559.056,432.667z"/>
     <path opacity="0.2" fill="#FFFFFF" d="M559.056,190.889c0,-45.8333,-28.3472,-83.3333,-62.9861,-83.3333s-62.9861,37.5,-62.9861,83.3333l0,-10.125c0,-45.8333,28.3472,-83.3333,62.9861,-83.3333s62.9861,37.5,62.9861,83.3333L559.056,190.889z"/>
     <path opacity="0.2" fill="#FFFFFF" d="M433.083,422.542c0,45.8194,28.3472,83.3333,62.9861,83.3333s62.9861,-37.5139,62.9861,-83.3333l0,10.125c0,45.8472,-28.3472,83.3333,-62.9861,83.3333s-62.9861,-37.4861,-62.9861,-83.3333L433.083,422.542z"/>
     <rect width="137.792" x="255.903" y="395.278" height="137.778"/>
     <rect width="137.792" x="255.903" y="385.431" fill="#1A1A1A" height="137.778"/>
     <rect width="137.792" x="255.903" opacity="0.2" y="385.431" fill="#FFFFFF" height="6.31944"/>
     <g>
      <g>
       <path fill="#E2D6A1" d="M0,570.556l0,17.2778c5.75,0,10.4167,4.66667,10.4167,10.4167s-4.66667,10.4167,-10.4167,10.4167l0,13.0417l39.375,0L39.375,570.556L0,570.556z"/>
      </g>
      <g>
       <path fill="#E2D6A1" d="M0,491.806l0,17.2778c5.75,0,10.4167,4.66667,10.4167,10.4167s-4.66667,10.4167,-10.4167,10.4167l0,13.0417l39.375,0L39.375,491.806L0,491.806z"/>
      </g>
      <g>
       <path fill="#E2D6A1" d="M0,413.056l0,17.2778c5.75,0,10.4167,4.66667,10.4167,10.4167s-4.66667,10.4167,-10.4167,10.4167l0,13.0417l39.375,0L39.375,413.056L0,413.056z"/>
      </g>
      <g>
       <path fill="#E2D6A1" d="M0,334.292l0,17.2778c5.75,0,10.4167,4.66667,10.4167,10.4167c0,5.76389,-4.66667,10.4167,-10.4167,10.4167l0,13.0417l39.375,0l0,-51.1667L0,334.278z"/>
      </g>
      <g>
       <path fill="#E2D6A1" d="M0,255.542l0,17.2778c5.75,0,10.4167,4.66667,10.4167,10.4167s-4.66667,10.4167,-10.4167,10.4167l0,13.0556l39.375,0l0,-51.1806L0,255.528z"/>
      </g>
      <g>
       <path fill="#E2D6A1" d="M0,176.792l0,17.2778c5.75,0,10.4167,4.66667,10.4167,10.4167s-4.66667,10.4167,-10.4167,10.4167l0,13.0556l39.375,0l0,-51.1806L0,176.778z"/>
      </g>
      <g>
       <path fill="#E2D6A1" d="M0,98.0556l0,17.2778c5.75,0,10.4167,4.66667,10.4167,10.4167S5.75,136.167,0,136.167l0,13.0556l39.375,0L39.375,98.0556L0,98.0556z"/>
      </g>
      <g>
       <path fill="#E2D6A1" d="M0,19.3056l0,17.2778c5.75,0,10.4167,4.66667,10.4167,10.4167S5.75,57.4167,0,57.4167l0,13.0556l39.375,0L39.375,19.3056L0,19.3056z"/>
      </g>
     </g>
     <g>
      <g>
       <path fill="#9A916C" d="M8.81944,603.458c0.930556,-1.54167,1.59722,-3.27778,1.59722,-5.20833c0,-5.75,-4.66667,-10.4167,-10.4167,-10.4167l0,10.4167C3.80556,598.25,7,600.389,8.81944,603.458z"/>
      </g>
      <g>
       <path fill="#9A916C" d="M8.81944,524.708c0.930556,-1.54167,1.59722,-3.27778,1.59722,-5.20833c0,-5.75,-4.66667,-10.4167,-10.4167,-10.4167l0,10.4167C3.80556,519.5,7,521.639,8.81944,524.708z"/>
      </g>
      <g>
       <path fill="#9A916C" d="M8.81944,445.958c0.930556,-1.54167,1.59722,-3.27778,1.59722,-5.20833c0,-5.75,-4.66667,-10.4167,-10.4167,-10.4167l0,10.4167C3.80556,440.75,7,442.889,8.81944,445.958z"/>
      </g>
      <g>
       <path fill="#9A916C" d="M8.81944,367.208c0.930556,-1.54167,1.59722,-3.27778,1.59722,-5.20833c0,-5.75,-4.66667,-10.4167,-10.4167,-10.4167l0,10.4167C3.80556,361.986,7,364.139,8.81944,367.208z"/>
      </g>
      <g>
       <path fill="#9A916C" d="M8.81944,288.458c0.930556,-1.55556,1.59722,-3.26389,1.59722,-5.20833c0,-5.75,-4.66667,-10.4167,-10.4167,-10.4167l0,10.4167C3.80556,283.25,7,285.389,8.81944,288.458z"/>
      </g>
      <g>
       <path fill="#9A916C" d="M8.81944,209.708c0.930556,-1.55556,1.59722,-3.26389,1.59722,-5.20833c0,-5.75,-4.66667,-10.4167,-10.4167,-10.4167l0,10.4167C3.80556,204.5,7,206.639,8.81944,209.708z"/>
      </g>
      <g>
       <path fill="#9A916C" d="M8.81944,130.958C9.75,129.403,10.4167,127.681,10.4167,125.75c0,-5.75,-4.66667,-10.4167,-10.4167,-10.4167l0,10.4167C3.80556,125.75,7,127.889,8.81944,130.958z"/>
      </g>
      <g>
       <path fill="#9A916C" d="M8.81944,52.2083C9.75,50.6528,10.4167,48.9306,10.4167,47c0,-5.75,-4.66667,-10.4167,-10.4167,-10.4167l0,10.4167C3.80556,47,7,49.1528,8.81944,52.2083z"/>
      </g>
     </g>
     <g>
      <g>
       <path fill="#E2D6A1" d="M0,570.556l0,17.2778c5.75,0,10.4167,4.66667,10.4167,10.4167s-4.66667,10.4167,-10.4167,10.4167l0,13.0417l39.375,0L39.375,570.556L0,570.556z"/>
      </g>
      <g>
       <path fill="#E2D6A1" d="M0,491.806l0,17.2778c5.75,0,10.4167,4.66667,10.4167,10.4167s-4.66667,10.4167,-10.4167,10.4167l0,13.0417l39.375,0L39.375,491.806L0,491.806z"/>
      </g>
      <g>
       <path fill="#E2D6A1" d="M0,413.056l0,17.2778c5.75,0,10.4167,4.66667,10.4167,10.4167s-4.66667,10.4167,-10.4167,10.4167l0,13.0417l39.375,0L39.375,413.056L0,413.056z"/>
      </g>
      <g>
       <path fill="#E2D6A1" d="M0,334.292l0,17.2778c5.75,0,10.4167,4.66667,10.4167,10.4167c0,5.76389,-4.66667,10.4167,-10.4167,10.4167l0,13.0417l39.375,0l0,-51.1667L0,334.278z"/>
      </g>
      <g>
       <path fill="#E2D6A1" d="M0,255.542l0,17.2778c5.75,0,10.4167,4.66667,10.4167,10.4167s-4.66667,10.4167,-10.4167,10.4167l0,13.0556l39.375,0l0,-51.1806L0,255.528z"/>
      </g>
      <g>
       <path fill="#E2D6A1" d="M0,176.792l0,17.2778c5.75,0,10.4167,4.66667,10.4167,10.4167s-4.66667,10.4167,-10.4167,10.4167l0,13.0556l39.375,0l0,-51.1806L0,176.778z"/>
      </g>
      <g>
       <path fill="#E2D6A1" d="M0,98.0556l0,17.2778c5.75,0,10.4167,4.66667,10.4167,10.4167S5.75,136.167,0,136.167l0,13.0556l39.375,0L39.375,98.0556L0,98.0556z"/>
      </g>
      <g>
       <path fill="#E2D6A1" d="M0,19.3056l0,17.2778c5.75,0,10.4167,4.66667,10.4167,10.4167S5.75,57.4167,0,57.4167l0,13.0556l39.375,0L39.375,19.3056L0,19.3056z"/>
      </g>
     </g>
     <g>
      <g>
       <path fill="#9A916C" d="M8.81944,603.458c0.930556,-1.54167,1.59722,-3.27778,1.59722,-5.20833c0,-5.75,-4.66667,-10.4167,-10.4167,-10.4167l0,10.4167C3.80556,598.25,7,600.389,8.81944,603.458z"/>
      </g>
      <g>
       <path fill="#9A916C" d="M8.81944,524.708c0.930556,-1.54167,1.59722,-3.27778,1.59722,-5.20833c0,-5.75,-4.66667,-10.4167,-10.4167,-10.4167l0,10.4167C3.80556,519.5,7,521.639,8.81944,524.708z"/>
      </g>
      <g>
       <path fill="#9A916C" d="M8.81944,445.958c0.930556,-1.54167,1.59722,-3.27778,1.59722,-5.20833c0,-5.75,-4.66667,-10.4167,-10.4167,-10.4167l0,10.4167C3.80556,440.75,7,442.889,8.81944,445.958z"/>
      </g>
      <g>
       <path fill="#9A916C" d="M8.81944,367.208c0.930556,-1.54167,1.59722,-3.27778,1.59722,-5.20833c0,-5.75,-4.66667,-10.4167,-10.4167,-10.4167l0,10.4167C3.80556,361.986,7,364.139,8.81944,367.208z"/>
      </g>
      <g>
       <path fill="#9A916C" d="M8.81944,288.458c0.930556,-1.55556,1.59722,-3.26389,1.59722,-5.20833c0,-5.75,-4.66667,-10.4167,-10.4167,-10.4167l0,10.4167C3.80556,283.25,7,285.389,8.81944,288.458z"/>
      </g>
      <g>
       <path fill="#9A916C" d="M8.81944,209.708c0.930556,-1.55556,1.59722,-3.26389,1.59722,-5.20833c0,-5.75,-4.66667,-10.4167,-10.4167,-10.4167l0,10.4167C3.80556,204.5,7,206.639,8.81944,209.708z"/>
      </g>
      <g>
       <path fill="#9A916C" d="M8.81944,130.958C9.75,129.403,10.4167,127.681,10.4167,125.75c0,-5.75,-4.66667,-10.4167,-10.4167,-10.4167l0,10.4167C3.80556,125.75,7,127.889,8.81944,130.958z"/>
      </g>
      <g>
       <path fill="#9A916C" d="M8.81944,52.2083C9.75,50.6528,10.4167,48.9306,10.4167,47c0,-5.75,-4.66667,-10.4167,-10.4167,-10.4167l0,10.4167C3.80556,47,7,49.1528,8.81944,52.2083z"/>
      </g>
     </g>
     <g>
      <g>
       <g>
        <path fill="#E2D6A1" d="M708.639,570.556l0,17.2778c-5.75,0,-10.4167,4.66667,-10.4167,10.4167s4.66667,10.4167,10.4167,10.4167l0,13.0417l-39.375,0L669.264,570.556L708.639,570.556z"/>
       </g>
       <g>
        <path fill="#E2D6A1" d="M708.639,491.806l0,17.2778c-5.75,0,-10.4167,4.66667,-10.4167,10.4167s4.66667,10.4167,10.4167,10.4167l0,13.0417l-39.375,0L669.264,491.806L708.639,491.806z"/>
       </g>
       <g>
        <path fill="#E2D6A1" d="M708.639,413.056l0,17.2778c-5.75,0,-10.4167,4.66667,-10.4167,10.4167s4.66667,10.4167,10.4167,10.4167l0,13.0417l-39.375,0L669.264,413.056L708.639,413.056z"/>
       </g>
       <g>
        <path fill="#E2D6A1" d="M708.639,334.292l0,17.2778c-5.75,0,-10.4167,4.66667,-10.4167,10.4167c0,5.76389,4.66667,10.4167,10.4167,10.4167l0,13.0417l-39.375,0l0,-51.1667L708.639,334.278z"/>
       </g>
       <g>
        <path fill="#E2D6A1" d="M708.639,255.542l0,17.2778c-5.75,0,-10.4167,4.66667,-10.4167,10.4167s4.66667,10.4167,10.4167,10.4167l0,13.0556l-39.375,0l0,-51.1806L708.639,255.528z"/>
       </g>
       <g>
        <path fill="#E2D6A1" d="M708.639,176.792l0,17.2778c-5.75,0,-10.4167,4.66667,-10.4167,10.4167s4.66667,10.4167,10.4167,10.4167l0,13.0556l-39.375,0l0,-51.1806L708.639,176.778z"/>
       </g>
       <g>
        <path fill="#E2D6A1" d="M708.639,98.0556l0,17.2778c-5.75,0,-10.4167,4.66667,-10.4167,10.4167s4.66667,10.4167,10.4167,10.4167l0,13.0556l-39.375,0L669.264,98.0556L708.639,98.0556z"/>
       </g>
       <g>
        <path fill="#E2D6A1" d="M708.639,19.3056l0,17.2778c-5.75,0,-10.4167,4.66667,-10.4167,10.4167s4.66667,10.4167,10.4167,10.4167l0,13.0556l-39.375,0L669.264,19.3056L708.639,19.3056z"/>
       </g>
      </g>
      <g>
       <g>
        <path fill="#9A916C" d="M699.833,603.458c-0.930556,-1.54167,-1.59722,-3.27778,-1.59722,-5.20833c0,-5.75,4.66667,-10.4167,10.4167,-10.4167l0,10.4167C704.833,598.25,701.639,600.389,699.833,603.458z"/>
       </g>
       <g>
        <path fill="#9A916C" d="M699.833,524.708c-0.930556,-1.54167,-1.59722,-3.27778,-1.59722,-5.20833c0,-5.75,4.66667,-10.4167,10.4167,-10.4167l0,10.4167C704.833,519.5,701.639,521.639,699.833,524.708z"/>
       </g>
       <g>
        <path fill="#9A916C" d="M699.833,445.958c-0.930556,-1.54167,-1.59722,-3.27778,-1.59722,-5.20833c0,-5.75,4.66667,-10.4167,10.4167,-10.4167l0,10.4167C704.833,440.75,701.639,442.889,699.833,445.958z"/>
       </g>
       <g>
        <path fill="#9A916C" d="M699.833,367.208c-0.930556,-1.54167,-1.59722,-3.27778,-1.59722,-5.20833c0,-5.75,4.66667,-10.4167,10.4167,-10.4167l0,10.4167C704.833,361.986,701.639,364.139,699.833,367.208z"/>
       </g>
       <g>
        <path fill="#9A916C" d="M699.833,288.458c-0.930556,-1.55556,-1.59722,-3.26389,-1.59722,-5.20833c0,-5.75,4.66667,-10.4167,10.4167,-10.4167l0,10.4167C704.833,283.25,701.639,285.389,699.833,288.458z"/>
       </g>
       <g>
        <path fill="#9A916C" d="M699.833,209.708c-0.930556,-1.55556,-1.59722,-3.26389,-1.59722,-5.20833c0,-5.75,4.66667,-10.4167,10.4167,-10.4167l0,10.4167C704.833,204.5,701.639,206.639,699.833,209.708z"/>
       </g>
       <g>
        <path fill="#9A916C" d="M699.833,130.958c-0.930556,-1.55556,-1.59722,-3.26389,-1.59722,-5.20833c0,-5.75,4.66667,-10.4167,10.4167,-10.4167l0,10.4167C704.833,125.75,701.639,127.889,699.833,130.958z"/>
       </g>
       <g>
        <path fill="#9A916C" d="M699.833,52.2083c-0.930556,-1.55556,-1.59722,-3.26389,-1.59722,-5.20833c0,-5.75,4.66667,-10.4167,10.4167,-10.4167l0,10.4167C704.833,47,701.639,49.1528,699.833,52.2083z"/>
       </g>
      </g>
     </g>
     <rect width="708.653" y="639.458" fill="#666666" height="13.1528"/>
    </g>
   </g>
  </g>
  <g transform="translate(88.3615,934.05)">
   <rect width="31.93" x="0" y="0" fill="#8D8C8C" height="31.9" id="connector0pin"/>
   <rect width="16.4442" x="7.79153" y="7.73544" fill="#8C8663" height="16.4152"/>
   <polygon fill="#B8AF82" points="0,31.9,7.79153,24.1368,7.79153,6.97162,0,0"/>
   <polygon fill="#80795B" points="24.2079,7.76321,7.90264,7.76321,0,0,31.93,0"/>
   <polygon fill="#5E5B43" points="24.2079,24.1368,24.2079,7.76321,31.93,0,31.93,31.9"/>
   <polygon fill="#9A916C" points="0,31.9,7.87486,24.1368,24.2079,24.1368,31.93,31.9"/>
  </g>
  <g transform="translate(88.3615,34.05)">
   <rect width="31.93" x="0" y="0" fill="#8D8C8C" height="31.9" id="connector15pin"/>
   <rect width="16.4442" x="7.79153" y="7.73544" fill="#8C8663" height="16.4152"/>
   <polygon fill="#B8AF82" points="0,31.9,7.79153,24.1368,7.79153,6.97162,0,0"/>
   <polygon fill="#80795B" points="24.2079,7.76321,7.90264,7.76321,0,0,31.93,0"/>
   <polygon fill="#5E5B43" points="24.2079,24.1368,24.2079,7.76321,31.93,0,31.93,31.9"/>
   <polygon fill="#9A916C" points="0,31.9,7.87486,24.1368,24.2079,24.1368,31.93,31.9"/>
  </g>
  <g transform="translate(188.362,934.05)">
   <rect width="31.93" x="0" y="0" fill="#8D8C8C" height="31.9" id="connector1pin"/>
   <rect width="16.4442" x="7.79153" y="7.73544" fill="#8C8663" height="16.4152"/>
   <polygon fill="#B8AF82" points="0,31.9,7.79153,24.1368,7.79153,6.97162,0,0"/>
   <polygon fill="#80795B" points="24.2079,7.76321,7.90264,7.76321,0,0,31.93,0"/>
   <polygon fill="#5E5B43" points="24.2079,24.1368,24.2079,7.76321,31.93,0,31.93,31.9"/>
   <polygon fill="#9A916C" points="0,31.9,7.87486,24.1368,24.2079,24.1368,31.93,31.9"/>
  </g>
  <g transform="translate(188.362,34.05)">
   <rect width="31.93" x="0" y="0" fill="#8D8C8C" height="31.9" id="connector14pin"/>
   <rect width="16.4442" x="7.79153" y="7.73544" fill="#8C8663" height="16.4152"/>
   <polygon fill="#B8AF82" points="0,31.9,7.79153,24.1368,7.79153,6.97162,0,0"/>
   <polygon fill="#80795B" points="24.2079,7.76321,7.90264,7.76321,0,0,31.93,0"/>
   <polygon fill="#5E5B43" points="24.2079,24.1368,24.2079,7.76321,31.93,0,31.93,31.9"/>
   <polygon fill="#9A916C" points="0,31.9,7.87486,24.1368,24.2079,24.1368,31.93,31.9"/>
  </g>
  <g transform="translate(288.361,934.05)">
   <rect width="31.93" x="0" y="0" fill="#8D8C8C" height="31.9" id="connector2pin"/>
   <rect width="16.4442" x="7.79153" y="7.73544" fill="#8C8663" height="16.4152"/>
   <polygon fill="#B8AF82" points="0,31.9,7.79153,24.1368,7.79153,6.97162,0,0"/>
   <polygon fill="#80795B" points="24.2079,7.76321,7.90264,7.76321,0,0,31.93,0"/>
   <polygon fill="#5E5B43" points="24.2079,24.1368,24.2079,7.76321,31.93,0,31.93,31.9"/>
   <polygon fill="#9A916C" points="0,31.9,7.87486,24.1368,24.2079,24.1368,31.93,31.9"/>
  </g>
  <g transform="translate(288.361,34.05)">
   <rect width="31.93" x="0" y="0" fill="#8D8C8C" height="31.9" id="connector13pin"/>
   <rect width="16.4442" x="7.79153" y="7.73544" fill="#8C8663" height="16.4152"/>
   <polygon fill="#B8AF82" points="0,31.9,7.79153,24.1368,7.79153,6.97162,0,0"/>
   <polygon fill="#80795B" points="24.2079,7.76321,7.90264,7.76321,0,0,31.93,0"/>
   <polygon fill="#5E5B43" points="24.2079,24.1368,24.2079,7.76321,31.93,0,31.93,31.9"/>
   <polygon fill="#9A916C" points="0,31.9,7.87486,24.1368,24.2079,24.1368,31.93,31.9"/>
  </g>
  <g transform="translate(388.362,934.05)">
   <rect width="31.93" x="0" y="0" fill="#8D8C8C" height="31.9" id="connector3pin"/>
   <rect width="16.4442" x="7.79153" y="7.73544" fill="#8C8663" height="16.4152"/>
   <polygon fill="#B8AF82" points="0,31.9,7.79153,24.1368,7.79153,6.97162,0,0"/>
   <polygon fill="#80795B" points="24.2079,7.76321,7.90264,7.76321,0,0,31.93,0"/>
   <polygon fill="#5E5B43" points="24.2079,24.1368,24.2079,7.76321,31.93,0,31.93,31.9"/>
   <polygon fill="#9A916C" points="0,31.9,7.87486,24.1368,24.2079,24.1368,31.93,31.9"/>
  </g>
  <g transform="translate(388.362,34.05)">
   <rect width="31.93" x="0" y="0" fill="#8D8C8C" height="31.9" id="connector12pin"/>
   <rect width="16.4442" x="7.79153" y="7.73544" fill="#8C8663" height="16.4152"/>
   <polygon fill="#B8AF82" points="0,31.9,7.79153,24.1368,7.79153,6.97162,0,0"/>
   <polygon fill="#80795B" points="24.2079,7.76321,7.90264,7.76321,0,0,31.93,0"/>
   <polygon fill="#5E5B43" points="24.2079,24.1368,24.2079,7.76321,31.93,0,31.93,31.9"/>
   <polygon fill="#9A916C" points="0,31.9,7.87486,24.1368,24.2079,24.1368,31.93,31.9"/>
  </g>
  <g transform="translate(488.362,934.05)">
   <rect width="31.93" x="0" y="0" fill="#8D8C8C" height="31.9" id="connector4pin"/>
   <rect width="16.4442" x="7.79153" y="7.73544" fill="#8C8663" height="16.4152"/>
   <polygon fill="#B8AF82" points="0,31.9,7.79153,24.1368,7.79153,6.97162,0,0"/>
   <polygon fill="#80795B" points="24.2079,7.76321,7.90264,7.76321,0,0,31.93,0"/>
   <polygon fill="#5E5B43" points="24.2079,24.1368,24.2079,7.76321,31.93,0,31.93,31.9"/>
   <polygon fill="#9A916C" points="0,31.9,7.87486,24.1368,24.2079,24.1368,31.93,31.9"/>
  </g>
  <g transform="translate(488.362,34.05)">
   <rect width="31.93" x="0" y="0" fill="#8D8C8C" height="31.9" id="connector11pin"/>
   <rect width="16.4442" x="7.79153" y="7.73544" fill="#8C8663" height="16.4152"/>
   <polygon fill="#B8AF82" points="0,31.9,7.79153,24.1368,7.79153,6.97162,0,0"/>
   <polygon fill="#80795B" points="24.2079,7.76321,7.90264,7.76321,0,0,31.93,0"/>
   <polygon fill="#5E5B43" points="24.2079,24.1368,24.2079,7.76321,31.93,0,31.93,31.9"/>
   <polygon fill="#9A916C" points="0,31.9,7.87486,24.1368,24.2079,24.1368,31.93,31.9"/>
  </g>
  <g transform="translate(588.361,934.05)">
   <rect width="31.93" x="0" y="0" fill="#8D8C8C" height="31.9" id="connector5pin"/>
   <rect width="16.4442" x="7.79153" y="7.73544" fill="#8C8663" height="16.4152"/>
   <polygon fill="#B8AF82" points="0,31.9,7.79153,24.1368,7.79153,6.97162,0,0"/>
   <polygon fill="#80795B" points="24.2079,7.76321,7.90264,7.76321,0,0,31.93,0"/>
   <polygon fill="#5E5B43" points="24.2079,24.1368,24.2079,7.76321,31.93,0,31.93,31.9"/>
   <polygon fill="#9A916C" points="0,31.9,7.87486,24.1368,24.2079,24.1368,31.93,31.9"/>
  </g>
  <g transform="translate(588.361,34.05)">
   <rect width="31.93" x="0" y="0" fill="#8D8C8C" height="31.9" id="connector10pin"/>
   <rect width="16.4442" x="7.79153" y="7.73544" fill="#8C8663" height="16.4152"/>
   <polygon fill="#B8AF82" points="0,31.9,7.79153,24.1368,7.79153,6.97162,0,0"/>
   <polygon fill="#80795B" points="24.2079,7.76321,7.90264,7.76321,0,0,31.93,0"/>
   <polygon fill="#5E5B43" points="24.2079,24.1368,24.2079,7.76321,31.93,0,31.93,31.9"/>
   <polygon fill="#9A916C" points="0,31.9,7.87486,24.1368,24.2079,24.1368,31.93,31.9"/>
  </g>
  <g transform="translate(688.361,934.05)">
   <rect width="31.93" x="0" y="0" fill="#8D8C8C" height="31.9" id="connector6pin"/>
   <rect width="16.4442" x="7.79153" y="7.73544" fill="#8C8663" height="16.4152"/>
   <polygon fill="#B8AF82" points="0,31.9,7.79153,24.1368,7.79153,6.97162,0,0"/>
   <polygon fill="#80795B" points="24.2079,7.76321,7.90264,7.76321,0,0,31.93,0"/>
   <polygon fill="#5E5B43" points="24.2079,24.1368,24.2079,7.76321,31.93,0,31.93,31.9"/>
   <polygon fill="#9A916C" points="0,31.9,7.87486,24.1368,24.2079,24.1368,31.93,31.9"/>
  </g>
  <g transform="translate(688.361,34.05)">
   <rect width="31.93" x="0" y="0" fill="#8D8C8C" height="31.9" id="connector9pin"/>
   <rect width="16.4442" x="7.79153" y="7.73544" fill="#8C8663" height="16.4152"/>
   <polygon fill="#B8AF82" points="0,31.9,7.79153,24.1368,7.79153,6.97162,0,0"/>
   <polygon fill="#80795B" points="24.2079,7.76321,7.90264,7.76321,0,0,31.93,0"/>
   <polygon fill="#5E5B43" points="24.2079,24.1368,24.2079,7.76321,31.93,0,31.93,31.9"/>
   <polygon fill="#9A916C" points="0,31.9,7.87486,24.1368,24.2079,24.1368,31.93,31.9"/>
  </g>
  <g transform="translate(788.361,934.05)">
   <rect width="31.93" x="0" y="0" fill="#8D8C8C" height="31.9" id="connector7pin"/>
   <rect width="16.4442" x="7.79153" y="7.73544" fill="#8C8663" height="16.4152"/>
   <polygon fill="#B8AF82" points="0,31.9,7.79153,24.1368,7.79153,6.97162,0,0"/>
   <polygon fill="#80795B" points="24.2079,7.76321,7.90264,7.76321,0,0,31.93,0"/>
   <polygon fill="#5E5B43" points="24.2079,24.1368,24.2079,7.76321,31.93,0,31.93,31.9"/>
   <polygon fill="#9A916C" points="0,31.9,7.87486,24.1368,24.2079,24.1368,31.93,31.9"/>
  </g>
  <g transform="translate(788.361,34.05)">
   <rect width="31.93" x="0" y="0" fill="#8D8C8C" height="31.9" id="connector8pin"/>
   <rect width="16.4442" x="7.79153" y="7.73544" fill="#8C8663" height="16.4152"/>
   <polygon fill="#B8AF82" points="0,31.9,7.79153,24.1368,7.79153,6.97162,0,0"/>
   <polygon fill="#80795B" points="24.2079,7.76321,7.90264,7.76321,0,0,31.93,0"/>
   <polygon fill="#5E5B43" points="24.2079,24.1368,24.2079,7.76321,31.93,0,31.93,31.9"/>
   <polygon fill="#9A916C" points="0,31.9,7.87486,24.1368,24.2079,24.1368,31.93,31.9"/>
  </g>
 </g>
</svg>
