<?xml version='1.0' encoding='UTF-8' standalone='no'?>
<!-- Created with Fritzing (http://www.fritzing.org/) -->
<svg xmlns="http://www.w3.org/2000/svg" width="0.554333in" x="0in" version="1.2" y="0in"  height="1in" viewBox="0 0 554.333 1000" baseProfile="tiny" xmlns:svg="http://www.w3.org/2000/svg">
 <desc>Fritzing breadboard generated by brd2svg</desc>
 <g id="breadboard">
  <g id="icon">
   <path fill="#1F7A34" stroke="none" stroke-width="0" d="M0,0L0,470A30,30 0 0 1 0,530L0,1000L554.333,1000L554.333,0L0,0z"/>
   <g transform="translate(100,139.882)">
    <g>
     <g>
      <rect width="329.625" x="12.375" y="23.625" fill="#232323" height="457.917"/>
      <rect width="22.8472" x="20.3333" y="29.625" fill="#494949" height="443.542"/>
      <rect width="74.5694" x="43.2222" y="29.625" fill="#3D3D3D" height="443.542" fill-opacity="0.3"/>
      <rect width="22.4861" x="312.319" y="29.625" height="457.944"/>
      <rect width="80.9444" x="232.069" y="29.625" fill="#0F0F0F" height="457.944" fill-opacity="0.4"/>
     </g>
     <rect width="329.625" x="12.375" opacity="0.2" y="23.625" height="8.22222" enable-background="new    "/>
    </g>
    <line opacity="0.5" fill="none" stroke="#000000" enable-background="new    " y1="62.6528" stroke-width="3.47222" x1="342" y2="62.6528" x2="12.375" stroke-miterlimit="10"/>
    <g>
     <rect width="329.569" x="12.7361" opacity="0.25" y="432.986" height="17.875" enable-background="new    "/>
     <path opacity="0.25" stroke="#565656" enable-background="new    " stroke-width="3.47222" d="M72.4306,446.944l209.458,0L281.889,262.25c0,-57.8472,-46.8889,-104.736,-104.736,-104.736c-57.8333,0,-104.736,46.8889,-104.736,104.736L72.4306,446.944L72.4306,446.944z" stroke-miterlimit="10"/>
    </g>
    <g>
     <path fill="#232323" d="M72.4306,446.944l209.458,0L281.889,262.25c0,-57.8472,-46.8889,-104.736,-104.736,-104.736c-57.8333,0,-104.736,46.8889,-104.736,104.736L72.4306,446.944L72.4306,446.944z"/>
     <rect width="354.333" x="0" y="436.833" fill="#232323" height="106.778"/>
    </g>
    <rect width="79.3472" x="137.5" y="0" fill="#6D6D6D" height="23.625"/>
    <rect width="155.861" x="99.25" y="10.0833" fill="#494949" height="13.5417"/>
    <g>
     <g enable-background="new    ">
      <g>
       <g>
        <path fill="#1A1A1A" d="M75.4167,682.569c-25.9583,-13.0417,-42.0139,-31,-42.0139,-50.875c0,-39.75,64.5139,-72.0556,144.139,-72.0556c79.6111,0,144.111,32.3056,144.111,72.0556c0,2.26389,-0.236111,4.5,-0.638889,6.69444c-4.34722,37.8056,-67.0694,67.8611,-143.861,67.8611c-79.625,0,-144.125,-32.3056,-144.125,-72.0556l0,-2.66667C33.0139,651.458,49.2222,669.514,75.4167,682.569M33.3889,631.319l0,-2.61111c0,-39.8194,64.5139,-72.0556,144.125,-72.0556c79.625,0,144.125,32.2361,144.125,72.0556l0,2.61111c0,-39.8194,-64.5139,-72.0556,-144.125,-72.0556S33.3889,591.5,33.3889,631.319M354.639,543.139L0.388889,543.139l0,177.111l354.264,0L354.653,543.139"/>
        <path d="M208.139,566.708l0,64.9861c0,3.45833,-2.25,6.63889,-6.08333,9.19444c-4,4.70833,-13.3056,7.98611,-24.1667,7.98611c-9.63889,0,-18.0972,-2.625,-22.625,-6.58333c-5.26389,-2.76389,-8.5,-6.5,-8.5,-10.625l0,-64.9722c-58.9028,6.94444,-102.736,33.3611,-102.736,64.9722c0,36.875,59.75,66.75,133.486,66.75c73.7639,0,133.5,-29.8472,133.5,-66.75C311.028,600.083,267.125,573.639,208.139,566.708"/>
        <path fill="#808080" d="M177.528,564.958c-10.5972,0,-20.8889,0.625,-30.7639,1.77778l0,64.9722c0,-8.43056,13.75,-15.3333,30.7639,-15.3333c16.875,0,30.6111,6.875,30.6111,15.3333l0,-64.9861C198.319,565.556,188.056,564.958,177.528,564.958"/>
        <path fill="#333333" d="M177.528,564.958c10.5278,0,20.7778,0.611111,30.6111,1.76389c58.9861,6.91667,102.875,33.3611,102.875,64.9861c0,36.875,-59.75,66.75,-133.486,66.75c-73.7639,0,-133.5,-29.8472,-133.5,-66.75c0,-31.5833,43.8333,-58.0278,102.736,-64.9722C156.639,565.569,166.944,564.958,177.528,564.958M177.528,559.625c-79.625,0,-144.139,32.3056,-144.139,72.0556c0,19.875,16.0556,37.8333,42.0139,50.875c26.0556,12.9722,62.0139,21,101.736,21c79.6111,0,144.125,-32.25,144.125,-72.0556l0,2.66667c0,1.43056,-0.0972222,2.80556,-0.277778,4.20833c0.402778,-2.19444,0.638889,-4.43056,0.638889,-6.69444C321.639,591.931,257.153,559.625,177.528,559.625"/>
        <path fill="#B3B3B3" d="M177.528,616.375c-17.0139,0,-30.7639,6.875,-30.7639,15.3333c0,4.125,3.23611,7.83333,8.5,10.625c-2.22222,-1.93056,-3.5,-4.18056,-3.5,-6.56944c0,-7.23611,11.75,-13.0417,26.125,-13.0417c14.5,0,26.2639,5.80556,26.2639,13.0417c0,1.83333,-0.763889,3.56944,-2.08333,5.13889c3.81944,-2.58333,6.08333,-5.73611,6.08333,-9.19444C208.139,623.25,194.403,616.375,177.528,616.375"/>
        <path fill="#CCCCCC" d="M177.903,622.694c-14.375,0,-26.125,5.80556,-26.125,13.0417c0,2.38889,1.27778,4.63889,3.5,6.56944c4.52778,3.93056,13,6.58333,22.625,6.58333c10.8611,0,20.1806,-3.27778,24.1667,-7.98611c1.33333,-1.56944,2.08333,-3.30556,2.08333,-5.13889C204.153,628.5,192.403,622.694,177.903,622.694"/>
        <path fill="#4D4D4D" d="M177.528,556.625c-79.625,0,-144.139,32.2361,-144.139,72.0556l0,2.61111c0,-39.8194,64.5139,-72.0556,144.139,-72.0556c79.6111,0,144.111,32.2361,144.111,72.0556l0,-2.61111C321.639,588.875,257.153,556.625,177.528,556.625"/>
        <path d="M321.278,631.514c0,39.7778,-64.5278,72.0556,-144.125,72.0556c-39.7083,0,-75.6667,-8.02778,-101.736,-21c-26.1944,-13.0417,-42.3889,-31.1111,-42.3889,-51.0556l0,2.66667c0,39.7361,64.5,72.0556,144.125,72.0556c76.7917,0,139.514,-30.0556,143.861,-67.8611c0.180556,-1.40278,0.277778,-2.77778,0.277778,-4.20833L321.278,631.514"/>
       </g>
      </g>
     </g>
    </g>
    <rect width="14.5833" x="5.75" y="446.944" fill="#494949" height="87"/>
    <rect width="14.5833" x="334.722" y="446.944" height="87"/>
   </g>
  </g>
  <g transform="translate(211.202,934.05)">
   <rect width="31.93" x="0" y="0" fill="#8D8C8C" height="31.9" id="connector0pin"/>
   <rect width="16.4442" x="7.79153" y="7.73544" fill="#8C8663" height="16.4152"/>
   <polygon fill="#B8AF82" points="0,31.9,7.79153,24.1368,7.79153,6.97162,0,0"/>
   <polygon fill="#80795B" points="24.2079,7.76321,7.90264,7.76321,0,0,31.93,0"/>
   <polygon fill="#5E5B43" points="24.2079,24.1368,24.2079,7.76321,31.93,0,31.93,31.9"/>
   <polygon fill="#9A916C" points="0,31.9,7.87486,24.1368,24.2079,24.1368,31.93,31.9"/>
  </g>

  <g transform="translate(311.202,934.05)">
   <rect width="31.93" x="0" y="0" fill="#8D8C8C" height="31.9" id="connector1pin"/>
   <rect width="16.4442" x="7.79153" y="7.73544" fill="#8C8663" height="16.4152"/>
   <polygon fill="#B8AF82" points="0,31.9,7.79153,24.1368,7.79153,6.97162,0,0"/>
   <polygon fill="#80795B" points="24.2079,7.76321,7.90264,7.76321,0,0,31.93,0"/>
   <polygon fill="#5E5B43" points="24.2079,24.1368,24.2079,7.76321,31.93,0,31.93,31.9"/>
   <polygon fill="#9A916C" points="0,31.9,7.87486,24.1368,24.2079,24.1368,31.93,31.9"/>
  </g>
  <g transform="translate(311.202,34.05)">
   <rect width="31.93" x="0" y="0" fill="#8D8C8C" height="31.9" id="connector2pin"/>
   <rect width="16.4442" x="7.79153" y="7.73544" fill="#8C8663" height="16.4152"/>
   <polygon fill="#B8AF82" points="0,31.9,7.79153,24.1368,7.79153,6.97162,0,0"/>
   <polygon fill="#80795B" points="24.2079,7.76321,7.90264,7.76321,0,0,31.93,0"/>
   <polygon fill="#5E5B43" points="24.2079,24.1368,24.2079,7.76321,31.93,0,31.93,31.9"/>
   <polygon fill="#9A916C" points="0,31.9,7.87486,24.1368,24.2079,24.1368,31.93,31.9"/>
  </g>
 </g>
</svg>
