<?xml version="1.0" encoding="utf-8"?>
<!-- Generator: Adobe Illustrator 15.1.0, SVG Export Plug-In . SVG Version: 6.00 Build 0)  -->
<!DOCTYPE svg PUBLIC "-//W3C//DTD SVG 1.1//EN" "http://www.w3.org/Graphics/SVG/1.1/DTD/svg11.dtd">
<svg version="1.1" id="Ebene_1" xmlns:svg="http://www.w3.org/2000/svg"
	 xmlns="http://www.w3.org/2000/svg" xmlns:xlink="http://www.w3.org/1999/xlink" x="0px" y="0px" width="113.961px"
	 height="100.634px" viewBox="0 0 113.961 100.634" enable-background="new 0 0 113.961 100.634" xml:space="preserve">
<g id="breadboard">
	<path fill="#1F7A34" d="M0,0v85.328h113.961V0H0z M5.957,12.76c-1.565,0-2.835-1.269-2.835-2.834c0-1.565,1.27-2.835,2.835-2.835
		s2.835,1.27,2.835,2.835C8.792,11.491,7.523,12.76,5.957,12.76z M35.381,14.944c-0.783,0-1.418-0.635-1.418-1.418
		c0-0.782,0.635-1.417,1.418-1.417c0.782,0,1.417,0.635,1.417,1.417C36.798,14.309,36.163,14.944,35.381,14.944z M35.381,7.743
		c-0.783,0-1.418-0.635-1.418-1.418c0-0.782,0.635-1.417,1.418-1.417c0.782,0,1.417,0.635,1.417,1.417
		C36.798,7.109,36.163,7.743,35.381,7.743z M42.581,14.944c-0.783,0-1.418-0.635-1.418-1.418c0-0.782,0.635-1.417,1.418-1.417
		c0.782,0,1.417,0.635,1.417,1.417C43.998,14.309,43.364,14.944,42.581,14.944z M42.581,7.743c-0.783,0-1.418-0.635-1.418-1.418
		c0-0.782,0.635-1.417,1.418-1.417c0.782,0,1.417,0.635,1.417,1.417C43.998,7.109,43.364,7.743,42.581,7.743z M49.781,14.944
		c-0.782,0-1.417-0.635-1.417-1.418c0-0.782,0.635-1.417,1.417-1.417c0.783,0,1.418,0.635,1.418,1.417
		C51.198,14.309,50.564,14.944,49.781,14.944z M49.781,7.743c-0.782,0-1.417-0.635-1.417-1.418c0-0.782,0.635-1.417,1.417-1.417
		c0.783,0,1.418,0.635,1.418,1.417C51.198,7.109,50.564,7.743,49.781,7.743z M56.981,14.944c-0.782,0-1.417-0.635-1.417-1.418
		c0-0.782,0.635-1.417,1.417-1.417c0.783,0,1.417,0.635,1.417,1.417C58.399,14.309,57.764,14.944,56.981,14.944z M56.981,7.743
		c-0.782,0-1.417-0.635-1.417-1.418c0-0.782,0.635-1.417,1.417-1.417c0.783,0,1.417,0.635,1.417,1.417
		C58.399,7.109,57.764,7.743,56.981,7.743z M64.182,14.944c-0.783,0-1.418-0.635-1.418-1.418c0-0.782,0.635-1.417,1.418-1.417
		c0.781,0,1.416,0.635,1.416,1.417C65.598,14.309,64.963,14.944,64.182,14.944z M64.182,7.743c-0.783,0-1.418-0.635-1.418-1.418
		c0-0.782,0.635-1.417,1.418-1.417c0.781,0,1.416,0.635,1.416,1.417C65.598,7.109,64.963,7.743,64.182,7.743z M71.381,14.944
		c-0.783,0-1.418-0.635-1.418-1.418c0-0.782,0.635-1.417,1.418-1.417c0.782,0,1.417,0.635,1.417,1.417
		C72.798,14.309,72.163,14.944,71.381,14.944z M71.381,7.743c-0.783,0-1.418-0.635-1.418-1.418c0-0.782,0.635-1.417,1.418-1.417
		c0.782,0,1.417,0.635,1.417,1.417C72.798,7.109,72.163,7.743,71.381,7.743z M78.58,14.944c-0.782,0-1.417-0.635-1.417-1.418
		c0-0.782,0.635-1.417,1.417-1.417c0.783,0,1.418,0.635,1.418,1.417C79.998,14.309,79.364,14.944,78.58,14.944z M78.58,7.743
		c-0.782,0-1.417-0.635-1.417-1.418c0-0.782,0.635-1.417,1.417-1.417c0.783,0,1.418,0.635,1.418,1.417
		C79.998,7.109,79.364,7.743,78.58,7.743z M85.781,14.944c-0.782,0-1.418-0.635-1.418-1.418c0-0.782,0.636-1.417,1.418-1.417
		c0.783,0,1.418,0.635,1.418,1.417C87.198,14.309,86.565,14.944,85.781,14.944z M85.781,7.743c-0.782,0-1.418-0.635-1.418-1.418
		c0-0.782,0.636-1.417,1.418-1.417c0.783,0,1.418,0.635,1.418,1.417C87.198,7.109,86.565,7.743,85.781,7.743z M108.004,12.76
		c-1.564,0-2.834-1.269-2.834-2.834c0-1.565,1.27-2.835,2.834-2.835s2.835,1.27,2.835,2.835
		C110.839,11.491,109.571,12.76,108.004,12.76z"/>

<path fill="#9A916C" d="M5.957,6.177c-2.07,0-3.75,1.679-3.75,3.749c0,2.07,1.679,3.749,3.75,3.749s3.75-1.678,3.75-3.749
	C9.707,7.855,8.028,6.177,5.957,6.177z M5.957,12.925c-1.656,0-3-1.343-3-2.999c0-1.656,1.343-2.999,3-2.999
	c1.657,0,3,1.343,3,2.999C8.957,11.582,7.614,12.925,5.957,12.925z"/>
<path fill="#9A916C" d="M108.004,6.177c-2.068,0-3.748,1.679-3.748,3.749c0,2.07,1.68,3.749,3.748,3.749
	c2.069,0,3.749-1.678,3.749-3.749C111.753,7.855,110.073,6.177,108.004,6.177z M108.004,12.925c-1.654,0-2.998-1.343-2.998-2.999
	c0-1.656,1.344-2.999,2.998-2.999c1.655,0,2.999,1.343,2.999,2.999C111.003,11.582,109.659,12.925,108.004,12.925z"/>
<g id="breadboard">
	<circle id="connector7pin" fill="none" stroke="#9A916C" stroke-width="0.389" cx="56.981" cy="6.326" r="1.969"/>
	<circle id="connector6pin" fill="none" stroke="#9A916C" stroke-width="0.389" cx="56.981" cy="13.526" r="1.969"/>
	<circle id="connector5pin" fill="none" stroke="#9A916C" stroke-width="0.389" cx="49.781" cy="6.326" r="1.969"/>
	<circle id="connector3pin" fill="none" stroke="#9A916C" stroke-width="0.389" cx="42.581" cy="6.326" r="1.969"/>
	<circle id="connector1pin" fill="none" stroke="#9A916C" stroke-width="0.389" cx="35.381" cy="6.326" r="1.969"/>
	<circle id="connector4pin" fill="none" stroke="#9A916C" stroke-width="0.389" cx="49.781" cy="13.526" r="1.969"/>
	<circle id="connector2pin" fill="none" stroke="#9A916C" stroke-width="0.389" cx="42.581" cy="13.526" r="1.969"/>
	<circle id="connector0pin" fill="none" stroke="#9A916C" stroke-width="0.389" cx="35.381" cy="13.526" r="1.969"/>
	<circle id="connector9pin" fill="none" stroke="#9A916C" stroke-width="0.389" cx="64.181" cy="6.326" r="1.969"/>
	<circle id="connector11pin" fill="none" stroke="#9A916C" stroke-width="0.389" cx="71.381" cy="6.326" r="1.969"/>
	<circle id="connector13pin" fill="none" stroke="#9A916C" stroke-width="0.389" cx="78.58" cy="6.326" r="1.969"/>
	<circle id="connector15pin" fill="none" stroke="#9A916C" stroke-width="0.389" cx="85.781" cy="6.326" r="1.969"/>
	<circle id="connector8pin" fill="none" stroke="#9A916C" stroke-width="0.389" cx="64.181" cy="13.526" r="1.969"/>
	<circle id="connector10pin" fill="none" stroke="#9A916C" stroke-width="0.389" cx="71.381" cy="13.526" r="1.969"/>
	<circle id="connector12pin" fill="none" stroke="#9A916C" stroke-width="0.389" cx="78.58" cy="13.526" r="1.969"/>
	<circle id="connector14pin" fill="none" stroke="#9A916C" stroke-width="0.389" cx="85.781" cy="13.526" r="1.969"/>
</g>
<g id="tuxgr_16x2_r2_oval" transform="matrix(1, 0, 0, 1, 2.43071, 28.1397)">
	<path fill="#303030" d="M105.493,36.756c-0.359,0-0.654-0.527-0.654-1.166V13.083c0-0.64,0.295-1.167,0.654-1.167h0.027V-5.56
		v-0.609h-0.342l-1.004-1.786v-0.622h-0.349H5.219H4.87v0.622L3.869-6.17H3.527v0.609v17.477h0.028c0.359,0,0.654,0.527,0.654,1.167
		V35.59c0,0.639-0.295,1.166-0.654,1.166H3.527v17.475v0.611H3.87l1.002,1.785v0.623H5.22h98.608h0.349v-0.623l1.004-1.785h0.34
		v-0.611V36.756H105.493z"/>
	<g>
		<path fill="#87AD34" d="M101.136,42.754c0,1.648-1.35,3-3,3H10.909c-1.65,0-3-1.352-3-3V6.092c0-1.65,1.35-3,3-3h87.227
			c1.65,0,3,1.35,3,3V42.754z"/>
	</g>
	<g>
		<path fill="none" stroke="#1A1A1A" stroke-width="1.415" d="M101.136,42.754c0,1.648-1.35,3-3,3H10.909c-1.65,0-3-1.352-3-3V6.092
			c0-1.65,1.35-3,3-3h87.227c1.65,0,3,1.35,3,3V42.754z"/>
	</g>
	<g>
		<g opacity="0.2">
			<path fill="#22420D" d="M101.136,6.574v35.524c0-0.006,0-0.012,0-0.018V6.591C101.136,6.585,101.136,6.579,101.136,6.574z
				 M11.175,3.094c-1.938,0-3.266,0.821-3.266,3.498v35.494c0,1.92,0.884,3.496,1.963,3.496h1.138c-1.08,0-1.962-1.576-1.962-3.496
				V7.008c0-1.843,0.627-2.747,2.416-2.747h89.16c-0.359-0.709-0.873-1.169-1.449-1.169L11.175,3.094z"/>
		</g>
	</g>
	<g>
		<path fill="#1A1A1A" d="M101.968-3.91c0-0.641-0.296-1.165-0.652-1.165H7.734c-0.358,0-0.654,0.524-0.654,1.165v0.641
			c0,0.64,0.296,1.165,0.654,1.165h93.582c0.355,0,0.652-0.525,0.652-1.165V-3.91L101.968-3.91z"/>
		<path fill="#424242" d="M101.642-2.87c0-0.42-0.213-0.767-0.469-0.767H7.914c-0.257,0-0.468,0.346-0.468,0.767
			c0,0.422,0.211,0.767,0.468,0.767h93.259C101.431-2.104,101.642-2.449,101.642-2.87z"/>
	</g>
	<g>
		<path fill="#1A1A1A" d="M101.968,51.389c0-0.641-0.296-1.164-0.652-1.164L7.734,50.223c-0.358,0-0.654,0.525-0.654,1.164v0.643
			c0,0.639,0.296,1.164,0.654,1.164h93.582c0.355,0,0.652-0.525,0.652-1.164V51.389L101.968,51.389z"/>
		<path fill="#424242" d="M101.642,52.428c0-0.42-0.213-0.768-0.469-0.768H7.914c-0.257,0-0.468,0.346-0.468,0.768
			c0,0.42,0.211,0.768,0.468,0.768h93.259C101.431,53.194,101.642,52.85,101.642,52.428z"/>
	</g>
	<g>
		
			<line fill="none" stroke="#F2F2F2" stroke-width="0.2358" stroke-linecap="round" stroke-opacity="0.2" x1="3.912" y1="-6.042" x2="4.946" y2="-7.884"/>
		
			<line fill="none" stroke="#F2F2F2" stroke-width="0.2358" stroke-linecap="round" stroke-opacity="0.2" x1="4.955" y1="56.549" x2="3.922" y2="54.706"/>
	</g>
	<g>
		
			<line fill="none" stroke="#F2F2F2" stroke-width="0.2358" stroke-linecap="round" stroke-opacity="0.2" x1="105.131" y1="-6.042" x2="104.097" y2="-7.884"/>
		
			<line fill="none" stroke="#F2F2F2" stroke-width="0.2358" stroke-linecap="round" stroke-opacity="0.2" x1="104.086" y1="56.549" x2="105.12" y2="54.706"/>
	</g>
	<g>
		<path fill="#606060" d="M3.675,36.715v18.127h0.133V36.664C3.766,36.698,3.719,36.698,3.675,36.715z"/>
		<path fill="#606060" d="M3.807,12.009V-6.17H3.675v18.132C3.719,11.977,3.766,11.978,3.807,12.009z"/>
	</g>
	<rect x="4.872" y="-8.309" fill="#606060" width="99.303" height="0.233"/>
	<rect x="4.872" y="-8.573" fill="#212121" width="99.303" height="0.267"/>
	<g>
		<path fill="#212121" d="M3.555,11.916c0.042,0,0.08,0.031,0.121,0.046V-6.17H3.527v18.087L3.555,11.916L3.555,11.916z"/>
		<path fill="#212121" d="M3.555,36.756H3.527v18.086h0.148V36.715C3.635,36.727,3.597,36.756,3.555,36.756z"/>
	</g>
	<rect x="4.872" y="56.987" fill="#212121" width="99.303" height="0.268"/>
	<rect x="4.872" y="56.756" fill="#606060" width="99.303" height="0.234"/>
	<g>
		<path fill="#212121" d="M105.493,36.756c-0.045,0-0.082-0.029-0.123-0.045v18.131h0.148V36.756H105.493z"/>
		<path fill="#212121" d="M105.493,11.916h0.025V-6.171h-0.148v18.133C105.411,11.947,105.45,11.916,105.493,11.916z"/>
	</g>
	<g>
		<path fill="#606060" d="M105.241,36.664v18.178h0.131V36.715C105.329,36.698,105.281,36.698,105.241,36.664z"/>
		<path fill="#606060" d="M105.371,11.962V-6.17h-0.132v18.179C105.281,11.978,105.329,11.977,105.371,11.962z"/>
	</g>
	<g id="Ebene_2">
	</g>
</g>
<g opacity="0.1">
	
		<rect x="57.548" y="38.414" fill="#1A1A1A" stroke="#F8F8F8" stroke-width="0.127" stroke-linecap="round" width="8.362" height="13.464"/>
	
		<rect x="57.548" y="53.011" fill="#1A1A1A" stroke="#F8F8F8" stroke-width="0.127" stroke-linecap="round" width="8.362" height="13.465"/>
	
		<rect x="67.044" y="38.414" fill="#1A1A1A" stroke="#F8F8F8" stroke-width="0.127" stroke-linecap="round" width="8.36" height="13.464"/>
	
		<rect x="67.044" y="53.011" fill="#1A1A1A" stroke="#F8F8F8" stroke-width="0.127" stroke-linecap="round" width="8.36" height="13.465"/>
	
		<rect x="76.54" y="38.414" fill="#1A1A1A" stroke="#F8F8F8" stroke-width="0.127" stroke-linecap="round" width="8.36" height="13.464"/>
	
		<rect x="76.54" y="53.011" fill="#1A1A1A" stroke="#F8F8F8" stroke-width="0.127" stroke-linecap="round" width="8.36" height="13.465"/>
	
		<rect x="86.035" y="38.414" fill="#1A1A1A" stroke="#F8F8F8" stroke-width="0.127" stroke-linecap="round" width="8.361" height="13.464"/>
	
		<rect x="86.035" y="53.011" fill="#1A1A1A" stroke="#F8F8F8" stroke-width="0.127" stroke-linecap="round" width="8.361" height="13.465"/>
	
		<rect x="19.564" y="38.414" fill="#1A1A1A" stroke="#F8F8F8" stroke-width="0.127" stroke-linecap="round" width="8.362" height="13.464"/>
	
		<rect x="19.564" y="53.011" fill="#1A1A1A" stroke="#F8F8F8" stroke-width="0.127" stroke-linecap="round" width="8.362" height="13.465"/>
	
		<rect x="29.06" y="38.414" fill="#1A1A1A" stroke="#F8F8F8" stroke-width="0.127" stroke-linecap="round" width="8.362" height="13.464"/>
	
		<rect x="29.06" y="53.011" fill="#1A1A1A" stroke="#F8F8F8" stroke-width="0.127" stroke-linecap="round" width="8.362" height="13.465"/>
	
		<rect x="38.556" y="38.414" fill="#1A1A1A" stroke="#F8F8F8" stroke-width="0.127" stroke-linecap="round" width="8.362" height="13.464"/>
	
		<rect x="38.556" y="53.011" fill="#1A1A1A" stroke="#F8F8F8" stroke-width="0.127" stroke-linecap="round" width="8.362" height="13.465"/>
	
		<rect x="48.052" y="38.414" fill="#1A1A1A" stroke="#F8F8F8" stroke-width="0.127" stroke-linecap="round" width="8.362" height="13.464"/>
	
		<rect x="48.052" y="53.011" fill="#1A1A1A" stroke="#F8F8F8" stroke-width="0.127" stroke-linecap="round" width="8.362" height="13.465"/>
</g>
<path fill="#303030" d="M0,85.328v9.637c0,3.131,2.538,5.67,5.669,5.67s5.669-2.539,5.669-5.67v-9.637H0z M5.669,97.8
	c-1.565,0-2.835-1.271-2.835-2.836s1.27-2.834,2.835-2.834s2.835,1.27,2.835,2.834S7.235,97.8,5.669,97.8z"/>
<path fill="#303030" d="M102.622,85.328v9.637c0,3.131,2.538,5.67,5.669,5.67s5.67-2.539,5.67-5.67v-9.637H102.622z M108.291,97.8
	c-1.564,0-2.834-1.271-2.834-2.836s1.27-2.834,2.834-2.834s2.835,1.27,2.835,2.834S109.858,97.8,108.291,97.8z"/>
</g>
</svg>
