<?xml version='1.0' encoding='UTF-8' standalone='no'?>
<!-- Created with Fritzing (http://www.fritzing.org/) -->
<svg xmlns="http://www.w3.org/2000/svg" width="0.7in" x="0in" version="1.2" y="0in"  height="0.8in" viewBox="0 0 700 800" baseProfile="tiny" xmlns:svg="http://www.w3.org/2000/svg">
 <desc>Fritzing breadboard generated by brd2svg</desc>
 <g id="breadboard">
  <g id="icon">
   <path fill="#1F7A34" stroke="none" stroke-width="0" d="M0,0L0,370A30,30 0 0 1 0,430L0,800L700,800L700,0L0,0z"/>
   <g transform="translate(131.493,160.826)">
    <rect width="321.764" x="57.625" y="437.014" fill="#1A1A1A" height="34.3889"/>
    <rect width="438.083" x="0" height="437.014"/>
    <circle fill="#1A1A1A" cx="218.5" cy="238.472" r="77.3472"/>
    <rect width="154.708" x="141.153" y="214.75" fill="#1A1A1A" height="23.7222"/>
    <circle fill="#333333" cx="218.5" cy="218.514" r="77.3472"/>
    <circle fill="#333333" cx="218.5" cy="218.514" r="77.3472"/>
    <path opacity="0.3" fill="#FFFFFF" d="M295.861,219.972c0,-42.7222,-34.6389,-77.3472,-77.3472,-77.3472c-42.7222,0,-77.3472,34.625,-77.3472,77.3472l0,-1.45833c0,-42.7222,34.625,-77.3472,77.3472,-77.3472c42.7083,0,77.3472,34.625,77.3472,77.3472"/>
    <polygon fill="#1A1A1A" points="181.181,173.653,181.181,255.833,204.181,255.833,204.181,246.333,232.819,246.333,232.819,255.833,255.833,255.833,255.833,173.653"/>
    <polygon fill="#4D4D4D" points="255.833,176.694,255.833,153.694,232.819,153.694,232.819,163.194,204.181,163.194,204.181,153.694,181.181,153.694,181.181,176.694,190.667,176.694,190.667,205.347,181.181,205.347,181.181,228.347,204.181,228.347,204.181,218.514,232.819,218.514,232.819,228.347,255.833,228.347,255.833,205.347,246.333,205.347,246.333,176.694"/>
    <g opacity="0.5">
     <polyline points="255.833,178.486,246.333,178.486,246.333,176.694,255.833,176.694"/>
     <polyline points="255.833,230.125,232.819,230.125,232.819,220.292,204.181,220.292,204.181,230.125,181.181,230.125,181.181,228.347,204.181,228.347,204.181,218.514,232.819,218.514,232.819,228.347,255.833,228.347"/>
     <polyline points="255.833,255.833,232.819,255.833,232.819,246,204.181,246,204.181,255.833,181.181,255.833,181.181,254.056,204.181,254.056,204.181,218.514,232.819,218.514,232.819,254.056,255.833,254.056"/>
     <polyline points="190.667,178.486,181.181,178.486,181.181,176.694,190.667,176.694"/>
    </g>
    <rect width="57.625" x="0" y="437.014" fill="#CCCCCC" height="41.3333"/>
    <rect width="57.625" x="379.375" y="437.014" fill="#CCCCCC" height="41.3333"/>
    <rect width="321.764" x="57.625" y="424.097" fill="#4D4D4D" height="26.6389"/>
    <g>
     <path fill="#E6E6E6" d="M3.05556,126.431c5.73611,0,10.4167,4.68056,10.4167,10.4167l0,22.1389c0,5.73611,-4.68056,10.4167,-10.4167,10.4167L0,169.403l0,96l3.06944,0c5.73611,0,10.4167,4.69444,10.4167,10.4167l0,22.1389c0,5.72222,-4.68056,10.4167,-10.4167,10.4167L0,308.375l0,124.139l5.34722,0c2.48611,0,4.51389,2.02778,4.51389,4.5l0,0.0138889l47.7639,0l0,-11.9444l33.2778,0l0,11.9444l40.8056,0l0,-11.9583l18.8889,0l0,11.9583l135.792,0l0,-11.9583l18.9167,0l0,11.9583l40.8056,0l0,-11.9444l33.2778,0l0,11.9444l47.7639,0l0,-0.0138889c0,-2.48611,2.02778,-4.5,4.51389,-4.5l5.34722,0l0,-124.139l-1.25,0c-5.72222,0,-10.4167,-4.69444,-10.4167,-10.4167l0,-22.1389c0,-5.72222,4.69444,-10.4167,10.4167,-10.4167l1.25,0l0,-96l-1.25,0c-5.72222,0,-10.4167,-4.68056,-10.4167,-10.4167L425.347,136.847c0,-5.73611,4.69444,-10.4167,10.4167,-10.4167l1.25,0L437.014,0l-57.625,0l0,1.54167c0,5.72222,-4.69444,10.4167,-10.4167,10.4167L356.528,11.9583c-5.72222,0,-10.4167,-4.69444,-10.4167,-10.4167L346.111,0l-40.8056,0l0,1.52778c0,5.72222,-4.26389,10.4167,-9.47222,10.4167c-5.19444,0,-9.45833,-4.69444,-9.45833,-10.4167L286.375,0l-135.792,0l0,1.52778c0,5.72222,-4.25,10.4167,-9.44444,10.4167c-5.19444,0,-9.44444,-4.69444,-9.44444,-10.4167L131.694,0L90.9028,0l0,1.54167c0,5.72222,-4.68056,10.4167,-10.4167,10.4167L68.0417,11.9583c-5.73611,0,-10.4167,-4.69444,-10.4167,-10.4167L57.625,0L0,0l0,126.431L3.05556,126.431zM218.5,128.667c49.6111,0,89.8472,40.2222,89.8472,89.8472c0,49.6111,-40.2222,89.8472,-89.8472,89.8472c-49.625,0,-89.8472,-40.2222,-89.8472,-89.8472C128.653,168.889,168.875,128.667,218.5,128.667z"/>
    </g>
    <rect width="321.764" x="57.625" y="450.736" fill="#999999" height="6.94444"/>
    <circle cx="408.194" cy="405.431" r="18.6667"/>
    <circle cx="27.9583" cy="30.8611" r="18.6667"/>
    <path fill="#B3B3B3" d="M426.861,406.944c0,-10.3056,-8.36111,-18.6667,-18.6667,-18.6667s-18.6667,8.36111,-18.6667,18.6667l0,-1.51389c0,-10.3056,8.36111,-18.6667,18.6667,-18.6667s18.6667,8.36111,18.6667,18.6667"/>
    <path fill="#B3B3B3" d="M46.625,32.3889c0,-10.3056,-8.36111,-18.6667,-18.6667,-18.6667S9.30556,22.0694,9.30556,32.3889L9.30556,30.8611c0,-10.3056,8.36111,-18.6667,18.6667,-18.6667S46.625,20.5556,46.625,30.8611"/>
    <g>
     <path fill="#B3B3B3" d="M13.4722,163.139l0,-22.1389c0,-5.73611,-4.68056,-10.4167,-10.4167,-10.4167L0,130.583l0,-4.16667L3.05556,126.417c5.73611,0,10.4167,4.68056,10.4167,10.4167l0,22.1389"/>
     <path fill="#B3B3B3" d="M437.014,130.583l-1.25,0c-5.72222,0,-10.4167,4.68056,-10.4167,10.4167l0,22.1389l0,-4.16667L425.347,136.847c0,-5.73611,4.69444,-10.4167,10.4167,-10.4167l1.25,0"/>
     <path fill="#B3B3B3" d="M437.014,269.556l-1.25,0c-5.72222,0,-10.4167,4.69444,-10.4167,10.4167l0,22.1389l0,-4.16667l0,-22.1389c0,-5.72222,4.69444,-10.4167,10.4167,-10.4167l1.25,0"/>
     <path fill="#B3B3B3" d="M437.014,436.667L431.667,436.667c-2.5,0,-4.51389,2.02778,-4.51389,4.5c0,0.0138889,-47.7639,0.0138889,-47.7639,0.0138889l0,-11.9444L346.111,429.236l0,11.9444l-40.8056,0l0,-11.9583L286.389,429.222l0,11.9583l-135.792,0l0,-11.9583l-18.8889,0l0,11.9583L90.9028,441.181l0,-11.9444L57.625,429.236l0,11.9444L9.84722,441.181c0,-2.5,-2.01389,-4.51389,-4.5,-4.51389L0,436.667l0,-4.16667l5.34722,0c2.48611,0,4.51389,2.02778,4.5,4.51389l47.7639,0l0,-11.9444l33.2778,0l0,11.9444l40.8056,0l0,-11.9583l18.8889,0l0,11.9583l135.792,0l0,-11.9583l18.9167,0l0,11.9583l40.8056,0l0,-11.9444l33.2778,0l0,11.9444c0,0,47.7639,0,47.7639,-0.0138889c0,-2.48611,2.02778,-4.5,4.51389,-4.5l5.34722,0"/>
     <path fill="#B3B3B3" d="M13.4861,302.097l0,-22.1389c0,-5.72222,-4.68056,-10.4167,-10.4167,-10.4167L0,269.542l0,-4.16667l3.06944,0c5.73611,0,10.4167,4.69444,10.4167,10.4167l0,22.1389"/>
     <path fill="#B3B3B3" d="M308.347,222.681c0,-49.625,-40.2222,-89.8472,-89.8472,-89.8472c-49.625,0,-89.8472,40.2222,-89.8472,89.8472l0,-4.16667c0,-49.625,40.2222,-89.8472,89.8472,-89.8472c49.6111,0,89.8472,40.2222,89.8472,89.8472"/>
    </g>
    <g opacity="0.5">
     <path fill="#FFFFFF" d="M0,4.16667l57.625,0l0,1.54167c0,5.72222,4.68056,10.4167,10.4167,10.4167l12.4444,0c5.73611,0,10.4167,-4.69444,10.4167,-10.4167L90.9028,4.16667l40.8056,0l0,1.52778c0,5.72222,4.25,10.4167,9.44444,10.4167c5.19444,0,9.44444,-4.69444,9.44444,-10.4167L150.597,4.16667l135.792,0l0,1.52778c0,5.72222,4.26389,10.4167,9.45833,10.4167c5.20833,0,9.47222,-4.69444,9.47222,-10.4167L305.319,4.16667l40.8056,0l0,1.54167c0,5.72222,4.69444,10.4167,10.4167,10.4167l12.4444,0c5.72222,0,10.4167,-4.69444,10.4167,-10.4167L379.403,4.16667l57.625,0L437.028,0l-57.625,0l0,1.54167c0,5.72222,-4.69444,10.4167,-10.4167,10.4167L356.528,11.9583c-5.72222,0,-10.4167,-4.69444,-10.4167,-10.4167L346.111,0l-40.8056,0l0,1.52778c0,5.72222,-4.26389,10.4167,-9.47222,10.4167c-5.19444,0,-9.45833,-4.69444,-9.45833,-10.4167L286.375,0l-135.792,0l0,1.52778c0,5.72222,-4.25,10.4167,-9.44444,10.4167c-5.19444,0,-9.44444,-4.69444,-9.44444,-10.4167L131.694,0L90.9028,0l0,1.54167c0,5.72222,-4.68056,10.4167,-10.4167,10.4167L68.0417,11.9583c-5.73611,0,-10.4167,-4.69444,-10.4167,-10.4167L57.625,0L0,0"/>
    </g>
    <polyline opacity="0.2" fill="#FFFFFF" points="181.181,155.472,204.181,155.472,204.181,164.972,232.819,164.972,232.819,155.472,255.833,155.472,255.833,153.694,232.819,153.694,232.819,163.194,204.181,163.194,204.181,153.694,181.181,153.694"/>
    <path d="M141.153,218.514c0,42.7083,34.625,77.3472,77.3472,77.3472c42.7083,0,77.3472,-34.6389,77.3472,-77.3472l0,3.01389c0,42.7083,-34.6389,77.3472,-77.3472,77.3472c-42.7222,0,-77.3472,-34.6389,-77.3472,-77.3472"/>
   </g>
  </g>
  <g transform="translate(34.035,734.05)">
   <rect width="31.93" x="0" y="0" fill="#8D8C8C" height="31.9" id="connector0pin"/>
   <rect width="16.4442" x="7.79153" y="7.73544" fill="#8C8663" height="16.4152"/>
   <polygon fill="#B8AF82" points="0,31.9,7.79153,24.1368,7.79153,6.97162,0,0"/>
   <polygon fill="#80795B" points="24.2079,7.76321,7.90264,7.76321,0,0,31.93,0"/>
   <polygon fill="#5E5B43" points="24.2079,24.1368,24.2079,7.76321,31.93,0,31.93,31.9"/>
   <polygon fill="#9A916C" points="0,31.9,7.87486,24.1368,24.2079,24.1368,31.93,31.9"/>
  </g>
  <g transform="translate(134.035,734.05)">
   <rect width="31.93" x="0" y="0" fill="#8D8C8C" height="31.9" id="connector1pin"/>
   <rect width="16.4442" x="7.79153" y="7.73544" fill="#8C8663" height="16.4152"/>
   <polygon fill="#B8AF82" points="0,31.9,7.79153,24.1368,7.79153,6.97162,0,0"/>
   <polygon fill="#80795B" points="24.2079,7.76321,7.90264,7.76321,0,0,31.93,0"/>
   <polygon fill="#5E5B43" points="24.2079,24.1368,24.2079,7.76321,31.93,0,31.93,31.9"/>
   <polygon fill="#9A916C" points="0,31.9,7.87486,24.1368,24.2079,24.1368,31.93,31.9"/>
  </g>
  <g transform="translate(134.035,34.05)">
   <rect width="31.93" x="0" y="0" fill="#8D8C8C" height="31.9" id="connector12pin"/>
   <rect width="16.4442" x="7.79153" y="7.73544" fill="#8C8663" height="16.4152"/>
   <polygon fill="#B8AF82" points="0,31.9,7.79153,24.1368,7.79153,6.97162,0,0"/>
   <polygon fill="#80795B" points="24.2079,7.76321,7.90264,7.76321,0,0,31.93,0"/>
   <polygon fill="#5E5B43" points="24.2079,24.1368,24.2079,7.76321,31.93,0,31.93,31.9"/>
   <polygon fill="#9A916C" points="0,31.9,7.87486,24.1368,24.2079,24.1368,31.93,31.9"/>
  </g>
  <g transform="translate(234.035,734.05)">
   <rect width="31.93" x="0" y="0" fill="#8D8C8C" height="31.9" id="connector2pin"/>
   <rect width="16.4442" x="7.79153" y="7.73544" fill="#8C8663" height="16.4152"/>
   <polygon fill="#B8AF82" points="0,31.9,7.79153,24.1368,7.79153,6.97162,0,0"/>
   <polygon fill="#80795B" points="24.2079,7.76321,7.90264,7.76321,0,0,31.93,0"/>
   <polygon fill="#5E5B43" points="24.2079,24.1368,24.2079,7.76321,31.93,0,31.93,31.9"/>
   <polygon fill="#9A916C" points="0,31.9,7.87486,24.1368,24.2079,24.1368,31.93,31.9"/>
  </g>
  <g transform="translate(234.035,34.05)">
   <rect width="31.93" x="0" y="0" fill="#8D8C8C" height="31.9" id="connector11pin"/>
   <rect width="16.4442" x="7.79153" y="7.73544" fill="#8C8663" height="16.4152"/>
   <polygon fill="#B8AF82" points="0,31.9,7.79153,24.1368,7.79153,6.97162,0,0"/>
   <polygon fill="#80795B" points="24.2079,7.76321,7.90264,7.76321,0,0,31.93,0"/>
   <polygon fill="#5E5B43" points="24.2079,24.1368,24.2079,7.76321,31.93,0,31.93,31.9"/>
   <polygon fill="#9A916C" points="0,31.9,7.87486,24.1368,24.2079,24.1368,31.93,31.9"/>
  </g>
  <g transform="translate(334.035,734.05)">
   <rect width="31.93" x="0" y="0" fill="#8D8C8C" height="31.9" id="connector3pin"/>
   <rect width="16.4442" x="7.79153" y="7.73544" fill="#8C8663" height="16.4152"/>
   <polygon fill="#B8AF82" points="0,31.9,7.79153,24.1368,7.79153,6.97162,0,0"/>
   <polygon fill="#80795B" points="24.2079,7.76321,7.90264,7.76321,0,0,31.93,0"/>
   <polygon fill="#5E5B43" points="24.2079,24.1368,24.2079,7.76321,31.93,0,31.93,31.9"/>
   <polygon fill="#9A916C" points="0,31.9,7.87486,24.1368,24.2079,24.1368,31.93,31.9"/>
  </g>
  <g transform="translate(334.035,34.05)">
   <rect width="31.93" x="0" y="0" fill="#8D8C8C" height="31.9" id="connector10pin"/>
   <rect width="16.4442" x="7.79153" y="7.73544" fill="#8C8663" height="16.4152"/>
   <polygon fill="#B8AF82" points="0,31.9,7.79153,24.1368,7.79153,6.97162,0,0"/>
   <polygon fill="#80795B" points="24.2079,7.76321,7.90264,7.76321,0,0,31.93,0"/>
   <polygon fill="#5E5B43" points="24.2079,24.1368,24.2079,7.76321,31.93,0,31.93,31.9"/>
   <polygon fill="#9A916C" points="0,31.9,7.87486,24.1368,24.2079,24.1368,31.93,31.9"/>
  </g>
  <g transform="translate(434.035,734.05)">
   <rect width="31.93" x="0" y="0" fill="#8D8C8C" height="31.9" id="connector4pin"/>
   <rect width="16.4442" x="7.79153" y="7.73544" fill="#8C8663" height="16.4152"/>
   <polygon fill="#B8AF82" points="0,31.9,7.79153,24.1368,7.79153,6.97162,0,0"/>
   <polygon fill="#80795B" points="24.2079,7.76321,7.90264,7.76321,0,0,31.93,0"/>
   <polygon fill="#5E5B43" points="24.2079,24.1368,24.2079,7.76321,31.93,0,31.93,31.9"/>
   <polygon fill="#9A916C" points="0,31.9,7.87486,24.1368,24.2079,24.1368,31.93,31.9"/>
  </g>
  <g transform="translate(434.035,34.05)">
   <rect width="31.93" x="0" y="0" fill="#8D8C8C" height="31.9" id="connector9pin"/>
   <rect width="16.4442" x="7.79153" y="7.73544" fill="#8C8663" height="16.4152"/>
   <polygon fill="#B8AF82" points="0,31.9,7.79153,24.1368,7.79153,6.97162,0,0"/>
   <polygon fill="#80795B" points="24.2079,7.76321,7.90264,7.76321,0,0,31.93,0"/>
   <polygon fill="#5E5B43" points="24.2079,24.1368,24.2079,7.76321,31.93,0,31.93,31.9"/>
   <polygon fill="#9A916C" points="0,31.9,7.87486,24.1368,24.2079,24.1368,31.93,31.9"/>
  </g>
  <g transform="translate(534.035,734.05)">
   <rect width="31.93" x="0" y="0" fill="#8D8C8C" height="31.9" id="connector5pin"/>
   <rect width="16.4442" x="7.79153" y="7.73544" fill="#8C8663" height="16.4152"/>
   <polygon fill="#B8AF82" points="0,31.9,7.79153,24.1368,7.79153,6.97162,0,0"/>
   <polygon fill="#80795B" points="24.2079,7.76321,7.90264,7.76321,0,0,31.93,0"/>
   <polygon fill="#5E5B43" points="24.2079,24.1368,24.2079,7.76321,31.93,0,31.93,31.9"/>
   <polygon fill="#9A916C" points="0,31.9,7.87486,24.1368,24.2079,24.1368,31.93,31.9"/>
  </g>
  <g transform="translate(534.035,34.05)">
   <rect width="31.93" x="0" y="0" fill="#8D8C8C" height="31.9" id="connector8pin"/>
   <rect width="16.4442" x="7.79153" y="7.73544" fill="#8C8663" height="16.4152"/>
   <polygon fill="#B8AF82" points="0,31.9,7.79153,24.1368,7.79153,6.97162,0,0"/>
   <polygon fill="#80795B" points="24.2079,7.76321,7.90264,7.76321,0,0,31.93,0"/>
   <polygon fill="#5E5B43" points="24.2079,24.1368,24.2079,7.76321,31.93,0,31.93,31.9"/>
   <polygon fill="#9A916C" points="0,31.9,7.87486,24.1368,24.2079,24.1368,31.93,31.9"/>
  </g>
  <g transform="translate(634.035,734.05)">
   <rect width="31.93" x="0" y="0" fill="#8D8C8C" height="31.9" id="connector6pin"/>
   <rect width="16.4442" x="7.79153" y="7.73544" fill="#8C8663" height="16.4152"/>
   <polygon fill="#B8AF82" points="0,31.9,7.79153,24.1368,7.79153,6.97162,0,0"/>
   <polygon fill="#80795B" points="24.2079,7.76321,7.90264,7.76321,0,0,31.93,0"/>
   <polygon fill="#5E5B43" points="24.2079,24.1368,24.2079,7.76321,31.93,0,31.93,31.9"/>
   <polygon fill="#9A916C" points="0,31.9,7.87486,24.1368,24.2079,24.1368,31.93,31.9"/>
  </g>
  <g transform="translate(634.035,34.05)">
   <rect width="31.93" x="0" y="0" fill="#8D8C8C" height="31.9" id="connector7pin"/>
   <rect width="16.4442" x="7.79153" y="7.73544" fill="#8C8663" height="16.4152"/>
   <polygon fill="#B8AF82" points="0,31.9,7.79153,24.1368,7.79153,6.97162,0,0"/>
   <polygon fill="#80795B" points="24.2079,7.76321,7.90264,7.76321,0,0,31.93,0"/>
   <polygon fill="#5E5B43" points="24.2079,24.1368,24.2079,7.76321,31.93,0,31.93,31.9"/>
   <polygon fill="#9A916C" points="0,31.9,7.87486,24.1368,24.2079,24.1368,31.93,31.9"/>
  </g>
 </g>
</svg>
