<?xml version="1.0" encoding="utf-8"?>
<!-- Generator: Adobe Illustrator 15.1.0, SVG Export Plug-In . SVG Version: 6.00 Build 0)  -->
<!DOCTYPE svg PUBLIC "-//W3C//DTD SVG 1.1//EN" "http://www.w3.org/Graphics/SVG/1.1/DTD/svg11.dtd">
<svg version="1.1" id="Ebene_1" xmlns:svg="http://www.w3.org/2000/svg"
	 xmlns="http://www.w3.org/2000/svg" xmlns:xlink="http://www.w3.org/1999/xlink" x="0px" y="0px" width="158.533px"
	 height="172.764px" viewBox="0 -17.604 158.533 172.764" enable-background="new 0 -17.604 158.533 172.764" xml:space="preserve">
<g id="breadboard">
	<path id="path4_1_" fill="#D2D2D2" d="M127.423,0.566c1.186,0,2.016,1.078,2.016,2.02v150.555c0,1.337-0.684,2.019-2.016,2.019
		H2.018c-1.068,0-2.018-0.841-2.018-2.019V2.581c0-1.097,0.791-2.017,2.018-2.017L127.423,0.566L127.423,0.566z"/>
	<path id="path4_2_" fill="#FFC900" d="M0,35.896V2.586c0-1.099,0.791-2.023,2.018-2.023l125.406,0.003l0,0
		c1.186,0,2.016,1.078,2.016,2.024v33.302H0V35.896z"/>
	<path id="path4_3_" opacity="0.36" fill="#1D1D1D" enable-background="new    " d="M0,25.77V2.586c0-1.099,0.791-2.023,2.018-2.023
		l125.406,0.003l0,0c1.186,0,2.016,1.078,2.016,2.024v23.174H0V25.77z"/>
	<g id="path112_1_">
		<path d="M81.339,0.418c0-3.708,0-13.548,15.071-13.548c9.581,0,25.554,4.077,32.294,8.021
			c5.932,3.473,11.535,12.378,18.387,12.378l11.441,0v2.619h-11.441c-7.559,0-13.463-9.083-19.713-12.737
			c-6.442-3.772-22.098-7.666-30.968-7.666C83.964-10.52,83.964-3.404,83.964,0.418H81.339z"/>
	</g>
	<g id="path114_1_">
		<path fill="#FF0000" d="M49.132,0.388c0-3.075,2.303-11.569,17.384-15.851c8.494-2.411,12.976-2.131,29.464-2.131
			c9.74,0,25.609,3.24,31.834,6.37c5.824,2.922,11.322,11.686,19.287,11.686h11.432V3.08h-11.432
			c-8.584,0-14.619-9.033-20.459-11.965c-5.953-2.987-21.539-6.094-30.662-6.094c-16.229,0-20.33-0.447-28.431,1.696
			C53.473-9.559,51.758-2.021,51.758,0.393h-2.626V0.388z"/>
	</g>
	<path id="path22_1_" opacity="0.35" enable-background="new    " d="M0.939,5.646c0-1.79,1.65-4.064,3.619-4.064h9.049
		c-1.969,0-5.033,2.28-5.033,4.064v144.412c0,1.789,3.064,4.054,5.033,4.054H4.559c-1.969,0-3.619-2.265-3.619-4.054V5.646
		L0.939,5.646z"/>
	<path id="path22_2_" opacity="0.35" fill="#FFFFFF" enable-background="new    " d="M128.386,149.84
		c0,1.789-1.652,4.064-3.623,4.064h-9.045c1.959,0,5.029-2.275,5.029-4.064V5.432c0-1.788-3.07-4.055-5.029-4.055h9.045
		c1.971,0,3.623,2.267,3.623,4.055V149.84L128.386,149.84z"/>
	<g>
		<text transform="matrix(1 0 0 1 81.3394 40.9536)" font-family="'EurostileLTStd'" font-size="12.1064">-</text>
		<text transform="matrix(-4.371139e-008 1 -1 -4.371139e-008 79.2471 49.6226)" font-family="'ArialMT'" font-size="12.1064">E585460-4121</text>
		<text transform="matrix(-4.371139e-008 1 -1 -4.371139e-008 64.7207 49.6226)" font-family="'ArialMT'" font-size="12.1064">E4104-L58-1</text>
		
			<text transform="matrix(-4.371139e-008 1 -1 -4.371139e-008 50.354 33.8628)" font-family="'EurostileLTStd'" font-size="12.1064">+</text>
		<text transform="matrix(-4.371139e-008 1 -1 -4.371139e-008 50.1929 49.6226)" font-family="'ArialMT'" font-size="12.1064">2000mAh 3.7V</text>
	</g>
</g>
</svg>
