<?xml version='1.0' encoding='UTF-8' standalone='no'?>
<!-- Created with Fritzing (http://www.fritzing.org/) -->
<svg xmlns="http://www.w3.org/2000/svg" width="1.44417in" x="0in" version="1.2" y="0in"  height="0.8in" viewBox="0 0 1444.17 800" baseProfile="tiny" xmlns:svg="http://www.w3.org/2000/svg">
 <desc>Fritzing breadboard generated by brd2svg</desc>
 <g id="breadboard">
  <g id="icon">
   <path fill="#1F7A34" stroke="none" stroke-width="0" d="M0,0L0,370A30,30 0 0 1 0,430L0,800L1444.17,800L1444.17,0L0,0z"/>
   <g transform="translate(100,151.396)">
    <rect width="806.667" y="0" fill="#B3B3B3" height="308.056"/>
    <rect width="806.667" y="308.056" fill="#999999" height="161.944"/>
    <rect width="91.3889" x="806.667" y="0" fill="#999999" height="308.056"/>
    <rect width="175.972" x="898.056" y="174.861" fill="#E6E6E6" height="104.167"/>
    <g>
     <rect width="175.972" x="898.056" y="274.139" height="4.90278" fill-opacity="0.05"/>
     <rect width="175.972" x="898.056" y="268.833" height="8.55556" fill-opacity="0.05"/>
     <rect width="175.972" x="898.056" y="260.861" height="16.2083" fill-opacity="0.05"/>
     <rect width="175.972" x="898.056" y="251.833" height="27.1944" fill-opacity="0.05"/>
    </g>
    <g>
     <rect width="175.972" x="898.056" y="174.861" fill="#FFFFFF" height="4.90278" fill-opacity="0.15"/>
     <rect width="175.972" x="898.056" y="176.5" fill="#FFFFFF" height="8.55556" fill-opacity="0.1"/>
     <rect width="175.972" x="898.056" y="176.819" fill="#FFFFFF" height="16.2083" fill-opacity="0.1"/>
     <rect width="175.972" x="898.056" y="174.861" fill="#FFFFFF" height="27.1944" fill-opacity="0.1"/>
    </g>
    <g>
     <rect width="27.7778" x="1074.03" y="293.361" fill="#B3B3B3" height="29.375"/>
     <rect width="142.361" x="1101.81" y="177.528" fill="#E6E6E6" height="69.4444"/>
     <rect width="142.361" x="1101.81" y="177.528" fill="#E6E6E6" height="7.38889" fill-opacity="0.2"/>
     <rect width="142.361" x="1101.81" y="246.972" fill="#CCCCCC" height="27.1528"/>
     <rect width="27.7778" x="1074.03" y="131.153" fill="#CCCCCC" height="162.222"/>
     <rect width="27.7778" x="1074.03" y="131.153" fill="#FFFFFF" height="5.51389" fill-opacity="0.2"/>
     <rect width="142.361" x="1101.81" y="270.153" height="3.70833" fill-opacity="0.2"/>
     <rect width="27.7778" x="1074.03" y="319.278" height="2.52778" fill-opacity="0.2"/>
    </g>
    <rect width="91.3889" x="806.667" y="308.056" fill="#808080" height="161.944"/>
    <g>
     <path fill="#CCCCCC" d="M1036.47,316.542c-6.51389,0,-9.80556,-12.625,-9.80556,-37.5139l6.94444,0c0,16.7639,1.72222,25.3472,3,28.9444c2.70833,-6.29167,7.15278,-27.75,7.15278,-81.0278c0,-26.5417,1.26389,-48.4861,3.65278,-63.4722c3.125,-19.4583,7.16667,-22.0833,10.7083,-22.0833c7.97222,0,9.63889,18.2083,9.63889,33.4861l-6.94444,0c0,-13.875,-1.56944,-21.8472,-2.83333,-25.1806c-2.70833,5.68056,-7.27778,25.9444,-7.27778,77.2639c0,27.6944,-1.25,50.6389,-3.59722,66.375C1044.06,313.778,1040.03,316.542,1036.47,316.542z"/>
    </g>
    <g>
     <path fill="#CCCCCC" d="M1002.32,316.542c-6.51389,0,-9.80556,-12.625,-9.80556,-37.5139l6.94444,0c0,16.7639,1.72222,25.3472,3,28.9444c2.70833,-6.29167,7.15278,-27.75,7.15278,-81.0278c0,-26.5417,1.26389,-48.4861,3.65278,-63.4722c3.125,-19.4583,7.16667,-22.0833,10.7083,-22.0833c7.97222,0,9.63889,18.2083,9.63889,33.4861l-6.94444,0c0,-13.875,-1.56944,-21.8472,-2.83333,-25.1806c-2.70833,5.68056,-7.27778,25.9444,-7.27778,77.2639c0,27.6944,-1.25,50.6389,-3.59722,66.375C1009.9,313.778,1005.88,316.542,1002.32,316.542z"/>
    </g>
    <g>
     <path fill="#CCCCCC" d="M968.167,316.542c-6.51389,0,-9.80556,-12.625,-9.80556,-37.5139l6.94444,0c0,16.7639,1.72222,25.3472,3,28.9444c2.70833,-6.29167,7.15278,-27.75,7.15278,-81.0278c0,-26.5417,1.26389,-48.4861,3.65278,-63.4722c3.125,-19.4583,7.16667,-22.0833,10.7083,-22.0833c7.97222,0,9.63889,18.2083,9.63889,33.4861l-6.94444,0c0,-13.875,-1.56944,-21.8472,-2.83333,-25.1806c-2.70833,5.68056,-7.27778,25.9444,-7.27778,77.2639c0,27.6944,-1.25,50.6389,-3.59722,66.375C975.75,313.778,971.722,316.542,968.167,316.542z"/>
    </g>
    <g>
     <path fill="#CCCCCC" d="M934.014,316.542c-6.51389,0,-9.80556,-12.625,-9.80556,-37.5139l6.94444,0c0,16.7639,1.72222,25.3472,3,28.9444c2.70833,-6.29167,7.15278,-27.75,7.15278,-81.0278c0,-26.5417,1.26389,-48.4861,3.65278,-63.4722c3.125,-19.4583,7.16667,-22.0833,10.7083,-22.0833c7.97222,0,9.63889,18.2083,9.63889,33.4861l-6.94444,0c0,-13.875,-1.56944,-21.8472,-2.83333,-25.1806c-2.70833,5.68056,-7.27778,25.9444,-7.27778,77.2639c0,27.6944,-1.25,50.6389,-3.59722,66.375C941.597,313.778,937.569,316.542,934.014,316.542z"/>
    </g>
    <g>
     <path fill="#CCCCCC" d="M903.514,316.542c-2.86111,0,-7.66667,0,-7.66667,-37.5139l6.94444,0c0,9.70833,0.402778,17.0694,0.944444,22.2639c1.63889,-11.0972,3.40278,-33.4306,3.40278,-74.3472c0,-26.5417,1.26389,-48.4861,3.65278,-63.4722c3.125,-19.4583,7.16667,-22.0833,10.7083,-22.0833c7.97222,0,9.63889,18.2083,9.63889,33.4861l-6.94444,0c0,-13.875,-1.56944,-21.8472,-2.83333,-25.1806c-2.70833,5.68056,-7.27778,25.9444,-7.27778,77.2639c0,27.6389,-0.819444,50.5417,-2.36111,66.2083C909.778,312.931,907.431,316.542,903.514,316.542z"/>
    </g>
    <g>
     <path fill="#CCCCCC" d="M905.056,316.542c-3.88889,0,-6.22222,-3.625,-8.13889,-23.4028c-1.52778,-15.6667,-2.33333,-38.5556,-2.33333,-66.2083c0,-26.4444,0.597222,-48.3056,1.72222,-63.1944c1.52778,-20.1667,3.375,-22.375,6.93056,-22.375c3,0,6.40278,0,6.40278,33.4861l-6.94444,0c0,-0.763889,0,-1.5,0,-2.22222c-0.680556,12.4167,-1.16667,30.0139,-1.16667,54.3056c0,40.3611,1.69444,62.6528,3.29167,73.8889c0.5,-5.15278,0.875,-12.375,0.875,-21.8056l6.94444,0C912.653,316.542,907.889,316.542,905.056,316.542z"/>
    </g>
    <g>
     <path fill="#CCCCCC" d="M1063.74,316.542c-2.80556,0,-7.5,0,-7.5,-37.5139l6.94444,0c0,9.41667,0.333333,16.2917,0.791667,21.1667c1.54167,-11.4444,3.13889,-33.6528,3.13889,-73.25c0,-22.8611,-0.333333,-39.7917,-0.819444,-52.0833l-5.47222,0c0,-33.4861,2.41667,-33.4861,5.75,-33.4861c3.63889,0,4.91667,1.73611,6.13889,22.4444c0.875,14.8611,1.33333,36.7083,1.33333,63.125c0,27.6389,-0.791667,50.5278,-2.27778,66.1944C1069.88,313.042,1067.67,316.542,1063.74,316.542z"/>
    </g>
    <rect width="898.056" y="0" fill="#FFFFFF" height="24.4028" fill-opacity="0.2"/>
    <rect width="898.056" y="457.792" height="12.2083" fill-opacity="0.2"/>
    <g>
     <g>
      <polygon fill="#B3B3B3" points="672.639,470,678.25,489.097,679.472,497.208,707.111,497.208,708.333,489.097,713.972,470"/>
      <polygon points="711.153,478.681,675.458,478.681,672.639,470,713.972,470" fill-opacity="0.2"/>
     </g>
     <g>
      <polygon fill="#B3B3B3" points="561.528,470,567.139,489.097,568.361,497.208,596,497.208,597.222,489.097,602.861,470"/>
      <polygon points="600.042,478.681,564.347,478.681,561.528,470,602.861,470" fill-opacity="0.2"/>
     </g>
     <g>
      <polygon fill="#B3B3B3" points="450.417,470,456.028,489.097,457.25,497.208,484.889,497.208,486.111,489.097,491.75,470"/>
      <polygon points="488.931,478.681,453.236,478.681,450.417,470,491.75,470" fill-opacity="0.2"/>
     </g>
     <g>
      <polygon fill="#B3B3B3" points="339.306,470,344.917,489.097,346.139,497.208,373.778,497.208,375,489.097,380.639,470"/>
      <polygon points="377.819,478.681,342.125,478.681,339.306,470,380.639,470" fill-opacity="0.2"/>
     </g>
     <g>
      <polygon fill="#B3B3B3" points="228.194,470,233.806,489.097,235.028,497.208,262.667,497.208,263.889,489.097,269.528,470"/>
      <polygon points="266.708,478.681,231.014,478.681,228.194,470,269.528,470" fill-opacity="0.2"/>
     </g>
     <g>
      <polygon fill="#B3B3B3" points="117.083,470,122.694,489.097,123.917,497.208,151.556,497.208,152.778,489.097,158.417,470"/>
      <polygon points="155.597,478.681,119.903,478.681,117.083,470,158.417,470" fill-opacity="0.2"/>
     </g>
    </g>
   </g>
  </g>
  <g transform="translate(406.12,734.05)">
   <rect width="31.93" x="0" y="0" fill="#8D8C8C" height="31.9" id="connector0pin"/>
   <rect width="16.4442" x="7.79153" y="7.73544" fill="#8C8663" height="16.4152"/>
   <polygon fill="#B8AF82" points="0,31.9,7.79153,24.1368,7.79153,6.97162,0,0"/>
   <polygon fill="#80795B" points="24.2079,7.76321,7.90264,7.76321,0,0,31.93,0"/>
   <polygon fill="#5E5B43" points="24.2079,24.1368,24.2079,7.76321,31.93,0,31.93,31.9"/>
   <polygon fill="#9A916C" points="0,31.9,7.87486,24.1368,24.2079,24.1368,31.93,31.9"/>
  </g>
  <g transform="translate(506.12,734.05)">
   <rect width="31.93" x="0" y="0" fill="#8D8C8C" height="31.9" id="connector1pin"/>
   <rect width="16.4442" x="7.79153" y="7.73544" fill="#8C8663" height="16.4152"/>
   <polygon fill="#B8AF82" points="0,31.9,7.79153,24.1368,7.79153,6.97162,0,0"/>
   <polygon fill="#80795B" points="24.2079,7.76321,7.90264,7.76321,0,0,31.93,0"/>
   <polygon fill="#5E5B43" points="24.2079,24.1368,24.2079,7.76321,31.93,0,31.93,31.9"/>
   <polygon fill="#9A916C" points="0,31.9,7.87486,24.1368,24.2079,24.1368,31.93,31.9"/>
  </g>
  <g transform="translate(506.12,34.05)">
   <rect width="31.93" x="0" y="0" fill="#8D8C8C" height="31.9" id="connector12pin"/>
   <rect width="16.4442" x="7.79153" y="7.73544" fill="#8C8663" height="16.4152"/>
   <polygon fill="#B8AF82" points="0,31.9,7.79153,24.1368,7.79153,6.97162,0,0"/>
   <polygon fill="#80795B" points="24.2079,7.76321,7.90264,7.76321,0,0,31.93,0"/>
   <polygon fill="#5E5B43" points="24.2079,24.1368,24.2079,7.76321,31.93,0,31.93,31.9"/>
   <polygon fill="#9A916C" points="0,31.9,7.87486,24.1368,24.2079,24.1368,31.93,31.9"/>
  </g>
  <g transform="translate(606.12,734.05)">
   <rect width="31.93" x="0" y="0" fill="#8D8C8C" height="31.9" id="connector2pin"/>
   <rect width="16.4442" x="7.79153" y="7.73544" fill="#8C8663" height="16.4152"/>
   <polygon fill="#B8AF82" points="0,31.9,7.79153,24.1368,7.79153,6.97162,0,0"/>
   <polygon fill="#80795B" points="24.2079,7.76321,7.90264,7.76321,0,0,31.93,0"/>
   <polygon fill="#5E5B43" points="24.2079,24.1368,24.2079,7.76321,31.93,0,31.93,31.9"/>
   <polygon fill="#9A916C" points="0,31.9,7.87486,24.1368,24.2079,24.1368,31.93,31.9"/>
  </g>
  <g transform="translate(606.12,34.05)">
   <rect width="31.93" x="0" y="0" fill="#8D8C8C" height="31.9" id="connector11pin"/>
   <rect width="16.4442" x="7.79153" y="7.73544" fill="#8C8663" height="16.4152"/>
   <polygon fill="#B8AF82" points="0,31.9,7.79153,24.1368,7.79153,6.97162,0,0"/>
   <polygon fill="#80795B" points="24.2079,7.76321,7.90264,7.76321,0,0,31.93,0"/>
   <polygon fill="#5E5B43" points="24.2079,24.1368,24.2079,7.76321,31.93,0,31.93,31.9"/>
   <polygon fill="#9A916C" points="0,31.9,7.87486,24.1368,24.2079,24.1368,31.93,31.9"/>
  </g>
  <g transform="translate(706.12,734.05)">
   <rect width="31.93" x="0" y="0" fill="#8D8C8C" height="31.9" id="connector3pin"/>
   <rect width="16.4442" x="7.79153" y="7.73544" fill="#8C8663" height="16.4152"/>
   <polygon fill="#B8AF82" points="0,31.9,7.79153,24.1368,7.79153,6.97162,0,0"/>
   <polygon fill="#80795B" points="24.2079,7.76321,7.90264,7.76321,0,0,31.93,0"/>
   <polygon fill="#5E5B43" points="24.2079,24.1368,24.2079,7.76321,31.93,0,31.93,31.9"/>
   <polygon fill="#9A916C" points="0,31.9,7.87486,24.1368,24.2079,24.1368,31.93,31.9"/>
  </g>
  <g transform="translate(706.12,34.05)">
   <rect width="31.93" x="0" y="0" fill="#8D8C8C" height="31.9" id="connector10pin"/>
   <rect width="16.4442" x="7.79153" y="7.73544" fill="#8C8663" height="16.4152"/>
   <polygon fill="#B8AF82" points="0,31.9,7.79153,24.1368,7.79153,6.97162,0,0"/>
   <polygon fill="#80795B" points="24.2079,7.76321,7.90264,7.76321,0,0,31.93,0"/>
   <polygon fill="#5E5B43" points="24.2079,24.1368,24.2079,7.76321,31.93,0,31.93,31.9"/>
   <polygon fill="#9A916C" points="0,31.9,7.87486,24.1368,24.2079,24.1368,31.93,31.9"/>
  </g>
  <g transform="translate(806.12,734.05)">
   <rect width="31.93" x="0" y="0" fill="#8D8C8C" height="31.9" id="connector4pin"/>
   <rect width="16.4442" x="7.79153" y="7.73544" fill="#8C8663" height="16.4152"/>
   <polygon fill="#B8AF82" points="0,31.9,7.79153,24.1368,7.79153,6.97162,0,0"/>
   <polygon fill="#80795B" points="24.2079,7.76321,7.90264,7.76321,0,0,31.93,0"/>
   <polygon fill="#5E5B43" points="24.2079,24.1368,24.2079,7.76321,31.93,0,31.93,31.9"/>
   <polygon fill="#9A916C" points="0,31.9,7.87486,24.1368,24.2079,24.1368,31.93,31.9"/>
  </g>
  <g transform="translate(806.12,34.05)">
   <rect width="31.93" x="0" y="0" fill="#8D8C8C" height="31.9" id="connector9pin"/>
   <rect width="16.4442" x="7.79153" y="7.73544" fill="#8C8663" height="16.4152"/>
   <polygon fill="#B8AF82" points="0,31.9,7.79153,24.1368,7.79153,6.97162,0,0"/>
   <polygon fill="#80795B" points="24.2079,7.76321,7.90264,7.76321,0,0,31.93,0"/>
   <polygon fill="#5E5B43" points="24.2079,24.1368,24.2079,7.76321,31.93,0,31.93,31.9"/>
   <polygon fill="#9A916C" points="0,31.9,7.87486,24.1368,24.2079,24.1368,31.93,31.9"/>
  </g>
  <g transform="translate(906.12,734.05)">
   <rect width="31.93" x="0" y="0" fill="#8D8C8C" height="31.9" id="connector5pin"/>
   <rect width="16.4442" x="7.79153" y="7.73544" fill="#8C8663" height="16.4152"/>
   <polygon fill="#B8AF82" points="0,31.9,7.79153,24.1368,7.79153,6.97162,0,0"/>
   <polygon fill="#80795B" points="24.2079,7.76321,7.90264,7.76321,0,0,31.93,0"/>
   <polygon fill="#5E5B43" points="24.2079,24.1368,24.2079,7.76321,31.93,0,31.93,31.9"/>
   <polygon fill="#9A916C" points="0,31.9,7.87486,24.1368,24.2079,24.1368,31.93,31.9"/>
  </g>
  <g transform="translate(906.12,34.05)">
   <rect width="31.93" x="0" y="0" fill="#8D8C8C" height="31.9" id="connector8pin"/>
   <rect width="16.4442" x="7.79153" y="7.73544" fill="#8C8663" height="16.4152"/>
   <polygon fill="#B8AF82" points="0,31.9,7.79153,24.1368,7.79153,6.97162,0,0"/>
   <polygon fill="#80795B" points="24.2079,7.76321,7.90264,7.76321,0,0,31.93,0"/>
   <polygon fill="#5E5B43" points="24.2079,24.1368,24.2079,7.76321,31.93,0,31.93,31.9"/>
   <polygon fill="#9A916C" points="0,31.9,7.87486,24.1368,24.2079,24.1368,31.93,31.9"/>
  </g>
  <g transform="translate(1006.12,734.05)">
   <rect width="31.93" x="0" y="0" fill="#8D8C8C" height="31.9" id="connector6pin"/>
   <rect width="16.4442" x="7.79153" y="7.73544" fill="#8C8663" height="16.4152"/>
   <polygon fill="#B8AF82" points="0,31.9,7.79153,24.1368,7.79153,6.97162,0,0"/>
   <polygon fill="#80795B" points="24.2079,7.76321,7.90264,7.76321,0,0,31.93,0"/>
   <polygon fill="#5E5B43" points="24.2079,24.1368,24.2079,7.76321,31.93,0,31.93,31.9"/>
   <polygon fill="#9A916C" points="0,31.9,7.87486,24.1368,24.2079,24.1368,31.93,31.9"/>
  </g>
  <g transform="translate(1006.12,34.05)">
   <rect width="31.93" x="0" y="0" fill="#8D8C8C" height="31.9" id="connector7pin"/>
   <rect width="16.4442" x="7.79153" y="7.73544" fill="#8C8663" height="16.4152"/>
   <polygon fill="#B8AF82" points="0,31.9,7.79153,24.1368,7.79153,6.97162,0,0"/>
   <polygon fill="#80795B" points="24.2079,7.76321,7.90264,7.76321,0,0,31.93,0"/>
   <polygon fill="#5E5B43" points="24.2079,24.1368,24.2079,7.76321,31.93,0,31.93,31.9"/>
   <polygon fill="#9A916C" points="0,31.9,7.87486,24.1368,24.2079,24.1368,31.93,31.9"/>
  </g>
 </g>
</svg>
