<?xml version="1.0" encoding="utf-8"?>
<!-- Generator: Adobe Illustrator 16.0.0, SVG Export Plug-In . SVG Version: 6.00 Build 0)  -->
<!DOCTYPE svg PUBLIC "-//W3C//DTD SVG 1.1//EN" "http://www.w3.org/Graphics/SVG/1.1/DTD/svg11.dtd">
<svg version="1.1" id="Layer_1" xmlns:svg="http://www.w3.org/2000/svg"
	 xmlns="http://www.w3.org/2000/svg" xmlns:xlink="http://www.w3.org/1999/xlink" x="0px" y="0px" width="154.291px"
	 height="71.532px" viewBox="0 0 154.291 71.532" enable-background="new 0 0 154.291 71.532" xml:space="preserve">
<g id="breadboardbreadboard">
	<g>
		<rect id="connector20pin" x="89.539" y="59.403" fill="#8D8C8C" width="2.299" height="2.297"/>
		<rect id="connector19pin" x="24.738" y="10.138" fill="#8D8C8C" width="2.299" height="2.297"/>
		<rect id="connector21pin" x="89.539" y="66.603" fill="#8D8C8C" width="2.299" height="2.297"/>
		<rect id="connector18pin" x="24.739" y="2.938" fill="#8D8C8C" width="2.299" height="2.297"/>
		<rect id="connector22pin" x="82.339" y="59.403" fill="#8D8C8C" width="2.299" height="2.297"/>
		<rect id="connector17pin" x="31.938" y="10.138" fill="#8D8C8C" width="2.299" height="2.297"/>
		<rect id="connector23pin" x="82.341" y="66.604" fill="#8D8C8C" width="2.299" height="2.297"/>
		<rect id="connector16pin" x="31.938" y="2.938" fill="#8D8C8C" width="2.299" height="2.297"/>
		<rect id="connector24pin" x="75.14" y="59.403" fill="#8D8C8C" width="2.299" height="2.297"/>
		<rect id="connector15pin" x="39.14" y="10.138" fill="#8D8C8C" width="2.299" height="2.297"/>
		<rect id="connector25pin" x="75.14" y="66.602" fill="#8D8C8C" width="2.299" height="2.297"/>
		<rect id="connector14pin" x="39.138" y="2.937" fill="#8D8C8C" width="2.299" height="2.297"/>
		<rect id="connector26pin" x="67.939" y="59.403" fill="#8D8C8C" width="2.299" height="2.297"/>
		<rect id="connector13pin" x="46.339" y="10.138" fill="#8D8C8C" width="2.299" height="2.297"/>
		<rect id="connector27pin" x="67.938" y="66.602" fill="#8D8C8C" width="2.299" height="2.297"/>
		<rect id="connector12pin" x="46.339" y="2.938" fill="#8D8C8C" width="2.299" height="2.297"/>
		<rect id="connector28pin" x="60.739" y="59.401" fill="#8D8C8C" width="2.299" height="2.297"/>
		<rect id="connector11pin" x="53.54" y="10.138" fill="#8D8C8C" width="2.299" height="2.297"/>
		<rect id="connector29pin" x="60.74" y="66.604" fill="#8D8C8C" width="2.299" height="2.297"/>
		<rect id="connector10pin" x="53.539" y="2.938" fill="#8D8C8C" width="2.299" height="2.297"/>
		<rect id="connector30pin" x="53.54" y="59.403" fill="#8D8C8C" width="2.299" height="2.297"/>
		<rect id="connector9pin" x="60.74" y="10.138" fill="#8D8C8C" width="2.299" height="2.297"/>
		<rect id="connector31pin" x="53.54" y="66.604" fill="#8D8C8C" width="2.299" height="2.297"/>
		<rect id="connector8pin" x="60.74" y="2.938" fill="#8D8C8C" width="2.299" height="2.297"/>
		<rect id="connector32pin" x="46.357" y="59.401" fill="#8D8C8C" width="2.299" height="2.297"/>
		<rect id="connector7pin" x="67.939" y="10.138" fill="#8D8C8C" width="2.299" height="2.297"/>
		<rect id="connector33pin" x="46.357" y="66.602" fill="#8D8C8C" width="2.299" height="2.297"/>
		<rect id="connector6pin" x="67.938" y="2.938" fill="#8D8C8C" width="2.299" height="2.297"/>
		<rect id="connector34pin" x="39.138" y="59.401" fill="#8D8C8C" width="2.299" height="2.297"/>
		<rect id="connector5pin" x="75.14" y="10.138" fill="#8D8C8C" width="2.299" height="2.297"/>
		<rect id="connector35pin" x="39.138" y="66.602" fill="#8D8C8C" width="2.299" height="2.297"/>
		<rect id="connector4pin" x="75.14" y="2.937" fill="#8D8C8C" width="2.299" height="2.297"/>
		<rect id="connector36pin" x="31.938" y="59.401" fill="#8D8C8C" width="2.299" height="2.297"/>
		<rect id="connector3pin" x="82.341" y="10.138" fill="#8D8C8C" width="2.299" height="2.297"/>
		<rect id="connector37pin" x="31.938" y="66.606" fill="#8D8C8C" width="2.299" height="2.297"/>
		<rect id="connector2pin" x="82.341" y="2.938" fill="#8D8C8C" width="2.299" height="2.297"/>
		<rect id="connector38pin" x="24.739" y="59.401" fill="#8D8C8C" width="2.299" height="2.297"/>
		<rect id="connector1pin" x="89.541" y="10.138" fill="#8D8C8C" width="2.299" height="2.297"/>
		<rect id="connector39pin" x="24.738" y="66.606" fill="#8D8C8C" width="2.299" height="2.297"/>
		<rect id="connector0pin" x="89.541" y="2.938" fill="#8D8C8C" width="2.299" height="2.297"/>
	</g>
	<g id="breadboard">
		<g transform="translate(100,105.368)">
			<g id="breadboard1">
				<g>
					<path fill="#C62717" d="M-99.804-105.063v71.227H47.958v-71.227H-99.804z M-88.287-41.103c-2.348,0-4.252-1.904-4.252-4.252
						c0-2.35,1.904-4.252,4.252-4.252c2.349,0,4.252,1.902,4.252,4.252C-84.034-43.008-85.938-41.103-88.287-41.103z
						 M-88.287-89.293c-2.348,0-4.252-1.902-4.252-4.252c0-2.348,1.904-4.252,4.252-4.252c2.349,0,4.252,1.904,4.252,4.252
						C-84.034-91.195-85.938-89.293-88.287-89.293z M-72.667-37.613c-0.001,0.799-0.648,1.444-1.447,1.443
						c-0.798-0.001-1.445-0.647-1.444-1.446c0-0.8,0.647-1.445,1.446-1.445c0.798,0,1.445,0.646,1.445,1.445
						C-72.667-37.615-72.667-37.614-72.667-37.613z M-72.667-44.814c-0.001,0.799-0.648,1.444-1.447,1.443
						c-0.798-0.001-1.445-0.647-1.444-1.446c0-0.798,0.647-1.445,1.446-1.445c0.798,0,1.445,0.647,1.445,1.445
						C-72.667-44.815-72.667-44.815-72.667-44.814z M-72.667-94.08c-0.001,0.799-0.648,1.444-1.447,1.444
						c-0.798-0.001-1.445-0.649-1.444-1.447c0-0.799,0.647-1.445,1.446-1.445c0.798,0,1.445,0.646,1.445,1.445
						C-72.667-94.082-72.667-94.081-72.667-94.08z M-72.667-101.279c-0.001,0.799-0.648,1.444-1.447,1.443
						c-0.798-0.001-1.445-0.647-1.444-1.446c0-0.8,0.647-1.445,1.446-1.445c0.798,0,1.445,0.646,1.445,1.445
						C-72.667-101.281-72.667-101.28-72.667-101.279z M-66.914-36.172c-0.798,0-1.445-0.646-1.445-1.445
						c0-0.799,0.647-1.444,1.445-1.444c0.799,0,1.446,0.646,1.446,1.444C-65.467-36.817-66.114-36.172-66.914-36.172z
						 M-66.914-43.371c-0.798,0-1.445-0.646-1.445-1.445c0-0.798,0.647-1.445,1.445-1.445c0.799,0,1.446,0.647,1.446,1.445
						C-65.466-44.018-66.114-43.371-66.914-43.371z M-66.914-92.637c-0.798,0-1.445-0.647-1.445-1.445
						c0-0.799,0.647-1.445,1.445-1.445c0.799,0,1.446,0.646,1.446,1.445C-65.466-93.285-66.114-92.637-66.914-92.637z
						 M-66.914-99.838c-0.798,0-1.445-0.646-1.445-1.444c0-0.8,0.647-1.445,1.445-1.445c0.799,0,1.446,0.646,1.446,1.445
						C-65.467-100.483-66.114-99.838-66.914-99.838z M-58.267-37.613c-0.001,0.799-0.649,1.444-1.447,1.443
						c-0.799-0.001-1.445-0.647-1.444-1.446c0-0.8,0.647-1.445,1.445-1.445c0.799,0,1.446,0.646,1.446,1.445
						C-58.267-37.615-58.267-37.614-58.267-37.613z M-58.267-44.814c-0.001,0.799-0.649,1.444-1.447,1.443
						c-0.799-0.001-1.445-0.647-1.444-1.446c0-0.798,0.647-1.445,1.445-1.445c0.799,0,1.446,0.647,1.446,1.445
						C-58.267-44.815-58.267-44.815-58.267-44.814z M-58.267-94.08c-0.001,0.799-0.649,1.444-1.447,1.444
						c-0.799-0.001-1.445-0.649-1.444-1.447c0-0.799,0.647-1.445,1.445-1.445c0.799,0,1.446,0.646,1.446,1.445
						C-58.267-94.082-58.267-94.081-58.267-94.08z M-58.267-101.279c-0.001,0.799-0.649,1.444-1.447,1.443
						c-0.799-0.001-1.445-0.647-1.444-1.446c0-0.8,0.647-1.445,1.445-1.445c0.799,0,1.446,0.646,1.446,1.445
						C-58.267-101.281-58.267-101.28-58.267-101.279z M-52.512-36.172c-0.799,0-1.445-0.646-1.445-1.445
						c0-0.799,0.646-1.444,1.445-1.444c0.799,0,1.445,0.646,1.445,1.444C-51.067-36.817-51.713-36.172-52.512-36.172z
						 M-52.512-43.371c-0.799,0-1.445-0.646-1.445-1.445c0-0.798,0.646-1.445,1.445-1.445c0.799,0,1.445,0.647,1.445,1.445
						C-51.067-44.018-51.713-43.371-52.512-43.371z M-52.512-92.637c-0.799,0-1.445-0.647-1.445-1.445
						c0-0.799,0.646-1.445,1.445-1.445c0.799,0,1.445,0.646,1.445,1.445C-51.067-93.285-51.713-92.637-52.512-92.637z
						 M-52.512-99.838c-0.799,0-1.445-0.646-1.445-1.444c0-0.8,0.646-1.445,1.445-1.445c0.799,0,1.445,0.646,1.445,1.445
						C-51.067-100.483-51.713-99.838-52.512-99.838z M-45.313-36.172c-0.799,0-1.446-0.646-1.446-1.445
						c0-0.799,0.647-1.444,1.446-1.444c0.798,0,1.445,0.646,1.445,1.444C-43.867-36.817-44.514-36.172-45.313-36.172z
						 M-45.313-43.371c-0.799,0-1.446-0.646-1.446-1.445c0-0.798,0.647-1.445,1.446-1.445c0.798,0,1.445,0.647,1.445,1.445
						C-43.867-44.018-44.514-43.371-45.313-43.371z M-45.313-92.637c-0.799,0-1.446-0.647-1.446-1.445
						c0-0.799,0.647-1.445,1.446-1.445c0.798,0,1.445,0.646,1.445,1.445C-43.867-93.285-44.514-92.637-45.313-92.637z
						 M-45.313-99.838c-0.799,0-1.446-0.646-1.446-1.444c0-0.8,0.647-1.445,1.446-1.445c0.798,0,1.445,0.646,1.445,1.445
						C-43.867-100.483-44.514-99.838-45.313-99.838z M-38.112-36.172c-0.799,0-1.446-0.646-1.446-1.445
						c0-0.799,0.647-1.444,1.446-1.444c0.798,0,1.445,0.646,1.445,1.444C-36.667-36.817-37.314-36.172-38.112-36.172z
						 M-38.112-43.371c-0.799,0-1.446-0.646-1.446-1.445c0-0.798,0.647-1.445,1.446-1.445c0.798,0,1.445,0.647,1.445,1.445
						C-36.667-44.018-37.314-43.371-38.112-43.371z M-38.112-92.637c-0.799,0-1.446-0.647-1.446-1.445
						c0-0.799,0.647-1.445,1.446-1.445c0.798,0,1.445,0.646,1.445,1.445C-36.667-93.285-37.314-92.637-38.112-92.637z
						 M-38.112-99.838c-0.799,0-1.446-0.646-1.446-1.444c0-0.8,0.647-1.445,1.446-1.445c0.798,0,1.445,0.646,1.445,1.445
						C-36.667-100.483-37.314-99.838-38.112-99.838z M-30.914-36.172c-0.798,0-1.445-0.646-1.445-1.445
						c0-0.799,0.647-1.444,1.445-1.444c0.799,0,1.446,0.646,1.446,1.444C-29.467-36.817-30.114-36.172-30.914-36.172z
						 M-30.914-43.371c-0.798,0-1.445-0.646-1.445-1.445c0-0.798,0.647-1.445,1.445-1.445c0.799,0,1.446,0.647,1.446,1.445
						C-29.466-44.018-30.114-43.371-30.914-43.371z M-30.914-92.637c-0.798,0-1.445-0.647-1.445-1.445
						c0-0.799,0.647-1.445,1.445-1.445c0.799,0,1.446,0.646,1.446,1.445C-29.466-93.285-30.114-92.637-30.914-92.637z
						 M-30.914-99.838c-0.798,0-1.445-0.646-1.445-1.444c0-0.8,0.647-1.445,1.445-1.445c0.799,0,1.446,0.646,1.446,1.445
						C-29.467-100.483-30.114-99.838-30.914-99.838z M-23.713-36.172c-0.798,0-1.445-0.646-1.445-1.445
						c0-0.799,0.647-1.444,1.445-1.444c0.799,0,1.445,0.646,1.445,1.444C-22.268-36.817-22.914-36.172-23.713-36.172z
						 M-23.713-43.371c-0.798,0-1.445-0.646-1.445-1.445c0-0.798,0.647-1.445,1.445-1.445c0.799,0,1.445,0.647,1.445,1.445
						C-22.268-44.018-22.914-43.371-23.713-43.371z M-23.713-92.637c-0.798,0-1.445-0.647-1.445-1.445
						c0-0.799,0.647-1.445,1.445-1.445c0.799,0,1.445,0.646,1.445,1.445C-22.268-93.285-22.914-92.637-23.713-92.637z
						 M-23.713-99.838c-0.798,0-1.445-0.646-1.445-1.444c0-0.8,0.647-1.445,1.445-1.445c0.799,0,1.445,0.646,1.445,1.445
						C-22.268-100.483-22.914-99.838-23.713-99.838z M-16.513-36.172c-0.799,0-1.445-0.646-1.445-1.445
						c0-0.799,0.646-1.444,1.445-1.444c0.798,0,1.446,0.646,1.446,1.444C-15.067-36.817-15.714-36.172-16.513-36.172z
						 M-16.513-43.371c-0.799,0-1.445-0.646-1.445-1.445c0-0.798,0.646-1.445,1.445-1.445c0.798,0,1.446,0.647,1.446,1.445
						C-15.067-44.018-15.714-43.371-16.513-43.371z M-16.513-92.637c-0.799,0-1.445-0.647-1.445-1.445
						c0-0.799,0.646-1.445,1.445-1.445c0.798,0,1.446,0.646,1.446,1.445C-15.067-93.285-15.714-92.637-16.513-92.637z
						 M-16.513-99.838c-0.799,0-1.445-0.646-1.445-1.444c0-0.8,0.646-1.445,1.445-1.445c0.798,0,1.446,0.646,1.446,1.445
						C-15.067-100.483-15.714-99.838-16.513-99.838z M-7.868-37.611c0,0.799-0.648,1.443-1.447,1.442s-1.445-0.648-1.443-1.448
						c0-0.799,0.646-1.444,1.445-1.444s1.445,0.646,1.445,1.444C-7.868-37.614-7.868-37.613-7.868-37.611z M-7.868-44.812
						c0,0.799-0.648,1.443-1.447,1.442s-1.445-0.648-1.443-1.447c0-0.799,0.646-1.445,1.445-1.445s1.445,0.646,1.445,1.445
						C-7.868-44.815-7.868-44.813-7.868-44.812z M-7.868-94.078c0,0.799-0.648,1.444-1.447,1.443
						c-0.799-0.002-1.445-0.65-1.443-1.448c0-0.799,0.646-1.445,1.445-1.445s1.445,0.646,1.445,1.445
						C-7.868-94.082-7.868-94.08-7.868-94.078z M-7.868-101.277c0,0.799-0.648,1.443-1.447,1.442s-1.445-0.648-1.443-1.447
						c0-0.8,0.646-1.445,1.445-1.445s1.445,0.646,1.445,1.445C-7.868-101.28-7.868-101.279-7.868-101.277z"/>
				</g>
			</g>
			<g>
				<g>
					<g>
						<g>
							<polygon fill="#404040" points="-11.348,-97.681 -12.913,-96.118 -12.913,-92.045 -11.348,-90.482 -7.276,-90.482 
								-5.709,-92.045 -5.709,-96.118 -7.276,-97.681 							"/>
						</g>
						<g>
							<rect x="-10.459" y="-95.232" fill="#8D8C8C" width="2.297" height="2.3"/>
						</g>
						<g>
							<rect x="-9.903" y="-94.674" fill="#8C8663" width="1.184" height="1.185"/>
						</g>
						<g>
							<polygon fill="#B8AF82" points="-10.459,-95.232 -9.903,-94.674 -8.721,-94.674 -8.165,-95.232 							"/>
						</g>
						<g>
							<polygon fill="#80795B" points="-8.721,-93.492 -8.721,-94.674 -8.165,-95.232 -8.165,-92.932 							"/>
						</g>
						<g>
							<polygon fill="#5E5B43" points="-9.903,-93.492 -8.721,-93.492 -8.165,-92.932 -10.459,-92.932 							"/>
						</g>
						<g>
							<polygon fill="#9A916C" points="-10.459,-95.232 -9.903,-94.674 -9.903,-93.492 -10.459,-92.932 							"/>
						</g>
					</g>
					<g>
						<g>
							<polygon fill="#404040" points="-18.548,-97.681 -20.112,-96.118 -20.112,-92.045 -18.548,-90.482 -14.477,-90.482 
								-12.911,-92.045 -12.911,-96.118 -14.477,-97.681 							"/>
						</g>
						<g>
							<rect x="-17.659" y="-95.232" fill="#8D8C8C" width="2.297" height="2.3"/>
						</g>
						<g>
							<rect x="-17.103" y="-94.674" fill="#8C8663" width="1.184" height="1.185"/>
						</g>
						<g>
							<polygon fill="#B8AF82" points="-17.659,-95.232 -17.103,-94.674 -15.921,-94.674 -15.364,-95.232 							"/>
						</g>
						<g>
							<polygon fill="#80795B" points="-15.921,-93.492 -15.921,-94.674 -15.364,-95.232 -15.364,-92.932 							"/>
						</g>
						<g>
							<polygon fill="#5E5B43" points="-17.103,-93.492 -15.921,-93.492 -15.364,-92.932 -17.659,-92.932 							"/>
						</g>
						<g>
							<polygon fill="#9A916C" points="-17.659,-95.232 -17.103,-94.674 -17.103,-93.492 -17.659,-92.932 							"/>
						</g>
					</g>
					<g>
						<g>
							<polygon fill="#404040" points="-25.748,-97.681 -27.313,-96.118 -27.313,-92.045 -25.748,-90.482 -21.677,-90.482 
								-20.111,-92.045 -20.111,-96.118 -21.677,-97.681 							"/>
						</g>
						<g>
							<rect x="-24.859" y="-95.232" fill="#8D8C8C" width="2.297" height="2.3"/>
						</g>
						<g>
							<rect x="-24.302" y="-94.674" fill="#8C8663" width="1.183" height="1.185"/>
						</g>
						<g>
							<polygon fill="#B8AF82" points="-24.859,-95.232 -24.302,-94.674 -23.122,-94.674 -22.564,-95.232 							"/>
						</g>
						<g>
							<polygon fill="#80795B" points="-23.122,-93.492 -23.122,-94.674 -22.564,-95.232 -22.564,-92.932 							"/>
						</g>
						<g>
							<polygon fill="#5E5B43" points="-24.302,-93.492 -23.122,-93.492 -22.564,-92.932 -24.859,-92.932 							"/>
						</g>
						<g>
							<polygon fill="#9A916C" points="-24.859,-95.232 -24.302,-94.674 -24.302,-93.492 -24.859,-92.932 							"/>
						</g>
					</g>
					<g>
						<g>
							<polygon fill="#404040" points="-32.948,-97.681 -34.512,-96.118 -34.512,-92.045 -32.948,-90.482 -28.876,-90.482 
								-27.311,-92.045 -27.311,-96.118 -28.876,-97.681 							"/>
						</g>
						<g>
							<rect x="-32.06" y="-95.232" fill="#8D8C8C" width="2.297" height="2.3"/>
						</g>
						<g>
							<rect x="-31.502" y="-94.674" fill="#8C8663" width="1.183" height="1.185"/>
						</g>
						<g>
							<polygon fill="#B8AF82" points="-32.06,-95.232 -31.502,-94.674 -30.321,-94.674 -29.764,-95.232 							"/>
						</g>
						<g>
							<polygon fill="#80795B" points="-30.321,-93.492 -30.321,-94.674 -29.764,-95.232 -29.764,-92.932 							"/>
						</g>
						<g>
							<polygon fill="#5E5B43" points="-31.502,-93.492 -30.321,-93.492 -29.764,-92.932 -32.06,-92.932 							"/>
						</g>
						<g>
							<polygon fill="#9A916C" points="-32.06,-95.232 -31.502,-94.674 -31.502,-93.492 -32.06,-92.932 							"/>
						</g>
					</g>
					<g>
						<g>
							<polygon fill="#404040" points="-40.148,-97.681 -41.712,-96.118 -41.712,-92.045 -40.148,-90.482 -36.076,-90.482 
								-34.511,-92.045 -34.511,-96.118 -36.076,-97.681 							"/>
						</g>
						<g>
							<rect x="-39.259" y="-95.232" fill="#8D8C8C" width="2.297" height="2.3"/>
						</g>
						<g>
							<rect x="-38.702" y="-94.674" fill="#8C8663" width="1.183" height="1.185"/>
						</g>
						<g>
							<polygon fill="#B8AF82" points="-39.259,-95.232 -38.702,-94.674 -37.522,-94.674 -36.964,-95.232 							"/>
						</g>
						<g>
							<polygon fill="#80795B" points="-37.522,-93.492 -37.522,-94.674 -36.964,-95.232 -36.964,-92.932 							"/>
						</g>
						<g>
							<polygon fill="#5E5B43" points="-38.702,-93.492 -37.522,-93.492 -36.964,-92.932 -39.259,-92.932 							"/>
						</g>
						<g>
							<polygon fill="#9A916C" points="-39.259,-95.232 -38.702,-94.674 -38.702,-93.492 -39.259,-92.932 							"/>
						</g>
					</g>
					<g>
						<g>
							<polygon fill="#404040" points="-47.35,-97.681 -48.913,-96.118 -48.913,-92.045 -47.35,-90.482 -43.276,-90.482 
								-41.711,-92.045 -41.711,-96.118 -43.276,-97.681 							"/>
						</g>
						<g>
							<rect x="-46.459" y="-95.232" fill="#8D8C8C" width="2.297" height="2.3"/>
						</g>
						<g>
							<rect x="-45.902" y="-94.674" fill="#8C8663" width="1.183" height="1.185"/>
						</g>
						<g>
							<polygon fill="#B8AF82" points="-46.459,-95.232 -45.902,-94.674 -44.722,-94.674 -44.165,-95.232 							"/>
						</g>
						<g>
							<polygon fill="#80795B" points="-44.722,-93.492 -44.722,-94.674 -44.165,-95.232 -44.165,-92.932 							"/>
						</g>
						<g>
							<polygon fill="#5E5B43" points="-45.902,-93.492 -44.722,-93.492 -44.165,-92.932 -46.459,-92.932 							"/>
						</g>
						<g>
							<polygon fill="#9A916C" points="-46.459,-95.232 -45.902,-94.674 -45.902,-93.492 -46.459,-92.932 							"/>
						</g>
					</g>
					<g>
						<g>
							<polygon fill="#404040" points="-54.549,-97.681 -56.112,-96.118 -56.112,-92.045 -54.549,-90.482 -50.478,-90.482 
								-48.912,-92.045 -48.912,-96.118 -50.478,-97.681 							"/>
						</g>
						<g>
							<rect x="-53.659" y="-95.232" fill="#8D8C8C" width="2.297" height="2.3"/>
						</g>
						<g>
							<rect x="-53.104" y="-94.674" fill="#8C8663" width="1.183" height="1.185"/>
						</g>
						<g>
							<polygon fill="#B8AF82" points="-53.659,-95.232 -53.104,-94.674 -51.922,-94.674 -51.364,-95.232 							"/>
						</g>
						<g>
							<polygon fill="#80795B" points="-51.922,-93.492 -51.922,-94.674 -51.364,-95.232 -51.364,-92.932 							"/>
						</g>
						<g>
							<polygon fill="#5E5B43" points="-53.104,-93.492 -51.922,-93.492 -51.364,-92.932 -53.659,-92.932 							"/>
						</g>
						<g>
							<polygon fill="#9A916C" points="-53.659,-95.232 -53.104,-94.674 -53.104,-93.492 -53.659,-92.932 							"/>
						</g>
					</g>
					<g>
						<g>
							<polygon fill="#404040" points="-61.75,-97.681 -63.313,-96.118 -63.313,-92.045 -61.75,-90.482 -57.677,-90.482 
								-56.111,-92.045 -56.111,-96.118 -57.677,-97.681 							"/>
						</g>
						<g>
							<rect x="-60.859" y="-95.232" fill="#8D8C8C" width="2.297" height="2.3"/>
						</g>
						<g>
							<rect x="-60.303" y="-94.674" fill="#8C8663" width="1.183" height="1.185"/>
						</g>
						<g>
							<polygon fill="#B8AF82" points="-60.859,-95.232 -60.303,-94.674 -59.123,-94.674 -58.564,-95.232 							"/>
						</g>
						<g>
							<polygon fill="#80795B" points="-59.123,-93.492 -59.123,-94.674 -58.564,-95.232 -58.564,-92.932 							"/>
						</g>
						<g>
							<polygon fill="#5E5B43" points="-60.303,-93.492 -59.123,-93.492 -58.564,-92.932 -60.859,-92.932 							"/>
						</g>
						<g>
							<polygon fill="#9A916C" points="-60.859,-95.232 -60.303,-94.674 -60.303,-93.492 -60.859,-92.932 							"/>
						</g>
					</g>
					<g>
						<g>
							<polygon fill="#404040" points="-68.949,-97.681 -70.514,-96.118 -70.514,-92.045 -68.949,-90.482 -64.877,-90.482 
								-63.313,-92.045 -63.313,-96.118 -64.877,-97.681 							"/>
						</g>
						<g>
							<rect x="-68.061" y="-95.232" fill="#8D8C8C" width="2.297" height="2.3"/>
						</g>
						<g>
							<rect x="-67.503" y="-94.674" fill="#8C8663" width="1.183" height="1.185"/>
						</g>
						<g>
							<polygon fill="#B8AF82" points="-68.061,-95.232 -67.503,-94.674 -66.322,-94.674 -65.766,-95.232 							"/>
						</g>
						<g>
							<polygon fill="#80795B" points="-66.322,-93.492 -66.322,-94.674 -65.766,-95.232 -65.766,-92.932 							"/>
						</g>
						<g>
							<polygon fill="#5E5B43" points="-67.503,-93.492 -66.322,-93.492 -65.766,-92.932 -68.061,-92.932 							"/>
						</g>
						<g>
							<polygon fill="#9A916C" points="-68.061,-95.232 -67.503,-94.674 -67.503,-93.492 -68.061,-92.932 							"/>
						</g>
					</g>
					<g>
						<g>
							<polygon fill="#404040" points="-76.149,-97.681 -77.713,-96.118 -77.713,-92.045 -76.149,-90.482 -72.078,-90.482 
								-70.512,-92.045 -70.512,-96.118 -72.078,-97.681 							"/>
						</g>
						<g>
							<rect x="-75.26" y="-95.232" fill="#8D8C8C" width="2.297" height="2.3"/>
						</g>
						<g>
							<rect x="-74.704" y="-94.674" fill="#8C8663" width="1.183" height="1.185"/>
						</g>
						<g>
							<polygon fill="#B8AF82" points="-75.26,-95.232 -74.704,-94.674 -73.523,-94.674 -72.965,-95.232 							"/>
						</g>
						<g>
							<polygon fill="#80795B" points="-73.523,-93.492 -73.523,-94.674 -72.965,-95.232 -72.965,-92.932 							"/>
						</g>
						<g>
							<polygon fill="#5E5B43" points="-74.704,-93.492 -73.523,-93.492 -72.965,-92.932 -75.26,-92.932 							"/>
						</g>
						<g>
							<polygon fill="#9A916C" points="-75.26,-95.232 -74.704,-94.674 -74.704,-93.492 -75.26,-92.932 							"/>
						</g>
					</g>
				</g>
				<g>
					<g>
						<g>
							<polygon fill="#404040" points="-11.348,-104.882 -12.913,-103.317 -12.913,-99.245 -11.348,-97.682 -7.276,-97.682 
								-5.709,-99.245 -5.709,-103.317 -7.276,-104.882 							"/>
						</g>
						<g>
							<rect x="-10.459" y="-102.432" fill="#8D8C8C" width="2.297" height="2.3"/>
						</g>
						<g>
							<rect x="-9.903" y="-101.874" fill="#8C8663" width="1.184" height="1.185"/>
						</g>
						<g>
							<polygon fill="#B8AF82" points="-10.459,-102.432 -9.903,-101.874 -8.721,-101.874 -8.165,-102.432 							"/>
						</g>
						<g>
							<polygon fill="#80795B" points="-8.721,-100.691 -8.721,-101.874 -8.165,-102.432 -8.165,-100.133 							"/>
						</g>
						<g>
							<polygon fill="#5E5B43" points="-9.903,-100.691 -8.721,-100.691 -8.165,-100.133 -10.459,-100.133 							"/>
						</g>
						<g>
							<polygon fill="#9A916C" points="-10.459,-102.432 -9.903,-101.874 -9.903,-100.691 -10.459,-100.133 							"/>
						</g>
					</g>
					<g>
						<g>
							<polygon fill="#404040" points="-18.548,-104.882 -20.112,-103.317 -20.112,-99.245 -18.548,-97.682 -14.477,-97.682 
								-12.911,-99.245 -12.911,-103.317 -14.477,-104.882 							"/>
						</g>
						<g>
							<rect x="-17.659" y="-102.432" fill="#8D8C8C" width="2.297" height="2.3"/>
						</g>
						<g>
							<rect x="-17.103" y="-101.874" fill="#8C8663" width="1.184" height="1.185"/>
						</g>
						<g>
							<polygon fill="#B8AF82" points="-17.659,-102.432 -17.103,-101.874 -15.921,-101.874 -15.364,-102.432 							"/>
						</g>
						<g>
							<polygon fill="#80795B" points="-15.921,-100.691 -15.921,-101.874 -15.364,-102.432 -15.364,-100.133 							"/>
						</g>
						<g>
							<polygon fill="#5E5B43" points="-17.103,-100.691 -15.921,-100.691 -15.364,-100.133 -17.659,-100.133 							"/>
						</g>
						<g>
							<polygon fill="#9A916C" points="-17.659,-102.432 -17.103,-101.874 -17.103,-100.691 -17.659,-100.133 							"/>
						</g>
					</g>
					<g>
						<g>
							<polygon fill="#404040" points="-25.748,-104.882 -27.313,-103.317 -27.313,-99.245 -25.748,-97.682 -21.677,-97.682 
								-20.111,-99.245 -20.111,-103.317 -21.677,-104.882 							"/>
						</g>
						<g>
							<rect x="-24.859" y="-102.432" fill="#8D8C8C" width="2.297" height="2.3"/>
						</g>
						<g>
							<rect x="-24.302" y="-101.874" fill="#8C8663" width="1.183" height="1.185"/>
						</g>
						<g>
							<polygon fill="#B8AF82" points="-24.859,-102.432 -24.302,-101.874 -23.122,-101.874 -22.564,-102.432 							"/>
						</g>
						<g>
							<polygon fill="#80795B" points="-23.122,-100.691 -23.122,-101.874 -22.564,-102.432 -22.564,-100.133 							"/>
						</g>
						<g>
							<polygon fill="#5E5B43" points="-24.302,-100.691 -23.122,-100.691 -22.564,-100.133 -24.859,-100.133 							"/>
						</g>
						<g>
							<polygon fill="#9A916C" points="-24.859,-102.432 -24.302,-101.874 -24.302,-100.691 -24.859,-100.133 							"/>
						</g>
					</g>
					<g>
						<g>
							<polygon fill="#404040" points="-32.948,-104.882 -34.512,-103.317 -34.512,-99.245 -32.948,-97.682 -28.876,-97.682 
								-27.311,-99.245 -27.311,-103.317 -28.876,-104.882 							"/>
						</g>
						<g>
							<rect x="-32.06" y="-102.432" fill="#8D8C8C" width="2.297" height="2.3"/>
						</g>
						<g>
							<rect x="-31.502" y="-101.874" fill="#8C8663" width="1.183" height="1.185"/>
						</g>
						<g>
							<polygon fill="#B8AF82" points="-32.06,-102.432 -31.502,-101.874 -30.321,-101.874 -29.764,-102.432 							"/>
						</g>
						<g>
							<polygon fill="#80795B" points="-30.321,-100.691 -30.321,-101.874 -29.764,-102.432 -29.764,-100.133 							"/>
						</g>
						<g>
							<polygon fill="#5E5B43" points="-31.502,-100.691 -30.321,-100.691 -29.764,-100.133 -32.06,-100.133 							"/>
						</g>
						<g>
							<polygon fill="#9A916C" points="-32.06,-102.432 -31.502,-101.874 -31.502,-100.691 -32.06,-100.133 							"/>
						</g>
					</g>
					<g>
						<g>
							<polygon fill="#404040" points="-40.148,-104.882 -41.712,-103.317 -41.712,-99.245 -40.148,-97.682 -36.076,-97.682 
								-34.511,-99.245 -34.511,-103.317 -36.076,-104.882 							"/>
						</g>
						<g>
							<rect x="-39.259" y="-102.432" fill="#8D8C8C" width="2.297" height="2.3"/>
						</g>
						<g>
							<rect x="-38.702" y="-101.874" fill="#8C8663" width="1.183" height="1.185"/>
						</g>
						<g>
							<polygon fill="#B8AF82" points="-39.259,-102.432 -38.702,-101.874 -37.522,-101.874 -36.964,-102.432 							"/>
						</g>
						<g>
							<polygon fill="#80795B" points="-37.522,-100.691 -37.522,-101.874 -36.964,-102.432 -36.964,-100.133 							"/>
						</g>
						<g>
							<polygon fill="#5E5B43" points="-38.702,-100.691 -37.522,-100.691 -36.964,-100.133 -39.259,-100.133 							"/>
						</g>
						<g>
							<polygon fill="#9A916C" points="-39.259,-102.432 -38.702,-101.874 -38.702,-100.691 -39.259,-100.133 							"/>
						</g>
					</g>
					<g>
						<g>
							<polygon fill="#404040" points="-47.35,-104.882 -48.913,-103.317 -48.913,-99.245 -47.35,-97.682 -43.276,-97.682 
								-41.711,-99.245 -41.711,-103.317 -43.276,-104.882 							"/>
						</g>
						<g>
							<rect x="-46.459" y="-102.432" fill="#8D8C8C" width="2.297" height="2.3"/>
						</g>
						<g>
							<rect x="-45.902" y="-101.874" fill="#8C8663" width="1.183" height="1.185"/>
						</g>
						<g>
							<polygon fill="#B8AF82" points="-46.459,-102.432 -45.902,-101.874 -44.722,-101.874 -44.165,-102.432 							"/>
						</g>
						<g>
							<polygon fill="#80795B" points="-44.722,-100.691 -44.722,-101.874 -44.165,-102.432 -44.165,-100.133 							"/>
						</g>
						<g>
							<polygon fill="#5E5B43" points="-45.902,-100.691 -44.722,-100.691 -44.165,-100.133 -46.459,-100.133 							"/>
						</g>
						<g>
							<polygon fill="#9A916C" points="-46.459,-102.432 -45.902,-101.874 -45.902,-100.691 -46.459,-100.133 							"/>
						</g>
					</g>
					<g>
						<g>
							<polygon fill="#404040" points="-54.549,-104.882 -56.112,-103.317 -56.112,-99.245 -54.549,-97.682 -50.478,-97.682 
								-48.912,-99.245 -48.912,-103.317 -50.478,-104.882 							"/>
						</g>
						<g>
							<rect x="-53.659" y="-102.432" fill="#8D8C8C" width="2.297" height="2.3"/>
						</g>
						<g>
							<rect x="-53.104" y="-101.874" fill="#8C8663" width="1.183" height="1.185"/>
						</g>
						<g>
							<polygon fill="#B8AF82" points="-53.659,-102.432 -53.104,-101.874 -51.922,-101.874 -51.364,-102.432 							"/>
						</g>
						<g>
							<polygon fill="#80795B" points="-51.922,-100.691 -51.922,-101.874 -51.364,-102.432 -51.364,-100.133 							"/>
						</g>
						<g>
							<polygon fill="#5E5B43" points="-53.104,-100.691 -51.922,-100.691 -51.364,-100.133 -53.659,-100.133 							"/>
						</g>
						<g>
							<polygon fill="#9A916C" points="-53.659,-102.432 -53.104,-101.874 -53.104,-100.691 -53.659,-100.133 							"/>
						</g>
					</g>
					<g>
						<g>
							<polygon fill="#404040" points="-61.75,-104.882 -63.313,-103.317 -63.313,-99.245 -61.75,-97.682 -57.677,-97.682 
								-56.111,-99.245 -56.111,-103.317 -57.677,-104.882 							"/>
						</g>
						<g>
							<rect x="-60.859" y="-102.432" fill="#8D8C8C" width="2.297" height="2.3"/>
						</g>
						<g>
							<rect x="-60.303" y="-101.874" fill="#8C8663" width="1.183" height="1.185"/>
						</g>
						<g>
							<polygon fill="#B8AF82" points="-60.859,-102.432 -60.303,-101.874 -59.123,-101.874 -58.564,-102.432 							"/>
						</g>
						<g>
							<polygon fill="#80795B" points="-59.123,-100.691 -59.123,-101.874 -58.564,-102.432 -58.564,-100.133 							"/>
						</g>
						<g>
							<polygon fill="#5E5B43" points="-60.303,-100.691 -59.123,-100.691 -58.564,-100.133 -60.859,-100.133 							"/>
						</g>
						<g>
							<polygon fill="#9A916C" points="-60.859,-102.432 -60.303,-101.874 -60.303,-100.691 -60.859,-100.133 							"/>
						</g>
					</g>
					<g>
						<g>
							<polygon fill="#404040" points="-68.949,-104.882 -70.514,-103.317 -70.514,-99.245 -68.949,-97.682 -64.877,-97.682 
								-63.313,-99.245 -63.313,-103.317 -64.877,-104.882 							"/>
						</g>
						<g>
							<rect x="-68.061" y="-102.432" fill="#8D8C8C" width="2.297" height="2.3"/>
						</g>
						<g>
							<rect x="-67.503" y="-101.874" fill="#8C8663" width="1.183" height="1.185"/>
						</g>
						<g>
							<polygon fill="#B8AF82" points="-68.061,-102.432 -67.503,-101.874 -66.322,-101.874 -65.766,-102.432 							"/>
						</g>
						<g>
							<polygon fill="#80795B" points="-66.322,-100.691 -66.322,-101.874 -65.766,-102.432 -65.766,-100.133 							"/>
						</g>
						<g>
							<polygon fill="#5E5B43" points="-67.503,-100.691 -66.322,-100.691 -65.766,-100.133 -68.061,-100.133 							"/>
						</g>
						<g>
							<polygon fill="#9A916C" points="-68.061,-102.432 -67.503,-101.874 -67.503,-100.691 -68.061,-100.133 							"/>
						</g>
					</g>
					<g>
						<g>
							<polygon fill="#404040" points="-76.149,-104.882 -77.713,-103.317 -77.713,-99.245 -76.149,-97.682 -72.078,-97.682 
								-70.512,-99.245 -70.512,-103.317 -72.078,-104.882 							"/>
						</g>
						<g>
							<rect x="-75.26" y="-102.432" fill="#8D8C8C" width="2.297" height="2.3"/>
						</g>
						<g>
							<rect x="-74.704" y="-101.874" fill="#8C8663" width="1.183" height="1.185"/>
						</g>
						<g>
							<polygon fill="#B8AF82" points="-75.26,-102.432 -74.704,-101.874 -73.523,-101.874 -72.965,-102.432 							"/>
						</g>
						<g>
							<polygon fill="#80795B" points="-73.523,-100.691 -73.523,-101.874 -72.965,-102.432 -72.965,-100.133 							"/>
						</g>
						<g>
							<polygon fill="#5E5B43" points="-74.704,-100.691 -73.523,-100.691 -72.965,-100.133 -75.26,-100.133 							"/>
						</g>
						<g>
							<polygon fill="#9A916C" points="-75.26,-102.432 -74.704,-101.874 -74.704,-100.691 -75.26,-100.133 							"/>
						</g>
					</g>
				</g>
			</g>
			<g>
				<g>
					<g>
						<g>
							<polygon fill="#404040" points="-11.348,-41.216 -12.913,-39.651 -12.913,-35.579 -11.348,-34.016 -7.276,-34.016 
								-5.709,-35.579 -5.709,-39.651 -7.276,-41.216 							"/>
						</g>
						<g>
							<rect x="-10.459" y="-38.766" fill="#8D8C8C" width="2.297" height="2.3"/>
						</g>
						<g>
							<rect x="-9.903" y="-38.208" fill="#8C8663" width="1.184" height="1.185"/>
						</g>
						<g>
							<polygon fill="#B8AF82" points="-10.459,-38.766 -9.903,-38.208 -8.721,-38.208 -8.165,-38.766 							"/>
						</g>
						<g>
							<polygon fill="#80795B" points="-8.721,-37.025 -8.721,-38.208 -8.165,-38.766 -8.165,-36.467 							"/>
						</g>
						<g>
							<polygon fill="#5E5B43" points="-9.903,-37.025 -8.721,-37.025 -8.165,-36.467 -10.459,-36.467 							"/>
						</g>
						<g>
							<polygon fill="#9A916C" points="-10.459,-38.766 -9.903,-38.208 -9.903,-37.025 -10.459,-36.467 							"/>
						</g>
					</g>
					<g>
						<g>
							<polygon fill="#404040" points="-18.548,-41.216 -20.112,-39.651 -20.112,-35.579 -18.548,-34.016 -14.477,-34.016 
								-12.911,-35.579 -12.911,-39.651 -14.477,-41.216 							"/>
						</g>
						<g>
							<rect x="-17.659" y="-38.766" fill="#8D8C8C" width="2.297" height="2.3"/>
						</g>
						<g>
							<rect x="-17.103" y="-38.208" fill="#8C8663" width="1.184" height="1.185"/>
						</g>
						<g>
							<polygon fill="#B8AF82" points="-17.659,-38.766 -17.103,-38.208 -15.921,-38.208 -15.364,-38.766 							"/>
						</g>
						<g>
							<polygon fill="#80795B" points="-15.921,-37.025 -15.921,-38.208 -15.364,-38.766 -15.364,-36.467 							"/>
						</g>
						<g>
							<polygon fill="#5E5B43" points="-17.103,-37.025 -15.921,-37.025 -15.364,-36.467 -17.659,-36.467 							"/>
						</g>
						<g>
							<polygon fill="#9A916C" points="-17.659,-38.766 -17.103,-38.208 -17.103,-37.025 -17.659,-36.467 							"/>
						</g>
					</g>
					<g>
						<g>
							<polygon fill="#404040" points="-25.748,-41.216 -27.313,-39.651 -27.313,-35.579 -25.748,-34.016 -21.677,-34.016 
								-20.111,-35.579 -20.111,-39.651 -21.677,-41.216 							"/>
						</g>
						<g>
							<rect x="-24.859" y="-38.766" fill="#8D8C8C" width="2.297" height="2.3"/>
						</g>
						<g>
							<rect x="-24.302" y="-38.208" fill="#8C8663" width="1.183" height="1.185"/>
						</g>
						<g>
							<polygon fill="#B8AF82" points="-24.859,-38.766 -24.302,-38.208 -23.122,-38.208 -22.564,-38.766 							"/>
						</g>
						<g>
							<polygon fill="#80795B" points="-23.122,-37.025 -23.122,-38.208 -22.564,-38.766 -22.564,-36.467 							"/>
						</g>
						<g>
							<polygon fill="#5E5B43" points="-24.302,-37.025 -23.122,-37.025 -22.564,-36.467 -24.859,-36.467 							"/>
						</g>
						<g>
							<polygon fill="#9A916C" points="-24.859,-38.766 -24.302,-38.208 -24.302,-37.025 -24.859,-36.467 							"/>
						</g>
					</g>
					<g>
						<g>
							<polygon fill="#404040" points="-32.948,-41.216 -34.512,-39.651 -34.512,-35.579 -32.948,-34.016 -28.876,-34.016 
								-27.311,-35.579 -27.311,-39.651 -28.876,-41.216 							"/>
						</g>
						<g>
							<rect x="-32.06" y="-38.766" fill="#8D8C8C" width="2.297" height="2.3"/>
						</g>
						<g>
							<rect x="-31.502" y="-38.208" fill="#8C8663" width="1.183" height="1.185"/>
						</g>
						<g>
							<polygon fill="#B8AF82" points="-32.06,-38.766 -31.502,-38.208 -30.321,-38.208 -29.764,-38.766 							"/>
						</g>
						<g>
							<polygon fill="#80795B" points="-30.321,-37.025 -30.321,-38.208 -29.764,-38.766 -29.764,-36.467 							"/>
						</g>
						<g>
							<polygon fill="#5E5B43" points="-31.502,-37.025 -30.321,-37.025 -29.764,-36.467 -32.06,-36.467 							"/>
						</g>
						<g>
							<polygon fill="#9A916C" points="-32.06,-38.766 -31.502,-38.208 -31.502,-37.025 -32.06,-36.467 							"/>
						</g>
					</g>
					<g>
						<g>
							<polygon fill="#404040" points="-40.148,-41.216 -41.712,-39.651 -41.712,-35.579 -40.148,-34.016 -36.076,-34.016 
								-34.511,-35.579 -34.511,-39.651 -36.076,-41.216 							"/>
						</g>
						<g>
							<rect x="-39.259" y="-38.766" fill="#8D8C8C" width="2.297" height="2.3"/>
						</g>
						<g>
							<rect x="-38.702" y="-38.208" fill="#8C8663" width="1.183" height="1.185"/>
						</g>
						<g>
							<polygon fill="#B8AF82" points="-39.259,-38.766 -38.702,-38.208 -37.522,-38.208 -36.964,-38.766 							"/>
						</g>
						<g>
							<polygon fill="#80795B" points="-37.522,-37.025 -37.522,-38.208 -36.964,-38.766 -36.964,-36.467 							"/>
						</g>
						<g>
							<polygon fill="#5E5B43" points="-38.702,-37.025 -37.522,-37.025 -36.964,-36.467 -39.259,-36.467 							"/>
						</g>
						<g>
							<polygon fill="#9A916C" points="-39.259,-38.766 -38.702,-38.208 -38.702,-37.025 -39.259,-36.467 							"/>
						</g>
					</g>
					<g>
						<g>
							<polygon fill="#404040" points="-47.35,-41.216 -48.913,-39.651 -48.913,-35.579 -47.35,-34.016 -43.276,-34.016 
								-41.711,-35.579 -41.711,-39.651 -43.276,-41.216 							"/>
						</g>
						<g>
							<rect x="-46.459" y="-38.766" fill="#8D8C8C" width="2.297" height="2.3"/>
						</g>
						<g>
							<rect x="-45.902" y="-38.208" fill="#8C8663" width="1.183" height="1.185"/>
						</g>
						<g>
							<polygon fill="#B8AF82" points="-46.459,-38.766 -45.902,-38.208 -44.722,-38.208 -44.165,-38.766 							"/>
						</g>
						<g>
							<polygon fill="#80795B" points="-44.722,-37.025 -44.722,-38.208 -44.165,-38.766 -44.165,-36.467 							"/>
						</g>
						<g>
							<polygon fill="#5E5B43" points="-45.902,-37.025 -44.722,-37.025 -44.165,-36.467 -46.459,-36.467 							"/>
						</g>
						<g>
							<polygon fill="#9A916C" points="-46.459,-38.766 -45.902,-38.208 -45.902,-37.025 -46.459,-36.467 							"/>
						</g>
					</g>
					<g>
						<g>
							<polygon fill="#404040" points="-54.549,-41.216 -56.112,-39.651 -56.112,-35.579 -54.549,-34.016 -50.478,-34.016 
								-48.912,-35.579 -48.912,-39.651 -50.478,-41.216 							"/>
						</g>
						<g>
							<rect x="-53.659" y="-38.766" fill="#8D8C8C" width="2.297" height="2.3"/>
						</g>
						<g>
							<rect x="-53.104" y="-38.208" fill="#8C8663" width="1.183" height="1.185"/>
						</g>
						<g>
							<polygon fill="#B8AF82" points="-53.659,-38.766 -53.104,-38.208 -51.922,-38.208 -51.364,-38.766 							"/>
						</g>
						<g>
							<polygon fill="#80795B" points="-51.922,-37.025 -51.922,-38.208 -51.364,-38.766 -51.364,-36.467 							"/>
						</g>
						<g>
							<polygon fill="#5E5B43" points="-53.104,-37.025 -51.922,-37.025 -51.364,-36.467 -53.659,-36.467 							"/>
						</g>
						<g>
							<polygon fill="#9A916C" points="-53.659,-38.766 -53.104,-38.208 -53.104,-37.025 -53.659,-36.467 							"/>
						</g>
					</g>
					<g>
						<g>
							<polygon fill="#404040" points="-61.75,-41.216 -63.313,-39.651 -63.313,-35.579 -61.75,-34.016 -57.677,-34.016 
								-56.111,-35.579 -56.111,-39.651 -57.677,-41.216 							"/>
						</g>
						<g>
							<rect x="-60.859" y="-38.766" fill="#8D8C8C" width="2.297" height="2.3"/>
						</g>
						<g>
							<rect x="-60.303" y="-38.208" fill="#8C8663" width="1.183" height="1.185"/>
						</g>
						<g>
							<polygon fill="#B8AF82" points="-60.859,-38.766 -60.303,-38.208 -59.123,-38.208 -58.564,-38.766 							"/>
						</g>
						<g>
							<polygon fill="#80795B" points="-59.123,-37.025 -59.123,-38.208 -58.564,-38.766 -58.564,-36.467 							"/>
						</g>
						<g>
							<polygon fill="#5E5B43" points="-60.303,-37.025 -59.123,-37.025 -58.564,-36.467 -60.859,-36.467 							"/>
						</g>
						<g>
							<polygon fill="#9A916C" points="-60.859,-38.766 -60.303,-38.208 -60.303,-37.025 -60.859,-36.467 							"/>
						</g>
					</g>
					<g>
						<g>
							<polygon fill="#404040" points="-68.949,-41.216 -70.514,-39.651 -70.514,-35.579 -68.949,-34.016 -64.877,-34.016 
								-63.313,-35.579 -63.313,-39.651 -64.877,-41.216 							"/>
						</g>
						<g>
							<rect x="-68.061" y="-38.766" fill="#8D8C8C" width="2.297" height="2.3"/>
						</g>
						<g>
							<rect x="-67.503" y="-38.208" fill="#8C8663" width="1.183" height="1.185"/>
						</g>
						<g>
							<polygon fill="#B8AF82" points="-68.061,-38.766 -67.503,-38.208 -66.322,-38.208 -65.766,-38.766 							"/>
						</g>
						<g>
							<polygon fill="#80795B" points="-66.322,-37.025 -66.322,-38.208 -65.766,-38.766 -65.766,-36.467 							"/>
						</g>
						<g>
							<polygon fill="#5E5B43" points="-67.503,-37.025 -66.322,-37.025 -65.766,-36.467 -68.061,-36.467 							"/>
						</g>
						<g>
							<polygon fill="#9A916C" points="-68.061,-38.766 -67.503,-38.208 -67.503,-37.025 -68.061,-36.467 							"/>
						</g>
					</g>
					<g>
						<g>
							<polygon fill="#404040" points="-76.149,-41.216 -77.713,-39.651 -77.713,-35.579 -76.149,-34.016 -72.078,-34.016 
								-70.512,-35.579 -70.512,-39.651 -72.078,-41.216 							"/>
						</g>
						<g>
							<rect x="-75.26" y="-38.766" fill="#8D8C8C" width="2.297" height="2.3"/>
						</g>
						<g>
							<rect x="-74.704" y="-38.208" fill="#8C8663" width="1.183" height="1.185"/>
						</g>
						<g>
							<polygon fill="#B8AF82" points="-75.26,-38.766 -74.704,-38.208 -73.523,-38.208 -72.965,-38.766 							"/>
						</g>
						<g>
							<polygon fill="#80795B" points="-73.523,-37.025 -73.523,-38.208 -72.965,-38.766 -72.965,-36.467 							"/>
						</g>
						<g>
							<polygon fill="#5E5B43" points="-74.704,-37.025 -73.523,-37.025 -72.965,-36.467 -75.26,-36.467 							"/>
						</g>
						<g>
							<polygon fill="#9A916C" points="-75.26,-38.766 -74.704,-38.208 -74.704,-37.025 -75.26,-36.467 							"/>
						</g>
					</g>
				</g>
				<g>
					<g>
						<g>
							<polygon fill="#404040" points="-11.348,-48.416 -12.913,-46.852 -12.913,-42.778 -11.348,-41.217 -7.276,-41.217 
								-5.709,-42.778 -5.709,-46.852 -7.276,-48.416 							"/>
						</g>
						<g>
							<rect x="-10.459" y="-45.967" fill="#8D8C8C" width="2.297" height="2.3"/>
						</g>
						<g>
							<rect x="-9.903" y="-45.407" fill="#8C8663" width="1.184" height="1.184"/>
						</g>
						<g>
							<polygon fill="#B8AF82" points="-10.459,-45.967 -9.903,-45.407 -8.721,-45.407 -8.165,-45.967 							"/>
						</g>
						<g>
							<polygon fill="#80795B" points="-8.721,-44.226 -8.721,-45.407 -8.165,-45.967 -8.165,-43.667 							"/>
						</g>
						<g>
							<polygon fill="#5E5B43" points="-9.903,-44.226 -8.721,-44.226 -8.165,-43.667 -10.459,-43.667 							"/>
						</g>
						<g>
							<polygon fill="#9A916C" points="-10.459,-45.967 -9.903,-45.407 -9.903,-44.226 -10.459,-43.667 							"/>
						</g>
					</g>
					<g>
						<g>
							<polygon fill="#404040" points="-18.548,-48.416 -20.112,-46.852 -20.112,-42.778 -18.548,-41.217 -14.477,-41.217 
								-12.911,-42.778 -12.911,-46.852 -14.477,-48.416 							"/>
						</g>
						<g>
							<rect x="-17.659" y="-45.967" fill="#8D8C8C" width="2.297" height="2.3"/>
						</g>
						<g>
							<rect x="-17.103" y="-45.407" fill="#8C8663" width="1.184" height="1.184"/>
						</g>
						<g>
							<polygon fill="#B8AF82" points="-17.659,-45.967 -17.103,-45.407 -15.921,-45.407 -15.364,-45.967 							"/>
						</g>
						<g>
							<polygon fill="#80795B" points="-15.921,-44.226 -15.921,-45.407 -15.364,-45.967 -15.364,-43.667 							"/>
						</g>
						<g>
							<polygon fill="#5E5B43" points="-17.103,-44.226 -15.921,-44.226 -15.364,-43.667 -17.659,-43.667 							"/>
						</g>
						<g>
							<polygon fill="#9A916C" points="-17.659,-45.967 -17.103,-45.407 -17.103,-44.226 -17.659,-43.667 							"/>
						</g>
					</g>
					<g>
						<g>
							<polygon fill="#404040" points="-25.748,-48.416 -27.313,-46.852 -27.313,-42.778 -25.748,-41.217 -21.677,-41.217 
								-20.111,-42.778 -20.111,-46.852 -21.677,-48.416 							"/>
						</g>
						<g>
							<rect x="-24.859" y="-45.967" fill="#8D8C8C" width="2.297" height="2.3"/>
						</g>
						<g>
							<rect x="-24.302" y="-45.407" fill="#8C8663" width="1.183" height="1.184"/>
						</g>
						<g>
							<polygon fill="#B8AF82" points="-24.859,-45.967 -24.302,-45.407 -23.122,-45.407 -22.564,-45.967 							"/>
						</g>
						<g>
							<polygon fill="#80795B" points="-23.122,-44.226 -23.122,-45.407 -22.564,-45.967 -22.564,-43.667 							"/>
						</g>
						<g>
							<polygon fill="#5E5B43" points="-24.302,-44.226 -23.122,-44.226 -22.564,-43.667 -24.859,-43.667 							"/>
						</g>
						<g>
							<polygon fill="#9A916C" points="-24.859,-45.967 -24.302,-45.407 -24.302,-44.226 -24.859,-43.667 							"/>
						</g>
					</g>
					<g>
						<g>
							<polygon fill="#404040" points="-32.948,-48.416 -34.512,-46.852 -34.512,-42.778 -32.948,-41.217 -28.876,-41.217 
								-27.311,-42.778 -27.311,-46.852 -28.876,-48.416 							"/>
						</g>
						<g>
							<rect x="-32.06" y="-45.967" fill="#8D8C8C" width="2.297" height="2.3"/>
						</g>
						<g>
							<rect x="-31.502" y="-45.407" fill="#8C8663" width="1.183" height="1.184"/>
						</g>
						<g>
							<polygon fill="#B8AF82" points="-32.06,-45.967 -31.502,-45.407 -30.321,-45.407 -29.764,-45.967 							"/>
						</g>
						<g>
							<polygon fill="#80795B" points="-30.321,-44.226 -30.321,-45.407 -29.764,-45.967 -29.764,-43.667 							"/>
						</g>
						<g>
							<polygon fill="#5E5B43" points="-31.502,-44.226 -30.321,-44.226 -29.764,-43.667 -32.06,-43.667 							"/>
						</g>
						<g>
							<polygon fill="#9A916C" points="-32.06,-45.967 -31.502,-45.407 -31.502,-44.226 -32.06,-43.667 							"/>
						</g>
					</g>
					<g>
						<g>
							<polygon fill="#404040" points="-40.148,-48.416 -41.712,-46.852 -41.712,-42.778 -40.148,-41.217 -36.076,-41.217 
								-34.511,-42.778 -34.511,-46.852 -36.076,-48.416 							"/>
						</g>
						<g>
							<rect x="-39.259" y="-45.967" fill="#8D8C8C" width="2.297" height="2.3"/>
						</g>
						<g>
							<rect x="-38.702" y="-45.407" fill="#8C8663" width="1.183" height="1.184"/>
						</g>
						<g>
							<polygon fill="#B8AF82" points="-39.259,-45.967 -38.702,-45.407 -37.522,-45.407 -36.964,-45.967 							"/>
						</g>
						<g>
							<polygon fill="#80795B" points="-37.522,-44.226 -37.522,-45.407 -36.964,-45.967 -36.964,-43.667 							"/>
						</g>
						<g>
							<polygon fill="#5E5B43" points="-38.702,-44.226 -37.522,-44.226 -36.964,-43.667 -39.259,-43.667 							"/>
						</g>
						<g>
							<polygon fill="#9A916C" points="-39.259,-45.967 -38.702,-45.407 -38.702,-44.226 -39.259,-43.667 							"/>
						</g>
					</g>
					<g>
						<g>
							<polygon fill="#404040" points="-47.35,-48.416 -48.913,-46.852 -48.913,-42.778 -47.35,-41.217 -43.276,-41.217 
								-41.711,-42.778 -41.711,-46.852 -43.276,-48.416 							"/>
						</g>
						<g>
							<rect x="-46.459" y="-45.967" fill="#8D8C8C" width="2.297" height="2.3"/>
						</g>
						<g>
							<rect x="-45.902" y="-45.407" fill="#8C8663" width="1.183" height="1.184"/>
						</g>
						<g>
							<polygon fill="#B8AF82" points="-46.459,-45.967 -45.902,-45.407 -44.722,-45.407 -44.165,-45.967 							"/>
						</g>
						<g>
							<polygon fill="#80795B" points="-44.722,-44.226 -44.722,-45.407 -44.165,-45.967 -44.165,-43.667 							"/>
						</g>
						<g>
							<polygon fill="#5E5B43" points="-45.902,-44.226 -44.722,-44.226 -44.165,-43.667 -46.459,-43.667 							"/>
						</g>
						<g>
							<polygon fill="#9A916C" points="-46.459,-45.967 -45.902,-45.407 -45.902,-44.226 -46.459,-43.667 							"/>
						</g>
					</g>
					<g>
						<g>
							<polygon fill="#404040" points="-54.549,-48.416 -56.112,-46.852 -56.112,-42.778 -54.549,-41.217 -50.478,-41.217 
								-48.912,-42.778 -48.912,-46.852 -50.478,-48.416 							"/>
						</g>
						<g>
							<rect x="-53.659" y="-45.967" fill="#8D8C8C" width="2.297" height="2.3"/>
						</g>
						<g>
							<rect x="-53.104" y="-45.407" fill="#8C8663" width="1.183" height="1.184"/>
						</g>
						<g>
							<polygon fill="#B8AF82" points="-53.659,-45.967 -53.104,-45.407 -51.922,-45.407 -51.364,-45.967 							"/>
						</g>
						<g>
							<polygon fill="#80795B" points="-51.922,-44.226 -51.922,-45.407 -51.364,-45.967 -51.364,-43.667 							"/>
						</g>
						<g>
							<polygon fill="#5E5B43" points="-53.104,-44.226 -51.922,-44.226 -51.364,-43.667 -53.659,-43.667 							"/>
						</g>
						<g>
							<polygon fill="#9A916C" points="-53.659,-45.967 -53.104,-45.407 -53.104,-44.226 -53.659,-43.667 							"/>
						</g>
					</g>
					<g>
						<g>
							<polygon fill="#404040" points="-61.75,-48.416 -63.313,-46.852 -63.313,-42.778 -61.75,-41.217 -57.677,-41.217 
								-56.111,-42.778 -56.111,-46.852 -57.677,-48.416 							"/>
						</g>
						<g>
							<rect x="-60.859" y="-45.967" fill="#8D8C8C" width="2.297" height="2.3"/>
						</g>
						<g>
							<rect x="-60.303" y="-45.407" fill="#8C8663" width="1.183" height="1.184"/>
						</g>
						<g>
							<polygon fill="#B8AF82" points="-60.859,-45.967 -60.303,-45.407 -59.123,-45.407 -58.564,-45.967 							"/>
						</g>
						<g>
							<polygon fill="#80795B" points="-59.123,-44.226 -59.123,-45.407 -58.564,-45.967 -58.564,-43.667 							"/>
						</g>
						<g>
							<polygon fill="#5E5B43" points="-60.303,-44.226 -59.123,-44.226 -58.564,-43.667 -60.859,-43.667 							"/>
						</g>
						<g>
							<polygon fill="#9A916C" points="-60.859,-45.967 -60.303,-45.407 -60.303,-44.226 -60.859,-43.667 							"/>
						</g>
					</g>
					<g>
						<g>
							<polygon fill="#404040" points="-68.949,-48.416 -70.514,-46.852 -70.514,-42.778 -68.949,-41.217 -64.877,-41.217 
								-63.313,-42.778 -63.313,-46.852 -64.877,-48.416 							"/>
						</g>
						<g>
							<rect x="-68.061" y="-45.967" fill="#8D8C8C" width="2.297" height="2.3"/>
						</g>
						<g>
							<rect x="-67.503" y="-45.407" fill="#8C8663" width="1.183" height="1.184"/>
						</g>
						<g>
							<polygon fill="#B8AF82" points="-68.061,-45.967 -67.503,-45.407 -66.322,-45.407 -65.766,-45.967 							"/>
						</g>
						<g>
							<polygon fill="#80795B" points="-66.322,-44.226 -66.322,-45.407 -65.766,-45.967 -65.766,-43.667 							"/>
						</g>
						<g>
							<polygon fill="#5E5B43" points="-67.503,-44.226 -66.322,-44.226 -65.766,-43.667 -68.061,-43.667 							"/>
						</g>
						<g>
							<polygon fill="#9A916C" points="-68.061,-45.967 -67.503,-45.407 -67.503,-44.226 -68.061,-43.667 							"/>
						</g>
					</g>
					<g>
						<g>
							<polygon fill="#404040" points="-76.149,-48.416 -77.713,-46.852 -77.713,-42.778 -76.149,-41.217 -72.078,-41.217 
								-70.512,-42.778 -70.512,-46.852 -72.078,-48.416 							"/>
						</g>
						<g>
							<rect x="-75.26" y="-45.967" fill="#8D8C8C" width="2.297" height="2.3"/>
						</g>
						<g>
							<rect x="-74.704" y="-45.407" fill="#8C8663" width="1.183" height="1.184"/>
						</g>
						<g>
							<polygon fill="#B8AF82" points="-75.26,-45.967 -74.704,-45.407 -73.523,-45.407 -72.965,-45.967 							"/>
						</g>
						<g>
							<polygon fill="#80795B" points="-73.523,-44.226 -73.523,-45.407 -72.965,-45.967 -72.965,-43.667 							"/>
						</g>
						<g>
							<polygon fill="#5E5B43" points="-74.704,-44.226 -73.523,-44.226 -72.965,-43.667 -75.26,-43.667 							"/>
						</g>
						<g>
							<polygon fill="#9A916C" points="-75.26,-45.967 -74.704,-45.407 -74.704,-44.226 -75.26,-43.667 							"/>
						</g>
					</g>
				</g>
			</g>
			<g>
				<g>
					<title>element:U1</title>
					<g>
						<title>package:LQFP-80</title>
						<g>
							<g>
								<path fill="#FFFFFF" d="M-25.564-83.195h-25.511c-0.139,0-0.252-0.113-0.252-0.252c0-0.14,0.113-0.253,0.252-0.253h25.512
									c0.139,0,0.252,0.113,0.252,0.253C-25.312-83.309-25.424-83.195-25.564-83.195z"/>
							</g>
						</g>
						<g>
							<g>
								<path fill="#FFFFFF" d="M-52.494-56.266c-0.139,0-0.252-0.112-0.252-0.252V-82.03c0-0.14,0.113-0.252,0.252-0.252
									c0.139,0,0.252,0.112,0.252,0.252v25.513C-52.241-56.379-52.354-56.266-52.494-56.266z"/>
							</g>
						</g>
						<g>
							<g>
								<path fill="#FFFFFF" d="M-25.564-54.85h-25.511c-0.139,0-0.252-0.112-0.252-0.252c0-0.141,0.113-0.252,0.252-0.252h25.512
									c0.139,0,0.252,0.111,0.252,0.252C-25.312-54.962-25.424-54.85-25.564-54.85z"/>
							</g>
						</g>
						<g>
							<g>
								<path fill="#FFFFFF" d="M-25.564-54.85v-0.504c0.643,0,1.165-0.522,1.165-1.164h0.504
									C-23.894-55.598-24.644-54.85-25.564-54.85z"/>
							</g>
						</g>
						<g>
							<g>
								<path fill="#FFFFFF" d="M-24.146-56.266c-0.14,0-0.252-0.112-0.252-0.252V-82.03c0-0.14,0.112-0.252,0.252-0.252
									s0.252,0.112,0.252,0.252v25.513C-23.894-56.379-24.006-56.266-24.146-56.266z"/>
							</g>
						</g>
						<g>
							<g>
								<path fill="#FFFFFF" d="M-23.894-82.03h-0.504c0-0.644-0.522-1.165-1.165-1.165V-83.7
									C-24.644-83.7-23.894-82.951-23.894-82.03z"/>
							</g>
						</g>
						<g>
							<g>
								<path fill="#FFFFFF" d="M-52.241-82.03h-0.504c0-0.446,0.174-0.865,0.489-1.182c0.315-0.314,0.734-0.488,1.18-0.488h0.001
									v0.505c0,0,0,0-0.001,0c-0.311,0-0.604,0.121-0.824,0.341S-52.241-82.343-52.241-82.03z"/>
							</g>
						</g>
						<g>
							<g>
								<path fill="#FFFFFF" d="M-51.075-54.85c-0.921,0-1.67-0.748-1.67-1.668h0.504c0,0.642,0.523,1.164,1.166,1.164V-54.85z"/>
							</g>
						</g>
						<g>
							<g>
								<path fill="#FFFFFF" d="M-49.658-79.192c-0.784,0-1.421-0.638-1.421-1.42c0-0.784,0.637-1.421,1.421-1.421
									c0.783,0,1.42,0.637,1.42,1.421C-48.238-79.83-48.875-79.192-49.658-79.192z M-49.658-81.53
									c-0.505,0-0.917,0.411-0.917,0.917c0,0.505,0.412,0.917,0.917,0.917c0.505,0,0.916-0.411,0.916-0.917
									C-48.742-81.12-49.153-81.53-49.658-81.53z"/>
							</g>
						</g>
					</g>
				</g>
				<g>
					<g>
						<rect x="-52.494" y="-83.447" fill="#333333" width="28.347" height="28.346"/>
					</g>
				</g>
			</g>
			<g>
				<rect x="-77.298" y="-85.449" fill="#333333" width="12.75" height="32.125"/>
			</g>
			<g>
				<rect x="-77.298" y="-85.449" fill="#333333" width="12.75" height="32.125"/>
			</g>
			<g>
				<g>
					<path fill="#FFFFFF" d="M-64.423-53.2h-13v-32.374h13V-53.2z M-77.173-53.45h12.5v-31.874h-12.5V-53.45z"/>
				</g>
			</g>
			<g>
				<path fill="#7A7A7A" d="M-65.265-59.129c0,2.2-1.8,4-4,4h-3.318c-2.2,0-4-1.8-4-4v-20.517c0-2.2,1.8-4,4-4h3.318
					c2.2,0,4,1.8,4,4L-65.265-59.129z"/>
			</g>
			<g>
				<path fill="#CCCCCC" d="M-65.706-60.238c0,2.199-1.8,4-4,4h-2.438c-2.2,0-4-1.801-4-4v-18.298c0-2.199,1.8-4,4-4h2.438
					c2.2,0,4,1.801,4,4V-60.238z"/>
			</g>
			<g>
				<path fill="#FFFFFF" d="M-0.737-35.255c-0.148,0-0.236-0.03-0.268-0.188h-0.01c-0.031,0.157-0.119,0.188-0.268,0.188h-0.33
					c-0.154,0-0.193-0.025-0.27-0.158l-0.152-0.269c-0.059-0.096-0.063-0.105-0.063-0.224v-2.55c0-0.141,0.063-0.22,0.219-0.22
					c0.158,0,0.223,0.079,0.223,0.22v2.55l0.117,0.211h0.188l0.119-0.211v-1.385c0-0.137,0.063-0.26,0.221-0.26
					s0.221,0.123,0.221,0.26v1.385l0.117,0.211h0.189l0.117-0.211v-2.55c0-0.141,0.063-0.22,0.221-0.22s0.219,0.079,0.219,0.22v2.55
					c0,0.117-0.004,0.128-0.061,0.224l-0.154,0.269c-0.074,0.133-0.113,0.158-0.268,0.158H-0.737z"/>
				<path fill="#FFFFFF" d="M2.373-35.693h0.646c0.113,0,0.219,0.062,0.219,0.22s-0.105,0.22-0.219,0.22H1.287
					c-0.113,0-0.219-0.062-0.219-0.22s0.105-0.22,0.219-0.22h0.646v-2.54H1.287c-0.113,0-0.219-0.063-0.219-0.221
					c0-0.157,0.105-0.22,0.219-0.22h1.732c0.113,0,0.219,0.063,0.219,0.22c0,0.158-0.105,0.221-0.219,0.221H2.373V-35.693z"/>
				<path fill="#FFFFFF" d="M6.4-38.388l-1.576,2.694h1.357c0.113,0,0.219,0.062,0.219,0.22s-0.104,0.22-0.219,0.22H4.23v-0.275
					l1.572-2.703H4.449c-0.113,0-0.219-0.063-0.219-0.221c0-0.157,0.105-0.22,0.219-0.22H6.4V-38.388L6.4-38.388z"/>
				<path fill="#FFFFFF" d="M8.906-38.674c0.146,0,0.219,0.105,0.219,0.22v1.271c0.137,0,0.242,0.048,0.32,0.123
					c0.08,0.074,0.119,0.184,0.119,0.319v1.047c0,0.269-0.166,0.438-0.439,0.438H7.833c-0.273,0-0.439-0.171-0.439-0.438v-1.047
					c0-0.137,0.039-0.245,0.117-0.319c0.08-0.075,0.186-0.123,0.322-0.123v-1.271c0-0.113,0.07-0.22,0.219-0.22H8.906z
					 M9.123-35.693v-1.051H7.832v1.051H9.123z M8.683-37.183v-1.051h-0.41v1.051H8.683z"/>
				<path fill="#FFFFFF" d="M12.287-35.693v-0.889c0-0.127,0.057-0.22,0.221-0.22c0.162,0,0.219,0.093,0.219,0.22v1.107
					c0,0.158-0.105,0.22-0.219,0.22h-1.732c-0.113,0-0.219-0.062-0.219-0.22s0.105-0.22,0.219-0.22h0.646v-2.54h-0.646
					c-0.113,0-0.219-0.063-0.219-0.221c0-0.157,0.105-0.22,0.219-0.22h1.086v2.979h0.426V-35.693z"/>
				<path fill="#FFFFFF" d="M15.447-35.693v-0.889c0-0.127,0.059-0.22,0.223-0.22c0.162,0,0.219,0.093,0.219,0.22v1.107
					c0,0.158-0.105,0.22-0.219,0.22h-1.732c-0.113,0-0.219-0.062-0.219-0.22s0.104-0.22,0.219-0.22h0.646v-2.54h-0.646
					c-0.113,0-0.219-0.063-0.219-0.221c0-0.157,0.104-0.22,0.219-0.22h1.086v2.979h0.424V-35.693z"/>
				<path fill="#FFFFFF" d="M18.5-38.674h0.549v3.199c0,0.141-0.061,0.22-0.219,0.22s-0.221-0.079-0.221-0.22v-2.593h-0.008
					l-0.418,0.619v0.07c0,0.136-0.053,0.265-0.221,0.265c-0.158,0-0.219-0.129-0.219-0.265v-0.07l-0.418-0.619h-0.01v2.593
					c0,0.141-0.063,0.22-0.221,0.22s-0.219-0.079-0.219-0.22v-3.199h0.549l0.537,0.773L18.5-38.674z"/>
				<path fill="#FFFFFF" d="M21.992-36.002c0,0.167,0,0.272-0.084,0.422c-0.148,0.25-0.369,0.325-0.643,0.325h-0.254
					c-0.246,0-0.457-0.044-0.615-0.255c-0.109-0.145-0.137-0.268-0.137-0.443v-0.638c0-0.141,0.063-0.22,0.221-0.22
					c0.156,0,0.221,0.079,0.221,0.22v0.571c0,0.255,0.053,0.325,0.311,0.325h0.242c0.186,0,0.299-0.026,0.299-0.237v-2.522
					c0-0.141,0.063-0.22,0.221-0.22s0.219,0.079,0.219,0.22V-36.002L21.992-36.002z"/>
				<path fill="#FFFFFF" d="M26.802-35.474c0,0.141-0.061,0.22-0.219,0.22s-0.221-0.079-0.221-0.22v-3.199h1.477
					c0.348,0,0.695,0.246,0.695,0.637v0.305c0,0.413-0.344,0.624-0.695,0.624h-0.404l0.99,1.415
					c0.047,0.064,0.109,0.148,0.109,0.232c0,0.123-0.102,0.206-0.225,0.206c-0.088,0-0.145-0.053-0.193-0.123l-1.213-1.73h-0.102
					V-35.474L26.802-35.474z M26.802-37.549h0.979c0.121,0,0.314-0.009,0.314-0.185v-0.305c0-0.176-0.18-0.196-0.313-0.196h-0.98
					V-37.549z"/>
				<path fill="#FFFFFF" d="M31.476-35.693c0.115,0,0.223,0.062,0.223,0.22s-0.105,0.22-0.223,0.22h-1.949v-3.419h1.949
					c0.115,0,0.223,0.063,0.223,0.22c0,0.158-0.105,0.221-0.223,0.221h-1.512v1.051h0.646c0.113,0,0.221,0.061,0.221,0.219
					s-0.105,0.221-0.221,0.221h-0.646v1.051h1.512V-35.693z"/>
				<path fill="#FFFFFF" d="M34.419-37.751v-0.703c0-0.141,0.061-0.22,0.219-0.22s0.221,0.079,0.221,0.22v0.694
					c0,0.057-0.004,0.119-0.025,0.172l-0.84,2.141c-0.045,0.109-0.082,0.192-0.221,0.192c-0.137,0-0.176-0.083-0.219-0.192
					l-0.84-2.141c-0.021-0.053-0.027-0.115-0.027-0.172v-0.694c0-0.141,0.064-0.22,0.221-0.22c0.158,0,0.221,0.079,0.221,0.22v0.703
					l0.645,1.68L34.419-37.751z"/>
				<path fill="#FFFFFF" d="M37.582-35.693v-0.889c0-0.127,0.057-0.22,0.219-0.22c0.164,0,0.221,0.093,0.221,0.22v1.107
					c0,0.158-0.104,0.22-0.221,0.22h-1.729c-0.115,0-0.223-0.062-0.223-0.22s0.105-0.22,0.223-0.22h0.645v-2.54h-0.645
					c-0.115,0-0.223-0.063-0.223-0.221c0-0.157,0.105-0.22,0.223-0.22h1.084v2.979h0.426V-35.693z"/>
				<path fill="#FFFFFF" d="M39.939-35.816c-0.096,0-0.166,0-0.229-0.083c-0.049-0.066-0.049-0.115-0.049-0.198v-0.246
					c0-0.083,0-0.132,0.049-0.198c0.063-0.083,0.133-0.083,0.229-0.083h0.316c0.098,0,0.168,0,0.23,0.083
					c0.049,0.066,0.049,0.115,0.049,0.198v0.246c0,0.083,0,0.132-0.049,0.198c-0.063,0.083-0.133,0.083-0.23,0.083H39.939z"/>
				<path fill="#FFFFFF" d="M43.908-38.674c0.24,0,0.438,0.197,0.438,0.439v2.54c0,0.245-0.188,0.438-0.438,0.438h-1.293
					c-0.25,0-0.439-0.193-0.439-0.438v-2.54c0-0.242,0.197-0.439,0.439-0.439H43.908z M43.908-35.693v-2.54h-1.293v2.54H43.908z"/>
			</g>
			<g>
				<path fill="#FFFFFF" d="M9.646-97.843c-0.232,0-0.371-0.048-0.42-0.296H9.212c-0.047,0.248-0.186,0.296-0.42,0.296H8.275
					c-0.24,0-0.303-0.042-0.418-0.248l-0.242-0.42c-0.09-0.151-0.096-0.165-0.096-0.351v-3.991c0-0.22,0.098-0.344,0.346-0.344
					c0.246,0,0.344,0.124,0.344,0.344v3.991l0.186,0.331h0.297l0.186-0.331v-2.167c0-0.214,0.096-0.406,0.344-0.406
					s0.346,0.192,0.346,0.406v2.167l0.186,0.331h0.297l0.186-0.331v-3.991c0-0.22,0.096-0.344,0.344-0.344s0.344,0.124,0.344,0.344
					v3.991c0,0.186-0.006,0.199-0.096,0.351l-0.24,0.42c-0.117,0.206-0.18,0.248-0.42,0.248H9.646z"/>
				<path fill="#FFFFFF" d="M14.519-98.53h1.012c0.178,0,0.344,0.096,0.344,0.344s-0.166,0.344-0.344,0.344H12.82
					c-0.182,0-0.346-0.096-0.346-0.344s0.164-0.344,0.346-0.344h1.012l-0.002-3.979h-1.012c-0.18,0-0.344-0.096-0.344-0.344
					s0.164-0.344,0.344-0.344h2.711c0.18,0,0.346,0.096,0.346,0.344s-0.166,0.344-0.346,0.344h-1.012L14.519-98.53z"/>
				<path fill="#FFFFFF" d="M20.828-102.75l-2.471,4.22h2.125c0.18,0,0.346,0.096,0.346,0.344s-0.166,0.344-0.346,0.344h-3.055
					v-0.434l2.463-4.232h-2.119c-0.18,0-0.344-0.096-0.344-0.344s0.164-0.344,0.344-0.344h3.057V-102.75z"/>
				<path fill="#FFFFFF" d="M23.125-100.217v1.92c0,0.228-0.049,0.454-0.33,0.454c-0.283,0-0.33-0.227-0.33-0.454v-2.767
					c0-0.241,0.027-0.489,0.33-0.489c0.295,0,0.33,0.248,0.33,0.482v0.075v0.015l0.537-0.352c0.172-0.109,0.357-0.22,0.57-0.22
					h0.488c0.254,0,0.412,0.069,0.611,0.241c0.297,0.254,0.283,0.537,0.297,0.895l0.068,2.078c0.008,0.234-0.027,0.496-0.322,0.496
					c-0.27,0-0.324-0.227-0.332-0.447l-0.066-2.037c-0.016-0.405-0.049-0.563-0.447-0.563h-0.223c-0.066,0-0.137,0.021-0.205,0.062
					L23.125-100.217z"/>
				<path fill="#FFFFFF" d="M28.628-97.843c-0.275,0-0.387,0-0.592-0.179l-0.283-0.248c-0.262-0.234-0.336-0.385-0.336-0.743v-1.273
					c0-0.351,0.047-0.558,0.322-0.792l0.234-0.199c0.311-0.269,0.461-0.275,0.729-0.275h0.605c0.322,0,0.475,0.035,0.729,0.241
					l0.27,0.213c0.303,0.241,0.344,0.495,0.344,0.86v0.529c0,0.378-0.063,0.488-0.453,0.488h-2.121v0.22
					c0,0.063,0.049,0.146,0.098,0.193l0.164,0.179c0.09,0.098,0.221,0.124,0.441,0.124h1.418c0.219,0,0.453,0.048,0.453,0.33
					c0,0.289-0.262,0.331-0.453,0.331L28.628-97.843L28.628-97.843z M28.078-99.88h1.914v-0.398c0-0.124,0.006-0.228-0.082-0.311
					l-0.256-0.22c-0.082-0.076-0.213-0.083-0.316-0.083h-0.557c-0.125,0-0.229,0-0.338,0.076l-0.229,0.166
					c-0.082,0.062-0.137,0.109-0.137,0.303l-0.002,0.467H28.078z"/>
				<path fill="#FFFFFF" d="M33.699-99.089c0,0.372-0.014,0.585,0.441,0.585h0.336c0.27,0,0.395-0.021,0.461-0.289
					c0.043-0.158,0.166-0.269,0.332-0.269c0.186,0,0.336,0.145,0.336,0.331c0,0.186-0.117,0.42-0.227,0.55
					c-0.24,0.289-0.559,0.337-0.908,0.337h-0.338c-0.33,0-0.619-0.076-0.854-0.331c-0.256-0.282-0.24-0.563-0.24-0.922v-1.795
					h-0.213c-0.193,0-0.455-0.041-0.455-0.33c0-0.282,0.232-0.331,0.455-0.331h0.213v-0.674c0-0.228,0.049-0.454,0.33-0.454
					c0.283,0,0.33,0.227,0.33,0.454v0.674h1.107c0.221,0,0.455,0.048,0.455,0.331c0,0.289-0.262,0.33-0.455,0.33h-1.107V-99.089
					L33.699-99.089z"/>
			</g>
			<g>
				<circle fill="#B8AF82" cx="18.41" cy="-92.283" r="4"/>
			</g>
			<g>
				<circle fill="#B8AF82" cx="18.41" cy="-47.116" r="4"/>
			</g>
			<g>
				<circle fill="#CCCCCC" cx="18.41" cy="-92.283" r="2.5"/>
			</g>
			<g>
				<circle fill="#B8AF82" cx="18.41" cy="-47.116" r="4"/>
			</g>
			<g>
				<circle fill="#CCCCCC" cx="18.41" cy="-47.116" r="2.5"/>
			</g>
			<g id="magjack" transform="matrix(1, 0, 0, 1, 235.181, 749.978)">
				<g transform="matrix(0, -1, 1, 0, -117.43, 717.417)">
					<g>
						<g>
							<g>
								<g>
									<g>
										<path fill="#7A7A7A" d="M1558.444-63.461v-60.109h-43.198v60.109C1515.435-63.461,1558.251-63.461,1558.444-63.461z"/>
									</g>
								</g>
							</g>
						</g>
						<g>
							<g opacity="0.5">
								<g>
									<path fill="#FFFFFF" d="M1515.408-89.125v-33.879c0-0.223,0.181-0.404,0.402-0.404c0.223,0,0.403,0.182,0.403,0.404v33.879
										c0,0.223-0.181,0.402-0.403,0.402C1515.588-88.722,1515.408-88.902,1515.408-89.125z"/>
								</g>
							</g>
							<g opacity="0.5">
								<g>
									<path fill="#FFFFFF" d="M1557.474-89.125v-33.879c0-0.223,0.181-0.404,0.403-0.404c0.222,0,0.402,0.182,0.402,0.404v33.879
										c0,0.223-0.181,0.402-0.402,0.402C1557.655-88.722,1557.474-88.902,1557.474-89.125z"/>
								</g>
							</g>
						</g>
					</g>
					<g>
						<g>
							<g>
								<path fill="#666666" d="M1527.349-72.287l-0.098,7.992c-0.027,0.303-0.258,0.551-0.56,0.553h-0.159l6.801-0.012h-0.168
									c-0.282,0-0.536-0.25-0.563-0.551l-0.121-7.992L1527.349-72.287z"/>
							</g>
						</g>
						<g>
							<g>
								<path d="M1526.537-63.74c-0.278,0-0.5-0.25-0.479-0.551l0.463-23.213c0.024-0.586,0.422-1.07,0.929-1.07l4.905-0.008
									c0.5-0.002,0.924,0.49,0.937,1.066l0.521,23.211c0.029,0.303-0.193,0.553-0.475,0.553h-0.166
									c-0.283,0-0.537-0.25-0.563-0.551l-0.398-19.814c-0.018-0.617-0.481-1.133-1.102-1.133l-2.429,0.004
									c-0.562,0.002-1.081,0.523-1.099,1.135l-0.324,19.816c-0.027,0.303-0.258,0.553-0.562,0.553L1526.537-63.74L1526.537-63.74z
									"/>
							</g>
						</g>
						<g>
							<g>
								<g>
									<path fill="#666666" d="M1531.068-85.25l-2.303,0.004c-0.533,0-1.055,0.504-1.104,1.107l-0.082,0.984h4.633l-0.036-0.994
										C1532.126-84.753,1531.655-85.25,1531.068-85.25z"/>
								</g>
							</g>
						</g>
						<g>
							<g>
								<g>
									<path fill="#999999" d="M1532.224-83.507c-0.05-0.629-0.557-1.143-1.148-1.141l-2.342,0.004
										c-0.541,0.002-1.1,0.521-1.15,1.145l0.063-0.639c0.053-0.605,0.572-1.107,1.104-1.107l2.306-0.004
										c0.584,0,1.058,0.496,1.104,1.105L1532.224-83.507z"/>
								</g>
							</g>
						</g>
					</g>
					<g>
						<g>
							<g>
								<path fill="#666666" d="M1541.544-72.287l-0.099,7.992c-0.028,0.303-0.26,0.551-0.563,0.553h-0.16l6.803-0.012h-0.168
									c-0.28,0-0.535-0.25-0.562-0.551l-0.121-7.992L1541.544-72.287z"/>
							</g>
						</g>
						<g>
							<g>
								<path d="M1540.727-63.74c-0.277,0-0.5-0.25-0.48-0.551l0.464-23.213c0.024-0.586,0.425-1.07,0.93-1.07l4.906-0.008
									c0.501-0.002,0.926,0.49,0.936,1.066l0.521,23.211c0.028,0.303-0.193,0.553-0.474,0.553h-0.166
									c-0.283,0-0.537-0.25-0.563-0.551l-0.402-19.816c-0.015-0.617-0.479-1.133-1.1-1.131l-2.43,0.004
									c-0.562,0-1.082,0.523-1.101,1.135l-0.324,19.816c-0.024,0.303-0.258,0.551-0.56,0.553L1540.727-63.74L1540.727-63.74z"/>
							</g>
						</g>
						<g>
							<g>
								<g>
									<path fill="#666666" d="M1545.261-85.25l-2.304,0.004c-0.533,0-1.055,0.504-1.104,1.107l-0.084,0.984h4.633l-0.034-0.994
										C1546.319-84.753,1545.846-85.25,1545.261-85.25z"/>
								</g>
							</g>
						</g>
						<g>
							<g>
								<g>
									<path fill="#999999" d="M1546.419-83.507c-0.051-0.629-0.56-1.143-1.152-1.141l-2.34,0.004
										c-0.541,0.002-1.1,0.521-1.15,1.145l0.064-0.639c0.051-0.605,0.57-1.107,1.104-1.107l2.306-0.004
										c0.586,0,1.058,0.496,1.104,1.105L1546.419-83.507z"/>
								</g>
							</g>
						</g>
					</g>
					<g>
						<g>
							<g>
								<g>
									<path fill="#7A7A7A" d="M1557.555-64.892c0.453-1.658,1.018-2.889,1.563-4.078c0.98-2.139,1.907-4.158,1.907-8.369v-5.375
										c0-0.041,0.189-4.209,1.793-4.209v0.75c-0.539,0-1.043,2.379-1.043,3.459v5.375c0,4.375-0.959,6.469-1.977,8.684
										c-0.533,1.162-1.083,2.363-1.52,3.963L1557.555-64.892z"/>
								</g>
							</g>
							<g>
								<g>
									<path fill="#CCCCCC" d="M1562.055-86.537l0.392,0.727c0.117-0.223,0.242-0.363,0.373-0.363v-0.75
										C1562.517-86.923,1562.265-86.777,1562.055-86.537z"/>
								</g>
							</g>
						</g>
						<g>
							<g>
								<g>
									<path fill="#7A7A7A" d="M1510.87-86.173v-0.75c1.602,0,1.792,4.168,1.792,4.209v5.375c0,4.211,0.927,6.23,1.906,8.369
										c0.547,1.189,1.11,2.42,1.563,4.08l-0.723,0.195c-0.438-1.6-0.988-2.801-1.521-3.963c-1.016-2.215-1.976-4.307-1.976-8.682
										v-5.375C1511.912-83.794,1511.408-86.173,1510.87-86.173z"/>
								</g>
							</g>
							<g>
								<g>
									<path fill="#CCCCCC" d="M1511.632-86.537l-0.391,0.727c-0.119-0.223-0.244-0.363-0.373-0.363v-0.75
										C1511.172-86.923,1511.422-86.777,1511.632-86.537z"/>
								</g>
							</g>
						</g>
					</g>
					<g opacity="0.5">
						<g>
							<path fill="#FFFFFF" d="M1516.691-123.003c0-0.223,0.182-0.404,0.403-0.404h39.5c0.223,0,0.403,0.182,0.403,0.404
								c0,0.221-0.182,0.402-0.403,0.402h-39.5C1516.873-122.599,1516.691-122.781,1516.691-123.003z"/>
						</g>
					</g>
					<g>
						<g>
							<g>
								<path fill="#4D4D4D" d="M1519.583-122.582c0-0.223,0.181-0.404,0.403-0.404h14.729c0.223,0,0.403,0.182,0.403,0.404
									c0,0.221-0.182,0.402-0.403,0.402h-14.729C1519.763-122.177,1519.583-122.359,1519.583-122.582z"/>
							</g>
						</g>
						<g>
							<g>
								<path fill="#4D4D4D" d="M1538.568-122.582c0-0.223,0.182-0.404,0.403-0.404h14.73c0.223,0,0.402,0.182,0.402,0.404
									c0,0.221-0.181,0.402-0.402,0.402h-14.73C1538.75-122.177,1538.568-122.359,1538.568-122.582z"/>
							</g>
						</g>
					</g>
				</g>
			</g>
		</g>
	</g>
</g>
</svg>
