<?xml version='1.0' encoding='UTF-8' standalone='no'?>
<!-- Created with Fritzing (http://www.fritzing.org/) -->
<svg xmlns="http://www.w3.org/2000/svg" width="0.302375in" x="0in" version="1.2" y="0in"  height="0.4in" viewBox="0 0 302.375 400" baseProfile="tiny" xmlns:svg="http://www.w3.org/2000/svg">
 <desc>Fritzing breadboard generated by brd2svg</desc>
 <g id="breadboard">
  <g id="icon">
   <path fill="#1F7A34" stroke="none" stroke-width="0" d="M0,0L0,170A30,30 0 0 1 0,230L0,400L302.375,400L302.375,0L0,0z"/>
   <g transform="translate(100,173.375)">
    <g>
     <g>
      <rect width="102.389" x="-0.0138889" y="0" fill="#534741" height="46.2639"/>
      <rect width="102.389" x="-0.0138889" y="37.7917" fill="#3E3531" height="15.6528"/>
      <rect width="102.389" x="-0.0138889" opacity="0.2" y="53.0417" height="0.361111" enable-background="new    "/>
      <rect width="102.389" x="-0.0138889" opacity="0.2" y="0" fill="#FFFFFF" height="0.569444" enable-background="new    "/>
     </g>
     <g>
      <path fill="#DCDCDC" d="M87.5556,0L87.5556,0L87.5556,0L86.3472,0l0,0C85.2917,3.08333,84.5556,14.6667,84.5556,18.0833c0,3.59722,0.638889,16.5,1.79167,19.7083l0,0l0,0l16.0139,0L102.361,0L87.5556,0z"/>
      <path fill="#DCDCDC" d="M16,1.26389L16,0l-16.0139,0l0,37.8056l16.0139,0c1.15278,-3.25,2.5,-16.0833,2.5,-19.7083C18.5,13.8611,17.5139,4.97222,16,1.26389z"/>
      <path fill="#D1C690" d="M16,53.4444l-16.0139,0L-0.0138889,37.7917l16.0139,0C16.9861,41.6806,16,53.4444,16,53.4444z"/>
      <path fill="#CCCCCC" d="M16,53.4444l-16.0139,0L-0.0138889,37.7917l16.0139,0C16.7778,40.7778,16,53.4444,16,53.4444z"/>
      <rect width="16.0139" x="-0.0138889" opacity="0.15" y="52.875" height="0.569444" enable-background="new    "/>
      <rect width="16.0139" x="-0.0138889" opacity="0.5" y="0" fill="#FFFFFF" height="0.569444" enable-background="new    "/>
      <path fill="#D1C690" d="M102.375,53.4444L86.3472,53.4444c0,0,-1.08333,-13.6111,0,-15.6528l16.0139,0L102.361,53.4444z"/>
      <path fill="#CCCCCC" d="M102.375,53.4444L86.3472,53.4444c0,0,-1.05556,-12.8333,0,-15.6528l16.0139,0L102.361,53.4444z"/>
      <rect width="16.0139" x="86.3472" opacity="0.15" y="52.875" height="0.569444" enable-background="new    "/>
      <rect width="16.0139" x="86.3472" opacity="0.5" y="0" fill="#FFFFFF" height="0.569444" enable-background="new    "/>
      <line fill="none" y1="53.4444" x1="9.79167" y2="53.4444" x2="9.79167"/>
     </g>
    </g>
   </g>
  </g>
  <g transform="translate(135.222,334.05)">
   <rect width="31.93" x="0" y="0" fill="#8D8C8C" height="31.9" id="connector0pin"/>
   <rect width="16.4442" x="7.79153" y="7.73544" fill="#8C8663" height="16.4152"/>
   <polygon fill="#B8AF82" points="0,31.9,7.79153,24.1368,7.79153,6.97162,0,0"/>
   <polygon fill="#80795B" points="24.2079,7.76321,7.90264,7.76321,0,0,31.93,0"/>
   <polygon fill="#5E5B43" points="24.2079,24.1368,24.2079,7.76321,31.93,0,31.93,31.9"/>
   <polygon fill="#9A916C" points="0,31.9,7.87486,24.1368,24.2079,24.1368,31.93,31.9"/>
  </g>
  <g transform="translate(135.222,34.05)">
   <rect width="31.93" x="0" y="0" fill="#8D8C8C" height="31.9" id="connector1pin"/>
   <rect width="16.4442" x="7.79153" y="7.73544" fill="#8C8663" height="16.4152"/>
   <polygon fill="#B8AF82" points="0,31.9,7.79153,24.1368,7.79153,6.97162,0,0"/>
   <polygon fill="#80795B" points="24.2079,7.76321,7.90264,7.76321,0,0,31.93,0"/>
   <polygon fill="#5E5B43" points="24.2079,24.1368,24.2079,7.76321,31.93,0,31.93,31.9"/>
   <polygon fill="#9A916C" points="0,31.9,7.87486,24.1368,24.2079,24.1368,31.93,31.9"/>
  </g>
 </g>
</svg>
