<?xml version='1.0' encoding='UTF-8' standalone='no'?>
<!-- Created with Fritzing (http://www.fritzing.org/) -->
<svg xmlns="http://www.w3.org/2000/svg" width="0.783333in" x="0in" version="1.2" y="0in"  height="1in" viewBox="0 0 783.333 1000" baseProfile="tiny" xmlns:svg="http://www.w3.org/2000/svg">
 <desc>Fritzing breadboard generated by brd2svg</desc>
 <g id="breadboard">
  <g id="icon">
   <path fill="#1F7A34" stroke="none" stroke-width="0" d="M0,0L0,470A30,30 0 0 1 0,530L0,1000L783.333,1000L783.333,0L0,0z"/>
   <g transform="translate(100,179.389)">
    <g>
     <path fill="#7A7A7A" d="M31.7778,72.1111l0,536.319l22.1667,0l0,23.7083L286.389,632.139l1.61111,-15.2361l7.31944,0l1.61111,15.2361l232.694,0l0,-23.7083l22.1944,0L551.819,72.1111L31.7778,72.1111zM204.375,573.472c-0.736111,4.25,-5.48611,7.69444,-11.0417,7.69444L131.514,581.167c-5.52778,0,-10.5556,-3.5,-11.0972,-7.69444L81.4583,286.153c-0.708333,-4.23611,3.55556,-7.73611,8.97222,-7.73611l9.11111,0c5.5,0,10.4722,3.52778,11.0694,7.73611l29.4028,241.458c0.458333,4.30556,5.18056,7.75,11.0139,7.75l22.9444,0c5.31944,0,10.5556,-3.5,11.0694,-7.75l29.2361,-241.444c0.652778,-4.22222,5.18056,-7.72222,11.0694,-7.72222l9,-0.0277778c5.43056,0,9.625,3.52778,9.08333,7.72222L204.375,573.472zM463.167,573.472c-0.75,4.25,-5.5,7.69444,-11.0556,7.69444l-61.7778,0c-5.5,0,-10.5833,-3.5,-11.1389,-7.69444l-38.9722,-287.319c-0.708333,-4.23611,3.54167,-7.73611,8.97222,-7.73611l9.05556,0c5.5,0,10.4861,3.52778,11.0694,7.73611l29.4028,241.458c0.472222,4.30556,5.18056,7.75,11,7.75l22.9306,0c5.34722,0,10.5833,-3.5,11.0972,-7.75l29.2361,-241.444c0.652778,-4.22222,5.18056,-7.72222,11.0417,-7.72222l8.97222,-0.0277778c5.45833,0,9.625,3.52778,9.08333,7.72222L463.167,573.472z"/>
     <rect width="447.056" x="68.1389" y="118.667" fill="#CCCCCC" height="464.417"/>
     <rect width="447.056" x="68.1389" y="583.083" fill="#F2F2F2" height="24.3056"/>
     <path fill="#B0B0B0" d="M532.097,543.083l13.8889,0c0,7.43056,1.38889,12.2917,3.76389,13.8611c0.902778,0.430556,8.70833,1.48611,14.0556,1.48611l0,9.36111l0,4.52778l0,45.9306l0,2.13889l0,11.75c-8.38889,0,-18.2639,-1.54167,-21.6667,-3.76389c-9.22222,-6.18056,-9.95833,-18.625,-10.0139,-24.1389l-0.0277778,-0.0277778l0,-55.5556l0.277778,0.152778C532.125,546.389,532.097,544.347,532.097,543.083z"/>
     <path fill="#8F8F8F" d="M548.069,555.014c-1.36111,-2.38889,-2.05556,-6.45833,-2.05556,-11.9583l-13.8889,0l0,59.7917c0,3.90278,0.0833333,14.375,5.97222,21.7083c1.73611,2.01389,2.61111,4.34722,11.2639,6.25C547.958,628.375,548.069,555.014,548.069,555.014z"/>
     <rect width="39.4028" x="144.139" fill="#4D4D4D" height="27.2083"/>
     <rect width="39.3611" x="232.736" fill="#4D4D4D" height="27.2083"/>
     <rect width="39.3889" x="311.472" fill="#4D4D4D" height="27.2083"/>
     <rect width="39.4167" x="400.069" fill="#4D4D4D" height="27.2083"/>
     <path fill="#B0B0B0" d="M51.6389,543.083l-13.8889,0c0,7.43056,-1.36111,12.2917,-3.72222,13.8611c-0.944444,0.430556,-8.70833,1.48611,-14.0556,1.48611l0,9.36111l0,4.52778l0,45.9306l0,2.13889l0,11.75c8.40278,0,18.3056,-1.54167,21.6528,-3.76389c9.23611,-6.18056,9.94444,-18.625,10,-24.1389l0.0138889,-0.0277778l0,-55.5556l-0.236111,0.152778C51.625,546.389,51.6389,544.347,51.6389,543.083z"/>
     <path fill="#8F8F8F" d="M34.4306,630.764c8.59722,-1.88889,9.54167,-4.30556,11.2639,-6.26389c5.86111,-7.25,5.94444,-17.7222,5.94444,-21.6667L51.6389,543.056l-13.8889,0c0,5.5,-0.763889,9.55556,-2.08333,11.9306C35.6667,555.014,35.7639,628.375,34.4306,630.764z"/>
     <path fill="#B3B3B3" d="M31.7778,12.3333L31.7778,548.611l22.1667,0l0,23.7083l475.694,0L529.639,548.611l22.1806,0L551.819,12.3333L31.7778,12.3333zM204.375,513.667c-0.736111,4.25,-5.48611,7.69444,-11.0417,7.69444L131.514,521.361c-5.52778,0,-10.5556,-3.5,-11.0972,-7.69444L81.4583,226.361c-0.708333,-4.22222,3.55556,-7.72222,8.97222,-7.72222l9.11111,0c5.5,0,10.4722,3.51389,11.0694,7.72222l29.4028,241.472c0.458333,4.33333,5.18056,7.77778,11.0139,7.77778l22.9444,0c5.31944,0,10.5556,-3.54167,11.0694,-7.77778l29.2361,-241.458c0.652778,-4.22222,5.18056,-7.70833,11.0694,-7.70833l9,-0.0277778c5.43056,0,9.625,3.51389,9.08333,7.70833L204.375,513.667zM463.167,513.667c-0.75,4.25,-5.5,7.69444,-11.0556,7.69444l-61.7778,0c-5.5,0,-10.5833,-3.5,-11.1389,-7.69444l-38.9722,-287.333c-0.708333,-4.22222,3.54167,-7.72222,8.97222,-7.72222l9.05556,0c5.5,0,10.4861,3.51389,11.0694,7.72222l29.4028,241.5c0.472222,4.30556,5.18056,7.75,11,7.75l22.9306,0c5.34722,0,10.5833,-3.51389,11.0972,-7.75l29.2361,-241.486c0.652778,-4.22222,5.18056,-7.70833,11.0417,-7.70833l8.97222,-0.0277778c5.45833,0,9.625,3.51389,9.08333,7.70833L463.167,513.667z"/>
     <polygon fill="none" points="140.764,475.375,183.972,475.375,186.528,452.722,138.514,452.722"/>
     <polygon fill="#939393" points="186.528,452.722,183.972,475.375,140.764,475.375,138.514,452.722"/>
     <polygon fill="#666666" points="186.528,452.722,187.694,443.236,137.181,443.236,138.514,452.722"/>
     <polygon fill="none" points="399.556,475.375,442.736,475.375,445.292,452.722,397.278,452.722"/>
     <polygon fill="#939393" points="445.292,452.722,442.736,475.375,399.556,475.375,397.278,452.722"/>
     <polygon fill="#666666" points="445.292,452.722,446.458,443.236,395.944,443.236,397.278,452.722"/>
     <line stroke-opacity="0.24" fill="none" stroke="#FFFFFF" stroke-linecap="round" y1="27.1111" stroke-width="11.2" x1="39.6528" y2="538.792" x2="39.6528"/>
     <line stroke-opacity="0.24" fill="none" stroke="#FFFFFF" stroke-linecap="round" y1="27.1111" stroke-width="11.2" x1="543.917" y2="540.875" x2="543.917"/>
     <line stroke-opacity="0.15" fill="none" stroke="#000000" stroke-linecap="round" y1="556.625" stroke-width="5.6" x1="526.583" y2="556.625" x2="56.9861"/>
     <rect width="475.694" x="53.9444" y="563.292" fill="#B0B0B0" height="9.02778"/>
     <polygon fill="#B0B0B0" points="286.389,632.139,53.9444,632.139,53.9444,641.222,285.431,641.222"/>
     <polygon fill="#B0B0B0" points="296.944,632.139,297.903,641.222,529.639,641.222,529.639,632.139"/>
     <path fill="#999999" d="M583.333,146.653l0,28.6111l-19.7361,0l0,-28.6111l-11.8194,0L551.778,127.958l22.7778,0C579.403,127.958,583.333,131.889,583.333,136.75L583.333,146.653z"/>
     <path fill="#808080" d="M583.333,135.792l-31.5417,0L551.792,127.972c0,0,21.6111,0,24.1667,0C579.889,127.958,583.333,133.389,583.333,135.792z"/>
     <path fill="#B3B3B3" d="M0,146.653l0,28.6111l19.7361,0l0,-28.6111l12.0556,0L31.7917,127.958L8.77778,127.958C3.91667,127.958,0,131.889,0,136.75L0,146.653z"/>
     <path fill="#E6E6E6" d="M0,135.792l31.7917,0L31.7917,127.972c0,0,-21.8333,0,-24.4444,0C3.44444,127.958,0,133.389,0,135.792z"/>
    </g>
   </g>
  </g>
  <g transform="translate(325.702,934.05)">
   <rect width="31.93" x="0" y="0" fill="#8D8C8C" height="31.9" id="connector0pin"/>
   <rect width="16.4442" x="7.79153" y="7.73544" fill="#8C8663" height="16.4152"/>
   <polygon fill="#B8AF82" points="0,31.9,7.79153,24.1368,7.79153,6.97162,0,0"/>
   <polygon fill="#80795B" points="24.2079,7.76321,7.90264,7.76321,0,0,31.93,0"/>
   <polygon fill="#5E5B43" points="24.2079,24.1368,24.2079,7.76321,31.93,0,31.93,31.9"/>
   <polygon fill="#9A916C" points="0,31.9,7.87486,24.1368,24.2079,24.1368,31.93,31.9"/>
  </g>
  <g transform="translate(325.702,34.05)">
   <rect width="31.93" x="0" y="0" fill="#8D8C8C" height="31.9" id="connector3pin"/>
   <rect width="16.4442" x="7.79153" y="7.73544" fill="#8C8663" height="16.4152"/>
   <polygon fill="#B8AF82" points="0,31.9,7.79153,24.1368,7.79153,6.97162,0,0"/>
   <polygon fill="#80795B" points="24.2079,7.76321,7.90264,7.76321,0,0,31.93,0"/>
   <polygon fill="#5E5B43" points="24.2079,24.1368,24.2079,7.76321,31.93,0,31.93,31.9"/>
   <polygon fill="#9A916C" points="0,31.9,7.87486,24.1368,24.2079,24.1368,31.93,31.9"/>
  </g>
  <g transform="translate(425.702,934.05)">
   <rect width="31.93" x="0" y="0" fill="#8D8C8C" height="31.9" id="connector1pin"/>
   <rect width="16.4442" x="7.79153" y="7.73544" fill="#8C8663" height="16.4152"/>
   <polygon fill="#B8AF82" points="0,31.9,7.79153,24.1368,7.79153,6.97162,0,0"/>
   <polygon fill="#80795B" points="24.2079,7.76321,7.90264,7.76321,0,0,31.93,0"/>
   <polygon fill="#5E5B43" points="24.2079,24.1368,24.2079,7.76321,31.93,0,31.93,31.9"/>
   <polygon fill="#9A916C" points="0,31.9,7.87486,24.1368,24.2079,24.1368,31.93,31.9"/>
  </g>
  <g transform="translate(425.702,34.05)">
   <rect width="31.93" x="0" y="0" fill="#8D8C8C" height="31.9" id="connector2pin"/>
   <rect width="16.4442" x="7.79153" y="7.73544" fill="#8C8663" height="16.4152"/>
   <polygon fill="#B8AF82" points="0,31.9,7.79153,24.1368,7.79153,6.97162,0,0"/>
   <polygon fill="#80795B" points="24.2079,7.76321,7.90264,7.76321,0,0,31.93,0"/>
   <polygon fill="#5E5B43" points="24.2079,24.1368,24.2079,7.76321,31.93,0,31.93,31.9"/>
   <polygon fill="#9A916C" points="0,31.9,7.87486,24.1368,24.2079,24.1368,31.93,31.9"/>
  </g>
 </g>
</svg>
