<?xml version='1.0' encoding='UTF-8' standalone='no'?>
<!-- Created with Fritzing (http://www.fritzing.org/) -->
<svg xmlns="http://www.w3.org/2000/svg" width="1.05946in" x="0in" version="1.2" y="0in"  height="1.2in" viewBox="0 0 1059.46 1200" baseProfile="tiny" xmlns:svg="http://www.w3.org/2000/svg">
 <desc>Fritzing breadboard generated by brd2svg</desc>
 <g id="breadboard">
  <g id="icon">
   <path fill="#1F7A34" stroke="none" stroke-width="0" d="M0,0L0,570A30,30 0 0 1 0,630L0,1200L1059.46,1200L1059.46,0L0,0z"/>
   <g transform="translate(100,171.646)">
    <g>
     <g>
      <g>
       <circle fill="#686868" cx="429.722" cy="437.153" r="411.375"/>
      </g>
      <g opacity="0.5">
       <path fill="#C6C6C6" d="M429.722,835.806c-47.8194,0,-94.75,-8.01389,-139.472,-23.8194c-3.61111,-1.29167,-5.51389,-5.25,-4.23611,-8.875c1.26389,-3.625,5.23611,-5.5,8.86111,-4.23611c63.8194,22.5694,133.736,28.625,200.5,17.7222c3.70833,-0.666667,7.36111,1.94444,7.97222,5.72222c0.625,3.77778,-1.94444,7.36111,-5.72222,7.97222C475.361,833.958,452.5,835.806,429.722,835.806z"/>
      </g>
      <g opacity="0.43">
       <g>
        <path fill="#020202" d="M62.4583,389.444c0,-77.2917,62.6528,-139.944,139.944,-139.944c49.7639,0,93.3472,26.0417,118.153,65.1667c-22.2639,-47.7917,-70.5833,-81,-126.792,-81c-77.2917,0,-139.944,62.6528,-139.944,139.944c0,27.5278,8.06944,53.1389,21.7917,74.7917C67.2639,430.458,62.4583,410.542,62.4583,389.444z"/>
       </g>
      </g>
      <g opacity="0.43">
       <g>
        <path fill="#020202" d="M533.458,389.444c0,-77.2917,62.6528,-139.944,139.944,-139.944c49.7639,0,93.3472,26.0417,118.153,65.1667c-22.2639,-47.7917,-70.5833,-81,-126.792,-81c-77.2917,0,-139.944,62.6528,-139.944,139.944c0,27.5278,8.05556,53.1389,21.7917,74.7917C538.264,430.458,533.458,410.542,533.458,389.444z"/>
       </g>
      </g>
      <g>
       <g>
        <g>
         <path fill="#9B9B9B" d="M128.931,337.597c0,-31.1944,28.0556,-56.4722,62.6667,-56.4722s62.6806,25.2778,62.6806,56.4722l0,66.6528L128.931,404.25L128.931,337.597z"/>
         <path fill="#9B9B9B" d="M599.931,337.597c0,-31.1944,28.0694,-56.4722,62.6806,-56.4722c34.6111,0,62.6806,25.2778,62.6806,56.4722l0,66.6528l-125.347,0L599.944,337.597z"/>
        </g>
        <rect width="125.347" x="599.931" y="404.236" fill="#898989" height="300.583"/>
        <rect width="125.347" x="128.931" y="404.236" fill="#898989" height="300.583"/>
        <g>
         <path fill="#898989" d="M590.875,19.6944L590.875,0L261.764,0l0,19.6944L0,252.542l0,487.014c0,64.4306,51.5278,117.153,114.486,117.153c62.9444,0,147.319,-107.639,302.903,-107.639c155.583,0,242.806,107.639,309.264,107.639l12,0c66.4444,0,120.806,-52.7222,120.806,-117.153L859.458,252.542L590.875,19.6944zM263.667,485.097l0,215.569L119.528,700.667L119.528,485.097c-38.0139,-23.9861,-63.3611,-66.2361,-63.3611,-114.5c0,-74.7917,60.625,-135.417,135.417,-135.417s135.417,60.625,135.417,135.417C327.014,418.861,301.694,461.111,263.667,485.097zM734.667,485.097l0,215.569L590.542,700.667L590.542,485.097c-38.0139,-23.9861,-63.3611,-66.2361,-63.3611,-114.5c0,-74.7917,60.625,-135.417,135.417,-135.417s135.417,60.625,135.417,135.417C798.014,418.861,772.694,461.111,734.667,485.097z"/>
        </g>
        <rect width="329.111" x="261.764" opacity="0.3" fill="#FFFFFF" height="19.6944" enable-background="new    "/>
        <g>
         <path fill="none" d="M191.597,235.181c-74.7917,0,-135.417,60.625,-135.417,135.417c0,48.2778,25.3333,90.5417,63.3611,114.514l0,215.569l144.139,0L263.681,485.097c38.0139,-24,63.3472,-66.2361,63.3472,-114.5C327.014,295.806,266.389,235.181,191.597,235.181z"/>
         <path fill="none" d="M662.597,235.181c-74.7917,0,-135.417,60.625,-135.417,135.417c0,48.2778,25.3333,90.5417,63.3611,114.514l0,215.569l144.139,0L734.681,485.097c38.0139,-24,63.3472,-66.2361,63.3472,-114.5C798.014,295.806,737.389,235.181,662.597,235.181z"/>
         <path fill="#898989" d="M0,252.542l0,487.014c0,21.5278,5.84722,41.6667,15.8611,59.0556L15.8611,238.431L0,252.542z"/>
         <path opacity="0.3" fill="#FFFFFF" enable-background="new    " d="M0,252.542l0,487.014c0,21.5278,5.84722,41.6667,15.8611,59.0556L15.8611,238.431L0,252.542z"/>
         <path fill="#898989" d="M859.458,252.542l-15.8611,-13.7361L843.597,797.222c10.0417,-17.0694,15.8611,-36.7361,15.8611,-57.6667L859.458,252.542z"/>
         <path opacity="0.3" fill="#FFFFFF" enable-background="new    " d="M859.458,252.542l-15.8611,-13.7361L843.597,797.222c10.0417,-17.0694,15.8611,-36.7361,15.8611,-57.6667L859.458,252.542z"/>
        </g>
        <g opacity="0.5">
         <path fill="#FFFFFF" d="M436.472,63.7222l0,74.9583l72.2222,0l0,12.25l-72.2222,0l0,75.5694l-13.1528,0l0,-75.5694l-72.2222,0L351.097,138.681l72.2222,0L423.319,63.7222L436.472,63.7222z"/>
        </g>
       </g>
      </g>
      <g>
       <path fill="#828282" d="M236.792,408.694l-90.5139,0c-3.83333,0,-6.94444,-3.11111,-6.94444,-6.94444s3.11111,-6.94444,6.94444,-6.94444l90.5139,0c3.83333,0,6.94444,3.11111,6.94444,6.94444S240.625,408.694,236.792,408.694z"/>
      </g>
      <g>
       <path fill="#828282" d="M707.861,408.694l-90.5139,0c-3.83333,0,-6.94444,-3.11111,-6.94444,-6.94444s3.11111,-6.94444,6.94444,-6.94444l90.5139,0c3.83333,0,6.94444,3.11111,6.94444,6.94444S711.694,408.694,707.861,408.694z"/>
      </g>
     </g>
     <path opacity="0.3" fill="#FFFFFF" d="M129.083,333.722c0,-28.8611,28.3472,-52.3611,62.5139,-52.3611c34.1806,0,62.3056,23.4861,62.3056,52.3611c0,-24.8889,-32.1111,-45.1389,-62.3056,-45.1389C161.403,288.583,129.083,308.833,129.083,333.722z"/>
     <path opacity="0.3" fill="#FFFFFF" d="M600.194,333.722c0,-28.8611,28.3472,-52.3611,62.5139,-52.3611c34.1806,0,62.3056,23.4861,62.3056,52.3611c0,-24.8889,-32.1111,-45.1389,-62.3056,-45.1389C632.514,288.583,600.194,308.833,600.194,333.722z"/>
    </g>
   </g>
  </g>
  <g transform="translate(413.764,1134.05)">
   <rect width="31.93" x="0" y="0" fill="#8D8C8C" height="31.9" id="connector0pin"/>
   <rect width="16.4442" x="7.79153" y="7.73544" fill="#8C8663" height="16.4152"/>
   <polygon fill="#B8AF82" points="0,31.9,7.79153,24.1368,7.79153,6.97162,0,0"/>
   <polygon fill="#80795B" points="24.2079,7.76321,7.90264,7.76321,0,0,31.93,0"/>
   <polygon fill="#5E5B43" points="24.2079,24.1368,24.2079,7.76321,31.93,0,31.93,31.9"/>
   <polygon fill="#9A916C" points="0,31.9,7.87486,24.1368,24.2079,24.1368,31.93,31.9"/>
  </g>
  <g transform="translate(513.764,1134.05)">
   <rect width="31.93" x="0" y="0" fill="#8D8C8C" height="31.9" id="connector1pin"/>
   <rect width="16.4442" x="7.79153" y="7.73544" fill="#8C8663" height="16.4152"/>
   <polygon fill="#B8AF82" points="0,31.9,7.79153,24.1368,7.79153,6.97162,0,0"/>
   <polygon fill="#80795B" points="24.2079,7.76321,7.90264,7.76321,0,0,31.93,0"/>
   <polygon fill="#5E5B43" points="24.2079,24.1368,24.2079,7.76321,31.93,0,31.93,31.9"/>
   <polygon fill="#9A916C" points="0,31.9,7.87486,24.1368,24.2079,24.1368,31.93,31.9"/>
  </g>
  <g transform="translate(513.764,34.05)">
   <rect width="31.93" x="0" y="0" fill="#8D8C8C" height="31.9" id="connector4pin"/>
   <rect width="16.4442" x="7.79153" y="7.73544" fill="#8C8663" height="16.4152"/>
   <polygon fill="#B8AF82" points="0,31.9,7.79153,24.1368,7.79153,6.97162,0,0"/>
   <polygon fill="#80795B" points="24.2079,7.76321,7.90264,7.76321,0,0,31.93,0"/>
   <polygon fill="#5E5B43" points="24.2079,24.1368,24.2079,7.76321,31.93,0,31.93,31.9"/>
   <polygon fill="#9A916C" points="0,31.9,7.87486,24.1368,24.2079,24.1368,31.93,31.9"/>
  </g>
  <g transform="translate(613.764,1134.05)">
   <rect width="31.93" x="0" y="0" fill="#8D8C8C" height="31.9" id="connector2pin"/>
   <rect width="16.4442" x="7.79153" y="7.73544" fill="#8C8663" height="16.4152"/>
   <polygon fill="#B8AF82" points="0,31.9,7.79153,24.1368,7.79153,6.97162,0,0"/>
   <polygon fill="#80795B" points="24.2079,7.76321,7.90264,7.76321,0,0,31.93,0"/>
   <polygon fill="#5E5B43" points="24.2079,24.1368,24.2079,7.76321,31.93,0,31.93,31.9"/>
   <polygon fill="#9A916C" points="0,31.9,7.87486,24.1368,24.2079,24.1368,31.93,31.9"/>
  </g>
  <g transform="translate(613.764,34.05)">
   <rect width="31.93" x="0" y="0" fill="#8D8C8C" height="31.9" id="connector3pin"/>
   <rect width="16.4442" x="7.79153" y="7.73544" fill="#8C8663" height="16.4152"/>
   <polygon fill="#B8AF82" points="0,31.9,7.79153,24.1368,7.79153,6.97162,0,0"/>
   <polygon fill="#80795B" points="24.2079,7.76321,7.90264,7.76321,0,0,31.93,0"/>
   <polygon fill="#5E5B43" points="24.2079,24.1368,24.2079,7.76321,31.93,0,31.93,31.9"/>
   <polygon fill="#9A916C" points="0,31.9,7.87486,24.1368,24.2079,24.1368,31.93,31.9"/>
  </g>
 </g>
</svg>
