<?xml version='1.0' encoding='UTF-8' standalone='no'?>
<!-- Created with Fritzing (http://www.fritzing.org/) -->
<svg xmlns="http://www.w3.org/2000/svg" width="0.4in" x="0in" version="1.2" y="0in"  height="0.4in" viewBox="0 0 400 400" baseProfile="tiny" xmlns:svg="http://www.w3.org/2000/svg">
 <desc>Fritzing breadboard generated by brd2svg</desc>
 <g id="breadboard">
  <g id="icon">
   <path fill="#1F7A34" stroke="none" stroke-width="0" d="M0,0L0,170A30,30 0 0 1 0,230L0,400L400,400L400,0L0,0z"/>
   <g transform="translate(38.5197,125.197)">
    <g transform="matrix(0.5, 0, 0, 0.5, 80.7402, 37.4016)">
     <rect width="31.4961" x="279.591" y="-8.74191e-15" fill="#8c8c8c" connectorname="1" height="43.307" stroke="none" stroke-linecap="round" stroke-width="0"/>
     <rect width="31.4961" x="212.662" y="-8.74191e-15" fill="#8c8c8c" connectorname="2" height="43.307" stroke="none" stroke-linecap="round" stroke-width="0"/>
     <rect width="31.4961" x="145.732" y="-8.74191e-15" fill="#8c8c8c" connectorname="3" height="43.307" stroke="none" stroke-linecap="round" stroke-width="0"/>
     <rect width="31.4961" x="78.8032" y="-8.74191e-15" fill="#8c8c8c" connectorname="4" height="43.307" stroke="none" stroke-linecap="round" stroke-width="0"/>
     <rect width="31.4961" x="11.874" y="-8.74191e-15" fill="#8c8c8c" connectorname="5" height="43.307" stroke="none" stroke-linecap="round" stroke-width="0"/>
     <rect width="31.4961" x="11.874" y="106.299" fill="#8c8c8c" connectorname="P$1" height="43.307" stroke="none" stroke-linecap="round" stroke-width="0"/>
     <rect width="31.4961" x="283.528" y="106.299" fill="#8c8c8c" connectorname="P$2" height="43.307" stroke="none" stroke-linecap="round" stroke-width="0"/>
     <rect width="322.961" x="0" y="37.3386" fill="#303030" height="74.9291" stroke="none" stroke-width="0"/>
     <polygon fill="#1f1f1f" points="0,37.3386 322.961,37.3386 312.961,47.3386 10,47.3386"/>
     <polygon fill="#1f1f1f" points="0,112.268 322.961,112.268 312.961,102.268 10,102.268"/>
     <polygon fill="#000000" points="0,37.3386 0,112.268 10,102.268 10,47.3386"/>
     <polygon fill="#3d3d3d" points="322.961,37.3386 322.961,112.268 312.961,102.268 312.961,47.3386"/>
     <circle fill="#1f1f1f" cx="30" cy="82.2677" stroke="none" r="10" stroke-width="0"/>
    </g>
   </g>
   <text x="50" y="224.375" font-family="OCRA" fill="white" text-anchor="start" stroke="none" id="label" stroke-width="0" font-size="65">TSOP8523</text>
   <g transform="translate(63.5,326.05)">
    <g transform="rotate(-90)">
     <text x="0" y="0" font-family="OCRA" fill="white" text-anchor="start" stroke="none" stroke-width="0" font-size="45">1</text>
    </g>
   </g>
   <g transform="translate(163.5,326.05)">
    <g transform="rotate(-90)">
     <text x="0" y="0" font-family="OCRA" fill="white" text-anchor="start" stroke="none" stroke-width="0" font-size="45">P$1</text>
    </g>
   </g>
   <g transform="translate(163.5,73.95)">
    <g transform="rotate(-90)">
     <text x="0" y="0" font-family="OCRA" fill="white" text-anchor="end" stroke="none" stroke-width="0" font-size="45">5</text>
    </g>
   </g>
   <g transform="translate(263.5,326.05)">
    <g transform="rotate(-90)">
     <text x="0" y="0" font-family="OCRA" fill="white" text-anchor="start" stroke="none" stroke-width="0" font-size="45">P$2</text>
    </g>
   </g>
   <g transform="translate(263.5,73.95)">
    <g transform="rotate(-90)">
     <text x="0" y="0" font-family="OCRA" fill="white" text-anchor="end" stroke="none" stroke-width="0" font-size="45">4</text>
    </g>
   </g>
   <g transform="translate(363.5,326.05)">
    <g transform="rotate(-90)">
     <text x="0" y="0" font-family="OCRA" fill="white" text-anchor="start" stroke="none" stroke-width="0" font-size="45">2</text>
    </g>
   </g>
   <g transform="translate(363.5,73.95)">
    <g transform="rotate(-90)">
     <text x="0" y="0" font-family="OCRA" fill="white" text-anchor="end" stroke="none" stroke-width="0" font-size="45">3</text>
    </g>
   </g>
  </g>
  <g transform="translate(34.035,334.05)">
   <rect width="31.93" x="0" y="0" fill="#8D8C8C" height="31.9" id="connector0pin"/>
   <rect width="16.4442" x="7.79153" y="7.73544" fill="#8C8663" height="16.4152"/>
   <polygon fill="#B8AF82" points="0,31.9,7.79153,24.1368,7.79153,6.97162,0,0"/>
   <polygon fill="#80795B" points="24.2079,7.76321,7.90264,7.76321,0,0,31.93,0"/>
   <polygon fill="#5E5B43" points="24.2079,24.1368,24.2079,7.76321,31.93,0,31.93,31.9"/>
   <polygon fill="#9A916C" points="0,31.9,7.87486,24.1368,24.2079,24.1368,31.93,31.9"/>
  </g>
  <g transform="translate(134.035,334.05)">
   <rect width="31.93" x="0" y="0" fill="#8D8C8C" height="31.9" id="connector1pin"/>
   <rect width="16.4442" x="7.79153" y="7.73544" fill="#8C8663" height="16.4152"/>
   <polygon fill="#B8AF82" points="0,31.9,7.79153,24.1368,7.79153,6.97162,0,0"/>
   <polygon fill="#80795B" points="24.2079,7.76321,7.90264,7.76321,0,0,31.93,0"/>
   <polygon fill="#5E5B43" points="24.2079,24.1368,24.2079,7.76321,31.93,0,31.93,31.9"/>
   <polygon fill="#9A916C" points="0,31.9,7.87486,24.1368,24.2079,24.1368,31.93,31.9"/>
  </g>
  <g transform="translate(134.035,34.05)">
   <rect width="31.93" x="0" y="0" fill="#8D8C8C" height="31.9" id="connector6pin"/>
   <rect width="16.4442" x="7.79153" y="7.73544" fill="#8C8663" height="16.4152"/>
   <polygon fill="#B8AF82" points="0,31.9,7.79153,24.1368,7.79153,6.97162,0,0"/>
   <polygon fill="#80795B" points="24.2079,7.76321,7.90264,7.76321,0,0,31.93,0"/>
   <polygon fill="#5E5B43" points="24.2079,24.1368,24.2079,7.76321,31.93,0,31.93,31.9"/>
   <polygon fill="#9A916C" points="0,31.9,7.87486,24.1368,24.2079,24.1368,31.93,31.9"/>
  </g>
  <g transform="translate(234.035,334.05)">
   <rect width="31.93" x="0" y="0" fill="#8D8C8C" height="31.9" id="connector2pin"/>
   <rect width="16.4442" x="7.79153" y="7.73544" fill="#8C8663" height="16.4152"/>
   <polygon fill="#B8AF82" points="0,31.9,7.79153,24.1368,7.79153,6.97162,0,0"/>
   <polygon fill="#80795B" points="24.2079,7.76321,7.90264,7.76321,0,0,31.93,0"/>
   <polygon fill="#5E5B43" points="24.2079,24.1368,24.2079,7.76321,31.93,0,31.93,31.9"/>
   <polygon fill="#9A916C" points="0,31.9,7.87486,24.1368,24.2079,24.1368,31.93,31.9"/>
  </g>
  <g transform="translate(234.035,34.05)">
   <rect width="31.93" x="0" y="0" fill="#8D8C8C" height="31.9" id="connector5pin"/>
   <rect width="16.4442" x="7.79153" y="7.73544" fill="#8C8663" height="16.4152"/>
   <polygon fill="#B8AF82" points="0,31.9,7.79153,24.1368,7.79153,6.97162,0,0"/>
   <polygon fill="#80795B" points="24.2079,7.76321,7.90264,7.76321,0,0,31.93,0"/>
   <polygon fill="#5E5B43" points="24.2079,24.1368,24.2079,7.76321,31.93,0,31.93,31.9"/>
   <polygon fill="#9A916C" points="0,31.9,7.87486,24.1368,24.2079,24.1368,31.93,31.9"/>
  </g>
  <g transform="translate(334.035,334.05)">
   <rect width="31.93" x="0" y="0" fill="#8D8C8C" height="31.9" id="connector3pin"/>
   <rect width="16.4442" x="7.79153" y="7.73544" fill="#8C8663" height="16.4152"/>
   <polygon fill="#B8AF82" points="0,31.9,7.79153,24.1368,7.79153,6.97162,0,0"/>
   <polygon fill="#80795B" points="24.2079,7.76321,7.90264,7.76321,0,0,31.93,0"/>
   <polygon fill="#5E5B43" points="24.2079,24.1368,24.2079,7.76321,31.93,0,31.93,31.9"/>
   <polygon fill="#9A916C" points="0,31.9,7.87486,24.1368,24.2079,24.1368,31.93,31.9"/>
  </g>
  <g transform="translate(334.035,34.05)">
   <rect width="31.93" x="0" y="0" fill="#8D8C8C" height="31.9" id="connector4pin"/>
   <rect width="16.4442" x="7.79153" y="7.73544" fill="#8C8663" height="16.4152"/>
   <polygon fill="#B8AF82" points="0,31.9,7.79153,24.1368,7.79153,6.97162,0,0"/>
   <polygon fill="#80795B" points="24.2079,7.76321,7.90264,7.76321,0,0,31.93,0"/>
   <polygon fill="#5E5B43" points="24.2079,24.1368,24.2079,7.76321,31.93,0,31.93,31.9"/>
   <polygon fill="#9A916C" points="0,31.9,7.87486,24.1368,24.2079,24.1368,31.93,31.9"/>
  </g>
 </g>
</svg>
