<?xml version='1.0' encoding='UTF-8' standalone='no'?>
<!-- Created with Fritzing (http://www.fritzing.org/) -->
<svg xmlns="http://www.w3.org/2000/svg" width="2.34in" x="0in" version="1.2" y="0in"  height="0.8in" viewBox="0 0 2340 800" baseProfile="tiny" xmlns:svg="http://www.w3.org/2000/svg">
 <desc>Fritzing breadboard generated by brd2svg</desc>
 <g id="breadboard">
  <g id="icon">
   <path fill="#1F7A34" stroke="none" stroke-width="0" d="M0,0L0,370A30,30 0 0 1 0,430L0,800L2340,800L2340,0L0,0z"/>
   <g transform="translate(100,136.778)">
    <g>
     <g>
      <g>
       <g>
        <g>
         <path fill="#898989" d="M270.778,303.792l0,-102.889l160.764,0c28.4167,0,51.4306,23.0278,51.4306,51.4306c0,28.3889,-23.0556,51.4306,-51.4306,51.4306L270.778,303.792L270.778,303.792z"/>
         <g>
          <path fill="#DBDBDB" d="M29.8056,391.611C15.8611,391.611,0,329.25,0,252.361S15.8472,113.083,29.8333,113.083l29.0972,0l0,278.514L29.8056,391.611L29.8056,391.611z"/>
          <path fill="#898989" d="M29.8056,391.611c-13.9444,0,-20.6528,-62.3611,-20.6528,-139.264c0,-76.8889,6.70833,-139.236,20.6528,-139.236l35.9028,0l0,278.514L29.8056,391.625L29.8056,391.611z"/>
          <g>
           <g>
            <path fill="#7C7C7C" d="M427.931,197.569L427.931,113.083L58.9028,113.083l0,278.514l369.028,0l0,-84.5278l-19.9306,0l0,-109.514L427.931,197.569L427.931,197.569zM245.736,284.347L93.5139,284.347l0,-64.0417l152.222,0c13.8472,0,25.0972,14.3472,25.0972,32.0278C270.778,270.014,259.597,284.347,245.736,284.347z"/>
           </g>
          </g>
          <g>
           <rect width="11.7361" x="55.5833" y="113.278" fill="#3D3D3D" height="278.319"/>
           <rect width="11.7083" x="43.875" y="113.278" fill="#666666" height="278.319"/>
           <rect width="11.7639" x="32.1389" y="113.278" fill="#777777" height="278.319"/>
          </g>
          <path fill="#898989" d="M80.25,252.361c0,37.3194,-11,67.5278,-24.5139,67.5278c-10.8889,0,-13.7778,-30.25,-13.7778,-67.5278c0,-37.3056,2.91667,-67.5139,13.7778,-67.5139C69.2639,184.792,80.25,215.028,80.25,252.361z"/>
          <path opacity="0.5" fill="none" stroke="#A5A5A5" stroke-linecap="round" enable-background="new    " stroke-width="3.01528" d="M55.7222,319.889c-7.65278,0,-13.7778,-30.25,-13.7778,-67.5278c0,-37.3056,6.16667,-67.5139,13.7778,-67.5139" stroke-miterlimit="10"/>
          <path fill="none" stroke="#606060" stroke-width="4.52222" d="M55.7083,319.889c13.5694,0,24.5417,-30.25,24.5417,-67.5278c0,-37.3056,-11,-67.5278,-24.5417,-67.5278" stroke-miterlimit="10"/>
          <g>
           <path fill="none" stroke="#A5A5A5" stroke-linecap="round" stroke-width="3.90139" d="M67.0833,296.306c4.47222,-10.7083,7.40278,-26.3333,7.40278,-43.9583c0,-17.6528,-2.93056,-33.2222,-7.40278,-43.9306" stroke-miterlimit="10"/>
          </g>
         </g>
         <rect width="4.47222" x="403.5" opacity="0.2" y="197.569" fill="#FFFFFF" height="109.528" enable-background="new    "/>
        </g>
        <g>
         <path fill="#898989" d="M1869.46,303.792l0,-102.889l-160.722,0c-28.375,0,-51.4167,23.0278,-51.4167,51.4306c0,28.3889,23.0694,51.4306,51.4167,51.4306L1869.46,303.792L1869.46,303.792z"/>
         <g>
          <path fill="#DBDBDB" d="M2110.47,391.611c13.9167,0,29.8333,-62.3611,29.8333,-139.264c0,-76.8889,-15.9167,-139.236,-29.8333,-139.236l-29.1111,0l0,278.514L2110.47,391.625L2110.47,391.611z"/>
          <path fill="#898989" d="M2110.47,391.611c13.9167,0,20.6389,-62.3611,20.6389,-139.264c0,-76.8889,-6.72222,-139.236,-20.6389,-139.236l-35.8889,0l0,278.514L2110.47,391.625L2110.47,391.611z"/>
          <g>
           <g>
            <path fill="#7C7C7C" d="M1712.33,113.083l0,84.4722l19.9722,0l0,109.514l-19.9722,0l0,84.5278l369.028,0L2081.36,113.083L1712.33,113.083zM2046.78,284.347l-152.208,0c-13.8611,0,-25.1528,-14.375,-25.1528,-32.0278c0,-17.6667,11.2361,-32.0139,25.1528,-32.0139l152.208,0L2046.78,284.347z"/>
           </g>
          </g>
          <g>
           <rect width="11.7222" x="2072.96" y="113.278" fill="#3D3D3D" height="278.319"/>
           <rect width="11.7222" x="2084.68" y="113.278" fill="#666666" height="278.319"/>
           <rect width="11.75" x="2096.39" y="113.278" fill="#777777" height="278.319"/>
          </g>
          <path fill="#898989" d="M2060.01,252.361c0,37.3194,11.0417,67.5278,24.5,67.5278c10.9028,0,13.8333,-30.25,13.8333,-67.5278c0,-37.3056,-2.95833,-67.5139,-13.8333,-67.5139C2071.03,184.792,2060.01,215.028,2060.01,252.361z"/>
          <path opacity="0.5" fill="none" stroke="#A5A5A5" stroke-linecap="round" enable-background="new    " stroke-width="3.01528" d="M2084.51,319.889c7.68056,0,13.8333,-30.25,13.8333,-67.5278c0,-37.3056,-6.18056,-67.5139,-13.8333,-67.5139" stroke-miterlimit="10"/>
          <path fill="none" stroke="#606060" stroke-width="4.52222" d="M2084.57,319.889c-13.5417,0,-24.5278,-30.25,-24.5278,-67.5278c0,-37.3056,11.0139,-67.5139,24.5278,-67.5139" stroke-miterlimit="10"/>
          <g>
           <path fill="none" stroke="#A5A5A5" stroke-linecap="round" stroke-width="3.90139" d="M2073.18,296.306c-4.43056,-10.7083,-7.30556,-26.3333,-7.30556,-43.9583c0,-17.6528,2.875,-33.2222,7.33333,-43.9306" stroke-miterlimit="10"/>
          </g>
         </g>
         <rect width="4.5" x="1732.31" opacity="0.2" y="197.569" fill="#FFFFFF" height="109.528" enable-background="new    "/>
        </g>
       </g>
       <g>
        <path fill="#353535" d="M2046.75,449.958c0,28.2361,-26.8611,51.2639,-59.5972,51.2639L114.181,501.222c-32.7917,0,-59.6111,-23.0278,-59.6111,-51.2639L54.5694,73.9444c0,-28.1944,26.8194,-51.2917,59.6111,-51.2917l1872.97,0c32.7639,0,59.5972,23.0972,59.5972,51.2917L2046.75,449.958L2046.75,449.958z"/>
        <path fill="#CE925D" d="M1473.29,23.4444l517.819,0c32.7917,0,59.625,23.0556,59.625,51.2778l0,376.125c0,28.1806,-26.8333,51.2639,-59.625,51.2639l-517.819,0L1473.29,23.4444z"/>
        <path opacity="0.35" enable-background="new    " d="M118.736,481.639c-24.7083,0,-56.1944,-19.6944,-56.1944,-43l0,-107.611c0,23.3333,31.4861,59.875,56.1944,59.875l1859.31,0c24.6806,0,56.2083,-36.5417,56.2083,-59.875l0,107.653c0,23.3611,-31.5278,42.9722,-56.2083,42.9722L118.736,481.639L118.736,481.639z"/>
        <path fill="#B2B2B2" d="M2045.07,258.778c0,107.194,-4.72222,194.111,-10.6389,194.111c-5.86111,0,-5.86111,-388.139,0,-388.139C2040.38,64.75,2045.07,151.625,2045.07,258.778"/>
        <path fill="#606060" d="M2041.11,324.917c-3.90278,0,-3.90278,-143.361,0,-143.361l-0.111111,0.0138889c0,8.84722,4.23611,15.9722,4.23611,15.9722c10.25,0,18.6111,7.16667,18.6111,16.0139l0,79.2917c0,8.83333,-8.38889,15.9861,-18.6111,15.9861c0,0,-4.23611,7.16667,-4.23611,15.9861L2041.11,324.917L2041.11,324.917z"/>
       </g>
       <g>
        <text fill="#FFFFFF" font-family="'OCRA'" transform="matrix(1, 0, 0, 1, 458.232, 307.099)" font-size="161.096">AA Battery</text>
       </g>
       <g>
        <g opacity="0.35">
         <g>
          <path fill="#FFFFFF" d="M1754.65,75.375c-25.1528,0,-45.6806,-7.52778,-45.6806,-16.7639s-20.5417,-16.7639,-45.6528,-16.7639L479.361,41.8472c-25.125,0,-45.6667,7.52778,-45.6667,16.7639s-20.5278,16.7639,-45.6667,16.7639L151.958,75.375c-25.1528,0,-45.6528,20.5417,-45.6528,45.6528l0,29.9722c0,25.1528,20.5139,45.6528,45.6528,45.6528l1791.25,0c25.1528,0,45.6806,-20.5417,45.6806,-45.6528L1988.89,121.056c0,-25.1389,-20.5417,-45.6528,-45.6806,-45.6528L1754.65,75.375L1754.65,75.375z"/>
          <path fill="#FFFFFF" d="M1754.65,75.375c-25.1528,0,-45.6806,-7.52778,-45.6806,-16.7639s-20.5417,-16.7639,-45.6528,-16.7639L479.361,41.8472c-25.125,0,-45.6667,7.52778,-45.6667,16.7639s-20.5278,16.7639,-45.6667,16.7639L151.958,75.375c-25.1528,0,-45.6528,20.5417,-45.6528,45.6528l0,29.9722c0,25.1528,20.5139,45.6528,45.6528,45.6528l1791.25,0c25.1528,0,45.6806,-20.5417,45.6806,-45.6528L1988.89,121.056c0,-25.1389,-20.5417,-45.6528,-45.6806,-45.6528L1754.65,75.375L1754.65,75.375z"/>
         </g>
        </g>
       </g>
       <g>
        <g>
         <g>
          <path fill="#DBDBDB" d="M2012.51,24.3472c0,-7.75,-9.93056,-24.3472,-52.9722,-24.3472l-174.236,0c-42.9444,0,-52.9722,16.5972,-52.9722,24.3472l0,26.0278l280.222,0L2012.51,24.3472L2012.51,24.3472z"/>
         </g>
         <g>
          <path fill="#898989" d="M2012.51,24.3472c0,-5.36111,-9.93056,-21.1944,-52.9722,-19.9583l-174.236,0c-42.9444,-1.27778,-52.9722,15.7917,-52.9722,19.9583L1732.33,48.75l280.222,0L2012.51,24.3472L2012.51,24.3472z"/>
         </g>
         <g>
          <rect width="280.222" x="1732.31" y="45.125" fill="#3D3D3D" height="10.7361"/>
          <rect width="280.222" x="1732.31" y="34.3472" fill="#666666" height="10.7361"/>
          <rect width="280.222" x="1732.31" y="23.625" fill="#777777" height="10.7222"/>
         </g>
        </g>
        <g>
         <g>
          <path fill="#DBDBDB" d="M2012.51,502.181c0,7.70833,-9.93056,24.3194,-52.9722,24.3194l-174.236,0c-42.9444,0,-52.9722,-16.6111,-52.9722,-24.3194l0,-26l280.222,0L2012.51,502.181L2012.51,502.181z"/>
         </g>
         <g>
          <path fill="#898989" d="M2012.51,502.181c0,5.36111,-9.93056,21.1806,-52.9722,19.9722l-174.236,0c-42.9444,1.23611,-52.9722,-15.7917,-52.9722,-19.9722l0,-24.4167l280.222,0L2012.51,502.181L2012.51,502.181z"/>
         </g>
         <g>
          <rect width="280.222" x="1732.31" y="470.639" fill="#3D3D3D" height="10.75"/>
          <rect width="280.222" x="1732.31" y="481.431" fill="#666666" height="10.7083"/>
          <rect width="280.222" x="1732.31" y="492.097" fill="#777777" height="10.7361"/>
         </g>
        </g>
        <g>
         <g>
          <g>
           <path fill="#DBDBDB" d="M127.764,24.3472C127.764,16.5972,137.722,0,180.778,0l174.181,0c43,0,53,16.5972,53,24.3472l0,26.0278L127.764,50.375L127.764,24.3472z"/>
          </g>
          <g>
           <path fill="#898989" d="M127.764,24.3472c0,-5.36111,9.94444,-21.1944,53.0139,-19.9583l174.181,0c43,-1.27778,53,15.7917,53,19.9583L407.958,48.75L127.764,48.75L127.764,24.3472z"/>
          </g>
          <g>
           <rect width="280.222" x="127.764" y="45.125" fill="#3D3D3D" height="10.7361"/>
           <rect width="280.222" x="127.764" y="34.3472" fill="#666666" height="10.7361"/>
           <rect width="280.222" x="127.764" y="23.625" fill="#777777" height="10.7222"/>
          </g>
         </g>
        </g>
        <g>
         <g>
          <path fill="#DBDBDB" d="M127.764,502.181c0,7.70833,9.94444,24.3194,53.0139,24.3194l174.181,0c43,0,53,-16.6111,53,-24.3194l0,-26L127.764,476.181L127.764,502.181z"/>
         </g>
         <g>
          <path fill="#898989" d="M127.764,502.181c0,5.36111,9.94444,21.1806,53.0139,19.9722l174.181,0c43,1.23611,53,-15.7917,53,-19.9722l0,-24.4167L127.764,477.764L127.764,502.181z"/>
         </g>
         <g>
          <rect width="280.222" x="127.764" y="470.639" fill="#3D3D3D" height="10.75"/>
          <rect width="280.222" x="127.764" y="481.431" fill="#666666" height="10.7083"/>
          <rect width="280.222" x="127.764" y="492.097" fill="#777777" height="10.7361"/>
         </g>
        </g>
       </g>
      </g>
      <text fill="#F8F8F8" font-family="'OCRA'" transform="matrix(1, 0, 0, 1, 1872.44, 303.803)" font-size="130">+</text>
      <text fill="#F8F8F8" font-family="'OCRA'" transform="matrix(1, 0, 0, 1, 168.315, 296.315)" font-size="130">-</text>
     </g>
    </g>
   </g>
  </g>
  <g transform="translate(1154.04,734.05)">
   <rect width="31.93" x="0" y="0" fill="#8D8C8C" height="31.9" id="connector0pin"/>
   <rect width="16.4442" x="7.79153" y="7.73544" fill="#8C8663" height="16.4152"/>
   <polygon fill="#B8AF82" points="0,31.9,7.79153,24.1368,7.79153,6.97162,0,0"/>
   <polygon fill="#80795B" points="24.2079,7.76321,7.90264,7.76321,0,0,31.93,0"/>
   <polygon fill="#5E5B43" points="24.2079,24.1368,24.2079,7.76321,31.93,0,31.93,31.9"/>
   <polygon fill="#9A916C" points="0,31.9,7.87486,24.1368,24.2079,24.1368,31.93,31.9"/>
  </g>
  <g transform="translate(1154.04,34.05)">
   <rect width="31.93" x="0" y="0" fill="#8D8C8C" height="31.9" id="connector1pin"/>
   <rect width="16.4442" x="7.79153" y="7.73544" fill="#8C8663" height="16.4152"/>
   <polygon fill="#B8AF82" points="0,31.9,7.79153,24.1368,7.79153,6.97162,0,0"/>
   <polygon fill="#80795B" points="24.2079,7.76321,7.90264,7.76321,0,0,31.93,0"/>
   <polygon fill="#5E5B43" points="24.2079,24.1368,24.2079,7.76321,31.93,0,31.93,31.9"/>
   <polygon fill="#9A916C" points="0,31.9,7.87486,24.1368,24.2079,24.1368,31.93,31.9"/>
  </g>
 </g>
</svg>
