<?xml version="1.0" encoding="utf-8"?>
<!-- Generator: Adobe Illustrator 16.0.0, SVG Export Plug-In . SVG Version: 6.00 Build 0)  -->
<svg version="1.2" baseProfile="tiny" id="Layer_1" xmlns:svg="http://www.w3.org/2000/svg"
	 xmlns="http://www.w3.org/2000/svg" xmlns:xlink="http://www.w3.org/1999/xlink" x="0px" y="0px" width="180px" height="158.4px"
	 viewBox="0 0 180 158.4" xml:space="preserve">
<g id="breadboard">
	<g id="icon">
		<path fill="#1F7A34" d="M0,0v77.04c1.193,0,2.16,0.967,2.16,2.16S1.193,81.36,0,81.36v77.04h180V0H0z"/>
		<g transform="translate(385.825,160.18)">
			<rect x="-237.647" y="-139.19" fill="#666666" width="4.043" height="58"/>
			<rect x="-358.046" y="-24.206" fill="#666666" width="124.441" height="10.894"/>
			<polygon fill="#CCCCCC" points="-233.604,-139.19 -233.604,-148.647 -358.046,-148.647 -358.046,-24.206 -233.604,-24.206 
				-233.604,-89.44 -236.397,-89.44 -236.397,-139.19 			"/>
			<rect x="-358.046" y="-148.647" fill="#FFFFFF" fill-opacity="0.2" width="124.441" height="1.457"/>
			<rect x="-358.046" y="-25.663" fill="#FFFFFF" fill-opacity="0.2" width="124.441" height="1.457"/>
			<g>
				<path fill="#FFFFFF" d="M-240.315-96.19c0,3.85-3.149,7-7,7h-69.833c-3.85,0-7-3.15-7-7v-30.333c0-3.85,3.15-7,7-7h69.833
					c3.851,0,7,3.15,7,7V-96.19z"/>
			</g>
			<path fill="none" stroke="#333333" stroke-width="0.6944" stroke-miterlimit="10" d="M-247.313-127.856h-50.5c-1.1,0-2,0.9-2,2
				v19.167l10.333,10.333h42.168c1.1,0,2-0.9,2-2v-27.5C-245.313-126.956-246.215-127.856-247.313-127.856z"/>
			<text transform="matrix(1 0 0 1 -297.7298 -121.8023)" fill="#333333" font-family="'DroidSans'" font-size="5.6042">P</text>
			<text transform="matrix(1 0 0 1 -294.5008 -121.8023)" fill="#333333" font-family="'DroidSans'" font-size="5.6042">U</text>
			<text transform="matrix(1 0 0 1 -290.5877 -121.8023)" fill="#333333" font-family="'DroidSans'" font-size="5.6042">S</text>
			<text transform="matrix(1 0 0 1 -287.6785 -121.8023)" fill="#333333" font-family="'DroidSans'" font-size="5.6042">H</text>
			<text transform="matrix(1 0 0 1 -283.7488 -121.8023)" fill="#333333" font-family="'DroidSans'" font-size="5.6042"> </text>
			<text transform="matrix(1 0 0 1 -282.2938 -121.8023)" fill="#333333" font-family="'DroidSans'" font-size="5.6042">P</text>
			<text transform="matrix(1 0 0 1 -279.0652 -121.8023)" fill="#333333" font-family="'DroidSans'" font-size="5.6042">U</text>
			<text transform="matrix(1 0 0 1 -275.1512 -121.8023)" fill="#333333" font-family="'DroidSans'" font-size="5.6042">S</text>
			<text transform="matrix(1 0 0 1 -272.243 -121.8023)" fill="#333333" font-family="'DroidSans'" font-size="5.6042">H</text>
			<text transform="matrix(1 0 0 1 -268.3133 -121.8023)" fill="#333333" font-family="'DroidSans'" font-size="5.6042"> </text>
			<text transform="matrix(1 0 0 1 -266.8582 -121.8023)" fill="#333333" font-family="'DroidSans'" font-size="5.6042">S</text>
			<text transform="matrix(1 0 0 1 -263.9481 -121.8023)" fill="#333333" font-family="'DroidSans'" font-size="5.6042">Y</text>
			<text transform="matrix(1 0 0 1 -261.0506 -121.8023)" fill="#333333" font-family="'DroidSans'" font-size="5.6042">S</text>
			<text transform="matrix(1 0 0 1 -258.1414 -121.8023)" fill="#333333" font-family="'DroidSans'" font-size="5.6042">T</text>
			<text transform="matrix(1 0 0 1 -255.2332 -121.8023)" fill="#333333" font-family="'DroidSans'" font-size="5.6042">E</text>
			<text transform="matrix(1 0 0 1 -252.2752 -121.8023)" fill="#333333" font-family="'DroidSans'" font-size="5.6042">M</text>
			<polygon fill="#333333" points="-275.403,-115.565 -275.403,-119.44 -281.789,-112.7 -275.403,-106.315 -275.403,-110.19 
				-263.341,-110.19 -263.341,-115.565 			"/>
			<g>
				<path fill="#FFFFFF" d="M-240.315-39.856c0,3.851-3.149,7-7,7h-99.698c-3.85,0-7-3.15-7-7V-70.19c0-3.851,3.15-7,7-7h99.698
					c3.85,0,7,3.149,7,7V-39.856L-240.315-39.856z"/>
			</g>
			<g>
				
					<line fill="none" stroke="#333333" stroke-width="0.5556" stroke-miterlimit="10" x1="-245.52" y1="-63.911" x2="-245.52" y2="-47.19"/>
				
					<line fill="none" stroke="#333333" stroke-width="0.6944" stroke-miterlimit="10" x1="-247.211" y1="-63.911" x2="-247.211" y2="-47.19"/>
				
					<line fill="none" stroke="#333333" stroke-width="0.5556" stroke-miterlimit="10" x1="-248.902" y1="-63.911" x2="-248.902" y2="-47.19"/>
				
					<line fill="none" stroke="#333333" stroke-width="0.6944" stroke-miterlimit="10" x1="-250.596" y1="-63.911" x2="-250.596" y2="-47.19"/>
				
					<line fill="none" stroke="#333333" stroke-width="0.6944" stroke-miterlimit="10" x1="-252.288" y1="-63.911" x2="-252.288" y2="-47.19"/>
				
					<line fill="none" stroke="#333333" stroke-width="1.0417" stroke-miterlimit="10" x1="-253.98" y1="-63.911" x2="-253.98" y2="-47.19"/>
				
					<line fill="none" stroke="#333333" stroke-width="0.3472" stroke-miterlimit="10" x1="-255.671" y1="-63.911" x2="-255.671" y2="-47.19"/>
				
					<line fill="none" stroke="#333333" stroke-width="0.6944" stroke-miterlimit="10" x1="-257.362" y1="-63.911" x2="-257.362" y2="-47.19"/>
				
					<line fill="none" stroke="#333333" stroke-width="0.6944" stroke-miterlimit="10" x1="-259.055" y1="-63.911" x2="-259.055" y2="-47.19"/>
				
					<line fill="none" stroke="#333333" stroke-width="0.3472" stroke-miterlimit="10" x1="-260.748" y1="-63.911" x2="-260.748" y2="-47.19"/>
				
					<line fill="none" stroke="#333333" stroke-width="1.0417" stroke-miterlimit="10" x1="-262.44" y1="-63.911" x2="-262.44" y2="-47.19"/>
				
					<line fill="none" stroke="#333333" stroke-width="0.5556" stroke-miterlimit="10" x1="-264.133" y1="-63.911" x2="-264.133" y2="-47.19"/>
				
					<line fill="none" stroke="#333333" stroke-width="0.6944" stroke-miterlimit="10" x1="-265.821" y1="-63.911" x2="-265.821" y2="-47.19"/>
				
					<line fill="none" stroke="#333333" stroke-width="0.3472" stroke-miterlimit="10" x1="-267.513" y1="-63.911" x2="-267.513" y2="-47.19"/>
				
					<line fill="none" stroke="#333333" stroke-width="0.6944" stroke-miterlimit="10" x1="-269.208" y1="-63.911" x2="-269.208" y2="-47.19"/>
				
					<line fill="none" stroke="#333333" stroke-width="0.6944" stroke-miterlimit="10" x1="-270.898" y1="-63.911" x2="-270.898" y2="-47.19"/>
				
					<line fill="none" stroke="#333333" stroke-width="0.6944" stroke-miterlimit="10" x1="-272.591" y1="-63.911" x2="-272.591" y2="-47.19"/>
				
					<line fill="none" stroke="#333333" stroke-width="0.6944" stroke-miterlimit="10" x1="-274.282" y1="-63.911" x2="-274.282" y2="-47.19"/>
				
					<line fill="none" stroke="#333333" stroke-width="0.3472" stroke-miterlimit="10" x1="-275.973" y1="-63.911" x2="-275.973" y2="-47.19"/>
				
					<line fill="none" stroke="#333333" stroke-width="0.6944" stroke-miterlimit="10" x1="-277.665" y1="-63.911" x2="-277.665" y2="-47.19"/>
				
					<line fill="none" stroke="#333333" stroke-width="0.5556" stroke-miterlimit="10" x1="-279.358" y1="-63.911" x2="-279.358" y2="-47.19"/>
				
					<line fill="none" stroke="#333333" stroke-width="0.6944" stroke-miterlimit="10" x1="-281.05" y1="-63.911" x2="-281.05" y2="-47.19"/>
				
					<line fill="none" stroke="#333333" stroke-width="1.0417" stroke-miterlimit="10" x1="-282.741" y1="-63.911" x2="-282.741" y2="-47.19"/>
				
					<line fill="none" stroke="#333333" stroke-width="0.6944" stroke-miterlimit="10" x1="-284.432" y1="-63.911" x2="-284.432" y2="-47.19"/>
				
					<line fill="none" stroke="#333333" stroke-width="0.6944" stroke-miterlimit="10" x1="-286.125" y1="-63.911" x2="-286.125" y2="-47.19"/>
				
					<line fill="none" stroke="#333333" stroke-width="1.0417" stroke-miterlimit="10" x1="-287.817" y1="-63.911" x2="-287.817" y2="-47.19"/>
				
					<line fill="none" stroke="#333333" stroke-width="0.6944" stroke-miterlimit="10" x1="-289.511" y1="-63.911" x2="-289.511" y2="-47.19"/>
				
					<line fill="none" stroke="#333333" stroke-width="0.3472" stroke-miterlimit="10" x1="-291.202" y1="-63.911" x2="-291.202" y2="-47.19"/>
				
					<line fill="none" stroke="#333333" stroke-width="0.6944" stroke-miterlimit="10" x1="-292.891" y1="-63.911" x2="-292.891" y2="-47.19"/>
				
					<line fill="none" stroke="#333333" stroke-width="0.6944" stroke-miterlimit="10" x1="-294.584" y1="-63.911" x2="-294.584" y2="-47.19"/>
				
					<line fill="none" stroke="#333333" stroke-width="1.0417" stroke-miterlimit="10" x1="-296.278" y1="-63.911" x2="-296.278" y2="-47.19"/>
				
					<line fill="none" stroke="#333333" stroke-width="0.6944" stroke-miterlimit="10" x1="-297.97" y1="-63.911" x2="-297.97" y2="-47.19"/>
				
					<line fill="none" stroke="#333333" stroke-width="0.3472" stroke-miterlimit="10" x1="-299.66" y1="-63.911" x2="-299.66" y2="-47.19"/>
				
					<line fill="none" stroke="#333333" stroke-width="0.6944" stroke-miterlimit="10" x1="-301.351" y1="-63.911" x2="-301.351" y2="-47.19"/>
				
					<line fill="none" stroke="#333333" stroke-width="0.6944" stroke-miterlimit="10" x1="-303.044" y1="-63.911" x2="-303.044" y2="-47.19"/>
				
					<line fill="none" stroke="#333333" stroke-width="0.6944" stroke-miterlimit="10" x1="-304.735" y1="-63.911" x2="-304.735" y2="-47.19"/>
				
					<line fill="none" stroke="#333333" stroke-width="0.5556" stroke-miterlimit="10" x1="-306.429" y1="-63.911" x2="-306.429" y2="-47.19"/>
				
					<line fill="none" stroke="#333333" stroke-width="1.0417" stroke-miterlimit="10" x1="-308.12" y1="-63.911" x2="-308.12" y2="-47.19"/>
				
					<line fill="none" stroke="#333333" stroke-width="0.6944" stroke-miterlimit="10" x1="-309.81" y1="-63.911" x2="-309.81" y2="-47.19"/>
				
					<line fill="none" stroke="#333333" stroke-width="0.3472" stroke-miterlimit="10" x1="-311.503" y1="-63.911" x2="-311.503" y2="-47.19"/>
				
					<line fill="none" stroke="#333333" stroke-width="0.6944" stroke-miterlimit="10" x1="-313.195" y1="-63.911" x2="-313.195" y2="-47.19"/>
				
					<line fill="none" stroke="#333333" stroke-width="0.6944" stroke-miterlimit="10" x1="-314.888" y1="-63.911" x2="-314.888" y2="-47.19"/>
				
					<line fill="none" stroke="#333333" stroke-width="1.0417" stroke-miterlimit="10" x1="-316.579" y1="-63.911" x2="-316.579" y2="-47.19"/>
				
					<line fill="none" stroke="#333333" stroke-width="0.6944" stroke-miterlimit="10" x1="-318.272" y1="-63.911" x2="-318.272" y2="-47.19"/>
				
					<line fill="none" stroke="#333333" stroke-width="0.6944" stroke-miterlimit="10" x1="-319.962" y1="-63.911" x2="-319.962" y2="-47.19"/>
				
					<line fill="none" stroke="#333333" stroke-width="0.6944" stroke-miterlimit="10" x1="-321.654" y1="-63.911" x2="-321.654" y2="-47.19"/>
				
					<line fill="none" stroke="#333333" stroke-width="0.6944" stroke-miterlimit="10" x1="-323.347" y1="-63.911" x2="-323.347" y2="-47.19"/>
				
					<line fill="none" stroke="#333333" stroke-width="1.0417" stroke-miterlimit="10" x1="-325.039" y1="-63.911" x2="-325.039" y2="-47.19"/>
				
					<line fill="none" stroke="#333333" stroke-width="0.6944" stroke-miterlimit="10" x1="-326.732" y1="-63.911" x2="-326.732" y2="-47.19"/>
				
					<line fill="none" stroke="#333333" stroke-width="0.6944" stroke-miterlimit="10" x1="-328.422" y1="-63.911" x2="-328.422" y2="-47.19"/>
				
					<line fill="none" stroke="#333333" stroke-width="0.6944" stroke-miterlimit="10" x1="-330.114" y1="-63.911" x2="-330.114" y2="-47.19"/>
				
					<line fill="none" stroke="#333333" stroke-width="0.3472" stroke-miterlimit="10" x1="-331.805" y1="-63.911" x2="-331.805" y2="-47.19"/>
				
					<line fill="none" stroke="#333333" stroke-width="1.0417" stroke-miterlimit="10" x1="-333.498" y1="-63.911" x2="-333.498" y2="-47.19"/>
				
					<line fill="none" stroke="#333333" stroke-width="0.6944" stroke-miterlimit="10" x1="-335.191" y1="-63.911" x2="-335.191" y2="-47.19"/>
				
					<line fill="none" stroke="#333333" stroke-width="0.3472" stroke-miterlimit="10" x1="-336.881" y1="-63.911" x2="-336.881" y2="-47.19"/>
				
					<line fill="none" stroke="#333333" stroke-width="0.6944" stroke-miterlimit="10" x1="-338.573" y1="-63.911" x2="-338.573" y2="-47.19"/>
				
					<line fill="none" stroke="#333333" stroke-width="0.6944" stroke-miterlimit="10" x1="-340.264" y1="-63.911" x2="-340.264" y2="-47.19"/>
				
					<line fill="none" stroke="#333333" stroke-width="0.5556" stroke-miterlimit="10" x1="-341.959" y1="-63.911" x2="-341.959" y2="-47.19"/>
				
					<line fill="none" stroke="#333333" stroke-width="1.0417" stroke-miterlimit="10" x1="-343.65" y1="-63.911" x2="-343.65" y2="-47.19"/>
				
					<line fill="none" stroke="#333333" stroke-width="0.3472" stroke-miterlimit="10" x1="-345.342" y1="-63.911" x2="-345.342" y2="-47.19"/>
				
					<line fill="none" stroke="#333333" stroke-width="0.6944" stroke-miterlimit="10" x1="-347.033" y1="-63.911" x2="-347.033" y2="-47.19"/>
			</g>
			<g>
				<rect x="-358.046" y="-22.44" fill-opacity="0.15" width="124.441" height="4.265"/>
				<path fill="#B3B3B3" d="M-357.379-19.198h6.731v-2.162h1.333v2.162h19v-2.162h1.333v2.162h3.834v-1.325h8.166v1.325h48.667
					v-2.162h1.334v2.162h3.517c0.28-1.658,2.097-2.942,4.317-2.942s4.037,1.284,4.316,2.942h15.85v-2.162h1.334v2.162h4.044v-5.009
					l-124.442,0.001v2.846h0.667V-19.198z"/>
				<path fill="#B3B3B3" d="M-238.981-16.159v-2.162h-15.85c-0.279,1.658-2.096,2.942-4.316,2.942s-4.037-1.284-4.317-2.942h-3.517
					v2.162h-1.334v-2.162l-48.667,0.001h-8.166h-3.834v2.162h-1.333v-2.162h-19v2.162l-1.333-0.001v-2.162l-6.731,0.001v2.162
					l-0.667-0.001v2.847h124.441v-5.009h-4.044v2.162H-238.981z"/>
			</g>
			<rect x="-358.046" y="-14.771" fill-opacity="0.15" width="124.441" height="1.457"/>
			<ellipse fill="#F7931E" cx="-259.149" cy="-18.759" rx="3.815" ry="2.947"/>
			<ellipse fill="#7C4A0F" cx="-259.149" cy="-18.759" rx="3.367" ry="2.601"/>
			<path fill="#FBB03B" d="M-259.147-18.321c-1.357,0-2.521-0.625-3.055-1.521c-0.195,0.33-0.313,0.694-0.313,1.081
				c0,1.437,1.508,2.601,3.365,2.601c1.858,0,3.365-1.164,3.365-2.601c0-0.387-0.115-0.751-0.313-1.081
				C-256.628-18.946-257.791-18.321-259.147-18.321z"/>
		</g>
	</g>
	<g transform="translate(34.035,2134.05)">
		<rect id="connector8pin" x="-31.584" y="-1980.399" fill="#8D8C8C" width="2.299" height="2.297"/>
		<rect x="-31.023" y="-1979.841" fill="#8C8663" width="1.184" height="1.182"/>
		<polygon fill="#B8AF82" points="-31.584,-1978.102 -31.023,-1978.661 -31.023,-1979.897 -31.584,-1980.399 		"/>
		<polygon fill="#80795B" points="-29.842,-1979.839 -31.015,-1979.839 -31.584,-1980.399 -29.285,-1980.399 		"/>
		<polygon fill="#5E5B43" points="-29.842,-1978.661 -29.842,-1979.839 -29.285,-1980.399 -29.285,-1978.102 		"/>
		<polygon fill="#9A916C" points="-31.584,-1978.102 -31.017,-1978.661 -29.842,-1978.661 -29.285,-1978.102 		"/>
	</g>
	<g transform="translate(34.035,34.05)">
		<rect id="connector57pin" x="-31.584" y="-31.598" fill="#8D8C8C" width="2.299" height="2.297"/>
		<rect x="-31.023" y="-31.041" fill="#8C8663" width="1.184" height="1.182"/>
		<polygon fill="#B8AF82" points="-31.584,-29.301 -31.023,-29.861 -31.023,-31.096 -31.584,-31.598 		"/>
		<polygon fill="#80795B" points="-29.842,-31.039 -31.015,-31.039 -31.584,-31.598 -29.285,-31.598 		"/>
		<polygon fill="#5E5B43" points="-29.842,-29.861 -29.842,-31.039 -29.285,-31.598 -29.285,-29.301 		"/>
		<polygon fill="#9A916C" points="-31.584,-29.301 -31.017,-29.861 -29.842,-29.861 -29.285,-29.301 		"/>
	</g>
	<g transform="translate(134.035,2134.05)">
		<rect id="connector9pin" x="-124.385" y="-1980.399" fill="#8D8C8C" width="2.299" height="2.297"/>
		<rect id="connector7pin" x="-124.385" y="-1980.399" fill="#8D8C8C" width="2.299" height="2.297"/>
		<rect id="connector6pin" x="-124.385" y="-1980.399" fill="#8D8C8C" width="2.299" height="2.297"/>
		<rect id="connector5pin" x="-124.385" y="-1980.399" fill="#8D8C8C" width="2.299" height="2.297"/>
		<rect id="connector4pin" x="-124.385" y="-1980.399" fill="#8D8C8C" width="2.299" height="2.297"/>
		<rect id="connector3pin" x="-124.385" y="-1980.399" fill="#8D8C8C" width="2.299" height="2.297"/>
		<rect id="connector2pin" x="-124.385" y="-1980.399" fill="#8D8C8C" width="2.299" height="2.297"/>
		<rect id="connector1pin" x="-124.385" y="-1980.399" fill="#8D8C8C" width="2.299" height="2.297"/>
		<rect id="connector0pin" x="-124.385" y="-1980.399" fill="#8D8C8C" width="2.299" height="2.297"/>
		<rect x="-123.824" y="-1979.841" fill="#8C8663" width="1.184" height="1.182"/>
		<polygon fill="#B8AF82" points="-124.385,-1978.102 -123.824,-1978.661 -123.824,-1979.897 -124.385,-1980.399 		"/>
		<polygon fill="#80795B" points="-122.641,-1979.839 -123.815,-1979.839 -124.385,-1980.399 -122.085,-1980.399 		"/>
		<polygon fill="#5E5B43" points="-122.641,-1978.661 -122.641,-1979.839 -122.085,-1980.399 -122.085,-1978.102 		"/>
		<polygon fill="#9A916C" points="-124.385,-1978.102 -123.818,-1978.661 -122.641,-1978.661 -122.085,-1978.102 		"/>
	</g>
	<g transform="translate(134.035,34.05)">
		<rect id="connector56pin" x="-124.385" y="-31.598" fill="#8D8C8C" width="2.299" height="2.297"/>
		<rect x="-123.824" y="-31.041" fill="#8C8663" width="1.184" height="1.182"/>
		<polygon fill="#B8AF82" points="-124.385,-29.301 -123.824,-29.861 -123.824,-31.096 -124.385,-31.598 		"/>
		<polygon fill="#80795B" points="-122.641,-31.039 -123.815,-31.039 -124.385,-31.598 -122.085,-31.598 		"/>
		<polygon fill="#5E5B43" points="-122.641,-29.861 -122.641,-31.039 -122.085,-31.598 -122.085,-29.301 		"/>
		<polygon fill="#9A916C" points="-124.385,-29.301 -123.818,-29.861 -122.641,-29.861 -122.085,-29.301 		"/>
	</g>
	<g transform="translate(234.035,2134.05)">
		<rect id="connector10pin" x="-217.184" y="-1980.399" fill="#8D8C8C" width="2.299" height="2.297"/>
		<rect x="-216.623" y="-1979.841" fill="#8C8663" width="1.184" height="1.182"/>
		<polygon fill="#B8AF82" points="-217.184,-1978.102 -216.623,-1978.661 -216.623,-1979.897 -217.184,-1980.399 		"/>
		<polygon fill="#80795B" points="-215.442,-1979.839 -216.616,-1979.839 -217.184,-1980.399 -214.886,-1980.399 		"/>
		<polygon fill="#5E5B43" points="-215.442,-1978.661 -215.442,-1979.839 -214.886,-1980.399 -214.886,-1978.102 		"/>
		<polygon fill="#9A916C" points="-217.184,-1978.102 -216.618,-1978.661 -215.442,-1978.661 -214.886,-1978.102 		"/>
	</g>
	<g transform="translate(234.035,34.05)">
		<rect id="connector55pin" x="-217.184" y="-31.598" fill="#8D8C8C" width="2.299" height="2.297"/>
		<rect x="-216.623" y="-31.041" fill="#8C8663" width="1.184" height="1.182"/>
		<polygon fill="#B8AF82" points="-217.184,-29.301 -216.623,-29.861 -216.623,-31.096 -217.184,-31.598 		"/>
		<polygon fill="#80795B" points="-215.442,-31.039 -216.616,-31.039 -217.184,-31.598 -214.886,-31.598 		"/>
		<polygon fill="#5E5B43" points="-215.442,-29.861 -215.442,-31.039 -214.886,-31.598 -214.886,-29.301 		"/>
		<polygon fill="#9A916C" points="-217.184,-29.301 -216.618,-29.861 -215.442,-29.861 -214.886,-29.301 		"/>
	</g>
	<g transform="translate(334.035,2134.05)">
		<rect id="connector11pin" x="-309.985" y="-1980.399" fill="#8D8C8C" width="2.299" height="2.297"/>
		<rect x="-309.424" y="-1979.841" fill="#8C8663" width="1.184" height="1.182"/>
		<polygon fill="#B8AF82" points="-309.985,-1978.102 -309.424,-1978.661 -309.424,-1979.897 -309.985,-1980.399 		"/>
		<polygon fill="#80795B" points="-308.242,-1979.839 -309.415,-1979.839 -309.985,-1980.399 -307.685,-1980.399 		"/>
		<polygon fill="#5E5B43" points="-308.242,-1978.661 -308.242,-1979.839 -307.685,-1980.399 -307.685,-1978.102 		"/>
		<polygon fill="#9A916C" points="-309.985,-1978.102 -309.417,-1978.661 -308.242,-1978.661 -307.685,-1978.102 		"/>
	</g>
	<g transform="translate(334.035,34.05)">
		<rect id="connector54pin" x="-309.985" y="-31.598" fill="#8D8C8C" width="2.299" height="2.297"/>
		<rect x="-309.424" y="-31.041" fill="#8C8663" width="1.184" height="1.182"/>
		<polygon fill="#B8AF82" points="-309.985,-29.301 -309.424,-29.861 -309.424,-31.096 -309.985,-31.598 		"/>
		<polygon fill="#80795B" points="-308.242,-31.039 -309.415,-31.039 -309.985,-31.598 -307.685,-31.598 		"/>
		<polygon fill="#5E5B43" points="-308.242,-29.861 -308.242,-31.039 -307.685,-31.598 -307.685,-29.301 		"/>
		<polygon fill="#9A916C" points="-309.985,-29.301 -309.417,-29.861 -308.242,-29.861 -307.685,-29.301 		"/>
	</g>
	<g transform="translate(434.035,2134.05)">
		<rect id="connector12pin" x="-402.785" y="-1980.399" fill="#8D8C8C" width="2.299" height="2.297"/>
		<rect x="-402.224" y="-1979.841" fill="#8C8663" width="1.184" height="1.182"/>
		<polygon fill="#B8AF82" points="-402.785,-1978.102 -402.224,-1978.661 -402.224,-1979.897 -402.785,-1980.399 		"/>
		<polygon fill="#80795B" points="-401.041,-1979.839 -402.216,-1979.839 -402.785,-1980.399 -400.486,-1980.399 		"/>
		<polygon fill="#5E5B43" points="-401.041,-1978.661 -401.041,-1979.839 -400.486,-1980.399 -400.486,-1978.102 		"/>
		<polygon fill="#9A916C" points="-402.785,-1978.102 -402.218,-1978.661 -401.041,-1978.661 -400.486,-1978.102 		"/>
	</g>
	<g transform="translate(434.035,34.05)">
		<rect id="connector53pin" x="-402.785" y="-31.598" fill="#8D8C8C" width="2.299" height="2.297"/>
		<rect x="-402.224" y="-31.041" fill="#8C8663" width="1.184" height="1.182"/>
		<polygon fill="#B8AF82" points="-402.785,-29.301 -402.224,-29.861 -402.224,-31.096 -402.785,-31.598 		"/>
		<polygon fill="#80795B" points="-401.041,-31.039 -402.216,-31.039 -402.785,-31.598 -400.486,-31.598 		"/>
		<polygon fill="#5E5B43" points="-401.041,-29.861 -401.041,-31.039 -400.486,-31.598 -400.486,-29.301 		"/>
		<polygon fill="#9A916C" points="-402.785,-29.301 -402.218,-29.861 -401.041,-29.861 -400.486,-29.301 		"/>
	</g>
	<g transform="translate(534.035,2134.05)">
		<rect id="connector13pin" x="-495.584" y="-1980.399" fill="#8D8C8C" width="2.299" height="2.297"/>
		<rect x="-495.023" y="-1979.841" fill="#8C8663" width="1.184" height="1.182"/>
		<polygon fill="#B8AF82" points="-495.584,-1978.102 -495.023,-1978.661 -495.023,-1979.897 -495.584,-1980.399 		"/>
		<polygon fill="#80795B" points="-493.842,-1979.839 -495.016,-1979.839 -495.584,-1980.399 -493.286,-1980.399 		"/>
		<polygon fill="#5E5B43" points="-493.842,-1978.661 -493.842,-1979.839 -493.286,-1980.399 -493.286,-1978.102 		"/>
		<polygon fill="#9A916C" points="-495.584,-1978.102 -495.017,-1978.661 -493.842,-1978.661 -493.286,-1978.102 		"/>
	</g>
	<g transform="translate(534.035,34.05)">
		<rect id="connector52pin" x="-495.584" y="-31.598" fill="#8D8C8C" width="2.299" height="2.297"/>
		<rect x="-495.023" y="-31.041" fill="#8C8663" width="1.184" height="1.182"/>
		<polygon fill="#B8AF82" points="-495.584,-29.301 -495.023,-29.861 -495.023,-31.096 -495.584,-31.598 		"/>
		<polygon fill="#80795B" points="-493.842,-31.039 -495.016,-31.039 -495.584,-31.598 -493.286,-31.598 		"/>
		<polygon fill="#5E5B43" points="-493.842,-29.861 -493.842,-31.039 -493.286,-31.598 -493.286,-29.301 		"/>
		<polygon fill="#9A916C" points="-495.584,-29.301 -495.017,-29.861 -493.842,-29.861 -493.286,-29.301 		"/>
	</g>
	<g transform="translate(634.035,2134.05)">
		<rect id="connector14pin" x="-588.385" y="-1980.399" fill="#8D8C8C" width="2.299" height="2.297"/>
		<rect x="-587.824" y="-1979.841" fill="#8C8663" width="1.184" height="1.182"/>
		<polygon fill="#B8AF82" points="-588.385,-1978.102 -587.824,-1978.661 -587.824,-1979.897 -588.385,-1980.399 		"/>
		<polygon fill="#80795B" points="-586.641,-1979.839 -587.815,-1979.839 -588.385,-1980.399 -586.085,-1980.399 		"/>
		<polygon fill="#5E5B43" points="-586.641,-1978.661 -586.641,-1979.839 -586.085,-1980.399 -586.085,-1978.102 		"/>
		<polygon fill="#9A916C" points="-588.385,-1978.102 -587.818,-1978.661 -586.641,-1978.661 -586.085,-1978.102 		"/>
	</g>
	<g transform="translate(634.035,34.05)">
		<rect id="connector51pin" x="-588.385" y="-31.598" fill="#8D8C8C" width="2.299" height="2.297"/>
		<rect x="-587.824" y="-31.041" fill="#8C8663" width="1.184" height="1.182"/>
		<polygon fill="#B8AF82" points="-588.385,-29.301 -587.824,-29.861 -587.824,-31.096 -588.385,-31.598 		"/>
		<polygon fill="#80795B" points="-586.641,-31.039 -587.815,-31.039 -588.385,-31.598 -586.085,-31.598 		"/>
		<polygon fill="#5E5B43" points="-586.641,-29.861 -586.641,-31.039 -586.085,-31.598 -586.085,-29.301 		"/>
		<polygon fill="#9A916C" points="-588.385,-29.301 -587.818,-29.861 -586.641,-29.861 -586.085,-29.301 		"/>
	</g>
	<g transform="translate(734.035,2134.05)">
		<rect id="connector15pin" x="-681.184" y="-1980.399" fill="#8D8C8C" width="2.299" height="2.297"/>
		<rect x="-680.623" y="-1979.841" fill="#8C8663" width="1.184" height="1.182"/>
		<polygon fill="#B8AF82" points="-681.184,-1978.102 -680.623,-1978.661 -680.623,-1979.897 -681.184,-1980.399 		"/>
		<polygon fill="#80795B" points="-679.442,-1979.839 -680.616,-1979.839 -681.184,-1980.399 -678.886,-1980.399 		"/>
		<polygon fill="#5E5B43" points="-679.442,-1978.661 -679.442,-1979.839 -678.886,-1980.399 -678.886,-1978.102 		"/>
		<polygon fill="#9A916C" points="-681.184,-1978.102 -680.618,-1978.661 -679.442,-1978.661 -678.886,-1978.102 		"/>
	</g>
	<g transform="translate(734.035,34.05)">
		<rect id="connector50pin" x="-681.184" y="-31.598" fill="#8D8C8C" width="2.299" height="2.297"/>
		<rect x="-680.623" y="-31.041" fill="#8C8663" width="1.184" height="1.182"/>
		<polygon fill="#B8AF82" points="-681.184,-29.301 -680.623,-29.861 -680.623,-31.096 -681.184,-31.598 		"/>
		<polygon fill="#80795B" points="-679.442,-31.039 -680.616,-31.039 -681.184,-31.598 -678.886,-31.598 		"/>
		<polygon fill="#5E5B43" points="-679.442,-29.861 -679.442,-31.039 -678.886,-31.598 -678.886,-29.301 		"/>
		<polygon fill="#9A916C" points="-681.184,-29.301 -680.618,-29.861 -679.442,-29.861 -678.886,-29.301 		"/>
	</g>
	<g transform="translate(834.035,2134.05)">
		<rect id="connector16pin" x="-773.985" y="-1980.399" fill="#8D8C8C" width="2.299" height="2.297"/>
		<rect x="-773.424" y="-1979.841" fill="#8C8663" width="1.184" height="1.182"/>
		<polygon fill="#B8AF82" points="-773.985,-1978.102 -773.424,-1978.661 -773.424,-1979.897 -773.985,-1980.399 		"/>
		<polygon fill="#80795B" points="-772.242,-1979.839 -773.415,-1979.839 -773.985,-1980.399 -771.685,-1980.399 		"/>
		<polygon fill="#5E5B43" points="-772.242,-1978.661 -772.242,-1979.839 -771.685,-1980.399 -771.685,-1978.102 		"/>
		<polygon fill="#9A916C" points="-773.985,-1978.102 -773.417,-1978.661 -772.242,-1978.661 -771.685,-1978.102 		"/>
	</g>
	<g transform="translate(834.035,34.05)">
		<rect id="connector49pin" x="-773.985" y="-31.598" fill="#8D8C8C" width="2.299" height="2.297"/>
		<rect x="-773.424" y="-31.041" fill="#8C8663" width="1.184" height="1.182"/>
		<polygon fill="#B8AF82" points="-773.985,-29.301 -773.424,-29.861 -773.424,-31.096 -773.985,-31.598 		"/>
		<polygon fill="#80795B" points="-772.242,-31.039 -773.415,-31.039 -773.985,-31.598 -771.685,-31.598 		"/>
		<polygon fill="#5E5B43" points="-772.242,-29.861 -772.242,-31.039 -771.685,-31.598 -771.685,-29.301 		"/>
		<polygon fill="#9A916C" points="-773.985,-29.301 -773.417,-29.861 -772.242,-29.861 -771.685,-29.301 		"/>
	</g>
	<g transform="translate(934.035,2134.05)">
		<rect id="connector17pin" x="-866.785" y="-1980.399" fill="#8D8C8C" width="2.299" height="2.297"/>
		<rect x="-866.224" y="-1979.841" fill="#8C8663" width="1.184" height="1.182"/>
		<polygon fill="#B8AF82" points="-866.785,-1978.102 -866.224,-1978.661 -866.224,-1979.897 -866.785,-1980.399 		"/>
		<polygon fill="#80795B" points="-865.041,-1979.839 -866.216,-1979.839 -866.785,-1980.399 -864.486,-1980.399 		"/>
		<polygon fill="#5E5B43" points="-865.041,-1978.661 -865.041,-1979.839 -864.486,-1980.399 -864.486,-1978.102 		"/>
		<polygon fill="#9A916C" points="-866.785,-1978.102 -866.218,-1978.661 -865.041,-1978.661 -864.486,-1978.102 		"/>
	</g>
	<g transform="translate(934.035,34.05)">
		<rect id="connector48pin" x="-866.785" y="-31.598" fill="#8D8C8C" width="2.299" height="2.297"/>
		<rect x="-866.224" y="-31.041" fill="#8C8663" width="1.184" height="1.182"/>
		<polygon fill="#B8AF82" points="-866.785,-29.301 -866.224,-29.861 -866.224,-31.096 -866.785,-31.598 		"/>
		<polygon fill="#80795B" points="-865.041,-31.039 -866.216,-31.039 -866.785,-31.598 -864.486,-31.598 		"/>
		<polygon fill="#5E5B43" points="-865.041,-29.861 -865.041,-31.039 -864.486,-31.598 -864.486,-29.301 		"/>
		<polygon fill="#9A916C" points="-866.785,-29.301 -866.218,-29.861 -865.041,-29.861 -864.486,-29.301 		"/>
	</g>
	<g transform="translate(1034.04,2134.05)">
		<rect id="connector18pin" x="-959.589" y="-1980.399" fill="#8D8C8C" width="2.299" height="2.297"/>
		<rect x="-959.028" y="-1979.841" fill="#8C8663" width="1.184" height="1.182"/>
		<polygon fill="#B8AF82" points="-959.589,-1978.102 -959.028,-1978.661 -959.028,-1979.897 -959.589,-1980.399 		"/>
		<polygon fill="#80795B" points="-957.846,-1979.839 -959.02,-1979.839 -959.589,-1980.399 -957.29,-1980.399 		"/>
		<polygon fill="#5E5B43" points="-957.846,-1978.661 -957.846,-1979.839 -957.29,-1980.399 -957.29,-1978.102 		"/>
		<polygon fill="#9A916C" points="-959.589,-1978.102 -959.022,-1978.661 -957.846,-1978.661 -957.29,-1978.102 		"/>
	</g>
	<g transform="translate(1034.04,34.05)">
		<rect id="connector47pin" x="-959.589" y="-31.598" fill="#8D8C8C" width="2.299" height="2.297"/>
		<rect x="-959.028" y="-31.041" fill="#8C8663" width="1.184" height="1.182"/>
		<polygon fill="#B8AF82" points="-959.589,-29.301 -959.028,-29.861 -959.028,-31.096 -959.589,-31.598 		"/>
		<polygon fill="#80795B" points="-957.846,-31.039 -959.02,-31.039 -959.589,-31.598 -957.29,-31.598 		"/>
		<polygon fill="#5E5B43" points="-957.846,-29.861 -957.846,-31.039 -957.29,-31.598 -957.29,-29.301 		"/>
		<polygon fill="#9A916C" points="-959.589,-29.301 -959.022,-29.861 -957.846,-29.861 -957.29,-29.301 		"/>
	</g>
	<g transform="translate(1134.04,2134.05)">
		<rect id="connector19pin" x="-1052.389" y="-1980.399" fill="#8D8C8C" width="2.299" height="2.297"/>
		<rect x="-1051.828" y="-1979.841" fill="#8C8663" width="1.184" height="1.182"/>
		<polygon fill="#B8AF82" points="-1052.389,-1978.102 -1051.828,-1978.661 -1051.828,-1979.897 -1052.389,-1980.399 		"/>
		<polygon fill="#80795B" points="-1050.646,-1979.839 -1051.82,-1979.839 -1052.389,-1980.399 -1050.09,-1980.399 		"/>
		<polygon fill="#5E5B43" points="-1050.646,-1978.661 -1050.646,-1979.839 -1050.09,-1980.399 -1050.09,-1978.102 		"/>
		<polygon fill="#9A916C" points="-1052.389,-1978.102 -1051.822,-1978.661 -1050.646,-1978.661 -1050.09,-1978.102 		"/>
	</g>
	<g transform="translate(1134.04,34.05)">
		<rect id="connector46pin" x="-1052.389" y="-31.598" fill="#8D8C8C" width="2.299" height="2.297"/>
		<rect x="-1051.828" y="-31.041" fill="#8C8663" width="1.184" height="1.182"/>
		<polygon fill="#B8AF82" points="-1052.389,-29.301 -1051.828,-29.861 -1051.828,-31.096 -1052.389,-31.598 		"/>
		<polygon fill="#80795B" points="-1050.646,-31.039 -1051.82,-31.039 -1052.389,-31.598 -1050.09,-31.598 		"/>
		<polygon fill="#5E5B43" points="-1050.646,-29.861 -1050.646,-31.039 -1050.09,-31.598 -1050.09,-29.301 		"/>
		<polygon fill="#9A916C" points="-1052.389,-29.301 -1051.822,-29.861 -1050.646,-29.861 -1050.09,-29.301 		"/>
	</g>
	<g transform="translate(1234.04,2134.05)">
		<rect id="connector20pin" x="-1145.189" y="-1980.399" fill="#8D8C8C" width="2.299" height="2.297"/>
		<rect x="-1144.628" y="-1979.841" fill="#8C8663" width="1.184" height="1.182"/>
		<polygon fill="#B8AF82" points="-1145.189,-1978.102 -1144.628,-1978.661 -1144.628,-1979.897 -1145.189,-1980.399 		"/>
		<polygon fill="#80795B" points="-1143.446,-1979.839 -1144.62,-1979.839 -1145.189,-1980.399 -1142.89,-1980.399 		"/>
		<polygon fill="#5E5B43" points="-1143.446,-1978.661 -1143.446,-1979.839 -1142.89,-1980.399 -1142.89,-1978.102 		"/>
		<polygon fill="#9A916C" points="-1145.189,-1978.102 -1144.622,-1978.661 -1143.446,-1978.661 -1142.89,-1978.102 		"/>
	</g>
	<g transform="translate(1234.04,34.05)">
		<rect id="connector45pin" x="-1145.189" y="-31.598" fill="#8D8C8C" width="2.299" height="2.297"/>
		<rect x="-1144.628" y="-31.041" fill="#8C8663" width="1.184" height="1.182"/>
		<polygon fill="#B8AF82" points="-1145.189,-29.301 -1144.628,-29.861 -1144.628,-31.096 -1145.189,-31.598 		"/>
		<polygon fill="#80795B" points="-1143.446,-31.039 -1144.62,-31.039 -1145.189,-31.598 -1142.89,-31.598 		"/>
		<polygon fill="#5E5B43" points="-1143.446,-29.861 -1143.446,-31.039 -1142.89,-31.598 -1142.89,-29.301 		"/>
		<polygon fill="#9A916C" points="-1145.189,-29.301 -1144.622,-29.861 -1143.446,-29.861 -1142.89,-29.301 		"/>
	</g>
	<g transform="translate(1334.04,2134.05)">
		<rect id="connector21pin" x="-1237.989" y="-1980.399" fill="#8D8C8C" width="2.299" height="2.297"/>
		<rect x="-1237.429" y="-1979.841" fill="#8C8663" width="1.185" height="1.182"/>
		<polygon fill="#B8AF82" points="-1237.989,-1978.102 -1237.429,-1978.661 -1237.429,-1979.897 -1237.989,-1980.399 		"/>
		<polygon fill="#80795B" points="-1236.246,-1979.839 -1237.42,-1979.839 -1237.989,-1980.399 -1235.69,-1980.399 		"/>
		<polygon fill="#5E5B43" points="-1236.246,-1978.661 -1236.246,-1979.839 -1235.69,-1980.399 -1235.69,-1978.102 		"/>
		<polygon fill="#9A916C" points="-1237.989,-1978.102 -1237.423,-1978.661 -1236.246,-1978.661 -1235.69,-1978.102 		"/>
	</g>
	<g transform="translate(1334.04,34.05)">
		<rect id="connector44pin" x="-1237.989" y="-31.598" fill="#8D8C8C" width="2.299" height="2.297"/>
		<rect x="-1237.429" y="-31.041" fill="#8C8663" width="1.185" height="1.182"/>
		<polygon fill="#B8AF82" points="-1237.989,-29.301 -1237.429,-29.861 -1237.429,-31.096 -1237.989,-31.598 		"/>
		<polygon fill="#80795B" points="-1236.246,-31.039 -1237.42,-31.039 -1237.989,-31.598 -1235.69,-31.598 		"/>
		<polygon fill="#5E5B43" points="-1236.246,-29.861 -1236.246,-31.039 -1235.69,-31.598 -1235.69,-29.301 		"/>
		<polygon fill="#9A916C" points="-1237.989,-29.301 -1237.423,-29.861 -1236.246,-29.861 -1235.69,-29.301 		"/>
	</g>
	<g transform="translate(1434.04,2134.05)">
		<rect id="connector22pin" x="-1330.789" y="-1980.399" fill="#8D8C8C" width="2.299" height="2.297"/>
		<rect x="-1330.228" y="-1979.841" fill="#8C8663" width="1.184" height="1.182"/>
		<polygon fill="#B8AF82" points="-1330.789,-1978.102 -1330.228,-1978.661 -1330.228,-1979.897 -1330.789,-1980.399 		"/>
		<polygon fill="#80795B" points="-1329.046,-1979.839 -1330.22,-1979.839 -1330.789,-1980.399 -1328.49,-1980.399 		"/>
		<polygon fill="#5E5B43" points="-1329.046,-1978.661 -1329.046,-1979.839 -1328.49,-1980.399 -1328.49,-1978.102 		"/>
		<polygon fill="#9A916C" points="-1330.789,-1978.102 -1330.222,-1978.661 -1329.046,-1978.661 -1328.49,-1978.102 		"/>
	</g>
	<g transform="translate(1434.04,34.05)">
		<rect id="connector43pin" x="-1330.789" y="-31.598" fill="#8D8C8C" width="2.299" height="2.297"/>
		<rect x="-1330.228" y="-31.041" fill="#8C8663" width="1.184" height="1.182"/>
		<polygon fill="#B8AF82" points="-1330.789,-29.301 -1330.228,-29.861 -1330.228,-31.096 -1330.789,-31.598 		"/>
		<polygon fill="#80795B" points="-1329.046,-31.039 -1330.22,-31.039 -1330.789,-31.598 -1328.49,-31.598 		"/>
		<polygon fill="#5E5B43" points="-1329.046,-29.861 -1329.046,-31.039 -1328.49,-31.598 -1328.49,-29.301 		"/>
		<polygon fill="#9A916C" points="-1330.789,-29.301 -1330.222,-29.861 -1329.046,-29.861 -1328.49,-29.301 		"/>
	</g>
	<g transform="translate(1534.04,2134.05)">
		<rect id="connector23pin" x="-1423.589" y="-1980.399" fill="#8D8C8C" width="2.299" height="2.297"/>
		<rect x="-1423.028" y="-1979.841" fill="#8C8663" width="1.184" height="1.182"/>
		<polygon fill="#B8AF82" points="-1423.589,-1978.102 -1423.028,-1978.661 -1423.028,-1979.897 -1423.589,-1980.399 		"/>
		<polygon fill="#80795B" points="-1421.847,-1979.839 -1423.021,-1979.839 -1423.589,-1980.399 -1421.29,-1980.399 		"/>
		<polygon fill="#5E5B43" points="-1421.847,-1978.661 -1421.847,-1979.839 -1421.29,-1980.399 -1421.29,-1978.102 		"/>
		<polygon fill="#9A916C" points="-1423.589,-1978.102 -1423.022,-1978.661 -1421.847,-1978.661 -1421.29,-1978.102 		"/>
	</g>
	<g transform="translate(1534.04,34.05)">
		<rect id="connector42pin" x="-1423.589" y="-31.598" fill="#8D8C8C" width="2.299" height="2.297"/>
		<rect x="-1423.028" y="-31.041" fill="#8C8663" width="1.184" height="1.182"/>
		<polygon fill="#B8AF82" points="-1423.589,-29.301 -1423.028,-29.861 -1423.028,-31.096 -1423.589,-31.598 		"/>
		<polygon fill="#80795B" points="-1421.847,-31.039 -1423.021,-31.039 -1423.589,-31.598 -1421.29,-31.598 		"/>
		<polygon fill="#5E5B43" points="-1421.847,-29.861 -1421.847,-31.039 -1421.29,-31.598 -1421.29,-29.301 		"/>
		<polygon fill="#9A916C" points="-1423.589,-29.301 -1423.022,-29.861 -1421.847,-29.861 -1421.29,-29.301 		"/>
	</g>
	<g transform="translate(1634.04,2134.05)">
		<rect id="connector24pin" x="-1516.39" y="-1980.399" fill="#8D8C8C" width="2.299" height="2.297"/>
		<rect x="-1515.828" y="-1979.841" fill="#8C8663" width="1.185" height="1.182"/>
		<polygon fill="#B8AF82" points="-1516.39,-1978.102 -1515.828,-1978.661 -1515.828,-1979.897 -1516.39,-1980.399 		"/>
		<polygon fill="#80795B" points="-1514.646,-1979.839 -1515.82,-1979.839 -1516.39,-1980.399 -1514.091,-1980.399 		"/>
		<polygon fill="#5E5B43" points="-1514.646,-1978.661 -1514.646,-1979.839 -1514.091,-1980.399 -1514.091,-1978.102 		"/>
		<polygon fill="#9A916C" points="-1516.39,-1978.102 -1515.822,-1978.661 -1514.646,-1978.661 -1514.091,-1978.102 		"/>
	</g>
	<g transform="translate(1634.04,34.05)">
		<rect id="connector41pin" x="-1516.39" y="-31.598" fill="#8D8C8C" width="2.299" height="2.297"/>
		<rect x="-1515.828" y="-31.041" fill="#8C8663" width="1.185" height="1.182"/>
		<polygon fill="#B8AF82" points="-1516.39,-29.301 -1515.828,-29.861 -1515.828,-31.096 -1516.39,-31.598 		"/>
		<polygon fill="#80795B" points="-1514.646,-31.039 -1515.82,-31.039 -1516.39,-31.598 -1514.091,-31.598 		"/>
		<polygon fill="#5E5B43" points="-1514.646,-29.861 -1514.646,-31.039 -1514.091,-31.598 -1514.091,-29.301 		"/>
		<polygon fill="#9A916C" points="-1516.39,-29.301 -1515.822,-29.861 -1514.646,-29.861 -1514.091,-29.301 		"/>
	</g>
	<g transform="translate(1734.04,2134.05)">
		<rect id="connector25pin" x="-1609.188" y="-1980.399" fill="#8D8C8C" width="2.299" height="2.297"/>
		<rect x="-1608.628" y="-1979.841" fill="#8C8663" width="1.184" height="1.182"/>
		<polygon fill="#B8AF82" points="-1609.188,-1978.102 -1608.628,-1978.661 -1608.628,-1979.897 -1609.188,-1980.399 		"/>
		<polygon fill="#80795B" points="-1607.446,-1979.839 -1608.62,-1979.839 -1609.188,-1980.399 -1606.89,-1980.399 		"/>
		<polygon fill="#5E5B43" points="-1607.446,-1978.661 -1607.446,-1979.839 -1606.89,-1980.399 -1606.89,-1978.102 		"/>
		<polygon fill="#9A916C" points="-1609.188,-1978.102 -1608.622,-1978.661 -1607.446,-1978.661 -1606.89,-1978.102 		"/>
	</g>
	<g transform="translate(1734.04,34.05)">
		<rect id="connector40pin" x="-1609.188" y="-31.598" fill="#8D8C8C" width="2.299" height="2.297"/>
		<rect x="-1608.628" y="-31.041" fill="#8C8663" width="1.184" height="1.182"/>
		<polygon fill="#B8AF82" points="-1609.188,-29.301 -1608.628,-29.861 -1608.628,-31.096 -1609.188,-31.598 		"/>
		<polygon fill="#80795B" points="-1607.446,-31.039 -1608.62,-31.039 -1609.188,-31.598 -1606.89,-31.598 		"/>
		<polygon fill="#5E5B43" points="-1607.446,-29.861 -1607.446,-31.039 -1606.89,-31.598 -1606.89,-29.301 		"/>
		<polygon fill="#9A916C" points="-1609.188,-29.301 -1608.622,-29.861 -1607.446,-29.861 -1606.89,-29.301 		"/>
	</g>
	<g transform="translate(1834.04,2134.05)">
		<rect id="connector26pin" x="-1701.989" y="-1980.399" fill="#8D8C8C" width="2.299" height="2.297"/>
		<rect x="-1701.429" y="-1979.841" fill="#8C8663" width="1.185" height="1.182"/>
		<polygon fill="#B8AF82" points="-1701.989,-1978.102 -1701.429,-1978.661 -1701.429,-1979.897 -1701.989,-1980.399 		"/>
		<polygon fill="#80795B" points="-1700.246,-1979.839 -1701.421,-1979.839 -1701.989,-1980.399 -1699.69,-1980.399 		"/>
		<polygon fill="#5E5B43" points="-1700.246,-1978.661 -1700.246,-1979.839 -1699.69,-1980.399 -1699.69,-1978.102 		"/>
		<polygon fill="#9A916C" points="-1701.989,-1978.102 -1701.423,-1978.661 -1700.246,-1978.661 -1699.69,-1978.102 		"/>
	</g>
	<g transform="translate(1834.04,34.05)">
		<rect id="connector39pin" x="-1701.989" y="-31.598" fill="#8D8C8C" width="2.299" height="2.297"/>
		<rect x="-1701.429" y="-31.041" fill="#8C8663" width="1.185" height="1.182"/>
		<polygon fill="#B8AF82" points="-1701.989,-29.301 -1701.429,-29.861 -1701.429,-31.096 -1701.989,-31.598 		"/>
		<polygon fill="#80795B" points="-1700.246,-31.039 -1701.421,-31.039 -1701.989,-31.598 -1699.69,-31.598 		"/>
		<polygon fill="#5E5B43" points="-1700.246,-29.861 -1700.246,-31.039 -1699.69,-31.598 -1699.69,-29.301 		"/>
		<polygon fill="#9A916C" points="-1701.989,-29.301 -1701.423,-29.861 -1700.246,-29.861 -1699.69,-29.301 		"/>
	</g>
	<g transform="translate(1934.04,2134.05)">
		<rect id="connector27pin" x="-1794.789" y="-1980.399" fill="#8D8C8C" width="2.299" height="2.297"/>
		<rect x="-1794.228" y="-1979.841" fill="#8C8663" width="1.184" height="1.182"/>
		<polygon fill="#B8AF82" points="-1794.789,-1978.102 -1794.228,-1978.661 -1794.228,-1979.897 -1794.789,-1980.399 		"/>
		<polygon fill="#80795B" points="-1793.046,-1979.839 -1794.22,-1979.839 -1794.789,-1980.399 -1792.49,-1980.399 		"/>
		<polygon fill="#5E5B43" points="-1793.046,-1978.661 -1793.046,-1979.839 -1792.49,-1980.399 -1792.49,-1978.102 		"/>
		<polygon fill="#9A916C" points="-1794.789,-1978.102 -1794.222,-1978.661 -1793.046,-1978.661 -1792.49,-1978.102 		"/>
	</g>
	<g transform="translate(1934.04,34.05)">
		<rect id="connector38pin" x="-1794.789" y="-31.598" fill="#8D8C8C" width="2.299" height="2.297"/>
		<rect x="-1794.228" y="-31.041" fill="#8C8663" width="1.184" height="1.182"/>
		<polygon fill="#B8AF82" points="-1794.789,-29.301 -1794.228,-29.861 -1794.228,-31.096 -1794.789,-31.598 		"/>
		<polygon fill="#80795B" points="-1793.046,-31.039 -1794.22,-31.039 -1794.789,-31.598 -1792.49,-31.598 		"/>
		<polygon fill="#5E5B43" points="-1793.046,-29.861 -1793.046,-31.039 -1792.49,-31.598 -1792.49,-29.301 		"/>
		<polygon fill="#9A916C" points="-1794.789,-29.301 -1794.222,-29.861 -1793.046,-29.861 -1792.49,-29.301 		"/>
	</g>
	<g transform="translate(2034.04,2134.05)">
		<rect id="connector28pin" x="-1887.589" y="-1980.399" fill="#8D8C8C" width="2.299" height="2.297"/>
		<rect x="-1887.028" y="-1979.841" fill="#8C8663" width="1.184" height="1.182"/>
		<polygon fill="#B8AF82" points="-1887.589,-1978.102 -1887.028,-1978.661 -1887.028,-1979.897 -1887.589,-1980.399 		"/>
		<polygon fill="#80795B" points="-1885.847,-1979.839 -1887.021,-1979.839 -1887.589,-1980.399 -1885.29,-1980.399 		"/>
		<polygon fill="#5E5B43" points="-1885.847,-1978.661 -1885.847,-1979.839 -1885.29,-1980.399 -1885.29,-1978.102 		"/>
		<polygon fill="#9A916C" points="-1887.589,-1978.102 -1887.022,-1978.661 -1885.847,-1978.661 -1885.29,-1978.102 		"/>
	</g>
	<g transform="translate(2034.04,34.05)">
		<rect id="connector37pin" x="-1887.589" y="-31.598" fill="#8D8C8C" width="2.299" height="2.297"/>
		<rect x="-1887.028" y="-31.041" fill="#8C8663" width="1.184" height="1.182"/>
		<polygon fill="#B8AF82" points="-1887.589,-29.301 -1887.028,-29.861 -1887.028,-31.096 -1887.589,-31.598 		"/>
		<polygon fill="#80795B" points="-1885.847,-31.039 -1887.021,-31.039 -1887.589,-31.598 -1885.29,-31.598 		"/>
		<polygon fill="#5E5B43" points="-1885.847,-29.861 -1885.847,-31.039 -1885.29,-31.598 -1885.29,-29.301 		"/>
		<polygon fill="#9A916C" points="-1887.589,-29.301 -1887.022,-29.861 -1885.847,-29.861 -1885.29,-29.301 		"/>
	</g>
	<g transform="translate(2134.03,2134.05)">
		<rect id="connector29pin" x="-1980.38" y="-1980.399" fill="#8D8C8C" width="2.299" height="2.297"/>
		<rect x="-1979.819" y="-1979.841" fill="#8C8663" width="1.184" height="1.182"/>
		<polygon fill="#B8AF82" points="-1980.38,-1978.102 -1979.819,-1978.661 -1979.819,-1979.897 -1980.38,-1980.399 		"/>
		<polygon fill="#80795B" points="-1978.637,-1979.839 -1979.811,-1979.839 -1980.38,-1980.399 -1978.081,-1980.399 		"/>
		<polygon fill="#5E5B43" points="-1978.637,-1978.661 -1978.637,-1979.839 -1978.081,-1980.399 -1978.081,-1978.102 		"/>
		<polygon fill="#9A916C" points="-1980.38,-1978.102 -1979.813,-1978.661 -1978.637,-1978.661 -1978.081,-1978.102 		"/>
	</g>
	<g transform="translate(2134.03,34.05)">
		<rect id="connector36pin" x="-1980.38" y="-31.598" fill="#8D8C8C" width="2.299" height="2.297"/>
		<rect x="-1979.819" y="-31.041" fill="#8C8663" width="1.184" height="1.182"/>
		<polygon fill="#B8AF82" points="-1980.38,-29.301 -1979.819,-29.861 -1979.819,-31.096 -1980.38,-31.598 		"/>
		<polygon fill="#80795B" points="-1978.637,-31.039 -1979.811,-31.039 -1980.38,-31.598 -1978.081,-31.598 		"/>
		<polygon fill="#5E5B43" points="-1978.637,-29.861 -1978.637,-31.039 -1978.081,-31.598 -1978.081,-29.301 		"/>
		<polygon fill="#9A916C" points="-1980.38,-29.301 -1979.813,-29.861 -1978.637,-29.861 -1978.081,-29.301 		"/>
	</g>
	<g transform="translate(2234.03,2134.05)">
		<rect id="connector30pin" x="-2073.18" y="-1980.399" fill="#8D8C8C" width="2.299" height="2.297"/>
		<rect x="-2072.619" y="-1979.841" fill="#8C8663" width="1.185" height="1.182"/>
		<polygon fill="#B8AF82" points="-2073.18,-1978.102 -2072.619,-1978.661 -2072.619,-1979.897 -2073.18,-1980.399 		"/>
		<polygon fill="#80795B" points="-2071.436,-1979.839 -2072.611,-1979.839 -2073.18,-1980.399 -2070.882,-1980.399 		"/>
		<polygon fill="#5E5B43" points="-2071.436,-1978.661 -2071.436,-1979.839 -2070.882,-1980.399 -2070.882,-1978.102 		"/>
		<polygon fill="#9A916C" points="-2073.18,-1978.102 -2072.613,-1978.661 -2071.436,-1978.661 -2070.882,-1978.102 		"/>
	</g>
	<g transform="translate(2234.03,34.05)">
		<rect id="connector35pin" x="-2073.18" y="-31.598" fill="#8D8C8C" width="2.299" height="2.297"/>
		<rect x="-2072.619" y="-31.041" fill="#8C8663" width="1.185" height="1.182"/>
		<polygon fill="#B8AF82" points="-2073.18,-29.301 -2072.619,-29.861 -2072.619,-31.096 -2073.18,-31.598 		"/>
		<polygon fill="#80795B" points="-2071.436,-31.039 -2072.611,-31.039 -2073.18,-31.598 -2070.882,-31.598 		"/>
		<polygon fill="#5E5B43" points="-2071.436,-29.861 -2071.436,-31.039 -2070.882,-31.598 -2070.882,-29.301 		"/>
		<polygon fill="#9A916C" points="-2073.18,-29.301 -2072.613,-29.861 -2071.436,-29.861 -2070.882,-29.301 		"/>
	</g>
	<g transform="translate(2334.03,2134.05)">
		<rect id="connector31pin" x="-2165.979" y="-1980.399" fill="#8D8C8C" width="2.299" height="2.297"/>
		<rect x="-2165.419" y="-1979.841" fill="#8C8663" width="1.184" height="1.182"/>
		<polygon fill="#B8AF82" points="-2165.979,-1978.102 -2165.419,-1978.661 -2165.419,-1979.897 -2165.979,-1980.399 		"/>
		<polygon fill="#80795B" points="-2164.237,-1979.839 -2165.411,-1979.839 -2165.979,-1980.399 -2163.68,-1980.399 		"/>
		<polygon fill="#5E5B43" points="-2164.237,-1978.661 -2164.237,-1979.839 -2163.68,-1980.399 -2163.68,-1978.102 		"/>
		<polygon fill="#9A916C" points="-2165.979,-1978.102 -2165.413,-1978.661 -2164.237,-1978.661 -2163.68,-1978.102 		"/>
	</g>
	<g transform="translate(2334.03,34.05)">
		<rect id="connector34pin" x="-2165.979" y="-31.598" fill="#8D8C8C" width="2.299" height="2.297"/>
		<rect x="-2165.419" y="-31.041" fill="#8C8663" width="1.184" height="1.182"/>
		<polygon fill="#B8AF82" points="-2165.979,-29.301 -2165.419,-29.861 -2165.419,-31.096 -2165.979,-31.598 		"/>
		<polygon fill="#80795B" points="-2164.237,-31.039 -2165.411,-31.039 -2165.979,-31.598 -2163.68,-31.598 		"/>
		<polygon fill="#5E5B43" points="-2164.237,-29.861 -2164.237,-31.039 -2163.68,-31.598 -2163.68,-29.301 		"/>
		<polygon fill="#9A916C" points="-2165.979,-29.301 -2165.413,-29.861 -2164.237,-29.861 -2163.68,-29.301 		"/>
	</g>
	<g transform="translate(2434.03,2134.05)">
		<rect id="connector32pin" x="-2258.78" y="-1980.399" fill="#8D8C8C" width="2.299" height="2.297"/>
		<rect x="-2258.219" y="-1979.841" fill="#8C8663" width="1.185" height="1.182"/>
		<polygon fill="#B8AF82" points="-2258.78,-1978.102 -2258.219,-1978.661 -2258.219,-1979.897 -2258.78,-1980.399 		"/>
		<polygon fill="#80795B" points="-2257.037,-1979.839 -2258.211,-1979.839 -2258.78,-1980.399 -2256.481,-1980.399 		"/>
		<polygon fill="#5E5B43" points="-2257.037,-1978.661 -2257.037,-1979.839 -2256.481,-1980.399 -2256.481,-1978.102 		"/>
		<polygon fill="#9A916C" points="-2258.78,-1978.102 -2258.214,-1978.661 -2257.037,-1978.661 -2256.481,-1978.102 		"/>
	</g>
	<g transform="translate(2434.03,34.05)">
		<rect id="connector33pin" x="-2258.78" y="-31.598" fill="#8D8C8C" width="2.299" height="2.297"/>
		<rect x="-2258.219" y="-31.041" fill="#8C8663" width="1.185" height="1.182"/>
		<polygon fill="#B8AF82" points="-2258.78,-29.301 -2258.219,-29.861 -2258.219,-31.096 -2258.78,-31.598 		"/>
		<polygon fill="#80795B" points="-2257.037,-31.039 -2258.211,-31.039 -2258.78,-31.598 -2256.481,-31.598 		"/>
		<polygon fill="#5E5B43" points="-2257.037,-29.861 -2257.037,-31.039 -2256.481,-31.598 -2256.481,-29.301 		"/>
		<polygon fill="#9A916C" points="-2258.78,-29.301 -2258.214,-29.861 -2257.037,-29.861 -2256.481,-29.301 		"/>
	</g>
</g>
</svg>
