<?xml version='1.0' encoding='UTF-8' standalone='no'?>
<!-- Created with Fritzing (http://www.fritzing.org/) -->
<svg xmlns="http://www.w3.org/2000/svg" width="0.554333in" x="0in" version="1.2" y="0in"  height="0.6in" viewBox="0 0 554.333 600" baseProfile="tiny" xmlns:svg="http://www.w3.org/2000/svg">
 <desc>Fritzing breadboard generated by brd2svg</desc>
 <g id="breadboard">
  <g id="icon">
   <path fill="#1F7A34" stroke="none" stroke-width="0" d="M0,0L0,270A30,30 0 0 1 0,330L0,600L554.333,600L554.333,0L0,0z"/>
   <g transform="translate(100,181.896)">
    <desc>Fritzing breadboard generated by brd2svg</desc>
    <g>
     <path fill="#1A1A1A" d="M309.111,117.972c-3.04167,-65.7361,1.44444,-100.292,0,-102.958c-1.44444,-2.66667,-11.1389,4.80556,-14.7639,8.55556c0,0,1.16667,-9.20833,5.5,-13.3472C307.292,3.06944,317.792,0,317.792,0l24.3056,0l0,127.917c0,7.05556,5.40278,12.6944,12.2361,13.5833l0,59.9861L0,201.486l0,-59.9861c6.83333,-0.875,12.2361,-6.52778,12.2361,-13.5833L12.2361,0l24.3056,0c0,0,10.4861,3.06944,17.9583,10.2222c4.31944,4.13889,5.48611,13.3472,5.48611,13.3472C56.3611,19.8194,46.6667,12.3472,45.2222,15.0139c-1.44444,2.66667,3.04167,37.2222,0,102.958l15.9444,0c0,0,0,-38.3194,0,-77.5417l231.958,0c0,39.2361,0,77.5417,0,77.5417L309.111,117.972z"/>
     <g>
      <path d="M45.2222,122.514c3.04167,-65.7361,-1.44444,-100.292,0,-102.958C46.6667,16.8889,56.3611,24.3611,59.9861,28.1111L59.9861,23.5694C56.3611,19.8194,46.6667,12.3472,45.2222,15.0139c-1.44444,2.66667,3.04167,37.2222,0,102.958"/>
      <path d="M309.111,122.514c-3.04167,-65.7361,1.44444,-100.292,0,-102.958c-1.44444,-2.66667,-11.1389,4.80556,-14.7639,8.55556L294.347,23.5694c3.63889,-3.76389,13.3194,-11.2361,14.7639,-8.55556c1.44444,2.68056,-3.04167,37.2222,0,102.958"/>
     </g>
     <path opacity="0.15" fill="#F2F2F2" enable-background="new    " d="M1.76389,141.5c6.83333,-0.875,12.2361,-6.52778,12.2361,-13.5833L14,0L12.2361,0l0,127.917c0,7.05556,-5.40278,12.6944,-12.2361,13.5833L1.76389,141.5z"/>
     <path opacity="0.55" enable-background="new    " d="M352.569,141.5c-6.83333,-0.875,-12.2361,-6.52778,-12.2361,-13.5833L340.333,0l1.76389,0l0,127.917c0,7.05556,5.40278,12.6944,12.2361,13.5833L352.569,141.5z"/>
     <rect width="354.333" x="0" y="141.806" fill="#1A1A1A" height="59.6806"/>
     <rect width="121.028" x="0.0138889" y="141.806" fill="#333333" height="59.6806"/>
     <rect width="121.042" x="233.292" y="141.806" fill="#333333" height="59.6806"/>
     <rect width="101.569" x="126.389" y="139.236" fill="#E6E6E6" height="62.2778"/>
     <rect width="231.958" x="61.1944" y="0.0138889" fill="#CCCCCC" height="117.972"/>
     <rect width="159.833" x="97.25" y="0.0138889" fill="#E6E6E6" height="117.972"/>
     <rect width="354.319" x="0.0138889" y="201.486" height="34.7222"/>
     <rect width="7.01389" x="0.0138889" y="201.486" fill="#666666" height="34.7222"/>
     <rect width="7.02778" x="347.306" y="201.486" fill="#666666" height="34.7222"/>
     <rect width="354.333" x="0" y="201.514" fill="#666666" height="7.02778"/>
     <rect width="354.333" x="0" y="229.181" fill="#666666" height="7.02778"/>
     <rect width="7.98611" x="89.2639" y="10.0278" fill="#999999" height="78.6389"/>
     <rect width="7.97222" x="257.083" y="10.0278" fill="#999999" height="78.6389"/>
     <rect width="304.417" x="24.9444" y="92.8056" fill="#E6E6E6" height="49.0139"/>
     <rect width="159.833" x="97.25" opacity="0.5" y="0.0138889" fill="#FFFFFF" height="2.20833" enable-background="new    "/>
     <rect width="72.3056" x="27.1528" opacity="0.5" y="92.9861" fill="#FFFFFF" height="2.20833" enable-background="new    "/>
     <polygon opacity="0.5" fill="#FFFFFF" points="227.944,201.486,128.569,201.486,128.569,199.292,225.764,199.292" enable-background="new    "/>
     <rect width="36.0833" x="61.1944" opacity="0.2" y="0.0138889" fill="#FFFFFF" height="2.20833" enable-background="new    "/>
     <rect width="2.20833" x="61.1944" opacity="0.2" y="2.20833" fill="#FFFFFF" height="90.5833" enable-background="new    "/>
     <rect width="2.20833" x="89.2639" opacity="0.2" y="10.0278" fill="#FFFFFF" height="78.6389" enable-background="new    "/>
     <rect width="2.20833" x="0.0138889" opacity="0.2" y="141.806" fill="#FFFFFF" height="59.7083" enable-background="new    "/>
     <polygon opacity="0.2" fill="#FFFFFF" points="0.0138889,236.208,0.0138889,201.486,2.22222,201.486,2.22222,234.014" enable-background="new    "/>
     <rect width="2.20833" x="233.306" opacity="0.2" y="141.806" fill="#FFFFFF" height="59.7083" enable-background="new    "/>
     <rect width="2.20833" x="126.361" opacity="0.5" y="141.806" fill="#FFFFFF" height="59.7083" enable-background="new    "/>
     <rect width="2.20833" x="24.9444" opacity="0.5" y="92.8056" fill="#FFFFFF" height="49.0139" enable-background="new    "/>
     <rect width="2.20833" x="97.25" opacity="0.5" y="2.20833" fill="#FFFFFF" height="90.7778" enable-background="new    "/>
     <rect width="2.20833" x="352.125" opacity="0.44" y="141.806" height="59.7083" enable-background="new    "/>
     <polygon opacity="0.2" points="352.125,236.208,352.125,203.708,354.333,201.486,354.333,236.208" enable-background="new    "/>
     <polygon opacity="0.2" points="352.125,236.208,0.0138889,236.208,2.22222,234.014,352.125,234.014" enable-background="new    "/>
     <polygon opacity="0.2" fill="#FFFFFF" points="352.125,203.708,2.22222,203.708,2.22222,201.514,354.333,201.514" enable-background="new    "/>
     <polygon opacity="0.15" points="225.764,199.292,225.764,141.806,227.972,141.806,227.972,201.514" enable-background="new    "/>
     <rect width="2.20833" x="118.833" opacity="0.15" y="141.806" height="59.7083" enable-background="new    "/>
     <rect width="2.20833" x="257.083" opacity="0.2" y="10.0278" fill="#666666" height="78.6389" enable-background="new    "/>
     <polygon opacity="0.2" fill="#666666" points="290.931,92.8056,290.931,2.20833,293.139,0.0138889,293.139,92.8056" enable-background="new    "/>
     <polygon opacity="0.2" fill="#666666" points="327.153,141.806,327.153,93.9722,329.361,92.8056,329.361,141.806" enable-background="new    "/>
     <rect width="2.20833" x="257.083" opacity="0.2" y="0.0138889" fill="#666666" height="10.0139" enable-background="new    "/>
     <rect width="2.20833" x="257.083" opacity="0.2" y="88.6667" fill="#666666" height="4.13889" enable-background="new    "/>
     <polygon opacity="0.5" fill="#FFFFFF" points="290.931,2.20833,257.083,2.20833,257.083,0.0138889,293.153,0.0138889" enable-background="new    "/>
    </g>
   </g>
  </g>
  <g transform="translate(161.202,534.05)">
   <rect width="31.93" x="0" y="0" fill="#8D8C8C" height="31.9" id="connector0pin"/>
   <rect width="16.4442" x="7.79153" y="7.73544" fill="#8C8663" height="16.4152"/>
   <polygon fill="#B8AF82" points="0,31.9,7.79153,24.1368,7.79153,6.97162,0,0"/>
   <polygon fill="#80795B" points="24.2079,7.76321,7.90264,7.76321,0,0,31.93,0"/>
   <polygon fill="#5E5B43" points="24.2079,24.1368,24.2079,7.76321,31.93,0,31.93,31.9"/>
   <polygon fill="#9A916C" points="0,31.9,7.87486,24.1368,24.2079,24.1368,31.93,31.9"/>
  </g>
  <g transform="translate(161.202,34.05)">
   <rect width="31.93" x="0" y="0" fill="#8D8C8C" height="31.9" id="connector5pin"/>
   <rect width="16.4442" x="7.79153" y="7.73544" fill="#8C8663" height="16.4152"/>
   <polygon fill="#B8AF82" points="0,31.9,7.79153,24.1368,7.79153,6.97162,0,0"/>
   <polygon fill="#80795B" points="24.2079,7.76321,7.90264,7.76321,0,0,31.93,0"/>
   <polygon fill="#5E5B43" points="24.2079,24.1368,24.2079,7.76321,31.93,0,31.93,31.9"/>
   <polygon fill="#9A916C" points="0,31.9,7.87486,24.1368,24.2079,24.1368,31.93,31.9"/>
  </g>
  <g transform="translate(261.202,534.05)">
   <rect width="31.93" x="0" y="0" fill="#8D8C8C" height="31.9" id="connector1pin"/>
   <rect width="16.4442" x="7.79153" y="7.73544" fill="#8C8663" height="16.4152"/>
   <polygon fill="#B8AF82" points="0,31.9,7.79153,24.1368,7.79153,6.97162,0,0"/>
   <polygon fill="#80795B" points="24.2079,7.76321,7.90264,7.76321,0,0,31.93,0"/>
   <polygon fill="#5E5B43" points="24.2079,24.1368,24.2079,7.76321,31.93,0,31.93,31.9"/>
   <polygon fill="#9A916C" points="0,31.9,7.87486,24.1368,24.2079,24.1368,31.93,31.9"/>
  </g>
  <g transform="translate(261.202,34.05)">
   <rect width="31.93" x="0" y="0" fill="#8D8C8C" height="31.9" id="connector4pin"/>
   <rect width="16.4442" x="7.79153" y="7.73544" fill="#8C8663" height="16.4152"/>
   <polygon fill="#B8AF82" points="0,31.9,7.79153,24.1368,7.79153,6.97162,0,0"/>
   <polygon fill="#80795B" points="24.2079,7.76321,7.90264,7.76321,0,0,31.93,0"/>
   <polygon fill="#5E5B43" points="24.2079,24.1368,24.2079,7.76321,31.93,0,31.93,31.9"/>
   <polygon fill="#9A916C" points="0,31.9,7.87486,24.1368,24.2079,24.1368,31.93,31.9"/>
  </g>
  <g transform="translate(361.202,534.05)">
   <rect width="31.93" x="0" y="0" fill="#8D8C8C" height="31.9" id="connector2pin"/>
   <rect width="16.4442" x="7.79153" y="7.73544" fill="#8C8663" height="16.4152"/>
   <polygon fill="#B8AF82" points="0,31.9,7.79153,24.1368,7.79153,6.97162,0,0"/>
   <polygon fill="#80795B" points="24.2079,7.76321,7.90264,7.76321,0,0,31.93,0"/>
   <polygon fill="#5E5B43" points="24.2079,24.1368,24.2079,7.76321,31.93,0,31.93,31.9"/>
   <polygon fill="#9A916C" points="0,31.9,7.87486,24.1368,24.2079,24.1368,31.93,31.9"/>
  </g>
  <g transform="translate(361.202,34.05)">
   <rect width="31.93" x="0" y="0" fill="#8D8C8C" height="31.9" id="connector3pin"/>
   <rect width="16.4442" x="7.79153" y="7.73544" fill="#8C8663" height="16.4152"/>
   <polygon fill="#B8AF82" points="0,31.9,7.79153,24.1368,7.79153,6.97162,0,0"/>
   <polygon fill="#80795B" points="24.2079,7.76321,7.90264,7.76321,0,0,31.93,0"/>
   <polygon fill="#5E5B43" points="24.2079,24.1368,24.2079,7.76321,31.93,0,31.93,31.9"/>
   <polygon fill="#9A916C" points="0,31.9,7.87486,24.1368,24.2079,24.1368,31.93,31.9"/>
  </g>
 </g>
</svg>
