<?xml version='1.0' encoding='UTF-8' standalone='no'?>
<!-- Created with Fritzing (http://www.fritzing.org/) -->
<svg xmlns="http://www.w3.org/2000/svg" width="0.321153in" x="0in" version="1.2" y="0in"  height="0.4in" viewBox="0 0 321.153 400" baseProfile="tiny" xmlns:svg="http://www.w3.org/2000/svg">
 <desc>Fritzing breadboard generated by brd2svg</desc>
 <g id="breadboard">
  <g id="icon">
   <path fill="#1F7A34" stroke="none" stroke-width="0" d="M0,0L0,170A30,30 0 0 1 0,230L0,400L321.153,400L321.153,0L0,0z"/>
   <g transform="translate(100,129.784)">
    <path opacity="0.2" fill="#FFFFFF" d="M38.3889,47.0972c5.86111,-20.125,24.2361,-33.8333,46.2639,-33.8333c22.1389,0,40.5833,13.8611,46.3472,34.1389l0,0c-5.76389,-20.2778,-24.2083,-35.2222,-46.3472,-35.2222C62.625,12.1806,44.25,26.9722,38.3889,47.0972L38.3889,47.0972z"/>
    <g>
     <g>
      <polygon fill="#CCCCCC" points="98.3056,19.7361,115.889,37.3194,115.889,17.6528,98.3056,0.0694444"/>
      <rect width="1.38889" x="115.889" y="17.6528" fill="#B3B3B3" height="19.6667"/>
      <polygon fill="#E6E6E6" points="115.889,17.6528,117.264,17.6528,99.6806,0.0694444,98.3056,0.0694444"/>
     </g>
     <polygon fill="#999999" points="25.8472,125.889,20.5833,125.889,21.9722,137.431,25.8472,134.361"/>
     <polygon points="118.444,108.972,2.86111,108.972,2.86111,3.125,85.1667,3.125,118.444,35.9722"/>
     <polygon fill="#1A1A1A" points="0,91.75,29.3889,121.153,91.7639,121.153,121.139,91.75,121.139,111.042,91.7639,140.431,29.3889,140.431,0,111.042"/>
     <path fill="#1A1A1A" d="M106.917,47.4028c-5.76389,-20.2778,-24.2083,-23.0417,-46.3472,-23.0417c-22.0278,0,-40.3889,2.61111,-46.2639,22.7361l0,39.125c5.86111,20.125,24.2361,34.9306,46.2639,34.9306c22.1389,0,40.5833,-14.9444,46.3472,-35.2222L106.917,47.4028z"/>
     <path fill="#333333" d="M101.694,60.5694c0,-5.11111,2.01389,-9.70833,5.22222,-13.1806c-5.76389,-20.2778,-24.2083,-35.2222,-46.3472,-35.2222c-22.0278,0,-40.3889,14.7917,-46.2639,34.9167c3.375,3.5,5.45833,8.23611,5.45833,13.4722c0,5.23611,-2.08333,9.97222,-5.45833,13.4722C20.1806,94.1667,38.5417,108.972,60.5694,108.972c22.1389,0,40.5833,-14.9444,46.3472,-35.2222C103.708,70.2917,101.694,65.6806,101.694,60.5694z"/>
     <path opacity="0.25" d="M14.3194,74.0417C20.1806,94.1667,38.5417,107.764,60.5694,107.764c22.1389,0,40.5833,-13.7361,46.3472,-34.0139l0,0C101.153,94.0278,82.7083,108.972,60.5694,108.972C38.5417,108.972,20.1806,94.1667,14.3194,74.0417L14.3194,74.0417z"/>
     <path opacity="0.2" fill="#FFFFFF" d="M14.3194,45.7917c3.375,3.5,5.45833,8.23611,5.45833,13.4722l0,1.30556c0,-5.23611,-2.08333,-9.97222,-5.45833,-13.4722L14.3194,45.7917z"/>
     <path opacity="0.2" fill="#FFFFFF" d="M101.694,59.2778c0,-5.11111,2.01389,-9.70833,5.22222,-13.1806l0,1.30556c-3.20833,3.47222,-5.22222,8.06944,-5.22222,13.1806L101.694,59.2778z"/>
     <path fill="#333333" d="M91.75,0.0138889L91.75,0.0138889C91.7639,0,26.2083,0,14.3194,0C3.27778,0,0,3.06944,0,14.3194c0,13.7083,0,77.4583,0,77.4583l0,-0.0138889l29.3889,29.3889l62.375,0l29.375,-29.3889L121.139,29.4028L91.75,0.0138889zM60.5556,117.25c-31.3056,0,-56.6806,-25.375,-56.6806,-56.6806S29.25,3.88889,60.5556,3.88889s56.7083,25.375,56.7083,56.6806S91.8611,117.25,60.5556,117.25z"/>
     <polygon fill="#E6E6E6" points="20.5833,117.764,21.9722,117.764,4.40278,100.181,3.01389,100.181"/>
     <path opacity="0.2" fill="#FFFFFF" d="M0,15.2083c0,-11.25,3.27778,-14.3194,14.3194,-14.3194c11.9028,0,77.4583,0,77.4583,0L91.75,0.902778l29.3889,29.3889L121.139,29.4028L91.75,0.0138889L91.7639,0c0,0,-65.5556,0,-77.4583,0C3.27778,0,0,3.06944,0,14.3194L0,15.2083z"/>
     <path opacity="0.25" d="M3.875,60.8889c0,-31.3056,25.375,-56.6806,56.6806,-56.6806S117.264,29.5833,117.264,60.8889L117.264,59.8056c0,-31.3056,-25.4028,-56.6806,-56.7083,-56.6806S3.875,28.5,3.875,59.8056L3.875,60.8889z"/>
     <polygon opacity="0.8" points="0,90.4306,29.3889,119.819,91.7639,119.819,121.139,90.4306,121.139,91.75,91.7639,121.153,29.3889,121.153,0,91.75"/>
     <polygon opacity="0.8" points="0,109.708,29.3889,139.111,91.7639,139.111,121.139,109.708,121.139,111.042,91.7639,140.431,29.3889,140.431,0,111.042"/>
     <polygon fill="#CCCCCC" points="3.01389,119.847,20.5833,137.431,20.5833,117.764,3.01389,100.181"/>
     <rect width="1.38889" x="20.5833" y="117.764" fill="#B3B3B3" height="19.6667"/>
     <path opacity="0.2" fill="#FFFFFF" d="M3.875,62.0833c0,31.3056,25.4722,56.1111,56.7778,56.1111s56.6111,-24.8056,56.6111,-56.1111L117.264,60.5694c0,31.3056,-25.4028,56.6806,-56.7083,56.6806S3.875,91.875,3.875,60.5694L3.875,62.0833z"/>
     <rect width="1.45833" x="90.3056" opacity="0.8" y="121.153" height="17.9583"/>
     <rect width="1.45833" x="29.375" opacity="0.8" y="121.153" height="17.9583"/>
     <text fill="#666666" font-family="'OCRA'" transform="matrix(1, 0, 0, 1, 26.2208, 64.0458)" font-size="13.0125">CDRH2D09</text>
    </g>
   </g>
  </g>
  <g transform="translate(144.612,334.05)">
   <rect width="31.93" x="0" y="0" fill="#8D8C8C" height="31.9" id="connector0pin"/>
   <rect width="16.4442" x="7.79153" y="7.73544" fill="#8C8663" height="16.4152"/>
   <polygon fill="#B8AF82" points="0,31.9,7.79153,24.1368,7.79153,6.97162,0,0"/>
   <polygon fill="#80795B" points="24.2079,7.76321,7.90264,7.76321,0,0,31.93,0"/>
   <polygon fill="#5E5B43" points="24.2079,24.1368,24.2079,7.76321,31.93,0,31.93,31.9"/>
   <polygon fill="#9A916C" points="0,31.9,7.87486,24.1368,24.2079,24.1368,31.93,31.9"/>
  </g>
  <g transform="translate(144.612,34.05)">
   <rect width="31.93" x="0" y="0" fill="#8D8C8C" height="31.9" id="connector1pin"/>
   <rect width="16.4442" x="7.79153" y="7.73544" fill="#8C8663" height="16.4152"/>
   <polygon fill="#B8AF82" points="0,31.9,7.79153,24.1368,7.79153,6.97162,0,0"/>
   <polygon fill="#80795B" points="24.2079,7.76321,7.90264,7.76321,0,0,31.93,0"/>
   <polygon fill="#5E5B43" points="24.2079,24.1368,24.2079,7.76321,31.93,0,31.93,31.9"/>
   <polygon fill="#9A916C" points="0,31.9,7.87486,24.1368,24.2079,24.1368,31.93,31.9"/>
  </g>
 </g>
</svg>
