<?xml version='1.0' encoding='UTF-8' standalone='no'?>
<!-- Created with Fritzing (http://www.fritzing.org/) -->
<svg xmlns="http://www.w3.org/2000/svg" width="0.464833in" x="0in" version="1.2" y="0in"  height="0.4in" viewBox="0 0 464.833 400" baseProfile="tiny" xmlns:svg="http://www.w3.org/2000/svg">
 <desc>Fritzing breadboard generated by brd2svg</desc>
 <g id="breadboard">
  <g id="icon">
   <path fill="#1F7A34" stroke="none" stroke-width="0" d="M0,0L0,170A30,30 0 0 1 0,230L0,400L464.833,400L464.833,0L0,0z"/>
   <g transform="translate(100,134.514)">
    <g>
     <rect width="259.569" x="2.625" fill="#A66239" height="107.458"/>
     <rect width="259.569" x="2.625" opacity="0.2" fill="#FFFFFF" height="1.93056" enable-background="new    "/>
     <polygon fill="#7D4A2B" points="2.5,87.0417,262.194,87.0417,262.194,107.972,259.583,130.972,5.16667,130.972,2.5,107.972"/>
     <rect width="26.7083" x="2.625" y="0.0138889" height="87.0278" fill-opacity="0.5"/>
     <line fill="none" y1="130.944" x1="20.25" y2="130.944" x2="20.25"/>
     <rect width="260.236" x="1.95833" opacity="0.5" y="107.5" fill="#333333" height="0.986111" enable-background="new    "/>
     <rect width="260.236" x="1.95833" opacity="0.15" y="106.625" fill="#FFFFFF" height="0.875" enable-background="new    "/>
     <rect width="260.236" x="1.95833" opacity="0.27" y="86.6389" fill="#333333" height="0.847222" enable-background="new    "/>
     <rect width="2.63889" x="262.194" y="25.2222" fill="#CCCCCC" height="73.625"/>
     <rect width="2.63889" x="-0.0138889" y="25.2222" fill="#CCCCCC" height="73.625"/>
     <polygon fill="#B3B3B3" points="-0.0138889,98.8472,2.625,98.8472,2.625,109.042,5.27778,130.972,2.625,130.972,-0.0138889,110.125"/>
     <polygon fill="#B3B3B3" points="264.875,98.8472,262.194,98.8472,262.194,109.042,259.583,130.972,262.194,130.972,264.875,110.125"/>
     <rect width="2.63889" x="262.194" opacity="0.5" y="25.2222" fill="#FFFFFF" height="1.08333" enable-background="new    "/>
     <rect width="2.63889" x="-0.0138889" opacity="0.5" y="25.2222" fill="#FFFFFF" height="1.08333" enable-background="new    "/>
     <rect width="2.63889" x="-0.0138889" y="98.8472" fill="#999999" height="1.11111"/>
     <rect width="2.63889" x="262.194" y="98.8472" fill="#999999" height="1.11111"/>
     <polygon opacity="0.2" points="2.38889,129.167,262.472,129.167,262.194,130.972,2.625,130.972" enable-background="new    "/>
    </g>
   </g>
  </g>
  <g transform="translate(216.451,334.05)">
   <rect width="31.93" x="0" y="0" fill="#8D8C8C" height="31.9" id="connector0pin"/>
   <rect width="16.4442" x="7.79153" y="7.73544" fill="#8C8663" height="16.4152"/>
   <polygon fill="#B8AF82" points="0,31.9,7.79153,24.1368,7.79153,6.97162,0,0"/>
   <polygon fill="#80795B" points="24.2079,7.76321,7.90264,7.76321,0,0,31.93,0"/>
   <polygon fill="#5E5B43" points="24.2079,24.1368,24.2079,7.76321,31.93,0,31.93,31.9"/>
   <polygon fill="#9A916C" points="0,31.9,7.87486,24.1368,24.2079,24.1368,31.93,31.9"/>
  </g>
  <g transform="translate(216.451,34.05)">
   <rect width="31.93" x="0" y="0" fill="#8D8C8C" height="31.9" id="connector1pin"/>
   <rect width="16.4442" x="7.79153" y="7.73544" fill="#8C8663" height="16.4152"/>
   <polygon fill="#B8AF82" points="0,31.9,7.79153,24.1368,7.79153,6.97162,0,0"/>
   <polygon fill="#80795B" points="24.2079,7.76321,7.90264,7.76321,0,0,31.93,0"/>
   <polygon fill="#5E5B43" points="24.2079,24.1368,24.2079,7.76321,31.93,0,31.93,31.9"/>
   <polygon fill="#9A916C" points="0,31.9,7.87486,24.1368,24.2079,24.1368,31.93,31.9"/>
  </g>
 </g>
</svg>
