<?xml version="1.0" encoding="utf-8"?>
<!-- Generator: Adobe Illustrator 15.1.0, SVG Export Plug-In . SVG Version: 6.00 Build 0)  -->
<!DOCTYPE svg PUBLIC "-//W3C//DTD SVG 1.1//EN" "http://www.w3.org/Graphics/SVG/1.1/DTD/svg11.dtd">
<svg version="1.1" id="Ebene_1" xmlns:svg="http://www.w3.org/2000/svg"
	 xmlns="http://www.w3.org/2000/svg" xmlns:xlink="http://www.w3.org/1999/xlink" x="0px" y="0px" width="46.988px"
	 height="27.393px" viewBox="0 0 46.988 27.393" enable-background="new 0 0 46.988 27.393" xml:space="preserve">
<g id="breadboard">
	<circle id="connector0pad" fill="none" cx="8.918" cy="25.694" r="2.631"/>
	<circle id="connector1pad" fill="none" cx="23.091" cy="25.694" r="2.631"/>
	<circle id="connector2pad" fill="none" cx="37.265" cy="25.694" r="2.631"/>
<g>
	<g >
		<polygon fill="#254E89" points="0,2.787 0.563,2.787 0.563,7.349 0,7.349 0,18.207 46.428,18.207 46.428,7.349 46.989,7.349 
			46.989,2.787 46.428,2.787 46.428,0 0,0 		"/>
	</g>
	<rect x="0" y="8.837" fill="#123C66" width="46.428" height="18.551"/>
	<g>
		<path fill="#3A5C8E" d="M37.305,7.74c1.774,0,3.221-1.467,3.221-3.278h-6.438C34.083,6.274,35.527,7.74,37.305,7.74z"/>
		<path fill="#123C66" d="M37.305,1.189c-1.773,0-3.218,1.469-3.218,3.271h6.437C40.526,2.656,39.082,1.189,37.305,1.189z"/>
		<polygon fill="#254E89" points="33.45,9.594 33.45,19.668 36.176,19.668 36.176,27.39 38.452,27.39 38.452,19.668 40.974,19.668 
			40.974,9.594 		"/>
		<rect x="33.758" y="9.845" fill="#8D8C8C" width="6.912" height="9.517"/>
		<path fill="#A0A0A0" d="M37.212,16.249c1.64,0,2.971-1.354,2.971-3.029h-5.949C34.236,14.895,35.57,16.249,37.212,16.249z"/>
		<path fill="#565656" d="M37.212,10.203c-1.642,0-2.979,1.351-2.979,3.024h5.949C40.183,11.557,38.858,10.203,37.212,10.203z"/>
		<ellipse fill="#383838" cx="37.21" cy="13.229" rx="2.306" ry="2.347"/>
		<rect x="36.47" y="19.359" fill="#6D6D6D" width="1.689" height="8.032"/>
		<g>
			<g>
				<polygon fill="#A0A0A0" stroke="#57585A" stroke-width="0.17" stroke-miterlimit="10" points="35.243,11.571 34.215,10.531 
					33.875,10.503 33.875,9.962 40.556,9.962 40.556,10.497 40.334,10.497 39.196,11.571 				"/>
			</g>
		</g>
		<g>
			<path fill="#8B8B8B" d="M37.305,7.104c-1.432,0-2.598-1.186-2.598-2.644c0-1.455,1.166-2.64,2.598-2.64
				c0.688,0,1.336,0.267,1.825,0.761c0.498,0.501,0.771,1.167,0.771,1.879C39.903,5.919,38.738,7.104,37.305,7.104z"/>
			<g>
				<path d="M37.305,1.855c1.415,0,2.565,1.167,2.563,2.604c0,1.441-1.146,2.606-2.563,2.606c-1.413,0-2.563-1.166-2.563-2.606
					C34.743,3.022,35.892,1.855,37.305,1.855 M37.305,1.783c-1.455,0-2.636,1.202-2.636,2.677c0,1.478,1.179,2.681,2.636,2.681
					c1.452,0,2.631-1.203,2.631-2.681c0.004-0.722-0.273-1.396-0.781-1.906C38.657,2.059,38.001,1.783,37.305,1.783L37.305,1.783z"
					/>
			</g>
			<g opacity="0.5">
				<path d="M37.305,2.068c0.621,0,1.204,0.243,1.646,0.687c0.448,0.452,0.699,1.059,0.695,1.704c0,1.321-1.05,2.396-2.343,2.396
					c-1.297,0-2.348-1.073-2.348-2.396C34.958,3.142,36.008,2.068,37.305,2.068 M37.305,1.855c-1.413,0-2.563,1.167-2.563,2.604
					c0,1.441,1.148,2.606,2.563,2.606c1.415,0,2.563-1.166,2.563-2.606C39.871,3.022,38.72,1.855,37.305,1.855L37.305,1.855z"/>
			</g>
		</g>
		<g>
			<path fill="#707070" d="M34.958,4.46c0,0.218,0.036,0.423,0.089,0.625h4.515c0.052-0.198,0.087-0.406,0.087-0.625
				c0-0.207-0.03-0.413-0.087-0.609h-4.521C34.994,4.046,34.958,4.25,34.958,4.46z"/>
		</g>
		<polygon fill="#545252" points="39.208,3.85 37.909,3.85 37.909,2.254 36.703,2.254 36.703,3.85 35.406,3.85 35.406,5.078 
			36.703,5.078 36.703,6.674 37.909,6.674 37.909,5.078 39.208,5.078 		"/>
	</g>
	<g>
		<path fill="#3A5C8E" d="M23.174,7.74c1.776,0,3.223-1.467,3.223-3.278h-6.44C19.953,6.274,21.398,7.74,23.174,7.74z"/>
		<path fill="#123C66" d="M23.174,1.189c-1.774,0-3.218,1.469-3.218,3.271h6.438C26.397,2.656,24.955,1.189,23.174,1.189z"/>
		<polygon fill="#254E89" points="19.32,9.594 19.32,19.668 22.045,19.668 22.045,27.39 24.323,27.39 24.323,19.668 26.847,19.668 
			26.847,9.594 		"/>
		<rect x="19.629" y="9.845" fill="#8D8C8C" width="6.914" height="9.517"/>
		<path fill="#A0A0A0" d="M23.083,16.249c1.64,0,2.971-1.354,2.971-3.029h-5.949C20.107,14.895,21.438,16.249,23.083,16.249z"/>
		<path fill="#565656" d="M23.083,10.203c-1.641,0-2.979,1.351-2.979,3.024h5.949C26.054,11.557,24.727,10.203,23.083,10.203z"/>
		<ellipse fill="#383838" cx="23.082" cy="13.229" rx="2.307" ry="2.347"/>
		<rect x="22.34" y="19.359" fill="#6D6D6D" width="1.688" height="8.032"/>
		<g>
			<g>
				<polygon fill="#A0A0A0" stroke="#57585A" stroke-width="0.17" stroke-miterlimit="10" points="21.114,11.571 20.084,10.531 
					19.746,10.503 19.746,9.962 26.429,9.962 26.429,10.497 26.204,10.497 25.069,11.571 				"/>
			</g>
		</g>
		<g>
			<path fill="#8B8B8B" d="M23.174,7.104c-1.432,0-2.597-1.186-2.597-2.644c0-1.455,1.165-2.64,2.597-2.64
				c0.687,0,1.336,0.267,1.827,0.761c0.498,0.501,0.771,1.167,0.771,1.879C25.774,5.919,24.607,7.104,23.174,7.104z"/>
			<g>
				<path d="M23.174,1.855c1.419,0,2.564,1.167,2.562,2.604c0,1.441-1.146,2.606-2.562,2.606c-1.413,0-2.562-1.166-2.562-2.606
					C20.613,3.022,21.761,1.855,23.174,1.855 M23.174,1.783c-1.454,0-2.634,1.202-2.634,2.677c0,1.478,1.179,2.681,2.634,2.681
					c1.454,0,2.633-1.203,2.633-2.681c0.002-0.722-0.273-1.396-0.783-1.906C24.53,2.059,23.871,1.783,23.174,1.783L23.174,1.783z"/>
			</g>
			<g opacity="0.5">
				<path d="M23.174,2.068c0.623,0,1.206,0.243,1.649,0.687c0.449,0.452,0.698,1.059,0.696,1.704c0,1.321-1.05,2.396-2.347,2.396
					c-1.295,0-2.347-1.073-2.347-2.396C20.828,3.142,21.879,2.068,23.174,2.068 M23.174,1.855c-1.413,0-2.562,1.167-2.562,2.604
					c0,1.441,1.148,2.606,2.562,2.606c1.419,0,2.562-1.166,2.562-2.606C25.74,3.022,24.593,1.855,23.174,1.855L23.174,1.855z"/>
			</g>
		</g>
		<g>
			<path fill="#707070" d="M20.828,4.46c0,0.218,0.035,0.423,0.089,0.625h4.514c0.053-0.198,0.089-0.406,0.089-0.625
				c0-0.207-0.032-0.413-0.087-0.609h-4.52C20.864,4.046,20.828,4.25,20.828,4.46z"/>
		</g>
		<polygon fill="#545252" points="25.077,3.85 23.778,3.85 23.778,2.254 22.571,2.254 22.571,3.85 21.275,3.85 21.275,5.078 
			22.571,5.078 22.571,6.674 23.778,6.674 23.778,5.078 25.077,5.078 		"/>
	</g>
	<g>
		<path fill="#3A5C8E" d="M9.045,7.74c1.775,0,3.222-1.467,3.222-3.278H5.827C5.824,6.274,7.268,7.74,9.045,7.74z"/>
		<path fill="#123C66" d="M9.045,1.189c-1.774,0-3.218,1.469-3.218,3.271h6.436C12.268,2.656,10.824,1.189,9.045,1.189z"/>
		<polygon fill="#254E89" points="5.19,9.594 5.19,19.668 7.917,19.668 7.917,27.39 10.192,27.39 10.192,19.668 12.714,19.668 
			12.714,9.594 		"/>
		<rect x="5.498" y="9.845" fill="#8D8C8C" width="6.913" height="9.517"/>
		<path fill="#A0A0A0" d="M8.953,16.249c1.639,0,2.971-1.354,2.971-3.029h-5.95C5.976,14.895,7.31,16.249,8.953,16.249z"/>
		<path fill="#565656" d="M8.953,10.203c-1.642,0-2.979,1.351-2.979,3.024h5.95C11.925,11.557,10.598,10.203,8.953,10.203z"/>
		<ellipse fill="#383838" cx="8.951" cy="13.229" rx="2.306" ry="2.347"/>
		<rect x="8.211" y="19.359" fill="#6D6D6D" width="1.688" height="8.032"/>
		<g>
			<g>
				<polygon fill="#A0A0A0" stroke="#57585A" stroke-width="0.17" stroke-miterlimit="10" points="6.983,11.571 5.955,10.531 
					5.615,10.503 5.615,9.962 12.296,9.962 12.296,10.497 12.075,10.497 10.938,11.571 				"/>
			</g>
		</g>
		<g>
			<path fill="#8B8B8B" d="M9.045,7.104c-1.433,0-2.599-1.186-2.599-2.644c0-1.455,1.166-2.64,2.599-2.64
				c0.686,0,1.335,0.267,1.826,0.761c0.499,0.501,0.773,1.167,0.773,1.879C11.643,5.919,10.478,7.104,9.045,7.104z"/>
			<g>
				<path d="M9.045,1.855c1.418,0,2.564,1.167,2.562,2.604c0,1.441-1.145,2.606-2.562,2.606c-1.413,0-2.563-1.166-2.563-2.606
					C6.482,3.022,7.631,1.855,9.045,1.855 M9.045,1.783c-1.453,0-2.634,1.202-2.634,2.677c0,1.478,1.179,2.681,2.634,2.681
					c1.454,0,2.633-1.203,2.633-2.681c0.002-0.722-0.277-1.396-0.783-1.906C10.396,2.059,9.74,1.783,9.045,1.783L9.045,1.783z"/>
			</g>
			<g opacity="0.5">
				<path d="M9.045,2.068c0.622,0,1.204,0.243,1.647,0.687c0.45,0.453,0.701,1.061,0.699,1.705c0,1.321-1.052,2.396-2.347,2.396
					c-1.296,0-2.346-1.074-2.346-2.396C6.697,3.142,7.749,2.068,9.045,2.068 M9.045,1.855c-1.413,0-2.563,1.167-2.563,2.604
					c0,1.441,1.15,2.606,2.563,2.606c1.418,0,2.562-1.166,2.562-2.606C11.61,3.022,10.462,1.855,9.045,1.855L9.045,1.855z"/>
			</g>
		</g>
		<g>
			<path fill="#707070" d="M6.697,4.46c0,0.218,0.036,0.423,0.09,0.625H11.3c0.053-0.198,0.088-0.406,0.088-0.625
				c0-0.207-0.033-0.413-0.087-0.609H6.784C6.734,4.046,6.697,4.25,6.697,4.46z"/>
		</g>
		<polygon fill="#545252" points="10.948,3.85 9.648,3.85 9.648,2.254 8.441,2.254 8.441,3.85 7.146,3.85 7.146,5.078 8.441,5.078 
			8.441,6.674 9.648,6.674 9.648,5.078 10.948,5.078 		"/>
	</g>
</g></g>
</svg>
