<?xml version='1.0' encoding='UTF-8' standalone='no'?>
<!-- Created with Fritzing (http://www.fritzing.org/) -->
<svg xmlns="http://www.w3.org/2000/svg" width="0.8in" x="0in" version="1.2" y="0in"  height="0.4in" viewBox="0 0 800 400" baseProfile="tiny" xmlns:svg="http://www.w3.org/2000/svg">
 <desc>Fritzing breadboard generated by brd2svg</desc>
 <g id="breadboard">
  <g id="icon">
   <path fill="#1F7A34" stroke="none" stroke-width="0" d="M0,0L0,170A30,30 0 0 1 0,230L0,400L800,400L800,0L0,0z"/>
   <g transform="translate(175.986,100.541)">
    <g>
     <g>
      <g>
       <rect width="7.86111" x="346.569" y="0" fill="#E6E6E6" height="19.6806"/>
      </g>
      <g>
       <rect width="7.86111" x="326.875" y="0" fill="#E6E6E6" height="19.6806"/>
      </g>
      <g>
       <rect width="7.86111" x="307.181" y="0" fill="#E6E6E6" height="19.6806"/>
      </g>
      <g>
       <rect width="7.86111" x="287.486" y="0" fill="#E6E6E6" height="19.6806"/>
      </g>
      <g>
       <rect width="7.86111" x="267.792" y="0" fill="#E6E6E6" height="19.6806"/>
      </g>
      <g>
       <rect width="7.86111" x="248.097" y="0" fill="#E6E6E6" height="19.6806"/>
      </g>
      <g>
       <rect width="7.86111" x="228.417" y="0" fill="#E6E6E6" height="19.6806"/>
      </g>
      <g>
       <rect width="7.86111" x="208.722" y="0" fill="#E6E6E6" height="19.6806"/>
      </g>
      <g>
       <rect width="7.86111" x="189.028" y="0" fill="#E6E6E6" height="19.6806"/>
      </g>
      <g>
       <rect width="7.86111" x="169.333" y="0" fill="#E6E6E6" height="19.6806"/>
      </g>
      <g>
       <rect width="7.86111" x="149.639" y="0" fill="#E6E6E6" height="19.6806"/>
      </g>
      <g>
       <rect width="7.86111" x="129.944" y="0" fill="#E6E6E6" height="19.6806"/>
      </g>
      <g>
       <rect width="7.86111" x="110.25" y="0" fill="#E6E6E6" height="19.6806"/>
      </g>
      <g>
       <rect width="7.86111" x="90.5556" y="0" fill="#E6E6E6" height="19.6806"/>
      </g>
     </g>
     <g opacity="0.2">
      <g>
       <rect width="7.86111" x="346.569" y="0" fill="#FFFFFF" height="3.88889"/>
      </g>
      <g>
       <rect width="7.86111" x="326.875" y="0" fill="#FFFFFF" height="3.88889"/>
      </g>
      <g>
       <rect width="7.86111" x="307.181" y="0" fill="#FFFFFF" height="3.88889"/>
      </g>
      <g>
       <rect width="7.86111" x="287.486" y="0" fill="#FFFFFF" height="3.88889"/>
      </g>
      <g>
       <rect width="7.86111" x="267.792" y="0" fill="#FFFFFF" height="3.88889"/>
      </g>
      <g>
       <rect width="7.86111" x="248.097" y="0" fill="#FFFFFF" height="3.88889"/>
      </g>
      <g>
       <rect width="7.86111" x="228.417" y="0" fill="#FFFFFF" height="3.88889"/>
      </g>
      <g>
       <rect width="7.86111" x="208.722" y="0" fill="#FFFFFF" height="3.88889"/>
      </g>
      <g>
       <rect width="7.86111" x="189.028" y="0" fill="#FFFFFF" height="3.88889"/>
      </g>
      <g>
       <rect width="7.86111" x="169.333" y="0" fill="#FFFFFF" height="3.88889"/>
      </g>
      <g>
       <rect width="7.86111" x="149.639" y="0" fill="#FFFFFF" height="3.88889"/>
      </g>
      <g>
       <rect width="7.86111" x="129.944" y="0" fill="#FFFFFF" height="3.88889"/>
      </g>
      <g>
       <rect width="7.86111" x="110.25" y="0" fill="#FFFFFF" height="3.88889"/>
      </g>
      <g>
       <rect width="7.86111" x="90.5556" y="0" fill="#FFFFFF" height="3.88889"/>
      </g>
     </g>
     <g>
      <rect width="31.3889" x="14.2083" y="9.86111" fill="#E6E6E6" height="63.9861"/>
      <rect width="31.4167" x="402.431" y="9.81944" fill="#E6E6E6" height="64.0278"/>
      <rect width="356.819" x="45.5972" y="9.84722" fill="#F2F2F2" height="101.5"/>
      <rect width="45.5972" x="402.431" y="120.514" fill="#B3B3B3" height="2.33333"/>
      <rect width="45.5972" y="120.514" fill="#B3B3B3" height="2.33333"/>
      <rect width="419.625" x="14.2083" y="189.875" fill="#603813" height="9.04167"/>
      <rect width="402.431" x="22.8056" y="157" fill="#CCCCCC" height="33.0417"/>
      <rect width="45.5972" x="402.431" y="81.7222" fill="#E6E6E6" height="38.7917"/>
      <rect width="45.5972" y="81.7222" fill="#E6E6E6" height="38.7917"/>
      <rect width="45.5972" x="402.431" opacity="0.4" y="81.7222" fill="#FFFFFF" height="2.33333" enable-background="new    "/>
      <rect width="45.5972" opacity="0.4" y="81.7222" fill="#FFFFFF" height="2.33333" enable-background="new    "/>
      <rect width="8.59722" x="14.2083" y="157" fill="#603813" height="33.0417"/>
      <g>
       <g>
        <rect width="7.86111" x="406.347" y="157.292" fill="#E6E6E6" height="24.0417"/>
       </g>
       <g>
        <rect width="7.86111" x="377.681" y="157.292" fill="#E6E6E6" height="24.0417"/>
       </g>
       <g>
        <rect width="7.84722" x="349.028" y="157.292" fill="#E6E6E6" height="24.0417"/>
       </g>
       <g>
        <rect width="7.84722" x="320.389" y="157.292" fill="#E6E6E6" height="24.0417"/>
       </g>
       <g>
        <rect width="7.86111" x="291.722" y="157.292" fill="#E6E6E6" height="24.0417"/>
       </g>
       <g>
        <rect width="7.84722" x="263.069" y="157.292" fill="#E6E6E6" height="24.0417"/>
       </g>
       <g>
        <rect width="7.86111" x="234.403" y="157.292" fill="#E6E6E6" height="24.0417"/>
       </g>
       <g>
        <rect width="7.86111" x="205.75" y="157.292" fill="#E6E6E6" height="24.0417"/>
       </g>
       <g>
        <rect width="7.86111" x="177.097" y="157.292" fill="#E6E6E6" height="24.0417"/>
       </g>
       <g>
        <rect width="7.86111" x="148.444" y="157.292" fill="#E6E6E6" height="24.0417"/>
       </g>
       <g>
        <rect width="7.86111" x="119.792" y="157.292" fill="#E6E6E6" height="24.0417"/>
       </g>
       <g>
        <rect width="7.86111" x="91.125" y="157.292" fill="#E6E6E6" height="24.0417"/>
       </g>
       <g>
        <rect width="7.86111" x="62.4722" y="157.292" fill="#E6E6E6" height="24.0417"/>
       </g>
       <g>
        <rect width="7.86111" x="33.8194" y="157.292" fill="#E6E6E6" height="24.0417"/>
       </g>
      </g>
      <g opacity="0.2">
       <g>
        <rect width="7.86111" x="406.347" y="157.292" height="4.20833"/>
       </g>
       <g>
        <rect width="7.86111" x="377.681" y="157.292" height="4.20833"/>
       </g>
       <g>
        <rect width="7.84722" x="349.028" y="157.292" height="4.20833"/>
       </g>
       <g>
        <rect width="7.84722" x="320.389" y="157.292" height="4.20833"/>
       </g>
       <g>
        <rect width="7.86111" x="291.722" y="157.292" height="4.20833"/>
       </g>
       <g>
        <rect width="7.84722" x="263.069" y="157.292" height="4.20833"/>
       </g>
       <g>
        <rect width="7.86111" x="234.403" y="157.292" height="4.20833"/>
       </g>
       <g>
        <rect width="7.86111" x="205.75" y="157.292" height="4.20833"/>
       </g>
       <g>
        <rect width="7.86111" x="177.097" y="157.292" height="4.20833"/>
       </g>
       <g>
        <rect width="7.86111" x="148.444" y="157.292" height="4.20833"/>
       </g>
       <g>
        <rect width="7.86111" x="119.792" y="157.292" height="4.20833"/>
       </g>
       <g>
        <rect width="7.86111" x="91.125" y="157.292" height="4.20833"/>
       </g>
       <g>
        <rect width="7.86111" x="62.4722" y="157.292" height="4.20833"/>
       </g>
       <g>
        <rect width="7.86111" x="33.8194" y="157.292" height="4.20833"/>
       </g>
      </g>
      <rect width="8.58333" x="425.222" y="157" fill="#603813" height="33.0417"/>
      <rect width="419.611" x="14.1944" opacity="0.4" y="9.84722" fill="#FFFFFF" height="2.33333" enable-background="new    "/>
      <rect width="419.625" x="14.2083" y="148.611" fill="#754C24" height="9.01389"/>
      <rect width="356.819" x="45.5972" y="79.7083" fill="#754C24" height="68.5833"/>
      <rect width="356.819" x="45.5972" opacity="0.2" y="79.7083" height="3.18056" enable-background="new    "/>
     </g>
     <rect width="419.611" x="14.2222" opacity="0.1" y="153.125" height="3.41667" enable-background="new    "/>
     <rect width="419.611" x="14.2222" opacity="0.2" y="156.542" height="3.41667" enable-background="new    "/>
     <rect width="31.3889" x="14.2083" y="73.8611" fill="#F2F2F2" height="74.9722"/>
     <polygon fill="#F2F2F2" points="402.431,149.083,402.431,73.8611,433.833,73.8611,433.833,148.833"/>
     <rect width="31.4167" x="402.431" opacity="0.4" y="73.8611" fill="#FFFFFF" height="2.31944" enable-background="new    "/>
     <rect width="31.3889" x="14.2083" opacity="0.4" y="73.8611" fill="#FFFFFF" height="2.31944" enable-background="new    "/>
    </g>
   </g>
  </g>
  <g transform="translate(34.035,334.05)">
   <rect width="31.93" x="0" y="0" fill="#8D8C8C" height="31.9" id="connector0pin"/>
   <rect width="16.4442" x="7.79153" y="7.73544" fill="#8C8663" height="16.4152"/>
   <polygon fill="#B8AF82" points="0,31.9,7.79153,24.1368,7.79153,6.97162,0,0"/>
   <polygon fill="#80795B" points="24.2079,7.76321,7.90264,7.76321,0,0,31.93,0"/>
   <polygon fill="#5E5B43" points="24.2079,24.1368,24.2079,7.76321,31.93,0,31.93,31.9"/>
   <polygon fill="#9A916C" points="0,31.9,7.87486,24.1368,24.2079,24.1368,31.93,31.9"/>
  </g>
  <g transform="translate(34.035,34.05)">
   <rect width="31.93" x="0" y="0" fill="#8D8C8C" height="31.9" id="connector15pin"/>
   <rect width="16.4442" x="7.79153" y="7.73544" fill="#8C8663" height="16.4152"/>
   <polygon fill="#B8AF82" points="0,31.9,7.79153,24.1368,7.79153,6.97162,0,0"/>
   <polygon fill="#80795B" points="24.2079,7.76321,7.90264,7.76321,0,0,31.93,0"/>
   <polygon fill="#5E5B43" points="24.2079,24.1368,24.2079,7.76321,31.93,0,31.93,31.9"/>
   <polygon fill="#9A916C" points="0,31.9,7.87486,24.1368,24.2079,24.1368,31.93,31.9"/>
  </g>
  <g transform="translate(134.035,334.05)">
   <rect width="31.93" x="0" y="0" fill="#8D8C8C" height="31.9" id="connector1pin"/>
   <rect width="16.4442" x="7.79153" y="7.73544" fill="#8C8663" height="16.4152"/>
   <polygon fill="#B8AF82" points="0,31.9,7.79153,24.1368,7.79153,6.97162,0,0"/>
   <polygon fill="#80795B" points="24.2079,7.76321,7.90264,7.76321,0,0,31.93,0"/>
   <polygon fill="#5E5B43" points="24.2079,24.1368,24.2079,7.76321,31.93,0,31.93,31.9"/>
   <polygon fill="#9A916C" points="0,31.9,7.87486,24.1368,24.2079,24.1368,31.93,31.9"/>
  </g>
  <g transform="translate(134.035,34.05)">
   <rect width="31.93" x="0" y="0" fill="#8D8C8C" height="31.9" id="connector14pin"/>
   <rect width="16.4442" x="7.79153" y="7.73544" fill="#8C8663" height="16.4152"/>
   <polygon fill="#B8AF82" points="0,31.9,7.79153,24.1368,7.79153,6.97162,0,0"/>
   <polygon fill="#80795B" points="24.2079,7.76321,7.90264,7.76321,0,0,31.93,0"/>
   <polygon fill="#5E5B43" points="24.2079,24.1368,24.2079,7.76321,31.93,0,31.93,31.9"/>
   <polygon fill="#9A916C" points="0,31.9,7.87486,24.1368,24.2079,24.1368,31.93,31.9"/>
  </g>
  <g transform="translate(234.035,334.05)">
   <rect width="31.93" x="0" y="0" fill="#8D8C8C" height="31.9" id="connector2pin"/>
   <rect width="16.4442" x="7.79153" y="7.73544" fill="#8C8663" height="16.4152"/>
   <polygon fill="#B8AF82" points="0,31.9,7.79153,24.1368,7.79153,6.97162,0,0"/>
   <polygon fill="#80795B" points="24.2079,7.76321,7.90264,7.76321,0,0,31.93,0"/>
   <polygon fill="#5E5B43" points="24.2079,24.1368,24.2079,7.76321,31.93,0,31.93,31.9"/>
   <polygon fill="#9A916C" points="0,31.9,7.87486,24.1368,24.2079,24.1368,31.93,31.9"/>
  </g>
  <g transform="translate(234.035,34.05)">
   <rect width="31.93" x="0" y="0" fill="#8D8C8C" height="31.9" id="connector13pin"/>
   <rect width="16.4442" x="7.79153" y="7.73544" fill="#8C8663" height="16.4152"/>
   <polygon fill="#B8AF82" points="0,31.9,7.79153,24.1368,7.79153,6.97162,0,0"/>
   <polygon fill="#80795B" points="24.2079,7.76321,7.90264,7.76321,0,0,31.93,0"/>
   <polygon fill="#5E5B43" points="24.2079,24.1368,24.2079,7.76321,31.93,0,31.93,31.9"/>
   <polygon fill="#9A916C" points="0,31.9,7.87486,24.1368,24.2079,24.1368,31.93,31.9"/>
  </g>
  <g transform="translate(334.035,334.05)">
   <rect width="31.93" x="0" y="0" fill="#8D8C8C" height="31.9" id="connector3pin"/>
   <rect width="16.4442" x="7.79153" y="7.73544" fill="#8C8663" height="16.4152"/>
   <polygon fill="#B8AF82" points="0,31.9,7.79153,24.1368,7.79153,6.97162,0,0"/>
   <polygon fill="#80795B" points="24.2079,7.76321,7.90264,7.76321,0,0,31.93,0"/>
   <polygon fill="#5E5B43" points="24.2079,24.1368,24.2079,7.76321,31.93,0,31.93,31.9"/>
   <polygon fill="#9A916C" points="0,31.9,7.87486,24.1368,24.2079,24.1368,31.93,31.9"/>
  </g>
  <g transform="translate(334.035,34.05)">
   <rect width="31.93" x="0" y="0" fill="#8D8C8C" height="31.9" id="connector12pin"/>
   <rect width="16.4442" x="7.79153" y="7.73544" fill="#8C8663" height="16.4152"/>
   <polygon fill="#B8AF82" points="0,31.9,7.79153,24.1368,7.79153,6.97162,0,0"/>
   <polygon fill="#80795B" points="24.2079,7.76321,7.90264,7.76321,0,0,31.93,0"/>
   <polygon fill="#5E5B43" points="24.2079,24.1368,24.2079,7.76321,31.93,0,31.93,31.9"/>
   <polygon fill="#9A916C" points="0,31.9,7.87486,24.1368,24.2079,24.1368,31.93,31.9"/>
  </g>
  <g transform="translate(434.035,334.05)">
   <rect width="31.93" x="0" y="0" fill="#8D8C8C" height="31.9" id="connector4pin"/>
   <rect width="16.4442" x="7.79153" y="7.73544" fill="#8C8663" height="16.4152"/>
   <polygon fill="#B8AF82" points="0,31.9,7.79153,24.1368,7.79153,6.97162,0,0"/>
   <polygon fill="#80795B" points="24.2079,7.76321,7.90264,7.76321,0,0,31.93,0"/>
   <polygon fill="#5E5B43" points="24.2079,24.1368,24.2079,7.76321,31.93,0,31.93,31.9"/>
   <polygon fill="#9A916C" points="0,31.9,7.87486,24.1368,24.2079,24.1368,31.93,31.9"/>
  </g>
  <g transform="translate(434.035,34.05)">
   <rect width="31.93" x="0" y="0" fill="#8D8C8C" height="31.9" id="connector11pin"/>
   <rect width="16.4442" x="7.79153" y="7.73544" fill="#8C8663" height="16.4152"/>
   <polygon fill="#B8AF82" points="0,31.9,7.79153,24.1368,7.79153,6.97162,0,0"/>
   <polygon fill="#80795B" points="24.2079,7.76321,7.90264,7.76321,0,0,31.93,0"/>
   <polygon fill="#5E5B43" points="24.2079,24.1368,24.2079,7.76321,31.93,0,31.93,31.9"/>
   <polygon fill="#9A916C" points="0,31.9,7.87486,24.1368,24.2079,24.1368,31.93,31.9"/>
  </g>
  <g transform="translate(534.035,334.05)">
   <rect width="31.93" x="0" y="0" fill="#8D8C8C" height="31.9" id="connector5pin"/>
   <rect width="16.4442" x="7.79153" y="7.73544" fill="#8C8663" height="16.4152"/>
   <polygon fill="#B8AF82" points="0,31.9,7.79153,24.1368,7.79153,6.97162,0,0"/>
   <polygon fill="#80795B" points="24.2079,7.76321,7.90264,7.76321,0,0,31.93,0"/>
   <polygon fill="#5E5B43" points="24.2079,24.1368,24.2079,7.76321,31.93,0,31.93,31.9"/>
   <polygon fill="#9A916C" points="0,31.9,7.87486,24.1368,24.2079,24.1368,31.93,31.9"/>
  </g>
  <g transform="translate(534.035,34.05)">
   <rect width="31.93" x="0" y="0" fill="#8D8C8C" height="31.9" id="connector10pin"/>
   <rect width="16.4442" x="7.79153" y="7.73544" fill="#8C8663" height="16.4152"/>
   <polygon fill="#B8AF82" points="0,31.9,7.79153,24.1368,7.79153,6.97162,0,0"/>
   <polygon fill="#80795B" points="24.2079,7.76321,7.90264,7.76321,0,0,31.93,0"/>
   <polygon fill="#5E5B43" points="24.2079,24.1368,24.2079,7.76321,31.93,0,31.93,31.9"/>
   <polygon fill="#9A916C" points="0,31.9,7.87486,24.1368,24.2079,24.1368,31.93,31.9"/>
  </g>
  <g transform="translate(634.035,334.05)">
   <rect width="31.93" x="0" y="0" fill="#8D8C8C" height="31.9" id="connector6pin"/>
   <rect width="16.4442" x="7.79153" y="7.73544" fill="#8C8663" height="16.4152"/>
   <polygon fill="#B8AF82" points="0,31.9,7.79153,24.1368,7.79153,6.97162,0,0"/>
   <polygon fill="#80795B" points="24.2079,7.76321,7.90264,7.76321,0,0,31.93,0"/>
   <polygon fill="#5E5B43" points="24.2079,24.1368,24.2079,7.76321,31.93,0,31.93,31.9"/>
   <polygon fill="#9A916C" points="0,31.9,7.87486,24.1368,24.2079,24.1368,31.93,31.9"/>
  </g>
  <g transform="translate(634.035,34.05)">
   <rect width="31.93" x="0" y="0" fill="#8D8C8C" height="31.9" id="connector9pin"/>
   <rect width="16.4442" x="7.79153" y="7.73544" fill="#8C8663" height="16.4152"/>
   <polygon fill="#B8AF82" points="0,31.9,7.79153,24.1368,7.79153,6.97162,0,0"/>
   <polygon fill="#80795B" points="24.2079,7.76321,7.90264,7.76321,0,0,31.93,0"/>
   <polygon fill="#5E5B43" points="24.2079,24.1368,24.2079,7.76321,31.93,0,31.93,31.9"/>
   <polygon fill="#9A916C" points="0,31.9,7.87486,24.1368,24.2079,24.1368,31.93,31.9"/>
  </g>
  <g transform="translate(734.035,334.05)">
   <rect width="31.93" x="0" y="0" fill="#8D8C8C" height="31.9" id="connector7pin"/>
   <rect width="16.4442" x="7.79153" y="7.73544" fill="#8C8663" height="16.4152"/>
   <polygon fill="#B8AF82" points="0,31.9,7.79153,24.1368,7.79153,6.97162,0,0"/>
   <polygon fill="#80795B" points="24.2079,7.76321,7.90264,7.76321,0,0,31.93,0"/>
   <polygon fill="#5E5B43" points="24.2079,24.1368,24.2079,7.76321,31.93,0,31.93,31.9"/>
   <polygon fill="#9A916C" points="0,31.9,7.87486,24.1368,24.2079,24.1368,31.93,31.9"/>
  </g>
  <g transform="translate(734.035,34.05)">
   <rect width="31.93" x="0" y="0" fill="#8D8C8C" height="31.9" id="connector8pin"/>
   <rect width="16.4442" x="7.79153" y="7.73544" fill="#8C8663" height="16.4152"/>
   <polygon fill="#B8AF82" points="0,31.9,7.79153,24.1368,7.79153,6.97162,0,0"/>
   <polygon fill="#80795B" points="24.2079,7.76321,7.90264,7.76321,0,0,31.93,0"/>
   <polygon fill="#5E5B43" points="24.2079,24.1368,24.2079,7.76321,31.93,0,31.93,31.9"/>
   <polygon fill="#9A916C" points="0,31.9,7.87486,24.1368,24.2079,24.1368,31.93,31.9"/>
  </g>
 </g>
</svg>
