<?xml version="1.0" encoding="utf-8"?>
<!-- Generator: Adobe Illustrator 15.1.0, SVG Export Plug-In . SVG Version: 6.00 Build 0)  -->
<!DOCTYPE svg PUBLIC "-//W3C//DTD SVG 1.1//EN" "http://www.w3.org/Graphics/SVG/1.1/DTD/svg11.dtd">
<svg version="1.1" id="Ebene_1" xmlns:svg="http://www.w3.org/2000/svg"
	 xmlns="http://www.w3.org/2000/svg" xmlns:xlink="http://www.w3.org/1999/xlink" x="0px" y="0px" width="40.818px"
	 height="80.301px" viewBox="0 0 40.818 80.301" enable-background="new 0 0 40.818 80.301" xml:space="preserve">
<g id="breadboard">
	<rect id="connector1pin" x="12.357" y="75.766" fill="#F7BD13" width="1.815" height="4.535"/>
	<rect id="connector0pin" x="26.646" y="75.766" fill="#F7BD13" width="1.815" height="4.535"/>

<g id="icon">
	<g>
		<g>
			<rect x="12.357" y="65.166" fill="#8C8C8C" width="1.815" height="15.135"/>
			<rect x="26.646" y="65.166" fill="#8C8C8C" width="1.815" height="15.135"/>
		</g>
		<path fill="#1A1A1A" d="M20.411,46.533c11.272,0,20.41,6.396,20.41,14.287c0,7.887-9.138,14.281-20.41,14.281
			c-11.271,0-20.408-6.396-20.408-14.281C0.004,52.93,9.14,46.533,20.411,46.533z"/>
		<rect x="0" y="57.906" fill="#1A1A1A" width="40.802" height="2.914"/>
		<ellipse fill="#333333" cx="20.411" cy="58.505" rx="20.41" ry="14.286"/>
		<ellipse fill="#1A1A1A" cx="20.411" cy="48.575" rx="20.41" ry="14.286"/>
		<rect x="0" y="14.5" fill="#1A1A1A" width="40.818" height="34.077"/>
		<ellipse fill="#1A1A1A" cx="20.411" cy="14.502" rx="20.41" ry="14.285"/>
		<ellipse fill="#333333" cx="20.411" cy="13.234" rx="18.907" ry="13.234"/>
		<ellipse fill="#B2B2B2" cx="20.411" cy="12.469" rx="13.856" ry="9.699"/>
		<path fill="#D1AD00" d="M3.987,6.023C1.483,8.392,0,11.327,0,14.5v7.893h2.73v-0.762l0.031-0.283c0,0,0,0.148,0-0.387
			c0-0.955,0.452-1.57,1.224-1.876c0.742-0.292,0.684-5.514,0.684-5.514L3.987,6.023z"/>
		<path fill="#D1AD00" d="M6.557,12.47c0-1.72,0.645-3.333,1.765-4.731L3.987,6.014c-1.573,1.928-2.481,4.158-2.481,6.536
			c0,2.377,0.909,4.604,2.481,6.534l4.436-1.768C7.243,15.896,6.557,14.239,6.557,12.47z"/>
		<rect x="0" y="21.348" fill="#D1AD00" width="2.765" height="27.229"/>
		<rect x="0" y="39.027" fill="#D1AD00" width="2.765" height="4.702"/>
		<path fill="#D1AD00" d="M0,58.51v2.311c0,2.611,1.006,5.063,2.765,7.173V65.68V53.643V51.33C1.006,53.445,0,55.893,0,58.51z"/>
		<path fill="#D1AD00" d="M2.764,41.406C1.006,43.512,0,45.959,0,48.576c0,2.615,1.006,5.061,2.765,7.174V41.406z"/>
		<path fill="#D1AD00" d="M2.764,66.877c0,0,0-0.527,0-1.197c0-0.676,0.143-3,0.369-4.035c0.378-1.711,1.164-2.887,1.164-4.692
			c0-0.611-0.345-1.468-0.862-1.988c-0.513-0.512-0.684-1.313-0.684-2.151c0-0.845,0-1.912,0-1.912L1.57,50.936L1.7,65.661
			L2.764,66.877z"/>
		<path opacity="0.35" enable-background="new    " d="M20.411,3.228c7.545,0,13.665,4.222,13.838,9.472
			c0.005-0.077,0.022-0.15,0.022-0.229c0-5.357-6.206-9.701-13.856-9.701c-7.649,0-13.853,4.344-13.853,9.701
			c0,0.078,0.013,0.152,0.019,0.229C6.747,7.451,12.868,3.228,20.411,3.228z"/>
		<path opacity="0.35" enable-background="new    " d="M26.373,28.941v5.971v17.176c0,0,0,8.805,0,9.154
			c0,0.349-0.113,0.643-0.257,0.916c-0.162,0.314-0.547,0.807-0.547,0.807C31,61.803,35.79,58.66,38.251,55.143
			c0.17-0.217,0.348-0.682,0.407-0.881c0.068-0.205,0.087-0.404,0.087-0.404V52.09v-9.787V21.555
			C36.281,25.076,31.807,27.781,26.373,28.941z"/>
		<path opacity="0.35" enable-background="new    " d="M38.429,63.457c-0.188-0.51-0.741-1.152-0.741-1.152
			c-2.466,3.523-6.763,5.398-12.201,6.557c0,0,0.49,0.83,0.704,1.539c0.208,0.703,0.183,1.773,0.183,1.773v2.314
			c5.435-1.158,9.911-3.869,12.372-7.391c0,0,0-1.611,0-2.031C38.749,64.588,38.591,63.881,38.429,63.457z"/>
		<path opacity="0.2" fill="#FFFFFF" enable-background="new    " d="M19.494,67.795c-0.033-0.492-0.131-0.928-0.254-1.297
			c-8.669-0.381-15.718-4.916-17.15-10.787c-0.274,0.215-0.586,0.512-0.775,0.852c-0.155,0.275-0.294,0.689-0.409,1.08
			c1.385,6.438,9.101,11.414,18.577,11.721C19.519,68.928,19.536,68.406,19.494,67.795z"/>
		<path opacity="0.2" fill="#FFFFFF" enable-background="new    " d="M28.017,24.828c0.018-0.314-0.23-0.531-0.432-0.619
			c-0.211-0.09-0.562-0.229-1.218-0.057h-0.055c-1.852,0.457-3.835,0.723-5.906,0.723c-9.787,0-17.723-5.56-17.723-12.408
			c0-0.194,0.028-0.383,0.042-0.576c-0.001-0.017-0.021-0.024-0.021-0.047c0-0.306-0.116-0.703-0.377-0.744
			c-0.3-0.05-0.438,0.194-0.589,0.501c-0.073,0.153-0.125,0.37-0.167,0.623c-0.004,0.035-0.014,0.069-0.017,0.1
			C1.549,12.36,1.547,12.4,1.545,12.437c-0.027,0.264-0.049,0.527-0.049,0.793c0,7.311,8.468,13.237,18.906,13.237
			c2.62,0,5.092-0.402,7.355-1.078C27.984,25.285,28.005,25.104,28.017,24.828z"/>
		<path fill="#FFFFFF" d="M1.308,56.563c-0.153,0.273-0.288,0.687-0.405,1.078c0.345,1.598,1.084,3.113,2.143,4.484
			c0.028-0.186,0.058-0.344,0.089-0.482c0.187-0.84,0.466-1.547,0.706-2.264c-0.826-1.139-1.438-2.377-1.75-3.672
			C1.813,55.926,1.498,56.227,1.308,56.563z"/>
		<path fill="#FFFFFF" d="M2.687,12.47c0-0.195,0.029-0.383,0.042-0.577c-0.004-0.017-0.021-0.024-0.021-0.047
			c0-0.305-0.119-0.704-0.379-0.744c-0.297-0.05-0.438,0.194-0.585,0.502c-0.076,0.155-0.13,0.369-0.168,0.623
			c-0.006,0.033-0.013,0.069-0.019,0.1c-0.007,0.037-0.007,0.077-0.009,0.114c-0.029,0.262-0.045,0.527-0.045,0.792
			c0,2.189,0.769,4.243,2.106,6.059c0.115-0.074,0.23-0.153,0.37-0.208l1.08-0.432C3.562,16.835,2.687,14.727,2.687,12.47z"/>
	</g>
</g></g>
</svg>
