<?xml version='1.0' encoding='UTF-8' standalone='no'?>
<!-- Created with Fritzing (http://www.fritzing.org/) -->
<svg xmlns="http://www.w3.org/2000/svg" width="0.637014in" x="0in" version="1.2" y="0in"  height="0.4in" viewBox="0 0 637.014 400" baseProfile="tiny" xmlns:svg="http://www.w3.org/2000/svg">
 <desc>Fritzing breadboard generated by brd2svg</desc>
 <g id="breadboard">
  <g id="icon">
   <path fill="#1F7A34" stroke="none" stroke-width="0" d="M0,0L0,170A30,30 0 0 1 0,230L0,400L637.014,400L637.014,0L0,0z"/>
   <g transform="translate(100,112.757)">
    <g>
     <path fill="#E6E6E6" d="M368.653,48.0556c0,-26.5556,-21.5139,-48.0556,-48.0694,-48.0556c-26.5278,0,-48.0556,21.5,-48.0556,48.0556l-5.95833,0c0,-26.5556,-21.5139,-48.0556,-48.0694,-48.0556c-26.5417,0,-48.0556,21.5,-48.0556,48.0556l-4.36111,0c0,-26.5556,-21.5139,-48.0556,-48.0694,-48.0556c-26.5417,0,-48.0556,21.5,-48.0556,48.0556L0,48.0556l0,89.3889l437.014,0L437.014,48.0556L368.653,48.0556z"/>
     <path opacity="0.26" fill="#FFFFFF" d="M0,50.8056l69.9583,0c0,-26.5556,21.5139,-48.0556,48.0556,-48.0556c26.5556,0,48.0694,21.5,48.0694,48.0556l4.36111,0c0,-26.5556,21.5139,-48.0556,48.0556,-48.0556c26.5556,0,48.0694,21.5,48.0694,48.0556l5.95833,0c0,-26.5556,21.5278,-48.0556,48.0556,-48.0556c26.5556,0,48.0694,21.5,48.0694,48.0556l68.3611,0L437.014,48.0556l-68.3611,0c0,-26.5556,-21.5139,-48.0556,-48.0694,-48.0556c-26.5278,0,-48.0556,21.5,-48.0556,48.0556l-5.95833,0c0,-26.5556,-21.5139,-48.0556,-48.0694,-48.0556c-26.5417,0,-48.0556,21.5,-48.0556,48.0556l-4.36111,0c0,-26.5556,-21.5139,-48.0556,-48.0694,-48.0556c-26.5417,0,-48.0556,21.5,-48.0556,48.0556L0,48.0556L0,50.8056z"/>
     <path opacity="0.26" fill="#FFFFFF" d="M0,85.0972l69.9583,0c0,-26.5556,21.5139,-48.0556,48.0556,-48.0556c26.5556,0,48.0694,21.5,48.0694,48.0556l4.36111,0c0,-26.5556,21.5139,-48.0556,48.0556,-48.0556c26.5556,0,48.0694,21.5,48.0694,48.0556l5.95833,0c0,-26.5556,21.5278,-48.0556,48.0556,-48.0556c26.5556,0,48.0694,21.5,48.0694,48.0556l68.3611,0L437.014,82.3472l-68.3611,0c0,-26.5556,-21.5139,-48.0556,-48.0694,-48.0556c-26.5278,0,-48.0556,21.5,-48.0556,48.0556l-5.95833,0c0,-26.5556,-21.5139,-48.0556,-48.0694,-48.0556c-26.5417,0,-48.0556,21.5,-48.0556,48.0556l-4.36111,0c0,-26.5556,-21.5139,-48.0556,-48.0694,-48.0556c-26.5417,0,-48.0556,21.5,-48.0556,48.0556L0,82.3472L0,85.0972z"/>
     <path fill="#CCCCCC" d="M368.653,85.0972c0,-26.5556,-21.5139,-48.0556,-48.0694,-48.0556c-26.5278,0,-48.0556,21.5,-48.0556,48.0556l-5.95833,0c0,-26.5556,-21.5139,-48.0556,-48.0694,-48.0556c-26.5417,0,-48.0556,21.5,-48.0556,48.0556l-4.36111,0c0,-26.5556,-21.5139,-48.0556,-48.0694,-48.0556c-26.5417,0,-48.0556,21.5,-48.0556,48.0556L0,85.0972l0,89.3889l437.014,0L437.014,85.0972L368.653,85.0972z"/>
     <path fill="#999999" d="M368.653,90.1111l-5,-5c0,-23.7361,-19.3194,-43.0556,-43.0694,-43.0556c-23.7361,0,-43.0556,19.3194,-43.0556,43.0556l-5,5l-5.95833,0l-5,-5c0,-23.7361,-19.3194,-43.0556,-43.0694,-43.0556c-23.7361,0,-43.0556,19.3194,-43.0556,43.0556l-5,5l-4.36111,0l-5,-5c0,-23.7361,-19.3194,-43.0556,-43.0694,-43.0556c-23.7361,0,-43.0556,19.3194,-43.0556,43.0556l-5,5L5,90.1111l0,74.6389l0,4.73611l0,5l427.014,0l0,-5l0,-4.73611L432.014,90.1111L368.653,90.1111z"/>
     <path opacity="0.14" d="M5,92.4722l64.9583,0l5,-5c0,-23.7361,19.3194,-43.0556,43.0556,-43.0556c23.75,0,43.0694,19.3194,43.0694,43.0556l5,5l4.36111,0l5,-5c0,-23.7361,19.3194,-43.0556,43.0556,-43.0556c23.75,0,43.0694,19.3194,43.0694,43.0556l5,5l5.95833,0l5,-5c0,-23.7361,19.3194,-43.0556,43.0556,-43.0556c23.75,0,43.0694,19.3194,43.0694,43.0556l5,5l63.3611,0L432.014,90.1111l-63.3611,0l-5,-5c0,-23.7361,-19.3194,-43.0556,-43.0694,-43.0556c-23.7361,0,-43.0556,19.3194,-43.0556,43.0556l-5,5l-5.95833,0l-5,-5c0,-23.7361,-19.3194,-43.0556,-43.0694,-43.0556c-23.7361,0,-43.0556,19.3194,-43.0556,43.0556l-5,5l-4.36111,0l-5,-5c0,-23.7361,-19.3194,-43.0556,-43.0694,-43.0556c-23.7361,0,-43.0556,19.3194,-43.0556,43.0556l-5,5L5,90.1111L5,92.4722z"/>
     <g>
      <circle fill="#E6E6E6" cx="43.5833" cy="132.542" r="29.5278"/>
      <path fill="#B3B3B3" d="M73.1111,136.583c0,16.3194,-13.2222,29.5278,-29.5417,29.5278s-29.5278,-13.2083,-29.5278,-29.5278L14.0417,132.542c0,16.3194,13.2083,29.5278,29.5278,29.5278s29.5417,-13.2083,29.5417,-29.5278L73.1111,136.583z"/>
      <path fill="#B3B3B3" d="M422.958,136.583c0,16.3194,-13.2222,29.5278,-29.5417,29.5278S363.889,152.903,363.889,136.583L363.889,132.542c0,16.3194,13.2083,29.5278,29.5278,29.5278s29.5417,-13.2083,29.5417,-29.5278L422.958,136.583z"/>
      <circle fill="#E6E6E6" cx="393.417" cy="132.542" r="29.5417"/>
      <path fill="#FFFFFF" d="M363.889,132.528c0,-16.3194,13.2222,-29.5278,29.5417,-29.5278s29.5278,13.2083,29.5278,29.5278l0,4.04167c0,-16.3194,-13.2083,-29.5278,-29.5278,-29.5278S363.889,120.25,363.889,136.569L363.889,132.528z"/>
      <path fill="#FFFFFF" d="M14.0417,132.528c0,-16.3194,13.2222,-29.5278,29.5417,-29.5278s29.5278,13.2083,29.5278,29.5278l0,4.04167c0,-16.3194,-13.2083,-29.5278,-29.5278,-29.5278S14.0417,120.25,14.0417,136.569L14.0417,132.528z"/>
     </g>
     <circle fill="#AE6C05" cx="118.028" cy="102.681" r="32.1944"/>
     <circle fill="#FBB03B" cx="118.028" cy="105.611" r="29.5278"/>
     <circle fill="#AE6C05" cx="218.5" cy="102.681" r="32.1944"/>
     <circle fill="#FBB03B" cx="218.5" cy="105.611" r="29.5417"/>
     <circle fill="#AE6C05" cx="320.347" cy="102.681" r="32.1944"/>
     <circle fill="#FBB03B" cx="320.347" cy="105.611" r="29.5417"/>
     <g>
      <path opacity="0.3" fill="#FFFFFF" d="M88.4861,107.972c0,-16.3194,13.2083,-21.4444,29.5278,-21.4444s29.5417,5.125,29.5417,21.4444l0,-2.36111c0,-16.3194,-13.2222,-29.5417,-29.5417,-29.5417S88.4861,89.2917,88.4861,105.611L88.4861,107.972z"/>
      <path opacity="0.3" fill="#FFFFFF" d="M188.972,107.972c0,-16.3194,13.2083,-21.4444,29.5278,-21.4444c16.3056,0,29.5417,5.125,29.5417,21.4444l0,-2.36111c0,-16.3194,-13.2361,-29.5417,-29.5417,-29.5417c-16.3194,0,-29.5278,13.2222,-29.5278,29.5417L188.972,107.972z"/>
      <path opacity="0.3" fill="#FFFFFF" d="M290.806,107.972c0,-16.3194,13.2222,-21.4444,29.5417,-21.4444c16.3056,0,29.5417,5.125,29.5417,21.4444l0,-2.36111c0,-16.3194,-13.2361,-29.5417,-29.5417,-29.5417c-16.3194,0,-29.5417,13.2222,-29.5417,29.5417L290.806,107.972z"/>
     </g>
     <g>
      <path opacity="0.3" fill="#808080" d="M349.889,102.667c0,16.3194,-13.2083,26.8333,-29.5278,26.8333s-29.5417,-10.5139,-29.5417,-26.8333l0,2.36111c0,16.3194,13.2222,29.5417,29.5417,29.5417s29.5278,-13.2222,29.5278,-29.5417L349.889,102.667z"/>
      <path opacity="0.3" fill="#808080" d="M248.042,102.667c0,16.3194,-13.2083,26.8333,-29.5278,26.8333c-16.3056,0,-29.5417,-10.5139,-29.5417,-26.8333l0,2.36111c0,16.3194,13.2361,29.5417,29.5417,29.5417c16.3194,0,29.5278,-13.2222,29.5278,-29.5417L248.042,102.667z"/>
      <path opacity="0.3" fill="#808080" d="M147.569,102.667c0,16.3194,-13.2222,26.8333,-29.5417,26.8333c-16.3056,0,-29.5417,-10.5139,-29.5417,-26.8333l0,2.36111c0,16.3194,13.2361,29.5417,29.5417,29.5417c16.3194,0,29.5417,-13.2222,29.5417,-29.5417L147.569,102.667z"/>
     </g>
     <rect width="3.34722" x="66.6111" opacity="0.4" y="48.0556" fill="#FFFFFF" height="37.0417"/>
     <rect width="3.34722" x="370.403" opacity="0.15" y="48.0556" height="37.0417"/>
     <rect width="3.34722" x="166.486" opacity="0.15" y="48.0556" height="37.0417"/>
     <rect width="3.33333" x="267.764" opacity="0.15" y="48.0556" height="37.0417"/>
     <rect width="47.1111" x="88.4861" y="164.75" fill="#B3B3B3" height="6.70833"/>
     <rect width="47.1111" x="88.4861" y="164.75" fill="#808080" height="1.88889"/>
     <rect width="47.1111" x="88.4861" y="171.458" fill="#CCCCCC" height="1"/>
     <rect width="427.014" x="5" opacity="0.14" y="172.458" height="2.02778"/>
    </g>
   </g>
  </g>
  <g transform="translate(252.542,334.05)">
   <rect width="31.93" x="0" y="0" fill="#8D8C8C" height="31.9" id="connector0pin"/>
   <rect width="16.4442" x="7.79153" y="7.73544" fill="#8C8663" height="16.4152"/>
   <polygon fill="#B8AF82" points="0,31.9,7.79153,24.1368,7.79153,6.97162,0,0"/>
   <polygon fill="#80795B" points="24.2079,7.76321,7.90264,7.76321,0,0,31.93,0"/>
   <polygon fill="#5E5B43" points="24.2079,24.1368,24.2079,7.76321,31.93,0,31.93,31.9"/>
   <polygon fill="#9A916C" points="0,31.9,7.87486,24.1368,24.2079,24.1368,31.93,31.9"/>
  </g>
  <g transform="translate(352.542,334.05)">
   <rect width="31.93" x="0" y="0" fill="#8D8C8C" height="31.9" id="connector1pin"/>
   <rect width="16.4442" x="7.79153" y="7.73544" fill="#8C8663" height="16.4152"/>
   <polygon fill="#B8AF82" points="0,31.9,7.79153,24.1368,7.79153,6.97162,0,0"/>
   <polygon fill="#80795B" points="24.2079,7.76321,7.90264,7.76321,0,0,31.93,0"/>
   <polygon fill="#5E5B43" points="24.2079,24.1368,24.2079,7.76321,31.93,0,31.93,31.9"/>
   <polygon fill="#9A916C" points="0,31.9,7.87486,24.1368,24.2079,24.1368,31.93,31.9"/>
  </g>
  <g transform="translate(352.542,34.05)">
   <rect width="31.93" x="0" y="0" fill="#8D8C8C" height="31.9" id="connector2pin"/>
   <rect width="16.4442" x="7.79153" y="7.73544" fill="#8C8663" height="16.4152"/>
   <polygon fill="#B8AF82" points="0,31.9,7.79153,24.1368,7.79153,6.97162,0,0"/>
   <polygon fill="#80795B" points="24.2079,7.76321,7.90264,7.76321,0,0,31.93,0"/>
   <polygon fill="#5E5B43" points="24.2079,24.1368,24.2079,7.76321,31.93,0,31.93,31.9"/>
   <polygon fill="#9A916C" points="0,31.9,7.87486,24.1368,24.2079,24.1368,31.93,31.9"/>
  </g>
 </g>
</svg>
