<?xml version='1.0' encoding='utf-8'?>
<!DOCTYPE svg>
<!-- Generator: Adobe Illustrator 16.0.0, SVG Export Plug-In . SVG Version: 6.00 Build 0)  -->
<svg xmlns="http://www.w3.org/2000/svg"  width="1.43701in" xml:space="preserve" xmlns:xml="http://www.w3.org/XML/1998/namespace" x="0px" version="1.1" y="0px" height="0.70275in" viewBox="0 0 103.465 50.598" id="0" enable-background="new 0 0 103.465 50.598">
 <desc   id="0.0" oldid="0.0">
  <referenceFile   id="0.0.0" oldid="0.0.0">Teensy_3.0+pads_breadboard.svg</referenceFile>
 </desc>
 <g   id="0.1">
  <path  fill="#1A1A1A"  id="0.1.0" d="M2.835,0v50.598h100.63V0H2.835z M42.349,1.906c0.998,0,1.812,0.813,1.812,1.813s-0.814,1.813-1.812,1.813c-1,0-1.812-0.813-1.812-1.813C40.538,2.72,41.349,1.906,42.349,1.906z M42.349,10.133c0.998,0,1.812,0.813,1.812,1.813s-0.813,1.813-1.812,1.813c-1,0-1.812-0.813-1.812-1.813C40.538,10.948,41.349,10.133,42.349,10.133z M6.348,48.682c-1,0-1.812-0.811-1.812-1.811c0-0.998,0.812-1.813,1.812-1.813c0.998,0,1.812,0.813,1.812,1.813S7.346,48.682,6.348,48.682z M6.348,5.531c-1,0-1.812-0.813-1.812-1.813c0-0.998,0.812-1.813,1.812-1.813c0.998,0,1.812,0.813,1.812,1.813S7.346,5.531,6.348,5.531z M13.549,48.682c-1,0-1.812-0.811-1.812-1.811c0-0.998,0.812-1.813,1.812-1.813c0.998,0,1.812,0.813,1.812,1.813S14.547,48.682,13.549,48.682z M13.549,13.758c-1,0-1.812-0.813-1.812-1.813c0-0.994,0.812-1.813,1.812-1.813c0.998,0,1.812,0.813,1.812,1.813S14.547,13.758,13.549,13.758z M13.549,5.531c-1,0-1.812-0.813-1.812-1.813c0-0.998,0.812-1.813,1.812-1.813c0.998,0,1.812,0.813,1.812,1.813S14.547,5.531,13.549,5.531z M20.749,48.682c-1,0-1.812-0.811-1.812-1.811c0-0.998,0.812-1.813,1.812-1.813c0.998,0,1.812,0.813,1.812,1.813S21.747,48.682,20.749,48.682z M20.749,5.531c-1,0-1.812-0.813-1.812-1.813c0-0.998,0.812-1.813,1.812-1.813c0.998,0,1.812,0.813,1.812,1.813S21.747,5.531,20.749,5.531z M27.949,48.682c-1,0-1.812-0.811-1.812-1.811c0-0.998,0.812-1.813,1.812-1.813c0.998,0,1.812,0.813,1.812,1.813S28.947,48.682,27.949,48.682z M27.949,13.758c-1,0-1.812-0.813-1.812-1.813c0-0.994,0.812-1.813,1.812-1.813c0.998,0,1.812,0.813,1.812,1.813S28.947,13.758,27.949,13.758z M27.949,5.531c-1,0-1.812-0.813-1.812-1.813c0-0.998,0.812-1.813,1.812-1.813c0.998,0,1.812,0.813,1.812,1.813S28.947,5.531,27.949,5.531z M35.149,48.682c-1,0-1.812-0.811-1.812-1.811c0-0.998,0.812-1.813,1.812-1.813c0.998,0,1.812,0.813,1.812,1.813S36.147,48.682,35.149,48.682z M35.149,13.758c-1,0-1.812-0.813-1.812-1.813c0-0.994,0.812-1.813,1.812-1.813c0.998,0,1.812,0.813,1.812,1.813S36.147,13.758,35.149,13.758z M35.149,5.531c-1,0-1.812-0.813-1.812-1.813c0-0.998,0.812-1.813,1.812-1.813c0.998,0,1.812,0.813,1.812,1.813S36.147,5.531,35.149,5.531z M39.087,22.723c0-0.533,0.433-0.968,0.967-0.968c0.533,0,0.968,0.434,0.968,0.968s-0.435,0.968-0.968,0.968C39.52,23.69,39.087,23.257,39.087,22.723z M42.349,48.682c-1,0-1.812-0.811-1.812-1.811c0-0.998,0.812-1.813,1.812-1.813c0.998,0,1.812,0.813,1.812,1.813S43.347,48.682,42.349,48.682z M43.901,23.69c-0.534,0-0.968-0.434-0.968-0.968c0-0.533,0.434-0.968,0.968-0.968s0.967,0.434,0.967,0.968S44.433,23.69,43.901,23.69z M49.55,48.682c-1,0-1.813-0.811-1.813-1.811c0-0.998,0.813-1.813,1.813-1.813c0.998,0,1.813,0.813,1.813,1.813S50.548,48.682,49.55,48.682z M49.55,5.531c-1,0-1.813-0.813-1.813-1.813c0-0.998,0.813-1.813,1.813-1.813c0.998,0,1.813,0.813,1.813,1.813S50.548,5.531,49.55,5.531z M56.75,48.682c-1,0-1.813-0.811-1.813-1.811c0-0.998,0.813-1.813,1.813-1.813c0.998,0,1.813,0.813,1.813,1.813S57.748,48.682,56.75,48.682z M56.75,5.531c-1,0-1.813-0.813-1.813-1.813c0-0.998,0.813-1.813,1.813-1.813c0.998,0,1.813,0.813,1.813,1.813S57.748,5.531,56.75,5.531z M63.949,48.682c-1,0-1.811-0.811-1.811-1.811c0-0.998,0.811-1.813,1.811-1.813c0.998,0,1.813,0.813,1.813,1.813S64.947,48.682,63.949,48.682z M63.949,5.531c-1,0-1.811-0.813-1.811-1.813c0-0.998,0.811-1.813,1.811-1.813c0.998,0,1.813,0.813,1.813,1.813S64.947,5.531,63.949,5.531z M71.15,48.682c-1,0-1.814-0.811-1.814-1.811c0-0.998,0.814-1.813,1.814-1.813c0.998,0,1.811,0.813,1.811,1.813S72.148,48.682,71.15,48.682z M71.15,5.531c-1,0-1.814-0.813-1.814-1.813c0-0.998,0.814-1.813,1.814-1.813c0.998,0,1.811,0.813,1.811,1.813S72.148,5.531,71.15,5.531z M78.352,48.682c-1,0-1.813-0.811-1.813-1.811c0-0.998,0.813-1.813,1.813-1.813c0.998,0,1.813,0.813,1.813,1.813S79.35,48.682,78.352,48.682z M78.352,5.531c-1,0-1.813-0.813-1.813-1.813c0-0.998,0.813-1.813,1.813-1.813c0.998,0,1.813,0.813,1.813,1.813S79.35,5.531,78.352,5.531z M85.551,48.682c-1,0-1.811-0.811-1.811-1.811c0-0.998,0.811-1.813,1.811-1.813c0.998,0,1.813,0.813,1.813,1.813S86.549,48.682,85.551,48.682z M85.551,5.531c-1,0-1.811-0.813-1.811-1.813c0-0.998,0.811-1.813,1.811-1.813c0.998,0,1.813,0.813,1.813,1.813S86.549,5.531,85.551,5.531z M92.752,48.682c-1,0-1.813-0.811-1.813-1.811c0-0.998,0.813-1.813,1.813-1.813c0.998,0,1.811,0.813,1.811,1.813S93.75,48.682,92.752,48.682z M92.752,5.531c-1,0-1.813-0.813-1.813-1.813c0-0.998,0.813-1.813,1.813-1.813c0.998,0,1.811,0.813,1.811,1.813S93.75,5.531,92.752,5.531z M99.951,48.682c-1,0-1.811-0.811-1.811-1.811c0-0.998,0.811-1.813,1.811-1.813c0.998,0,1.813,0.813,1.813,1.813S100.949,48.682,99.951,48.682z M99.951,41.531c-1,0-1.811-0.813-1.811-1.813c0-0.998,0.811-1.813,1.811-1.813c0.998,0,1.813,0.813,1.813,1.813S100.949,41.531,99.951,41.531z M99.951,34.331c-1,0-1.811-0.813-1.811-1.813c0-0.998,0.811-1.813,1.811-1.813c0.998,0,1.813,0.813,1.813,1.813S100.949,34.331,99.951,34.331z M99.951,27.129c-1,0-1.811-0.813-1.811-1.813c0-0.998,0.811-1.813,1.811-1.813c0.998,0,1.813,0.813,1.813,1.813S100.949,27.129,99.951,27.129z M99.951,19.93c-1,0-1.811-0.811-1.811-1.811c0-0.998,0.811-1.813,1.811-1.813c0.998,0,1.813,0.813,1.813,1.813S100.949,19.93,99.951,19.93z M99.951,12.729c-1,0-1.811-0.811-1.811-1.811c0-0.998,0.811-1.813,1.811-1.813c0.998,0,1.813,0.813,1.813,1.813S100.949,12.729,99.951,12.729z M99.951,5.531c-1,0-1.811-0.813-1.811-1.813c0-0.998,0.811-1.813,1.811-1.813c0.998,0,1.813,0.813,1.813,1.813S100.949,5.531,99.951,5.531z"/>
  <path  fill="#9A916C"  id="0.1.1" d="M6.348,1.167c-1.405,0-2.554,1.146-2.554,2.555c0,1.406,1.146,2.555,2.554,2.555c1.408,0,2.554-1.146,2.554-2.555C8.901,2.313,7.757,1.167,6.348,1.167z M6.348,5.531c-1,0-1.812-0.813-1.812-1.813c0-0.998,0.812-1.813,1.812-1.813c0.998,0,1.812,0.813,1.812,1.813S7.346,5.531,6.348,5.531z"/>
  <path  fill="#9A916C"  id="0.1.2" d="M13.549,1.167c-1.405,0-2.554,1.146-2.554,2.555c0,1.406,1.146,2.555,2.554,2.555c1.408,0,2.554-1.146,2.554-2.555C16.101,2.313,14.957,1.167,13.549,1.167z M13.549,5.531c-1,0-1.812-0.813-1.812-1.813c0-0.998,0.812-1.813,1.812-1.813c0.998,0,1.812,0.813,1.812,1.813S14.547,5.531,13.549,5.531z"/>
  <path  fill="#9A916C"  id="0.1.3" d="M20.749,1.167c-1.405,0-2.554,1.146-2.554,2.555c0,1.406,1.146,2.555,2.554,2.555s2.554-1.146,2.554-2.555C23.302,2.313,22.157,1.167,20.749,1.167z M20.749,5.531c-1,0-1.812-0.813-1.812-1.813c0-0.998,0.812-1.813,1.812-1.813c0.998,0,1.812,0.813,1.812,1.813S21.747,5.531,20.749,5.531z"/>
  <path  fill="#9A916C"  id="0.1.4" d="M27.949,1.167c-1.405,0-2.554,1.146-2.554,2.555c0,1.406,1.146,2.555,2.554,2.555c1.408,0,2.554-1.146,2.554-2.555C30.502,2.313,29.357,1.167,27.949,1.167z M27.949,5.531c-1,0-1.812-0.813-1.812-1.813c0-0.998,0.812-1.813,1.812-1.813c0.998,0,1.812,0.813,1.812,1.813S28.947,5.531,27.949,5.531z"/>
  <path  fill="#9A916C"  id="0.1.5" d="M35.149,1.167c-1.405,0-2.554,1.146-2.554,2.555c0,1.406,1.146,2.555,2.554,2.555c1.408,0,2.554-1.146,2.554-2.555C37.702,2.313,36.557,1.167,35.149,1.167z M35.149,5.531c-1,0-1.812-0.813-1.812-1.813c0-0.998,0.812-1.813,1.812-1.813c0.998,0,1.812,0.813,1.812,1.813S36.147,5.531,35.149,5.531z"/>
  <path  fill="#9A916C"  id="0.1.6" d="M42.349,1.167c-1.405,0-2.554,1.146-2.554,2.555c0,1.406,1.146,2.555,2.554,2.555c1.408,0,2.554-1.146,2.554-2.555C44.901,2.313,43.758,1.167,42.349,1.167z M42.349,5.531c-1,0-1.812-0.813-1.812-1.813c0-0.998,0.812-1.813,1.812-1.813c0.998,0,1.812,0.813,1.812,1.813S43.347,5.531,42.349,5.531z"/>
  <path  fill="#9A916C"  id="0.1.7" d="M49.55,1.167c-1.404,0-2.554,1.146-2.554,2.555c0,1.406,1.146,2.555,2.554,2.555s2.554-1.146,2.554-2.555C52.102,2.313,50.958,1.167,49.55,1.167z M49.55,5.531c-1,0-1.813-0.813-1.813-1.813c0-0.998,0.813-1.813,1.813-1.813c0.998,0,1.813,0.813,1.813,1.813S50.548,5.531,49.55,5.531z"/>
  <path  fill="#9A916C"  id="0.1.8" d="M56.75,1.167c-1.404,0-2.555,1.146-2.555,2.555c0,1.406,1.145,2.555,2.555,2.555c1.408,0,2.555-1.146,2.555-2.555C59.301,2.313,58.158,1.167,56.75,1.167z M56.75,5.531c-1,0-1.813-0.813-1.813-1.813c0-0.998,0.813-1.813,1.813-1.813c0.998,0,1.813,0.813,1.813,1.813S57.748,5.531,56.75,5.531z"/>
  <path  fill="#9A916C"  id="0.1.9" d="M63.949,1.167c-1.404,0-2.553,1.146-2.553,2.555c0,1.406,1.145,2.555,2.553,2.555s2.555-1.146,2.555-2.555C66.502,2.313,65.357,1.167,63.949,1.167z M63.949,5.531c-1,0-1.811-0.813-1.811-1.813c0-0.998,0.811-1.813,1.811-1.813c0.998,0,1.813,0.813,1.813,1.813S64.947,5.531,63.949,5.531z"/>
  <path  fill="#9A916C"  id="0.1.10" d="M71.15,1.167c-1.406,0-2.555,1.146-2.555,2.555c0,1.406,1.145,2.555,2.555,2.555c1.408,0,2.553-1.146,2.553-2.555S72.559,1.167,71.15,1.167z M71.15,5.531c-1,0-1.814-0.813-1.814-1.813c0-0.998,0.814-1.813,1.814-1.813c0.998,0,1.811,0.813,1.811,1.813S72.148,5.531,71.15,5.531z"/>
  <path  fill="#9A916C"  id="0.1.11" d="M78.352,1.167c-1.406,0-2.555,1.146-2.555,2.555c0,1.406,1.146,2.555,2.555,2.555c1.41,0,2.553-1.146,2.553-2.555S79.76,1.167,78.352,1.167z M78.352,5.531c-1,0-1.813-0.813-1.813-1.813c0-0.998,0.813-1.813,1.813-1.813c0.998,0,1.813,0.813,1.813,1.813S79.35,5.531,78.352,5.531z"/>
  <path  fill="#9A916C"  id="0.1.12" d="M85.551,1.167c-1.404,0-2.553,1.146-2.553,2.555c0,1.406,1.146,2.555,2.553,2.555c1.408,0,2.555-1.146,2.555-2.555C88.104,2.313,86.959,1.167,85.551,1.167z M85.551,5.531c-1,0-1.811-0.813-1.811-1.813c0-0.998,0.811-1.813,1.811-1.813c0.998,0,1.813,0.813,1.813,1.813S86.549,5.531,85.551,5.531z"/>
  <path  fill="#9A916C"  id="0.1.13" d="M92.752,1.167c-1.406,0-2.555,1.146-2.555,2.555c0,1.406,1.145,2.555,2.555,2.555c1.408,0,2.553-1.146,2.553-2.555S94.16,1.167,92.752,1.167z M92.752,5.531c-1,0-1.813-0.813-1.813-1.813c0-0.998,0.813-1.813,1.813-1.813c0.998,0,1.811,0.813,1.811,1.813S93.75,5.531,92.752,5.531z"/>
  <path  fill="#9A916C"  id="0.1.14" d="M99.951,1.167c-1.404,0-2.553,1.146-2.553,2.555c0,1.406,1.145,2.555,2.553,2.555s2.555-1.146,2.555-2.555C102.504,2.313,101.359,1.167,99.951,1.167z M99.951,5.531c-1,0-1.811-0.813-1.811-1.813c0-0.998,0.811-1.813,1.811-1.813c0.998,0,1.813,0.813,1.813,1.813S100.949,5.531,99.951,5.531z"/>
  <path  fill="#9A916C"  id="0.1.15" d="M13.549,9.395c-1.405,0-2.554,1.146-2.554,2.559c0,1.402,1.146,2.555,2.554,2.555c1.408,0,2.554-1.146,2.554-2.555C16.101,10.541,14.957,9.395,13.549,9.395z M13.549,13.758c-1,0-1.812-0.813-1.812-1.813c0-0.994,0.812-1.813,1.812-1.813c0.998,0,1.812,0.813,1.812,1.813S14.547,13.758,13.549,13.758z"/>
  <path  fill="#9A916C"  id="0.1.16" d="M27.949,9.395c-1.405,0-2.554,1.146-2.554,2.559c0,1.402,1.146,2.555,2.554,2.555c1.408,0,2.554-1.146,2.554-2.555C30.502,10.541,29.357,9.395,27.949,9.395z M27.949,13.758c-1,0-1.812-0.813-1.812-1.813c0-0.994,0.812-1.813,1.812-1.813c0.998,0,1.812,0.813,1.812,1.813S28.947,13.758,27.949,13.758z"/>
  <path  fill="#9A916C"  id="0.1.17" d="M35.149,9.395c-1.405,0-2.554,1.146-2.554,2.559c0,1.402,1.146,2.555,2.554,2.555c1.408,0,2.554-1.146,2.554-2.555C37.702,10.541,36.557,9.395,35.149,9.395z M35.149,13.758c-1,0-1.812-0.813-1.812-1.813c0-0.994,0.812-1.813,1.812-1.813c0.998,0,1.812,0.813,1.812,1.813S36.147,13.758,35.149,13.758z"/>
  <path  fill="#9A916C"  id="0.1.18" d="M42.349,9.395c-1.405,0-2.554,1.146-2.554,2.559c0,1.402,1.146,2.555,2.554,2.555c1.408,0,2.554-1.146,2.554-2.555C44.901,10.541,43.758,9.395,42.349,9.395z M42.349,13.758c-1,0-1.812-0.813-1.812-1.813c0-0.994,0.812-1.813,1.812-1.813c0.998,0,1.812,0.813,1.812,1.813S43.347,13.758,42.349,13.758z"/>
  <path  fill="#9A916C"  id="0.1.19" d="M40.054,21.36c-0.75,0-1.364,0.612-1.364,1.364c0,0.751,0.612,1.364,1.364,1.364c0.752,0,1.364-0.612,1.364-1.364C41.418,21.973,40.807,21.36,40.054,21.36z M40.054,23.69c-0.534,0-0.967-0.434-0.967-0.968c0-0.533,0.433-0.968,0.967-0.968c0.533,0,0.968,0.434,0.968,0.968S40.588,23.69,40.054,23.69z"/>
  <path  fill="#9A916C"  id="0.1.20" d="M43.901,21.36c-0.751,0-1.364,0.612-1.364,1.364c0,0.751,0.612,1.364,1.364,1.364c0.752,0,1.364-0.612,1.364-1.364C45.265,21.973,44.653,21.36,43.901,21.36z M43.901,23.69c-0.534,0-0.968-0.434-0.968-0.968c0-0.533,0.434-0.968,0.968-0.968s0.967,0.434,0.967,0.968S44.433,23.69,43.901,23.69z"/>
  <path  fill="#9A916C"  id="0.1.21" d="M99.951,37.168c-1.404,0-2.553,1.146-2.553,2.555c0,1.406,1.145,2.555,2.553,2.555s2.555-1.146,2.555-2.555C102.504,38.313,101.359,37.168,99.951,37.168z M99.951,41.531c-1,0-1.811-0.813-1.811-1.813c0-0.998,0.811-1.813,1.811-1.813c0.998,0,1.813,0.813,1.813,1.813S100.949,41.531,99.951,41.531z"/>
  <path  fill="#9A916C"  id="0.1.22" d="M99.951,29.969c-1.404,0-2.553,1.146-2.553,2.555c0,1.406,1.145,2.559,2.553,2.559s2.555-1.146,2.555-2.559C102.504,31.115,101.359,29.969,99.951,29.969z M99.951,34.331c-1,0-1.811-0.813-1.811-1.813c0-0.998,0.811-1.813,1.811-1.813c0.998,0,1.813,0.813,1.813,1.813S100.949,34.331,99.951,34.331z"/>
  <path  fill="#9A916C"  id="0.1.23" d="M99.951,22.769c-1.404,0-2.553,1.146-2.553,2.559c0,1.402,1.145,2.554,2.553,2.554s2.555-1.146,2.555-2.554C102.504,23.913,101.359,22.769,99.951,22.769z M99.951,27.129c-1,0-1.811-0.813-1.811-1.813c0-0.998,0.811-1.813,1.811-1.813c0.998,0,1.813,0.813,1.813,1.813S100.949,27.129,99.951,27.129z"/>
  <path  fill="#9A916C"  id="0.1.24" d="M99.951,15.568c-1.404,0-2.553,1.146-2.553,2.559c0,1.402,1.145,2.555,2.553,2.555s2.555-1.146,2.555-2.555C102.504,16.713,101.359,15.568,99.951,15.568z M99.951,19.93c-1,0-1.811-0.811-1.811-1.811c0-0.998,0.811-1.813,1.811-1.813c0.998,0,1.813,0.813,1.813,1.813S100.949,19.93,99.951,19.93z"/>
  <path  fill="#9A916C"  id="0.1.25" d="M99.951,8.368c-1.404,0-2.553,1.146-2.553,2.555c0,1.406,1.145,2.555,2.553,2.555s2.555-1.146,2.555-2.555C102.504,9.513,101.359,8.368,99.951,8.368z M99.951,12.729c-1,0-1.811-0.811-1.811-1.811c0-0.998,0.811-1.813,1.811-1.813c0.998,0,1.813,0.813,1.813,1.813S100.949,12.729,99.951,12.729z"/>
  <path  fill="#9A916C"  id="0.1.26" d="M6.348,44.321c-1.405,0-2.554,1.146-2.554,2.559c0,1.406,1.146,2.555,2.554,2.555c1.408,0,2.554-1.146,2.554-2.555C8.901,45.465,7.757,44.321,6.348,44.321z M6.348,48.682c-1,0-1.812-0.811-1.812-1.811c0-0.998,0.812-1.813,1.812-1.813c0.998,0,1.812,0.813,1.812,1.813S7.346,48.682,6.348,48.682z"/>
  <path  fill="#9A916C"  id="0.1.27" d="M13.549,44.321c-1.405,0-2.554,1.146-2.554,2.559c0,1.406,1.146,2.555,2.554,2.555c1.408,0,2.554-1.146,2.554-2.555C16.101,45.465,14.957,44.321,13.549,44.321z M13.549,48.682c-1,0-1.812-0.811-1.812-1.811c0-0.998,0.812-1.813,1.812-1.813c0.998,0,1.812,0.813,1.812,1.813S14.547,48.682,13.549,48.682z"/>
  <path  fill="#9A916C"  id="0.1.28" d="M20.749,44.321c-1.405,0-2.554,1.146-2.554,2.559c0,1.406,1.146,2.555,2.554,2.555s2.554-1.146,2.554-2.555C23.302,45.465,22.157,44.321,20.749,44.321z M20.749,48.682c-1,0-1.812-0.811-1.812-1.811c0-0.998,0.812-1.813,1.812-1.813c0.998,0,1.812,0.813,1.812,1.813S21.747,48.682,20.749,48.682z"/>
  <path  fill="#9A916C"  id="0.1.29" d="M27.949,44.321c-1.405,0-2.554,1.146-2.554,2.559c0,1.406,1.146,2.555,2.554,2.555c1.408,0,2.554-1.146,2.554-2.555C30.502,45.465,29.357,44.321,27.949,44.321z M27.949,48.682c-1,0-1.812-0.811-1.812-1.811c0-0.998,0.812-1.813,1.812-1.813c0.998,0,1.812,0.813,1.812,1.813S28.947,48.682,27.949,48.682z"/>
  <path  fill="#9A916C"  id="0.1.30" d="M35.149,44.321c-1.405,0-2.554,1.146-2.554,2.559c0,1.406,1.146,2.555,2.554,2.555c1.408,0,2.554-1.146,2.554-2.555C37.702,45.465,36.557,44.321,35.149,44.321z M35.149,48.682c-1,0-1.812-0.811-1.812-1.811c0-0.998,0.812-1.813,1.812-1.813c0.998,0,1.812,0.813,1.812,1.813S36.147,48.682,35.149,48.682z"/>
  <path  fill="#9A916C"  id="0.1.31" d="M42.349,44.321c-1.405,0-2.554,1.146-2.554,2.559c0,1.406,1.146,2.555,2.554,2.555c1.408,0,2.554-1.146,2.554-2.555C44.901,45.465,43.758,44.321,42.349,44.321z M42.349,48.682c-1,0-1.812-0.811-1.812-1.811c0-0.998,0.812-1.813,1.812-1.813c0.998,0,1.812,0.813,1.812,1.813S43.347,48.682,42.349,48.682z"/>
  <path  fill="#9A916C"  id="0.1.32" d="M49.55,44.321c-1.404,0-2.554,1.146-2.554,2.559c0,1.406,1.146,2.555,2.554,2.555s2.554-1.146,2.554-2.555C52.102,45.465,50.958,44.321,49.55,44.321z M49.55,48.682c-1,0-1.813-0.811-1.813-1.811c0-0.998,0.813-1.813,1.813-1.813c0.998,0,1.813,0.813,1.813,1.813S50.548,48.682,49.55,48.682z"/>
  <path  fill="#9A916C"  id="0.1.33" d="M56.75,44.321c-1.404,0-2.555,1.146-2.555,2.559c0,1.406,1.145,2.555,2.555,2.555c1.408,0,2.555-1.146,2.555-2.555C59.301,45.465,58.158,44.321,56.75,44.321z M56.75,48.682c-1,0-1.813-0.811-1.813-1.811c0-0.998,0.813-1.813,1.813-1.813c0.998,0,1.813,0.813,1.813,1.813S57.748,48.682,56.75,48.682z"/>
  <path  fill="#9A916C"  id="0.1.34" d="M63.949,44.321c-1.404,0-2.553,1.146-2.553,2.559c0,1.406,1.145,2.555,2.553,2.555s2.555-1.146,2.555-2.555C66.502,45.465,65.357,44.321,63.949,44.321z M63.949,48.682c-1,0-1.811-0.811-1.811-1.811c0-0.998,0.811-1.813,1.811-1.813c0.998,0,1.813,0.813,1.813,1.813S64.947,48.682,63.949,48.682z"/>
  <path  fill="#9A916C"  id="0.1.35" d="M71.15,44.321c-1.406,0-2.555,1.146-2.555,2.559c0,1.406,1.145,2.555,2.555,2.555c1.408,0,2.553-1.146,2.553-2.555C73.703,45.465,72.559,44.321,71.15,44.321z M71.15,48.682c-1,0-1.814-0.811-1.814-1.811c0-0.998,0.814-1.813,1.814-1.813c0.998,0,1.811,0.813,1.811,1.813S72.148,48.682,71.15,48.682z"/>
  <path  fill="#9A916C"  id="0.1.36" d="M78.352,44.321c-1.406,0-2.555,1.146-2.555,2.559c0,1.406,1.146,2.555,2.555,2.555c1.41,0,2.553-1.146,2.553-2.555C80.904,45.465,79.76,44.321,78.352,44.321z M78.352,48.682c-1,0-1.813-0.811-1.813-1.811c0-0.998,0.813-1.813,1.813-1.813c0.998,0,1.813,0.813,1.813,1.813S79.35,48.682,78.352,48.682z"/>
  <path  fill="#9A916C"  id="0.1.37" d="M85.551,44.321c-1.404,0-2.553,1.146-2.553,2.559c0,1.406,1.146,2.555,2.553,2.555c1.408,0,2.555-1.146,2.555-2.555C88.104,45.465,86.959,44.321,85.551,44.321z M85.551,48.682c-1,0-1.811-0.811-1.811-1.811c0-0.998,0.811-1.813,1.811-1.813c0.998,0,1.813,0.813,1.813,1.813S86.549,48.682,85.551,48.682z"/>
  <path  fill="#9A916C"  id="0.1.38" d="M92.752,44.321c-1.406,0-2.555,1.146-2.555,2.559c0,1.406,1.145,2.555,2.555,2.555c1.408,0,2.553-1.146,2.553-2.555C95.305,45.465,94.16,44.321,92.752,44.321z M92.752,48.682c-1,0-1.813-0.811-1.813-1.811c0-0.998,0.813-1.813,1.813-1.813c0.998,0,1.811,0.813,1.811,1.813S93.75,48.682,92.752,48.682z"/>
  <path  fill="#9A916C"  id="0.1.39" d="M99.951,44.321c-1.404,0-2.553,1.146-2.553,2.559c0,1.406,1.145,2.555,2.553,2.555s2.555-1.146,2.555-2.555C102.504,45.465,101.359,44.321,99.951,44.321z M99.951,48.682c-1,0-1.811-0.811-1.811-1.811c0-0.998,0.811-1.813,1.811-1.813c0.998,0,1.813,0.813,1.813,1.813S100.949,48.682,99.951,48.682z"/>
  <g   id="0.1.40">
   <polygon  fill="#B3B3B3" points="0.035,34.735 0.035,15.892 17.16,15.892 17.16,34.737 "  id="0.1.40.0"/>
   <rect  width="3.041" x="7.504" y="34.936" fill="#666666"  height="1.83" id="0.1.40.1"/>
   <rect  width="3.041" x="7.504" y="13.832" fill="#666666"  height="1.829" id="0.1.40.2"/>
   <rect  width="0.13" x="17.03" y="15.892" fill="#CCCCCC"  height="18.845" id="0.1.40.3"/>
   <rect  width="16.853" x="0.307" y="20.152" fill="#333333"  height="10.292" id="0.1.40.4"/>
   <rect  width="0.576" y="14.658" fill="#B3B3B3"  height="1.003" id="0.1.40.5"/>
   <rect  width="0.576" y="15.021" fill="#CCCCCC"  height="0.646" id="0.1.40.6"/>
   <rect  width="0.576" y="34.934" fill="#B3B3B3"  height="1.002" id="0.1.40.7"/>
   <rect  width="0.576" y="34.934" fill="#CCCCCC"  height="0.646" id="0.1.40.8"/>
   <path  fill="#CCCCCC"  id="0.1.40.9" d="M16.593,15.661l0.567,0.229v2.534c0,0-0.113-2.302-0.283-2.384s-0.284,0.106-0.284,0.106V15.661z"/>
   <path  fill="#CCCCCC"  id="0.1.40.10" d="M16.593,34.936l0.566-0.229v-2.533c0,0-0.113,2.301-0.283,2.383s-0.283-0.105-0.283-0.105V34.936z"/>
   <path  fill="#E6E6E6"  id="0.1.40.11" d="M16.593,31.547h-1.066v-1.605h1.634v-0.461h-0.566v-8.36h0.566v-0.525h-1.635v-1.606h1.067v-3.32H0.153v19.271h16.44V31.547z M3.303,20.592H2.489v-1.593H3.37c0.277-0.427,0.76-0.708,1.307-0.708c0.598,0,1.105,0.219,1.369,0.708l0,0h4.48v1.592H6.043c-0.264,0.488-0.773,0.825-1.371,0.825C4.076,21.416,3.567,21.08,3.303,20.592z M3.303,31.479H2.489v-1.592H3.37c0.277-0.426,0.76-0.707,1.307-0.707c0.598,0,1.105,0.217,1.369,0.707l0,0h4.48v1.592H6.043c-0.264,0.49-0.773,0.826-1.371,0.826C4.076,32.305,3.567,31.971,3.303,31.479z"/>
   <polygon  fill="#F2F2F2" points="0.151,16.066 0.151,15.661 16.593,15.661 16.593,17.191 "  id="0.1.40.12"/>
   <polygon  fill="#999999" points="0.151,34.936 11.129,34.368 16.593,33.799 16.593,34.936 "  id="0.1.40.13"/>
   <rect  width="0.131" x="10.395" y="18.999" fill="#CCCCCC"  height="1.592" id="0.1.40.14"/>
   <rect  width="0.131" x="10.395" y="29.889" fill="#CCCCCC"  height="1.592" id="0.1.40.15"/>
   <rect  width="0.66" x="0.354" y="16.605" fill="#B3B3B3"  height="17.391" id="0.1.40.16"/>
   <rect  width="0.313" x="0.151" y="16.605" fill="#CCCCCC"  height="17.391" id="0.1.40.17"/>
  </g>
  <rect  width="28.346" x="51.449" y="11.149" fill="#333333"  height="28.351" id="0.1.41"/>
  <rect  width="5.779" x="90.197" y="36.834" fill="#333333"  height="5.773" id="0.1.42"/>
  <rect  width="5.778" x="17.86" y="9.311" fill="#333333"  height="5.778" id="0.1.43"/>
  <rect  width="11.14" x="17.86" y="30.007" fill="#333333"  height="11.139" id="0.1.44"/>
  <rect  width="2.102" x="84.004" y="37.168" fill="#333333"  height="4.289" id="0.1.45"/>
  <rect  width="4.289" x="78.791" y="40.408" fill="#333333"  height="2.101" id="0.1.46"/>
  <rect  width="4.289" x="88.887" y="11.149" fill="#333333"  height="2.104" id="0.1.47"/>
  <rect  width="2.101" x="48.692" y="7.416" fill="#333333"  height="3.729" id="0.1.48"/>
  <rect  width="2.101" x="45.946" y="7.416" fill="#333333"  height="3.729" id="0.1.49"/>
  <rect  width="2.101" x="30.05" y="38.542" fill="#333333"  height="3.729" id="0.1.50"/>
  <g   id="0.1.51">
   <g   id="0.1.51.0">
    <rect  width="2.101" x="27.949" y="17.146" fill="#333333"  height="3.733" id="0.1.51.0.0"/>
   </g>
   <g   id="0.1.51.1">
    <rect  width="2.101" x="18.702" y="21.128" fill="#333333"  height="6.221" id="0.1.51.1.0"/>
   </g>
   <g   id="0.1.51.2">
    <rect  width="2.101" x="31.925" y="17.146" fill="#333333"  height="3.733" id="0.1.51.2.0"/>
   </g>
   <g   id="0.1.51.3">
    <rect  width="2.101" x="35.901" y="17.146" fill="#333333"  height="4.703" id="0.1.51.3.0"/>
   </g>
   <g   id="0.1.51.4">
    <rect  width="2.101" x="39.877" y="17.146" fill="#333333"  height="3.733" id="0.1.51.4.0"/>
   </g>
   <g   id="0.1.51.5">
    <rect  width="2.101" x="43.853" y="17.146" fill="#333333"  height="3.733" id="0.1.51.5.0"/>
   </g>
  </g>
  <rect  width="5.703" x="88.887" y="8.368" fill="#333333"  height="2.101" id="0.1.52"/>
  <rect  width="5.703" x="82.203" y="8.368" fill="#333333"  height="2.101" id="0.1.53"/>
  <rect  width="4.093" x="18.702" y="16.141" fill="#333333"  height="2.104" id="0.1.54"/>
  <rect  width="11.586" x="34.379" y="33.554" fill="#333333"  height="6.088" id="0.1.55"/>
  <rect  width="4.093" x="22.139" y="21.198" fill="#333333"  height="2.102" id="0.1.56"/>
  <rect  width="4.093" x="22.139" y="24.339" fill="#333333"  height="2.101" id="0.1.57"/>
  <rect  width="4.093" x="5.742" y="38.672" fill="#333333"  height="2.102" id="0.1.58"/>
  <rect  width="4.093" x="41.853" y="30.007" fill="#333333"  height="2.102" id="0.1.59"/>
  <g   id="0.1.60">
   <polygon  fill="#CCCCCC" points="88.785,23.096 88.932,23.096 88.932,27.503 88.785,27.503 88.785,30.833 95.088,30.833 95.088,19.766 88.785,19.766 "  id="0.1.60.0"/>
   <polygon  fill="#CCCCCC" points="96.098,27.503 95.953,27.503 95.953,23.096 96.098,23.096 96.098,19.766 89.842,19.766 89.842,30.833 96.098,30.833 "  id="0.1.60.1"/>
   <circle  cx="92.441"  cy="25.3" r="2.316" id="0.1.60.2"/>
   <path  opacity="0.2"  enable-background="new    " id="0.1.60.3" d="M92.553,27.617c1.281,0,2.318-1.038,2.318-2.316c0-1.279-1.037-2.316-2.318-2.316h-0.111c1.281,0,2.316,1.036,2.316,2.316c0,1.278-1.035,2.316-2.316,2.316H92.553z"/>
   <circle  fill="#1A1A1A" cx="92.441"  cy="25.3" r="2.232" id="0.1.60.4"/>
   <circle  fill="#333333" cx="92.389"  cy="25.3" r="2.232" id="0.1.60.5"/>
   <path  opacity="0.2"  enable-background="new    " id="0.1.60.6" d="M92.494,27.531c1.232,0,2.232-0.998,2.232-2.23c0-1.233-1-2.233-2.232-2.233h-0.105c1.232,0,2.232,1.001,2.232,2.233s-1,2.23-2.232,2.23H92.494z"/>
   <path  opacity="0.2" fill="#FFFFFF"  enable-background="new    " id="0.1.60.7" d="M92.494,23.067c-1.232,0-2.232,1.001-2.232,2.233c0,1.231,1,2.23,2.232,2.23h-0.105c-1.23,0-2.23-0.999-2.23-2.23c0-1.233,1-2.233,2.23-2.233H92.494z"/>
   <rect  width="0.146" x="88.785" opacity="0.2" y="19.765" fill="#FFFFFF"  height="3.331" enable-background="new    " id="0.1.60.8"/>
   <rect  width="0.146" x="88.785" opacity="0.2" y="27.503" fill="#FFFFFF"  height="3.33" enable-background="new    " id="0.1.60.9"/>
   <rect  width="0.146" x="88.932" opacity="0.2" y="23.096" fill="#FFFFFF"  height="4.407" enable-background="new    " id="0.1.60.10"/>
   <rect  width="0.145" x="95.945" opacity="0.2" y="19.765"  height="3.331" enable-background="new    " id="0.1.60.11"/>
   <rect  width="0.145" x="95.945" opacity="0.2" y="27.503"  height="3.33" enable-background="new    " id="0.1.60.12"/>
   <rect  width="0.146" x="95.799" opacity="0.2" y="23.096"  height="4.407" enable-background="new    " id="0.1.60.13"/>
  </g>
  <g   id="0.1.61" transform="matrix(1 0 0 1 53.1504 43.1858)">
   <g   id="0.1.61">
    <g   id="0.1.61.0">
     <text  fill="#333333" font-family="OCRA"  id="0.1.61.0.0" font-size="3">teensy3.0</text>
    </g>
   </g>
  </g>
  <g   id="connectors">
   <circle  fill="none" cx="99.941"  cy="3.723" stroke="#9A916C" r="1.908" id="connector19pin" stroke-width="1.224"/>
   <circle  fill="none" cx="92.742"  cy="3.723" stroke="#9A916C" r="1.908" id="connector20pin" stroke-width="1.224"/>
   <circle  fill="none" cx="85.541"  cy="3.723" stroke="#9A916C" r="1.908" id="connector21pin" stroke-width="1.224"/>
   <circle  fill="none" cx="78.342"  cy="3.723" stroke="#9A916C" r="1.908" id="connector22pin" stroke-width="1.224"/>
   <circle  fill="none" cx="71.143"  cy="3.723" stroke="#9A916C" r="1.908" id="connector23pin" stroke-width="1.224"/>
   <circle  fill="none" cx="63.941"  cy="3.723" stroke="#9A916C" r="1.908" id="connector24pin" stroke-width="1.224"/>
   <circle  fill="none" cx="56.742"  cy="3.723" stroke="#9A916C" r="1.908" id="connector25pin" stroke-width="1.224"/>
   <circle  fill="none" cx="49.542"  cy="3.723" stroke="#9A916C" r="1.908" id="connector26pin" stroke-width="1.224"/>
   <circle  fill="none" cx="42.342"  cy="3.723" stroke="#9A916C" r="1.908" id="connector27pin" stroke-width="1.224"/>
   <circle  fill="none" cx="35.143"  cy="3.723" stroke="#9A916C" r="1.908" id="connector28pin" stroke-width="1.224"/>
   <circle  fill="none" cx="27.942"  cy="3.723" stroke="#9A916C" r="1.908" id="connector29pin" stroke-width="1.224"/>
   <circle  fill="none" cx="20.742"  cy="3.723" stroke="#9A916C" r="1.908" id="connector30pin" stroke-width="1.224"/>
   <circle  fill="none" cx="13.542"  cy="3.723" stroke="#9A916C" r="1.908" id="connector31pin" stroke-width="1.224"/>
   <circle  fill="none" cx="6.342"  cy="3.723" stroke="#9A916C" r="1.908" id="connector32pin" stroke-width="1.224"/>
   <circle  fill="none" cx="13.542"  cy="11.949" stroke="#9A916C" id="connector36pin" r="1.908" stroke-width="1.224"/>
   <circle  fill="none" cx="35.149"  cy="11.949" stroke="#9A916C" id="connector34pin" r="1.908" stroke-width="1.224"/>
   <circle  fill="none" cx="27.942"  cy="11.949" stroke="#9A916C" id="connector35pin" r="1.908" stroke-width="1.224"/>
   <circle  fill="none" cx="99.941"  cy="46.922" stroke="#9A916C" id="connector13pin" r="1.908" stroke-width="1.224"/>
   <circle  fill="none" cx="92.742"  cy="46.922" stroke="#9A916C" id="connector12pin" r="1.908" stroke-width="1.224"/>
   <circle  fill="none" cx="85.541"  cy="46.922" stroke="#9A916C" id="connector11pin" r="1.908" stroke-width="1.224"/>
   <circle  fill="none" cx="78.342"  cy="46.922" stroke="#9A916C" id="connector10pin" r="1.908" stroke-width="1.224"/>
   <circle  fill="none" cx="71.143"  cy="46.922" stroke="#9A916C" id="connector9pin" r="1.908" stroke-width="1.224"/>
   <circle  fill="none" cx="63.941"  cy="46.922" stroke="#9A916C" id="connector8pin" r="1.908" stroke-width="1.224"/>
   <circle  fill="none" cx="56.742"  cy="46.922" stroke="#9A916C" id="connector7pin" r="1.908" stroke-width="1.224"/>
   <circle  fill="none" cx="49.542"  cy="46.922" stroke="#9A916C" id="connector6pin" r="1.908" stroke-width="1.224"/>
   <circle  fill="none" cx="42.342"  cy="46.922" stroke="#9A916C" id="connector5pin" r="1.908" stroke-width="1.224"/>
   <circle  fill="none" cx="35.143"  cy="46.922" stroke="#9A916C" id="connector4pin" r="1.908" stroke-width="1.224"/>
   <circle  fill="none" cx="27.942"  cy="46.922" stroke="#9A916C" id="connector3pin" r="1.908" stroke-width="1.224"/>
   <circle  fill="none" cx="20.742"  cy="46.922" stroke="#9A916C" id="connector2pin" r="1.908" stroke-width="1.224"/>
   <circle  fill="none" cx="13.542"  cy="46.922" stroke="#9A916C" id="connector1pin" r="1.908" stroke-width="1.224"/>
   <circle  fill="none" cx="6.342"  cy="46.922" stroke="#9A916C" id="connector0pin" r="1.908" stroke-width="1.224"/>
   <circle  fill="none" cx="42.349"  cy="11.95" stroke="#9A916C" id="connector33pin" r="1.908" stroke-width="1.224"/>
   <circle  fill="none" cx="99.943"  cy="32.523" stroke="#9A916C" id="connector15pin" r="1.908" stroke-width="1.224"/>
   <circle  fill="none" cx="99.941"  cy="39.723" stroke="#9A916C" id="connector14pin" r="1.908" stroke-width="1.224"/>
   <circle  fill="none" cx="99.943"  cy="25.323" stroke="#9A916C" id="connector16pin" r="1.908" stroke-width="1.224"/>
   <circle  fill="none" cx="99.941"  cy="10.923" stroke="#9A916C" id="connector18pin" r="1.908" stroke-width="1.224"/>
   <circle  fill="none" cx="99.943"  cy="18.122" stroke="#9A916C" r="1.908" id="connector17pin" stroke-width="1.224"/>
   <rect  width="3.348" x="91.08" opacity="0.3" y="9.795" fill="#AE916C"  height="7.084" id="connector42pin"/>
   <rect  width="3.35" x="83.879" opacity="0.3" y="9.795" fill="#AE916C"  height="7.084" id="connector43pin"/>
   <rect  width="3.348" x="76.68" opacity="0.3" y="9.795" fill="#AE916C"  height="7.084" id="connector44pin"/>
   <rect  width="3.35" x="69.479" opacity="0.3" y="9.795" fill="#AE916C"  height="7.084" id="connector45pin"/>
   <rect  width="3.348" x="62.279" opacity="0.3" y="9.795" fill="#AE916C"  height="7.084" id="connector46pin"/>
   <rect  width="3.35" x="55.078" opacity="0.3" y="9.795" fill="#AE916C"  height="7.084" id="connector50pin"/>
   <rect  width="3.349" x="47.879" opacity="0.3" y="9.795" fill="#AE916C"  height="7.084" id="connector48pin"/>
   <rect  width="3.348" x="91.08" opacity="0.3" y="25.378" fill="#AE916C"  height="7.083" id="connector41pin"/>
   <rect  width="3.35" x="83.879" opacity="0.3" y="25.378" fill="#AE916C"  height="7.083" id="connector40pin"/>
   <rect  width="3.348" x="76.68" opacity="0.3" y="25.378" fill="#AE916C"  height="7.083" id="connector39pin"/>
   <rect  width="3.35" x="69.479" opacity="0.3" y="25.378" fill="#AE916C"  height="7.083" id="connector38pin"/>
   <rect  width="3.348" x="62.279" opacity="0.3" y="25.378" fill="#AE916C"  height="7.083" id="connector37pin"/>
   <rect  width="3.35" x="55.078" opacity="0.3" y="25.378" fill="#AE916C"  height="7.083" id="connector49pin"/>
   <rect  width="3.349" x="47.879" opacity="0.3" y="25.378" fill="#AE916C"  height="7.083" id="connector47pin"/>
  </g>
 </g>
</svg>
