<?xml version='1.0' encoding='UTF-8' standalone='no'?>
<!-- Created with Fritzing (http://www.fritzing.org/) -->
<svg xmlns="http://www.w3.org/2000/svg" width="0.4in" x="0in" version="1.2" y="0in" height="0.4in" viewBox="0 0 28.8 28.8" baseProfile="tiny">
 <desc >Fritzing breadboard generated by brd2svg</desc>
 <g  id="breadboard" stroke-width="0">
  <g  id="icon" stroke-width="0">
   <path  fill="#C62717" stroke="none" stroke-width="0" d="M0,28.8L28.8,28.8L28.8,0L0,0L0,28.8M2.16,21.6a1.44,1.44,0,1,1,2.88,0,1.44,1.44,0,1,1,-2.88,0zM2.16,14.4a1.44,1.44,0,1,1,2.88,0,1.44,1.44,0,1,1,-2.88,0zM2.16,7.2a1.44,1.44,0,1,1,2.88,0,1.44,1.44,0,1,1,-2.88,0z"/>
   <g  stroke-width="0">
    <title >layer 21</title>
    <g  stroke-width="0">
     <title >text:TEMT6000</title>
     <text  x="12.24" y="27.36" font-family="OCRA" fill="white" text-anchor="start" stroke="none" stroke-width="0" font-size="2.5056">TEMT6000</text>
    </g>
    <g  stroke-width="0">
     <title >text:GND</title>
     <text  x="7.92" y="15.84" font-family="OCRA" fill="white" text-anchor="start" stroke="none" stroke-width="0" font-size="3.3408">GND</text>
    </g>
    <g  stroke-width="0">
     <title >text:VCC</title>
     <text  x="7.92" y="23.04" font-family="OCRA" fill="white" text-anchor="start" stroke="none" stroke-width="0" font-size="3.3408">VCC</text>
    </g>
    <g  stroke-width="0">
     <title >text:SIG</title>
     <text  x="7.92" y="8.64" font-family="OCRA" fill="white" text-anchor="start" stroke="none" stroke-width="0" font-size="3.3408">SIG</text>
    </g>
    <g  stroke-width="0">
     <title >element:E$1</title>
     <g  stroke-width="0">
      <title >package:FIDUCIAL-1X2</title>
     </g>
    </g>
    <g  stroke-width="0">
     <title >element:E$2</title>
     <g  stroke-width="0">
      <title >package:FIDUCIAL-1X2</title>
     </g>
    </g>
    <g  stroke-width="0">
     <title >element:JP4</title>
     <g  stroke-width="0">
      <title >package:1X03</title>
      <line  stroke="white" stroke-linecap="round" y1="10.8" x1="1.8" y2="9" stroke-width="0.576" x2="0"/>
      <line  stroke="white" stroke-linecap="round" y1="9" x1="0" y2="5.4" stroke-width="0.576" x2="0"/>
      <line  stroke="white" stroke-linecap="round" y1="5.4" x1="0" y2="3.6" stroke-width="0.576" x2="1.8"/>
      <line  stroke="white" stroke-linecap="round" y1="3.6" x1="5.4" y2="5.4" stroke-width="0.576" x2="7.2"/>
      <line  stroke="white" stroke-linecap="round" y1="5.4" x1="7.2" y2="9" stroke-width="0.576" x2="7.2"/>
      <line  stroke="white" stroke-linecap="round" y1="9" x1="7.2" y2="10.8" stroke-width="0.576" x2="5.4"/>
      <line  stroke="white" stroke-linecap="round" y1="23.4" x1="0" y2="19.8" stroke-width="0.576" x2="0"/>
      <line  stroke="white" stroke-linecap="round" y1="19.8" x1="0" y2="18" stroke-width="0.576" x2="1.8"/>
      <line  stroke="white" stroke-linecap="round" y1="18" x1="5.4" y2="19.8" stroke-width="0.576" x2="7.2"/>
      <line  stroke="white" stroke-linecap="round" y1="18" x1="1.8" y2="16.2" stroke-width="0.576" x2="0"/>
      <line  stroke="white" stroke-linecap="round" y1="16.2" x1="0" y2="12.6" stroke-width="0.576" x2="0"/>
      <line  stroke="white" stroke-linecap="round" y1="12.6" x1="0" y2="10.8" stroke-width="0.576" x2="1.8"/>
      <line  stroke="white" stroke-linecap="round" y1="10.8" x1="5.4" y2="12.6" stroke-width="0.576" x2="7.2"/>
      <line  stroke="white" stroke-linecap="round" y1="12.6" x1="7.2" y2="16.2" stroke-width="0.576" x2="7.2"/>
      <line  stroke="white" stroke-linecap="round" y1="16.2" x1="7.2" y2="18" stroke-width="0.576" x2="5.4"/>
      <line  stroke="white" stroke-linecap="round" y1="25.2" x1="1.8" y2="25.2" stroke-width="0.576" x2="5.4"/>
      <line  stroke="white" stroke-linecap="round" y1="23.4" x1="0" y2="25.2" stroke-width="0.576" x2="1.8"/>
      <line  stroke="white" stroke-linecap="round" y1="25.2" x1="5.4" y2="23.4" stroke-width="0.576" x2="7.2"/>
      <line  stroke="white" stroke-linecap="round" y1="19.8" x1="7.2" y2="23.4" stroke-width="0.576" x2="7.2"/>
      <line  stroke="white" stroke-linecap="round" y1="3.6" x1="1.8" y2="3.6" stroke-width="0.576" x2="5.4"/>
     </g>
    </g>
    <g  stroke-width="0">
     <title >element:R1</title>
     <g  stroke-width="0">
      <title >package:0402-RES</title>
     </g>
    </g>
    <g  stroke-width="0">
     <title >element:U$1</title>
     <g  stroke-width="0">
      <title >package:SFE-LOGO-FLAME</title>
     </g>
    </g>
    <g  stroke-width="0">
     <title >element:U1</title>
     <g  stroke-width="0">
      <title >package:TEMT6000-SEN</title>
      <line  stroke="white" stroke-linecap="round" y1="22.2293" x1="22.3143" y2="22.2293" stroke-width="0.36" x2="22.9096"/>
      <line  stroke="white" stroke-linecap="round" y1="22.2293" x1="22.9096" y2="13.8388" stroke-width="0.36" x2="22.9096"/>
      <line  stroke="white" stroke-linecap="round" y1="22.2293" x1="18.0057" y2="22.2293" stroke-width="0.36" x2="17.3537"/>
      <line  stroke="white" stroke-linecap="round" y1="22.2293" x1="17.3537" y2="13.7537" stroke-width="0.36" x2="17.3537"/>
      <line  stroke="white" stroke-linecap="round" y1="10.9191" x1="19.9616" y2="10.9191" stroke-width="0.36" x2="20.3868"/>
     </g>
    </g>
   </g>
   <rect  width="1.152" x="19.584" y="4.032" fill="#ffffff" height="2.016" stroke="none" fill-opacity="0.15" stroke-width="0"/>
   <rect  width="5.55591" x="17.3537" y="10.9191" fill="#333333" height="11.3103" stroke="none" fill-opacity="1" stroke-width="0"/>
   <circle  fill="none" cx="3.6" cy="21.6" connectorname="VCC" stroke="#9A916C" r="2.052" id="connector2pin" stroke-width="1.224"/>
   <circle  fill="none" cx="3.6" cy="14.4" connectorname="GND" stroke="#9A916C" r="2.052" id="connector3pin" stroke-width="1.224"/>
   <circle  fill="none" cx="3.6" cy="7.2" connectorname="S" stroke="#9A916C" r="2.052" id="connector4pin" stroke-width="1.224"/>
  </g>
 </g>
</svg>
