<?xml version="1.0" encoding="utf-8"?>
<!-- Generator: Adobe Illustrator 15.1.0, SVG Export Plug-In . SVG Version: 6.00 Build 0)  -->
<!DOCTYPE svg PUBLIC "-//W3C//DTD SVG 1.1//EN" "http://www.w3.org/Graphics/SVG/1.1/DTD/svg11.dtd">
<svg version="1.1" id="Ebene_1" xmlns:svg="http://www.w3.org/2000/svg"
	 xmlns="http://www.w3.org/2000/svg" xmlns:xlink="http://www.w3.org/1999/xlink" x="0px" y="0px" width="18.434px"
	 height="22.641px" viewBox="0 0 18.434 22.641" enable-background="new 0 0 18.434 22.641" xml:space="preserve">
<path fill="#1A1A1A" d="M16.291,3.772H2.131C0.959,3.772,0,4.73,0,5.902v14.29l2.13,2.13h2.132v-0.324h9.896v0.324h2.133l2.13-2.13
	V5.902C18.421,4.73,17.463,3.772,16.291,3.772z"/>
<rect x="2.131" y="18.55" fill="#333333" width="2.132" height="3.771"/>
<rect x="14.158" y="18.55" fill="#333333" width="2.131" height="3.771"/>
<path fill="#333333" d="M16.291,0h-2.133v0.323H4.262V0H2.131L0,2.13v14.289l2.13,2.131h2.132v-0.324h9.896v0.324h2.133l2.13-2.131
	V2.13L16.291,0z"/>
<path fill="#1A1A1A" d="M16.708,5.365l0.277-0.274l-3.545-3.544l-0.259,0.259c-1.184-0.631-2.535-0.992-3.971-0.992
	c-4.672,0-8.46,3.788-8.46,8.461c0,1.42,0.354,2.756,0.973,3.932L1.442,13.49l3.542,3.542l0.279-0.276
	c1.179,0.624,2.521,0.98,3.948,0.98c4.673,0,8.459-3.789,8.459-8.46C17.67,7.864,17.32,6.535,16.708,5.365z"/>
<path opacity="0.7" enable-background="new    " d="M17.67,9.275c0,4.671-3.786,8.46-8.459,8.46c-1.427,0-2.769-0.356-3.948-0.98
	l-0.279,0.276L1.442,13.49l0.077-0.045l3.466,3.466l0.279-0.276c1.179,0.624,2.521,0.98,3.948,0.98c4.673,0,8.459-3.789,8.459-8.46
	V9.275z"/>
<path opacity="0.09" fill="#FFFFFF" enable-background="new    " d="M0.751,9.274c0-4.673,3.788-8.461,8.46-8.461
	c1.436,0,2.788,0.36,3.971,0.992l0.259-0.259l3.545,3.545l0.061-0.06l-3.605-3.606l-0.259,0.259
	c-1.184-0.631-2.535-0.992-3.971-0.992c-4.672,0-8.46,3.788-8.46,8.461V9.274z"/>
<path opacity="0.2" fill="#FFFFFF" enable-background="new    " d="M18.421,2.249l-2.13-2.13h-2.133V0h2.133l2.13,2.13V2.249z"/>
<path opacity="0.2" fill="#FFFFFF" enable-background="new    " d="M0,2.249l2.13-2.13h2.132V0H2.131L0,2.13V2.249z"/>
<rect x="4.262" y="0.323" opacity="0.2" fill="#FFFFFF" enable-background="new    " width="9.896" height="0.12"/>
<path opacity="0.5" enable-background="new    " d="M0,16.419l2.13,2.131h2.132v0.118H2.131L0,16.538V16.419z"/>
<path opacity="0.5" enable-background="new    " d="M18.421,16.419l-2.13,2.131h-2.133v0.118h2.133l2.13-2.131V16.419z"/>
<rect x="4.263" y="18.225" opacity="0.5" enable-background="new    " width="9.896" height="0.12"/>
<circle cx="9.211" cy="9.275" r="8.091"/>
<circle fill="#1A1A1A" cx="9.211" cy="9.274" r="7.727"/>
<g enable-background="new    ">
	<path fill="#4D4D4D" d="M5.14,9.856v0.27H3.629c-0.002-0.067,0.009-0.133,0.033-0.195c0.039-0.103,0.1-0.205,0.185-0.304
		c0.084-0.1,0.207-0.215,0.367-0.347C4.462,9.077,4.63,8.916,4.718,8.796s0.131-0.231,0.131-0.338c0-0.111-0.04-0.205-0.12-0.281
		C4.65,8.101,4.546,8.063,4.418,8.063c-0.135,0-0.244,0.041-0.325,0.122S3.971,8.377,3.97,8.521L3.682,8.492
		c0.02-0.215,0.094-0.379,0.223-0.493C4.034,7.886,4.207,7.83,4.425,7.83c0.219,0,0.393,0.061,0.521,0.183
		c0.128,0.122,0.192,0.272,0.192,0.452c0,0.092-0.019,0.182-0.056,0.27c-0.038,0.088-0.1,0.182-0.187,0.279S4.664,9.246,4.462,9.417
		C4.293,9.558,4.185,9.654,4.137,9.705C4.09,9.755,4.05,9.806,4.019,9.856H5.14z"/>
	<path fill="#4D4D4D" d="M6.342,10.126V9.579H5.349V9.321l1.044-1.482h0.229v1.482h0.309v0.258H6.622v0.547H6.342z M6.342,9.321
		V8.29L5.626,9.321H6.342z"/>
	<path fill="#4D4D4D" d="M8.676,8.399L8.397,8.421c-0.025-0.11-0.061-0.19-0.106-0.24c-0.076-0.08-0.17-0.12-0.281-0.12
		c-0.09,0-0.168,0.025-0.236,0.075C7.686,8.2,7.616,8.294,7.565,8.418c-0.051,0.124-0.078,0.3-0.08,0.529
		c0.067-0.103,0.15-0.179,0.248-0.229s0.2-0.075,0.307-0.075c0.188,0,0.347,0.069,0.479,0.207c0.131,0.138,0.197,0.316,0.197,0.534
		c0,0.144-0.031,0.277-0.093,0.4c-0.062,0.123-0.147,0.217-0.255,0.283C8.26,10.133,8.138,10.166,8,10.166
		c-0.234,0-0.425-0.086-0.572-0.258C7.28,9.735,7.206,9.452,7.206,9.056c0-0.442,0.082-0.763,0.245-0.964
		C7.594,7.917,7.785,7.83,8.027,7.83c0.18,0,0.327,0.05,0.442,0.151C8.584,8.082,8.653,8.222,8.676,8.399z M7.529,9.385
		c0,0.097,0.021,0.189,0.062,0.278c0.041,0.088,0.098,0.156,0.172,0.202c0.074,0.046,0.151,0.069,0.232,0.069
		c0.119,0,0.22-0.048,0.306-0.144s0.128-0.226,0.128-0.39c0-0.158-0.042-0.283-0.126-0.374c-0.084-0.091-0.19-0.137-0.318-0.137
		c-0.127,0-0.234,0.046-0.323,0.137S7.529,9.238,7.529,9.385z"/>
	<path fill="#4D4D4D" d="M10.471,9.856v0.27H8.96c-0.002-0.067,0.009-0.133,0.033-0.195c0.039-0.103,0.1-0.205,0.185-0.304
		c0.084-0.1,0.207-0.215,0.367-0.347c0.249-0.204,0.417-0.365,0.504-0.484c0.087-0.119,0.131-0.231,0.131-0.338
		c0-0.111-0.04-0.205-0.119-0.281c-0.08-0.077-0.184-0.115-0.312-0.115c-0.135,0-0.244,0.041-0.325,0.122S9.302,8.377,9.302,8.521
		L9.013,8.492c0.02-0.215,0.094-0.379,0.223-0.493C9.365,7.886,9.538,7.83,9.756,7.83c0.219,0,0.393,0.061,0.521,0.183
		c0.128,0.122,0.192,0.272,0.192,0.452c0,0.092-0.02,0.182-0.057,0.27s-0.1,0.182-0.187,0.279S9.994,9.246,9.793,9.417
		C9.624,9.558,9.516,9.654,9.469,9.705C9.421,9.755,9.381,9.806,9.35,9.856H10.471z"/>
	<path fill="#4D4D4D" d="M11.957,9.229V8.961l0.969-0.001v0.849c-0.149,0.119-0.303,0.208-0.461,0.268
		c-0.158,0.06-0.32,0.09-0.486,0.09c-0.225,0-0.43-0.048-0.613-0.145s-0.321-0.235-0.415-0.417c-0.094-0.182-0.141-0.386-0.141-0.61
		c0-0.222,0.047-0.43,0.14-0.623c0.094-0.193,0.227-0.336,0.402-0.43C11.526,7.847,11.727,7.8,11.955,7.8
		c0.165,0,0.314,0.027,0.448,0.081c0.134,0.053,0.238,0.128,0.314,0.224c0.075,0.096,0.134,0.221,0.173,0.375l-0.273,0.075
		c-0.033-0.116-0.076-0.208-0.127-0.274s-0.124-0.12-0.219-0.16s-0.199-0.06-0.314-0.06c-0.139,0-0.259,0.021-0.359,0.063
		c-0.102,0.042-0.183,0.098-0.244,0.166c-0.063,0.069-0.109,0.144-0.145,0.226c-0.059,0.142-0.088,0.295-0.088,0.46
		c0,0.204,0.035,0.375,0.105,0.512s0.173,0.239,0.307,0.306c0.135,0.067,0.277,0.1,0.428,0.1c0.131,0,0.26-0.025,0.384-0.076
		c0.125-0.051,0.22-0.104,0.284-0.162V9.229H11.957z"/>
	<path fill="#4D4D4D" d="M14.734,9.856v0.27h-1.512c-0.002-0.067,0.009-0.133,0.032-0.195c0.039-0.103,0.101-0.205,0.186-0.304
		c0.084-0.1,0.207-0.215,0.367-0.347c0.248-0.204,0.416-0.365,0.504-0.484s0.131-0.231,0.131-0.338c0-0.111-0.039-0.205-0.119-0.281
		c-0.08-0.077-0.184-0.115-0.311-0.115c-0.136,0-0.244,0.041-0.325,0.122s-0.122,0.193-0.123,0.337l-0.288-0.029
		c0.02-0.215,0.094-0.379,0.223-0.493c0.129-0.113,0.302-0.169,0.52-0.169c0.219,0,0.393,0.061,0.521,0.183
		c0.128,0.122,0.192,0.272,0.192,0.452c0,0.092-0.019,0.182-0.057,0.27c-0.037,0.088-0.1,0.182-0.187,0.279
		c-0.086,0.098-0.23,0.232-0.433,0.402c-0.168,0.142-0.276,0.237-0.324,0.288c-0.048,0.05-0.088,0.101-0.119,0.152H14.734z"/>
</g>
<g>
	<path opacity="0.5" enable-background="new    " d="M0,20.071l2.13,2.131h2.132v0.118H2.131L0,20.19V20.071z"/>
	<path opacity="0.5" enable-background="new    " d="M18.421,20.071l-2.13,2.131h-2.133v0.118h2.133l2.13-2.13V20.071z"/>
	<rect x="4.263" y="21.877" opacity="0.5" enable-background="new    " width="9.896" height="0.119"/>
	<rect x="4.152" y="18.668" opacity="0.5" enable-background="new    " width="0.111" height="3.533"/>
	<rect x="14.158" y="18.668" opacity="0.5" enable-background="new    " width="0.111" height="3.533"/>
</g>
<path opacity="0.1" fill="#FFFFFF" enable-background="new    " d="M1.484,9.373c0-4.267,3.46-7.727,7.727-7.727
	c4.268,0,7.728,3.46,7.728,7.727V9.275c0-4.268-3.46-7.728-7.728-7.728c-4.267,0-7.727,3.459-7.727,7.728V9.373z"/>
<path opacity="0.5" enable-background="new    " d="M16.939,9.177c0,4.268-3.461,7.729-7.728,7.729
	c-4.268,0-7.727-3.461-7.727-7.729v0.099c0,4.268,3.459,7.726,7.727,7.726c4.267,0,7.728-3.458,7.728-7.726V9.177z"/>
<g>
	<g>
		<rect x="5.093" y="21.998" fill="#808080" width="8.248" height="0.644"/>
	</g>
	<g>
		<rect x="5.093" y="21.265" fill="#999999" width="8.248" height="1.198"/>
	</g>
	<g>
		<rect x="5.093" y="21.194" fill="#808080" width="8.248" height="0.071"/>
	</g>
</g>
</svg>
