<?xml version="1.0" encoding="utf-8"?>
<!-- Generator: Adobe Illustrator 15.1.0, SVG Export Plug-In . SVG Version: 6.00 Build 0)  -->
<!DOCTYPE svg PUBLIC "-//W3C//DTD SVG 1.1//EN" "http://www.w3.org/Graphics/SVG/1.1/DTD/svg11.dtd">
<svg version="1.1" id="Ebene_1" xmlns:svg="http://www.w3.org/2000/svg"
	 xmlns="http://www.w3.org/2000/svg" xmlns:xlink="http://www.w3.org/1999/xlink" x="0px" y="0px" width="9.202px"
	 height="15.337px" viewBox="0 0 9.202 15.337" enable-background="new 0 0 9.202 15.337" xml:space="preserve">
<g>
	<path fill="#B3B3B3" d="M9.202,14.337c0,0.549-0.449,1-1,1H1c-0.55,0-1-0.451-1-1V1c0-0.55,0.45-1,1-1h7.202c0.551,0,1,0.45,1,1
		V14.337z"/>
	<path fill="#999999" d="M8.852,13.94c0,0.549-0.449,1-1,1H1.349c-0.55,0-1-0.451-1-1V1.937c0-0.55,0.45-1,1-1h6.503
		c0.551,0,1,0.45,1,1V13.94z"/>
	<path fill="#CCCCCC" d="M8.852,13.173c0,0.549-0.449,1-1,1H1.349c-0.55,0-1-0.451-1-1V1.17c0-0.55,0.45-1,1-1h6.503
		c0.551,0,1,0.45,1,1V13.173z"/>
	<path opacity="0.2" d="M0.349,13.353c0,0.551,0.45,1,1,1h6.503c0.551,0,1-0.449,1-1v-0.18c0,0.549-0.449,1-1,1H1.349
		c-0.55,0-1-0.451-1-1V13.353z"/>
	<path opacity="0.2" fill="#FFFFFF" d="M8.852,1.437c0-0.55-0.449-1-1-1H1.349c-0.55,0-1,0.45-1,1V1.17c0-0.55,0.45-1,1-1h6.503
		c0.551,0,1,0.45,1,1V1.437z"/>
	<circle fill="#1A1A1A" cx="4.601" cy="11.587" r="0.896"/>
	<path opacity="0.2" fill="#FFFFFF" d="M9.202,1.17c0-0.55-0.449-1-1-1H1c-0.55,0-1,0.45-1,1V1c0-0.55,0.45-1,1-1h7.202
		c0.551,0,1,0.45,1,1V1.17z"/>
	<path opacity="0.2" d="M0,14.337c0,0.549,0.45,1,1,1h7.202c0.551,0,1-0.451,1-1v-0.104c0,0.549-0.449,1-1,1H1c-0.55,0-1-0.451-1-1
		V14.337z"/>
</g>
</svg>
