<?xml version="1.0" encoding="utf-8"?>
<!-- Generator: Adobe Illustrator 15.1.0, SVG Export Plug-In . SVG Version: 6.00 Build 0)  -->
<!DOCTYPE svg PUBLIC "-//W3C//DTD SVG 1.1//EN" "http://www.w3.org/Graphics/SVG/1.1/DTD/svg11.dtd">
<svg version="1.1" id="Ebene_1" xmlns:svg="http://www.w3.org/2000/svg"
	 xmlns="http://www.w3.org/2000/svg" xmlns:xlink="http://www.w3.org/1999/xlink" x="0px" y="0px" width="33.346px"
	 height="55.02px" viewBox="0 0 33.346 55.02" enable-background="new 0 0 33.346 55.02" xml:space="preserve">
<g id="silkscreen">
</g>
<polygon fill="#FFD02A" points="31.657,21.375 31.657,3.75 33.345,3.75 33.345,0 0,0 0,3.75 1.688,3.75 1.688,21.375 0,21.375 
	0,24.875 33.345,24.875 33.345,21.375 "/>
<rect x="0" y="3.75" fill="#FFB42A" width="1.688" height="17.625"/>
<rect x="31.657" y="3.75" fill="#FFB42A" width="1.688" height="17.625"/>
<rect x="0" y="24.875" fill="#FFB42A" width="33.346" height="20.75"/>
<rect x="0" y="44.983" opacity="0.2" enable-background="new    " width="33.346" height="0.643"/>
<g>
	<g>
		<rect x="3.393" y="35.233" fill="#CCCCCC" width="26.53" height="14.599"/>
		<ellipse fill="#CCCCCC" cx="16.658" cy="35.234" rx="13.266" ry="5.188"/>
		<g>
			<path fill="#F2F2F2" d="M9.732,29.216v23.686c0.317,0.076,0.648,0.143,0.983,0.209V29.001
				C10.379,29.067,10.052,29.139,9.732,29.216z"/>
			<path fill="#FFFFFF" d="M10.716,29.001v24.109c0.247,0.048,0.472,0.111,0.728,0.154v-24.4
				C11.195,28.906,10.956,28.954,10.716,29.001z"/>
			<path fill="#E6E6E6" d="M11.444,53.265c0.354,0.059,0.742,0.09,1.112,0.137V28.703c-0.378,0.048-0.75,0.102-1.112,0.16V53.265z"
				/>
			<rect x="11.443" y="28.865" fill="#E6E6E6" width="0.001" height="24.4"/>
			<path fill="#E6E6E6" d="M8.108,29.67v22.763c0.515,0.169,1.047,0.329,1.624,0.469V29.215C9.162,29.352,8.616,29.501,8.108,29.67z
				"/>
			<path fill="#B3B3B3" d="M24.692,29.521v23.068c0.198-0.06,0.387-0.121,0.574-0.185V29.7
				C25.079,29.638,24.887,29.579,24.692,29.521z"/>
			<path fill="#999999" d="M24.268,29.397v23.329c0.148-0.042,0.279-0.093,0.424-0.138V29.521
				C24.552,29.479,24.412,29.437,24.268,29.397z"/>
			<path fill="#B3B3B3" d="M23.619,29.232v23.655c0.22-0.055,0.439-0.104,0.648-0.161V29.397
				C24.057,29.34,23.839,29.284,23.619,29.232z"/>
			<path opacity="0.51" fill="#B3B3B3" enable-background="new    " d="M25.266,52.405c0.324-0.11,0.652-0.215,0.949-0.337V30.053
				c-0.302-0.124-0.617-0.241-0.949-0.354V52.405z"/>
		</g>
		<ellipse fill="#E6E6E6" cx="16.658" cy="49.832" rx="13.266" ry="5.188"/>
		<ellipse fill="#FFD02A" cx="16.658" cy="49.832" rx="10.141" ry="3.966"/>
		<ellipse fill="#333333" cx="16.658" cy="49.832" rx="4.058" ry="1.587"/>
	</g>
	<path fill="#999999" d="M29.924,33.636c0-2.866-5.94-5.189-13.266-5.189c-7.327,0-13.266,2.323-13.266,5.189v1.598
		c0-2.866,5.938-5.188,13.266-5.188c7.324,0,13.266,2.322,13.266,5.188V33.636z"/>
</g>
<g opacity="0.2">
	<rect x="31.657" y="21.375" fill="#FFFFFF" width="1.688" height="0.644"/>
	<rect x="0" y="24.875" width="33.346" height="0.644"/>
	<rect x="0" y="21.375" fill="#FFFFFF" width="1.688" height="0.644"/>
	<rect x="0" y="3.75" width="1.688" height="0.644"/>
	<rect x="0" y="0" fill="#FFFFFF" width="33.346" height="0.644"/>
	<rect x="31.657" y="3.75" width="1.688" height="0.644"/>
	<path fill="#FFFFFF" d="M29.924,50.474c0-2.866-5.94-5.189-13.266-5.189c-7.327,0-13.266,2.323-13.266,5.189v-0.643
		c0-2.865,5.938-5.188,13.266-5.188c7.324,0,13.266,2.323,13.266,5.188V50.474z"/>
	<path d="M26.799,50.474c0-2.191-4.542-3.967-10.141-3.967c-5.601,0-10.141,1.774-10.141,3.967v-0.643
		c0-2.19,4.54-3.967,10.141-3.967c5.599,0,10.141,1.775,10.141,3.967V50.474z"/>
	<path d="M20.716,50.474c0-0.877-1.815-1.588-4.058-1.588S12.6,49.597,12.6,50.474v-0.643c0-0.877,1.815-1.588,4.058-1.588
		s4.058,0.711,4.058,1.588V50.474z"/>
	<path fill="#FFFFFF" d="M3.393,34.279c0-2.866,5.938-5.188,13.266-5.188c7.324,0,13.266,2.322,13.266,5.188v-0.643
		c0-2.866-5.94-5.189-13.266-5.189c-7.327,0-13.266,2.323-13.266,5.189V34.279z"/>
</g>
<g opacity="0.2">
	<path fill="#FFFFFF" d="M3.393,49.671c0,2.864,5.938,5.188,13.266,5.188c7.324,0,13.266-2.323,13.266-5.188v0.16
		c0,2.865-5.94,5.188-13.266,5.188c-7.327,0-13.266-2.323-13.266-5.188V49.671z"/>
	<path fill="#FFFFFF" d="M6.518,49.671c0,2.189,4.54,3.966,10.141,3.966c5.599,0,10.141-1.775,10.141-3.966v0.16
		c0,2.19-4.542,3.967-10.141,3.967c-5.601,0-10.141-1.775-10.141-3.967V49.671z"/>
	<path fill="#FFFFFF" d="M12.601,49.671c0,0.876,1.815,1.587,4.058,1.587s4.058-0.711,4.058-1.587v0.16
		c0,0.876-1.815,1.588-4.058,1.588s-4.058-0.712-4.058-1.588V49.671z"/>
</g>
</svg>
