<?xml version="1.0" encoding="utf-8"?>
<!-- Generator: Adobe Illustrator 15.1.0, SVG Export Plug-In . SVG Version: 6.00 Build 0)  -->
<!DOCTYPE svg PUBLIC "-//W3C//DTD SVG 1.1//EN" "http://www.w3.org/Graphics/SVG/1.1/DTD/svg11.dtd">
<svg version="1.1" id="Ebene_1" xmlns:svg="http://www.w3.org/2000/svg"
	 xmlns="http://www.w3.org/2000/svg" xmlns:xlink="http://www.w3.org/1999/xlink" x="0px" y="0px" width="30.754px"
	 height="50.654px" viewBox="0 0 30.754 50.654" enable-background="new 0 0 30.754 50.654" xml:space="preserve">
<g>
	<rect y="2.75" fill="#1A1A1A" width="30.754" height="29.305"/>
	<rect y="0" opacity="0.16" fill="#B3B3B3" enable-background="new    " width="2.322" height="31.216"/>
	<rect x="28.402" y="0" opacity="0.52" enable-background="new    " width="2.321" height="31.216"/>
	<g>
		<g>
			<g opacity="0.61">
				<g>
					<g>
						<rect x="19.963" y="0.542" fill="#B5751F" width="0.533" height="29.35"/>
					</g>
					<g>
						<rect x="16.723" y="0.542" fill="#B5751F" width="0.533" height="29.35"/>
					</g>
					<g>
						<rect x="13.485" y="0.542" fill="#B5751F" width="0.533" height="29.35"/>
					</g>
					<g>
						<rect x="10.245" y="0.542" fill="#B5751F" width="0.533" height="29.35"/>
					</g>
				</g>
				<g>
					<g>
						<rect x="19.965" y="0.542" fill="#C4914C" width="0.287" height="29.35"/>
					</g>
					<g>
						<rect x="16.723" y="0.542" fill="#C4914C" width="0.288" height="29.35"/>
					</g>
					<g>
						<rect x="13.483" y="0.542" fill="#C4914C" width="0.289" height="29.35"/>
					</g>
					<g>
						<rect x="10.243" y="0.542" fill="#C4914C" width="0.289" height="29.35"/>
					</g>
				</g>
				<g>
					<g>
						<rect x="19.92" y="0.542" fill="#D3AC79" width="0.144" height="29.35"/>
					</g>
					<g>
						<rect x="16.678" y="0.542" fill="#D3AC79" width="0.145" height="29.35"/>
					</g>
					<g>
						<rect x="13.436" y="0.542" fill="#D3AC79" width="0.145" height="29.35"/>
					</g>
					<g>
						<rect x="10.196" y="0.542" fill="#D3AC79" width="0.145" height="29.35"/>
					</g>
				</g>
			</g>
		</g>
		<g opacity="0.58">
			<g>
				<g>
					<rect x="19.584" y="0.542" width="1.246" height="29.417"/>
				</g>
				<g>
					<rect x="16.342" y="0.542" width="1.246" height="29.417"/>
				</g>
				<g>
					<rect x="13.103" y="0.542" width="1.247" height="29.417"/>
				</g>
				<g>
					<rect x="9.863" y="0.542" width="1.248" height="29.417"/>
				</g>
			</g>
			<g>
				<rect x="9.863" y="0.542" fill="#4D4D4D" width="0.246" height="29.417"/>
			</g>
			<g>
				<rect x="13.047" y="0.542" fill="#4D4D4D" width="0.246" height="29.417"/>
			</g>
			<g>
				<rect x="16.342" y="0.542" fill="#4D4D4D" width="0.246" height="29.417"/>
			</g>
			<g>
				<rect x="19.584" y="0.542" fill="#4D4D4D" width="0.246" height="29.417"/>
			</g>
		</g>
		<rect x="13.047" y="0.542" fill="#999999" width="0.037" height="29.417"/>
		<rect x="9.844" y="0.542" fill="#999999" width="0.037" height="29.417"/>
		<rect x="16.209" y="0.542" fill="#999999" width="0.035" height="29.417"/>
		<rect x="19.504" y="0.542" fill="#999999" width="0.037" height="29.417"/>
	</g>
	<rect y="0" opacity="0.96" fill="#333333" enable-background="new    " width="30.754" height="2.75"/>
	<rect y="2.75" opacity="0.76" fill="#1A1A1A" enable-background="new    " width="30.754" height="29.305"/>
</g>
<g>
	<g enable-background="new    ">
		<g>
			<path fill="#1A1A1A" d="M22.447,33.316h0.18v1.489h6.651v4.294h0.566v2.88h-0.566v4.293h-6.651v0.152v1.337h-3.474v1.912h-7.551
				v-0.252v-1.66H8.127v-1.337v-0.152H1.477v-4.293H0.945v-2.88h0.531v-4.294h6.651v-1.489h0.108h1.242h0.396h0.243h0.189h0.378
				h0.189h0.243h0.36h1.242h0.396h0.243h0.189h0.378h0.189h0.243h0.36h1.242h0.396h0.243h0.189h0.378h0.188h0.243h0.36h1.251h0.387
				h0.243h0.189h0.378h0.188h0.243h0.36H22.447 M30.753,32.056H0v18.599h30.753V50.65H0V50.42h30.753h-0.315v-6.098h0.315V32.056"/>
			<polyline points="29.844,39.099 29.278,39.099 29.278,41.979 29.844,41.979 29.844,39.099 			"/>
			<polyline points="1.477,39.099 0.945,39.099 0.945,41.979 1.477,41.979 1.477,39.099 			"/>
			<polyline points="22.626,33.316 22.447,33.316 22.447,42.167 21.196,42.167 21.196,33.316 20.835,33.316 20.835,40.777 
				19.593,40.777 19.593,33.316 19.207,33.316 19.207,42.167 17.956,42.167 17.956,33.316 17.595,33.316 17.595,40.777 
				16.353,40.777 16.353,33.316 15.958,33.316 15.958,42.167 14.715,42.167 14.715,33.316 14.355,33.316 14.355,40.777 
				13.113,40.777 13.113,33.316 12.717,33.316 12.717,42.167 11.476,42.167 11.476,33.316 11.115,33.316 11.115,40.777 
				9.874,40.777 9.874,33.316 9.478,33.316 9.478,42.167 8.235,42.167 8.235,33.316 8.127,33.316 8.127,34.805 1.477,34.805 
				1.477,39.099 1.477,41.979 1.477,46.272 8.127,46.272 8.127,46.424 8.127,47.761 11.602,47.761 11.602,49.421 11.602,49.673 
				19.153,49.673 19.153,47.761 22.626,47.761 22.626,46.424 22.626,46.272 29.278,46.272 29.278,41.979 29.278,39.099 
				29.278,34.805 22.626,34.805 22.626,33.316 			"/>
			<polyline points="30.753,50.42 0,50.42 0,50.65 30.753,50.65 30.753,50.42 			"/>
			<polyline points="30.753,44.323 30.438,44.323 30.438,50.42 30.753,50.42 30.753,44.323 			"/>
			<polyline fill="#0D0D0D" points="22.447,33.316 21.196,33.316 21.196,42.167 22.447,42.167 22.447,33.316 			"/>
			<polyline fill="#0D0D0D" points="19.207,33.316 17.956,33.316 17.956,42.167 19.207,42.167 19.207,33.316 			"/>
			<polyline fill="#0D0D0D" points="15.958,33.316 14.715,33.316 14.715,42.167 15.958,42.167 15.958,33.316 			"/>
			<polyline fill="#0D0D0D" points="12.717,33.316 11.476,33.316 11.476,42.167 12.717,42.167 12.717,33.316 			"/>
			<polyline fill="#0D0D0D" points="9.478,33.316 8.235,33.316 8.235,42.167 9.478,42.167 9.478,33.316 			"/>
			<polyline fill="#6F4813" points="20.835,33.316 20.592,33.316 20.592,40.777 19.836,40.777 19.836,33.316 19.593,33.316 
				19.593,40.777 20.835,40.777 20.835,33.316 			"/>
			<polyline fill="#6F4813" points="17.595,33.316 17.352,33.316 17.352,40.777 16.596,40.777 16.596,33.316 16.353,33.316 
				16.353,40.777 17.595,40.777 17.595,33.316 			"/>
			<polyline fill="#6F4813" points="14.355,33.316 14.112,33.316 14.112,40.777 13.356,40.777 13.356,33.316 13.113,33.316 
				13.113,40.777 14.355,40.777 14.355,33.316 			"/>
			<polyline fill="#6F4813" points="11.115,33.316 10.873,33.316 10.873,40.777 10.116,40.777 10.116,33.316 9.874,33.316 
				9.874,40.777 11.115,40.777 11.115,33.316 			"/>
			<polyline fill="#78592E" points="20.592,33.316 20.404,33.316 20.404,40.777 20.026,40.777 20.026,33.316 19.836,33.316 
				19.836,40.777 20.592,40.777 20.592,33.316 			"/>
			<polyline fill="#78592E" points="17.352,33.316 17.164,33.316 17.164,40.777 16.786,40.777 16.786,33.316 16.596,33.316 
				16.596,40.777 17.352,40.777 17.352,33.316 			"/>
			<polyline fill="#78592E" points="14.112,33.316 13.923,33.316 13.923,40.777 13.545,40.777 13.545,33.316 13.356,33.316 
				13.356,40.777 14.112,40.777 14.112,33.316 			"/>
			<polyline fill="#78592E" points="10.873,33.316 10.684,33.316 10.684,40.777 10.305,40.777 10.305,33.316 10.116,33.316 
				10.116,40.777 10.873,40.777 10.873,33.316 			"/>
			<polyline fill="#81694A" points="20.404,33.316 20.026,33.316 20.026,40.777 20.404,40.777 20.404,33.316 			"/>
			<polyline fill="#81694A" points="17.164,33.316 16.786,33.316 16.786,40.777 17.164,40.777 17.164,33.316 			"/>
			<polyline fill="#81694A" points="13.923,33.316 13.545,33.316 13.545,40.777 13.923,40.777 13.923,33.316 			"/>
			<polyline fill="#81694A" points="10.684,33.316 10.305,33.316 10.305,40.777 10.684,40.777 10.684,33.316 			"/>
		</g>
	</g>
</g>
<rect y="31.217" opacity="0.42" fill="#CCCCCC" enable-background="new    " width="30.754" height="0.839"/>
</svg>
