<?xml version="1.0" encoding="utf-8"?>
<!-- Generator: Adobe Illustrator 13.0.0, SVG Export Plug-In . SVG Version: 6.00 Build 14948)  -->
<!DOCTYPE svg PUBLIC "-//W3C//DTD SVG 1.1//EN" "http://www.w3.org/Graphics/SVG/1.1/DTD/svg11.dtd">
<svg version="1.1" id="Layer_1" xmlns="http://www.w3.org/2000/svg" xmlns:xlink="http://www.w3.org/1999/xlink" x="0px" y="0px"
	 width="32px" height="32px" viewBox="0 0 32 32" enable-background="new 0 0 32 32" xml:space="preserve">
<path id="path6" fill="#0F7391" d="M30.955,10.418V5.557L30.354,5H3.313v22.328h27.642v-0.76L32,25.493V11.411L30.955,10.418z
	 M9.767,6.64c-0.381,0-0.689-0.309-0.689-0.689c0-0.381,0.308-0.69,0.689-0.69c0.382,0,0.69,0.309,0.69,0.69
	C10.458,6.331,10.149,6.64,9.767,6.64z M30.994,11.911c0.244,0,0.443,0.198,0.443,0.442c0,0.246-0.199,0.443-0.443,0.443
	s-0.443-0.197-0.443-0.443C30.551,12.109,30.749,11.911,30.994,11.911z M31.068,24.721c-0.355,0-0.646-0.289-0.646-0.646
	c0-0.357,0.29-0.646,0.646-0.646c0.356,0,0.646,0.288,0.646,0.646C31.714,24.432,31.427,24.721,31.068,24.721z"/>
<path id="path8" fill="#02809E" d="M15.137,15.373c0-0.15-0.111-0.275-0.256-0.299v-0.006h-1.035c-0.167,0-0.303,0.137-0.303,0.304
	c0,0.168,0.135,0.304,0.303,0.304h1.035v-0.005C15.025,15.648,15.137,15.525,15.137,15.373z"/>
<path id="path10" fill="#02809E" d="M15.137,14.46c0-0.149-0.111-0.274-0.256-0.299v-0.005h-1.035c-0.167,0-0.303,0.137-0.303,0.303
	c0,0.168,0.135,0.305,0.303,0.305h1.035v-0.006C15.025,14.736,15.137,14.611,15.137,14.46z"/>
<path id="path12" fill="#02809E" d="M15.137,13.548c0-0.151-0.111-0.276-0.256-0.299v-0.005h-1.035
	c-0.167,0-0.303,0.136-0.303,0.304s0.135,0.304,0.303,0.304h1.035v-0.006C15.025,13.824,15.137,13.699,15.137,13.548z"/>
<path id="path14" fill="#02809E" d="M19.277,14.635c0-0.15-0.109-0.275-0.256-0.299v-0.005h-1.035c-0.166,0-0.303,0.136-0.303,0.304
	s0.137,0.305,0.303,0.305h1.035v-0.006C19.168,14.911,19.277,14.787,19.277,14.635z"/>
<path id="path16" fill="#02809E" d="M21.807,16.225c0-0.457-0.338-0.834-0.774-0.902v-0.014h-2.644c-0.506,0-0.916,0.41-0.916,0.916
	c0,0.508,0.41,0.918,0.916,0.918h2.644v-0.015C21.469,17.059,21.807,16.682,21.807,16.225z"/>
<path id="path18" fill="#02809E" d="M21.48,14.635c0-0.15-0.111-0.275-0.256-0.299v-0.005h-1.035c-0.168,0-0.303,0.136-0.303,0.304
	s0.135,0.305,0.303,0.305h1.035v-0.006C21.369,14.911,21.48,14.787,21.48,14.635z"/>
<path id="path20" fill="#02809E" d="M24.113,14.635c0-0.15-0.111-0.275-0.256-0.299v-0.005h-1.034c-0.169,0-0.304,0.136-0.304,0.304
	s0.135,0.305,0.304,0.305h1.034v-0.006C24.002,14.911,24.113,14.787,24.113,14.635z"/>
<path id="path22" fill="#02809E" d="M24.113,15.802c0-0.151-0.111-0.276-0.256-0.299v-0.004h-1.034
	c-0.169,0-0.304,0.136-0.304,0.304s0.135,0.303,0.304,0.303h1.034v-0.004C24.002,16.078,24.113,15.955,24.113,15.802z"/>
<path id="path24" fill="#02809E" d="M24.113,16.97c0-0.151-0.111-0.274-0.256-0.299v-0.005h-1.034c-0.169,0-0.304,0.136-0.304,0.304
	c0,0.169,0.135,0.304,0.304,0.304h1.034V17.27C24.002,17.246,24.113,17.121,24.113,16.97z"/>
<path id="path26" fill="#02809E" d="M26.299,15.152c0-0.15-0.111-0.275-0.256-0.299V14.85h-1.035c-0.167,0-0.305,0.137-0.305,0.305
	s0.138,0.304,0.305,0.304h1.035v-0.004C26.186,15.43,26.299,15.305,26.299,15.152z"/>
<path id="path28" fill="#02809E" d="M26.299,17.035c0-0.152-0.111-0.275-0.256-0.299V16.73h-1.035c-0.167,0-0.305,0.137-0.305,0.305
	s0.138,0.304,0.305,0.304h1.035v-0.006C26.186,17.312,26.299,17.188,26.299,17.035z"/>
<path id="path30" fill="#02809E" d="M26.867,15.152c0-0.15,0.111-0.275,0.257-0.299V14.85h1.034c0.168,0,0.303,0.137,0.303,0.305
	s-0.135,0.304-0.303,0.304h-1.034v-0.004C26.979,15.43,26.867,15.305,26.867,15.152z"/>
<path id="path32" fill="#02809E" d="M26.867,17.035c0-0.152,0.111-0.275,0.257-0.299V16.73h1.034c0.168,0,0.303,0.137,0.303,0.305
	s-0.135,0.304-0.303,0.304h-1.034v-0.006C26.979,17.312,26.867,17.188,26.867,17.035z"/>
<path id="path34" fill="#02809E" d="M15.137,17.199c0-0.15-0.111-0.275-0.256-0.299v-0.004h-1.035c-0.167,0-0.303,0.135-0.303,0.303
	s0.135,0.304,0.303,0.304h1.035v-0.006C15.025,17.477,15.137,17.352,15.137,17.199z"/>
<path id="path36" fill="#02809E" d="M15.137,8.982c0-0.151-0.111-0.275-0.256-0.299V8.679h-1.035c-0.167,0-0.303,0.136-0.303,0.304
	s0.135,0.304,0.303,0.304h1.035V9.281C15.025,9.258,15.137,9.134,15.137,8.982z"/>
<path id="path38" fill="#02809E" d="M10.088,8.304c0-0.152-0.111-0.276-0.256-0.299V8H8.797C8.629,8,8.494,8.136,8.494,8.304
	c0,0.168,0.136,0.304,0.304,0.304h1.035V8.603C9.977,8.58,10.088,8.455,10.088,8.304z"/>
<path id="path40" fill="#02809E" d="M12.016,8.304c0-0.152-0.112-0.276-0.257-0.299V8h-1.034c-0.168,0-0.304,0.136-0.304,0.304
	c0,0.168,0.136,0.304,0.304,0.304h1.034V8.603C11.904,8.58,12.016,8.455,12.016,8.304z"/>
<path id="path42" fill="#02809E" d="M15.137,10.808c0-0.151-0.111-0.275-0.256-0.298v-0.006h-1.035
	c-0.167,0-0.303,0.137-0.303,0.303c0,0.168,0.135,0.304,0.303,0.304h1.035v-0.003C15.025,11.084,15.137,10.96,15.137,10.808z"/>
<path id="path44" fill="#02809E" d="M11.519,20.184c0-0.149-0.111-0.274-0.257-0.299V19.88h-1.035c-0.167,0-0.303,0.138-0.303,0.304
	c0,0.17,0.136,0.306,0.303,0.306h1.035v-0.007C11.407,20.461,11.519,20.336,11.519,20.184z"/>
<path id="path46" fill="#02809E" d="M11.519,18.936c0-0.151-0.111-0.274-0.257-0.299v-0.006h-1.035
	c-0.167,0-0.303,0.137-0.303,0.305s0.136,0.304,0.303,0.304h1.035v-0.005C11.407,19.213,11.519,19.086,11.519,18.936z"/>
<path id="path48" fill="#02809E" d="M8.926,15.503c0.152,0,0.276-0.11,0.3-0.256H9.23v-0.731c0-0.166-0.137-0.303-0.304-0.303
	s-0.303,0.137-0.303,0.303v0.731h0.005C8.65,15.393,8.775,15.503,8.926,15.503z"/>
<path id="path50" fill="#02809E" d="M10.04,15.503c0.152,0,0.276-0.11,0.299-0.256h0.005v-0.731c0-0.166-0.136-0.303-0.304-0.303
	c-0.167,0-0.304,0.137-0.304,0.303v0.731h0.005C9.765,15.393,9.89,15.503,10.04,15.503z"/>
<path id="path52" fill="#02809E" d="M11.153,15.503c0.152,0,0.276-0.11,0.299-0.256h0.005v-0.731c0-0.166-0.136-0.303-0.304-0.303
	c-0.167,0-0.303,0.137-0.303,0.303v0.731h0.005C10.878,15.393,11.003,15.503,11.153,15.503z"/>
<path id="path54" fill="#02809E" d="M12.268,15.503c0.151,0,0.277-0.11,0.299-0.256h0.004v-0.731c0-0.166-0.135-0.303-0.303-0.303
	c-0.167,0-0.304,0.137-0.304,0.303v0.731h0.005C11.992,15.393,12.116,15.503,12.268,15.503z"/>
<path id="path56" fill="#02809E" d="M25.199,12.119c0,0.152,0.111,0.277,0.256,0.299v0.004h1.036c0.167,0,0.304-0.136,0.304-0.304
	s-0.137-0.304-0.304-0.304h-1.036v0.006C25.311,11.843,25.199,11.967,25.199,12.119z"/>
<path id="path58" fill="#02809E" d="M8.531,19.218c0-0.151-0.111-0.276-0.257-0.3v-0.004H7.239c-0.167,0-0.303,0.136-0.303,0.304
	c0,0.167,0.137,0.304,0.303,0.304h1.035v-0.006C8.419,19.492,8.531,19.368,8.531,19.218z"/>
<path id="path60" fill="#02809E" d="M8.531,20.204c0-0.151-0.111-0.274-0.257-0.3V19.9H7.239c-0.167,0-0.303,0.135-0.303,0.303
	c0,0.167,0.137,0.305,0.303,0.305h1.035v-0.004C8.419,20.48,8.531,20.355,8.531,20.204z"/>
<path id="path62" fill="#02809E" d="M8.531,21.191c0-0.152-0.111-0.275-0.257-0.299v-0.007H7.239c-0.167,0-0.303,0.138-0.303,0.306
	c0,0.166,0.137,0.303,0.303,0.303h1.035V21.49C8.419,21.469,8.531,21.343,8.531,21.191z"/>
<rect id="rect64" x="4.506" y="18.695" fill="#02809E" width="3.062" height="2.912"/>
<rect id="rect66" x="3.974" y="19.05" fill="#02809E" width="0.76" height="2.202"/>
<circle id="circle68" fill="#02809E" cx="11.283" cy="5.917" r="0.266"/>
<path id="path70" fill="#02809E" d="M11.283,5.246c-0.371,0-0.671,0.3-0.671,0.67c0,0.371,0.3,0.671,0.671,0.671
	c0.37,0,0.671-0.3,0.671-0.671C11.955,5.547,11.653,5.246,11.283,5.246z M11.283,6.518c-0.332,0-0.602-0.269-0.602-0.601
	s0.27-0.601,0.602-0.601s0.602,0.27,0.602,0.601C11.885,6.25,11.615,6.518,11.283,6.518z"/>
<circle id="circle72" fill="#02809E" cx="4.367" cy="26.327" r="0.266"/>
<path id="path74" fill="#02809E" d="M4.367,25.657c-0.37,0-0.669,0.3-0.669,0.669c0,0.371,0.3,0.672,0.669,0.672
	c0.371,0,0.671-0.301,0.671-0.672C5.038,25.957,4.738,25.657,4.367,25.657z M4.367,26.93c-0.331,0-0.601-0.271-0.601-0.604
	c0-0.33,0.27-0.6,0.601-0.6c0.333,0,0.603,0.27,0.603,0.6C4.969,26.659,4.699,26.93,4.367,26.93z"/>
<circle id="circle76" fill="#02809E" cx="29.715" cy="9.76" r="0.266"/>
<path id="path78" fill="#02809E" d="M29.715,9.089c-0.369,0-0.67,0.3-0.67,0.67c0,0.37,0.301,0.67,0.67,0.67
	c0.371,0,0.672-0.3,0.672-0.67C30.387,9.389,30.086,9.089,29.715,9.089z M29.715,10.361c-0.33,0-0.602-0.269-0.602-0.601
	s0.271-0.601,0.602-0.601c0.332,0,0.604,0.269,0.604,0.601C30.316,10.092,30.047,10.361,29.715,10.361z"/>
<circle id="circle80" fill="#02809E" cx="4.57" cy="8.747" r="0.645"/>
<circle id="circle82" fill="#02809E" cx="4.57" cy="13.988" r="0.646"/>
<rect id="rect84" x="8.265" y="10.046" fill="#02809E" width="4.304" height="2.431"/>
<rect id="rect86" x="9.257" y="21.604" fill="#02809E" width="2.645" height="1.203"/>
<rect id="rect88" x="9.393" y="16.663" fill="#02809E" width="2.437" height="1.41"/>
<rect id="rect90" x="15.264" y="18.955" fill="#02809E" width="14.607" height="3.24"/>
<circle id="circle92" fill="#02809E" cx="7.93" cy="23.993" r="0.854"/>
<path id="path94" fill="#02809E" d="M6.815,25.213c0.473,0,0.855,0.383,0.855,0.855c0,0.472-0.383,0.854-0.855,0.854
	c-0.471,0-0.853-0.382-0.853-0.854C5.962,25.596,6.344,25.213,6.815,25.213z"/>
<path id="path96" fill="#02809E" d="M12.603,25.747c0.065-0.167,0.103-0.351,0.103-0.539c0-0.829-0.671-1.501-1.5-1.501
	c-0.828,0-1.5,0.672-1.5,1.501c0,0.387,0.149,0.739,0.39,1.007L12.603,25.747z"/>
<path id="path98" fill="#02809E" d="M16.104,25.747c0.065-0.167,0.102-0.351,0.102-0.539c0-0.829-0.672-1.501-1.5-1.501
	c-0.829,0-1.5,0.672-1.5,1.501c0,0.387,0.149,0.739,0.391,1.007L16.104,25.747z"/>
<path id="path100" fill="#8D8C8C" d="M15.137,11.723c0-0.152-0.111-0.277-0.256-0.3v-0.006h-1.035c-0.167,0-0.303,0.138-0.303,0.304
	c0,0.168,0.135,0.305,0.303,0.305h1.035v-0.004C15.025,11.997,15.137,11.873,15.137,11.723z"/>
<rect id="rect102" x="14.075" y="11.475" fill="#FBBE0E" width="0.55" height="0.484"/>
<path id="path104" fill="#8D8C8C" d="M15.137,9.896c0-0.151-0.111-0.275-0.256-0.299V9.592h-1.035c-0.167,0-0.303,0.136-0.303,0.304
	s0.135,0.304,0.303,0.304h1.035v-0.006C15.025,10.171,15.137,10.047,15.137,9.896z"/>
<rect id="rect106" x="14.075" y="9.648" fill="#FBBE0E" width="0.55" height="0.485"/>
<path id="path108" fill="#8D8C8C" d="M28.734,12.119c0-0.152-0.111-0.275-0.256-0.299v-0.006h-1.037
	c-0.166,0-0.303,0.137-0.303,0.304c0,0.168,0.137,0.304,0.303,0.304h1.037v-0.004C28.623,12.395,28.734,12.27,28.734,12.119z"/>
<rect id="rect110" x="27.671" y="11.872" fill="#FBBE0E" width="0.552" height="0.483"/>
<path id="path112" fill="#8D8C8C" d="M15.137,12.634c0-0.151-0.111-0.274-0.256-0.299V12.33h-1.035
	c-0.167,0-0.303,0.137-0.303,0.303c0,0.168,0.135,0.305,0.303,0.305h1.035v-0.004C15.025,12.911,15.137,12.786,15.137,12.634z"/>
<rect id="rect114" x="14.075" y="12.389" fill="#FBBE0E" width="0.55" height="0.482"/>
<rect id="rect116" x="25.377" y="14.803" fill="#8D8C8C" width="2.506" height="2.563"/>
<path id="path118" fill="#404040" d="M27.827,15.164c0,0.126-0.103,0.229-0.228,0.229c-0.129,0-0.229-0.102-0.229-0.229
	c0-0.125,0.101-0.229,0.229-0.229C27.725,14.936,27.827,15.039,27.827,15.164z"/>
<path id="path120" fill="#404040" d="M25.908,15.164c0,0.126-0.102,0.229-0.229,0.229c-0.125,0-0.229-0.102-0.229-0.229
	c0-0.125,0.104-0.229,0.229-0.229C25.807,14.936,25.908,15.039,25.908,15.164z"/>
<circle id="circle122" fill="#404040" cx="25.68" cy="17.082" r="0.229"/>
<circle id="circle124" fill="#404040" cx="27.6" cy="17.082" r="0.229"/>
<circle id="circle126" fill="#404040" cx="26.584" cy="16.085" r="0.74"/>
<polygon id="polygon128" fill="#404040" points="31.427,14.016 30.834,14.016 30.33,14.016 29.736,14.016 29.51,14.245 
	29.51,14.838 29.736,15.064 30.33,15.064 30.834,15.064 31.427,15.064 31.654,14.838 31.654,14.245 "/>
<polygon id="polygon130" fill="#404040" points="31.427,15.1 30.834,15.1 30.33,15.1 29.736,15.1 29.51,15.328 29.51,15.921 
	29.736,16.148 30.33,16.148 30.834,16.148 31.427,16.148 31.654,15.921 31.654,15.328 "/>
<polygon id="polygon132" fill="#404040" points="31.427,16.184 30.834,16.184 30.33,16.184 29.736,16.184 29.51,16.411 
	29.51,17.004 29.736,17.23 30.33,17.23 30.834,17.23 31.427,17.23 31.654,17.004 31.654,16.411 "/>
<polygon id="polygon134" fill="#404040" points="31.427,14.016 30.834,14.016 30.33,14.016 29.736,14.016 29.51,14.245 
	29.51,14.838 29.736,15.064 30.33,15.064 30.834,15.064 31.427,15.064 31.654,14.838 31.654,14.245 "/>
<polygon id="polygon136" fill="#404040" points="31.427,15.1 30.834,15.1 30.33,15.1 29.736,15.1 29.51,15.328 29.51,15.921 
	29.736,16.148 30.33,16.148 30.834,16.148 31.427,16.148 31.654,15.921 31.654,15.328 "/>
<polygon id="polygon138" fill="#404040" points="31.427,16.184 30.834,16.184 30.33,16.184 29.736,16.184 29.51,16.411 
	29.51,17.004 29.736,17.23 30.33,17.23 30.834,17.23 31.427,17.23 31.654,17.004 31.654,16.411 "/>
<rect id="rect140" x="29.872" y="16.514" fill="#8D8C8C" width="0.347" height="0.346"/>
<rect id="rect142" x="30.957" y="16.514" fill="#8D8C8C" width="0.348" height="0.346"/>
<rect id="rect144" x="29.872" y="15.428" fill="#8D8C8C" width="0.347" height="0.348"/>
<rect id="rect146" x="30.957" y="15.428" fill="#8D8C8C" width="0.348" height="0.348"/>
<rect id="rect148" x="29.872" y="14.342" fill="#8D8C8C" width="0.347" height="0.348"/>
<rect id="rect150" x="30.957" y="14.342" fill="#8D8455" width="0.348" height="0.348"/>
<polygon id="polygon152" fill="#404040" points="5.369,15.077 4.775,15.077 5.369,15.077 4.775,15.077 4.548,15.305 4.548,15.898 
	4.775,16.125 5.369,16.125 4.775,16.125 5.369,16.125 5.597,15.898 5.597,15.305 "/>
<rect id="rect154" x="31.041" y="14.426" fill="#8C8663" width="0.18" height="0.178"/>
<polygon id="polygon156" fill="#B8AF82" points="30.957,14.342 31.041,14.426 31.221,14.426 31.305,14.342 "/>
<polygon id="polygon158" fill="#80795B" points="31.221,14.604 31.221,14.426 31.305,14.342 31.305,14.689 "/>
<polygon id="polygon160" fill="#5E5B43" points="31.041,14.604 31.221,14.604 31.305,14.689 30.957,14.689 "/>
<polygon id="polygon162" fill="#9A916C" points="30.957,14.342 31.041,14.426 31.041,14.604 30.957,14.689 "/>
<rect id="rect164" x="29.957" y="14.426" fill="#8C8663" width="0.178" height="0.178"/>
<polygon id="polygon166" fill="#B8AF82" points="29.872,14.342 29.957,14.426 30.135,14.426 30.219,14.342 "/>
<polygon id="polygon168" fill="#80795B" points="30.135,14.604 30.135,14.426 30.219,14.342 30.219,14.689 "/>
<polygon id="polygon170" fill="#5E5B43" points="29.957,14.604 30.135,14.604 30.219,14.689 29.872,14.689 "/>
<polygon id="polygon172" fill="#9A916C" points="29.872,14.342 29.957,14.426 29.957,14.604 29.872,14.689 "/>
<rect id="rect174" x="31.041" y="15.512" fill="#8C8663" width="0.18" height="0.178"/>
<polygon id="polygon176" fill="#B8AF82" points="30.957,15.428 31.041,15.512 31.221,15.512 31.305,15.428 "/>
<polygon id="polygon178" fill="#80795B" points="31.221,15.691 31.221,15.512 31.305,15.428 31.305,15.775 "/>
<polygon id="polygon180" fill="#5E5B43" points="31.041,15.691 31.221,15.691 31.305,15.775 30.957,15.775 "/>
<polygon id="polygon182" fill="#9A916C" points="30.957,15.428 31.041,15.512 31.041,15.691 30.957,15.775 "/>
<rect id="rect184" x="29.957" y="15.512" fill="#8C8663" width="0.178" height="0.178"/>
<polygon id="polygon186" fill="#B8AF82" points="29.872,15.428 29.957,15.512 30.135,15.512 30.219,15.428 "/>
<polygon id="polygon188" fill="#80795B" points="30.135,15.691 30.135,15.512 30.219,15.428 30.219,15.775 "/>
<polygon id="polygon190" fill="#5E5B43" points="29.957,15.691 30.135,15.691 30.219,15.775 29.872,15.775 "/>
<polygon id="polygon192" fill="#9A916C" points="29.872,15.428 29.957,15.512 29.957,15.691 29.872,15.775 "/>
<rect id="rect194" x="31.041" y="16.598" fill="#8C8663" width="0.18" height="0.178"/>
<polygon id="polygon196" fill="#B8AF82" points="30.957,16.514 31.041,16.598 31.221,16.598 31.305,16.514 "/>
<polygon id="polygon198" fill="#80795B" points="31.221,16.775 31.221,16.598 31.305,16.514 31.305,16.861 "/>
<polygon id="polygon200" fill="#5E5B43" points="31.041,16.775 31.221,16.775 31.305,16.861 30.957,16.861 "/>
<polygon id="polygon202" fill="#9A916C" points="30.957,16.514 31.041,16.598 31.041,16.775 30.957,16.861 "/>
<rect id="rect204" x="29.957" y="16.598" fill="#8C8663" width="0.178" height="0.178"/>
<polygon id="polygon206" fill="#B8AF82" points="29.872,16.514 29.957,16.598 30.135,16.598 30.219,16.514 "/>
<polygon id="polygon208" fill="#80795B" points="30.135,16.775 30.135,16.598 30.219,16.514 30.219,16.861 "/>
<polygon id="polygon210" fill="#5E5B43" points="29.957,16.775 30.135,16.775 30.219,16.861 29.872,16.861 "/>
<polygon id="polygon212" fill="#9A916C" points="29.872,16.514 29.957,16.598 29.957,16.775 29.872,16.861 "/>
<rect id="rect214" x="4.983" y="15.512" fill="#8C8663" width="0.178" height="0.178"/>
<polygon id="polygon216" fill="#B8AF82" points="4.899,15.428 4.983,15.512 5.162,15.512 5.247,15.428 "/>
<polygon id="polygon218" fill="#80795B" points="5.162,15.691 5.162,15.512 5.247,15.428 5.247,15.775 "/>
<polygon id="polygon220" fill="#5E5B43" points="4.983,15.691 5.162,15.691 5.247,15.775 4.899,15.775 "/>
<polygon id="polygon222" fill="#9A916C" points="4.899,15.428 4.983,15.512 4.983,15.691 4.899,15.775 "/>
<polygon id="polygon224" fill="#404040" points="5.369,16.163 4.776,16.163 5.369,16.163 4.776,16.163 4.548,16.391 4.548,16.984 
	4.776,17.211 5.369,17.211 4.776,17.211 5.369,17.211 5.597,16.984 5.597,16.391 "/>
<rect id="rect226" x="4.983" y="16.598" fill="#8C8663" width="0.178" height="0.178"/>
<polygon id="polygon228" fill="#B8AF82" points="4.899,16.514 4.983,16.598 5.162,16.598 5.247,16.514 "/>
<polygon id="polygon230" fill="#80795B" points="5.162,16.775 5.162,16.598 5.247,16.514 5.247,16.861 "/>
<polygon id="polygon232" fill="#5E5B43" points="4.983,16.775 5.162,16.775 5.247,16.861 4.899,16.861 "/>
<polygon id="polygon234" fill="#9A916C" points="4.899,16.514 4.983,16.598 4.983,16.775 4.899,16.861 "/>
<polygon id="polygon236" fill="#404040" points="5.369,17.248 4.775,17.248 5.369,17.248 4.775,17.248 4.548,17.477 4.548,18.068 
	4.775,18.297 5.369,18.297 4.775,18.297 5.369,18.297 5.597,18.068 5.597,17.477 "/>
<rect id="rect238" x="4.983" y="17.684" fill="#8C8663" width="0.178" height="0.181"/>
<polygon id="polygon240" fill="#B8AF82" points="4.899,17.6 4.983,17.684 5.162,17.684 5.247,17.6 "/>
<polygon id="polygon242" fill="#80795B" points="5.162,17.861 5.162,17.684 5.247,17.6 5.247,17.945 "/>
<polygon id="polygon244" fill="#5E5B43" points="4.983,17.861 5.162,17.861 5.247,17.945 4.899,17.945 "/>
<polygon id="polygon246" fill="#9A916C" points="4.899,17.6 4.983,17.684 4.983,17.861 4.899,17.945 "/>
<path id="path248" d="M4.899,15.428v0.348h0.347v-0.348H4.899z M5.201,15.729H4.944v-0.256H5.2L5.201,15.729L5.201,15.729z"/>
<path id="path250" d="M4.899,16.514v0.346h0.347v-0.346H4.899z M5.201,16.814H4.944v-0.256H5.2L5.201,16.814L5.201,16.814z"/>
<path id="path252" d="M4.548,15.077v2.134h1.048v-2.134H4.548z M5.247,16.861H4.899v-0.348h0.347L5.247,16.861L5.247,16.861z
	 M5.247,15.775H4.899v-0.348h0.347L5.247,15.775L5.247,15.775z"/>
<rect id="rect256" x="4.944" y="15.775" fill="#4D4726" width="0.256" height="0.082"/>
<rect id="rect258" x="4.944" y="16.432" fill="#4D4726" width="0.256" height="0.082"/>
<polygon id="polygon260" fill="#262626" points="4.548,15.077 4.548,15.855 4.792,15.855 4.792,15.367 5.354,15.367 5.354,15.855 
	5.597,15.855 5.597,15.077 "/>
<polygon id="polygon262" fill="#262626" points="5.598,17.211 5.598,16.432 5.354,16.432 5.354,16.921 4.792,16.921 4.792,16.432 
	4.549,16.432 4.549,17.211 "/>
<text id="text280" transform="matrix(1 0 0 1 17.1289 13.5098)" fill="#CCCCCC" font-family="OCRA" font-size="1.3133">Diecimila</text>
<text id="text282" transform="matrix(1 0 0 1 17.5098 11.9609)" fill="#CCCCCC" font-family="OCRA" font-size="1.3133">Arduino</text>
<rect id="rect390" y="8.83" fill="#676666" width="5.72" height="5.113"/>
<rect id="rect392" x="5.72" y="8.83" fill="#676666" width="1.215" height="5.113"/>
<rect id="rect394" x="2.279" y="22.416" width="5.619" height="3.594"/>
<rect id="rect396" x="2.228" y="22.215" width="1.164" height="3.947"/>
<rect id="rect398" x="12.132" y="5.288" fill="#404040" width="1.083" height="1.083"/>
<rect id="rect400" x="12.464" y="5.62" width="0.417" height="0.418"/>
<polygon id="polygon402" fill="#2A2A29" points="12.31,5.466 12.464,5.62 12.883,5.62 13.036,5.466 "/>
<polygon id="polygon404" fill="#474747" points="13.036,5.466 12.883,5.621 12.883,6.039 13.036,6.193 "/>
<polygon id="polygon406" fill="#595959" points="13.036,6.193 12.883,6.039 12.464,6.039 12.31,6.193 "/>
<polygon id="polygon408" fill="#373737" points="12.31,6.193 12.464,6.039 12.464,5.62 12.31,5.466 "/>
<rect id="rect410" x="13.215" y="5.288" fill="#404040" width="1.082" height="1.083"/>
<rect id="rect412" x="13.546" y="5.62" width="0.418" height="0.418"/>
<polygon id="polygon414" fill="#2A2A29" points="13.393,5.466 13.546,5.62 13.965,5.62 14.119,5.466 "/>
<polygon id="polygon416" fill="#474747" points="14.119,5.466 13.965,5.621 13.965,6.039 14.119,6.193 "/>
<polygon id="polygon418" fill="#595959" points="14.119,6.193 13.965,6.039 13.546,6.039 13.393,6.193 "/>
<polygon id="polygon420" fill="#373737" points="13.393,6.193 13.546,6.039 13.546,5.62 13.393,5.466 "/>
<rect id="rect422" x="14.297" y="5.288" fill="#404040" width="1.083" height="1.083"/>
<rect id="rect424" x="14.629" y="5.62" width="0.418" height="0.418"/>
<polygon id="polygon426" fill="#2A2A29" points="14.475,5.466 14.628,5.62 15.048,5.62 15.202,5.466 "/>
<polygon id="polygon428" fill="#474747" points="15.202,5.466 15.048,5.621 15.048,6.039 15.202,6.193 "/>
<polygon id="polygon430" fill="#595959" points="15.202,6.193 15.048,6.039 14.628,6.039 14.475,6.193 "/>
<polygon id="polygon432" fill="#373737" points="14.475,6.193 14.628,6.039 14.628,5.62 14.475,5.466 "/>
<rect id="rect434" x="15.38" y="5.288" fill="#404040" width="1.082" height="1.083"/>
<rect id="rect436" x="15.711" y="5.62" width="0.419" height="0.418"/>
<polygon id="polygon438" fill="#2A2A29" points="15.558,5.466 15.711,5.62 16.13,5.62 16.284,5.466 "/>
<polygon id="polygon440" fill="#474747" points="16.284,5.466 16.13,5.621 16.13,6.039 16.284,6.193 "/>
<polygon id="polygon442" fill="#595959" points="16.284,6.193 16.13,6.039 15.711,6.039 15.558,6.193 "/>
<polygon id="polygon444" fill="#373737" points="15.558,6.193 15.711,6.039 15.711,5.62 15.558,5.466 "/>
<rect id="rect446" x="18.646" y="25.918" fill="#404040" width="1.082" height="1.083"/>
<rect id="rect448" x="18.979" y="26.251" width="0.418" height="0.417"/>
<polygon id="polygon450" fill="#2A2A29" points="18.824,26.096 18.979,26.251 19.396,26.251 19.551,26.096 "/>
<polygon id="polygon452" fill="#474747" points="19.551,26.096 19.396,26.251 19.396,26.668 19.551,26.822 "/>
<polygon id="polygon454" fill="#595959" points="19.551,26.822 19.396,26.668 18.979,26.668 18.824,26.822 "/>
<polygon id="polygon456" fill="#373737" points="18.824,26.822 18.979,26.668 18.979,26.251 18.824,26.096 "/>
<rect id="rect458" x="17.561" y="25.918" fill="#404040" width="1.082" height="1.083"/>
<rect id="rect460" x="17.893" y="26.251" width="0.418" height="0.417"/>
<polygon id="polygon462" fill="#2A2A29" points="17.738,26.096 17.893,26.251 18.311,26.251 18.465,26.096 "/>
<polygon id="polygon464" fill="#474747" points="18.466,26.096 18.311,26.251 18.311,26.668 18.466,26.822 "/>
<polygon id="polygon466" fill="#595959" points="18.465,26.822 18.311,26.668 17.893,26.668 17.738,26.822 "/>
<polygon id="polygon468" fill="#373737" points="17.738,26.822 17.893,26.668 17.893,26.251 17.738,26.096 "/>
<rect id="rect470" x="16.475" y="25.918" fill="#404040" width="1.083" height="1.083"/>
<rect id="rect472" x="16.807" y="26.251" width="0.418" height="0.417"/>
<polygon id="polygon474" fill="#2A2A29" points="16.652,26.096 16.807,26.251 17.225,26.251 17.38,26.096 "/>
<polygon id="polygon476" fill="#474747" points="17.38,26.096 17.225,26.251 17.225,26.668 17.38,26.822 "/>
<polygon id="polygon478" fill="#595959" points="17.38,26.822 17.225,26.668 16.807,26.668 16.652,26.822 "/>
<polygon id="polygon480" fill="#373737" points="16.652,26.822 16.807,26.668 16.807,26.251 16.652,26.096 "/>
<rect id="rect482" x="19.729" y="25.918" fill="#404040" width="1.084" height="1.083"/>
<rect id="rect484" x="20.061" y="26.251" width="0.42" height="0.417"/>
<polygon id="polygon486" fill="#2A2A29" points="19.906,26.096 20.061,26.251 20.479,26.251 20.633,26.096 "/>
<polygon id="polygon488" fill="#474747" points="20.633,26.096 20.479,26.251 20.479,26.668 20.633,26.822 "/>
<polygon id="polygon490" fill="#595959" points="20.633,26.822 20.479,26.668 20.061,26.668 19.906,26.822 "/>
<polygon id="polygon492" fill="#373737" points="19.906,26.822 20.061,26.668 20.061,26.251 19.906,26.096 "/>
<rect id="rect494" x="20.812" y="25.918" fill="#404040" width="1.082" height="1.083"/>
<rect id="rect496" x="21.145" y="26.251" width="0.418" height="0.417"/>
<polygon id="polygon498" fill="#2A2A29" points="20.988,26.096 21.145,26.251 21.562,26.251 21.715,26.096 "/>
<polygon id="polygon500" fill="#474747" points="21.715,26.096 21.562,26.251 21.562,26.668 21.715,26.822 "/>
<polygon id="polygon502" fill="#595959" points="21.715,26.822 21.562,26.668 21.145,26.668 20.988,26.822 "/>
<polygon id="polygon504" fill="#373737" points="20.988,26.822 21.145,26.668 21.145,26.251 20.988,26.096 "/>
<rect id="rect506" x="21.895" y="25.918" fill="#404040" width="1.082" height="1.083"/>
<rect id="rect508" x="22.229" y="26.251" width="0.416" height="0.417"/>
<polygon id="polygon510" fill="#2A2A29" points="22.072,26.096 22.229,26.251 22.645,26.251 22.798,26.096 "/>
<polygon id="polygon512" fill="#474747" points="22.798,26.096 22.645,26.251 22.645,26.668 22.798,26.822 "/>
<polygon id="polygon514" fill="#595959" points="22.798,26.822 22.645,26.668 22.229,26.668 22.072,26.822 "/>
<polygon id="polygon516" fill="#373737" points="22.072,26.822 22.229,26.668 22.229,26.251 22.072,26.096 "/>
<rect id="rect518" x="24.076" y="25.918" fill="#404040" width="1.082" height="1.083"/>
<rect id="rect520" x="24.407" y="26.251" width="0.419" height="0.417"/>
<polygon id="polygon522" fill="#2A2A29" points="24.254,26.096 24.407,26.251 24.826,26.251 24.98,26.096 "/>
<polygon id="polygon524" fill="#474747" points="24.98,26.096 24.826,26.251 24.826,26.668 24.98,26.822 "/>
<polygon id="polygon526" fill="#595959" points="24.98,26.822 24.826,26.668 24.407,26.668 24.254,26.822 "/>
<polygon id="polygon528" fill="#373737" points="24.254,26.822 24.407,26.668 24.407,26.251 24.254,26.096 "/>
<rect id="rect530" x="25.158" y="25.918" fill="#404040" width="1.082" height="1.083"/>
<rect id="rect532" x="25.491" y="26.251" width="0.417" height="0.417"/>
<polygon id="polygon534" fill="#2A2A29" points="25.336,26.096 25.491,26.251 25.908,26.251 26.062,26.096 "/>
<polygon id="polygon536" fill="#474747" points="26.062,26.096 25.908,26.251 25.908,26.668 26.062,26.822 "/>
<polygon id="polygon538" fill="#595959" points="26.062,26.822 25.908,26.668 25.49,26.668 25.336,26.822 "/>
<polygon id="polygon540" fill="#373737" points="25.334,26.822 25.49,26.668 25.49,26.251 25.334,26.096 "/>
<rect id="rect542" x="26.24" y="25.918" fill="#404040" width="1.084" height="1.083"/>
<rect id="rect544" x="26.574" y="26.251" width="0.416" height="0.417"/>
<polygon id="polygon546" fill="#2A2A29" points="26.417,26.096 26.572,26.251 26.99,26.251 27.145,26.096 "/>
<polygon id="polygon548" fill="#474747" points="27.145,26.096 26.99,26.251 26.99,26.668 27.145,26.822 "/>
<polygon id="polygon550" fill="#595959" points="27.145,26.822 26.99,26.668 26.572,26.668 26.417,26.822 "/>
<polygon id="polygon552" fill="#373737" points="26.417,26.822 26.572,26.668 26.572,26.251 26.417,26.096 "/>
<rect id="rect554" x="27.324" y="25.918" fill="#404040" width="1.08" height="1.083"/>
<rect id="rect556" x="27.656" y="26.251" width="0.416" height="0.417"/>
<polygon id="polygon558" fill="#2A2A29" points="27.5,26.096 27.654,26.251 28.072,26.251 28.229,26.096 "/>
<polygon id="polygon560" fill="#474747" points="28.229,26.096 28.072,26.251 28.072,26.668 28.229,26.822 "/>
<polygon id="polygon562" fill="#595959" points="28.229,26.822 28.072,26.668 27.654,26.668 27.5,26.822 "/>
<polygon id="polygon564" fill="#373737" points="27.5,26.822 27.654,26.668 27.654,26.251 27.5,26.096 "/>
<rect id="rect566" x="28.404" y="25.918" fill="#404040" width="1.084" height="1.083"/>
<rect id="rect568" x="28.738" y="26.251" width="0.416" height="0.417"/>
<polygon id="polygon570" fill="#2A2A29" points="28.584,26.096 28.738,26.251 29.154,26.251 29.311,26.096 "/>
<polygon id="polygon572" fill="#474747" points="29.311,26.096 29.154,26.251 29.154,26.668 29.311,26.822 "/>
<polygon id="polygon574" fill="#595959" points="29.311,26.822 29.154,26.668 28.738,26.668 28.584,26.822 "/>
<polygon id="polygon576" fill="#373737" points="28.584,26.822 28.738,26.668 28.738,26.251 28.584,26.096 "/>
<rect id="rect578" x="29.488" y="25.918" fill="#404040" width="1.082" height="1.083"/>
<rect id="rect580" x="29.82" y="26.251" width="0.418" height="0.417"/>
<polygon id="polygon582" fill="#2A2A29" points="29.665,26.096 29.82,26.251 30.238,26.251 30.393,26.096 "/>
<polygon id="polygon584" fill="#474747" points="30.393,26.096 30.238,26.251 30.238,26.668 30.393,26.822 "/>
<polygon id="polygon586" fill="#595959" points="30.393,26.822 30.238,26.668 29.82,26.668 29.665,26.822 "/>
<polygon id="polygon588" fill="#373737" points="29.665,26.822 29.82,26.668 29.82,26.251 29.665,26.096 "/>
<rect id="rect590" x="16.462" y="5.288" fill="#404040" width="1.083" height="1.083"/>
<rect id="rect592" x="16.795" y="5.62" width="0.418" height="0.418"/>
<polygon id="polygon594" fill="#2A2A29" points="16.641,5.466 16.795,5.62 17.213,5.62 17.366,5.466 "/>
<polygon id="polygon596" fill="#474747" points="17.366,5.466 17.213,5.621 17.213,6.039 17.366,6.193 "/>
<polygon id="polygon598" fill="#595959" points="17.366,6.193 17.213,6.039 16.795,6.039 16.641,6.193 "/>
<polygon id="polygon600" fill="#373737" points="16.641,6.193 16.795,6.039 16.795,5.62 16.641,5.466 "/>
<rect id="rect602" x="17.545" y="5.288" fill="#404040" width="1.082" height="1.083"/>
<rect id="rect604" x="17.877" y="5.62" width="0.418" height="0.418"/>
<polygon id="polygon606" fill="#2A2A29" points="17.723,5.466 17.877,5.62 18.296,5.62 18.449,5.466 "/>
<polygon id="polygon608" fill="#474747" points="18.449,5.466 18.296,5.621 18.296,6.039 18.449,6.193 "/>
<polygon id="polygon610" fill="#595959" points="18.449,6.193 18.295,6.039 17.876,6.039 17.723,6.193 "/>
<polygon id="polygon612" fill="#373737" points="17.723,6.193 17.876,6.039 17.876,5.62 17.723,5.466 "/>
<rect id="rect614" x="18.627" y="5.288" fill="#404040" width="1.083" height="1.083"/>
<rect id="rect616" x="18.959" y="5.62" width="0.418" height="0.418"/>
<polygon id="polygon618" fill="#2A2A29" points="18.805,5.466 18.959,5.62 19.379,5.62 19.531,5.466 "/>
<polygon id="polygon620" fill="#474747" points="19.531,5.466 19.379,5.621 19.379,6.039 19.531,6.193 "/>
<polygon id="polygon622" fill="#595959" points="19.531,6.193 19.378,6.039 18.959,6.039 18.805,6.193 "/>
<polygon id="polygon624" fill="#373737" points="18.805,6.193 18.959,6.039 18.959,5.62 18.805,5.466 "/>
<rect id="rect626" x="19.709" y="5.288" fill="#404040" width="1.083" height="1.083"/>
<rect id="rect628" x="20.041" y="5.62" width="0.419" height="0.418"/>
<polygon id="polygon630" fill="#2A2A29" points="19.889,5.466 20.041,5.62 20.461,5.62 20.613,5.466 "/>
<polygon id="polygon632" fill="#474747" points="20.613,5.466 20.461,5.621 20.461,6.039 20.613,6.193 "/>
<polygon id="polygon634" fill="#595959" points="20.613,6.193 20.461,6.039 20.041,6.039 19.889,6.193 "/>
<polygon id="polygon636" fill="#373737" points="19.889,6.193 20.041,6.039 20.041,5.62 19.889,5.466 "/>
<rect id="rect638" x="21.904" y="5.288" fill="#404040" width="1.082" height="1.083"/>
<rect id="rect640" x="22.236" y="5.62" width="0.418" height="0.418"/>
<polygon id="polygon642" fill="#2A2A29" points="22.082,5.466 22.234,5.62 22.654,5.62 22.809,5.466 "/>
<polygon id="polygon644" fill="#474747" points="22.809,5.466 22.654,5.621 22.654,6.039 22.809,6.193 "/>
<polygon id="polygon646" fill="#595959" points="22.809,6.193 22.654,6.039 22.234,6.039 22.082,6.193 "/>
<polygon id="polygon648" fill="#373737" points="22.082,6.193 22.234,6.039 22.234,5.62 22.082,5.466 "/>
<rect id="rect650" x="22.986" y="5.288" fill="#404040" width="1.082" height="1.083"/>
<rect id="rect652" x="23.318" y="5.62" width="0.418" height="0.418"/>
<polygon id="polygon654" fill="#2A2A29" points="23.164,5.466 23.318,5.62 23.736,5.62 23.891,5.466 "/>
<polygon id="polygon656" fill="#474747" points="23.893,5.466 23.736,5.621 23.736,6.039 23.893,6.193 "/>
<polygon id="polygon658" fill="#595959" points="23.891,6.193 23.736,6.039 23.316,6.039 23.164,6.193 "/>
<polygon id="polygon660" fill="#373737" points="23.164,6.193 23.316,6.039 23.316,5.62 23.164,5.466 "/>
<rect id="rect662" x="24.068" y="5.288" fill="#404040" width="1.082" height="1.083"/>
<rect id="rect664" x="24.4" y="5.62" width="0.418" height="0.418"/>
<polygon id="polygon666" fill="#2A2A29" points="24.247,5.466 24.4,5.62 24.818,5.62 24.973,5.466 "/>
<polygon id="polygon668" fill="#474747" points="24.973,5.466 24.818,5.621 24.818,6.039 24.973,6.193 "/>
<polygon id="polygon670" fill="#595959" points="24.973,6.193 24.818,6.039 24.4,6.039 24.247,6.193 "/>
<polygon id="polygon672" fill="#373737" points="24.247,6.193 24.4,6.039 24.4,5.62 24.247,5.466 "/>
<rect id="rect674" x="25.15" y="5.288" fill="#404040" width="1.082" height="1.083"/>
<rect id="rect676" x="25.484" y="5.62" width="0.418" height="0.418"/>
<polygon id="polygon678" fill="#2A2A29" points="25.33,5.466 25.482,5.62 25.902,5.62 26.057,5.466 "/>
<polygon id="polygon680" fill="#474747" points="26.057,5.466 25.902,5.621 25.902,6.039 26.057,6.193 "/>
<polygon id="polygon682" fill="#595959" points="26.057,6.193 25.902,6.039 25.482,6.039 25.33,6.193 "/>
<polygon id="polygon684" fill="#373737" points="25.33,6.193 25.482,6.039 25.482,5.62 25.33,5.466 "/>
<rect id="rect686" x="26.232" y="5.288" fill="#404040" width="1.084" height="1.083"/>
<rect id="rect688" x="26.564" y="5.62" width="0.42" height="0.418"/>
<polygon id="polygon690" fill="#2A2A29" points="26.412,5.466 26.564,5.62 26.984,5.62 27.139,5.466 "/>
<polygon id="polygon692" fill="#474747" points="27.139,5.466 26.984,5.621 26.984,6.039 27.139,6.193 "/>
<polygon id="polygon694" fill="#595959" points="27.139,6.193 26.984,6.039 26.564,6.039 26.412,6.193 "/>
<polygon id="polygon696" fill="#373737" points="26.412,6.193 26.564,6.039 26.564,5.62 26.412,5.466 "/>
<rect id="rect698" x="27.316" y="5.288" fill="#404040" width="1.082" height="1.083"/>
<rect id="rect700" x="27.648" y="5.62" width="0.418" height="0.418"/>
<polygon id="polygon702" fill="#2A2A29" points="27.495,5.466 27.648,5.62 28.066,5.62 28.221,5.466 "/>
<polygon id="polygon704" fill="#474747" points="28.221,5.466 28.066,5.621 28.066,6.039 28.221,6.193 "/>
<polygon id="polygon706" fill="#595959" points="28.221,6.193 28.066,6.039 27.648,6.039 27.495,6.193 "/>
<polygon id="polygon708" fill="#373737" points="27.495,6.193 27.648,6.039 27.648,5.62 27.495,5.466 "/>
<rect id="rect710" x="28.398" y="5.288" fill="#404040" width="1.084" height="1.083"/>
<rect id="rect712" x="28.732" y="5.62" width="0.418" height="0.418"/>
<polygon id="polygon714" fill="#2A2A29" points="28.578,5.466 28.732,5.62 29.15,5.62 29.305,5.466 "/>
<polygon id="polygon716" fill="#474747" points="29.305,5.466 29.15,5.621 29.15,6.039 29.305,6.193 "/>
<polygon id="polygon718" fill="#595959" points="29.305,6.193 29.15,6.039 28.73,6.039 28.578,6.193 "/>
<polygon id="polygon720" fill="#373737" points="28.576,6.193 28.73,6.039 28.73,5.62 28.576,5.466 "/>
<rect id="rect722" x="29.482" y="5.288" fill="#404040" width="1.082" height="1.083"/>
<rect id="rect724" x="29.814" y="5.62" width="0.418" height="0.418"/>
<polygon id="polygon726" fill="#2A2A29" points="29.66,5.466 29.812,5.62 30.232,5.62 30.387,5.466 "/>
<polygon id="polygon728" fill="#474747" points="30.387,5.466 30.232,5.621 30.232,6.039 30.387,6.193 "/>
<polygon id="polygon730" fill="#595959" points="30.387,6.193 30.232,6.039 29.812,6.039 29.66,6.193 "/>
<polygon id="polygon732" fill="#373737" points="29.66,6.193 29.812,6.039 29.812,5.62 29.66,5.466 "/>
</svg>
