<?xml version="1.0" encoding="UTF-8" standalone="no"?>
<svg
   version="1.0"
   baseProfile="tiny"
   x="0px"
   y="0px"
   width="32"
   height="32"
   xml:space="preserve"
   id="svg2">
<g
   id="icon"
   transform="matrix(0.7456253,0,0,0.7456,0,12.294)">  <!-- needed an id so fritzing could extract the element for either icon or breadboard view -->
<g
   id="breadboard"
   style="display:inline">
<rect
   y="3.5899999"
   width="2.5"
   height="2.9100001"
   id="connector0pin"
   x="0"
   style="fill:#868584" />
<rect
   x="40.417"
   y="3.5899999"
   width="2.5"
   height="2.9100001"
   id="connector1pin"
   style="fill:#868584" />
<rect
   y="3.5899999"
   width="42.917"
   height="2.9100001"
   id="rect8"
   x="0"
   style="fill:#868584" />
<path
   id="Body_1_"
   d="M 15.347,0.414 C 14.847,0.186 13.987,0 13.437,0 L 10.437,0 C 9.437,0 8.437,1 8.437,2 L 8.437,8 C 8.437,9 9.437,10 10.437,10 L 13.437,10 C 13.987,10 14.846,9.813 15.347,9.586 L 15.45,9.539 C 15.951,9.311 16.81,9.125 17.36,9.125 L 25.515,9.125 C 26.064,9.125 26.923,9.312 27.425,9.539 L 27.529,9.586 C 28.029,9.814 28.888,10 29.439,10 L 32.439,10 C 33.439,10 34.439,9 34.439,8 L 34.439,2 C 34.439,1 33.439,0 32.439,0 L 29.439,0 C 28.888,0 28.029,0.186 27.529,0.413 L 27.425,0.46 C 26.925,0.688 26.064,0.873 25.515,0.873 L 17.36,0.873 C 16.81,0.873 15.95,0.687 15.45,0.459 L 15.347,0.414 z"
   style="fill:#d9b578" />
<path
   d="M 13.62,0.006 C 13.961,0.006 14.437,0.128 14.437,0.128 L 14.437,9.872 C 14.437,9.872 13.949,9.985 13.728,9.985 C 13.507,9.985 11.437,9.999 11.437,9.999 L 11.437,0 C 11.437,0 13.279,0.006 13.62,0.006 z"
   id="path11"
   style="fill:#893e19" />
<path
   d="M 17.372,0.873 C 17.789,0.873 19.437,0.874 19.437,0.874 L 19.437,9.125 C 19.437,9.125 17.664,9.125 17.351,9.125 C 17.038,9.125 16.437,9.235 16.437,9.235 L 16.437,0.761 C 16.437,0.761 16.956,0.873 17.372,0.873 z"
   id="path13" />
<rect
   x="21.438"
   y="0.87400001"
   width="3"
   height="8.2510004"
   id="rect15"
   style="fill:#c3111d" />
<rect
   x="30.114"
   width="1.149"
   height="10"
   id="rect17"
   y="0"
   style="opacity:0.5;fill:#f5e731" />
<path
   id="Reflex_1_"
   d="M 8.937,4.5 C 8.937,4.5 8.937,2.5 8.937,2 C 8.937,1.5 9.437,0.5 10.437,0.5 C 11.437,0.5 12.437,0.5 13.437,0.5 C 14.437,0.5 16.437,1.5 16.937,1.5 C 17.437,1.5 24.938,1.5 25.938,1.5 C 26.938,1.5 28.438,0.5 29.438,0.5 C 29.48,0.5 29.75,0.5 30.114,0.5 C 30.894,0.5 32.105,0.5 32.438,0.5 C 32.938,0.5 33.938,1 33.938,1.5 C 33.938,3 34.032,1 31.938,1 C 30.438,1 30.438,1 29.438,1 C 28.438,1 26.938,2 25.938,2 C 24.938,2 17.937,2 16.937,2 C 15.937,2 14.437,1 13.437,1 C 12.437,1 11.437,1 10.437,1 C 9.937,1 9.437,1.5 9.437,2 C 9.437,2.5 9.437,4 8.937,4.5 z"
   style="opacity:0.4;fill:#ffffff" />
<path
   id="Shaddow_1_"
   d="M 34.438,5.5 C 34.438,5.5 34.438,7.5 34.438,8 C 34.438,9 33.438,10 32.438,10 C 31.438,10 30.438,10 29.438,10 C 28.179,10 26.632,9.109 25.71,9.109 C 25.21,9.109 18.437,9.125 17.437,9.125 C 16.023,9.125 14.804,10 13.804,10 C 13.671,10 10.924,10 10.437,10 C 9.761,10 8.437,9.219 8.437,8 C 8.437,7.91 8.437,7.598 8.437,7.5 C 8.437,6 8.842,9 10.937,9 C 12.437,9 12.437,9 13.437,9 C 14.437,9 15.937,8 16.937,8 C 17.937,8 24.938,8 25.938,8 C 26.938,8 28.438,9 29.438,9 C 30.438,9 30.438,9 31.438,9 C 31.938,9 33.438,9 33.438,7.5 C 33.438,7 33.938,5.5 34.438,5.5 z"
   style="opacity:0.4" />



  </g>
</g>
</svg>
