<?xml version="1.0" encoding="utf-8"?>

<!DOCTYPE svg PUBLIC "-//W3C//DTD SVG 1.1//EN" "http://www.w3.org/Graphics/SVG/1.1/DTD/svg11.dtd">
<svg version="1.1"
	 id="svg2" xmlns:rdf="http://www.w3.org/1999/02/22-rdf-syntax-ns#" xmlns:svg="http://www.w3.org/2000/svg" xmlns:dc="http://purl.org/dc/elements/1.1/" xmlns:cc="http://creativecommons.org/ns#"
	 xmlns="http://www.w3.org/2000/svg" xmlns:xlink="http://www.w3.org/1999/xlink" x="0px" y="0px" width="32px" height="32px"
	 viewBox="0 0 32 32" enable-background="new 0 0 32 32" xml:space="preserve">
<rect id="connector0pin" x="4.825" y="31.152" fill="#B3B3B3" width="2.433" height="1.594"/>
<rect id="connector1pin" x="14.661" fill="#B3B3B3" width="2.428" height="1.593"/>
<rect id="connector2pin" x="24.67" y="31.152" fill="#B3B3B3" width="2.43" height="1.594"/>
<rect id="rect8" x="20.488" y="26.398" fill="#B3B3B3" width="6.399" height="2.543"/>
<rect id="rect10" x="4.936" y="26.398" fill="#B3B3B3" width="6.401" height="2.543"/>
<rect id="rect12" x="13.357" y="3.847" fill="#B3B3B3" width="4.966" height="2.249"/>
<rect id="rect14" x="4.761" y="28.176" fill="#B3B3B3" width="2.795" height="4.596"/>
<rect id="rect16" x="24.305" y="28.204" fill="#B3B3B3" width="2.796" height="4.466"/>
<rect id="rect18" x="14.448" y="0.209" fill="#B3B3B3" width="2.792" height="4.129"/>
<path id="path20" fill="#808080" d="M15.842,4.133c-6.675,0-12.087,5.413-12.087,12.091v12.089h12.087h12.074V16.223
	C27.916,9.545,22.502,4.133,15.842,4.133z M9.067,20.821v-9.194h13.534v9.194H9.067z"/>
<path id="path27" fill="#CECECE" d="M13.757,8.491c-4.263,1.151-6.787,5.544-5.637,9.807c1.154,4.265,5.542,6.788,9.803,5.64
	c4.257-1.154,6.777-5.543,5.626-9.81C22.395,9.862,18.019,7.337,13.757,8.491z M13.04,18.338l0.348-2.828l4.221-1.143l1.716,2.269
	L13.04,18.338z"/>
<g id="g29">
	<polygon id="rect31" points="18.559,21.236 16.019,21.926 14.913,17.836 17.458,17.146 	"/>
	<polygon id="polygon33" points="17.608,14.368 19.324,16.637 16.217,12.526 15.669,10.501 13.123,11.19 13.666,13.216 
		13.04,18.338 13.388,15.51 	"/>
</g>
<g id="g35">
	<polygon id="polygon37" fill="#4D4D4D" points="10.134,16.389 10.82,18.937 13.04,18.338 13.388,15.51 	"/>
	<polygon id="polygon39" fill="#4D4D4D" points="17.608,14.368 19.324,16.637 21.539,16.039 20.85,13.49 	"/>
</g>
<path id="path41" opacity="0.3" enable-background="new    " d="M26.963,16.536c-0.043-0.742-0.158-1.495-0.357-2.241
	c-0.182-0.671-0.428-1.301-0.721-1.902l-0.523,0.177l-0.783-1.04c-0.223-0.34-0.472-0.663-0.732-0.968l-0.822-1.087L23.47,9.14
	c-2.659-2.448-6.455-3.528-10.201-2.517c-3.743,1.012-6.494,3.864-7.56,7.319l0.554,0.064l-0.164,1.355
	c-0.069,0.396-0.12,0.797-0.144,1.205L5.799,17.86l-0.543,0.107c0.053,0.667,0.159,1.338,0.339,2.008
	c0.204,0.746,0.482,1.453,0.818,2.117l0.571-0.46c0.665,1.352,1.608,2.499,2.736,3.409l-0.573,0.456
	c2.632,2.189,6.246,3.111,9.791,2.152c3.547-0.962,6.206-3.578,7.378-6.791l-0.723-0.109c0.518-1.354,0.754-2.82,0.646-4.323
	L26.963,16.536z M17.949,23.973c-3.769,1.021-7.66-1.215-8.68-4.99c-1.018-3.777,1.215-7.668,4.991-8.684
	c3.773-1.021,7.649,1.214,8.669,4.988C23.951,19.066,21.714,22.953,17.949,23.973z"/>
<path id="path43" d="M13.192,6.391C7.763,7.854,4.553,13.44,6.021,18.865c1.464,5.426,7.05,8.641,12.469,7.172
	c5.416-1.465,8.628-7.051,7.159-12.477C24.184,8.136,18.607,4.923,13.192,6.391z M17.925,23.938
	c-4.26,1.148-8.652-1.371-9.804-5.639c-1.153-4.267,1.371-8.66,5.637-9.811c4.261-1.151,8.641,1.373,9.795,5.639
	C24.701,18.394,22.178,22.787,17.925,23.938z"/>
<path id="path45" fill="#1A1A1A" d="M26.699,15.615c-0.043-0.743-0.156-1.497-0.359-2.243c-0.18-0.667-0.424-1.3-0.719-1.902
	l-0.523,0.176l-2.34-3.092l0.447-0.336c-2.658-2.448-6.451-3.528-10.199-2.516C9.257,6.713,6.51,9.565,5.444,13.02l0.552,0.066
	l-0.461,3.852l-0.543,0.111c0.051,0.668,0.159,1.338,0.338,2.004c0.203,0.748,0.479,1.453,0.82,2.117l1.542-1.242l2.739,3.402
	l-1.549,1.249c2.628,2.184,6.243,3.105,9.789,2.147c3.548-0.958,6.208-3.576,7.379-6.789l-1.961-0.297l0.647-4.319L26.699,15.615z
	 M17.686,23.053c-3.771,1.02-7.662-1.215-8.68-4.992c-1.018-3.777,1.214-7.667,4.992-8.684c3.772-1.021,7.647,1.212,8.667,4.992
	C23.686,18.145,21.449,22.031,17.686,23.053z"/>
<circle id="circle47" opacity="0.39" fill="#FFFFFF" enable-background="new    " cx="7.684" cy="11.616" r="0.815"/>
<circle id="circle49" opacity="0.39" fill="#FFFFFF" enable-background="new    " cx="20.563" cy="8.134" r="0.816"/>
<g id="g51" opacity="0.39">
	<path id="path53" fill="#FFFFFF" d="M13.57,24.27l-0.342-0.082l0.082-0.346l0.341,0.08l0.082-0.34l0.688,0.164L13.764,26.5
		l-0.689-0.164L13.57,24.27z"/>
	<path id="path55" fill="#FFFFFF" d="M19.188,26.182l-1.367,0.348l-0.087-0.346l-0.339,0.085l-0.519-2.063l0.339-0.086l-0.087-0.34
		l1.37-0.348l0.083,0.342l0.347-0.086l0.517,2.061l-0.346,0.086L19.188,26.182z M18.761,25.92l-0.52-2.059l-0.681,0.174l0.517,2.061
		L18.761,25.92z"/>
	<path id="path57" fill="#FFFFFF" d="M22.969,22.4l0.248-0.246l0.252,0.25l-0.248,0.249l0.5,0.503l-0.508,0.504l-0.498-0.5
		l-0.754,0.746l-0.5-0.504l0.248-0.246l-0.496-0.506l0.25-0.25l0.502,0.502l-0.255,0.254l0.248,0.25l0.505-0.499l-1.25-1.255
		l0.508-0.504L22.969,22.4z"/>
</g>
</svg>
