<?xml version="1.0" encoding="UTF-8"?><!-- Generator: Adobe Illustrator 14.0.0, SVG Export Plug-In . SVG Version: 6.00 Build 43363)  --><!DOCTYPE svg  PUBLIC '-//W3C//DTD SVG 1.1//EN'  'http://www.w3.org/Graphics/SVG/1.1/DTD/svg11.dtd'><svg enable-background="new 0 0 32 32" height="32px" id="Layer_1" version="1.1" viewBox="0 0 32 32" width="32px" x="0px" xml:space="preserve" xmlns="http://www.w3.org/2000/svg" xmlns:xlink="http://www.w3.org/1999/xlink" y="0px">
<rect fill="#3B373D" height="32" width="32"/>
<rect fill="#655F69" height="6.704" id="rect2385_1_" width="3.399" x="0.086" y="22.657"/>
<rect fill="#655F69" height="6.167" id="rect2385_2_" width="2.916" x="18.92" y="10.072"/>
<rect fill="#655F69" height="6.167" id="rect2385_3_" width="2.916" x="22.879" y="10.072"/>
<path d="M2.273,26.009h12.123l6.43-10.729" fill="none" id="path3159_1_" stroke="#655F69" stroke-width="1"/>
<path d="M18.92,13.046L8.578,12.921L2.786,5.064l-2.7-0.01" fill="none" id="path3161_1_" stroke="#655F69" stroke-width="1"/>
<path d="M32.086,16.239l-2.592-3.203l-3.699-0.01" fill="none" id="path3161_3_" stroke="#655F69" stroke-width="1"/>
<rect fill="#FFFFFF" height="1.695" width="1.695" x="14.762" y="8.815"/>
<rect fill="#FFFFFF" height="1.695" width="1.695" x="14.762" y="11.649"/>
<rect fill="#FFFFFF" height="1.695" width="1.695" x="14.756" y="14.484"/>
<rect fill="#FFFFFF" height="1.695" width="1.695" x="14.762" y="17.319"/>
<rect fill="#FFFFFF" height="1.695" width="1.695" x="14.762" y="20.159"/>
<rect fill="#FFFFFF" height="1.695" width="1.695" x="14.762" y="5.98"/>
<rect fill="#FFFFFF" height="1.695" width="1.695" x="3.423" y="8.815"/>
<rect fill="#FFFFFF" height="1.695" width="1.695" x="3.423" y="11.649"/>
<rect fill="#FFFFFF" height="1.695" width="1.695" x="3.417" y="14.484"/>
<rect fill="#FFFFFF" height="1.695" width="1.695" x="3.423" y="17.319"/>
<rect fill="#FFFFFF" height="1.695" width="1.695" x="3.423" y="20.159"/>
<rect fill="#FFFFFF" height="1.695" width="1.695" x="3.423" y="5.98"/>
<rect fill="#FFFFFF" height="1.695" width="1.695" x="9.092" y="8.815"/>
<rect fill="#FFFFFF" height="1.695" width="1.695" x="9.092" y="11.649"/>
<rect fill="#FFFFFF" height="1.695" width="1.695" x="9.086" y="14.484"/>
<rect fill="#FFFFFF" height="1.695" width="1.695" x="9.092" y="17.319"/>
<rect fill="#FFFFFF" height="1.695" width="1.695" x="9.092" y="20.159"/>
<rect fill="#FFFFFF" height="1.695" width="1.695" x="6.258" y="22.988"/>
<rect fill="#FFFFFF" height="1.695" width="1.695" x="9.086" y="22.988"/>
<rect fill="#FFFFFF" height="1.695" width="1.695" x="11.921" y="22.994"/>
<rect fill="#FFFFFF" height="1.695" width="1.695" x="14.756" y="22.988"/>
<rect fill="#FFFFFF" height="1.695" width="1.694" x="20.431" y="11.655"/>
<rect fill="#FFFFFF" height="1.695" width="1.694" x="20.425" y="14.49"/>
<rect fill="#FFFFFF" height="1.695" width="1.694" x="20.431" y="17.325"/>
<rect fill="#FFFFFF" height="1.695" width="1.694" x="20.431" y="20.165"/>
<rect fill="#FFFFFF" height="1.695" width="1.694" x="20.431" y="5.986"/>
<rect fill="#FFFFFF" height="1.695" width="1.694" x="20.425" y="22.994"/>
<rect fill="#FFFFFF" height="1.695" width="1.694" x="26.101" y="11.655"/>
<rect fill="#FFFFFF" height="1.695" width="1.694" x="26.095" y="14.49"/>
<rect fill="#FFFFFF" height="1.695" width="1.694" x="26.101" y="17.325"/>
<rect fill="#FFFFFF" height="1.695" width="1.694" x="26.101" y="20.165"/>
<rect fill="#FFFFFF" height="1.695" width="1.694" x="26.095" y="22.994"/>
<rect fill="#FFFFFF" height="1.695" width="1.694" x="28.935" y="11.655"/>
<rect fill="#FFFFFF" height="1.695" width="1.694" x="31.77" y="11.649"/>
<rect fill="none" height="30.725" stroke="#000000" stroke-width="1" width="30.725" x="0.723" y="0.876"/>
</svg>