<?xml version="1.0" encoding="utf-8"?>
<!-- Generator: Adobe Illustrator 15.1.0, SVG Export Plug-In . SVG Version: 6.00 Build 0)  -->
<!DOCTYPE svg PUBLIC "-//W3C//DTD SVG 1.1//EN" "http://www.w3.org/Graphics/SVG/1.1/DTD/svg11.dtd">
<svg version="1.1" id="Ebene_1" xmlns:svg="http://www.w3.org/2000/svg"
	 xmlns="http://www.w3.org/2000/svg" xmlns:xlink="http://www.w3.org/1999/xlink" x="0px" y="0px" width="9.998px"
	 height="15.023px" viewBox="0 0 9.998 15.023" enable-background="new 0 0 9.998 15.023" xml:space="preserve">
<polygon fill="#333333" points="8.087,0.265 1.91,0.265 -0.001,2.684 -0.001,15.023 3.227,15.023 3.227,13.077 6.77,13.077 
	6.77,15.023 9.998,15.023 9.998,2.835 "/>
<rect x="3.653" y="13.077" fill="#CCCCCC" width="2.691" height="1.946"/>
<rect x="3.653" y="14.532" fill="#B3B3B3" width="2.691" height="0.084"/>
<circle fill="#9A8B62" cx="4.999" cy="7.512" r="4.999"/>
<path fill="#4D4D4D" d="M5.523,3.938h-1.05V2.536c0,0,0.181-0.024,0.525-0.024s0.525,0.024,0.525,0.024V3.938z"/>
<circle fill="#E6E6E6" cx="4.999" cy="7.512" r="3.771"/>
<circle fill="#B3B3B3" cx="4.999" cy="7.512" r="2.987"/>
<g opacity="0.15">
	<polygon fill="#FFFFFF" points="-0.001,2.767 1.91,0.348 8.087,0.348 9.998,2.918 9.998,2.835 8.087,0.265 1.91,0.265 
		-0.001,2.684 	"/>
	<rect x="3.653" y="14.616" fill="#FFFFFF" width="2.691" height="0.083"/>
	<path fill="#FFFFFF" d="M4.998,2.595c2.761,0,5,2.238,5,5V7.512c0-2.762-2.238-5-5-5V2.595z"/>
	<path fill="#FFFFFF" d="M4.998,2.595c-2.761,0-4.999,2.238-4.999,5V7.512c0-2.762,2.238-5,4.999-5V2.595z"/>
	<path fill="#FFFFFF" d="M4.473,2.62c0,0,0.181-0.024,0.525-0.024S5.523,2.62,5.523,2.62V2.536c0,0-0.181-0.024-0.525-0.024
		S4.473,2.536,4.473,2.536V2.62z"/>
	<path fill="#FFFFFF" d="M1.228,7.595c0-2.083,1.688-3.771,3.771-3.771c2.083,0,3.771,1.688,3.771,3.771V7.512
		c0-2.083-1.688-3.771-3.771-3.771c-2.082,0-3.771,1.688-3.771,3.771V7.595z"/>
	<path fill="#FFFFFF" d="M2.012,7.595c0-1.65,1.337-2.987,2.986-2.987c1.65,0,2.987,1.337,2.987,2.987V7.512
		c0-1.65-1.337-2.987-2.987-2.987c-1.649,0-2.986,1.337-2.986,2.987V7.595z"/>
</g>
<path fill="#999999" d="M7.546,6.166C7.157,6.144,6.767,6.145,6.379,6.132C6.366,5.743,6.367,5.354,6.344,4.965
	c-0.897-0.187-1.794-0.187-2.691,0C3.631,5.354,3.632,5.743,3.619,6.132C3.23,6.145,2.841,6.144,2.452,6.166
	c-0.187,0.897-0.187,1.794,0,2.691C2.841,8.88,3.23,8.879,3.619,8.892C3.632,9.28,3.631,9.67,3.653,10.059
	c0.897,0.187,1.794,0.187,2.691,0C6.367,9.67,6.366,9.28,6.379,8.892C6.767,8.879,7.157,8.88,7.546,8.857
	C7.732,7.96,7.732,7.063,7.546,6.166z"/>
<g opacity="0.15">
	<rect x="6.77" y="14.941" width="3.228" height="0.082"/>
	<rect x="-0.001" y="14.941" width="3.228" height="0.082"/>
	<rect x="3.653" y="14.941" width="2.691" height="0.082"/>
	<rect x="3.653" y="13.077" width="2.691" height="0.082"/>
	<rect x="3.653" y="1.555" width="2.691" height="0.082"/>
	<path d="M9.998,7.594c0,2.761-2.238,5-5,5c-2.761,0-4.999-2.239-4.999-5V7.512c0,2.761,2.238,5,4.999,5c2.761,0,5-2.239,5-5V7.594z
		"/>
	<path d="M1.228,7.594c0,2.082,1.688,3.771,3.771,3.771c2.083,0,3.771-1.689,3.771-3.771V7.512c0,2.082-1.688,3.771-3.771,3.771
		c-2.082,0-3.771-1.689-3.771-3.771V7.594z"/>
	<path d="M7.985,7.594c0,1.649-1.337,2.987-2.987,2.987c-1.649,0-2.986-1.338-2.986-2.987V7.512c0,1.649,1.337,2.987,2.986,2.987
		c1.65,0,2.987-1.338,2.987-2.987V7.594z"/>
	<path d="M3.619,6.214C3.23,6.227,2.841,6.226,2.452,6.248V6.166C2.841,6.144,3.23,6.145,3.619,6.132"/>
	<path d="M6.344,5.047c-0.897-0.187-1.794-0.187-2.691,0V4.965c0.897-0.187,1.794-0.187,2.691,0V5.047z"/>
	<path d="M7.546,6.248C7.157,6.226,6.767,6.227,6.379,6.214V6.132c0.389,0.012,0.778,0.011,1.167,0.034V6.248z"/>
</g>
<path fill="#CCCCCC" d="M7.124,6.969c0-0.226-0.185-0.414-0.41-0.418L6.385,6.543C6.16,6.539,5.971,6.351,5.968,6.125L5.96,5.722
	c-0.004-0.226-0.192-0.41-0.418-0.41H4.456c-0.226,0-0.414,0.185-0.418,0.41L4.03,6.125C4.026,6.35,3.838,6.539,3.612,6.543
	L3.284,6.55c-0.225,0.005-0.41,0.193-0.41,0.419v1.086c0,0.226,0.185,0.414,0.41,0.419l0.328,0.006
	C3.837,8.484,4.025,8.673,4.03,8.898l0.008,0.403c0.004,0.226,0.192,0.41,0.418,0.41h1.086c0.226,0,0.414-0.185,0.418-0.41
	l0.008-0.403C5.971,8.673,6.16,8.484,6.385,8.479l0.328-0.006c0.226-0.005,0.41-0.193,0.41-0.419V6.969z"/>
<rect x="3.653" fill="#CCCCCC" width="2.691" height="1.555"/>
<rect x="3.653" y="0.249" fill="#B3B3B3" width="2.691" height="0.075"/>
<rect x="3.653" fill="#FFFFFF" width="2.691" height="0.083"/>
</svg>
