<?xml version="1.0" encoding="utf-8"?>
<!-- Generator: Adobe Illustrator 13.0.0, SVG Export Plug-In . SVG Version: 6.00 Build 14948)  -->
<!DOCTYPE svg PUBLIC "-//W3C//DTD SVG 1.1//EN" "http://www.w3.org/Graphics/SVG/1.1/DTD/svg11.dtd">
<svg version="1.1" id="Layer_1" xmlns="http://www.w3.org/2000/svg" xmlns:xlink="http://www.w3.org/1999/xlink" x="0px" y="0px"
	 width="32px" height="32px" viewBox="0 0 32 32" enable-background="new 0 0 32 32" xml:space="preserve">
<g id="icon">
	<g id="background">
		<rect x="-3" y="-5" fill="#D9D9D9" width="198.001" height="125.873"/>
	</g>
	<g id="grooves">
		<rect x="-2.232" y="12.426" fill="#B3B0B0" width="196.466" height="0.375"/>
		<rect x="-2.232" y="102.789" fill="#B3B0B0" width="196.466" height="0.375"/>
		<path fill="#CCC9C9" d="M186.538,54.775H6.008c-1.666,0-3.018,1.352-3.018,3.02c0,1.666,1.352,3.02,3.018,3.02h180.528
			c1.667,0,3.019-1.354,3.019-3.021S188.204,54.775,186.538,54.775z"/>
	</g>
	<g id="text">
		<g>
			<path fill="#B3B0B0" d="M6.073,18.886h-0.54v-0.36h0.05c0.184,0,0.329-0.033,0.435-0.104s0.173-0.181,0.201-0.334h0.406v2.714
				H6.073V18.886z"/>
		</g>
		<g>
			<path fill="#B3B0B0" d="M29.859,18.57l-0.06,0.617h0.009c0.051-0.07,0.117-0.123,0.198-0.154c0.082-0.032,0.183-0.049,0.3-0.049
				c0.131,0,0.237,0.024,0.323,0.074c0.086,0.051,0.154,0.116,0.203,0.197c0.051,0.082,0.086,0.176,0.104,0.278
				c0.021,0.104,0.031,0.209,0.031,0.315c0,0.15-0.014,0.287-0.039,0.41c-0.025,0.122-0.07,0.229-0.136,0.315
				c-0.065,0.089-0.153,0.155-0.267,0.198c-0.112,0.045-0.256,0.067-0.43,0.067c-0.171,0-0.31-0.022-0.416-0.067
				c-0.105-0.047-0.187-0.107-0.242-0.184c-0.057-0.076-0.094-0.156-0.113-0.245c-0.02-0.088-0.029-0.171-0.029-0.247v-0.072h0.529
				c0,0.045,0.003,0.095,0.008,0.146c0.006,0.052,0.018,0.101,0.037,0.146c0.02,0.043,0.046,0.08,0.082,0.109
				c0.035,0.029,0.082,0.044,0.143,0.044c0.113,0,0.196-0.044,0.246-0.132c0.051-0.088,0.074-0.221,0.074-0.396
				c0-0.111-0.004-0.205-0.016-0.279c-0.01-0.073-0.027-0.133-0.051-0.176c-0.024-0.045-0.058-0.074-0.099-0.092
				c-0.041-0.02-0.092-0.027-0.153-0.027c-0.078,0-0.14,0.021-0.183,0.066c-0.041,0.045-0.067,0.105-0.078,0.183h-0.494l0.101-1.476
				h1.414v0.43H29.859L29.859,18.57z"/>
		</g>
		<g>
			<path fill="#B3B0B0" d="M1.122,23.244l0.724,2.736H1.271L1.145,25.4H0.417L0.29,25.98h-0.575l0.724-2.736H1.122z M1.049,24.949
				L0.785,23.72H0.777l-0.264,1.229H1.049z"/>
		</g>
		<g>
			<path fill="#B3B0B0" d="M0.831,29.281c0.112,0,0.217,0.012,0.312,0.033c0.096,0.023,0.178,0.062,0.247,0.115
				c0.069,0.053,0.123,0.125,0.161,0.215c0.038,0.09,0.057,0.199,0.057,0.33c0,0.147-0.034,0.274-0.104,0.381
				c-0.069,0.105-0.172,0.179-0.31,0.217v0.008c0.153,0.021,0.274,0.086,0.364,0.195c0.089,0.109,0.134,0.257,0.134,0.44
				c0,0.107-0.014,0.209-0.042,0.308c-0.028,0.097-0.076,0.182-0.144,0.254c-0.067,0.072-0.156,0.132-0.264,0.175
				c-0.109,0.044-0.244,0.065-0.404,0.065h-0.931v-2.736H0.831z M0.616,30.404c0.153,0,0.265-0.027,0.335-0.084
				c0.07-0.055,0.105-0.146,0.105-0.276c0-0.131-0.032-0.224-0.096-0.276s-0.165-0.08-0.303-0.08H0.459v0.718L0.616,30.404
				L0.616,30.404z M0.673,31.611c0.133,0,0.24-0.029,0.322-0.088c0.082-0.06,0.123-0.168,0.123-0.326
				c0-0.079-0.011-0.146-0.033-0.197c-0.022-0.053-0.051-0.095-0.088-0.126c-0.037-0.032-0.081-0.056-0.132-0.067
				c-0.051-0.013-0.107-0.02-0.169-0.02H0.459v0.824H0.673z"/>
		</g>
		<g>
			<path fill="#B3B0B0" d="M1.042,35.807c-0.047-0.091-0.133-0.136-0.259-0.136c-0.069,0-0.125,0.019-0.17,0.056
				c-0.045,0.037-0.08,0.098-0.105,0.181C0.483,35.99,0.465,36.1,0.454,36.232c-0.011,0.135-0.015,0.299-0.015,0.492
				c0,0.207,0.007,0.375,0.021,0.502c0.014,0.129,0.036,0.229,0.065,0.297c0.029,0.07,0.066,0.119,0.111,0.144
				c0.045,0.024,0.097,0.036,0.155,0.036c0.048,0,0.094-0.01,0.136-0.025c0.042-0.017,0.079-0.05,0.109-0.1
				c0.031-0.051,0.055-0.12,0.073-0.21c0.018-0.091,0.026-0.211,0.026-0.358h0.552c0,0.147-0.012,0.288-0.035,0.422
				c-0.023,0.133-0.066,0.248-0.128,0.349c-0.062,0.1-0.151,0.178-0.264,0.233c-0.114,0.057-0.262,0.084-0.443,0.084
				c-0.207,0-0.372-0.033-0.495-0.1c-0.123-0.066-0.216-0.162-0.281-0.287s-0.107-0.273-0.126-0.447
				c-0.02-0.175-0.029-0.365-0.029-0.576c0-0.207,0.009-0.397,0.029-0.572c0.019-0.176,0.061-0.325,0.126-0.45
				s0.159-0.224,0.281-0.293c0.123-0.07,0.288-0.104,0.495-0.104c0.197,0,0.352,0.031,0.466,0.096
				c0.113,0.063,0.198,0.146,0.255,0.242c0.056,0.1,0.091,0.205,0.105,0.318s0.021,0.221,0.021,0.32H1.113
				C1.113,36.043,1.089,35.896,1.042,35.807z"/>
		</g>
		<g>
			<path fill="#B3B0B0" d="M0.804,41.355c0.191,0,0.346,0.03,0.463,0.094c0.118,0.062,0.209,0.152,0.274,0.269
				s0.109,0.257,0.132,0.421c0.023,0.162,0.035,0.346,0.035,0.547c0,0.24-0.015,0.449-0.044,0.627
				c-0.029,0.178-0.08,0.323-0.151,0.438c-0.072,0.114-0.167,0.2-0.288,0.257c-0.12,0.057-0.272,0.084-0.456,0.084h-0.87v-2.736
				H0.804L0.804,41.355z M0.697,43.686c0.097,0,0.175-0.017,0.234-0.05c0.059-0.032,0.105-0.088,0.14-0.165
				c0.035-0.076,0.058-0.178,0.069-0.303c0.011-0.125,0.017-0.281,0.017-0.468c0-0.155-0.005-0.292-0.016-0.41
				c-0.01-0.117-0.031-0.215-0.063-0.293c-0.032-0.078-0.079-0.138-0.142-0.177s-0.146-0.06-0.251-0.06H0.452v1.925H0.697
				L0.697,43.686z"/>
		</g>
		<g>
			<path fill="#B3B0B0" d="M1.581,47.845H0.604v0.645h0.919v0.452H0.604v0.735H1.62v0.452H0.051v-2.736H1.58L1.581,47.845
				L1.581,47.845z"/>
		</g>
	</g>
	<g id="sockets">
		<g id="A1xpin">
			<path fill="#BFBFBF" d="M6.092,23.975c0.549,0,0.995,0.445,0.995,0.996h0.996c0-1.102-0.892-1.992-1.991-1.992
				c-1.101,0-1.992,0.895-1.992,1.992h0.994C5.094,24.418,5.542,23.975,6.092,23.975z"/>
			<path fill="#E6E6E6" d="M6.092,26.961c1.1,0,1.991-0.893,1.991-1.99H7.087c0,0.549-0.446,0.996-0.995,0.996
				c-0.551,0-0.998-0.445-0.998-0.996H4.1C4.1,26.068,4.992,26.961,6.092,26.961z"/>
			<circle fill="#383838" cx="6.092" cy="24.969" r="0.996"/>
		</g>
		<g id="B1xpin">
			<path fill="#BFBFBF" d="M6.092,29.968c0.549,0,0.995,0.444,0.995,0.995h0.996c0-1.1-0.892-1.99-1.991-1.99
				c-1.101,0-1.992,0.894-1.992,1.99h0.994C5.094,30.414,5.542,29.968,6.092,29.968z"/>
			<path fill="#E6E6E6" d="M6.092,32.955c1.1,0,1.991-0.893,1.991-1.992H7.087c0,0.553-0.446,0.998-0.995,0.998
				c-0.551,0-0.998-0.445-0.998-0.998H4.1C4.1,32.062,4.992,32.955,6.092,32.955z"/>
			<circle fill="#383838" cx="6.092" cy="30.964" r="0.997"/>
		</g>
		<g id="C1xpin">
			<path fill="#BFBFBF" d="M6.092,35.961c0.549,0,0.995,0.445,0.995,0.996h0.996c0-1.1-0.892-1.992-1.991-1.992
				c-1.101,0-1.992,0.895-1.992,1.992h0.994C5.094,36.407,5.542,35.961,6.092,35.961z"/>
			<path fill="#E6E6E6" d="M6.092,38.949c1.1,0,1.991-0.893,1.991-1.992H7.087c0,0.551-0.446,0.996-0.995,0.996
				c-0.551,0-0.998-0.445-0.998-0.996H4.1C4.1,38.059,4.992,38.949,6.092,38.949z"/>
			<circle fill="#383838" cx="6.092" cy="36.957" r="0.996"/>
		</g>
		<g id="D1xpin">
			<path fill="#BFBFBF" d="M6.092,41.955c0.549,0,0.995,0.445,0.995,0.996h0.996c0-1.1-0.892-1.992-1.991-1.992
				c-1.101,0-1.992,0.895-1.992,1.992h0.994C5.094,42.4,5.542,41.955,6.092,41.955z"/>
			<path fill="#E6E6E6" d="M6.092,44.943c1.1,0,1.991-0.895,1.991-1.992H7.087c0,0.551-0.446,0.997-0.995,0.997
				c-0.551,0-0.998-0.446-0.998-0.997H4.1C4.1,44.052,4.992,44.943,6.092,44.943z"/>
			<circle fill="#383838" cx="6.092" cy="42.951" r="0.996"/>
		</g>
		<g id="E1xpin">
			<path fill="#BFBFBF" d="M6.092,47.948c0.549,0,0.995,0.446,0.995,0.997h0.996c0-1.1-0.892-1.992-1.991-1.992
				c-1.101,0-1.992,0.895-1.992,1.992h0.994C5.094,48.396,5.542,47.948,6.092,47.948z"/>
			<path fill="#E6E6E6" d="M6.092,50.938c1.1,0,1.991-0.893,1.991-1.992H7.087c0,0.553-0.446,0.996-0.995,0.996
				c-0.551,0-0.998-0.443-0.998-0.996H4.1C4.1,50.045,4.992,50.938,6.092,50.938z"/>
			<circle fill="#383838" cx="6.092" cy="48.945" r="0.997"/>
		</g>
		<g id="A2xpin">
			<path fill="#BFBFBF" d="M12.085,23.975c0.55,0,0.996,0.445,0.996,0.996h0.996c0-1.102-0.892-1.992-1.992-1.992
				s-1.991,0.895-1.991,1.992h0.995C11.088,24.418,11.536,23.975,12.085,23.975z"/>
			<path fill="#E6E6E6" d="M12.085,26.961c1.101,0,1.992-0.893,1.992-1.99h-0.996c0,0.549-0.446,0.996-0.996,0.996
				s-0.997-0.445-0.997-0.996h-0.996C10.094,26.068,10.984,26.961,12.085,26.961z"/>
			<circle fill="#383838" cx="12.085" cy="24.969" r="0.996"/>
		</g>
		<g id="B2xpin">
			<path fill="#BFBFBF" d="M12.085,29.968c0.55,0,0.996,0.444,0.996,0.995h0.996c0-1.1-0.892-1.99-1.992-1.99
				s-1.991,0.894-1.991,1.99h0.995C11.088,30.414,11.536,29.968,12.085,29.968z"/>
			<path fill="#E6E6E6" d="M12.085,32.955c1.101,0,1.992-0.893,1.992-1.992h-0.996c0,0.553-0.446,0.998-0.996,0.998
				s-0.997-0.445-0.997-0.998h-0.996C10.094,32.062,10.984,32.955,12.085,32.955z"/>
			<circle fill="#383838" cx="12.085" cy="30.964" r="0.997"/>
		</g>
		<g id="C2xpin">
			<path fill="#BFBFBF" d="M12.085,35.961c0.55,0,0.996,0.445,0.996,0.996h0.996c0-1.1-0.892-1.992-1.992-1.992
				s-1.991,0.895-1.991,1.992h0.995C11.088,36.407,11.536,35.961,12.085,35.961z"/>
			<path fill="#E6E6E6" d="M12.085,38.949c1.101,0,1.992-0.893,1.992-1.992h-0.996c0,0.551-0.446,0.996-0.996,0.996
				s-0.997-0.445-0.997-0.996h-0.996C10.094,38.059,10.984,38.949,12.085,38.949z"/>
			<circle fill="#383838" cx="12.085" cy="36.957" r="0.996"/>
		</g>
		<g id="D2xpin">
			<path fill="#BFBFBF" d="M12.085,41.955c0.55,0,0.996,0.445,0.996,0.996h0.996c0-1.1-0.892-1.992-1.992-1.992
				s-1.991,0.895-1.991,1.992h0.995C11.088,42.4,11.536,41.955,12.085,41.955z"/>
			<path fill="#E6E6E6" d="M12.085,44.943c1.101,0,1.992-0.895,1.992-1.992h-0.996c0,0.551-0.446,0.997-0.996,0.997
				s-0.997-0.446-0.997-0.997h-0.996C10.094,44.052,10.984,44.943,12.085,44.943z"/>
			<circle fill="#383838" cx="12.085" cy="42.951" r="0.996"/>
		</g>
		<g id="E2xpin">
			<path fill="#BFBFBF" d="M12.085,47.948c0.55,0,0.996,0.446,0.996,0.997h0.996c0-1.1-0.892-1.992-1.992-1.992
				s-1.991,0.895-1.991,1.992h0.995C11.088,48.396,11.536,47.948,12.085,47.948z"/>
			<path fill="#E6E6E6" d="M12.085,50.938c1.101,0,1.992-0.893,1.992-1.992h-0.996c0,0.553-0.446,0.996-0.996,0.996
				s-0.997-0.443-0.997-0.996h-0.996C10.094,50.045,10.984,50.938,12.085,50.938z"/>
			<circle fill="#383838" cx="12.085" cy="48.945" r="0.997"/>
		</g>
		<g id="A3xpin">
			<path fill="#BFBFBF" d="M18.08,23.975c0.55,0,0.997,0.445,0.997,0.996h0.996c0-1.102-0.894-1.992-1.992-1.992
				s-1.992,0.895-1.992,1.992h0.996C17.083,24.418,17.529,23.975,18.08,23.975z"/>
			<path fill="#E6E6E6" d="M18.08,26.961c1.102,0,1.992-0.893,1.992-1.99h-0.996c0,0.549-0.446,0.996-0.997,0.996
				c-0.552,0-0.996-0.445-0.996-0.996h-0.996C16.087,26.068,16.979,26.961,18.08,26.961z"/>
			<circle fill="#383838" cx="18.08" cy="24.969" r="0.996"/>
		</g>
		<g id="B3xpin">
			<path fill="#BFBFBF" d="M18.08,29.968c0.55,0,0.997,0.444,0.997,0.995h0.996c0-1.1-0.894-1.99-1.992-1.99
				s-1.992,0.894-1.992,1.99h0.996C17.083,30.414,17.529,29.968,18.08,29.968z"/>
			<path fill="#E6E6E6" d="M18.08,32.955c1.102,0,1.992-0.893,1.992-1.992h-0.996c0,0.553-0.446,0.998-0.997,0.998
				c-0.552,0-0.996-0.445-0.996-0.998h-0.996C16.087,32.062,16.979,32.955,18.08,32.955z"/>
			<circle fill="#383838" cx="18.08" cy="30.964" r="0.997"/>
		</g>
		<g id="C3xpin">
			<path fill="#BFBFBF" d="M18.08,35.961c0.55,0,0.997,0.445,0.997,0.996h0.996c0-1.1-0.894-1.992-1.992-1.992
				s-1.992,0.895-1.992,1.992h0.996C17.083,36.407,17.529,35.961,18.08,35.961z"/>
			<path fill="#E6E6E6" d="M18.08,38.949c1.102,0,1.992-0.893,1.992-1.992h-0.996c0,0.551-0.446,0.996-0.997,0.996
				c-0.552,0-0.996-0.445-0.996-0.996h-0.996C16.087,38.059,16.979,38.949,18.08,38.949z"/>
			<circle fill="#383838" cx="18.08" cy="36.957" r="0.996"/>
		</g>
		<g id="D3xpin">
			<path fill="#BFBFBF" d="M18.08,41.955c0.55,0,0.997,0.445,0.997,0.996h0.996c0-1.1-0.894-1.992-1.992-1.992
				s-1.992,0.895-1.992,1.992h0.996C17.083,42.4,17.529,41.955,18.08,41.955z"/>
			<path fill="#E6E6E6" d="M18.08,44.943c1.102,0,1.992-0.895,1.992-1.992h-0.996c0,0.551-0.446,0.997-0.997,0.997
				c-0.552,0-0.996-0.446-0.996-0.997h-0.996C16.087,44.052,16.979,44.943,18.08,44.943z"/>
			<circle fill="#383838" cx="18.08" cy="42.951" r="0.996"/>
		</g>
		<g id="E3xpin">
			<path fill="#BFBFBF" d="M18.08,47.948c0.55,0,0.997,0.446,0.997,0.997h0.996c0-1.1-0.894-1.992-1.992-1.992
				s-1.992,0.895-1.992,1.992h0.996C17.083,48.396,17.529,47.948,18.08,47.948z"/>
			<path fill="#E6E6E6" d="M18.08,50.938c1.102,0,1.992-0.893,1.992-1.992h-0.996c0,0.553-0.446,0.996-0.997,0.996
				c-0.552,0-0.996-0.443-0.996-0.996h-0.996C16.087,50.045,16.979,50.938,18.08,50.938z"/>
			<circle fill="#383838" cx="18.08" cy="48.945" r="0.997"/>
		</g>
		<g id="A4xpin">
			<path fill="#BFBFBF" d="M24.074,23.975c0.55,0,0.996,0.445,0.996,0.996h0.996c0-1.102-0.895-1.992-1.991-1.992
				c-1.099,0-1.992,0.895-1.992,1.992h0.995C23.077,24.418,23.523,23.975,24.074,23.975z"/>
			<path fill="#E6E6E6" d="M24.074,26.961c1.1,0,1.99-0.893,1.99-1.99h-0.996c0,0.549-0.444,0.996-0.995,0.996
				c-0.552,0-0.997-0.445-0.997-0.996h-0.994C22.082,26.068,22.973,26.961,24.074,26.961z"/>
			<circle fill="#383838" cx="24.074" cy="24.969" r="0.996"/>
		</g>
		<g id="B4xpin">
			<path fill="#BFBFBF" d="M24.074,29.968c0.55,0,0.996,0.444,0.996,0.995h0.996c0-1.1-0.895-1.99-1.991-1.99
				c-1.099,0-1.992,0.894-1.992,1.99h0.995C23.077,30.414,23.523,29.968,24.074,29.968z"/>
			<path fill="#E6E6E6" d="M24.074,32.955c1.1,0,1.99-0.893,1.99-1.992h-0.996c0,0.553-0.444,0.998-0.995,0.998
				c-0.552,0-0.997-0.445-0.997-0.998h-0.994C22.082,32.062,22.973,32.955,24.074,32.955z"/>
			<circle fill="#383838" cx="24.074" cy="30.964" r="0.997"/>
		</g>
		<g id="C4xpin">
			<path fill="#BFBFBF" d="M24.074,35.961c0.55,0,0.996,0.445,0.996,0.996h0.996c0-1.1-0.895-1.992-1.991-1.992
				c-1.099,0-1.992,0.895-1.992,1.992h0.995C23.077,36.407,23.523,35.961,24.074,35.961z"/>
			<path fill="#E6E6E6" d="M24.074,38.949c1.1,0,1.99-0.893,1.99-1.992h-0.996c0,0.551-0.444,0.996-0.995,0.996
				c-0.552,0-0.997-0.445-0.997-0.996h-0.994C22.082,38.059,22.973,38.949,24.074,38.949z"/>
			<circle fill="#383838" cx="24.074" cy="36.957" r="0.996"/>
		</g>
		<g id="D4xpin">
			<path fill="#BFBFBF" d="M24.074,41.955c0.55,0,0.996,0.445,0.996,0.996h0.996c0-1.1-0.895-1.992-1.991-1.992
				c-1.099,0-1.992,0.895-1.992,1.992h0.995C23.077,42.4,23.523,41.955,24.074,41.955z"/>
			<path fill="#E6E6E6" d="M24.074,44.943c1.1,0,1.99-0.895,1.99-1.992h-0.996c0,0.551-0.444,0.997-0.995,0.997
				c-0.552,0-0.997-0.446-0.997-0.997h-0.994C22.082,44.052,22.973,44.943,24.074,44.943z"/>
			<circle fill="#383838" cx="24.074" cy="42.951" r="0.996"/>
		</g>
		<g id="E4xpin">
			<path fill="#BFBFBF" d="M24.074,47.948c0.55,0,0.996,0.446,0.996,0.997h0.996c0-1.1-0.895-1.992-1.991-1.992
				c-1.099,0-1.992,0.895-1.992,1.992h0.995C23.077,48.396,23.523,47.948,24.074,47.948z"/>
			<path fill="#E6E6E6" d="M24.074,50.938c1.1,0,1.99-0.893,1.99-1.992h-0.996c0,0.553-0.444,0.996-0.995,0.996
				c-0.552,0-0.997-0.443-0.997-0.996h-0.994C22.082,50.045,22.973,50.938,24.074,50.938z"/>
			<circle fill="#383838" cx="24.074" cy="48.945" r="0.997"/>
		</g>
		<g id="A5xpin">
			<path fill="#BFBFBF" d="M30.066,23.975c0.552,0,0.996,0.445,0.996,0.996h0.996c0-1.102-0.894-1.992-1.992-1.992
				c-1.102,0-1.99,0.895-1.99,1.992h0.996C29.07,24.418,29.518,23.975,30.066,23.975z"/>
			<path fill="#E6E6E6" d="M30.066,26.961c1.102,0,1.992-0.893,1.992-1.99h-0.996c0,0.549-0.444,0.996-0.996,0.996
				c-0.549,0-0.996-0.445-0.996-0.996h-0.995C28.076,26.068,28.967,26.961,30.066,26.961z"/>
			<circle fill="#383838" cx="30.066" cy="24.969" r="0.996"/>
		</g>
		<g id="B5xpin">
			<path fill="#BFBFBF" d="M30.066,29.968c0.552,0,0.996,0.444,0.996,0.995h0.996c0-1.1-0.894-1.99-1.992-1.99
				c-1.102,0-1.99,0.894-1.99,1.99h0.996C29.07,30.414,29.518,29.968,30.066,29.968z"/>
			<path fill="#E6E6E6" d="M30.066,32.955c1.102,0,1.992-0.893,1.992-1.992h-0.996c0,0.553-0.444,0.998-0.996,0.998
				c-0.549,0-0.996-0.445-0.996-0.998h-0.995C28.076,32.062,28.967,32.955,30.066,32.955z"/>
			<circle fill="#383838" cx="30.066" cy="30.964" r="0.997"/>
		</g>
		<g id="C5xpin">
			<path fill="#BFBFBF" d="M30.066,35.961c0.552,0,0.996,0.445,0.996,0.996h0.996c0-1.1-0.894-1.992-1.992-1.992
				c-1.102,0-1.99,0.895-1.99,1.992h0.996C29.07,36.407,29.518,35.961,30.066,35.961z"/>
			<path fill="#E6E6E6" d="M30.066,38.949c1.102,0,1.992-0.893,1.992-1.992h-0.996c0,0.551-0.444,0.996-0.996,0.996
				c-0.549,0-0.996-0.445-0.996-0.996h-0.995C28.076,38.059,28.967,38.949,30.066,38.949z"/>
			<circle fill="#383838" cx="30.066" cy="36.957" r="0.996"/>
		</g>
		<g id="D5xpin">
			<path fill="#BFBFBF" d="M30.066,41.955c0.552,0,0.996,0.445,0.996,0.996h0.996c0-1.1-0.894-1.992-1.992-1.992
				c-1.102,0-1.99,0.895-1.99,1.992h0.996C29.07,42.4,29.518,41.955,30.066,41.955z"/>
			<path fill="#E6E6E6" d="M30.066,44.943c1.102,0,1.992-0.895,1.992-1.992h-0.996c0,0.551-0.444,0.997-0.996,0.997
				c-0.549,0-0.996-0.446-0.996-0.997h-0.995C28.076,44.052,28.967,44.943,30.066,44.943z"/>
			<circle fill="#383838" cx="30.066" cy="42.951" r="0.996"/>
		</g>
		<g id="E5xpin">
			<path fill="#BFBFBF" d="M30.066,47.948c0.552,0,0.996,0.446,0.996,0.997h0.996c0-1.1-0.894-1.992-1.992-1.992
				c-1.102,0-1.99,0.895-1.99,1.992h0.996C29.07,48.396,29.518,47.948,30.066,47.948z"/>
			<path fill="#E6E6E6" d="M30.066,50.938c1.102,0,1.992-0.893,1.992-1.992h-0.996c0,0.553-0.444,0.996-0.996,0.996
				c-0.549,0-0.996-0.443-0.996-0.996h-0.995C28.076,50.045,28.967,50.938,30.066,50.938z"/>
			<circle fill="#383838" cx="30.066" cy="48.945" r="0.997"/>
		</g>
		<g id="A6xpin">
			<path fill="#BFBFBF" d="M36.061,23.975c0.549,0,0.996,0.445,0.996,0.996h0.996c0-1.102-0.892-1.992-1.992-1.992
				c-1.1,0-1.992,0.895-1.992,1.992h0.996C35.064,24.418,35.512,23.975,36.061,23.975z"/>
			<path fill="#E6E6E6" d="M36.061,26.961c1.103,0,1.992-0.893,1.992-1.99h-0.996c0,0.549-0.447,0.996-0.998,0.996
				c-0.549,0-0.996-0.445-0.996-0.996h-0.996C34.068,26.068,34.96,26.961,36.061,26.961z"/>
			<circle fill="#383838" cx="36.061" cy="24.969" r="0.996"/>
		</g>
		<g id="B6xpin">
			<path fill="#BFBFBF" d="M36.061,29.968c0.549,0,0.996,0.444,0.996,0.995h0.996c0-1.1-0.892-1.99-1.992-1.99
				c-1.1,0-1.992,0.894-1.992,1.99h0.996C35.064,30.414,35.512,29.968,36.061,29.968z"/>
			<path fill="#E6E6E6" d="M36.061,32.955c1.103,0,1.992-0.893,1.992-1.992h-0.996c0,0.553-0.447,0.998-0.998,0.998
				c-0.549,0-0.996-0.445-0.996-0.998h-0.996C34.068,32.062,34.96,32.955,36.061,32.955z"/>
			<circle fill="#383838" cx="36.061" cy="30.964" r="0.997"/>
		</g>
		<g id="C6xpin">
			<path fill="#BFBFBF" d="M36.061,35.961c0.549,0,0.996,0.445,0.996,0.996h0.996c0-1.1-0.892-1.992-1.992-1.992
				c-1.1,0-1.992,0.895-1.992,1.992h0.996C35.064,36.407,35.512,35.961,36.061,35.961z"/>
			<path fill="#E6E6E6" d="M36.061,38.949c1.103,0,1.992-0.893,1.992-1.992h-0.996c0,0.551-0.447,0.996-0.998,0.996
				c-0.549,0-0.996-0.445-0.996-0.996h-0.996C34.068,38.059,34.96,38.949,36.061,38.949z"/>
			<circle fill="#383838" cx="36.061" cy="36.957" r="0.996"/>
		</g>
		<g id="D6xpin">
			<path fill="#BFBFBF" d="M36.061,41.955c0.549,0,0.996,0.445,0.996,0.996h0.996c0-1.1-0.892-1.992-1.992-1.992
				c-1.1,0-1.992,0.895-1.992,1.992h0.996C35.064,42.4,35.512,41.955,36.061,41.955z"/>
			<path fill="#E6E6E6" d="M36.061,44.943c1.103,0,1.992-0.895,1.992-1.992h-0.996c0,0.551-0.447,0.997-0.998,0.997
				c-0.549,0-0.996-0.446-0.996-0.997h-0.996C34.068,44.052,34.96,44.943,36.061,44.943z"/>
			<circle fill="#383838" cx="36.061" cy="42.951" r="0.996"/>
		</g>
		<g id="E6xpin">
			<path fill="#BFBFBF" d="M36.061,47.948c0.549,0,0.996,0.446,0.996,0.997h0.996c0-1.1-0.892-1.992-1.992-1.992
				c-1.1,0-1.992,0.895-1.992,1.992h0.996C35.064,48.396,35.512,47.948,36.061,47.948z"/>
			<path fill="#E6E6E6" d="M36.061,50.938c1.103,0,1.992-0.893,1.992-1.992h-0.996c0,0.553-0.447,0.996-0.998,0.996
				c-0.549,0-0.996-0.443-0.996-0.996h-0.996C34.068,50.045,34.96,50.938,36.061,50.938z"/>
			<circle fill="#383838" cx="36.061" cy="48.945" r="0.997"/>
		</g>
		<g id="W2xpin">
			<path fill="#BFBFBF" d="M12.085-0.002c0.55,0,0.996,0.444,0.996,0.996h0.996c0-1.101-0.892-1.992-1.992-1.992
				s-1.991,0.893-1.991,1.992h0.995C11.088,0.442,11.536-0.002,12.085-0.002z"/>
			<path fill="#E6E6E6" d="M12.085,2.985c1.101,0,1.992-0.893,1.992-1.991h-0.996c0,0.549-0.446,0.996-0.996,0.996
				s-0.997-0.445-0.997-0.996h-0.996C10.094,2.094,10.984,2.985,12.085,2.985z"/>
			<circle fill="#383838" cx="12.085" cy="0.994" r="0.996"/>
		</g>
		<g id="W3xpin">
			<path fill="#BFBFBF" d="M18.08-0.002c0.55,0,0.997,0.444,0.997,0.996h0.996c0-1.101-0.894-1.992-1.992-1.992
				s-1.992,0.893-1.992,1.992h0.996C17.083,0.442,17.529-0.002,18.08-0.002z"/>
			<path fill="#E6E6E6" d="M18.08,2.985c1.102,0,1.992-0.893,1.992-1.991h-0.996c0,0.549-0.446,0.996-0.997,0.996
				c-0.552,0-0.996-0.445-0.996-0.996h-0.996C16.087,2.094,16.979,2.985,18.08,2.985z"/>
			<circle fill="#383838" cx="18.08" cy="0.994" r="0.996"/>
		</g>
		<g id="W4xpin">
			<path fill="#BFBFBF" d="M24.074-0.002c0.55,0,0.996,0.444,0.996,0.996h0.996c0-1.101-0.895-1.992-1.991-1.992
				c-1.099,0-1.992,0.893-1.992,1.992h0.995C23.077,0.442,23.523-0.002,24.074-0.002z"/>
			<path fill="#E6E6E6" d="M24.074,2.985c1.1,0,1.99-0.893,1.99-1.991h-0.996c0,0.549-0.444,0.996-0.995,0.996
				c-0.552,0-0.997-0.445-0.997-0.996h-0.994C22.082,2.094,22.973,2.985,24.074,2.985z"/>
			<circle fill="#383838" cx="24.074" cy="0.994" r="0.996"/>
		</g>
		<g id="W5xpin">
			<path fill="#BFBFBF" d="M30.066-0.002c0.552,0,0.996,0.444,0.996,0.996h0.996c0-1.101-0.894-1.992-1.992-1.992
				c-1.102,0-1.99,0.893-1.99,1.992h0.996C29.07,0.442,29.518-0.002,30.066-0.002z"/>
			<path fill="#E6E6E6" d="M30.066,2.985c1.102,0,1.992-0.893,1.992-1.991h-0.996c0,0.549-0.444,0.996-0.996,0.996
				c-0.549,0-0.996-0.445-0.996-0.996h-0.995C28.076,2.094,28.967,2.985,30.066,2.985z"/>
			<circle fill="#383838" cx="30.066" cy="0.994" r="0.996"/>
		</g>
		<g id="W6xpin">
			<path fill="#BFBFBF" d="M36.061-0.002c0.549,0,0.996,0.444,0.996,0.996h0.996c0-1.101-0.892-1.992-1.992-1.992
				c-1.1,0-1.992,0.893-1.992,1.992h0.996C35.064,0.442,35.512-0.002,36.061-0.002z"/>
			<path fill="#E6E6E6" d="M36.061,2.985c1.103,0,1.992-0.893,1.992-1.991h-0.996c0,0.549-0.447,0.996-0.998,0.996
				c-0.549,0-0.996-0.445-0.996-0.996h-0.996C34.068,2.094,34.96,2.985,36.061,2.985z"/>
			<circle fill="#383838" cx="36.061" cy="0.994" r="0.996"/>
		</g>
		<g id="X2xpin">
			<path fill="#BFBFBF" d="M12.085,5.99c0.55,0,0.996,0.446,0.996,0.997h0.996c0-1.1-0.892-1.991-1.992-1.991
				s-1.991,0.893-1.991,1.991h0.995C11.088,6.438,11.536,5.99,12.085,5.99z"/>
			<path fill="#E6E6E6" d="M12.085,8.979c1.101,0,1.992-0.894,1.992-1.992h-0.996c0,0.55-0.446,0.996-0.996,0.996
				s-0.997-0.444-0.997-0.996h-0.996C10.094,8.088,10.984,8.979,12.085,8.979z"/>
			<circle fill="#383838" cx="12.085" cy="6.987" r="0.997"/>
		</g>
		<g id="X3xpin">
			<path fill="#BFBFBF" d="M18.08,5.99c0.55,0,0.997,0.446,0.997,0.997h0.996c0-1.1-0.894-1.991-1.992-1.991
				s-1.992,0.893-1.992,1.991h0.996C17.083,6.438,17.529,5.99,18.08,5.99z"/>
			<path fill="#E6E6E6" d="M18.08,8.979c1.102,0,1.992-0.894,1.992-1.992h-0.996c0,0.55-0.446,0.996-0.997,0.996
				c-0.552,0-0.996-0.444-0.996-0.996h-0.996C16.087,8.088,16.979,8.979,18.08,8.979z"/>
			<circle fill="#383838" cx="18.08" cy="6.987" r="0.997"/>
		</g>
		<g id="X4xpin">
			<path fill="#BFBFBF" d="M24.074,5.99c0.55,0,0.996,0.446,0.996,0.997h0.996c0-1.1-0.895-1.991-1.991-1.991
				c-1.099,0-1.992,0.893-1.992,1.991h0.995C23.077,6.438,23.523,5.99,24.074,5.99z"/>
			<path fill="#E6E6E6" d="M24.074,8.979c1.1,0,1.99-0.894,1.99-1.992h-0.996c0,0.55-0.444,0.996-0.995,0.996
				c-0.552,0-0.997-0.444-0.997-0.996h-0.994C22.082,8.088,22.973,8.979,24.074,8.979z"/>
			<circle fill="#383838" cx="24.074" cy="6.987" r="0.997"/>
		</g>
		<g id="X5xpin">
			<path fill="#BFBFBF" d="M30.066,5.99c0.552,0,0.996,0.446,0.996,0.997h0.996c0-1.1-0.894-1.991-1.992-1.991
				c-1.102,0-1.99,0.893-1.99,1.991h0.996C29.07,6.438,29.518,5.99,30.066,5.99z"/>
			<path fill="#E6E6E6" d="M30.066,8.979c1.102,0,1.992-0.894,1.992-1.992h-0.996c0,0.55-0.444,0.996-0.996,0.996
				c-0.549,0-0.996-0.444-0.996-0.996h-0.995C28.076,8.088,28.967,8.979,30.066,8.979z"/>
			<circle fill="#383838" cx="30.066" cy="6.987" r="0.997"/>
		</g>
		<g id="X6xpin">
			<path fill="#BFBFBF" d="M36.061,5.99c0.549,0,0.996,0.446,0.996,0.997h0.996c0-1.1-0.892-1.991-1.992-1.991
				c-1.1,0-1.992,0.893-1.992,1.991h0.996C35.064,6.438,35.512,5.99,36.061,5.99z"/>
			<path fill="#E6E6E6" d="M36.061,8.979c1.103,0,1.992-0.894,1.992-1.992h-0.996c0,0.55-0.447,0.996-0.998,0.996
				c-0.549,0-0.996-0.444-0.996-0.996h-0.996C34.068,8.088,34.96,8.979,36.061,8.979z"/>
			<circle fill="#383838" cx="36.061" cy="6.987" r="0.997"/>
		</g>
	</g>
</g>
</svg>
