<?xml version="1.0" encoding="utf-8"?>
<!-- Generator: Adobe Illustrator 16.0.0, SVG Export Plug-In . SVG Version: 6.00 Build 0)  -->
<svg version="1.2" baseProfile="tiny" id="Layer_1" xmlns="http://www.w3.org/2000/svg" xmlns:xlink="http://www.w3.org/1999/xlink"
	 x="0px" y="0px" width="78px" height="78px" viewBox="0 0 78 78" xml:space="preserve">
<g id="icon">
	<rect fill="#0F7391" width="78" height="78"/>
	<g>
		<path fill="#FFFFFF" stroke="#FFFFFF" stroke-miterlimit="10" d="M11.831,25.817c-1.562,0-2.867,0.554-3.926,1.666
			c-1.055,1.11-1.582,2.993-1.582,5.642v3.306c0,2.438,0.48,4.262,1.445,5.469c0.957,1.209,2.313,1.812,4.074,1.812
			c0.912,0,1.724-0.032,2.437-0.086c0.71-0.056,1.258-0.106,1.631-0.149v-8.479c0-0.337,0.15-0.507,0.456-0.507h0.259
			c0.303,0,0.458,0.17,0.458,0.507v8.985c0,0.129-0.046,0.242-0.137,0.34c-0.094,0.097-0.197,0.152-0.32,0.171
			c-0.867,0.104-1.643,0.188-2.33,0.245c-0.685,0.064-1.504,0.095-2.449,0.095c-1.305,0-2.455-0.296-3.458-0.896
			c-0.998-0.594-1.792-1.523-2.369-2.787c-0.577-1.262-0.865-2.836-0.865-4.718v-3.306c0-2.086,0.32-3.753,0.965-5.004
			c0.64-1.252,1.465-2.13,2.47-2.64c1.004-0.503,2.088-0.759,3.243-0.759c0.978,0,1.949,0.123,2.923,0.364
			c0.97,0.244,1.669,0.478,2.093,0.702c0.179,0.079,0.3,0.156,0.387,0.229c0.083,0.074,0.119,0.175,0.119,0.309v0.231
			c0,0.182-0.037,0.296-0.116,0.338c-0.081,0.042-0.208,0.041-0.392-0.013c-0.807-0.294-1.61-0.547-2.412-0.751
			C13.638,25.918,12.772,25.817,11.831,25.817"/>
		<path fill="#FFFFFF" stroke="#FFFFFF" stroke-miterlimit="10" d="M24.952,31.235c-0.586,0-1.192,0.072-1.82,0.208
			c-0.632,0.14-1.176,0.298-1.646,0.481c-0.375,0.147-0.561,0.061-0.561-0.261v-0.17c0-0.267,0.166-0.463,0.495-0.585
			c0.452-0.161,0.994-0.319,1.625-0.47c0.633-0.147,1.283-0.217,1.952-0.217c1.188,0,2.135,0.169,2.842,0.512
			c0.709,0.344,1.217,0.876,1.529,1.599c0.319,0.717,0.477,1.654,0.477,2.8v8.583c0,0.162-0.028,0.291-0.087,0.377
			c-0.049,0.086-0.158,0.146-0.312,0.182c-1.356,0.373-2.695,0.563-4.022,0.563c-1.316,0-2.378-0.15-3.175-0.456
			c-0.795-0.303-1.366-0.767-1.703-1.392c-0.34-0.625-0.508-1.436-0.508-2.432v-0.351c0-1.433,0.502-2.47,1.506-3.124
			c1.002-0.647,2.696-0.973,5.086-0.973h2.042V35.14c0-1.044-0.127-1.853-0.388-2.423c-0.265-0.57-0.658-0.963-1.186-1.171
			C26.565,31.339,25.854,31.235,24.952,31.235 M28.674,43.479v-6.332h-2.042c-2.019,0-3.419,0.222-4.208,0.666
			c-0.791,0.441-1.187,1.239-1.187,2.384v0.355c0,0.768,0.113,1.383,0.344,1.842c0.22,0.455,0.635,0.801,1.242,1.039
			c0.601,0.237,1.473,0.358,2.614,0.358c0.579,0,1.176-0.035,1.786-0.104C27.832,43.616,28.32,43.546,28.674,43.479"/>
		<path fill="#FFFFFF" stroke="#FFFFFF" stroke-miterlimit="10" d="M34.483,44.167c0,0.142-0.042,0.258-0.12,0.356
			c-0.084,0.097-0.19,0.149-0.319,0.149h-0.275c-0.125,0-0.238-0.053-0.324-0.155c-0.088-0.104-0.132-0.222-0.132-0.353V25.358
			c0-0.127,0.044-0.245,0.132-0.352c0.086-0.105,0.195-0.156,0.324-0.156h0.275c0.129,0,0.235,0.045,0.319,0.142
			c0.078,0.095,0.12,0.218,0.12,0.363V44.167z"/>
		<path fill="#FFFFFF" stroke="#FFFFFF" stroke-miterlimit="10" d="M39.392,27.211c0,0.134-0.047,0.255-0.143,0.351
			c-0.096,0.094-0.209,0.144-0.353,0.144h-0.167c-0.138,0-0.258-0.051-0.355-0.149c-0.103-0.101-0.155-0.217-0.155-0.346v-1.98
			c0-0.13,0.056-0.248,0.159-0.351c0.104-0.107,0.221-0.158,0.353-0.158H38.9c0.13,0,0.246,0.05,0.351,0.149
			c0.096,0.101,0.145,0.218,0.145,0.36v1.98H39.392z M39.392,44.167c0,0.142-0.049,0.258-0.146,0.356
			c-0.103,0.097-0.217,0.149-0.351,0.149h-0.167c-0.128,0-0.249-0.053-0.353-0.155c-0.103-0.104-0.159-0.222-0.159-0.353V30.86
			c0-0.135,0.056-0.25,0.159-0.357c0.104-0.104,0.221-0.156,0.353-0.156h0.167c0.132,0,0.248,0.051,0.351,0.151
			c0.097,0.102,0.146,0.222,0.146,0.363V44.167z"/>
		<path fill="#FFFFFF" stroke="#FFFFFF" stroke-miterlimit="10" d="M44.302,44.167c0,0.142-0.038,0.258-0.12,0.356
			c-0.084,0.097-0.189,0.149-0.322,0.149h-0.271c-0.132,0-0.238-0.053-0.328-0.155c-0.086-0.104-0.128-0.222-0.128-0.353V25.358
			c0-0.127,0.042-0.245,0.128-0.352c0.09-0.105,0.196-0.156,0.328-0.156h0.271c0.133,0,0.238,0.045,0.322,0.142
			c0.082,0.095,0.12,0.218,0.12,0.363V44.167z"/>
		<path fill="#FFFFFF" stroke="#FFFFFF" stroke-miterlimit="10" d="M58.072,37.29c0,0.148-0.053,0.27-0.151,0.363
			c-0.099,0.098-0.216,0.142-0.356,0.142h-9.01v0.563c0,2.048,0.412,3.468,1.24,4.25c0.829,0.787,1.965,1.18,3.406,1.18
			c1.293,0,2.68-0.309,4.154-0.924c0.14-0.063,0.25-0.066,0.334-0.023c0.082,0.043,0.125,0.111,0.125,0.207v0.327
			c0,0.142-0.035,0.242-0.101,0.312c-0.069,0.069-0.2,0.162-0.412,0.273c-0.315,0.146-0.692,0.285-1.143,0.416
			c-0.455,0.132-0.956,0.238-1.503,0.327c-0.545,0.088-1.032,0.132-1.456,0.132c-1.743,0-3.151-0.496-4.22-1.484
			c-1.067-0.988-1.604-2.654-1.604-4.99v-1.772c0-1.231,0.209-2.331,0.625-3.295c0.419-0.961,1.036-1.715,1.852-2.257
			c0.813-0.544,1.787-0.815,2.918-0.815c1.178,0,2.168,0.259,2.965,0.782c0.802,0.52,1.391,1.26,1.769,2.211
			c0.375,0.953,0.565,2.071,0.565,3.351v0.726L58.072,37.29L58.072,37.29z M56.898,36.73v-0.167c0-1.767-0.319-3.092-0.963-3.976
			c-0.644-0.885-1.699-1.328-3.166-1.328c-0.969,0-1.761,0.219-2.391,0.656c-0.62,0.44-1.084,1.061-1.384,1.863
			c-0.3,0.804-0.446,1.741-0.446,2.807v0.145H56.898z"/>
		<path fill="#FFFFFF" stroke="#FFFFFF" stroke-miterlimit="10" d="M71.473,38.464c0,1.334-0.205,2.481-0.611,3.437
			c-0.41,0.957-1.024,1.686-1.852,2.188c-0.826,0.495-1.834,0.745-3.031,0.745c-1.196,0-2.213-0.25-3.033-0.745
			c-0.829-0.502-1.439-1.229-1.848-2.188c-0.414-0.955-0.615-2.103-0.615-3.437v-1.878c0-1.336,0.201-2.484,0.615-3.438
			c0.407-0.956,1.019-1.684,1.848-2.182c0.824-0.5,1.84-0.747,3.033-0.747c1.198,0,2.207,0.248,3.031,0.747
			c0.825,0.5,1.443,1.226,1.852,2.182c0.406,0.954,0.611,2.101,0.611,3.438V38.464z M70.299,38.464v-1.878
			c0-1.111-0.142-2.063-0.434-2.858c-0.291-0.795-0.758-1.402-1.395-1.833c-0.637-0.422-1.475-0.636-2.492-0.636
			c-1.029,0-1.854,0.214-2.496,0.636c-0.637,0.431-1.104,1.038-1.395,1.833c-0.285,0.794-0.438,1.748-0.438,2.858v1.878
			c0,1.709,0.352,3.026,1.033,3.942c0.685,0.924,1.782,1.381,3.299,1.381c1.508,0,2.604-0.459,3.289-1.381
			C69.957,41.491,70.299,40.173,70.299,38.464"/>
		<path fill="#FFFFFF" d="M71.706,27.874v1.438h-0.272v-1.438h-0.52v-0.228h1.313v0.228H71.706z M74.118,29.312v-1.381h-0.011
			l-0.543,1.381h-0.172l-0.547-1.381h-0.008v1.381h-0.273v-1.666h0.424l0.496,1.264l0.486-1.264h0.416v1.666H74.118z"/>
	</g>
	<g>
		<g>
			<path fill="#FFFFFF" d="M18.262,72.442c-5.233,0.48-10.686-0.279-11.451-4.367c-0.372-2.017,0.546-4.149,1.766-5.482v-0.709
				c-2.193,1.928-3.381,4.362-2.697,7.234c0.875,3.69,5.552,5.78,12.698,5.087c2.828-0.273,6.525-1.185,9.097-2.597v-2.007
				C25.339,70.996,21.476,72.144,18.262,72.442 M32.044,61.834c-1.241-6.057-13.005-6.442-20.59-1.823v0.508
				c7.577-3.894,18.32-3.87,19.299,1.712c0.327,1.847-0.713,3.771-2.568,4.881v1.446C30.419,67.736,32.711,65.084,32.044,61.834"/>
			<path fill="#FFFFFF" d="M27.25,60.952h-1.372v6.11c0,0.714,0.347,1.338,1.372,1.437V60.952z"/>
			<path fill="#FFFFFF" d="M10.916,63.185H9.541v3.991c0,0.718,0.347,1.339,1.375,1.438V63.185z"/>
			<rect x="9.541" y="61.141" fill="#FFFFFF" width="1.371" height="1.3"/>
			<path fill="#FFFFFF" d="M19.133,68.551c-1.109,0-1.582-0.772-1.582-1.531v-5.302h1.36v1.466h1.024v1.098h-1.024v2.653
				c0,0.311,0.147,0.483,0.47,0.483h0.554v1.133H19.133"/>
			<path fill="#FFFFFF" d="M21.634,66.292c0,0.696,0.435,1.208,1.204,1.208c0.605,0,0.902-0.168,1.249-0.512l0.84,0.799
				c-0.537,0.534-1.104,0.858-2.099,0.858c-1.298,0-2.548-0.711-2.548-2.78c0-1.771,1.088-2.772,2.518-2.772
				c1.455,0,2.286,1.172,2.286,2.71v0.489H21.634 M22.738,64.218c-0.465,0-0.823,0.238-0.974,0.562
				c-0.089,0.192-0.121,0.346-0.132,0.584h2.098C23.705,64.781,23.438,64.218,22.738,64.218"/>
			<path fill="#FFFFFF" d="M14.609,64.281c0.399,0,0.565,0.198,0.565,0.519v3.761h1.359v-3.769c0-0.763-0.409-1.607-1.601-1.607
				h-2.81v5.373h1.359v-4.278h1.126V64.281z"/>
			<path fill="#FFFFFF" d="M28.726,62.048c-0.301,0-0.541-0.245-0.541-0.55c0-0.301,0.24-0.546,0.541-0.546s0.549,0.245,0.549,0.546
				C29.274,61.803,29.027,62.048,28.726,62.048 M28.726,61.044c-0.249,0-0.449,0.208-0.449,0.454c0,0.252,0.201,0.452,0.449,0.452
				c0.249,0,0.457-0.2,0.457-0.452C29.183,61.252,28.977,61.044,28.726,61.044 M28.967,61.827h-0.102
				c-0.01,0-0.017-0.006-0.022-0.015l-0.137-0.236c-0.005-0.003-0.017-0.01-0.021-0.01h-0.038h-0.024v0.236
				c0,0.01-0.009,0.024-0.023,0.024h-0.09c-0.019,0-0.026-0.015-0.026-0.024v-0.591c0-0.034,0.01-0.052,0.044-0.055
				c0.031-0.002,0.117-0.007,0.166-0.007c0.171,0,0.27,0.049,0.27,0.208v0.012c0,0.1-0.05,0.151-0.123,0.175l0.145,0.244
				c0.001,0.003,0.004,0.014,0.004,0.02C28.991,61.816,28.987,61.827,28.967,61.827 M28.837,61.358c0-0.065-0.045-0.085-0.13-0.085
				h-0.064h-0.024v0.187c0.014,0,0.078,0,0.088,0c0.085,0,0.13-0.025,0.13-0.09V61.358L28.837,61.358z"/>
		</g>
		<g>
			<g id="_x30_.1.0.96.0.0">
				<path id="_x30_.1.0.96.0.0.0" fill="#FFFFFF" d="M56.453,62.592c0.914-1.002,1.615-1.916,2.459-2.672
					c3.197-2.861,6.799-3.924,10.92-2.188c3.9,1.643,6.01,5.707,5.162,9.853c-0.783,3.825-4.461,6.739-8.478,6.876
					c-3.722,0.126-6.519-1.539-8.85-4.24c-0.356-0.415-0.696-0.848-1.146-1.398c-0.322,0.378-0.573,0.666-0.817,0.969
					c-2.492,3.141-5.59,4.924-9.752,4.656c-4.08-0.262-7.812-4.01-8.062-8.085c-0.325-5.165,3.616-9.405,9.089-9.452
					c3.624-0.031,6.457,1.84,8.668,4.658C55.887,61.877,56.131,62.184,56.453,62.592z"/>
				<path id="_x30_.1.0.96.0.0.1" fill="#0F7391" d="M47.504,59.777c-3.768-0.006-6.521,2.411-6.824,5.533
					c-0.271,2.77,1.928,5.537,4.954,6.193c2.981,0.646,5.364-0.592,7.16-2.756c2.759-3.313,2.659-2.74,0.034-6.027
					C51.369,60.893,49.377,59.869,47.504,59.777z"/>
				<path id="_x30_.1.0.96.0.0.2" fill="#0F7391" d="M66.178,59.752c-0.461,0.033-0.798,0.021-1.122,0.086
					c-3.196,0.646-5.2,2.768-6.706,5.479c-0.117,0.213-0.121,0.607-0.004,0.815c1.36,2.353,3.059,4.368,5.765,5.218
					c2.622,0.822,4.918,0.143,6.727-1.869c1.621-1.807,1.989-3.941,0.917-6.166C70.617,60.961,68.592,59.923,66.178,59.752z"/>
			</g>
			<g id="_x30_.1.0.96.0.1">
				<path id="_x30_.1.0.96.0.1.0" fill="#FFFFFF" d="M50.2,66.381c0,0.084-0.067,0.152-0.153,0.152h-5.57
					c-0.085,0-0.157-0.068-0.157-0.152v-1.683c0-0.085,0.068-0.153,0.157-0.153h5.57c0.084,0,0.153,0.068,0.153,0.153V66.381z"/>
			</g>
			<g id="_x30_.1.0.96.0.2">
				<path id="_x30_.1.0.96.0.2.0" fill="#FFFFFF" d="M68.599,64.7c0-0.084-0.068-0.153-0.155-0.153h-1.641
					c-0.082,0-0.154-0.068-0.154-0.152v-1.64c0-0.085-0.068-0.153-0.152-0.153h-1.686c-0.084,0-0.154,0.068-0.154,0.153v1.64
					c0,0.084-0.068,0.152-0.154,0.152h-1.639c-0.084,0-0.157,0.069-0.157,0.153v1.683c0,0.084,0.068,0.153,0.157,0.153h1.639
					c0.084,0,0.154,0.069,0.154,0.153v1.639c0,0.083,0.068,0.152,0.154,0.152h1.686c0.082,0,0.152-0.069,0.152-0.152v-1.639
					c0-0.084,0.068-0.153,0.154-0.153h1.641c0.084,0,0.155-0.069,0.155-0.153V64.7z"/>
			</g>
		</g>
	</g>
</g>
</svg>
