<?xml version="1.0" encoding="utf-8"?>
<!-- Generator: Adobe Illustrator 16.0.0, SVG Export Plug-In . SVG Version: 6.00 Build 0)  -->
<!DOCTYPE svg PUBLIC "-//W3C//DTD SVG 1.1//EN" "http://www.w3.org/Graphics/SVG/1.1/DTD/svg11.dtd">
<svg version="1.1" id="Layer_1" xmlns="http://www.w3.org/2000/svg" xmlns:xlink="http://www.w3.org/1999/xlink" x="0px" y="0px"
	 width="32px" height="32px" viewBox="0 0 32 32" enable-background="new 0 0 32 32" xml:space="preserve">
<g id="icon">
	<rect fill="#0F7391" width="32" height="32"/>
	<g>
		<path fill="#FFFFFF" stroke="#FFFFFF" stroke-width="0.2" stroke-miterlimit="10" d="M4.854,8.59c-0.641,0-1.176,0.227-1.61,0.683
			c-0.433,0.456-0.649,1.228-0.649,2.315v1.356c0,1,0.197,1.75,0.593,2.244c0.393,0.496,0.949,0.744,1.671,0.744
			c0.374,0,0.707-0.014,1-0.035c0.292-0.023,0.516-0.045,0.669-0.063v-3.478c0-0.139,0.062-0.208,0.187-0.208H6.82
			c0.125,0,0.188,0.069,0.188,0.208v3.686c0,0.054-0.019,0.101-0.056,0.14c-0.039,0.041-0.081,0.063-0.131,0.07
			c-0.355,0.042-0.674,0.077-0.956,0.1c-0.281,0.027-0.617,0.041-1.005,0.041c-0.536,0-1.007-0.123-1.418-0.369
			c-0.41-0.242-0.735-0.625-0.972-1.143c-0.237-0.518-0.355-1.164-0.355-1.936v-1.357c0-0.855,0.131-1.54,0.396-2.053
			c0.263-0.514,0.601-0.874,1.013-1.083C3.936,8.245,4.381,8.14,4.855,8.14c0.401,0,0.8,0.051,1.199,0.149
			c0.398,0.1,0.685,0.196,0.859,0.288c0.073,0.032,0.123,0.064,0.159,0.094c0.034,0.031,0.049,0.072,0.049,0.127v0.095
			c0,0.075-0.015,0.122-0.048,0.139C7.04,9.049,6.988,9.049,6.912,9.027c-0.331-0.121-0.661-0.225-0.99-0.308
			C5.595,8.631,5.24,8.59,4.854,8.59"/>
		<path fill="#FFFFFF" stroke="#FFFFFF" stroke-width="0.2" stroke-miterlimit="10" d="M10.237,10.812
			c-0.24,0-0.489,0.029-0.747,0.085c-0.259,0.058-0.482,0.123-0.676,0.198c-0.154,0.06-0.23,0.025-0.23-0.107v-0.07
			c0-0.11,0.068-0.19,0.203-0.24c0.186-0.066,0.408-0.131,0.667-0.193c0.26-0.06,0.527-0.089,0.801-0.089
			c0.487,0,0.875,0.069,1.166,0.21s0.5,0.359,0.627,0.656c0.131,0.294,0.196,0.678,0.196,1.148v3.521
			c0,0.066-0.012,0.119-0.036,0.154c-0.02,0.035-0.065,0.061-0.128,0.075c-0.556,0.153-1.105,0.231-1.65,0.231
			c-0.54,0-0.976-0.062-1.302-0.188c-0.326-0.124-0.561-0.314-0.699-0.57c-0.14-0.257-0.208-0.59-0.208-0.998v-0.145
			c0-0.588,0.206-1.013,0.618-1.282c0.411-0.265,1.106-0.399,2.087-0.399h0.837v-0.397c0-0.428-0.052-0.76-0.159-0.994
			c-0.108-0.234-0.27-0.395-0.486-0.48C10.898,10.855,10.607,10.812,10.237,10.812 M11.764,15.835v-2.597h-0.838
			c-0.828,0-1.402,0.091-1.726,0.273c-0.325,0.181-0.487,0.508-0.487,0.978v0.146c0,0.315,0.046,0.567,0.141,0.756
			c0.09,0.187,0.261,0.328,0.51,0.426c0.247,0.097,0.604,0.146,1.072,0.146c0.238,0,0.482-0.014,0.733-0.042
			C11.418,15.893,11.618,15.863,11.764,15.835"/>
		<path fill="#FFFFFF" stroke="#FFFFFF" stroke-width="0.2" stroke-miterlimit="10" d="M14.147,16.118
			c0,0.058-0.018,0.106-0.049,0.146c-0.035,0.041-0.078,0.062-0.131,0.062h-0.113c-0.051,0-0.098-0.022-0.133-0.063
			c-0.036-0.043-0.054-0.091-0.054-0.145V8.402c0-0.052,0.018-0.101,0.054-0.145c0.036-0.043,0.081-0.064,0.133-0.064h0.113
			c0.053,0,0.096,0.019,0.131,0.059c0.032,0.039,0.049,0.089,0.049,0.148V16.118z"/>
		<path fill="#FFFFFF" stroke="#FFFFFF" stroke-width="0.2" stroke-miterlimit="10" d="M16.161,9.162
			c0,0.055-0.019,0.104-0.059,0.144c-0.04,0.038-0.085,0.059-0.145,0.059h-0.069c-0.057,0-0.105-0.021-0.146-0.061
			c-0.042-0.042-0.063-0.089-0.063-0.142V8.349c0-0.053,0.023-0.102,0.065-0.144c0.043-0.044,0.091-0.064,0.145-0.064h0.069
			c0.053,0,0.101,0.021,0.144,0.061c0.04,0.042,0.06,0.089,0.06,0.147L16.161,9.162L16.161,9.162z M16.161,16.118
			c0,0.058-0.02,0.106-0.06,0.146c-0.042,0.041-0.089,0.062-0.144,0.062h-0.068c-0.053,0-0.103-0.022-0.145-0.063
			c-0.042-0.043-0.065-0.091-0.065-0.145v-5.458c0-0.056,0.023-0.103,0.065-0.146s0.091-0.064,0.145-0.064h0.068
			c0.054,0,0.102,0.021,0.144,0.062c0.04,0.042,0.06,0.091,0.06,0.148V16.118z"/>
		<path fill="#FFFFFF" stroke="#FFFFFF" stroke-width="0.2" stroke-miterlimit="10" d="M18.175,16.118
			c0,0.058-0.016,0.106-0.049,0.146c-0.035,0.041-0.078,0.062-0.132,0.062h-0.111c-0.054,0-0.098-0.022-0.134-0.063
			c-0.036-0.043-0.054-0.091-0.054-0.145V8.402c0-0.052,0.019-0.101,0.054-0.145c0.037-0.043,0.08-0.064,0.134-0.064h0.111
			c0.055,0,0.098,0.019,0.132,0.059c0.034,0.039,0.049,0.089,0.049,0.148V16.118z"/>
		<path fill="#FFFFFF" stroke="#FFFFFF" stroke-width="0.2" stroke-miterlimit="10" d="M23.825,13.296
			c0,0.061-0.022,0.111-0.063,0.149c-0.039,0.041-0.088,0.059-0.146,0.059H19.92v0.23c0,0.841,0.169,1.423,0.51,1.745
			c0.34,0.322,0.805,0.483,1.396,0.483c0.529,0,1.099-0.127,1.703-0.379c0.059-0.026,0.104-0.026,0.138-0.009
			s0.051,0.046,0.051,0.085v0.134c0,0.059-0.015,0.1-0.042,0.128s-0.082,0.067-0.169,0.112c-0.129,0.061-0.282,0.117-0.469,0.171
			s-0.392,0.097-0.617,0.134c-0.224,0.036-0.423,0.055-0.597,0.055c-0.715,0-1.293-0.205-1.731-0.609
			c-0.438-0.405-0.657-1.09-0.657-2.047v-0.727c0-0.505,0.084-0.956,0.256-1.352c0.172-0.395,0.425-0.704,0.76-0.926
			c0.333-0.224,0.732-0.334,1.197-0.334c0.483,0,0.89,0.106,1.215,0.321c0.33,0.213,0.572,0.517,0.727,0.907
			c0.154,0.391,0.23,0.85,0.23,1.375v0.298L23.825,13.296L23.825,13.296z M23.343,13.067v-0.069c0-0.725-0.131-1.268-0.395-1.631
			c-0.265-0.363-0.697-0.545-1.3-0.545c-0.397,0-0.723,0.09-0.98,0.27c-0.254,0.181-0.445,0.436-0.568,0.764
			c-0.123,0.33-0.183,0.714-0.183,1.152v0.06H23.343z"/>
		<path fill="#FFFFFF" stroke="#FFFFFF" stroke-width="0.2" stroke-miterlimit="10" d="M29.322,13.778
			c0,0.547-0.084,1.018-0.252,1.41c-0.168,0.394-0.42,0.692-0.76,0.898c-0.338,0.203-0.752,0.307-1.242,0.307
			c-0.491,0-0.908-0.104-1.245-0.307c-0.341-0.206-0.591-0.504-0.759-0.898c-0.17-0.392-0.252-0.862-0.252-1.41v-0.77
			c0-0.548,0.084-1.019,0.252-1.411s0.418-0.691,0.759-0.895c0.338-0.205,0.755-0.307,1.245-0.307s0.904,0.102,1.242,0.307
			c0.34,0.205,0.592,0.503,0.76,0.895s0.252,0.862,0.252,1.411V13.778z M28.84,13.778v-0.77c0-0.456-0.058-0.847-0.178-1.173
			c-0.119-0.326-0.311-0.575-0.572-0.752c-0.261-0.173-0.605-0.261-1.021-0.261c-0.422,0-0.762,0.088-1.024,0.261
			c-0.261,0.177-0.453,0.426-0.571,0.752c-0.117,0.326-0.181,0.717-0.181,1.173v0.771c0,0.701,0.146,1.241,0.424,1.618
			c0.281,0.379,0.731,0.565,1.354,0.565c0.619,0,1.068-0.188,1.35-0.565C28.7,15.02,28.84,14.479,28.84,13.778"/>
		<path fill="#FFFFFF" d="M29.418,9.434v0.59h-0.111v-0.59h-0.214V9.34h0.539v0.094H29.418z M30.407,10.023V9.457h-0.005
			l-0.223,0.566h-0.07l-0.225-0.566h-0.003v0.566H29.77V9.339h0.174l0.205,0.519l0.199-0.519h0.17v0.684H30.407z"/>
	</g>
	<g>
		<g>
			<path fill="#FFFFFF" d="M7.492,29.721c-2.147,0.196-4.384-0.115-4.698-1.793c-0.153-0.826,0.224-1.701,0.725-2.248v-0.291
				c-0.9,0.791-1.387,1.789-1.107,2.967c0.359,1.514,2.278,2.371,5.209,2.086c1.16-0.111,2.677-0.486,3.732-1.065v-0.823
				C10.396,29.126,8.811,29.598,7.492,29.721 M13.146,25.368c-0.509-2.485-5.335-2.644-8.447-0.748v0.208
				c3.108-1.598,7.516-1.588,7.917,0.701c0.134,0.759-0.292,1.548-1.054,2.002v0.595C12.479,27.789,13.42,26.701,13.146,25.368"/>
			<path fill="#FFFFFF" d="M11.18,25.006h-0.563v2.508c0,0.291,0.142,0.549,0.563,0.588V25.006z"/>
			<path fill="#FFFFFF" d="M4.479,25.922H3.914v1.637c0,0.295,0.143,0.551,0.564,0.59L4.479,25.922L4.479,25.922z"/>
			<rect x="3.914" y="25.083" fill="#FFFFFF" width="0.563" height="0.534"/>
			<path fill="#FFFFFF" d="M7.85,28.124c-0.455,0-0.649-0.317-0.649-0.628V25.32h0.558v0.601h0.42v0.45h-0.42v1.089
				c0,0.127,0.061,0.198,0.193,0.198H8.18v0.465L7.85,28.124"/>
			<path fill="#FFFFFF" d="M8.875,27.197c0,0.285,0.178,0.496,0.494,0.496c0.249,0,0.371-0.069,0.513-0.211l0.345,0.328
				c-0.22,0.219-0.453,0.353-0.861,0.353c-0.533,0-1.045-0.292-1.045-1.142c0-0.727,0.447-1.137,1.033-1.137
				c0.597,0,0.938,0.48,0.938,1.111v0.201H8.875 M9.328,26.346c-0.19,0-0.337,0.098-0.399,0.23c-0.037,0.078-0.049,0.143-0.054,0.24
				h0.861C9.725,26.577,9.616,26.346,9.328,26.346"/>
			<path fill="#FFFFFF" d="M5.993,26.372c0.164,0,0.232,0.081,0.232,0.213v1.543h0.558v-1.546c0-0.313-0.167-0.659-0.657-0.659
				H4.973v2.204h0.558v-1.755H5.993L5.993,26.372L5.993,26.372z"/>
			<path fill="#FFFFFF" d="M11.785,25.456c-0.124,0-0.222-0.101-0.222-0.226s0.099-0.225,0.222-0.225s0.225,0.102,0.225,0.225
				C12.01,25.355,11.908,25.456,11.785,25.456 M11.785,25.043c-0.102,0-0.185,0.085-0.185,0.188c0,0.104,0.083,0.186,0.185,0.186
				s0.188-0.082,0.188-0.186C11.973,25.129,11.888,25.043,11.785,25.043 M11.884,25.365h-0.042c-0.004,0-0.007-0.004-0.009-0.006
				l-0.056-0.098c-0.002-0.002-0.007-0.004-0.009-0.004h-0.016h-0.01v0.098c0,0.004-0.004,0.01-0.009,0.01h-0.037
				c-0.008,0-0.011-0.006-0.011-0.01v-0.244c0-0.014,0.004-0.021,0.018-0.021c0.013-0.001,0.048-0.003,0.068-0.003
				c0.07,0,0.111,0.021,0.111,0.086v0.005c0,0.041-0.021,0.063-0.051,0.072l0.06,0.1c0,0.002,0.002,0.006,0.002,0.008
				C11.894,25.359,11.892,25.365,11.884,25.365 M11.831,25.172c0-0.025-0.019-0.035-0.053-0.035h-0.026h-0.01v0.077
				c0.005,0,0.032,0,0.036,0c0.035,0,0.053-0.01,0.053-0.036V25.172L11.831,25.172z"/>
		</g>
		<g>
			<g id="_x30_.1.0.96.0.0">
				<path id="_x30_.1.0.96.0.0.0" fill="#FFFFFF" d="M23.16,25.68c0.375-0.412,0.663-0.787,1.009-1.097
					c1.312-1.174,2.79-1.61,4.479-0.897c1.601,0.674,2.467,2.342,2.119,4.043c-0.322,1.568-1.83,2.765-3.479,2.82
					c-1.527,0.053-2.674-0.631-3.631-1.738c-0.146-0.17-0.285-0.349-0.471-0.574c-0.131,0.154-0.234,0.272-0.334,0.397
					c-1.022,1.289-2.293,2.021-4.002,1.91c-1.674-0.106-3.205-1.646-3.307-3.315c-0.134-2.121,1.482-3.859,3.729-3.879
					c1.486-0.013,2.649,0.756,3.557,1.912C22.928,25.385,23.027,25.512,23.16,25.68z"/>
				<path id="_x30_.1.0.96.0.0.1" fill="#0F7391" d="M19.488,24.523c-1.545-0.002-2.674,0.99-2.799,2.271
					c-0.111,1.136,0.791,2.272,2.033,2.541c1.223,0.265,2.2-0.243,2.938-1.13c1.132-1.359,1.091-1.125,0.014-2.473
					C21.075,24.98,20.257,24.563,19.488,24.523z"/>
				<path id="_x30_.1.0.96.0.0.2" fill="#0F7391" d="M27.15,24.514c-0.189,0.014-0.328,0.01-0.461,0.035
					c-1.312,0.266-2.133,1.135-2.75,2.248c-0.049,0.087-0.051,0.25-0.002,0.334c0.558,0.965,1.254,1.792,2.365,2.141
					c1.075,0.338,2.018,0.06,2.76-0.767c0.664-0.741,0.815-1.616,0.375-2.53C28.971,25.01,28.141,24.584,27.15,24.514z"/>
			</g>
			<g id="_x30_.1.0.96.0.1">
				<path id="_x30_.1.0.96.0.1.0" fill="#FFFFFF" d="M20.596,27.232c0,0.035-0.027,0.063-0.063,0.063h-2.286
					c-0.034,0-0.064-0.028-0.064-0.063v-0.69c0-0.035,0.028-0.063,0.064-0.063h2.286c0.034,0,0.063,0.028,0.063,0.063V27.232z"/>
			</g>
			<g id="_x30_.1.0.96.0.2">
				<path id="_x30_.1.0.96.0.2.0" fill="#FFFFFF" d="M28.145,26.543c0-0.035-0.028-0.063-0.064-0.063h-0.673
					c-0.034,0-0.063-0.028-0.063-0.063v-0.673c0-0.035-0.027-0.063-0.062-0.063H26.59c-0.033,0-0.063,0.027-0.063,0.063v0.673
					c0,0.034-0.028,0.063-0.063,0.063H25.79c-0.034,0-0.063,0.027-0.063,0.063v0.689c0,0.035,0.027,0.063,0.063,0.063h0.673
					c0.034,0,0.063,0.028,0.063,0.063v0.672c0,0.033,0.029,0.063,0.063,0.063h0.692c0.033,0,0.062-0.029,0.062-0.063v-0.672
					c0-0.034,0.028-0.063,0.063-0.063h0.673c0.034,0,0.063-0.027,0.063-0.063v-0.691H28.145z"/>
			</g>
		</g>
	</g>
</g>
</svg>
