<?xml version="1.0" encoding="utf-8"?>
<!-- Generator: Adobe Illustrator 14.0.0, SVG Export Plug-In . SVG Version: 6.00 Build 43363)  -->
<!DOCTYPE svg PUBLIC "-//W3C//DTD SVG 1.1//EN" "http://www.w3.org/Graphics/SVG/1.1/DTD/svg11.dtd">
<svg version="1.1" id="Layer_1" xmlns="http://www.w3.org/2000/svg" xmlns:xlink="http://www.w3.org/1999/xlink" x="0px" y="0px"
	 width="32px" height="32px" viewBox="0 0 32 32" enable-background="new 0 0 32 32" xml:space="preserve">
<g id="icon">
	<rect x="11.387" y="24.962" fill="#8C8C8C" width="2.689" height="43.05"/>
	<path fill="#8C8C8C" d="M23.079,37.246c0-1.467-1.331-2.629-2.61-3.74c-0.52-0.458-1.5-1.251-1.5-1.779v-6.84h-2.701v7.225
		c0,1.324,1.186,2.349,2.434,3.435c0.555,0.472,1.687,1.563,1.687,2.213c0,0.263,0.002,30.257,0.002,30.257h2.691L23.079,37.246z"/>
	<g id="g12">
		<path id="color_path14" opacity="0.3" fill="#E60000" enable-background="new    " d="M24.791,16.988v-7.39
			c0-4.891-3.96-8.86-8.857-8.86c-4.892,0-8.861,3.962-8.861,8.86V26.66c1.842,2.062,5.121,3.439,8.86,3.439
			c5.774,0,10.459-3.271,10.459-7.324v-1.903C26.393,19.443,25.801,18.117,24.791,16.988z"/>
		<path id="path16" opacity="0.5" fill="#E6E6E6" enable-background="new    " d="M24.791,16.988v-7.39
			c0-4.891-3.96-8.86-8.857-8.86c-4.892,0-8.861,3.962-8.861,8.86V26.66c1.842,2.062,5.121,3.439,8.86,3.439
			c5.774,0,10.459-3.271,10.459-7.324v-1.903C26.393,19.443,25.801,18.117,24.791,16.988z"/>
		<path id="path18" opacity="0.9" fill="#D1D1D1" enable-background="new    " d="M24.791,16.988v3.883
			c0,3.423-3.957,6.205-8.857,6.205c-4.892,0-8.861-2.773-8.861-6.205v3.881v1.905c1.842,2.063,5.121,3.44,8.86,3.44
			c5.774,0,10.459-3.272,10.459-7.322v-1.904C26.393,19.443,25.801,18.117,24.791,16.988z"/>
		<path id="color_path20" opacity="0.7" fill="#E60000" enable-background="new    " d="M24.791,16.988v3.883
			c0,3.423-3.957,6.205-8.857,6.205c-4.892,0-8.861-2.773-8.861-6.205v3.881v1.905c1.842,2.063,5.121,3.44,8.86,3.44
			c5.774,0,10.459-3.272,10.459-7.322v-1.904C26.393,19.443,25.801,18.117,24.791,16.988z"/>
		<path id="path22" opacity="0.25" enable-background="new    " d="M24.791,16.988v3.883c0,3.423-3.957,6.205-8.857,6.205
			c-4.892,0-8.861-2.773-8.861-6.205v3.881c1.842,2.062,5.121,3.439,8.86,3.439c5.774,0,10.459-3.271,10.459-7.322
			C26.393,19.443,25.801,18.117,24.791,16.988z"/>
		
			<ellipse id="ellipse24" opacity="0.25" fill="#E6E6E6" enable-background="new    " cx="15.933" cy="20.871" rx="8.859" ry="6.201"/>
		
			<ellipse id="color_ellipse26" opacity="0.25" fill="#E60000" enable-background="new    " cx="15.933" cy="20.871" rx="8.859" ry="6.201"/>
		<polygon id="polygon28" fill="#666666" points="9.828,12.797 9.828,20.871 11.068,20.871 11.068,17.105 14.593,17.105 
			19.589,11.744 11.332,11.744 		"/>
		<polygon id="polygon30" fill="#666666" points="20.547,11.393 21.092,12.03 16.338,17.105 20.898,17.105 20.898,20.871 
			22.041,20.871 22.041,11.393 		"/>
		<path id="color_path32" opacity="0.65" fill="#E60000" enable-background="new    " d="M24.791,16.988v-7.39
			c0-4.891-3.96-8.86-8.857-8.86c-4.892,0-8.861,3.962-8.861,8.86V26.66c1.842,2.062,5.121,3.439,8.86,3.439
			c5.774,0,10.459-3.271,10.459-7.324v-1.903C26.393,19.443,25.801,18.117,24.791,16.988z"/>
		<path id="path34" opacity="0.5" fill="#FFFFFF" enable-background="new    " d="M20.059,5.43l1.795-0.342
			c-1.052-1.415-2.602-2.447-4.427-2.798l0.318,1.351C18.699,3.979,19.503,4.617,20.059,5.43z"/>
		<path id="path36" opacity="0.5" fill="#FFFFFF" enable-background="new    " d="M8.034,25.645v1.9
			c0.811,0.662,1.792,1.221,2.885,1.646v-1.906C9.82,26.865,8.848,26.309,8.034,25.645z"/>
		<path id="path38" opacity="0.5" fill="#FFFFFF" enable-background="new    " d="M20.914,25.999
			c-0.318,0.153-0.662,0.288-1.007,0.413c-0.072,0.023-0.146,0.05-0.222,0.072c-0.705,0.225-1.451,0.397-2.244,0.494
			c-0.094,0.011-0.188,0.021-0.281,0.022c-0.399,0.037-0.804,0.072-1.213,0.072c-0.186,0-0.384-0.021-0.589-0.029
			c-1.5-0.069-2.914-0.396-4.122-0.924V15.634V9.603c0-1.839,1.061-3.412,2.592-4.187L13.8,5.349l-1.56-1.89
			c-2.087,1.254-3.488,3.528-3.488,6.14V24.48c-0.062-0.062-0.385-0.388-0.6-0.664l-0.385,0.86c1.751,1.854,4.761,3.077,8.178,3.077
			c2.1,0,4.047-0.468,5.64-1.253l-0.659-0.512C20.914,25.999,20.914,25.999,20.914,25.999z"/>
	</g>
</g>
</svg>
