<?xml version="1.0" encoding="utf-8"?>
<!-- Generator: Adobe Illustrator 16.0.0, SVG Export Plug-In . SVG Version: 6.00 Build 0)  -->
<svg version="1.2" baseProfile="tiny" id="svg" xmlns:xml="http://www.w3.org/XML/1998/namespace"
	 xmlns="http://www.w3.org/2000/svg" xmlns:xlink="http://www.w3.org/1999/xlink" x="0px" y="0px" width="32px" height="32px"
	 viewBox="0 0 32 32" xml:space="preserve">
<g id="icon">
	<rect x="0.25" y="0.25" fill="#E5E6E7" stroke="#A6A8AB" stroke-width="0.35" stroke-miterlimit="10" width="31.5" height="31.5"/>
	<g>
		<g>
			<g>
				<ellipse fill="#A1A1A1" cx="18.125" cy="22.508" rx="6.792" ry="0.31"/>
				<path d="M27.285,10.328l-6.201,0.583l0.125-0.253l7.001-0.693l-0.507-0.691l-0.882,0.069L25.937,9.41l-0.129,0.258L25.456,9.51
					c0-0.396-0.194-0.781-0.536-1.029l-0.319,0.643l-0.511,1.01l-0.317,0.643c0.417,0.094,0.854-0.005,1.184-0.256l0.345,0.156
					l-0.128,0.256l0.507,0.691l0.504,0.693l0.882-0.068l0.888-0.07l0.128-0.25l-1.306-0.586c-0.418-0.186-0.645-0.568-0.503-0.849
					C26.413,10.214,26.867,10.139,27.285,10.328z"/>
				<path d="M9.977,8.151l0.258-0.669C9.813,7.414,9.393,7.543,9.093,7.817l-0.36-0.135l0.104-0.266L8.277,6.75L7.72,6.085
					L6.851,6.21L5.984,6.335L5.879,6.598l1.336,0.505c0.433,0.165,0.69,0.531,0.574,0.824C7.677,8.219,7.234,8.322,6.807,8.16
					L5.468,7.654L5.366,7.918l0.561,0.666l0.558,0.663l0.868-0.125l0.869-0.125L8.323,8.73l0.36,0.135
					c0.034,0.399,0.263,0.776,0.622,1l0.258-0.668L9.977,8.151z"/>
				<path fill="none" d="M17.028,6.73h-0.031c-1.329,0-2.361,0.286-3.02,0.651h3.051h3.053c-0.665-0.365-1.693-0.651-3.025-0.651
					H17.028z"/>
				<path fill="none" d="M17.028,2.16c-1.576,0.078-3.088,1.943-3.313,4.654c0.823-0.431,1.987-0.701,3.282-0.701h0.031h0.027
					c1.293,0,2.464,0.27,3.284,0.701C20.116,4.103,18.604,2.238,17.028,2.16z M17.056,5.6c-0.953,0-1.899,0.138-2.679,0.385
					c0.152-0.739,0.402-1.36,0.706-1.858h3.056c0.252,0.473,0.456,1.016,0.594,1.621C18.204,5.651,17.641,5.6,17.056,5.6z
					 M19.678,5.983c-0.126-0.041-0.256-0.077-0.384-0.112c-0.14-0.652-0.353-1.24-0.622-1.744h0.302
					C19.278,4.625,19.525,5.246,19.678,5.983z"/>
				<ellipse fill="none" cx="10.765" cy="5.313" rx="0.816" ry="0.772"/>
				<path fill="none" d="M17.947,8.296h-1.758c-0.36,0-0.649,0.276-0.649,0.617v2.791c0,0.34,0.29,0.614,0.649,0.614h1.758
					c0.359,0,0.651-0.274,0.651-0.614V8.913C18.599,8.572,18.307,8.296,17.947,8.296z M16.241,12.117
					c-0.26,0-0.469-0.199-0.469-0.444c0-0.243,0.209-0.444,0.469-0.444c0.257,0,0.467,0.201,0.467,0.444
					C16.708,11.918,16.498,12.117,16.241,12.117z M17.871,12.117c-0.261,0-0.469-0.199-0.469-0.444c0-0.243,0.208-0.444,0.469-0.444
					c0.256,0,0.463,0.201,0.463,0.444C18.334,11.918,18.127,12.117,17.871,12.117z M18.232,10.969h-2.301
					c-0.145,0-0.145-0.206,0-0.206h2.301C18.379,10.764,18.379,10.969,18.232,10.969z M18.232,10.54h-2.301
					c-0.145,0-0.145-0.206,0-0.206h2.301C18.379,10.334,18.379,10.54,18.232,10.54z M18.232,10.11h-2.301
					c-0.145,0-0.145-0.208,0-0.208h2.301C18.379,9.903,18.379,10.11,18.232,10.11z M18.232,9.68h-2.301
					c-0.145,0-0.145-0.208,0-0.208h2.301C18.379,9.472,18.379,9.68,18.232,9.68z M18.232,9.247h-2.301c-0.145,0-0.145-0.206,0-0.206
					h2.301C18.379,9.041,18.379,9.247,18.232,9.247z"/>
				<ellipse fill="none" cx="20.888" cy="2.99" rx="0.814" ry="0.773"/>
				<path d="M17.871,11.074c-0.261,0-0.469,0.197-0.469,0.442c0,0.247,0.208,0.444,0.469,0.444c0.256,0,0.463-0.197,0.463-0.444
					C18.334,11.271,18.127,11.074,17.871,11.074z"/>
				<ellipse cx="16.241" cy="11.518" rx="0.469" ry="0.443"/>
				<path d="M20.795,7.092c-0.03-0.567-0.112-1.11-0.241-1.622c0.066,0.094,0.185,0.156,0.313,0.156
					c0.215,0,0.388-0.163,0.388-0.364c0-0.145-0.095-0.273-0.223-0.33V4.063c0.563-0.068,0.996-0.522,0.996-1.072
					c0-0.597-0.509-1.081-1.138-1.081c-0.632,0-1.142,0.483-1.142,1.081c0,0.537,0.415,0.983,0.961,1.065v0.876
					c-0.122,0.055-0.207,0.163-0.221,0.292c-0.586-2.003-1.909-3.417-3.46-3.474c-1.576,0.059-2.914,1.51-3.484,3.559
					c-0.014-0.191-0.179-0.34-0.385-0.34c-0.151,0-0.286,0.084-0.348,0.209h-0.917c-0.069-0.534-0.55-0.946-1.13-0.946
					c-0.63,0-1.142,0.484-1.142,1.082c0,0.595,0.512,1.08,1.142,1.08c0.564,0,1.036-0.393,1.123-0.908h0.923
					c0.063,0.123,0.197,0.209,0.348,0.209c0.14,0,0.26-0.068,0.33-0.173c-0.124,0.495-0.201,1.021-0.23,1.571
					c-0.322,0.239-0.562,0.506-0.681,0.799H12.35l0.03,2.53h0.123l0.006,1.396c0,0.339,0.29,0.616,0.65,0.616h0.564
					c-0.002,0.04-0.002,0.079-0.002,0.118c0,0.375,0.076,0.739,0.221,1.068c0.02,0.057,0.038,0.112,0.061,0.167
					c0.249-0.107,0.525-0.167,0.82-0.167c1.094,0,1.976,0.839,1.976,1.875v0.032c0.057,0.003,0.109,0.006,0.167,0.006h0.012h0.101
					h0.013c0.052,0,0.104-0.003,0.161-0.006v-0.032c0-1.036,0.887-1.875,1.977-1.875c0.293,0,0.566,0.057,0.813,0.166
					c0.193-0.376,0.299-0.794,0.299-1.234c0-0.039,0-0.079,0-0.118h0.554c0.36,0,0.651-0.276,0.651-0.617l0.002-1.395h0.123
					l0.025-2.53h-0.217C21.357,7.598,21.12,7.331,20.795,7.092z M20.074,2.99c0-0.427,0.365-0.773,0.815-0.773
					c0.447,0,0.813,0.346,0.813,0.773c0,0.425-0.365,0.771-0.813,0.771C20.439,3.762,20.074,3.416,20.074,2.99z M10.765,6.085
					c-0.451,0-0.816-0.347-0.816-0.773c0-0.425,0.364-0.771,0.816-0.771c0.449,0,0.814,0.346,0.814,0.771
					C11.579,5.738,11.213,6.085,10.765,6.085z M18.599,11.703c0,0.34-0.292,0.614-0.651,0.614h-1.758
					c-0.36,0-0.649-0.274-0.649-0.614V8.913c0-0.34,0.29-0.617,0.649-0.617h1.758c0.359,0,0.651,0.276,0.651,0.617V11.703z
					 M17.028,7.381h-3.051c0.659-0.365,1.691-0.651,3.02-0.651h0.031h0.027c1.332,0,2.36,0.286,3.025,0.651H17.028z M17.056,6.113
					h-0.027h-0.031c-1.295,0-2.459,0.27-3.282,0.701c0.225-2.711,1.737-4.576,3.313-4.654c1.575,0.078,3.088,1.943,3.312,4.654
					C19.52,6.383,18.349,6.113,17.056,6.113z"/>
				<path d="M19.294,5.871c0.128,0.035,0.258,0.071,0.384,0.112c-0.152-0.737-0.399-1.358-0.704-1.856h-0.302
					C18.941,4.631,19.154,5.219,19.294,5.871z"/>
				<g>
					<path d="M16.345,15.497c0-0.86-0.588-1.556-1.313-1.556c-0.724,0-1.311,0.696-1.311,1.556c0,0.019,0.002,0.036,0.002,0.057
						h2.621C16.344,15.533,16.345,15.516,16.345,15.497z"/>
				</g>
				<polygon points="14.069,15.84 16.084,15.84 16.455,19.33 13.663,19.33 				"/>
				<rect x="13.663" y="19.6" width="2.826" height="0.785"/>
				<g>
					<path fill="#A1A1A1" d="M10.907,22.506c0-0.119-1.245-0.215-2.783-0.215c-1.541,0-2.79,0.096-2.79,0.215
						c0,0.116,1.249,0.211,2.79,0.211C9.663,22.717,10.907,22.622,10.907,22.506z"/>
					<path fill="#666666" d="M12.057,15.06c-0.123,0-0.224,0.097-0.224,0.215c0,0.065,0.028,0.122,0.072,0.162l-0.156,0.255
						l-0.135-0.09l-0.71,0.968c-0.125,0.083-0.259,0.211-0.322,0.388c0,0-0.128,0.07-0.339,0.17
						c-0.137-0.449-0.329-0.87-0.448-1.115l0.15-0.002L9.876,15.68l-0.381-0.015c-0.148-0.308-0.02-0.668,0.063-0.677
						c0.444-0.066,0.27-0.357,0.27-0.357c0.066-0.083-0.01-0.22-0.01-0.22c0.078-0.156-0.064-0.198-0.064-0.198
						c0.036-0.105,0.016-0.238-0.045-0.259c-0.23-0.084-0.264-0.171-0.283-0.265c-0.02-0.135,0.053-0.277-0.206-0.508
						c0,0-0.051-0.192,0.173-0.142c0,0-0.105-0.122-0.132-0.209c-0.039-0.129-0.268-0.27-0.528-0.161c0,0-0.938-0.622-1.663,0.449
						c-0.022-0.01-0.042-0.015-0.063-0.017c-0.121-0.01-0.226,0.079-0.236,0.201c-0.008,0.081,0.035,0.155,0.096,0.199
						c-0.156,0.453-0.174,1.158,0.391,1.616c0,0-0.404,1.085-0.047,0.983c0.237-0.067,0.296-0.049,0.508-0.81
						c0,0,0.111,0.229,0.311,0.226c0,0,0.191,0.026,0.308,0.118l-0.246-0.008v0.419l0.189-0.003
						c-0.137,0.818-0.249,3.525-0.249,3.525c0.102,0.039,0.211,0.065,0.334,0.085c-0.033,0.51-0.069,0.915-0.069,0.915l0.21,0.021
						c0,0.096,0,0.203,0.007,0.316c0,0,0.074,0.314,0.059,0.503H8.299v0.379h0.104l-0.009,0.676c0,0,1.738,0.27,1.782,0
						c0,0,0.278-0.651-0.408-0.536L9.313,21.82l-0.082-0.055l0.039-0.003l-0.053-0.355H8.954c0.042-0.142,0.125-0.462,0.146-0.762
						l0.299,0.031l0.214-1.037c0.444-0.06,0.783-0.139,0.783-0.139v-1.362c0-0.009,0.002-0.02,0.002-0.032
						c0.04-0.038,0.066-0.074,0.081-0.112c0,0,0.585-0.587,0.959-0.909c0.166,0.011,0.337-0.096,0.413-0.271
						c0.088-0.218,0.008-0.453-0.186-0.528c-0.012-0.002-0.023-0.008-0.033-0.01l0.324-0.442l-0.125-0.086l0.158-0.263
						c0.023,0.008,0.046,0.012,0.069,0.012c0.122,0,0.226-0.1,0.226-0.221C12.283,15.157,12.179,15.06,12.057,15.06"/>
					<path fill="#ED2724" d="M7.78,15.221c0.125-1.445,1.02-2.57,1.009-2.566c0,0-0.994-0.619-1.719,0.449
						c-0.022-0.01-0.042-0.013-0.063-0.014c-0.121-0.011-0.226,0.08-0.236,0.2c-0.008,0.082,0.035,0.156,0.096,0.201
						c-0.156,0.449-0.174,1.156,0.391,1.612c0,0-0.404,1.088-0.047,0.985c0.212-0.061,0.37-0.036,0.475-0.605
						c0.066,0.05,0.199,0.12,0.334,0.014C8.021,15.496,7.768,15.389,7.78,15.221"/>
				</g>
				<path d="M14.021,20.633h2.5v1.805h-4.473C12.047,22.438,12.325,20.633,14.021,20.633z"/>
				<g>
					<path d="M17.805,15.65c-0.154-0.844,0.301-1.628,1.013-1.748c0.716-0.121,1.417,0.466,1.572,1.31
						c0.004,0.019,0.007,0.04,0.007,0.057l-2.582,0.44C17.813,15.688,17.807,15.67,17.805,15.65z"/>
				</g>
				<polygon points="20.238,15.477 18.29,16.063 19.018,19.501 21.715,18.685 				"/>
				<polygon points="19.314,20.518 22.041,19.691 21.795,18.94 19.07,19.768 				"/>
				<path d="M21.774,20.031l-2.414,0.73l0.56,1.724l4.322-1.313C24.242,21.173,23.413,19.537,21.774,20.031z"/>
				<rect x="11.653" y="7.872" width="0.475" height="2.561"/>
				<rect x="21.913" y="7.872" width="0.477" height="2.561"/>
				<polygon points="23.002,10.482 22.531,10.385 23.09,7.881 23.555,7.98 				"/>
				<polygon points="23.562,10.704 23.124,10.518 24.199,8.178 24.633,8.365 				"/>
				<polygon points="11.093,10.398 10.625,10.319 11.079,7.797 11.547,7.872 				"/>
				<polygon points="10.038,10.139 9.586,9.99 10.437,7.566 10.886,7.713 				"/>
				<g>
					<path d="M18.139,4.127h-3.056c-0.304,0.498-0.554,1.119-0.706,1.858c0.78-0.247,1.726-0.385,2.679-0.385
						c0.585,0,1.148,0.051,1.677,0.148C18.595,5.143,18.391,4.6,18.139,4.127z M14.905,5.486c0.087-0.372,0.446-0.919,0.446-0.919
						c-0.42,0.727,0.566,0.804,0.566,0.804C15.5,5.344,14.905,5.486,14.905,5.486z"/>
				</g>
				<path d="M18.205,10.446c0,0.124-0.103,0.227-0.232,0.227h-1.849c-0.128,0-0.235-0.104-0.235-0.227v-1.41
					c0-0.125,0.107-0.227,0.235-0.227h1.849c0.13,0,0.232,0.102,0.232,0.227V10.446z"/>
			</g>
		</g>
		<g>
			<path fill="#231F20" d="M2.453,25.367h0.921v3.286h1.611v0.768H2.453V25.367z"/>
			<path fill="#231F20" d="M6.441,25.662c0,0.253-0.191,0.457-0.493,0.457c-0.289,0-0.481-0.204-0.476-0.457
				c-0.005-0.264,0.187-0.463,0.482-0.463S6.436,25.398,6.441,25.662z M5.497,29.421v-2.94h0.915v2.94H5.497z"/>
			<path fill="#231F20" d="M7.146,27.418c0-0.366-0.013-0.679-0.024-0.938h0.792l0.043,0.402h0.018
				c0.121-0.186,0.421-0.469,0.908-0.469c0.602,0,1.053,0.397,1.053,1.265v1.742H9.023v-1.629c0-0.379-0.134-0.638-0.464-0.638
				c-0.252,0-0.402,0.175-0.462,0.343c-0.024,0.054-0.035,0.146-0.035,0.229v1.695H7.146V27.418z"/>
			<path fill="#231F20" d="M11.615,25.662c0,0.253-0.192,0.457-0.492,0.457c-0.29,0-0.482-0.204-0.476-0.457
				c-0.007-0.264,0.186-0.463,0.481-0.463C11.423,25.199,11.609,25.398,11.615,25.662z M10.671,29.421v-2.94h0.914v2.94H10.671z"/>
			<path fill="#231F20" d="M12.319,27.418c0-0.366-0.012-0.679-0.024-0.938h0.793l0.042,0.402h0.019
				c0.12-0.186,0.421-0.469,0.909-0.469c0.602,0,1.052,0.397,1.052,1.265v1.742h-0.914v-1.629c0-0.379-0.133-0.638-0.464-0.638
				c-0.252,0-0.402,0.175-0.463,0.343c-0.024,0.054-0.036,0.146-0.036,0.229v1.695h-0.914V27.418z"/>
			<path fill="#231F20" d="M18.75,27.918c0,1.075-0.765,1.57-1.553,1.57c-0.859,0-1.521-0.565-1.521-1.517
				c0-0.95,0.627-1.558,1.569-1.558C18.148,26.414,18.75,27.034,18.75,27.918z M16.62,27.949c0,0.506,0.211,0.884,0.602,0.884
				c0.354,0,0.584-0.355,0.584-0.884c0-0.439-0.168-0.886-0.584-0.886C16.783,27.063,16.62,27.517,16.62,27.949z"/>
			<path fill="#666666" d="M19.249,28.936c0-0.325,0.223-0.56,0.542-0.56s0.535,0.229,0.535,0.56c0,0.319-0.216,0.553-0.541,0.553
				C19.472,29.488,19.249,29.255,19.249,28.936z"/>
			<path fill="#666666" d="M23.785,27.918c0,1.075-0.764,1.57-1.553,1.57c-0.86,0-1.521-0.565-1.521-1.517
				c0-0.95,0.626-1.558,1.57-1.558C23.184,26.414,23.785,27.034,23.785,27.918z M21.656,27.949c0,0.506,0.21,0.884,0.602,0.884
				c0.355,0,0.583-0.355,0.583-0.884c0-0.439-0.169-0.886-0.583-0.886C21.818,27.063,21.656,27.517,21.656,27.949z"/>
			<path fill="#666666" d="M24.351,27.447c0-0.432-0.013-0.714-0.025-0.967h0.79l0.029,0.541h0.024
				c0.148-0.426,0.511-0.607,0.795-0.607c0.083,0,0.124,0,0.19,0.012v0.859c-0.066-0.011-0.144-0.022-0.245-0.022
				c-0.338,0-0.566,0.18-0.626,0.463c-0.012,0.061-0.018,0.132-0.018,0.204v1.491h-0.915V27.447z"/>
			<path fill="#666666" d="M29.446,26.48c-0.012,0.187-0.025,0.435-0.025,0.873v1.64c0,0.567-0.113,1.03-0.443,1.324
				c-0.326,0.277-0.765,0.361-1.198,0.361c-0.385,0-0.794-0.077-1.057-0.228l0.178-0.692c0.188,0.108,0.512,0.223,0.854,0.223
				c0.434,0,0.765-0.235,0.765-0.776v-0.192h-0.013c-0.175,0.247-0.457,0.386-0.793,0.386c-0.729,0-1.245-0.591-1.245-1.438
				c0-0.944,0.612-1.546,1.333-1.546c0.406,0,0.657,0.175,0.807,0.415h0.014l0.029-0.349H29.446z M28.507,27.679
				c0-0.062-0.005-0.122-0.018-0.169c-0.066-0.241-0.24-0.403-0.493-0.403c-0.331,0-0.602,0.3-0.602,0.836
				c0,0.438,0.217,0.781,0.602,0.781c0.235,0,0.421-0.156,0.482-0.372c0.023-0.066,0.028-0.162,0.028-0.241V27.679z"/>
		</g>
	</g>
</g>
</svg>
