<?xml version="1.0" encoding="utf-8"?>
<!-- Generator: Adobe Illustrator 15.0.2, SVG Export Plug-In . SVG Version: 6.00 Build 0)  -->
<!DOCTYPE svg PUBLIC "-//W3C//DTD SVG 1.1//EN" "http://www.w3.org/Graphics/SVG/1.1/DTD/svg11.dtd">
<svg version="1.1" id="Layer_1" xmlns:svg="http://www.w3.org/2000/svg"
	 xmlns="http://www.w3.org/2000/svg" xmlns:xlink="http://www.w3.org/1999/xlink" x="0px" y="0px" width="43.2px" height="47.956px"
	 viewBox="0 0.781 43.2 47.956" enable-background="new 0 0.781 43.2 47.956" xml:space="preserve">
<desc>Fritzing breadboard generated by brd2svg</desc>
<g id="breadboard">
	<g id="icon">
		<g>
			<rect x="31.386" y="3.87" width="9.699" height="29.039"/>
			<rect x="4.2" y="4.214" width="23.589" height="20.676"/>
			<path fill="#404040" d="M25.152,3.87v1.031c0,0.43-0.239,0.781-0.53,0.781h-2.074c-0.293,0-0.529-0.354-0.529-0.781V3.87"/>
			<path opacity="0.1" enable-background="new    " d="M22.195,7.259L22.3,5.208c0.018-0.361,0.25-0.658,0.518-0.658
				c0.269,0,1.263,0,1.527,0s0.5,0.297,0.521,0.658l0.11,2.16"/>
			<path fill="#404040" d="M9.592,3.87v1.031c0,0.43-0.239,0.781-0.53,0.781H6.986c-0.292,0-0.527-0.354-0.527-0.781V3.87"/>
			<path opacity="0.1" enable-background="new    " d="M6.635,7.259l0.104-2.051C6.759,4.847,6.991,4.55,7.258,4.55
				c0.267,0,1.262,0,1.528,0c0.266,0,0.498,0.297,0.519,0.658l0.111,2.16"/>
			<rect x="4.199" y="27.463" fill="#404040" width="24.563" height="3.522"/>
			<g>
				<g>
					<rect x="17.473" y="31.247" fill="#B7B7B7" width="0.978" height="4.307"/>
					<rect x="20.435" y="31.247" fill="#B7B7B7" width="0.978" height="4.307"/>
					<rect x="23.394" y="31.247" fill="#B7B7B7" width="0.978" height="4.307"/>
					<rect x="26.355" y="31.247" fill="#B7B7B7" width="0.978" height="4.307"/>
				</g>
			</g>
			<g>
				<g>
					<rect x="5.158" y="31.247" fill="#B7B7B7" width="0.978" height="4.307"/>
					<rect x="8.118" y="31.247" fill="#B7B7B7" width="0.978" height="4.307"/>
					<rect x="11.078" y="31.247" fill="#B7B7B7" width="0.978" height="4.307"/>
					<rect x="14.04" y="31.247" fill="#B7B7B7" width="0.977" height="4.307"/>
				</g>
			</g>
			<g opacity="0.15">
				<polygon points="17.139,31.478 17.139,31.734 18.796,31.734 18.796,31.478 20.095,31.478 20.095,31.734 21.751,31.734 
					21.751,31.478 23.054,31.478 23.054,31.734 24.712,31.734 24.712,31.478 26.039,31.478 26.039,31.734 27.695,31.734 
					27.695,31.478 27.95,31.478 27.95,29.124 16.783,29.124 16.783,31.478 				"/>
			</g>
			<g opacity="0.15">
				<polygon points="4.772,31.478 4.772,31.734 6.428,31.734 6.428,31.478 7.727,31.478 7.727,31.734 9.385,31.734 9.385,31.478 
					10.687,31.478 10.687,31.734 12.344,31.734 12.344,31.478 13.673,31.478 13.673,31.734 15.329,31.734 15.329,31.478 
					15.583,31.478 15.583,29.124 4.417,29.124 4.417,31.478 				"/>
			</g>
			<g>
				<g>
					<rect x="26.134" y="31.018" fill="#B7B7B7" width="1.418" height="0.282"/>
					<rect x="23.175" y="31.018" fill="#B7B7B7" width="1.418" height="0.282"/>
					<rect x="20.214" y="31.018" fill="#B7B7B7" width="1.418" height="0.282"/>
					<rect x="17.254" y="31.018" fill="#B7B7B7" width="1.417" height="0.282"/>
					<rect x="17.473" y="29.157" fill="#B7B7B7" width="0.978" height="2"/>
					<rect x="20.435" y="29.157" fill="#B7B7B7" width="0.978" height="2"/>
					<rect x="23.394" y="29.157" fill="#B7B7B7" width="0.978" height="2"/>
					<rect x="26.355" y="29.157" fill="#B7B7B7" width="0.978" height="2"/>
				</g>
				<rect x="16.149" y="27.95" opacity="0.15" enable-background="new    " width="11.903" height="1.809"/>
			</g>
			<g>
				<g>
					<rect x="13.818" y="31.018" fill="#B7B7B7" width="1.418" height="0.282"/>
					<rect x="10.857" y="31.018" fill="#B7B7B7" width="1.418" height="0.282"/>
					<rect x="7.897" y="31.018" fill="#B7B7B7" width="1.418" height="0.282"/>
					<rect x="4.936" y="31.018" fill="#B7B7B7" width="1.418" height="0.282"/>
					<rect x="5.158" y="29.157" fill="#B7B7B7" width="0.978" height="2"/>
					<rect x="8.118" y="29.157" fill="#B7B7B7" width="0.978" height="2"/>
					<rect x="11.078" y="29.157" fill="#B7B7B7" width="0.978" height="2"/>
					<rect x="14.04" y="29.157" fill="#B7B7B7" width="0.977" height="2"/>
				</g>
				<rect x="3.834" y="27.95" opacity="0.15" enable-background="new    " width="11.9" height="1.809"/>
			</g>
			<g opacity="0.2">
				<path fill="#666666" d="M4.259,43.977l1.471-2.338h23.684l1.375,2.15h2.213l1.412,2.438h4.838v-2.6c0,0-1.451,0-1.875,0
					c-0.277,0-0.277-0.479,0-0.479h0.299c0.375,0,0.5-0.077,0.5-0.313v-0.985c0-0.234-0.125-0.313-0.5-0.313h-0.299
					c-0.277,0-0.277-0.479,0-0.479h3.985v-3.161H2.22v6.079H4.259z"/>
			</g>
			<g>
				<path fill="#606060" d="M4.259,43.659l1.471-2.338h23.684l1.375,2.151h2.213l1.412,2.437h4.838v-2.599c0,0-1.451,0-1.875,0
					c-0.277,0-0.277-0.479,0-0.479h0.299c0.375,0,0.5-0.078,0.5-0.312v-0.985c0-0.233-0.125-0.313-0.5-0.313h-0.299
					c-0.277,0-0.277-0.479,0-0.479h3.985V3.868h-3.795l-0.08,0.617c-0.02,0.154-0.163,0.281-0.317,0.281h-0.172
					c-0.154,0-0.302-0.127-0.318-0.281l-0.08-0.617H25.896l0.521,18.566c0.01,0.313-0.174,0.566-0.402,0.566
					c-0.229,0-0.432-0.256-0.447-0.566L24.687,5.31c-0.016-0.311-0.217-0.564-0.444-0.564h-1.316c-0.229,0-0.43,0.256-0.445,0.564
					l-0.882,17.127c-0.016,0.313-0.217,0.566-0.447,0.566c-0.229,0-0.411-0.256-0.401-0.568L21.271,3.87H10.334l0.521,18.564
					c0.009,0.314-0.173,0.568-0.401,0.568c-0.229,0-0.433-0.256-0.447-0.566L9.126,5.312C9.108,4.999,8.909,4.747,8.68,4.747H7.363
					c-0.229,0-0.43,0.254-0.444,0.564l-0.88,17.125c-0.019,0.313-0.22,0.566-0.447,0.566c-0.23,0-0.412-0.256-0.403-0.568L5.71,3.87
					H2.223v39.789H4.259z M34.691,29.452h-0.375c-0.153,0-0.282-0.118-0.282-0.264s0.053-0.264,0.116-0.264
					c0.066,0,0.119-0.128,0.119-0.283V16.163c0-0.156,0.127-0.285,0.283-0.285h6.449v15.767h-1.275c-0.154,0-0.301-0.126-0.324-0.28
					l-1.137-7.674c-0.021-0.154,0.049-0.373,0.156-0.482l0.449-0.469c0.106-0.111,0.196-0.332,0.196-0.486v-2.59
					c0-0.156-0.129-0.283-0.282-0.283h-3.47c-0.155,0-0.282,0.127-0.282,0.283v2.434c0,0.156,0.098,0.365,0.217,0.465l0.983,0.824
					c0.119,0.1,0.229,0.311,0.24,0.465l0.609,7.515c0.014,0.154-0.104,0.281-0.261,0.281c0,0-2.514,0-2.612,0
					s-0.181-0.115-0.181-0.259c0-0.143,0.13-0.259,0.283-0.259h0.377c0.156,0,0.283-0.127,0.283-0.282v-1.108
					C34.974,29.579,34.847,29.452,34.691,29.452z M17.106,30.019c0-0.313,0.255-0.566,0.567-0.566h9.449
					c0.313,0,0.565,0.254,0.565,0.566v5.783c0,0.313-0.254,0.565-0.565,0.565h-9.448c-0.313,0-0.567-0.254-0.567-0.565
					L17.106,30.019L17.106,30.019z M4.762,30.019c0-0.313,0.255-0.566,0.567-0.566h9.447c0.313,0,0.566,0.254,0.566,0.566v5.783
					c0,0.313-0.255,0.565-0.566,0.565H5.33c-0.313,0-0.567-0.254-0.567-0.565V30.019z"/>
			</g>
			<g opacity="0.24">
				<rect x="40.167" y="31.645" fill="#FFFFFF" width="1" height="9.097"/>
			</g>
			<g opacity="0.24">
				<rect x="37.558" y="43.311" fill="#FFFFFF" width="1.424" height="2.599"/>
			</g>
			<g opacity="0.24">
				<rect x="40.167" y="3.868" fill="#FFFFFF" width="1" height="12.01"/>
			</g>
			<g opacity="0.15">
				<rect x="2.388" y="3.868" fill="#FFFFFF" width="0.699" height="39.791"/>
			</g>
			
				<path opacity="0.24" fill="none" stroke="#FFFFFF" stroke-width="0.25" stroke-linecap="round" stroke-linejoin="round" enable-background="new    " d="
				M39.289,31.437l-1.158-7.725c-0.023-0.154,0.043-0.375,0.146-0.492l0.486-0.553c0.104-0.117,0.188-0.34,0.188-0.496v-2.342"/>
			<rect x="41.001" y="15.878" opacity="0.24" fill="#FFFFFF" enable-background="new    " width="0.166" height="15.767"/>
			<g>
				
					<path opacity="0.15" fill="none" stroke="#FFFFFF" stroke-width="0.1984" stroke-linecap="round" enable-background="new    " d="
					M21.697,22.503c0,0,0.814-16.494,0.867-16.967c0.052-0.473,0.261-0.488,0.261-0.488"/>
				
					<path opacity="0.15" fill="none" stroke="#FFFFFF" stroke-width="0.1984" stroke-linecap="round" enable-background="new    " d="
					M25.462,22.532c0,0-0.828-16.521-0.881-16.994c-0.054-0.475-0.244-0.488-0.244-0.488"/>
			</g>
			<g>
				
					<path opacity="0.15" fill="none" stroke="#FFFFFF" stroke-width="0.1984" stroke-linecap="round" enable-background="new    " d="
					M6.134,22.503c0,0,0.813-16.494,0.866-16.967c0.052-0.473,0.26-0.488,0.26-0.488"/>
				
					<path opacity="0.15" fill="none" stroke="#FFFFFF" stroke-width="0.1984" stroke-linecap="round" enable-background="new    " d="
					M9.897,22.532c0,0-0.829-16.521-0.881-16.994C8.964,5.064,8.771,5.05,8.771,5.05"/>
			</g>
			<path opacity="0.3" fill="none" stroke="#FFFFFF" stroke-width="0.2" stroke-linecap="round" enable-background="new    " d="
				M27.789,35.852V30c0-0.357-0.293-0.651-0.652-0.651H17.67c-0.359,0-0.652,0.294-0.652,0.651v5.852"/>
			
				<line opacity="0.77" fill="none" stroke="#353535" stroke-width="0.2" stroke-linecap="round" enable-background="new    " x1="27.125" y1="36.478" x2="17.539" y2="36.478"/>
			<path opacity="0.3" fill="none" stroke="#FFFFFF" stroke-width="0.2" stroke-linecap="round" enable-background="new    " d="
				M15.44,35.852V30c0-0.357-0.293-0.651-0.65-0.651H5.321c-0.357,0-0.65,0.294-0.65,0.651v5.852"/>
			
				<line opacity="0.77" fill="none" stroke="#353535" stroke-width="0.2" stroke-linecap="round" enable-background="new    " x1="14.777" y1="36.478" x2="5.19" y2="36.478"/>
			<rect x="40.167" y="15.878" opacity="0.24" fill="#FFFFFF" enable-background="new    " width="0.551" height="15.559"/>
			
				<line opacity="0.15" fill="none" stroke="#FFFFFF" stroke-width="0.1984" stroke-linecap="round" enable-background="new    " x1="26.529" y1="22.488" x2="26.007" y2="4.206"/>
			
				<line opacity="0.15" fill="none" stroke="#FFFFFF" stroke-width="0.1984" stroke-linecap="round" enable-background="new    " x1="20.644" y1="22.488" x2="21.167" y2="4.206"/>
			
				<line opacity="0.15" fill="none" stroke="#FFFFFF" stroke-width="0.1984" stroke-linecap="round" enable-background="new    " x1="10.959" y1="22.488" x2="10.435" y2="4.206"/>
			
				<line opacity="0.15" fill="none" stroke="#FFFFFF" stroke-width="0.1984" stroke-linecap="round" enable-background="new    " x1="5.074" y1="22.488" x2="5.595" y2="4.206"/>
			<rect x="37.007" y="15.878" fill="#404040" width="0.238" height="3.5"/>
			<rect x="37.007" y="19.22" fill="#353535" width="0.238" height="0.158"/>
			<rect x="37.007" y="15.88" fill="#353535" width="0.238" height="0.158"/>
			<path opacity="0.2" fill="none" stroke="#FFFFFF" stroke-width="0.2" stroke-miterlimit="10" enable-background="new    " d="
				M34.453,15.808c-0.154,0-0.283,0.127-0.283,0.283v12.48c0,0.155-0.053,0.282-0.117,0.282"/>
			<path opacity="0.24" fill="#FFFFFF" enable-background="new    " d="M34.316,29.452h0.375c0.156,0,0.283,0.127,0.283,0.283v1.109
				c0,0.155-0.127,0.282-0.283,0.282h-0.375"/>
			
				<polyline opacity="0.3" fill="none" stroke="#FFFFFF" stroke-width="0.2" stroke-linecap="round" enable-background="new    " points="
				34.47,45.81 33.058,43.37 30.845,43.37 29.47,41.221 5.671,41.221 4.2,43.56 			"/>
			<path opacity="0.24" fill="#FFFFFF" enable-background="new    " d="M37.675,42.831c0.375,0,0.5-0.078,0.5-0.312v-0.985
				c0-0.233-0.125-0.313-0.5-0.313V42.831z"/>
		</g>
	</g>
</g>
</svg>
