<?xml version="1.0" encoding="utf-8"?>
<!-- Generator: Adobe Illustrator 13.0.0, SVG Export Plug-In . SVG Version: 6.00 Build 14948)  -->
<svg version="1.2" baseProfile="tiny" id="svg2" xmlns:svg="http://www.w3.org/2000/svg"
	 xmlns="http://www.w3.org/2000/svg" xmlns:xlink="http://www.w3.org/1999/xlink" x="0px" y="0px" width="32px" height="32px"
	 viewBox="0 0 32 32" xml:space="preserve">
<g id="icon">
	<path fill="#BFBCBC" d="M28.147,1.13H15.998v2.027c3.526,0,6.38,2.002,6.38,4.471c-0.002,2.465-2.855,4.465-6.38,4.465v6.55h12.147
		V1.13H28.147z"/>
	<path fill="#808080" d="M9.621,7.623c0-2.469,2.854-4.467,6.377-4.467V1.129H3.85v17.505h12.148v-6.549
		C12.475,12.086,9.621,10.089,9.621,7.623z"/>
	<rect id="rect4" x="6.685" y="38.415" fill="#8C8C8C" width="2.43" height="24.938"/>
	<rect id="rect6" x="14.781" y="38.415" fill="#8C8C8C" width="2.433" height="24.938"/>
	<rect id="rect8" x="22.881" y="38.415" fill="#8C8C8C" width="2.429" height="24.938"/>
	<polygon id="polygon10" fill="#CCCCCC" points="1.015,4.391 1.015,15.196 3.85,15.196 3.85,1.13 	"/>
	<polygon id="polygon12" fill="#999999" points="30.981,4.391 28.147,1.13 28.147,15.196 30.981,15.196 	"/>
	<polygon id="polygon21" fill="#8C8C8C" points="10.734,46.632 8.92,47.441 6.879,47.441 5.064,46.632 5.064,36.766 10.734,36.766 	
		"/>
	<polygon id="polygon23" fill="#8C8C8C" points="18.833,46.632 17.019,47.441 14.979,47.441 13.163,46.632 13.163,36.766 
		18.833,36.766 	"/>
	<polygon id="polygon25" fill="#8C8C8C" points="26.931,46.632 25.116,47.441 23.077,47.441 21.265,46.632 21.265,36.766 
		26.931,36.766 	"/>
	<rect x="21.265" y="26.259" fill="#141414" width="9.721" height="18"/>
	<rect x="1.015" y="26.259" fill="#333333" width="9.72" height="18"/>
	<path id="path40_1_" fill="#262626" d="M1.015,32.85v5.812c2.292,0,4.151-1.298,4.151-2.906C5.166,34.15,3.307,32.85,1.015,32.85z"
		/>
	<path id="path47" d="M30.981,32.85c-2.293,0-4.152,1.299-4.152,2.905c0,1.604,1.859,2.906,4.152,2.906V32.85z"/>
	<path fill="#1A1A1A" d="M1.015,26.259v8.011c2.292,0,4.151,1.301,4.151,2.903c0,1.604-1.858,2.907-4.151,2.907v4.179h29.969v-18
		H1.015L1.015,26.259z M30.981,40.079c-2.293,0-4.152-1.298-4.152-2.906c0-1.603,1.859-2.905,4.152-2.905V40.079z"/>
	<rect id="rect49" x="1.015" y="22.491" width="29.969" height="3.766"/>
	<rect id="rect51" x="1.015" y="17.836" fill="#333333" width="29.969" height="4.655"/>
	<rect id="rect53" x="3.85" y="1.13" fill="#B2B2B2" width="24.298" height="3.443"/>
	<path id="path55" fill="#8C8C8C" d="M28.147,3.771H3.85L1.015,7.03v10.806h29.967V7.03L28.147,3.771z M15.998,14.728
		c-3.523,0-6.377-2-6.377-4.466c0-2.465,2.854-4.463,6.377-4.463c3.526,0,6.38,1.999,6.38,4.463
		C22.376,12.728,19.522,14.728,15.998,14.728z"/>
	<g>
		<path id="path57" fill="#6D6D6D" d="M9.995,30.757v-3.052h1.187v0.622h0.622v0.621h0.565v-1.241h1.244v3.052h-1.244v-0.623h-0.565
			v-0.62h-0.622v1.241H9.995L9.995,30.757z"/>
		<path id="path59" fill="#6D6D6D" d="M17.231,28.327h0.564v1.187h-0.564v0.622h-1.807v0.621h-1.243v-3.05h3.056v0.621
			L17.231,28.327L17.231,28.327z M16.608,28.327h-1.187v1.187h1.187V28.327z"/>
		<path id="path61" fill="#6D6D6D" d="M18.418,30.757v-3.052h1.187v0.622h0.623v0.621h0.623v-1.241h1.188v3.052h-1.188v-0.623
			h-0.623v-0.62h-0.623v1.241H18.418L18.418,30.757z"/>
	</g>
</g>
</svg>
