<?xml version="1.0" encoding="utf-8"?>
<!-- Generator: Adobe Illustrator 15.1.0, SVG Export Plug-In . SVG Version: 6.00 Build 0)  -->
<!DOCTYPE svg PUBLIC "-//W3C//DTD SVG 1.1//EN" "http://www.w3.org/Graphics/SVG/1.1/DTD/svg11.dtd">
<svg version="1.1" id="Ebene_1" xmlns:svg="http://www.w3.org/2000/svg"
	 xmlns="http://www.w3.org/2000/svg" xmlns:xlink="http://www.w3.org/1999/xlink" x="0px" y="0px" width="52.458px"
	 height="46.533px" viewBox="0 0 52.458 46.533" enable-background="new 0 0 52.458 46.533" xml:space="preserve">
<g>
	<g>
		<g>
			<polygon fill="#666666" points="49.737,42.729 49.737,36.668 2.733,36.668 2.733,42.728 2.733,43.658 2.733,46.533 8.144,46.533 
				8.144,43.658 44.343,43.658 44.343,46.533 49.751,46.533 49.751,42.729 			"/>
			<rect x="19.575" y="36.667" fill="#4D4D4D" width="13.32" height="6.991"/>
			<ellipse cx="26.235" cy="36.969" rx="4.706" ry="2.417"/>
			<rect x="19.575" y="39.933" fill="#333333" width="13.32" height="3.725"/>
			<polygon fill="#4D4D4D" points="51.172,37.968 49.737,37.968 49.737,41.797 			"/>
			<polygon fill="#4D4D4D" points="2.733,37.968 1.3,37.968 2.733,41.797 			"/>
			<polygon opacity="0.25" points="2.733,46.01 8.144,46.01 8.144,43.135 44.343,43.135 44.343,46.01 49.751,46.01 49.751,46.533 
				44.343,46.533 44.343,43.658 8.144,43.658 8.144,46.533 2.733,46.533 			"/>
		</g>
		<g>
			<polyline fill="#333333" points="52.458,0 52.458,36.009 0.017,36.009 0.017,0 52.458,0 			"/>
			<polygon fill="#4D4D4D" points="7.096,4.681 6.996,5.427 45.448,5.232 45.323,4.681 			"/>
			<polygon opacity="0.3" points="7.096,31.325 6.996,30.582 45.448,30.774 45.323,31.325 			"/>
			<path d="M45.887,18.005c0-6.945-0.252-13.105-0.563-13.105H7.152c-0.312,0-0.563,6.16-0.563,13.105
				c0,6.944,0.251,13.104,0.563,13.104h38.173C45.635,31.11,45.887,24.95,45.887,18.005z"/>
			<path fill="#333333" d="M41.979,5.427l-0.031,0.007V5.427H7.541c-0.328,0-0.591,5.632-0.591,12.577
				c0,6.946,0.263,12.575,0.591,12.575h30.938l3.5,0.003c0.398,0,0.882-0.167,0.882-0.563c0,0,0.277-4.318,0.277-11.793
				c0-7.474-0.277-11.918-0.277-11.918C42.861,5.91,42.375,5.427,41.979,5.427z"/>
			<path fill="#1A1A1A" d="M7.836,5.427c-0.328,0-0.591,5.632-0.591,12.577c0,6.946,0.263,12.575,0.591,12.575H7.541
				c-0.328,0-0.591-5.629-0.591-12.575c0-6.945,0.263-12.577,0.591-12.577H7.836z"/>
			<polyline fill="#333333" points="52.444,36.015 0,36.015 0,38.052 52.444,38.052 52.444,36.015 			"/>
			<path fill="#4D4D4D" d="M41.671,6.826c-0.183-0.081-1.505-0.146-2.938-0.146l-18.97,0c-1.434,0-1.477,0.313-0.095,0.697
				c0,0,6.012,1.668,6.012,10.167c0,5.801-0.839,9.252-0.839,9.252c-0.338,1.394,0.557,2.533,1.991,2.533h11.901
				c1.434,0,2.756-0.066,2.938-0.147c0.184-0.079,0.422-1.672,0.531-3.102c0,0,0.184-2.412,0.184-8.075S42.203,9.93,42.203,9.93
				C42.093,8.501,41.855,6.906,41.671,6.826z"/>
			<g opacity="0.33">
				<path d="M10.727,7.226c0.852,0,1.549-0.136,1.549-0.302c0-0.166-0.697-0.301-1.549-0.301H9.715
					c-0.852,0-1.588,0.696-1.635,1.547c0,0-0.244,4.392-0.244,9.84s0.244,9.841,0.244,9.841c0.047,0.851,0.783,1.547,1.635,1.547
					h8.715c0.852,0,1.549-0.136,1.549-0.302s-0.697-0.302-1.549-0.302h-8.155c-0.852,0-1.589-0.696-1.637-1.547
					c0,0-0.242-4.28-0.242-9.237s0.242-9.237,0.242-9.237c0.048-0.851,0.785-1.547,1.637-1.547H10.727z"/>
			</g>
			
				<text transform="matrix(-4.442216e-008 1.0163 -1 -4.371139e-008 9.9673 17.2996)" fill="#F8F8F8" font-family="'ArialMT'" font-size="5">I</text>
			
				<text transform="matrix(-4.442216e-008 1.0163 -1 -4.371139e-008 35.1372 16.0295)" fill="#F8F8F8" font-family="'ArialMT'" font-size="5">O</text>
			<g>
				<polygon opacity="0.24" enable-background="new    " points="52.458,36.009 52.458,35.005 1.021,35.005 0.016,36.009 				"/>
				<polygon opacity="0.24" fill="#F2F2F2" enable-background="new    " points="51.454,1.005 52.458,0 0.016,0 0.016,1.005 				"/>
				<polygon opacity="0.24" fill="#F2F2F2" enable-background="new    " points="1.021,35.005 0.016,36.009 0.016,1.005 
					1.021,1.005 				"/>
				<polygon opacity="0.24" enable-background="new    " points="52.458,0 51.454,1.005 51.454,35.005 52.458,35.005 				"/>
			</g>
		</g>
	</g>
</g>
<g opacity="0.19">
	<path fill="#FFFFFF" d="M41.55,6.172c0,0.1-0.13,0.182-0.288,0.182H8.432c-0.159,0-0.288-0.082-0.288-0.182S8.273,5.99,8.432,5.99
		h32.831C41.42,5.99,41.55,6.072,41.55,6.172z"/>
</g>
<g opacity="0.33">
	<path d="M41.55,29.954c0,0.1-0.13,0.182-0.288,0.182H8.432c-0.159,0-0.288-0.082-0.288-0.182c0-0.101,0.129-0.183,0.288-0.183
		h32.831C41.42,29.771,41.55,29.853,41.55,29.954z"/>
</g>
<path opacity="0.52" fill="#4D4D4D" d="M41.633,5.427c0.396,0,0.882,0.483,0.882,0.882c0,0,0.422,4.5,0.422,11.973
	c0,7.475-0.422,11.738-0.422,11.738c0,0.396-0.483,0.563-0.882,0.563h0.346c0.398,0,0.882-0.167,0.882-0.563
	c0,0,0.277-4.318,0.277-11.793c0-7.474-0.277-11.918-0.277-11.918c0-0.398-0.485-0.882-0.882-0.882H41.633z"/>
</svg>
