<?xml version="1.0" encoding="utf-8"?>
<!-- Generator: Adobe Illustrator 15.1.0, SVG Export Plug-In . SVG Version: 6.00 Build 0)  -->
<!DOCTYPE svg PUBLIC "-//W3C//DTD SVG 1.1//EN" "http://www.w3.org/Graphics/SVG/1.1/DTD/svg11.dtd">
<svg version="1.1" id="Ebene_1" xmlns:svg="http://www.w3.org/2000/svg"
	 xmlns="http://www.w3.org/2000/svg" xmlns:xlink="http://www.w3.org/1999/xlink" x="0px" y="0px" width="46.168px"
	 height="56.832px" viewBox="0 0 46.168 56.832" enable-background="new 0 0 46.168 56.832" xml:space="preserve">
<g>
	<rect x="1.196" y="6.5" fill="#1A1A1A" width="43.775" height="32.671"/>
	<g>
		<g enable-background="new    ">
			<g>
				<polyline fill="#B3B3B3" points="2.353,56.153 2.353,53.26 12.046,53.26 12.046,56.153 2.353,56.153 				"/>
				<polyline fill="#B3B3B3" points="2.353,53.26 2.353,39.287 43.816,39.287 43.816,44.912 43.816,45.253 43.825,45.253 
					43.825,47.445 43.816,47.445 43.816,47.792 43.816,53.26 34.124,53.26 43.816,53.26 43.816,56.153 34.124,56.153 28.461,56.153 
					28.461,56.503 17.707,56.503 17.707,56.153 12.046,56.153 12.046,53.26 2.353,53.26 				"/>
				<polyline fill="#B3B3B3" points="44.967,38.751 1.192,38.751 1.192,56.837 44.967,56.837 44.967,56.832 1.192,56.832 
					1.192,56.607 44.967,56.607 44.527,56.607 44.527,50.803 44.967,50.803 44.967,38.751 				"/>
				<polyline fill="#333333" points="42.879,47.445 42.879,52.904 33.429,52.904 33.429,53.619 33.403,53.619 33.403,54.24 
					28.461,54.24 28.461,55.901 28.461,56.153 34.124,56.153 34.124,53.26 43.816,53.26 43.816,47.792 42.879,47.792 42.879,47.445 
									"/>
				<polyline fill="#333333" points="43.816,39.287 2.353,39.287 2.353,53.26 12.046,53.26 12.046,56.153 17.707,56.153 
					17.707,54.24 12.766,54.24 12.766,53.619 12.739,53.619 12.739,52.904 3.298,52.904 3.298,47.792 2.353,47.792 2.353,44.912 
					3.298,44.912 3.298,39.794 9.499,39.794 10.75,39.794 11.136,39.794 11.38,39.794 11.569,39.794 11.947,39.794 12.145,39.794 
					12.387,39.794 12.739,39.794 13.99,39.794 14.377,39.794 14.62,39.794 14.809,39.794 15.187,39.794 15.385,39.794 
					15.628,39.794 15.979,39.794 17.23,39.794 17.617,39.794 17.86,39.794 18.058,39.794 18.427,39.794 18.616,39.794 
					18.868,39.794 19.219,39.794 20.469,39.794 20.857,39.794 21.1,39.794 21.298,39.794 21.667,39.794 21.856,39.794 
					22.108,39.794 22.459,39.794 23.709,39.794 24.096,39.794 24.348,39.794 24.538,39.794 24.907,39.794 25.104,39.794 
					25.347,39.794 25.7,39.794 26.95,39.794 27.336,39.794 27.588,39.794 27.778,39.794 28.146,39.794 28.344,39.794 28.588,39.794 
					28.938,39.794 30.19,39.794 30.577,39.794 30.82,39.794 31.017,39.794 31.395,39.794 31.584,39.794 31.829,39.794 
					32.178,39.794 33.429,39.794 33.817,39.794 34.059,39.794 34.258,39.794 34.635,39.794 34.825,39.794 35.068,39.794 
					35.418,39.794 36.67,39.794 42.879,39.794 42.879,45.253 42.879,44.912 43.816,44.912 43.816,39.287 				"/>
				<polyline points="12.766,54.236 12.766,53.619 33.393,53.619 33.393,54.236 12.766,54.236 				"/>
				<polyline points="9.499,52.904 9.499,48.984 10.75,48.984 10.75,52.904 9.499,52.904 				"/>
				<polyline points="15.979,53.619 15.979,48.984 17.23,48.984 17.23,53.619 15.979,53.619 				"/>
				<polyline points="19.219,53.619 19.219,48.984 20.469,48.984 20.469,53.619 19.219,53.619 				"/>
				<polyline points="22.459,53.619 22.459,48.984 23.709,48.984 23.709,53.619 22.459,53.619 				"/>
				<polyline points="25.7,53.619 25.7,48.984 26.95,48.984 26.95,53.619 25.7,53.619 				"/>
				<polyline points="28.938,53.619 28.938,48.984 30.19,48.984 30.19,53.619 28.938,53.619 				"/>
				<polyline points="35.418,52.904 35.418,48.984 36.67,48.984 36.67,52.904 35.418,52.904 				"/>
				<polyline points="42.879,39.794 36.67,39.794 36.67,48.646 35.418,48.646 35.418,39.794 35.068,39.794 35.068,47.257 
					33.817,47.257 33.817,39.794 33.429,39.794 33.429,48.646 32.178,48.646 32.178,39.794 31.829,39.794 31.829,47.257 
					30.577,47.257 30.577,39.794 30.19,39.794 30.19,48.646 28.938,48.646 28.938,39.794 28.588,39.794 28.588,47.257 
					27.336,47.257 27.336,39.794 26.95,39.794 26.95,48.646 25.7,48.646 25.7,39.794 25.347,39.794 25.347,47.257 24.096,47.257 
					24.096,39.794 23.709,39.794 23.709,48.646 22.459,48.646 22.459,39.794 22.108,39.794 22.108,47.257 20.857,47.257 
					20.857,39.794 20.469,39.794 20.469,48.646 19.219,48.646 19.219,39.794 18.868,39.794 18.868,47.257 17.617,47.257 
					17.617,39.794 17.23,39.794 17.23,48.646 15.979,48.646 15.979,39.794 15.628,39.794 15.628,47.257 14.377,47.257 
					14.377,39.794 13.99,39.794 13.99,48.646 12.739,48.646 12.739,39.794 12.387,39.794 12.387,47.257 11.136,47.257 
					11.136,39.794 10.75,39.794 10.75,48.646 9.499,48.646 9.499,39.794 3.298,39.794 3.298,44.912 3.298,45.253 3.478,45.253 
					3.72,45.253 3.847,45.253 3.991,45.253 4.234,45.253 4.234,47.445 3.298,47.445 3.298,47.792 3.298,52.904 12.739,52.904 
					12.739,48.984 13.99,48.984 13.99,53.619 12.766,53.619 12.766,54.24 17.707,54.24 17.707,56.153 17.707,55.901 28.461,55.901 
					28.461,54.24 33.403,54.24 33.403,53.619 32.178,53.619 32.178,48.984 33.429,48.984 33.429,52.904 42.879,52.904 
					42.879,47.445 41.934,47.445 41.934,45.253 42.176,45.253 42.322,45.253 42.458,45.253 42.691,45.253 42.879,45.253 
					42.879,39.794 				"/>
				<polyline fill="#1A1A1A" points="33.393,53.619 12.766,53.619 12.766,54.236 33.393,54.236 33.393,53.619 				"/>
				<polyline fill="#1A1A1A" points="28.461,55.901 17.707,55.901 17.707,56.153 17.707,56.503 28.461,56.503 28.461,56.153 
					28.461,55.901 				"/>
				<polyline points="43.816,47.445 42.879,47.445 42.879,47.792 43.816,47.792 43.816,47.445 				"/>
				<polyline points="43.816,44.912 42.879,44.912 42.879,45.253 42.943,45.253 43.816,45.253 43.816,44.912 				"/>
				<polyline points="3.298,44.912 2.353,44.912 2.353,47.792 3.298,47.792 3.298,47.445 2.353,47.445 2.353,45.253 3.226,45.253 
					3.298,45.253 3.298,44.912 				"/>
				<polyline fill="#CCCCCC" points="43.825,45.253 43.816,45.253 42.943,45.253 42.943,47.445 41.934,47.445 41.934,45.253 
					41.934,47.445 42.879,47.445 43.816,47.445 43.825,47.445 43.825,45.253 				"/>
				<polyline fill="#B3B3B3" points="42.943,45.253 42.879,45.253 42.691,45.253 42.691,47.445 41.934,47.445 41.934,45.253 
					41.934,47.445 42.943,47.445 42.943,45.253 				"/>
				<polyline fill="#999999" points="42.691,45.253 42.458,45.253 42.458,47.445 41.934,47.445 41.934,45.253 41.934,47.445 
					42.691,47.445 42.691,45.253 				"/>
				<polyline fill="#808080" points="42.458,45.253 42.322,45.253 42.322,47.445 42.176,47.445 42.176,45.253 41.934,45.253 
					41.934,47.445 42.458,47.445 42.458,45.253 				"/>
				<polyline fill="#CCCCCC" points="42.322,45.253 42.176,45.253 42.176,47.445 42.322,47.445 42.322,45.253 				"/>
				<polyline fill="#CCCCCC" points="3.226,45.253 2.353,45.253 2.353,47.445 3.298,47.445 4.234,47.445 3.226,47.445 3.226,45.253 
									"/>
				<polyline fill="#B3B3B3" points="3.478,45.253 3.298,45.253 3.226,45.253 3.226,47.445 4.234,47.445 3.478,47.445 3.478,45.253 
									"/>
				<polyline fill="#999999" points="3.72,45.253 3.478,45.253 3.478,47.445 4.234,47.445 3.72,47.445 3.72,45.253 				"/>
				<polyline fill="#808080" points="4.234,45.253 3.991,45.253 3.991,47.445 3.847,47.445 3.847,45.253 3.72,45.253 3.72,47.445 
					4.234,47.445 4.234,45.253 				"/>
				<polyline fill="#CCCCCC" points="3.991,45.253 3.847,45.253 3.847,47.445 3.991,47.445 3.991,45.253 				"/>
				<polyline fill="#0F0F0F" points="36.67,48.984 35.418,48.984 35.418,52.904 36.67,52.904 36.67,48.984 				"/>
				<polyline fill="#252525" points="33.429,52.904 33.403,52.904 33.403,53.619 33.429,53.619 33.429,52.904 				"/>
				<polyline fill="#0F0F0F" points="33.429,48.984 32.178,48.984 32.178,53.619 33.403,53.619 33.403,52.904 33.429,52.904 
					33.429,48.984 				"/>
				<polyline fill="#0F0F0F" points="30.19,48.984 28.938,48.984 28.938,53.619 30.19,53.619 30.19,48.984 				"/>
				<polyline fill="#0F0F0F" points="26.95,48.984 25.7,48.984 25.7,53.619 26.95,53.619 26.95,48.984 				"/>
				<polyline fill="#0F0F0F" points="23.709,48.984 22.459,48.984 22.459,53.619 23.709,53.619 23.709,48.984 				"/>
				<polyline fill="#0F0F0F" points="20.469,48.984 19.219,48.984 19.219,53.619 20.469,53.619 20.469,48.984 				"/>
				<polyline fill="#0F0F0F" points="17.23,48.984 15.979,48.984 15.979,53.619 17.23,53.619 17.23,48.984 				"/>
				<polyline fill="#252525" points="12.766,52.904 12.739,52.904 12.739,53.619 12.766,53.619 12.766,52.904 				"/>
				<polyline fill="#0F0F0F" points="13.99,48.984 12.739,48.984 12.739,52.904 12.766,52.904 12.766,53.619 13.99,53.619 
					13.99,48.984 				"/>
				<polyline fill="#0F0F0F" points="10.75,48.984 9.499,48.984 9.499,52.904 10.75,52.904 10.75,48.984 				"/>
				<polyline fill="#0D0D0D" points="36.67,39.794 35.418,39.794 35.418,48.646 36.67,48.646 36.67,39.794 				"/>
				<polyline fill="#0D0D0D" points="33.429,39.794 32.178,39.794 32.178,48.646 33.429,48.646 33.429,39.794 				"/>
				<polyline fill="#0D0D0D" points="30.19,39.794 28.938,39.794 28.938,48.646 30.19,48.646 30.19,39.794 				"/>
				<polyline fill="#0D0D0D" points="26.95,39.794 25.7,39.794 25.7,48.646 26.95,48.646 26.95,39.794 				"/>
				<polyline fill="#0D0D0D" points="23.709,39.794 22.459,39.794 22.459,48.646 23.709,48.646 23.709,39.794 				"/>
				<polyline fill="#0D0D0D" points="20.469,39.794 19.219,39.794 19.219,48.646 20.469,48.646 20.469,39.794 				"/>
				<polyline fill="#0D0D0D" points="17.23,39.794 15.979,39.794 15.979,48.646 17.23,48.646 17.23,39.794 				"/>
				<polyline fill="#0D0D0D" points="13.99,39.794 12.739,39.794 12.739,48.646 13.99,48.646 13.99,39.794 				"/>
				<polyline fill="#0D0D0D" points="10.75,39.794 9.499,39.794 9.499,48.646 10.75,48.646 10.75,39.794 				"/>
				<polyline fill="#6F4813" points="35.068,39.794 34.825,39.794 34.825,47.257 34.059,47.257 34.059,39.794 33.817,39.794 
					33.817,47.257 35.068,47.257 35.068,39.794 				"/>
				<polyline fill="#6F4813" points="31.829,39.794 31.584,39.794 31.584,47.257 30.82,47.257 30.82,39.794 30.577,39.794 
					30.577,47.257 31.829,47.257 31.829,39.794 				"/>
				<polyline fill="#6F4813" points="28.588,39.794 28.344,39.794 28.344,47.257 27.588,47.257 27.588,39.794 27.336,39.794 
					27.336,47.257 28.588,47.257 28.588,39.794 				"/>
				<polyline fill="#6F4813" points="25.347,39.794 25.104,39.794 25.104,47.257 24.348,47.257 24.348,39.794 24.096,39.794 
					24.096,47.257 25.347,47.257 25.347,39.794 				"/>
				<polyline fill="#6F4813" points="22.108,39.794 21.856,39.794 21.856,47.257 21.1,47.257 21.1,39.794 20.857,39.794 
					20.857,47.257 22.108,47.257 22.108,39.794 				"/>
				<polyline fill="#6F4813" points="18.868,39.794 18.616,39.794 18.616,47.257 17.86,47.257 17.86,39.794 17.617,39.794 
					17.617,47.257 18.868,47.257 18.868,39.794 				"/>
				<polyline fill="#6F4813" points="15.628,39.794 15.385,39.794 15.385,47.257 14.62,47.257 14.62,39.794 14.377,39.794 
					14.377,47.257 15.628,47.257 15.628,39.794 				"/>
				<polyline fill="#6F4813" points="12.387,39.794 12.145,39.794 12.145,47.257 11.38,47.257 11.38,39.794 11.136,39.794 
					11.136,47.257 12.387,47.257 12.387,39.794 				"/>
				<polyline fill="#78592E" points="34.825,39.794 34.635,39.794 34.635,47.257 34.258,47.257 34.258,39.794 34.059,39.794 
					34.059,47.257 34.825,47.257 34.825,39.794 				"/>
				<polyline fill="#78592E" points="31.584,39.794 31.395,39.794 31.395,47.257 31.017,47.257 31.017,39.794 30.82,39.794 
					30.82,47.257 31.584,47.257 31.584,39.794 				"/>
				<polyline fill="#78592E" points="28.344,39.794 28.146,39.794 28.146,47.257 27.778,47.257 27.778,39.794 27.588,39.794 
					27.588,47.257 28.344,47.257 28.344,39.794 				"/>
				<polyline fill="#78592E" points="25.104,39.794 24.907,39.794 24.907,47.257 24.538,47.257 24.538,39.794 24.348,39.794 
					24.348,47.257 25.104,47.257 25.104,39.794 				"/>
				<polyline fill="#78592E" points="21.856,39.794 21.667,39.794 21.667,47.257 21.298,47.257 21.298,39.794 21.1,39.794 
					21.1,47.257 21.856,47.257 21.856,39.794 				"/>
				<polyline fill="#78592E" points="18.616,39.794 18.427,39.794 18.427,47.257 18.058,47.257 18.058,39.794 17.86,39.794 
					17.86,47.257 18.616,47.257 18.616,39.794 				"/>
				<polyline fill="#78592E" points="15.385,39.794 15.187,39.794 15.187,47.257 14.809,47.257 14.809,39.794 14.62,39.794 
					14.62,47.257 15.385,47.257 15.385,39.794 				"/>
				<polyline fill="#78592E" points="12.145,39.794 11.947,39.794 11.947,47.257 11.569,47.257 11.569,39.794 11.38,39.794 
					11.38,47.257 12.145,47.257 12.145,39.794 				"/>
				<polyline fill="#81694A" points="34.635,39.794 34.258,39.794 34.258,47.257 34.635,47.257 34.635,39.794 				"/>
				<polyline fill="#81694A" points="31.395,39.794 31.017,39.794 31.017,47.257 31.395,47.257 31.395,39.794 				"/>
				<polyline fill="#81694A" points="28.146,39.794 27.778,39.794 27.778,47.257 28.146,47.257 28.146,39.794 				"/>
				<polyline fill="#81694A" points="24.907,39.794 24.538,39.794 24.538,47.257 24.907,47.257 24.907,39.794 				"/>
				<polyline fill="#81694A" points="21.667,39.794 21.298,39.794 21.298,47.257 21.667,47.257 21.667,39.794 				"/>
				<polyline fill="#81694A" points="18.427,39.794 18.058,39.794 18.058,47.257 18.427,47.257 18.427,39.794 				"/>
				<polyline fill="#81694A" points="15.187,39.794 14.809,39.794 14.809,47.257 15.187,47.257 15.187,39.794 				"/>
				<polyline fill="#81694A" points="11.947,39.794 11.569,39.794 11.569,47.257 11.947,47.257 11.947,39.794 				"/>
				<polyline fill="#999999" points="44.967,56.607 1.192,56.607 1.192,56.832 44.967,56.832 44.967,56.607 				"/>
				<polyline fill="#999999" points="44.967,50.803 44.527,50.803 44.527,56.607 44.967,56.607 44.967,50.803 				"/>
			</g>
		</g>
	</g>
	<g>
		<path fill="#B3B3B3" d="M12.031,29.421c0-0.396,0.324-0.719,0.724-0.719h2.649c0.396,0,0.724,0.324,0.724,0.719v9.449
			c0,0.396-0.324,0.719-0.724,0.719h-2.649c-0.396,0-0.724-0.323-0.724-0.719V29.421z"/>
		<path fill="#B3B3B3" d="M30.038,29.421c0-0.396,0.324-0.719,0.725-0.719h2.648c0.396,0,0.725,0.324,0.725,0.719v9.449
			c0,0.396-0.324,0.719-0.725,0.719h-2.648c-0.396,0-0.725-0.323-0.725-0.719V29.421z"/>
		<path fill="#CCCCCC" d="M12.031,29.421c0-0.396,0.324-0.719,0.724-0.719h2.649c0.396,0,0.724,0.324,0.724,0.719v1.168H12.03
			L12.031,29.421L12.031,29.421z"/>
		<path fill="#CCCCCC" d="M30.038,29.421c0-0.396,0.324-0.719,0.725-0.719h2.648c0.396,0,0.725,0.324,0.725,0.719v1.168h-4.098
			V29.421z"/>
		<rect x="12.031" y="30.403" fill="#999999" width="4.098" height="4.063"/>
		<rect x="30.038" y="30.403" fill="#999999" width="4.098" height="4.063"/>
		<rect x="12.031" y="32.964" fill="#B3B3B3" width="4.098" height="3.875"/>
		<rect x="30.038" y="32.964" fill="#B3B3B3" width="4.098" height="3.875"/>
		<rect x="12.031" y="34.746" fill="#CCCCCC" width="4.098" height="1.469"/>
		<rect x="30.038" y="34.746" fill="#CCCCCC" width="4.098" height="1.469"/>
		<rect x="12.031" y="30.248" fill="#E6E6E6" width="4.098" height="0.311"/>
		<rect x="12.034" y="29.701" fill="#F2F2F2" width="4.098" height="0.489"/>
		<path fill="#CCCCCC" d="M44.973,28.323V0.721v-0.72h-0.721H1.918H1.196v0.72v27.602h0.288v10.429H1.92h8.627h0.72l0.047-0.717
			l0.336-5.104l0.336-5.104c0.026-0.395,0.372-0.718,0.771-0.718h2.666c0.396,0,0.738,0.323,0.768,0.718l0.336,5.104l0.336,5.104
			l0,0l0.048,0.717h0.724h10.918h0.721l0.049-0.717l0,0l0.346-5.104l0.348-5.105c0.023-0.395,0.373-0.717,0.768-0.717h2.629
			c0.396,0,0.74,0.322,0.771,0.717l0.346,5.105l0.344,5.104l0,0l0.049,0.717h0.718h8.627H44.7v-10.43L44.973,28.323L44.973,28.323z"
			/>
	</g>
	<rect x="1.196" opacity="0.37" fill="#E6E6E6" enable-background="new    " width="3.475" height="38.751"/>
	<rect x="41.502" opacity="0.37" fill="#808080" enable-background="new    " width="3.472" height="38.751"/>
	<path opacity="0.45" fill="#E6E6E6" enable-background="new    " d="M14.078,38.751h-2.047c0,0,0-8.853,0-9.33
		c0-0.479,0.433-0.721,0.724-0.721s1.323,0,1.323,0V38.751z"/>
	<path opacity="0.45" fill="#E6E6E6" enable-background="new    " d="M32.084,38.751h-2.043c0,0,0-8.853,0-9.33
		c0-0.479,0.428-0.721,0.719-0.721s1.324,0,1.324,0V38.751L32.084,38.751z"/>
	<path opacity="0.45" fill="#B3B3B3" enable-background="new    " d="M32.088,38.751h2.048c0,0,0-8.853,0-9.33
		c0-0.479-0.435-0.721-0.726-0.721s-1.322,0-1.322,0V38.751z"/>
	<path opacity="0.45" fill="#B3B3B3" enable-background="new    " d="M14.078,38.751h2.051c0,0,0-8.853,0-9.33
		c0-0.479-0.433-0.721-0.724-0.721s-1.327,0-1.327,0V38.751z"/>
	<rect x="12.031" y="34.964" opacity="0.76" fill="#E6E6E6" enable-background="new    " width="4.098" height="0.813"/>
	<rect x="30.038" y="34.964" opacity="0.76" fill="#E6E6E6" enable-background="new    " width="4.098" height="0.813"/>
	<rect x="30.038" y="30.248" opacity="0.76" fill="#E6E6E6" enable-background="new    " width="4.098" height="0.311"/>
	<rect x="30.042" y="29.806" opacity="0.76" fill="#F2F2F2" enable-background="new    " width="4.095" height="0.41"/>
	<g>
		<g>
			<rect x="0.011" y="41.612" fill="#999999" width="0.386" height="1.699"/>
			<rect x="0.011" y="41.612" fill="#999999" width="0.386" height="1.699"/>
		</g>
		<path fill="#999999" d="M1.192,48.053c0,0-0.658-2.991-0.783-4.741H0.011c0.125,1.75,0.783,4.741,0.783,4.741
			s0.254,1.497,0.397,1.903C1.192,48.987,1.192,48.053,1.192,48.053z"/>
		<path fill="#CCCCCC" d="M1.192,46.365c0,0-0.669-3.003-0.794-4.753H0c0.125,1.75,0.794,4.753,0.794,4.753s0.254,1.497,0.397,1.903
			C1.192,47.3,1.192,46.365,1.192,46.365z"/>
	</g>
	<g>
		<g>
			<rect x="45.771" y="41.612" fill="#999999" width="0.386" height="1.699"/>
			<rect x="45.771" y="41.612" fill="#999999" width="0.386" height="1.699"/>
		</g>
		<path fill="#999999" d="M44.976,48.053c0,0,0.657-2.991,0.782-4.741h0.397c-0.125,1.75-0.782,4.741-0.782,4.741
			s-0.254,1.497-0.397,1.903C44.976,48.987,44.976,48.053,44.976,48.053z"/>
		<path fill="#CCCCCC" d="M44.976,46.365c0,0,0.67-3.003,0.795-4.753h0.397c-0.125,1.75-0.795,4.753-0.795,4.753
			s-0.254,1.497-0.397,1.903C44.976,47.3,44.976,46.365,44.976,46.365z"/>
	</g>
</g>
</svg>
