<?xml version="1.0" encoding="utf-8"?>
<!-- Generator: Adobe Illustrator 15.1.0, SVG Export Plug-In . SVG Version: 6.00 Build 0)  -->
<!DOCTYPE svg PUBLIC "-//W3C//DTD SVG 1.1//EN" "http://www.w3.org/Graphics/SVG/1.1/DTD/svg11.dtd">
<svg version="1.1" id="Ebene_1" xmlns:svg="http://www.w3.org/2000/svg"
	 xmlns="http://www.w3.org/2000/svg" xmlns:xlink="http://www.w3.org/1999/xlink" x="0px" y="0px" width="47.07px"
	 height="62.627px" viewBox="0 0 47.07 62.627" enable-background="new 0 0 47.07 62.627" xml:space="preserve">

<g>
	<rect y="13.168" fill="#1A1A1A" width="47.07" height="47.07"/>
	<rect y="59.752" opacity="0.4" width="47.07" height="0.486"/>
	<rect y="9.25" fill="#333333" width="47.07" height="47.07"/>
	<rect y="9.25" opacity="0.2" fill="#FFFFFF" width="47.07" height="0.377"/>
	<rect y="28.75" fill="#1A1A1A" width="47.07" height="4.035"/>
	<circle fill="#1A1A1A" cx="23.535" cy="32.785" r="23.535"/>
	<circle fill="#333333" cx="23.535" cy="28.751" r="23.535"/>
	<rect x="4.035" y="19.5" fill="#1A1A1A" width="39" height="9.25"/>
	<circle fill="#1A1A1A" cx="23.535" cy="28.75" r="19.5"/>
	<path opacity="0.2" fill="#FFFFFF" d="M0,29.363C0,16.365,10.537,5.828,23.535,5.828c12.998,0,23.535,10.537,23.535,23.535V28.75
		c0-12.998-10.537-23.535-23.535-23.535C10.537,5.216,0,15.752,0,28.75V29.363z"/>
	<circle fill="#CB0E34" cx="23.535" cy="19.501" r="17.179"/>
	<path opacity="0.2" fill="#1A1A1A" d="M18.322,20.747c0-2.879,2.334-4.4,5.213-4.4c2.878,0,5.212,1.521,5.212,4.4V20.12
		c0-2.879-2.334-5.213-5.212-5.213c-2.879,0-5.213,2.334-5.213,5.213V20.747z"/>
	<path fill="#333333" d="M23.535,0c-10.77,0-19.5,8.73-19.5,19.5s8.73,19.5,19.5,19.5c10.769,0,19.5-8.73,19.5-19.5
		S34.304,0,23.535,0z M23.535,24.713c-2.879,0-5.213-2.334-5.213-5.213s2.334-5.213,5.213-5.213c2.878,0,5.212,2.334,5.212,5.213
		S26.414,24.713,23.535,24.713z"/>
</g>
<g>
	<path fill="#333333" d="M42.705,23c-0.046,0.253-0.114,0.497-0.17,0.746v4.11l0.156-0.901L42.705,23z"/>
	<path fill="#333333" d="M41.285,27.519v4.046c0.182-0.4,0.345-0.809,0.5-1.224v-4.007C41.634,26.738,41.46,27.129,41.285,27.519z"
		/>
	<path fill="#333333" d="M40.035,29.841v4.041c0.171-0.271,0.343-0.543,0.5-0.823v-4.054C40.375,29.29,40.208,29.567,40.035,29.841z
		"/>
	<path fill="#333333" d="M38.785,31.611v4.045c0.174-0.218,0.336-0.444,0.5-0.669v-4.023C39.125,31.184,38.955,31.397,38.785,31.611
		z"/>
	<path fill="#333333" d="M37.535,33.045v4.033c0.172-0.178,0.334-0.365,0.5-0.55V32.5C37.871,32.684,37.706,32.868,37.535,33.045z"
		/>
	<path fill="#333333" d="M36.285,34.233v4.022c0.17-0.147,0.335-0.301,0.5-0.454v-4.028C36.619,33.927,36.456,34.084,36.285,34.233z
		"/>
	<path fill="#333333" d="M35.035,35.229v4.017c0.168-0.123,0.336-0.245,0.5-0.374v-4.029C35.369,34.972,35.205,35.104,35.035,35.229
		z"/>
	<path fill="#333333" d="M33.785,36.07v4.02c0.166-0.103,0.338-0.196,0.5-0.304v-4.039C34.12,35.857,33.954,35.965,33.785,36.07z"/>
	<path fill="#333333" d="M32.535,36.78v4.031c0.168-0.087,0.335-0.174,0.5-0.267v-4.029C32.871,36.608,32.702,36.693,32.535,36.78z"
		/>
	<path fill="#333333" d="M31.285,37.378v4.035c0.17-0.073,0.332-0.162,0.5-0.241v-4.006C31.622,37.243,31.451,37.306,31.285,37.378z
		"/>
	<path fill="#333333" d="M30.035,37.877v4.012c0.168-0.059,0.335-0.119,0.5-0.183v-4.011C30.37,37.759,30.202,37.818,30.035,37.877z
		"/>
	<path fill="#333333" d="M28.785,38.282v4.006c0.165-0.046,0.336-0.078,0.5-0.129V38.12C29.117,38.171,28.955,38.235,28.785,38.282z
		"/>
	<path fill="#333333" d="M27.535,38.573v4.036c0.17-0.035,0.332-0.089,0.5-0.129v-4.021C27.869,38.499,27.703,38.539,27.535,38.573z
		"/>
	<path fill="#333333" d="M26.285,38.789v4.019c0.167-0.023,0.334-0.049,0.5-0.076V38.72C26.62,38.749,26.451,38.765,26.285,38.789z"
		/>
	<path fill="#333333" d="M25.035,38.933v4.015c0.166-0.013,0.335-0.01,0.5-0.026V38.89C25.369,38.907,25.202,38.92,25.035,38.933z"
		/>
	<path fill="#333333" d="M23.785,38.989v4.021c0.168-0.002,0.333-0.019,0.5-0.025v-4.018C24.118,38.973,23.953,38.987,23.785,38.989
		z"/>
	<path fill="#333333" d="M22.535,38.956v4.017c0.167,0.009,0.332,0.021,0.5,0.025v-4.02C22.867,38.974,22.701,38.964,22.535,38.956z
		"/>
	<path fill="#333333" d="M21.285,38.856v4.027c0.166,0.019,0.333,0.036,0.5,0.051v-4.013C21.616,38.907,21.452,38.875,21.285,38.856
		z"/>
	<path fill="#333333" d="M20.035,38.687v4.005c0.165,0.03,0.333,0.051,0.5,0.077v-4.015C20.369,38.729,20.199,38.716,20.035,38.687z
		"/>
	<path fill="#333333" d="M18.785,38.402v4.014c0.167,0.042,0.331,0.091,0.5,0.129v-4.028C19.118,38.479,18.95,38.444,18.785,38.402z
		"/>
	<path fill="#333333" d="M17.535,38.039v4.034c0.166,0.053,0.333,0.102,0.5,0.15v-4.022C17.866,38.151,17.701,38.093,17.535,38.039z
		"/>
	<path fill="#333333" d="M16.285,37.589v4.025c0.164,0.066,0.333,0.122,0.5,0.184v-4.002C16.615,37.734,16.452,37.657,16.285,37.589
		z"/>
	<path fill="#333333" d="M15.035,37.045v4.007c0.167,0.081,0.331,0.165,0.5,0.241v-4.021C15.368,37.197,15.199,37.125,15.035,37.045
		z"/>
	<path fill="#333333" d="M13.785,36.382v4.011c0.168,0.097,0.329,0.205,0.5,0.298v-4.044C14.119,36.557,13.948,36.477,13.785,36.382
		z"/>
	<path fill="#333333" d="M12.535,35.585v4.034c0.163,0.111,0.333,0.211,0.5,0.317v-4.029C12.868,35.801,12.698,35.698,12.535,35.585
		z"/>
	<path fill="#333333" d="M11.285,34.648v4.037c0.162,0.131,0.334,0.248,0.5,0.374v-4.023C11.617,34.908,11.448,34.781,11.285,34.648
		z"/>
	<path fill="#333333" d="M10.035,33.542v4.031c0.163,0.156,0.332,0.304,0.5,0.454v-4.025C10.366,33.851,10.198,33.7,10.035,33.542z"
		/>
	<path fill="#333333" d="M8.785,32.227v4.026c0.162,0.188,0.331,0.369,0.5,0.551v-4.032C9.117,32.591,8.946,32.414,8.785,32.227z"/>
	<path fill="#333333" d="M7.535,30.618v4.035c0.159,0.229,0.331,0.447,0.5,0.668v-4.034C7.866,31.065,7.694,30.846,7.535,30.618z"/>
	<path fill="#333333" d="M6.285,28.532v4.071c0.156,0.296,0.329,0.58,0.5,0.867v-4.018C6.606,29.153,6.447,28.841,6.285,28.532z"/>
	<path fill="#333333" d="M5.035,25.569v4.09c0.153,0.462,0.314,0.92,0.5,1.366v-4.1C5.352,26.481,5.186,26.03,5.035,25.569z"/>
	<path fill="#333333" d="M4.035,23.523c0,1.014,0.101,2.001,0.25,2.973v-3.616C4.187,22.762,4.035,22.708,4.035,23.523z"/>
</g>
<path opacity="0.2" fill="#FFFFFF" d="M4.035,20.127c0-10.77,8.73-19.5,19.5-19.5c10.769,0,19.5,8.73,19.5,19.5V19.5
	c0-10.77-8.73-19.5-19.5-19.5c-10.77,0-19.5,8.73-19.5,19.5V20.127z"/>
<path opacity="0.2" d="M43.035,18.874c0,10.77-8.73,19.5-19.5,19.5c-10.769,0-19.5-8.73-19.5-19.5V19.5c0,10.77,8.73,19.5,19.5,19.5
	c10.77,0,19.5-8.73,19.5-19.5V18.874z"/>
<path opacity="0.2" d="M43.035,23.492c0,10.77-8.73,19.5-19.5,19.5c-10.769,0-19.5-8.73-19.5-19.5v0.627
	c0,10.77,8.73,19.5,19.5,19.5c10.77,0,19.5-8.73,19.5-19.5V23.492z"/>
<path opacity="0.2" d="M43.035,28.733c0,10.77-8.73,19.5-19.5,19.5s-19.5-8.73-19.5-19.5v0.627c0,10.77,8.73,19.5,19.5,19.5
	s19.5-8.73,19.5-19.5V28.733z"/>
<path fill="#1A1A1A" d="M18.322,20.127c0-2.879,2.334-5.213,5.213-5.213c2.878,0,5.212,2.334,5.212,5.213V19.5
	c0-2.879-2.334-5.213-5.212-5.213c-2.879,0-5.213,2.334-5.213,5.213V20.127z"/>
</svg>
