<?xml version='1.0' encoding='utf-8'?>
<!-- Generator: Adobe Illustrator 14.0.0, SVG Export Plug-In . SVG Version: 6.00 Build 43363)  -->
<svg width="32px" x="0px" version="1.2" y="0px" xmlns="http://www.w3.org/2000/svg" height="32px" viewBox="0 0 32 32" baseProfile="tiny" xmlns:xlink="http://www.w3.org/1999/xlink" id="Layer_2" xml:space="preserve">
 <g id="icon">
  <g id="breadboard">
   <polygon fill="#333333" points="36.824,-12.606 -4.824,-12.606 -4.824,22.1 0.381,22.1 0.381,25.57 31.619,25.57 31.619,22.1 36.824,22.1 "/>
   <rect width="1.213" x="35.611" y="-11.434" height="3.472"/>
   <rect width="1.215" x="-4.824" y="-11.434" height="3.472"/>
   <rect width="1.736" x="-2.497" y="-7.516" height="3.472"/>
   <rect width="0.952" x="-2.104" y="-6.767" fill="#CCCCCC" height="1.973"/>
   <rect width="1.736" x="32.768" y="-7.516" height="3.472"/>
   <rect width="1.736" x="6.318" y="-7.515" height="3.47"/>
   <rect width="1.736" x="23.953" y="-7.515" height="3.47"/>
   <rect width="0.951" x="33.16" y="-6.767" fill="#CCCCCC" height="1.973"/>
   <rect width="0.951" x="24.346" y="-6.767" fill="#CCCCCC" height="1.973"/>
   <rect width="0.952" x="6.71" y="-6.767" fill="#CCCCCC" height="1.973"/>
   <rect width="19.372" x="6.318" y="0.032" fill="#2B2B2B" height="10.045"/>
   <g>
    <rect width="19.372" x="6.318" y="13.768" fill="#2B2B2B" height="8.332"/>
    <path fill="#2B2B2B" d="M25.877,22.287H6.13V13.58h19.747V22.287L25.877,22.287z M6.506,21.912h18.996v-7.957H6.506V21.912L6.506,21.912z"/>
   </g>
   <polyline fill="none" points="6.318,10.077 6.318,0.032 25.689,0.032 " stroke="#1A1A1A" stroke-linecap="square" stroke-width="0.3027"/>
   <polyline fill="none" points="25.689,0.031 25.689,10.076 6.319,10.076 " stroke="#262626" stroke-linecap="square" stroke-width="0.3027"/>
   <g>
    <line fill="#525252" y1="21.116" x1="12.875" y2="21.119" x2="12.873"/>
    <line fill="#525252" y1="21.119" x1="19.135" y2="21.116" x2="19.131"/>
    <rect width="6.115" x="19.135" y="21.116" fill="#CCCCCC" height="0.003"/>
    <rect width="6.118" x="6.757" y="21.116" fill="#CCCCCC" height="0.003"/>
   </g>
   <polygon fill="#2B2B2B" points="21.072,25.57 21.072,22.287 10.936,22.287 10.936,25.57 8.611,25.57 8.611,28.02 23.398,28.02 23.398,25.57 "/>
   <polygon fill="#292929" points="11.27,22.287 10.936,22.287 10.936,25.57 9.138,25.57 9.138,28.02 11.27,28.02 "/>
   <polygon fill="#292929" points="20.369,22.287 21.113,22.287 21.113,25.57 22.912,25.57 22.912,28.02 20.369,28.02 "/>
   <rect width="9.467" x="11.27" y="19.985" fill="#CCCCCC" height="2.302"/>
   <rect width="3.934" x="14.732" y="19.985" fill="#D6D6D6" height="2.302"/>
   <g>
    <path fill="#CCCCCC" d="M19.857,21.698c-0.398-0.038-0.76-0.343-0.846-0.709l-0.416-1.738c-0.084-0.347-0.441-0.629-0.797-0.629h-3.586c-0.357,0-0.715,0.282-0.798,0.629l-0.419,1.738c-0.088,0.366-0.449,0.671-0.842,0.709H6.757L6.696,14.23l18.554-0.061l0.061,7.529H19.857z"/>
    <path fill="#3D3D3D" d="M25.25,14.23v7.407h-5.393c-0.359-0.034-0.705-0.312-0.787-0.662l-0.416-1.738c-0.088-0.371-0.473-0.675-0.855-0.675h-3.586c-0.383,0-0.769,0.304-0.858,0.675l-0.418,1.738c-0.083,0.35-0.43,0.628-0.788,0.662H6.757V14.23H25.25 M25.373,14.108H25.25H6.757H6.634v0.122v7.407v0.122h0.123h5.392c0.43-0.04,0.813-0.365,0.907-0.755l0.419-1.738c0.074-0.316,0.414-0.583,0.738-0.583h3.586c0.324,0,0.662,0.267,0.736,0.583l0.416,1.738c0.094,0.39,0.477,0.715,0.895,0.755h5.404h0.123v-0.122V14.23V14.108L25.373,14.108z"/>
   </g>
   <polygon fill="#D9D9D9" points="13.24,19.712 6.757,19.712 6.757,20.599 13.027,20.599 "/>
   <polygon fill="#D9D9D9" points="18.98,20.599 25.25,20.599 25.25,19.712 18.768,19.712 "/>
   <path fill="#878787" d="M19.07,20.975c0.012,0.051,0.039,0.095,0.061,0.142h6.119v-0.518h-6.27L19.07,20.975z"/>
   <path fill="#878787" d="M12.937,20.975l0.091-0.376H6.757v0.518h6.118C12.896,21.069,12.924,21.025,12.937,20.975z"/>
   <path fill="#525252" d="M19.857,21.637h5.393v-0.518h-6.115C19.266,21.396,19.551,21.607,19.857,21.637z"/>
   <path fill="#525252" d="M12.873,21.119H6.757v0.518h5.392C12.454,21.607,12.741,21.396,12.873,21.119z"/>
   <rect width="18.493" x="6.757" y="14.23" fill="#8F8F8F" height="2.261"/>
   <g>
    <polygon fill="#DEDEDE" points="25.25,16.752 6.757,16.752 6.757,16.231 25.25,16.231 25.25,16.752 "/>
   </g>
   <rect width="2.158" x="15.375" y="19.985" fill="#DEDEDE" height="2.302"/>
   <rect width="3.934" x="14.732" y="22.308" fill="#333333" height="5.69"/>
   <rect width="2.158" x="15.375" y="22.308" fill="#383838" height="5.69"/>
   <rect width="0.527" x="8.611" y="25.57" fill="#212121" height="2.449"/>
   <rect width="0.486" x="22.912" y="25.57" fill="#212121" height="2.449"/>
   <rect width="14.786" x="8.611" y="27.998" fill="#A1A1A1" height="2.303"/>
   <rect width="9.1" x="11.27" y="27.998" fill="#ABABAB" height="2.303"/>
   <rect width="3.934" x="14.732" y="27.998" fill="#C7C7C7" height="2.303"/>
   <rect width="2.158" x="15.375" y="27.998" fill="#E6E6E6" height="2.303"/>
   <rect width="0.486" x="22.912" y="27.998" fill="#737373" height="2.303"/>
   <rect width="0.486" x="8.631" y="27.998" fill="#737373" height="2.303"/>
   <rect width="3.473" x="14.23" y="10.965" height="1.737"/>
   <rect width="1.976" x="14.979" y="11.357" fill="#CCCCCC" height="0.953"/>
  </g>
 </g>
</svg>
