<?xml version="1.0" encoding="utf-8"?>
<!-- Generator: Adobe Illustrator 13.0.0, SVG Export Plug-In . SVG Version: 6.00 Build 14948)  -->
<!DOCTYPE svg PUBLIC "-//W3C//DTD SVG 1.1//EN" "http://www.w3.org/Graphics/SVG/1.1/DTD/svg11.dtd">
<svg version="1.1" id="Layer_1" xmlns="http://www.w3.org/2000/svg" xmlns:xlink="http://www.w3.org/1999/xlink" x="0px" y="0px"
	 width="32px" height="32px" viewBox="0 0 32 32" xml:space="preserve">
	
<g id="icon">
	<g id="background">
		<rect x="1" y="1" fill="#D9D9D9" width="132.066" height="89.91"/>
	</g>
	<rect x="1" y="42.938" fill="#CCC9C9" width="132.066" height="6.037"/>
	<g id="text">
		<g >
			<path fill="#B3B0B0" d="M10.073,6.906H9.532v-0.36h0.05c0.184,0,0.329-0.034,0.435-0.104s0.173-0.181,0.201-0.334h0.406v2.714
				h-0.552V6.906z"/>
		</g>
		<g >
			<path fill="#B3B0B0" d="M33.857,6.592l-0.057,0.617h0.008c0.051-0.071,0.117-0.123,0.199-0.155s0.182-0.048,0.299-0.048
				c0.13,0,0.238,0.024,0.324,0.074c0.085,0.05,0.152,0.116,0.203,0.197c0.049,0.082,0.084,0.175,0.105,0.278
				c0.02,0.104,0.029,0.209,0.029,0.316c0,0.15-0.012,0.287-0.037,0.41c-0.025,0.122-0.071,0.228-0.137,0.315
				c-0.064,0.089-0.154,0.155-0.266,0.199c-0.113,0.045-0.256,0.067-0.43,0.067c-0.172,0-0.311-0.022-0.416-0.068
				c-0.105-0.047-0.188-0.107-0.243-0.183s-0.095-0.157-0.113-0.245s-0.028-0.171-0.028-0.247V8.048h0.528
				c0,0.046,0.003,0.095,0.008,0.146c0.005,0.052,0.017,0.1,0.036,0.145c0.02,0.044,0.047,0.081,0.082,0.11
				c0.037,0.029,0.084,0.044,0.143,0.044c0.115,0,0.197-0.044,0.247-0.132s0.075-0.221,0.075-0.396c0-0.112-0.006-0.206-0.016-0.28
				c-0.01-0.073-0.027-0.133-0.052-0.176c-0.024-0.044-0.058-0.074-0.098-0.092C34.212,7.397,34.16,7.389,34.1,7.389
				c-0.08,0-0.141,0.022-0.182,0.067c-0.043,0.045-0.068,0.105-0.079,0.182h-0.495l0.101-1.476h1.414v0.43H33.857z"/>
		</g>
		<g >
			<path fill="#B3B0B0" d="M5.122,11.264L5.846,14H5.271l-0.126-0.579H4.416L4.29,14H3.715l0.724-2.736H5.122z M5.048,12.969
				l-0.264-1.229H4.776l-0.264,1.229H5.048z"/>
		</g>
		<g >
			<path fill="#B3B0B0" d="M4.83,17.301c0.112,0,0.217,0.012,0.312,0.034c0.096,0.023,0.178,0.062,0.247,0.115
				s0.123,0.125,0.161,0.215c0.038,0.089,0.057,0.199,0.057,0.329c0,0.148-0.034,0.275-0.104,0.382
				c-0.069,0.105-0.172,0.178-0.31,0.216V18.6c0.153,0.021,0.274,0.086,0.364,0.195c0.089,0.11,0.134,0.257,0.134,0.441
				c0,0.107-0.014,0.209-0.042,0.307c-0.028,0.097-0.076,0.182-0.144,0.255c-0.067,0.072-0.156,0.131-0.264,0.174
				c-0.109,0.044-0.244,0.065-0.404,0.065H3.906v-2.736H4.83z M4.616,18.424c0.153,0,0.265-0.027,0.335-0.083
				c0.07-0.055,0.105-0.147,0.105-0.277c0-0.131-0.032-0.223-0.096-0.276s-0.165-0.08-0.303-0.08H4.458v0.717H4.616z M4.673,19.631
				c0.133,0,0.24-0.029,0.322-0.088c0.082-0.059,0.123-0.168,0.123-0.326c0-0.079-0.011-0.145-0.033-0.197
				c-0.022-0.053-0.051-0.095-0.088-0.126c-0.037-0.032-0.081-0.055-0.132-0.067c-0.051-0.013-0.107-0.02-0.169-0.02H4.458v0.824
				H4.673z"/>
		</g>
		<g >
			<path fill="#B3B0B0" d="M5.041,23.826c-0.047-0.091-0.133-0.136-0.259-0.136c-0.069,0-0.125,0.019-0.17,0.056
				s-0.08,0.097-0.105,0.18s-0.043,0.192-0.054,0.326s-0.015,0.298-0.015,0.492c0,0.207,0.007,0.375,0.021,0.502
				c0.014,0.128,0.036,0.228,0.065,0.297c0.029,0.07,0.066,0.118,0.111,0.143c0.045,0.024,0.097,0.036,0.155,0.036
				c0.048,0,0.094-0.009,0.136-0.025c0.042-0.017,0.079-0.05,0.109-0.1c0.031-0.05,0.055-0.12,0.073-0.21
				c0.018-0.091,0.026-0.211,0.026-0.358h0.552c0,0.147-0.012,0.288-0.035,0.421s-0.066,0.249-0.128,0.349s-0.151,0.178-0.264,0.234
				c-0.114,0.056-0.262,0.084-0.443,0.084c-0.207,0-0.372-0.033-0.495-0.1C4.2,25.95,4.106,25.854,4.041,25.729
				c-0.065-0.125-0.107-0.274-0.126-0.448c-0.02-0.174-0.029-0.365-0.029-0.575c0-0.207,0.009-0.398,0.029-0.573
				c0.019-0.175,0.061-0.325,0.126-0.45C4.106,23.558,4.2,23.46,4.322,23.39c0.123-0.07,0.288-0.105,0.495-0.105
				c0.197,0,0.352,0.032,0.466,0.096c0.113,0.064,0.198,0.146,0.255,0.243c0.056,0.099,0.091,0.205,0.105,0.318
				c0.014,0.113,0.021,0.221,0.021,0.32H5.112C5.112,24.062,5.088,23.917,5.041,23.826z"/>
		</g>
		<g >
			<path fill="#B3B0B0" d="M4.804,29.375c0.191,0,0.346,0.031,0.463,0.094c0.118,0.062,0.209,0.152,0.274,0.269
				c0.065,0.116,0.109,0.256,0.132,0.42c0.023,0.163,0.035,0.346,0.035,0.548c0,0.24-0.015,0.449-0.044,0.626
				c-0.029,0.178-0.08,0.324-0.151,0.439c-0.072,0.114-0.167,0.2-0.288,0.257c-0.12,0.056-0.272,0.084-0.456,0.084h-0.87v-2.736
				H4.804z M4.696,31.705c0.097,0,0.175-0.017,0.234-0.05c0.059-0.033,0.105-0.088,0.14-0.165c0.035-0.076,0.058-0.178,0.069-0.303
				c0.011-0.125,0.017-0.281,0.017-0.468c0-0.155-0.005-0.292-0.016-0.41c-0.01-0.117-0.031-0.215-0.063-0.293
				c-0.032-0.078-0.079-0.137-0.142-0.176c-0.063-0.04-0.146-0.06-0.251-0.06H4.451v1.924H4.696z"/>
		</g>
	</g>
	<g id="sockets">
		<g id="A1xpin">
			<path fill="#BFBFBF" d="M10.091,11.99c0.55,0,0.996,0.447,0.996,0.998h0.996c0-1.101-0.894-1.992-1.992-1.992
				c-1.098,0-1.992,0.892-1.992,1.992h0.995C9.094,12.438,9.541,11.99,10.091,11.99z"/>
			<path fill="#E6E6E6" d="M10.091,14.98c1.101,0,1.992-0.893,1.992-1.992h-0.996c0,0.55-0.446,0.996-0.996,0.996
				c-0.55,0-0.997-0.445-0.997-0.996H8.099C8.099,14.088,8.992,14.98,10.091,14.98z"/>
			<circle fill="#383838" cx="10.091" cy="12.987" r="0.997"/>
		</g>
		<g id="B1xpin">
			<path fill="#BFBFBF" d="M10.091,17.984c0.55,0,0.996,0.445,0.996,0.998h0.996c0-1.102-0.894-1.992-1.992-1.992
				c-1.098,0-1.992,0.893-1.992,1.992h0.995C9.094,18.432,9.541,17.984,10.091,17.984z"/>
			<path fill="#E6E6E6" d="M10.091,20.975c1.101,0,1.992-0.893,1.992-1.992h-0.996c0,0.553-0.446,0.996-0.996,0.996
				c-0.55,0-0.997-0.443-0.997-0.996H8.099C8.099,20.082,8.992,20.975,10.091,20.975z"/>
			<circle fill="#383838" cx="10.091" cy="18.982" r="0.996"/>
		</g>
		<g id="C1xpin">
			<path fill="#BFBFBF" d="M10.091,23.979c0.55,0,0.996,0.447,0.996,0.996h0.996c0-1.1-0.894-1.992-1.992-1.992
				c-1.098,0-1.992,0.895-1.992,1.992h0.995C9.094,24.426,9.541,23.979,10.091,23.979z"/>
			<path fill="#E6E6E6" d="M10.091,26.969c1.101,0,1.992-0.893,1.992-1.992h-0.996c0,0.549-0.446,0.996-0.996,0.996
				c-0.55,0-0.997-0.445-0.997-0.996H8.099C8.099,26.076,8.992,26.969,10.091,26.969z"/>
			<circle fill="#383838" cx="10.091" cy="24.977" r="0.996"/>
		</g>
		<g id="D1xpin">
			<path fill="#BFBFBF" d="M10.091,29.975c0.55,0,0.996,0.445,0.996,0.996h0.996c0-1.1-0.894-1.992-1.992-1.992
				c-1.098,0-1.992,0.895-1.992,1.992h0.995C9.094,30.42,9.541,29.975,10.091,29.975z"/>
			<path fill="#E6E6E6" d="M10.091,32.963c1.101,0,1.992-0.893,1.992-1.992h-0.996c0,0.549-0.446,0.996-0.996,0.996
				c-0.55,0-0.997-0.445-0.997-0.996H8.099C8.099,32.07,8.992,32.963,10.091,32.963z"/>
			<circle fill="#383838" cx="10.091" cy="30.971" r="0.996"/>
		</g>
		<g id="A2xpin">
			<path fill="#BFBFBF" d="M16.085,11.99c0.549,0,0.997,0.447,0.997,0.998h0.996c0-1.101-0.893-1.992-1.992-1.992
				c-1.102,0-1.992,0.892-1.992,1.992h0.996C15.088,12.438,15.535,11.99,16.085,11.99z"/>
			<path fill="#E6E6E6" d="M16.085,14.98c1.101,0,1.993-0.893,1.993-1.992H17.08c0,0.55-0.446,0.996-0.996,0.996
				c-0.551,0-0.997-0.445-0.997-0.996h-0.996C14.093,14.088,14.984,14.98,16.085,14.98z"/>
			<circle fill="#383838" cx="16.085" cy="12.987" r="0.997"/>
		</g>
		<g id="B2xpin">
			<path fill="#BFBFBF" d="M16.085,17.984c0.549,0,0.997,0.445,0.997,0.998h0.996c0-1.102-0.893-1.992-1.992-1.992
				c-1.102,0-1.992,0.893-1.992,1.992h0.996C15.088,18.432,15.535,17.984,16.085,17.984z"/>
			<path fill="#E6E6E6" d="M16.085,20.975c1.101,0,1.993-0.893,1.993-1.992H17.08c0,0.553-0.446,0.996-0.996,0.996
				c-0.551,0-0.997-0.443-0.997-0.996h-0.996C14.093,20.082,14.984,20.975,16.085,20.975z"/>
			<circle fill="#383838" cx="16.085" cy="18.982" r="0.996"/>
		</g>
		<g id="C2xpin">
			<path fill="#BFBFBF" d="M16.085,23.979c0.549,0,0.997,0.447,0.997,0.996h0.996c0-1.1-0.893-1.992-1.992-1.992
				c-1.102,0-1.992,0.895-1.992,1.992h0.996C15.088,24.426,15.535,23.979,16.085,23.979z"/>
			<path fill="#E6E6E6" d="M16.085,26.969c1.101,0,1.993-0.893,1.993-1.992H17.08c0,0.549-0.446,0.996-0.996,0.996
				c-0.551,0-0.997-0.445-0.997-0.996h-0.996C14.093,26.076,14.984,26.969,16.085,26.969z"/>
			<circle fill="#383838" cx="16.085" cy="24.977" r="0.996"/>
		</g>
		<g id="D2xpin">
			<path fill="#BFBFBF" d="M16.085,29.975c0.549,0,0.997,0.445,0.997,0.996h0.996c0-1.1-0.893-1.992-1.992-1.992
				c-1.102,0-1.992,0.895-1.992,1.992h0.996C15.088,30.42,15.535,29.975,16.085,29.975z"/>
			<path fill="#E6E6E6" d="M16.085,32.963c1.101,0,1.993-0.893,1.993-1.992H17.08c0,0.549-0.446,0.996-0.996,0.996
				c-0.551,0-0.997-0.445-0.997-0.996h-0.996C14.093,32.07,14.984,32.963,16.085,32.963z"/>
			<circle fill="#383838" cx="16.085" cy="30.971" r="0.996"/>
		</g>
		<g id="A3xpin">
			<path fill="#BFBFBF" d="M22.08,11.99c0.55,0,0.996,0.447,0.996,0.998h0.996c0-1.101-0.893-1.992-1.991-1.992
				s-1.992,0.892-1.992,1.992h0.996C21.084,12.438,21.529,11.99,22.08,11.99z"/>
			<path fill="#E6E6E6" d="M22.08,14.98c1.102,0,1.99-0.893,1.99-1.992h-0.994c0,0.55-0.446,0.996-0.998,0.996
				c-0.551,0-0.995-0.445-0.995-0.996h-0.996C20.088,14.088,20.979,14.98,22.08,14.98z"/>
			<circle fill="#383838" cx="22.08" cy="12.987" r="0.997"/>
		</g>
		<g id="B3xpin">
			<path fill="#BFBFBF" d="M22.08,17.984c0.55,0,0.996,0.445,0.996,0.998h0.996c0-1.102-0.893-1.992-1.991-1.992
				s-1.992,0.893-1.992,1.992h0.996C21.084,18.432,21.529,17.984,22.08,17.984z"/>
			<path fill="#E6E6E6" d="M22.08,20.975c1.102,0,1.99-0.893,1.99-1.992h-0.994c0,0.553-0.446,0.996-0.998,0.996
				c-0.551,0-0.995-0.443-0.995-0.996h-0.996C20.088,20.082,20.979,20.975,22.08,20.975z"/>
			<circle fill="#383838" cx="22.08" cy="18.982" r="0.996"/>
		</g>
		<g id="C3xpin">
			<path fill="#BFBFBF" d="M22.08,23.979c0.55,0,0.996,0.447,0.996,0.996h0.996c0-1.1-0.893-1.992-1.991-1.992
				s-1.992,0.895-1.992,1.992h0.996C21.084,24.426,21.529,23.979,22.08,23.979z"/>
			<path fill="#E6E6E6" d="M22.08,26.969c1.102,0,1.99-0.893,1.99-1.992h-0.994c0,0.549-0.446,0.996-0.998,0.996
				c-0.551,0-0.995-0.445-0.995-0.996h-0.996C20.088,26.076,20.979,26.969,22.08,26.969z"/>
			<circle fill="#383838" cx="22.08" cy="24.977" r="0.996"/>
		</g>
		<g id="D3xpin">
			<path fill="#BFBFBF" d="M22.08,29.975c0.55,0,0.996,0.445,0.996,0.996h0.996c0-1.1-0.893-1.992-1.991-1.992
				s-1.992,0.895-1.992,1.992h0.996C21.084,30.42,21.529,29.975,22.08,29.975z"/>
			<path fill="#E6E6E6" d="M22.08,32.963c1.102,0,1.99-0.893,1.99-1.992h-0.994c0,0.549-0.446,0.996-0.998,0.996
				c-0.551,0-0.995-0.445-0.995-0.996h-0.996C20.088,32.07,20.979,32.963,22.08,32.963z"/>
			<circle fill="#383838" cx="22.08" cy="30.971" r="0.996"/>
		</g>
		<g id="A4xpin">
			<path fill="#BFBFBF" d="M28.074,11.99c0.55,0,0.996,0.447,0.996,0.998h0.996c0-1.101-0.894-1.992-1.992-1.992
				c-1.1,0-1.991,0.892-1.991,1.992h0.995C27.076,12.438,27.523,11.99,28.074,11.99z"/>
			<path fill="#E6E6E6" d="M28.074,14.98c1.101,0,1.99-0.893,1.99-1.992h-0.996c0,0.55-0.444,0.996-0.996,0.996
				c-0.551,0-0.996-0.445-0.996-0.996H26.08C26.082,14.088,26.973,14.98,28.074,14.98z"/>
			<circle fill="#383838" cx="28.074" cy="12.987" r="0.997"/>
		</g>
		<g id="B4xpin">
			<path fill="#BFBFBF" d="M28.074,17.984c0.55,0,0.996,0.445,0.996,0.998h0.996c0-1.102-0.894-1.992-1.992-1.992
				c-1.1,0-1.991,0.893-1.991,1.992h0.995C27.076,18.432,27.523,17.984,28.074,17.984z"/>
			<path fill="#E6E6E6" d="M28.074,20.975c1.101,0,1.99-0.893,1.99-1.992h-0.996c0,0.553-0.444,0.996-0.996,0.996
				c-0.551,0-0.996-0.443-0.996-0.996H26.08C26.082,20.082,26.973,20.975,28.074,20.975z"/>
			<circle fill="#383838" cx="28.074" cy="18.982" r="0.996"/>
		</g>
		<g id="C4xpin">
			<path fill="#BFBFBF" d="M28.074,23.979c0.55,0,0.996,0.447,0.996,0.996h0.996c0-1.1-0.894-1.992-1.992-1.992
				c-1.1,0-1.991,0.895-1.991,1.992h0.995C27.076,24.426,27.523,23.979,28.074,23.979z"/>
			<path fill="#E6E6E6" d="M28.074,26.969c1.101,0,1.99-0.893,1.99-1.992h-0.996c0,0.549-0.444,0.996-0.996,0.996
				c-0.551,0-0.996-0.445-0.996-0.996H26.08C26.082,26.076,26.973,26.969,28.074,26.969z"/>
			<circle fill="#383838" cx="28.074" cy="24.977" r="0.996"/>
		</g>
		<g id="D4xpin">
			<path fill="#BFBFBF" d="M28.074,29.975c0.55,0,0.996,0.445,0.996,0.996h0.996c0-1.1-0.894-1.992-1.992-1.992
				c-1.1,0-1.991,0.895-1.991,1.992h0.995C27.076,30.42,27.523,29.975,28.074,29.975z"/>
			<path fill="#E6E6E6" d="M28.074,32.963c1.101,0,1.99-0.893,1.99-1.992h-0.996c0,0.549-0.444,0.996-0.996,0.996
				c-0.551,0-0.996-0.445-0.996-0.996H26.08C26.082,32.07,26.973,32.963,28.074,32.963z"/>
			<circle fill="#383838" cx="28.074" cy="30.971" r="0.996"/>
		</g>
		<g id="A5xpin">
			<path fill="#BFBFBF" d="M34.066,11.99c0.551,0,0.996,0.447,0.996,0.998h0.996c0-1.101-0.892-1.992-1.992-1.992
				s-1.99,0.892-1.99,1.992h0.994C33.07,12.438,33.518,11.99,34.066,11.99z"/>
			<path fill="#E6E6E6" d="M34.066,14.98c1.103,0,1.992-0.893,1.992-1.992h-0.996c0,0.55-0.445,0.996-0.996,0.996
				c-0.549,0-0.996-0.445-0.996-0.996h-0.996C32.076,14.088,32.967,14.98,34.066,14.98z"/>
			<circle fill="#383838" cx="34.066" cy="12.987" r="0.997"/>
		</g>
		<g id="B5xpin">
			<path fill="#BFBFBF" d="M34.066,17.984c0.551,0,0.996,0.445,0.996,0.998h0.996c0-1.102-0.892-1.992-1.992-1.992
				s-1.99,0.893-1.99,1.992h0.994C33.07,18.432,33.518,17.984,34.066,17.984z"/>
			<path fill="#E6E6E6" d="M34.066,20.975c1.103,0,1.992-0.893,1.992-1.992h-0.996c0,0.553-0.445,0.996-0.996,0.996
				c-0.549,0-0.996-0.443-0.996-0.996h-0.996C32.076,20.082,32.967,20.975,34.066,20.975z"/>
			<circle fill="#383838" cx="34.066" cy="18.982" r="0.996"/>
		</g>
		<g id="C5xpin">
			<path fill="#BFBFBF" d="M34.066,23.979c0.551,0,0.996,0.447,0.996,0.996h0.996c0-1.1-0.892-1.992-1.992-1.992
				s-1.99,0.895-1.99,1.992h0.994C33.07,24.426,33.518,23.979,34.066,23.979z"/>
			<path fill="#E6E6E6" d="M34.066,26.969c1.103,0,1.992-0.893,1.992-1.992h-0.996c0,0.549-0.445,0.996-0.996,0.996
				c-0.549,0-0.996-0.445-0.996-0.996h-0.996C32.076,26.076,32.967,26.969,34.066,26.969z"/>
			<circle fill="#383838" cx="34.066" cy="24.977" r="0.996"/>
		</g>
		<g id="D5xpin">
			<path fill="#BFBFBF" d="M34.066,29.975c0.551,0,0.996,0.445,0.996,0.996h0.996c0-1.1-0.892-1.992-1.992-1.992
				s-1.99,0.895-1.99,1.992h0.994C33.07,30.42,33.518,29.975,34.066,29.975z"/>
			<path fill="#E6E6E6" d="M34.066,32.963c1.103,0,1.992-0.893,1.992-1.992h-0.996c0,0.549-0.445,0.996-0.996,0.996
				c-0.549,0-0.996-0.447-0.996-0.996h-0.996C32.076,32.07,32.967,32.963,34.066,32.963z"/>
			<circle fill="#383838" cx="34.066" cy="30.971" r="0.996"/>
		</g>
	</g>
</g>
</svg>
