<?xml version="1.0" encoding="utf-8"?>
<!-- Generator: Adobe Illustrator 19.2.1, SVG Export Plug-In . SVG Version: 6.00 Build 0)  -->
<svg version="1.1" id="Ebene_1" xmlns="http://www.w3.org/2000/svg" xmlns:xlink="http://www.w3.org/1999/xlink" x="0px" y="0px"
	 viewBox="0 0 256 256" style="enable-background:new 0 0 256 256;" xml:space="preserve">
<style type="text/css">
	.st0{fill:#D63222;}
	.st1{fill:#C92F20;}
	.st2{fill:#8A1408;}
	.st3{fill:#FFFFFF;}
	.st4{fill:#4B1100;}
	.st5{enable-background:new    ;}
	.st6{fill:#701007;}
	.st7{fill:#DF6143;}
</style>
<g>
	<path class="st0" d="M55.1,3.5C55,4.3,54.3,5,53.4,5s-1.6-0.7-1.7-1.5H35c-2.7,0-4.8,6.2-4.8,17.5v200.6H35V242h184V3.5H55.1z"/>
	<path class="st1" d="M30.2,27v201.6H35V54.5V21V3.5C32.3,3.5,30.2,9.7,30.2,27z"/>
	<path class="st2" d="M35,214c-2.7,0-4.8,3.2-4.8,14.5S32.3,242,35,242h184v-28H35z"/>
	<g>
		<path class="st3" d="M154,40.4c-1.6-0.9-3.6-1.4-6.1-1.4h-10.1c-1.7,0-3.2,0-4.6,0.1c-1.5,0.1-2.9,0.3-4.2,0.6
			c-1.4,0.3-2.8,0.9-4.1,1.7c-1.3,0.8-2.6,1.8-4,3.1c-2.8,2.6-4.6,5.4-5.4,8.4c-0.8,2.9-1.2,6.1-1.2,9.5v5.6h-5
			c-2.4,0-4.5,0.5-6.1,1.4c-1.9,1.1-2.8,3-2.8,5.9c0,3.4,1.5,5,2.8,5.7c1.6,0.9,3.6,1.4,6.1,1.4h5v26.3c-5.3,2.7-9,8.2-9,14.5
			c0,8.9,7.3,16.2,16.2,16.2c8.9,0,16.2-7.3,16.2-16.2c0-6.4-3.7-11.8-9-14.5V82.5h8.7c2.4,0,4.5-0.5,6.1-1.4
			c1.3-0.7,2.8-2.3,2.8-5.7c0-2.8-0.9-4.8-2.8-5.9c-1.6-0.9-3.6-1.4-6.1-1.4h-8.7v-5.6c0-1.8,0.2-3.4,0.5-4.7c0.3-1.2,0.9-2.2,1.8-3
			l0,0l0,0c0.7-0.7,1.4-1,2.4-1.1c1.2-0.1,2.8-0.2,4.7-0.2h9.8c2.4,0,4.5-0.5,6.1-1.4c1.3-0.7,2.8-2.3,2.8-5.7
			C156.8,43.5,155.8,41.5,154,40.4z"/>
		<path class="st4" d="M121.6,117.4c-3.3,0-5.9,2.6-5.9,5.9c0,3.3,2.6,5.9,5.9,5.9c3.3,0,5.9-2.6,5.9-5.9S124.8,117.4,121.6,117.4z"
			/>
	</g>
	<g class="st5">
		<path class="st3" d="M76.9,162.6c0-1,0.2-1.8,0.6-2.2c0.4-0.4,1.2-0.6,2.2-0.6h14.9c0.9,0,1.6,0.1,2.1,0.4
			c0.5,0.3,0.8,0.9,0.8,1.8c0,0.9-0.3,1.4-0.8,1.7s-1.2,0.4-2.1,0.4H81.3v9.7h9.5c0.9,0,1.6,0.1,2.1,0.4c0.5,0.3,0.8,0.9,0.8,1.8
			c0,0.9-0.3,1.4-0.8,1.7s-1.2,0.4-2.1,0.4h-9.5v13.5c0,1.8-0.7,2.7-2.2,2.7c-0.8,0-1.4-0.2-1.7-0.7c-0.3-0.5-0.5-1.1-0.5-2V162.6z"
			/>
		<path class="st3" d="M102.3,194.1c-0.7,0-1.3-0.1-1.7-0.4c-0.4-0.2-0.6-0.7-0.6-1.4c0-0.4,0.1-0.9,0.4-1.4
			c0.2-0.5,0.4-0.9,0.6-1.2l14.8-25.7h-12.9c-0.9,0-1.6-0.1-2.1-0.4s-0.8-0.9-0.8-1.7c0-0.9,0.3-1.5,0.8-1.8
			c0.5-0.3,1.2-0.4,2.1-0.4h16.7c0.7,0,1.3,0.1,1.7,0.3c0.4,0.2,0.6,0.7,0.6,1.5c0,0.4-0.1,0.8-0.3,1.2c-0.2,0.4-0.5,0.9-0.8,1.4
			L106,189.8h13.1c0.9,0,1.6,0.1,2.1,0.4c0.5,0.3,0.8,0.9,0.8,1.8c0,0.9-0.3,1.4-0.8,1.7c-0.5,0.3-1.2,0.4-2.1,0.4L102.3,194.1
			L102.3,194.1z"/>
		<path class="st3" d="M153.8,194.1c-0.7,0-1.3-0.1-1.7-0.4c-0.4-0.2-0.6-0.7-0.6-1.4c0-0.4,0.1-0.9,0.4-1.4
			c0.2-0.5,0.4-0.9,0.6-1.2l14.8-25.7h-12.9c-0.9,0-1.6-0.1-2.1-0.4s-0.8-0.9-0.8-1.7c0-0.9,0.3-1.5,0.8-1.8
			c0.5-0.3,1.2-0.4,2.1-0.4H171c0.7,0,1.3,0.1,1.7,0.3c0.4,0.2,0.6,0.7,0.6,1.5c0,0.4-0.1,0.8-0.3,1.2c-0.2,0.4-0.5,0.9-0.8,1.4
			l-14.8,25.7h13.1c0.9,0,1.6,0.1,2.1,0.4c0.5,0.3,0.8,0.9,0.8,1.8c0,0.9-0.3,1.4-0.8,1.7c-0.5,0.3-1.2,0.4-2.1,0.4L153.8,194.1
			L153.8,194.1z"/>
		<path class="st3" d="M137.5,159.7c1.5,0,2.9,0.1,4.1,0.3c1.2,0.2,2.2,0.6,3.1,1.2c0.8,0.6,1.5,1.5,1.9,2.6
			c0.4,1.1,0.7,2.5,0.7,4.3c0,1.1,0,2,0,2.7c0,0.7-0.1,1.3-0.3,1.8c-0.1,0.5-0.4,0.9-0.6,1.3c-0.3,0.4-0.7,0.9-1.2,1.4
			c0.6,0.3,1.2,0.7,1.7,1.1s0.9,0.9,1.2,1.6c0.3,0.7,0.6,1.6,0.8,2.7c0.2,1.1,0.3,2.6,0.3,4.3c0,1.9-0.2,3.5-0.6,4.6
			c-0.4,1.2-1,2.1-1.8,2.8c-0.8,0.7-1.8,1.1-3.1,1.4s-2.7,0.3-4.4,0.3h-9.1c-1.1,0-1.8-0.2-2.2-0.6c-0.4-0.4-0.6-1.2-0.6-2.2v-28.7
			c0-1,0.2-1.8,0.6-2.2s1.2-0.6,2.2-0.6L137.5,159.7L137.5,159.7z M138.5,173.9c1.7,0,2.9-0.4,3.5-1.2c0.6-0.8,0.9-2.1,0.9-4
			c0-1.1-0.1-1.9-0.3-2.5c-0.2-0.6-0.5-1.1-0.9-1.4s-1-0.5-1.6-0.6c-0.7-0.1-1.5-0.1-2.4-0.1h-6v9.9L138.5,173.9L138.5,173.9z
			 M139.2,189.7c1.1,0,2,0,2.7-0.1c0.7-0.1,1.3-0.3,1.7-0.7s0.7-0.9,0.9-1.7c0.2-0.7,0.2-1.8,0.2-3.1c0-1.3-0.1-2.3-0.3-3.1
			c-0.2-0.8-0.5-1.4-0.9-1.8s-1-0.7-1.7-0.8c-0.7-0.1-1.6-0.2-2.7-0.2h-7.5v11.4L139.2,189.7L139.2,189.7z"/>
	</g>
	<polygon class="st6" points="202.5,238.7 202.5,217.4 219,217.4 219,238.7 	"/>
	<path class="st7" d="M40.8,217.4c-2.2,0-4,1.7-4,11.2s1.8,10.2,4,10.2h172.9v-21.3L40.8,217.4L40.8,217.4z"/>
	<path class="st7" d="M55.1,3.5C55,4.3,54.3,5,53.4,5s-1.6-0.7-1.7-1.5H35c-2.7,0-4.8,6.2-4.8,17.5v3c0-11.3,2.2-17.5,4.8-17.5h184
		v-3H55.1z"/>
	<path class="st1" d="M55.1,3.5C55,4.3,54.3,5,53.4,5s-1.6-0.7-1.7-1.5l0,1.5v209h0c0.1,0.8,0.8,1.5,1.7,1.5s1.6-0.7,1.7-1.5h0V5
		L55.1,3.5z"/>
	<path class="st6" d="M37.7,236.5c0.7,2,1.9,2.2,3.2,2.2h172.9v-2.2L37.7,236.5z"/>
</g>
</svg>
