<?xml version="1.0" encoding="utf-8"?>
<!-- Generator: Adobe Illustrator 15.1.0, SVG Export Plug-In . SVG Version: 6.00 Build 0)  -->
<!DOCTYPE svg PUBLIC "-//W3C//DTD SVG 1.1//EN" "http://www.w3.org/Graphics/SVG/1.1/DTD/svg11.dtd">
<svg version="1.1" id="svg2" xmlns:svg="http://www.w3.org/2000/svg"
	 xmlns="http://www.w3.org/2000/svg" xmlns:xlink="http://www.w3.org/1999/xlink" x="0px" y="0px" width="44.576px" height="28.8px"
	 viewBox="0 0 44.576 28.8" enable-background="new 0 0 44.576 28.8" xml:space="preserve">
<g>
	<path d="M39.599,21.95h-3.602c-0.193,0-0.35-0.156-0.35-0.35s0.156-0.35,0.35-0.35h3.602c0.193,0,0.35,0.156,0.35,0.35
		S39.792,21.95,39.599,21.95z"/>
</g>
<g>
	<path d="M35.997,21.95h-3.598c-0.193,0-0.35-0.156-0.35-0.35s0.156-0.35,0.35-0.35h3.598c0.193,0,0.35,0.156,0.35,0.35
		S36.19,21.95,35.997,21.95z"/>
</g>
<g>
	<polygon fill="#FFFFFF" points="35.997,21.6 32.399,14.4 35.997,14.4 39.599,14.4 	"/>
	<path d="M35.997,22.382l-4.164-8.333h8.332L35.997,22.382z M32.966,14.75l3.031,6.068l3.035-6.068H32.966z"/>
</g>
<g>
	<path d="M35.997,21.825c-0.124,0-0.225-0.101-0.225-0.225v-7.2c0-0.124,0.101-0.225,0.225-0.225s0.225,0.101,0.225,0.225v7.2
		C36.222,21.724,36.121,21.825,35.997,21.825z"/>
</g>
<g>
	<path fill="#787878" d="M35.997,29.15c-0.193,0-0.35-0.156-0.35-0.35v-7.2c0-0.193,0.156-0.35,0.35-0.35s0.35,0.156,0.35,0.35v7.2
		C36.347,28.994,36.19,29.15,35.997,29.15z"/>
</g>
<g enable-background="new    ">
	<path fill="#787878" d="M37.837,9.428h0.876c0.188,0,0.353,0.015,0.495,0.043c0.143,0.029,0.263,0.075,0.358,0.139
		c0.097,0.063,0.169,0.147,0.216,0.251c0.049,0.103,0.073,0.23,0.073,0.381c0,0.091-0.015,0.176-0.043,0.255
		s-0.069,0.148-0.124,0.209c-0.055,0.06-0.121,0.11-0.201,0.15s-0.17,0.066-0.271,0.08v0.021c0.102,0.018,0.196,0.043,0.285,0.076
		c0.088,0.033,0.166,0.078,0.231,0.137c0.065,0.058,0.118,0.131,0.155,0.219c0.039,0.088,0.059,0.194,0.059,0.32
		c0,0.146-0.024,0.277-0.072,0.393c-0.047,0.114-0.116,0.212-0.207,0.292c-0.09,0.08-0.199,0.141-0.328,0.184
		c-0.129,0.042-0.274,0.063-0.438,0.063h-1.064V9.428z M38.245,10.792h0.535c0.123,0,0.227-0.012,0.311-0.033
		c0.084-0.022,0.15-0.055,0.202-0.098c0.052-0.044,0.089-0.098,0.11-0.163c0.023-0.065,0.035-0.141,0.035-0.228
		c0-0.176-0.057-0.302-0.17-0.378s-0.291-0.114-0.533-0.114h-0.49V10.792z M38.245,11.133v1.16h0.584
		c0.129,0,0.237-0.014,0.324-0.043c0.088-0.029,0.158-0.07,0.211-0.123c0.054-0.053,0.092-0.116,0.115-0.19s0.035-0.155,0.035-0.245
		c0-0.082-0.012-0.157-0.036-0.227c-0.024-0.068-0.063-0.128-0.118-0.177s-0.129-0.087-0.219-0.114
		c-0.092-0.027-0.204-0.041-0.338-0.041H38.245z"/>
</g>
<g>
	<path d="M42.956,22.724c-0.058,0-0.115-0.021-0.159-0.065l-2.34-2.34c-0.088-0.088-0.088-0.23,0-0.318s0.23-0.088,0.318,0
		l2.34,2.34c0.088,0.088,0.088,0.23,0,0.318C43.071,22.703,43.014,22.724,42.956,22.724z"/>
</g>
<g>
	<path d="M42.597,25.964c-0.058,0-0.115-0.021-0.159-0.065l-2.34-2.34c-0.088-0.088-0.088-0.23,0-0.318s0.23-0.088,0.318,0
		l2.34,2.34c0.088,0.088,0.088,0.23,0,0.318C42.712,25.943,42.654,25.964,42.597,25.964z"/>
</g>
<g>
	<path d="M42.058,23.041l1.438-1.438l1.08,2.521L42.058,23.041z"/>
</g>
<g>
	<path d="M41.698,26.278l1.438-1.438l1.08,2.521L41.698,26.278z"/>
</g>
<g>
	<path d="M25.198,21.95h-3.599c-0.193,0-0.35-0.156-0.35-0.35s0.157-0.35,0.35-0.35h3.599c0.193,0,0.35,0.156,0.35,0.35
		S25.392,21.95,25.198,21.95z"/>
</g>
<g>
	<path d="M21.599,21.95h-3.601c-0.193,0-0.35-0.156-0.35-0.35s0.157-0.35,0.35-0.35h3.601c0.193,0,0.35,0.156,0.35,0.35
		S21.792,21.95,21.599,21.95z"/>
</g>
<g>
	<polygon fill="#FFFFFF" points="21.599,21.6 17.998,14.4 21.599,14.4 25.198,14.4 	"/>
	<path d="M21.599,22.382l-4.167-8.333h8.333L21.599,22.382z M18.564,14.75l3.035,6.068l3.033-6.068H18.564z"/>
</g>
<g>
	<path d="M21.599,21.825c-0.124,0-0.225-0.101-0.225-0.225v-7.2c0-0.124,0.101-0.225,0.225-0.225s0.225,0.101,0.225,0.225v7.2
		C21.824,21.724,21.723,21.825,21.599,21.825z"/>
</g>
<g>
	<path fill="#787878" d="M21.599,29.15c-0.193,0-0.35-0.156-0.35-0.35v-7.2c0-0.193,0.157-0.35,0.35-0.35s0.35,0.156,0.35,0.35v7.2
		C21.949,28.994,21.792,29.15,21.599,29.15z"/>
</g>
<g>
	<path d="M21.599,14.75c-0.193,0-0.35-0.157-0.35-0.35V7.2c0-0.193,0.157-0.35,0.35-0.35s0.35,0.157,0.35,0.35v7.2
		C21.949,14.593,21.792,14.75,21.599,14.75z"/>
</g>
<g>
	<path fill="none" d="M18,7.2L18,7.2L18,7.2z"/>
</g>
<g enable-background="new    ">
	<path fill="#787878" d="M24.718,10.945h1.063v1.575c-0.081,0.026-0.162,0.05-0.243,0.07c-0.083,0.021-0.167,0.038-0.254,0.052
		c-0.086,0.014-0.177,0.024-0.271,0.032c-0.096,0.007-0.198,0.011-0.309,0.011c-0.229,0-0.434-0.038-0.61-0.115
		s-0.327-0.187-0.448-0.33c-0.121-0.143-0.214-0.316-0.277-0.521c-0.063-0.204-0.094-0.434-0.094-0.688
		c0-0.252,0.035-0.479,0.104-0.684c0.07-0.203,0.172-0.377,0.305-0.52s0.298-0.253,0.494-0.33c0.195-0.076,0.418-0.115,0.668-0.115
		c0.163,0,0.318,0.017,0.469,0.049c0.148,0.032,0.288,0.079,0.418,0.141l-0.158,0.355c-0.053-0.024-0.11-0.048-0.171-0.07
		c-0.062-0.021-0.124-0.041-0.188-0.058c-0.064-0.018-0.131-0.03-0.198-0.041c-0.068-0.01-0.136-0.016-0.204-0.016
		c-0.178,0-0.336,0.03-0.475,0.089c-0.137,0.06-0.252,0.146-0.346,0.257c-0.093,0.111-0.164,0.246-0.211,0.406
		c-0.049,0.159-0.073,0.34-0.073,0.54c0,0.19,0.021,0.365,0.061,0.523s0.104,0.294,0.192,0.408s0.201,0.203,0.34,0.267
		c0.14,0.063,0.307,0.094,0.504,0.094c0.064,0,0.123-0.002,0.177-0.005c0.054-0.004,0.103-0.009,0.147-0.015
		c0.046-0.006,0.089-0.013,0.129-0.021c0.041-0.009,0.08-0.016,0.117-0.023v-0.958h-0.656V10.945z"/>
</g>
<g>
	<path d="M28.558,22.724c-0.058,0-0.115-0.021-0.159-0.065l-2.341-2.34c-0.088-0.088-0.088-0.23,0-0.318s0.23-0.088,0.318,0
		l2.341,2.34c0.088,0.088,0.088,0.23,0,0.318C28.673,22.703,28.615,22.724,28.558,22.724z"/>
</g>
<g>
	<path d="M28.196,25.964c-0.058,0-0.115-0.021-0.159-0.065l-2.34-2.34c-0.088-0.088-0.088-0.23,0-0.318s0.23-0.088,0.318,0
		l2.34,2.34c0.088,0.088,0.088,0.23,0,0.318C28.312,25.943,28.254,25.964,28.196,25.964z"/>
</g>
<g>
	<path d="M27.655,23.041l1.439-1.438l1.08,2.521L27.655,23.041z"/>
</g>
<g>
	<path d="M27.299,26.278l1.438-1.438l1.078,2.521L27.299,26.278z"/>
</g>
<g>
	<path d="M10.799,21.95H7.198c-0.193,0-0.35-0.156-0.35-0.35s0.157-0.35,0.35-0.35h3.601c0.193,0,0.35,0.156,0.35,0.35
		S10.992,21.95,10.799,21.95z"/>
</g>
<g>
	<path d="M7.198,21.95H3.599c-0.193,0-0.35-0.156-0.35-0.35s0.157-0.35,0.35-0.35h3.599c0.193,0,0.35,0.156,0.35,0.35
		S7.392,21.95,7.198,21.95z"/>
</g>
<g>
	<polygon fill="#FFFFFF" points="7.198,21.6 3.599,14.4 7.198,14.4 10.799,14.4 	"/>
	<path d="M7.198,22.382L3.033,14.05h8.333L7.198,22.382z M4.166,14.75l3.033,6.068l3.034-6.068H4.166z"/>
</g>
<g>
	<path d="M7.198,21.825c-0.124,0-0.225-0.101-0.225-0.225v-7.2c0-0.124,0.101-0.225,0.225-0.225s0.225,0.101,0.225,0.225v7.2
		C7.423,21.724,7.322,21.825,7.198,21.825z"/>
</g>
<g>
	<path fill="#787878" d="M7.198,29.15c-0.193,0-0.35-0.156-0.35-0.35v-7.2c0-0.193,0.157-0.35,0.35-0.35s0.35,0.156,0.35,0.35v7.2
		C7.548,28.994,7.392,29.15,7.198,29.15z"/>
</g>
<g>
	<path d="M35.997,14.75c-0.193,0-0.35-0.157-0.35-0.35V7.55H7.548v6.85c0,0.193-0.157,0.35-0.35,0.35s-0.35-0.157-0.35-0.35V6.85
		h29.499v7.55C36.347,14.593,36.19,14.75,35.997,14.75z"/>
</g>
<g enable-background="new    ">
	<path fill="#787878" d="M9.445,11.314v1.327H9.037V9.428h0.782c0.389,0,0.677,0.076,0.863,0.227
		c0.186,0.151,0.279,0.38,0.279,0.686c0,0.128-0.018,0.239-0.054,0.334c-0.036,0.096-0.083,0.177-0.143,0.245
		c-0.06,0.068-0.127,0.125-0.204,0.171c-0.076,0.045-0.154,0.082-0.235,0.111l0.875,1.439h-0.481l-0.771-1.327H9.445z M9.445,10.967
		h0.36c0.132,0,0.244-0.014,0.336-0.039s0.168-0.063,0.228-0.114c0.059-0.051,0.103-0.113,0.129-0.188
		c0.027-0.076,0.041-0.164,0.041-0.266c0-0.105-0.015-0.194-0.045-0.268c-0.03-0.073-0.075-0.133-0.136-0.18
		c-0.061-0.047-0.138-0.081-0.23-0.103c-0.093-0.021-0.203-0.032-0.331-0.032H9.445V10.967z"/>
</g>
<g>
	<path d="M14.156,22.724c-0.058,0-0.115-0.021-0.159-0.065l-2.339-2.34c-0.088-0.088-0.088-0.23,0-0.318s0.23-0.088,0.318,0
		l2.339,2.34c0.088,0.088,0.088,0.23,0,0.318C14.271,22.703,14.213,22.724,14.156,22.724z"/>
</g>
<g>
	<path d="M13.797,25.964c-0.058,0-0.115-0.021-0.159-0.065l-2.341-2.34c-0.088-0.088-0.088-0.23,0-0.318s0.23-0.088,0.318,0
		l2.341,2.34c0.088,0.088,0.088,0.23,0,0.318C13.912,25.943,13.854,25.964,13.797,25.964z"/>
</g>
<g>
	<path d="M13.257,23.041l1.439-1.438l1.08,2.521L13.257,23.041z"/>
</g>
<g>
	<path d="M12.899,26.278l1.438-1.438l1.08,2.521L12.899,26.278z"/>
</g>
<g id="connector0pin_2_">
	<path fill="#787878" d="M21.6,7.55c-0.193,0-0.35-0.157-0.35-0.35V0c0-0.193,0.157-0.35,0.35-0.35S21.95-0.193,21.95,0v7.2
		C21.95,7.394,21.793,7.55,21.6,7.55z"/>
</g>
</svg>
