<?xml version="1.0" encoding="utf-8"?>
<!-- Generator: Adobe Illustrator 15.1.0, SVG Export Plug-In . SVG Version: 6.00 Build 0)  -->
<!DOCTYPE svg PUBLIC "-//W3C//DTD SVG 1.1//EN" "http://www.w3.org/Graphics/SVG/1.1/DTD/svg11.dtd">
<svg version="1.1" id="Ebene_1" xmlns:svg="http://www.w3.org/2000/svg"
	 xmlns="http://www.w3.org/2000/svg" xmlns:xlink="http://www.w3.org/1999/xlink" x="0px" y="0px" width="16.156px"
	 height="18.406px" viewBox="0 0 16.156 18.406" enable-background="new 0 0 16.156 18.406" xml:space="preserve">
<g>
	<path fill="#B3B3B3" d="M15.283,16.551c0-0.864-0.701-1.563-1.564-1.563s-1.564,0.699-1.564,1.563v-0.344
		c0-0.864,0.701-1.563,1.564-1.563s1.564,0.699,1.564,1.563"/>
	<path fill="#B3B3B3" d="M15.283,11.056c0-0.864-0.701-1.563-1.564-1.563s-1.564,0.699-1.564,1.563v-0.344
		c0-0.864,0.701-1.563,1.564-1.563s1.564,0.699,1.564,1.563"/>
	<path fill="#B3B3B3" d="M15.283,5.562c0-0.864-0.701-1.563-1.564-1.563s-1.564,0.699-1.564,1.563V5.219
		c0-0.864,0.701-1.563,1.564-1.563s1.564,0.699,1.564,1.563"/>
	<path fill="#B3B3B3" d="M9.72,16.551c0-0.864-0.701-1.563-1.564-1.563s-1.564,0.699-1.564,1.563v-0.344
		c0-0.864,0.701-1.563,1.564-1.563s1.564,0.699,1.564,1.563"/>
	<path fill="#B3B3B3" d="M9.72,11.056c0-0.864-0.701-1.563-1.564-1.563s-1.564,0.699-1.564,1.563v-0.344
		c0-0.864,0.701-1.563,1.564-1.563S9.72,9.848,9.72,10.713"/>
	<path fill="#B3B3B3" d="M9.72,5.562c0-0.864-0.701-1.563-1.564-1.563S6.591,4.698,6.591,5.562V5.219
		c0-0.864,0.701-1.563,1.564-1.563S9.72,4.354,9.72,5.219"/>
	<path fill="#B3B3B3" d="M3.97,16.551c0-0.864-0.701-1.563-1.564-1.563s-1.564,0.699-1.564,1.563v-0.344
		c0-0.864,0.701-1.563,1.564-1.563s1.564,0.699,1.564,1.563"/>
	<path fill="#B3B3B3" d="M3.97,11.056c0-0.864-0.701-1.563-1.564-1.563s-1.564,0.699-1.564,1.563v-0.344
		c0-0.864,0.701-1.563,1.564-1.563S3.97,9.848,3.97,10.713"/>
	<path fill="#B3B3B3" d="M3.97,5.562c0-0.864-0.701-1.563-1.564-1.563S0.841,4.698,0.841,5.562V5.219
		c0-0.864,0.701-1.563,1.564-1.563S3.97,4.354,3.97,5.219"/>
</g>
<g id="silkscreen">
</g>
<g>
	<path fill="#CCCCCC" d="M11.343,2.406v16h4.813v-16H11.343z M13.718,17.77c-0.863,0-1.564-0.699-1.564-1.563
		s0.701-1.563,1.564-1.563s1.564,0.699,1.564,1.563S14.582,17.77,13.718,17.77z M13.718,12.276c-0.863,0-1.564-0.699-1.564-1.563
		s0.701-1.563,1.564-1.563s1.564,0.699,1.564,1.563S14.582,12.276,13.718,12.276z M13.718,6.782c-0.863,0-1.564-0.699-1.564-1.563
		s0.701-1.563,1.564-1.563s1.564,0.699,1.564,1.563S14.582,6.782,13.718,6.782z"/>
</g>
<g>
	<path fill="#CCCCCC" d="M5.75,2.406v16h4.813v-16H5.75z M8.156,17.77c-0.863,0-1.564-0.699-1.564-1.563s0.701-1.563,1.564-1.563
		s1.564,0.699,1.564,1.563S9.019,17.77,8.156,17.77z M8.156,12.276c-0.863,0-1.564-0.699-1.564-1.563s0.701-1.563,1.564-1.563
		S9.72,9.848,9.72,10.713S9.019,12.276,8.156,12.276z M8.156,6.782c-0.863,0-1.564-0.699-1.564-1.563s0.701-1.563,1.564-1.563
		S9.72,4.354,9.72,5.219S9.019,6.782,8.156,6.782z"/>
</g>
<g>
	<path fill="#CCCCCC" d="M2.406,0C1.077,0,0,1.077,0,2.406v16h4.813v-16C4.812,1.077,3.735,0,2.406,0z M2.406,17.77
		c-0.863,0-1.564-0.699-1.564-1.563s0.701-1.563,1.564-1.563s1.564,0.699,1.564,1.563S3.269,17.77,2.406,17.77z M2.406,12.276
		c-0.863,0-1.564-0.699-1.564-1.563s0.701-1.563,1.564-1.563S3.97,9.848,3.97,10.713S3.269,12.276,2.406,12.276z M2.406,6.782
		c-0.863,0-1.564-0.699-1.564-1.563s0.701-1.563,1.564-1.563S3.97,4.354,3.97,5.219S3.269,6.782,2.406,6.782z"/>
</g>
</svg>
