<?xml version="1.0" encoding="utf-8"?>
<!-- Generator: Adobe Illustrator 15.1.0, SVG Export Plug-In . SVG Version: 6.00 Build 0)  -->
<!DOCTYPE svg PUBLIC "-//W3C//DTD SVG 1.1//EN" "http://www.w3.org/Graphics/SVG/1.1/DTD/svg11.dtd">
<svg version="1.1" id="Ebene_1" xmlns:svg="http://www.w3.org/2000/svg"
	 xmlns="http://www.w3.org/2000/svg" xmlns:xlink="http://www.w3.org/1999/xlink" x="0px" y="0px" width="55.134px"
	 height="44.504px" viewBox="17.296 0 55.134 44.504" enable-background="new 17.296 0 55.134 44.504" xml:space="preserve">
<g>
	<g id="_x30_.1.1.0.0.0_1_">
		<g>
			<path fill="#B3B3B3" d="M72.43,5.402c0-1.1-0.9-2-2-2H19.296c-1.101,0-2,0.9-2,2v37.102c0,1.1,0.899,2,2,2H70.43c1.1,0,2-0.9,2-2
				V5.402z"/>
		</g>
	</g>
	<g id="_x30_.1.1.0.0.0_3_">
		<g>
			<path fill="#CCCCCC" d="M72.43,2c0-1.1-0.9-2-2-2H19.296c-1.101,0-2,0.9-2,2v37.102c0,1.1,0.899,2,2,2H70.43c1.1,0,2-0.9,2-2V2z"
				/>
		</g>
	</g>
	<g>
		<g>
			<path fill-rule="evenodd" clip-rule="evenodd" fill="#FFFFFF" d="M43.266,30.536c0,0.309,0,0.615,0,0.926
				c-0.791-0.111-1.432,0.197-1.828,0.596c-0.374,0.373-0.654,0.875-0.658,1.541c-0.004,0.66,0.286,1.182,0.658,1.553
				c0.396,0.396,1.036,0.684,1.828,0.584c0,0.309,0,0.617,0,0.926c-1.037,0.08-1.806-0.24-2.354-0.73
				c-0.541-0.482-0.963-1.16-1.048-2.064c-0.09-0.957,0.292-1.773,0.771-2.313C41.205,30.909,42.044,30.435,43.266,30.536z"/>
		</g>
		<g>
			<path fill-rule="evenodd" clip-rule="evenodd" fill="#FFFFFF" d="M48.488,30.526c0,0.311,0,0.623,0,0.936
				c-1.35-0.104-2.121,0.611-2.415,1.664c0.578,0.023,1.201,0.004,1.798,0.01c0,0.309,0,0.617,0,0.924c-0.6,0-1.199,0-1.798,0
				c0.292,1.059,1.038,1.77,2.415,1.676c0,0.313,0,0.625,0,0.936c-1.036,0.059-1.8-0.262-2.344-0.75
				c-0.539-0.484-0.952-1.152-1.038-2.064c-0.09-0.953,0.298-1.779,0.771-2.313C46.435,30.913,47.274,30.454,48.488,30.526z"/>
		</g>
	</g>
	<g>
		<path fill="#FFFFFF" d="M21.152,5.936l0.339,1.184h0.01c0.093-0.742,0.157-1.538,0.157-2.187V4.658h0.506v0.275
			c0,0.334-0.04,1.204-0.108,1.597l-0.25,1.459h-0.55L20.97,6.83h-0.01l-0.29,1.16h-0.55L19.87,6.53
			c-0.069-0.393-0.108-1.263-0.108-1.597V4.658h0.506v0.275c0,0.648,0.063,1.445,0.157,2.187h0.01l0.339-1.184H21.152z"/>
		<path fill="#FFFFFF" d="M25.231,4.658h0.781v3.331h-0.506V5.213h-0.01l-0.457,1.695h-0.403l-0.457-1.695h-0.01v2.776h-0.506V4.658
			h0.781l0.388,1.282h0.01L25.231,4.658z"/>
		<path fill="#FFFFFF" d="M29.963,7.527v0.462h-2.211V4.658h0.506v2.869H29.963z"/>
		<path fill="#FFFFFF" d="M31.35,6.068h2.466v0.506H31.35V6.068z"/>
		<path fill="#FFFFFF" d="M36.99,5.41c-0.015-0.201-0.201-0.334-0.413-0.334c-0.536,0-0.619,0.84-0.619,1.233
			c0,0.398,0.074,1.263,0.619,1.263c0.211,0,0.398-0.147,0.413-0.364h0.506c0,0.496-0.428,0.826-0.899,0.826
			c-0.899,0-1.145-0.973-1.145-1.7c0-0.767,0.246-1.72,1.145-1.72c0.471,0,0.899,0.319,0.899,0.796H36.99z"/>
		<path fill="#FFFFFF" d="M41.477,6.741v0.462H41.04v0.786h-0.507V7.203h-1.355V6.672l1.051-2.26h0.521l-1.081,2.329h0.864V6.004
			h0.507v0.737H41.477z"/>
		<path fill="#FFFFFF" d="M45.237,4.889c0.133,0.388,0.157,0.845,0.157,1.252c0,0.438-0.024,1.361-0.354,1.676
			c-0.177,0.177-0.561,0.216-0.84,0.216c-0.285,0-0.664-0.04-0.846-0.216c-0.324-0.314-0.349-1.238-0.349-1.676
			c0-0.408,0.024-0.864,0.157-1.252c0.167-0.487,0.555-0.541,1.037-0.541C44.677,4.349,45.07,4.402,45.237,4.889z M43.566,5.204
			c-0.049,0.27-0.054,0.712-0.054,0.992c0,0.26,0.01,1.057,0.152,1.243c0.094,0.128,0.368,0.133,0.536,0.133
			c0.167,0,0.441-0.005,0.535-0.133c0.138-0.187,0.152-0.983,0.152-1.243c0-0.28-0.01-0.722-0.054-0.992
			C44.77,4.825,44.593,4.811,44.2,4.811C43.807,4.811,43.63,4.825,43.566,5.204z"/>
		<path fill="#FFFFFF" d="M47.586,7.031l-0.235,0.958h-0.512l0.909-3.331h0.644l0.909,3.331H48.79l-0.241-0.958H47.586z
			 M48.077,5.125h-0.01l-0.363,1.444h0.732L48.077,5.125z"/>
	</g>
	<g>
		<path fill="#FFFFFF" d="M20.098,10.07h0.576v0.265h-0.576v0.867h-0.291V9.288h1.005v0.266h-0.714V10.07z"/>
		<path fill="#FFFFFF" d="M22.744,9.72c-0.008-0.116-0.116-0.192-0.237-0.192c-0.308,0-0.356,0.482-0.356,0.708
			c0,0.229,0.042,0.726,0.356,0.726c0.121,0,0.229-0.085,0.237-0.209h0.291c0,0.285-0.246,0.474-0.517,0.474
			c-0.517,0-0.658-0.559-0.658-0.977c0-0.44,0.141-0.988,0.658-0.988c0.271,0,0.517,0.184,0.517,0.458H22.744z"/>
		<path fill="#FFFFFF" d="M24.968,9.72c-0.008-0.116-0.116-0.192-0.237-0.192c-0.308,0-0.356,0.482-0.356,0.708
			c0,0.229,0.042,0.726,0.356,0.726c0.121,0,0.229-0.085,0.237-0.209h0.291c0,0.285-0.246,0.474-0.517,0.474
			c-0.517,0-0.658-0.559-0.658-0.977c0-0.44,0.141-0.988,0.658-0.988c0.271,0,0.517,0.184,0.517,0.458H24.968z"/>
		<path fill="#FFFFFF" d="M26.175,10.098h1.417v0.291h-1.417V10.098z"/>
		<path fill="#FFFFFF" d="M29.251,10.937h0.344v0.265h-0.979v-0.265h0.345V9.553h-0.288V9.288h0.864v0.266h-0.285V10.937z"/>
		<path fill="#FFFFFF" d="M30.78,9.288h0.181c0.57,0,1.002,0.418,1.002,0.997c0,0.582-0.406,0.917-0.965,0.917H30.78V9.288z
			 M31.07,10.937c0.384,0.008,0.602-0.296,0.602-0.658c0-0.345-0.234-0.709-0.602-0.726V10.937z"/>
		<path fill="#FFFFFF" d="M33.821,9.788v0.44h-0.539v-0.44H33.821z M33.821,10.761v0.44h-0.539v-0.44H33.821z"/>
		<path fill="#FFFFFF" d="M35.2,9.288h0.646c0.381,0,0.649,0.172,0.649,0.57s-0.313,0.553-0.669,0.553h-0.336v0.791H35.2V9.288z
			 M35.833,10.146c0.2,0,0.373-0.062,0.373-0.293c0-0.251-0.152-0.299-0.37-0.299h-0.345v0.593H35.833z"/>
		<path fill="#FFFFFF" d="M38.595,9.42c0.076,0.223,0.09,0.485,0.09,0.72c0,0.251-0.014,0.782-0.203,0.963
			c-0.102,0.102-0.321,0.124-0.482,0.124c-0.164,0-0.381-0.022-0.485-0.124c-0.187-0.181-0.201-0.711-0.201-0.963
			c0-0.234,0.015-0.497,0.091-0.72c0.096-0.279,0.319-0.311,0.596-0.311C38.273,9.11,38.499,9.141,38.595,9.42z M37.635,9.601
			c-0.028,0.155-0.031,0.409-0.031,0.57c0,0.149,0.006,0.607,0.088,0.714c0.054,0.074,0.212,0.077,0.308,0.077
			s0.254-0.003,0.308-0.077c0.079-0.107,0.088-0.564,0.088-0.714c0-0.161-0.006-0.415-0.031-0.57
			c-0.037-0.217-0.139-0.226-0.364-0.226S37.672,9.384,37.635,9.601z"/>
		<path fill="#FFFFFF" d="M40.819,9.42c0.076,0.223,0.09,0.485,0.09,0.72c0,0.251-0.014,0.782-0.203,0.963
			c-0.102,0.102-0.321,0.124-0.482,0.124c-0.164,0-0.381-0.022-0.485-0.124c-0.187-0.181-0.201-0.711-0.201-0.963
			c0-0.234,0.015-0.497,0.091-0.72c0.096-0.279,0.319-0.311,0.596-0.311C40.496,9.11,40.723,9.141,40.819,9.42z M39.859,9.601
			c-0.028,0.155-0.031,0.409-0.031,0.57c0,0.149,0.006,0.607,0.088,0.714c0.054,0.074,0.212,0.077,0.308,0.077
			s0.254-0.003,0.308-0.077c0.079-0.107,0.088-0.564,0.088-0.714c0-0.161-0.006-0.415-0.031-0.57
			c-0.037-0.217-0.139-0.226-0.364-0.226S39.896,9.384,39.859,9.601z"/>
		<path fill="#FFFFFF" d="M42.553,10.021l0.195,0.681h0.005c0.054-0.426,0.091-0.884,0.091-1.256V9.288h0.291v0.158
			c0,0.192-0.022,0.691-0.063,0.917l-0.144,0.838h-0.316l-0.164-0.666h-0.006l-0.166,0.666H41.96l-0.144-0.838
			c-0.04-0.226-0.063-0.726-0.063-0.917V9.288h0.291v0.158c0,0.373,0.036,0.83,0.09,1.256h0.006l0.195-0.681H42.553z"/>
		<path fill="#FFFFFF" d="M44.895,9.288h0.449v1.914h-0.291V9.607h-0.006l-0.263,0.974h-0.231l-0.262-0.974h-0.006v1.595h-0.291
			V9.288h0.449l0.223,0.737h0.006L44.895,9.288z"/>
		<path fill="#FFFFFF" d="M47.613,10.937v0.265h-1.271V9.288h0.291v1.649H47.613z"/>
		<path fill="#FFFFFF" d="M48.407,10.098h1.417v0.291h-1.417V10.098z"/>
		<path fill="#FFFFFF" d="M51.647,9.72c-0.009-0.116-0.116-0.192-0.237-0.192c-0.308,0-0.355,0.482-0.355,0.708
			c0,0.229,0.042,0.726,0.355,0.726c0.121,0,0.229-0.085,0.237-0.209h0.29c0,0.285-0.245,0.474-0.517,0.474
			c-0.517,0-0.657-0.559-0.657-0.977c0-0.44,0.141-0.988,0.657-0.988c0.271,0,0.517,0.184,0.517,0.458H51.647z"/>
		<path fill="#FFFFFF" d="M54.223,10.485v0.265h-0.251v0.452h-0.291V10.75h-0.779v-0.305l0.604-1.299h0.299l-0.621,1.338h0.497
			v-0.424h0.291v0.424H54.223z"/>
		<path fill="#FFFFFF" d="M56.381,9.42c0.076,0.223,0.09,0.485,0.09,0.72c0,0.251-0.014,0.782-0.203,0.963
			c-0.102,0.102-0.322,0.124-0.482,0.124c-0.164,0-0.382-0.022-0.486-0.124c-0.186-0.181-0.2-0.711-0.2-0.963
			c0-0.234,0.015-0.497,0.091-0.72c0.096-0.279,0.318-0.311,0.596-0.311C56.059,9.11,56.284,9.141,56.381,9.42z M55.421,9.601
			c-0.028,0.155-0.031,0.409-0.031,0.57c0,0.149,0.006,0.607,0.088,0.714c0.053,0.074,0.211,0.077,0.308,0.077
			c0.096,0,0.254-0.003,0.308-0.077c0.079-0.107,0.087-0.564,0.087-0.714c0-0.161-0.005-0.415-0.03-0.57
			c-0.037-0.217-0.139-0.226-0.364-0.226C55.559,9.375,55.457,9.384,55.421,9.601z"/>
	</g>
	<g>
		<path fill-rule="evenodd" clip-rule="evenodd" fill="#FFFFFF" d="M65.953,8.257c0.294,0.465,0.175,1.073-0.265,1.351
			s-1.039,0.125-1.333-0.34l-2.12-3.355c-0.294-0.465-0.174-1.073,0.266-1.35c0.439-0.278,1.04-0.125,1.334,0.34L65.953,8.257z"/>
	</g>
	<g>
		<path fill-rule="evenodd" clip-rule="evenodd" fill="#FFFFFF" d="M69.016,8.257c0.294,0.465,0.175,1.073-0.265,1.351
			s-1.039,0.125-1.333-0.34l-2.12-3.355c-0.294-0.465-0.174-1.073,0.266-1.35c0.439-0.278,1.04-0.125,1.334,0.34L69.016,8.257z"/>
	</g>
	<g>
		<path fill-rule="evenodd" clip-rule="evenodd" fill="#FFFFFF" d="M61.461,9.486c-0.297,0.463-0.898,0.612-1.336,0.332
			s-0.553-0.889-0.256-1.352l0.814-1.272c0.297-0.463,0.898-0.612,1.337-0.331c0.438,0.28,0.553,0.889,0.256,1.352L61.461,9.486z"/>
	</g>
	<g id="_x30_.1.1.0.0.0_5_" opacity="0.2">
		<g>
			<path fill="#FFFFFF" d="M17.296,2.442c0-1.1,0.899-2,2-2H70.43c1.1,0,2,0.9,2,2V2c0-1.1-0.9-2-2-2H19.296c-1.101,0-2,0.9-2,2
				V2.442z"/>
		</g>
	</g>
</g>
<g id="_x30_.1.1.0.0.0_7_" opacity="0.2">
	<g>
		<path d="M72.43,39.426c0,1.1-0.9,2-2,2H19.296c-1.101,0-2-0.9-2-2v-0.324c0,1.1,0.899,2,2,2H70.43c1.1,0,2-0.9,2-2"/>
	</g>
</g>
<g id="_x30_.1.1.0.0.0_2_" opacity="0.2">
	<g>
		<path d="M72.43,42.504c0,1.1-0.9,2-2,2H19.296c-1.101,0-2-0.9-2-2V42.18c0,1.1,0.899,2,2,2H70.43c1.1,0,2-0.9,2-2"/>
	</g>
</g>
<g>
	<g>
		<path fill="#FFFFFF" d="M67.157,30.522c-1.957,0-3.544,1.587-3.544,3.543c0,1.957,1.587,3.544,3.544,3.544
			c1.956,0,3.543-1.587,3.543-3.544C70.7,32.109,69.114,30.522,67.157,30.522z M67.157,36.77c-1.493,0-2.704-1.211-2.704-2.704
			s1.211-2.704,2.704-2.704c1.492,0,2.703,1.211,2.703,2.704S68.65,36.77,67.157,36.77z"/>
	</g>
	<g>
		<g>
			<path fill="#FFFFFF" d="M67.601,31.778l-0.127,2.897H66.82l-0.106-2.897H67.601z M67.601,35.647v0.756h-0.888v-0.756H67.601z"/>
		</g>
	</g>
</g>
</svg>
