<?xml version="1.0" encoding="utf-8"?>
<!-- Generator: Adobe Illustrator 15.1.0, SVG Export Plug-In . SVG Version: 6.00 Build 0)  -->
<!DOCTYPE svg PUBLIC "-//W3C//DTD SVG 1.1//EN" "http://www.w3.org/Graphics/SVG/1.1/DTD/svg11.dtd">
<svg version="1.1" id="Ebene_1" xmlns:svg="http://www.w3.org/2000/svg"
	 xmlns="http://www.w3.org/2000/svg" xmlns:xlink="http://www.w3.org/1999/xlink" x="0px" y="0px" width="30.34px"
	 height="32.053px" viewBox="0 0 30.34 32.053" enable-background="new 0 0 30.34 32.053" xml:space="preserve">
<g>
	<circle fill="#999999" cx="15.17" cy="17.026" r="14.883"/>
	<circle fill="#E6E6E6" cx="15.17" cy="15.026" r="14.883"/>
	<path fill="#F2F2F2" d="M12.62,3.579c7.526,0,15.644,3.979,15.892,11.445c0.006-0.155,0.022-0.31,0.022-0.467
		c0-7.685-6.229-13.915-13.914-13.915c-7.685,0-13.915,6.229-13.915,13.915c0,0.158,0.019,0.313,0.024,0.467
		C0.978,7.559,5.093,3.579,12.62,3.579z"/>
	<path fill="#CCCCCC" d="M17.17,26.971c-7.527,0-15.643-3.979-15.891-11.447c-0.006,0.157-0.023,0.312-0.023,0.469
		c0,7.686,6.229,13.912,13.914,13.912c7.686,0,13.915-6.229,13.915-13.912c0-0.158-0.019-0.313-0.022-0.469
		C28.813,22.993,24.695,26.971,17.17,26.971z"/>
	<rect x="11.626" y="13.026" fill="#B3B3B3" width="7.086" height="2.225"/>
</g>
<circle fill="#B3B3B3" cx="15.169" cy="15.026" r="3.542"/>
<circle fill="#F2F2F2" cx="15.17" cy="13.026" r="3.543"/>
</svg>
