<?xml version="1.0" encoding="utf-8"?>
<!-- Generator: Adobe Illustrator 15.1.0, SVG Export Plug-In . SVG Version: 6.00 Build 0)  -->
<!DOCTYPE svg PUBLIC "-//W3C//DTD SVG 1.1//EN" "http://www.w3.org/Graphics/SVG/1.1/DTD/svg11.dtd">
<svg version="1.1" id="Ebene_1" xmlns:svg="http://www.w3.org/2000/svg"
	 xmlns="http://www.w3.org/2000/svg" xmlns:xlink="http://www.w3.org/1999/xlink" x="0px" y="0px" width="161.945px"
	 height="48.83px" viewBox="0 0 161.945 48.83" enable-background="new 0 0 161.945 48.83" xml:space="preserve">
<path fill="#999999" d="M35.91,17.462H13.014c-1.649,0-3-0.479-3-1.063v-0.14c0,0.584,1.351,1.063,3,1.063h22.896"/>
<g>
	<g>
		<path fill="#CCCCCC" d="M25.895,25.212H3c-1.65,0-3,0.479-3,1.063s1.35,1.203,3,1.203l22.896-0.141c1.65,0,3-0.479,3-1.063
			S27.545,25.212,25.895,25.212z M11.375,26.649H1.936V26.04h9.438V26.649z"/>
	</g>
	<g>
		<path fill="#B3B3B3" d="M35.91,15.198H13.014c-1.649,0-3,0.479-3,1.063c0,0.584,1.351,1.063,3,1.063h22.896
			c1.649,0,3-0.479,3-1.063C38.91,15.676,37.559,15.198,35.91,15.198z M21.389,16.635h-9.438v-0.75h9.438V16.635z M25.895,27.478H3
			c-1.65,0-3-0.479-3-1.063v-0.14c0,0.584,1.35,1.063,3,1.063h22.896 M11.375,26.04H1.936v-0.141h9.438V26.04z"/>
	</g>
	<g>
		<g>
			<rect x="43.42" y="2.859" fill="#634530" width="82.271" height="43.201"/>
		</g>
		<g>
			<rect x="39.689" y="6.339" fill="#5B2918" width="3.729" height="36.24"/>
		</g>
		<g>
			<rect x="24.308" y="2.859" fill="#634530" width="15.383" height="43.201"/>
		</g>
		<g>
			<rect x="19.689" y="19.589" fill="#CCCCCC" width="4.618" height="9.74"/>
		</g>
		<g>
			<path fill="#FF0000" d="M161.945,24.459c0-1.888-1.099-3.505-2.682-4.293c-0.143-5.992-0.58-11.143-1.185-14.446V5.09
				c0-2.75-2.25-5-5-5h-27.391v48.74h27.391c2.75,0,5-2.25,5-5v-0.632c0.604-3.303,1.042-8.453,1.185-14.444
				C160.847,27.965,161.945,26.349,161.945,24.459z"/>
		</g>
		<g>
			<g>
				<g opacity="0.2" enable-background="new    ">
					<rect x="43.42" y="45.399" width="82.271" height="0.66"/>
				</g>
				<g opacity="0.2" enable-background="new    ">
					<rect x="39.689" y="41.919" width="3.729" height="0.66"/>
				</g>
				<g opacity="0.2" enable-background="new    ">
					<rect x="24.308" y="45.399" width="15.383" height="0.66"/>
				</g>
				<g opacity="0.2" enable-background="new    ">
					<rect x="19.689" y="28.649" width="4.618" height="0.681"/>
				</g>
			</g>
			<g opacity="0.2" enable-background="new    ">
				<path d="M125.689,48.024h27.391c2.75,0,5-2.25,5-5v0.806c0,2.75-2.25,5-5,5h-27.391V48.024z"/>
			</g>
		</g>
		<g>
			<g>
				<g opacity="0.2" enable-background="new    ">
					<rect x="43.42" y="2.77" fill="#FFFFFF" width="82.271" height="0.66"/>
				</g>
				<g opacity="0.2" enable-background="new    ">
					<rect x="39.689" y="6.25" fill="#FFFFFF" width="3.729" height="0.66"/>
				</g>
				<g opacity="0.2" enable-background="new    ">
					<rect x="24.308" y="2.77" fill="#FFFFFF" width="15.383" height="0.66"/>
				</g>
				<g opacity="0.2" enable-background="new    ">
					<rect x="19.689" y="19.5" fill="#FFFFFF" width="4.618" height="0.68"/>
				</g>
			</g>
			<g opacity="0.2" enable-background="new    ">
				<path fill="#FFFFFF" d="M125.689,0.805h27.391c2.75,0,5,2.25,5,5V5c0-2.75-2.25-5-5-5h-27.391V0.805z"/>
			</g>
		</g>
	</g>
	<g opacity="0.2">
		<g>
			<path fill="#FFFFFF" d="M124.375,10.155c0,1.647-1.35,2.995-3,2.995c0,0-71.729,0-77.594,0c-0.22,0-0.343,0.656-0.361,0.656
				c-0.549,0-3.165,0-3.73,0c-0.052,0-0.216-0.656-0.471-0.656c-2.485,0-10.594,0-10.594,0c-1.65,0-3-1.348-3-2.995
				c0-1.647,1.35-2.995,3-2.995c0,0,8.197,0,10.625,0c0.235,0,0.388,0.656,0.439,0.656c0.592,0,3.214,0,3.73,0
				c0.018,0,0.13-0.656,0.33-0.656c5.62,0,77.625,0,77.625,0C123.025,7.16,124.375,8.508,124.375,10.155z"/>
		</g>
	</g>
	<g opacity="0.2">
		<g>
			<path fill="#FFFFFF" d="M158.498,18.582c0.162,1.642-0.27,2.985-0.956,2.985c-0.688,0-1.786-1.239-2.44-2.753l-3.453-7.983
				c-0.653-1.514-2.539-2.753-4.189-2.753h-17.084c-1.65,0-3-1.348-3-2.995s1.35-2.995,3-2.995h23.5c1.65,0,3.132,1.343,3.294,2.985
				L158.498,18.582z"/>
		</g>
	</g>
	<g opacity="0.2">
		<g>
			<path d="M124.375,38.812c0-1.646-1.35-2.994-3-2.994c0,0-71.729,0-77.594,0c-0.22,0-0.343-0.656-0.361-0.656
				c-0.549,0-3.165,0-3.73,0c-0.052,0-0.216,0.656-0.471,0.656c-2.485,0-10.594,0-10.594,0c-1.65,0-3,1.348-3,2.994
				s1.35,2.994,3,2.994c0,0,8.197,0,10.625,0c0.235,0,0.388-0.656,0.439-0.656c0.592,0,3.214,0,3.73,0
				c0.018,0,0.13,0.656,0.33,0.656c5.62,0,77.625,0,77.625,0C123.025,41.806,124.375,40.458,124.375,38.812z"/>
		</g>
	</g>
	<g opacity="0.2">
		<g>
			<path d="M158.498,30.636c0.162-1.643-0.27-2.986-0.956-2.986c-0.688,0-1.559,1.314-1.937,2.922l-1.796,7.648
				c-0.377,1.605-2.034,2.92-3.686,2.92h-19.75c-1.65,0-3,1.348-3,2.996c0,1.646,1.35,2.994,3,2.994h23.5
				c1.649,0,3.132-1.344,3.294-2.984L158.498,30.636z"/>
		</g>
	</g>
	<g>
		<path fill="#CCCCCC" d="M26.124,29.588h-1v-2.271c0-4.457,1.58-9.596,2.85-13.725c0.857-2.789,1.667-5.424,1.419-6.296
			c-0.566-1.993,0.91-5.631,1.847-6.504c0.328-0.305,0.612-0.292,0.791-0.226c0.18,0.065,0.407,0.238,0.464,0.687
			c0.16,1.267,0.171,1.55,0.171,1.607l-0.5-0.002l-0.5,0.008c0-0.008-0.006-0.175-0.09-0.891c-0.654,1.082-1.62,3.644-1.221,5.047
			c0.329,1.157-0.407,3.55-1.426,6.863c-1.25,4.065-2.805,9.124-2.805,13.431V29.588z"/>
	</g>
</g>
<rect x="11.952" y="15.885" fill="#999999" width="9.438" height="0.14"/>
</svg>
