<?xml version="1.0" encoding="utf-8"?>
<!-- Generator: Adobe Illustrator 15.1.0, SVG Export Plug-In . SVG Version: 6.00 Build 0)  -->
<!DOCTYPE svg PUBLIC "-//W3C//DTD SVG 1.1//EN" "http://www.w3.org/Graphics/SVG/1.1/DTD/svg11.dtd">
<svg version="1.1" id="Ebene_1" xmlns:svg="http://www.w3.org/2000/svg"
	 xmlns="http://www.w3.org/2000/svg" xmlns:xlink="http://www.w3.org/1999/xlink" x="0px" y="0px" width="32.76px"
	 height="20.809px" viewBox="0 0 32.76 20.809" enable-background="new 0 0 32.76 20.809" xml:space="preserve">
<rect x="0.001" y="0" fill="#4D4D4D" width="32.76" height="7.561"/>
<g>
	<g>
		<rect x="28.317" y="17.576" fill="#CCCCCC" width="1.326" height="3.231"/>
	</g>
	<g>
		<rect x="24.718" y="17.576" fill="#CCCCCC" width="1.326" height="3.231"/>
	</g>
	<g>
		<rect x="21.118" y="17.576" fill="#CCCCCC" width="1.325" height="3.231"/>
	</g>
	<g>
		<rect x="17.519" y="17.576" fill="#CCCCCC" width="1.326" height="3.231"/>
	</g>
	<g>
		<rect x="13.918" y="17.576" fill="#CCCCCC" width="1.326" height="3.231"/>
	</g>
	<g>
		<rect x="10.318" y="17.576" fill="#CCCCCC" width="1.326" height="3.231"/>
	</g>
	<g>
		<rect x="6.718" y="17.576" fill="#CCCCCC" width="1.326" height="3.231"/>
	</g>
	<g>
		<rect x="3.118" y="17.576" fill="#CCCCCC" width="1.326" height="3.231"/>
	</g>
</g>
<g opacity="0.2">
	<g>
		<rect x="28.317" y="17.576" width="1.326" height="1"/>
	</g>
	<g>
		<rect x="24.718" y="17.576" width="1.326" height="1"/>
	</g>
	<g>
		<rect x="21.118" y="17.576" width="1.325" height="1"/>
	</g>
	<g>
		<rect x="17.519" y="17.576" width="1.326" height="1"/>
	</g>
	<g>
		<rect x="13.918" y="17.576" width="1.326" height="1"/>
	</g>
	<g>
		<rect x="10.318" y="17.576" width="1.326" height="1"/>
	</g>
	<g>
		<rect x="6.718" y="17.576" width="1.326" height="1"/>
	</g>
	<g>
		<rect x="3.118" y="17.576" width="1.326" height="1"/>
	</g>
</g>
<rect x="0.001" y="0" opacity="0.2" fill="#FFFFFF" enable-background="new    " width="32.76" height="0.255"/>
<rect x="0.001" y="7.306" opacity="0.2" enable-background="new    " width="32.76" height="0.255"/>
<g>
	<path fill="#333333" d="M20.464,14.521c-0.116,0-0.207,0.039-0.271,0.117c-0.09,0.109-0.125,0.304-0.125,0.584
		c0,0.281,0.035,0.468,0.107,0.569c0.081,0.094,0.171,0.14,0.288,0.14c0.107,0,0.207-0.054,0.279-0.146
		c0.08-0.094,0.115-0.281,0.115-0.563c0-0.28-0.035-0.475-0.115-0.561C20.671,14.568,20.573,14.521,20.464,14.521 M23.552,14.521
		c-0.117,0-0.198,0.039-0.27,0.117c-0.082,0.109-0.127,0.304-0.127,0.584c0,0.281,0.035,0.468,0.116,0.569
		c0.072,0.094,0.172,0.14,0.279,0.14c0.116,0,0.206-0.054,0.288-0.146c0.072-0.094,0.107-0.281,0.107-0.563
		c0-0.28-0.035-0.475-0.107-0.561C23.759,14.568,23.669,14.521,23.552,14.521 M17.909,11.177c-0.108,0-0.199,0.047-0.271,0.125
		c-0.081,0.109-0.126,0.304-0.126,0.584c0,0.281,0.045,0.468,0.116,0.562c0.082,0.095,0.172,0.141,0.289,0.141
		c0.106,0,0.197-0.046,0.279-0.141c0.08-0.094,0.115-0.28,0.115-0.562c0-0.28-0.035-0.475-0.115-0.569
		C18.116,11.224,18.025,11.177,17.909,11.177 M10.808,8.293c-0.189,0-0.351,0.054-0.486,0.164c-0.135,0.108-0.198,0.296-0.198,0.553
		c0,0.211,0.063,0.375,0.189,0.491c0.135,0.117,0.297,0.179,0.486,0.179c0.198,0,0.36-0.062,0.495-0.179
		c0.126-0.125,0.189-0.289,0.189-0.515c0-0.141-0.027-0.265-0.081-0.365c-0.054-0.103-0.135-0.188-0.243-0.242
		C11.051,8.317,10.934,8.293,10.808,8.293 M1.627,15.682c-0.306,0-0.558-0.218-0.558-0.483c0-0.271,0.252-0.49,0.558-0.49
		c0.315,0,0.567,0.218,0.567,0.49C2.194,15.464,1.942,15.682,1.627,15.682 M8.018,14.988v-0.164h0.18v-0.312l0.243-0.125v0.437
		h0.243v0.164H8.44v0.733l0.009,0.117l0.045,0.039l0.081,0.015l0.108-0.008l0.036,0.187l-0.18,0.017l-0.207-0.039l-0.108-0.094
		c-0.018-0.039-0.027-0.125-0.027-0.25v-0.718L8.018,14.988 M9.691,16.072V14.35h0.243v1.722H9.691 M20.464,16.103
		c-0.188,0-0.342-0.063-0.449-0.179c-0.135-0.14-0.198-0.374-0.198-0.702c0-0.203,0.027-0.366,0.072-0.491s0.116-0.218,0.216-0.289
		c0.09-0.069,0.217-0.101,0.359-0.101c0.109,0,0.199,0.022,0.279,0.055l0.198,0.164c0.056,0.07,0.101,0.156,0.126,0.257
		c0.027,0.103,0.045,0.234,0.045,0.405c0,0.203-0.025,0.367-0.07,0.491c-0.045,0.125-0.117,0.218-0.217,0.288
		C20.734,16.064,20.608,16.103,20.464,16.103 M21.544,14.981v-0.203c0.145-0.063,0.262-0.125,0.361-0.202
		c0.098-0.078,0.17-0.156,0.215-0.234h0.162v1.729H22.04v-1.348c-0.063,0.046-0.135,0.101-0.234,0.148
		C21.706,14.918,21.626,14.957,21.544,14.981 M23.552,16.103c-0.189,0-0.342-0.063-0.45-0.179c-0.135-0.14-0.198-0.374-0.198-0.702
		c0-0.203,0.027-0.366,0.072-0.491c0.055-0.125,0.126-0.218,0.216-0.289c0.101-0.069,0.218-0.101,0.36-0.101
		c0.107,0,0.197,0.022,0.279,0.055l0.207,0.164c0.045,0.07,0.09,0.156,0.117,0.257c0.034,0.103,0.045,0.234,0.045,0.405
		c0,0.203-0.02,0.367-0.072,0.491c-0.045,0.125-0.117,0.218-0.217,0.288C23.821,16.064,23.696,16.103,23.552,16.103 M24.712,14.864
		L24.47,14.84c0.018-0.164,0.081-0.288,0.189-0.366c0.115-0.086,0.26-0.132,0.448-0.132c0.198,0,0.343,0.046,0.459,0.14
		c0.108,0.095,0.162,0.203,0.162,0.335l-0.045,0.211l-0.162,0.21c-0.081,0.07-0.207,0.173-0.378,0.297
		c-0.145,0.108-0.243,0.179-0.277,0.218l-0.109,0.118h0.982v0.201h-1.324l0.037-0.147l0.162-0.227
		c0.07-0.077,0.17-0.163,0.313-0.265c0.216-0.147,0.36-0.272,0.44-0.359c0.071-0.093,0.107-0.179,0.107-0.257
		c0-0.085-0.036-0.155-0.1-0.21c-0.071-0.062-0.162-0.085-0.271-0.085c-0.116,0-0.216,0.031-0.287,0.085
		C24.757,14.669,24.722,14.755,24.712,14.864 M19.079,11.948l-0.227-0.03l0.189-0.881h0.99v0.202h-0.791l-0.109,0.459
		c0.117-0.069,0.244-0.108,0.379-0.108c0.171,0,0.324,0.055,0.441,0.156c0.116,0.108,0.18,0.24,0.18,0.404
		c0,0.156-0.055,0.289-0.162,0.406c-0.126,0.14-0.297,0.21-0.521,0.21c-0.181,0-0.324-0.046-0.441-0.132
		c-0.116-0.093-0.18-0.203-0.197-0.351l0.262-0.017c0.018,0.102,0.063,0.188,0.127,0.242c0.07,0.054,0.151,0.078,0.252,0.078
		c0.115,0,0.215-0.039,0.297-0.109c0.08-0.078,0.125-0.18,0.125-0.312c0-0.117-0.035-0.21-0.117-0.281
		c-0.08-0.07-0.18-0.109-0.305-0.109l-0.219,0.048L19.079,11.948 M9.764,11.722h1.035v-0.709h0.261v1.723h-0.261v-0.811H9.764v0.811
		H9.502v-1.723h0.261V11.722 M12.455,12.487c0.018-0.063,0.054-0.155,0.099-0.272l0.477-1.2h0.36v1.723h-0.252v-1.441l-0.585,1.441
		h-0.234l-0.576-1.466v1.466h-0.252v-1.723h0.396l0.468,1.216C12.4,12.346,12.437,12.432,12.455,12.487 M21.958,11.216v-0.203h1.422
		v0.203l-1.115,1.192l-0.117,0.125h1.27v0.202h-1.575v-0.21l1.017-1.106c0.072-0.078,0.145-0.148,0.207-0.203H21.958 M15.911,11.645
		v-0.211c0.135-0.054,0.252-0.117,0.351-0.194c0.108-0.086,0.18-0.155,0.225-0.233h0.153v1.729h-0.243v-1.349
		c-0.063,0.046-0.135,0.093-0.234,0.148C16.073,11.582,15.982,11.621,15.911,11.645 M17.917,12.767
		c-0.197,0-0.342-0.062-0.459-0.179c-0.125-0.148-0.188-0.382-0.188-0.702c0-0.203,0.019-0.366,0.072-0.491
		c0.045-0.125,0.116-0.218,0.216-0.289c0.09-0.069,0.216-0.101,0.359-0.101c0.1,0,0.199,0.016,0.279,0.055l0.197,0.164
		c0.055,0.07,0.09,0.156,0.126,0.257c0.026,0.103,0.045,0.234,0.045,0.405c0,0.203-0.026,0.367-0.071,0.491
		c-0.055,0.125-0.125,0.218-0.216,0.289C18.179,12.728,18.062,12.767,17.917,12.767 M20.546,11.645v-0.211
		c0.135-0.054,0.252-0.117,0.351-0.194c0.108-0.086,0.181-0.155,0.226-0.233h0.152v1.729h-0.242v-1.349
		c-0.063,0.046-0.137,0.093-0.234,0.148C20.708,11.582,20.618,11.621,20.546,11.645 M14.668,12.767
		c-0.216,0-0.387-0.039-0.522-0.117c-0.135-0.078-0.234-0.187-0.306-0.327c-0.072-0.141-0.108-0.296-0.108-0.46
		c0-0.179,0.045-0.334,0.126-0.475c0.072-0.132,0.189-0.234,0.333-0.304c0.144-0.063,0.306-0.103,0.486-0.103
		c0.198,0,0.36,0.047,0.495,0.133c0.144,0.087,0.234,0.211,0.288,0.366L15.2,11.536c-0.045-0.125-0.108-0.22-0.198-0.273
		c-0.09-0.055-0.198-0.086-0.333-0.086c-0.153,0-0.279,0.031-0.378,0.093c-0.108,0.063-0.18,0.148-0.225,0.258
		c-0.036,0.109-0.054,0.219-0.054,0.334c0,0.142,0.018,0.273,0.072,0.383c0.045,0.108,0.126,0.188,0.225,0.241
		c0.108,0.056,0.216,0.086,0.342,0.086c0.144,0,0.27-0.04,0.369-0.116c0.108-0.07,0.171-0.18,0.207-0.327l0.271,0.062
		c-0.054,0.188-0.153,0.328-0.297,0.43C15.056,12.712,14.875,12.767,14.668,12.767 M8.198,8.831h1.035V8.122h0.261v1.722H9.232
		V9.033H8.198v0.811h-0.27V8.122h0.27V8.831 M13.399,9.478V8.122h0.252v1.722h-0.27l-1.044-1.348v1.348h-0.252V8.122h0.27
		L13.399,9.478 M14.102,9.844V8.122h1.44v0.21h-1.179v0.521h1.107v0.203h-1.107v0.584h1.224v0.203H14.102 M16.658,8.932
		c0.063-0.086,0.135-0.188,0.216-0.304l0.387-0.506h0.306l-0.792,0.997v0.725h-0.261V9.119L15.74,8.122h0.324l0.396,0.521
		C16.532,8.745,16.595,8.839,16.658,8.932 M20.177,8.122l-0.54,1.722h-0.252l-0.423-1.309c-0.036-0.109-0.055-0.18-0.063-0.203
		C18.88,8.41,18.861,8.48,18.845,8.535l-0.424,1.309h-0.27l-0.529-1.722h0.27l0.307,1.13c0.035,0.117,0.063,0.242,0.082,0.351
		c0.053-0.18,0.079-0.289,0.09-0.312l0.377-1.169h0.324l0.278,0.873c0.071,0.218,0.125,0.421,0.151,0.607
		c0.026-0.102,0.063-0.227,0.1-0.375l0.314-1.105H20.177 M20.429,9.844V8.122h1.439v0.21h-1.17v0.521h1.098v0.203h-1.098v0.584
		h1.215v0.203H20.429 M22.265,9.844V8.122h0.271v1.52h0.979v0.203L22.265,9.844 M23.813,9.844V8.122h0.263v1.52h0.979v0.203
		L23.813,9.844 M10.798,9.875c-0.18,0-0.351-0.039-0.504-0.117C10.15,9.68,10.042,9.572,9.961,9.439
		C9.89,9.307,9.854,9.159,9.854,9.01c0-0.288,0.081-0.514,0.261-0.67c0.18-0.164,0.405-0.242,0.684-0.242
		c0.189,0,0.351,0.031,0.504,0.109c0.144,0.078,0.252,0.187,0.333,0.318c0.081,0.134,0.117,0.289,0.117,0.46
		c0,0.18-0.045,0.334-0.126,0.468c-0.081,0.141-0.189,0.241-0.342,0.318C11.131,9.844,10.97,9.875,10.798,9.875 M32.759,7.561
		h-32.76v10.017h32.76V7.561"/>
	<polyline fill="#999999" points="9.494,8.122 9.232,8.122 9.232,8.831 8.198,8.831 8.198,8.122 7.928,8.122 7.928,9.844 
		8.198,9.844 8.198,9.033 9.232,9.033 9.232,9.844 9.494,9.844 9.494,8.122 	"/>
	<path fill="#999999" d="M10.798,9.68c-0.189,0-0.351-0.062-0.486-0.179c-0.126-0.117-0.189-0.28-0.189-0.491
		c0-0.257,0.063-0.444,0.198-0.553c0.135-0.109,0.297-0.164,0.486-0.164c0.126,0,0.243,0.022,0.351,0.085
		c0.108,0.055,0.189,0.141,0.243,0.243c0.054,0.101,0.081,0.226,0.081,0.365c0,0.227-0.063,0.39-0.189,0.515
		C11.159,9.618,10.997,9.68,10.798,9.68 M10.798,8.098c-0.279,0-0.504,0.078-0.684,0.242c-0.18,0.156-0.261,0.382-0.261,0.67
		c0,0.148,0.036,0.296,0.108,0.429c0.081,0.133,0.189,0.242,0.333,0.32c0.153,0.078,0.324,0.117,0.504,0.117
		c0.171,0,0.333-0.031,0.486-0.103c0.153-0.078,0.261-0.179,0.342-0.318c0.081-0.134,0.126-0.288,0.126-0.468
		c0-0.172-0.036-0.327-0.117-0.46c-0.081-0.132-0.189-0.24-0.333-0.318C11.149,8.129,10.988,8.098,10.798,8.098"/>
	<polyline fill="#999999" points="13.651,8.122 13.399,8.122 13.399,9.478 12.355,8.122 12.085,8.122 12.085,9.844 12.337,9.844 
		12.337,8.496 13.381,9.844 13.651,9.844 13.651,8.122 	"/>
	<polyline fill="#999999" points="15.542,8.122 14.102,8.122 14.102,9.844 15.586,9.844 15.586,9.641 14.363,9.641 14.363,9.057 
		15.47,9.057 15.47,8.854 14.363,8.854 14.363,8.332 15.542,8.332 15.542,8.122 	"/>
	<path fill="#999999" d="M17.566,8.122h-0.306l-0.387,0.506c-0.081,0.117-0.153,0.218-0.216,0.304
		c-0.063-0.093-0.126-0.187-0.198-0.288l-0.396-0.521H15.74l0.774,0.998v0.725h0.261V9.119L17.566,8.122"/>
	<path fill="#999999" d="M20.177,8.122h-0.262l-0.314,1.105c-0.036,0.148-0.072,0.273-0.1,0.375c-0.026-0.187-0.08-0.39-0.152-0.607
		l-0.279-0.873h-0.324l-0.377,1.169c-0.011,0.022-0.037,0.132-0.091,0.312c-0.018-0.109-0.045-0.233-0.081-0.351l-0.307-1.13h-0.27
		l0.529,1.722h0.271l0.424-1.309c0.017-0.056,0.035-0.125,0.054-0.203c0.011,0.022,0.027,0.094,0.063,0.203l0.423,1.309h0.252
		L20.177,8.122"/>
	<polyline fill="#999999" points="21.868,8.122 20.429,8.122 20.429,9.844 21.913,9.844 21.913,9.641 20.698,9.641 20.698,9.057 
		21.796,9.057 21.796,8.854 20.698,8.854 20.698,8.332 21.868,8.332 21.868,8.122 	"/>
	<polyline fill="#999999" points="22.534,8.122 22.265,8.122 22.265,9.844 23.516,9.844 23.516,9.641 22.534,9.641 22.534,8.122 	
		"/>
	<polyline fill="#999999" points="24.073,8.122 23.813,8.122 23.813,9.844 25.055,9.844 25.055,9.641 24.073,9.641 24.073,8.122 	
		"/>
	<polyline fill="#999999" points="11.06,11.013 10.798,11.013 10.798,11.722 9.764,11.722 9.764,11.013 9.502,11.013 9.502,12.736 
		9.764,12.736 9.764,11.926 10.798,11.926 10.798,12.736 11.06,12.736 11.06,11.013 	"/>
	<path fill="#999999" d="M13.391,11.013h-0.36l-0.477,1.2c-0.045,0.117-0.081,0.21-0.099,0.272
		c-0.018-0.055-0.054-0.141-0.099-0.257l-0.468-1.216h-0.396v1.723h0.252V11.27l0.576,1.466h0.234l0.585-1.441v1.441h0.252V11.013"
		/>
	<path fill="#999999" d="M14.678,10.982c-0.18,0-0.342,0.04-0.486,0.103c-0.144,0.069-0.261,0.172-0.333,0.304
		c-0.081,0.141-0.126,0.296-0.126,0.475c0,0.164,0.036,0.32,0.108,0.46c0.072,0.141,0.171,0.25,0.306,0.327
		c0.135,0.078,0.306,0.117,0.522,0.117c0.207,0,0.387-0.055,0.531-0.147c0.144-0.102,0.243-0.242,0.297-0.43l-0.271-0.062
		c-0.036,0.147-0.099,0.257-0.207,0.327c-0.099,0.078-0.225,0.116-0.369,0.116c-0.126,0-0.234-0.03-0.342-0.086
		c-0.099-0.055-0.18-0.133-0.225-0.241c-0.054-0.109-0.072-0.241-0.072-0.383c0-0.115,0.018-0.226,0.054-0.334
		c0.045-0.108,0.117-0.194,0.225-0.258c0.099-0.062,0.225-0.093,0.378-0.093c0.135,0,0.243,0.031,0.333,0.086
		c0.09,0.054,0.153,0.148,0.198,0.272l0.261-0.056c-0.054-0.156-0.144-0.279-0.288-0.366C15.038,11.029,14.875,10.982,14.678,10.982
		"/>
	<path fill="#999999" d="M16.64,11.006h-0.153c-0.045,0.077-0.117,0.147-0.225,0.233c-0.099,0.078-0.216,0.141-0.351,0.194v0.211
		c0.072-0.022,0.162-0.063,0.252-0.108c0.099-0.056,0.171-0.103,0.234-0.148v1.349h0.243V11.006"/>
	<path fill="#999999" d="M17.917,12.588c-0.116,0-0.207-0.046-0.287-0.141c-0.072-0.094-0.117-0.28-0.117-0.562
		c0-0.28,0.045-0.475,0.126-0.584c0.071-0.078,0.162-0.125,0.271-0.125c0.116,0,0.207,0.047,0.289,0.14
		c0.08,0.095,0.115,0.289,0.115,0.569c0,0.281-0.035,0.468-0.115,0.562C18.116,12.542,18.025,12.588,17.917,12.588 M17.917,11.006
		c-0.145,0-0.271,0.031-0.359,0.101c-0.1,0.07-0.171,0.164-0.216,0.289c-0.054,0.125-0.072,0.288-0.072,0.491
		c0,0.32,0.063,0.554,0.188,0.702c0.117,0.117,0.262,0.179,0.459,0.179c0.145,0,0.262-0.039,0.36-0.101
		c0.091-0.07,0.161-0.164,0.216-0.289c0.045-0.125,0.071-0.288,0.071-0.491c0-0.171-0.019-0.304-0.045-0.405
		c-0.036-0.101-0.071-0.187-0.126-0.257l-0.197-0.165C18.116,11.021,18.017,11.006,17.917,11.006"/>
	<path fill="#999999" d="M20.032,11.036h-0.99l-0.188,0.881l0.226,0.03l0.152-0.125l0.217-0.047c0.127,0,0.225,0.039,0.307,0.109
		c0.08,0.07,0.117,0.164,0.117,0.281c0,0.132-0.045,0.233-0.127,0.312c-0.08,0.07-0.181,0.109-0.297,0.109
		c-0.1,0-0.181-0.023-0.252-0.078c-0.063-0.055-0.107-0.141-0.127-0.242l-0.261,0.017c0.019,0.147,0.081,0.257,0.198,0.351
		c0.117,0.086,0.261,0.132,0.441,0.132c0.225,0,0.396-0.07,0.521-0.21c0.108-0.117,0.161-0.25,0.161-0.406
		c0-0.164-0.063-0.296-0.18-0.404c-0.115-0.101-0.269-0.155-0.439-0.155c-0.135,0-0.262,0.039-0.379,0.108l0.109-0.459h0.791V11.036
		"/>
	<path fill="#999999" d="M21.274,11.006h-0.152c-0.045,0.078-0.117,0.147-0.227,0.233c-0.1,0.078-0.216,0.141-0.352,0.194v0.211
		c0.072-0.022,0.162-0.063,0.252-0.108c0.1-0.056,0.172-0.103,0.234-0.148v1.349h0.242v-1.73"/>
	<path fill="#999999" d="M23.38,11.013h-1.422v0.203h1.106c-0.063,0.054-0.135,0.125-0.207,0.203l-1.016,1.106v0.21h1.575v-0.202
		h-1.271l0.117-0.125l1.116-1.192V11.013"/>
	<path fill="#999999" d="M20.464,15.931c-0.116,0-0.207-0.046-0.287-0.14c-0.072-0.102-0.107-0.288-0.107-0.569
		c0-0.28,0.035-0.475,0.125-0.584c0.063-0.078,0.153-0.117,0.271-0.117c0.107,0,0.207,0.047,0.279,0.141
		c0.08,0.086,0.115,0.28,0.115,0.561c0,0.281-0.035,0.468-0.115,0.563C20.671,15.877,20.573,15.931,20.464,15.931 M20.464,14.342
		c-0.143,0-0.271,0.031-0.359,0.101c-0.1,0.07-0.171,0.164-0.216,0.289s-0.072,0.288-0.072,0.491c0,0.328,0.063,0.563,0.198,0.702
		c0.107,0.117,0.261,0.179,0.449,0.179c0.145,0,0.271-0.039,0.361-0.102c0.098-0.07,0.17-0.163,0.215-0.288s0.071-0.288,0.071-0.491
		c0-0.171-0.018-0.304-0.045-0.405c-0.026-0.102-0.071-0.188-0.125-0.258l-0.196-0.164C20.663,14.365,20.573,14.342,20.464,14.342"
		/>
	<path fill="#999999" d="M22.282,14.342H22.12c-0.045,0.078-0.117,0.156-0.215,0.234c-0.101,0.077-0.218,0.14-0.361,0.202v0.203
		c0.082-0.022,0.162-0.063,0.262-0.108c0.1-0.047,0.171-0.103,0.234-0.148v1.348h0.242V14.342"/>
	<path fill="#999999" d="M23.552,15.931c-0.107,0-0.207-0.046-0.279-0.14c-0.081-0.102-0.115-0.288-0.115-0.569
		c0-0.28,0.045-0.475,0.125-0.584c0.071-0.078,0.152-0.117,0.271-0.117s0.207,0.047,0.288,0.141c0.072,0.086,0.107,0.28,0.107,0.561
		c0,0.281-0.035,0.468-0.107,0.563C23.759,15.877,23.669,15.931,23.552,15.931 M23.552,14.342c-0.145,0-0.262,0.031-0.36,0.101
		c-0.09,0.07-0.161,0.164-0.216,0.289c-0.045,0.125-0.072,0.288-0.072,0.491c0,0.328,0.063,0.563,0.198,0.702
		c0.108,0.117,0.261,0.179,0.45,0.179c0.145,0,0.271-0.039,0.359-0.102c0.1-0.07,0.172-0.163,0.217-0.288
		c0.054-0.125,0.072-0.288,0.072-0.491c0-0.171-0.011-0.304-0.045-0.405c-0.027-0.101-0.072-0.187-0.117-0.257l-0.207-0.164
		C23.749,14.365,23.659,14.342,23.552,14.342"/>
	<path fill="#999999" d="M25.108,14.342c-0.188,0-0.333,0.046-0.449,0.132c-0.107,0.078-0.172,0.203-0.188,0.366l0.243,0.023
		c0.009-0.108,0.045-0.194,0.107-0.258c0.071-0.054,0.172-0.085,0.287-0.085c0.108,0,0.198,0.023,0.271,0.085
		c0.063,0.056,0.099,0.125,0.099,0.21c0,0.078-0.036,0.164-0.106,0.257c-0.082,0.087-0.227,0.211-0.441,0.359
		c-0.145,0.102-0.243,0.188-0.314,0.265l-0.162,0.227l-0.035,0.147h1.322v-0.201h-0.98l0.107-0.118
		c0.035-0.039,0.135-0.109,0.278-0.218c0.171-0.125,0.297-0.227,0.378-0.297l0.162-0.21l0.045-0.211c0-0.132-0.054-0.24-0.162-0.335
		C25.45,14.388,25.307,14.342,25.108,14.342"/>
	<path fill="#999999" d="M8.44,14.388l-0.243,0.125v0.313h-0.18v0.163h0.18v0.718c0,0.125,0.009,0.21,0.027,0.25l0.108,0.094
		l0.207,0.039l0.18-0.017l-0.036-0.187l-0.108,0.008l-0.081-0.015L8.45,15.84L8.44,15.723V14.99h0.243v-0.163H8.44V14.388"/>
	<polyline fill="#999999" points="9.935,14.349 9.691,14.349 9.691,16.072 9.935,16.072 9.935,14.349 	"/>
	<path fill="#999999" d="M1.627,14.708c-0.306,0-0.558,0.218-0.558,0.49c0,0.267,0.252,0.483,0.558,0.483
		c0.315,0,0.567-0.218,0.567-0.483C2.194,14.926,1.942,14.708,1.627,14.708"/>
</g>
</svg>
