<?xml version="1.0" encoding="utf-8"?>
<!-- Generator: Adobe Illustrator 15.1.0, SVG Export Plug-In . SVG Version: 6.00 Build 0)  -->
<!DOCTYPE svg PUBLIC "-//W3C//DTD SVG 1.1//EN" "http://www.w3.org/Graphics/SVG/1.1/DTD/svg11.dtd">
<svg version="1.1" id="Ebene_1" xmlns:svg="http://www.w3.org/2000/svg"
	 xmlns="http://www.w3.org/2000/svg" xmlns:xlink="http://www.w3.org/1999/xlink" x="0px" y="0px" width="33.345px"
	 height="211.597px" viewBox="0 -48.677 33.345 211.597" enable-background="new 0 -48.677 33.345 211.597" xml:space="preserve">
<path fill="none" stroke="#6B6B6B" stroke-miterlimit="10" d="M23.97-46.307c0,5.833-20.871,4.887-20.871,19.319
	c0,28.568,13.945-3.996,13.945,52.15"/>
<g id="silkscreen">
</g>
<g>
	<ellipse fill="#262626" cx="16.658" cy="28.693" rx="8.491" ry="3.321"/>
	<ellipse fill="#B3B3B3" cx="16.658" cy="160.91" rx="3.702" ry="2.01"/>
	<rect x="12.956" y="127.963" fill="#B3B3B3" width="7.403" height="32.946"/>
	<rect x="31.348" y="88.309" fill="#FFC11F" width="1.997" height="36.192"/>
	<rect x="-0.03" y="88.309" fill="#FFC11F" width="1.997" height="36.192"/>
	<g>
		<g>
			<rect x="0" y="-48.677" fill="#6B6B6B" width="4.74" height="4.741"/>
			<rect x="21.6" y="-48.677" fill="#6B6B6B" width="4.74" height="4.741"/>
			<path fill="none" stroke="#3A3A3A" stroke-width="2.5" stroke-miterlimit="10" d="M3.099-26.988
				c0,30.404,13.945-3.996,13.945,52.15"/>
		</g>
		<g>
			<polygon fill="#262626" points="22.004,22.558 22.004,13.443 11.313,13.443 11.313,22.568 8.167,28.858 8.167,54.55 
				25.149,54.55 25.149,28.858 			"/>
			
				<polyline opacity="0.1" fill="none" stroke="#FFFFFF" stroke-width="1.1598" stroke-miterlimit="10" enable-background="new    " points="
				12.763,54.479 12.763,29.558 15.93,23.257 15.93,16.244 			"/>
		</g>
	</g>
	<ellipse fill="#CCCCCC" cx="16.658" cy="127.963" rx="13.266" ry="5.188"/>
	<ellipse fill="#CCCCCC" cx="16.658" cy="144.559" rx="13.266" ry="5.189"/>
	<rect x="3.393" y="127.963" fill="#CCCCCC" width="26.531" height="16.596"/>
	<g>
		<rect x="4.627" y="56.158" fill="#FFCE4E" width="24.063" height="21.68"/>
		<rect x="0.968" y="100.437" fill="#FFCE4E" width="31.38" height="27.526"/>
		<path fill="#FFCE4E" d="M4.627,64.427v3.538c0,5.431-0.822,9.872-1.829,9.872c-1.008,0-1.83,4.441-1.83,9.872v30.382
			c0,5.43,4.442,9.872,9.872,9.872h11.636c5.431,0,9.872-4.442,9.872-9.872V87.709c0-5.431-0.823-9.872-1.83-9.872
			c-1.005,0-1.828-4.441-1.828-9.872v-3.538"/>
	</g>
	<ellipse fill="#FFCE4E" cx="16.658" cy="127.963" rx="15.69" ry="6.139"/>
	<ellipse fill="#FFCE4E" cx="16.658" cy="56.158" rx="12.031" ry="4.708"/>
	<ellipse fill="#FFCE4E" cx="16.658" cy="79.578" rx="14.689" ry="5.748"/>
	<g opacity="0.2">
		<g>
			<path fill="#333333" d="M28.69,65.612c0-2.598-5.387-4.707-12.031-4.707S4.627,63.014,4.627,65.612v-0.427
				c0-2.598,5.387-4.706,12.031-4.706s12.031,2.108,12.031,4.706V65.612z"/>
		</g>
		<g>
			<path fill="#333333" d="M28.69,64.612c0-2.598-5.387-4.707-12.031-4.707S4.627,62.014,4.627,64.612v-0.427
				c0-2.598,5.387-4.706,12.031-4.706s12.031,2.108,12.031,4.706V64.612z"/>
		</g>
		<g>
			<path fill="#333333" d="M28.69,63.612c0-2.598-5.387-4.707-12.031-4.707S4.627,61.014,4.627,63.612v-0.427
				c0-2.598,5.387-4.706,12.031-4.706s12.031,2.108,12.031,4.706V63.612z"/>
		</g>
		<g>
			<path fill="#333333" d="M28.69,62.612c0-2.598-5.387-4.707-12.031-4.707S4.627,60.014,4.627,62.612v-0.427
				c0-2.598,5.387-4.706,12.031-4.706s12.031,2.108,12.031,4.706V62.612z"/>
		</g>
		<g>
			<path fill="#333333" d="M28.69,61.612c0-2.598-5.387-4.707-12.031-4.707S4.627,59.014,4.627,61.612v-0.427
				c0-2.598,5.387-4.706,12.031-4.706s12.031,2.108,12.031,4.706V61.612z"/>
		</g>
		<g>
			<path fill="#333333" d="M28.69,60.612c0-2.598-5.387-4.707-12.031-4.707S4.627,58.014,4.627,60.612v-0.427
				c0-2.598,5.387-4.706,12.031-4.706s12.031,2.108,12.031,4.706V60.612z"/>
		</g>
		<g>
			<path fill="#333333" d="M28.69,59.612c0-2.598-5.387-4.707-12.031-4.707S4.627,57.014,4.627,59.612v-0.427
				c0-2.598,5.387-4.706,12.031-4.706s12.031,2.108,12.031,4.706V59.612z"/>
		</g>
	</g>
	<ellipse fill="#262626" cx="16.658" cy="13.443" rx="5.346" ry="2.091"/>
	<path fill="#FFC11F" d="M23.575,116.924c0,4.074-3.114,7.404-6.917,7.404c-3.806,0-6.919-3.33-6.919-7.404V95.713
		c0-4.073,3.113-7.404,6.919-7.404c3.803,0,6.917,3.331,6.917,7.404V116.924z"/>
	<path fill="#FFC11F" d="M9.74,118.123c0,4.073,3.113,7.403,6.919,7.403c3.803,0,6.917-3.33,6.917-7.403v-1.198
		c0,4.074-3.114,7.404-6.917,7.404c-3.806,0-6.919-3.33-6.919-7.404V118.123z"/>
	<g opacity="0.49">
		<polygon fill="none" points="9.691,104.055 9.739,104.103 9.739,104.006 		"/>
		<polygon fill="none" points="9.691,102.204 9.739,102.252 9.739,102.155 		"/>
		<polygon fill="none" points="9.691,107.756 9.739,107.805 9.739,107.708 		"/>
		<polygon fill="none" points="9.691,105.905 9.739,105.954 9.739,105.858 		"/>
		<path fill="none" d="M9.691,94.799l0.123,0.124c0.009-0.09,0.015-0.182,0.025-0.272L9.691,94.799z"/>
		<polygon fill="none" points="9.691,100.352 9.739,100.401 9.739,100.305 		"/>
		<polygon fill="none" points="9.691,98.502 9.739,98.55 9.739,98.454 		"/>
		<polygon fill="none" points="9.691,96.651 9.739,96.699 9.739,96.602 		"/>
		<path fill="none" d="M10.616,121.639l0.489,0.486l0.363-0.364c-0.147-0.178-0.295-0.356-0.424-0.549L10.616,121.639z"/>
		<path fill="none" d="M12.467,123.49l0.489,0.486l0.487-0.486l-0.129-0.128c-0.149-0.089-0.311-0.163-0.453-0.265L12.467,123.49z"
			/>
		<path fill="none" d="M9.691,118.862l0.451,0.452c-0.073-0.232-0.15-0.459-0.203-0.699L9.691,118.862z"/>
		<path fill="none" d="M9.691,117.012l0.063,0.062c-0.001-0.038-0.011-0.074-0.011-0.112L9.691,117.012z"/>
		<polygon fill="none" points="9.691,111.458 9.739,111.506 9.739,111.411 		"/>
		<polygon fill="none" points="9.691,109.608 9.739,109.656 9.739,109.559 		"/>
		<polygon fill="none" points="9.691,113.309 9.739,113.358 9.739,113.261 		"/>
		<polygon fill="none" points="9.691,115.161 9.739,115.209 9.739,115.112 		"/>
		<polygon fill="none" points="23.623,107.756 23.575,107.708 23.575,107.805 		"/>
		<polygon fill="none" points="23.623,109.608 23.575,109.559 23.575,109.656 		"/>
		<polygon fill="none" points="23.623,105.905 23.575,105.858 23.575,105.954 		"/>
		<path fill="none" d="M23.623,117.012l-0.05-0.051c-0.003,0.038-0.013,0.074-0.013,0.112L23.623,117.012z"/>
		<path fill="none" d="M23.623,118.862l-0.248-0.247c-0.053,0.24-0.131,0.469-0.205,0.701L23.623,118.862z"/>
		<polygon fill="none" points="23.623,104.055 23.575,104.006 23.575,104.103 		"/>
		<polygon fill="none" points="23.623,115.161 23.575,115.112 23.575,115.209 		"/>
		<polygon fill="none" points="23.623,113.309 23.575,113.261 23.575,113.358 		"/>
		<polygon fill="none" points="23.623,102.204 23.575,102.155 23.575,102.252 		"/>
		<path fill="none" d="M23.623,92.949l-0.486-0.487l-0.198,0.198c0.099,0.233,0.174,0.479,0.251,0.723L23.623,92.949z"/>
		<path fill="none" d="M22.698,92.023l-0.169-0.169c0.042,0.073,0.075,0.149,0.114,0.226L22.698,92.023z"/>
		<path fill="none" d="M19.435,88.76l-0.124,0.123c0.201,0.089,0.382,0.215,0.569,0.322L19.435,88.76z"/>
		<path fill="none" d="M13.882,88.76l-0.451,0.448c0.191-0.11,0.372-0.236,0.574-0.325L13.882,88.76z"/>
		<path fill="none" d="M23.623,94.799l-0.149-0.148c0.013,0.089,0.017,0.183,0.026,0.272L23.623,94.799z"/>
		<polygon fill="none" points="23.623,100.352 23.575,100.305 23.575,100.401 		"/>
		<path fill="none" d="M10.616,92.023l0.055,0.057c0.038-0.076,0.072-0.152,0.113-0.226L10.616,92.023z"/>
		<polygon fill="none" points="23.623,98.502 23.575,98.454 23.575,98.55 		"/>
		<polygon fill="none" points="23.623,96.651 23.575,96.602 23.575,96.699 		"/>
		<polygon fill="none" points="23.623,111.458 23.575,111.411 23.575,111.506 		"/>
		
			<rect x="9.835" y="120.368" transform="matrix(0.7085 -0.7057 0.7057 0.7085 -82.2188 42.3693)" fill="none" width="0.691" height="0.69"/>
		
			<rect x="22.793" y="90.754" transform="matrix(-0.7064 0.7078 -0.7078 -0.7064 103.9615 139.0729)" fill="none" width="0.688" height="0.688"/>
		<polygon fill="none" points="9.739,108.679 9.739,108.685 9.741,108.682 		"/>
		<polygon fill="none" points="22.65,115.161 23.137,115.647 23.575,115.209 23.575,115.112 23.137,114.673 		"/>
		
			<rect x="11.686" y="98.157" transform="matrix(-0.7078 0.7064 -0.7064 -0.7078 90.1274 159.7249)" fill="none" width="0.688" height="0.689"/>
		<polygon fill="none" points="22.65,113.309 23.137,113.796 23.575,113.358 23.575,113.261 23.137,112.823 		"/>
		
			<rect x="11.686" y="100.008" transform="matrix(-0.7071 0.7071 -0.7071 -0.7071 91.4973 162.8056)" fill="none" width="0.689" height="0.688"/>
		
			<rect x="11.686" y="101.859" transform="matrix(-0.7071 0.7071 -0.7071 -0.7071 92.8062 165.9656)" fill="none" width="0.689" height="0.689"/>
		<path fill="none" d="M22.65,118.862l0.487,0.487l0.033-0.033c0.074-0.232,0.152-0.461,0.205-0.701l-0.238-0.238L22.65,118.862z"/>
		
			<rect x="11.686" y="103.71" transform="matrix(-0.7078 0.7064 -0.7064 -0.7078 94.0498 169.2079)" fill="none" width="0.688" height="0.689"/>
		<polygon fill="none" points="22.65,102.204 23.137,102.691 23.575,102.252 23.575,102.155 23.137,101.716 		"/>
		<polygon fill="none" points="22.65,104.055 23.137,104.542 23.575,104.103 23.575,104.006 23.137,103.568 		"/>
		<polygon fill="none" points="22.65,105.905 23.137,106.392 23.575,105.954 23.575,105.858 23.137,105.419 		"/>
		<polygon fill="none" points="22.65,109.608 23.137,110.094 23.575,109.656 23.575,109.559 23.137,109.121 		"/>
		<polygon fill="none" points="22.65,107.756 23.137,108.244 23.575,107.805 23.575,107.708 23.137,107.27 		"/>
		<polygon fill="none" points="22.65,111.458 23.137,111.946 23.575,111.506 23.575,111.411 23.137,110.972 		"/>
		
			<rect x="17.239" y="120.369" transform="matrix(0.7071 0.7071 -0.7071 0.7071 90.5073 22.9229)" fill="none" width="0.689" height="0.689"/>
		
			<rect x="14.462" y="121.294" transform="matrix(0.7078 0.7064 -0.7064 0.7078 90.2516 25.0822)" fill="none" width="0.688" height="0.69"/>
		
			<rect x="13.536" y="120.368" transform="matrix(0.7064 0.7078 -0.7078 0.7064 89.5182 25.6169)" fill="none" width="0.688" height="0.691"/>
		
			<rect x="12.611" y="119.443" transform="matrix(0.7071 0.7071 -0.7071 0.7071 88.4978 25.9245)" fill="none" width="0.689" height="0.691"/>
		<polygon fill="none" points="22.65,100.352 23.137,100.839 23.575,100.401 23.575,100.305 23.137,99.866 		"/>
		
			<rect x="11.686" y="118.519" transform="matrix(-0.7071 0.7071 -0.7071 -0.7071 104.5861 194.4046)" fill="none" width="0.689" height="0.688"/>
		
			<rect x="11.686" y="105.562" transform="matrix(-0.7071 0.7071 -0.7071 -0.7071 95.4241 172.2856)" fill="none" width="0.689" height="0.688"/>
		
			<rect x="16.314" y="121.295" transform="matrix(0.7071 0.7071 -0.7071 0.7071 90.8909 23.8483)" fill="none" width="0.688" height="0.688"/>
		
			<rect x="15.387" y="120.368" transform="matrix(0.7071 0.7071 -0.7071 0.7071 89.965 24.2321)" fill="none" width="0.689" height="0.691"/>
		
			<rect x="11.686" y="109.263" transform="matrix(-0.7078 0.7064 -0.7064 -0.7078 97.9723 178.6909)" fill="none" width="0.688" height="0.689"/>
		
			<rect x="11.686" y="107.413" transform="matrix(-0.7071 0.7071 -0.7071 -0.7071 96.733 175.4456)" fill="none" width="0.689" height="0.688"/>
		
			<rect x="11.686" y="111.115" transform="matrix(-0.7071 0.7071 -0.7071 -0.7071 99.3508 181.7655)" fill="none" width="0.689" height="0.688"/>
		
			<rect x="11.686" y="112.965" transform="matrix(-0.7071 0.7071 -0.7071 -0.7071 100.6593 184.9247)" fill="none" width="0.689" height="0.688"/>
		
			<rect x="11.686" y="114.816" transform="matrix(-0.7078 0.7064 -0.7064 -0.7078 101.8947 188.174)" fill="none" width="0.688" height="0.689"/>
		
			<rect x="11.686" y="116.667" transform="matrix(-0.7078 0.7064 -0.7064 -0.7078 103.2027 191.3361)" fill="none" width="0.688" height="0.689"/>
		<path fill="none" d="M10.666,92.949l-0.29-0.289c-0.1,0.231-0.173,0.478-0.251,0.723l0.055,0.053L10.666,92.949z"/>
		<polygon fill="none" points="9.739,99.425 9.739,99.429 9.741,99.427 		"/>
		<polygon fill="none" points="9.739,95.723 9.739,95.728 9.741,95.725 		"/>
		<polygon fill="none" points="9.739,101.276 9.739,101.281 9.741,101.279 		"/>
		<polygon fill="none" points="10.666,98.502 10.18,98.015 9.739,98.454 9.739,98.55 10.18,98.989 		"/>
		<polygon fill="none" points="10.666,102.204 10.18,101.716 9.739,102.155 9.739,102.252 10.18,102.691 		"/>
		<polygon fill="none" points="10.666,96.651 10.18,96.164 9.739,96.602 9.739,96.699 10.18,97.138 		"/>
		<polygon fill="none" points="9.739,97.574 9.739,97.58 9.741,97.576 		"/>
		<polygon fill="none" points="10.666,100.352 10.18,99.866 9.739,100.305 9.739,100.401 10.18,100.839 		"/>
		<polygon fill="none" points="9.739,106.829 9.739,106.833 9.741,106.832 		"/>
		<polygon fill="none" points="10.666,105.905 10.18,105.419 9.739,105.858 9.739,105.954 10.18,106.392 		"/>
		<polygon fill="none" points="10.666,107.756 10.18,107.27 9.739,107.708 9.739,107.805 10.18,108.244 		"/>
		<polygon fill="none" points="9.739,103.126 9.739,103.132 9.741,103.128 		"/>
		<polygon fill="none" points="10.666,104.055 10.18,103.568 9.739,104.006 9.739,104.103 10.18,104.542 		"/>
		<polygon fill="none" points="22.65,98.502 23.137,98.989 23.575,98.55 23.575,98.454 23.137,98.015 		"/>
		<polygon fill="none" points="9.739,104.978 9.739,104.982 9.741,104.98 		"/>
		<path fill="none" d="M23.137,93.435l0.053-0.053c-0.077-0.243-0.152-0.489-0.251-0.723l-0.289,0.289L23.137,93.435z"/>
		<path fill="none" d="M21.724,92.023l0.487,0.487l0.432-0.431c-0.039-0.076-0.072-0.152-0.114-0.226l-0.317-0.317L21.724,92.023z"
			/>
		<path fill="none" d="M19.435,89.734l0.486-0.487l-0.041-0.041c-0.188-0.107-0.368-0.233-0.569-0.322l-0.363,0.363L19.435,89.734z"
			/>
		<polygon fill="none" points="22.65,96.651 23.137,97.138 23.575,96.699 23.575,96.602 23.137,96.164 		"/>
		<path fill="none" d="M22.65,94.799l0.487,0.487l0.363-0.363c-0.01-0.09-0.014-0.184-0.026-0.272l-0.337-0.338L22.65,94.799z"/>
		<path fill="none" d="M18.654,88.664c-0.145-0.049-0.284-0.108-0.437-0.147l0.292,0.293L18.654,88.664z"/>
		<path fill="none" d="M15.099,88.516c-0.151,0.039-0.292,0.099-0.438,0.147l0.146,0.146L15.099,88.516z"/>
		<path fill="none" d="M13.882,89.734l0.486-0.487l-0.363-0.363c-0.202,0.089-0.383,0.215-0.574,0.325l-0.038,0.038L13.882,89.734z"
			/>
		<path fill="none" d="M11.592,92.023l-0.486-0.486l-0.321,0.317c-0.041,0.073-0.075,0.149-0.113,0.226l0.435,0.431L11.592,92.023z"
			/>
		
			<rect x="18.165" y="121.295" transform="matrix(0.7078 0.7064 -0.7064 0.7078 91.3338 22.466)" fill="none" width="0.688" height="0.688"/>
		<path fill="none" d="M10.666,94.799l-0.486-0.486l-0.341,0.338c-0.011,0.091-0.017,0.183-0.025,0.272l0.366,0.363L10.666,94.799z"
			/>
		
			<rect x="11.686" y="96.306" transform="matrix(-0.7071 0.7071 -0.7071 -0.7071 88.8799 156.4865)" fill="none" width="0.689" height="0.689"/>
		<path fill="none" d="M17.108,88.358c-0.15-0.011-0.295-0.049-0.449-0.049s-0.299,0.038-0.45,0.049l0.45,0.451L17.108,88.358z"/>
		<path fill="none" d="M22.65,117.012l0.487,0.486l0.424-0.425c0-0.038,0.01-0.074,0.013-0.112l-0.437-0.437L22.65,117.012z"/>
		
			<rect x="10.76" y="104.635" transform="matrix(0.7064 0.7078 -0.7078 0.7064 77.5667 22.9627)" fill="none" width="0.688" height="0.691"/>
		
			<rect x="10.76" y="106.486" transform="matrix(0.7064 0.7078 -0.7078 0.7064 78.8773 23.5063)" fill="none" width="0.688" height="0.691"/>
		
			<rect x="10.76" y="110.188" transform="matrix(0.7071 0.7071 -0.7071 0.7071 81.4108 24.5224)" fill="none" width="0.688" height="0.69"/>
		
			<rect x="11.684" y="94.455" transform="matrix(-0.7085 -0.7057 0.7057 -0.7085 -46.3463 170.4556)" fill="none" width="0.691" height="0.689"/>
		
			<rect x="10.76" y="115.741" transform="matrix(0.7071 0.7071 -0.7071 0.7071 85.3372 26.1488)" fill="none" width="0.688" height="0.69"/>
		
			<rect x="10.76" y="113.89" transform="matrix(0.7071 0.7071 -0.7071 0.7071 84.0286 25.6067)" fill="none" width="0.688" height="0.69"/>
		
			<rect x="10.76" y="112.039" transform="matrix(0.7064 0.7078 -0.7078 0.7064 82.8076 25.1366)" fill="none" width="0.688" height="0.691"/>
		
			<rect x="10.76" y="117.592" transform="matrix(0.7064 0.7078 -0.7078 0.7064 86.7379 26.7669)" fill="none" width="0.688" height="0.691"/>
		
			<rect x="10.76" y="95.38" transform="matrix(0.7071 0.7071 -0.7071 0.7071 70.9402 20.1853)" fill="none" width="0.688" height="0.69"/>
		
			<rect x="10.76" y="97.231" transform="matrix(0.7071 0.7071 -0.7071 0.7071 72.2488 20.7274)" fill="none" width="0.688" height="0.69"/>
		
			<rect x="10.76" y="102.783" transform="matrix(0.7071 0.7071 -0.7071 0.7071 76.1752 22.3537)" fill="none" width="0.688" height="0.69"/>
		
			<rect x="10.76" y="93.529" transform="matrix(0.7064 0.7078 -0.7078 0.7064 69.7061 19.7021)" fill="none" width="0.688" height="0.691"/>
		
			<rect x="10.76" y="100.934" transform="matrix(0.7064 0.7078 -0.7078 0.7064 74.947 21.876)" fill="none" width="0.688" height="0.691"/>
		
			<rect x="10.76" y="99.082" transform="matrix(0.7064 0.7078 -0.7078 0.7064 73.6364 21.3324)" fill="none" width="0.688" height="0.691"/>
		
			<rect x="14.461" y="123.146" transform="matrix(-0.7092 -0.705 0.705 -0.7092 -61.7512 221.5099)" fill="none" width="0.69" height="0.688"/>
		
			<rect x="19.09" y="122.221" transform="matrix(-0.7078 -0.7064 0.7064 -0.7078 -53.3893 223.0467)" fill="none" width="0.688" height="0.688"/>
		
			<rect x="20.015" y="121.295" transform="matrix(-0.7078 -0.7064 0.7064 -0.7078 -51.1551 222.1192)" fill="none" width="0.688" height="0.688"/>
		
			<rect x="18.166" y="123.146" transform="matrix(-0.7071 -0.7071 0.7071 -0.7071 -55.7227 223.8984)" fill="none" width="0.688" height="0.688"/>
		
			<rect x="10.76" y="119.443" transform="matrix(0.7085 -0.7057 0.7057 0.7085 -81.2963 42.7531)" fill="none" width="0.691" height="0.69"/>
		
			<rect x="17.239" y="122.22" transform="matrix(0.7071 -0.7071 0.7071 0.7071 -81.5161 48.3315)" fill="none" width="0.689" height="0.688"/>
		<path fill="none" d="M22.211,121.153l-0.487,0.486l0.123,0.122c0.145-0.18,0.295-0.356,0.424-0.549L22.211,121.153z"/>
		
			<rect x="20.941" y="120.369" transform="matrix(0.7064 -0.7078 0.7078 0.7064 -79.193 50.5078)" fill="none" width="0.688" height="0.688"/>
		
			<rect x="12.611" y="121.294" transform="matrix(0.7092 -0.705 0.705 0.7092 -81.9859 44.5033)" fill="none" width="0.69" height="0.69"/>
		
			<rect x="13.537" y="122.22" transform="matrix(0.7085 -0.7057 0.7057 0.7085 -82.4463 45.5216)" fill="none" width="0.691" height="0.69"/>
		
			<rect x="16.314" y="123.146" transform="matrix(-0.7078 -0.7064 0.7064 -0.7078 -58.7841 222.6649)" fill="none" width="0.688" height="0.688"/>
		
			<rect x="11.685" y="120.368" transform="matrix(0.7085 -0.7057 0.7057 0.7085 -81.6794 43.6753)" fill="none" width="0.691" height="0.69"/>
		
			<rect x="15.387" y="122.22" transform="matrix(0.7085 -0.7057 0.7057 0.7085 -81.9069 46.8275)" fill="none" width="0.691" height="0.69"/>
		
			<rect x="11.685" y="92.603" transform="matrix(0.7071 0.7071 -0.7071 0.7071 69.248 18.7179)" fill="none" width="0.689" height="0.691"/>
		
			<rect x="18.165" y="89.827" transform="matrix(-0.7078 0.7064 -0.7064 -0.7078 95.3072 140.9222)" fill="none" width="0.688" height="0.689"/>
		
			<rect x="21.866" y="106.488" transform="matrix(-0.7078 -0.7064 0.7064 -0.7078 -37.5337 198.1382)" fill="none" width="0.688" height="0.688"/>
		
			<rect x="21.866" y="108.338" transform="matrix(-0.7078 -0.7064 0.7064 -0.7078 -38.841 201.2986)" fill="none" width="0.688" height="0.688"/>
		
			<rect x="21.866" y="104.636" transform="matrix(-0.7071 -0.7071 0.7071 -0.7071 -36.316 194.9174)" fill="none" width="0.689" height="0.688"/>
		
			<rect x="21.866" y="100.935" transform="matrix(-0.7078 -0.7064 0.7064 -0.7078 -33.6113 188.6551)" fill="none" width="0.688" height="0.688"/>
		
			<rect x="21.866" y="102.784" transform="matrix(-0.7071 -0.7071 0.7071 -0.7071 -35.0068 191.7566)" fill="none" width="0.689" height="0.688"/>
		
			<rect x="21.866" y="99.083" transform="matrix(-0.7071 -0.7071 0.7071 -0.7071 -32.3897 185.4383)" fill="none" width="0.689" height="0.688"/>
		
			<rect x="21.866" y="97.231" transform="matrix(-0.7071 -0.7071 0.7071 -0.7071 -31.0804 182.2774)" fill="none" width="0.689" height="0.688"/>
		
			<rect x="21.866" y="110.188" transform="matrix(-0.7071 -0.7071 0.7071 -0.7071 -40.2424 204.3965)" fill="none" width="0.689" height="0.688"/>
		
			<rect x="21.866" y="117.593" transform="matrix(-0.7078 -0.7064 0.7064 -0.7078 -45.3786 217.1042)" fill="none" width="0.688" height="0.688"/>
		
			<rect x="20.942" y="118.518" transform="matrix(0.7085 0.7057 -0.7057 0.7085 90.0834 19.6241)" fill="none" width="0.688" height="0.687"/>
		
			<rect x="20.015" y="119.444" transform="matrix(0.7071 0.7071 -0.7071 0.7071 90.6665 20.6888)" fill="none" width="0.689" height="0.689"/>
		
			<rect x="21.866" y="113.891" transform="matrix(-0.7071 -0.7071 0.7071 -0.7071 -42.8602 210.7164)" fill="none" width="0.689" height="0.688"/>
		
			<rect x="21.866" y="115.741" transform="matrix(-0.7071 -0.7071 0.7071 -0.7071 -44.1688 213.8756)" fill="none" width="0.689" height="0.688"/>
		
			<rect x="21.866" y="112.04" transform="matrix(-0.7078 -0.7064 0.7064 -0.7078 -41.4562 207.6212)" fill="none" width="0.688" height="0.688"/>
		
			<rect x="12.611" y="89.827" transform="matrix(0.7071 0.7071 -0.7071 0.7071 67.556 17.2501)" fill="none" width="0.689" height="0.691"/>
		
			<rect x="14.461" y="89.827" transform="matrix(0.7071 0.7071 -0.7071 0.7071 68.098 15.9415)" fill="none" width="0.689" height="0.691"/>
		
			<rect x="17.239" y="88.902" transform="matrix(0.7078 0.7064 -0.7064 0.7078 68.1811 13.6557)" fill="none" width="0.688" height="0.688"/>
		
			<rect x="16.315" y="89.828" transform="matrix(-0.7071 0.7071 -0.7071 -0.7071 92.1989 142.1537)" fill="none" width="0.688" height="0.688"/>
		
			<rect x="15.387" y="88.902" transform="matrix(0.7078 0.7064 -0.7064 0.7078 67.6401 14.9636)" fill="none" width="0.688" height="0.69"/>
		
			<rect x="13.538" y="90.754" transform="matrix(-0.7064 0.7078 -0.7078 -0.7064 88.169 145.6237)" fill="none" width="0.688" height="0.688"/>
		
			<rect x="11.685" y="90.753" transform="matrix(0.7071 0.7071 -0.7071 0.7071 67.9395 18.1759)" fill="none" width="0.689" height="0.691"/>
		
			<rect x="21.866" y="95.381" transform="matrix(-0.7078 -0.7064 0.7064 -0.7078 -29.6882 179.1704)" fill="none" width="0.688" height="0.688"/>
		
			<rect x="20.942" y="92.604" transform="matrix(-0.7071 -0.7071 0.7071 -0.7071 -29.3874 173.7248)" fill="none" width="0.688" height="0.688"/>
		
			<rect x="21.867" y="93.53" transform="matrix(-0.7064 0.7078 -0.7078 -0.7064 104.3469 144.4658)" fill="none" width="0.688" height="0.688"/>
		
			<rect x="20.941" y="90.754" transform="matrix(-0.7071 0.7071 -0.7071 -0.7071 100.7526 140.4632)" fill="none" width="0.689" height="0.689"/>
		
			<rect x="19.091" y="90.754" transform="matrix(-0.7064 0.7078 -0.7078 -0.7064 97.6442 141.6934)" fill="none" width="0.688" height="0.688"/>
		
			<rect x="19.09" y="120.369" transform="matrix(0.7064 0.7078 -0.7078 0.7064 91.1488 21.6859)" fill="none" width="0.688" height="0.689"/>
		
			<rect x="20.015" y="89.828" transform="matrix(0.7071 0.7071 -0.7071 0.7071 69.7247 12.0145)" fill="none" width="0.689" height="0.689"/>
		
			<rect x="10.76" y="108.337" transform="matrix(0.7071 0.7071 -0.7071 0.7071 80.1022 23.9804)" fill="none" width="0.688" height="0.69"/>
		
			<rect x="20.015" y="102.784" transform="matrix(0.7078 -0.7064 0.7064 0.7078 -66.9012 44.5146)" fill="none" width="0.688" height="0.689"/>
		
			<rect x="20.015" y="106.487" transform="matrix(0.7071 -0.7071 0.7071 0.7071 -69.5778 45.6865)" fill="none" width="0.689" height="0.688"/>
		
			<rect x="20.015" y="104.635" transform="matrix(0.7071 -0.7071 0.7071 0.7071 -68.2689 45.1444)" fill="none" width="0.689" height="0.689"/>
		
			<rect x="20.015" y="100.934" transform="matrix(0.7071 -0.7071 0.7071 0.7071 -65.6514 44.0602)" fill="none" width="0.689" height="0.688"/>
		
			<rect x="20.015" y="99.083" transform="matrix(0.7071 -0.7071 0.7071 0.7071 -64.3425 43.518)" fill="none" width="0.689" height="0.689"/>
		
			<rect x="20.015" y="113.891" transform="matrix(0.7078 -0.7064 0.7064 0.7078 -74.7468 47.7598)" fill="none" width="0.688" height="0.689"/>
		
			<rect x="20.015" y="108.338" transform="matrix(0.7078 -0.7064 0.7064 0.7078 -70.824 46.1372)" fill="none" width="0.688" height="0.688"/>
		
			<rect x="20.015" y="112.04" transform="matrix(0.7071 -0.7071 0.7071 0.7071 -73.5041 47.3129)" fill="none" width="0.689" height="0.688"/>
		
			<rect x="20.015" y="97.232" transform="matrix(0.7078 -0.7064 0.7064 0.7078 -62.9788 42.8922)" fill="none" width="0.688" height="0.689"/>
		
			<rect x="20.015" y="115.741" transform="matrix(0.7078 0.7064 -0.7064 0.7078 87.9512 19.5364)" fill="none" width="0.688" height="0.688"/>
		
			<rect x="20.015" y="110.189" transform="matrix(0.7078 -0.7064 0.7064 0.7078 -72.1316 46.6781)" fill="none" width="0.688" height="0.689"/>
		
			<rect x="15.387" y="92.604" transform="matrix(-0.7092 -0.705 0.705 -0.7092 -38.638 169.961)" fill="none" width="0.69" height="0.688"/>
		
			<rect x="13.535" y="94.455" transform="matrix(-0.7085 -0.7057 0.7057 -0.7085 -43.1837 171.7619)" fill="none" width="0.691" height="0.688"/>
		
			<rect x="12.612" y="99.083" transform="matrix(-0.7071 0.7071 -0.7071 -0.7071 92.4235 160.5714)" fill="none" width="0.689" height="0.689"/>
		
			<rect x="12.612" y="97.232" transform="matrix(-0.7071 0.7071 -0.7071 -0.7071 91.1146 157.4115)" fill="none" width="0.689" height="0.688"/>
		
			<rect x="12.61" y="95.381" transform="matrix(-0.7092 -0.705 0.705 -0.7092 -45.3407 172.7492)" fill="none" width="0.69" height="0.688"/>
		
			<rect x="16.313" y="93.53" transform="matrix(-0.7071 -0.7071 0.7071 -0.7071 -37.9424 172.0328)" fill="none" width="0.689" height="0.688"/>
		
			<rect x="19.09" y="94.455" transform="matrix(-0.7071 -0.7071 0.7071 -0.7071 -33.8568 175.5747)" fill="none" width="0.689" height="0.688"/>
		
			<rect x="18.165" y="93.53" transform="matrix(-0.7064 -0.7078 0.7078 -0.7064 -34.8613 173.2885)" fill="none" width="0.688" height="0.689"/>
		
			<rect x="16.314" y="95.381" transform="matrix(-0.7078 -0.7064 0.7064 -0.7078 -39.1712 175.248)" fill="none" width="0.688" height="0.688"/>
		
			<rect x="17.239" y="92.604" transform="matrix(-0.7078 -0.7064 0.7064 -0.7078 -35.6298 171.1601)" fill="none" width="0.688" height="0.688"/>
		
			<rect x="14.461" y="93.53" transform="matrix(-0.7085 -0.7057 0.7057 -0.7085 -40.9502 170.8348)" fill="none" width="0.691" height="0.689"/>
		
			<rect x="13.538" y="101.859" transform="matrix(-0.7064 0.7078 -0.7078 -0.7064 96.0297 164.574)" fill="none" width="0.688" height="0.688"/>
		
			<rect x="13.538" y="109.263" transform="matrix(-0.7071 0.7071 -0.7071 -0.7071 101.2023 177.2955)" fill="none" width="0.688" height="0.688"/>
		
			<rect x="13.538" y="100.009" transform="matrix(-0.7064 0.7078 -0.7078 -0.7064 94.7194 161.4153)" fill="none" width="0.688" height="0.688"/>
		
			<rect x="13.538" y="107.413" transform="matrix(-0.7064 0.7078 -0.7078 -0.7064 99.9603 174.05)" fill="none" width="0.688" height="0.688"/>
		
			<rect x="13.538" y="105.562" transform="matrix(-0.7064 0.7078 -0.7078 -0.7064 98.6501 170.8913)" fill="none" width="0.688" height="0.687"/>
		
			<rect x="13.538" y="103.71" transform="matrix(-0.7071 0.7071 -0.7071 -0.7071 97.276 167.8163)" fill="none" width="0.688" height="0.688"/>
		
			<rect x="15.386" y="94.455" transform="matrix(-0.7085 -0.7057 0.7057 -0.7085 -40.0211 173.0682)" fill="none" width="0.691" height="0.689"/>
		
			<rect x="13.538" y="98.158" transform="matrix(-0.7071 0.7071 -0.7071 -0.7071 93.3496 158.3372)" fill="none" width="0.688" height="0.688"/>
		
			<rect x="14.461" y="95.381" transform="matrix(-0.7092 -0.705 0.705 -0.7092 -42.1776 174.0538)" fill="none" width="0.69" height="0.688"/>
		
			<rect x="13.535" y="96.307" transform="matrix(-0.7085 -0.7057 0.7057 -0.7085 -44.4904 174.9254)" fill="none" width="0.691" height="0.688"/>
		
			<rect x="14.461" y="117.592" transform="matrix(0.7071 0.7071 -0.7071 0.7071 87.7306 24.0736)" fill="none" width="0.689" height="0.691"/>
		
			<rect x="15.387" y="116.667" transform="matrix(0.7071 0.7071 -0.7071 0.7071 87.3478 23.1481)" fill="none" width="0.689" height="0.691"/>
		
			<rect x="13.538" y="111.115" transform="matrix(-0.7064 0.7078 -0.7078 -0.7064 102.5808 180.3673)" fill="none" width="0.688" height="0.688"/>
		
			<rect x="17.239" y="116.668" transform="matrix(0.7071 0.7071 -0.7071 0.7071 87.8901 21.8388)" fill="none" width="0.689" height="0.689"/>
		
			<rect x="18.165" y="117.593" transform="matrix(0.7071 0.7071 -0.7071 0.7071 88.8154 21.4547)" fill="none" width="0.689" height="0.688"/>
		
			<rect x="16.314" y="117.592" transform="matrix(0.7064 0.7078 -0.7078 0.7064 88.3685 22.8359)" fill="none" width="0.688" height="0.689"/>
		
			<rect x="13.538" y="112.966" transform="matrix(-0.7064 0.7078 -0.7078 -0.7064 103.8906 183.5252)" fill="none" width="0.688" height="0.688"/>
		
			<rect x="13.538" y="114.816" transform="matrix(-0.7071 0.7071 -0.7071 -0.7071 105.1287 186.7746)" fill="none" width="0.688" height="0.688"/>
		
			<rect x="13.538" y="116.667" transform="matrix(-0.7071 0.7071 -0.7071 -0.7071 106.438 189.9354)" fill="none" width="0.688" height="0.688"/>
		
			<rect x="19.09" y="116.668" transform="matrix(0.7064 0.7078 -0.7078 0.7064 88.529 20.5992)" fill="none" width="0.688" height="0.689"/>
		
			<rect x="20.015" y="95.381" transform="matrix(0.7078 -0.7064 0.7064 0.7078 -61.6712 42.3514)" fill="none" width="0.688" height="0.688"/>
		
			<rect x="20.941" y="98.158" transform="matrix(0.7064 -0.7078 0.7078 0.7064 -63.4718 43.9866)" fill="none" width="0.688" height="0.688"/>
		
			<rect x="20.942" y="100.008" transform="matrix(0.7071 -0.7071 0.7071 0.7071 -64.7256 44.4436)" fill="none" width="0.688" height="0.688"/>
		
			<rect x="12.612" y="100.934" transform="matrix(-0.7078 0.7064 -0.7064 -0.7078 93.6697 163.8124)" fill="none" width="0.688" height="0.689"/>
		
			<rect x="20.015" y="93.53" transform="matrix(-0.7071 -0.7071 0.7071 -0.7071 -31.6233 174.6502)" fill="none" width="0.689" height="0.689"/>
		
			<rect x="20.941" y="96.307" transform="matrix(0.7064 -0.7078 0.7078 0.7064 -62.1616 43.4431)" fill="none" width="0.688" height="0.688"/>
		
			<rect x="20.942" y="94.456" transform="matrix(0.7071 -0.7071 0.7071 0.7071 -60.7992 42.8173)" fill="none" width="0.688" height="0.688"/>
		
			<rect x="20.941" y="103.711" transform="matrix(0.7064 -0.7078 0.7078 0.7064 -67.4021 45.6169)" fill="none" width="0.688" height="0.688"/>
		
			<rect x="20.942" y="107.413" transform="matrix(0.7071 -0.7071 0.7071 0.7071 -69.9612 46.6123)" fill="none" width="0.688" height="0.688"/>
		
			<rect x="20.941" y="109.264" transform="matrix(0.7064 -0.7078 0.7078 0.7064 -71.3324 47.2472)" fill="none" width="0.688" height="0.688"/>
		
			<rect x="20.942" y="105.562" transform="matrix(0.7078 -0.7064 0.7064 0.7078 -68.5921 45.9798)" fill="none" width="0.687" height="0.688"/>
		
			<rect x="19.09" y="92.605" transform="matrix(-0.7078 -0.7064 0.7064 -0.7078 -32.4685 172.4677)" fill="none" width="0.688" height="0.688"/>
		
			<rect x="13.536" y="92.605" transform="matrix(-0.7092 -0.705 0.705 -0.7092 -41.8019 168.656)" fill="none" width="0.69" height="0.688"/>
		
			<rect x="15.386" y="90.754" transform="matrix(-0.7085 -0.7057 0.7057 -0.7085 -37.4092 166.7447)" fill="none" width="0.691" height="0.689"/>
		
			<rect x="20.015" y="91.679" transform="matrix(0.7078 -0.7064 0.7064 0.7078 -59.0563 41.2698)" fill="none" width="0.688" height="0.689"/>
		
			<rect x="12.612" y="93.53" transform="matrix(-0.7071 0.7071 -0.7071 -0.7071 88.4971 151.0923)" fill="none" width="0.689" height="0.689"/>
		
			<rect x="12.61" y="91.678" transform="matrix(-0.7085 -0.7057 0.7057 -0.7085 -42.8054 166.3655)" fill="none" width="0.691" height="0.689"/>
		
			<rect x="14.461" y="91.678" transform="matrix(-0.7085 -0.7057 0.7057 -0.7085 -39.6436 167.6714)" fill="none" width="0.691" height="0.689"/>
		
			<rect x="18.165" y="91.678" transform="matrix(-0.7064 -0.7078 0.7078 -0.7064 -33.5507 170.129)" fill="none" width="0.688" height="0.689"/>
		
			<rect x="20.942" y="111.115" transform="matrix(0.7071 -0.7071 0.7071 0.7071 -72.5791 47.6966)" fill="none" width="0.688" height="0.688"/>
		
			<rect x="16.313" y="91.679" transform="matrix(-0.7071 -0.7071 0.7071 -0.7071 -36.6331 168.8719)" fill="none" width="0.689" height="0.688"/>
		
			<rect x="17.239" y="90.754" transform="matrix(-0.7071 -0.7071 0.7071 -0.7071 -34.3996 167.9475)" fill="none" width="0.689" height="0.689"/>
		
			<rect x="20.941" y="101.859" transform="matrix(0.7064 -0.7078 0.7078 0.7064 -66.0919 45.0734)" fill="none" width="0.688" height="0.688"/>
		
			<rect x="12.612" y="113.891" transform="matrix(-0.7071 0.7071 -0.7071 -0.7071 102.8944 185.8505)" fill="none" width="0.689" height="0.688"/>
		
			<rect x="12.612" y="112.039" transform="matrix(-0.7078 0.7064 -0.7064 -0.7078 101.5146 182.7785)" fill="none" width="0.688" height="0.689"/>
		
			<rect x="13.537" y="118.517" transform="matrix(0.7078 0.7064 -0.7064 0.7078 88.0192 24.9242)" fill="none" width="0.687" height="0.689"/>
		
			<rect x="12.612" y="110.189" transform="matrix(-0.7071 0.7071 -0.7071 -0.7071 100.2766 179.5305)" fill="none" width="0.689" height="0.688"/>
		
			<rect x="12.612" y="115.742" transform="matrix(-0.7071 0.7071 -0.7071 -0.7071 104.2029 189.0096)" fill="none" width="0.689" height="0.688"/>
		
			<rect x="20.942" y="112.965" transform="matrix(0.7071 -0.7071 0.7071 0.7071 -73.8876 48.2387)" fill="none" width="0.688" height="0.688"/>
		
			<rect x="12.612" y="102.785" transform="matrix(-0.7071 0.7071 -0.7071 -0.7071 95.0409 166.8906)" fill="none" width="0.689" height="0.688"/>
		
			<rect x="12.612" y="104.635" transform="matrix(-0.7071 0.7071 -0.7071 -0.7071 96.3498 170.0506)" fill="none" width="0.689" height="0.689"/>
		
			<rect x="12.612" y="106.486" transform="matrix(-0.7078 0.7064 -0.7064 -0.7078 97.5921 173.2955)" fill="none" width="0.688" height="0.689"/>
		
			<rect x="12.612" y="108.338" transform="matrix(-0.7078 0.7064 -0.7064 -0.7078 98.8997 176.4568)" fill="none" width="0.688" height="0.688"/>
		
			<rect x="12.612" y="117.592" transform="matrix(-0.7078 0.7064 -0.7064 -0.7078 105.437 192.2616)" fill="none" width="0.688" height="0.689"/>
		
			<rect x="20.015" y="117.592" transform="matrix(0.7071 0.7071 -0.7071 0.7071 89.3573 20.1465)" fill="none" width="0.689" height="0.689"/>
		
			<rect x="19.091" y="118.518" transform="matrix(0.7078 0.7064 -0.7064 0.7078 89.6419 21.0011)" fill="none" width="0.687" height="0.688"/>
		
			<rect x="20.941" y="116.668" transform="matrix(0.7071 0.7071 -0.7071 0.7071 88.9746 19.2207)" fill="none" width="0.689" height="0.688"/>
		
			<rect x="20.941" y="114.816" transform="matrix(0.7064 -0.7078 0.7078 0.7064 -75.2627 48.8775)" fill="none" width="0.688" height="0.688"/>
		
			<rect x="14.461" y="119.443" transform="matrix(0.7071 0.7071 -0.7071 0.7071 89.0399 24.6159)" fill="none" width="0.689" height="0.691"/>
		
			<rect x="16.314" y="119.444" transform="matrix(0.7064 0.7078 -0.7078 0.7064 89.6791 23.3795)" fill="none" width="0.688" height="0.689"/>
		
			<rect x="15.388" y="118.517" transform="matrix(0.7085 0.7057 -0.7057 0.7085 88.4644 23.5436)" fill="none" width="0.688" height="0.689"/>
		
			<rect x="18.165" y="119.444" transform="matrix(0.7071 0.7071 -0.7071 0.7071 90.1246 21.9971)" fill="none" width="0.689" height="0.688"/>
		
			<rect x="17.239" y="118.518" transform="matrix(0.7085 0.7057 -0.7057 0.7085 89.0041 22.237)" fill="none" width="0.688" height="0.688"/>
		
			<rect x="15.388" y="107.413" transform="matrix(-0.7071 0.7071 -0.7071 -0.7071 103.0529 172.8278)" fill="none" width="0.689" height="0.688"/>
		
			<rect x="17.239" y="103.71" transform="matrix(0.7071 -0.7071 0.7071 0.7071 -68.4278 42.9101)" fill="none" width="0.689" height="0.688"/>
		
			<rect x="17.239" y="94.455" transform="matrix(-0.7071 -0.7071 0.7071 -0.7071 -37.0168 174.2658)" fill="none" width="0.689" height="0.689"/>
		
			<rect x="17.239" y="107.412" transform="matrix(0.7078 -0.7064 0.7064 0.7078 -70.9816 43.9056)" fill="none" width="0.688" height="0.689"/>
		
			<rect x="17.239" y="98.158" transform="matrix(0.7071 -0.7071 0.7071 0.7071 -64.5014 41.2838)" fill="none" width="0.689" height="0.688"/>
		
			<rect x="17.239" y="101.859" transform="matrix(0.7071 -0.7071 0.7071 0.7071 -67.1189 42.368)" fill="none" width="0.689" height="0.689"/>
		
			<rect x="17.239" y="100.008" transform="matrix(0.7078 -0.7064 0.7064 0.7078 -65.7512 41.7422)" fill="none" width="0.688" height="0.689"/>
		
			<rect x="16.314" y="110.189" transform="matrix(-0.7064 0.7078 -0.7078 -0.7064 106.6631 176.8224)" fill="none" width="0.688" height="0.688"/>
		
			<rect x="16.315" y="112.04" transform="matrix(-0.7071 0.7071 -0.7071 -0.7071 107.9051 180.0718)" fill="none" width="0.688" height="0.688"/>
		
			<rect x="17.239" y="111.114" transform="matrix(0.7078 0.7064 -0.7064 0.7078 83.8715 20.1457)" fill="none" width="0.688" height="0.688"/>
		
			<rect x="17.239" y="109.263" transform="matrix(0.7071 -0.7071 0.7071 0.7071 -72.3541 44.5365)" fill="none" width="0.689" height="0.688"/>
		
			<rect x="15.388" y="103.71" transform="matrix(-0.7078 0.7064 -0.7064 -0.7078 100.3724 166.5927)" fill="none" width="0.688" height="0.689"/>
		
			<rect x="15.388" y="109.263" transform="matrix(-0.7078 0.7064 -0.7064 -0.7078 104.2949 176.0758)" fill="none" width="0.688" height="0.689"/>
		<polygon fill="none" points="10.666,109.608 10.18,109.121 9.739,109.559 9.739,109.656 10.18,110.094 		"/>
		
			<rect x="16.313" y="99.083" transform="matrix(-0.7071 -0.7071 0.7071 -0.7071 -41.8688 181.5119)" fill="none" width="0.689" height="0.688"/>
		
			<rect x="15.388" y="105.562" transform="matrix(-0.7071 0.7071 -0.7071 -0.7071 101.744 169.6678)" fill="none" width="0.689" height="0.688"/>
		
			<rect x="15.388" y="112.965" transform="matrix(-0.7071 0.7071 -0.7071 -0.7071 106.9793 182.3069)" fill="none" width="0.689" height="0.688"/>
		
			<rect x="15.388" y="111.115" transform="matrix(-0.7071 0.7071 -0.7071 -0.7071 105.6707 179.1477)" fill="none" width="0.689" height="0.688"/>
		
			<rect x="15.387" y="98.158" transform="matrix(-0.7092 -0.705 0.705 -0.7092 -42.5532 179.4536)" fill="none" width="0.69" height="0.688"/>
		
			<rect x="15.388" y="100.008" transform="matrix(-0.7071 0.7071 -0.7071 -0.7071 97.8173 160.1878)" fill="none" width="0.689" height="0.688"/>
		
			<rect x="16.315" y="108.338" transform="matrix(-0.7071 0.7071 -0.7071 -0.7071 105.2876 173.7527)" fill="none" width="0.688" height="0.688"/>
		
			<rect x="15.388" y="101.859" transform="matrix(-0.7071 0.7071 -0.7071 -0.7071 99.1262 163.3478)" fill="none" width="0.689" height="0.689"/>
		<path fill="none" d="M15.461,124.198c0.198,0.039,0.404,0.049,0.607,0.065l-0.336-0.334L15.461,124.198z"/>
		<path fill="none" d="M11.106,121.153l-0.061,0.06c0.129,0.192,0.276,0.371,0.424,0.549l0.123-0.122L11.106,121.153z"/>
		<polygon fill="none" points="9.739,116.083 9.739,116.088 9.741,116.085 		"/>
		<path fill="none" d="M10.666,117.012l-0.486-0.487l-0.438,0.437c0,0.038,0.01,0.074,0.011,0.112l0.427,0.425L10.666,117.012z"/>
		<path fill="none" d="M10.666,118.862l-0.486-0.485l-0.241,0.238c0.053,0.24,0.13,0.467,0.203,0.699l0.038,0.035L10.666,118.862z"
			/>
		
			<rect x="16.315" y="106.487" transform="matrix(-0.7071 0.7071 -0.7071 -0.7071 103.9787 170.5927)" fill="none" width="0.688" height="0.688"/>
		<polygon fill="none" points="10.666,115.161 10.18,114.673 9.739,115.112 9.739,115.209 10.18,115.647 		"/>
		<polygon fill="none" points="10.666,113.309 10.18,112.823 9.739,113.261 9.739,113.358 10.18,113.796 		"/>
		<polygon fill="none" points="9.739,110.531 9.739,110.536 9.741,110.533 		"/>
		<polygon fill="none" points="10.666,111.458 10.18,110.972 9.739,111.411 9.739,111.506 10.18,111.946 		"/>
		<polygon fill="none" points="9.739,112.382 9.739,112.386 9.741,112.384 		"/>
		<polygon fill="none" points="9.739,114.232 9.739,114.238 9.741,114.235 		"/>
		
			<rect x="16.314" y="102.785" transform="matrix(-0.7064 0.7078 -0.7078 -0.7064 101.4222 164.1878)" fill="none" width="0.688" height="0.688"/>
		<path fill="none" d="M12.031,122.078l-0.163,0.161c0.162,0.166,0.344,0.31,0.518,0.458l0.133-0.132L12.031,122.078z"/>
		
			<rect x="16.314" y="100.934" transform="matrix(0.7071 -0.7071 0.7071 0.7071 -66.7354 41.443)" fill="none" width="0.689" height="0.688"/>
		<path fill="none" d="M20.799,122.565l0.13,0.13c0.176-0.146,0.356-0.29,0.519-0.456l-0.162-0.161L20.799,122.565z"/>
		
			<rect x="16.314" y="104.636" transform="matrix(-0.7064 0.7078 -0.7078 -0.7064 102.7324 167.3464)" fill="none" width="0.688" height="0.688"/>
		
			<rect x="21.866" y="119.445" transform="matrix(-0.7078 -0.7064 0.7064 -0.7078 -46.6865 220.2664)" fill="none" width="0.688" height="0.688"/>
		<path fill="none" d="M20.003,123.36c0.149-0.089,0.309-0.161,0.451-0.263l-0.095-0.095L20.003,123.36z"/>
		
			<rect x="16.314" y="113.891" transform="matrix(0.7071 0.7071 -0.7071 0.7071 85.6553 21.6797)" fill="none" width="0.688" height="0.688"/>
		<path fill="none" d="M12.862,123.097c0.143,0.102,0.304,0.176,0.453,0.265l-0.358-0.359L12.862,123.097z"/>
		<path fill="none" d="M17.247,124.263c0.203-0.017,0.408-0.026,0.606-0.065l-0.271-0.269L17.247,124.263z"/>
		
			<rect x="17.239" y="105.561" transform="matrix(0.7085 -0.7057 0.7057 0.7085 -69.6111 43.2771)" fill="none" width="0.688" height="0.689"/>
		
			<rect x="17.239" y="114.816" transform="matrix(0.7071 0.7071 -0.7071 0.7071 86.5809 21.2965)" fill="none" width="0.689" height="0.689"/>
		
			<rect x="17.239" y="112.965" transform="matrix(0.7078 0.7064 -0.7064 0.7078 85.1788 20.6864)" fill="none" width="0.688" height="0.688"/>
		
			<rect x="18.165" y="115.742" transform="matrix(0.7078 0.7064 -0.7064 0.7078 87.4106 20.8433)" fill="none" width="0.688" height="0.688"/>
		
			<rect x="19.09" y="114.816" transform="matrix(0.7064 0.7078 -0.7078 0.7064 87.2185 20.0556)" fill="none" width="0.688" height="0.689"/>
		
			<rect x="15.387" y="114.815" transform="matrix(0.7071 0.7071 -0.7071 0.7071 86.0386 22.6058)" fill="none" width="0.689" height="0.691"/>
		
			<rect x="16.314" y="115.741" transform="matrix(0.7071 0.7071 -0.7071 0.7071 86.9638 22.2217)" fill="none" width="0.688" height="0.688"/>
		
			<rect x="14.463" y="112.039" transform="matrix(-0.7078 0.7064 -0.7064 -0.7078 104.675 181.4713)" fill="none" width="0.688" height="0.689"/>
		
			<rect x="14.462" y="110.189" transform="matrix(-0.7071 0.7071 -0.7071 -0.7071 103.4357 178.2219)" fill="none" width="0.689" height="0.688"/>
		
			<rect x="14.462" y="115.742" transform="matrix(-0.7071 0.7071 -0.7071 -0.7071 107.3621 187.701)" fill="none" width="0.689" height="0.688"/>
		
			<rect x="14.462" y="113.891" transform="matrix(-0.7071 0.7071 -0.7071 -0.7071 106.0535 184.5419)" fill="none" width="0.689" height="0.688"/>
		
			<rect x="19.091" y="112.965" transform="matrix(0.7078 -0.7064 0.7064 0.7078 -74.363 46.836)" fill="none" width="0.688" height="0.689"/>
		
			<rect x="19.091" y="111.114" transform="matrix(0.7078 -0.7064 0.7064 0.7078 -73.0558 46.2953)" fill="none" width="0.688" height="0.689"/>
		
			<rect x="19.09" y="101.859" transform="matrix(0.7071 -0.7071 0.7071 0.7071 -66.5765 43.6772)" fill="none" width="0.689" height="0.689"/>
		
			<rect x="19.091" y="100.008" transform="matrix(0.7078 -0.7064 0.7064 0.7078 -65.2102 43.0501)" fill="none" width="0.688" height="0.689"/>
		
			<rect x="19.09" y="96.306" transform="matrix(0.7071 -0.7071 0.7071 0.7071 -62.6502 42.0509)" fill="none" width="0.689" height="0.689"/>
		
			<rect x="18.166" y="95.381" transform="matrix(-0.7071 -0.7071 0.7071 -0.7071 -36.0901 176.5012)" fill="none" width="0.688" height="0.688"/>
		
			<rect x="19.09" y="98.158" transform="matrix(0.7071 -0.7071 0.7071 0.7071 -63.9591 42.593)" fill="none" width="0.689" height="0.688"/>
		
			<rect x="19.09" y="109.263" transform="matrix(0.7071 -0.7071 0.7071 0.7071 -71.8118 45.8458)" fill="none" width="0.689" height="0.688"/>
		
			<rect x="19.091" y="107.412" transform="matrix(0.7078 -0.7064 0.7064 0.7078 -70.4406 45.2136)" fill="none" width="0.688" height="0.689"/>
		
			<rect x="19.09" y="103.71" transform="matrix(0.7071 -0.7071 0.7071 0.7071 -67.8854 44.2194)" fill="none" width="0.689" height="0.688"/>
		
			<rect x="19.091" y="105.561" transform="matrix(0.7085 -0.7057 0.7057 0.7085 -69.0714 44.5837)" fill="none" width="0.688" height="0.689"/>
		
			<rect x="14.463" y="108.338" transform="matrix(-0.7078 0.7064 -0.7064 -0.7078 102.0602 175.1495)" fill="none" width="0.688" height="0.688"/>
		
			<rect x="18.165" y="104.636" transform="matrix(0.7064 -0.7078 0.7078 0.7064 -68.8722 43.9234)" fill="none" width="0.688" height="0.688"/>
		
			<rect x="18.165" y="102.785" transform="matrix(0.7071 -0.7071 0.7071 0.7071 -67.502 43.2936)" fill="none" width="0.688" height="0.688"/>
		
			<rect x="14.463" y="106.486" transform="matrix(-0.7078 0.7064 -0.7064 -0.7078 100.7526 171.9882)" fill="none" width="0.688" height="0.689"/>
		
			<rect x="18.165" y="106.487" transform="matrix(0.7064 -0.7078 0.7078 0.7064 -70.1824 44.4669)" fill="none" width="0.688" height="0.688"/>
		
			<rect x="18.165" y="100.934" transform="matrix(0.7064 -0.7078 0.7078 0.7064 -66.2521 42.8366)" fill="none" width="0.688" height="0.688"/>
		
			<rect x="18.165" y="112.04" transform="matrix(0.7064 -0.7078 0.7078 0.7064 -74.1127 46.0972)" fill="none" width="0.688" height="0.688"/>
		
			<rect x="18.165" y="97.232" transform="matrix(0.7071 -0.7071 0.7071 0.7071 -63.5756 41.6673)" fill="none" width="0.688" height="0.688"/>
		
			<rect x="18.165" y="108.338" transform="matrix(0.7071 -0.7071 0.7071 0.7071 -71.4287 44.9201)" fill="none" width="0.688" height="0.688"/>
		
			<rect x="18.165" y="113.891" transform="matrix(0.7078 0.7064 -0.7064 0.7078 86.1034 20.3026)" fill="none" width="0.688" height="0.688"/>
		
			<rect x="18.165" y="110.189" transform="matrix(0.7071 -0.7071 0.7071 0.7071 -72.7376 45.4623)" fill="none" width="0.688" height="0.688"/>
		
			<rect x="18.165" y="99.083" transform="matrix(0.7064 -0.7078 0.7078 0.7064 -64.9419 42.2931)" fill="none" width="0.688" height="0.688"/>
		
			<rect x="14.462" y="104.635" transform="matrix(-0.7071 0.7071 -0.7071 -0.7071 99.509 168.742)" fill="none" width="0.689" height="0.689"/>
		
			<rect x="14.462" y="99.083" transform="matrix(-0.7071 0.7071 -0.7071 -0.7071 95.5826 159.2629)" fill="none" width="0.689" height="0.689"/>
		
			<rect x="14.462" y="102.785" transform="matrix(-0.7071 0.7071 -0.7071 -0.7071 98.2001 165.582)" fill="none" width="0.689" height="0.688"/>
		
			<rect x="14.461" y="97.231" transform="matrix(-0.7085 -0.7057 0.7057 -0.7085 -43.5621 177.1584)" fill="none" width="0.691" height="0.689"/>
		
			<rect x="14.463" y="100.934" transform="matrix(-0.7078 0.7064 -0.7064 -0.7078 96.8301 162.5052)" fill="none" width="0.688" height="0.689"/>
		
			<rect x="16.313" y="97.231" transform="matrix(-0.7071 -0.7071 0.7071 -0.7071 -40.5595 178.3511)" fill="none" width="0.689" height="0.688"/>
		
			<rect x="17.239" y="96.306" transform="matrix(-0.7071 -0.7071 0.7071 -0.7071 -38.326 177.4266)" fill="none" width="0.689" height="0.689"/>
		
			<rect x="15.386" y="96.306" transform="matrix(-0.7085 -0.7057 0.7057 -0.7085 -41.3278 176.2316)" fill="none" width="0.691" height="0.689"/>
		<path fill="#B28203" d="M22.211,121.153l0.06,0.06c0.387-0.576,0.68-1.217,0.899-1.896l-0.033,0.033l-0.487-0.487l0.487-0.485
			l0.238,0.238c0.111-0.497,0.176-1.011,0.186-1.541l-0.424,0.425l-0.487-0.486l0.487-0.487l0.437,0.437
			c0-0.013,0.002-0.024,0.002-0.037v-0.839v-0.876l-0.438,0.438l-0.487-0.486l0.487-0.487l0.438,0.438v-0.877v-0.877l-0.438,0.438
			l-0.487-0.487l0.487-0.486l0.438,0.438v-0.877v-0.878l-0.438,0.439l-0.487-0.487l0.487-0.486l0.438,0.438v-0.878v-0.877
			l-0.438,0.438l-0.487-0.486l0.487-0.487l0.438,0.438v-0.877v-0.877l-0.438,0.438l-0.487-0.487l0.487-0.486l0.438,0.438v-0.877
			v-0.878l-0.438,0.438l-0.487-0.487l0.487-0.485l0.438,0.438v-0.878v-0.877l-0.438,0.438l-0.487-0.486l0.487-0.487l0.438,0.438
			v-0.878v-0.876l-0.438,0.438l-0.487-0.487l0.487-0.487l0.438,0.438v-0.876v-0.878l-0.438,0.438l-0.487-0.487l0.487-0.486
			l0.438,0.439v-0.878V98.55l-0.438,0.438l-0.487-0.486l0.487-0.487l0.438,0.438v-0.878v-0.877l-0.438,0.439l-0.487-0.487
			l0.487-0.487l0.438,0.438v-0.877v-0.012c0-0.271-0.049-0.528-0.075-0.79l-0.363,0.363l-0.487-0.487l0.487-0.486l0.337,0.338
			c-0.061-0.437-0.156-0.858-0.284-1.269l-0.053,0.053l-0.487-0.486l0.289-0.289c-0.087-0.202-0.192-0.391-0.296-0.58l-0.432,0.431
			l-0.487-0.487l0.487-0.486l0.317,0.317c-0.645-1.117-1.561-2.026-2.648-2.648l0.041,0.041l-0.486,0.487l-0.487-0.487l0.363-0.363
			c-0.209-0.095-0.438-0.147-0.657-0.22l-0.145,0.146l-0.292-0.293c-0.358-0.089-0.731-0.132-1.109-0.158l-0.449,0.451l-0.45-0.451
			c-0.378,0.026-0.751,0.069-1.109,0.158l-0.292,0.293l-0.146-0.146c-0.221,0.072-0.447,0.125-0.656,0.22l0.363,0.363l-0.486,0.487
			l-0.489-0.487l0.038-0.038c-1.086,0.622-2,1.528-2.646,2.646l0.321-0.317l0.486,0.486l-0.486,0.487l-0.435-0.431
			c-0.103,0.189-0.209,0.378-0.295,0.58l0.29,0.289l-0.486,0.486l-0.055-0.053c-0.128,0.41-0.227,0.832-0.286,1.269l0.341-0.338
			l0.486,0.486l-0.486,0.487l-0.366-0.363c-0.027,0.262-0.075,0.52-0.075,0.79v0.01l0.003,0.002l-0.003,0.003v0.874l0.441-0.438
			l0.486,0.487l-0.486,0.487l-0.441-0.439v0.875l0.003,0.002L9.739,97.58v0.874l0.441-0.438l0.486,0.487l-0.486,0.486L9.739,98.55
			v0.875l0.003,0.002l-0.003,0.002v0.876l0.441-0.439l0.486,0.486l-0.486,0.487l-0.441-0.438v0.875l0.003,0.003l-0.003,0.002v0.874
			l0.441-0.438l0.486,0.487l-0.486,0.487l-0.441-0.438v0.874l0.003,0.002l-0.003,0.004v0.874l0.441-0.438l0.486,0.487l-0.486,0.486
			l-0.441-0.438v0.875l0.003,0.002l-0.003,0.002v0.876l0.441-0.438l0.486,0.485l-0.486,0.487l-0.441-0.438v0.875l0.003,0.003
			l-0.003,0.002v0.875l0.441-0.438l0.486,0.486l-0.486,0.487l-0.441-0.438v0.874l0.003,0.003l-0.003,0.003v0.874l0.441-0.438
			l0.486,0.487l-0.486,0.486l-0.441-0.438v0.875l0.003,0.002l-0.003,0.003v0.875l0.441-0.438l0.486,0.486l-0.486,0.487l-0.441-0.439
			v0.876l0.003,0.002l-0.003,0.002v0.875l0.441-0.438l0.486,0.486l-0.486,0.487l-0.441-0.438v0.874l0.003,0.003l-0.003,0.003v0.874
			l0.441-0.438l0.486,0.487l-0.486,0.486l-0.441-0.438v0.874l0.003,0.002l-0.003,0.003v0.836c0,0.013,0.004,0.024,0.004,0.037
			l0.438-0.437l0.486,0.487l-0.486,0.486l-0.427-0.425c0.01,0.53,0.076,1.044,0.186,1.541l0.241-0.238l0.486,0.485l-0.486,0.487
			l-0.038-0.035c0.221,0.682,0.516,1.322,0.903,1.898l0.061-0.06l0.486,0.486l-0.123,0.122c0.132,0.162,0.256,0.329,0.398,0.478
			l0.163-0.161l0.487,0.487l-0.133,0.132c0.159,0.135,0.308,0.282,0.477,0.4l0.095-0.095l0.358,0.359
			c0.662,0.396,1.377,0.692,2.146,0.836l0.271-0.269l0.336,0.334c0.198,0.02,0.389,0.065,0.59,0.065c0.2,0,0.392-0.046,0.589-0.065
			l0.336-0.334l0.271,0.269c0.771-0.146,1.486-0.44,2.149-0.838l0.356-0.357l0.095,0.095c0.168-0.12,0.317-0.268,0.475-0.402
			l-0.13-0.13l0.486-0.487l0.162,0.161c0.144-0.148,0.268-0.315,0.399-0.478l-0.123-0.122L22.211,121.153z M22.698,119.789
			l-0.486,0.486l-0.487-0.486l0.487-0.487L22.698,119.789z M17.145,103.128l-0.486,0.487l-0.487-0.487l0.487-0.486L17.145,103.128z
			 M16.171,101.279l0.487-0.487l0.486,0.487l-0.486,0.486L16.171,101.279z M17.145,104.98l-0.486,0.487l-0.487-0.487l0.487-0.487
			L17.145,104.98z M17.145,106.832l-0.486,0.486l-0.487-0.486l0.487-0.487L17.145,106.832z M17.145,108.682l-0.486,0.486
			l-0.487-0.486l0.487-0.486L17.145,108.682z M17.145,110.533l-0.486,0.487l-0.487-0.487l0.487-0.486L17.145,110.533z
			 M17.145,112.384l-0.486,0.486l-0.487-0.486l0.487-0.487L17.145,112.384z M17.096,111.458l0.487-0.486l0.487,0.486l-0.487,0.487
			L17.096,111.458z M17.096,109.608l0.487-0.487l0.487,0.487l-0.487,0.486L17.096,109.608z M17.096,107.756l0.487-0.486l0.487,0.486
			l-0.487,0.487L17.096,107.756z M17.096,105.905l0.487-0.485l0.487,0.485l-0.487,0.487L17.096,105.905z M17.096,104.055
			l0.487-0.487l0.487,0.487l-0.487,0.486L17.096,104.055z M17.096,102.204l0.487-0.487l0.487,0.487l-0.487,0.487L17.096,102.204z
			 M17.096,100.352l0.487-0.486l0.487,0.486l-0.487,0.487L17.096,100.352z M17.096,98.502l0.487-0.487l0.487,0.487l-0.487,0.486
			L17.096,98.502z M17.145,99.427l-0.486,0.487l-0.487-0.487l0.487-0.487L17.145,99.427z M15.733,98.989l-0.489-0.486l0.489-0.487
			l0.487,0.487L15.733,98.989z M16.22,100.352l-0.487,0.487l-0.489-0.487l0.489-0.486L16.22,100.352z M16.22,102.204l-0.487,0.487
			l-0.489-0.487l0.489-0.487L16.22,102.204z M16.22,104.055l-0.487,0.486l-0.489-0.486l0.489-0.487L16.22,104.055z M16.22,105.905
			l-0.487,0.487l-0.489-0.487l0.489-0.485L16.22,105.905z M16.22,107.756l-0.487,0.487l-0.489-0.487l0.489-0.486L16.22,107.756z
			 M16.22,109.608l-0.487,0.486l-0.489-0.486l0.489-0.487L16.22,109.608z M16.22,111.458l-0.487,0.487l-0.489-0.487l0.489-0.486
			L16.22,111.458z M16.22,113.309l-0.487,0.487l-0.489-0.487l0.489-0.486L16.22,113.309z M16.658,113.749l0.486,0.486l-0.486,0.487
			l-0.487-0.487L16.658,113.749z M17.096,113.309l0.487-0.486l0.487,0.486l-0.487,0.487L17.096,113.309z M18.509,113.749
			l0.487,0.486l-0.487,0.487l-0.486-0.487L18.509,113.749z M18.023,112.384l0.486-0.487l0.487,0.487l-0.487,0.486L18.023,112.384z
			 M18.023,110.533l0.486-0.486l0.487,0.486l-0.487,0.487L18.023,110.533z M18.023,108.682l0.486-0.486l0.487,0.486l-0.487,0.486
			L18.023,108.682z M18.023,106.832l0.486-0.487l0.487,0.487l-0.487,0.486L18.023,106.832z M18.023,104.98l0.486-0.487l0.487,0.487
			l-0.487,0.487L18.023,104.98z M18.023,103.128l0.486-0.486l0.487,0.486l-0.487,0.487L18.023,103.128z M18.023,101.279l0.486-0.487
			l0.487,0.487l-0.487,0.486L18.023,101.279z M18.023,99.427l0.486-0.487l0.487,0.487l-0.487,0.487L18.023,99.427z M18.023,97.576
			l0.486-0.486l0.487,0.486l-0.487,0.487L18.023,97.576z M17.583,97.138l-0.487-0.487l0.487-0.487l0.487,0.487L17.583,97.138z
			 M17.145,97.576l-0.486,0.487l-0.487-0.487l0.487-0.486L17.145,97.576z M15.733,97.138l-0.489-0.487l0.489-0.487l0.487,0.487
			L15.733,97.138z M15.294,97.576l-0.487,0.487l-0.489-0.487l0.489-0.486L15.294,97.576z M15.294,99.427l-0.487,0.487l-0.489-0.487
			l0.489-0.487L15.294,99.427z M15.294,101.279l-0.487,0.486l-0.489-0.486l0.489-0.487L15.294,101.279z M15.294,103.128
			l-0.487,0.487l-0.489-0.487l0.489-0.486L15.294,103.128z M15.294,104.98l-0.487,0.487l-0.489-0.487l0.489-0.487L15.294,104.98z
			 M15.294,106.832l-0.487,0.486l-0.489-0.486l0.489-0.487L15.294,106.832z M15.294,108.682l-0.487,0.486l-0.489-0.486l0.489-0.486
			L15.294,108.682z M15.294,110.533l-0.487,0.487l-0.489-0.487l0.489-0.486L15.294,110.533z M15.294,112.384l-0.487,0.486
			l-0.489-0.486l0.489-0.487L15.294,112.384z M15.294,114.235l-0.487,0.487l-0.489-0.487l0.489-0.486L15.294,114.235z
			 M15.294,116.085l-0.487,0.487l-0.489-0.487l0.489-0.486L15.294,116.085z M15.243,115.161l0.489-0.487l0.487,0.487l-0.487,0.486
			L15.243,115.161z M16.658,115.599l0.486,0.486l-0.486,0.487l-0.487-0.487L16.658,115.599z M17.096,115.161l0.487-0.487
			l0.487,0.487l-0.487,0.486L17.096,115.161z M18.509,115.599l0.487,0.486l-0.487,0.487l-0.486-0.487L18.509,115.599z
			 M18.948,115.161l0.487-0.487l0.486,0.487l-0.486,0.486L18.948,115.161z M18.948,113.309l0.487-0.486l0.486,0.486l-0.486,0.487
			L18.948,113.309z M18.948,111.458l0.487-0.486l0.486,0.486l-0.486,0.487L18.948,111.458z M18.948,109.608l0.487-0.487l0.486,0.487
			l-0.486,0.486L18.948,109.608z M18.948,107.756l0.487-0.486l0.486,0.486l-0.486,0.487L18.948,107.756z M18.948,105.905
			l0.487-0.485l0.486,0.485l-0.486,0.487L18.948,105.905z M18.948,104.055l0.487-0.487l0.486,0.487l-0.486,0.486L18.948,104.055z
			 M18.948,102.204l0.487-0.487l0.486,0.487l-0.486,0.487L18.948,102.204z M18.948,100.352l0.487-0.486l0.486,0.486l-0.486,0.487
			L18.948,100.352z M18.948,98.502l0.487-0.487l0.486,0.487l-0.486,0.486L18.948,98.502z M18.948,96.651l0.487-0.487l0.486,0.487
			l-0.486,0.487L18.948,96.651z M18.509,96.211l-0.486-0.486l0.486-0.486l0.487,0.486L18.509,96.211z M17.583,95.287l-0.487-0.487
			l0.487-0.486l0.487,0.486L17.583,95.287z M17.145,95.725l-0.486,0.486l-0.487-0.486l0.487-0.486L17.145,95.725z M15.733,95.287
			l-0.489-0.487l0.489-0.486l0.487,0.486L15.733,95.287z M15.294,95.725l-0.487,0.486l-0.489-0.486l0.489-0.486L15.294,95.725z
			 M14.368,96.651l-0.486,0.487l-0.489-0.487l0.489-0.487L14.368,96.651z M14.368,98.502l-0.486,0.486l-0.489-0.486l0.489-0.487
			L14.368,98.502z M14.368,100.352l-0.486,0.487l-0.489-0.487l0.489-0.486L14.368,100.352z M14.368,102.204l-0.486,0.487
			l-0.489-0.487l0.489-0.487L14.368,102.204z M14.368,104.055l-0.486,0.486l-0.489-0.486l0.489-0.487L14.368,104.055z
			 M14.368,105.905l-0.486,0.487l-0.489-0.487l0.489-0.485L14.368,105.905z M14.368,107.756l-0.486,0.487l-0.489-0.487l0.489-0.486
			L14.368,107.756z M14.368,109.608l-0.486,0.486l-0.489-0.486l0.489-0.487L14.368,109.608z M14.368,111.458l-0.486,0.487
			l-0.489-0.487l0.489-0.486L14.368,111.458z M14.368,113.309l-0.486,0.487l-0.489-0.487l0.489-0.486L14.368,113.309z
			 M14.368,115.161l-0.486,0.486l-0.489-0.486l0.489-0.487L14.368,115.161z M14.368,117.012l-0.486,0.486l-0.489-0.486l0.489-0.487
			L14.368,117.012z M14.807,117.45l0.487,0.487l-0.487,0.486l-0.489-0.486L14.807,117.45z M15.243,117.012l0.489-0.487l0.487,0.487
			l-0.487,0.486L15.243,117.012z M16.658,117.45l0.486,0.487l-0.486,0.486l-0.487-0.486L16.658,117.45z M17.096,117.012l0.487-0.487
			l0.487,0.487l-0.487,0.486L17.096,117.012z M18.509,117.45l0.487,0.487l-0.487,0.486l-0.486-0.486L18.509,117.45z M18.948,117.012
			l0.487-0.487l0.486,0.487l-0.486,0.486L18.948,117.012z M19.872,116.085l0.487-0.486l0.487,0.486l-0.487,0.487L19.872,116.085z
			 M19.872,114.235l0.487-0.486l0.487,0.486l-0.487,0.487L19.872,114.235z M19.872,112.384l0.487-0.487l0.487,0.487l-0.487,0.486
			L19.872,112.384z M19.872,110.533l0.487-0.486l0.487,0.486l-0.487,0.487L19.872,110.533z M19.872,108.682l0.487-0.486l0.487,0.486
			l-0.487,0.486L19.872,108.682z M19.872,106.832l0.487-0.487l0.487,0.487l-0.487,0.486L19.872,106.832z M19.872,104.98l0.487-0.487
			l0.487,0.487l-0.487,0.487L19.872,104.98z M19.872,103.128l0.487-0.486l0.487,0.486l-0.487,0.487L19.872,103.128z M19.872,101.279
			l0.487-0.487l0.487,0.487l-0.487,0.486L19.872,101.279z M19.872,99.427l0.487-0.487l0.487,0.487l-0.487,0.487L19.872,99.427z
			 M19.872,97.576l0.487-0.486l0.487,0.486l-0.487,0.487L19.872,97.576z M19.872,95.725l0.487-0.486l0.487,0.486l-0.487,0.486
			L19.872,95.725z M19.435,95.287l-0.487-0.487l0.487-0.486l0.486,0.486L19.435,95.287z M18.509,94.362l-0.486-0.487l0.486-0.487
			l0.487,0.487L18.509,94.362z M17.583,93.435l-0.487-0.486l0.487-0.487l0.487,0.487L17.583,93.435z M17.145,93.875l-0.486,0.487
			l-0.487-0.487l0.487-0.487L17.145,93.875z M15.733,93.435l-0.489-0.486l0.489-0.487l0.487,0.487L15.733,93.435z M15.294,93.875
			l-0.487,0.487l-0.489-0.487l0.489-0.487L15.294,93.875z M14.368,94.799l-0.486,0.487l-0.489-0.487l0.489-0.486L14.368,94.799z
			 M13.444,95.725l-0.487,0.486l-0.489-0.486l0.489-0.486L13.444,95.725z M13.444,97.576l-0.487,0.487l-0.489-0.487l0.489-0.486
			L13.444,97.576z M13.444,99.427l-0.487,0.487l-0.489-0.487l0.489-0.487L13.444,99.427z M13.444,101.279l-0.487,0.486l-0.489-0.486
			l0.489-0.487L13.444,101.279z M13.444,103.128l-0.487,0.487l-0.489-0.487l0.489-0.486L13.444,103.128z M13.444,104.98
			l-0.487,0.487l-0.489-0.487l0.489-0.487L13.444,104.98z M13.444,106.832l-0.487,0.486l-0.489-0.486l0.489-0.487L13.444,106.832z
			 M13.444,108.682l-0.487,0.486l-0.489-0.486l0.489-0.486L13.444,108.682z M13.444,110.533l-0.487,0.487l-0.489-0.487l0.489-0.486
			L13.444,110.533z M13.444,112.384l-0.487,0.486l-0.489-0.486l0.489-0.487L13.444,112.384z M13.444,114.235l-0.487,0.487
			l-0.489-0.487l0.489-0.486L13.444,114.235z M13.444,116.085l-0.487,0.487l-0.489-0.487l0.489-0.486L13.444,116.085z
			 M13.444,117.937l-0.487,0.486l-0.489-0.486l0.489-0.487L13.444,117.937z M13.882,118.376l0.486,0.485l-0.486,0.487l-0.489-0.487
			L13.882,118.376z M14.807,119.301l0.487,0.487l-0.487,0.486l-0.489-0.486L14.807,119.301z M15.243,118.862l0.489-0.485
			l0.487,0.485l-0.487,0.487L15.243,118.862z M16.658,119.301l0.486,0.487l-0.486,0.486l-0.487-0.486L16.658,119.301z
			 M17.096,118.862l0.487-0.485l0.487,0.485l-0.487,0.487L17.096,118.862z M18.509,119.301l0.487,0.487l-0.487,0.486l-0.486-0.486
			L18.509,119.301z M18.948,118.862l0.487-0.485l0.486,0.485l-0.486,0.487L18.948,118.862z M19.872,117.937l0.487-0.487l0.487,0.487
			l-0.487,0.486L19.872,117.937z M20.799,117.012l0.486-0.487l0.487,0.487l-0.487,0.486L20.799,117.012z M20.799,115.161
			l0.486-0.487l0.487,0.487l-0.487,0.486L20.799,115.161z M20.799,113.309l0.486-0.486l0.487,0.486l-0.487,0.487L20.799,113.309z
			 M20.799,111.458l0.486-0.486l0.487,0.486l-0.487,0.487L20.799,111.458z M20.799,109.608l0.486-0.487l0.487,0.487l-0.487,0.486
			L20.799,109.608z M20.799,107.756l0.486-0.486l0.487,0.486l-0.487,0.487L20.799,107.756z M20.799,105.905l0.486-0.485l0.487,0.485
			l-0.487,0.487L20.799,105.905z M20.799,104.055l0.486-0.487l0.487,0.487l-0.487,0.486L20.799,104.055z M20.799,102.204
			l0.486-0.487l0.487,0.487l-0.487,0.487L20.799,102.204z M20.799,100.352l0.486-0.486l0.487,0.486l-0.487,0.487L20.799,100.352z
			 M20.799,98.502l0.486-0.487l0.487,0.487l-0.487,0.486L20.799,98.502z M20.799,96.651l0.486-0.487l0.487,0.487l-0.487,0.487
			L20.799,96.651z M20.799,94.799l0.486-0.486l0.487,0.486l-0.487,0.487L20.799,94.799z M20.36,94.362l-0.487-0.487l0.487-0.487
			l0.487,0.487L20.36,94.362z M19.872,92.023l0.487-0.486l0.487,0.486L20.36,92.51L19.872,92.023z M19.921,92.949l-0.486,0.486
			l-0.487-0.486l0.487-0.487L19.921,92.949z M18.509,92.51l-0.486-0.487l0.486-0.486l0.487,0.486L18.509,92.51z M17.583,91.585
			l-0.487-0.487l0.487-0.487l0.487,0.487L17.583,91.585z M17.145,92.023l-0.486,0.487l-0.487-0.487l0.487-0.486L17.145,92.023z
			 M15.733,91.585l-0.489-0.487l0.489-0.487l0.487,0.487L15.733,91.585z M15.294,92.023l-0.487,0.487l-0.489-0.487l0.489-0.486
			L15.294,92.023z M14.368,92.949l-0.486,0.486l-0.489-0.486l0.489-0.487L14.368,92.949z M12.956,92.51l-0.489-0.487l0.489-0.486
			l0.487,0.486L12.956,92.51z M13.444,93.875l-0.487,0.487l-0.489-0.487l0.489-0.487L13.444,93.875z M12.518,94.799l-0.487,0.487
			l-0.489-0.487l0.489-0.486L12.518,94.799z M12.518,96.651l-0.487,0.487l-0.489-0.487l0.489-0.487L12.518,96.651z M12.518,98.502
			l-0.487,0.486l-0.489-0.486l0.489-0.487L12.518,98.502z M12.518,100.352l-0.487,0.487l-0.489-0.487l0.489-0.486L12.518,100.352z
			 M12.518,102.204l-0.487,0.487l-0.489-0.487l0.489-0.487L12.518,102.204z M12.518,104.055l-0.487,0.486l-0.489-0.486l0.489-0.487
			L12.518,104.055z M12.518,105.905l-0.487,0.487l-0.489-0.487l0.489-0.485L12.518,105.905z M12.518,107.756l-0.487,0.487
			l-0.489-0.487l0.489-0.486L12.518,107.756z M12.518,109.608l-0.487,0.486l-0.489-0.486l0.489-0.487L12.518,109.608z
			 M12.518,111.458l-0.487,0.487l-0.489-0.487l0.489-0.486L12.518,111.458z M12.518,113.309l-0.487,0.487l-0.489-0.487l0.489-0.486
			L12.518,113.309z M12.518,115.161l-0.487,0.486l-0.489-0.486l0.489-0.487L12.518,115.161z M12.518,117.012l-0.487,0.486
			l-0.489-0.486l0.489-0.487L12.518,117.012z M12.518,118.862l-0.487,0.487l-0.489-0.487l0.489-0.485L12.518,118.862z
			 M12.956,119.301l0.487,0.487l-0.487,0.486l-0.489-0.486L12.956,119.301z M13.882,120.226l0.486,0.487l-0.486,0.486l-0.489-0.486
			L13.882,120.226z M14.807,121.153l0.487,0.486l-0.487,0.486l-0.489-0.486L14.807,121.153z M15.243,120.713l0.489-0.487
			l0.487,0.487l-0.487,0.486L15.243,120.713z M16.658,121.153l0.486,0.486l-0.486,0.486l-0.487-0.486L16.658,121.153z
			 M17.096,120.713l0.487-0.487l0.487,0.487l-0.487,0.486L17.096,120.713z M18.509,121.153l0.487,0.486l-0.487,0.486l-0.486-0.486
			L18.509,121.153z M18.948,120.713l0.487-0.487l0.486,0.487l-0.486,0.486L18.948,120.713z M19.872,119.789l0.487-0.487l0.487,0.487
			l-0.487,0.486L19.872,119.789z M20.799,118.862l0.486-0.485l0.487,0.485l-0.487,0.487L20.799,118.862z M22.698,117.937
			l-0.486,0.486l-0.487-0.486l0.487-0.487L22.698,117.937z M22.698,116.085l-0.486,0.487l-0.487-0.487l0.487-0.486L22.698,116.085z
			 M22.698,114.235l-0.486,0.487l-0.487-0.487l0.487-0.486L22.698,114.235z M22.698,112.384l-0.486,0.486l-0.487-0.486l0.487-0.487
			L22.698,112.384z M22.698,110.533l-0.486,0.487l-0.487-0.487l0.487-0.486L22.698,110.533z M22.698,108.682l-0.486,0.486
			l-0.487-0.486l0.487-0.486L22.698,108.682z M22.698,106.832l-0.486,0.486l-0.487-0.486l0.487-0.487L22.698,106.832z
			 M22.698,104.98l-0.486,0.487l-0.487-0.487l0.487-0.487L22.698,104.98z M22.698,103.128l-0.486,0.487l-0.487-0.487l0.487-0.486
			L22.698,103.128z M22.698,101.279l-0.486,0.486l-0.487-0.486l0.487-0.487L22.698,101.279z M22.698,99.427l-0.486,0.487
			l-0.487-0.487l0.487-0.487L22.698,99.427z M22.698,97.576l-0.486,0.487l-0.487-0.487l0.487-0.486L22.698,97.576z M22.698,95.725
			l-0.486,0.486l-0.487-0.486l0.487-0.486L22.698,95.725z M22.698,93.875l-0.486,0.487l-0.487-0.487l0.487-0.487L22.698,93.875z
			 M21.773,92.949l-0.487,0.486l-0.486-0.486l0.486-0.487L21.773,92.949z M21.773,91.098l-0.487,0.487l-0.486-0.487l0.486-0.487
			L21.773,91.098z M20.36,89.685l0.487,0.487l-0.487,0.486l-0.487-0.486L20.36,89.685z M19.921,91.098l-0.486,0.487l-0.487-0.487
			l0.487-0.487L19.921,91.098z M18.996,90.172l-0.487,0.486l-0.486-0.486l0.486-0.487L18.996,90.172z M17.583,88.76l0.487,0.486
			l-0.487,0.487l-0.487-0.487L17.583,88.76z M17.145,90.172l-0.486,0.486l-0.487-0.486l0.487-0.487L17.145,90.172z M15.733,88.76
			l0.487,0.486l-0.487,0.487l-0.489-0.487L15.733,88.76z M14.807,89.685l0.487,0.487l-0.487,0.486l-0.489-0.486L14.807,89.685z
			 M14.368,91.098l-0.486,0.487l-0.489-0.487l0.489-0.487L14.368,91.098z M12.956,89.685l0.487,0.487l-0.487,0.486l-0.489-0.486
			L12.956,89.685z M11.541,91.098l0.489-0.487l0.487,0.487l-0.487,0.487L11.541,91.098z M12.031,92.461l0.487,0.487l-0.487,0.486
			l-0.489-0.486L12.031,92.461z M10.616,93.875l0.489-0.487l0.486,0.487l-0.486,0.487L10.616,93.875z M10.616,95.725l0.489-0.486
			l0.486,0.486l-0.486,0.486L10.616,95.725z M10.616,97.576l0.489-0.486l0.486,0.486l-0.486,0.487L10.616,97.576z M10.616,99.427
			l0.489-0.487l0.486,0.487l-0.486,0.487L10.616,99.427z M10.616,101.279l0.489-0.487l0.486,0.487l-0.486,0.486L10.616,101.279z
			 M10.616,103.128l0.489-0.486l0.486,0.486l-0.486,0.487L10.616,103.128z M10.616,104.98l0.489-0.487l0.486,0.487l-0.486,0.487
			L10.616,104.98z M10.616,106.832l0.489-0.487l0.486,0.487l-0.486,0.486L10.616,106.832z M10.616,108.682l0.489-0.486l0.486,0.486
			l-0.486,0.486L10.616,108.682z M10.616,110.533l0.489-0.486l0.486,0.486l-0.486,0.487L10.616,110.533z M10.616,112.384
			l0.489-0.487l0.486,0.487l-0.486,0.486L10.616,112.384z M10.616,114.235l0.489-0.486l0.486,0.486l-0.486,0.487L10.616,114.235z
			 M10.616,116.085l0.489-0.486l0.486,0.486l-0.486,0.487L10.616,116.085z M10.616,117.937l0.489-0.487l0.486,0.487l-0.486,0.486
			L10.616,117.937z M10.616,119.789l0.489-0.487l0.486,0.487l-0.486,0.486L10.616,119.789z M11.541,120.713l0.489-0.487l0.487,0.487
			l-0.487,0.486L11.541,120.713z M12.467,121.639l0.489-0.486l0.487,0.486l-0.487,0.486L12.467,121.639z M13.393,122.565
			l0.489-0.487l0.486,0.487l-0.486,0.486L13.393,122.565z M14.807,123.976l-0.489-0.486l0.489-0.487l0.487,0.487L14.807,123.976z
			 M15.243,122.565l0.489-0.487l0.487,0.487l-0.487,0.486L15.243,122.565z M16.658,123.976l-0.487-0.486l0.487-0.487l0.486,0.487
			L16.658,123.976z M17.096,122.565l0.487-0.487l0.487,0.487l-0.487,0.486L17.096,122.565z M18.509,123.976l-0.486-0.486
			l0.486-0.487l0.487,0.487L18.509,123.976z M19.435,123.051l-0.487-0.486l0.487-0.487l0.486,0.487L19.435,123.051z M20.36,122.125
			l-0.487-0.486l0.487-0.486l0.487,0.486L20.36,122.125z M21.285,121.2l-0.486-0.486l0.486-0.487l0.487,0.487L21.285,121.2z"/>
	</g>
	<g opacity="0.49">
		<path fill="#F2F2F2" d="M9.747,133.468v15.502c0.318,0.076,0.649,0.142,0.984,0.209v-15.533
			C10.396,133.59,10.072,133.53,9.747,133.468z"/>
		<path fill="#FFFFFF" d="M10.732,133.646v15.533c0.247,0.048,0.471,0.111,0.727,0.154V133.75
			C11.215,133.715,10.971,133.682,10.732,133.646z"/>
		<path fill="#E6E6E6" d="M11.459,149.333c0.355,0.059,0.742,0.09,1.112,0.137v-15.586c-0.377-0.04-0.747-0.084-1.112-0.135V149.333
			z"/>
		<rect x="11.458" y="133.75" fill="#E6E6E6" width="0.001" height="15.584"/>
		<path fill="#E6E6E6" d="M8.123,133.109v15.393c0.515,0.169,1.047,0.329,1.624,0.469v-15.502
			C9.187,133.359,8.643,133.241,8.123,133.109z"/>
		<path fill="#B3B3B3" d="M24.707,133.224v15.433c0.198-0.059,0.387-0.121,0.574-0.184v-15.387
			C25.096,133.135,24.901,133.179,24.707,133.224z"/>
		<path fill="#999999" d="M24.283,133.326v15.469c0.149-0.042,0.28-0.093,0.424-0.138v-15.433
			C24.566,133.257,24.429,133.294,24.283,133.326z"/>
		<path fill="#B3B3B3" d="M23.635,133.456v15.5c0.22-0.054,0.439-0.104,0.648-0.161v-15.469
			C24.072,133.372,23.852,133.412,23.635,133.456z"/>
		<path opacity="0.51" fill="#B3B3B3" d="M25.281,148.473c0.325-0.111,0.653-0.215,0.95-0.337V132.82
			c-0.309,0.091-0.623,0.183-0.95,0.267V148.473z"/>
	</g>
	<g opacity="0.2">
		<path fill="#F2F2F2" d="M15.559,162.818v-13.113c-0.228-0.007-0.454-0.015-0.679-0.026v12.983
			C15.095,162.727,15.321,162.78,15.559,162.818z"/>
		<path fill="#FFFFFF" d="M16.06,162.885v-13.161c-0.17-0.003-0.333-0.015-0.501-0.02v13.113
			C15.723,162.847,15.887,162.872,16.06,162.885z"/>
		<path fill="#E6E6E6" d="M16.658,162.919c0.058,0,0.111-0.007,0.169-0.01v-13.169c-0.059,0-0.111,0.008-0.169,0.008
			c-0.205,0-0.396-0.02-0.598-0.024v13.161C16.255,162.905,16.453,162.919,16.658,162.919z"/>
		<rect x="16.06" y="149.724" fill="#E6E6E6" width="0.001" height="13.161"/>
		<path fill="#E6E6E6" d="M14.88,149.678c-0.374-0.02-0.755-0.031-1.118-0.063v12.533c0.306,0.209,0.684,0.382,1.118,0.513V149.678z
			"/>
	</g>
	<path opacity="0.1" d="M3.393,132.313c2.779,1.721,7.674,2.87,13.266,2.87c5.591,0,10.485-1.149,13.266-2.87v-1.082
		c-2.78,1.721-7.675,2.871-13.266,2.871c-5.592,0-10.486-1.15-13.266-2.871"/>
	<path opacity="0.25" fill="none" stroke="#FFFFFF" stroke-width="1.1598" stroke-linecap="round" stroke-miterlimit="10" d="
		M9.072,55.535c0,0,0,14.065,0,17.56s-4.444,7.162-4.444,12.231c0,6.211,0,42.638,0,42.638"/>
	<path opacity="0.2" d="M12.956,149.941c1.183,0.138,2.408,0.231,3.702,0.231s2.519-0.094,3.701-0.231v-0.424
		c-1.183,0.137-2.407,0.231-3.701,0.231s-2.52-0.095-3.702-0.231"/>
	<path opacity="0.12" fill="#FFFFFF" d="M12.956,161.006c1.183,0.137,2.408,0.23,3.702,0.23s2.519-0.094,3.701-0.23v-0.425
		c-1.183,0.138-2.407,0.231-3.701,0.231s-2.52-0.094-3.702-0.231"/>
</g>
<path fill="none" stroke="#6B6B6B" stroke-miterlimit="10" d="M2.37-46.307c0,5.833,0.729,4.887,0.729,19.319"/>
</svg>
