<?xml version="1.0" encoding="utf-8"?>
<!-- Generator: Adobe Illustrator 15.1.0, SVG Export Plug-In . SVG Version: 6.00 Build 0)  -->
<!DOCTYPE svg PUBLIC "-//W3C//DTD SVG 1.1//EN" "http://www.w3.org/Graphics/SVG/1.1/DTD/svg11.dtd">
<svg version="1.1" id="Ebene_1" xmlns:svg="http://www.w3.org/2000/svg"
	 xmlns="http://www.w3.org/2000/svg" xmlns:xlink="http://www.w3.org/1999/xlink" x="0px" y="0px" width="28.922px"
	 height="71.237px" viewBox="0 0 28.922 71.237" enable-background="new 0 0 28.922 71.237" xml:space="preserve">
<path fill="#1A1A1A" d="M28.922,69.759c0,0.55-0.45,1-1,1H1c-0.55,0-1-0.45-1-1V52.176c0-0.55,0.45-1,1-1h26.922c0.55,0,1,0.45,1,1
	V69.759z"/>
<path fill="#333333" d="M28.922,52.017c0,0.55-0.45,1-1,1H1c-0.55,0-1-0.45-1-1V1c0-0.55,0.45-1,1-1h26.922c0.55,0,1,0.45,1,1
	V52.017z"/>
<g>
	<circle fill="#1A1A1A" cx="10.462" cy="26.509" r="2.537"/>
	<circle cx="10.462" cy="26.77" r="0.596"/>
	<path d="M10.462,24.496c1.312,0,2.376,0.999,2.511,2.274c0.008-0.087,0.025-0.172,0.025-0.263c0-1.399-1.137-2.536-2.537-2.536
		c-1.4,0-2.537,1.137-2.537,2.536c0,0.091,0.02,0.176,0.027,0.263C8.085,25.495,9.149,24.496,10.462,24.496z"/>
</g>
<g>
	<path fill="#808080" d="M4.41,21.249l-0.047-0.342c0.219-0.009,0.369-0.05,0.449-0.123s0.121-0.174,0.121-0.303
		c0-0.095-0.022-0.177-0.065-0.246s-0.103-0.117-0.178-0.143s-0.194-0.039-0.358-0.039H2.359v-0.379H4.31
		c0.24,0,0.425,0.029,0.557,0.087s0.232,0.15,0.301,0.275s0.104,0.273,0.104,0.442c0,0.251-0.072,0.444-0.217,0.577
		S4.695,21.254,4.41,21.249z"/>
	<path fill="#808080" d="M5.222,19.284H4.871l-1.834-1.467c-0.13-0.104-0.244-0.203-0.34-0.297v1.598H2.359v-2.051h0.338
		l1.986,1.607l0.201,0.174V17.02h0.338V19.284z"/>
	<path fill="#808080" d="M4.219,14.569l0.096-0.379c0.311,0.08,0.548,0.222,0.712,0.429s0.245,0.458,0.245,0.757
		c0,0.309-0.063,0.56-0.188,0.753s-0.308,0.34-0.546,0.441s-0.494,0.151-0.768,0.151c-0.298,0-0.558-0.057-0.78-0.171
		s-0.391-0.276-0.506-0.486S2.31,15.622,2.31,15.37c0-0.287,0.073-0.527,0.219-0.723s0.351-0.332,0.615-0.408l0.088,0.373
		c-0.208,0.066-0.36,0.163-0.455,0.289s-0.143,0.285-0.143,0.477c0,0.22,0.053,0.404,0.158,0.552s0.247,0.251,0.425,0.312
		s0.361,0.09,0.55,0.09c0.244,0,0.456-0.036,0.638-0.106s0.317-0.181,0.407-0.331s0.135-0.312,0.135-0.486
		c0-0.212-0.061-0.392-0.184-0.539S4.459,14.621,4.219,14.569z"/>
	<path fill="#808080" d="M4.363,13.905H4.01v-1.08h0.354V13.905z"/>
	<path fill="#808080" d="M4.885,10.686h0.338v1.893c-0.084,0.002-0.166-0.011-0.244-0.041c-0.129-0.048-0.256-0.125-0.381-0.231
		s-0.27-0.259-0.434-0.46c-0.255-0.311-0.458-0.521-0.606-0.631s-0.29-0.164-0.423-0.164c-0.139,0-0.257,0.05-0.353,0.149
		s-0.144,0.229-0.144,0.39c0,0.169,0.051,0.305,0.152,0.406s0.242,0.153,0.422,0.154l-0.037,0.361
		c-0.27-0.025-0.475-0.118-0.616-0.279s-0.212-0.378-0.212-0.65c0-0.275,0.076-0.492,0.229-0.652s0.341-0.24,0.566-0.24
		c0.115,0,0.227,0.023,0.338,0.07s0.227,0.125,0.35,0.233s0.291,0.29,0.504,0.542c0.177,0.211,0.297,0.346,0.36,0.406
		s0.126,0.109,0.19,0.148V10.686z"/>
	<path fill="#808080" d="M4.885,8.462h0.338v1.893c-0.084,0.002-0.166-0.011-0.244-0.041c-0.129-0.048-0.256-0.125-0.381-0.231
		s-0.27-0.259-0.434-0.46C3.908,9.311,3.706,9.1,3.557,8.991s-0.29-0.164-0.423-0.164c-0.139,0-0.257,0.05-0.353,0.149
		s-0.144,0.229-0.144,0.39c0,0.169,0.051,0.305,0.152,0.406s0.242,0.153,0.422,0.154l-0.037,0.361
		c-0.27-0.025-0.475-0.118-0.616-0.279S2.347,9.63,2.347,9.358c0-0.275,0.076-0.492,0.229-0.652s0.341-0.24,0.566-0.24
		c0.115,0,0.227,0.023,0.338,0.07S3.707,8.66,3.83,8.769s0.291,0.29,0.504,0.542c0.177,0.211,0.297,0.346,0.36,0.406
		s0.126,0.109,0.19,0.148V8.462z"/>
	<path fill="#808080" d="M5.222,7.923H2.359V5.991h0.338v1.553h0.887V6.2h0.338v1.344h1.301V7.923z"/>
</g>
<g>
	<path fill="#808080" d="M15.821,24.369c-0.297,0-0.535-0.03-0.715-0.091c-0.181-0.061-0.32-0.151-0.418-0.271
		s-0.147-0.271-0.147-0.454c0-0.135,0.027-0.252,0.081-0.354s0.132-0.185,0.234-0.251c0.102-0.066,0.227-0.118,0.373-0.155
		s0.344-0.057,0.592-0.057c0.293,0,0.531,0.03,0.711,0.091c0.182,0.061,0.32,0.151,0.42,0.271c0.098,0.12,0.146,0.272,0.146,0.456
		c0,0.241-0.086,0.431-0.26,0.569C16.631,24.287,16.291,24.369,15.821,24.369z M15.821,24.053c0.411,0,0.685-0.048,0.82-0.145
		c0.137-0.096,0.205-0.215,0.205-0.356c0-0.142-0.068-0.26-0.205-0.356s-0.41-0.145-0.82-0.145c-0.412,0-0.687,0.048-0.822,0.145
		s-0.204,0.216-0.204,0.359c0,0.142,0.06,0.254,0.18,0.339C15.127,24,15.408,24.053,15.821,24.053z"/>
	<path fill="#808080" d="M16.76,20.807h0.296v1.656c-0.074,0.002-0.146-0.01-0.214-0.036c-0.113-0.042-0.224-0.11-0.333-0.203
		s-0.235-0.227-0.38-0.403c-0.223-0.272-0.4-0.456-0.53-0.552s-0.253-0.144-0.37-0.144c-0.121,0-0.225,0.043-0.308,0.131
		c-0.084,0.087-0.126,0.201-0.126,0.341c0,0.148,0.045,0.267,0.134,0.355c0.089,0.089,0.212,0.134,0.369,0.135l-0.032,0.316
		c-0.235-0.021-0.416-0.103-0.539-0.244c-0.124-0.142-0.186-0.331-0.186-0.569c0-0.24,0.067-0.431,0.2-0.571
		c0.134-0.14,0.299-0.21,0.497-0.21c0.1,0,0.198,0.021,0.295,0.062s0.199,0.109,0.307,0.205c0.106,0.095,0.254,0.253,0.439,0.474
		c0.156,0.185,0.261,0.303,0.316,0.355c0.055,0.052,0.11,0.096,0.166,0.13V20.807z"/>
	<path fill="#808080" d="M17.056,19.49h-0.601v1.087h-0.281l-1.624-1.144v-0.251h1.624v-0.338h0.281v0.338h0.601V19.49z
		 M16.174,19.49h-1.129l1.129,0.784V19.49z"/>
	<path fill="#808080" d="M17.056,17.689l-2.505,0.971v-0.358l1.821-0.651c0.145-0.052,0.281-0.096,0.41-0.132
		c-0.137-0.039-0.273-0.083-0.41-0.135l-1.821-0.677v-0.338l2.505,0.981V17.689z"/>
	<path fill="#808080" d="M17.056,16.071h-2.505v-0.863c0-0.195,0.012-0.344,0.036-0.446c0.033-0.144,0.093-0.266,0.179-0.367
		c0.112-0.132,0.254-0.231,0.428-0.297S15.567,14,15.789,14c0.19,0,0.359,0.022,0.506,0.067c0.146,0.044,0.27,0.101,0.365,0.171
		c0.096,0.069,0.172,0.146,0.227,0.228c0.056,0.083,0.098,0.182,0.127,0.299c0.027,0.117,0.042,0.251,0.042,0.403V16.071z
		 M16.76,15.74v-0.535c0-0.165-0.016-0.294-0.046-0.389c-0.03-0.094-0.074-0.169-0.13-0.225c-0.078-0.079-0.184-0.14-0.316-0.184
		s-0.295-0.066-0.483-0.066c-0.263,0-0.464,0.043-0.604,0.129s-0.235,0.191-0.283,0.314c-0.034,0.089-0.051,0.231-0.051,0.429v0.526
		H16.76z"/>
	<path fill="#808080" d="M16.178,11.756l0.084-0.332c0.271,0.069,0.479,0.194,0.622,0.375s0.214,0.401,0.214,0.662
		c0,0.271-0.055,0.49-0.164,0.659c-0.109,0.169-0.27,0.298-0.479,0.386c-0.207,0.088-0.432,0.132-0.671,0.132
		c-0.261,0-0.488-0.05-0.683-0.149s-0.342-0.242-0.443-0.426c-0.101-0.184-0.151-0.386-0.151-0.607c0-0.25,0.064-0.461,0.191-0.632
		c0.128-0.171,0.307-0.29,0.539-0.357l0.077,0.326c-0.183,0.058-0.315,0.143-0.398,0.253s-0.125,0.25-0.125,0.417
		c0,0.192,0.046,0.354,0.138,0.483c0.092,0.129,0.217,0.22,0.371,0.272c0.156,0.052,0.316,0.079,0.482,0.079
		c0.213,0,0.398-0.031,0.557-0.093c0.16-0.062,0.278-0.159,0.357-0.29c0.078-0.131,0.117-0.273,0.117-0.426
		c0-0.186-0.053-0.343-0.16-0.472C16.547,11.888,16.389,11.801,16.178,11.756z"/>
	<path fill="#808080" d="M16.304,11.174h-0.31v-0.945h0.31V11.174z"/>
	<path fill="#808080" d="M17.056,8.817v0.308h-1.96c0.07,0.074,0.141,0.171,0.211,0.291c0.071,0.12,0.125,0.229,0.16,0.324h-0.298
		c-0.081-0.172-0.179-0.323-0.294-0.451c-0.115-0.129-0.227-0.22-0.335-0.273V8.817H17.056z"/>
	<path fill="#808080" d="M17.056,8.104h-0.308L15.143,6.82c-0.113-0.091-0.212-0.178-0.296-0.26v1.398h-0.296V6.164h0.296
		l1.738,1.407l0.176,0.152v-1.6h0.296V8.104z"/>
	<path fill="#808080" d="M21.1,25.659l-0.047-0.352c0.199-0.041,0.343-0.109,0.431-0.206s0.132-0.215,0.132-0.354
		c0-0.166-0.057-0.305-0.172-0.419s-0.256-0.171-0.426-0.171c-0.162,0-0.295,0.053-0.399,0.158s-0.157,0.24-0.157,0.402
		c0,0.066,0.014,0.149,0.039,0.248l-0.309-0.039c0.002-0.023,0.004-0.042,0.004-0.057c0-0.15-0.039-0.285-0.117-0.404
		s-0.199-0.18-0.361-0.18c-0.129,0-0.236,0.043-0.32,0.131s-0.127,0.2-0.127,0.338c0,0.137,0.043,0.25,0.129,0.342
		s0.215,0.15,0.387,0.176l-0.063,0.352c-0.236-0.043-0.418-0.141-0.548-0.293s-0.194-0.342-0.194-0.568
		c0-0.156,0.033-0.3,0.101-0.432s0.159-0.232,0.274-0.302s0.238-0.104,0.369-0.104c0.123,0,0.236,0.033,0.338,0.1
		s0.182,0.165,0.242,0.295c0.039-0.169,0.12-0.301,0.243-0.395s0.276-0.141,0.462-0.141c0.25,0,0.462,0.091,0.636,0.273
		s0.261,0.413,0.261,0.691c0,0.251-0.074,0.46-0.225,0.626S21.338,25.635,21.1,25.659z"/>
	<path fill="#808080" d="M20.444,23.436c-0.338,0-0.611-0.035-0.817-0.104s-0.366-0.173-0.478-0.311s-0.168-0.31-0.168-0.519
		c0-0.154,0.031-0.289,0.093-0.404s0.151-0.211,0.268-0.287s0.259-0.135,0.426-0.178s0.394-0.064,0.677-0.064
		c0.336,0,0.607,0.035,0.813,0.104s0.366,0.172,0.479,0.31s0.169,0.311,0.169,0.521c0,0.276-0.1,0.493-0.297,0.65
		C21.369,23.342,20.981,23.436,20.444,23.436z M20.444,23.075c0.471,0,0.783-0.055,0.938-0.165s0.233-0.246,0.233-0.407
		s-0.078-0.297-0.234-0.407s-0.469-0.165-0.938-0.165c-0.471,0-0.785,0.055-0.939,0.165s-0.232,0.247-0.232,0.411
		c0,0.162,0.068,0.291,0.205,0.387C19.651,23.014,19.973,23.075,20.444,23.075z"/>
	<path fill="#808080" d="M21.856,20.251l-2.863,1.109v-0.41l2.08-0.744c0.166-0.06,0.322-0.11,0.469-0.15
		c-0.156-0.044-0.313-0.096-0.469-0.154l-2.08-0.773v-0.387l2.863,1.121V20.251z"/>
	<path fill="#808080" d="M21.856,18.401h-2.863v-0.986c0-0.223,0.014-0.393,0.041-0.51c0.037-0.164,0.105-0.304,0.205-0.42
		c0.127-0.151,0.291-0.264,0.489-0.339s0.425-0.112,0.681-0.112c0.217,0,0.41,0.025,0.578,0.076s0.307,0.116,0.417,0.195
		s0.196,0.167,0.26,0.261s0.11,0.208,0.144,0.342s0.049,0.287,0.049,0.46V18.401z M21.518,18.022v-0.611
		c0-0.189-0.018-0.337-0.053-0.444s-0.084-0.193-0.148-0.257c-0.09-0.09-0.211-0.16-0.362-0.21s-0.335-0.075-0.552-0.075
		c-0.299,0-0.529,0.049-0.69,0.147s-0.269,0.218-0.323,0.358c-0.039,0.102-0.059,0.265-0.059,0.49v0.602H21.518z"/>
	<path fill="#808080" d="M20.852,13.469l0.096-0.379c0.311,0.08,0.549,0.222,0.712,0.429s0.245,0.458,0.245,0.757
		c0,0.309-0.063,0.56-0.188,0.753s-0.308,0.34-0.546,0.441s-0.494,0.151-0.768,0.151c-0.299,0-0.559-0.057-0.78-0.171
		s-0.391-0.276-0.506-0.486s-0.173-0.442-0.173-0.694c0-0.287,0.072-0.527,0.219-0.723s0.352-0.332,0.615-0.408l0.088,0.373
		c-0.209,0.066-0.359,0.163-0.455,0.289s-0.143,0.285-0.143,0.477c0,0.22,0.053,0.404,0.158,0.552s0.247,0.251,0.425,0.312
		s0.36,0.09,0.55,0.09c0.244,0,0.456-0.036,0.638-0.106s0.317-0.181,0.407-0.331s0.135-0.312,0.135-0.486
		c0-0.212-0.061-0.392-0.184-0.539S21.092,13.522,20.852,13.469z"/>
	<path fill="#808080" d="M21.856,11.442v0.352h-2.24c0.08,0.084,0.162,0.196,0.242,0.333s0.141,0.261,0.182,0.37h-0.34
		c-0.092-0.197-0.205-0.369-0.336-0.516s-0.26-0.251-0.383-0.313v-0.227H21.856z"/>
	<path fill="#808080" d="M20.444,10.542c-0.338,0-0.611-0.035-0.817-0.104s-0.366-0.173-0.478-0.311s-0.168-0.31-0.168-0.519
		c0-0.154,0.031-0.289,0.093-0.404s0.151-0.211,0.268-0.287s0.259-0.135,0.426-0.178s0.394-0.064,0.677-0.064
		c0.336,0,0.607,0.035,0.813,0.104s0.366,0.172,0.479,0.31s0.169,0.311,0.169,0.521c0,0.276-0.1,0.493-0.297,0.65
		C21.369,10.448,20.981,10.542,20.444,10.542z M20.444,10.18c0.471,0,0.783-0.055,0.938-0.165s0.233-0.246,0.233-0.407
		s-0.078-0.297-0.234-0.407s-0.469-0.165-0.938-0.165c-0.471,0-0.785,0.055-0.939,0.165s-0.232,0.247-0.232,0.411
		c0,0.162,0.068,0.291,0.205,0.387C19.651,10.12,19.973,10.18,20.444,10.18z"/>
	<path fill="#808080" d="M21.856,8.489l-2.863-1.1V6.981l2.863-1.172v0.432l-0.867,0.334v1.197l0.867,0.314V8.489z M20.68,7.663
		V6.692l-0.793,0.299c-0.24,0.091-0.439,0.159-0.594,0.203c0.184,0.037,0.365,0.088,0.547,0.154L20.68,7.663z"/>
	<path fill="#808080" d="M26.319,33.305h0.338v1.893c-0.085,0.002-0.166-0.012-0.244-0.041c-0.129-0.049-0.256-0.125-0.381-0.231
		s-0.27-0.259-0.434-0.46c-0.256-0.311-0.458-0.521-0.607-0.631c-0.148-0.109-0.289-0.164-0.422-0.164
		c-0.14,0-0.258,0.05-0.354,0.149s-0.143,0.229-0.143,0.39c0,0.17,0.051,0.305,0.152,0.406s0.242,0.152,0.422,0.154l-0.037,0.361
		c-0.27-0.025-0.476-0.117-0.617-0.279c-0.141-0.162-0.211-0.379-0.211-0.65c0-0.275,0.076-0.492,0.229-0.652s0.341-0.24,0.566-0.24
		c0.114,0,0.227,0.023,0.338,0.07c0.11,0.047,0.227,0.125,0.35,0.233c0.122,0.108,0.29,0.29,0.504,0.542
		c0.177,0.211,0.297,0.346,0.359,0.406c0.063,0.061,0.127,0.109,0.191,0.148V33.305z"/>
	<path fill="#808080" d="M26.319,31.081h0.338v1.893c-0.085,0.002-0.166-0.012-0.244-0.041c-0.129-0.049-0.256-0.125-0.381-0.231
		s-0.27-0.259-0.434-0.46c-0.256-0.311-0.458-0.521-0.607-0.631c-0.148-0.109-0.289-0.164-0.422-0.164
		c-0.14,0-0.258,0.05-0.354,0.149s-0.143,0.229-0.143,0.39c0,0.17,0.051,0.305,0.152,0.406s0.242,0.152,0.422,0.154l-0.037,0.361
		c-0.27-0.025-0.476-0.117-0.617-0.279c-0.141-0.162-0.211-0.379-0.211-0.65c0-0.275,0.076-0.492,0.229-0.652s0.341-0.24,0.566-0.24
		c0.114,0,0.227,0.023,0.338,0.07c0.11,0.047,0.227,0.125,0.35,0.233c0.122,0.108,0.29,0.29,0.504,0.542
		c0.177,0.211,0.297,0.346,0.359,0.406c0.063,0.061,0.127,0.109,0.191,0.148V31.081z"/>
	<path fill="#808080" d="M25.244,30.704c-0.339,0-0.611-0.035-0.818-0.104c-0.206-0.069-0.365-0.173-0.477-0.311
		c-0.112-0.138-0.168-0.31-0.168-0.519c0-0.154,0.03-0.289,0.092-0.404c0.063-0.115,0.151-0.211,0.268-0.287
		c0.117-0.076,0.259-0.135,0.426-0.178c0.168-0.043,0.394-0.064,0.678-0.064c0.336,0,0.606,0.035,0.813,0.104
		c0.207,0.068,0.366,0.172,0.479,0.31c0.113,0.138,0.17,0.312,0.17,0.521c0,0.275-0.1,0.492-0.297,0.65
		C26.17,30.61,25.781,30.704,25.244,30.704z M25.244,30.343c0.47,0,0.782-0.055,0.938-0.165c0.156-0.11,0.234-0.245,0.234-0.407
		s-0.078-0.297-0.234-0.407s-0.469-0.165-0.938-0.165c-0.472,0-0.785,0.055-0.939,0.165c-0.155,0.11-0.232,0.247-0.232,0.411
		c0,0.162,0.068,0.291,0.205,0.387C24.451,30.282,24.774,30.343,25.244,30.343z"/>
	<path fill="#808080" d="M26.705,28.645l-2.961-0.83v-0.281l2.961,0.828V28.645z"/>
	<path fill="#808080" d="M26.319,25.52h0.338v1.893c-0.085,0.002-0.166-0.012-0.244-0.041c-0.129-0.049-0.256-0.125-0.381-0.231
		s-0.27-0.259-0.434-0.46c-0.256-0.311-0.458-0.521-0.607-0.631c-0.148-0.109-0.289-0.164-0.422-0.164
		c-0.14,0-0.258,0.05-0.354,0.149s-0.143,0.229-0.143,0.39c0,0.169,0.051,0.305,0.152,0.406s0.242,0.153,0.422,0.154l-0.037,0.361
		c-0.27-0.025-0.476-0.117-0.617-0.279c-0.141-0.162-0.211-0.378-0.211-0.65c0-0.275,0.076-0.492,0.229-0.652s0.341-0.24,0.566-0.24
		c0.114,0,0.227,0.023,0.338,0.07c0.11,0.047,0.227,0.125,0.35,0.233c0.122,0.109,0.29,0.29,0.504,0.542
		c0.177,0.211,0.297,0.346,0.359,0.406c0.063,0.06,0.127,0.109,0.191,0.148V25.52z"/>
	<path fill="#808080" d="M25.906,25.143l-0.031-0.369c0.18-0.027,0.314-0.091,0.404-0.19c0.091-0.1,0.137-0.22,0.137-0.36
		c0-0.169-0.064-0.313-0.191-0.43c-0.128-0.117-0.297-0.176-0.508-0.176c-0.201,0-0.359,0.056-0.475,0.169
		c-0.116,0.113-0.174,0.26-0.174,0.442c0,0.113,0.025,0.215,0.076,0.307c0.052,0.091,0.119,0.163,0.201,0.215l-0.043,0.33
		l-1.471-0.277V23.38h0.336v1.143l0.77,0.154c-0.12-0.172-0.18-0.352-0.18-0.541c0-0.25,0.086-0.461,0.26-0.633
		c0.173-0.172,0.396-0.258,0.668-0.258c0.259,0,0.482,0.076,0.672,0.227c0.231,0.184,0.348,0.434,0.348,0.752
		c0,0.26-0.073,0.473-0.219,0.638C26.34,25.026,26.147,25.12,25.906,25.143z"/>
	<path fill="#808080" d="M25.244,22.919c-0.339,0-0.611-0.035-0.818-0.104c-0.206-0.07-0.365-0.173-0.477-0.311
		c-0.112-0.137-0.168-0.31-0.168-0.519c0-0.154,0.03-0.289,0.092-0.404c0.063-0.116,0.151-0.211,0.268-0.287
		c0.117-0.076,0.259-0.135,0.426-0.178c0.168-0.043,0.394-0.064,0.678-0.064c0.336,0,0.606,0.035,0.813,0.104
		c0.207,0.069,0.366,0.172,0.479,0.31c0.113,0.137,0.17,0.311,0.17,0.521c0,0.276-0.1,0.493-0.297,0.65
		C26.17,22.824,25.781,22.919,25.244,22.919z M25.244,22.557c0.47,0,0.782-0.055,0.938-0.165c0.156-0.11,0.234-0.246,0.234-0.407
		s-0.078-0.297-0.234-0.407s-0.469-0.165-0.938-0.165c-0.472,0-0.785,0.055-0.939,0.165c-0.155,0.11-0.232,0.247-0.232,0.411
		c0,0.162,0.068,0.291,0.205,0.387C24.451,22.497,24.774,22.557,25.244,22.557z"/>
	<path fill="#808080" d="M26.656,19.733l-2.863,1.109v-0.41l2.08-0.744c0.166-0.06,0.322-0.11,0.469-0.15
		c-0.156-0.044-0.313-0.096-0.469-0.154l-2.08-0.773v-0.387l2.863,1.121V19.733z"/>
	<path fill="#808080" d="M26.656,18.495l-2.863-1.1v-0.408l2.863-1.172v0.432l-0.867,0.334v1.197l0.867,0.314V18.495z
		 M25.481,17.669v-0.971l-0.793,0.299c-0.241,0.091-0.439,0.159-0.594,0.203c0.184,0.037,0.365,0.088,0.547,0.154L25.481,17.669z"/>
	<path fill="#808080" d="M25.653,13.469l0.096-0.379c0.311,0.08,0.548,0.222,0.711,0.429c0.164,0.207,0.246,0.458,0.246,0.757
		c0,0.309-0.063,0.56-0.189,0.753c-0.125,0.193-0.307,0.34-0.545,0.441s-0.494,0.151-0.768,0.151c-0.299,0-0.559-0.057-0.781-0.171
		c-0.222-0.114-0.391-0.276-0.506-0.486s-0.172-0.442-0.172-0.694c0-0.287,0.072-0.527,0.219-0.723
		c0.146-0.195,0.351-0.332,0.615-0.408l0.088,0.373c-0.209,0.066-0.36,0.163-0.455,0.289c-0.096,0.126-0.143,0.285-0.143,0.477
		c0,0.22,0.053,0.404,0.158,0.552s0.246,0.251,0.424,0.312s0.361,0.09,0.551,0.09c0.243,0,0.455-0.036,0.637-0.106
		s0.318-0.181,0.408-0.331s0.135-0.312,0.135-0.486c0-0.212-0.062-0.392-0.184-0.539C26.074,13.621,25.893,13.522,25.653,13.469z"/>
	<path fill="#808080" d="M26.656,11.442v0.352h-2.24c0.08,0.084,0.161,0.196,0.242,0.333c0.08,0.137,0.141,0.261,0.182,0.37H24.5
		c-0.093-0.197-0.205-0.369-0.336-0.516c-0.132-0.147-0.26-0.251-0.383-0.313v-0.227H26.656z"/>
	<path fill="#808080" d="M25.244,10.542c-0.339,0-0.611-0.035-0.818-0.104c-0.206-0.07-0.365-0.173-0.477-0.311
		c-0.112-0.137-0.168-0.31-0.168-0.519c0-0.154,0.03-0.289,0.092-0.404c0.063-0.116,0.151-0.211,0.268-0.287
		c0.117-0.076,0.259-0.135,0.426-0.178c0.168-0.043,0.394-0.064,0.678-0.064c0.336,0,0.606,0.035,0.813,0.104
		c0.207,0.069,0.366,0.172,0.479,0.31c0.113,0.137,0.17,0.311,0.17,0.521c0,0.276-0.1,0.493-0.297,0.65
		C26.17,10.448,25.781,10.542,25.244,10.542z M25.244,10.18c0.47,0,0.782-0.055,0.938-0.165c0.156-0.11,0.234-0.246,0.234-0.407
		s-0.078-0.297-0.234-0.407s-0.469-0.165-0.938-0.165c-0.472,0-0.785,0.055-0.939,0.165c-0.155,0.11-0.232,0.247-0.232,0.411
		c0,0.162,0.068,0.291,0.205,0.387C24.451,10.12,24.774,10.18,25.244,10.18z"/>
	<path fill="#808080" d="M26.656,8.489l-2.863-1.1V6.981l2.863-1.172v0.432l-0.867,0.334v1.197l0.867,0.314V8.489z M25.481,7.663
		V6.692l-0.793,0.299c-0.241,0.091-0.439,0.159-0.594,0.203c0.184,0.037,0.365,0.088,0.547,0.154L25.481,7.663z"/>
</g>
<g>
	<path fill="#808080" d="M16.037,33.213c0-0.216,0.057-0.428,0.168-0.634c0.11-0.207,0.27-0.367,0.477-0.482
		s0.422-0.172,0.646-0.172c0.223,0,0.436,0.057,0.641,0.17s0.365,0.271,0.479,0.477s0.17,0.418,0.17,0.642s-0.057,0.437-0.17,0.642
		s-0.273,0.363-0.479,0.479c-0.205,0.113-0.418,0.17-0.641,0.17c-0.225,0-0.439-0.058-0.646-0.174
		c-0.207-0.115-0.366-0.275-0.477-0.482C16.094,33.64,16.037,33.428,16.037,33.213z M16.252,33.213c0,0.181,0.046,0.357,0.139,0.528
		c0.093,0.172,0.226,0.307,0.398,0.402c0.172,0.098,0.352,0.146,0.539,0.146c0.186,0,0.363-0.048,0.534-0.143
		c0.171-0.096,0.303-0.229,0.397-0.4c0.096-0.17,0.143-0.349,0.143-0.534s-0.047-0.364-0.143-0.534
		c-0.095-0.172-0.227-0.305-0.397-0.398c-0.171-0.096-0.349-0.143-0.534-0.143c-0.188,0-0.367,0.049-0.539,0.145
		c-0.173,0.096-0.306,0.23-0.398,0.402S16.252,33.032,16.252,33.213z M18.041,33.778h-1.389v-0.477c0-0.163,0.014-0.281,0.039-0.354
		c0.025-0.073,0.07-0.131,0.135-0.174c0.063-0.044,0.131-0.066,0.203-0.066c0.102,0,0.189,0.037,0.265,0.109
		s0.117,0.168,0.126,0.287c0.021-0.049,0.045-0.088,0.074-0.117c0.055-0.056,0.146-0.124,0.275-0.205l0.271-0.17v0.273l-0.219,0.123
		c-0.172,0.098-0.279,0.176-0.323,0.234c-0.032,0.041-0.048,0.102-0.048,0.18v0.132h0.59V33.778z M17.26,33.554v-0.272
		c0-0.129-0.02-0.218-0.059-0.266c-0.038-0.047-0.09-0.07-0.153-0.07c-0.041,0-0.077,0.012-0.11,0.034
		c-0.032,0.022-0.057,0.054-0.072,0.095s-0.023,0.115-0.023,0.225v0.255H17.26z"/>
	<path fill="#808080" d="M19.08,33.735v-0.331h1.447c0.252,0,0.453,0.028,0.601,0.085c0.147,0.058,0.269,0.16,0.361,0.309
		s0.14,0.344,0.14,0.586c0,0.234-0.041,0.426-0.121,0.576c-0.082,0.148-0.198,0.256-0.352,0.318
		c-0.153,0.064-0.363,0.096-0.629,0.096H19.08v-0.33h1.446c0.218,0,0.378-0.021,0.481-0.062c0.103-0.04,0.182-0.11,0.238-0.208
		c0.056-0.1,0.084-0.219,0.084-0.361c0-0.244-0.056-0.418-0.166-0.521c-0.111-0.104-0.323-0.156-0.638-0.156H19.08z"/>
	<path fill="#808080" d="M20.781,32.966l-0.027-0.313c0.125-0.016,0.229-0.05,0.309-0.104c0.08-0.055,0.145-0.139,0.194-0.252
		c0.05-0.115,0.075-0.242,0.075-0.385c0-0.127-0.02-0.238-0.057-0.336c-0.038-0.096-0.09-0.168-0.155-0.216
		s-0.137-0.071-0.214-0.071c-0.079,0-0.148,0.023-0.207,0.068c-0.059,0.046-0.107,0.121-0.146,0.227
		c-0.027,0.066-0.068,0.215-0.123,0.445s-0.107,0.392-0.156,0.484c-0.063,0.119-0.141,0.209-0.233,0.268s-0.196,0.088-0.312,0.088
		c-0.127,0-0.245-0.037-0.355-0.107c-0.109-0.072-0.193-0.178-0.25-0.314c-0.057-0.139-0.086-0.292-0.086-0.461
		c0-0.186,0.031-0.35,0.09-0.49c0.061-0.143,0.148-0.252,0.265-0.328s0.247-0.117,0.396-0.123l0.023,0.318
		c-0.158,0.018-0.278,0.074-0.359,0.174c-0.08,0.098-0.121,0.244-0.121,0.436c0,0.201,0.037,0.348,0.11,0.439
		s0.162,0.137,0.266,0.137c0.09,0,0.164-0.032,0.222-0.098c0.059-0.063,0.118-0.23,0.18-0.5c0.061-0.27,0.113-0.453,0.159-0.555
		c0.067-0.145,0.152-0.253,0.255-0.322c0.104-0.069,0.223-0.104,0.357-0.104c0.133,0,0.258,0.037,0.377,0.113
		c0.117,0.076,0.209,0.187,0.274,0.33c0.065,0.143,0.099,0.303,0.099,0.482c0,0.227-0.033,0.416-0.1,0.57
		c-0.066,0.152-0.165,0.273-0.298,0.359C21.099,32.915,20.949,32.961,20.781,32.966z"/>
</g>
<g>
	<g>
		<g>
			<path fill="#808080" d="M15.895,46.539c-0.104,0-0.207-0.036-0.287-0.104c-0.104-0.086-0.166-0.213-0.166-0.35v-3.088
				c0-0.235,0.18-0.431,0.415-0.452l4.971-0.417v-1.533c0-0.012,0-0.029-0.037-0.065c-0.156-0.151-0.558-0.239-0.761-0.232
				l-4.101,0.326c-0.248,0.02-0.467-0.166-0.486-0.416c-0.02-0.248,0.167-0.466,0.415-0.485l4.123-0.326
				c0.381-0.012,1.049,0.106,1.438,0.485c0.204,0.198,0.313,0.444,0.313,0.714v1.949c0,0.235-0.181,0.432-0.414,0.452l-2.334,0.194
				l2.581,2.092c0.193,0.157,0.224,0.441,0.066,0.636s-0.441,0.225-0.637,0.066l-2.352-1.906v1.555c0,0.217-0.153,0.402-0.365,0.443
				l-2.296,0.453C15.952,46.536,15.924,46.539,15.895,46.539z M16.347,43.413v2.125l1.392-0.276v-1.965L16.347,43.413z"/>
		</g>
	</g>
</g>
<g>
	<path fill="#808080" d="M25.098,46.085c-0.053,0.146-0.129,0.254-0.229,0.324c-0.099,0.07-0.217,0.105-0.355,0.105
		c-0.208,0-0.383-0.074-0.525-0.225c-0.142-0.15-0.213-0.35-0.213-0.598c0-0.25,0.073-0.451,0.219-0.604
		c0.145-0.152,0.321-0.229,0.529-0.229c0.133,0,0.249,0.035,0.348,0.104c0.098,0.069,0.174,0.175,0.227,0.317
		c0.058-0.176,0.15-0.31,0.277-0.401c0.128-0.092,0.28-0.138,0.457-0.138c0.245,0,0.451,0.086,0.617,0.26
		c0.167,0.174,0.25,0.4,0.25,0.684s-0.083,0.51-0.25,0.684c-0.168,0.174-0.377,0.26-0.627,0.26c-0.186,0-0.342-0.047-0.467-0.142
		C25.23,46.393,25.144,46.259,25.098,46.085z M24.502,46.155c0.136,0,0.246-0.043,0.332-0.131s0.129-0.201,0.129-0.34
		c0-0.135-0.042-0.246-0.127-0.333c-0.086-0.087-0.19-0.13-0.314-0.13c-0.129,0-0.236,0.045-0.324,0.134s-0.133,0.2-0.133,0.333
		c0,0.135,0.043,0.246,0.129,0.334S24.383,46.155,24.502,46.155z M25.824,46.268c0.101,0,0.197-0.023,0.291-0.071
		s0.167-0.118,0.219-0.212c0.051-0.094,0.076-0.195,0.076-0.303c0-0.168-0.054-0.307-0.162-0.416
		c-0.107-0.109-0.245-0.164-0.412-0.164c-0.169,0-0.309,0.057-0.42,0.169c-0.11,0.112-0.166,0.253-0.166,0.423
		c0,0.166,0.055,0.303,0.164,0.411S25.66,46.268,25.824,46.268z"/>
	<path fill="#808080" d="M25.901,44.401l-0.031-0.369c0.18-0.027,0.315-0.091,0.406-0.19c0.09-0.1,0.135-0.22,0.135-0.36
		c0-0.17-0.063-0.313-0.191-0.43c-0.127-0.117-0.297-0.176-0.508-0.176c-0.2,0-0.358,0.057-0.475,0.169
		c-0.115,0.112-0.174,0.261-0.174,0.442c0,0.113,0.026,0.215,0.078,0.307c0.051,0.092,0.117,0.162,0.199,0.215l-0.043,0.33
		l-1.471-0.277v-1.424h0.336v1.143l0.77,0.154c-0.119-0.172-0.18-0.352-0.18-0.541c0-0.25,0.087-0.461,0.26-0.633
		c0.174-0.172,0.396-0.258,0.668-0.258c0.26,0,0.483,0.076,0.672,0.227c0.232,0.184,0.348,0.434,0.348,0.752
		c0,0.26-0.072,0.473-0.219,0.638C26.335,44.284,26.142,44.378,25.901,44.401z"/>
	<path fill="#808080" d="M24.28,42.093c-0.149,0-0.277-0.053-0.383-0.159s-0.158-0.233-0.158-0.382c0-0.15,0.053-0.279,0.158-0.385
		s0.233-0.158,0.383-0.158c0.15,0,0.278,0.053,0.385,0.159c0.105,0.106,0.158,0.233,0.158,0.384c0,0.148-0.053,0.275-0.158,0.382
		S24.431,42.093,24.28,42.093z M24.28,41.88c0.092,0,0.17-0.032,0.234-0.097s0.096-0.142,0.096-0.233
		c0-0.09-0.031-0.167-0.096-0.231s-0.143-0.097-0.234-0.097c-0.091,0-0.168,0.032-0.232,0.097s-0.098,0.142-0.098,0.231
		c0,0.092,0.033,0.169,0.098,0.233S24.189,41.88,24.28,41.88z"/>
	<path fill="#808080" d="M25.647,38.391l0.096-0.379c0.312,0.08,0.549,0.223,0.713,0.429c0.163,0.206,0.244,0.458,0.244,0.757
		c0,0.309-0.063,0.56-0.188,0.753c-0.126,0.193-0.309,0.341-0.547,0.441s-0.494,0.151-0.768,0.151c-0.298,0-0.558-0.057-0.779-0.171
		c-0.223-0.114-0.391-0.276-0.506-0.486s-0.174-0.442-0.174-0.694c0-0.287,0.073-0.527,0.219-0.723
		c0.146-0.195,0.352-0.332,0.615-0.408l0.088,0.373c-0.208,0.066-0.359,0.162-0.455,0.289c-0.095,0.127-0.143,0.285-0.143,0.477
		c0,0.221,0.053,0.404,0.158,0.552s0.248,0.251,0.426,0.312s0.36,0.09,0.549,0.09c0.244,0,0.457-0.035,0.639-0.106
		s0.316-0.181,0.406-0.331s0.135-0.313,0.135-0.486c0-0.213-0.061-0.393-0.184-0.539C26.07,38.544,25.888,38.444,25.647,38.391z"/>
</g>
<rect x="3.324" y="70.759" fill="#CCCCCC" width="0.596" height="0.479"/>
<rect x="24.711" y="70.759" fill="#CCCCCC" width="0.596" height="0.479"/>
<g>
	<path d="M0,69.618c0,0.55,0.45,1,1,1h26.922c0.55,0,1-0.45,1-1v0.141c0,0.55-0.45,1-1,1H1c-0.55,0-1-0.45-1-1V69.618z"/>
	<path opacity="0.3" fill="#FFFFFF" d="M0,1.134c0-0.55,0.45-1,1-1h26.922c0.55,0,1,0.45,1,1V1c0-0.55-0.45-1-1-1H1
		C0.45,0,0,0.45,0,1V1.134z"/>
	<path opacity="0.3" fill="#FFFFFF" d="M28.922,52.151c0,0.55-0.45,1-1,1H1c-0.55,0-1-0.45-1-1v-0.134c0,0.55,0.45,1,1,1h26.922
		c0.55,0,1-0.45,1-1V52.151z"/>
</g>
</svg>
