<?xml version="1.0" encoding="utf-8"?>
<!-- Generator: Adobe Illustrator 15.1.0, SVG Export Plug-In . SVG Version: 6.00 Build 0)  -->
<!DOCTYPE svg PUBLIC "-//W3C//DTD SVG 1.1//EN" "http://www.w3.org/Graphics/SVG/1.1/DTD/svg11.dtd">
<svg version="1.1" id="Ebene_1" xmlns:svg="http://www.w3.org/2000/svg"
	 xmlns="http://www.w3.org/2000/svg" xmlns:xlink="http://www.w3.org/1999/xlink" x="0px" y="0px" width="36.576px"
	 height="34.209px" viewBox="0 0 36.576 34.209" enable-background="new 0 0 36.576 34.209" xml:space="preserve">
<g>
	<g>
		<rect x="3.59" y="33.674" fill="#CCCCCC" width="0.595" height="0.478"/>
		<rect x="25.19" y="33.674" fill="#CCCCCC" width="0.596" height="0.478"/>
		<rect x="32.39" y="33.674" fill="#CCCCCC" width="0.596" height="0.478"/>
		<g>
			<path fill="#1A1A1A" d="M36.576,32.737c0,0.551-0.45,1-1,1H1c-0.55,0-1-0.449-1-1v-11.35c0-0.55,0.45-1,1-1h34.576
				c0.55,0,1,0.45,1,1V32.737z"/>
		</g>
		<g>
			<path fill="#333333" d="M36.576,21.574c0,0.346-0.282,0.628-0.627,0.628H0.627C0.283,22.202,0,21.92,0,21.574V0.627
				C0,0.283,0.283,0,0.627,0h35.322c0.345,0,0.627,0.283,0.627,0.627V21.574L36.576,21.574z"/>
			<g>
				<circle fill="#1A1A1A" cx="18.251" cy="11.101" r="2.537"/>
				<circle cx="18.251" cy="11.362" r="0.596"/>
				<path d="M18.251,9.088c1.313,0,2.378,0.999,2.512,2.274c0.008-0.087,0.025-0.172,0.025-0.262c0-1.4-1.137-2.536-2.537-2.536
					c-1.4,0-2.536,1.136-2.536,2.536c0,0.09,0.018,0.175,0.026,0.262C15.874,10.087,16.939,9.088,18.251,9.088z"/>
			</g>
		</g>
		<g enable-background="new    ">
			<path fill="#808080" d="M1.167,2.343c0-0.27,0.072-0.481,0.217-0.634s0.332-0.229,0.561-0.229c0.15,0,0.286,0.035,0.406,0.107
				c0.121,0.071,0.212,0.172,0.275,0.3c0.063,0.128,0.095,0.273,0.095,0.437c0,0.165-0.033,0.313-0.1,0.442S2.462,2.996,2.34,3.063
				c-0.122,0.066-0.254,0.1-0.395,0.1c-0.153,0-0.29-0.036-0.41-0.11S1.323,2.877,1.261,2.75C1.198,2.622,1.167,2.486,1.167,2.343z
				 M1.389,2.347c0,0.195,0.053,0.35,0.158,0.463c0.105,0.112,0.237,0.169,0.396,0.169c0.162,0,0.295-0.057,0.4-0.171
				C2.448,2.694,2.5,2.533,2.5,2.324c0-0.133-0.022-0.248-0.067-0.347c-0.045-0.099-0.11-0.176-0.196-0.229
				c-0.086-0.055-0.183-0.082-0.29-0.082c-0.152,0-0.284,0.053-0.394,0.157C1.444,1.927,1.389,2.102,1.389,2.347z"/>
			<path fill="#808080" d="M2.993,3.135V1.509h0.324l0.385,1.151c0.035,0.107,0.061,0.188,0.078,0.24
				C3.798,2.842,3.827,2.755,3.866,2.64l0.389-1.131h0.29v1.626H4.337V1.774L3.865,3.135H3.67L3.2,1.751v1.384H2.993z"/>
			<path fill="#808080" d="M4.895,3.135V1.509h0.721c0.145,0,0.255,0.015,0.331,0.044s0.136,0.081,0.181,0.154
				c0.045,0.074,0.068,0.156,0.068,0.245c0,0.115-0.038,0.213-0.112,0.292s-0.19,0.13-0.346,0.15c0.057,0.028,0.1,0.055,0.129,0.081
				c0.063,0.058,0.123,0.13,0.179,0.217l0.283,0.442H6.057L5.842,2.797C5.779,2.7,5.728,2.625,5.687,2.573
				C5.646,2.521,5.61,2.485,5.578,2.464S5.513,2.429,5.479,2.421c-0.024-0.006-0.064-0.008-0.12-0.008H5.11v0.722H4.895z
				 M5.11,2.227h0.463c0.098,0,0.175-0.011,0.23-0.03C5.859,2.176,5.901,2.144,5.93,2.099s0.043-0.094,0.043-0.146
				c0-0.076-0.028-0.14-0.083-0.189S5.745,1.689,5.625,1.689H5.11V2.227z"/>
			<path fill="#808080" d="M6.467,2.343c0-0.27,0.072-0.481,0.217-0.634s0.332-0.229,0.561-0.229c0.15,0,0.286,0.035,0.406,0.107
				c0.121,0.071,0.212,0.172,0.275,0.3C7.99,2.016,8.021,2.162,8.021,2.325c0,0.165-0.033,0.313-0.1,0.442S7.761,2.996,7.639,3.063
				c-0.122,0.066-0.254,0.1-0.395,0.1c-0.153,0-0.29-0.036-0.41-0.11S6.622,2.877,6.56,2.75C6.498,2.622,6.467,2.486,6.467,2.343z
				 M6.688,2.347c0,0.195,0.053,0.35,0.158,0.463c0.105,0.112,0.237,0.169,0.396,0.169c0.162,0,0.295-0.057,0.4-0.171
				C7.748,2.694,7.8,2.533,7.8,2.324c0-0.133-0.022-0.248-0.067-0.347c-0.045-0.099-0.11-0.176-0.196-0.229
				C7.45,1.693,7.354,1.666,7.247,1.666c-0.152,0-0.284,0.053-0.394,0.157C6.744,1.927,6.688,2.102,6.688,2.347z"/>
			<path fill="#808080" d="M8.296,3.135V1.509h0.221l0.854,1.276V1.509h0.207v1.626H9.357L8.503,1.858v1.277H8.296z"/>
		</g>
		<g enable-background="new    ">
			<path fill="#808080" d="M1.994,5.224v-0.19l0.689-0.002v0.604C2.577,5.72,2.468,5.784,2.355,5.826
				C2.243,5.869,2.127,5.889,2.009,5.889c-0.16,0-0.305-0.034-0.436-0.103C1.443,5.718,1.345,5.62,1.278,5.491
				c-0.066-0.13-0.1-0.274-0.1-0.435c0-0.158,0.033-0.306,0.099-0.442c0.066-0.138,0.161-0.239,0.286-0.306
				c0.124-0.066,0.267-0.1,0.429-0.1c0.118,0,0.224,0.019,0.319,0.057c0.095,0.038,0.169,0.091,0.224,0.159
				C2.589,4.493,2.63,4.582,2.658,4.691L2.464,4.744C2.439,4.661,2.409,4.596,2.373,4.548C2.337,4.501,2.285,4.463,2.218,4.435
				S2.076,4.392,1.994,4.392c-0.098,0-0.184,0.016-0.255,0.045c-0.072,0.03-0.13,0.069-0.174,0.118S1.487,4.658,1.462,4.716
				C1.421,4.817,1.4,4.925,1.4,5.043c0,0.145,0.025,0.266,0.075,0.363s0.123,0.171,0.218,0.218C1.789,5.671,1.89,5.696,1.997,5.696
				c0.093,0,0.184-0.019,0.273-0.054c0.088-0.036,0.156-0.074,0.202-0.115V5.224H1.994z"/>
			<path fill="#808080" d="M2.918,5.436l0.209-0.018C3.144,5.52,3.18,5.597,3.236,5.648C3.293,5.7,3.361,5.725,3.441,5.725
				c0.096,0,0.177-0.036,0.244-0.108c0.066-0.072,0.1-0.169,0.1-0.288c0-0.114-0.032-0.204-0.096-0.27
				C3.625,4.993,3.541,4.96,3.438,4.96c-0.064,0-0.123,0.015-0.174,0.044C3.211,5.033,3.171,5.071,3.142,5.118L2.954,5.093
				l0.157-0.835H3.92v0.19H3.271L3.184,4.886c0.098-0.068,0.2-0.103,0.307-0.103c0.142,0,0.262,0.049,0.359,0.147
				s0.146,0.225,0.146,0.38c0,0.146-0.043,0.273-0.129,0.381C3.764,5.824,3.621,5.889,3.441,5.889c-0.148,0-0.269-0.041-0.362-0.124
				C2.985,5.682,2.932,5.573,2.918,5.436z"/>
			<path fill="#808080" d="M4.728,5.862l-0.63-1.626H4.33l0.423,1.182C4.787,5.512,4.815,5.6,4.838,5.683
				c0.025-0.089,0.054-0.178,0.087-0.266l0.439-1.182h0.219L4.948,5.862H4.728z"/>
			<path fill="#808080" d="M5.549,5.374v-0.2h0.613v0.2H5.549z"/>
			<path fill="#808080" d="M7.377,5.67v0.191H6.302C6.301,5.814,6.309,5.767,6.326,5.723C6.353,5.65,6.396,5.578,6.457,5.507
				c0.06-0.071,0.147-0.153,0.261-0.247c0.176-0.145,0.296-0.259,0.358-0.344s0.093-0.165,0.093-0.24c0-0.079-0.028-0.146-0.085-0.2
				s-0.13-0.082-0.221-0.082c-0.096,0-0.173,0.029-0.23,0.087S6.546,4.619,6.545,4.72L6.34,4.7c0.014-0.153,0.067-0.27,0.159-0.351
				c0.092-0.08,0.215-0.12,0.369-0.12c0.156,0,0.28,0.044,0.371,0.13C7.329,4.446,7.375,4.553,7.375,4.68
				c0,0.065-0.013,0.13-0.04,0.192C7.308,4.935,7.264,5.001,7.202,5.071S7.038,5.236,6.895,5.357
				c-0.12,0.101-0.197,0.169-0.231,0.205C6.63,5.598,6.602,5.633,6.58,5.67H7.377z"/>
		</g>
		<g enable-background="new    ">
			<path fill="#808080" d="M1.224,17.976v-1.626h0.61c0.124,0,0.224,0.017,0.299,0.05c0.075,0.032,0.134,0.083,0.176,0.151
				s0.064,0.14,0.064,0.215c0,0.069-0.019,0.135-0.057,0.196s-0.095,0.111-0.171,0.148c0.099,0.029,0.174,0.078,0.227,0.147
				c0.053,0.069,0.079,0.151,0.079,0.246c0,0.076-0.016,0.148-0.048,0.212c-0.032,0.066-0.072,0.115-0.119,0.152
				c-0.047,0.035-0.106,0.063-0.178,0.08c-0.072,0.018-0.159,0.027-0.263,0.027H1.224z M1.439,17.033h0.352
				c0.096,0,0.164-0.007,0.206-0.02c0.055-0.016,0.096-0.043,0.124-0.081c0.028-0.037,0.042-0.085,0.042-0.142
				c0-0.054-0.013-0.102-0.039-0.143s-0.063-0.069-0.111-0.084c-0.048-0.016-0.13-0.022-0.247-0.022H1.439V17.033z M1.439,17.784
				h0.405c0.07,0,0.119-0.004,0.146-0.008c0.05-0.01,0.091-0.025,0.125-0.045c0.033-0.021,0.061-0.051,0.082-0.09
				c0.021-0.041,0.032-0.086,0.032-0.138c0-0.061-0.016-0.113-0.047-0.158c-0.031-0.044-0.074-0.075-0.129-0.094
				c-0.055-0.019-0.135-0.027-0.238-0.027H1.439V17.784z"/>
			<path fill="#808080" d="M2.648,17.386c0-0.218,0.061-0.38,0.182-0.484c0.101-0.088,0.225-0.131,0.371-0.131
				c0.162,0,0.294,0.053,0.397,0.159c0.103,0.105,0.154,0.252,0.154,0.439c0,0.151-0.022,0.27-0.068,0.358
				c-0.045,0.086-0.112,0.154-0.199,0.201c-0.087,0.049-0.182,0.072-0.284,0.072c-0.165,0-0.298-0.053-0.4-0.158
				S2.648,17.585,2.648,17.386z M2.854,17.386c0,0.15,0.033,0.263,0.099,0.339c0.066,0.074,0.148,0.111,0.249,0.111
				c0.099,0,0.181-0.037,0.247-0.113c0.066-0.074,0.099-0.19,0.099-0.344c0-0.146-0.033-0.256-0.099-0.331s-0.148-0.112-0.247-0.112
				c-0.1,0-0.183,0.037-0.249,0.112C2.886,17.123,2.854,17.235,2.854,17.386z"/>
			<path fill="#808080" d="M4.421,17.796l0.029,0.178c-0.056,0.012-0.106,0.018-0.151,0.018c-0.072,0-0.128-0.012-0.168-0.035
				s-0.068-0.053-0.084-0.09c-0.017-0.037-0.024-0.117-0.024-0.236v-0.677H3.876v-0.155h0.146v-0.292l0.198-0.119v0.411h0.201v0.155
				H4.221v0.689c0,0.057,0.003,0.094,0.011,0.109c0.007,0.016,0.019,0.029,0.034,0.039c0.016,0.01,0.039,0.014,0.068,0.014
				C4.356,17.804,4.385,17.802,4.421,17.796z"/>
			<path fill="#808080" d="M5.052,17.796l0.029,0.178c-0.056,0.012-0.106,0.018-0.151,0.018c-0.072,0-0.128-0.012-0.168-0.035
				s-0.068-0.053-0.084-0.09c-0.017-0.037-0.024-0.117-0.024-0.236v-0.677H4.507v-0.155h0.146v-0.292l0.198-0.119v0.411h0.201v0.155
				H4.852v0.689c0,0.057,0.003,0.094,0.011,0.109c0.007,0.016,0.019,0.029,0.034,0.039c0.016,0.01,0.039,0.014,0.068,0.014
				C4.987,17.804,5.016,17.802,5.052,17.796z"/>
			<path fill="#808080" d="M5.173,17.386c0-0.218,0.061-0.38,0.182-0.484c0.101-0.088,0.225-0.131,0.371-0.131
				c0.162,0,0.294,0.053,0.397,0.159c0.103,0.105,0.154,0.252,0.154,0.439c0,0.151-0.022,0.27-0.068,0.358
				c-0.045,0.086-0.112,0.154-0.199,0.201c-0.087,0.049-0.182,0.072-0.284,0.072c-0.165,0-0.298-0.053-0.4-0.158
				S5.173,17.585,5.173,17.386z M5.379,17.386c0,0.15,0.033,0.263,0.099,0.339c0.066,0.074,0.148,0.111,0.249,0.111
				c0.099,0,0.181-0.037,0.247-0.113c0.066-0.074,0.099-0.19,0.099-0.344c0-0.146-0.033-0.256-0.099-0.331s-0.148-0.112-0.247-0.112
				c-0.1,0-0.183,0.037-0.249,0.112C5.412,17.123,5.379,17.235,5.379,17.386z"/>
			<path fill="#808080" d="M6.511,17.976v-1.178h0.178v0.165c0.037-0.058,0.086-0.104,0.147-0.139
				c0.062-0.035,0.131-0.053,0.21-0.053c0.087,0,0.159,0.018,0.214,0.054c0.056,0.036,0.095,0.087,0.118,0.152
				c0.093-0.138,0.214-0.206,0.364-0.206c0.117,0,0.207,0.032,0.27,0.097s0.094,0.164,0.094,0.299v0.809H7.909v-0.743
				c0-0.08-0.007-0.137-0.02-0.172c-0.013-0.035-0.037-0.063-0.07-0.085c-0.034-0.021-0.074-0.032-0.12-0.032
				c-0.083,0-0.151,0.027-0.206,0.082c-0.055,0.056-0.082,0.144-0.082,0.265v0.685h-0.2v-0.766c0-0.088-0.016-0.155-0.049-0.199
				s-0.086-0.066-0.16-0.066c-0.056,0-0.108,0.015-0.156,0.044c-0.048,0.03-0.083,0.073-0.104,0.13S6.71,17.256,6.71,17.364v0.612
				H6.511z"/>
			<path fill="#808080" d="M9.524,17.976l-0.63-1.626h0.233l0.423,1.182c0.034,0.095,0.063,0.183,0.085,0.265
				c0.025-0.088,0.054-0.178,0.087-0.265l0.439-1.182h0.219l-0.636,1.626H9.524z"/>
			<path fill="#808080" d="M10.509,16.579v-0.229h0.2v0.229H10.509z M10.509,17.976v-1.178h0.2v1.178H10.509z"/>
			<path fill="#808080" d="M11.819,17.596l0.206,0.026c-0.032,0.119-0.093,0.213-0.181,0.279s-0.2,0.1-0.337,0.1
				c-0.172,0-0.309-0.053-0.41-0.158c-0.101-0.105-0.151-0.255-0.151-0.447c0-0.198,0.051-0.352,0.153-0.461
				s0.234-0.164,0.397-0.164c0.158,0,0.286,0.054,0.386,0.16c0.1,0.107,0.15,0.259,0.15,0.453c0,0.012,0,0.029-0.001,0.053h-0.878
				c0.007,0.13,0.044,0.228,0.11,0.298c0.065,0.068,0.148,0.102,0.246,0.102c0.073,0,0.136-0.02,0.188-0.057
				C11.748,17.741,11.789,17.681,11.819,17.596z M11.164,17.273h0.657c-0.009-0.099-0.034-0.173-0.075-0.223
				c-0.063-0.077-0.146-0.115-0.247-0.115c-0.092,0-0.169,0.03-0.231,0.092S11.17,17.17,11.164,17.273z"/>
			<path fill="#808080" d="M12.493,17.976l-0.36-1.178h0.206l0.188,0.68l0.07,0.252c0.003-0.012,0.023-0.094,0.061-0.243
				l0.188-0.689h0.205l0.176,0.683l0.059,0.226l0.067-0.228l0.202-0.681h0.194l-0.368,1.178h-0.208l-0.188-0.706l-0.045-0.201
				l-0.238,0.907H12.493z"/>
		</g>
		<g enable-background="new    ">
			<path fill="#808080" d="M1.176,19.896v-1.146h0.228l0.271,0.813c0.025,0.074,0.043,0.131,0.055,0.168
				c0.013-0.041,0.033-0.102,0.061-0.184l0.274-0.797H2.27v1.146H2.123v-0.959l-0.333,0.959H1.654l-0.332-0.975v0.975H1.176z"/>
			<path fill="#808080" d="M2.388,19.896l0.44-1.146h0.163l0.469,1.146H3.288l-0.134-0.348H2.675l-0.125,0.348H2.388z M2.719,19.425
				h0.388l-0.12-0.316c-0.036-0.098-0.063-0.176-0.081-0.238c-0.015,0.074-0.035,0.146-0.062,0.219L2.719,19.425z"/>
			<path fill="#808080" d="M3.581,19.896v-1.146h0.395c0.089,0,0.157,0.006,0.204,0.018c0.066,0.014,0.122,0.041,0.168,0.082
				c0.061,0.051,0.106,0.115,0.136,0.195s0.045,0.17,0.045,0.271c0,0.088-0.01,0.164-0.03,0.232
				c-0.021,0.066-0.046,0.123-0.078,0.166c-0.032,0.045-0.067,0.078-0.104,0.104s-0.083,0.045-0.137,0.059
				c-0.053,0.012-0.115,0.02-0.184,0.02H3.581z M3.732,19.761h0.245c0.076,0,0.135-0.008,0.178-0.021s0.077-0.035,0.103-0.061
				c0.036-0.035,0.064-0.084,0.084-0.145s0.03-0.135,0.03-0.221c0-0.119-0.02-0.211-0.059-0.275
				c-0.039-0.064-0.087-0.107-0.143-0.129c-0.041-0.016-0.106-0.023-0.196-0.023H3.732V19.761z"/>
			<path fill="#808080" d="M4.74,19.896v-1.146h0.828v0.137H4.892v0.35h0.633v0.135H4.892v0.391h0.703v0.135H4.74z"/>
			<path fill="#808080" d="M6.274,19.896v-1.146h0.151v1.146H6.274z"/>
			<path fill="#808080" d="M6.691,19.896v-1.146h0.155l0.602,0.9v-0.9h0.146v1.146H7.438l-0.602-0.9v0.9H6.691z"/>
			<path fill="#808080" d="M9.11,19.493l0.152,0.039c-0.032,0.123-0.089,0.219-0.171,0.285c-0.083,0.064-0.184,0.098-0.303,0.098
				c-0.124,0-0.224-0.025-0.301-0.076C8.409,19.788,8.35,19.716,8.31,19.62c-0.04-0.094-0.061-0.197-0.061-0.307
				c0-0.119,0.023-0.223,0.068-0.313c0.046-0.088,0.11-0.156,0.195-0.201c0.084-0.047,0.176-0.07,0.277-0.07
				c0.115,0,0.211,0.029,0.289,0.088s0.133,0.141,0.164,0.246l-0.149,0.035c-0.026-0.084-0.065-0.145-0.116-0.182
				c-0.05-0.039-0.114-0.057-0.19-0.057c-0.088,0-0.162,0.021-0.221,0.063c-0.059,0.043-0.101,0.1-0.125,0.17
				c-0.024,0.072-0.036,0.145-0.036,0.221c0,0.098,0.014,0.182,0.042,0.254c0.029,0.074,0.073,0.127,0.133,0.164
				c0.06,0.035,0.125,0.053,0.194,0.053c0.085,0,0.157-0.023,0.216-0.072C9.049,19.663,9.089,19.589,9.11,19.493z"/>
			<path fill="#808080" d="M9.453,19.896v-1.146h0.152v0.471H10.2v-0.471h0.151v1.146H10.2v-0.541H9.604v0.541H9.453z"/>
			<path fill="#808080" d="M10.63,19.896v-1.146h0.151v1.146H10.63z"/>
			<path fill="#808080" d="M11.047,19.896v-1.146h0.155l0.602,0.9v-0.9h0.146v1.146h-0.156l-0.602-0.9v0.9H11.047z"/>
			<path fill="#808080" d="M12.078,19.896l0.44-1.146h0.163l0.469,1.146h-0.172l-0.134-0.348h-0.479l-0.125,0.348H12.078z
				 M12.408,19.425h0.388l-0.12-0.316c-0.036-0.098-0.063-0.176-0.081-0.238c-0.015,0.074-0.035,0.146-0.062,0.219L12.408,19.425z"
				/>
		</g>
	</g>
	<path opacity="0.2" fill="#FFFFFF" enable-background="new    " d="M0,0.627C0,0.283,0.283,0,0.627,0h35.322
		c0.345,0,0.627,0.283,0.627,0.627v0.314c0-0.345-0.282-0.627-0.627-0.627H0.627C0.283,0.314,0,0.596,0,0.941V0.627z"/>
	<path opacity="0.75" enable-background="new    " d="M36.576,21.574c0,0.346-0.282,0.628-0.627,0.628H0.627
		C0.283,22.202,0,21.92,0,21.574v-0.313c0,0.346,0.283,0.629,0.627,0.629h35.322c0.345,0,0.627-0.283,0.627-0.629V21.574
		L36.576,21.574z"/>
	<path opacity="0.75" enable-background="new    " d="M36.576,33.11c0,0.346-0.282,0.627-0.627,0.627H0.627
		C0.283,33.737,0,33.456,0,33.11v-0.313c0,0.347,0.283,0.628,0.627,0.628h35.322c0.345,0,0.627-0.281,0.627-0.628V33.11
		L36.576,33.11z"/>
</g>
<text transform="matrix(1 0 0 1 3.8877 15.1851)" fill="#808080" font-family="'ArialMT'" font-size="2.2714">12VDC</text>
<g enable-background="new    ">
	<path fill="#808080" d="M22.925,4.685h-0.2V3.413c-0.048,0.046-0.11,0.092-0.188,0.138s-0.148,0.08-0.211,0.104V3.46
		c0.111-0.053,0.209-0.116,0.293-0.19c0.084-0.075,0.143-0.147,0.178-0.218h0.129V4.685z"/>
</g>
<g enable-background="new    ">
	<path fill="#808080" d="M26.134,4.685v-0.39h-0.705V4.113l0.742-1.054h0.162v1.054h0.22v0.183h-0.22v0.39H26.134z M26.134,4.113
		V3.379l-0.51,0.733H26.134z"/>
</g>
<g enable-background="new    ">
	<path fill="#808080" d="M30.22,3.458l-0.199,0.016c-0.018-0.079-0.043-0.136-0.075-0.171c-0.054-0.058-0.12-0.086-0.2-0.086
		c-0.063,0-0.119,0.019-0.167,0.054c-0.063,0.046-0.112,0.112-0.149,0.2c-0.035,0.089-0.055,0.214-0.057,0.376
		c0.049-0.073,0.107-0.127,0.178-0.163c0.068-0.035,0.142-0.053,0.218-0.053c0.134,0,0.247,0.049,0.34,0.146
		c0.094,0.099,0.141,0.225,0.141,0.38c0,0.103-0.022,0.197-0.066,0.285c-0.044,0.087-0.104,0.154-0.181,0.201
		c-0.077,0.047-0.164,0.069-0.262,0.069c-0.167,0-0.303-0.061-0.408-0.184c-0.104-0.122-0.156-0.323-0.156-0.604
		c0-0.314,0.058-0.543,0.174-0.686c0.102-0.124,0.237-0.187,0.409-0.187c0.128,0,0.232,0.036,0.314,0.107
		C30.153,3.232,30.202,3.331,30.22,3.458z M29.403,4.159c0,0.068,0.016,0.134,0.045,0.197c0.029,0.063,0.069,0.11,0.122,0.144
		c0.052,0.032,0.107,0.049,0.165,0.049c0.084,0,0.156-0.034,0.217-0.102c0.062-0.068,0.092-0.16,0.092-0.277
		c0-0.112-0.03-0.201-0.09-0.266c-0.061-0.064-0.135-0.097-0.227-0.097c-0.09,0-0.166,0.032-0.229,0.097S29.403,4.053,29.403,4.159z
		"/>
</g>
<g enable-background="new    ">
	<path fill="#808080" d="M33.069,3.803c-0.082-0.03-0.145-0.073-0.184-0.13c-0.041-0.056-0.061-0.123-0.061-0.201
		c0-0.119,0.043-0.218,0.128-0.299c0.085-0.08,0.198-0.121,0.339-0.121c0.143,0,0.256,0.041,0.344,0.124
		c0.086,0.082,0.129,0.183,0.129,0.301c0,0.075-0.02,0.142-0.059,0.197c-0.04,0.056-0.1,0.099-0.181,0.129
		c0.1,0.032,0.176,0.085,0.228,0.157c0.053,0.073,0.078,0.159,0.078,0.26c0,0.139-0.049,0.256-0.146,0.351
		c-0.1,0.095-0.229,0.142-0.389,0.142s-0.29-0.047-0.389-0.143c-0.098-0.095-0.146-0.213-0.146-0.355
		c0-0.105,0.025-0.193,0.08-0.266C32.894,3.877,32.97,3.83,33.069,3.803z M32.966,4.216c0,0.057,0.013,0.111,0.04,0.165
		c0.026,0.053,0.067,0.095,0.12,0.123c0.053,0.029,0.11,0.044,0.172,0.044c0.096,0,0.174-0.03,0.236-0.092s0.094-0.14,0.094-0.234
		c0-0.096-0.033-0.175-0.097-0.238c-0.063-0.063-0.144-0.094-0.239-0.094c-0.095,0-0.172,0.031-0.234,0.093
		C32.996,4.045,32.966,4.123,32.966,4.216z M33.029,3.465c0,0.076,0.024,0.14,0.075,0.188c0.049,0.049,0.113,0.073,0.192,0.073
		c0.077,0,0.14-0.024,0.188-0.073c0.05-0.048,0.074-0.107,0.074-0.178c0-0.073-0.025-0.135-0.076-0.185s-0.113-0.075-0.189-0.075
		s-0.139,0.024-0.189,0.073C33.055,3.338,33.029,3.397,33.029,3.465z"/>
</g>
<g enable-background="new    ">
	<path fill="#808080" d="M21.95,18.728h-0.2v-1.273c-0.048,0.046-0.11,0.092-0.188,0.138c-0.078,0.045-0.148,0.081-0.211,0.104
		v-0.194c0.111-0.053,0.209-0.116,0.293-0.19c0.084-0.075,0.143-0.147,0.178-0.218h0.129V18.728z"/>
	<path fill="#808080" d="M23.497,17.5l-0.199,0.016c-0.018-0.079-0.043-0.136-0.074-0.171c-0.055-0.058-0.121-0.086-0.2-0.086
		c-0.063,0-0.12,0.019-0.167,0.054c-0.063,0.046-0.113,0.112-0.149,0.2c-0.036,0.089-0.056,0.213-0.057,0.375
		c0.048-0.072,0.106-0.127,0.177-0.162c0.069-0.035,0.143-0.053,0.219-0.053c0.133,0,0.246,0.049,0.34,0.146
		s0.141,0.225,0.141,0.379c0,0.104-0.022,0.197-0.066,0.285c-0.045,0.088-0.104,0.154-0.182,0.201
		c-0.076,0.047-0.164,0.07-0.262,0.07c-0.166,0-0.303-0.061-0.407-0.184s-0.157-0.324-0.157-0.605c0-0.314,0.059-0.542,0.174-0.685
		c0.102-0.124,0.238-0.187,0.41-0.187c0.127,0,0.232,0.036,0.314,0.107C23.432,17.274,23.48,17.373,23.497,17.5z M22.682,18.2
		c0,0.068,0.015,0.135,0.044,0.197s0.07,0.111,0.123,0.145c0.052,0.031,0.107,0.049,0.164,0.049c0.085,0,0.157-0.035,0.218-0.102
		c0.062-0.068,0.091-0.16,0.091-0.277c0-0.113-0.029-0.201-0.09-0.266c-0.06-0.064-0.135-0.098-0.227-0.098
		c-0.09,0-0.166,0.033-0.229,0.098C22.713,18.011,22.682,18.095,22.682,18.2z"/>
</g>
<g enable-background="new    ">
	<path fill="#808080" d="M25.12,18.688h-0.199v-1.273c-0.048,0.046-0.111,0.092-0.189,0.138s-0.147,0.081-0.209,0.104v-0.194
		c0.111-0.053,0.209-0.116,0.292-0.19c0.083-0.075,0.143-0.147,0.178-0.218h0.128V18.688z"/>
	<path fill="#808080" d="M25.633,18.259l0.2-0.027c0.022,0.113,0.062,0.195,0.117,0.246c0.055,0.049,0.121,0.074,0.201,0.074
		c0.094,0,0.173-0.033,0.237-0.098c0.065-0.064,0.097-0.146,0.097-0.242c0-0.092-0.029-0.168-0.09-0.227
		c-0.06-0.059-0.136-0.09-0.229-0.09c-0.037,0-0.084,0.008-0.141,0.023l0.022-0.176c0.013,0.002,0.024,0.002,0.032,0.002
		c0.085,0,0.162-0.021,0.229-0.066s0.103-0.113,0.103-0.206c0-0.073-0.025-0.134-0.074-0.182c-0.051-0.048-0.114-0.072-0.192-0.072
		c-0.077,0-0.143,0.024-0.194,0.073s-0.085,0.122-0.1,0.22l-0.199-0.035c0.023-0.134,0.08-0.237,0.166-0.312
		c0.086-0.073,0.193-0.11,0.322-0.11c0.09,0,0.171,0.02,0.246,0.058c0.074,0.038,0.131,0.09,0.171,0.155
		c0.04,0.066,0.06,0.136,0.06,0.21c0,0.07-0.02,0.134-0.057,0.191c-0.038,0.059-0.094,0.104-0.168,0.139
		c0.096,0.021,0.171,0.068,0.225,0.139c0.053,0.068,0.08,0.156,0.08,0.262c0,0.143-0.053,0.262-0.156,0.361
		c-0.104,0.098-0.234,0.148-0.393,0.148c-0.143,0-0.261-0.043-0.355-0.129C25.7,18.505,25.646,18.394,25.633,18.259z"/>
</g>
<g enable-background="new    ">
	<path fill="#808080" d="M29.271,18.685h-0.199v-1.272c-0.048,0.046-0.111,0.092-0.189,0.138s-0.147,0.08-0.209,0.103V17.46
		c0.111-0.053,0.209-0.116,0.292-0.19c0.083-0.075,0.143-0.147,0.178-0.218h0.128V18.685z"/>
	<path fill="#808080" d="M30.366,18.685h-0.2v-1.272c-0.048,0.046-0.11,0.092-0.188,0.138s-0.148,0.08-0.211,0.103V17.46
		c0.111-0.053,0.209-0.116,0.293-0.19c0.084-0.075,0.143-0.147,0.178-0.218h0.129V18.685z"/>
</g>
<g enable-background="new    ">
	<path fill="#808080" d="M32.792,18.31l0.191-0.018c0.018,0.09,0.048,0.154,0.094,0.195s0.104,0.061,0.176,0.061
		c0.063,0,0.115-0.014,0.162-0.041c0.046-0.029,0.084-0.066,0.113-0.113s0.055-0.109,0.074-0.189c0.021-0.08,0.03-0.162,0.03-0.244
		c0-0.01-0.001-0.021-0.001-0.041c-0.04,0.064-0.095,0.115-0.164,0.156c-0.068,0.039-0.144,0.059-0.225,0.059
		c-0.135,0-0.248-0.049-0.342-0.146c-0.093-0.098-0.139-0.227-0.139-0.386c0-0.164,0.049-0.297,0.146-0.397s0.219-0.151,0.365-0.151
		c0.106,0,0.202,0.028,0.29,0.086c0.088,0.057,0.154,0.138,0.199,0.243c0.046,0.105,0.068,0.258,0.068,0.458
		c0,0.207-0.022,0.373-0.067,0.496s-0.112,0.217-0.201,0.281s-0.193,0.096-0.313,0.096c-0.127,0-0.23-0.035-0.312-0.105
		S32.809,18.437,32.792,18.31z M33.609,17.591c0-0.114-0.03-0.205-0.091-0.272c-0.062-0.067-0.135-0.102-0.221-0.102
		c-0.089,0-0.166,0.037-0.232,0.109c-0.064,0.072-0.098,0.166-0.098,0.282c0,0.104,0.031,0.188,0.094,0.252s0.139,0.098,0.23,0.098
		c0.093,0,0.169-0.033,0.229-0.098C33.579,17.796,33.609,17.706,33.609,17.591z"/>
</g>
<g>
	
		<rect x="21.556" y="10.583" fill="none" stroke="#808080" stroke-width="0.25" stroke-miterlimit="10" width="2.301" height="1.035"/>
	<g>
		<line fill="none" stroke="#808080" stroke-width="0.25" stroke-miterlimit="10" x1="22.705" y1="5.874" x2="22.705" y2="10.583"/>
		<line fill="none" stroke="#808080" stroke-width="0.25" stroke-miterlimit="10" x1="22.078" y1="5.874" x2="23.333" y2="5.874"/>
	</g>
	<g>
		<g>
			<polyline fill="none" stroke="#808080" stroke-width="0.25" stroke-miterlimit="10" points="27.269,5.874 27.269,1.838 
				31.317,1.838 31.317,5.874 30.407,9.735 29.717,9.735 29.717,5.874 			"/>
			<line fill="none" stroke="#808080" stroke-width="0.25" stroke-miterlimit="10" x1="27.896" y1="5.874" x2="26.642" y2="5.874"/>
		</g>
		<line fill="none" stroke="#808080" stroke-width="0.25" stroke-miterlimit="10" x1="29.089" y1="5.874" x2="30.345" y2="5.874"/>
	</g>
	<g>
		<line fill="none" stroke="#808080" stroke-width="0.25" stroke-miterlimit="10" x1="32.668" y1="5.874" x2="33.924" y2="5.874"/>
		<g>
			<g>
				<polyline fill="none" stroke="#808080" stroke-width="0.25" stroke-miterlimit="10" points="33.296,5.874 33.296,9.735 
					32.166,9.735 				"/>
				<g>
					<polygon fill="#808080" points="32.235,9.5 31.825,9.737 32.235,9.974 					"/>
				</g>
			</g>
		</g>
	</g>
	<g>
		
			<line fill="none" stroke="#808080" stroke-width="0.25" stroke-miterlimit="10" x1="22.705" y1="16.328" x2="22.705" y2="11.619"/>
		
			<line fill="none" stroke="#808080" stroke-width="0.25" stroke-miterlimit="10" x1="22.078" y1="16.328" x2="23.333" y2="16.328"/>
	</g>
	<g>
		<g>
			<polyline fill="none" stroke="#808080" stroke-width="0.25" stroke-miterlimit="10" points="27.269,16.328 27.269,20.364 
				31.317,20.364 31.317,16.328 30.407,12.467 29.717,12.467 29.717,16.328 			"/>
			
				<line fill="none" stroke="#808080" stroke-width="0.25" stroke-miterlimit="10" x1="27.896" y1="16.328" x2="26.642" y2="16.328"/>
		</g>
		
			<line fill="none" stroke="#808080" stroke-width="0.25" stroke-miterlimit="10" x1="29.089" y1="16.328" x2="30.345" y2="16.328"/>
	</g>
	<g>
		
			<line fill="none" stroke="#808080" stroke-width="0.25" stroke-miterlimit="10" x1="32.668" y1="16.328" x2="33.924" y2="16.328"/>
		<g>
			<g>
				<polyline fill="none" stroke="#808080" stroke-width="0.25" stroke-miterlimit="10" points="33.296,16.328 33.296,12.467 
					32.166,12.467 				"/>
				<g>
					<polygon fill="#808080" points="32.235,12.231 31.825,12.468 32.235,12.705 					"/>
				</g>
			</g>
		</g>
	</g>
</g>
<rect y="9.702" fill="#1A1A1A" width="3.888" height="2.798"/>
<rect y="9.702" width="3.888" height="0.261"/>
</svg>
