<?xml version="1.0" encoding="UTF-8"?><!-- Generator: Adobe Illustrator 15.0.2, SVG Export Plug-In . SVG Version: 6.00 Build 0)  --><!DOCTYPE svg  PUBLIC '-//W3C//DTD SVG 1.1//EN'  'http://www.w3.org/Graphics/SVG/1.1/DTD/svg11.dtd'><svg enable-background="new 0 0 51.121 130.32" height="130.32px" id="Layer_1" version="1.1" viewBox="0 0 51.121 130.32" width="51.121px" x="0px" xml:space="preserve" xmlns="http://www.w3.org/2000/svg" xmlns:xlink="http://www.w3.org/1999/xlink" y="0px">
<rect fill="#8C8C8C" height="1.184" id="connector1pin" width="1.184" x="3.029" y="9.968"/>
<rect fill="#8C8C8C" height="1.185" id="connector2pin" width="1.184" x="3.029" y="17.176"/>
<rect fill="#8C8C8C" height="1.185" id="connector3pin" width="1.184" x="3.029" y="24.385"/>
<rect fill="#8C8C8C" height="1.185" id="connector4pin" width="1.184" x="3.029" y="31.593"/>
<rect fill="#8C8C8C" height="1.185" id="connector5pin" width="1.184" x="3.029" y="38.802"/>
<rect fill="#8C8C8C" height="1.185" id="connector6pin" width="1.184" x="3.029" y="46.01"/>
<rect fill="#8C8C8C" height="1.185" id="connector7pin" width="1.184" x="3.029" y="53.219"/>
<rect fill="#8C8C8C" height="1.184" id="connector8pin" width="1.184" x="3.029" y="60.429"/>
<rect fill="#8C8C8C" height="1.184" id="connector9pin" width="1.184" x="3.029" y="67.637"/>
<rect fill="#8C8C8C" height="1.184" id="connector10pin" width="1.184" x="3.029" y="74.846"/>
<rect fill="#8C8C8C" height="1.184" id="connector11pin" width="1.184" x="3.029" y="82.055"/>
<rect fill="#8C8C8C" height="1.183" id="connector12pin" width="1.184" x="3.029" y="89.263"/>
<rect fill="#8C8C8C" height="1.184" id="connector13pin" width="1.184" x="3.029" y="96.471"/>
<rect fill="#8C8C8C" height="1.184" id="connector14pin" width="1.184" x="3.029" y="103.68"/>
<rect fill="#8C8C8C" height="1.185" id="connector15pin" width="1.184" x="3.029" y="110.889"/>
<rect fill="#8C8C8C" height="1.184" id="connector16pin" width="1.184" x="46.908" y="110.889"/>
<rect fill="#8C8C8C" height="1.184" id="connector17pin" width="1.184" x="46.908" y="103.68"/>
<rect fill="#8C8C8C" height="1.183" id="connector18pin" width="1.184" x="46.908" y="96.473"/>
<rect fill="#8C8C8C" height="1.183" id="connector19pin" width="1.184" x="46.908" y="89.263"/>
<rect fill="#8C8C8C" height="1.184" id="connector20pin" width="1.184" x="46.908" y="82.055"/>
<rect fill="#8C8C8C" height="1.184" id="connector21pin" width="1.184" x="46.908" y="74.845"/>
<rect fill="#8C8C8C" height="1.184" id="connector22pin" width="1.184" x="46.908" y="67.637"/>
<rect fill="#8C8C8C" height="1.184" id="connector23pin" width="1.184" x="46.908" y="60.429"/>
<rect fill="#8C8C8C" height="1.184" id="connector24pin" width="1.184" x="46.908" y="53.22"/>
<rect fill="#8C8C8C" height="1.184" id="connector25pin" width="1.184" x="46.908" y="46.011"/>
<rect fill="#8C8C8C" height="1.184" id="connector26pin" width="1.184" x="46.908" y="38.802"/>
<rect fill="#8C8C8C" height="1.185" id="connector27pin" width="1.184" x="46.908" y="31.594"/>
<rect fill="#8C8C8C" height="1.185" id="connector28pin" width="1.184" x="46.908" y="24.385"/>
<rect fill="#8C8C8C" height="1.185" id="connector29pin" width="1.184" x="46.908" y="17.177"/>
<rect fill="#8C8C8C" height="1.184" id="connector30pin" width="1.184" x="46.908" y="9.969"/>
<g id="breadboard">
	<path d="M0.017,0.002v122.039h51.085V0.002H0.017z M3.659,120.622c-1.229,0-2.224-0.995-2.224-2.224   c0-1.229,0.995-2.225,2.224-2.225c1.229,0,2.224,0.995,2.224,2.225C5.883,119.627,4.888,120.622,3.659,120.622z M3.659,5.867   c-1.229,0-2.224-0.995-2.224-2.224c0-1.229,0.995-2.224,2.224-2.224c1.229,0,2.224,0.994,2.224,2.224   C5.883,4.872,4.888,5.867,3.659,5.867z M47.43,120.622c-1.229,0-2.224-0.995-2.224-2.224c0-1.229,0.994-2.225,2.224-2.225   s2.226,0.995,2.226,2.225C49.656,119.627,48.66,120.622,47.43,120.622z M47.43,5.867c-1.229,0-2.224-0.995-2.224-2.224   c0-1.229,0.994-2.224,2.224-2.224s2.226,0.994,2.226,2.224C49.656,4.872,48.66,5.867,47.43,5.867z" fill="#0F7391"/>
	<rect fill="#8D8C8C" height="2.302" width="2.301" x="2.471" y="9.407"/>
	<rect fill="#8C8663" height="1.184" width="1.184" x="3.03" y="9.968"/>
	<polygon fill="#B8AF82" points="2.471,9.407 3.03,9.968 4.212,9.968 4.771,9.407  "/>
	<polygon fill="#80795B" points="4.212,11.149 4.212,9.968 4.771,9.407 4.771,11.709  "/>
	<polygon fill="#5E5B43" points="3.03,11.149 4.212,11.149 4.771,11.709 2.471,11.709  "/>
	<polygon fill="#9A916C" points="2.471,9.407 3.03,9.968 3.03,11.149 2.471,11.709  "/>
	<rect fill="#8D8C8C" height="2.302" width="2.301" x="2.471" y="16.617"/>
	<rect fill="#8C8663" height="1.187" width="1.184" x="3.03" y="17.175"/>
	<polygon fill="#B8AF82" points="2.471,16.617 3.03,17.175 4.212,17.175 4.771,16.617  "/>
	<polygon fill="#80795B" points="4.212,18.359 4.212,17.175 4.771,16.617 4.771,18.919  "/>
	<polygon fill="#5E5B43" points="3.03,18.359 4.212,18.359 4.771,18.919 2.471,18.919  "/>
	<polygon fill="#9A916C" points="2.471,16.617 3.03,17.175 3.03,18.359 2.471,18.919  "/>
	<rect fill="#8D8C8C" height="2.302" width="2.301" x="2.471" y="23.825"/>
	<rect fill="#8C8663" height="1.185" width="1.184" x="3.03" y="24.385"/>
	<polygon fill="#B8AF82" points="2.471,23.825 3.03,24.385 4.212,24.385 4.771,23.825  "/>
	<polygon fill="#80795B" points="4.212,25.568 4.212,24.385 4.771,23.825 4.771,26.127  "/>
	<polygon fill="#5E5B43" points="3.03,25.568 4.212,25.568 4.771,26.127 2.471,26.127  "/>
	<polygon fill="#9A916C" points="2.471,23.825 3.03,24.385 3.03,25.568 2.471,26.127  "/>
	<rect fill="#8D8C8C" height="2.302" width="2.301" x="2.471" y="31.036"/>
	<rect fill="#8C8663" height="1.187" width="1.184" x="3.03" y="31.593"/>
	<polygon fill="#B8AF82" points="2.471,31.036 3.03,31.593 4.212,31.593 4.771,31.036  "/>
	<polygon fill="#80795B" points="4.212,32.778 4.212,31.593 4.771,31.036 4.771,33.337  "/>
	<polygon fill="#5E5B43" points="3.03,32.778 4.212,32.778 4.771,33.337 2.471,33.337  "/>
	<polygon fill="#9A916C" points="2.471,31.036 3.03,31.593 3.03,32.778 2.471,33.337  "/>
	<rect fill="#8D8C8C" height="2.302" width="2.301" x="2.471" y="38.244"/>
	<rect fill="#8C8663" height="1.184" width="1.184" x="3.03" y="38.802"/>
	<polygon fill="#B8AF82" points="2.471,38.244 3.03,38.802 4.212,38.802 4.771,38.244  "/>
	<polygon fill="#80795B" points="4.212,39.985 4.212,38.802 4.771,38.244 4.771,40.546  "/>
	<polygon fill="#5E5B43" points="3.03,39.985 4.212,39.985 4.771,40.546 2.471,40.546  "/>
	<polygon fill="#9A916C" points="2.471,38.244 3.03,38.802 3.03,39.985 2.471,40.546  "/>
	<rect fill="#8D8C8C" height="2.303" width="2.301" x="2.471" y="45.453"/>
	<rect fill="#8C8663" height="1.186" width="1.184" x="3.03" y="46.01"/>
	<polygon fill="#B8AF82" points="2.471,45.453 3.03,46.01 4.212,46.01 4.771,45.453  "/>
	<polygon fill="#80795B" points="4.212,47.195 4.212,46.01 4.771,45.453 4.771,47.756  "/>
	<polygon fill="#5E5B43" points="3.03,47.195 4.212,47.195 4.771,47.756 2.471,47.756  "/>
	<polygon fill="#9A916C" points="2.471,45.453 3.03,46.01 3.03,47.195 2.471,47.756  "/>
	<rect fill="#8D8C8C" height="2.303" width="2.301" x="2.471" y="52.661"/>
	<rect fill="#8C8663" height="1.184" width="1.184" x="3.03" y="53.22"/>
	<polygon fill="#B8AF82" points="2.471,52.661 3.03,53.22 4.212,53.22 4.771,52.661  "/>
	<polygon fill="#80795B" points="4.212,54.403 4.212,53.22 4.771,52.661 4.771,54.964  "/>
	<polygon fill="#5E5B43" points="3.03,54.403 4.212,54.403 4.771,54.964 2.471,54.964  "/>
	<polygon fill="#9A916C" points="2.471,52.661 3.03,53.22 3.03,54.403 2.471,54.964  "/>
	<rect fill="#8D8C8C" height="2.302" width="2.301" x="2.471" y="59.871"/>
	<rect fill="#8C8663" height="1.186" width="1.184" x="3.03" y="60.428"/>
	<polygon fill="#B8AF82" points="2.471,59.871 3.03,60.428 4.212,60.428 4.771,59.871  "/>
	<polygon fill="#80795B" points="4.212,61.614 4.212,60.428 4.771,59.871 4.771,62.173  "/>
	<polygon fill="#5E5B43" points="3.03,61.614 4.212,61.614 4.771,62.173 2.471,62.173  "/>
	<polygon fill="#9A916C" points="2.471,59.871 3.03,60.428 3.03,61.614 2.471,62.173  "/>
	<rect fill="#8D8C8C" height="2.302" width="2.301" x="2.471" y="67.08"/>
	<rect fill="#8C8663" height="1.184" width="1.184" x="3.03" y="67.639"/>
	<polygon fill="#B8AF82" points="2.471,67.08 3.03,67.639 4.212,67.639 4.771,67.08  "/>
	<polygon fill="#80795B" points="4.212,68.821 4.212,67.639 4.771,67.08 4.771,69.382  "/>
	<polygon fill="#5E5B43" points="3.03,68.821 4.212,68.821 4.771,69.382 2.471,69.382  "/>
	<polygon fill="#9A916C" points="2.471,67.08 3.03,67.639 3.03,68.821 2.471,69.382  "/>
	<rect fill="#8D8C8C" height="2.303" width="2.301" x="2.471" y="74.289"/>
	<rect fill="#8C8663" height="1.186" width="1.184" x="3.03" y="74.846"/>
	<polygon fill="#B8AF82" points="2.471,74.289 3.03,74.846 4.212,74.846 4.771,74.289  "/>
	<polygon fill="#80795B" points="4.212,76.033 4.212,74.846 4.771,74.289 4.771,76.592  "/>
	<polygon fill="#5E5B43" points="3.03,76.033 4.212,76.033 4.771,76.592 2.471,76.592  "/>
	<polygon fill="#9A916C" points="2.471,74.289 3.03,74.846 3.03,76.033 2.471,76.592  "/>
	<rect fill="#8D8C8C" height="2.303" width="2.301" x="2.471" y="81.497"/>
	<rect fill="#8C8663" height="1.184" width="1.184" x="3.03" y="82.056"/>
	<polygon fill="#B8AF82" points="2.471,81.497 3.03,82.056 4.212,82.056 4.771,81.497  "/>
	<polygon fill="#80795B" points="4.212,83.24 4.212,82.056 4.771,81.497 4.771,83.8  "/>
	<polygon fill="#5E5B43" points="3.03,83.24 4.212,83.24 4.771,83.8 2.471,83.8  "/>
	<polygon fill="#9A916C" points="2.471,81.497 3.03,82.056 3.03,83.24 2.471,83.8  "/>
	<rect fill="#8D8C8C" height="2.303" width="2.301" x="2.471" y="88.708"/>
	<rect fill="#8C8663" height="1.186" width="1.184" x="3.03" y="89.264"/>
	<polygon fill="#B8AF82" points="2.471,88.708 3.03,89.264 4.212,89.264 4.771,88.708  "/>
	<polygon fill="#80795B" points="4.212,90.45 4.212,89.264 4.771,88.708 4.771,91.01  "/>
	<polygon fill="#9A916C" points="2.471,88.708 3.03,89.264 3.03,90.45 2.471,91.01  "/>
	<rect fill="#8D8C8C" height="2.303" width="2.301" x="2.471" y="95.916"/>
	<rect fill="#8C8663" height="1.185" width="1.184" x="3.03" y="96.473"/>
	<polygon fill="#B8AF82" points="2.471,95.916 3.03,96.473 4.212,96.473 4.771,95.916  "/>
	<polygon fill="#80795B" points="4.212,97.657 4.212,96.473 4.771,95.916 4.771,98.219  "/>
	<polygon fill="#5E5B43" points="3.03,97.657 4.212,97.657 4.771,98.219 2.471,98.219  "/>
	<polygon fill="#9A916C" points="2.471,95.916 3.03,96.473 3.03,97.657 2.471,98.219  "/>
	<rect fill="#8D8C8C" height="2.304" width="2.301" x="2.471" y="103.123"/>
	<rect fill="#8C8663" height="1.183" width="1.184" x="3.03" y="103.683"/>
	<polygon fill="#B8AF82" points="2.471,103.123 3.03,103.683 4.212,103.683 4.771,103.123  "/>
	<polygon fill="#80795B" points="4.212,104.865 4.212,103.683 4.771,103.123 4.771,105.426  "/>
	<polygon fill="#5E5B43" points="3.03,104.865 4.212,104.865 4.771,105.426 2.471,105.426  "/>
	<polygon fill="#9A916C" points="2.471,103.123 3.03,103.683 3.03,104.865 2.471,105.426  "/>
	<rect fill="#8D8C8C" height="2.304" width="2.301" x="2.471" y="110.333"/>
	<rect fill="#8C8663" height="1.186" width="1.184" x="3.03" y="110.89"/>
	<polygon fill="#B8AF82" points="2.471,110.333 3.03,110.89 4.212,110.89 4.771,110.333  "/>
	<polygon fill="#80795B" points="4.212,112.076 4.212,110.89 4.771,110.333 4.771,112.635  "/>
	<polygon fill="#9A916C" points="2.471,110.333 3.03,110.89 3.03,112.076 2.471,112.635  "/>
	<rect fill="#8D8C8C" height="2.302" width="2.302" x="46.347" y="9.407"/>
	<rect fill="#8C8663" height="1.184" width="1.184" x="46.908" y="9.968"/>
	<polygon fill="#B8AF82" points="46.347,9.407 46.908,9.968 48.089,9.968 48.649,9.407  "/>
	<polygon fill="#80795B" points="48.089,11.149 48.089,9.968 48.649,9.407 48.649,11.709  "/>
	<polygon fill="#5E5B43" points="46.908,11.149 48.089,11.149 48.649,11.709 46.347,11.709  "/>
	<polygon fill="#9A916C" points="46.347,9.407 46.908,9.968 46.908,11.149 46.347,11.709  "/>
	<rect fill="#8D8C8C" height="2.302" width="2.302" x="46.347" y="16.617"/>
	<rect fill="#8C8663" height="1.187" width="1.184" x="46.908" y="17.175"/>
	<polygon fill="#B8AF82" points="46.347,16.617 46.908,17.175 48.089,17.175 48.649,16.617  "/>
	<polygon fill="#80795B" points="48.089,18.359 48.089,17.175 48.649,16.617 48.649,18.919  "/>
	<polygon fill="#5E5B43" points="46.908,18.359 48.089,18.359 48.649,18.919 46.347,18.919  "/>
	<polygon fill="#9A916C" points="46.347,16.617 46.908,17.175 46.908,18.359 46.347,18.919  "/>
	<rect fill="#8D8C8C" height="2.302" width="2.302" x="46.347" y="23.825"/>
	<rect fill="#8C8663" height="1.185" width="1.184" x="46.908" y="24.385"/>
	<polygon fill="#B8AF82" points="46.347,23.825 46.908,24.385 48.089,24.385 48.649,23.825  "/>
	<polygon fill="#80795B" points="48.089,25.568 48.089,24.385 48.649,23.825 48.649,26.127  "/>
	<polygon fill="#5E5B43" points="46.908,25.568 48.089,25.568 48.649,26.127 46.347,26.127  "/>
	<polygon fill="#9A916C" points="46.347,23.825 46.908,24.385 46.908,25.568 46.347,26.127  "/>
	<rect fill="#8D8C8C" height="2.302" width="2.302" x="46.347" y="31.036"/>
	<rect fill="#8C8663" height="1.187" width="1.184" x="46.908" y="31.593"/>
	<polygon fill="#B8AF82" points="46.347,31.036 46.908,31.593 48.089,31.593 48.649,31.036  "/>
	<polygon fill="#80795B" points="48.089,32.778 48.089,31.593 48.649,31.036 48.649,33.337  "/>
	<polygon fill="#5E5B43" points="46.908,32.778 48.089,32.778 48.649,33.337 46.347,33.337  "/>
	<polygon fill="#9A916C" points="46.347,31.036 46.908,31.593 46.908,32.778 46.347,33.337  "/>
	<rect fill="#8D8C8C" height="2.302" width="2.302" x="46.347" y="38.244"/>
	<rect fill="#8C8663" height="1.184" width="1.184" x="46.908" y="38.802"/>
	<polygon fill="#B8AF82" points="46.347,38.244 46.908,38.802 48.089,38.802 48.649,38.244  "/>
	<polygon fill="#80795B" points="48.089,39.985 48.089,38.802 48.649,38.244 48.649,40.546  "/>
	<polygon fill="#5E5B43" points="46.908,39.985 48.089,39.985 48.649,40.546 46.347,40.546  "/>
	<polygon fill="#9A916C" points="46.347,38.244 46.908,38.802 46.908,39.985 46.347,40.546  "/>
	<rect fill="#8D8C8C" height="2.303" width="2.302" x="46.347" y="45.453"/>
	<rect fill="#8C8663" height="1.186" width="1.184" x="46.908" y="46.01"/>
	<polygon fill="#B8AF82" points="46.347,45.453 46.908,46.01 48.089,46.01 48.649,45.453  "/>
	<polygon fill="#80795B" points="48.089,47.195 48.089,46.01 48.649,45.453 48.649,47.756  "/>
	<polygon fill="#5E5B43" points="46.908,47.195 48.089,47.195 48.649,47.756 46.347,47.756  "/>
	<polygon fill="#9A916C" points="46.347,45.453 46.908,46.01 46.908,47.195 46.347,47.756  "/>
	<rect fill="#8D8C8C" height="2.303" width="2.302" x="46.347" y="52.661"/>
	<rect fill="#8C8663" height="1.184" width="1.184" x="46.908" y="53.22"/>
	<polygon fill="#B8AF82" points="46.347,52.661 46.908,53.22 48.089,53.22 48.649,52.661  "/>
	<polygon fill="#80795B" points="48.089,54.403 48.089,53.22 48.649,52.661 48.649,54.964  "/>
	<polygon fill="#5E5B43" points="46.908,54.403 48.089,54.403 48.649,54.964 46.347,54.964  "/>
	<polygon fill="#9A916C" points="46.347,52.661 46.908,53.22 46.908,54.403 46.347,54.964  "/>
	<rect fill="#8D8C8C" height="2.302" width="2.302" x="46.347" y="59.871"/>
	<rect fill="#8C8663" height="1.186" width="1.184" x="46.908" y="60.428"/>
	<polygon fill="#B8AF82" points="46.347,59.871 46.908,60.428 48.089,60.428 48.649,59.871  "/>
	<polygon fill="#80795B" points="48.089,61.614 48.089,60.428 48.649,59.871 48.649,62.173  "/>
	<polygon fill="#5E5B43" points="46.908,61.614 48.089,61.614 48.649,62.173 46.347,62.173  "/>
	<polygon fill="#9A916C" points="46.347,59.871 46.908,60.428 46.908,61.614 46.347,62.173  "/>
	<rect fill="#8D8C8C" height="2.302" width="2.302" x="46.347" y="67.08"/>
	<rect fill="#8C8663" height="1.184" width="1.184" x="46.908" y="67.639"/>
	<polygon fill="#B8AF82" points="46.347,67.08 46.908,67.639 48.089,67.639 48.649,67.08  "/>
	<polygon fill="#80795B" points="48.089,68.821 48.089,67.639 48.649,67.08 48.649,69.382  "/>
	<polygon fill="#5E5B43" points="46.908,68.821 48.089,68.821 48.649,69.382 46.347,69.382  "/>
	<polygon fill="#9A916C" points="46.347,67.08 46.908,67.639 46.908,68.821 46.347,69.382  "/>
	<rect fill="#8D8C8C" height="2.303" width="2.302" x="46.347" y="74.289"/>
	<rect fill="#8C8663" height="1.186" width="1.184" x="46.908" y="74.846"/>
	<polygon fill="#B8AF82" points="46.347,74.289 46.908,74.846 48.089,74.846 48.649,74.289  "/>
	<polygon fill="#80795B" points="48.089,76.033 48.089,74.846 48.649,74.289 48.649,76.592  "/>
	<polygon fill="#5E5B43" points="46.908,76.033 48.089,76.033 48.649,76.592 46.347,76.592  "/>
	<polygon fill="#9A916C" points="46.347,74.289 46.908,74.846 46.908,76.033 46.347,76.592  "/>
	<rect fill="#8D8C8C" height="2.303" width="2.302" x="46.347" y="81.497"/>
	<rect fill="#8C8663" height="1.184" width="1.184" x="46.908" y="82.056"/>
	<polygon fill="#B8AF82" points="46.347,81.497 46.908,82.056 48.089,82.056 48.649,81.497  "/>
	<polygon fill="#80795B" points="48.089,83.24 48.089,82.056 48.649,81.497 48.649,83.8  "/>
	<polygon fill="#5E5B43" points="46.908,83.24 48.089,83.24 48.649,83.8 46.347,83.8  "/>
	<polygon fill="#9A916C" points="46.347,81.497 46.908,82.056 46.908,83.24 46.347,83.8  "/>
	<rect fill="#8D8C8C" height="2.303" width="2.302" x="46.347" y="88.708"/>
	<rect fill="#8C8663" height="1.186" width="1.184" x="46.908" y="89.264"/>
	<polygon fill="#B8AF82" points="46.347,88.708 46.908,89.264 48.089,89.264 48.649,88.708  "/>
	<polygon fill="#80795B" points="48.089,90.45 48.089,89.264 48.649,88.708 48.649,91.01  "/>
	<polygon fill="#9A916C" points="46.347,88.708 46.908,89.264 46.908,90.45 46.347,91.01  "/>
	<rect fill="#8D8C8C" height="2.303" width="2.302" x="46.347" y="95.916"/>
	<rect fill="#8C8663" height="1.185" width="1.184" x="46.908" y="96.473"/>
	<polygon fill="#B8AF82" points="46.347,95.916 46.908,96.473 48.089,96.473 48.649,95.916  "/>
	<polygon fill="#80795B" points="48.089,97.657 48.089,96.473 48.649,95.916 48.649,98.219  "/>
	<polygon fill="#5E5B43" points="46.908,97.657 48.089,97.657 48.649,98.219 46.347,98.219  "/>
	<polygon fill="#9A916C" points="46.347,95.916 46.908,96.473 46.908,97.657 46.347,98.219  "/>
	<rect fill="#8D8C8C" height="2.304" width="2.302" x="46.347" y="103.123"/>
	<rect fill="#8C8663" height="1.183" width="1.184" x="46.908" y="103.683"/>
	<polygon fill="#B8AF82" points="46.347,103.123 46.908,103.683 48.089,103.683 48.649,103.123  "/>
	<polygon fill="#80795B" points="48.089,104.865 48.089,103.683 48.649,103.123 48.649,105.426  "/>
	<polygon fill="#5E5B43" points="46.908,104.865 48.089,104.865 48.649,105.426 46.347,105.426  "/>
	<polygon fill="#9A916C" points="46.347,103.123 46.908,103.683 46.908,104.865 46.347,105.426  "/>
	<rect fill="#8D8C8C" height="2.304" width="2.302" x="46.347" y="110.333"/>
	<rect fill="#8C8663" height="1.186" width="1.184" x="46.908" y="110.89"/>
	<polygon fill="#B8AF82" points="46.347,110.333 46.908,110.89 48.089,110.89 48.649,110.333  "/>
	<polygon fill="#80795B" points="48.089,112.076 48.089,110.89 48.649,110.333 48.649,112.635  "/>
	<polygon fill="#9A916C" points="46.347,110.333 46.908,110.89 46.908,112.076 46.347,112.635  "/>
	<path d="M39.947,53.406c0-3.036-2.232-5.535-5.141-5.996v-0.095H17.263c-3.362,0-6.089,2.727-6.089,6.091   c0,3.362,2.727,6.09,6.089,6.09h17.543v-0.095C37.715,58.94,39.947,56.441,39.947,53.406z" fill="#02809E"/>
	<rect fill="#02809E" height="28.531" width="28.531" x="11.295" y="64.924"/>
	<polygon fill="#404040" points="34.806,7.209 36.375,5.645 36.375,1.567 34.806,0.002 30.73,0.002 29.166,1.567 27.597,0.002    23.521,0.002 21.956,1.567 20.389,0.002 16.312,0.002 14.747,1.567 14.747,5.645 16.312,7.209 16.312,7.21 14.747,8.777    14.747,12.854 16.312,14.418 20.389,14.418 21.956,12.854 23.521,14.418 27.597,14.418 29.164,12.854 29.166,12.854 30.73,14.418    34.806,14.418 36.375,12.854 36.375,8.777 34.806,7.21  "/>
	<rect fill="#8D8C8C" height="2.303" width="2.301" x="17.201" y="2.454"/>
	<rect fill="#8C8663" height="1.185" width="1.184" x="17.761" y="3.012"/>
	<polygon fill="#B8AF82" points="17.201,2.454 17.761,3.012 18.941,3.012 19.501,2.454  "/>
	<polygon fill="#80795B" points="18.941,4.196 18.941,3.012 19.501,2.454 19.501,4.757  "/>
	<polygon fill="#5E5B43" points="17.761,4.196 18.941,4.196 19.501,4.757 17.201,4.757  "/>
	<polygon fill="#9A916C" points="17.201,2.454 17.761,3.012 17.761,4.196 17.201,4.757  "/>
	<rect fill="#8D8C8C" height="2.303" width="2.3" x="24.41" y="2.454"/>
	<rect fill="#8C8663" height="1.185" width="1.184" x="24.97" y="3.012"/>
	<polygon fill="#B8AF82" points="24.41,2.454 24.97,3.012 26.152,3.012 26.709,2.454  "/>
	<polygon fill="#80795B" points="26.152,4.196 26.152,3.012 26.709,2.454 26.709,4.757  "/>
	<polygon fill="#5E5B43" points="24.97,4.196 26.152,4.196 26.709,4.757 24.41,4.757  "/>
	<polygon fill="#9A916C" points="24.41,2.454 24.97,3.012 24.97,4.196 24.41,4.757  "/>
	<rect fill="#8D8C8C" height="2.303" width="2.301" x="31.619" y="2.454"/>
	<rect fill="#8C8663" height="1.185" width="1.185" x="32.178" y="3.012"/>
	<polygon fill="#B8AF82" points="31.619,2.454 32.178,3.012 33.361,3.012 33.918,2.454  "/>
	<polygon fill="#80795B" points="33.361,4.196 33.361,3.012 33.918,2.454 33.918,4.757  "/>
	<polygon fill="#5E5B43" points="32.178,4.196 33.361,4.196 33.918,4.757 31.619,4.757  "/>
	<polygon fill="#9A916C" points="31.619,2.454 32.178,3.012 32.178,4.196 31.619,4.757  "/>
	<rect fill="#8D8C8C" height="2.302" width="2.301" x="17.201" y="9.663"/>
	<rect fill="#8C8663" height="1.185" width="1.184" x="17.761" y="10.221"/>
	<polygon fill="#B8AF82" points="17.201,9.663 17.761,10.221 18.941,10.221 19.501,9.663  "/>
	<polygon fill="#80795B" points="18.941,11.406 18.941,10.221 19.501,9.663 19.501,11.965  "/>
	<polygon fill="#5E5B43" points="17.761,11.406 18.941,11.406 19.501,11.965 17.201,11.965  "/>
	<polygon fill="#9A916C" points="17.201,9.663 17.761,10.221 17.761,11.406 17.201,11.965  "/>
	<rect fill="#8D8C8C" height="2.302" width="2.3" x="24.41" y="9.663"/>
	<rect fill="#8C8663" height="1.185" width="1.184" x="24.97" y="10.221"/>
	<polygon fill="#B8AF82" points="24.41,9.663 24.97,10.221 26.152,10.221 26.709,9.663  "/>
	<polygon fill="#80795B" points="26.152,11.406 26.152,10.221 26.709,9.663 26.709,11.965  "/>
	<polygon fill="#5E5B43" points="24.97,11.406 26.152,11.406 26.709,11.965 24.41,11.965  "/>
	<polygon fill="#9A916C" points="24.41,9.663 24.97,10.221 24.97,11.406 24.41,11.965  "/>
	<rect fill="#8D8C8C" height="2.302" width="2.301" x="31.619" y="9.663"/>
	<rect fill="#8C8663" height="1.185" width="1.185" x="32.178" y="10.221"/>
	<polygon fill="#B8AF82" points="31.619,9.663 32.178,10.221 33.361,10.221 33.918,9.663  "/>
	<polygon fill="#80795B" points="33.361,11.406 33.361,10.221 33.918,9.663 33.918,11.965  "/>
	<polygon fill="#5E5B43" points="32.178,11.406 33.361,11.406 33.918,11.965 31.619,11.965  "/>
	<polygon fill="#9A916C" points="31.619,9.663 32.178,10.221 32.178,11.406 31.619,11.965  "/>
	<path d="M11.19,44.094c1.005,0,1.832-0.736,1.985-1.699h0.031v-6.868c0-1.112-0.902-2.017-2.017-2.017   c-1.114,0-2.019,0.902-2.019,2.017v6.868h0.033C9.358,43.355,10.184,44.094,11.19,44.094z" fill="#8D8C8C"/>
	<rect fill="#FBBE0E" height="3.652" width="3.215" x="9.583" y="37.037"/>
	<path d="M39.949,44.094c1.004,0,1.83-0.736,1.983-1.699h0.031v-5.876c0-1.112-0.904-2.017-2.019-2.017   c-1.113,0-2.018,0.902-2.018,2.017v5.876h0.033C38.117,43.355,38.941,44.094,39.949,44.094z" fill="#8D8C8C"/>
	<rect fill="#FBBE0E" height="3.654" width="3.215" x="38.337" y="37.603"/>
	<path d="M18.353,44.094c1.005,0,1.831-0.736,1.984-1.699h0.031v-6.868c0-1.112-0.902-2.017-2.017-2.017   c-1.115,0-2.019,0.902-2.019,2.017v6.868h0.033C16.521,43.355,17.346,44.094,18.353,44.094z" fill="#8D8C8C"/>
	<rect fill="#FBBE0E" height="3.652" width="3.215" x="16.745" y="37.037"/>
	<path d="M32.792,44.094c1.006,0,1.832-0.736,1.983-1.699h0.031v-9.707c0-1.112-0.9-2.017-2.017-2.017   c-1.112,0-2.019,0.902-2.019,2.017v9.707h0.032C30.959,43.355,31.785,44.094,32.792,44.094z" fill="#8D8C8C"/>
	<rect fill="#666666" height="7.751" width="5.598" x="29.994" y="33.509"/>
	<circle cx="32.792" cy="37.384" fill="#404040" r="1.985"/>
	<g>
		<path d="M16.704,18.616c0.032-0.108,0.076-0.204,0.204-0.204c0.132,0,0.18,0.1,0.208,0.204l0.771,2.707    c0.028,0.096-0.08,0.2-0.192,0.2c-0.124,0-0.188-0.104-0.216-0.2l-0.148-0.48h-0.852l-0.152,0.48    c-0.028,0.096-0.092,0.2-0.216,0.2c-0.112,0-0.22-0.104-0.192-0.2L16.704,18.616z M16.912,19.36h-0.008l-0.312,1.083h0.627    L16.912,19.36z" fill="#FFFFFF"/>
		<path d="M18.851,19.651c0-0.141,0.016-0.284,0.192-0.284c0.152,0,0.192,0.128,0.192,0.256v0.156l0.3-0.248    c0.108-0.088,0.22-0.164,0.339-0.164h0.308c0.148,0,0.272,0.048,0.376,0.152c0.128,0.128,0.172,0.26,0.172,0.436    c0,0.132-0.024,0.268-0.188,0.268c-0.14,0-0.196-0.111-0.196-0.235c0-0.064,0-0.112-0.04-0.168    c-0.048-0.068-0.14-0.068-0.232-0.068h-0.112c-0.072,0-0.124,0.036-0.192,0.092l-0.536,0.444v0.972    c0,0.132-0.028,0.265-0.192,0.265s-0.192-0.133-0.192-0.265L18.851,19.651L18.851,19.651z" fill="#FFFFFF"/>
		<path d="M22.787,19.367c0.132,0,0.24,0.072,0.38,0.212l0.064,0.068v-0.809c0-0.132,0.028-0.264,0.192-0.264    c0.164,0,0.192,0.132,0.192,0.264v2.415c0,0.132-0.028,0.269-0.192,0.269c-0.152,0-0.192-0.128-0.192-0.257v-0.023l-0.084,0.084    c-0.12,0.112-0.252,0.196-0.368,0.196h-0.372c-0.128,0-0.272-0.089-0.328-0.137l-0.132-0.111c-0.16-0.137-0.212-0.24-0.212-0.443    v-0.771c0-0.204,0.052-0.309,0.212-0.443l0.132-0.112c0.12-0.104,0.208-0.136,0.368-0.136L22.787,19.367L22.787,19.367z     M22.119,20.677c0,0.108,0,0.244,0.06,0.292l0.116,0.093c0.048,0.04,0.096,0.075,0.144,0.075h0.272    c0.048,0,0.116-0.031,0.188-0.096l0.22-0.188c0.056-0.049,0.112-0.097,0.112-0.168v-0.484c0-0.072-0.056-0.12-0.112-0.168    l-0.22-0.188c-0.072-0.063-0.14-0.096-0.188-0.096h-0.272c-0.048,0-0.096,0.036-0.144,0.076l-0.116,0.092    c-0.06,0.048-0.06,0.185-0.06,0.292V20.677z" fill="#FFFFFF"/>
		<path d="M26.498,21.239c0,0.088,0.016,0.284-0.188,0.284c-0.164,0-0.192-0.137-0.192-0.269v-0.063l-0.312,0.204    c-0.124,0.079-0.228,0.128-0.332,0.128h-0.284c-0.108,0-0.228-0.032-0.355-0.141c-0.172-0.147-0.168-0.312-0.176-0.52l-0.04-1.208    c-0.004-0.141,0.016-0.288,0.192-0.288c0.164,0,0.184,0.14,0.188,0.264l0.04,1.181c0.004,0.088,0.008,0.191,0.04,0.248    c0.032,0.056,0.132,0.079,0.224,0.079h0.128c0.044,0,0.084-0.012,0.12-0.035l0.564-0.355v-1.117c0-0.132,0.027-0.264,0.191-0.264    s0.191,0.132,0.191,0.264V21.239z" fill="#FFFFFF"/>
		<path d="M28.642,21.137h0.286c0.128,0,0.265,0.028,0.265,0.192c0,0.168-0.151,0.192-0.265,0.192h-0.975    c-0.113,0-0.265-0.024-0.265-0.192c0-0.164,0.135-0.192,0.265-0.192h0.303v-1.387h-0.303c-0.113,0-0.265-0.023-0.265-0.191    c0-0.164,0.135-0.192,0.265-0.192h0.403c0.22,0,0.283,0.04,0.283,0.268v1.503H28.642z M28.062,18.592    c0-0.136,0.076-0.18,0.18-0.18h0.22c0.104,0,0.181,0.044,0.181,0.18v0.185c0,0.136-0.076,0.18-0.181,0.18h-0.22    c-0.104,0-0.18-0.044-0.18-0.18V18.592z" fill="#FFFFFF"/>
		<path d="M30.769,20.143v1.115c0,0.132-0.027,0.265-0.191,0.265s-0.192-0.133-0.192-0.265v-1.607    c0-0.141,0.017-0.284,0.192-0.284c0.172,0,0.191,0.144,0.191,0.28v0.044v0.008l0.312-0.204c0.1-0.064,0.207-0.128,0.332-0.128    h0.282c0.148,0,0.24,0.04,0.355,0.14c0.172,0.147,0.164,0.313,0.172,0.521l0.041,1.207c0.004,0.136-0.017,0.288-0.188,0.288    c-0.156,0-0.188-0.133-0.192-0.261l-0.039-1.184c-0.008-0.236-0.028-0.328-0.26-0.328h-0.129c-0.039,0-0.08,0.012-0.119,0.036    L30.769,20.143z" fill="#FFFFFF"/>
		<path d="M33.269,20.083c0-0.256,0.053-0.344,0.243-0.5c0.188-0.156,0.274-0.216,0.543-0.216h0.306    c0.268,0,0.354,0.06,0.543,0.216c0.191,0.156,0.244,0.244,0.244,0.5v0.724c0,0.253-0.063,0.349-0.265,0.517    c-0.199,0.167-0.278,0.2-0.522,0.2h-0.306c-0.243,0-0.323-0.032-0.522-0.2s-0.264-0.264-0.264-0.517V20.083z M33.652,20.805    c0,0.08,0.028,0.133,0.141,0.229c0.084,0.072,0.145,0.104,0.264,0.104h0.305c0.119,0,0.181-0.031,0.265-0.104    c0.11-0.096,0.141-0.148,0.141-0.229v-0.724c0-0.08-0.028-0.132-0.141-0.228c-0.084-0.072-0.146-0.104-0.265-0.104h-0.305    c-0.119,0-0.18,0.032-0.264,0.104c-0.111,0.096-0.141,0.147-0.141,0.228V20.805z" fill="#FFFFFF"/>
	</g>
	<g>
		<path d="M21.824,23.423c0-0.128,0.056-0.2,0.2-0.2s0.2,0.072,0.2,0.2v2.91h-0.528l-1.043-2.398V23.93h-0.008v2.199    c0,0.128-0.056,0.2-0.2,0.2c-0.144,0-0.2-0.072-0.2-0.2v-2.911h0.528l1.043,2.427h-0.004h0.008L21.824,23.423z" fill="#FFFFFF"/>
		<path d="M23.819,24.557c-0.112,0-0.264-0.023-0.264-0.191c0-0.164,0.136-0.192,0.264-0.192h0.527    c0.2,0,0.344,0.021,0.496,0.172c0.148,0.148,0.168,0.265,0.172,0.456l0.04,1.305c0.004,0.111-0.052,0.224-0.18,0.224    c-0.1,0-0.2-0.084-0.196-0.192l-0.264,0.137c-0.108,0.056-0.112,0.056-0.236,0.056h-0.368c-0.172,0-0.296-0.021-0.436-0.136    c-0.16-0.133-0.2-0.272-0.2-0.473v-0.168c0-0.184,0.044-0.3,0.188-0.428c0.132-0.116,0.28-0.144,0.448-0.144h0.824v-0.089    c0-0.287-0.064-0.336-0.34-0.336H23.819z M23.815,25.366c-0.104,0-0.256,0.027-0.256,0.168v0.256c0,0.128,0.156,0.156,0.248,0.156    h0.424l0.424-0.221V25.64c0-0.212-0.06-0.275-0.272-0.275L23.815,25.366L23.815,25.366z" fill="#FFFFFF"/>
		<path d="M26.443,24.949v1.116c0,0.132-0.027,0.264-0.191,0.264c-0.163,0-0.191-0.132-0.191-0.264v-1.607    c0-0.14,0.017-0.284,0.191-0.284c0.172,0,0.191,0.145,0.191,0.28v0.044v0.008l0.313-0.204c0.102-0.063,0.209-0.128,0.332-0.128    h0.284c0.147,0,0.239,0.04,0.356,0.141c0.172,0.146,0.162,0.312,0.172,0.52l0.039,1.207c0.004,0.136-0.017,0.288-0.188,0.288    c-0.156,0-0.188-0.132-0.19-0.26l-0.041-1.185c-0.009-0.235-0.027-0.328-0.261-0.328h-0.127c-0.041,0-0.08,0.013-0.121,0.036    L26.443,24.949z" fill="#FFFFFF"/>
		<path d="M28.943,24.888c0-0.256,0.053-0.344,0.244-0.5c0.188-0.155,0.275-0.216,0.543-0.216h0.305    c0.268,0,0.355,0.061,0.544,0.216c0.192,0.156,0.243,0.244,0.243,0.5v0.725c0,0.252-0.063,0.348-0.264,0.516    c-0.199,0.167-0.279,0.2-0.523,0.2H29.73c-0.242,0-0.322-0.032-0.522-0.2s-0.265-0.264-0.265-0.516V24.888z M29.328,25.613    c0,0.08,0.027,0.132,0.14,0.228c0.084,0.072,0.144,0.104,0.265,0.104h0.304c0.12,0,0.18-0.032,0.264-0.104    c0.112-0.096,0.142-0.147,0.142-0.228v-0.725c0-0.08-0.028-0.132-0.142-0.228c-0.084-0.072-0.144-0.104-0.264-0.104h-0.304    c-0.121,0-0.181,0.032-0.265,0.104c-0.112,0.096-0.14,0.147-0.14,0.228V25.613z" fill="#FFFFFF"/>
	</g>
	<g>
		<path d="M0.544,14.109H0.452c-0.083,0-0.153-0.03-0.153-0.125c0-0.09,0.068-0.125,0.145-0.125h0.418    c0.195,0,0.293,0.08,0.378,0.25l0.22,0.439c0.05,0.104,0.075,0.176,0.075,0.291c0,0.101-0.028,0.186-0.073,0.275L1.234,15.57    c-0.088,0.178-0.2,0.235-0.396,0.235H0.424c-0.065,0-0.125-0.035-0.125-0.125c0-0.091,0.06-0.125,0.125-0.125h0.12V14.109z     M0.795,15.555h0.047c0.105,0,0.13-0.014,0.175-0.105l0.22-0.445c0.027-0.058,0.047-0.1,0.047-0.163    c0-0.085-0.027-0.133-0.062-0.204l-0.208-0.424c-0.053-0.106-0.075-0.104-0.19-0.104h-0.03L0.795,15.555L0.795,15.555z" fill="#FFFFFF"/>
		<path d="M3.087,13.859c0.138,0,0.25,0.112,0.25,0.25v1.447c0,0.14-0.107,0.25-0.25,0.25H2.352    c-0.143,0-0.25-0.11-0.25-0.25v-1.447c0-0.138,0.113-0.25,0.25-0.25H3.087z M3.087,15.555v-1.447H2.352v1.447H3.087z" fill="#FFFFFF"/>
		<path d="M4.154,15.68c0,0.079-0.035,0.125-0.125,0.125c-0.09,0-0.125-0.046-0.125-0.125v-1.822h0.841    c0.198,0,0.396,0.14,0.396,0.363v0.173c0,0.234-0.195,0.354-0.396,0.354h-0.23l0.563,0.807c0.027,0.036,0.062,0.085,0.062,0.132    c0,0.069-0.058,0.118-0.127,0.118c-0.05,0-0.083-0.03-0.11-0.07l-0.69-0.986H4.154V15.68z M4.154,14.499h0.555    c0.07,0,0.18-0.005,0.18-0.104v-0.173c0-0.101-0.103-0.113-0.178-0.113H4.154V14.499z" fill="#FFFFFF"/>
		<path d="M6.182,14.832l-0.445-0.766c-0.018-0.027-0.03-0.056-0.03-0.09c0-0.065,0.06-0.118,0.123-0.118    c0.083,0,0.11,0.062,0.145,0.123l0.351,0.598l0.351-0.598c0.035-0.061,0.062-0.123,0.145-0.123c0.062,0,0.123,0.052,0.123,0.118    c0,0.034-0.013,0.062-0.03,0.09L6.47,14.832l0.445,0.767c0.018,0.026,0.03,0.055,0.03,0.09c0,0.064-0.06,0.118-0.123,0.118    c-0.083,0-0.11-0.063-0.145-0.123l-0.351-0.599l-0.351,0.599c-0.035,0.06-0.062,0.123-0.145,0.123    c-0.062,0-0.123-0.054-0.123-0.118c0-0.035,0.013-0.063,0.03-0.09L6.182,14.832z" fill="#FFFFFF"/>
	</g>
	<g>
		<path d="M8.563,4.755V4.661c0-0.083,0.03-0.152,0.125-0.152c0.09,0,0.125,0.066,0.125,0.145v0.418    c0,0.195-0.08,0.293-0.25,0.378l-0.44,0.22C8.02,5.72,7.947,5.745,7.832,5.745c-0.1,0-0.185-0.026-0.275-0.072L7.102,5.445    c-0.178-0.087-0.235-0.2-0.235-0.396V4.635c0-0.065,0.035-0.125,0.125-0.125c0.09,0,0.125,0.06,0.125,0.125v0.12H8.563z     M7.116,5.005v0.047c0,0.104,0.013,0.13,0.105,0.175l0.445,0.22c0.058,0.027,0.1,0.047,0.163,0.047    c0.085,0,0.133-0.026,0.205-0.062l0.423-0.208c0.107-0.054,0.105-0.075,0.105-0.19v-0.03H7.116V5.005z" fill="#FFFFFF"/>
		<path d="M7.116,7.297h0.506c0.072,0,0.125,0.033,0.125,0.125c0,0.093-0.053,0.125-0.125,0.125H6.991    c-0.09,0-0.125-0.06-0.125-0.125V6.436c0-0.065,0.035-0.125,0.125-0.125c0.09,0,0.125,0.06,0.125,0.125v0.368h1.447V6.436    c0-0.065,0.035-0.125,0.125-0.125c0.09,0,0.125,0.06,0.125,0.125v0.618H7.116V7.297z" fill="#FFFFFF"/>
		<path d="M8.563,8.364h-0.09c-0.08,0-0.125-0.035-0.125-0.125s0.045-0.125,0.125-0.125h0.34V9.35h-0.34    c-0.08,0-0.125-0.035-0.125-0.125S8.393,9.1,8.473,9.1h0.09V8.856H6.991c-0.08,0-0.125-0.035-0.125-0.125s0.045-0.125,0.125-0.125    h1.572V8.364z" fill="#FFFFFF"/>
		<path d="M7.84,10.391l0.766-0.445c0.027-0.018,0.055-0.03,0.09-0.03c0.065,0,0.118,0.061,0.118,0.123    c0,0.083-0.062,0.11-0.123,0.146l-0.598,0.35l0.598,0.351c0.06,0.034,0.123,0.063,0.123,0.146c0,0.063-0.052,0.123-0.118,0.123    c-0.035,0-0.062-0.013-0.09-0.03L7.84,10.677l-0.766,0.444c-0.027,0.019-0.055,0.03-0.09,0.03c-0.065,0-0.118-0.061-0.118-0.123    c0-0.083,0.062-0.11,0.123-0.146l0.598-0.35l-0.598-0.35c-0.06-0.035-0.123-0.063-0.123-0.146c0-0.062,0.053-0.123,0.118-0.123    c0.035,0,0.062,0.014,0.09,0.03L7.84,10.391z" fill="#FFFFFF"/>
	</g>
	<g>
		<path d="M43.078,10.166h-0.4c-0.08,0-0.125-0.035-0.125-0.125s0.045-0.125,0.125-0.125h0.396    c0.031,0,0.066,0.002,0.098,0.016l1.218,0.478c0.063,0.025,0.11,0.047,0.11,0.125s-0.047,0.101-0.11,0.125l-1.218,0.479    c-0.03,0.013-0.065,0.015-0.098,0.015h-0.396c-0.08,0-0.125-0.035-0.125-0.125s0.045-0.125,0.125-0.125h0.4l0.955-0.368    L43.078,10.166z" fill="#FFFFFF"/>
		<path d="M44.25,8.607V8.239c0-0.064,0.033-0.125,0.125-0.125c0.09,0,0.125,0.061,0.125,0.125v0.986    c0,0.064-0.035,0.125-0.125,0.125c-0.092,0-0.125-0.061-0.125-0.125V8.857h-1.447v0.368c0,0.064-0.035,0.125-0.125,0.125    s-0.125-0.061-0.125-0.125V8.239c0-0.064,0.035-0.125,0.125-0.125s0.125,0.061,0.125,0.125v0.368H44.25z" fill="#FFFFFF"/>
		<path d="M42.678,6.559c-0.08,0-0.125-0.035-0.125-0.125s0.045-0.125,0.125-0.125H44.5V6.64L43,7.292h-0.002v0.005    h1.377c0.08,0,0.125,0.035,0.125,0.125c0,0.091-0.045,0.125-0.125,0.125h-1.822V7.218l1.52-0.653v0.002V6.562L42.678,6.559z" fill="#FFFFFF"/>
	</g>
	<g>
		<path d="M1.018,22.907c0,0.096-0.042,0.149-0.15,0.149c-0.108,0-0.15-0.054-0.15-0.149v-2.188h1.01    c0.238,0,0.475,0.168,0.475,0.437v0.208c0,0.283-0.234,0.427-0.475,0.427H1.451l0.676,0.968c0.033,0.045,0.075,0.104,0.075,0.16    c0,0.084-0.069,0.141-0.153,0.141c-0.06,0-0.099-0.035-0.132-0.084l-0.83-1.185H1.018V22.907z M1.018,21.488h0.667    c0.084,0,0.216-0.006,0.216-0.126v-0.208c0-0.12-0.123-0.135-0.213-0.135h-0.67V21.488z" fill="#FFFFFF"/>
		<path d="M4.259,22.468c0.06,0.078,0.105,0.147,0.105,0.25c0,0.227-0.171,0.34-0.379,0.34h-0.66    c-0.114,0-0.213-0.021-0.304-0.096C2.94,22.895,2.88,22.787,2.88,22.68c0-0.096,0.054-0.18,0.159-0.18    c0.087,0,0.141,0.072,0.141,0.153c0,0.09,0.048,0.102,0.132,0.102h0.652c0.024,0,0.099,0.009,0.099-0.036    c0-0.023-0.042-0.068-0.054-0.087l-1.031-1.326c-0.062-0.079-0.098-0.14-0.098-0.245c0-0.12,0.057-0.223,0.159-0.289    c0.084-0.055,0.153-0.055,0.25-0.055h0.637c0.114,0,0.21,0.024,0.298,0.101c0.078,0.068,0.141,0.18,0.141,0.285    c0,0.096-0.048,0.175-0.156,0.175c-0.09,0-0.145-0.058-0.145-0.143c0-0.102-0.051-0.116-0.144-0.116H3.283    c-0.033,0-0.103-0.01-0.103,0.042c0,0.026,0.033,0.063,0.045,0.08L4.259,22.468z" fill="#FFFFFF"/>
		<path d="M5.343,21.019v0.107c0,0.096-0.042,0.15-0.15,0.15s-0.15-0.055-0.15-0.15v-0.409h1.485v0.409    c0,0.096-0.042,0.15-0.15,0.15s-0.15-0.055-0.15-0.15v-0.107H5.935v1.888c0,0.096-0.042,0.149-0.15,0.149    c-0.108,0-0.15-0.054-0.15-0.149v-1.888H5.343z" fill="#FFFFFF"/>
	</g>
	<g>
		<path d="M44.895,22.907c0,0.096-0.042,0.149-0.149,0.149s-0.15-0.054-0.15-0.149v-2.188h1.01    c0.238,0,0.477,0.168,0.477,0.437v0.208c0,0.283-0.234,0.427-0.477,0.427H45.33l0.676,0.968c0.033,0.045,0.074,0.104,0.074,0.16    c0,0.084-0.068,0.141-0.152,0.141c-0.061,0-0.1-0.035-0.133-0.084l-0.829-1.185h-0.069L44.895,22.907L44.895,22.907z     M44.895,21.488h0.668c0.084,0,0.216-0.006,0.216-0.126v-0.208c0-0.12-0.123-0.135-0.214-0.135h-0.67V21.488z" fill="#FFFFFF"/>
		<path d="M48.137,22.468c0.062,0.078,0.104,0.147,0.104,0.25c0,0.227-0.172,0.34-0.379,0.34h-0.662    c-0.113,0-0.213-0.021-0.303-0.096c-0.082-0.065-0.143-0.174-0.143-0.28c0-0.096,0.055-0.18,0.16-0.18    c0.086,0,0.141,0.072,0.141,0.153c0,0.09,0.049,0.102,0.133,0.102h0.652c0.023,0,0.1,0.009,0.1-0.036    c0-0.023-0.043-0.068-0.055-0.087l-1.031-1.326c-0.063-0.08-0.1-0.141-0.1-0.246c0-0.12,0.059-0.223,0.16-0.289    c0.084-0.055,0.152-0.055,0.25-0.055h0.637c0.113,0,0.211,0.024,0.297,0.101c0.079,0.068,0.143,0.18,0.143,0.285    c0,0.096-0.049,0.175-0.156,0.175c-0.09,0-0.145-0.058-0.145-0.143c0-0.102-0.051-0.116-0.145-0.116H47.16    c-0.033,0-0.104-0.01-0.104,0.042c0,0.026,0.032,0.063,0.046,0.08L48.137,22.468z" fill="#FFFFFF"/>
		<path d="M49.22,21.019v0.107c0,0.096-0.042,0.15-0.15,0.15c-0.107,0-0.148-0.055-0.148-0.15v-0.409h1.483v0.409    c0,0.096-0.042,0.15-0.149,0.15c-0.108,0-0.15-0.055-0.15-0.15v-0.107h-0.291v1.888c0,0.096-0.043,0.149-0.15,0.149    s-0.149-0.054-0.149-0.149v-1.888H49.22z" fill="#FFFFFF"/>
	</g>
	<g>
		<path d="M45.488,15.085c-0.078,0-0.15-0.042-0.15-0.149c0-0.108,0.072-0.15,0.15-0.15h0.592v0.592    c0,0.292-0.194,0.473-0.48,0.473h-0.518c-0.137,0-0.24-0.024-0.346-0.12c-0.119-0.108-0.142-0.221-0.142-0.37v-0.752    c0-0.192,0.043-0.292,0.155-0.438l0.355-0.454c0.119-0.152,0.225-0.205,0.42-0.205h0.403c0.077,0,0.149,0.042,0.149,0.15    s-0.072,0.15-0.149,0.15h-0.36c-0.166,0-0.154-0.003-0.253,0.123l-0.325,0.418c-0.095,0.116-0.095,0.243-0.095,0.391v0.589    c0,0.166,0.036,0.216,0.207,0.216h0.479c0.107,0,0.197-0.023,0.197-0.155v-0.308L45.488,15.085L45.488,15.085z" fill="#FFFFFF"/>
		<path d="M47.944,13.663c0-0.096,0.044-0.149,0.15-0.149c0.108,0,0.149,0.054,0.149,0.149v2.188h-0.396    l-0.784-1.805v-0.003h-0.007v1.653c0,0.096-0.041,0.15-0.149,0.15c-0.107,0-0.149-0.055-0.149-0.15v-2.188h0.396l0.784,1.825    h-0.002h0.006L47.944,13.663z" fill="#FFFFFF"/>
		<path d="M49.214,13.81h-0.111c-0.1,0-0.184-0.036-0.184-0.15c0-0.108,0.08-0.15,0.175-0.15h0.502    c0.233,0,0.353,0.097,0.452,0.302l0.267,0.528c0.06,0.123,0.09,0.21,0.09,0.35c0,0.12-0.032,0.222-0.088,0.331l-0.272,0.547    c-0.104,0.213-0.24,0.283-0.476,0.283H49.07c-0.078,0-0.148-0.042-0.148-0.15s0.07-0.15,0.148-0.15h0.145V13.81L49.214,13.81z     M49.515,15.548h0.059c0.125,0,0.155-0.015,0.209-0.126l0.266-0.535c0.033-0.068,0.057-0.119,0.057-0.194    c0-0.103-0.033-0.159-0.075-0.247l-0.249-0.508c-0.063-0.129-0.09-0.126-0.229-0.126h-0.036L49.515,15.548L49.515,15.548z" fill="#FFFFFF"/>
	</g>
	<g>
		<path d="M45.186,28.499c0-0.096,0.043-0.15,0.149-0.15c0.109,0,0.15,0.055,0.15,0.15v0.448h0.442    c0.077,0,0.149,0.042,0.149,0.149c0,0.108-0.071,0.15-0.149,0.15h-0.442v0.441c0,0.097-0.041,0.15-0.15,0.15    c-0.106,0-0.149-0.054-0.149-0.15v-0.441h-0.44c-0.078,0-0.15-0.042-0.15-0.15c0-0.107,0.072-0.149,0.15-0.149h0.44V28.499z" fill="#FFFFFF"/>
		<path d="M47.356,28.947h0.554c0.096,0,0.168,0.015,0.239,0.084c0.084,0.078,0.095,0.149,0.095,0.255v0.643    c0,0.093-0.011,0.16-0.072,0.235c-0.076,0.09-0.154,0.102-0.262,0.102h-0.668c-0.078,0-0.123-0.021-0.197-0.054l-0.115-0.051    c-0.081-0.036-0.171-0.063-0.171-0.168c0-0.078,0.065-0.15,0.144-0.15c0.037,0,0.063,0.009,0.098,0.024l0.09,0.039    c0.041,0.018,0.111,0.06,0.158,0.06h0.695v-0.718h-0.887v-1.32h1.037c0.078,0,0.15,0.042,0.15,0.15    c0,0.107-0.072,0.149-0.15,0.149h-0.736L47.356,28.947L47.356,28.947z" fill="#FFFFFF"/>
		<path d="M50.104,28.558v-0.48c0-0.096,0.042-0.15,0.149-0.15c0.108,0,0.15,0.055,0.15,0.15v0.475    c0,0.039-0.003,0.081-0.018,0.117l-0.574,1.464c-0.031,0.075-0.059,0.132-0.15,0.132c-0.094,0-0.121-0.057-0.149-0.132    l-0.574-1.464c-0.017-0.036-0.019-0.078-0.019-0.117v-0.475c0-0.096,0.041-0.15,0.149-0.15s0.15,0.055,0.15,0.15v0.48l0.442,1.148    L50.104,28.558z" fill="#FFFFFF"/>
	</g>
	<g>
		<path d="M46.264,35.29c0.024-0.081,0.058-0.153,0.153-0.153c0.1,0,0.136,0.075,0.156,0.153l0.58,2.035    c0.021,0.071-0.061,0.149-0.145,0.149c-0.094,0-0.141-0.078-0.162-0.149l-0.111-0.361h-0.641l-0.113,0.361    c-0.021,0.071-0.07,0.149-0.162,0.149c-0.084,0-0.166-0.078-0.145-0.149L46.264,35.29z M46.419,35.848h-0.006l-0.233,0.815h0.474    L46.419,35.848z" fill="#FFFFFF"/>
		<path d="M49.022,35.135c0.166,0,0.302,0.135,0.302,0.301v1.737c0,0.168-0.13,0.301-0.302,0.301h-0.883    c-0.172,0-0.302-0.132-0.302-0.301v-1.737c0-0.166,0.136-0.301,0.302-0.301H49.022z M49.022,37.175v-1.737h-0.883v1.737H49.022z" fill="#FFFFFF"/>
	</g>
	<g>
		<path d="M46.264,42.499c0.024-0.081,0.058-0.153,0.153-0.153c0.1,0,0.136,0.075,0.156,0.153l0.58,2.034    c0.021,0.072-0.061,0.15-0.145,0.15c-0.094,0-0.141-0.078-0.162-0.15l-0.111-0.36h-0.641l-0.113,0.36    c-0.021,0.072-0.07,0.15-0.162,0.15c-0.084,0-0.166-0.078-0.145-0.15L46.264,42.499z M46.419,43.057h-0.006l-0.233,0.815h0.474    L46.419,43.057z" fill="#FFFFFF"/>
		<path d="M49.022,44.384v-0.607c0-0.087,0.039-0.149,0.149-0.149c0.111,0,0.15,0.063,0.15,0.149v0.757    c0,0.108-0.072,0.15-0.15,0.15H47.99c-0.078,0-0.15-0.042-0.15-0.15c0-0.107,0.072-0.149,0.15-0.149h0.44v-1.737h-0.44    c-0.078,0-0.15-0.042-0.15-0.149c0-0.108,0.072-0.15,0.15-0.15h0.741v2.038L49.022,44.384L49.022,44.384z" fill="#FFFFFF"/>
	</g>
	<g>
		<path d="M46.264,49.708c0.024-0.081,0.058-0.153,0.153-0.153c0.1,0,0.136,0.075,0.156,0.153l0.58,2.034    c0.021,0.072-0.061,0.15-0.145,0.15c-0.094,0-0.141-0.078-0.162-0.15l-0.111-0.36h-0.641l-0.113,0.36    c-0.021,0.072-0.07,0.15-0.162,0.15c-0.084,0-0.166-0.078-0.145-0.15L46.264,49.708z M46.419,50.266h-0.006l-0.233,0.814h0.474    L46.419,50.266z" fill="#FFFFFF"/>
		<path d="M48.139,51.593h1.032c0.078,0,0.15,0.042,0.15,0.149c0,0.108-0.072,0.15-0.15,0.15h-1.334v-0.98    c0-0.226,0.115-0.34,0.341-0.34h0.844v-0.718H47.99c-0.078,0-0.15-0.042-0.15-0.15c0-0.107,0.072-0.149,0.15-0.149h0.997    c0.101,0,0.169,0.015,0.243,0.084c0.084,0.078,0.094,0.159,0.094,0.268v0.616c0,0.108-0.01,0.189-0.094,0.268    c-0.074,0.069-0.145,0.084-0.243,0.084h-0.848V51.593z" fill="#FFFFFF"/>
	</g>
	<g>
		<path d="M46.264,56.916c0.024-0.081,0.058-0.152,0.153-0.152c0.1,0,0.136,0.075,0.156,0.152l0.58,2.035    c0.021,0.072-0.061,0.15-0.145,0.15c-0.094,0-0.141-0.078-0.162-0.15l-0.111-0.36h-0.641l-0.113,0.36    c-0.021,0.072-0.07,0.15-0.162,0.15c-0.084,0-0.166-0.078-0.145-0.15L46.264,56.916z M46.419,57.475h-0.006L46.18,58.29h0.474    L46.419,57.475z" fill="#FFFFFF"/>
		<path d="M47.99,57.063c-0.078,0-0.15-0.042-0.15-0.15c0-0.107,0.072-0.149,0.15-0.149h1.032    c0.172,0,0.302,0.129,0.302,0.301v0.577c0,0.12-0.023,0.208-0.117,0.292c0.094,0.084,0.117,0.171,0.117,0.292v0.577    c0,0.171-0.13,0.301-0.302,0.301H47.99c-0.078,0-0.15-0.042-0.15-0.15c0-0.107,0.072-0.149,0.15-0.149h1.032v-0.499    c0-0.168-0.065-0.22-0.149-0.22h-0.588c-0.078,0-0.15-0.042-0.15-0.149c0-0.108,0.072-0.15,0.15-0.15h0.588    c0.084,0,0.149-0.051,0.149-0.219v-0.499H47.99V57.063z" fill="#FFFFFF"/>
	</g>
	<g>
		<path d="M46.264,64.125c0.024-0.081,0.058-0.152,0.153-0.152c0.1,0,0.136,0.074,0.156,0.152l0.58,2.035    c0.021,0.072-0.061,0.15-0.145,0.15c-0.094,0-0.141-0.078-0.162-0.15l-0.111-0.361h-0.641l-0.113,0.361    c-0.021,0.072-0.07,0.15-0.162,0.15c-0.084,0-0.166-0.078-0.145-0.15L46.264,64.125z M46.419,64.684h-0.006l-0.233,0.814h0.474    L46.419,64.684z" fill="#FFFFFF"/>
		<path d="M48.873,65.246v-0.869c0-0.075,0.037-0.149,0.149-0.149c0.115,0,0.149,0.074,0.149,0.149v0.869    c0.078,0,0.15,0.042,0.15,0.15c0,0.107-0.072,0.149-0.15,0.149v0.613c0,0.096-0.041,0.15-0.149,0.15    c-0.106,0-0.149-0.056-0.149-0.15v-0.613H47.99v-1.425c0-0.075,0.034-0.149,0.149-0.149c0.112,0,0.149,0.074,0.149,0.149v1.125    H48.873z" fill="#FFFFFF"/>
	</g>
	<g>
		<path d="M46.264,71.334c0.024-0.081,0.058-0.153,0.153-0.153c0.1,0,0.136,0.075,0.156,0.153l0.58,2.035    c0.021,0.072-0.061,0.15-0.145,0.15c-0.094,0-0.141-0.078-0.162-0.15l-0.111-0.361h-0.641l-0.113,0.361    c-0.021,0.072-0.07,0.15-0.162,0.15c-0.084,0-0.166-0.078-0.145-0.15L46.264,71.334z M46.419,71.891h-0.006l-0.233,0.815h0.474    L46.419,71.891z" fill="#FFFFFF"/>
		<path d="M48.436,72.199h0.554c0.098,0,0.168,0.016,0.24,0.085c0.084,0.078,0.094,0.149,0.094,0.255v0.644    c0,0.094-0.01,0.159-0.072,0.235c-0.074,0.09-0.152,0.103-0.262,0.103h-0.666c-0.078,0-0.125-0.021-0.199-0.056l-0.113-0.051    c-0.082-0.035-0.172-0.062-0.172-0.168c0-0.078,0.066-0.15,0.145-0.15c0.035,0,0.063,0.01,0.096,0.023l0.09,0.039    c0.043,0.019,0.111,0.061,0.16,0.061h0.693V72.5h-0.887v-1.32h1.037c0.078,0,0.15,0.042,0.15,0.15s-0.072,0.15-0.15,0.15h-0.736    L48.436,72.199L48.436,72.199z" fill="#FFFFFF"/>
	</g>
	<g>
		<path d="M46.264,78.543c0.024-0.081,0.058-0.153,0.153-0.153c0.1,0,0.136,0.075,0.156,0.153l0.58,2.035    c0.021,0.072-0.061,0.149-0.145,0.149c-0.094,0-0.141-0.077-0.162-0.149l-0.111-0.361h-0.641l-0.113,0.361    c-0.021,0.072-0.07,0.149-0.162,0.149c-0.084,0-0.166-0.077-0.145-0.149L46.264,78.543z M46.419,79.1h-0.006l-0.233,0.815h0.474    L46.419,79.1z" fill="#FFFFFF"/>
		<path d="M48.139,79.664h1.004c0.149,0,0.181,0.063,0.181,0.201v0.674c0,0.142-0.061,0.188-0.195,0.188h-1.094    c-0.143,0-0.195-0.051-0.195-0.188V78.54c0-0.069,0.023-0.15,0.129-0.15h0.181c0.078,0,0.142,0.072,0.142,0.15    c0,0.091-0.063,0.15-0.149,0.15v0.974H48.139z M48.139,79.965v0.463h0.883v-0.463H48.139z" fill="#FFFFFF"/>
	</g>
	<g>
		<path d="M46.264,85.752c0.024-0.081,0.058-0.153,0.153-0.153c0.1,0,0.136,0.075,0.156,0.153l0.58,2.035    c0.021,0.071-0.061,0.149-0.145,0.149c-0.094,0-0.141-0.078-0.162-0.149l-0.111-0.36h-0.641l-0.113,0.36    c-0.021,0.071-0.07,0.149-0.162,0.149c-0.084,0-0.166-0.078-0.145-0.149L46.264,85.752z M46.419,86.31h-0.006l-0.233,0.814h0.474    L46.419,86.31z" fill="#FFFFFF"/>
		<path d="M48.139,85.898c0,0.066-0.056,0.15-0.149,0.15c-0.098,0-0.15-0.084-0.15-0.15v-0.149    c0-0.065,0.054-0.15,0.15-0.15h1.334v0.872c0,0.105,0.004,0.117-0.08,0.189l-0.423,0.362c-0.077,0.069-0.084,0.075-0.084,0.182    v0.583c0,0.097-0.042,0.149-0.149,0.149s-0.15-0.054-0.15-0.149v-0.725c0-0.1,0.004-0.107,0.078-0.175l0.415-0.356    c0.101-0.089,0.093-0.085,0.093-0.218v-0.415H48.139z" fill="#FFFFFF"/>
	</g>
	<g>
		<path d="M44.667,93.327c0.021-0.067,0.048-0.129,0.127-0.129c0.082,0,0.113,0.063,0.13,0.129l0.483,1.693    c0.019,0.062-0.051,0.125-0.121,0.125c-0.076,0-0.117-0.063-0.135-0.125l-0.093-0.301h-0.532l-0.096,0.301    c-0.018,0.062-0.059,0.125-0.135,0.125c-0.07,0-0.139-0.063-0.121-0.125L44.667,93.327z M44.797,93.793h-0.005l-0.195,0.678h0.395    L44.797,93.793z" fill="#FFFFFF"/>
		<path d="M46.229,95.02c0,0.08-0.034,0.125-0.125,0.125c-0.09,0-0.125-0.045-0.125-0.125v-1.822h0.841    c0.198,0,0.396,0.142,0.396,0.363v0.173c0,0.235-0.195,0.354-0.396,0.354h-0.229l0.563,0.807c0.026,0.037,0.061,0.085,0.061,0.133    c0,0.07-0.057,0.117-0.127,0.117c-0.051,0-0.084-0.03-0.11-0.07l-0.688-0.985h-0.06V95.02z M46.229,93.84h0.556    c0.07,0,0.182-0.005,0.182-0.104v-0.173c0-0.1-0.104-0.113-0.178-0.113h-0.56V93.84z" fill="#FFFFFF"/>
		<path d="M48.893,94.895c0.063,0,0.125,0.035,0.125,0.125s-0.062,0.125-0.125,0.125h-1.11v-1.947h1.11    c0.063,0,0.125,0.035,0.125,0.125c0,0.092-0.062,0.125-0.125,0.125h-0.86v0.6h0.366c0.065,0,0.125,0.035,0.125,0.125    c0,0.091-0.06,0.126-0.125,0.126h-0.366v0.598L48.893,94.895L48.893,94.895z" fill="#FFFFFF"/>
		<path d="M49.583,93.198h1.11c0.065,0,0.125,0.035,0.125,0.125c0,0.092-0.06,0.125-0.125,0.125h-0.86v0.387h0.615    c0.064,0,0.125,0.035,0.125,0.126c0,0.09-0.061,0.125-0.125,0.125h-0.615v0.936c0,0.08-0.035,0.125-0.125,0.125    s-0.125-0.045-0.125-0.125V93.198z" fill="#FFFFFF"/>
	</g>
	<g>
		<path d="M44.986,100.316c-0.078,0-0.15-0.042-0.15-0.149c0-0.108,0.072-0.15,0.15-0.15h1.032    c0.172,0,0.302,0.13,0.302,0.301v0.577c0,0.12-0.023,0.207-0.117,0.291c0.094,0.085,0.117,0.172,0.117,0.292v0.577    c0,0.172-0.13,0.301-0.302,0.301h-1.032c-0.078,0-0.15-0.042-0.15-0.15c0-0.106,0.072-0.149,0.15-0.149h1.032v-0.499    c0-0.168-0.065-0.22-0.149-0.22h-0.588c-0.078,0-0.15-0.041-0.15-0.15c0-0.107,0.072-0.15,0.15-0.15h0.588    c0.084,0,0.149-0.051,0.149-0.219v-0.499h-1.032V100.316z" fill="#FFFFFF"/>
		<path d="M48.181,100.647v-0.48c0-0.098,0.042-0.15,0.15-0.15c0.107,0,0.149,0.054,0.149,0.15v0.476    c0,0.039-0.003,0.08-0.019,0.117l-0.574,1.463c-0.029,0.076-0.057,0.133-0.15,0.133c-0.093,0-0.119-0.057-0.15-0.133l-0.572-1.463    c-0.016-0.037-0.02-0.078-0.02-0.117v-0.476c0-0.098,0.043-0.15,0.15-0.15s0.15,0.054,0.15,0.15v0.48l0.441,1.148L48.181,100.647z    " fill="#FFFFFF"/>
		<path d="M49.309,100.316c-0.078,0-0.149-0.042-0.149-0.149c0-0.108,0.071-0.15,0.149-0.15h1.035    c0.171,0,0.301,0.13,0.301,0.301v0.577c0,0.12-0.024,0.207-0.117,0.291c0.093,0.085,0.117,0.172,0.117,0.292v0.577    c0,0.172-0.13,0.301-0.301,0.301h-1.035c-0.078,0-0.149-0.042-0.149-0.15c0-0.106,0.071-0.149,0.149-0.149h1.035v-0.499    c0-0.168-0.066-0.22-0.15-0.22h-0.59c-0.078,0-0.149-0.041-0.149-0.15c0-0.107,0.071-0.15,0.149-0.15h0.59    c0.084,0,0.15-0.051,0.15-0.219v-0.499h-1.035V100.316z" fill="#FFFFFF"/>
	</g>
	<g>
		<path d="M44.889,107.524h-0.11c-0.101,0-0.185-0.036-0.185-0.15c0-0.106,0.082-0.149,0.175-0.149h0.502    c0.234,0,0.352,0.096,0.454,0.301l0.265,0.529c0.061,0.123,0.09,0.21,0.09,0.349c0,0.12-0.033,0.222-0.086,0.331l-0.273,0.547    c-0.105,0.213-0.24,0.282-0.477,0.282h-0.498c-0.078,0-0.15-0.042-0.15-0.15c0-0.107,0.072-0.149,0.15-0.149h0.145L44.889,107.524    L44.889,107.524z M45.19,109.261h0.058c0.127,0,0.156-0.016,0.211-0.126l0.264-0.535c0.033-0.069,0.059-0.12,0.059-0.195    c0-0.102-0.033-0.159-0.076-0.246l-0.25-0.508c-0.062-0.13-0.09-0.127-0.229-0.127h-0.035L45.19,109.261L45.19,109.261z" fill="#FFFFFF"/>
		<path d="M47.942,109.261v-0.606c0-0.088,0.039-0.15,0.15-0.15c0.11,0,0.149,0.063,0.149,0.15v0.757    c0,0.108-0.072,0.15-0.149,0.15h-1.187c-0.078,0-0.148-0.042-0.148-0.15c0-0.107,0.07-0.149,0.148-0.149h0.442v-1.737h-0.442    c-0.078,0-0.148-0.042-0.148-0.15c0-0.106,0.07-0.149,0.148-0.149h0.743v2.038h0.293V109.261z" fill="#FFFFFF"/>
		<path d="M49.07,107.524c-0.078,0-0.148-0.042-0.148-0.15c0-0.106,0.07-0.149,0.148-0.149h1.034    c0.172,0,0.301,0.129,0.301,0.301v0.577c0,0.12-0.022,0.208-0.116,0.292c0.094,0.084,0.116,0.171,0.116,0.291v0.577    c0,0.171-0.129,0.301-0.301,0.301H49.07c-0.078,0-0.148-0.042-0.148-0.15c0-0.107,0.07-0.149,0.148-0.149h1.034v-0.499    c0-0.168-0.065-0.22-0.149-0.22h-0.59c-0.078,0-0.15-0.043-0.15-0.149c0-0.108,0.072-0.15,0.15-0.15h0.59    c0.084,0,0.149-0.051,0.149-0.22v-0.499H49.07V107.524z" fill="#FFFFFF"/>
	</g>
	<g>
		<path d="M1.61,29.503c-0.078,0-0.15-0.042-0.15-0.15c0-0.107,0.072-0.149,0.15-0.149h0.592v0.592    c0,0.292-0.195,0.472-0.481,0.472H1.204c-0.138,0-0.241-0.023-0.346-0.12c-0.12-0.107-0.141-0.22-0.141-0.369v-0.752    c0-0.192,0.042-0.292,0.156-0.438l0.354-0.454c0.12-0.153,0.226-0.205,0.421-0.205h0.403c0.078,0,0.15,0.042,0.15,0.15    c0,0.107-0.072,0.149-0.15,0.149h-0.36c-0.165,0-0.153-0.003-0.252,0.123l-0.328,0.418c-0.093,0.117-0.093,0.244-0.093,0.392    v0.589c0,0.166,0.036,0.216,0.208,0.216h0.478c0.108,0,0.198-0.024,0.198-0.156v-0.307L1.61,29.503L1.61,29.503z" fill="#FFFFFF"/>
		<path d="M4.067,28.081c0-0.096,0.042-0.15,0.15-0.15s0.15,0.055,0.15,0.15v2.188H3.971l-0.784-1.804v-0.003H3.18    v1.653c0,0.096-0.042,0.149-0.15,0.149s-0.15-0.054-0.15-0.149v-2.188h0.396l0.785,1.825H4.058h0.006L4.067,28.081z" fill="#FFFFFF"/>
		<path d="M5.337,28.227H5.226c-0.099,0-0.183-0.035-0.183-0.149c0-0.108,0.081-0.15,0.174-0.15h0.502    c0.234,0,0.352,0.097,0.454,0.301l0.265,0.529c0.06,0.123,0.09,0.21,0.09,0.349c0,0.12-0.033,0.223-0.087,0.331l-0.273,0.548    c-0.105,0.213-0.24,0.282-0.475,0.282H5.192c-0.078,0-0.15-0.042-0.15-0.149c0-0.108,0.072-0.15,0.15-0.15h0.145V28.227z     M5.638,29.966h0.057c0.126,0,0.156-0.015,0.21-0.126l0.264-0.535c0.033-0.068,0.057-0.12,0.057-0.194    c0-0.103-0.033-0.159-0.075-0.247l-0.25-0.509c-0.063-0.129-0.09-0.126-0.229-0.126H5.638V29.966z" fill="#FFFFFF"/>
	</g>
	<g>
		<path d="M2.093,35.436H1.981c-0.099,0-0.183-0.036-0.183-0.149c0-0.108,0.081-0.15,0.174-0.15h0.502    c0.234,0,0.352,0.096,0.454,0.301l0.265,0.529c0.06,0.123,0.09,0.21,0.09,0.349c0,0.12-0.033,0.223-0.087,0.331l-0.273,0.547    c-0.105,0.214-0.24,0.283-0.475,0.283h-0.5c-0.078,0-0.15-0.042-0.15-0.149c0-0.108,0.072-0.15,0.15-0.15h0.145V35.436z     M2.394,37.175h0.057c0.126,0,0.156-0.015,0.21-0.126l0.264-0.535c0.033-0.069,0.057-0.12,0.057-0.195    c0-0.102-0.033-0.158-0.075-0.246l-0.25-0.509c-0.063-0.129-0.09-0.126-0.229-0.126H2.394V37.175z" fill="#FFFFFF"/>
		<path d="M4.261,37.175h1.034c0.078,0,0.15,0.042,0.15,0.15c0,0.107-0.072,0.149-0.15,0.149H3.961v-0.979    c0-0.227,0.114-0.34,0.339-0.34h0.845v-0.719H4.111c-0.078,0-0.15-0.042-0.15-0.149c0-0.108,0.072-0.15,0.15-0.15h0.998    c0.099,0,0.168,0.015,0.244,0.084c0.084,0.078,0.093,0.159,0.093,0.269v0.615c0,0.108-0.009,0.189-0.093,0.269    c-0.075,0.068-0.145,0.084-0.244,0.084H4.261V37.175z" fill="#FFFFFF"/>
	</g>
	<g>
		<path d="M2.093,42.645H1.981c-0.099,0-0.183-0.036-0.183-0.149c0-0.108,0.081-0.15,0.174-0.15h0.502    c0.234,0,0.352,0.096,0.454,0.301l0.265,0.529c0.06,0.123,0.09,0.21,0.09,0.349c0,0.12-0.033,0.223-0.087,0.331l-0.273,0.547    c-0.105,0.213-0.24,0.283-0.475,0.283h-0.5c-0.078,0-0.15-0.042-0.15-0.15c0-0.107,0.072-0.149,0.15-0.149h0.145V42.645z     M2.394,44.384h0.057c0.126,0,0.156-0.016,0.21-0.126l0.264-0.535c0.033-0.069,0.057-0.12,0.057-0.195    c0-0.102-0.033-0.159-0.075-0.247l-0.25-0.508c-0.063-0.129-0.09-0.126-0.229-0.126H2.394V44.384z" fill="#FFFFFF"/>
		<path d="M4.111,42.645c-0.078,0-0.15-0.042-0.15-0.149c0-0.108,0.072-0.15,0.15-0.15h1.034    c0.171,0,0.301,0.129,0.301,0.301v0.577c0,0.12-0.024,0.208-0.117,0.292c0.093,0.084,0.117,0.171,0.117,0.292v0.577    c0,0.171-0.129,0.301-0.301,0.301H4.111c-0.078,0-0.15-0.042-0.15-0.15c0-0.107,0.072-0.149,0.15-0.149h1.034v-0.499    c0-0.168-0.066-0.219-0.15-0.219H4.406c-0.078,0-0.15-0.042-0.15-0.15s0.072-0.15,0.15-0.15h0.589c0.084,0,0.15-0.051,0.15-0.219    v-0.499H4.111V42.645z" fill="#FFFFFF"/>
	</g>
	<g>
		<path d="M2.093,49.854H1.981c-0.099,0-0.183-0.036-0.183-0.15c0-0.107,0.081-0.149,0.174-0.149h0.502    c0.234,0,0.352,0.096,0.454,0.301l0.265,0.529c0.06,0.123,0.09,0.21,0.09,0.349c0,0.12-0.033,0.222-0.087,0.331L2.922,51.61    c-0.105,0.213-0.24,0.283-0.475,0.283H1.948c-0.078,0-0.15-0.042-0.15-0.15c0-0.107,0.072-0.149,0.15-0.149h0.145V49.854z     M2.394,51.593h0.057c0.126,0,0.156-0.016,0.21-0.126l0.264-0.535c0.033-0.069,0.057-0.12,0.057-0.195    c0-0.102-0.033-0.159-0.075-0.247l-0.25-0.508c-0.063-0.129-0.09-0.126-0.229-0.126H2.394V51.593z" fill="#FFFFFF"/>
		<path d="M4.995,50.828v-0.867c0-0.075,0.036-0.15,0.15-0.15c0.114,0,0.15,0.075,0.15,0.15v0.868    c0.078,0,0.15,0.042,0.15,0.15s-0.072,0.15-0.15,0.15v0.612c0,0.097-0.042,0.15-0.15,0.15s-0.15-0.054-0.15-0.15V51.13H4.111    v-1.426c0-0.074,0.036-0.149,0.15-0.149c0.114,0,0.15,0.075,0.15,0.149v1.125L4.995,50.828L4.995,50.828z" fill="#FFFFFF"/>
	</g>
	<g>
		<path d="M2.093,57.063H1.981c-0.099,0-0.183-0.036-0.183-0.15c0-0.107,0.081-0.149,0.174-0.149h0.502    c0.234,0,0.352,0.096,0.454,0.301l0.265,0.529c0.06,0.123,0.09,0.21,0.09,0.349c0,0.12-0.033,0.222-0.087,0.331L2.923,58.82    c-0.105,0.213-0.24,0.283-0.475,0.283h-0.5c-0.078,0-0.15-0.042-0.15-0.15c0-0.107,0.072-0.149,0.15-0.149h0.145V57.063z     M2.394,58.802h0.057c0.126,0,0.156-0.016,0.21-0.126l0.264-0.535c0.033-0.069,0.057-0.12,0.057-0.195    c0-0.102-0.033-0.159-0.075-0.247l-0.25-0.508c-0.063-0.129-0.09-0.126-0.229-0.126H2.394V58.802z" fill="#FFFFFF"/>
		<path d="M4.559,57.781h0.553c0.096,0,0.168,0.015,0.24,0.084c0.084,0.078,0.093,0.15,0.093,0.255v0.644    c0,0.093-0.009,0.16-0.072,0.234C5.298,59.088,5.22,59.1,5.112,59.1H4.445c-0.078,0-0.124-0.021-0.199-0.055l-0.114-0.051    c-0.082-0.036-0.171-0.063-0.171-0.168c0-0.078,0.066-0.149,0.144-0.149c0.036,0,0.063,0.009,0.096,0.023l0.09,0.039    c0.042,0.019,0.111,0.061,0.159,0.061h0.694v-0.719H4.258v-1.319h1.037c0.078,0,0.15,0.042,0.15,0.149    c0,0.108-0.072,0.15-0.15,0.15H4.559V57.781z" fill="#FFFFFF"/>
	</g>
	<g>
		<path d="M2.093,64.272H1.981c-0.099,0-0.183-0.036-0.183-0.15c0-0.107,0.081-0.149,0.174-0.149h0.502    c0.234,0,0.352,0.096,0.454,0.301l0.265,0.528c0.06,0.123,0.09,0.211,0.09,0.35c0,0.12-0.033,0.222-0.087,0.331l-0.273,0.546    c-0.105,0.214-0.24,0.283-0.475,0.283h-0.5c-0.078,0-0.15-0.042-0.15-0.15c0-0.107,0.072-0.15,0.15-0.15h0.145V64.272z     M2.394,66.01h0.057c0.126,0,0.156-0.015,0.21-0.126l0.264-0.534c0.033-0.069,0.057-0.12,0.057-0.195    c0-0.103-0.033-0.159-0.075-0.247l-0.25-0.508c-0.063-0.129-0.09-0.126-0.229-0.126H2.394V66.01z" fill="#FFFFFF"/>
		<path d="M4.261,65.246h1.004c0.15,0,0.181,0.063,0.181,0.201v0.673c0,0.142-0.06,0.189-0.195,0.189H4.156    c-0.142,0-0.195-0.052-0.195-0.189v-1.999c0-0.069,0.024-0.149,0.129-0.149h0.181c0.078,0,0.141,0.071,0.141,0.149    c0,0.09-0.063,0.15-0.15,0.15L4.261,65.246L4.261,65.246z M4.261,65.547v0.463h0.884v-0.463H4.261z" fill="#FFFFFF"/>
	</g>
	<g>
		<path d="M2.093,71.481H1.981c-0.099,0-0.183-0.036-0.183-0.15c0-0.108,0.081-0.15,0.174-0.15h0.502    c0.234,0,0.352,0.098,0.454,0.302l0.265,0.528c0.06,0.123,0.09,0.21,0.09,0.35c0,0.12-0.033,0.223-0.087,0.33l-0.273,0.547    c-0.105,0.214-0.24,0.283-0.475,0.283h-0.5c-0.078,0-0.15-0.042-0.15-0.15c0-0.107,0.072-0.15,0.15-0.15h0.145V71.481z     M2.394,73.219h0.057c0.126,0,0.156-0.015,0.21-0.126l0.264-0.535c0.033-0.068,0.057-0.119,0.057-0.194    c0-0.104-0.033-0.159-0.075-0.247l-0.25-0.508c-0.063-0.129-0.09-0.126-0.229-0.126H2.394V73.219z" fill="#FFFFFF"/>
		<path d="M4.261,71.481c0,0.065-0.054,0.149-0.15,0.149c-0.096,0-0.15-0.084-0.15-0.149v-0.15    c0-0.065,0.054-0.15,0.15-0.15h1.335v0.872c0,0.105,0.003,0.117-0.081,0.189l-0.421,0.363c-0.078,0.068-0.084,0.074-0.084,0.181    v0.583c0,0.096-0.042,0.15-0.15,0.15s-0.15-0.056-0.15-0.15v-0.725c0-0.101,0.003-0.107,0.078-0.175l0.415-0.356    c0.1-0.088,0.093-0.085,0.093-0.217v-0.415H4.261z" fill="#FFFFFF"/>
	</g>
	<g>
		<path d="M2.093,78.69H1.981c-0.099,0-0.183-0.036-0.183-0.15c0-0.108,0.081-0.15,0.174-0.15h0.502    c0.234,0,0.352,0.098,0.454,0.302l0.265,0.528c0.06,0.123,0.09,0.21,0.09,0.35c0,0.119-0.033,0.223-0.087,0.33l-0.273,0.547    c-0.105,0.214-0.24,0.282-0.475,0.282h-0.5c-0.078,0-0.15-0.042-0.15-0.149s0.072-0.15,0.15-0.15h0.145V78.69z M2.394,80.427    h0.057c0.126,0,0.156-0.015,0.21-0.126l0.264-0.535c0.033-0.068,0.057-0.12,0.057-0.194c0-0.104-0.033-0.159-0.075-0.247    l-0.25-0.508c-0.063-0.13-0.09-0.126-0.229-0.126H2.394V80.427z" fill="#FFFFFF"/>
		<path d="M4.995,78.388c0.103,0,0.15,0.072,0.15,0.15v0.868c0.093,0,0.166,0.032,0.22,0.085    c0.054,0.051,0.081,0.126,0.081,0.22v0.715c0,0.185-0.114,0.301-0.301,0.301H4.261c-0.186,0-0.3-0.116-0.3-0.301v-0.715    c0-0.094,0.027-0.169,0.081-0.22c0.054-0.053,0.126-0.085,0.219-0.085V78.54c0-0.078,0.048-0.15,0.15-0.15L4.995,78.388    L4.995,78.388z M5.145,80.427v-0.719H4.261v0.719H5.145z M4.845,79.408V78.69H4.562v0.718H4.845z" fill="#FFFFFF"/>
	</g>
	<g>
		<path d="M2.093,85.898H1.981c-0.099,0-0.183-0.035-0.183-0.149c0-0.107,0.081-0.15,0.174-0.15h0.502    c0.234,0,0.352,0.098,0.454,0.301l0.265,0.529c0.06,0.123,0.09,0.21,0.09,0.349c0,0.12-0.033,0.224-0.087,0.331l-0.273,0.548    c-0.105,0.213-0.24,0.281-0.475,0.281h-0.5c-0.078,0-0.15-0.042-0.15-0.149s0.072-0.15,0.15-0.15h0.145V85.898z M2.394,87.635    h0.057c0.126,0,0.156-0.015,0.21-0.126l0.264-0.535c0.033-0.068,0.057-0.12,0.057-0.194c0-0.103-0.033-0.159-0.075-0.246    l-0.25-0.509c-0.063-0.13-0.09-0.127-0.229-0.127H2.394V87.635z" fill="#FFFFFF"/>
		<path d="M5.145,86.669H4.111c-0.084,0-0.15-0.072-0.15-0.15v-0.77c0-0.078,0.066-0.15,0.15-0.15h1.185    c0.084,0,0.15,0.072,0.15,0.15v2.038c0,0.081-0.06,0.149-0.15,0.149h-0.15c-0.09,0-0.15-0.068-0.15-0.149    c0-0.09,0.063-0.15,0.15-0.15L5.145,86.669L5.145,86.669z M5.145,86.368v-0.47H4.261v0.47H5.145z" fill="#FFFFFF"/>
	</g>
	<g>
		<path d="M1.012,93.107H0.9c-0.099,0-0.183-0.036-0.183-0.149c0-0.108,0.081-0.15,0.174-0.15h0.502    c0.234,0,0.352,0.097,0.454,0.301l0.265,0.529c0.06,0.123,0.09,0.21,0.09,0.349c0,0.12-0.033,0.224-0.087,0.33l-0.273,0.547    c-0.105,0.214-0.24,0.283-0.475,0.283h-0.5c-0.078,0-0.15-0.042-0.15-0.149s0.072-0.15,0.15-0.15h0.145V93.107z M1.312,94.844    H1.37c0.126,0,0.156-0.015,0.21-0.126l0.264-0.535c0.033-0.069,0.057-0.12,0.057-0.195c0-0.103-0.033-0.158-0.075-0.247    l-0.25-0.508c-0.063-0.129-0.09-0.126-0.229-0.126H1.312V94.844z" fill="#FFFFFF"/>
		<path d="M4.064,94.844v-0.607c0-0.087,0.039-0.149,0.15-0.149s0.15,0.063,0.15,0.149v0.759    c0,0.107-0.072,0.149-0.15,0.149H3.03c-0.078,0-0.15-0.042-0.15-0.149s0.072-0.15,0.15-0.15h0.442v-1.737H3.03    c-0.078,0-0.15-0.042-0.15-0.149c0-0.108,0.072-0.15,0.15-0.15h0.743v2.038h0.291V94.844z" fill="#FFFFFF"/>
		<path d="M6.227,92.806c0.166,0,0.301,0.136,0.301,0.301v1.737c0,0.168-0.129,0.301-0.301,0.301H5.343    c-0.171,0-0.3-0.133-0.3-0.301v-1.737c0-0.165,0.135-0.301,0.3-0.301H6.227z M6.227,94.844v-1.737H5.343v1.737H6.227z" fill="#FFFFFF"/>
	</g>
	<g>
		<path d="M1.012,100.316H0.9c-0.099,0-0.183-0.036-0.183-0.149c0-0.108,0.081-0.15,0.174-0.15h0.502    c0.234,0,0.352,0.097,0.454,0.301l0.265,0.529c0.06,0.123,0.09,0.21,0.09,0.349c0,0.12-0.033,0.224-0.087,0.33l-0.273,0.547    c-0.105,0.214-0.24,0.283-0.475,0.283h-0.5c-0.078,0-0.15-0.042-0.15-0.15c0-0.106,0.072-0.149,0.15-0.149h0.145V100.316z     M1.312,102.053H1.37c0.126,0,0.156-0.016,0.21-0.126l0.264-0.535c0.033-0.069,0.057-0.12,0.057-0.195    c0-0.103-0.033-0.159-0.075-0.247l-0.25-0.508c-0.063-0.129-0.09-0.126-0.229-0.126H1.312V102.053z" fill="#FFFFFF"/>
		<path d="M4.064,102.053v-0.607c0-0.087,0.039-0.149,0.15-0.149s0.15,0.063,0.15,0.149v0.758    c0,0.108-0.072,0.15-0.15,0.15H3.03c-0.078,0-0.15-0.042-0.15-0.15c0-0.106,0.072-0.149,0.15-0.149h0.442v-1.737H3.03    c-0.078,0-0.15-0.042-0.15-0.149c0-0.108,0.072-0.15,0.15-0.15h0.743v2.038h0.291V102.053z" fill="#FFFFFF"/>
		<path d="M6.227,102.053v-0.607c0-0.087,0.039-0.149,0.15-0.149s0.15,0.063,0.15,0.149v0.758    c0,0.108-0.072,0.15-0.15,0.15H5.192c-0.078,0-0.15-0.042-0.15-0.15c0-0.106,0.072-0.149,0.15-0.149h0.442v-1.737H5.192    c-0.078,0-0.15-0.042-0.15-0.149c0-0.108,0.072-0.15,0.15-0.15h0.743v2.038h0.292V102.053z" fill="#FFFFFF"/>
	</g>
	<g>
		<path d="M1.012,107.524H0.9c-0.099,0-0.183-0.036-0.183-0.15c0-0.106,0.081-0.149,0.174-0.149h0.502    c0.234,0,0.352,0.096,0.454,0.301l0.265,0.529c0.06,0.123,0.09,0.21,0.09,0.349c0,0.12-0.033,0.222-0.087,0.331l-0.273,0.547    c-0.105,0.213-0.24,0.282-0.475,0.282h-0.5c-0.078,0-0.15-0.042-0.15-0.15c0-0.107,0.072-0.149,0.15-0.149h0.145V107.524z     M1.312,109.261H1.37c0.126,0,0.156-0.016,0.21-0.126l0.264-0.535c0.033-0.069,0.057-0.12,0.057-0.195    c0-0.102-0.033-0.159-0.075-0.246l-0.25-0.508c-0.063-0.13-0.09-0.127-0.229-0.127H1.312V109.261z" fill="#FFFFFF"/>
		<path d="M4.064,109.261v-0.606c0-0.088,0.039-0.15,0.15-0.15s0.15,0.063,0.15,0.15v0.757    c0,0.108-0.072,0.15-0.15,0.15H3.03c-0.078,0-0.15-0.042-0.15-0.15c0-0.107,0.072-0.149,0.15-0.149h0.442v-1.737H3.03    c-0.078,0-0.15-0.042-0.15-0.15c0-0.106,0.072-0.149,0.15-0.149h0.743v2.038h0.291V109.261z" fill="#FFFFFF"/>
		<path d="M5.343,109.261h1.034c0.078,0,0.15,0.042,0.15,0.149c0,0.108-0.072,0.15-0.15,0.15H5.042v-0.979    c0-0.227,0.114-0.34,0.339-0.34h0.845v-0.719H5.192c-0.078,0-0.15-0.042-0.15-0.15c0-0.106,0.072-0.149,0.15-0.149H6.19    c0.1,0,0.168,0.016,0.244,0.084c0.084,0.078,0.093,0.16,0.093,0.268v0.617c0,0.107-0.009,0.189-0.093,0.268    c-0.075,0.068-0.144,0.084-0.244,0.084H5.343V109.261z" fill="#FFFFFF"/>
	</g>
	<g>
		<rect fill="#8D8C8C" height="6.258" width="7.102" x="8.524" y="100.23"/>
		<rect fill="#8D8C8C" height="7.241" width="7.102" x="8.524" y="112.054"/>
	</g>
	<g>
		<rect fill="#8D8C8C" height="6.258" width="7.102" x="35.496" y="100.23"/>
		<rect fill="#8D8C8C" height="7.241" width="7.102" x="35.496" y="112.054"/>
	</g>
	<g>
		<polygon fill="#404040" points="29.765,105.649 28.939,104.561 34.75,104.561 34.75,103.606 15.852,103.606 15.852,104.561     22.182,104.561 21.354,105.649 14.88,105.649 14.88,130.132 36.24,130.132 36.24,105.649   "/>
	</g>
	<path d="M21.014,115.737c0.156,0,0.271,0.127,0.254,0.282l-1.096,10.502c-0.016,0.154-0.157,0.281-0.313,0.281h-1.744   c-0.156,0-0.297-0.127-0.313-0.281l-1.096-10.502c-0.016-0.155,0.098-0.282,0.254-0.282h0.254c0.156,0,0.295,0.127,0.309,0.282   l0.83,9.548c0.013,0.154,0.152,0.281,0.309,0.281h0.65c0.156,0,0.295-0.127,0.309-0.281l0.83-9.548   c0.013-0.155,0.152-0.282,0.308-0.282H21.014z"/>
	<path d="M34.162,115.737c0.156,0,0.271,0.127,0.254,0.282l-1.098,10.503c-0.017,0.154-0.156,0.281-0.313,0.281h-1.744   c-0.156,0-0.297-0.127-0.313-0.281l-1.098-10.503c-0.016-0.155,0.098-0.282,0.254-0.282h0.256c0.156,0,0.295,0.127,0.31,0.282   l0.828,9.548c0.014,0.154,0.151,0.281,0.31,0.281h0.649c0.155,0,0.296-0.127,0.31-0.281l0.829-9.548   c0.015-0.155,0.152-0.282,0.31-0.282H34.162z"/>
	<g>
		<polygon fill="none" points="31.525,125.843 32.744,125.843 32.812,125.014 31.457,125.014   "/>
		<polygon fill="#939393" points="32.812,125.014 32.744,125.843 31.525,125.843 31.457,125.014   "/>
		<polygon fill="#545454" points="32.812,125.014 32.846,124.663 31.418,124.663 31.457,125.014   "/>
	</g>
	<g>
		<polygon fill="none" points="18.375,125.843 19.596,125.843 19.664,125.014 18.309,125.014   "/>
		<polygon fill="#939393" points="19.664,125.014 19.596,125.843 18.375,125.843 18.309,125.014   "/>
		<polygon fill="#545454" points="19.664,125.014 19.7,124.663 18.271,124.663 18.309,125.014   "/>
	</g>
	<rect fill="#939393" height="2.014" width="5.557" x="22.651" y="117.268"/>
	<rect fill="#545454" height="1.115" width="5.557" x="22.651" y="116.153"/>
	<path d="M22.314,127.76c0.156,0,0.292-0.127,0.301-0.283l0.699-11.613c0.009-0.156,0.145-0.283,0.301-0.283h3.888   c0.156,0,0.292,0.127,0.301,0.283l0.699,11.613c0.009,0.156,0.145,0.283,0.301,0.283h0.518c0.156,0,0.273-0.127,0.264-0.283   l-0.96-13.2c-0.013-0.155-0.147-0.283-0.306-0.283h-5.521c-0.156,0-0.293,0.127-0.305,0.283l-0.96,13.2   c-0.011,0.155,0.107,0.283,0.263,0.283H22.314z"/>
	
		<line fill="none" stroke="#FFFFFF" stroke-linecap="round" stroke-opacity="0.24" stroke-width="1" x1="15.511" x2="15.511" y1="106.246" y2="129.818"/>
	
		<line fill="none" stroke="#FFFFFF" stroke-linecap="round" stroke-opacity="0.15" stroke-width="0.5" x1="35.867" x2="35.867" y1="106.246" y2="129.818"/>
	
		<line fill="none" stroke="#FFFFFF" stroke-linecap="round" stroke-opacity="0.3" stroke-width="1" x1="22.863" x2="28.256" y1="104.677" y2="104.677"/>
</g>
<text fill="#FFFFFF" font-family="'OCRA'" font-size="4" transform="matrix(1 0 0 1 21.2344 31.5945)">2.3</text>
</svg>