<?xml version="1.0" encoding="utf-8"?>
<!-- Generator: Adobe Illustrator 16.0.0, SVG Export Plug-In . SVG Version: 6.00 Build 0)  -->
<svg version="1.2" baseProfile="tiny" id="_x30_" xmlns:xml="http://www.w3.org/XML/1998/namespace"
	 xmlns="http://www.w3.org/2000/svg" xmlns:xlink="http://www.w3.org/1999/xlink" x="0px" y="0px" width="193.368px"
	 height="77.348px" viewBox="0 0 193.368 77.348" xml:space="preserve">
<g id="breadboardbreadboard">
	<path fill="#E4190E" d="M0,0v77.348h193.368V0H0z M41.404,50.25c-1.111,0-2.012-0.901-2.012-2.013c0-1.112,0.901-2.013,2.012-2.013
		c1.112,0,2.016,0.9,2.016,2.013C43.42,49.348,42.515,50.25,41.404,50.25z M62.675,23.44c-1.111,0-2.012-0.9-2.012-2.012
		c0-1.112,0.901-2.013,2.012-2.013c1.112,0,2.016,0.901,2.016,2.013S63.787,23.44,62.675,23.44z M107.906,50.25
		c-1.111,0-2.012-0.901-2.012-2.013c0-1.112,0.902-2.013,2.012-2.013c1.113,0,2.017,0.9,2.017,2.013
		C109.923,49.348,109.019,50.25,107.906,50.25z M120.151,23.44c-1.11,0-2.011-0.9-2.011-2.012c0-1.112,0.901-2.013,2.011-2.013
		c1.113,0,2.018,0.901,2.018,2.013S121.264,23.44,120.151,23.44z M146.456,50.25c-1.111,0-2.013-0.901-2.013-2.013
		c0-1.112,0.902-2.013,2.013-2.013c1.112,0,2.016,0.9,2.016,2.013C148.472,49.348,147.568,50.25,146.456,50.25z"/>
	<g>
		<path id="connector5pin" fill="#2E0502" d="M107.906,50.25c-1.111,0-2.012-0.901-2.012-2.013c0-1.112,0.902-2.013,2.012-2.013
			c1.113,0,2.017,0.9,2.017,2.013C109.923,49.348,109.019,50.25,107.906,50.25z"/>
		<path id="connector4pin" fill="#2E0502" d="M146.456,50.25c-1.111,0-2.013-0.901-2.013-2.013c0-1.112,0.902-2.013,2.013-2.013
			c1.112,0,2.016,0.9,2.016,2.013C148.472,49.348,147.568,50.25,146.456,50.25z"/>
		<path id="connector3pin" fill="#2E0502" d="M41.404,50.25c-1.111,0-2.012-0.901-2.012-2.013c0-1.112,0.901-2.013,2.012-2.013
			c1.112,0,2.016,0.9,2.016,2.013C43.42,49.348,42.515,50.25,41.404,50.25z"/>
		<path id="connector2pin" fill="#2E0502" d="M62.675,23.44c-1.111,0-2.012-0.9-2.012-2.012c0-1.112,0.901-2.013,2.012-2.013
			c1.112,0,2.016,0.901,2.016,2.013S63.787,23.44,62.675,23.44z"/>
		<path id="connector1pin" fill="#2E0502" d="M120.151,23.44c-1.11,0-2.011-0.9-2.011-2.012c0-1.112,0.901-2.013,2.011-2.013
			c1.113,0,2.018,0.901,2.018,2.013S121.264,23.44,120.151,23.44z"/>
	</g>
	<g>
		<rect x="0" y="72.513" fill="#720C07" width="193.368" height="4.834"/>
		<g>
			<path fill="#FFFFFF" d="M35.591,21.937c0,1.098-0.494,1.615-0.907,1.85c-0.515,0.296-1.175,0.449-1.954,0.449h-1.492
				c-0.599,0-1.106,0.021-1.506,0.057c-0.303,0.031-0.556,0.149-0.772,0.365l-0.006,0.006l-0.006,0.006
				c-0.306,0.287-0.497,0.605-0.583,0.983c-0.099,0.432-0.149,0.946-0.149,1.524v1.813h2.458c0.782,0,1.44,0.152,1.956,0.448
				c0.602,0.347,0.908,0.982,0.908,1.89c0,1.099-0.495,1.613-0.908,1.85c-0.515,0.297-1.173,0.448-1.956,0.448h-2.458v14.31
				c0,0.781-0.152,1.439-0.448,1.955c-0.238,0.412-0.753,0.908-1.85,0.908c-0.909,0-1.543-0.307-1.89-0.908
				c-0.297-0.515-0.447-1.172-0.447-1.955V33.627h-1.292c-0.781,0-1.438-0.152-1.952-0.447c-0.415-0.24-0.91-0.753-0.91-1.852
				c0-0.907,0.306-1.543,0.91-1.89c0.513-0.296,1.171-0.448,1.952-0.448h1.292v-1.813c0-1.113,0.127-2.144,0.379-3.071
				c0.262-0.967,0.849-1.881,1.741-2.719c0.431-0.427,0.861-0.77,1.281-1.016c0.431-0.253,0.875-0.433,1.324-0.54
				c0.428-0.097,0.882-0.164,1.352-0.192c0.46-0.028,0.965-0.04,1.5-0.04h1.573c0.78,0,1.437,0.15,1.954,0.448
				C35.285,20.394,35.591,21.032,35.591,21.937z"/>
			<path fill="#FFFFFF" d="M85.426,29.439c-0.517-0.296-1.176-0.448-1.957-0.448h-3.91V22.26c0-0.781-0.151-1.438-0.445-1.954
				c-0.24-0.415-0.756-0.908-1.851-0.908c-0.908,0-1.545,0.305-1.892,0.908c-0.296,0.515-0.447,1.172-0.447,1.954v6.73h-1.289
				c-0.784,0-1.439,0.152-1.954,0.448c-0.603,0.347-0.909,0.982-0.909,1.89c0,1.099,0.494,1.613,0.909,1.852
				c0.515,0.295,1.17,0.447,1.954,0.447h1.289v11.648c0,0.736,0.072,1.422,0.215,2.045c0.148,0.658,0.416,1.238,0.794,1.723
				c0.386,0.492,0.918,0.884,1.589,1.156c0.645,0.265,1.483,0.398,2.479,0.398h2.392c0.781,0,1.44-0.148,1.955-0.446
				c0.413-0.239,0.907-0.753,0.907-1.851c0-0.907-0.302-1.543-0.907-1.891c-0.514-0.297-1.174-0.447-1.955-0.447h-2.191
				c-0.367,0-0.511-0.053-0.553-0.074c-0.04-0.088-0.092-0.268-0.092-0.613V33.627h3.91c0.784,0,1.442-0.152,1.957-0.448
				c0.411-0.238,0.908-0.751,0.908-1.85C86.334,30.422,86.027,29.786,85.426,29.439z"/>
			<path fill="#FFFFFF" d="M173.493,29.698c-0.239-0.415-0.755-0.908-1.85-0.908c-0.907,0-1.546,0.304-1.89,0.908
				c-0.208,0.356-0.344,0.785-0.406,1.274l-0.053-0.056c-0.577-0.631-1.246-1.119-1.994-1.441c-0.742-0.32-1.505-0.484-2.269-0.484
				h-1.892c-0.664,0-1.238,0.036-1.706,0.108c-0.483,0.073-0.938,0.198-1.362,0.373c-0.42,0.174-0.83,0.401-1.223,0.675
				c-0.37,0.265-0.811,0.605-1.299,1.013c-0.501,0.417-0.916,0.802-1.237,1.154c-0.343,0.373-0.616,0.783-0.813,1.217
				c-0.188,0.43-0.326,0.899-0.396,1.398c-0.072,0.475-0.105,1.042-0.105,1.684v6.368c0,0.641,0.033,1.205,0.105,1.683
				c0.07,0.497,0.208,0.969,0.396,1.396c0.197,0.437,0.471,0.846,0.813,1.22c0.319,0.346,0.736,0.734,1.237,1.15
				c0.492,0.414,0.932,0.752,1.299,1.012c0.39,0.275,0.799,0.502,1.223,0.678c0.424,0.174,0.885,0.3,1.362,0.372
				c0.462,0.07,1.038,0.106,1.706,0.106h1.892c0.794,0,1.577-0.179,2.325-0.529c0.654-0.311,1.312-0.781,1.949-1.405v3.827
				c0,0.48-0.067,0.896-0.193,1.246c-0.114,0.317-0.426,0.682-0.918,1.078c-0.41,0.342-0.82,0.574-1.217,0.703
				c-0.404,0.129-0.914,0.197-1.502,0.197h-5.886c-0.781,0-1.438,0.15-1.956,0.447c-0.41,0.24-0.906,0.754-0.906,1.85
				c0,0.906,0.306,1.543,0.906,1.892c0.518,0.297,1.176,0.446,1.956,0.446h6.208c0.662,0,1.235-0.035,1.703-0.105
				c0.479-0.074,0.938-0.199,1.365-0.373c0.416-0.176,0.828-0.402,1.219-0.676c0.38-0.268,0.814-0.605,1.303-1.014
				c0.494-0.412,0.909-0.799,1.234-1.148c0.344-0.375,0.615-0.785,0.812-1.219c0.19-0.43,0.326-0.9,0.397-1.399
				c0.072-0.483,0.107-1.048,0.107-1.683V31.652C173.94,30.872,173.791,30.214,173.493,29.698z M169.305,41.609
				c0,0.503-0.164,0.932-0.505,1.312c-0.402,0.455-1.046,1.073-1.907,1.829l-0.008,0.008l-0.007,0.006
				c-0.368,0.344-0.776,0.639-1.21,0.876c-0.396,0.214-0.867,0.323-1.404,0.323h-0.803c-0.594,0-1.097-0.066-1.504-0.197
				c-0.397-0.129-0.806-0.363-1.215-0.699c-0.616-0.498-0.84-0.865-0.92-1.084c-0.131-0.346-0.193-0.762-0.193-1.244v-5.886
				c0-0.479,0.063-0.898,0.193-1.245c0.08-0.218,0.303-0.583,0.918-1.08c0.41-0.339,0.817-0.573,1.217-0.701
				c0.406-0.132,0.91-0.198,1.504-0.198h0.803c0.564,0,1.032,0.102,1.404,0.302c0.406,0.225,0.819,0.516,1.223,0.868
				c0.857,0.781,1.504,1.412,1.908,1.871c0.342,0.384,0.506,0.813,0.506,1.313V41.609L169.305,41.609z"/>
			<path fill="#FFFFFF" d="M62.856,28.99H59.67c-0.781,0-1.439,0.152-1.952,0.448c-0.603,0.347-0.91,0.982-0.91,1.89
				c0,1.099,0.497,1.613,0.91,1.85c0.513,0.297,1.172,0.448,1.952,0.448h1.451v14.309c0,0.783,0.152,1.441,0.447,1.955
				c0.348,0.603,0.985,0.908,1.891,0.908c1.098,0,1.614-0.495,1.852-0.908c0.297-0.516,0.446-1.174,0.446-1.955V31.894
				c0-1.03-0.223-1.755-0.684-2.216C64.611,29.218,63.885,28.99,62.856,28.99z"/>
			<path fill="#FFFFFF" d="M120.321,28.99h-3.188c-0.781,0-1.438,0.152-1.955,0.448c-0.6,0.347-0.906,0.982-0.906,1.89
				c0,1.099,0.496,1.613,0.906,1.85c0.516,0.297,1.174,0.448,1.955,0.448h1.453v14.309c0,0.783,0.148,1.441,0.447,1.955
				c0.344,0.603,0.98,0.908,1.891,0.908c1.095,0,1.61-0.495,1.846-0.908c0.302-0.516,0.451-1.174,0.451-1.955V31.894
				c0-1.03-0.225-1.753-0.688-2.216C122.076,29.218,121.35,28.99,120.321,28.99z"/>
			<path fill="#FFFFFF" d="M107.906,43.803c-1.61,0-3.02,0.869-3.795,2.159h-7.46l10.569-10.869c0.391-0.39,0.773-0.862,1.141-1.395
				c0.4-0.592,0.607-1.278,0.607-2.048c0-0.748-0.258-1.385-0.766-1.894c-0.51-0.509-1.189-0.768-2.014-0.768H93.814
				c-0.812,0-1.479,0.152-1.981,0.453c-0.583,0.346-0.881,0.981-0.881,1.885c0,0.88,0.297,1.501,0.881,1.848
				c0.502,0.299,1.168,0.45,1.981,0.45h8.409L91.612,44.535c-0.386,0.391-0.77,0.844-1.134,1.346
				c-0.408,0.564-0.614,1.256-0.614,2.055c0,0.749,0.259,1.387,0.766,1.895c0.509,0.51,1.185,0.766,2.018,0.766h11.518
				c0.785,1.241,2.169,2.07,3.742,2.07c2.444,0,4.432-1.985,4.432-4.431C112.338,45.793,110.352,43.803,107.906,43.803z
				 M107.906,50.25c-1.111,0-2.012-0.901-2.012-2.013c0-1.112,0.902-2.013,2.012-2.013c1.113,0,2.017,0.9,2.017,2.013
				C109.923,49.348,109.019,50.25,107.906,50.25z"/>
			<path fill="#FFFFFF" d="M148.684,44.41l-0.291-9.127c-0.025-0.473-0.055-0.905-0.082-1.306c-0.025-0.436-0.102-0.86-0.217-1.269
				c-0.119-0.419-0.301-0.823-0.537-1.21c-0.241-0.393-0.57-0.77-0.983-1.123c-0.601-0.514-1.184-0.889-1.728-1.107
				c-0.553-0.227-1.23-0.339-2.013-0.339h-2.7c-0.692,0-1.337,0.146-1.91,0.435c-0.525,0.26-1.037,0.545-1.527,0.845l-0.01,0.005
				l-0.006,0.006l-2.234,1.477V31.59c0-0.782-0.147-1.439-0.446-1.956c-0.346-0.604-0.985-0.908-1.89-0.908
				c-1.098,0-1.613,0.495-1.852,0.908c-0.297,0.514-0.447,1.172-0.447,1.956v16.285c0,0.781,0.15,1.438,0.447,1.955
				c0.24,0.413,0.754,0.906,1.852,0.906c0.906,0,1.544-0.306,1.89-0.906c0.299-0.519,0.446-1.176,0.446-1.955V37.098l5.215-3.245
				c0.108-0.063,0.221-0.125,0.324-0.17c0.086-0.038,0.188-0.065,0.305-0.086c0.137-0.021,0.314-0.035,0.527-0.035h0.969
				c0.503,0,0.893,0.053,1.156,0.153c0.219,0.081,0.378,0.204,0.482,0.381c0.127,0.208,0.212,0.479,0.258,0.804
				c0.053,0.374,0.092,0.827,0.117,1.348l0.257,8.268c-1.22,0.79-2.031,2.161-2.031,3.719c0,2.447,1.989,4.431,4.431,4.431
				c2.444,0,4.432-1.985,4.432-4.431C150.889,46.605,150,45.18,148.684,44.41z M146.456,50.25c-1.111,0-2.013-0.901-2.013-2.013
				c0-1.112,0.902-2.013,2.013-2.013c1.112,0,2.016,0.9,2.016,2.013C148.472,49.348,147.568,50.25,146.456,50.25z"/>
			<path fill="#FFFFFF" d="M52.611,29.439c-0.516-0.296-1.176-0.448-1.955-0.448h-1.611c-0.667,0-1.328,0.168-1.96,0.499
				c-0.604,0.318-1.156,0.724-1.644,1.21l-1.719,1.609v-0.656c0-0.78-0.15-1.438-0.448-1.954c-0.347-0.604-0.985-0.908-1.891-0.908
				c-1.097,0-1.611,0.493-1.851,0.908c-0.295,0.515-0.447,1.172-0.447,1.954v12.814c-1.265,0.781-2.114,2.177-2.114,3.771
				c0,2.445,1.99,4.43,4.431,4.43c2.444,0,4.432-1.984,4.432-4.43c0-1.594-0.847-2.99-2.113-3.771v-5.906l4.636-4.172
				c0.269-0.243,0.534-0.437,0.795-0.579c0.224-0.123,0.464-0.183,0.734-0.183h0.768c0.781,0,1.439-0.152,1.955-0.448
				c0.414-0.238,0.909-0.751,0.909-1.85C53.52,30.422,53.212,29.786,52.611,29.439z M41.404,50.25c-1.111,0-2.012-0.901-2.012-2.013
				c0-1.112,0.901-2.013,2.012-2.013c1.112,0,2.016,0.9,2.016,2.013C43.42,49.348,42.515,50.25,41.404,50.25z"/>
			<path fill="#FFFFFF" d="M62.675,16.995c-2.441,0-4.431,1.99-4.431,4.432c0,2.446,1.99,4.43,4.431,4.43
				c2.444,0,4.432-1.984,4.432-4.43C67.107,18.985,65.119,16.995,62.675,16.995z M62.675,23.44c-1.111,0-2.012-0.9-2.012-2.012
				c0-1.112,0.901-2.013,2.012-2.013c1.112,0,2.016,0.901,2.016,2.013S63.787,23.44,62.675,23.44z"/>
			<path fill="#FFFFFF" d="M120.151,16.995c-2.439,0-4.43,1.99-4.43,4.432c0,2.446,1.99,4.43,4.43,4.43
				c2.445,0,4.434-1.984,4.434-4.43C124.584,18.985,122.596,16.995,120.151,16.995z M120.151,23.44c-1.11,0-2.011-0.9-2.011-2.012
				c0-1.112,0.901-2.013,2.011-2.013c1.113,0,2.018,0.901,2.018,2.013S121.264,23.44,120.151,23.44z"/>
		</g>
		<path fill="#2E0502" d="M62.675,23.44c-1.111,0-2.012-0.9-2.012-2.012c0-1.112,0.901-2.013,2.012-2.013
			c1.112,0,2.016,0.901,2.016,2.013S63.787,23.44,62.675,23.44z"/>
		<path fill="#2E0502" d="M120.151,23.44c-1.11,0-2.011-0.9-2.011-2.012c0-1.112,0.901-2.013,2.011-2.013
			c1.113,0,2.018,0.901,2.018,2.013S121.264,23.44,120.151,23.44z"/>
		<circle fill="#2E0502" cx="146.456" cy="48.237" r="2.012"/>
		<path fill="#2E0502" d="M107.906,50.25c-1.111,0-2.012-0.901-2.012-2.013c0-1.112,0.902-2.013,2.012-2.013
			c1.113,0,2.017,0.9,2.017,2.013C109.923,49.348,109.019,50.25,107.906,50.25z"/>
		<path fill="#2E0502" d="M41.404,50.25c-1.111,0-2.012-0.901-2.012-2.013c0-1.112,0.901-2.013,2.012-2.013
			c1.112,0,2.016,0.9,2.016,2.013C43.42,49.348,42.515,50.25,41.404,50.25z"/>
	</g>
</g>
</svg>
