<?xml version='1.0' encoding='UTF-8' standalone='no'?>
<!-- Created with Fritzing (http://www.fritzing.org/) -->
<svg xmlns="http://www.w3.org/2000/svg" width="1.00992in" x="0in" version="1.2" y="0in" height="1.14081in" viewBox="0 0 72.7142 82.1383" baseProfile="tiny">
 <desc >Fritzing breadboard generated by brd2svg</desc>
 <g  id="breadboardbreadboard" stroke-width="0">
  <g  id="icon" stroke-width="0">
   <path  fill="#672E58" stroke="none" stroke-width="0" d="M41.2203,82.1268A38.882,38.882,0,0,0,71.4603,68.8071A6.68807,6.68807,0,0,0,68.5803,58.7271A20.5047,20.5047,0,0,1,62.8203,54.7671A19.4836,19.4836,0,0,1,62.8203,27.7671A21.4458,21.4458,0,0,1,66.7803,24.5271A15.9381,15.9381,0,0,1,70.0203,22.7271A6.71131,6.71131,0,0,0,70.3803,12.2871A37.2566,37.2566,0,0,0,40.8603,0.0470551A41.0403,41.0403,0,1,0,41.2203,82.1268M62.9422,65.9271a3.11811,3.11811,0,1,1,6.23622,0,3.11811,3.11811,0,1,1,-6.23622,0zM13.2622,65.9271a3.11811,3.11811,0,1,1,6.23622,0,3.11811,3.11811,0,1,1,-6.23622,0zM62.9422,16.2471a3.11811,3.11811,0,1,1,6.23622,0,3.11811,3.11811,0,1,1,-6.23622,0zM13.2622,16.2471a3.11811,3.11811,0,1,1,6.23622,0,3.11811,3.11811,0,1,1,-6.23622,0z"/>
   <g  stroke-width="0">
    <title >layer 21</title>
    <g  stroke-width="0">
     <title >text:+</title>
     <g  stroke-width="0" transform="matrix(1, 0, 0, 1, 29.4123, 69.5271)">
      <g  stroke-width="0" transform="rotate(-90)">
       <text  x="0" y="0" font-family="OCRA" fill="white" text-anchor="end" stroke="none" stroke-width="0" font-size="8.352">+</text>
      </g>
     </g>
    </g>
    <g  stroke-width="0">
     <title >text:-</title>
     <g  stroke-width="0" transform="matrix(1, 0, 0, 1, 61.7403, 75.6468)">
      <g  stroke-width="0" transform="rotate(-90)">
       <text  x="0" y="0" font-family="OCRA" fill="white" text-anchor="start" stroke="none" stroke-width="0" font-size="8.352">-</text>
      </g>
     </g>
    </g>
    <g  stroke-width="0">
     <title >text:+</title>
     <g  stroke-width="0" transform="matrix(1, 0, 0, 1, 27.9003, 10.8471)">
      <g  stroke-width="0" transform="rotate(-90)">
       <text  x="0" y="0" font-family="OCRA" fill="white" text-anchor="start" stroke="none" stroke-width="0" font-size="8.352">+</text>
      </g>
     </g>
    </g>
    <g  stroke-width="0">
     <title >text:-</title>
     <g  stroke-width="0" transform="matrix(1, 0, 0, 1, 62.8923, 4.72705)">
      <g  stroke-width="0" transform="rotate(-90)">
       <text  x="0" y="0" font-family="OCRA" fill="white" text-anchor="end" stroke="none" stroke-width="0" font-size="8.352">-</text>
      </g>
     </g>
    </g>
    <g  stroke-width="0">
     <title >element:BAT1</title>
     <g  stroke-width="0">
      <title >package:BATTCON_20MM_4LEGS</title>
      <line  stroke="white" stroke-linecap="round" y1="20.2071" x1="62.1003" y2="11.5671" stroke-width="0.576" x2="54.1803"/>
      <line  stroke="white" stroke-linecap="round" y1="62.6871" x1="62.1003" y2="71.3271" stroke-width="0.576" x2="54.1803"/>
      <line  stroke="white" stroke-linecap="round" y1="71.3271" x1="28.2603" y2="54.7671" stroke-width="0.576" x2="18.9003"/>
      <line  stroke="white" stroke-linecap="round" y1="54.7671" x1="18.9003" y2="53.3271" stroke-width="0.576" x2="19.6203"/>
      <path  fill="none" stroke="white" stroke-width="0.576" d="M19.6203,53.3271A26.6735,26.6735,0,0,0,18.9003,28.1271"/>
      <line  stroke="white" stroke-linecap="round" y1="28.1271" x1="18.9003" y2="11.5671" stroke-width="0.576" x2="28.2603"/>
     </g>
    </g>
    <g  stroke-width="0">
     <title >element:U$1</title>
     <g  stroke-width="0">
      <title >package:PETAL-SMALL-2SIDE</title>
     </g>
    </g>
    <g  stroke-width="0">
     <title >element:U$2</title>
     <g  stroke-width="0">
      <title >package:PETAL-SMALL-2SIDE</title>
     </g>
    </g>
    <g  stroke-width="0">
     <title >element:U$3</title>
     <g  stroke-width="0">
      <title >package:PETAL-SMALL-2SIDE</title>
     </g>
    </g>
    <g  stroke-width="0">
     <title >element:U$4</title>
     <g  stroke-width="0">
      <title >package:PETAL-SMALL-2SIDE</title>
     </g>
    </g>
    <g  stroke-width="0">
     <title >element:U$5</title>
     <g  stroke-width="0">
      <title >package:LOGO-LILYPAD</title>
     </g>
    </g>
   </g>
   <circle  fill="none" cx="66.0603" cy="65.9271" connectorname="-" stroke="#9A916C" r="3.83811" id="connector5pin" stroke-width="1.44"/>
   <circle  fill="none" cx="16.3803" cy="65.9271" connectorname="+" stroke="#9A916C" r="3.83811" id="connector6pin" stroke-width="1.44"/>
   <circle  fill="none" cx="66.0603" cy="16.2471" connectorname="-" stroke="#9A916C" r="3.83811" id="connector7pin" stroke-width="1.44"/>
   <circle  fill="none" cx="16.3803" cy="16.2471" connectorname="+" stroke="#9A916C" r="3.83811" id="connector8pin" stroke-width="1.44"/>
  </g>
  <g  id="battcon_20mm_4legs" stroke-width="0" transform="matrix(1, 0, 0, 1, 6.71948, 10.6084)">
   <g  stroke-width="0" transform="matrix(0, -1, 1, 0, 0.099, 61.782)">
    <g  stroke-width="0">
     <g  stroke-width="0">
      <g  stroke-width="0">
       <circle  fill="#686868" cx="30.94" cy="31.475" r="29.619" stroke-width="0"/>
      </g>
      <g  opacity="0.5" stroke-width="0">
       <path  fill="#C6C6C6" stroke-width="0" d="M30.94,60.178c-3.443,0,-6.822,-0.577,-10.042,-1.715c-0.26,-0.0930002,-0.397,-0.378,-0.305,-0.639c0.0910001,-0.261,0.377,-0.396,0.638,-0.305c4.595,1.625,9.62899,2.061,14.436,1.276c0.267,-0.048,0.53,0.14,0.574,0.412c0.045,0.272,-0.14,0.53,-0.412,0.574C34.226,60.045,32.58,60.178,30.94,60.178z"/>
      </g>
      <g  opacity="0.43" stroke-width="0">
       <g  stroke-width="0">
        <path  fill="#020202" stroke-width="0" d="M4.497,28.04c0,-5.565,4.511,-10.076,10.076,-10.076c3.583,0,6.721,1.875,8.50702,4.692c-1.603,-3.441,-5.082,-5.832,-9.12902,-5.832c-5.565,0,-10.076,4.511,-10.076,10.076c0,1.982,0.581,3.826,1.569,5.385C4.843,30.993,4.497,29.559,4.497,28.04z"/>
       </g>
      </g>
      <g  opacity="0.43" stroke-width="0">
       <g  stroke-width="0">
        <path  fill="#020202" stroke-width="0" d="M38.409,28.04c0,-5.565,4.511,-10.076,10.076,-10.076c3.583,0,6.721,1.875,8.50702,4.692c-1.603,-3.441,-5.082,-5.832,-9.12902,-5.832c-5.565,0,-10.076,4.511,-10.076,10.076c0,1.982,0.58,3.826,1.569,5.385C38.755,30.993,38.409,29.559,38.409,28.04z"/>
       </g>
      </g>
      <g  stroke-width="0">
       <g  stroke-width="0">
        <g  stroke-width="0">
         <path  fill="#9B9B9B" stroke-width="0" d="M9.28303,24.307c0,-2.246,2.02,-4.066,4.512,-4.066s4.513,1.82,4.513,4.066l0,4.799L9.28303,29.106L9.28303,24.307z"/>
         <path  fill="#9B9B9B" stroke-width="0" d="M43.195,24.307c0,-2.246,2.021,-4.066,4.513,-4.066c2.492,0,4.513,1.82,4.513,4.066l0,4.799l-9.02498,0L43.196,24.307z"/>
        </g>
        <rect  width="9.02498" x="43.195" y="29.105" fill="#898989" height="21.642" stroke-width="0"/>
        <rect  width="9.02498" x="9.28303" y="29.105" fill="#898989" height="21.642" stroke-width="0"/>
        <g  stroke-width="0">
         <path  fill="#898989" stroke-width="0" d="M42.543,1.418L42.543,0L18.847,0l0,1.418L0,18.183l0,35.065c0,4.639,3.71,8.43502,8.24299,8.43502c4.532,0,10.607,-7.75001,21.809,-7.75001c11.202,0,17.482,7.75001,22.267,7.75001l0.864,0c4.784,0,8.69803,-3.796,8.69803,-8.43502L61.881,18.183L42.543,1.418zM18.984,34.927l0,15.521L8.60602,50.448L8.60602,34.927c-2.737,-1.727,-4.562,-4.769,-4.562,-8.244c0,-5.385,4.365,-9.75002,9.75002,-9.75002s9.75002,4.365,9.75002,9.75002C23.545,30.158,21.722,33.2,18.984,34.927zM52.896,34.927l0,15.521L42.519,50.448L42.519,34.927c-2.737,-1.727,-4.562,-4.769,-4.562,-8.244c0,-5.385,4.365,-9.75002,9.75002,-9.75002s9.75002,4.365,9.75002,9.75002C57.457,30.158,55.634,33.2,52.896,34.927z"/>
        </g>
        <rect  width="23.696" x="18.847" opacity="0.3" y="0" fill="#FFFFFF" height="1.418" enable-background="new    " stroke-width="0"/>
        <g  stroke-width="0">
         <path  fill="none" stroke-width="0" d="M13.795,16.933c-5.385,0,-9.75002,4.365,-9.75002,9.75002c0,3.476,1.824,6.519,4.562,8.24501l0,15.521l10.378,0L18.985,34.927c2.737,-1.728,4.561,-4.769,4.561,-8.244C23.545,21.298,19.18,16.933,13.795,16.933z"/>
         <path  fill="none" stroke-width="0" d="M47.707,16.933c-5.385,0,-9.75002,4.365,-9.75002,9.75002c0,3.476,1.824,6.519,4.562,8.24501l0,15.521l10.378,0L52.897,34.927c2.737,-1.728,4.561,-4.769,4.561,-8.244C57.457,21.298,53.092,16.933,47.707,16.933z"/>
         <path  fill="#898989" stroke-width="0" d="M0,18.183l0,35.065c0,1.55,0.421,3,1.142,4.252L1.142,17.167L0,18.183z"/>
         <path  opacity="0.3" fill="#FFFFFF" enable-background="new    " stroke-width="0" d="M0,18.183l0,35.065c0,1.55,0.421,3,1.142,4.252L1.142,17.167L0,18.183z"/>
         <path  fill="#898989" stroke-width="0" d="M61.881,18.183l-1.142,-0.988999L60.739,57.4c0.723002,-1.229,1.142,-2.645,1.142,-4.152L61.881,18.183z"/>
         <path  opacity="0.3" fill="#FFFFFF" enable-background="new    " stroke-width="0" d="M61.881,18.183l-1.142,-0.988999L60.739,57.4c0.723002,-1.229,1.142,-2.645,1.142,-4.152L61.881,18.183z"/>
        </g>
        <g  opacity="0.5" stroke-width="0">
         <path  fill="#FFFFFF" stroke-width="0" d="M31.426,4.588l0,5.397l5.2,0l0,0.882l-5.2,0l0,5.441l-0.947002,0l0,-5.441l-5.2,0L25.279,9.98503l5.2,0L30.479,4.588L31.426,4.588z"/>
        </g>
       </g>
      </g>
      <g  stroke-width="0">
       <path  fill="#828282" stroke-width="0" d="M17.049,29.426l-6.517,0c-0.276,0,-0.5,-0.224,-0.5,-0.5s0.224,-0.5,0.5,-0.5l6.517,0c0.276,0,0.5,0.224,0.5,0.5S17.325,29.426,17.049,29.426z"/>
      </g>
      <g  stroke-width="0">
       <path  fill="#828282" stroke-width="0" d="M50.966,29.426l-6.517,0c-0.276,0,-0.5,-0.224,-0.5,-0.5s0.224,-0.5,0.5,-0.5l6.517,0c0.276,0,0.5,0.224,0.5,0.5S51.242,29.426,50.966,29.426z"/>
      </g>
     </g>
     <path  opacity="0.3" fill="#FFFFFF" stroke-width="0" d="M9.29398,24.028c0,-2.078,2.041,-3.77,4.501,-3.77c2.461,0,4.486,1.691,4.486,3.77c0,-1.792,-2.312,-3.25,-4.486,-3.25C11.621,20.778,9.29398,22.236,9.29398,24.028z"/>
     <path  opacity="0.3" fill="#FFFFFF" stroke-width="0" d="M43.214,24.028c0,-2.078,2.041,-3.77,4.501,-3.77c2.461,0,4.486,1.691,4.486,3.77c0,-1.792,-2.312,-3.25,-4.486,-3.25C45.541,20.778,43.214,22.236,43.214,24.028z"/>
    </g>
   </g>
  </g>
 </g>
</svg>
