<?xml version="1.0" encoding="utf-8"?>
<!-- Generator: Adobe Illustrator 16.0.0, SVG Export Plug-In . SVG Version: 6.00 Build 0)  -->
<!DOCTYPE svg PUBLIC "-//W3C//DTD SVG 1.1//EN" "http://www.w3.org/Graphics/SVG/1.1/DTD/svg11.dtd">
<svg version="1.1" id="Ebene_1" xmlns:xml="http://www.w3.org/XML/1998/namespace"
	 xmlns="http://www.w3.org/2000/svg" xmlns:xlink="http://www.w3.org/1999/xlink" x="0px" y="0px" width="21.6px" height="44.221px"
	 viewBox="0 0 21.6 44.221" enable-background="new 0 0 21.6 44.221" xml:space="preserve">
<desc>Fritzing breadboard generated by brd2svg</desc>
<g id="breadboardbreadboard">
	<g id="icon">
		<path fill="#B0938F" d="M21.572,10.771C21.572,4.823,16.749,0,10.8,0S0.029,4.823,0.029,10.771v22.68
			c0,5.946,4.822,10.771,10.771,10.771s10.771-4.822,10.771-10.771L21.572,10.771 M6.973,8.812c0-2.11,1.713-3.827,3.826-3.828
			c2.114,0,3.828,1.716,3.828,3.827c0,0,0,0,0,0.001c0,2.113-1.713,3.827-3.827,3.827C8.687,12.639,6.973,10.926,6.973,8.812
			L6.973,8.812z M6.973,35.406c0-2.113,1.713-3.827,3.826-3.827c2.114-0.001,3.828,1.712,3.828,3.826c0,0,0,0,0,0.001
			c0,2.11-1.713,3.824-3.827,3.824C8.687,39.233,6.973,37.521,6.973,35.406C6.973,35.407,6.973,35.407,6.973,35.406z"/>
		<path fill="#672E58" d="M10.8,1.611c-5.516,0-9.987,4.472-9.987,9.986v21.028c0,5.514,4.471,9.986,9.987,9.986
			c5.516,0,9.986-4.471,9.986-9.986l0.001-21.028C20.787,6.083,16.316,1.611,10.8,1.611z M14.627,35.406
			c0,2.11-1.713,3.824-3.827,3.824c-2.113,0.002-3.827-1.71-3.827-3.824c0-2.113,1.713-3.827,3.826-3.827
			C12.913,31.578,14.627,33.291,14.627,35.406C14.627,35.406,14.627,35.406,14.627,35.406z M14.627,8.812
			c0,2.113-1.713,3.827-3.827,3.827c-2.113,0-3.827-1.713-3.827-3.827c0-2.11,1.713-3.827,3.826-3.828
			C12.913,4.984,14.627,6.699,14.627,8.812C14.627,8.811,14.627,8.811,14.627,8.812z"/>
		<g>
			<title>layer 21</title>
			<g>
				<title>text:-</title>
				<text transform="matrix(1 0 0 1 1.8586 14.0491)" fill="#FFFFFF" font-family="'OCRA'" font-size="4.6771">-</text>
			</g>
			<g>
				<title>text:S</title>
				<text transform="matrix(1 0 0 1 16.9211 33.9905)" fill="#FFFFFF" font-family="'OCRA'" font-size="4.6771">S</text>
			</g>
			<g>
				<title>element:BUTTON-</title>
				<g>
					<title>package:PETAL-MEDIUM-2SIDE</title>
				</g>
			</g>
			<g>
				<title>element:BUTTONS</title>
				<g>
					<title>package:PETAL-MEDIUM-2SIDE</title>
				</g>
			</g>
			<g>
				<title>element:LOGO1</title>
				<g>
					<title>package:LOGO-L</title>
				</g>
			</g>
			<g>
				<title>element:S1</title>
				<g>
					<title>package:TACTILE_SWITCH_SMD</title>
					
						<line fill="none" stroke="#FFFFFF" stroke-width="0.576" stroke-linecap="round" x1="17.64" y1="18.595" x2="17.64" y2="25.71"/>
					
						<line fill="none" stroke="#FFFFFF" stroke-width="0.576" stroke-linecap="round" x1="14.805" y1="29.311" x2="6.074" y2="29.311"/>
					
						<line fill="none" stroke="#FFFFFF" stroke-width="0.576" stroke-linecap="round" x1="3.24" y1="25.625" x2="3.24" y2="18.595"/>
					
						<line fill="none" stroke="#FFFFFF" stroke-width="0.576" stroke-linecap="round" x1="6.074" y1="14.91" x2="14.805" y2="14.91"/>
					<circle fill="none" stroke="#FFFFFF" stroke-width="0.576" cx="10.44" cy="22.11" r="3.6"/>
				</g>
			</g>
		</g>
		<path fill="#FFFFFF" d="M0.961,33.825c0,2.208,4.405,3.998,9.839,3.998c5.435,0,9.839-1.79,9.839-3.998
			c0,5.351-4.404,9.688-9.839,9.688C5.366,43.513,0.961,39.176,0.961,33.825z"/>
		<path fill="#FFFFFF" d="M20.639,10.425c0-2.208-4.404-3.998-9.839-3.998s-9.839,1.79-9.839,3.998c0-5.351,4.404-9.688,9.839-9.688
			S20.639,5.074,20.639,10.425z"/>
		<g id="connector0pin">
			<path fill="#9A916C" d="M10.8,6.08c1.482,0,2.688,1.206,2.688,2.688s-1.204,2.689-2.688,2.689s-2.688-1.207-2.688-2.689
				S9.318,6.08,10.8,6.08 M10.8,4.885c-2.146,0-3.884,1.739-3.884,3.884c0,2.146,1.738,3.884,3.884,3.884
				c2.145,0,3.883-1.738,3.883-3.884C14.683,6.624,12.945,4.885,10.8,4.885L10.8,4.885z"/>
		</g>
		<g id="connector1pin">
			<path fill="#9A916C" d="M10.8,32.75c1.482,0,2.688,1.206,2.688,2.688c0,1.483-1.205,2.689-2.688,2.689s-2.688-1.206-2.688-2.689
				C8.112,33.956,9.318,32.75,10.8,32.75 M10.8,31.555c-2.146,0-3.883,1.739-3.883,3.884c0,2.146,1.737,3.886,3.883,3.886
				s3.884-1.739,3.884-3.886C14.684,33.294,12.946,31.555,10.8,31.555L10.8,31.555z"/>
		</g>
	</g>
	<g id="tactile_switch_smd" transform="matrix(1, 0, 0, 1, 2.27748, 13.9143)">
		<g transform="matrix(-1, 0, 0, -1, 16.392, 16.392)">
			<polygon fill="#6D6D6D" points="1.142,12.976 3.415,15.25 12.978,15.25 15.25,12.976 15.25,3.413 12.978,1.141 3.415,1.141 
				1.142,3.413 			"/>
			<rect x="3.415" y="0.001" fill="#6D6D6D" width="9.562" height="16.392"/>
			<rect x="0" y="3.413" fill="#6D6D6D" width="16.392" height="9.563"/>
			<polygon fill="#7F7F7F" points="1.827,12.513 3.879,14.565 12.513,14.565 14.566,12.513 14.566,3.878 12.513,1.826 3.879,1.826 
				1.827,3.878 			"/>
			
				<polyline opacity="0.2" fill="none" stroke="#FFFFFF" stroke-width="0.2369" stroke-miterlimit="10" enable-background="new    " points="
				4.105,2.16 2.161,4.103 2.161,12.287 4.105,14.232 12.288,14.232 			"/>
			
				<polyline opacity="0.2" fill="none" stroke="#606060" stroke-width="0.2369" stroke-miterlimit="10" enable-background="new    " points="
				12.289,14.232 14.233,12.288 14.233,4.105 12.289,2.16 4.106,2.16 			"/>
			<g>
				<path fill="#BCA16A" d="M8.196,11.923c-2.055,0-3.727-1.672-3.727-3.728c0-2.055,1.672-3.729,3.727-3.729
					c2.057,0,3.729,1.672,3.729,3.729C11.922,10.251,10.25,11.923,8.196,11.923z"/>
				<path fill="#606060" d="M8.196,4.719c1.92,0,3.479,1.557,3.479,3.478c0,1.92-1.559,3.478-3.479,3.478s-3.477-1.558-3.477-3.478
					C4.719,6.275,6.276,4.719,8.196,4.719 M8.196,4.219c-2.191,0-3.977,1.783-3.977,3.978c0,2.192,1.784,3.978,3.977,3.978
					c2.193,0,3.979-1.784,3.979-3.978C12.172,6.003,10.388,4.219,8.196,4.219L8.196,4.219z"/>
			</g>
			
				<path opacity="0.2" fill="#BCA16A" stroke="#FFFFFF" stroke-width="0.5304" stroke-miterlimit="10" enable-background="new    " d="
				M10.39,10.389c-1.212,1.212-3.177,1.212-4.389,0c-1.212-1.213-1.212-3.177,0-4.39"/>
			
				<path opacity="0.2" fill="#BCA16A" stroke="#606060" stroke-width="0.5304" stroke-miterlimit="10" enable-background="new    " d="
				M6.001,5.999c1.212-1.213,3.177-1.213,4.389,0s1.212,3.177,0,4.39"/>
		</g>
	</g>
</g>
</svg>
