<?xml version="1.0" encoding="utf-8"?>
<!-- Generator: Adobe Illustrator 16.0.0, SVG Export Plug-In . SVG Version: 6.00 Build 0)  -->
<!DOCTYPE svg PUBLIC "-//W3C//DTD SVG 1.1//EN" "http://www.w3.org/Graphics/SVG/1.1/DTD/svg11.dtd">
<svg version="1.1" id="Ebene_1" xmlns="http://www.w3.org/2000/svg" xmlns:xlink="http://www.w3.org/1999/xlink" x="0px" y="0px"
	 width="141.732px" height="141.732px" viewBox="0 0 141.732 141.732" enable-background="new 0 0 141.732 141.732"
	 xml:space="preserve">
<desc>Fritzing breadboard generated by brd2svg</desc>
<g id="breadboardbreadboard">
	<path fill="#B0938F" d="M0,70.866c-0.063,39.139,31.61,70.919,70.749,70.983c39.14,0.063,70.918-31.609,70.983-70.748
		c0-0.078,0-0.157,0-0.235c0.063-39.138-31.61-70.919-70.749-70.983C31.845-0.183,0.065,31.493,0,70.631C0,70.71,0,70.788,0,70.866z
		 M83.282,36.85c-0.004-1.098,0.882-1.987,1.978-1.99c1.098-0.004,1.987,0.881,1.99,1.978c0,0.004,0,0.011,0,0.015
		c0.004,1.096-0.882,1.985-1.978,1.989c-1.098,0.005-1.987-0.882-1.99-1.978C83.282,36.859,83.282,36.855,83.282,36.85z
		 M54.482,36.85c-0.004-1.098,0.882-1.987,1.978-1.99c1.098-0.004,1.987,0.881,1.99,1.978c0,0.004,0,0.011,0,0.015
		c0.004,1.096-0.882,1.985-1.978,1.989c-1.098,0.005-1.987-0.882-1.99-1.978C54.482,36.859,54.482,36.855,54.482,36.85z
		 M73.913,95.527c-0.002-0.665,0.535-1.206,1.201-1.208c0.665-0.003,1.206,0.535,1.208,1.2c0,0.003,0,0.006,0,0.008
		c0.003,0.666-0.535,1.207-1.2,1.209s-1.207-0.535-1.209-1.2C73.913,95.533,73.913,95.53,73.913,95.527z M65.41,95.527
		c-0.003-0.665,0.535-1.206,1.2-1.208c0.665-0.003,1.207,0.535,1.209,1.2c0,0.003,0,0.006,0,0.008
		c0.002,0.666-0.535,1.207-1.201,1.209c-0.665,0.002-1.206-0.535-1.208-1.2C65.41,95.533,65.41,95.53,65.41,95.527z M122.869,45.276
		c-0.002-2.188,1.771-3.961,3.957-3.963c2.188-0.001,3.962,1.771,3.963,3.957c0,0.002,0,0.004,0,0.006
		c0.002,2.188-1.77,3.961-3.957,3.963c-2.187,0.002-3.961-1.771-3.963-3.957C122.869,45.28,122.869,45.278,122.869,45.276z
		 M100.139,19.177c-0.002-2.188,1.77-3.964,3.957-3.965c2.187-0.002,3.961,1.771,3.963,3.957c0,0.002,0,0.004,0,0.008
		c0.001,2.187-1.771,3.961-3.958,3.963c-2.188,0.001-3.961-1.771-3.962-3.958C100.139,19.18,100.139,19.179,100.139,19.177z
		 M66.906,9.439c-0.002-2.188,1.771-3.961,3.957-3.963c2.188-0.001,3.962,1.771,3.963,3.957c0,0.002,0,0.004,0,0.006
		c0.002,2.188-1.771,3.961-3.957,3.963c-2.188,0.002-3.961-1.771-3.963-3.957C66.906,9.443,66.906,9.441,66.906,9.439z
		 M33.31,19.245c-0.001-2.187,1.771-3.961,3.957-3.963c2.188-0.001,3.962,1.771,3.963,3.958c0,0.001,0,0.003,0,0.005
		c0.002,2.188-1.771,3.962-3.957,3.963c-2.188,0.002-3.961-1.77-3.963-3.957C33.31,19.249,33.31,19.247,33.31,19.245z
		 M127.71,79.613c0-2.187,1.773-3.96,3.96-3.96c2.188,0,3.96,1.773,3.96,3.96c0.002,2.188-1.77,3.962-3.957,3.963
		c-2.187,0.002-3.961-1.77-3.963-3.957C127.71,79.617,127.71,79.615,127.71,79.613z M49.61,129.83
		c-0.001-2.187,1.771-3.961,3.957-3.963c2.188-0.001,3.962,1.771,3.963,3.957c0,0.002,0,0.004,0,0.006
		c0.002,2.188-1.771,3.962-3.957,3.963c-2.187,0.002-3.961-1.771-3.963-3.957C49.61,129.834,49.61,129.832,49.61,129.83z
		 M84.202,129.83c-0.002-2.187,1.771-3.961,3.957-3.963c2.188-0.001,3.961,1.771,3.963,3.957c0,0.002,0,0.004,0,0.006
		c0.002,2.188-1.771,3.962-3.957,3.963c-2.188,0.002-3.962-1.771-3.963-3.957C84.202,129.834,84.202,129.832,84.202,129.83z
		 M113.33,111.091c-0.001-2.187,1.771-3.961,3.957-3.962c2.188-0.002,3.962,1.771,3.963,3.957c0,0.002,0,0.004,0,0.005
		c0.002,2.188-1.77,3.964-3.957,3.965c-2.187,0.002-3.961-1.771-3.963-3.957C113.33,111.094,113.33,111.094,113.33,111.091z
		 M20.482,111.091c0-2.187,1.771-3.96,3.96-3.96c2.187,0,3.96,1.772,3.96,3.959c0,0.001,0,0.001,0,0.001
		c0,2.188-1.772,3.963-3.959,3.963c-2.188,0-3.961-1.772-3.961-3.959C20.482,111.092,20.482,111.092,20.482,111.091z M10.942,45.304
		c0-2.188,1.771-3.96,3.96-3.96c2.187-0.001,3.96,1.771,3.961,3.959v0.001c0,2.188-1.772,3.96-3.96,3.961
		C12.716,49.265,10.943,47.493,10.942,45.304C10.942,45.305,10.942,45.305,10.942,45.304z M6.38,79.574
		c0-2.188,1.772-3.961,3.96-3.961c2.188,0,3.96,1.772,3.96,3.96c0,0,0,0,0,0.001c0.001,2.188-1.771,3.96-3.959,3.96
		C8.153,83.535,6.381,81.761,6.38,79.574L6.38,79.574z"/>
	<path fill="#672E58" d="M117.692,83.703c3.415,0,6.184-2.769,6.184-6.184c0-3.288-2.566-5.968-5.804-6.166
		c0.002-0.163,0.013-0.324,0.013-0.488c0-0.216-0.014-0.429-0.017-0.644c3.229-0.207,5.786-2.883,5.786-6.164
		c0-3.416-2.769-6.185-6.185-6.185c-0.469,0-0.924,0.057-1.362,0.155c-0.103-0.363-0.199-0.729-0.31-1.089
		c1.216-0.449,2.304-1.276,3.06-2.451c1.846-2.872,1.014-6.698-1.858-8.543c-1.984-1.273-4.42-1.271-6.346-0.204
		c-0.2-0.318-0.401-0.636-0.608-0.949c1.041-0.773,1.854-1.874,2.246-3.215c0.963-3.274-0.914-6.712-4.189-7.674
		c-2.259-0.663-4.592,0.021-6.14,1.583c-0.281-0.25-0.565-0.497-0.854-0.74c0.779-1.034,1.246-2.317,1.246-3.711
		c0-3.415-2.77-6.184-6.185-6.184c-2.342,0-4.379,1.303-5.429,3.222c-0.341-0.161-0.687-0.313-1.031-0.466
		c0.248-0.669,0.39-1.389,0.39-2.145c0-3.415-2.769-6.184-6.184-6.184c-2.957,0-5.426,2.077-6.036,4.851
		c-0.373-0.058-0.753-0.099-1.129-0.148c0.009-0.137,0.021-0.273,0.021-0.413c0-3.415-2.769-6.183-6.184-6.183
		s-6.183,2.768-6.183,6.183c0,0.139,0.012,0.276,0.021,0.413c-0.378,0.049-0.759,0.091-1.134,0.149
		c-0.626-2.752-3.083-4.808-6.025-4.808c-3.415,0-6.184,2.769-6.184,6.184c0,0.74,0.137,1.447,0.375,2.105
		c-0.35,0.155-0.699,0.309-1.044,0.472c-1.061-1.878-3.073-3.148-5.384-3.148c-3.416,0-6.185,2.769-6.185,6.184
		c0,1.366,0.448,2.625,1.199,3.648c-0.292,0.247-0.582,0.497-0.868,0.751c-1.113-1.082-2.63-1.75-4.306-1.75
		c-3.415,0-6.184,2.769-6.184,6.184c0,1.993,0.947,3.762,2.412,4.893c-0.211,0.319-0.417,0.643-0.62,0.967
		c-0.857-0.45-1.832-0.708-2.867-0.708c-3.416,0-6.185,2.769-6.185,6.184c0,2.617,1.627,4.849,3.923,5.752
		c-0.111,0.366-0.211,0.736-0.313,1.105c-0.388-0.076-0.787-0.118-1.197-0.118c-3.415,0-6.184,2.769-6.184,6.184
		c0,3.235,2.484,5.886,5.648,6.158c-0.002,0.166-0.013,0.33-0.013,0.497c0,0.218,0.014,0.434,0.017,0.651
		c-3.156,0.28-5.631,2.927-5.631,6.155c0,3.416,2.769,6.185,6.185,6.185c0.417,0,0.823-0.043,1.217-0.121
		c0.104,0.368,0.201,0.739,0.313,1.104c-2.284,0.909-3.9,3.136-3.9,5.743c0,3.416,2.769,6.185,6.184,6.185
		c1.043,0,2.024-0.261,2.886-0.717c0.204,0.324,0.408,0.647,0.62,0.966c-1.454,1.132-2.394,2.895-2.394,4.88
		c0,3.415,2.769,6.184,6.184,6.184c1.684,0,3.208-0.675,4.323-1.765c0.286,0.253,0.574,0.504,0.867,0.75
		c-0.742,1.021-1.186,2.271-1.186,3.63c0,3.415,2.77,6.184,6.185,6.184c2.319,0,4.337-1.278,5.396-3.167
		c0.345,0.162,0.693,0.318,1.043,0.472c-0.234,0.652-0.368,1.352-0.368,2.084c0,3.415,2.769,6.184,6.184,6.184
		c2.948,0,5.41-2.065,6.029-4.826c0.375,0.057,0.755,0.096,1.133,0.144c-0.008,0.131-0.02,0.261-0.02,0.394
		c0,3.415,2.77,6.185,6.185,6.185s6.184-2.77,6.184-6.185c0-0.146-0.012-0.289-0.021-0.433c0.377-0.05,0.756-0.097,1.13-0.156
		c0.278,1.249,0.938,2.424,1.979,3.327c2.58,2.232,6.486,1.955,8.725-0.625c1.534-1.773,1.884-4.168,1.119-6.218
		c0.343-0.153,0.688-0.304,1.027-0.465c1.053,1.908,3.082,3.202,5.416,3.202c3.416,0,6.185-2.769,6.185-6.184
		c0-1.402-0.472-2.69-1.259-3.729c0.287-0.244,0.573-0.488,0.854-0.739c1.119,1.123,2.668,1.819,4.38,1.819
		c3.415,0,6.185-2.769,6.185-6.184c0-2.04-0.993-3.844-2.517-4.971c0.206-0.314,0.41-0.631,0.609-0.95
		c0.885,0.487,1.9,0.767,2.981,0.767c3.415,0,6.184-2.768,6.184-6.183c0-2.669-1.694-4.936-4.063-5.802
		c0.109-0.359,0.208-0.725,0.309-1.088C116.782,83.648,117.23,83.703,117.692,83.703z"/>
	<g>
		<circle id="connector0pin" fill="none" stroke="#9A916C" stroke-width="1.8" cx="126.829" cy="45.276" r="4.86"/>
		<circle id="connector1pin" fill="none" stroke="#9A916C" stroke-width="1.8" cx="104.099" cy="19.177" r="4.86"/>
		<circle id="connector2pin" fill="none" stroke="#9A916C" stroke-width="1.8" cx="70.866" cy="9.44" r="4.86"/>
		<circle id="connector3pin" fill="none" stroke="#9A916C" stroke-width="1.8" cx="37.27" cy="19.245" r="4.86"/>
		<circle id="connector56pin" fill="none" stroke="#9A916C" stroke-width="1.8" cx="131.67" cy="79.614" r="4.86"/>
		<circle id="connector57pin" fill="none" stroke="#9A916C" stroke-width="1.8" cx="53.57" cy="129.83" r="4.86"/>
		<circle id="connector58pin" fill="none" stroke="#9A916C" stroke-width="1.8" cx="88.162" cy="129.83" r="4.86"/>
		<circle id="connector59pin" fill="none" stroke="#9A916C" stroke-width="1.8" cx="117.29" cy="111.091" r="4.86"/>
		<circle id="connector60pin" fill="none" stroke="#9A916C" stroke-width="1.8" cx="24.442" cy="111.091" r="4.86"/>
		<circle id="connector61pin" fill="none" stroke="#9A916C" stroke-width="1.8" cx="14.902" cy="45.305" r="4.86"/>
		<circle id="connector62pin" fill="none" stroke="#9A916C" stroke-width="1.8" cx="10.34" cy="79.573" r="4.86"/>
	</g>
	<g>
		<g id="petal-long-1-2side" transform="matrix(1, 0, 0, 1, 110.485, 39.595)">
			<g transform="matrix(-0.909961, -0.414693, 0.414693, -0.909961, 17.6456, 20.0642)">
				<path fill="#FFFFFF" d="M-1.48,16.452c1.486,4.231,6.119,6.456,10.348,4.973c1.854-0.651,3.321-1.905,4.261-3.465
					c0.104-0.159,6.851-10.658,6.65-10.586c-3.537,1.242-7.641-0.612-8.884-4.153c-0.474-1.353-0.494-2.751-0.143-4.035L1.195,7.35
					l0.007,0.005C-1.478,9.44-2.666,13.072-1.48,16.452z M5.619,8.039c2.531-0.887,5.308,0.444,6.195,2.978
					c0.889,2.531-0.444,5.307-2.977,6.194c-2.532,0.888-5.306-0.443-6.194-2.976C1.756,11.704,3.089,8.931,5.619,8.039z"/>
			</g>
		</g>
		<g id="petal-long-1-2side_1_" transform="matrix(1, 0, 0, 1, 89.9251, 16.0024)">
			<g transform="matrix(-0.54024, -0.841511, 0.841511, -0.54024, 10.1141, 21.7588)">
				<path fill="#FFFFFF" d="M13.201,22.956c4.459,0.469,8.456-2.767,8.924-7.223c0.205-1.953-0.298-3.816-1.305-5.333
					c-0.1-0.161-6.699-10.755-6.721-10.542c-0.392,3.729-3.823,6.642-7.556,6.251C5.118,5.957,3.845,5.378,2.834,4.51L6.12,16.644
					l0.008-0.004C6.864,19.953,9.638,22.581,13.201,22.956z M8.639,12.939c0.282-2.668,2.672-4.605,5.343-4.323
					c2.669,0.28,4.606,2.672,4.325,5.342c-0.281,2.669-2.672,4.605-5.341,4.322C10.295,17.999,8.359,15.607,8.639,12.939z"/>
			</g>
		</g>
		<g id="petal-long-1-2side_2_" transform="matrix(1, 0, 0, 1, 59.8651, 7.19542)">
			<g transform="matrix(0, -1, 1, 0, 2.8845, 19.1174)">
				<path fill="#FFFFFF" d="M25.441,12.001c2.143-3.938,0.688-8.869-3.249-11.012c-1.726-0.938-3.639-1.188-5.427-0.841
					C16.578,0.18,4.264,2.213,4.452,2.314c3.293,1.792,4.668,6.08,2.875,9.375C6.641,12.947,5.618,13.9,4.43,14.502l12.466,1.617
					v-0.011C20.237,16.701,23.728,15.147,25.441,12.001z M14.44,12.374c-2.356-1.283-3.229-4.236-1.944-6.594
					c1.283-2.355,4.235-3.229,6.594-1.944c2.355,1.282,3.229,4.231,1.943,6.59S16.797,13.653,14.44,12.374z"/>
			</g>
		</g>
		<g id="petal-long-1-2side_3_" transform="matrix(1, 0, 0, 1, 29.4421, 16.0704)">
			<g transform="matrix(0.54024, -0.841511, 0.841511, 0.54024, -1.7723, 12.9891)">
				<path fill="#FFFFFF" d="M20.658-3.46c-2.664-3.605-7.747-4.369-11.355-1.706C7.726-3.998,6.691-2.369,6.252-0.602
					C6.199-0.42,2.84,11.601,3.011,11.474c3.015-2.229,7.483-1.663,9.712,1.355c0.853,1.153,1.282,2.482,1.324,3.814L20.78,6.025
					l-0.008-0.004C22.721,3.244,22.785-0.578,20.658-3.46z M16.348,6.67c-2.159,1.592-5.202,1.136-6.797-1.023
					C7.957,3.488,8.415,0.444,10.573-1.15c2.159-1.594,5.203-1.136,6.796,1.022C18.963,2.031,18.504,5.074,16.348,6.67z"/>
			</g>
		</g>
		<g id="petal-long-1-2side_4_" transform="matrix(1, 0, 0, 1, 114.857, 70.659)">
			<g transform="matrix(-0.989776, 0.142629, -0.142629, -0.989776, 23.0471, 14.5809)">
				<path fill="#FFFFFF" d="M-1.719,0.077c-3.248,3.089-3.376,8.23-0.289,11.479c1.354,1.422,3.099,2.244,4.911,2.464
					c0.184,0.029,12.532,1.875,12.381,1.721c-2.583-2.718-2.578-7.221,0.14-9.806c1.04-0.989,2.303-1.579,3.622-1.788L7.68-1.22
					L7.675-1.212C4.677-2.802,0.876-2.393-1.719,0.077z M8.866,3.098c1.849,1.944,1.772,5.023-0.172,6.873
					c-1.946,1.85-5.02,1.774-6.871-0.172c-1.849-1.944-1.773-5.019,0.172-6.87C3.938,1.078,7.015,1.157,8.866,3.098z"/>
			</g>
		</g>
		<g id="petal-long-1-2side_5_" transform="matrix(1, 0, 0, 1, 44.2176, 116.077)">
			<g transform="matrix(0.280667, 0.959805, -0.959805, 0.280667, 15.7036, -4.72035)">
				<path fill="#FFFFFF" d="M20.96,19.344c3.984-2.06,5.545-6.96,3.487-10.94c-0.9-1.744-2.348-3.023-4.024-3.739
					C20.253,4.585,8.919-0.64,9.018-0.452c1.72,3.331,0.455,7.652-2.882,9.375c-1.273,0.657-2.653,0.871-3.976,0.7l9.414,8.336
					l0.005-0.011C14.014,20.314,17.777,20.985,20.96,19.344z M11.643,13.479c-1.23-2.383-0.298-5.318,2.087-6.55
					c2.385-1.229,5.318-0.296,6.549,2.088c1.232,2.384,0.297,5.317-2.087,6.549C15.807,16.797,12.876,15.861,11.643,13.479z"/>
			</g>
		</g>
		<g id="petal-long-1-2side_6_" transform="matrix(1, 0, 0, 1, 75.5129, 116.077)">
			<g transform="matrix(-0.280667, 0.959805, -0.959805, -0.280667, 21.8789, -0.16429)">
				<path fill="#FFFFFF" d="M25.398,3.704c-0.237-4.478-4.058-7.918-8.534-7.679c-1.963,0.105-3.723,0.892-5.063,2.125
					C11.658-1.726,2.229,6.454,2.442,6.44c3.744-0.195,7.161,2.738,7.359,6.484c0.073,1.43-0.3,2.778-0.998,3.913l11.468-5.148
					l-0.005-0.007C23.424,10.435,25.584,7.283,25.398,3.704z M16.22,9.781c-2.679,0.141-4.97-1.919-5.108-4.601
					c-0.139-2.678,1.92-4.966,4.598-5.109c2.68-0.137,4.967,1.919,5.107,4.599C20.958,7.35,18.898,9.638,16.22,9.781z"/>
			</g>
		</g>
		<g id="petal-long-1-2side_7_" transform="matrix(1, 0, 0, 1, 101.85, 99.1296)">
			<g transform="matrix(-0.755853, 0.654741, -0.654741, -0.755853, 24.6303, 7.04857)">
				<path fill="#FFFFFF" d="M12.926-6.809C8.753-8.45,4.04-6.398,2.398-2.228C1.68-0.401,1.668,1.53,2.233,3.262
					C2.287,3.443,5.823,15.413,5.9,15.213c1.372-3.489,5.458-5.381,8.947-4.007c1.334,0.525,2.405,1.423,3.149,2.53l0.07-12.57
					l-0.009,0C18.232-2.224,16.259-5.497,12.926-6.809z M14.652,4.064c-0.984,2.495-3.807,3.725-6.305,2.74
					C5.85,5.822,4.621,2.999,5.605,0.501c0.983-2.496,3.805-3.724,6.301-2.742C14.404-1.258,15.632,1.565,14.652,4.064z"/>
			</g>
		</g>
		<g id="petal-long-1-2side_8_" transform="matrix(1, 0, 0, 1, 17.88, 99.1296)">
			<g transform="matrix(0.755853, 0.654741, -0.654741, 0.755853, 8.00006, -5.22118)">
				<path fill="#FFFFFF" d="M4.889,21.883c3.532,2.761,8.636,2.136,11.395-1.396c1.208-1.547,1.77-3.395,1.717-5.214
					c0-0.19,0.017-12.671-0.113-12.501c-2.308,2.953-6.763,3.605-9.719,1.296C7.043,3.184,6.27,2.018,5.873,0.747L2.23,12.779
					l0.009,0C1.106,15.979,2.067,19.677,4.889,21.883z M6.328,10.972c1.652-2.112,4.708-2.489,6.824-0.835
					c2.114,1.652,2.489,4.707,0.835,6.822c-1.652,2.114-4.705,2.489-6.82,0.838C5.051,16.141,4.678,13.086,6.328,10.972z"/>
			</g>
		</g>
		<g id="petal-long-1-2side_9_" transform="matrix(1, 0, 0, 1, 9.24538, 39.6234)">
			<g transform="matrix(0.909961, -0.414693, 0.414693, 0.909961, -2.37534, 5.29284)">
				<path fill="#FFFFFF" d="M4.599-5.498C0.197-4.642-2.678-0.382-1.824,4.019c0.376,1.928,1.402,3.562,2.809,4.72
					c0.142,0.124,9.551,8.326,9.508,8.116c-0.715-3.681,1.716-7.471,5.399-8.187c1.405-0.271,2.792-0.089,4.013,0.444L13.215-1.531
					l-0.007,0.006C11.537-4.478,8.114-6.181,4.599-5.498z M11.89,2.747c0.51,2.634-1.21,5.187-3.846,5.698
					C5.411,8.956,2.858,7.235,2.346,4.601C1.835,1.966,3.557-0.584,6.191-1.095C8.826-1.607,11.376,0.115,11.89,2.747z"/>
			</g>
		</g>
		<g id="petal-long-1-2side_10_" transform="matrix(1, 0, 0, 1, 5.15143, 70.6193)">
			<g transform="matrix(0.989776, 0.142629, -0.142629, 0.989776, 1.27012, -1.48608)">
				<path fill="#FFFFFF" d="M-4.008,8.217c-1.058,4.357,1.616,8.748,5.971,9.804c1.91,0.462,3.822,0.212,5.46-0.587
					c0.173-0.076,11.55-5.209,11.342-5.257c-3.644-0.886-6.074-4.673-5.19-8.319c0.339-1.393,1.082-2.575,2.076-3.461L3.189,2.038
					l0.002,0.01C-0.19,2.335-3.162,4.736-4.008,8.217z M6.527,5.025c2.607,0.635,4.211,3.263,3.575,5.872
					c-0.633,2.605-3.262,4.209-5.87,3.577c-2.607-0.637-4.208-3.263-3.575-5.871C1.291,5.995,3.92,4.396,6.527,5.025z"/>
			</g>
		</g>
	</g>
	<g id="_x30_402-cap_1_" transform="matrix(1, 0, 0, 1, 88.8473, 62.2356)">
		<g transform="matrix(0, -1, 1, 0, -1.5555, 4.1145)">
			<g id="_x30_402-cap" transform="matrix(1, 0, 0, 1, 10.275, 76.1789)">
				<g transform="matrix(0, 1, -1, 0, 4.1105, -1.5595)">
					<g>
						<g>
							<rect x="-71.748" y="10.531" fill="#534741" width="2.562" height="5.67"/>
							<rect x="-69.211" y="10.532" opacity="0.2" enable-background="new    " width="0.021" height="5.67"/>
							<rect x="-71.748" y="10.532" opacity="0.2" fill="#FFFFFF" enable-background="new    " width="0.031" height="5.67"/>
						</g>
						<g>
							<path fill="#DCDCDC" d="M-71.748,11.352L-71.748,11.352L-71.748,11.352v0.065l0,0c0.171,0.06,0.813,0.1,1.002,0.1
								c0.199,0,1.381-0.033,1.559-0.1v-0.889h-2.561V11.352z"/>
							<path fill="#DCDCDC" d="M-71.677,15.314h-0.07v0.888h2.56v-0.888c-0.183-0.063-1.354-0.141-1.558-0.141
								C-70.981,15.177-71.472,15.23-71.677,15.314z"/>
							<rect x="-69.22" y="15.315" opacity="0.15" enable-background="new    " width="0.03" height="0.887"/>
							<rect x="-71.748" y="15.314" opacity="0.5" fill="#FFFFFF" enable-background="new    " width="0.031" height="0.888"/>
							<path fill="#D1C690" d="M-69.189,10.53v0.889"/>
							<rect x="-69.22" y="10.531" opacity="0.15" enable-background="new    " width="0.03" height="0.888"/>
							<rect x="-71.749" y="10.531" opacity="0.5" fill="#FFFFFF" enable-background="new    " width="0.031" height="0.888"/>
							<line fill="none" x1="-69.19" y1="15.659" x2="-69.19" y2="15.659"/>
						</g>
					</g>
				</g>
			</g>
			
				<rect x="2.537" y="4.092" transform="matrix(-2.547107e-006 -1 1 -2.547107e-006 -0.3414 7.958)" opacity="0.1" enable-background="new    " width="2.542" height="0.115"/>
			
				<rect x="-3.028" y="4.093" transform="matrix(-2.547107e-006 -1 1 -2.547107e-006 -5.9078 2.3936)" opacity="0.2" fill="#FFFFFF" enable-background="new    " width="2.542" height="0.115"/>
		</g>
	</g>
	<g id="_x30_402-cap_3_" transform="matrix(1, 0, 0, 1, 50.3261, 62.4882)">
		<g transform="matrix(0, 1, -1, 0, 4.1145, 1.5555)">
			<g id="_x30_402-cap_2_" transform="matrix(1, 0, 0, 1, 10.275, 76.1789)">
				<g transform="matrix(0, 1, -1, 0, 4.1105, -1.5595)">
					<g>
						<g>
							<rect x="-73.058" y="10.269" fill="#534741" width="2.562" height="5.67"/>
							<rect x="-70.521" y="10.27" opacity="0.2" enable-background="new    " width="0.021" height="5.67"/>
							<rect x="-73.058" y="10.269" opacity="0.2" fill="#FFFFFF" enable-background="new    " width="0.031" height="5.671"/>
						</g>
						<g>
							<path fill="#DCDCDC" d="M-73.058,11.09L-73.058,11.09L-73.058,11.09v0.064l0,0c0.173,0.061,0.813,0.101,1.004,0.101
								c0.197,0,1.379-0.035,1.557-0.101v-0.888h-2.561V11.09z"/>
							<path fill="#DCDCDC" d="M-72.987,15.051h-0.071v0.889h2.56v-0.889c-0.181-0.063-1.354-0.14-1.556-0.14
								C-72.292,14.914-72.783,14.967-72.987,15.051z"/>
							<rect x="-70.531" y="15.051" opacity="0.15" enable-background="new    " width="0.03" height="0.889"/>
							<rect x="-73.058" y="15.051" opacity="0.5" fill="#FFFFFF" enable-background="new    " width="0.031" height="0.889"/>
							<path fill="#D1C690" d="M-70.5,10.268v0.888"/>
							<rect x="-70.531" y="10.268" opacity="0.15" enable-background="new    " width="0.03" height="0.889"/>
							<rect x="-73.059" y="10.268" opacity="0.5" fill="#FFFFFF" enable-background="new    " width="0.031" height="0.889"/>
							<line fill="none" x1="-70.501" y1="15.396" x2="-70.501" y2="15.396"/>
						</g>
					</g>
				</g>
			</g>
			
				<rect x="2.8" y="2.783" transform="matrix(2.578893e-006 1 -1 2.578893e-006 6.9117 -1.23)" opacity="0.1" enable-background="new    " width="2.542" height="0.116"/>
			
				<rect x="-2.765" y="2.784" transform="matrix(2.578893e-006 1 -1 2.578893e-006 1.3473 4.3345)" opacity="0.2" fill="#FFFFFF" enable-background="new    " width="2.542" height="0.114"/>
		</g>
	</g>
	<g id="_x30_402-cap_5_" transform="matrix(1, 0, 0, 1, 94.5166, 48.0623)">
		<g transform="matrix(0, -1, 1, 0, -1.5555, 4.1145)">
			<g id="_x30_402-cap_4_" transform="matrix(1, 0, 0, 1, 10.275, 76.1789)">
				<g transform="matrix(0, 1, -1, 0, 4.1105, -1.5595)">
					<g>
						<g>
							<rect x="-73.058" y="10.27" fill="#534741" width="2.561" height="5.67"/>
							<rect x="-70.522" y="10.271" opacity="0.2" enable-background="new    " width="0.021" height="5.67"/>
							<rect x="-73.059" y="10.271" opacity="0.2" fill="#FFFFFF" enable-background="new    " width="0.031" height="5.67"/>
						</g>
						<g>
							<path fill="#DCDCDC" d="M-73.059,11.091L-73.059,11.091L-73.059,11.091v0.063l0,0c0.171,0.063,0.813,0.103,1.002,0.103
								c0.199,0,1.379-0.035,1.56-0.103v-0.888h-2.562V11.091z"/>
							<path fill="#DCDCDC" d="M-72.988,15.053h-0.071v0.887h2.561v-0.887c-0.184-0.063-1.354-0.139-1.559-0.139
								C-72.292,14.916-72.783,14.969-72.988,15.053z"/>
							<rect x="-70.531" y="15.053" opacity="0.15" enable-background="new    " width="0.029" height="0.887"/>
							<rect x="-73.058" y="15.053" opacity="0.5" fill="#FFFFFF" enable-background="new    " width="0.031" height="0.887"/>
							<path fill="#D1C690" d="M-70.5,10.269v0.888"/>
							<rect x="-70.531" y="10.27" opacity="0.15" enable-background="new    " width="0.029" height="0.888"/>
							<rect x="-73.059" y="10.27" opacity="0.5" fill="#FFFFFF" enable-background="new    " width="0.03" height="0.888"/>
							<line fill="none" x1="-70.501" y1="15.397" x2="-70.501" y2="15.397"/>
						</g>
					</g>
				</g>
			</g>
			
				<rect x="2.799" y="2.782" transform="matrix(-2.547107e-006 -1 1 -2.547107e-006 1.2313 6.9089)" opacity="0.1" enable-background="new    " width="2.542" height="0.114"/>
			
				<rect x="-2.767" y="2.782" transform="matrix(-2.547107e-006 -1 1 -2.547107e-006 -4.3356 1.3439)" opacity="0.2" fill="#FFFFFF" enable-background="new    " width="2.542" height="0.115"/>
		</g>
	</g>
	<g id="_x30_402-cap_7_" transform="matrix(1, 0, 0, 1, 29.3497, 87.9998)">
		<g transform="matrix(0, 1, -1, 0, 4.1145, 1.5555)">
			<g id="_x30_402-cap_6_" transform="matrix(1, 0, 0, 1, 10.275, 76.1789)">
				<g transform="matrix(0, 1, -1, 0, 4.1105, -1.5595)">
					<g>
						<g>
							<rect x="-72.681" y="10.268" fill="#534741" width="2.562" height="5.67"/>
							<rect x="-70.144" y="10.269" opacity="0.2" enable-background="new    " width="0.021" height="5.67"/>
							<rect x="-72.681" y="10.269" opacity="0.2" fill="#FFFFFF" enable-background="new    " width="0.031" height="5.67"/>
						</g>
						<g>
							<path fill="#DCDCDC" d="M-72.681,11.087L-72.681,11.087L-72.681,11.087v0.064l0,0c0.171,0.061,0.813,0.101,1.002,0.101
								c0.199,0,1.379-0.033,1.559-0.101v-0.888h-2.561V11.087z"/>
							<path fill="#DCDCDC" d="M-72.61,15.051h-0.071v0.887h2.56v-0.887c-0.183-0.063-1.354-0.141-1.558-0.141
								C-71.915,14.912-72.405,14.967-72.61,15.051z"/>
							<rect x="-70.154" y="15.051" opacity="0.15" enable-background="new    " width="0.03" height="0.887"/>
							<rect x="-72.68" y="15.051" opacity="0.5" fill="#FFFFFF" enable-background="new    " width="0.03" height="0.887"/>
							<path fill="#D1C690" d="M-70.123,10.267v0.888"/>
							<rect x="-70.154" y="10.268" opacity="0.15" enable-background="new    " width="0.03" height="0.888"/>
							<rect x="-72.682" y="10.268" opacity="0.5" fill="#FFFFFF" enable-background="new    " width="0.031" height="0.888"/>
							<line fill="none" x1="-70.124" y1="15.395" x2="-70.124" y2="15.395"/>
						</g>
					</g>
				</g>
			</g>
			
				<rect x="2.801" y="3.16" transform="matrix(2.578893e-006 1 -1 2.578893e-006 7.2899 -0.854)" opacity="0.1" enable-background="new    " width="2.542" height="0.116"/>
			
				<rect x="-2.765" y="3.161" transform="matrix(2.578893e-006 1 -1 2.578893e-006 1.7245 4.7134)" opacity="0.2" fill="#FFFFFF" enable-background="new    " width="2.542" height="0.116"/>
		</g>
	</g>
	<g id="_x30_402-cap_9_" transform="matrix(1, 0, 0, 1, 24.7842, 87.7471)">
		<g transform="matrix(0, -1, 1, 0, -1.5555, 4.1145)">
			<g id="_x30_402-cap_8_" transform="matrix(1, 0, 0, 1, 10.275, 76.1789)">
				<g transform="matrix(0, 1, -1, 0, 4.1105, -1.5595)">
					<g>
						<g>
							<rect x="-72.181" y="10.52" fill="#534741" width="2.561" height="5.67"/>
							<rect x="-72.18" y="10.52" opacity="0.2" enable-background="new    " width="0.021" height="5.67"/>
							<rect x="-69.653" y="10.52" opacity="0.2" fill="#FFFFFF" enable-background="new    " width="0.03" height="5.67"/>
						</g>
						<g>
							<path fill="#DCDCDC" d="M-69.621,15.37L-69.621,15.37L-69.621,15.37v-0.064l0,0c-0.172-0.061-0.813-0.102-1.002-0.102
								c-0.199,0-1.38,0.035-1.56,0.102v0.887h2.562V15.37z"/>
							<path fill="#DCDCDC" d="M-69.693,11.408h0.071V10.52h-2.561v0.889c0.184,0.063,1.354,0.139,1.559,0.139
								C-70.389,11.545-69.898,11.491-69.693,11.408z"/>
							<rect x="-72.18" y="10.52" opacity="0.15" enable-background="new    " width="0.03" height="0.889"/>
							<rect x="-69.654" y="10.52" opacity="0.5" fill="#FFFFFF" enable-background="new    " width="0.031" height="0.889"/>
							<path fill="#D1C690" d="M-72.181,16.192v-0.889"/>
							<rect x="-72.18" y="15.303" opacity="0.15" enable-background="new    " width="0.03" height="0.887"/>
							<rect x="-69.653" y="15.303" opacity="0.5" fill="#FFFFFF" enable-background="new    " width="0.031" height="0.887"/>
							<line fill="none" x1="-72.18" y1="11.063" x2="-72.18" y2="11.063"/>
						</g>
					</g>
				</g>
			</g>
			
				<rect x="-3.03" y="3.66" transform="matrix(-2.547107e-006 -1 1 -2.547107e-006 -5.478 1.9594)" opacity="0.1" enable-background="new    " width="2.542" height="0.117"/>
			
				<rect x="2.536" y="3.659" transform="matrix(-2.547107e-006 -1 1 -2.547107e-006 0.0894 7.5248)" opacity="0.2" fill="#FFFFFF" enable-background="new    " width="2.542" height="0.117"/>
		</g>
	</g>
	<g id="led-0603" transform="matrix(1, 0, 0, 1, 97.5593, 79.4261)">
		<g transform="matrix(0, -1, 1, 0, -2.0035, 4.5385)">
			<g id="led-0603_1_" transform="matrix(1, 0, 0, 1, 21.5539, 31.3385)">
				<g transform="matrix(0, -1, 1, 0, 1.7065, 4.8135)">
					<g>
						<g>
							<rect x="29.659" y="-22.126" fill="#DCDCDC" width="6.422" height="1.398"/>
							<line fill="none" x1="29.659" y1="-20.765" x2="36.081" y2="-20.765"/>
						</g>
						<g>
							<rect x="30.615" y="-23.237" fill="#F2F2F2" width="4.506" height="2.475"/>
							<path fill="#22B573" fill-opacity="0.7" d="M34.408-20.763c0,0-0.168-0.467,0.052-0.426c0.218,0.041,0.54-0.146,0.676,0
								l-0.015,0.424L34.408-20.763z"/>
							<g>
								<g>
									<rect x="32.444" y="-22.548" fill="#FFFFFF" width="0.854" height="0.964"/>
									<rect x="32.445" y="-21.608" fill="#B3B3B3" width="0.854" height="0.05"/>
								</g>
								<g>
									<polygon fill="#D1C690" points="34.172,-21.186 35.135,-21.082 35.135,-21.813 34.172,-21.709 									"/>
									<g>
										<path fill="#D1C690" d="M34.46-21.386c-0.002,0-0.005,0-0.007,0c-0.27-0.032-0.449-0.104-0.601-0.162
											c-0.209-0.077-0.358-0.141-0.633-0.055c-0.024,0.012-0.059-0.01-0.063-0.043c-0.008-0.035,0.009-0.068,0.039-0.078
											c0.303-0.094,0.478-0.022,0.694,0.062c0.148,0.059,0.318,0.123,0.572,0.153c0.03,0.004,0.054,0.033,0.049,0.068
											C34.511-21.409,34.487-21.386,34.46-21.386z"/>
									</g>
									<polygon fill="#D1C690" points="31.57,-22.717 30.602,-22.819 30.602,-22.091 31.57,-22.192 									"/>
									<g>
										<path fill="#D1C690" d="M32.827-21.911c-0.025,0-0.049-0.021-0.058-0.047c-0.063-0.291-0.946-0.42-1.489-0.438
											c-0.033,0-0.06-0.027-0.06-0.063c0.002-0.035,0.025-0.063,0.06-0.063h0.002c0.149,0.004,1.498,0.053,1.6,0.529
											c0.007,0.035-0.012,0.065-0.042,0.078C32.836-21.911,32.832-21.911,32.827-21.911z"/>
									</g>
									<path fill="#D1C690" d="M33.297-21.895c0,0-0.354-0.002-0.382,0.313c0.071,0,0.382,0,0.382,0V-21.895z"/>
									<path fill="#D1C690" d="M32.863-22.216c0,0,0.155,0.308,0.052,0.353c-0.107,0.047-0.178,0.051-0.24-0.029
										C32.614-21.975,32.863-22.216,32.863-22.216z"/>
									<path fill="#9D956C" d="M33.222-21.545c0.271-0.087,0.423-0.025,0.632,0.055c0.147,0.059,0.331,0.127,0.601,0.162
										l0.001-0.06c-0.27-0.032-0.449-0.104-0.601-0.162c-0.209-0.077-0.358-0.141-0.633-0.055V-21.545z"/>
									<polygon fill="#9D956C" points="31.57,-22.138 30.602,-22.034 30.602,-22.091 31.57,-22.192 									"/>
									<path fill="#9D956C" d="M32.77-21.901c-0.061-0.291-0.944-0.42-1.489-0.434v-0.062c0.545,0.019,1.434,0.146,1.491,0.438
										L32.77-21.901z"/>
									<path fill="#9D956C" d="M32.914-21.528c0.071,0,0.382,0,0.382,0v-0.057c0,0-0.311,0-0.382,0V-21.528z"/>
									<path fill="#9D956C" d="M32.674-21.841c0.063,0.08,0.131,0.076,0.239,0.031l0.001-0.059
										c-0.107,0.049-0.178,0.051-0.24-0.029V-21.841z"/>
								</g>
							</g>
							<rect x="31.138" y="-23.237" opacity="0.5" fill="#FFFFFF" enable-background="new    " width="3.462" height="0.051"/>
							<g opacity="0.25">
								<path fill="#FFFFFF" d="M32.329-22.489c0-0.049,0.035-0.088,0.076-0.088h0.326c0.043,0,0.075-0.039,0.075-0.086v-0.033
									c0,0.049-0.032,0.088-0.075,0.088h-0.326c-0.043,0-0.078,0.039-0.078,0.086L32.329-22.489L32.329-22.489z"/>
								<path fill="#FFFFFF" d="M34.32-22.817c0-0.049-0.036-0.088-0.077-0.088h-1.356c-0.043,0-0.076,0.039-0.076,0.088v-0.033
									c0-0.049,0.032-0.088,0.076-0.088h1.356c0.041,0,0.077,0.039,0.077,0.088V-22.817z"/>
								<path fill="#FFFFFF" d="M34.6-21.345h-0.207c-0.041,0-0.072-0.039-0.072-0.088v-0.031c0,0.05,0.031,0.089,0.072,0.089h0.206
									L34.6-21.345L34.6-21.345z"/>
								<path fill="#FFFFFF" d="M31.137-22.905h1.029c0.041,0,0.078,0.039,0.078,0.088v-0.033c0-0.049-0.035-0.088-0.078-0.088
									h-1.029V-22.905L31.137-22.905z"/>
							</g>
							<g>
								<path opacity="0.5" fill="#F2F2F2" enable-background="new    " d="M30.618-23.237v2.475h4.505v-2.475H30.618z"/>
								<path opacity="0.55" fill="#FFFFFF" enable-background="new    " d="M30.669-22.584v-0.271
									c0.016-0.152-0.012-0.27,0.096-0.27c0.613,0,3.944,0,4.099,0c0.167,0,0.175,0.063-0.015,0.063c-0.131,0-3.133,0-3.586,0
									c-0.457,0-0.518,0.105-0.518,0.197l0.002,0.271C30.747-22.411,30.669-22.411,30.669-22.584z"/>
								<path opacity="0.03" enable-background="new    " d="M35.073-20.983c0,0.068,0.012,0.137-0.1,0.137
									c-0.609,0-3.941,0-4.095,0c-0.168,0-0.176-0.063,0.008-0.063c0.138,0,3.14-0.002,3.591-0.002
									C35.073-20.914,35.073-20.983,35.073-20.983z"/>
							</g>
						</g>
						<g>
							<path fill="#D1C690" d="M29.661-20.763h0.77v-0.52c0-0.125,0.082-0.213,0.188-0.271v-1.688h-1.009v2.426v0.049"/>
							<rect x="29.612" y="-23.237" opacity="0.5" fill="#FFFFFF" enable-background="new    " width="1.006" height="0.051"/>
						</g>
						<g>
							<path fill="#D1C690" d="M36.13-20.763v-0.049v-2.426h-1.009v2.104c0.104,0.058,0.188,0.146,0.188,0.271v0.098h0.771"/>
							<rect x="35.12" y="-23.237" opacity="0.5" fill="#FFFFFF" enable-background="new    " width="1.01" height="0.051"/>
						</g>
					</g>
				</g>
			</g>
		</g>
	</g>
	<g id="led-0603_3_" transform="matrix(1, 0, 0, 1, 49.6812, 87.5405)">
		<g id="led-0603_2_" transform="matrix(1, 0, 0, 1, 21.5539, 31.3385)">
			<g transform="matrix(0, -1, 1, 0, 1.7065, 4.8135)">
				<g>
					<g>
						
							<rect x="32.17" y="-24.636" transform="matrix(-2.547107e-006 -1 1 -2.547107e-006 54.2959 11.445)" fill="#DCDCDC" width="1.4" height="6.422"/>
						<line fill="none" x1="29.658" y1="-20.764" x2="36.081" y2="-20.764"/>
					</g>
					<g>
						
							<rect x="31.628" y="-24.253" transform="matrix(-2.547107e-006 -1 1 -2.547107e-006 54.8681 10.8659)" fill="#F2F2F2" width="2.478" height="4.505"/>
						<path fill="#22B573" fill-opacity="0.7" d="M34.407-20.762c0,0-0.168-0.467,0.055-0.426c0.218,0.041,0.54-0.148,0.676,0
							l-0.018,0.424L34.407-20.762z"/>
						<g>
							<g>
								
									<rect x="32.388" y="-22.492" transform="matrix(-2.547107e-006 -1 1 -2.547107e-006 54.9336 10.8034)" fill="#FFFFFF" width="0.961" height="0.854"/>
								
									<rect x="32.845" y="-22.011" transform="matrix(-2.547107e-006 -1 1 -2.547107e-006 54.4526 11.2853)" fill="#B3B3B3" width="0.049" height="0.854"/>
							</g>
							<g>
								<polygon fill="#D1C690" points="34.172,-21.186 35.135,-21.085 35.135,-21.813 34.172,-21.711 								"/>
								<g>
									<path fill="#D1C690" d="M34.46-21.385c-0.002,0-0.005,0-0.01,0c-0.267-0.035-0.446-0.104-0.598-0.162
										c-0.209-0.08-0.361-0.141-0.633-0.055c-0.027,0.012-0.061-0.01-0.066-0.043c-0.008-0.035,0.012-0.068,0.039-0.078
										c0.306-0.094,0.479-0.025,0.697,0.059c0.148,0.062,0.318,0.123,0.572,0.156c0.027,0.004,0.054,0.033,0.049,0.068
										C34.511-21.409,34.486-21.385,34.46-21.385z"/>
								</g>
								<polygon fill="#D1C690" points="31.567,-22.715 30.602,-22.819 30.602,-22.088 31.567,-22.192 								"/>
								<g>
									<path fill="#D1C690" d="M32.826-21.911c-0.022,0-0.049-0.021-0.055-0.05c-0.063-0.291-0.949-0.42-1.492-0.436
										c-0.03,0-0.057-0.027-0.057-0.063c0.002-0.032,0.025-0.063,0.057-0.063h0.002c0.152,0.004,1.498,0.053,1.603,0.529
										c0.007,0.032-0.015,0.065-0.042,0.075C32.836-21.911,32.832-21.911,32.826-21.911z"/>
								</g>
								<path fill="#D1C690" d="M33.297-21.895c0,0-0.356-0.002-0.382,0.311c0.068,0,0.382,0,0.382,0V-21.895z"/>
								<path fill="#D1C690" d="M32.862-22.213c0,0,0.158,0.308,0.055,0.353c-0.107,0.047-0.181,0.051-0.24-0.029
									C32.613-21.975,32.862-22.213,32.862-22.213z"/>
								<path fill="#9D956C" d="M33.222-21.545c0.271-0.084,0.423-0.022,0.632,0.058c0.147,0.059,0.331,0.127,0.598,0.162
									l0.001-0.06c-0.267-0.035-0.446-0.104-0.598-0.162c-0.209-0.08-0.361-0.141-0.633-0.055V-21.545z"/>
								<polygon fill="#9D956C" points="31.567,-22.137 30.602,-22.034 30.602,-22.088 31.567,-22.192 								"/>
								<path fill="#9D956C" d="M32.77-21.901c-0.061-0.291-0.947-0.42-1.492-0.437v-0.059c0.545,0.016,1.437,0.145,1.494,0.436
									L32.77-21.901z"/>
								<path fill="#9D956C" d="M32.914-21.528c0.068,0,0.382,0,0.382,0v-0.06c0,0-0.313,0-0.382,0V-21.528z"/>
								<path fill="#9D956C" d="M32.674-21.838c0.063,0.08,0.131,0.076,0.239,0.031l0.001-0.059
									c-0.107,0.049-0.181,0.051-0.24-0.029V-21.838z"/>
							</g>
						</g>
						
							<rect x="32.844" y="-24.944" transform="matrix(-2.547107e-006 -1 1 -2.547107e-006 56.082 9.6569)" opacity="0.5" fill="#FFFFFF" enable-background="new    " width="0.051" height="3.463"/>
						<g opacity="0.25">
							<path fill="#FFFFFF" d="M32.326-22.489c0-0.052,0.035-0.088,0.076-0.088h0.326c0.043,0,0.078-0.039,0.078-0.089v-0.03
								c0,0.049-0.035,0.088-0.078,0.088h-0.326c-0.043,0-0.078,0.039-0.078,0.086L32.326-22.489L32.326-22.489z"/>
							<path fill="#FFFFFF" d="M34.319-22.817c0-0.049-0.036-0.088-0.077-0.088h-1.354c-0.043,0-0.076,0.039-0.076,0.088v-0.033
								c0-0.049,0.032-0.088,0.076-0.088h1.354c0.041,0,0.077,0.039,0.077,0.088V-22.817z"/>
							<path fill="#FFFFFF" d="M34.6-21.344h-0.207c-0.041,0-0.075-0.039-0.075-0.088v-0.031c0,0.047,0.034,0.086,0.075,0.086h0.206
								L34.6-21.344L34.6-21.344z"/>
							<path fill="#FFFFFF" d="M31.137-22.905h1.029c0.041,0,0.075,0.039,0.075,0.088v-0.033c0-0.049-0.032-0.088-0.075-0.088
								h-1.029V-22.905z"/>
						</g>
						<g>
							<path opacity="0.5" fill="#F2F2F2" enable-background="new    " d="M30.617-23.237v2.475h4.508v-2.475H30.617z"/>
							<path opacity="0.55" fill="#FFFFFF" enable-background="new    " d="M30.669-22.586v-0.27
								c0.016-0.152-0.015-0.271,0.096-0.271c0.613,0,3.944,0,4.096,0c0.167,0,0.175,0.066-0.012,0.066c-0.131,0-3.133,0-3.586,0
								c-0.457,0-0.521,0.104-0.521,0.197l0.005,0.271C30.747-22.411,30.669-22.411,30.669-22.586z"/>
							<path opacity="0.03" enable-background="new    " d="M35.072-20.983c0,0.065,0.015,0.137-0.097,0.137
								c-0.612,0-3.944,0-4.095,0c-0.168,0-0.178-0.063,0.008-0.063c0.135,0,3.137-0.005,3.591-0.005
								C35.072-20.917,35.072-20.983,35.072-20.983z"/>
						</g>
					</g>
					<g>
						<path fill="#D1C690" d="M29.659-20.762h0.771v-0.52c0-0.125,0.082-0.213,0.188-0.271v-1.688H29.61v2.426v0.049"/>
						
							<rect x="30.087" y="-23.716" transform="matrix(-2.547107e-006 -1 1 -2.547107e-006 53.3271 6.9001)" opacity="0.5" fill="#FFFFFF" enable-background="new    " width="0.053" height="1.006"/>
					</g>
					<g>
						<path fill="#D1C690" d="M36.13-20.762v-0.049v-2.426h-1.012v2.104c0.105,0.058,0.19,0.146,0.19,0.271v0.098h0.771"/>
						
							<rect x="35.599" y="-23.716" transform="matrix(-2.547107e-006 -1 1 -2.547107e-006 58.8364 12.4133)" opacity="0.5" fill="#FFFFFF" enable-background="new    " width="0.051" height="1.009"/>
					</g>
				</g>
			</g>
		</g>
	</g>
	<g id="jst-2-smd" transform="matrix(1, 0, 0, 1, 22.8121, 60.1226)">
		<g transform="matrix(0, 1, -1, 0, 23.081, -1.59397)">
			<g id="s2b-ph" transform="matrix(1, 0, 0, 1, 10.788, 32.4744)">
				<g transform="matrix(0, 1, -1, 0, 23.0625, -1.61147)">
					<g>
						<g>
							<g>
								<polygon fill="#B7B7B7" points="-30.828,17.165 -30.828,18.892 -25.769,18.892 -25.769,17.165 								"/>
								<polygon fill="#B7B7B7" points="-30.828,24.366 -30.828,26.09 -25.769,26.09 -25.769,24.366 								"/>
							</g>
						</g>
						<rect x="-27.967" y="9.175" fill="#AD9E73" width="15.688" height="24.675"/>
						<g>
							<polygon fill="#C2B990" points="-24.584,28.913 -24.584,26.952 -23.57,26.952 -23.57,16.137 -24.584,16.137 -24.584,14.313 
								-27.967,14.313 -27.967,28.913 							"/>
						</g>
						<rect x="-12.281" y="12.216" fill="#F1F3E6" width="2.903" height="18.591"/>
						<polygon opacity="0.5" fill="#A0916B" enable-background="new    " points="-24.58,14.313 -24.58,16.137 -23.564,16.137 
							-23.564,26.952 -24.58,26.952 -24.58,28.913 -21.701,28.913 -21.701,26.952 -21.701,16.137 -21.701,14.313 						"/>
						<rect x="-20.125" y="14.312" opacity="0.1" fill="#FFFFFF" enable-background="new    " width="5.239" height="14.604"/>
						<rect x="-18.009" y="14.312" opacity="0.1" fill="#FFFFFF" enable-background="new    " width="5.237" height="14.604"/>
						<g>
							<g>
								<path fill="#F1F3E6" d="M-27.967,9.175h-2.861v3.041h2.861V9.175z"/>
							</g>
						</g>
						<g>
							<g>
								<path fill="#F1F3E6" d="M-27.967,30.806h-2.861v3.043h2.861V30.806z"/>
							</g>
						</g>
						<g>
							<g>
								<polygon fill="#F1F3E6" points="-12.282,9.175 -27.967,9.175 -27.967,14.313 -15.393,14.313 -15.393,17.353 -27.967,17.353 
									-27.967,25.87 -15.393,25.87 -15.393,28.913 -27.967,28.913 -27.967,33.849 -12.282,33.849 								"/>
							</g>
						</g>
						<rect x="-28.287" y="30.807" opacity="0.4" fill="#C2B990" enable-background="new    " width="0.32" height="3.041"/>
						<rect x="-28.287" y="9.175" opacity="0.4" fill="#C2B990" enable-background="new    " width="0.322" height="3.041"/>
						<rect x="-12.281" y="14.312" opacity="0.4" fill="#AD9E73" enable-background="new    " width="2.903" height="3.041"/>
						<rect x="-12.28" y="25.87" opacity="0.4" fill="#AD9E73" enable-background="new    " width="2.904" height="3.044"/>
					</g>
				</g>
			</g>
		</g>
	</g>
	<g id="_x30_402-res" transform="matrix(1, 0, 0, 1, 90.0115, 73.8266)">
		<g transform="matrix(0, 1, -1, 0, 4.1145, 1.5555)">
			<g id="_x30_402-res_1_" transform="matrix(1, 0, 0, 1, 10.275, 83.3789)">
				<g transform="matrix(0, 1, -1, 0, 4.1105, -1.5595)">
					<g>
						<g>
							<rect x="-80.258" y="10.276" fill="#333333" width="2.56" height="5.67"/>
							<rect x="-77.722" y="10.276" opacity="0.2" enable-background="new    " width="0.021" height="5.67"/>
						</g>
						<g>
							<path fill="#CCCCCC" d="M-80.258,11.097L-80.258,11.097L-80.258,11.097v0.066l0,0c0.171,0.061,0.812,0.102,1.002,0.102
								c0.196-0.001,1.38-0.036,1.557-0.102l0.001-0.89h-2.56V11.097z"/>
							<path fill="#CCCCCC" d="M-80.187,15.061h-0.068v0.887h2.558v-0.887c-0.181-0.063-1.078-0.117-1.279-0.118
								C-79.215,14.942-79.982,14.976-80.187,15.061z"/>
							<rect x="-77.73" y="15.06" opacity="0.15" enable-background="new    " width="0.03" height="0.888"/>
							<rect x="-80.258" y="15.061" opacity="0.5" fill="#FFFFFF" enable-background="new    " width="0.028" height="0.887"/>
							<rect x="-77.731" y="10.276" opacity="0.15" enable-background="new    " width="0.031" height="0.89"/>
							<rect x="-80.258" y="10.275" opacity="0.5" fill="#FFFFFF" enable-background="new    " width="0.028" height="0.891"/>
							<line fill="none" x1="-77.7" y1="15.403" x2="-77.7" y2="15.403"/>
						</g>
					</g>
				</g>
			</g>
			
				<rect x="2.793" y="2.776" transform="matrix(2.578893e-006 1 -1 2.578893e-006 6.8964 -1.2306)" opacity="0.1" enable-background="new    " width="2.542" height="0.114"/>
			
				<rect x="-2.774" y="2.775" transform="matrix(2.578893e-006 1 -1 2.578893e-006 1.33 4.3358)" opacity="0.2" fill="#FFFFFF" enable-background="new    " width="2.542" height="0.116"/>
		</g>
	</g>
	<g id="_x30_402-res_3_" transform="matrix(1, 0, 0, 1, 42.9561, 87.9998)">
		<g transform="matrix(0, 1, -1, 0, 4.1145, 1.5555)">
			<g id="_x30_402-res_2_" transform="matrix(1, 0, 0, 1, 10.275, 83.3789)">
				<g transform="matrix(0, 1, -1, 0, 4.1105, -1.5595)">
					<g>
						<g>
							<rect x="-79.682" y="10.271" fill="#333333" width="2.561" height="5.67"/>
							<rect x="-77.146" y="10.27" opacity="0.2" enable-background="new    " width="0.021" height="5.671"/>
						</g>
						<g>
							<path fill="#CCCCCC" d="M-79.682,11.091L-79.682,11.091L-79.682,11.091v0.064l0,0c0.171,0.062,0.813,0.103,1.002,0.103
								c0.199,0,1.38-0.035,1.56-0.103v-0.889h-2.562V11.091z"/>
							<path fill="#CCCCCC" d="M-79.611,15.054h-0.071v0.887h2.561v-0.887c-0.184-0.063-1.078-0.117-1.279-0.117
								C-78.64,14.937-79.406,14.97-79.611,15.054z"/>
							<rect x="-77.155" y="15.054" opacity="0.15" enable-background="new    " width="0.03" height="0.887"/>
							<rect x="-79.682" y="15.054" opacity="0.5" fill="#FFFFFF" enable-background="new    " width="0.029" height="0.887"/>
							<rect x="-77.155" y="10.27" opacity="0.15" enable-background="new    " width="0.03" height="0.889"/>
							<rect x="-79.682" y="10.27" opacity="0.5" fill="#FFFFFF" enable-background="new    " width="0.03" height="0.888"/>
							<line fill="none" x1="-77.122" y1="15.398" x2="-77.122" y2="15.398"/>
						</g>
					</g>
				</g>
			</g>
			
				<rect x="2.798" y="3.35" transform="matrix(2.578893e-006 1 -1 2.578893e-006 7.4773 -0.6607)" opacity="0.1" enable-background="new    " width="2.542" height="0.116"/>
			
				<rect x="-2.768" y="3.352" transform="matrix(2.578893e-006 1 -1 2.578893e-006 1.9124 4.9062)" opacity="0.2" fill="#FFFFFF" enable-background="new    " width="2.542" height="0.115"/>
		</g>
	</g>
	<g id="_x30_402-res_5_" transform="matrix(1, 0, 0, 1, 100.186, 48.0623)">
		<g transform="matrix(0, -1, 1, 0, -1.5555, 4.1145)">
			<g id="_x30_402-res_4_" transform="matrix(1, 0, 0, 1, 10.275, 83.3789)">
				<g transform="matrix(0, 1, -1, 0, 4.1105, -1.5595)">
					<g>
						<g>
							<rect x="-80.259" y="10.277" fill="#333333" width="2.56" height="5.67"/>
							<rect x="-77.722" y="10.277" opacity="0.2" enable-background="new    " width="0.021" height="5.67"/>
						</g>
						<g>
							<path fill="#CCCCCC" d="M-80.259,11.098L-80.259,11.098L-80.259,11.098v0.065l0,0c0.172,0.061,0.813,0.102,1.002,0.102
								c0.199,0,1.381-0.035,1.558-0.102v-0.89h-2.56V11.098z"/>
							<path fill="#CCCCCC" d="M-80.188,15.06h-0.069v0.888h2.559V15.06c-0.182-0.063-1.078-0.116-1.279-0.116
								C-79.216,14.943-79.983,14.976-80.188,15.06z"/>
							<rect x="-77.731" y="15.06" opacity="0.15" enable-background="new    " width="0.029" height="0.888"/>
							<rect x="-80.258" y="15.061" opacity="0.5" fill="#FFFFFF" enable-background="new    " width="0.028" height="0.887"/>
							<rect x="-77.732" y="10.277" opacity="0.15" enable-background="new    " width="0.03" height="0.89"/>
							<rect x="-80.259" y="10.276" opacity="0.5" fill="#FFFFFF" enable-background="new    " width="0.028" height="0.891"/>
							<line fill="none" x1="-77.7" y1="15.405" x2="-77.7" y2="15.405"/>
						</g>
					</g>
				</g>
			</g>
			
				<rect x="2.789" y="2.774" transform="matrix(-2.547107e-006 -1 1 -2.547107e-006 1.2277 6.8929)" opacity="0.1" enable-background="new    " width="2.542" height="0.116"/>
			
				<rect x="-2.776" y="2.774" transform="matrix(-2.547107e-006 -1 1 -2.547107e-006 -4.3377 1.3275)" opacity="0.2" fill="#FFFFFF" enable-background="new    " width="2.542" height="0.116"/>
		</g>
	</g>
	<g id="_x30_402-res_7_" transform="matrix(1, 0, 0, 1, 45.1936, 87.7471)">
		<g transform="matrix(0, -1, 1, 0, -1.5555, 4.1145)">
			<g id="_x30_402-res_6_" transform="matrix(1, 0, 0, 1, 10.275, 83.3789)">
				<g transform="matrix(0, 1, -1, 0, 4.1105, -1.5595)">
					<g>
						<g>
							<rect x="-79.682" y="10.548" fill="#333333" width="2.562" height="5.67"/>
							<rect x="-79.681" y="10.548" opacity="0.2" enable-background="new    " width="0.021" height="5.67"/>
						</g>
						<g>
							<path fill="#CCCCCC" d="M-77.124,15.397L-77.124,15.397L-77.124,15.397v-0.063l0,0c-0.171-0.063-0.813-0.104-1.002-0.104
								c-0.198,0-1.38,0.035-1.559,0.104v0.888h2.561V15.397z"/>
							<path fill="#CCCCCC" d="M-77.194,11.434h0.07v-0.887h-2.56v0.887c0.183,0.063,1.078,0.117,1.279,0.117
								C-78.167,11.551-77.399,11.519-77.194,11.434z"/>
							<rect x="-79.682" y="10.547" opacity="0.15" enable-background="new    " width="0.03" height="0.887"/>
							<rect x="-77.154" y="10.547" opacity="0.5" fill="#FFFFFF" enable-background="new    " width="0.03" height="0.887"/>
							<rect x="-79.681" y="15.331" opacity="0.15" enable-background="new    " width="0.03" height="0.888"/>
							<rect x="-77.153" y="15.331" opacity="0.5" fill="#FFFFFF" enable-background="new    " width="0.03" height="0.889"/>
							<line fill="none" x1="-79.682" y1="11.09" x2="-79.682" y2="11.09"/>
						</g>
					</g>
				</g>
			</g>
			
				<rect x="-3.058" y="3.366" transform="matrix(-2.547107e-006 -1 1 -2.547107e-006 -5.2108 1.6365)" opacity="0.1" enable-background="new    " width="2.542" height="0.116"/>
			
				<rect x="2.509" y="3.366" transform="matrix(-2.547107e-006 -1 1 -2.547107e-006 0.3561 7.2034)" opacity="0.2" fill="#FFFFFF" enable-background="new    " width="2.542" height="0.115"/>
		</g>
	</g>
	<g id="ayz0202_1_" transform="matrix(1, 0, 0, 1, 60.6021, 89.1281)">
		<g id="ayz0202" transform="matrix(1, 0, 0, 1, 97.7364, 63.0318)">
			<g transform="matrix(0, 1, -1, 0, 17.056, -3.47098)">
				<g>
					<g>
						<g>
							<g>
								<path fill="#666666" d="M-46.906,112.589c0.078,0,0.145-0.065,0.145-0.146v-1.438c0-0.079-0.063-0.146-0.145-0.146h-0.086
									c-0.078,0-0.146,0.065-0.146,0.146v1.438c0,0.078,0.064,0.146,0.146,0.146H-46.906z"/>
							</g>
							<g>
								<path fill="#666666" d="M-46.906,105.39c0.078,0,0.145-0.063,0.145-0.146v-1.438c0-0.078-0.063-0.145-0.145-0.145h-0.086
									c-0.078,0-0.146,0.063-0.146,0.145v1.438c0,0.08,0.064,0.146,0.146,0.146H-46.906z"/>
							</g>
							<g>
								<path fill="#666666" d="M-46.906,98.186c0.078,0,0.145-0.063,0.145-0.146v-1.438c0-0.078-0.063-0.145-0.145-0.145h-0.086
									c-0.078,0-0.146,0.063-0.146,0.145v1.438c0,0.08,0.064,0.146,0.146,0.146H-46.906z"/>
							</g>
						</g>
						<g>
							<g>
								<path fill="#B7B7B7" d="M-47.01,112.589c0.078,0,0.146-0.065,0.146-0.146v-1.438c0-0.079-0.063-0.146-0.146-0.146
									l-1.782,0.001c-0.08,0-0.146,0.065-0.146,0.146v1.438c0,0.078,0.063,0.146,0.146,0.146L-47.01,112.589z"/>
							</g>
							<g>
								<path fill="#B7B7B7" d="M-47.01,105.39c0.078,0,0.146-0.063,0.146-0.146v-1.438c0-0.078-0.063-0.145-0.146-0.145
									l-1.782,0.002c-0.08,0-0.146,0.063-0.146,0.145v1.438c0,0.078,0.063,0.145,0.146,0.145L-47.01,105.39z"/>
							</g>
							<g>
								<path fill="#B7B7B7" d="M-47.01,98.186c0.078,0,0.146-0.063,0.146-0.146v-1.438c0-0.078-0.063-0.145-0.146-0.145
									l-1.782,0.002c-0.08,0-0.146,0.063-0.146,0.145v1.438c0,0.079,0.063,0.145,0.146,0.145L-47.01,98.186z"/>
							</g>
						</g>
						<g>
							<g>
								<path fill="#B7B7B7" d="M-56.843,112.59c0.079,0,0.146-0.065,0.146-0.146v-1.438c0-0.079-0.064-0.146-0.146-0.146h-2.569
									c-0.08,0-0.146,0.065-0.146,0.146v1.438c0,0.078,0.065,0.146,0.146,0.146H-56.843z"/>
							</g>
							<g>
								<path fill="#B7B7B7" d="M-56.843,105.39c0.079,0,0.146-0.063,0.146-0.145v-1.438c0-0.078-0.064-0.145-0.146-0.145h-2.569
									c-0.08,0.002-0.146,0.063-0.146,0.145v1.438c0,0.08,0.065,0.145,0.146,0.145H-56.843z"/>
							</g>
							<g>
								<path fill="#B7B7B7" d="M-56.843,98.188c0.079,0,0.146-0.063,0.146-0.145v-1.438c0-0.078-0.064-0.145-0.146-0.145h-2.569
									c-0.08,0.002-0.146,0.063-0.146,0.145v1.438c0,0.078,0.065,0.145,0.146,0.145H-56.843L-56.843,98.188z"/>
							</g>
						</g>
					</g>
				</g>
				
					<rect x="-63.461" y="99.775" transform="matrix(2.578893e-006 1 -1 2.578893e-006 51.3298 157.7233)" fill="#1E1E1E" width="20.527" height="9.504"/>
				
					<rect x="-61.21" y="103.186" transform="matrix(2.578893e-006 1 -1 2.578893e-006 48.6389 160.4152)" fill="#F2F2F2" width="10.644" height="2.682"/>
				
					<rect x="-59.802" y="104.461" transform="matrix(2.578893e-006 1 -1 2.578893e-006 50.0471 159.0099)" fill="#CCCCCC" width="10.641" height="0.136"/>
				<path fill="#898989" d="M-55.463,95.791c0,0.229-0.189,0.201-0.43,0.201h-2.06v3.646c0,0.231,0.188,0.426,0.427,0.426h3.215
					c0.231,0,0.429,0.189,0.429,0.428v8.068c0,0.232-0.19,0.425-0.429,0.425h-3.215c-0.229,0-0.427,0.191-0.427,0.429v3.646h2.06
					c0.233,0,0.432-0.021,0.432,0.203v1.278c0,0.233,0.188,0.247,0.424,0.247h3.892c0.234,0,0.426-0.014,0.426-0.247v-1.277
					c0-0.229,0.191-0.203,0.431-0.203h1.833V95.997h-1.836c-0.232,0-0.43,0.021-0.43-0.203v-1.277c0-0.234-0.188-0.248-0.426-0.248
					h-3.89c-0.232,0-0.426,0.014-0.426,0.248V95.791z"/>
				<g>
					<path opacity="0.3" fill="#FFFFFF" enable-background="new    " d="M-50.728,114.543v-0.238h-4.742v0.238
						c0,0.233,0.191,0.248,0.429,0.248h3.894C-50.917,114.791-50.728,114.782-50.728,114.543z"/>
					
						<rect x="-53.34" y="111.689" transform="matrix(2.578893e-006 1 -1 2.578893e-006 60.9617 167.1578)" opacity="0.1" fill="#FFFFFF" enable-background="new    " width="0.484" height="4.742"/>
				</g>
				<g>
					<path opacity="0.3" fill="#FFFFFF" enable-background="new    " d="M-50.728,94.515v0.238h-4.742v-0.238
						c0-0.233,0.191-0.248,0.429-0.248h3.894C-50.917,94.265-50.728,94.274-50.728,94.515z"/>
					
						<rect x="-53.341" y="92.625" transform="matrix(2.578893e-006 1 -1 2.578893e-006 41.8987 148.0919)" opacity="0.1" fill="#FFFFFF" enable-background="new    " width="0.488" height="4.741"/>
				</g>
				<path fill="#898989" d="M-49.814,97.698c0.289,0,0.525,0.25,0.525,0.559v12.547c0,0.311-0.236,0.561-0.525,0.561
					s-0.521-0.25-0.521-0.561V98.255C-50.337,97.946-50.103,97.698-49.814,97.698z"/>
				<g>
					<path fill="#666666" d="M-50.337,98.255v12.547c0,0.309,0.232,0.559,0.521,0.559v-0.234c-0.158,0-0.287-0.146-0.287-0.318
						v-12.55c0-0.176,0.129-0.318,0.287-0.318v-0.231C-50.103,97.698-50.337,97.946-50.337,98.255z"/>
					<path opacity="0.3" fill="#FFFFFF" enable-background="new    " d="M-49.527,98.255v12.547c0,0.178-0.129,0.317-0.287,0.317
						v0.235c0.289,0,0.525-0.25,0.525-0.559V98.251c0-0.309-0.236-0.559-0.525-0.559v0.235
						C-49.656,97.934-49.527,98.079-49.527,98.255z"/>
				</g>
				<g>
					<path opacity="0.3" fill="#FFFFFF" enable-background="new    " d="M-58.295,114.791h2.125c0.152,0,0.282-0.015,0.282-0.248
						v-0.238h-2.407V114.791z"/>
					
						<rect x="-57.334" y="112.854" transform="matrix(2.578893e-006 1 -1 2.578893e-006 56.9685 171.149)" opacity="0.1" fill="#FFFFFF" enable-background="new    " width="0.486" height="2.41"/>
				</g>
				<g>
					<path opacity="0.3" fill="#FFFFFF" enable-background="new    " d="M-48.471,114.791h-1.566c-0.157,0-0.287-0.015-0.287-0.248
						v-0.238h1.854V114.791z"/>
					
						<rect x="-49.642" y="113.133" transform="matrix(2.578893e-006 1 -1 2.578893e-006 64.6604 163.4581)" opacity="0.1" fill="#FFFFFF" enable-background="new    " width="0.485" height="1.854"/>
				</g>
				<g>
					<path opacity="0.3" fill="#FFFFFF" enable-background="new    " d="M-58.295,94.265h2.125c0.152,0,0.282,0.013,0.282,0.248
						v0.238h-2.407V94.265z"/>
					
						<rect x="-57.329" y="93.787" transform="matrix(2.578893e-006 1 -1 2.578893e-006 37.9045 152.0802)" opacity="0.1" fill="#FFFFFF" enable-background="new    " width="0.482" height="2.411"/>
				</g>
				<g>
					<path opacity="0.3" fill="#FFFFFF" enable-background="new    " d="M-48.471,94.265h-1.566c-0.157,0-0.287,0.013-0.287,0.248
						v0.238h1.854V94.265z"/>
					
						<rect x="-49.641" y="94.065" transform="matrix(2.578893e-006 1 -1 2.578893e-006 45.594 144.3908)" opacity="0.1" fill="#FFFFFF" enable-background="new    " width="0.484" height="1.854"/>
				</g>
				
					<rect x="-59.084" y="111.479" transform="matrix(2.578893e-006 1 -1 2.578893e-006 53.509 169.9493)" fill="#CCCCCC" width="1.728" height="0.5"/>
				
					<rect x="-59.06" y="104.277" transform="matrix(2.578893e-006 1 -1 2.578893e-006 46.3289 162.7242)" fill="#CCCCCC" width="1.725" height="0.5"/>
				
					<rect x="-59.087" y="97.077" transform="matrix(2.578893e-006 1 -1 2.578893e-006 39.1052 155.5495)" fill="#CCCCCC" width="1.729" height="0.5"/>
				<g>
					<path fill="#F2F2F2" d="M-55.362,104.72c0.156,0,0.283,0.127,0.283,0.283v3.557c0,0.155-0.127,0.283-0.283,0.283h-2.232
						c-0.151,0-0.278-0.127-0.278-0.283v-3.557c0-0.156,0.127-0.283,0.278-0.283H-55.362z"/>
					<g opacity="0.59">
						<path fill="none" stroke="#FFFFFF" stroke-width="0.1899" stroke-linecap="round" stroke-miterlimit="10" d="M-55.278,108.602
							h-2.229c-0.098,0-0.174-0.075-0.174-0.171v-3.469"/>
					</g>
					<path fill="#CCCCCC" d="M-55.362,104.72c0.156,0,0.283,0.127,0.283,0.283v3.557c0,0.155-0.127,0.283-0.283,0.283h0.813
						c0.125,0,0.277-0.127,0.277-0.283v-3.557c0-0.156-0.125-0.283-0.277-0.283H-55.362z"/>
					<g opacity="0.2">
						<path fill="none" stroke="#454545" stroke-width="0.1899" stroke-linecap="round" stroke-miterlimit="10" d="M-57.678,104.962
							h2.229c0.094,0,0.172,0.076,0.172,0.17v3.47"/>
					</g>
					<g opacity="0.2">
						<path fill="none" stroke="#000000" stroke-width="0.1899" stroke-linecap="round" stroke-miterlimit="10" d="M-54.415,104.962
							v3.64"/>
					</g>
					
						<path opacity="0.85" fill="none" stroke="#FFFFFF" stroke-width="0.1899" stroke-linecap="round" stroke-miterlimit="10" enable-background="new    " d="
						M-55.946,107.311c-0.295,0.295-0.77,0.295-1.063,0.002c-0.298-0.293-0.296-0.77,0-1.063"/>
					
						<path opacity="0.2" fill="none" stroke="#454545" stroke-width="0.1899" stroke-linecap="round" stroke-miterlimit="10" enable-background="new    " d="
						M-57.01,106.251c0.297-0.293,0.771-0.293,1.063,0c0.295,0.293,0.293,0.77,0,1.061"/>
				</g>
				
					<rect x="-49.098" y="111.475" transform="matrix(2.578893e-006 1 -1 2.578893e-006 63.4924 159.9581)" fill="#CCCCCC" width="1.729" height="0.5"/>
				
					<rect x="-49.095" y="104.273" transform="matrix(2.578893e-006 1 -1 2.578893e-006 56.2912 152.755)" fill="#CCCCCC" width="1.726" height="0.5"/>
				
					<rect x="-49.098" y="97.076" transform="matrix(2.578893e-006 1 -1 2.578893e-006 49.092 145.5597)" fill="#CCCCCC" width="1.728" height="0.5"/>
				
					<rect x="-57.051" y="104.453" transform="matrix(2.578893e-006 1 -1 2.578893e-006 56.0085 153.0465)" fill="#666666" width="17.064" height="0.148"/>
				<g>
					<path fill="#666666" d="M-50.169,113.062c-0.233,0-0.43-0.021-0.43,0.203v1.278c0,0.233-0.188,0.248-0.426,0.248h-0.123
						c0.232,0,0.426-0.015,0.426-0.248v-1.277c0-0.229,0.19-0.203,0.429-0.203L-50.169,113.062L-50.169,113.062z"/>
				</g>
				<g>
					<path fill="#666666" d="M-50.294,95.992c-0.233,0-0.43,0.021-0.43-0.201v-1.277c0-0.238-0.188-0.248-0.426-0.248h0.125
						c0.233,0,0.426,0.01,0.426,0.248v1.277c0,0.229,0.19,0.201,0.43,0.201H-50.294z"/>
				</g>
			</g>
		</g>
	</g>
	<g id="tactile_switch_smd_2_" transform="matrix(1, 0, 0, 1, 32.133, 37.8033)">
		<g transform="matrix(0, 1, -1, 0, 15.103, -0.001008)">
			<g id="tactile_switch_smd_1_" transform="matrix(1, 0, 0, 1, 17.004, 77.8536)">
				<g transform="matrix(-1, 0, 0, -1, 16.392, 16.373)">
					<g id="tactile_switch_smd" transform="matrix(1, 0, 0, 1, 17.021, 74.628)">
						<g transform="matrix(-1, 0, 0, -1, 16.392, 16.392)">
							<polygon fill="#6D6D6D" points="1.071,8.748 3.164,10.844 11.976,10.844 14.069,8.748 14.069,-0.064 11.976,-2.156 
								3.164,-2.156 1.071,-0.064 							"/>
							
								<rect x="0.019" y="-0.063" transform="matrix(2.578893e-006 1 -1 2.578893e-006 11.9136 -3.2254)" fill="#6D6D6D" width="15.102" height="8.813"/>
							
								<rect x="3.164" y="-3.211" transform="matrix(2.578893e-006 1 -1 2.578893e-006 11.9111 -3.2279)" fill="#6D6D6D" width="8.812" height="15.104"/>
							<polygon fill="#7F7F7F" points="1.703,8.32 3.593,10.211 11.549,10.211 13.439,8.32 13.439,0.365 11.549,-1.525 
								3.593,-1.525 1.703,0.365 							"/>
							
								<polyline opacity="0.2" fill="none" stroke="#FFFFFF" stroke-width="0.2183" stroke-miterlimit="10" enable-background="new    " points="
								3.802,-1.218 2.011,0.573 2.011,8.113 3.802,9.905 11.341,9.905 							"/>
							
								<polyline opacity="0.2" fill="none" stroke="#606060" stroke-width="0.2183" stroke-miterlimit="10" enable-background="new    " points="
								11.341,9.905 13.133,8.114 13.133,0.574 11.341,-1.218 3.803,-1.218 							"/>
							<g>
								<path fill="#BCA16A" d="M7.571,7.779c-1.894,0-3.435-1.541-3.435-3.436c0-1.896,1.541-3.438,3.435-3.438
									c1.896,0,3.438,1.541,3.438,3.438C11.002,6.237,9.465,7.779,7.571,7.779z"/>
								<path fill="#606060" d="M7.571,1.141c1.771,0,3.204,1.438,3.204,3.204c0,1.77-1.436,3.204-3.204,3.204
									c-1.77,0-3.204-1.438-3.204-3.204C4.367,2.573,5.802,1.141,7.571,1.141 M7.571,0.68c-2.021,0-3.665,1.644-3.665,3.664
									c0,2.02,1.646,3.666,3.665,3.666c2.021,0,3.665-1.646,3.665-3.666C11.233,2.322,9.591,0.68,7.571,0.68L7.571,0.68z"/>
							</g>
							
								<path opacity="0.2" fill="#BCA16A" stroke="#FFFFFF" stroke-width="0.4887" stroke-miterlimit="10" enable-background="new    " d="
								M9.592,6.363c-1.116,1.117-2.931,1.117-4.044,0c-1.117-1.115-1.117-2.927,0-4.044"/>
							
								<path opacity="0.2" fill="#BCA16A" stroke="#606060" stroke-width="0.4887" stroke-miterlimit="10" enable-background="new    " d="
								M5.549,2.32c1.113-1.114,2.928-1.114,4.044,0c1.114,1.117,1.114,2.93,0,4.044"/>
						</g>
					</g>
				</g>
			</g>
		</g>
	</g>
	<g id="sot23-5" transform="matrix(1, 0, 0, 1, 31.9363, 87.4649)">
		<g transform="matrix(-1, 0, 0, -1, 8.064, 8.47001)">
			<g>
				<rect x="6.062" y="-0.001" fill="#999999" width="1.457" height="2.063"/>
				<rect x="3.304" y="-0.001" fill="#999999" width="1.455" height="2.063"/>
				<rect x="0.546" y="-0.001" fill="#999999" width="1.452" height="2.063"/>
				<rect x="6.062" y="-0.001" opacity="0.2" fill="#FFFFFF" enable-background="new    " width="1.457" height="0.063"/>
				<rect x="3.304" y="-0.001" opacity="0.2" fill="#FFFFFF" enable-background="new    " width="1.455" height="0.063"/>
				<rect x="0.546" y="-0.001" opacity="0.2" fill="#FFFFFF" enable-background="new    " width="1.452" height="0.063"/>
				<rect x="1.883" y="6.245" fill="#999999" width="4.297" height="2.228"/>
				<rect x="1.883" y="8.402" opacity="0.2" fill="#FFFFFF" enable-background="new    " width="4.297" height="0.067"/>
				<rect x="0" y="2.061" fill="#303030" width="8.064" height="4.185"/>
				<polygon fill="#1F1F1F" points="8.064,6.245 0,6.245 0.302,5.942 7.76,5.942 				"/>
				<polygon fill="#1F1F1F" points="8.064,2.061 0,2.061 0.302,2.365 7.76,2.365 				"/>
				<polygon points="8.064,6.245 8.064,2.061 7.76,2.365 7.76,5.942 				"/>
				<polygon fill="#3D3D3D" points="0,6.245 0,2.061 0.302,2.365 0.302,5.942 				"/>
				<circle fill="#1F1F1F" cx="7.154" cy="2.971" r="0.303"/>
			</g>
		</g>
	</g>
	<g id="icon">
		<g>
			<title>layer 21</title>
			<g>
				<title>text:a2*/</title>
				<text transform="matrix(1 0 0 1 107.6589 50.1649)" fill="#FFFFFF" font-family="'OCRA'" font-size="3.3408">a2*/</text>
			</g>
			<g>
				<title>text:11</title>
				<text transform="matrix(1 0 0 1 115.2371 79.7108)" fill="#FFFFFF" font-family="'OCRA'" font-size="4.176">11</text>
			</g>
			<g>
				<title>text:10</title>
				<text transform="matrix(1 0 0 1 104.1003 104.4266)" fill="#FFFFFF" font-family="'OCRA'" font-size="4.176">10</text>
			</g>
			<g>
				<title>text:9</title>
				<text transform="matrix(1 0 0 1 82.9285 120.2508)" fill="#FFFFFF" font-family="'OCRA'" font-size="4.176">9</text>
			</g>
			<g>
				<title>text:6</title>
				<text transform="matrix(1 0 0 1 55.6433 120.2508)" fill="#FFFFFF" font-family="'OCRA'" font-size="4.176">6</text>
			</g>
			<g>
				<title>text:+</title>
				<text transform="matrix(1 0 0 1 19.5808 79.9383)" fill="#FFFFFF" font-family="'OCRA'" font-size="5.0112">+</text>
			</g>
			<g>
				<title>text:-</title>
				<text transform="matrix(1 0 0 1 23.3455 52.5067)" fill="#FFFFFF" font-family="'OCRA'" font-size="5.0112">-</text>
			</g>
			<g>
				<title>text:5</title>
				<text transform="matrix(1 0 0 1 32.4099 104.5125)" fill="#FFFFFF" font-family="'OCRA'" font-size="4.176">5</text>
			</g>
			<g>
				<title>text:B</title>
				<text transform="matrix(1 0 0 1 51.5896 60.0945)" fill="#FFFFFF" font-family="'OCRA'" font-size="4.176">B</text>
			</g>
			<g>
				<title>text:G</title>
				<text transform="matrix(1 0 0 1 87.5906 60.0945)" fill="#FFFFFF" font-family="'OCRA'" font-size="4.176">G</text>
			</g>
			<g>
				<title>text:16</title>
				<text transform="matrix(1 0 0 1 112.7429 54.2918)" fill="#FFFFFF" font-family="'OCRA'" font-size="3.3408">16</text>
			</g>
			<g>
				<title>text:a3/</title>
				<text transform="matrix(1 0 0 1 92.4148 29.7547)" fill="#FFFFFF" font-family="'OCRA'" font-size="3.3408">a3/</text>
			</g>
			<g>
				<title>text:17</title>
				<text transform="matrix(1 0 0 1 95.8015 33.6512)" fill="#FFFFFF" font-family="'OCRA'" font-size="3.3408">17</text>
			</g>
			<g>
				<title>text:a4/</title>
				<text transform="matrix(1 0 0 1 67.9338 22.8026)" fill="#FFFFFF" font-family="'OCRA'" font-size="3.3408">a4/</text>
			</g>
			<g>
				<title>text:18</title>
				<text transform="matrix(1 0 0 1 68.6541 27.1219)" fill="#FFFFFF" font-family="'OCRA'" font-size="3.3408">18</text>
			</g>
			<g>
				<title>text:On</title>
				<g transform="matrix(1, 0, 0, 1, 59.2441, 99.4961)">
					<g transform="rotate(270)">
						<text transform="matrix(1 0 0 1 -7.934570e-004 -2.136230e-004)" fill="#FFFFFF" font-family="'OCRA'" font-size="5.8464">On</text>
					</g>
				</g>
			</g>
			<g>
				<title>text:Off</title>
				<g transform="matrix(1, 0, 0, 1, 87.5909, 100.346)">
					<g transform="rotate(270)">
						<text transform="matrix(1 0 0 1 -4.882813e-004 -3.051758e-004)" fill="#FFFFFF" font-family="'OCRA'" font-size="5.8464">Off</text>
					</g>
				</g>
			</g>
			<g>
				<title>text:a5/</title>
				<text transform="matrix(1 0 0 1 41.2942 30.7234)" fill="#FFFFFF" font-family="'OCRA'" font-size="3.3408">a5/</text>
			</g>
			<g>
				<title>text:19</title>
				<text transform="matrix(1 0 0 1 43.0291 34.6395)" fill="#FFFFFF" font-family="'OCRA'" font-size="3.3408">19</text>
			</g>
			<g>
				<title>element:A2/16</title>
				<g>
					<title>package:PETAL-LONG-1-2SIDE</title>
				</g>
			</g>
			<g>
				<title>element:A3/17</title>
				<g>
					<title>package:PETAL-LONG-1-2SIDE</title>
				</g>
			</g>
			<g>
				<title>element:A4/18</title>
				<g>
					<title>package:PETAL-LONG-1-2SIDE</title>
				</g>
			</g>
			<g>
				<title>element:A5/19</title>
				<g>
					<title>package:PETAL-LONG-1-2SIDE</title>
				</g>
			</g>
			<g>
				<title>element:JP2</title>
				<g>
					<title>package:1X06-SMD</title>
				</g>
			</g>
			<g>
				<title>element:PP-MISO</title>
				<g>
					<title>package:PAD.03X.05</title>
				</g>
			</g>
			<g>
				<title>element:PP-RST</title>
				<g>
					<title>package:PAD.03X.05</title>
				</g>
			</g>
			<g>
				<title>element:PP-SCK</title>
				<g>
					<title>package:PAD.03X.05</title>
				</g>
			</g>
			<g>
				<title>element:TP-DTR</title>
				<g>
					<title>package:PAD.03X.05</title>
				</g>
			</g>
			<g>
				<title>element:TP-FTDI_VCC</title>
				<g>
					<title>package:PAD.03X.05</title>
				</g>
			</g>
			<g>
				<title>element:TP-RX</title>
				<g>
					<title>package:PAD.03X.05</title>
				</g>
			</g>
			<g>
				<title>element:TP-TX</title>
				<g>
					<title>package:PAD.03X.05</title>
				</g>
			</g>
			<g>
				<title>element:TP-VBATT</title>
				<g>
					<title>package:PAD.03X.05</title>
				</g>
			</g>
			<g>
				<title>element:U$1</title>
				<g>
					<title>package:LOGO-LPA</title>
					
						<line fill="none" stroke="#FFFFFF" stroke-width="0.576" stroke-linecap="round" x1="60.179" y1="112.388" x2="60.179" y2="106.434"/>
					<path fill="none" stroke="#FFFFFF" stroke-width="0.576" d="M61.88,105.017c-0.859-0.078-1.623,0.556-1.699,1.417"/>
					<path fill="none" stroke="#FFFFFF" stroke-width="0.576" d="M63.581,106.434c-0.078-0.861-0.84-1.495-1.7-1.417"/>
					
						<line fill="none" stroke="#FFFFFF" stroke-width="0.576" stroke-linecap="round" x1="63.581" y1="106.434" x2="63.581" y2="107"/>
					<path fill="none" stroke="#FFFFFF" stroke-width="0.576" d="M62.164,108.276c0.744,0.039,1.378-0.532,1.417-1.276"/>
					
						<line fill="none" stroke="#FFFFFF" stroke-width="0.576" stroke-linecap="round" x1="62.164" y1="108.276" x2="61.313" y2="108.276"/>
					<path fill="none" stroke="#FFFFFF" stroke-width="0.576" d="M63.439,112.388c0.548-0.079,0.929-0.586,0.851-1.136
						c0-0.001,0-0.001,0-0.001"/>
					
						<line fill="none" stroke="#FFFFFF" stroke-width="0.576" stroke-linecap="round" x1="63.439" y1="112.388" x2="62.873" y2="112.388"/>
					<path fill="none" stroke="#FFFFFF" stroke-width="0.576" d="M61.739,110.971c-0.078,0.702,0.429,1.338,1.134,1.417"/>
					<path fill="none" stroke="#FFFFFF" stroke-width="0.576" d="M62.873,109.554c-0.705,0.076-1.213,0.712-1.135,1.417
						c0,0,0.001,0,0.001,0.001"/>
					
						<line fill="none" stroke="#FFFFFF" stroke-width="0.576" stroke-linecap="round" x1="62.873" y1="109.554" x2="63.156" y2="109.554"/>
					<path fill="none" stroke="#FFFFFF" stroke-width="0.576" d="M64.29,110.686c0-0.627-0.508-1.134-1.134-1.134l0,0"/>
					
						<line fill="none" stroke="#FFFFFF" stroke-width="0.576" stroke-linecap="round" x1="64.29" y1="110.686" x2="64.29" y2="111.252"/>
					<path fill="none" stroke="#FFFFFF" stroke-width="0.576" d="M64.29,111.252c-0.117,0.511,0.199,1.019,0.708,1.137h0.001"/>
					<path fill="none" stroke="#FFFFFF" stroke-width="0.576" d="M64.999,112.388c0.432,0.115,0.874-0.139,0.991-0.567l0,0"/>
					
						<line fill="none" stroke="#FFFFFF" stroke-width="0.576" stroke-linecap="round" x1="65.99" y1="111.819" x2="65.99" y2="111.68"/>
					
						<line fill="none" stroke="#FFFFFF" stroke-width="0.576" stroke-linecap="round" x1="65.99" y1="111.68" x2="65.99" y2="110.971"/>
					<path fill="none" stroke="#FFFFFF" stroke-width="0.576" d="M67.266,109.554c-0.744,0.037-1.315,0.673-1.276,1.417
						c0,0,0,0,0,0.001"/>
					<path fill="none" stroke="#FFFFFF" stroke-width="0.576" d="M68.542,111.11c0.078-0.783-0.493-1.48-1.273-1.559l0,0"/>
					<path fill="none" stroke="#FFFFFF" stroke-width="0.576" d="M68.542,111.68c0.047-0.188,0.047-0.383,0-0.567"/>
					<path fill="none" stroke="#FFFFFF" stroke-width="0.576" d="M67.691,112.527c0.419-0.104,0.746-0.432,0.851-0.85"/>
					<path fill="none" stroke="#FFFFFF" stroke-width="0.576" d="M65.99,111.68c0.235,0.702,0.997,1.084,1.701,0.85"/>
					
						<line fill="none" stroke="#FFFFFF" stroke-width="0.576" stroke-linecap="round" x1="68.542" y1="111.68" x2="68.542" y2="111.961"/>
					<path fill="none" stroke="#FFFFFF" stroke-width="0.576" d="M68.542,111.961c0.001,0.313,0.254,0.566,0.567,0.566"/>
					<path fill="none" stroke="#FFFFFF" stroke-width="0.576" d="M69.109,112.527c0.313,0,0.564-0.253,0.564-0.566"/>
					
						<line fill="none" stroke="#FFFFFF" stroke-width="0.576" stroke-linecap="round" x1="68.542" y1="111.394" x2="68.542" y2="105.725"/>
					<path fill="none" stroke="#FFFFFF" stroke-width="0.576" d="M72.935,106.434c0.392,1.878,2.229,3.084,4.108,2.69l0,0"/>
					<path fill="none" stroke="#FFFFFF" stroke-width="0.576" d="M82.573,112.388c0.392-0.001,0.709-0.318,0.709-0.709l0,0"/>
					
						<line fill="none" stroke="#FFFFFF" stroke-width="0.576" stroke-linecap="round" x1="83.282" y1="111.68" x2="83.282" y2="111.535"/>
					
						<line fill="none" stroke="#FFFFFF" stroke-width="0.576" stroke-linecap="round" x1="83.282" y1="111.535" x2="83.282" y2="110.827"/>
					<path fill="none" stroke="#FFFFFF" stroke-width="0.576" d="M84.557,109.554c-0.704-0.001-1.275,0.568-1.275,1.272
						c0,0.001,0,0.001,0,0.001"/>
					<path fill="none" stroke="#FFFFFF" stroke-width="0.576" d="M85.834,110.971c0.039-0.744-0.529-1.381-1.273-1.418h-0.001"/>
					<path fill="none" stroke="#FFFFFF" stroke-width="0.576" d="M85.834,111.535c0.046-0.186,0.046-0.38,0-0.563"/>
					<path fill="none" stroke="#FFFFFF" stroke-width="0.576" d="M84.982,112.388c0.419-0.105,0.746-0.435,0.852-0.854"/>
					<path fill="none" stroke="#FFFFFF" stroke-width="0.576" d="M83.282,111.535c0.234,0.705,0.995,1.086,1.7,0.854l0,0"/>
					
						<line fill="none" stroke="#FFFFFF" stroke-width="0.576" stroke-linecap="round" x1="85.834" y1="111.535" x2="85.834" y2="111.819"/>
					<path fill="none" stroke="#FFFFFF" stroke-width="0.576" d="M85.834,111.819c0.078,0.392,0.459,0.646,0.852,0.567"/>
					<path fill="none" stroke="#FFFFFF" stroke-width="0.576" d="M86.683,112.388c0.313-0.001,0.565-0.257,0.565-0.567"/>
					
						<line fill="none" stroke="#FFFFFF" stroke-width="0.576" stroke-linecap="round" x1="85.834" y1="111.252" x2="85.834" y2="105.582"/>
					<path fill="none" stroke="#FFFFFF" stroke-width="0.576" d="M97.88,109.835c-0.705,0.078-1.212,0.713-1.134,1.417"/>
					
						<line fill="none" stroke="#FFFFFF" stroke-width="0.576" stroke-linecap="round" x1="97.88" y1="109.835" x2="98.164" y2="109.835"/>
					<path fill="none" stroke="#FFFFFF" stroke-width="0.576" d="M99.297,110.971c0-0.627-0.508-1.136-1.134-1.137"/>
					
						<line fill="none" stroke="#FFFFFF" stroke-width="0.576" stroke-linecap="round" x1="99.297" y1="111.252" x2="99.297" y2="110.971"/>
					<path fill="none" stroke="#FFFFFF" stroke-width="0.576" d="M98.164,112.527c0.665-0.039,1.172-0.61,1.134-1.275"/>
					
						<line fill="none" stroke="#FFFFFF" stroke-width="0.576" stroke-linecap="round" x1="97.88" y1="112.527" x2="98.164" y2="112.527"/>
					<path fill="none" stroke="#FFFFFF" stroke-width="0.576" d="M96.747,111.252c-0.039,0.665,0.469,1.236,1.134,1.275"/>
					<path fill="none" stroke="#FFFFFF" stroke-width="0.576" d="M97.455,109.977c0.156,0.858,0.981,1.432,1.842,1.273
						c0.001,0,0.001,0,0.001,0"/>
					
						<line fill="none" stroke="#FFFFFF" stroke-width="0.576" stroke-linecap="round" x1="99.297" y1="111.252" x2="99.156" y2="111.252"/>
					<path fill="none" stroke="#FFFFFF" stroke-width="0.576" d="M99.156,111.252c0.587,0.117,1.158-0.264,1.275-0.851"/>
					
						<line fill="none" stroke="#FFFFFF" stroke-width="0.576" stroke-linecap="round" x1="100.431" y1="110.401" x2="100.431" y2="109.977"/>
					<path fill="none" stroke="#FFFFFF" stroke-width="0.576" d="M96.179,112.388c0.392-0.079,0.646-0.46,0.565-0.853
						c0-0.001,0-0.001,0-0.001"/>
					
						<line fill="none" stroke="#FFFFFF" stroke-width="0.576" stroke-linecap="round" x1="95.755" y1="112.388" x2="96.179" y2="112.388"/>
					<path fill="none" stroke="#FFFFFF" stroke-width="0.576" d="M95.33,111.68c-0.079,0.313,0.111,0.63,0.424,0.709
						c0,0,0,0,0.001,0"/>
					
						<line fill="none" stroke="#FFFFFF" stroke-width="0.576" stroke-linecap="round" x1="95.33" y1="110.543" x2="95.33" y2="111.68"/>
					<path fill="none" stroke="#FFFFFF" stroke-width="0.576" d="M95.33,110.543c-0.04-0.431-0.421-0.747-0.852-0.708l0,0"/>
					
						<line fill="none" stroke="#FFFFFF" stroke-width="0.576" stroke-linecap="round" x1="94.053" y1="109.835" x2="94.478" y2="109.835"/>
					<path fill="none" stroke="#FFFFFF" stroke-width="0.576" d="M94.053,109.835c-0.472,0-0.852,0.381-0.853,0.853"/>
					
						<line fill="none" stroke="#FFFFFF" stroke-width="0.576" stroke-linecap="round" x1="93.203" y1="111.535" x2="93.203" y2="109.554"/>
					
						<line fill="none" stroke="#FFFFFF" stroke-width="0.576" stroke-linecap="round" x1="93.203" y1="111.535" x2="93.203" y2="110.686"/>
					<path fill="none" stroke="#FFFFFF" stroke-width="0.576" d="M92.353,112.388c0.47,0,0.85-0.383,0.85-0.853
						c0-0.001,0-0.001,0-0.001"/>
					<path fill="none" stroke="#FFFFFF" stroke-width="0.576" d="M91.218,111.252c0,0.627,0.51,1.136,1.136,1.137h0.001"/>
					
						<line fill="none" stroke="#FFFFFF" stroke-width="0.576" stroke-linecap="round" x1="91.218" y1="111.11" x2="91.218" y2="109.835"/>
					
						<line fill="none" stroke="#FFFFFF" stroke-width="0.576" stroke-linecap="round" x1="91.218" y1="111.11" x2="91.218" y2="111.252"/>
					
						<line fill="none" stroke="#FFFFFF" stroke-width="0.576" stroke-linecap="round" x1="91.218" y1="111.535" x2="91.218" y2="111.11"/>
					<path fill="none" stroke="#FFFFFF" stroke-width="0.576" d="M90.369,112.388c0.47,0,0.85-0.383,0.85-0.853v-0.001"/>
					
						<line fill="none" stroke="#FFFFFF" stroke-width="0.576" stroke-linecap="round" x1="89.518" y1="111.252" x2="89.518" y2="109.835"/>
					<path fill="none" stroke="#FFFFFF" stroke-width="0.576" d="M89.518,111.252c-0.078,0.548,0.303,1.058,0.851,1.137l0,0"/>
					
						<line fill="none" stroke="#FFFFFF" stroke-width="0.576" stroke-linecap="round" x1="87.251" y1="111.535" x2="87.251" y2="109.835"/>
					<path fill="none" stroke="#FFFFFF" stroke-width="0.576" d="M87.251,111.535c0.116,0.587,0.688,0.969,1.274,0.854h0.001"/>
					<path fill="none" stroke="#FFFFFF" stroke-width="0.576" d="M88.526,112.388c0.587-0.04,1.031-0.549,0.992-1.137l0,0"/>
					
						<line fill="none" stroke="#FFFFFF" stroke-width="0.576" stroke-linecap="round" x1="81.156" y1="110.118" x2="81.722" y2="110.118"/>
					<path fill="none" stroke="#FFFFFF" stroke-width="0.576" d="M79.455,108.701c0.078,0.861,0.84,1.495,1.701,1.417"/>
					
						<line fill="none" stroke="#FFFFFF" stroke-width="0.576" stroke-linecap="round" x1="79.455" y1="111.535" x2="79.455" y2="108.701"/>
					<path fill="none" stroke="#FFFFFF" stroke-width="0.576" d="M78.322,112.388c0.548,0.075,1.055-0.306,1.133-0.854"/>
					<path fill="none" stroke="#FFFFFF" stroke-width="0.576" d="M77.187,111.252c0,0.627,0.508,1.136,1.134,1.137c0,0,0,0,0.001,0"
						/>
					
						<line fill="none" stroke="#FFFFFF" stroke-width="0.576" stroke-linecap="round" x1="76.904" y1="106.716" x2="77.187" y2="111.252"/>
					<path fill="none" stroke="#FFFFFF" stroke-width="0.576" d="M76.904,106.716c-0.001-0.938-0.762-1.697-1.701-1.697"/>
					
						<line fill="none" stroke="#FFFFFF" stroke-width="0.576" stroke-linecap="round" x1="74.92" y1="105.017" x2="75.203" y2="105.017"/>
					
						<line fill="none" stroke="#FFFFFF" stroke-width="0.576" stroke-linecap="round" x1="74.92" y1="108.701" x2="74.92" y2="105.017"/>
					<path fill="none" stroke="#FFFFFF" stroke-width="0.576" d="M69.251,114.795c3.248-0.115,5.786-2.846,5.669-6.094"/>
					
						<line fill="none" stroke="#FFFFFF" stroke-width="0.576" stroke-linecap="round" x1="81.722" y1="110.118" x2="81.722" y2="111.68"/>
					<path fill="none" stroke="#FFFFFF" stroke-width="0.576" d="M81.722,111.68c0,0.391,0.315,0.708,0.709,0.709l0,0"/>
					
						<line fill="none" stroke="#FFFFFF" stroke-width="0.576" stroke-linecap="round" x1="50.117" y1="108.984" x2="50.117" y2="108.842"/>
					
						<line fill="none" stroke="#FFFFFF" stroke-width="0.576" stroke-linecap="round" x1="91.218" y1="108.842" x2="91.218" y2="108.984"/>
					<path fill="none" stroke="#FFFFFF" stroke-width="0.576" d="M44.164,104.024c0.001,2.034,1.65,3.684,3.687,3.684"/>
					
						<line fill="none" stroke="#FFFFFF" stroke-width="0.576" stroke-linecap="round" x1="47.848" y1="107.708" x2="48.274" y2="107.708"/>
					<path fill="none" stroke="#FFFFFF" stroke-width="0.576" d="M48.274,107.708c1.057,0.039,1.942-0.785,1.982-1.842"/>
					<path fill="none" stroke="#FFFFFF" stroke-width="0.576" d="M50.258,105.866c-0.001-0.47-0.381-0.85-0.851-0.85"/>
					<path fill="none" stroke="#FFFFFF" stroke-width="0.576" d="M46.431,111.252c-0.273-1.213-1.479-1.975-2.692-1.699v0.001"/>
					
						<line fill="none" stroke="#FFFFFF" stroke-width="0.576" stroke-linecap="round" x1="49.125" y1="105.017" x2="49.408" y2="105.017"/>
					<path fill="none" stroke="#FFFFFF" stroke-width="0.576" d="M49.125,105.017c-1.096,0-1.982,0.888-1.982,1.981"/>
					<path fill="none" stroke="#FFFFFF" stroke-width="0.576" d="M43.739,109.554c-0.822,0.115-1.394,0.878-1.276,1.698l0,0"/>
					
						<line fill="none" stroke="#FFFFFF" stroke-width="0.576" stroke-linecap="round" x1="47.14" y1="108.984" x2="47.14" y2="107"/>
					<path fill="none" stroke="#FFFFFF" stroke-width="0.576" d="M43.739,112.388c1.878,0,3.401-1.523,3.401-3.402l0,0"/>
					<path fill="none" stroke="#FFFFFF" stroke-width="0.576" d="M42.463,111.252c0.039,0.666,0.61,1.176,1.275,1.137
						c0,0,0,0,0.001,0"/>
					<path fill="none" stroke="#FFFFFF" stroke-width="0.576" d="M47.14,112.244c1.135,0.509,2.467,0.001,2.976-1.134
						c0,0,0,0,0.001,0"/>
					
						<line fill="none" stroke="#FFFFFF" stroke-width="0.576" stroke-linecap="round" x1="50.117" y1="110.686" x2="50.117" y2="109.835"/>
					
						<line fill="none" stroke="#FFFFFF" stroke-width="0.576" stroke-linecap="round" x1="50.117" y1="110.686" x2="50.117" y2="111.11"/>
					
						<line fill="none" stroke="#FFFFFF" stroke-width="0.576" stroke-linecap="round" x1="52.809" y1="110.401" x2="52.809" y2="105.725"/>
					<path fill="none" stroke="#FFFFFF" stroke-width="0.576" d="M50.117,110.686c-0.118,0.819,0.453,1.583,1.274,1.701
						c0.001,0,0.001,0,0.001,0"/>
					<path fill="none" stroke="#FFFFFF" stroke-width="0.576" d="M51.392,112.388c0.792-0.102,1.394-0.764,1.417-1.562"/>
					<path fill="none" stroke="#FFFFFF" stroke-width="0.576" d="M52.809,110.827c0.011-0.142,0.011-0.284,0-0.426"/>
					
						<line fill="none" stroke="#FFFFFF" stroke-width="0.576" stroke-linecap="round" x1="52.809" y1="110.971" x2="52.809" y2="110.827"/>
					<path fill="none" stroke="#FFFFFF" stroke-width="0.576" d="M52.809,110.971c0,0.78,0.635,1.417,1.417,1.417"/>
					<path fill="none" stroke="#FFFFFF" stroke-width="0.576" d="M54.226,112.388c0.781,0,1.418-0.637,1.418-1.417"/>
					
						<line fill="none" stroke="#FFFFFF" stroke-width="0.576" stroke-linecap="round" x1="55.644" y1="110.971" x2="55.644" y2="109.269"/>
					<path fill="none" stroke="#FFFFFF" stroke-width="0.576" d="M55.644,110.971c0,0.78,0.635,1.417,1.417,1.417"/>
					<path fill="none" stroke="#FFFFFF" stroke-width="0.576" d="M59.329,117.205c-0.156-2.035-1.933-3.559-3.968-3.399l0,0"/>
					<path fill="none" stroke="#FFFFFF" stroke-width="0.576" d="M57.061,112.388c0.781,0,1.417-0.637,1.418-1.417"/>
					
						<line fill="none" stroke="#FFFFFF" stroke-width="0.576" stroke-linecap="round" x1="58.479" y1="110.971" x2="58.479" y2="109.269"/>
					
						<line fill="none" stroke="#FFFFFF" stroke-width="0.576" stroke-linecap="round" x1="58.479" y1="113.236" x2="58.479" y2="110.971"/>
					
						<line fill="none" stroke="#FFFFFF" stroke-width="0.576" stroke-linecap="round" x1="54.794" y1="113.805" x2="55.361" y2="113.805"/>
					<path fill="none" stroke="#FFFFFF" stroke-width="0.576" d="M54.794,113.805c-0.938,0-1.701,0.761-1.701,1.698l0,0"/>
					<path fill="none" stroke="#FFFFFF" stroke-width="0.576" d="M54.794,116.922c2.035,0,3.687-1.647,3.688-3.685v-0.001"/>
					
						<line fill="none" stroke="#FFFFFF" stroke-width="0.576" stroke-linecap="round" x1="54.51" y1="116.922" x2="54.794" y2="116.922"/>
					<path fill="none" stroke="#FFFFFF" stroke-width="0.576" d="M53.092,115.504c0,0.783,0.636,1.418,1.417,1.418h0.001"/>
					<path fill="none" stroke="#FFFFFF" stroke-width="0.576" d="M46.431,111.252c0.154,0.783,0.918,1.291,1.699,1.137l0,0"/>
				</g>
			</g>
			<g>
				<title>element:U$4</title>
				<g>
					<title>package:PETAL-LONG-1-2SIDE</title>
				</g>
			</g>
			<g>
				<title>element:U$35</title>
				<g>
					<title>package:PETAL-LONG-1-2SIDE</title>
				</g>
			</g>
			<g>
				<title>element:U$37</title>
				<g>
					<title>package:PETAL-LONG-1-2SIDE</title>
				</g>
			</g>
			<g>
				<title>element:U$39</title>
				<g>
					<title>package:PETAL-LONG-1-2SIDE</title>
				</g>
			</g>
			<g>
				<title>element:U$41</title>
				<g>
					<title>package:PETAL-LONG-1-2SIDE</title>
				</g>
			</g>
			<g>
				<title>element:U$43</title>
				<g>
					<title>package:PETAL-LONG-1-2SIDE</title>
				</g>
			</g>
			<g>
				<title>element:U$45</title>
				<g>
					<title>package:PETAL-LONG-1-2SIDE</title>
				</g>
			</g>
		</g>
		<rect x="94.819" y="63.496" fill="#333333" width="8.929" height="14.74"/>
		<rect x="49.464" y="71.434" fill="#FFFFFF" fill-opacity="0.15" width="3.687" height="10.204"/>
		<polygon fill="#333333" points="60.93,61.938 61.937,60.931 80.801,60.931 80.801,80.804 60.93,80.804 		"/>
	</g>
	<g id="_x31_x06-smd" transform="matrix(1, 0, 0, 1, 49.2646, 16.2739)">
		<g transform="matrix(-1, 0, 0, -1, 43.203, 39.135)">
			<g>
				<polyline points="0,17.336 43.203,17.336 43.203,11.383 0,11.383 				"/>
				<g>
					<polygon fill="#B8AF82" points="33.553,36.788 32.994,39.134 31.812,39.134 31.254,36.788 31.254,15.904 33.553,15.904 					
						"/>
					<polygon fill="#E2D6A1" points="32.994,39.134 33.152,38.475 31.657,38.475 31.812,39.134 					"/>
				</g>
				<g>
					<polygon fill="#B8AF82" points="26.354,36.788 25.795,39.134 24.614,39.134 24.057,36.788 24.057,15.904 26.354,15.904 					
						"/>
					<polygon fill="#E2D6A1" points="25.795,39.134 25.951,38.475 24.457,38.475 24.614,39.134 					"/>
				</g>
				<g>
					<polygon fill="#B8AF82" points="19.154,36.788 18.596,39.134 17.414,39.134 16.855,36.788 16.855,15.904 19.154,15.904 					
						"/>
					<polygon fill="#E2D6A1" points="18.596,39.134 18.752,38.475 17.258,38.475 17.414,39.134 					"/>
				</g>
				<g>
					<polygon fill="#B8AF82" points="11.955,36.788 11.395,39.134 10.215,39.134 9.657,36.788 9.657,15.904 11.955,15.904 					"/>
					<polygon fill="#E2D6A1" points="11.395,39.134 11.553,38.475 10.059,38.475 10.215,39.134 					"/>
				</g>
				<g>
					<polygon fill="#B8AF82" points="4.75,36.788 4.19,39.134 3.01,39.134 2.451,36.788 2.451,15.904 4.75,15.904 					"/>
					<polygon fill="#E2D6A1" points="4.19,39.134 4.348,38.475 2.854,38.475 3.01,39.134 					"/>
				</g>
				<g>
					<g>
						<g>
							<path fill="#373737" d="M9.305,0"/>
						</g>
					</g>
					<polygon fill="#B8AF82" points="33.553,0 31.254,0 31.254,13.508 33.553,13.508 					"/>
					<polygon fill="#B8AF82" points="26.354,0 24.057,0 24.057,13.508 26.354,13.508 					"/>
					<polygon fill="#B8AF82" points="19.154,0 16.855,0 16.855,13.508 19.154,13.508 					"/>
					<polygon fill="#B8AF82" points="11.955,0 9.657,0 9.657,13.508 11.955,13.508 					"/>
					<polygon fill="#9A916C" points="33.553,0 31.254,0 31.254,0.44 33.553,0.44 					"/>
					<polygon fill="#9A916C" points="26.354,0 24.057,0 24.057,0.44 26.354,0.44 					"/>
					<polygon fill="#9A916C" points="19.154,0 16.855,0 16.855,0.44 19.154,0.44 					"/>
					<polygon fill="#9A916C" points="11.955,0 9.657,0 9.657,0.44 11.955,0.44 					"/>
					<polygon fill="#E2D6A1" points="33.553,0.458 31.254,0.458 31.254,1.117 33.553,1.117 					"/>
					<polygon fill="#E2D6A1" points="26.354,0.458 24.057,0.458 24.057,1.117 26.354,1.117 					"/>
					<polygon fill="#E2D6A1" points="19.154,0.458 16.855,0.458 16.855,1.117 19.154,1.117 					"/>
					<polygon fill="#E2D6A1" points="11.955,0.458 9.657,0.458 9.657,1.117 11.955,1.117 					"/>
					<polygon fill="#B8AF82" points="4.75,0 2.451,0 2.451,13.508 4.75,13.508 					"/>
					<polygon fill="#9A916C" points="4.75,0 2.451,0 2.451,0.44 4.75,0.44 					"/>
					<polygon fill="#E2D6A1" points="4.75,0.458 2.451,0.458 2.451,1.117 4.75,1.117 					"/>
					<g>
						<polygon points="0,11.383 0,17.336 36.004,17.336 36.004,11.383 						"/>
						<g>
							<rect x="8.229" y="11.383" fill="#404040" width="5.154" height="5.953"/>
							<polygon fill="#474747" points="13.383,17.336 14.405,17.336 14.405,11.383 13.383,11.383 							"/>
							<polygon fill="#373737" points="8.229,11.383 7.205,11.383 7.205,17.336 8.229,17.336 							"/>
						</g>
						<g>
							<rect x="29.827" y="11.383" fill="#404040" width="5.15" height="5.953"/>
							<polygon fill="#474747" points="34.98,17.336 36.004,17.336 36.004,11.383 34.98,11.383 							"/>
							<polygon fill="#373737" points="29.826,11.383 28.805,11.383 28.805,17.336 29.826,17.336 							"/>
						</g>
						<g>
							<polygon fill="#B8AF82" points="40.752,36.788 40.195,39.134 39.014,39.134 38.455,36.788 38.455,15.904 40.752,15.904 
															"/>
							<polygon fill="#E2D6A1" points="40.195,39.134 40.352,38.475 38.855,38.475 39.014,39.134 							"/>
						</g>
						<polygon fill="#B8AF82" points="40.752,0 38.455,0 38.455,13.508 40.752,13.508 						"/>
						<polygon fill="#9A916C" points="40.752,0 38.455,0 38.455,0.44 40.752,0.44 						"/>
						<polygon fill="#E2D6A1" points="40.752,0.458 38.455,0.458 38.455,1.117 40.752,1.117 						"/>
						<g>
							<rect x="37.029" y="11.383" fill="#404040" width="5.15" height="5.953"/>
							<polygon fill="#474747" points="42.182,17.336 43.203,17.336 43.203,11.383 42.182,11.383 							"/>
							<polygon fill="#373737" points="37.028,11.383 36.004,11.383 36.004,17.336 37.028,17.336 							"/>
						</g>
						<g>
							<rect x="22.628" y="11.383" fill="#404040" width="5.154" height="5.953"/>
							<polygon fill="#474747" points="27.782,17.336 28.805,17.336 28.805,11.383 27.782,11.383 							"/>
							<polygon fill="#373737" points="22.627,11.383 21.604,11.383 21.604,17.336 22.627,17.336 							"/>
						</g>
						<g>
							<rect x="15.428" y="11.383" fill="#404040" width="5.154" height="5.953"/>
							<polygon fill="#474747" points="20.582,17.336 21.604,17.336 21.604,11.383 20.582,11.383 							"/>
							<polygon fill="#373737" points="15.428,11.383 14.405,11.383 14.405,17.336 15.428,17.336 							"/>
						</g>
						<g>
							<rect x="1.025" y="11.383" fill="#404040" width="5.15" height="5.953"/>
							<polygon fill="#474747" points="6.178,17.336 7.2,17.336 7.2,11.383 6.178,11.383 							"/>
							<polygon fill="#373737" points="1.025,11.383 0,11.383 0,17.336 1.025,17.336 							"/>
						</g>
					</g>
				</g>
			</g>
		</g>
	</g>
</g>
</svg>
