<?xml version="1.0" encoding="utf-8"?>
<!-- Generator: Adobe Illustrator 16.0.0, SVG Export Plug-In . SVG Version: 6.00 Build 0)  -->
<svg version="1.2" baseProfile="tiny" id="Layer_1" xmlns:svg="http://www.w3.org/2000/svg"
	 xmlns="http://www.w3.org/2000/svg" xmlns:xlink="http://www.w3.org/1999/xlink" x="0px" y="0px" width="43.197px"
	 height="36.918px" viewBox="0 0 43.197 36.918" xml:space="preserve">
<g id="breadboard">
	<circle id="connector0pin" fill="none" stroke="#9A916C" stroke-width="0.4318" cx="14.399" cy="27.213" r="1.148"/>
	<circle id="connector1pin" fill="none" stroke="#9A916C" stroke-width="0.4318" cx="14.399" cy="20.013" r="1.148"/>
	<circle id="connector2pin" fill="none" stroke="#9A916C" stroke-width="0.4318" cx="21.599" cy="27.273" r="1.148"/>
	<circle id="connector3pin" fill="none" stroke="#9A916C" stroke-width="0.4318" cx="21.599" cy="20.013" r="1.148"/>
	<circle id="connector4pin" fill="none" stroke="#9A916C" stroke-width="0.4318" cx="28.8" cy="27.273" r="1.148"/>
	<circle id="connector5pin" fill="none" stroke="#9A916C" stroke-width="0.4318" cx="28.8" cy="20.013" r="1.148"/>
	<rect id="bgnd" fill="#1A1A1A" width="43.199" height="33.877"/>
	<rect id="bgnd_1_" y="14.498" fill="#262626" width="43.199" height="19.379"/>
	<rect id="lower_connector_bgnd_2_" x="26.899" y="25.313" fill="#141414" width="3.801" height="3.802"/>
	<rect id="upper_connector_bgnd" x="12.5" y="18.114" fill="#141414" width="3.799" height="3.799"/>
	<rect id="upper_connector_bgnd_1_" x="19.699" y="18.114" fill="#141414" width="3.799" height="3.799"/>
	<rect id="upper_connector_bgnd_2_" x="26.899" y="18.114" fill="#141414" width="3.801" height="3.799"/>
	<rect id="lower_connector_bgnd" x="12.5" y="25.313" fill="#141414" width="3.799" height="3.802"/>
	<rect id="lower_connector_bgnd_1_" x="19.699" y="25.313" fill="#141414" width="3.799" height="3.802"/>
	<g>
		<polyline id="upper_connector_bottom_inset_9_" fill="#474432" points="15.548,9.402 15.548,20.014 13.25,20.014 13.25,9.402 		
			"/>
		<polyline id="upper_connector_bottom_inset_8_" fill="#474432" points="22.748,9.402 22.748,20.014 20.449,20.014 20.449,9.402 		
			"/>
		<polyline id="upper_connector_bottom_inset_7_" fill="#474432" points="29.949,9.402 29.949,20.014 27.649,20.014 27.649,9.402 		
			"/>
		<polyline id="lower_connector_bottom_inset_9_" fill="#474432" points="15.548,16.602 15.548,27.213 13.25,27.213 13.25,16.602 		
			"/>
		<polyline id="lower_connector_bottom_inset_8_" fill="#474432" points="22.748,16.602 22.748,28.422 20.449,28.422 20.449,16.602 
					"/>
		<polyline id="lower_connector_bottom_inset_7_" fill="#474432" points="29.949,16.602 29.949,28.422 27.649,28.422 27.649,16.602 
					"/>
	</g>
	<g>
		<rect y="22.288" fill="#595959" width="15.549" height="2.798"/>
		<rect x="27.649" y="22.288" fill="#595959" width="15.548" height="2.798"/>
	</g>
	<rect id="top_inset" fill="#2A2A29" width="43.199" height="2.798"/>
	<path id="left_inset" fill="#373737" d="M0,0v25.086l2.797-2.798V2.798L0,0z"/>
	<path id="right_inset" fill="#474747" d="M43.197,0v25.086l-2.8-2.798V2.798L43.197,0z"/>
	<rect id="top_border" fill="#404040" width="43.199" height="1.798"/>
	<g>
		<rect y="23.288" fill="#404040" width="15.548" height="1.798"/>
		<rect x="27.65" y="23.288" fill="#404040" width="15.547" height="1.798"/>
	</g>
	<rect id="left_border" fill="#404040" width="1.797" height="25.086"/>
	<rect id="right_border" x="41.398" fill="#404040" width="1.8" height="25.086"/>
	<g>
		<rect id="path10" x="13.25" y="7.66" fill="#8C8663" width="2.299" height="2.299"/>
		<rect id="upper_connector_top_inset" x="13.25" y="7.66" fill="#B8AF82" width="2.299" height="0.558"/>
		<rect id="upper_connector_bottom_inset" x="13.25" y="9.402" fill="#5E5B43" width="2.299" height="0.558"/>
		<path id="upper_connector_left_inset" fill="#9A916C" d="M13.25,7.66v2.299L13.81,9.4V8.218L13.25,7.66z"/>
		<path id="upper_connector_right_inset" fill="#9A916C" d="M15.548,7.66v2.299L14.99,9.402V8.218L15.548,7.66z"/>
		<rect id="path9" x="20.449" y="7.66" fill="#8C8663" width="2.299" height="2.299"/>
		<rect id="upper_connector_top_inset_1_" x="20.449" y="7.66" fill="#B8AF82" width="2.299" height="0.558"/>
		<rect id="upper_connector_bottom_inset_1_" x="20.449" y="9.402" fill="#5E5B43" width="2.299" height="0.558"/>
		<path id="upper_connector_left_inset_1_" fill="#9A916C" d="M20.449,7.66v2.299L21.008,9.4V8.218L20.449,7.66z"/>
		<path id="upper_connector_right_inset_1_" fill="#9A916C" d="M22.748,7.66v2.299L22.189,9.4V8.218L22.748,7.66z"/>
		<rect id="path8" x="27.649" y="7.66" fill="#8C8663" width="2.301" height="2.299"/>
		<rect id="upper_connector_top_inset_2_" x="27.649" y="7.66" fill="#B8AF82" width="2.301" height="0.558"/>
		<rect id="upper_connector_bottom_inset_2_" x="27.649" y="9.402" fill="#5E5B43" width="2.301" height="0.558"/>
		<path id="upper_connector_left_inset_2_" fill="#9A916C" d="M27.649,7.66v2.299L28.208,9.4V8.218L27.649,7.66z"/>
		<path id="upper_connector_right_inset_2_" fill="#9A916C" d="M29.949,7.66v2.299l-0.561-0.557V8.218L29.949,7.66z"/>
		<rect id="path5" x="13.25" y="14.859" fill="#8C8663" width="2.299" height="2.301"/>
		<rect id="lower_connector_top_inset" x="13.25" y="14.859" fill="#B8AF82" width="2.299" height="0.56"/>
		<rect id="lower_connector_bottom_inset" x="13.25" y="16.602" fill="#5E5B43" width="2.299" height="0.559"/>
		<path id="lower_connector_left_inset" fill="#9A916C" d="M13.25,14.859v2.301l0.56-0.559v-1.184L13.25,14.859z"/>
		<path id="lower_connector_right_inset" fill="#9A916C" d="M15.548,14.859v2.301l-0.561-0.559v-1.184L15.548,14.859z"/>
		<rect id="path4" x="20.449" y="14.859" fill="#8C8663" width="2.299" height="2.301"/>
		<rect id="lower_connector_top_inset_1_" x="20.449" y="14.859" fill="#B8AF82" width="2.299" height="0.56"/>
		<rect id="lower_connector_bottom_inset_1_" x="20.449" y="16.602" fill="#5E5B43" width="2.299" height="0.559"/>
		<path id="lower_connector_left_inset_1_" fill="#9A916C" d="M20.449,14.859v2.301l0.559-0.559v-1.184L20.449,14.859z"/>
		<path id="lower_connector_right_inset_1_" fill="#9A916C" d="M22.748,14.859v2.301l-0.559-0.559v-1.184L22.748,14.859z"/>
		<rect id="path3" x="27.649" y="14.859" fill="#8C8663" width="2.301" height="2.301"/>
		<rect id="lower_connector_top_inset_2_" x="27.649" y="14.859" fill="#B8AF82" width="2.301" height="0.56"/>
		<rect id="lower_connector_bottom_inset_2_" x="27.649" y="16.602" fill="#5E5B43" width="2.301" height="0.559"/>
		<path id="lower_connector_left_inset_2_" fill="#9A916C" d="M27.649,14.859v2.301l0.559-0.559v-1.184L27.649,14.859z"/>
		<path id="lower_connector_right_inset_2_" fill="#9A916C" d="M29.949,14.859v2.301l-0.561-0.559v-1.184L29.949,14.859z"/>
	</g>
	<rect id="slot_2_" x="15.548" y="30.168" fill="#404040" width="12.103" height="2.875"/>
	<polygon fill="#333333" points="27.65,25.086 27.65,33.043 15.549,33.043 15.549,25.086 0.002,25.086 0.002,36.918 43.197,36.918 
		43.197,25.086 	"/>
</g>
</svg>
