<?xml version='1.0' encoding='UTF-8' standalone='no'?>
<!-- Created with Fritzing (http://www.fritzing.org/) -->
<svg xmlns="http://www.w3.org/2000/svg" width="0.4in" x="0in" version="1.2" y="0in"  height="0.6in" viewBox="0 0 400 600" baseProfile="tiny" xmlns:svg="http://www.w3.org/2000/svg">
 <desc>Fritzing breadboard generated by brd2svg</desc>
 <g id="breadboard">
  <g id="icon">
   <path fill="#1F7A34" stroke="none" stroke-width="0" d="M0,0L0,270A30,30 0 0 1 0,330L0,600L400,600L400,0L0,0z"/>
   <g transform="translate(136.097,193.493)">
    <g>
     <path fill="#B3B3B3" d="M127.806,199.125c0,7.625,-6.23611,13.8889,-13.8889,13.8889L13.8889,213.014c-7.63889,0,-13.8889,-6.26389,-13.8889,-13.8889L0,13.8889c0,-7.63889,6.25,-13.8889,13.8889,-13.8889l100.028,0c7.65278,0,13.8889,6.25,13.8889,13.8889L127.806,199.125z"/>
     <path fill="#999999" d="M122.944,193.611c0,7.625,-6.23611,13.8889,-13.8889,13.8889L18.7361,207.5c-7.63889,0,-13.8889,-6.26389,-13.8889,-13.8889L4.84722,26.9028c0,-7.63889,6.25,-13.8889,13.8889,-13.8889l90.3194,0c7.65278,0,13.8889,6.25,13.8889,13.8889L122.944,193.611z"/>
     <path fill="#CCCCCC" d="M122.944,182.958c0,7.625,-6.23611,13.8889,-13.8889,13.8889L18.7361,196.847c-7.63889,0,-13.8889,-6.26389,-13.8889,-13.8889L4.84722,16.25c0,-7.63889,6.25,-13.8889,13.8889,-13.8889l90.3194,0c7.65278,0,13.8889,6.25,13.8889,13.8889L122.944,182.958z"/>
     <path opacity="0.2" d="M4.84722,185.458c0,7.65278,6.25,13.8889,13.8889,13.8889l90.3194,0c7.65278,0,13.8889,-6.23611,13.8889,-13.8889l0,-2.5c0,7.625,-6.23611,13.8889,-13.8889,13.8889L18.7361,196.847c-7.63889,0,-13.8889,-6.26389,-13.8889,-13.8889L4.84722,185.458z"/>
     <path opacity="0.2" fill="#FFFFFF" d="M122.944,19.9583c0,-7.63889,-6.23611,-13.8889,-13.8889,-13.8889L18.7361,6.06944c-7.63889,0,-13.8889,6.25,-13.8889,13.8889L4.84722,16.25c0,-7.63889,6.25,-13.8889,13.8889,-13.8889l90.3194,0c7.65278,0,13.8889,6.25,13.8889,13.8889L122.944,19.9583z"/>
     <circle fill="#1A1A1A" cx="63.9028" cy="160.931" r="12.4444"/>
     <path opacity="0.2" fill="#FFFFFF" d="M127.806,16.25c0,-7.63889,-6.23611,-13.8889,-13.8889,-13.8889L13.8889,2.36111c-7.63889,0,-13.8889,6.25,-13.8889,13.8889L0,13.8889c0,-7.63889,6.25,-13.8889,13.8889,-13.8889l100.028,0c7.65278,0,13.8889,6.25,13.8889,13.8889L127.806,16.25z"/>
     <path opacity="0.2" d="M0,199.125c0,7.625,6.25,13.8889,13.8889,13.8889l100.028,0c7.65278,0,13.8889,-6.26389,13.8889,-13.8889l0,-1.44444c0,7.625,-6.23611,13.8889,-13.8889,13.8889L13.8889,211.569c-7.63889,0,-13.8889,-6.26389,-13.8889,-13.8889L0,199.125z"/>
    </g>
   </g>
  </g>
  <g transform="translate(34.035,534.05)">
   <rect width="31.93" x="0" y="0" fill="#8D8C8C" height="31.9" id="connector0pin"/>
   <rect width="16.4442" x="7.79153" y="7.73544" fill="#8C8663" height="16.4152"/>
   <polygon fill="#B8AF82" points="0,31.9,7.79153,24.1368,7.79153,6.97162,0,0"/>
   <polygon fill="#80795B" points="24.2079,7.76321,7.90264,7.76321,0,0,31.93,0"/>
   <polygon fill="#5E5B43" points="24.2079,24.1368,24.2079,7.76321,31.93,0,31.93,31.9"/>
   <polygon fill="#9A916C" points="0,31.9,7.87486,24.1368,24.2079,24.1368,31.93,31.9"/>
  </g>
  <g transform="translate(34.035,34.05)">
   <rect width="31.93" x="0" y="0" fill="#8D8C8C" height="31.9" id="connector7pin"/>
   <rect width="16.4442" x="7.79153" y="7.73544" fill="#8C8663" height="16.4152"/>
   <polygon fill="#B8AF82" points="0,31.9,7.79153,24.1368,7.79153,6.97162,0,0"/>
   <polygon fill="#80795B" points="24.2079,7.76321,7.90264,7.76321,0,0,31.93,0"/>
   <polygon fill="#5E5B43" points="24.2079,24.1368,24.2079,7.76321,31.93,0,31.93,31.9"/>
   <polygon fill="#9A916C" points="0,31.9,7.87486,24.1368,24.2079,24.1368,31.93,31.9"/>
  </g>
  <g transform="translate(134.035,534.05)">
   <rect width="31.93" x="0" y="0" fill="#8D8C8C" height="31.9" id="connector1pin"/>
   <rect width="16.4442" x="7.79153" y="7.73544" fill="#8C8663" height="16.4152"/>
   <polygon fill="#B8AF82" points="0,31.9,7.79153,24.1368,7.79153,6.97162,0,0"/>
   <polygon fill="#80795B" points="24.2079,7.76321,7.90264,7.76321,0,0,31.93,0"/>
   <polygon fill="#5E5B43" points="24.2079,24.1368,24.2079,7.76321,31.93,0,31.93,31.9"/>
   <polygon fill="#9A916C" points="0,31.9,7.87486,24.1368,24.2079,24.1368,31.93,31.9"/>
  </g>
  <g transform="translate(134.035,34.05)">
   <rect width="31.93" x="0" y="0" fill="#8D8C8C" height="31.9" id="connector6pin"/>
   <rect width="16.4442" x="7.79153" y="7.73544" fill="#8C8663" height="16.4152"/>
   <polygon fill="#B8AF82" points="0,31.9,7.79153,24.1368,7.79153,6.97162,0,0"/>
   <polygon fill="#80795B" points="24.2079,7.76321,7.90264,7.76321,0,0,31.93,0"/>
   <polygon fill="#5E5B43" points="24.2079,24.1368,24.2079,7.76321,31.93,0,31.93,31.9"/>
   <polygon fill="#9A916C" points="0,31.9,7.87486,24.1368,24.2079,24.1368,31.93,31.9"/>
  </g>
  <g transform="translate(234.035,534.05)">
   <rect width="31.93" x="0" y="0" fill="#8D8C8C" height="31.9" id="connector2pin"/>
   <rect width="16.4442" x="7.79153" y="7.73544" fill="#8C8663" height="16.4152"/>
   <polygon fill="#B8AF82" points="0,31.9,7.79153,24.1368,7.79153,6.97162,0,0"/>
   <polygon fill="#80795B" points="24.2079,7.76321,7.90264,7.76321,0,0,31.93,0"/>
   <polygon fill="#5E5B43" points="24.2079,24.1368,24.2079,7.76321,31.93,0,31.93,31.9"/>
   <polygon fill="#9A916C" points="0,31.9,7.87486,24.1368,24.2079,24.1368,31.93,31.9"/>
  </g>
  <g transform="translate(234.035,34.05)">
   <rect width="31.93" x="0" y="0" fill="#8D8C8C" height="31.9" id="connector5pin"/>
   <rect width="16.4442" x="7.79153" y="7.73544" fill="#8C8663" height="16.4152"/>
   <polygon fill="#B8AF82" points="0,31.9,7.79153,24.1368,7.79153,6.97162,0,0"/>
   <polygon fill="#80795B" points="24.2079,7.76321,7.90264,7.76321,0,0,31.93,0"/>
   <polygon fill="#5E5B43" points="24.2079,24.1368,24.2079,7.76321,31.93,0,31.93,31.9"/>
   <polygon fill="#9A916C" points="0,31.9,7.87486,24.1368,24.2079,24.1368,31.93,31.9"/>
  </g>
  <g transform="translate(334.035,534.05)">
   <rect width="31.93" x="0" y="0" fill="#8D8C8C" height="31.9" id="connector3pin"/>
   <rect width="16.4442" x="7.79153" y="7.73544" fill="#8C8663" height="16.4152"/>
   <polygon fill="#B8AF82" points="0,31.9,7.79153,24.1368,7.79153,6.97162,0,0"/>
   <polygon fill="#80795B" points="24.2079,7.76321,7.90264,7.76321,0,0,31.93,0"/>
   <polygon fill="#5E5B43" points="24.2079,24.1368,24.2079,7.76321,31.93,0,31.93,31.9"/>
   <polygon fill="#9A916C" points="0,31.9,7.87486,24.1368,24.2079,24.1368,31.93,31.9"/>
  </g>
  <g transform="translate(334.035,34.05)">
   <rect width="31.93" x="0" y="0" fill="#8D8C8C" height="31.9" id="connector4pin"/>
   <rect width="16.4442" x="7.79153" y="7.73544" fill="#8C8663" height="16.4152"/>
   <polygon fill="#B8AF82" points="0,31.9,7.79153,24.1368,7.79153,6.97162,0,0"/>
   <polygon fill="#80795B" points="24.2079,7.76321,7.90264,7.76321,0,0,31.93,0"/>
   <polygon fill="#5E5B43" points="24.2079,24.1368,24.2079,7.76321,31.93,0,31.93,31.9"/>
   <polygon fill="#9A916C" points="0,31.9,7.87486,24.1368,24.2079,24.1368,31.93,31.9"/>
  </g>
 </g>
</svg>
