<?xml version="1.0" encoding="utf-8"?>
<!-- Generator: Adobe Illustrator 15.1.0, SVG Export Plug-In . SVG Version: 6.00 Build 0)  -->
<!DOCTYPE svg PUBLIC "-//W3C//DTD SVG 1.1//EN" "http://www.w3.org/Graphics/SVG/1.1/DTD/svg11.dtd">
<svg version="1.1" id="Ebene_1" xmlns:svg="http://www.w3.org/2000/svg"
	 xmlns="http://www.w3.org/2000/svg" xmlns:xlink="http://www.w3.org/1999/xlink" x="0px" y="0px" width="42.021px"
	 height="75.02px" viewBox="0 0 42.021 75.02" enable-background="new 0 0 42.021 75.02" xml:space="preserve">
<g id="breadboard">
	<rect x="40.854" y="41.753" fill="#DFDEC8" width="1.168" height="12.762"/>
	<rect x="0" y="41.753" fill="#DFDEC8" width="1.168" height="12.762"/>
	<rect x="40.854" y="54.515" fill="#6C6B5D" width="1.168" height="3.487"/>
	<rect x="0" y="54.515" fill="#6C6B5D" width="1.168" height="3.487"/>
	<g>
		<path fill="#6C6B5D" d="M40.854,68.144c0,1.102-0.899,2-2,2H3.169c-1.101,0-2-0.898-2-2v-38.52c0-1.102,0.899-2,2-2h35.686
			c1.101,0,2,0.898,2,2V68.144z"/>
	</g>
	<g>
		<path fill="#A1A18C" d="M40.854,67.394c0,1.102-0.899,2-2,2H3.169c-1.101,0-2-0.898-2-2v-38.52c0-1.102,0.899-2,2-2h35.686
			c1.101,0,2,0.898,2,2V67.394z"/>
	</g>
	<circle id="connector3pin" fill="none" stroke="#9A916C" stroke-width="0.254" cx="35.411" cy="34.484" r="2.344"/>
	<circle id="connector0pin" fill="none" stroke="#9A916C" stroke-width="0.254" cx="6.612" cy="34.484" r="2.344"/>
	<circle id="connector1pin" fill="none" stroke="#9A916C" stroke-width="0.254" cx="6.612" cy="63.284" r="2.344"/>
	<circle id="connector2pin" fill="none" stroke="#9A916C" stroke-width="0.254" cx="35.411" cy="63.284" r="2.344"/>
	<path fill="#333333" d="M38.814,47.319H3.217c0,0-1.078,2.51-0.747,6.694c0.111,1.418-0.098,3.756-0.151,5.813
		c-0.055,2.104,0.042,3.933,0.004,5.75C2.288,67.223,4.356,68.7,4.356,68.7h33.333c0,0,2.178-0.015,2.178-3.188
		c0-1.527-0.344-3.759-0.438-7.075c-0.025-0.893,0.104-5.464,0.133-6.397C39.651,49.233,38.814,47.319,38.814,47.319z"/>
	<path fill="#1A1A1A" d="M3.458,54.225c0.106,1.343-0.092,3.557-0.144,5.504c-0.052,1.992,0.04,3.725,0.004,5.445
		c-0.032,1.56,1.926,2.959,1.926,2.959h31.563c0,0,2.062-0.014,2.062-3.019c0-1.445-0.325-3.56-0.414-6.698
		c-0.022-0.847,0.101-5.174,0.126-6.06l-1.178,8.967c0.083,2.936,0.304,1.976,0.304,3.327c0,2.809-1.927,2.82-1.927,2.82H6.279
		c0,0-1.83-1.309-1.8-2.766c0.034-1.609-0.101-1.365-0.053-3.229L3.458,54.225z"/>
	<g>
		<path fill="#6C6B5D" d="M40.854,49.45c0,1.1-0.899,2-2,2H3.169c-1.101,0-2-0.9-2-2V10.93c0-1.1,0.899-2,2-2h35.686
			c1.101,0,2,0.9,2,2V49.45z"/>
	</g>
	<g>
		<path fill="#D7D6BA" d="M40.854,48.779c0,1.102-0.899,2-2,2H3.169c-1.101,0-2-0.898-2-2V10.26c0-1.1,0.899-2,2-2h35.686
			c1.101,0,2,0.9,2,2V48.779z"/>
	</g>
	<g>
		<path opacity="0.2" enable-background="new    " d="M1.169,67.62c0,1.101,0.899,2,2,2h35.686c1.101,0,2-0.899,2-2v-0.228
			c0,1.102-0.899,2-2,2H3.169c-1.101,0-2-0.898-2-2V67.62z"/>
		<path opacity="0.2" enable-background="new    " d="M39.866,65.74c0,3.174-2.178,3.188-2.178,3.188H4.356
			c0,0-2.067-1.479-2.034-3.125v-0.227C2.288,67.223,4.356,68.7,4.356,68.7h33.333c0,0,2.178-0.015,2.178-3.188L39.866,65.74
			L39.866,65.74z"/>
		<path opacity="0.2" fill="#FFFFFF" enable-background="new    " d="M40.854,10.487c0-1.1-0.899-2-2-2H3.169c-1.101,0-2,0.9-2,2
			V10.26c0-1.1,0.899-2,2-2h35.686c1.101,0,2,0.9,2,2V10.487z"/>
		<path opacity="0.2" enable-background="new    " d="M1.169,49.005c0,1.101,0.899,2,2,2h35.686c1.101,0,2-0.899,2-2v-0.228
			c0,1.102-0.899,2-2,2H3.169c-1.101,0-2-0.898-2-2V49.005z"/>
	</g>
	<rect x="11.651" y="52.04" fill="#CCCCCC" width="18.72" height="22.979"/>
	<path fill="#E6E6E6" d="M29.348,0H12.673c-0.377,0.017-0.728,0.051-1.021,0.137V59.04H30.37V0.136
		C30.074,0.051,29.725,0.016,29.348,0z"/>
	<path fill="#CCCCCC" d="M30.37,0.136V59.04h1.156V1.908C31.527,0.822,31.084,0.344,30.37,0.136z"/>
	<path fill="#F2F2F2" d="M10.494,1.908V59.04h1.156V0.136C10.937,0.344,10.494,0.822,10.494,1.908z"/>
	<rect x="30.37" y="59.04" fill="#B3B3B3" width="1.156" height="15.979"/>
	<rect x="10.494" y="59.04" fill="#E6E6E6" width="1.156" height="15.979"/>

<g>
	<g>
		<path fill="#4D4D4D" d="M15.93,21.843c-0.196,0-0.389-0.067-0.542-0.194c-0.197-0.162-0.312-0.402-0.312-0.659v-5.826
			c0-0.443,0.34-0.813,0.782-0.851l9.377-0.787v-2.894c0-0.021,0-0.054-0.069-0.123c-0.295-0.285-1.053-0.45-1.435-0.438
			l-7.735,0.615c-0.468,0.037-0.881-0.313-0.918-0.783s0.314-0.88,0.783-0.917l7.776-0.616c0.719-0.022,1.979,0.203,2.715,0.916
			c0.385,0.374,0.589,0.839,0.589,1.347v3.677c0,0.444-0.34,0.813-0.781,0.851l-4.402,0.369l4.868,3.945
			c0.365,0.296,0.422,0.833,0.125,1.199c-0.296,0.366-0.832,0.423-1.2,0.125l-4.437-3.596v2.934c0,0.408-0.288,0.758-0.688,0.836
			l-4.331,0.854C16.04,21.838,15.985,21.843,15.93,21.843z M16.783,15.948v4.006l2.626-0.518v-3.708L16.783,15.948z"/>
	</g>
	<circle fill="#4D4D4D" cx="26.09" cy="22.236" r="0.781"/>
</g>
<g opacity="0.48">
	<path fill="#FFFFFF" d="M30.37,0.136C30.074,0.051,29.725,0.016,29.348,0H12.673c-0.377,0.017-0.728,0.051-1.021,0.137v0.227
		c0.294-0.086,0.645-0.119,1.021-0.137h16.676c0.377,0.017,0.727,0.051,1.021,0.136c0.714,0.208,1.156,0.687,1.156,1.772V1.908
		C31.527,0.822,31.084,0.344,30.37,0.136z"/>
	<path fill="#FFFFFF" d="M10.494,1.908v0.227c0-1.087,0.442-1.564,1.156-1.772V0.136C10.937,0.344,10.494,0.822,10.494,1.908z"/>
</g>
</g>
</svg>
