<?xml version="1.0" encoding="utf-8"?>
<!-- Generator: Adobe Illustrator 15.1.0, SVG Export Plug-In . SVG Version: 6.00 Build 0)  -->
<!DOCTYPE svg PUBLIC "-//W3C//DTD SVG 1.1//EN" "http://www.w3.org/Graphics/SVG/1.1/DTD/svg11.dtd">
<svg version="1.1" id="Ebene_1" xmlns:svg="http://www.w3.org/2000/svg"
	 xmlns="http://www.w3.org/2000/svg" xmlns:xlink="http://www.w3.org/1999/xlink" x="0px" y="0px" width="45.936px"
	 height="92.601px" viewBox="0 0 45.936 92.601" enable-background="new 0 0 45.936 92.601" xml:space="preserve">
<g id="breadboard">
	<circle id="connector1pin" fill="none" cx="12.168" cy="90.755" r="1.908"/>
	<circle id="connector0pin" fill="none" cx="33.768" cy="90.755" r="1.89"/>

	<g>
		<g id="">
			<rect x="26.225" y="83.919" fill="none" width="2.692" height="0.898"/>
		</g>
		<g id="">
			<rect x="17.246" y="83.919" fill="none" width="2.692" height="0.898"/>
		</g>
		<g id="connector0leg">
			<path fill="#8C8C8C" d="M12.167,92.601c-0.829,0-1.5-0.672-1.5-1.5v-2.691c0-0.828,0.671-1.5,1.5-1.5s1.5,0.672,1.5,1.5v2.691
				C13.667,91.929,12.996,92.601,12.167,92.601z"/>
		</g>
		<g id="connector1leg">
			<path fill="#8C8C8C" d="M33.768,92.601c-0.828,0-1.5-0.672-1.5-1.5v-2.691c0-0.828,0.672-1.5,1.5-1.5s1.5,0.672,1.5,1.5v2.691
				C35.268,91.929,34.596,92.601,33.768,92.601z"/>
		</g>
		<g>
			<rect x="10.822" y="68.657" fill="#8C8C8C" width="2.692" height="19.752"/>
		</g>
		<g>
			<rect x="32.422" y="68.657" fill="#8C8C8C" width="2.692" height="19.752"/>
		</g>
		<g>
			<ellipse fill="#0D0033" cx="23.041" cy="68.656" rx="22.973" ry="16.081"/>
		</g>
		<g>
			<rect x="0.064" y="65.376" fill="#0D0033" width="45.931" height="3.281"/>
		</g>
		<g>
			<ellipse fill="#100040" cx="23.041" cy="66.051" rx="22.973" ry="16.083"/>
		</g>
		<g>
			<ellipse fill="#0D0033" cx="23.041" cy="54.874" rx="22.973" ry="16.082"/>
		</g>
		<g>
			<rect x="0.064" y="16.518" fill="#0D0033" width="45.947" height="38.358"/>
		</g>
		<g>
			<ellipse fill="#0D0033" cx="23.041" cy="16.517" rx="22.973" ry="16.082"/>
		</g>
		<g>
			<ellipse fill="#100040" cx="23.041" cy="15.092" rx="21.281" ry="14.898"/>
		</g>
		<g>
			<ellipse fill="#B2B2B2" cx="23.041" cy="14.23" rx="15.595" ry="10.919"/>
		</g>
		<g>
			<path fill="#D2EEFF" d="M4.552,6.972c-2.818,2.667-4.488,5.971-4.488,9.546v8.884h3.073v-0.857l0.037-0.32c0,0,0,0.166,0-0.434
				c0-1.075,0.512-1.767,1.377-2.111c0.834-0.329,0.771-6.211,0.771-6.211L4.552,6.972z"/>
		</g>
		<g>
			<path fill="#D2EEFF" d="M7.445,14.231c0-1.937,0.726-3.751,1.987-5.327l-4.88-1.941c-1.771,2.17-2.793,4.678-2.793,7.356
				c0,2.677,1.025,5.186,2.793,7.358l4.994-1.988C8.217,18.085,7.445,16.221,7.445,14.231z"/>
		</g>
		<g>
			<rect x="0.064" y="24.224" fill="#D2EEFF" width="3.11" height="30.652"/>
		</g>
		<g>
			<rect x="0.064" y="44.128" fill="#D2EEFF" width="3.11" height="5.291"/>
		</g>
		<g>
			<path fill="#D2EEFF" d="M0.064,66.054v2.6c0,2.945,1.134,5.699,3.11,8.076v-2.602V60.577v-2.6
				C1.198,60.359,0.064,63.111,0.064,66.054z"/>
		</g>
		<g>
			<path fill="#D2EEFF" d="M3.174,46.802c-1.976,2.373-3.11,5.127-3.11,8.072s1.134,5.695,3.11,8.072V46.802z"/>
		</g>
		<g>
			<path fill="#D2EEFF" d="M3.174,75.476c0,0,0-0.594,0-1.348c0-0.762,0.164-3.377,0.419-4.543c0.424-1.926,1.31-3.252,1.31-5.285
				c0-0.686-0.39-1.65-0.971-2.234c-0.58-0.578-0.77-1.48-0.77-2.426c0-0.947,0-2.15,0-2.15l-1.332,0.043l0.145,16.572L3.174,75.476
				z"/>
		</g>
		<g opacity="0.35" enable-background="new    ">
			<path d="M23.041,3.827c8.49,0,15.378,4.754,15.577,10.662c0.005-0.087,0.024-0.169,0.024-0.258
				c0-6.029-6.984-10.919-15.597-10.919c-8.61,0-15.592,4.89-15.592,10.919c0,0.088,0.015,0.17,0.02,0.258
				C7.659,8.581,14.551,3.827,23.041,3.827z"/>
		</g>
		<g opacity="0.35" enable-background="new    ">
			<path d="M29.75,32.773v6.719v19.334c0,0,0,9.908,0,10.307c0,0.393-0.132,0.719-0.289,1.025c-0.188,0.359-0.619,0.912-0.619,0.912
				c6.117-1.309,11.504-4.846,14.277-8.809c0.191-0.244,0.391-0.766,0.462-0.99c0.07-0.23,0.093-0.457,0.093-0.457v-1.988V47.81
				V24.456C40.905,28.423,35.868,31.468,29.75,32.773z"/>
		</g>
		<g opacity="0.35" enable-background="new    ">
			<path d="M43.321,71.624c-0.213-0.572-0.833-1.297-0.833-1.297c-2.774,3.963-7.61,6.08-13.733,7.383c0,0,0.553,0.932,0.791,1.73
				c0.231,0.791,0.205,1.992,0.205,1.992v2.605c6.12-1.307,11.158-4.355,13.928-8.322c0,0,0-1.809,0-2.283
				C43.681,72.898,43.505,72.099,43.321,71.624z"/>
		</g>
		<g opacity="0.2" enable-background="new    ">
			<path fill="#FFFFFF" d="M22.009,76.509c-0.04-0.555-0.149-1.043-0.29-1.463c-9.758-0.43-17.692-5.531-19.305-12.143
				c-0.31,0.246-0.665,0.58-0.878,0.959c-0.171,0.313-0.327,0.777-0.457,1.213c1.561,7.252,10.244,12.85,20.913,13.195
				C22.036,77.784,22.055,77.197,22.009,76.509z"/>
		</g>
		<g opacity="0.2" enable-background="new    ">
			<path fill="#FFFFFF" d="M31.602,28.144c0.019-0.355-0.259-0.598-0.484-0.695c-0.238-0.102-0.63-0.262-1.369-0.066h-0.063
				c-2.082,0.518-4.311,0.814-6.645,0.814c-11.017,0-19.952-6.254-19.952-13.965c0-0.218,0.034-0.431,0.047-0.645
				c-0.001-0.021-0.021-0.031-0.021-0.054c0-0.347-0.134-0.791-0.426-0.838c-0.336-0.056-0.497,0.219-0.663,0.565
				c-0.083,0.173-0.144,0.417-0.19,0.702C1.832,14,1.823,14.038,1.82,14.073c-0.006,0.041-0.007,0.087-0.012,0.126
				c-0.032,0.297-0.052,0.592-0.052,0.893c0,8.229,9.528,14.898,21.281,14.898c2.949,0,5.732-0.451,8.281-1.211
				C31.563,28.656,31.589,28.45,31.602,28.144z"/>
		</g>
		<g>
			<path fill="#FFFFFF" d="M1.537,63.863c-0.172,0.313-0.326,0.777-0.458,1.213c0.39,1.803,1.22,3.504,2.412,5.051
				c0.033-0.205,0.065-0.385,0.101-0.543c0.207-0.945,0.524-1.742,0.794-2.545c-0.931-1.287-1.617-2.674-1.97-4.135
				C2.104,63.146,1.752,63.488,1.537,63.863z"/>
		</g>
		<g>
			<path fill="#FFFFFF" d="M3.091,14.231c0-0.218,0.034-0.431,0.046-0.646c-0.004-0.022-0.022-0.031-0.022-0.055
				c0-0.346-0.136-0.792-0.427-0.839c-0.333-0.056-0.496,0.219-0.661,0.565c-0.084,0.174-0.145,0.417-0.189,0.701
				c-0.006,0.039-0.016,0.076-0.018,0.112c-0.007,0.041-0.009,0.087-0.012,0.126c-0.032,0.297-0.051,0.593-0.051,0.892
				c0,2.463,0.87,4.776,2.377,6.819c0.129-0.083,0.261-0.169,0.417-0.23l1.213-0.485C4.075,19.144,3.091,16.771,3.091,14.231z"/>
		</g>
	</g>
</g>
</svg>
