<?xml version="1.0" encoding="UTF-8" standalone="no"?> <svg xmlns:svg="http://www.w3.org/2000/svg" xmlns="http://www.w3.org/2000/svg" version="1.2" baseProfile="tiny" x="0in" y="0in" width="0.495in" height="2.734in" viewBox="0 0 49500 273400" ><title>DB37M.fp</title><desc>Geda footprint file 'DB37M.fp' converted by Fritzing</desc><metadata xmlns:fz='http://fritzing.org/gedametadata/1.0/' xmlns:rdf='http://www.w3.org/1999/02/22-rdf-syntax-ns#'><rdf:RDF><rdf:Description rdf:about=''><fz:attr name='geda filename'>DB37M.fp</fz:attr>
<fz:attr name='fritzing version'>0.4.0b.06.21.4282</fz:attr>
<fz:attr name='conversion date'>27/06/2010 07:15:09</fz:attr>
<fz:comment>Gehaeuse (schmaler Kasten incl. Bohrungen)</fz:comment>
<fz:comment>Gehaeuse (aeusserer Kasten)</fz:comment>
<fz:comment>This part of the connector normally hangs off the circuit board,</fz:comment>
<fz:comment>so it is confusing to actually mark it on the silkscreen</fz:comment>
<fz:comment>define(`X1', `eval(BASEX-PANEL_DISTANCE-260)')</fz:comment>
<fz:comment>define(`Y1', `eval(PY1-100)')</fz:comment>
<fz:comment>define(`X2', `eval(BASEX-PANEL_DISTANCE)')</fz:comment>
<fz:comment>define(`Y2', `eval(PY2+100)')</fz:comment>
<fz:comment>ElementLine(X1 Y1 X2 Y1 20)</fz:comment>
<fz:comment>ElementLine(X2 Y1 X2 Y2 10)</fz:comment>
<fz:comment>ElementLine(X2 Y2 X1 Y2 20)</fz:comment>
<fz:comment>ElementLine(X1 Y2 X1 Y1 20)</fz:comment>
<fz:comment>Gehaeuse (innerer Kasten)</fz:comment>
<fz:comment>Pins</fz:comment>
<fz:comment>First row</fz:comment>
<fz:comment>Last pin in first row</fz:comment>
<fz:comment>Second row</fz:comment>
<fz:comment>Plazierungsmarkierung == PIN 1</fz:comment>
<fz:comment>Befestigungsbohrung</fz:comment>
<fz:attr name='dist-license'>GPL</fz:attr>
<fz:attr name='use-license'>unlimited</fz:attr>
<fz:attr name='author'>gEDA project</fz:attr>
<fz:attr name='license-url'>http://www.gnu.org/licenses/gpl.html</fz:attr>
</rdf:Description></rdf:RDF></metadata><g id="copper0">
 <g id="copper1">
  <circle fill="none" cx="42600" cy="39500" connectorname="1" stroke="#ff9400" r="2375" id="connector0pin" stroke-width="1250"/>
  <circle fill="none" cx="42600" cy="50300" connectorname="2" stroke="#ff9400" r="2375" id="connector1pin" stroke-width="1250"/>
  <circle fill="none" cx="42600" cy="61100" connectorname="3" stroke="#ff9400" r="2375" id="connector2pin" stroke-width="1250"/>
  <circle fill="none" cx="42600" cy="71900" connectorname="4" stroke="#ff9400" r="2375" id="connector3pin" stroke-width="1250"/>
  <circle fill="none" cx="42600" cy="82700" connectorname="5" stroke="#ff9400" r="2375" id="connector4pin" stroke-width="1250"/>
  <circle fill="none" cx="42600" cy="93500" connectorname="6" stroke="#ff9400" r="2375" id="connector5pin" stroke-width="1250"/>
  <circle fill="none" cx="42600" cy="104300" connectorname="7" stroke="#ff9400" r="2375" id="connector6pin" stroke-width="1250"/>
  <circle fill="none" cx="42600" cy="115100" connectorname="8" stroke="#ff9400" r="2375" id="connector7pin" stroke-width="1250"/>
  <circle fill="none" cx="42600" cy="125900" connectorname="9" stroke="#ff9400" r="2375" id="connector8pin" stroke-width="1250"/>
  <circle fill="none" cx="42600" cy="136700" connectorname="10" stroke="#ff9400" r="2375" id="connector9pin" stroke-width="1250"/>
  <circle fill="none" cx="42600" cy="147500" connectorname="11" stroke="#ff9400" r="2375" id="connector10pin" stroke-width="1250"/>
  <circle fill="none" cx="42600" cy="158300" connectorname="12" stroke="#ff9400" r="2375" id="connector11pin" stroke-width="1250"/>
  <circle fill="none" cx="42600" cy="169100" connectorname="13" stroke="#ff9400" r="2375" id="connector12pin" stroke-width="1250"/>
  <circle fill="none" cx="42600" cy="179900" connectorname="14" stroke="#ff9400" r="2375" id="connector13pin" stroke-width="1250"/>
  <circle fill="none" cx="42600" cy="190700" connectorname="15" stroke="#ff9400" r="2375" id="connector14pin" stroke-width="1250"/>
  <circle fill="none" cx="42600" cy="201500" connectorname="16" stroke="#ff9400" r="2375" id="connector15pin" stroke-width="1250"/>
  <circle fill="none" cx="42600" cy="212300" connectorname="17" stroke="#ff9400" r="2375" id="connector16pin" stroke-width="1250"/>
  <circle fill="none" cx="42600" cy="223100" connectorname="18" stroke="#ff9400" r="2375" id="connector17pin" stroke-width="1250"/>
  <circle fill="none" cx="42600" cy="233900" connectorname="19" stroke="#ff9400" r="2375" id="connector18pin" stroke-width="1250"/>
  <circle fill="none" cx="31400" cy="44900" connectorname="20" stroke="#ff9400" r="2375" id="connector19pin" stroke-width="1250"/>
  <circle fill="none" cx="31400" cy="55700" connectorname="21" stroke="#ff9400" r="2375" id="connector20pin" stroke-width="1250"/>
  <circle fill="none" cx="31400" cy="66500" connectorname="22" stroke="#ff9400" r="2375" id="connector21pin" stroke-width="1250"/>
  <circle fill="none" cx="31400" cy="77300" connectorname="23" stroke="#ff9400" r="2375" id="connector22pin" stroke-width="1250"/>
  <circle fill="none" cx="31400" cy="88100" connectorname="24" stroke="#ff9400" r="2375" id="connector23pin" stroke-width="1250"/>
  <circle fill="none" cx="31400" cy="98900" connectorname="25" stroke="#ff9400" r="2375" id="connector24pin" stroke-width="1250"/>
  <circle fill="none" cx="31400" cy="109700" connectorname="26" stroke="#ff9400" r="2375" id="connector25pin" stroke-width="1250"/>
  <circle fill="none" cx="31400" cy="120500" connectorname="27" stroke="#ff9400" r="2375" id="connector26pin" stroke-width="1250"/>
  <circle fill="none" cx="31400" cy="131300" connectorname="28" stroke="#ff9400" r="2375" id="connector27pin" stroke-width="1250"/>
  <circle fill="none" cx="31400" cy="142100" connectorname="29" stroke="#ff9400" r="2375" id="connector28pin" stroke-width="1250"/>
  <circle fill="none" cx="31400" cy="152900" connectorname="30" stroke="#ff9400" r="2375" id="connector29pin" stroke-width="1250"/>
  <circle fill="none" cx="31400" cy="163700" connectorname="31" stroke="#ff9400" r="2375" id="connector30pin" stroke-width="1250"/>
  <circle fill="none" cx="31400" cy="174500" connectorname="32" stroke="#ff9400" r="2375" id="connector31pin" stroke-width="1250"/>
  <circle fill="none" cx="31400" cy="185300" connectorname="33" stroke="#ff9400" r="2375" id="connector32pin" stroke-width="1250"/>
  <circle fill="none" cx="31400" cy="196100" connectorname="34" stroke="#ff9400" r="2375" id="connector33pin" stroke-width="1250"/>
  <circle fill="none" cx="31400" cy="206900" connectorname="35" stroke="#ff9400" r="2375" id="connector34pin" stroke-width="1250"/>
  <circle fill="none" cx="31400" cy="217700" connectorname="36" stroke="#ff9400" r="2375" id="connector35pin" stroke-width="1250"/>
  <circle fill="none" cx="31400" cy="228500" connectorname="37" stroke="#ff9400" r="2375" id="connector36pin" stroke-width="1250"/>
  <circle fill="none" cx="37000" cy="12500" connectorname="C1" stroke="#ff9400" r="9375" id="nonconn0" stroke-width="6250"/>
  <circle fill="none" cx="37000" cy="260900" connectorname="C2" stroke="#ff9400" r="9375" id="nonconn1" stroke-width="6250"/>
 </g>
</g>
<g id="silkscreen">
 <line fill="none" stroke="white" y1="500" x1="500" y2="500" stroke-width="1000" x2="3500"/>
 <line fill="none" stroke="white" y1="500" x1="3500" y2="272900" stroke-width="1000" x2="3500"/>
 <line fill="none" stroke="white" y1="272900" x1="3500" y2="272900" stroke-width="1000" x2="500"/>
 <line fill="none" stroke="white" y1="272900" x1="500" y2="500" stroke-width="1000" x2="500"/>
 <line fill="none" stroke="white" y1="6500" x1="500" y2="6500" stroke-width="1000" x2="3500"/>
 <line fill="none" stroke="white" y1="18500" x1="500" y2="18500" stroke-width="1000" x2="3500"/>
 <line fill="none" stroke="white" y1="266900" x1="500" y2="266900" stroke-width="1000" x2="3500"/>
 <line fill="none" stroke="white" y1="254900" x1="500" y2="254900" stroke-width="1000" x2="3500"/>
 <line fill="none" stroke="white" y1="23500" x1="3500" y2="23500" stroke-width="2000" x2="14000"/>
 <line fill="none" stroke="white" y1="23500" x1="14000" y2="249900" stroke-width="2000" x2="14000"/>
 <line fill="none" stroke="white" y1="249900" x1="14000" y2="249900" stroke-width="2000" x2="3500"/>
 <line fill="none" stroke="white" y1="249900" x1="3500" y2="23500" stroke-width="1000" x2="3500"/>
 <line fill="none" stroke="white" y1="39500" x1="38600" y2="39500" stroke-width="2000" x2="14000"/>
 <line fill="none" stroke="white" y1="50300" x1="38600" y2="50300" stroke-width="2000" x2="14000"/>
 <line fill="none" stroke="white" y1="61100" x1="38600" y2="61100" stroke-width="2000" x2="14000"/>
 <line fill="none" stroke="white" y1="71900" x1="38600" y2="71900" stroke-width="2000" x2="14000"/>
 <line fill="none" stroke="white" y1="82700" x1="38600" y2="82700" stroke-width="2000" x2="14000"/>
 <line fill="none" stroke="white" y1="93500" x1="38600" y2="93500" stroke-width="2000" x2="14000"/>
 <line fill="none" stroke="white" y1="104300" x1="38600" y2="104300" stroke-width="2000" x2="14000"/>
 <line fill="none" stroke="white" y1="115100" x1="38600" y2="115100" stroke-width="2000" x2="14000"/>
 <line fill="none" stroke="white" y1="125900" x1="38600" y2="125900" stroke-width="2000" x2="14000"/>
 <line fill="none" stroke="white" y1="136700" x1="38600" y2="136700" stroke-width="2000" x2="14000"/>
 <line fill="none" stroke="white" y1="147500" x1="38600" y2="147500" stroke-width="2000" x2="14000"/>
 <line fill="none" stroke="white" y1="158300" x1="38600" y2="158300" stroke-width="2000" x2="14000"/>
 <line fill="none" stroke="white" y1="169100" x1="38600" y2="169100" stroke-width="2000" x2="14000"/>
 <line fill="none" stroke="white" y1="179900" x1="38600" y2="179900" stroke-width="2000" x2="14000"/>
 <line fill="none" stroke="white" y1="190700" x1="38600" y2="190700" stroke-width="2000" x2="14000"/>
 <line fill="none" stroke="white" y1="201500" x1="38600" y2="201500" stroke-width="2000" x2="14000"/>
 <line fill="none" stroke="white" y1="212300" x1="38600" y2="212300" stroke-width="2000" x2="14000"/>
 <line fill="none" stroke="white" y1="223100" x1="38600" y2="223100" stroke-width="2000" x2="14000"/>
 <line fill="none" stroke="white" y1="233900" x1="38600" y2="233900" stroke-width="2000" x2="14000"/>
 <line fill="none" stroke="white" y1="44900" x1="27400" y2="44900" stroke-width="2000" x2="14000"/>
 <line fill="none" stroke="white" y1="55700" x1="27400" y2="55700" stroke-width="2000" x2="14000"/>
 <line fill="none" stroke="white" y1="66500" x1="27400" y2="66500" stroke-width="2000" x2="14000"/>
 <line fill="none" stroke="white" y1="77300" x1="27400" y2="77300" stroke-width="2000" x2="14000"/>
 <line fill="none" stroke="white" y1="88100" x1="27400" y2="88100" stroke-width="2000" x2="14000"/>
 <line fill="none" stroke="white" y1="98900" x1="27400" y2="98900" stroke-width="2000" x2="14000"/>
 <line fill="none" stroke="white" y1="109700" x1="27400" y2="109700" stroke-width="2000" x2="14000"/>
 <line fill="none" stroke="white" y1="120500" x1="27400" y2="120500" stroke-width="2000" x2="14000"/>
 <line fill="none" stroke="white" y1="131300" x1="27400" y2="131300" stroke-width="2000" x2="14000"/>
 <line fill="none" stroke="white" y1="142100" x1="27400" y2="142100" stroke-width="2000" x2="14000"/>
 <line fill="none" stroke="white" y1="152900" x1="27400" y2="152900" stroke-width="2000" x2="14000"/>
 <line fill="none" stroke="white" y1="163700" x1="27400" y2="163700" stroke-width="2000" x2="14000"/>
 <line fill="none" stroke="white" y1="174500" x1="27400" y2="174500" stroke-width="2000" x2="14000"/>
 <line fill="none" stroke="white" y1="185300" x1="27400" y2="185300" stroke-width="2000" x2="14000"/>
 <line fill="none" stroke="white" y1="196100" x1="27400" y2="196100" stroke-width="2000" x2="14000"/>
 <line fill="none" stroke="white" y1="206900" x1="27400" y2="206900" stroke-width="2000" x2="14000"/>
 <line fill="none" stroke="white" y1="217700" x1="27400" y2="217700" stroke-width="2000" x2="14000"/>
 <line fill="none" stroke="white" y1="228500" x1="27400" y2="228500" stroke-width="2000" x2="14000"/>
</g>
</svg>