<?xml version="1.0" encoding="UTF-8" standalone="no"?>
<svg xmlns:svg="http://www.w3.org/2000/svg" xmlns="http://www.w3.org/2000/svg" version="1.2" baseProfile="tiny" x="0in" y="0in" width="1.0392in" height="0.9961in" viewBox="0 0 10392 9961" >
<title>SparkFun.mod</title>
<desc>Kicad module 'SparkFun-ID-12_SMD' from file 'SparkFun.mod' converted by Fritzing</desc>
<metadata xmlns:fz='http://fritzing.org/kicadmetadata/1.0/' xmlns:rdf='http://www.w3.org/1999/02/22-rdf-syntax-ns#'>
<rdf:RDF><rdf:Description rdf:about=''>
<fz:attr name='kicad filename'>SparkFun.mod</fz:attr>
<fz:attr name='kicad module'>SparkFun-ID-12_SMD</fz:attr>
<fz:attr name='fritzing version'>0.4.1b.07.04.4318</fz:attr>
<fz:attr name='conversion date'>17/07/2010 17:16:01</fz:attr>
<fz:attr name='dist-license'>GPL</fz:attr>
<fz:attr name='use-license'>unlimited</fz:attr>
<fz:attr name='author'>KICAD project</fz:attr>
<fz:attr name='license-url'>http://www.gnu.org/licenses/gpl.html</fz:attr>
<fz:comment>ID12 FOOTPRINT (WORKS WITH ID2, ID12, AND ID20)</fz:comment>
<fz:attr name='keyword'>ID12</fz:attr>
<fz:attr name='keyword'>FOOTPRINT</fz:attr>
<fz:attr name='keyword'>(WORKS</fz:attr>
<fz:attr name='keyword'>WITH</fz:attr>
<fz:attr name='keyword'>ID2,</fz:attr>
<fz:attr name='keyword'>ID12,</fz:attr>
<fz:attr name='keyword'>AND</fz:attr>
<fz:attr name='keyword'>ID20)</fz:attr>
</rdf:Description></rdf:RDF></metadata><g id="copper1">
 <rect width="334" x="6247" y="8133.5" fill="#ffbf00" connectorname="1" height="669" id="connector0pad" stroke-width="0"/>
 <rect width="334" x="5459" y="6952.5" fill="#ffbf00" connectorname="2" height="669" id="connector1pad" stroke-width="0"/>
 <rect width="334" x="4672" y="8133.5" fill="#ffbf00" connectorname="3" height="669" id="connector2pad" stroke-width="0"/>
 <rect width="334" x="3884" y="6952.5" fill="#ffbf00" connectorname="4" height="669" id="connector3pad" stroke-width="0"/>
 <rect width="334" x="3097" y="8133.5" fill="#ffbf00" connectorname="5" height="669" id="connector4pad" stroke-width="0"/>
 <rect width="334" x="3097" y="2223.5" fill="#ffbf00" connectorname="6" height="669" id="connector5pad" stroke-width="0"/>
 <rect width="334" x="3884" y="1042.5" fill="#ffbf00" connectorname="7" height="669" id="connector6pad" stroke-width="0"/>
 <rect width="334" x="4672" y="2223.5" fill="#ffbf00" connectorname="8" height="669" id="connector7pad" stroke-width="0"/>
 <rect width="334" x="5459" y="1042.5" fill="#ffbf00" connectorname="9" height="669" id="connector8pad" stroke-width="0"/>
 <rect width="334" x="6247" y="2223.5" fill="#ffbf00" connectorname="10" height="669" id="connector9pad" stroke-width="0"/>
 <rect width="334" x="7821" y="2223.5" fill="#ffbf00" connectorname="11" height="669" id="connector10pad" stroke-width="0"/>
 <rect width="334" x="7034" y="1042.5" fill="#ffbf00" connectorname="NC" height="669" id="connector11pad" stroke-width="0"/>
</g>
<g id="silkscreen">
 <line fill="none" stroke="white" y1="2068" x1="4741" y2="2068" stroke-width="26" x2="4941"/>
 <line fill="none" stroke="white" y1="2068" x1="4941" y2="1868" stroke-width="26" x2="4941"/>
 <line fill="none" stroke="white" y1="1868" x1="4741" y2="1868" stroke-width="26" x2="4941"/>
 <line fill="none" stroke="white" y1="2068" x1="4741" y2="1868" stroke-width="26" x2="4741"/>
 <line fill="none" stroke="white" y1="2068" x1="3954" y2="2068" stroke-width="26" x2="4154"/>
 <line fill="none" stroke="white" y1="2068" x1="4154" y2="1868" stroke-width="26" x2="4154"/>
 <line fill="none" stroke="white" y1="1868" x1="3954" y2="1868" stroke-width="26" x2="4154"/>
 <line fill="none" stroke="white" y1="2068" x1="3954" y2="1868" stroke-width="26" x2="3954"/>
 <line fill="none" stroke="white" y1="2068" x1="3167" y2="2068" stroke-width="26" x2="3367"/>
 <line fill="none" stroke="white" y1="2068" x1="3367" y2="1868" stroke-width="26" x2="3367"/>
 <line fill="none" stroke="white" y1="1868" x1="3167" y2="1868" stroke-width="26" x2="3367"/>
 <line fill="none" stroke="white" y1="2068" x1="3167" y2="1868" stroke-width="26" x2="3167"/>
 <line fill="none" stroke="white" y1="2068" x1="5529" y2="2068" stroke-width="26" x2="5729"/>
 <line fill="none" stroke="white" y1="2068" x1="5729" y2="1868" stroke-width="26" x2="5729"/>
 <line fill="none" stroke="white" y1="1868" x1="5529" y2="1868" stroke-width="26" x2="5729"/>
 <line fill="none" stroke="white" y1="2068" x1="5529" y2="1868" stroke-width="26" x2="5529"/>
 <line fill="none" stroke="white" y1="2068" x1="6316" y2="2068" stroke-width="26" x2="6516"/>
 <line fill="none" stroke="white" y1="2068" x1="6516" y2="1868" stroke-width="26" x2="6516"/>
 <line fill="none" stroke="white" y1="1868" x1="6316" y2="1868" stroke-width="26" x2="6516"/>
 <line fill="none" stroke="white" y1="2068" x1="6316" y2="1868" stroke-width="26" x2="6316"/>
 <line fill="none" stroke="white" y1="2068" x1="7891" y2="2068" stroke-width="26" x2="8091"/>
 <line fill="none" stroke="white" y1="2068" x1="8091" y2="1868" stroke-width="26" x2="8091"/>
 <line fill="none" stroke="white" y1="1868" x1="7891" y2="1868" stroke-width="26" x2="8091"/>
 <line fill="none" stroke="white" y1="2068" x1="7891" y2="1868" stroke-width="26" x2="7891"/>
 <line fill="none" stroke="white" y1="7978" x1="4741" y2="7978" stroke-width="26" x2="4941"/>
 <line fill="none" stroke="white" y1="7978" x1="4941" y2="7778" stroke-width="26" x2="4941"/>
 <line fill="none" stroke="white" y1="7778" x1="4741" y2="7778" stroke-width="26" x2="4941"/>
 <line fill="none" stroke="white" y1="7978" x1="4741" y2="7778" stroke-width="26" x2="4741"/>
 <line fill="none" stroke="white" y1="7978" x1="3954" y2="7978" stroke-width="26" x2="4154"/>
 <line fill="none" stroke="white" y1="7978" x1="4154" y2="7778" stroke-width="26" x2="4154"/>
 <line fill="none" stroke="white" y1="7778" x1="3954" y2="7778" stroke-width="26" x2="4154"/>
 <line fill="none" stroke="white" y1="7978" x1="3954" y2="7778" stroke-width="26" x2="3954"/>
 <line fill="none" stroke="white" y1="7978" x1="3167" y2="7978" stroke-width="26" x2="3367"/>
 <line fill="none" stroke="white" y1="7978" x1="3367" y2="7778" stroke-width="26" x2="3367"/>
 <line fill="none" stroke="white" y1="7778" x1="3167" y2="7778" stroke-width="26" x2="3367"/>
 <line fill="none" stroke="white" y1="7978" x1="3167" y2="7778" stroke-width="26" x2="3167"/>
 <line fill="none" stroke="white" y1="7978" x1="5529" y2="7978" stroke-width="26" x2="5729"/>
 <line fill="none" stroke="white" y1="7978" x1="5729" y2="7778" stroke-width="26" x2="5729"/>
 <line fill="none" stroke="white" y1="7778" x1="5529" y2="7778" stroke-width="26" x2="5729"/>
 <line fill="none" stroke="white" y1="7978" x1="5529" y2="7778" stroke-width="26" x2="5529"/>
 <line fill="none" stroke="white" y1="7978" x1="6316" y2="7978" stroke-width="26" x2="6516"/>
 <line fill="none" stroke="white" y1="7978" x1="6516" y2="7778" stroke-width="26" x2="6516"/>
 <line fill="none" stroke="white" y1="7778" x1="6316" y2="7778" stroke-width="26" x2="6516"/>
 <line fill="none" stroke="white" y1="7978" x1="6316" y2="7778" stroke-width="26" x2="6316"/>
 <line fill="none" stroke="white" y1="9961" x1="0" y2="9961" stroke-width="50" x2="10392"/>
 <line fill="none" stroke="white" y1="9961" x1="10392" y2="0" stroke-width="50" x2="10392"/>
 <line fill="none" stroke="white" y1="0" x1="10392" y2="0" stroke-width="50" x2="0"/>
 <line fill="none" stroke="white" y1="0" x1="0" y2="9961" stroke-width="50" x2="0"/>
 <line fill="none" stroke="white" y1="1476" x1="2772" y2="2460" stroke-width="80" x2="2772"/>
 <line fill="none" stroke="white" y1="1476" x1="2777" y2="1476" stroke-width="80" x2="8518"/>
 <line fill="none" stroke="white" y1="2460" x1="8518" y2="2460" stroke-width="80" x2="2777"/>
 <line fill="none" stroke="white" y1="1476" x1="8518" y2="2460" stroke-width="80" x2="8518"/>
 <line fill="none" stroke="white" y1="7386" x1="2772" y2="8370" stroke-width="80" x2="2772"/>
 <line fill="none" stroke="white" y1="7386" x1="2777" y2="7386" stroke-width="80" x2="6918"/>
 <line fill="none" stroke="white" y1="8370" x1="6918" y2="8370" stroke-width="80" x2="2777"/>
 <line fill="none" stroke="white" y1="7386" x1="6918" y2="8370" stroke-width="80" x2="6918"/>
</g>
</svg>