<?xml version="1.0" encoding="UTF-8" standalone="no"?>
<svg xmlns:svg="http://www.w3.org/2000/svg" xmlns="http://www.w3.org/2000/svg" version="1.2" baseProfile="tiny" x="0in" y="0in" width="0.815in" height="1in" viewBox="0 0 8150 10000" >
<title>SparkFun.mod</title>
<desc>Kicad module 'SparkFun-JOYSTICK' from file 'SparkFun.mod' converted by Fritzing</desc>
<metadata xmlns:fz='http://fritzing.org/kicadmetadata/1.0/' xmlns:rdf='http://www.w3.org/1999/02/22-rdf-syntax-ns#'>
<rdf:RDF><rdf:Description rdf:about=''>
<fz:attr name='kicad filename'>SparkFun.mod</fz:attr>
<fz:attr name='kicad module'>SparkFun-JOYSTICK</fz:attr>
<fz:attr name='fritzing version'>0.4.1b.07.04.4318</fz:attr>
<fz:attr name='conversion date'>17/07/2010 17:16:04</fz:attr>
<fz:attr name='dist-license'>GPL</fz:attr>
<fz:attr name='use-license'>unlimited</fz:attr>
<fz:attr name='author'>KICAD project</fz:attr>
<fz:attr name='license-url'>http://www.gnu.org/licenses/gpl.html</fz:attr>
<fz:comment></fz:comment>
<fz:attr name='keyword'></fz:attr>
</rdf:Description></rdf:RDF></metadata><g id="copper0">
 <g id="copper1">
  <g connectorname="B1A" id="connector0pin">
   <circle fill="none" cx="3150" cy="500" stroke="#ff9400" r="263.5" stroke-width="173"/>
  </g>
  <g connectorname="B1B" id="connector1pin">
   <circle fill="none" cx="5650" cy="500" stroke="#ff9400" r="263.5" stroke-width="173"/>
  </g>
  <g connectorname="B2A" id="connector2pin">
   <circle fill="none" cx="3150" cy="2500" stroke="#ff9400" r="263.5" stroke-width="173"/>
  </g>
  <g connectorname="B2B" id="connector3pin">
   <circle fill="none" cx="5650" cy="2500" stroke="#ff9400" r="263.5" stroke-width="173"/>
  </g>
  <g connectorname="H1" id="connector4pin">
   <circle fill="none" cx="3400" cy="9500" stroke="#ff9400" r="262.5" stroke-width="175"/>
  </g>
  <g connectorname="H2" id="connector5pin">
   <circle fill="none" cx="4400" cy="9500" stroke="#ff9400" r="262.5" stroke-width="175"/>
  </g>
  <g connectorname="H3" id="connector6pin">
   <circle fill="none" cx="5400" cy="9500" stroke="#ff9400" r="262.5" stroke-width="175"/>
  </g>
  <g connectorname="MOUNT1" id="connector7pin">
   <circle fill="none" cx="1400" cy="2875" stroke="#ff9400" r="362.5" stroke-width="175"/>
   <circle fill="black" cx="1400" cy="2875" drill="0" r="275" stroke-width="0"/>
  </g>
  <g connectorname="MOUNT2" id="connector8pin">
   <circle fill="none" cx="1400" cy="8125" stroke="#ff9400" r="362.5" stroke-width="175"/>
   <circle fill="black" cx="1400" cy="8125" drill="0" r="275" stroke-width="0"/>
  </g>
  <g connectorname="MOUNT3" id="connector9pin">
   <circle fill="none" cx="7400" cy="8125" stroke="#ff9400" r="362.5" stroke-width="175"/>
   <circle fill="black" cx="7400" cy="8125" drill="0" r="275" stroke-width="0"/>
  </g>
  <g connectorname="MOUNT4" id="connector10pin">
   <circle fill="none" cx="7400" cy="2875" stroke="#ff9400" r="362.5" stroke-width="175"/>
   <circle fill="black" cx="7400" cy="2875" drill="0" r="275" stroke-width="0"/>
  </g>
  <g connectorname="V1" id="connector11pin">
   <circle fill="none" cx="400" cy="4500" stroke="#ff9400" r="262.5" stroke-width="175"/>
  </g>
  <g connectorname="V2" id="connector12pin">
   <circle fill="none" cx="400" cy="5500" stroke="#ff9400" r="262.5" stroke-width="175"/>
  </g>
  <g connectorname="V3" id="connector13pin">
   <circle fill="none" cx="400" cy="6500" stroke="#ff9400" r="262.5" stroke-width="175"/>
  </g>
 </g>
</g>
<g id="silkscreen">
 <line fill="none" stroke="white" y1="0" x1="6600" y2="0" stroke-width="80" x2="2200"/>
 <line fill="none" stroke="white" y1="10000" x1="6300" y2="10000" stroke-width="80" x2="2500"/>
 <line fill="none" stroke="white" y1="10000" x1="6300" y2="9000" stroke-width="80" x2="6300"/>
 <line fill="none" stroke="white" y1="10000" x1="2500" y2="9000" stroke-width="80" x2="2500"/>
 <line fill="none" stroke="white" y1="9000" x1="6300" y2="9000" stroke-width="80" x2="7400"/>
 <line fill="none" stroke="white" y1="9000" x1="2500" y2="9000" stroke-width="80" x2="1400"/>
 <line fill="none" stroke="white" y1="3900" x1="8150" y2="7100" stroke-width="80" x2="8150"/>
 <line fill="none" stroke="white" y1="3900" x1="7400" y2="2750" stroke-width="80" x2="7400"/>
 <line fill="none" stroke="white" y1="7100" x1="7400" y2="9000" stroke-width="80" x2="7400"/>
 <line fill="none" stroke="white" y1="3900" x1="7400" y2="3900" stroke-width="80" x2="8150"/>
 <line fill="none" stroke="white" y1="7100" x1="7400" y2="7100" stroke-width="80" x2="8150"/>
 <line fill="none" stroke="white" y1="2750" x1="7400" y2="2750" stroke-width="80" x2="6600"/>
 <line fill="none" stroke="white" y1="2750" x1="2200" y2="2750" stroke-width="80" x2="1400"/>
 <line fill="none" stroke="white" y1="0" x1="6600" y2="2750" stroke-width="80" x2="6600"/>
 <line fill="none" stroke="white" y1="0" x1="2200" y2="2750" stroke-width="80" x2="2200"/>
 <line fill="none" stroke="white" y1="3600" x1="1400" y2="3600" stroke-width="80" x2="0"/>
 <line fill="none" stroke="white" y1="7400" x1="1400" y2="7400" stroke-width="80" x2="0"/>
 <line fill="none" stroke="white" y1="3600" x1="0" y2="7400" stroke-width="80" x2="0"/>
 <line fill="none" stroke="white" y1="3600" x1="1400" y2="2750" stroke-width="80" x2="1400"/>
 <line fill="none" stroke="white" y1="7400" x1="1400" y2="9000" stroke-width="80" x2="1400"/>
 <line fill="none" stroke="white" y1="2500" x1="3650" y2="2500" stroke-width="80" x2="4150"/>
 <line fill="none" stroke="white" y1="2500" x1="4150" y2="2250" stroke-width="80" x2="4650"/>
 <line fill="none" stroke="white" y1="2500" x1="4650" y2="2500" stroke-width="80" x2="5150"/>
 <circle fill="none" cx="4400" cy="5500" stroke="white" r="176.777" stroke-width="40"/>
 <circle fill="none" cx="4400" cy="5500" stroke="white" r="3535.53" stroke-width="40"/>
</g>
</svg>