<?xml version="1.0" encoding="UTF-8" standalone="no"?>
<svg xmlns:svg="http://www.w3.org/2000/svg" xmlns="http://www.w3.org/2000/svg" version="1.2" baseProfile="tiny" x="0in" y="0in" width="0.6529in" height="0.423in" viewBox="0 0 6529 4230" >
<title>SparkFun.mod</title>
<desc>Kicad module 'SparkFun-SO-24DW' from file 'SparkFun.mod' converted by Fritzing</desc>
<metadata xmlns:fz='http://fritzing.org/kicadmetadata/1.0/' xmlns:rdf='http://www.w3.org/1999/02/22-rdf-syntax-ns#'>
<rdf:RDF><rdf:Description rdf:about=''>
<fz:attr name='kicad filename'>SparkFun.mod</fz:attr>
<fz:attr name='kicad module'>SparkFun-SO-24DW</fz:attr>
<fz:attr name='fritzing version'>0.4.1b.07.04.4318</fz:attr>
<fz:attr name='conversion date'>17/07/2010 17:17:38</fz:attr>
<fz:attr name='dist-license'>GPL</fz:attr>
<fz:attr name='use-license'>unlimited</fz:attr>
<fz:attr name='author'>KICAD project</fz:attr>
<fz:attr name='license-url'>http://www.gnu.org/licenses/gpl.html</fz:attr>
<fz:comment>300-MIL BODY, PACKAGE TYPE SO</fz:comment>
<fz:attr name='keyword'>300-MIL</fz:attr>
<fz:attr name='keyword'>BODY,</fz:attr>
<fz:attr name='keyword'>PACKAGE</fz:attr>
<fz:attr name='keyword'>TYPE</fz:attr>
<fz:attr name='keyword'>SO</fz:attr>
</rdf:Description></rdf:RDF></metadata><g id="copper1">
 <rect width="800" x="229" y="4000" fill="#ffbf00" connectorname="1" height="230" id="connector0pad" stroke-width="0"/>
 <rect width="800" x="729" y="4000" fill="#ffbf00" connectorname="2" height="230" id="connector1pad" stroke-width="0"/>
 <rect width="800" x="1229" y="4000" fill="#ffbf00" connectorname="3" height="230" id="connector2pad" stroke-width="0"/>
 <rect width="800" x="1729" y="4000" fill="#ffbf00" connectorname="4" height="230" id="connector3pad" stroke-width="0"/>
 <rect width="800" x="2229" y="4000" fill="#ffbf00" connectorname="5" height="230" id="connector4pad" stroke-width="0"/>
 <rect width="800" x="2729" y="4000" fill="#ffbf00" connectorname="6" height="230" id="connector5pad" stroke-width="0"/>
 <rect width="800" x="3229" y="4000" fill="#ffbf00" connectorname="7" height="230" id="connector6pad" stroke-width="0"/>
 <rect width="800" x="3729" y="4000" fill="#ffbf00" connectorname="8" height="230" id="connector7pad" stroke-width="0"/>
 <rect width="800" x="4229" y="4000" fill="#ffbf00" connectorname="9" height="230" id="connector8pad" stroke-width="0"/>
 <rect width="800" x="4729" y="4000" fill="#ffbf00" connectorname="10" height="230" id="connector9pad" stroke-width="0"/>
 <rect width="800" x="5229" y="4000" fill="#ffbf00" connectorname="11" height="230" id="connector10pad" stroke-width="0"/>
 <rect width="800" x="5729" y="4000" fill="#ffbf00" connectorname="12" height="230" id="connector11pad" stroke-width="0"/>
 <rect width="800" x="5729" y="0" fill="#ffbf00" connectorname="13" height="230" id="connector12pad" stroke-width="0"/>
 <rect width="800" x="5229" y="0" fill="#ffbf00" connectorname="14" height="230" id="connector13pad" stroke-width="0"/>
 <rect width="800" x="4729" y="0" fill="#ffbf00" connectorname="15" height="230" id="connector14pad" stroke-width="0"/>
 <rect width="800" x="4229" y="0" fill="#ffbf00" connectorname="16" height="230" id="connector15pad" stroke-width="0"/>
 <rect width="800" x="3729" y="0" fill="#ffbf00" connectorname="17" height="230" id="connector16pad" stroke-width="0"/>
 <rect width="800" x="3229" y="0" fill="#ffbf00" connectorname="18" height="230" id="connector17pad" stroke-width="0"/>
 <rect width="800" x="2729" y="0" fill="#ffbf00" connectorname="19" height="230" id="connector18pad" stroke-width="0"/>
 <rect width="800" x="2229" y="0" fill="#ffbf00" connectorname="20" height="230" id="connector19pad" stroke-width="0"/>
 <rect width="800" x="1729" y="0" fill="#ffbf00" connectorname="21" height="230" id="connector20pad" stroke-width="0"/>
 <rect width="800" x="1229" y="0" fill="#ffbf00" connectorname="22" height="230" id="connector21pad" stroke-width="0"/>
 <rect width="800" x="729" y="0" fill="#ffbf00" connectorname="23" height="230" id="connector22pad" stroke-width="0"/>
 <rect width="800" x="229" y="0" fill="#ffbf00" connectorname="24" height="230" id="connector23pad" stroke-width="0"/>
</g>
<g id="silkscreen">
 <line fill="none" stroke="white" y1="3615" x1="6439" y2="615" stroke-width="80" x2="6439"/>
 <line fill="none" stroke="white" y1="615" x1="6439" y2="615" stroke-width="80" x2="300"/>
 <line fill="none" stroke="white" y1="3615" x1="6439" y2="3615" stroke-width="80" x2="300"/>
 <line fill="none" stroke="white" y1="615" x1="300" y2="1815" stroke-width="80" x2="300"/>
 <line fill="none" stroke="white" y1="3615" x1="300" y2="2415" stroke-width="80" x2="300"/>
 <path fill="none" stroke="white" stroke-width="40" d="M300,2415a300,300,0,1,0,0,-600"/>
</g>
</svg>