<?xml version="1.0" encoding="UTF-8" standalone="no"?>
<svg xmlns:svg="http://www.w3.org/2000/svg" xmlns="http://www.w3.org/2000/svg" version="1.2" baseProfile="tiny" x="0in" y="0in" width="1.4in" height="1.803in" viewBox="0 0 14000 18030" >
<title>SparkFun.mod</title>
<desc>Kicad module 'SparkFun-NOKIA6100_LCD' from file 'SparkFun.mod' converted by Fritzing</desc>
<metadata xmlns:fz='http://fritzing.org/kicadmetadata/1.0/' xmlns:rdf='http://www.w3.org/1999/02/22-rdf-syntax-ns#'>
<rdf:RDF><rdf:Description rdf:about=''>
<fz:attr name='kicad filename'>SparkFun.mod</fz:attr>
<fz:attr name='kicad module'>SparkFun-NOKIA6100_LCD</fz:attr>
<fz:attr name='fritzing version'>0.4.1b.07.04.4318</fz:attr>
<fz:attr name='conversion date'>17/07/2010 17:16:33</fz:attr>
<fz:attr name='dist-license'>GPL</fz:attr>
<fz:attr name='use-license'>unlimited</fz:attr>
<fz:attr name='author'>KICAD project</fz:attr>
<fz:attr name='license-url'>http://www.gnu.org/licenses/gpl.html</fz:attr>
<fz:comment></fz:comment>
<fz:attr name='keyword'></fz:attr>
</rdf:Description></rdf:RDF></metadata><g id="copper1">
 <rect width="118" x="9090" y="270.5" fill="#ffbf00" connectorname="1" height="629" id="connector0pad" stroke-width="0"/>
 <rect width="118" x="9090" y="467.5" fill="#ffbf00" connectorname="2" height="629" id="connector1pad" stroke-width="0"/>
 <rect width="118" x="9090" y="664.5" fill="#ffbf00" connectorname="3" height="629" id="connector2pad" stroke-width="0"/>
 <rect width="118" x="9090" y="861.5" fill="#ffbf00" connectorname="4" height="629" id="connector3pad" stroke-width="0"/>
 <rect width="118" x="9090" y="1058.5" fill="#ffbf00" connectorname="5" height="629" id="connector4pad" stroke-width="0"/>
 <rect width="118" x="11111" y="1061.5" fill="#ffbf00" connectorname="6" height="629" id="connector5pad" stroke-width="0"/>
 <rect width="118" x="11111" y="864.5" fill="#ffbf00" connectorname="7" height="629" id="connector6pad" stroke-width="0"/>
 <rect width="118" x="11111" y="667.5" fill="#ffbf00" connectorname="8" height="629" id="connector7pad" stroke-width="0"/>
 <rect width="118" x="11111" y="470.5" fill="#ffbf00" connectorname="9" height="629" id="connector8pad" stroke-width="0"/>
 <rect width="118" x="11111" y="273.5" fill="#ffbf00" connectorname="10" height="629" id="connector9pad" stroke-width="0"/>
</g>
<g id="silkscreen">
 <line fill="none" stroke="white" y1="18030" x1="0" y2="2230" stroke-width="80" x2="0"/>
 <line fill="none" stroke="white" y1="2230" x1="0" y2="2230" stroke-width="80" x2="14000"/>
 <line fill="none" stroke="white" y1="2230" x1="14000" y2="18030" stroke-width="80" x2="14000"/>
 <line fill="none" stroke="white" y1="18030" x1="14000" y2="18030" stroke-width="80" x2="0"/>
 <line fill="none" stroke="white" y1="6030" x1="12500" y2="16630" stroke-width="80" x2="12500"/>
 <line fill="none" stroke="white" y1="6030" x1="1500" y2="6030" stroke-width="80" x2="11100"/>
 <line fill="none" stroke="white" y1="6030" x1="11100" y2="6030" stroke-width="80" x2="12500"/>
 <line fill="none" stroke="white" y1="6030" x1="1500" y2="16630" stroke-width="80" x2="1500"/>
 <line fill="none" stroke="white" y1="16630" x1="1500" y2="16630" stroke-width="80" x2="12500"/>
 <line fill="none" stroke="white" y1="6030" x1="10999" y2="6030" stroke-width="50" x2="11100"/>
 <line fill="none" stroke="white" y1="0" x1="9150" y2="0" stroke-width="80" x2="11150"/>
 <line fill="none" stroke="white" y1="2000" x1="11150" y2="2000" stroke-width="80" x2="9150"/>
 <line fill="none" stroke="white" y1="1999" x1="9147" y2="1649" stroke-width="80" x2="9147"/>
 <line fill="none" stroke="white" y1="1999" x1="11155" y2="1656" stroke-width="80" x2="11155"/>
 <line fill="none" stroke="white" y1="7" x1="11151" y2="314" stroke-width="80" x2="11151"/>
 <line fill="none" stroke="white" y1="3" x1="9151" y2="314" stroke-width="80" x2="9151"/>
</g>
</svg>