%
M48
M72
T01C0.0197
T02C0.0320
T03C0.0360
T04C0.0400
T05C0.0440
T06C0.0520
T07C0.1300
%
T01
X6601Y8252
X6601Y9002
X14101Y11502
X14101Y12502
X18101Y12502
X18101Y11502
X21101Y12002
X21851Y12752
X21851Y13502
X26101Y10502
X26101Y9502
X26101Y8002
X26101Y7002
X30351Y9502
X29851Y11502
X29851Y12502
X28351Y19752
X28351Y23502
X19101Y27752
X18601Y27252
X17351Y26502
X16851Y25502
X16351Y26002
X13351Y25502
X12351Y26502
X11351Y26002
X10351Y25002
X9351Y23752
X6351Y23252
X6351Y25252
X6351Y26002
X14351Y23252
X33351Y2752
X33851Y2252
X31351Y2002
X30351Y1502
X29101Y2252
X18351Y2502
X17351Y2502
X14351Y2002
X13351Y2002
T02
X12351Y6502
X12351Y7502
X12351Y8502
X12351Y9502
X12351Y10502
X11351Y10502
X11351Y9502
X11351Y8502
X11351Y7502
X11351Y6502
X8351Y6502
X8351Y7502
X8351Y8502
X8351Y9502
X8351Y10502
X8351Y11502
X8351Y12502
X8351Y13502
X8851Y15502
X9851Y15502
X10851Y15502
X11851Y15502
X12851Y15502
X14351Y15502
X15351Y15502
X16351Y15502
X17351Y15502
X18351Y15502
X19351Y15502
X20351Y15502
X21351Y15502
X22851Y15502
X23851Y15502
X24851Y15502
X25851Y15502
X26851Y15502
X27851Y15502
X28851Y15502
X29851Y15502
X31351Y13502
X31351Y12502
X31351Y11502
X31351Y10502
X31351Y9502
X31351Y8502
X31351Y7502
X31351Y6502
X28351Y6502
X28351Y7502
X28351Y8502
X28351Y9502
X28351Y10502
X27351Y10502
X27351Y9502
X27351Y8502
X27351Y7502
X27351Y6502
X24351Y6502
X23351Y6502
X23351Y7502
X24351Y7502
X24351Y8502
X23351Y8502
X23351Y9502
X24351Y9502
X24351Y10502
X23351Y10502
X23351Y11502
X24351Y11502
X24351Y12502
X23351Y12502
X23351Y13502
X24351Y13502
X27351Y13502
X28351Y13502
X28351Y12502
X28351Y11502
X27351Y11502
X27351Y12502
X32851Y14752
X32851Y15752
X31851Y17502
X31851Y18502
X29851Y18502
X28851Y18502
X27851Y18502
X26851Y18502
X25851Y18502
X24851Y18502
X23851Y18502
X22851Y18502
X21351Y18502
X20351Y18502
X19351Y18502
X18351Y18502
X17351Y18502
X16351Y18502
X15351Y18502
X14351Y18502
X12851Y18502
X11851Y18502
X10851Y18502
X9851Y18502
X8851Y18502
X7851Y18502
X6851Y18502
X5851Y18502
X5851Y15502
X6851Y15502
X7851Y15502
X5601Y13502
X5601Y12502
X11351Y12502
X12351Y12502
X12351Y13502
X11351Y13502
X11351Y11502
X12351Y11502
X15351Y11502
X16351Y11502
X16351Y12502
X15351Y12502
X15351Y13502
X16351Y13502
X19351Y13502
X20351Y13502
X20351Y12502
X19351Y12502
X19351Y11502
X20351Y11502
X20351Y10502
X19351Y10502
X19351Y9502
X20351Y9502
X20351Y8502
X19351Y8502
X19351Y7502
X20351Y7502
X20351Y6502
X19351Y6502
X16351Y6502
X15351Y6502
X15351Y7502
X16351Y7502
X16351Y8502
X15351Y8502
X15351Y9502
X16351Y9502
X16351Y10502
X15351Y10502
X5601Y7502
X5601Y6502
X30351Y24252
X30351Y26252
X34351Y5502
X35351Y5502
X36351Y5502
X37351Y5502
X38351Y5502
X38351Y1502
X37351Y1502
X36351Y1502
X35351Y1502
X34351Y1502
T03
X1851Y3002
X2851Y3002
X2851Y4002
X1851Y4002
X1851Y5002
X2851Y5002
X2851Y6002
X1851Y6002
X1851Y7002
X2851Y7002
X2851Y8002
X1851Y8002
X1851Y9002
X2851Y9002
X2851Y10002
X1851Y10002
X1851Y17002
X2851Y17002
X2851Y18002
X1851Y18002
X1851Y19002
X2851Y19002
X2851Y20002
X1851Y20002
X1851Y21002
X2851Y21002
X2851Y22002
X1851Y22002
X1851Y23002
X2851Y23002
X2851Y24002
X1851Y24002
X1851Y25002
X2851Y25002
X2851Y26002
X1851Y26002
X1851Y27002
X2851Y27002
X2851Y28002
X1851Y28002
X1851Y29002
X2851Y29002
X36351Y15252
X37351Y15252
X37351Y14252
X36351Y14252
X36351Y13252
X37351Y13252
X37351Y12252
X36351Y12252
X36351Y11252
X37351Y11252
X37351Y10252
X36351Y10252
X36351Y9252
X37351Y9252
X37351Y8252
X36351Y8252
T04
X31851Y4502
X30851Y4502
X29851Y4502
X28851Y4502
X27851Y4502
X26851Y4502
X25851Y4502
X24851Y4502
X23851Y4502
X22851Y4502
X21851Y4502
X20851Y4502
X19851Y4502
X18851Y4502
X17851Y4502
X16851Y4502
X15851Y4502
X14851Y4502
X13851Y4502
X12851Y4502
X11851Y4502
X10851Y4502
X9851Y4502
X8851Y4502
X7851Y4502
X7851Y3502
X8851Y3502
X9851Y3502
X10851Y3502
X11851Y3502
X12851Y3502
X13851Y3502
X14851Y3502
X15851Y3502
X16851Y3502
X17851Y3502
X18851Y3502
X19851Y3502
X20851Y3502
X21851Y3502
X22851Y3502
X23851Y3502
X24851Y3502
X25851Y3502
X26851Y3502
X27851Y3502
X28851Y3502
X29851Y3502
X30851Y3502
X31851Y3502
X31851Y21502
X30851Y21502
X29851Y21502
X28851Y21502
X27851Y21502
X27851Y22502
X28851Y22502
X29851Y22502
X30851Y22502
X31851Y22502
X26851Y22502
X25851Y22502
X24851Y22502
X23851Y22502
X22851Y22502
X22851Y21502
X23851Y21502
X24851Y21502
X25851Y21502
X26851Y21502
X21851Y21502
X20851Y21502
X19851Y21502
X18851Y21502
X17851Y21502
X17851Y22502
X18851Y22502
X19851Y22502
X20851Y22502
X21851Y22502
X16851Y22502
X15851Y22502
X14851Y22502
X13851Y22502
X12851Y22502
X12851Y21502
X13851Y21502
X14851Y21502
X15851Y21502
X16851Y21502
X11851Y21502
X10851Y21502
X9851Y21502
X8851Y21502
X7851Y21502
X7851Y22502
X8851Y22502
X9851Y22502
X10851Y22502
X11851Y22502
X21601Y28752
X21601Y29752
T05
X20351Y27502
X6351Y27502
X32851Y13502
X32851Y9502
X37101Y19502
X37101Y20502
X37101Y21502
X37101Y24002
X37101Y25002
X37101Y26002
T06
X35191Y29502
X32241Y29502
X29291Y29502
X25351Y29502
T07
X44001Y25002
X44001Y20502
M30
