G75*
G70*
%OFA0B0*%
%FSLAX24Y24*%
%IPPOS*%
%LPD*%
%AMOC8*
5,1,8,0,0,1.08239X$1,22.5*
%
%ADD10C,0.0050*%
%ADD11C,0.0060*%
%ADD12C,0.0070*%
%ADD13C,0.0020*%
%ADD14C,0.0010*%
%ADD15C,0.0120*%
%ADD16R,0.0250X0.0300*%
%ADD17R,0.1100X0.0500*%
%ADD18R,0.0240X0.0340*%
%ADD19R,0.1000X0.0200*%
%ADD20R,0.0300X0.0750*%
%ADD21R,0.0200X0.1200*%
%ADD22R,0.0350X0.0300*%
D10*
X000601Y001002D02*
X004101Y001002D01*
X004101Y001502D01*
X004201Y001502D01*
X004201Y002002D01*
X004101Y002002D01*
X004101Y006252D01*
X004201Y006252D01*
X004201Y006752D01*
X004101Y006752D01*
X004101Y011002D01*
X004201Y011002D01*
X004201Y011502D01*
X004101Y011502D01*
X004101Y012002D01*
X000601Y012002D01*
X000601Y010302D01*
X000651Y010302D01*
X000651Y009702D01*
X000601Y009702D01*
X000601Y009152D01*
X000801Y009002D01*
X000801Y008802D01*
X000801Y008202D01*
X000801Y008002D01*
X000601Y007852D01*
X000601Y007302D01*
X001001Y007302D01*
X001001Y008202D01*
X001101Y008202D01*
X001101Y008802D01*
X001101Y011502D01*
X003601Y011502D01*
X003601Y001502D01*
X001101Y001502D01*
X001101Y003202D01*
X001101Y003802D01*
X001101Y005702D01*
X001001Y005702D01*
X000601Y005702D01*
X000601Y004152D01*
X000801Y004002D01*
X000801Y003802D01*
X000801Y003202D01*
X001001Y003202D01*
X001101Y003202D01*
X000801Y003202D02*
X000801Y003002D01*
X000601Y002852D01*
X000601Y001002D01*
X000801Y003802D02*
X001001Y003802D01*
X001101Y003802D01*
X001101Y005702D02*
X001401Y005702D01*
X001401Y007302D01*
X001101Y007302D01*
X001001Y007302D01*
X001101Y007302D02*
X001101Y008202D01*
X001001Y008202D02*
X000801Y008202D01*
X000801Y008802D02*
X001001Y008802D01*
X001101Y008802D01*
X001001Y008802D02*
X001001Y011602D01*
X005001Y012452D02*
X005101Y012452D01*
X005101Y012552D01*
X005101Y012452D02*
X005201Y012452D01*
X005101Y012452D02*
X005101Y012352D01*
X004601Y013002D02*
X004605Y013093D01*
X004618Y013183D01*
X004638Y013272D01*
X004667Y013358D01*
X004703Y013442D01*
X004747Y013522D01*
X004797Y013597D01*
X004855Y013668D01*
X004918Y013733D01*
X004988Y013792D01*
X005062Y013844D01*
X005141Y013890D01*
X005224Y013928D01*
X005309Y013959D01*
X005398Y013981D01*
X005487Y013996D01*
X005578Y014002D01*
X005669Y014000D01*
X005760Y013989D01*
X005849Y013971D01*
X005936Y013944D01*
X006020Y013910D01*
X006101Y013868D01*
X006178Y013819D01*
X006250Y013763D01*
X006316Y013701D01*
X006377Y013633D01*
X006431Y013560D01*
X006478Y013482D01*
X006518Y013400D01*
X006551Y013315D01*
X006575Y013228D01*
X006592Y013138D01*
X006600Y013048D01*
X006600Y012956D01*
X006592Y012866D01*
X006575Y012776D01*
X006551Y012689D01*
X006518Y012604D01*
X006478Y012522D01*
X006431Y012444D01*
X006377Y012371D01*
X006316Y012303D01*
X006250Y012241D01*
X006178Y012185D01*
X006101Y012136D01*
X006020Y012094D01*
X005936Y012060D01*
X005849Y012033D01*
X005760Y012015D01*
X005669Y012004D01*
X005578Y012002D01*
X005487Y012008D01*
X005398Y012023D01*
X005309Y012045D01*
X005224Y012076D01*
X005141Y012114D01*
X005062Y012160D01*
X004988Y012212D01*
X004918Y012271D01*
X004855Y012336D01*
X004797Y012407D01*
X004747Y012482D01*
X004703Y012562D01*
X004667Y012646D01*
X004638Y012732D01*
X004618Y012821D01*
X004605Y012911D01*
X004601Y013002D01*
X004101Y015002D02*
X004101Y015502D01*
X004201Y015502D01*
X004201Y016002D01*
X004101Y016002D01*
X004101Y022752D01*
X004201Y022752D01*
X004201Y023252D01*
X004101Y023252D01*
X004101Y030002D01*
X004201Y030002D01*
X004201Y030502D01*
X004101Y030502D01*
X004101Y031002D01*
X000601Y031002D01*
X000601Y029302D01*
X000651Y029302D01*
X000651Y028702D01*
X000601Y028702D01*
X000601Y028152D01*
X000801Y028002D01*
X000801Y027802D01*
X000801Y027202D01*
X000801Y027002D01*
X000601Y026852D01*
X000601Y023802D01*
X001001Y023802D01*
X001101Y023802D01*
X001101Y027202D01*
X001101Y027802D01*
X001101Y030502D01*
X003601Y030502D01*
X003601Y015502D01*
X001101Y015502D01*
X001101Y017202D01*
X001101Y017802D01*
X001101Y022202D01*
X001001Y022202D01*
X000601Y022202D01*
X000601Y018152D01*
X000801Y018002D01*
X000801Y017802D01*
X000801Y017202D01*
X001001Y017202D01*
X001101Y017202D01*
X000801Y017202D02*
X000801Y017002D01*
X000601Y016852D01*
X000601Y015002D01*
X004101Y015002D01*
X005351Y015902D02*
X013351Y015902D01*
X013351Y016752D01*
X013320Y016754D01*
X013289Y016760D01*
X013259Y016770D01*
X013231Y016783D01*
X013204Y016800D01*
X013180Y016820D01*
X013158Y016843D01*
X013140Y016868D01*
X013125Y016896D01*
X013113Y016925D01*
X013105Y016955D01*
X013101Y016986D01*
X013101Y017018D01*
X013105Y017049D01*
X013113Y017079D01*
X013125Y017108D01*
X013140Y017136D01*
X013158Y017161D01*
X013180Y017184D01*
X013204Y017204D01*
X013231Y017221D01*
X013259Y017234D01*
X013289Y017244D01*
X013320Y017250D01*
X013351Y017252D01*
X013351Y018102D01*
X005351Y018102D01*
X005351Y015902D01*
X008751Y014002D02*
X008751Y006002D01*
X009601Y006002D01*
X009603Y006033D01*
X009609Y006064D01*
X009619Y006094D01*
X009632Y006122D01*
X009649Y006149D01*
X009669Y006173D01*
X009692Y006195D01*
X009717Y006213D01*
X009745Y006228D01*
X009774Y006240D01*
X009804Y006248D01*
X009835Y006252D01*
X009867Y006252D01*
X009898Y006248D01*
X009928Y006240D01*
X009957Y006228D01*
X009985Y006213D01*
X010010Y006195D01*
X010033Y006173D01*
X010053Y006149D01*
X010070Y006122D01*
X010083Y006094D01*
X010093Y006064D01*
X010099Y006033D01*
X010101Y006002D01*
X010951Y006002D01*
X010951Y014002D01*
X008751Y014002D01*
X012751Y014002D02*
X012751Y006002D01*
X013601Y006002D01*
X013603Y006033D01*
X013609Y006064D01*
X013619Y006094D01*
X013632Y006122D01*
X013649Y006149D01*
X013669Y006173D01*
X013692Y006195D01*
X013717Y006213D01*
X013745Y006228D01*
X013774Y006240D01*
X013804Y006248D01*
X013835Y006252D01*
X013867Y006252D01*
X013898Y006248D01*
X013928Y006240D01*
X013957Y006228D01*
X013985Y006213D01*
X014010Y006195D01*
X014033Y006173D01*
X014053Y006149D01*
X014070Y006122D01*
X014083Y006094D01*
X014093Y006064D01*
X014099Y006033D01*
X014101Y006002D01*
X014951Y006002D01*
X014951Y014002D01*
X012751Y014002D01*
X013851Y015902D02*
X021851Y015902D01*
X021851Y016752D01*
X021820Y016754D01*
X021789Y016760D01*
X021759Y016770D01*
X021731Y016783D01*
X021704Y016800D01*
X021680Y016820D01*
X021658Y016843D01*
X021640Y016868D01*
X021625Y016896D01*
X021613Y016925D01*
X021605Y016955D01*
X021601Y016986D01*
X021601Y017018D01*
X021605Y017049D01*
X021613Y017079D01*
X021625Y017108D01*
X021640Y017136D01*
X021658Y017161D01*
X021680Y017184D01*
X021704Y017204D01*
X021731Y017221D01*
X021759Y017234D01*
X021789Y017244D01*
X021820Y017250D01*
X021851Y017252D01*
X021851Y018102D01*
X013851Y018102D01*
X013851Y015902D01*
X016751Y014002D02*
X016751Y006002D01*
X017601Y006002D01*
X017603Y006033D01*
X017609Y006064D01*
X017619Y006094D01*
X017632Y006122D01*
X017649Y006149D01*
X017669Y006173D01*
X017692Y006195D01*
X017717Y006213D01*
X017745Y006228D01*
X017774Y006240D01*
X017804Y006248D01*
X017835Y006252D01*
X017867Y006252D01*
X017898Y006248D01*
X017928Y006240D01*
X017957Y006228D01*
X017985Y006213D01*
X018010Y006195D01*
X018033Y006173D01*
X018053Y006149D01*
X018070Y006122D01*
X018083Y006094D01*
X018093Y006064D01*
X018099Y006033D01*
X018101Y006002D01*
X018951Y006002D01*
X018951Y014002D01*
X016751Y014002D01*
X020751Y014002D02*
X020751Y006002D01*
X021601Y006002D01*
X021603Y006033D01*
X021609Y006064D01*
X021619Y006094D01*
X021632Y006122D01*
X021649Y006149D01*
X021669Y006173D01*
X021692Y006195D01*
X021717Y006213D01*
X021745Y006228D01*
X021774Y006240D01*
X021804Y006248D01*
X021835Y006252D01*
X021867Y006252D01*
X021898Y006248D01*
X021928Y006240D01*
X021957Y006228D01*
X021985Y006213D01*
X022010Y006195D01*
X022033Y006173D01*
X022053Y006149D01*
X022070Y006122D01*
X022083Y006094D01*
X022093Y006064D01*
X022099Y006033D01*
X022101Y006002D01*
X022951Y006002D01*
X022951Y014002D01*
X020751Y014002D01*
X022351Y015902D02*
X030351Y015902D01*
X030351Y016752D01*
X030320Y016754D01*
X030289Y016760D01*
X030259Y016770D01*
X030231Y016783D01*
X030204Y016800D01*
X030180Y016820D01*
X030158Y016843D01*
X030140Y016868D01*
X030125Y016896D01*
X030113Y016925D01*
X030105Y016955D01*
X030101Y016986D01*
X030101Y017018D01*
X030105Y017049D01*
X030113Y017079D01*
X030125Y017108D01*
X030140Y017136D01*
X030158Y017161D01*
X030180Y017184D01*
X030204Y017204D01*
X030231Y017221D01*
X030259Y017234D01*
X030289Y017244D01*
X030320Y017250D01*
X030351Y017252D01*
X030351Y018102D01*
X022351Y018102D01*
X022351Y015902D01*
X024751Y014002D02*
X024751Y006002D01*
X025601Y006002D01*
X025603Y006033D01*
X025609Y006064D01*
X025619Y006094D01*
X025632Y006122D01*
X025649Y006149D01*
X025669Y006173D01*
X025692Y006195D01*
X025717Y006213D01*
X025745Y006228D01*
X025774Y006240D01*
X025804Y006248D01*
X025835Y006252D01*
X025867Y006252D01*
X025898Y006248D01*
X025928Y006240D01*
X025957Y006228D01*
X025985Y006213D01*
X026010Y006195D01*
X026033Y006173D01*
X026053Y006149D01*
X026070Y006122D01*
X026083Y006094D01*
X026093Y006064D01*
X026099Y006033D01*
X026101Y006002D01*
X026951Y006002D01*
X026951Y014002D01*
X024751Y014002D01*
X028751Y014002D02*
X028751Y006002D01*
X029601Y006002D01*
X029603Y006033D01*
X029609Y006064D01*
X029619Y006094D01*
X029632Y006122D01*
X029649Y006149D01*
X029669Y006173D01*
X029692Y006195D01*
X029717Y006213D01*
X029745Y006228D01*
X029774Y006240D01*
X029804Y006248D01*
X029835Y006252D01*
X029867Y006252D01*
X029898Y006248D01*
X029928Y006240D01*
X029957Y006228D01*
X029985Y006213D01*
X030010Y006195D01*
X030033Y006173D01*
X030053Y006149D01*
X030070Y006122D01*
X030083Y006094D01*
X030093Y006064D01*
X030099Y006033D01*
X030101Y006002D01*
X030951Y006002D01*
X030951Y014002D01*
X028751Y014002D01*
X032351Y012302D02*
X032351Y010702D01*
X033351Y010702D01*
X033351Y012302D01*
X032351Y012302D01*
X032601Y011902D02*
X032851Y011502D01*
X032601Y011502D01*
X032601Y011602D01*
X032851Y011502D02*
X032851Y011252D01*
X032851Y011502D02*
X033101Y011502D01*
X032851Y011502D02*
X032851Y012102D01*
X033101Y011902D02*
X032851Y011502D01*
X032601Y011902D02*
X033101Y011902D01*
X035001Y012002D02*
X035001Y011502D01*
X035101Y011502D01*
X035101Y007252D01*
X035001Y007252D01*
X035001Y006752D01*
X035101Y006752D01*
X035101Y006252D01*
X038601Y006252D01*
X038601Y007952D01*
X038551Y007952D01*
X038551Y008552D01*
X038601Y008552D01*
X038601Y009102D01*
X038401Y009252D01*
X038401Y009452D01*
X038401Y010052D01*
X038401Y010252D01*
X038601Y010402D01*
X038601Y010952D01*
X038201Y010952D01*
X038201Y010052D01*
X038101Y010052D01*
X038101Y009452D01*
X038101Y006752D01*
X035601Y006752D01*
X035601Y016752D01*
X038101Y016752D01*
X038101Y015052D01*
X038101Y014452D01*
X038101Y012552D01*
X038201Y012552D01*
X038601Y012552D01*
X038601Y014102D01*
X038401Y014252D01*
X038401Y014452D01*
X038401Y015052D01*
X038201Y015052D01*
X038101Y015052D01*
X038401Y015052D02*
X038401Y015252D01*
X038601Y015402D01*
X038601Y017252D01*
X035101Y017252D01*
X035101Y016752D01*
X035001Y016752D01*
X035001Y016252D01*
X035101Y016252D01*
X035101Y012002D01*
X035001Y012002D01*
X037801Y012552D02*
X037801Y010952D01*
X038101Y010952D01*
X038201Y010952D01*
X038101Y010952D02*
X038101Y010052D01*
X038201Y010052D02*
X038401Y010052D01*
X038401Y009452D02*
X038201Y009452D01*
X038101Y009452D01*
X038201Y009452D02*
X038201Y006652D01*
X038001Y004752D02*
X038701Y004752D01*
X038721Y004750D01*
X038739Y004744D01*
X038757Y004735D01*
X038772Y004723D01*
X038784Y004708D01*
X038793Y004690D01*
X038799Y004672D01*
X038801Y004652D01*
X038801Y004502D01*
X038751Y004452D01*
X038751Y002552D01*
X038801Y002502D01*
X038801Y002352D01*
X038799Y002332D01*
X038793Y002314D01*
X038784Y002296D01*
X038772Y002281D01*
X038757Y002269D01*
X038739Y002260D01*
X038721Y002254D01*
X038701Y002252D01*
X038001Y002252D01*
X037981Y002254D01*
X037963Y002260D01*
X037945Y002269D01*
X037930Y002281D01*
X037918Y002296D01*
X037909Y002314D01*
X037903Y002332D01*
X037901Y002352D01*
X037901Y002502D01*
X037951Y002552D01*
X037951Y004452D01*
X037901Y004502D01*
X037901Y004652D01*
X037903Y004672D01*
X037909Y004690D01*
X037918Y004708D01*
X037930Y004723D01*
X037945Y004735D01*
X037963Y004744D01*
X037981Y004750D01*
X038001Y004752D01*
X037981Y004750D01*
X037963Y004744D01*
X037945Y004735D01*
X037930Y004723D01*
X037918Y004708D01*
X037909Y004690D01*
X037903Y004672D01*
X037901Y004652D01*
X037801Y004652D02*
X037801Y004502D01*
X037751Y004452D01*
X037751Y002552D01*
X037801Y002502D01*
X037801Y002352D01*
X037799Y002332D01*
X037793Y002314D01*
X037784Y002296D01*
X037772Y002281D01*
X037757Y002269D01*
X037739Y002260D01*
X037721Y002254D01*
X037701Y002252D01*
X037001Y002252D01*
X036981Y002254D01*
X036963Y002260D01*
X036945Y002269D01*
X036930Y002281D01*
X036918Y002296D01*
X036909Y002314D01*
X036903Y002332D01*
X036901Y002352D01*
X036901Y002502D01*
X036951Y002552D01*
X036951Y004452D01*
X036901Y004502D01*
X036901Y004652D01*
X036903Y004672D01*
X036909Y004690D01*
X036918Y004708D01*
X036930Y004723D01*
X036945Y004735D01*
X036963Y004744D01*
X036981Y004750D01*
X037001Y004752D01*
X037701Y004752D01*
X037721Y004750D01*
X037739Y004744D01*
X037757Y004735D01*
X037772Y004723D01*
X037784Y004708D01*
X037793Y004690D01*
X037799Y004672D01*
X037801Y004652D01*
X037799Y004672D01*
X037793Y004690D01*
X037784Y004708D01*
X037772Y004723D01*
X037757Y004735D01*
X037739Y004744D01*
X037721Y004750D01*
X037701Y004752D01*
X037001Y004752D02*
X036981Y004750D01*
X036963Y004744D01*
X036945Y004735D01*
X036930Y004723D01*
X036918Y004708D01*
X036909Y004690D01*
X036903Y004672D01*
X036901Y004652D01*
X036801Y004652D02*
X036801Y004502D01*
X036751Y004452D01*
X036751Y002552D01*
X036801Y002502D01*
X036801Y002352D01*
X036799Y002332D01*
X036793Y002314D01*
X036784Y002296D01*
X036772Y002281D01*
X036757Y002269D01*
X036739Y002260D01*
X036721Y002254D01*
X036701Y002252D01*
X036001Y002252D01*
X035981Y002254D01*
X035963Y002260D01*
X035945Y002269D01*
X035930Y002281D01*
X035918Y002296D01*
X035909Y002314D01*
X035903Y002332D01*
X035901Y002352D01*
X035901Y002502D01*
X035951Y002552D01*
X035951Y004452D01*
X035901Y004502D01*
X035901Y004652D01*
X035903Y004672D01*
X035909Y004690D01*
X035918Y004708D01*
X035930Y004723D01*
X035945Y004735D01*
X035963Y004744D01*
X035981Y004750D01*
X036001Y004752D01*
X036701Y004752D01*
X036721Y004750D01*
X036739Y004744D01*
X036757Y004735D01*
X036772Y004723D01*
X036784Y004708D01*
X036793Y004690D01*
X036799Y004672D01*
X036801Y004652D01*
X035801Y004652D02*
X035801Y004502D01*
X035751Y004452D01*
X035751Y002552D01*
X035801Y002502D01*
X035801Y002352D01*
X035799Y002332D01*
X035793Y002314D01*
X035784Y002296D01*
X035772Y002281D01*
X035757Y002269D01*
X035739Y002260D01*
X035721Y002254D01*
X035701Y002252D01*
X035001Y002252D01*
X034981Y002254D01*
X034963Y002260D01*
X034945Y002269D01*
X034930Y002281D01*
X034918Y002296D01*
X034909Y002314D01*
X034903Y002332D01*
X034901Y002352D01*
X034901Y002502D01*
X034951Y002552D01*
X034951Y004452D01*
X034901Y004502D01*
X034901Y004652D01*
X034903Y004672D01*
X034909Y004690D01*
X034918Y004708D01*
X034930Y004723D01*
X034945Y004735D01*
X034963Y004744D01*
X034981Y004750D01*
X035001Y004752D01*
X035701Y004752D01*
X035721Y004750D01*
X035739Y004744D01*
X035757Y004735D01*
X035772Y004723D01*
X035784Y004708D01*
X035793Y004690D01*
X035799Y004672D01*
X035801Y004652D01*
X035799Y004672D01*
X035793Y004690D01*
X035784Y004708D01*
X035772Y004723D01*
X035757Y004735D01*
X035739Y004744D01*
X035721Y004750D01*
X035701Y004752D01*
X035001Y004752D02*
X034981Y004750D01*
X034963Y004744D01*
X034945Y004735D01*
X034930Y004723D01*
X034918Y004708D01*
X034909Y004690D01*
X034903Y004672D01*
X034901Y004652D01*
X034801Y004652D02*
X034801Y004502D01*
X034751Y004452D01*
X034751Y002552D01*
X034801Y002502D01*
X034801Y002352D01*
X034799Y002332D01*
X034793Y002314D01*
X034784Y002296D01*
X034772Y002281D01*
X034757Y002269D01*
X034739Y002260D01*
X034721Y002254D01*
X034701Y002252D01*
X034001Y002252D01*
X033981Y002254D01*
X033963Y002260D01*
X033945Y002269D01*
X033930Y002281D01*
X033918Y002296D01*
X033909Y002314D01*
X033903Y002332D01*
X033901Y002352D01*
X033901Y002502D01*
X033951Y002552D01*
X033951Y004452D01*
X033901Y004502D01*
X033901Y004652D01*
X033903Y004672D01*
X033909Y004690D01*
X033918Y004708D01*
X033930Y004723D01*
X033945Y004735D01*
X033963Y004744D01*
X033981Y004750D01*
X034001Y004752D01*
X034701Y004752D01*
X034721Y004750D01*
X034739Y004744D01*
X034757Y004735D01*
X034772Y004723D01*
X034784Y004708D01*
X034793Y004690D01*
X034799Y004672D01*
X034801Y004652D01*
X034799Y004672D01*
X034793Y004690D01*
X034784Y004708D01*
X034772Y004723D01*
X034757Y004735D01*
X034739Y004744D01*
X034721Y004750D01*
X034701Y004752D01*
X034001Y004752D02*
X033981Y004750D01*
X033963Y004744D01*
X033945Y004735D01*
X033930Y004723D01*
X033918Y004708D01*
X033909Y004690D01*
X033903Y004672D01*
X033901Y004652D01*
X032351Y004752D02*
X032351Y003252D01*
X032101Y003002D01*
X031601Y003002D01*
X031351Y003252D01*
X031351Y004752D01*
X031101Y005002D01*
X030601Y005002D01*
X030351Y004752D01*
X030351Y003252D01*
X030101Y003002D01*
X029601Y003002D01*
X029351Y003252D01*
X029351Y004752D01*
X029101Y005002D01*
X028601Y005002D01*
X028351Y004752D01*
X028351Y003252D01*
X028101Y003002D01*
X027601Y003002D01*
X027351Y003252D01*
X027351Y004752D01*
X027101Y005002D01*
X026601Y005002D01*
X026351Y004752D01*
X026351Y003252D01*
X026101Y003002D01*
X025601Y003002D01*
X025351Y003252D01*
X025351Y004752D01*
X025601Y005002D01*
X026101Y005002D01*
X026351Y004752D01*
X027351Y004752D02*
X027601Y005002D01*
X028101Y005002D01*
X028351Y004752D01*
X029351Y004752D02*
X029601Y005002D01*
X030101Y005002D01*
X030351Y004752D01*
X031351Y004752D02*
X031601Y005002D01*
X032101Y005002D01*
X032351Y004752D01*
X031351Y003252D02*
X031101Y003002D01*
X030601Y003002D01*
X030351Y003252D01*
X029351Y003252D02*
X029101Y003002D01*
X028601Y003002D01*
X028351Y003252D01*
X027351Y003252D02*
X027101Y003002D01*
X026601Y003002D01*
X026351Y003252D01*
X025351Y003252D02*
X025101Y003002D01*
X024601Y003002D01*
X024351Y003252D01*
X024351Y004752D01*
X024601Y005002D01*
X025101Y005002D01*
X025351Y004752D01*
X024351Y004752D02*
X024101Y005002D01*
X023601Y005002D01*
X023351Y004752D01*
X023351Y003252D01*
X023101Y003002D01*
X022601Y003002D01*
X022351Y003252D01*
X022101Y003002D01*
X021601Y003002D01*
X021351Y003252D01*
X021351Y004752D01*
X021601Y005002D01*
X022101Y005002D01*
X022351Y004752D01*
X022601Y005002D01*
X023101Y005002D01*
X023351Y004752D01*
X022351Y004752D02*
X022351Y003252D01*
X023351Y003252D02*
X023601Y003002D01*
X024101Y003002D01*
X024351Y003252D01*
X021351Y003252D02*
X021101Y003002D01*
X020601Y003002D01*
X020351Y003252D01*
X020351Y004752D01*
X020601Y005002D01*
X021101Y005002D01*
X021351Y004752D01*
X020351Y004752D02*
X020101Y005002D01*
X019601Y005002D01*
X019351Y004752D01*
X019351Y003252D01*
X019101Y003002D01*
X018601Y003002D01*
X018351Y003252D01*
X018351Y004752D01*
X018601Y005002D01*
X019101Y005002D01*
X019351Y004752D01*
X018351Y004752D02*
X018101Y005002D01*
X017601Y005002D01*
X017351Y004752D01*
X017351Y003252D01*
X017101Y003002D01*
X016601Y003002D01*
X016351Y003252D01*
X016351Y004752D01*
X016601Y005002D01*
X017101Y005002D01*
X017351Y004752D01*
X016351Y004752D02*
X016101Y005002D01*
X015601Y005002D01*
X015351Y004752D01*
X015351Y003252D01*
X015101Y003002D01*
X014601Y003002D01*
X014351Y003252D01*
X014351Y004752D01*
X014601Y005002D01*
X015101Y005002D01*
X015351Y004752D01*
X014351Y004752D02*
X014101Y005002D01*
X013601Y005002D01*
X013351Y004752D01*
X013101Y005002D01*
X012601Y005002D01*
X012351Y004752D01*
X012101Y005002D01*
X011601Y005002D01*
X011351Y004752D01*
X011101Y005002D01*
X010601Y005002D01*
X010351Y004752D01*
X010101Y005002D01*
X009601Y005002D01*
X009351Y004752D01*
X009101Y005002D01*
X008601Y005002D01*
X008351Y004752D01*
X008101Y005002D01*
X007601Y005002D01*
X007351Y004752D01*
X007351Y003252D01*
X007601Y003002D01*
X008101Y003002D01*
X008351Y003252D01*
X008601Y003002D01*
X009101Y003002D01*
X009351Y003252D01*
X009601Y003002D01*
X010101Y003002D01*
X010351Y003252D01*
X010601Y003002D01*
X011101Y003002D01*
X011351Y003252D01*
X011601Y003002D01*
X012101Y003002D01*
X012351Y003252D01*
X012351Y004752D01*
X013351Y004752D02*
X013351Y003252D01*
X013101Y003002D01*
X012601Y003002D01*
X012351Y003252D01*
X013351Y003252D02*
X013601Y003002D01*
X014101Y003002D01*
X014351Y003252D01*
X015351Y003252D02*
X015601Y003002D01*
X016101Y003002D01*
X016351Y003252D01*
X017351Y003252D02*
X017601Y003002D01*
X018101Y003002D01*
X018351Y003252D01*
X019351Y003252D02*
X019601Y003002D01*
X020101Y003002D01*
X020351Y003252D01*
X011351Y003252D02*
X011351Y004752D01*
X010351Y004752D02*
X010351Y003252D01*
X009351Y003252D02*
X009351Y004752D01*
X008351Y004752D02*
X008351Y003252D01*
X005101Y006352D02*
X005101Y006452D01*
X005001Y006452D01*
X005101Y006452D02*
X005101Y006552D01*
X005101Y006452D02*
X005201Y006452D01*
X004601Y007002D02*
X004605Y007093D01*
X004618Y007183D01*
X004638Y007272D01*
X004667Y007358D01*
X004703Y007442D01*
X004747Y007522D01*
X004797Y007597D01*
X004855Y007668D01*
X004918Y007733D01*
X004988Y007792D01*
X005062Y007844D01*
X005141Y007890D01*
X005224Y007928D01*
X005309Y007959D01*
X005398Y007981D01*
X005487Y007996D01*
X005578Y008002D01*
X005669Y008000D01*
X005760Y007989D01*
X005849Y007971D01*
X005936Y007944D01*
X006020Y007910D01*
X006101Y007868D01*
X006178Y007819D01*
X006250Y007763D01*
X006316Y007701D01*
X006377Y007633D01*
X006431Y007560D01*
X006478Y007482D01*
X006518Y007400D01*
X006551Y007315D01*
X006575Y007228D01*
X006592Y007138D01*
X006600Y007048D01*
X006600Y006956D01*
X006592Y006866D01*
X006575Y006776D01*
X006551Y006689D01*
X006518Y006604D01*
X006478Y006522D01*
X006431Y006444D01*
X006377Y006371D01*
X006316Y006303D01*
X006250Y006241D01*
X006178Y006185D01*
X006101Y006136D01*
X006020Y006094D01*
X005936Y006060D01*
X005849Y006033D01*
X005760Y006015D01*
X005669Y006004D01*
X005578Y006002D01*
X005487Y006008D01*
X005398Y006023D01*
X005309Y006045D01*
X005224Y006076D01*
X005141Y006114D01*
X005062Y006160D01*
X004988Y006212D01*
X004918Y006271D01*
X004855Y006336D01*
X004797Y006407D01*
X004747Y006482D01*
X004703Y006562D01*
X004667Y006646D01*
X004638Y006732D01*
X004618Y006821D01*
X004605Y006911D01*
X004601Y007002D01*
X000601Y007302D02*
X000601Y005702D01*
X000801Y017802D02*
X001001Y017802D01*
X001101Y017802D01*
X001101Y022202D02*
X001401Y022202D01*
X001401Y023802D01*
X001101Y023802D01*
X000601Y023802D02*
X000601Y022202D01*
X007351Y022752D02*
X007351Y021252D01*
X007601Y021002D01*
X008101Y021002D01*
X008351Y021252D01*
X008601Y021002D01*
X009101Y021002D01*
X009351Y021252D01*
X009601Y021002D01*
X010101Y021002D01*
X010351Y021252D01*
X010601Y021002D01*
X011101Y021002D01*
X011351Y021252D01*
X011601Y021002D01*
X012101Y021002D01*
X012351Y021252D01*
X012351Y022752D01*
X012101Y023002D01*
X011601Y023002D01*
X011351Y022752D01*
X011101Y023002D01*
X010601Y023002D01*
X010351Y022752D01*
X010101Y023002D01*
X009601Y023002D01*
X009351Y022752D01*
X009101Y023002D01*
X008601Y023002D01*
X008351Y022752D01*
X008101Y023002D01*
X007601Y023002D01*
X007351Y022752D01*
X008351Y022752D02*
X008351Y021252D01*
X009351Y021252D02*
X009351Y022752D01*
X010351Y022752D02*
X010351Y021252D01*
X011351Y021252D02*
X011351Y022752D01*
X012351Y022752D02*
X012601Y023002D01*
X013101Y023002D01*
X013351Y022752D01*
X013351Y021252D01*
X013101Y021002D01*
X012601Y021002D01*
X012351Y021252D01*
X013351Y021252D02*
X013601Y021002D01*
X014101Y021002D01*
X014351Y021252D01*
X014351Y022752D01*
X014601Y023002D01*
X015101Y023002D01*
X015351Y022752D01*
X015351Y021252D01*
X015101Y021002D01*
X014601Y021002D01*
X014351Y021252D01*
X015351Y021252D02*
X015601Y021002D01*
X016101Y021002D01*
X016351Y021252D01*
X016351Y022752D01*
X016601Y023002D01*
X017101Y023002D01*
X017351Y022752D01*
X017351Y021252D01*
X017101Y021002D01*
X016601Y021002D01*
X016351Y021252D01*
X017351Y021252D02*
X017601Y021002D01*
X018101Y021002D01*
X018351Y021252D01*
X018351Y022752D01*
X018601Y023002D01*
X019101Y023002D01*
X019351Y022752D01*
X019351Y021252D01*
X019101Y021002D01*
X018601Y021002D01*
X018351Y021252D01*
X019351Y021252D02*
X019601Y021002D01*
X020101Y021002D01*
X020351Y021252D01*
X020351Y022752D01*
X020601Y023002D01*
X021101Y023002D01*
X021351Y022752D01*
X021351Y021252D01*
X021101Y021002D01*
X020601Y021002D01*
X020351Y021252D01*
X021351Y021252D02*
X021601Y021002D01*
X022101Y021002D01*
X022351Y021252D01*
X022601Y021002D01*
X023101Y021002D01*
X023351Y021252D01*
X023351Y022752D01*
X023601Y023002D01*
X024101Y023002D01*
X024351Y022752D01*
X024351Y021252D01*
X024101Y021002D01*
X023601Y021002D01*
X023351Y021252D01*
X024351Y021252D02*
X024601Y021002D01*
X025101Y021002D01*
X025351Y021252D01*
X025351Y022752D01*
X025601Y023002D01*
X026101Y023002D01*
X026351Y022752D01*
X026351Y021252D01*
X026101Y021002D01*
X025601Y021002D01*
X025351Y021252D01*
X026351Y021252D02*
X026601Y021002D01*
X027101Y021002D01*
X027351Y021252D01*
X027351Y022752D01*
X027101Y023002D01*
X026601Y023002D01*
X026351Y022752D01*
X027351Y022752D02*
X027601Y023002D01*
X028101Y023002D01*
X028351Y022752D01*
X028351Y021252D01*
X028101Y021002D01*
X027601Y021002D01*
X027351Y021252D01*
X028351Y021252D02*
X028601Y021002D01*
X029101Y021002D01*
X029351Y021252D01*
X029351Y022752D01*
X029101Y023002D01*
X028601Y023002D01*
X028351Y022752D01*
X029351Y022752D02*
X029601Y023002D01*
X030101Y023002D01*
X030351Y022752D01*
X030351Y021252D01*
X030101Y021002D01*
X029601Y021002D01*
X029351Y021252D01*
X030351Y021252D02*
X030601Y021002D01*
X031101Y021002D01*
X031351Y021252D01*
X031351Y022752D01*
X031101Y023002D01*
X030601Y023002D01*
X030351Y022752D01*
X031351Y022752D02*
X031601Y023002D01*
X032101Y023002D01*
X032351Y022752D01*
X032351Y021252D01*
X032101Y021002D01*
X031601Y021002D01*
X031351Y021252D01*
X030751Y023802D02*
X029951Y023802D01*
X029931Y023804D01*
X029913Y023810D01*
X029895Y023819D01*
X029880Y023831D01*
X029868Y023846D01*
X029859Y023864D01*
X029853Y023882D01*
X029851Y023902D01*
X029851Y026602D01*
X029853Y026622D01*
X029859Y026640D01*
X029868Y026658D01*
X029880Y026673D01*
X029895Y026685D01*
X029913Y026694D01*
X029931Y026700D01*
X029951Y026702D01*
X030751Y026702D01*
X030771Y026700D01*
X030789Y026694D01*
X030807Y026685D01*
X030822Y026673D01*
X030834Y026658D01*
X030843Y026640D01*
X030849Y026622D01*
X030851Y026602D01*
X030851Y023902D01*
X030849Y023882D01*
X030843Y023864D01*
X030834Y023846D01*
X030822Y023831D01*
X030807Y023819D01*
X030789Y023810D01*
X030771Y023804D01*
X030751Y023802D01*
X030351Y024702D02*
X030351Y025132D01*
X030351Y025382D02*
X030351Y025802D01*
X026201Y028702D02*
X025701Y028702D01*
X025951Y028452D02*
X025951Y028952D01*
X023001Y028102D02*
X023001Y030902D01*
X036651Y030902D01*
X038751Y030902D01*
X038751Y028102D01*
X036651Y028102D01*
X036651Y030902D01*
X035451Y028702D02*
X034951Y028702D01*
X036651Y028102D02*
X023001Y028102D01*
X022101Y028502D02*
X021851Y028252D01*
X021351Y028252D01*
X021101Y028502D01*
X021101Y029002D01*
X021351Y029252D01*
X021101Y029502D01*
X021101Y030002D01*
X021351Y030252D01*
X021851Y030252D01*
X022101Y030002D01*
X022101Y029502D01*
X021851Y029252D01*
X022101Y029002D01*
X022101Y028502D01*
X021851Y029252D02*
X021351Y029252D01*
X019351Y030602D02*
X019301Y030652D01*
X019201Y030752D01*
X018751Y030752D01*
X018651Y030652D01*
X019301Y030652D01*
X019351Y030602D02*
X019351Y024402D01*
X018601Y024402D01*
X018601Y024602D01*
X018601Y030502D01*
X018601Y030602D01*
X018251Y030602D01*
X018251Y030502D01*
X018601Y030502D01*
X018601Y030602D02*
X018651Y030652D01*
X018251Y030602D02*
X018201Y030652D01*
X007401Y030652D01*
X007501Y030752D01*
X018101Y030752D01*
X018201Y030652D01*
X018251Y030502D02*
X018251Y024602D01*
X018601Y024602D01*
X018601Y024402D02*
X018251Y024402D01*
X007351Y024402D01*
X007501Y024252D01*
X018101Y024252D01*
X018251Y024402D01*
X018251Y024602D01*
X018601Y024402D02*
X018751Y024252D01*
X019201Y024252D01*
X019351Y024402D01*
X019601Y023002D02*
X020101Y023002D01*
X020351Y022752D01*
X019601Y023002D02*
X019351Y022752D01*
X018351Y022752D02*
X018101Y023002D01*
X017601Y023002D01*
X017351Y022752D01*
X016351Y022752D02*
X016101Y023002D01*
X015601Y023002D01*
X015351Y022752D01*
X014351Y022752D02*
X014101Y023002D01*
X013601Y023002D01*
X013351Y022752D01*
X017201Y026902D02*
X017401Y026902D01*
X017401Y027502D01*
X017851Y027502D01*
X017701Y027302D02*
X017701Y027002D01*
X017851Y027152D02*
X017551Y027152D01*
X017401Y027502D02*
X017401Y028102D01*
X017201Y028102D01*
X017201Y026902D01*
X016851Y027502D02*
X007801Y027502D01*
X007351Y024402D02*
X007351Y030602D01*
X007401Y030652D01*
X001101Y027802D02*
X001001Y027802D01*
X000801Y027802D01*
X000801Y027202D02*
X001001Y027202D01*
X001101Y027202D01*
X021351Y022752D02*
X021601Y023002D01*
X022101Y023002D01*
X022351Y022752D01*
X022601Y023002D01*
X023101Y023002D01*
X023351Y022752D01*
X024351Y022752D02*
X024601Y023002D01*
X025101Y023002D01*
X025351Y022752D01*
X022351Y022752D02*
X022351Y021252D01*
X030851Y018002D02*
X030855Y018093D01*
X030868Y018183D01*
X030888Y018272D01*
X030917Y018358D01*
X030953Y018442D01*
X030997Y018522D01*
X031047Y018597D01*
X031105Y018668D01*
X031168Y018733D01*
X031238Y018792D01*
X031312Y018844D01*
X031391Y018890D01*
X031474Y018928D01*
X031559Y018959D01*
X031648Y018981D01*
X031737Y018996D01*
X031828Y019002D01*
X031919Y019000D01*
X032010Y018989D01*
X032099Y018971D01*
X032186Y018944D01*
X032270Y018910D01*
X032351Y018868D01*
X032428Y018819D01*
X032500Y018763D01*
X032566Y018701D01*
X032627Y018633D01*
X032681Y018560D01*
X032728Y018482D01*
X032768Y018400D01*
X032801Y018315D01*
X032825Y018228D01*
X032842Y018138D01*
X032850Y018048D01*
X032850Y017956D01*
X032842Y017866D01*
X032825Y017776D01*
X032801Y017689D01*
X032768Y017604D01*
X032728Y017522D01*
X032681Y017444D01*
X032627Y017371D01*
X032566Y017303D01*
X032500Y017241D01*
X032428Y017185D01*
X032351Y017136D01*
X032270Y017094D01*
X032186Y017060D01*
X032099Y017033D01*
X032010Y017015D01*
X031919Y017004D01*
X031828Y017002D01*
X031737Y017008D01*
X031648Y017023D01*
X031559Y017045D01*
X031474Y017076D01*
X031391Y017114D01*
X031312Y017160D01*
X031238Y017212D01*
X031168Y017271D01*
X031105Y017336D01*
X031047Y017407D01*
X030997Y017482D01*
X030953Y017562D01*
X030917Y017646D01*
X030888Y017732D01*
X030868Y017821D01*
X030855Y017911D01*
X030851Y018002D01*
X032251Y018552D02*
X032351Y018552D01*
X032451Y018552D01*
X032351Y018552D02*
X032351Y018452D01*
X032351Y018552D02*
X032351Y018652D01*
X033351Y015902D02*
X033351Y015802D01*
X033451Y015802D01*
X033351Y015802D02*
X033351Y015702D01*
X033351Y015802D02*
X033251Y015802D01*
X031851Y015252D02*
X031855Y015343D01*
X031868Y015433D01*
X031888Y015522D01*
X031917Y015608D01*
X031953Y015692D01*
X031997Y015772D01*
X032047Y015847D01*
X032105Y015918D01*
X032168Y015983D01*
X032238Y016042D01*
X032312Y016094D01*
X032391Y016140D01*
X032474Y016178D01*
X032559Y016209D01*
X032648Y016231D01*
X032737Y016246D01*
X032828Y016252D01*
X032919Y016250D01*
X033010Y016239D01*
X033099Y016221D01*
X033186Y016194D01*
X033270Y016160D01*
X033351Y016118D01*
X033428Y016069D01*
X033500Y016013D01*
X033566Y015951D01*
X033627Y015883D01*
X033681Y015810D01*
X033728Y015732D01*
X033768Y015650D01*
X033801Y015565D01*
X033825Y015478D01*
X033842Y015388D01*
X033850Y015298D01*
X033850Y015206D01*
X033842Y015116D01*
X033825Y015026D01*
X033801Y014939D01*
X033768Y014854D01*
X033728Y014772D01*
X033681Y014694D01*
X033627Y014621D01*
X033566Y014553D01*
X033500Y014491D01*
X033428Y014435D01*
X033351Y014386D01*
X033270Y014344D01*
X033186Y014310D01*
X033099Y014283D01*
X033010Y014265D01*
X032919Y014254D01*
X032828Y014252D01*
X032737Y014258D01*
X032648Y014273D01*
X032559Y014295D01*
X032474Y014326D01*
X032391Y014364D01*
X032312Y014410D01*
X032238Y014462D01*
X032168Y014521D01*
X032105Y014586D01*
X032047Y014657D01*
X031997Y014732D01*
X031953Y014812D01*
X031917Y014896D01*
X031888Y014982D01*
X031868Y015071D01*
X031855Y015161D01*
X031851Y015252D01*
X037801Y012552D02*
X038101Y012552D01*
X038601Y012552D02*
X038601Y010952D01*
X038401Y014452D02*
X038201Y014452D01*
X038101Y014452D01*
X039101Y018452D02*
X044001Y018452D01*
X044001Y018802D01*
X044601Y018802D01*
X044601Y018452D01*
X045351Y018452D01*
X045351Y022552D01*
X044601Y022552D01*
X044601Y022202D01*
X044001Y022202D01*
X044001Y022552D01*
X039101Y022552D01*
X039101Y018452D01*
X043291Y020502D02*
X043294Y020567D01*
X043303Y020631D01*
X043317Y020694D01*
X043338Y020755D01*
X043363Y020814D01*
X043394Y020871D01*
X043430Y020925D01*
X043471Y020975D01*
X043516Y021021D01*
X043566Y021063D01*
X043618Y021100D01*
X043674Y021132D01*
X043733Y021159D01*
X043794Y021181D01*
X043857Y021197D01*
X043920Y021207D01*
X043985Y021212D01*
X044049Y021210D01*
X044114Y021203D01*
X044177Y021190D01*
X044239Y021171D01*
X044299Y021147D01*
X044356Y021117D01*
X044410Y021082D01*
X044461Y021042D01*
X044509Y020998D01*
X044552Y020950D01*
X044590Y020898D01*
X044624Y020843D01*
X044652Y020785D01*
X044675Y020724D01*
X044693Y020662D01*
X044704Y020599D01*
X044710Y020534D01*
X044710Y020470D01*
X044704Y020405D01*
X044693Y020342D01*
X044675Y020280D01*
X044652Y020219D01*
X044624Y020161D01*
X044590Y020106D01*
X044552Y020054D01*
X044509Y020006D01*
X044461Y019962D01*
X044410Y019922D01*
X044356Y019887D01*
X044299Y019857D01*
X044239Y019833D01*
X044177Y019814D01*
X044114Y019801D01*
X044049Y019794D01*
X043985Y019792D01*
X043920Y019797D01*
X043857Y019807D01*
X043794Y019823D01*
X043733Y019845D01*
X043674Y019872D01*
X043618Y019904D01*
X043566Y019941D01*
X043516Y019983D01*
X043471Y020029D01*
X043430Y020079D01*
X043394Y020133D01*
X043363Y020190D01*
X043338Y020249D01*
X043317Y020310D01*
X043303Y020373D01*
X043294Y020437D01*
X043291Y020502D01*
X044001Y022952D02*
X044001Y023302D01*
X044601Y023302D01*
X044601Y022952D01*
X045351Y022952D01*
X045351Y027052D01*
X044601Y027052D01*
X044601Y026702D01*
X044001Y026702D01*
X044001Y027052D01*
X039101Y027052D01*
X039101Y022952D01*
X044001Y022952D01*
X043291Y025002D02*
X043294Y025067D01*
X043303Y025131D01*
X043317Y025194D01*
X043338Y025255D01*
X043363Y025314D01*
X043394Y025371D01*
X043430Y025425D01*
X043471Y025475D01*
X043516Y025521D01*
X043566Y025563D01*
X043618Y025600D01*
X043674Y025632D01*
X043733Y025659D01*
X043794Y025681D01*
X043857Y025697D01*
X043920Y025707D01*
X043985Y025712D01*
X044049Y025710D01*
X044114Y025703D01*
X044177Y025690D01*
X044239Y025671D01*
X044299Y025647D01*
X044356Y025617D01*
X044410Y025582D01*
X044461Y025542D01*
X044509Y025498D01*
X044552Y025450D01*
X044590Y025398D01*
X044624Y025343D01*
X044652Y025285D01*
X044675Y025224D01*
X044693Y025162D01*
X044704Y025099D01*
X044710Y025034D01*
X044710Y024970D01*
X044704Y024905D01*
X044693Y024842D01*
X044675Y024780D01*
X044652Y024719D01*
X044624Y024661D01*
X044590Y024606D01*
X044552Y024554D01*
X044509Y024506D01*
X044461Y024462D01*
X044410Y024422D01*
X044356Y024387D01*
X044299Y024357D01*
X044239Y024333D01*
X044177Y024314D01*
X044114Y024301D01*
X044049Y024294D01*
X043985Y024292D01*
X043920Y024297D01*
X043857Y024307D01*
X043794Y024323D01*
X043733Y024345D01*
X043674Y024372D01*
X043618Y024404D01*
X043566Y024441D01*
X043516Y024483D01*
X043471Y024529D01*
X043430Y024579D01*
X043394Y024633D01*
X043363Y024690D01*
X043338Y024749D01*
X043317Y024810D01*
X043303Y024873D01*
X043294Y024937D01*
X043291Y025002D01*
X038701Y004752D02*
X038721Y004750D01*
X038739Y004744D01*
X038757Y004735D01*
X038772Y004723D01*
X038784Y004708D01*
X038793Y004690D01*
X038799Y004672D01*
X038801Y004652D01*
X038801Y002352D02*
X038799Y002332D01*
X038793Y002314D01*
X038784Y002296D01*
X038772Y002281D01*
X038757Y002269D01*
X038739Y002260D01*
X038721Y002254D01*
X038701Y002252D01*
X038001Y002252D02*
X037981Y002254D01*
X037963Y002260D01*
X037945Y002269D01*
X037930Y002281D01*
X037918Y002296D01*
X037909Y002314D01*
X037903Y002332D01*
X037901Y002352D01*
X037801Y002352D02*
X037799Y002332D01*
X037793Y002314D01*
X037784Y002296D01*
X037772Y002281D01*
X037757Y002269D01*
X037739Y002260D01*
X037721Y002254D01*
X037701Y002252D01*
X037001Y002252D02*
X036981Y002254D01*
X036963Y002260D01*
X036945Y002269D01*
X036930Y002281D01*
X036918Y002296D01*
X036909Y002314D01*
X036903Y002332D01*
X036901Y002352D01*
X035801Y002352D02*
X035799Y002332D01*
X035793Y002314D01*
X035784Y002296D01*
X035772Y002281D01*
X035757Y002269D01*
X035739Y002260D01*
X035721Y002254D01*
X035701Y002252D01*
X035001Y002252D02*
X034981Y002254D01*
X034963Y002260D01*
X034945Y002269D01*
X034930Y002281D01*
X034918Y002296D01*
X034909Y002314D01*
X034903Y002332D01*
X034901Y002352D01*
X034801Y002352D02*
X034799Y002332D01*
X034793Y002314D01*
X034784Y002296D01*
X034772Y002281D01*
X034757Y002269D01*
X034739Y002260D01*
X034721Y002254D01*
X034701Y002252D01*
X034001Y002252D02*
X033981Y002254D01*
X033963Y002260D01*
X033945Y002269D01*
X033930Y002281D01*
X033918Y002296D01*
X033909Y002314D01*
X033903Y002332D01*
X033901Y002352D01*
D11*
X030691Y006412D02*
X030691Y006706D01*
X030691Y006559D02*
X030250Y006559D01*
X030397Y006412D01*
X029441Y006422D02*
X029441Y006716D01*
X029441Y006569D02*
X029000Y006569D01*
X029147Y006422D01*
X029221Y006882D02*
X029221Y007102D01*
X029294Y007176D01*
X029367Y007176D01*
X029441Y007102D01*
X029441Y006956D01*
X029367Y006882D01*
X029221Y006882D01*
X029074Y007029D01*
X029000Y007176D01*
X026691Y006706D02*
X026691Y006412D01*
X026691Y006559D02*
X026250Y006559D01*
X026397Y006412D01*
X025441Y006422D02*
X025441Y006716D01*
X025441Y006569D02*
X025000Y006569D01*
X025147Y006422D01*
X025221Y006882D02*
X025221Y007102D01*
X025294Y007176D01*
X025367Y007176D01*
X025441Y007102D01*
X025441Y006956D01*
X025367Y006882D01*
X025221Y006882D01*
X025074Y007029D01*
X025000Y007176D01*
X022691Y006706D02*
X022691Y006412D01*
X022691Y006559D02*
X022250Y006559D01*
X022397Y006412D01*
X021441Y006422D02*
X021441Y006716D01*
X021441Y006569D02*
X021000Y006569D01*
X021147Y006422D01*
X021221Y006882D02*
X021221Y007102D01*
X021294Y007176D01*
X021367Y007176D01*
X021441Y007102D01*
X021441Y006956D01*
X021367Y006882D01*
X021221Y006882D01*
X021074Y007029D01*
X021000Y007176D01*
X018691Y006706D02*
X018691Y006412D01*
X018691Y006559D02*
X018250Y006559D01*
X018397Y006412D01*
X017441Y006422D02*
X017441Y006716D01*
X017441Y006569D02*
X017000Y006569D01*
X017147Y006422D01*
X017221Y006882D02*
X017221Y007102D01*
X017294Y007176D01*
X017367Y007176D01*
X017441Y007102D01*
X017441Y006956D01*
X017367Y006882D01*
X017221Y006882D01*
X017074Y007029D01*
X017000Y007176D01*
X014691Y006706D02*
X014691Y006412D01*
X014691Y006559D02*
X014250Y006559D01*
X014397Y006412D01*
X013441Y006422D02*
X013441Y006716D01*
X013441Y006569D02*
X013000Y006569D01*
X013147Y006422D01*
X013221Y006882D02*
X013221Y007102D01*
X013294Y007176D01*
X013367Y007176D01*
X013441Y007102D01*
X013441Y006956D01*
X013367Y006882D01*
X013221Y006882D01*
X013074Y007029D01*
X013000Y007176D01*
X010691Y006706D02*
X010691Y006412D01*
X010691Y006559D02*
X010250Y006559D01*
X010397Y006412D01*
X009441Y006422D02*
X009441Y006716D01*
X009441Y006569D02*
X009000Y006569D01*
X009147Y006422D01*
X009221Y006882D02*
X009221Y007102D01*
X009294Y007176D01*
X009367Y007176D01*
X009441Y007102D01*
X009441Y006956D01*
X009367Y006882D01*
X009221Y006882D01*
X009074Y007029D01*
X009000Y007176D01*
X003071Y010572D02*
X002777Y010865D01*
X002704Y010865D01*
X002630Y010792D01*
X002630Y010645D01*
X002704Y010572D01*
X003071Y010572D02*
X003071Y010865D01*
X002071Y010865D02*
X002071Y010572D01*
X002071Y010718D02*
X001630Y010718D01*
X001777Y010572D01*
X001147Y006765D02*
X001074Y006765D01*
X001001Y006692D01*
X001001Y006472D01*
X001147Y006472D01*
X001221Y006545D01*
X001221Y006692D01*
X001147Y006765D01*
X000854Y006618D02*
X001001Y006472D01*
X000854Y006618D02*
X000780Y006765D01*
X000780Y006158D02*
X001221Y006158D01*
X001221Y006011D02*
X001221Y006305D01*
X000927Y006011D02*
X000780Y006158D01*
X009000Y013355D02*
X009074Y013282D01*
X009147Y013282D01*
X009221Y013355D01*
X009221Y013576D01*
X009367Y013576D02*
X009074Y013576D01*
X009000Y013502D01*
X009000Y013355D01*
X009367Y013282D02*
X009441Y013355D01*
X009441Y013502D01*
X009367Y013576D01*
X010250Y013502D02*
X010250Y013355D01*
X010324Y013282D01*
X010397Y013282D01*
X010471Y013355D01*
X010471Y013502D01*
X010544Y013576D01*
X010617Y013576D01*
X010691Y013502D01*
X010691Y013355D01*
X010617Y013282D01*
X010544Y013282D01*
X010471Y013355D01*
X010471Y013502D02*
X010397Y013576D01*
X010324Y013576D01*
X010250Y013502D01*
X013000Y013502D02*
X013000Y013355D01*
X013074Y013282D01*
X013147Y013282D01*
X013221Y013355D01*
X013221Y013576D01*
X013367Y013576D02*
X013074Y013576D01*
X013000Y013502D01*
X013367Y013576D02*
X013441Y013502D01*
X013441Y013355D01*
X013367Y013282D01*
X014250Y013355D02*
X014250Y013502D01*
X014324Y013576D01*
X014397Y013576D01*
X014471Y013502D01*
X014471Y013355D01*
X014397Y013282D01*
X014324Y013282D01*
X014250Y013355D01*
X014471Y013355D02*
X014544Y013282D01*
X014617Y013282D01*
X014691Y013355D01*
X014691Y013502D01*
X014617Y013576D01*
X014544Y013576D01*
X014471Y013502D01*
X017000Y013502D02*
X017000Y013355D01*
X017074Y013282D01*
X017147Y013282D01*
X017221Y013355D01*
X017221Y013576D01*
X017367Y013576D02*
X017074Y013576D01*
X017000Y013502D01*
X017367Y013576D02*
X017441Y013502D01*
X017441Y013355D01*
X017367Y013282D01*
X018250Y013355D02*
X018250Y013502D01*
X018324Y013576D01*
X018397Y013576D01*
X018471Y013502D01*
X018471Y013355D01*
X018397Y013282D01*
X018324Y013282D01*
X018250Y013355D01*
X018471Y013355D02*
X018544Y013282D01*
X018617Y013282D01*
X018691Y013355D01*
X018691Y013502D01*
X018617Y013576D01*
X018544Y013576D01*
X018471Y013502D01*
X021000Y013502D02*
X021000Y013355D01*
X021074Y013282D01*
X021147Y013282D01*
X021221Y013355D01*
X021221Y013576D01*
X021367Y013576D02*
X021074Y013576D01*
X021000Y013502D01*
X021367Y013576D02*
X021441Y013502D01*
X021441Y013355D01*
X021367Y013282D01*
X022250Y013355D02*
X022250Y013502D01*
X022324Y013576D01*
X022397Y013576D01*
X022471Y013502D01*
X022471Y013355D01*
X022397Y013282D01*
X022324Y013282D01*
X022250Y013355D01*
X022471Y013355D02*
X022544Y013282D01*
X022617Y013282D01*
X022691Y013355D01*
X022691Y013502D01*
X022617Y013576D01*
X022544Y013576D01*
X022471Y013502D01*
X025000Y013502D02*
X025000Y013355D01*
X025074Y013282D01*
X025147Y013282D01*
X025221Y013355D01*
X025221Y013576D01*
X025367Y013576D02*
X025074Y013576D01*
X025000Y013502D01*
X025367Y013576D02*
X025441Y013502D01*
X025441Y013355D01*
X025367Y013282D01*
X026250Y013355D02*
X026250Y013502D01*
X026324Y013576D01*
X026397Y013576D01*
X026471Y013502D01*
X026471Y013355D01*
X026397Y013282D01*
X026324Y013282D01*
X026250Y013355D01*
X026471Y013355D02*
X026544Y013282D01*
X026617Y013282D01*
X026691Y013355D01*
X026691Y013502D01*
X026617Y013576D01*
X026544Y013576D01*
X026471Y013502D01*
X029000Y013502D02*
X029000Y013355D01*
X029074Y013282D01*
X029147Y013282D01*
X029221Y013355D01*
X029221Y013576D01*
X029367Y013576D02*
X029074Y013576D01*
X029000Y013502D01*
X029367Y013576D02*
X029441Y013502D01*
X029441Y013355D01*
X029367Y013282D01*
X030250Y013355D02*
X030250Y013502D01*
X030324Y013576D01*
X030397Y013576D01*
X030471Y013502D01*
X030471Y013355D01*
X030397Y013282D01*
X030324Y013282D01*
X030250Y013355D01*
X030471Y013355D02*
X030544Y013282D01*
X030617Y013282D01*
X030691Y013355D01*
X030691Y013502D01*
X030617Y013576D01*
X030544Y013576D01*
X030471Y013502D01*
X029751Y016152D02*
X029604Y016152D01*
X029530Y016225D01*
X029530Y016372D01*
X029751Y016372D01*
X029824Y016299D01*
X029824Y016225D01*
X029751Y016152D01*
X029530Y016372D02*
X029677Y016519D01*
X029824Y016592D01*
X029217Y016592D02*
X029217Y016152D01*
X029070Y016152D02*
X029364Y016152D01*
X029070Y016446D02*
X029217Y016592D01*
X029540Y017402D02*
X029834Y017402D01*
X029687Y017402D02*
X029687Y017842D01*
X029540Y017696D01*
X022964Y017696D02*
X022891Y017622D01*
X022744Y017622D01*
X022670Y017696D01*
X022670Y017769D01*
X022744Y017842D01*
X022891Y017842D01*
X022964Y017769D01*
X022964Y017696D01*
X022891Y017622D02*
X022964Y017549D01*
X022964Y017475D01*
X022891Y017402D01*
X022744Y017402D01*
X022670Y017475D01*
X022670Y017549D01*
X022744Y017622D01*
X022744Y016592D02*
X022670Y016519D01*
X022670Y016446D01*
X022744Y016372D01*
X022964Y016372D01*
X022964Y016225D02*
X022964Y016519D01*
X022891Y016592D01*
X022744Y016592D01*
X022670Y016225D02*
X022744Y016152D01*
X022891Y016152D01*
X022964Y016225D01*
X021324Y016225D02*
X021324Y016299D01*
X021251Y016372D01*
X021030Y016372D01*
X021030Y016225D01*
X021104Y016152D01*
X021251Y016152D01*
X021324Y016225D01*
X021177Y016519D02*
X021030Y016372D01*
X021177Y016519D02*
X021324Y016592D01*
X020717Y016592D02*
X020570Y016446D01*
X020717Y016592D02*
X020717Y016152D01*
X020570Y016152D02*
X020864Y016152D01*
X021040Y017402D02*
X021334Y017402D01*
X021187Y017402D02*
X021187Y017842D01*
X021040Y017696D01*
X014464Y017696D02*
X014391Y017622D01*
X014244Y017622D01*
X014170Y017696D01*
X014170Y017769D01*
X014244Y017842D01*
X014391Y017842D01*
X014464Y017769D01*
X014464Y017696D01*
X014391Y017622D02*
X014464Y017549D01*
X014464Y017475D01*
X014391Y017402D01*
X014244Y017402D01*
X014170Y017475D01*
X014170Y017549D01*
X014244Y017622D01*
X014244Y016592D02*
X014170Y016519D01*
X014170Y016446D01*
X014244Y016372D01*
X014464Y016372D01*
X014464Y016225D02*
X014464Y016519D01*
X014391Y016592D01*
X014244Y016592D01*
X014170Y016225D02*
X014244Y016152D01*
X014391Y016152D01*
X014464Y016225D01*
X012824Y016225D02*
X012824Y016299D01*
X012751Y016372D01*
X012530Y016372D01*
X012530Y016225D01*
X012604Y016152D01*
X012751Y016152D01*
X012824Y016225D01*
X012677Y016519D02*
X012530Y016372D01*
X012677Y016519D02*
X012824Y016592D01*
X012217Y016592D02*
X012217Y016152D01*
X012070Y016152D02*
X012364Y016152D01*
X012070Y016446D02*
X012217Y016592D01*
X012540Y017402D02*
X012834Y017402D01*
X012687Y017402D02*
X012687Y017842D01*
X012540Y017696D01*
X005964Y017696D02*
X005891Y017622D01*
X005744Y017622D01*
X005670Y017696D01*
X005670Y017769D01*
X005744Y017842D01*
X005891Y017842D01*
X005964Y017769D01*
X005964Y017696D01*
X005891Y017622D02*
X005964Y017549D01*
X005964Y017475D01*
X005891Y017402D01*
X005744Y017402D01*
X005670Y017475D01*
X005670Y017549D01*
X005744Y017622D01*
X005744Y016592D02*
X005670Y016519D01*
X005670Y016446D01*
X005744Y016372D01*
X005964Y016372D01*
X005964Y016225D02*
X005964Y016519D01*
X005891Y016592D01*
X005744Y016592D01*
X005670Y016225D02*
X005744Y016152D01*
X005891Y016152D01*
X005964Y016225D01*
X001221Y022511D02*
X000927Y022805D01*
X000854Y022805D01*
X000780Y022731D01*
X000780Y022585D01*
X000854Y022511D01*
X001221Y022511D02*
X001221Y022805D01*
X001147Y022972D02*
X001221Y023045D01*
X001221Y023192D01*
X001147Y023265D01*
X001074Y023265D01*
X001001Y023192D01*
X001001Y022972D01*
X001147Y022972D01*
X001001Y022972D02*
X000854Y023118D01*
X000780Y023265D01*
X001777Y029572D02*
X001630Y029718D01*
X002071Y029718D01*
X002071Y029572D02*
X002071Y029865D01*
X002630Y029792D02*
X002630Y029645D01*
X002704Y029572D01*
X002630Y029792D02*
X002704Y029865D01*
X002777Y029865D01*
X003071Y029572D01*
X003071Y029865D01*
X007579Y030032D02*
X007872Y030032D01*
X007726Y030032D02*
X007726Y030472D01*
X007579Y030326D01*
X008039Y030252D02*
X008259Y030252D01*
X008333Y030179D01*
X008333Y030105D01*
X008259Y030032D01*
X008113Y030032D01*
X008039Y030105D01*
X008039Y030252D01*
X008186Y030399D01*
X008333Y030472D01*
X008500Y030326D02*
X008793Y030032D01*
X008960Y030105D02*
X009033Y030032D01*
X009180Y030032D01*
X009254Y030105D01*
X009254Y030179D01*
X009180Y030252D01*
X009107Y030252D01*
X009180Y030252D02*
X009254Y030326D01*
X009254Y030399D01*
X009180Y030472D01*
X009033Y030472D01*
X008960Y030399D01*
X008793Y030326D02*
X008500Y030032D01*
X009420Y030105D02*
X009714Y030399D01*
X009714Y030105D01*
X009640Y030032D01*
X009494Y030032D01*
X009420Y030105D01*
X009420Y030399D01*
X009494Y030472D01*
X009640Y030472D01*
X009714Y030399D01*
X037980Y012136D02*
X038054Y011989D01*
X038201Y011842D01*
X038201Y012062D01*
X038274Y012136D01*
X038347Y012136D01*
X038421Y012062D01*
X038421Y011916D01*
X038347Y011842D01*
X038201Y011842D01*
X038421Y011676D02*
X038421Y011382D01*
X038421Y011529D02*
X037980Y011529D01*
X038127Y011382D01*
X037571Y007576D02*
X037571Y007282D01*
X037571Y007429D02*
X037130Y007429D01*
X037277Y007282D01*
X036571Y007282D02*
X036571Y007576D01*
X036571Y007282D02*
X036277Y007576D01*
X036204Y007576D01*
X036130Y007502D01*
X036130Y007355D01*
X036204Y007282D01*
D12*
X034566Y007480D02*
X034477Y007392D01*
X034566Y007480D02*
X034566Y007657D01*
X034477Y007745D01*
X034389Y007745D01*
X034301Y007657D01*
X034301Y007569D01*
X034301Y007657D02*
X034212Y007745D01*
X034124Y007745D01*
X034035Y007657D01*
X034035Y007480D01*
X034124Y007392D01*
X034035Y007193D02*
X034035Y006839D01*
X034035Y007016D02*
X034566Y007016D01*
X034477Y006641D02*
X034566Y006552D01*
X034566Y006375D01*
X034477Y006287D01*
X034301Y006375D02*
X034212Y006287D01*
X034124Y006287D01*
X034035Y006375D01*
X034035Y006552D01*
X034124Y006641D01*
X034301Y006552D02*
X034389Y006641D01*
X034477Y006641D01*
X034301Y006552D02*
X034301Y006375D01*
X032977Y004745D02*
X032801Y004745D01*
X032712Y004657D01*
X032712Y004569D01*
X032801Y004392D01*
X032535Y004392D01*
X032535Y004745D01*
X032977Y004745D02*
X033066Y004657D01*
X033066Y004480D01*
X032977Y004392D01*
X032977Y004193D02*
X032535Y004193D01*
X032535Y003839D02*
X032977Y003839D01*
X033066Y003928D01*
X033066Y004105D01*
X032977Y004193D01*
X032977Y003641D02*
X033066Y003552D01*
X033066Y003287D01*
X032535Y003287D01*
X032535Y003552D01*
X032624Y003641D01*
X032712Y003641D01*
X032801Y003552D01*
X032801Y003287D01*
X032801Y003552D02*
X032889Y003641D01*
X032977Y003641D01*
X030687Y005327D02*
X030333Y005327D01*
X030510Y005327D02*
X030510Y005857D01*
X030333Y005681D01*
X030134Y005769D02*
X030046Y005857D01*
X029869Y005857D01*
X029781Y005769D01*
X029781Y005415D01*
X029869Y005327D01*
X030046Y005327D01*
X030134Y005415D01*
X029589Y005327D02*
X029413Y005327D01*
X029501Y005327D02*
X029501Y005857D01*
X029413Y005857D02*
X029589Y005857D01*
X026687Y005769D02*
X026687Y005681D01*
X026333Y005327D01*
X026687Y005327D01*
X026134Y005415D02*
X026046Y005327D01*
X025869Y005327D01*
X025781Y005415D01*
X025781Y005769D01*
X025869Y005857D01*
X026046Y005857D01*
X026134Y005769D01*
X026333Y005769D02*
X026422Y005857D01*
X026599Y005857D01*
X026687Y005769D01*
X025589Y005857D02*
X025413Y005857D01*
X025501Y005857D02*
X025501Y005327D01*
X025413Y005327D02*
X025589Y005327D01*
X022687Y005415D02*
X022599Y005327D01*
X022422Y005327D01*
X022333Y005415D01*
X022134Y005415D02*
X022046Y005327D01*
X021869Y005327D01*
X021781Y005415D01*
X021781Y005769D01*
X021869Y005857D01*
X022046Y005857D01*
X022134Y005769D01*
X022333Y005769D02*
X022422Y005857D01*
X022599Y005857D01*
X022687Y005769D01*
X022687Y005681D01*
X022599Y005592D01*
X022687Y005504D01*
X022687Y005415D01*
X022599Y005592D02*
X022510Y005592D01*
X021589Y005327D02*
X021413Y005327D01*
X021501Y005327D02*
X021501Y005857D01*
X021413Y005857D02*
X021589Y005857D01*
X018687Y005592D02*
X018333Y005592D01*
X018599Y005857D01*
X018599Y005327D01*
X018134Y005415D02*
X018046Y005327D01*
X017869Y005327D01*
X017781Y005415D01*
X017781Y005769D01*
X017869Y005857D01*
X018046Y005857D01*
X018134Y005769D01*
X017589Y005857D02*
X017413Y005857D01*
X017501Y005857D02*
X017501Y005327D01*
X017413Y005327D02*
X017589Y005327D01*
X014687Y005415D02*
X014599Y005327D01*
X014422Y005327D01*
X014333Y005415D01*
X014333Y005592D02*
X014510Y005681D01*
X014599Y005681D01*
X014687Y005592D01*
X014687Y005415D01*
X014333Y005592D02*
X014333Y005857D01*
X014687Y005857D01*
X014134Y005769D02*
X014046Y005857D01*
X013869Y005857D01*
X013781Y005769D01*
X013781Y005415D01*
X013869Y005327D01*
X014046Y005327D01*
X014134Y005415D01*
X013589Y005327D02*
X013413Y005327D01*
X013501Y005327D02*
X013501Y005857D01*
X013413Y005857D02*
X013589Y005857D01*
X010687Y005857D02*
X010510Y005769D01*
X010333Y005592D01*
X010599Y005592D01*
X010687Y005504D01*
X010687Y005415D01*
X010599Y005327D01*
X010422Y005327D01*
X010333Y005415D01*
X010333Y005592D01*
X010134Y005415D02*
X010046Y005327D01*
X009869Y005327D01*
X009781Y005415D01*
X009781Y005769D01*
X009869Y005857D01*
X010046Y005857D01*
X010134Y005769D01*
X009589Y005857D02*
X009413Y005857D01*
X009501Y005857D02*
X009501Y005327D01*
X009413Y005327D02*
X009589Y005327D01*
X007366Y006725D02*
X007366Y006902D01*
X007277Y006991D01*
X007277Y007189D02*
X007366Y007278D01*
X007366Y007455D01*
X007277Y007543D01*
X007101Y007543D01*
X007012Y007455D01*
X007012Y007366D01*
X007101Y007189D01*
X006835Y007189D01*
X006835Y007543D01*
X006924Y006991D02*
X006835Y006902D01*
X006835Y006725D01*
X006924Y006637D01*
X007277Y006637D01*
X007366Y006725D01*
X005227Y009537D02*
X005316Y009625D01*
X005316Y009802D01*
X005227Y009891D01*
X005139Y009891D01*
X005051Y009802D01*
X005051Y009625D01*
X004962Y009537D01*
X004874Y009537D01*
X004785Y009625D01*
X004785Y009802D01*
X004874Y009891D01*
X004785Y010089D02*
X004785Y010443D01*
X004785Y010266D02*
X005316Y010266D01*
X005316Y010642D02*
X005316Y010995D01*
X005316Y010819D02*
X004785Y010819D01*
X004962Y010642D01*
X006924Y012637D02*
X006835Y012725D01*
X006835Y012902D01*
X006924Y012991D01*
X007101Y013189D02*
X007101Y013455D01*
X007189Y013543D01*
X007277Y013543D01*
X007366Y013455D01*
X007366Y013278D01*
X007277Y013189D01*
X007101Y013189D01*
X006924Y013366D01*
X006835Y013543D01*
X007277Y012991D02*
X007366Y012902D01*
X007366Y012725D01*
X007277Y012637D01*
X006924Y012637D01*
X011913Y019077D02*
X012089Y019077D01*
X012001Y019077D02*
X012001Y019607D01*
X011913Y019607D02*
X012089Y019607D01*
X012281Y019519D02*
X012281Y019165D01*
X012369Y019077D01*
X012546Y019077D01*
X012634Y019165D01*
X012833Y019165D02*
X012922Y019077D01*
X013099Y019077D01*
X013187Y019165D01*
X013187Y019519D01*
X013099Y019607D01*
X012922Y019607D01*
X012833Y019519D01*
X012833Y019431D01*
X012922Y019342D01*
X013187Y019342D01*
X012634Y019519D02*
X012546Y019607D01*
X012369Y019607D01*
X012281Y019519D01*
X020413Y019607D02*
X020589Y019607D01*
X020501Y019607D02*
X020501Y019077D01*
X020413Y019077D02*
X020589Y019077D01*
X020781Y019165D02*
X020869Y019077D01*
X021046Y019077D01*
X021134Y019165D01*
X021333Y019165D02*
X021333Y019254D01*
X021422Y019342D01*
X021599Y019342D01*
X021687Y019254D01*
X021687Y019165D01*
X021599Y019077D01*
X021422Y019077D01*
X021333Y019165D01*
X021422Y019342D02*
X021333Y019431D01*
X021333Y019519D01*
X021422Y019607D01*
X021599Y019607D01*
X021687Y019519D01*
X021687Y019431D01*
X021599Y019342D01*
X021134Y019519D02*
X021046Y019607D01*
X020869Y019607D01*
X020781Y019519D01*
X020781Y019165D01*
X020677Y025137D02*
X020324Y025137D01*
X020235Y025225D01*
X020235Y025402D01*
X020324Y025491D01*
X020412Y025689D02*
X020235Y025866D01*
X020766Y025866D01*
X020766Y025689D02*
X020766Y026043D01*
X020677Y025491D02*
X020766Y025402D01*
X020766Y025225D01*
X020677Y025137D01*
X021565Y026684D02*
X021565Y026861D01*
X021565Y026772D02*
X022007Y026772D01*
X022096Y026684D01*
X022096Y026595D01*
X022007Y026507D01*
X021919Y027059D02*
X021919Y027325D01*
X021831Y027413D01*
X021654Y027413D01*
X021565Y027325D01*
X021565Y027059D01*
X022096Y027059D01*
X022096Y027612D02*
X022096Y027965D01*
X022096Y027789D02*
X021565Y027789D01*
X021742Y027612D01*
X023185Y027666D02*
X023716Y027666D01*
X023716Y027489D02*
X023716Y027843D01*
X023362Y027489D02*
X023185Y027666D01*
X023274Y027291D02*
X023185Y027202D01*
X023185Y026937D01*
X023716Y026937D01*
X023716Y027202D01*
X023627Y027291D01*
X023539Y027291D01*
X023451Y027202D01*
X023451Y026937D01*
X023451Y027202D02*
X023362Y027291D01*
X023274Y027291D01*
X031285Y025505D02*
X031285Y025328D01*
X031374Y025239D01*
X031374Y025041D02*
X031285Y024952D01*
X031285Y024775D01*
X031374Y024687D01*
X031727Y024687D01*
X031816Y024775D01*
X031816Y024952D01*
X031727Y025041D01*
X031816Y025239D02*
X031462Y025593D01*
X031374Y025593D01*
X031285Y025505D01*
X031816Y025593D02*
X031816Y025239D01*
X032535Y022745D02*
X032624Y022569D01*
X032801Y022392D01*
X032801Y022657D01*
X032889Y022745D01*
X032977Y022745D01*
X033066Y022657D01*
X033066Y022480D01*
X032977Y022392D01*
X032801Y022392D01*
X032977Y022193D02*
X032535Y022193D01*
X032535Y021839D02*
X032977Y021839D01*
X033066Y021928D01*
X033066Y022105D01*
X032977Y022193D01*
X032977Y021641D02*
X033066Y021552D01*
X033066Y021287D01*
X032535Y021287D01*
X032535Y021552D01*
X032624Y021641D01*
X032712Y021641D01*
X032801Y021552D01*
X032801Y021287D01*
X032801Y021552D02*
X032889Y021641D01*
X032977Y021641D01*
X035235Y020855D02*
X035235Y020678D01*
X035324Y020589D01*
X035235Y020391D02*
X035677Y020391D01*
X035766Y020302D01*
X035766Y020125D01*
X035677Y020037D01*
X035235Y020037D01*
X035766Y020589D02*
X035412Y020943D01*
X035324Y020943D01*
X035235Y020855D01*
X035766Y020943D02*
X035766Y020589D01*
X033616Y018455D02*
X033527Y018543D01*
X033439Y018543D01*
X033351Y018455D01*
X033351Y018366D01*
X033351Y018455D02*
X033262Y018543D01*
X033174Y018543D01*
X033085Y018455D01*
X033085Y018278D01*
X033174Y018189D01*
X033174Y017991D02*
X033085Y017902D01*
X033085Y017725D01*
X033174Y017637D01*
X033527Y017637D01*
X033616Y017725D01*
X033616Y017902D01*
X033527Y017991D01*
X033527Y018189D02*
X033616Y018278D01*
X033616Y018455D01*
X030187Y019519D02*
X029833Y019165D01*
X029833Y019077D01*
X029634Y019165D02*
X029546Y019077D01*
X029369Y019077D01*
X029281Y019165D01*
X029281Y019519D01*
X029369Y019607D01*
X029546Y019607D01*
X029634Y019519D01*
X029833Y019607D02*
X030187Y019607D01*
X030187Y019519D01*
X029089Y019607D02*
X028913Y019607D01*
X029001Y019607D02*
X029001Y019077D01*
X028913Y019077D02*
X029089Y019077D01*
X031085Y015705D02*
X031351Y015439D01*
X031351Y015793D01*
X031616Y015705D02*
X031085Y015705D01*
X031174Y015241D02*
X031085Y015152D01*
X031085Y014975D01*
X031174Y014887D01*
X031527Y014887D01*
X031616Y014975D01*
X031616Y015152D01*
X031527Y015241D01*
X033585Y011566D02*
X034116Y011566D01*
X034116Y011389D02*
X034116Y011743D01*
X033762Y011389D02*
X033585Y011566D01*
X033674Y011191D02*
X033585Y011102D01*
X033585Y010837D01*
X034116Y010837D01*
X034116Y011102D01*
X034027Y011191D01*
X033674Y011191D01*
X034466Y001243D02*
X034466Y000889D01*
X034466Y001066D02*
X033935Y001066D01*
X034112Y000889D01*
X034024Y000691D02*
X034201Y000691D01*
X034289Y000602D01*
X034289Y000337D01*
X034289Y000514D02*
X034466Y000691D01*
X034466Y000337D02*
X033935Y000337D01*
X033935Y000602D01*
X034024Y000691D01*
X034935Y000602D02*
X035024Y000691D01*
X035201Y000691D01*
X035289Y000602D01*
X035289Y000337D01*
X035289Y000514D02*
X035466Y000691D01*
X035466Y000889D02*
X035112Y001243D01*
X035024Y001243D01*
X034935Y001155D01*
X034935Y000978D01*
X035024Y000889D01*
X034935Y000602D02*
X034935Y000337D01*
X035466Y000337D01*
X035935Y000337D02*
X035935Y000602D01*
X036024Y000691D01*
X036201Y000691D01*
X036289Y000602D01*
X036289Y000337D01*
X036289Y000514D02*
X036466Y000691D01*
X036377Y000889D02*
X036466Y000978D01*
X036466Y001155D01*
X036377Y001243D01*
X036289Y001243D01*
X036201Y001155D01*
X036201Y001066D01*
X036201Y001155D02*
X036112Y001243D01*
X036024Y001243D01*
X035935Y001155D01*
X035935Y000978D01*
X036024Y000889D01*
X035466Y000889D02*
X035466Y001243D01*
X035935Y000337D02*
X036466Y000337D01*
X036935Y000337D02*
X036935Y000602D01*
X037024Y000691D01*
X037201Y000691D01*
X037289Y000602D01*
X037289Y000337D01*
X037289Y000514D02*
X037466Y000691D01*
X037201Y000889D02*
X037201Y001243D01*
X037466Y001155D02*
X036935Y001155D01*
X037201Y000889D01*
X037466Y000337D02*
X036935Y000337D01*
X037935Y000337D02*
X037935Y000602D01*
X038024Y000691D01*
X038201Y000691D01*
X038289Y000602D01*
X038289Y000337D01*
X038289Y000514D02*
X038466Y000691D01*
X038377Y000889D02*
X038466Y000978D01*
X038466Y001155D01*
X038377Y001243D01*
X038201Y001243D01*
X038112Y001155D01*
X038112Y001066D01*
X038201Y000889D01*
X037935Y000889D01*
X037935Y001243D01*
X037935Y000337D02*
X038466Y000337D01*
X035677Y024537D02*
X035235Y024537D01*
X035235Y024891D02*
X035677Y024891D01*
X035766Y024802D01*
X035766Y024625D01*
X035677Y024537D01*
X035766Y025089D02*
X035766Y025443D01*
X035766Y025266D02*
X035235Y025266D01*
X035412Y025089D01*
X005316Y028142D02*
X005211Y028037D01*
X005316Y028142D02*
X005316Y028352D01*
X005211Y028457D01*
X005106Y028457D01*
X005001Y028352D01*
X005001Y028142D01*
X004895Y028037D01*
X004790Y028037D01*
X004685Y028142D01*
X004685Y028352D01*
X004790Y028457D01*
X004685Y028681D02*
X004685Y029102D01*
X004685Y028892D02*
X005316Y028892D01*
X005316Y029326D02*
X004895Y029746D01*
X004790Y029746D01*
X004685Y029641D01*
X004685Y029431D01*
X004790Y029326D01*
X005316Y029326D02*
X005316Y029746D01*
D13*
X003701Y030602D02*
X001001Y030602D01*
X001001Y027802D01*
X001001Y027202D02*
X001001Y023802D01*
X001001Y022202D02*
X001001Y017802D01*
X001001Y017202D02*
X001001Y015402D01*
X003701Y015402D01*
X003701Y030602D01*
X003701Y011602D02*
X001001Y011602D01*
X003701Y011602D02*
X003701Y001402D01*
X001001Y001402D01*
X001001Y003202D01*
X001001Y003802D02*
X001001Y005702D01*
X034001Y004652D02*
X034701Y004652D01*
X034701Y004552D02*
X034001Y004552D01*
X035001Y004552D02*
X035701Y004552D01*
X035701Y004652D02*
X035001Y004652D01*
X036001Y004652D02*
X036701Y004652D01*
X036701Y004552D02*
X036001Y004552D01*
X037001Y004552D02*
X037701Y004552D01*
X037701Y004652D02*
X037001Y004652D01*
X038001Y004652D02*
X038701Y004652D01*
X038701Y004552D02*
X038001Y004552D01*
X038201Y006652D02*
X035501Y006652D01*
X035501Y016852D01*
X038201Y016852D01*
X038201Y015052D01*
X038201Y014452D02*
X038201Y012552D01*
X039351Y018702D02*
X042601Y018702D01*
X042601Y022302D01*
X039351Y022302D01*
X039351Y018702D01*
X039351Y023202D02*
X042601Y023202D01*
X042601Y026802D01*
X039351Y026802D01*
X039351Y023202D01*
X038701Y002452D02*
X038001Y002452D01*
X038001Y002352D02*
X038701Y002352D01*
X037701Y002352D02*
X037001Y002352D01*
X037001Y002452D02*
X037701Y002452D01*
X036701Y002452D02*
X036001Y002452D01*
X036001Y002352D02*
X036701Y002352D01*
X035701Y002352D02*
X035001Y002352D01*
X035001Y002452D02*
X035701Y002452D01*
X034701Y002452D02*
X034001Y002452D01*
X034001Y002352D02*
X034701Y002352D01*
D14*
X033170Y028706D02*
X033130Y028706D01*
X033131Y028707D02*
X033128Y028733D01*
X033122Y028759D01*
X033112Y028783D01*
X033098Y028806D01*
X033081Y028826D01*
X033062Y028844D01*
X033040Y028859D01*
X033016Y028870D01*
X032990Y028878D01*
X032964Y028882D01*
X032938Y028882D01*
X032912Y028878D01*
X032886Y028870D01*
X032862Y028859D01*
X032840Y028844D01*
X032821Y028826D01*
X032804Y028806D01*
X032790Y028783D01*
X032780Y028759D01*
X032774Y028733D01*
X032771Y028707D01*
X032732Y028706D01*
X032731Y028707D01*
X032734Y028736D01*
X032740Y028765D01*
X032751Y028793D01*
X032765Y028819D01*
X032782Y028843D01*
X032803Y028864D01*
X032826Y028883D01*
X032851Y028898D01*
X032878Y028910D01*
X032907Y028918D01*
X032936Y028922D01*
X032966Y028922D01*
X032995Y028918D01*
X033024Y028910D01*
X033051Y028898D01*
X033076Y028883D01*
X033099Y028864D01*
X033120Y028843D01*
X033137Y028819D01*
X033151Y028793D01*
X033162Y028765D01*
X033168Y028736D01*
X033171Y028707D01*
X033162Y028707D01*
X033159Y028735D01*
X033153Y028763D01*
X033143Y028789D01*
X033130Y028814D01*
X033113Y028837D01*
X033093Y028858D01*
X033071Y028876D01*
X033047Y028890D01*
X033021Y028901D01*
X032993Y028909D01*
X032965Y028913D01*
X032937Y028913D01*
X032909Y028909D01*
X032881Y028901D01*
X032855Y028890D01*
X032831Y028876D01*
X032809Y028858D01*
X032789Y028837D01*
X032772Y028814D01*
X032759Y028789D01*
X032749Y028763D01*
X032743Y028735D01*
X032740Y028707D01*
X032749Y028707D01*
X032752Y028735D01*
X032758Y028763D01*
X032769Y028789D01*
X032783Y028814D01*
X032800Y028836D01*
X032820Y028856D01*
X032843Y028873D01*
X032868Y028886D01*
X032895Y028896D01*
X032923Y028902D01*
X032951Y028904D01*
X032979Y028902D01*
X033007Y028896D01*
X033034Y028886D01*
X033059Y028873D01*
X033082Y028856D01*
X033102Y028836D01*
X033119Y028814D01*
X033133Y028789D01*
X033144Y028763D01*
X033150Y028735D01*
X033153Y028707D01*
X033144Y028707D01*
X033141Y028734D01*
X033135Y028760D01*
X033125Y028785D01*
X033112Y028809D01*
X033095Y028830D01*
X033076Y028849D01*
X033054Y028865D01*
X033030Y028878D01*
X033005Y028887D01*
X032978Y028893D01*
X032951Y028895D01*
X032924Y028893D01*
X032897Y028887D01*
X032872Y028878D01*
X032848Y028865D01*
X032826Y028849D01*
X032807Y028830D01*
X032790Y028809D01*
X032777Y028785D01*
X032767Y028760D01*
X032761Y028734D01*
X032758Y028707D01*
X032767Y028707D01*
X032770Y028734D01*
X032776Y028760D01*
X032787Y028785D01*
X032801Y028808D01*
X032818Y028829D01*
X032838Y028847D01*
X032860Y028862D01*
X032885Y028874D01*
X032911Y028882D01*
X032937Y028886D01*
X032965Y028886D01*
X032991Y028882D01*
X033017Y028874D01*
X033042Y028862D01*
X033064Y028847D01*
X033084Y028829D01*
X033101Y028808D01*
X033115Y028785D01*
X033126Y028760D01*
X033132Y028734D01*
X033135Y028707D01*
X032332Y028698D02*
X032372Y028698D01*
X032371Y028697D02*
X032374Y028671D01*
X032380Y028645D01*
X032390Y028621D01*
X032404Y028598D01*
X032421Y028578D01*
X032440Y028560D01*
X032462Y028545D01*
X032486Y028534D01*
X032512Y028526D01*
X032538Y028522D01*
X032564Y028522D01*
X032590Y028526D01*
X032616Y028534D01*
X032640Y028545D01*
X032662Y028560D01*
X032681Y028578D01*
X032698Y028598D01*
X032712Y028621D01*
X032722Y028645D01*
X032728Y028671D01*
X032731Y028697D01*
X032770Y028698D01*
X032771Y028697D01*
X032768Y028668D01*
X032762Y028639D01*
X032751Y028611D01*
X032737Y028585D01*
X032720Y028561D01*
X032699Y028540D01*
X032676Y028521D01*
X032651Y028506D01*
X032624Y028494D01*
X032595Y028486D01*
X032566Y028482D01*
X032536Y028482D01*
X032507Y028486D01*
X032478Y028494D01*
X032451Y028506D01*
X032426Y028521D01*
X032403Y028540D01*
X032382Y028561D01*
X032365Y028585D01*
X032351Y028611D01*
X032340Y028639D01*
X032334Y028668D01*
X032331Y028697D01*
X032340Y028697D01*
X032343Y028669D01*
X032349Y028641D01*
X032359Y028615D01*
X032372Y028590D01*
X032389Y028567D01*
X032409Y028546D01*
X032431Y028528D01*
X032455Y028514D01*
X032481Y028503D01*
X032509Y028495D01*
X032537Y028491D01*
X032565Y028491D01*
X032593Y028495D01*
X032621Y028503D01*
X032647Y028514D01*
X032671Y028528D01*
X032693Y028546D01*
X032713Y028567D01*
X032730Y028590D01*
X032743Y028615D01*
X032753Y028641D01*
X032759Y028669D01*
X032762Y028697D01*
X032753Y028697D01*
X032750Y028669D01*
X032744Y028641D01*
X032733Y028615D01*
X032719Y028590D01*
X032702Y028568D01*
X032682Y028548D01*
X032659Y028531D01*
X032634Y028518D01*
X032607Y028508D01*
X032579Y028502D01*
X032551Y028500D01*
X032523Y028502D01*
X032495Y028508D01*
X032468Y028518D01*
X032443Y028531D01*
X032420Y028548D01*
X032400Y028568D01*
X032383Y028590D01*
X032369Y028615D01*
X032358Y028641D01*
X032352Y028669D01*
X032349Y028697D01*
X032358Y028697D01*
X032361Y028670D01*
X032367Y028644D01*
X032377Y028619D01*
X032390Y028595D01*
X032407Y028574D01*
X032426Y028555D01*
X032448Y028539D01*
X032472Y028526D01*
X032497Y028517D01*
X032524Y028511D01*
X032551Y028509D01*
X032578Y028511D01*
X032605Y028517D01*
X032630Y028526D01*
X032654Y028539D01*
X032676Y028555D01*
X032695Y028574D01*
X032712Y028595D01*
X032725Y028619D01*
X032735Y028644D01*
X032741Y028670D01*
X032744Y028697D01*
X032735Y028697D01*
X032732Y028670D01*
X032726Y028644D01*
X032715Y028619D01*
X032701Y028596D01*
X032684Y028575D01*
X032664Y028557D01*
X032642Y028542D01*
X032617Y028530D01*
X032591Y028522D01*
X032565Y028518D01*
X032537Y028518D01*
X032511Y028522D01*
X032485Y028530D01*
X032460Y028542D01*
X032438Y028557D01*
X032418Y028575D01*
X032401Y028596D01*
X032387Y028619D01*
X032376Y028644D01*
X032370Y028670D01*
X032367Y028697D01*
X030170Y028706D02*
X030130Y028706D01*
X030131Y028707D02*
X030128Y028733D01*
X030122Y028759D01*
X030112Y028783D01*
X030098Y028806D01*
X030081Y028826D01*
X030062Y028844D01*
X030040Y028859D01*
X030016Y028870D01*
X029990Y028878D01*
X029964Y028882D01*
X029938Y028882D01*
X029912Y028878D01*
X029886Y028870D01*
X029862Y028859D01*
X029840Y028844D01*
X029821Y028826D01*
X029804Y028806D01*
X029790Y028783D01*
X029780Y028759D01*
X029774Y028733D01*
X029771Y028707D01*
X029732Y028706D01*
X029731Y028707D01*
X029734Y028736D01*
X029740Y028765D01*
X029751Y028793D01*
X029765Y028819D01*
X029782Y028843D01*
X029803Y028864D01*
X029826Y028883D01*
X029851Y028898D01*
X029878Y028910D01*
X029907Y028918D01*
X029936Y028922D01*
X029966Y028922D01*
X029995Y028918D01*
X030024Y028910D01*
X030051Y028898D01*
X030076Y028883D01*
X030099Y028864D01*
X030120Y028843D01*
X030137Y028819D01*
X030151Y028793D01*
X030162Y028765D01*
X030168Y028736D01*
X030171Y028707D01*
X030162Y028707D01*
X030159Y028735D01*
X030153Y028763D01*
X030143Y028789D01*
X030130Y028814D01*
X030113Y028837D01*
X030093Y028858D01*
X030071Y028876D01*
X030047Y028890D01*
X030021Y028901D01*
X029993Y028909D01*
X029965Y028913D01*
X029937Y028913D01*
X029909Y028909D01*
X029881Y028901D01*
X029855Y028890D01*
X029831Y028876D01*
X029809Y028858D01*
X029789Y028837D01*
X029772Y028814D01*
X029759Y028789D01*
X029749Y028763D01*
X029743Y028735D01*
X029740Y028707D01*
X029749Y028707D01*
X029752Y028735D01*
X029758Y028763D01*
X029769Y028789D01*
X029783Y028814D01*
X029800Y028836D01*
X029820Y028856D01*
X029843Y028873D01*
X029868Y028886D01*
X029895Y028896D01*
X029923Y028902D01*
X029951Y028904D01*
X029979Y028902D01*
X030007Y028896D01*
X030034Y028886D01*
X030059Y028873D01*
X030082Y028856D01*
X030102Y028836D01*
X030119Y028814D01*
X030133Y028789D01*
X030144Y028763D01*
X030150Y028735D01*
X030153Y028707D01*
X030144Y028707D01*
X030141Y028734D01*
X030135Y028760D01*
X030125Y028785D01*
X030112Y028809D01*
X030095Y028830D01*
X030076Y028849D01*
X030054Y028865D01*
X030030Y028878D01*
X030005Y028887D01*
X029978Y028893D01*
X029951Y028895D01*
X029924Y028893D01*
X029897Y028887D01*
X029872Y028878D01*
X029848Y028865D01*
X029826Y028849D01*
X029807Y028830D01*
X029790Y028809D01*
X029777Y028785D01*
X029767Y028760D01*
X029761Y028734D01*
X029758Y028707D01*
X029767Y028707D01*
X029770Y028734D01*
X029776Y028760D01*
X029787Y028785D01*
X029801Y028808D01*
X029818Y028829D01*
X029838Y028847D01*
X029860Y028862D01*
X029885Y028874D01*
X029911Y028882D01*
X029937Y028886D01*
X029965Y028886D01*
X029991Y028882D01*
X030017Y028874D01*
X030042Y028862D01*
X030064Y028847D01*
X030084Y028829D01*
X030101Y028808D01*
X030115Y028785D01*
X030126Y028760D01*
X030132Y028734D01*
X030135Y028707D01*
X029332Y028698D02*
X029372Y028698D01*
X029371Y028697D02*
X029374Y028671D01*
X029380Y028645D01*
X029390Y028621D01*
X029404Y028598D01*
X029421Y028578D01*
X029440Y028560D01*
X029462Y028545D01*
X029486Y028534D01*
X029512Y028526D01*
X029538Y028522D01*
X029564Y028522D01*
X029590Y028526D01*
X029616Y028534D01*
X029640Y028545D01*
X029662Y028560D01*
X029681Y028578D01*
X029698Y028598D01*
X029712Y028621D01*
X029722Y028645D01*
X029728Y028671D01*
X029731Y028697D01*
X029770Y028698D01*
X029771Y028697D01*
X029768Y028668D01*
X029762Y028639D01*
X029751Y028611D01*
X029737Y028585D01*
X029720Y028561D01*
X029699Y028540D01*
X029676Y028521D01*
X029651Y028506D01*
X029624Y028494D01*
X029595Y028486D01*
X029566Y028482D01*
X029536Y028482D01*
X029507Y028486D01*
X029478Y028494D01*
X029451Y028506D01*
X029426Y028521D01*
X029403Y028540D01*
X029382Y028561D01*
X029365Y028585D01*
X029351Y028611D01*
X029340Y028639D01*
X029334Y028668D01*
X029331Y028697D01*
X029340Y028697D01*
X029343Y028669D01*
X029349Y028641D01*
X029359Y028615D01*
X029372Y028590D01*
X029389Y028567D01*
X029409Y028546D01*
X029431Y028528D01*
X029455Y028514D01*
X029481Y028503D01*
X029509Y028495D01*
X029537Y028491D01*
X029565Y028491D01*
X029593Y028495D01*
X029621Y028503D01*
X029647Y028514D01*
X029671Y028528D01*
X029693Y028546D01*
X029713Y028567D01*
X029730Y028590D01*
X029743Y028615D01*
X029753Y028641D01*
X029759Y028669D01*
X029762Y028697D01*
X029753Y028697D01*
X029750Y028669D01*
X029744Y028641D01*
X029733Y028615D01*
X029719Y028590D01*
X029702Y028568D01*
X029682Y028548D01*
X029659Y028531D01*
X029634Y028518D01*
X029607Y028508D01*
X029579Y028502D01*
X029551Y028500D01*
X029523Y028502D01*
X029495Y028508D01*
X029468Y028518D01*
X029443Y028531D01*
X029420Y028548D01*
X029400Y028568D01*
X029383Y028590D01*
X029369Y028615D01*
X029358Y028641D01*
X029352Y028669D01*
X029349Y028697D01*
X029358Y028697D01*
X029361Y028670D01*
X029367Y028644D01*
X029377Y028619D01*
X029390Y028595D01*
X029407Y028574D01*
X029426Y028555D01*
X029448Y028539D01*
X029472Y028526D01*
X029497Y028517D01*
X029524Y028511D01*
X029551Y028509D01*
X029578Y028511D01*
X029605Y028517D01*
X029630Y028526D01*
X029654Y028539D01*
X029676Y028555D01*
X029695Y028574D01*
X029712Y028595D01*
X029725Y028619D01*
X029735Y028644D01*
X029741Y028670D01*
X029744Y028697D01*
X029735Y028697D01*
X029732Y028670D01*
X029726Y028644D01*
X029715Y028619D01*
X029701Y028596D01*
X029684Y028575D01*
X029664Y028557D01*
X029642Y028542D01*
X029617Y028530D01*
X029591Y028522D01*
X029565Y028518D01*
X029537Y028518D01*
X029511Y028522D01*
X029485Y028530D01*
X029460Y028542D01*
X029438Y028557D01*
X029418Y028575D01*
X029401Y028596D01*
X029387Y028619D01*
X029376Y028644D01*
X029370Y028670D01*
X029367Y028697D01*
D15*
X030101Y025382D02*
X030351Y025382D01*
X030601Y025382D01*
X030601Y025132D02*
X030351Y025132D01*
X030101Y025132D01*
X019251Y024352D02*
X018701Y024352D01*
X018751Y024302D02*
X019201Y024302D01*
X018551Y024452D02*
X018301Y024452D01*
X018301Y024552D02*
X018551Y024552D01*
X018151Y024352D02*
X007451Y024352D01*
X007501Y024302D02*
X018101Y024302D01*
X018301Y030552D02*
X018551Y030552D01*
X018751Y030702D02*
X019201Y030702D01*
X018101Y030702D02*
X007501Y030702D01*
D16*
X037876Y026002D03*
X037876Y025002D03*
X037876Y024002D03*
X037876Y021502D03*
X037876Y020502D03*
X037876Y019502D03*
D17*
X038551Y019502D03*
X038551Y020502D03*
X038551Y021502D03*
X038551Y024002D03*
X038551Y025002D03*
X038551Y026002D03*
D18*
X038351Y004922D03*
X038351Y004922D03*
X037351Y004922D03*
X037351Y004922D03*
X036351Y004922D03*
X035351Y004922D03*
X035351Y004922D03*
X034351Y004922D03*
X034351Y004922D03*
X034351Y002082D03*
X034351Y002082D03*
X035351Y002082D03*
X035351Y002082D03*
X036351Y002082D03*
X037351Y002082D03*
X037351Y002082D03*
X038351Y002082D03*
X038351Y002082D03*
D19*
X032851Y010952D03*
D20*
X032851Y010327D03*
X032851Y012677D03*
D21*
X016901Y027502D03*
D22*
X019526Y027502D03*
X007176Y027502D03*
M02*
