G75*
G70*
%OFA0B0*%
%FSLAX25Y25*%
%IPPOS*%
%LPD*%
%AMOC8*
5,1,8,0,0,1.08239X$1,22.5*
%
%ADD10C,0.01600*%
%ADD11O,0.07800X0.15600*%
%ADD13C,0.00600*%
%ADD17R,0.04000X0.04000*%
%ADD21OC8,0.08500*%
%ADD26O,0.15600X0.07800*%
%ADD27C,0.00200*%
%ADD29R,0.15000X0.10000*%
%ADD34O,0.12000X0.06000*%
%ADD35C,0.04000*%
%ADD43O,0.06000X0.12000*%
%ADD44R,0.10000X0.15000*%
X0020000Y0020000D02*
G75*
%LPD*%
D13*
X0060280Y0102780D02*
X0060280Y0109180D01*
X0058150Y0109180D02*
X0062420Y0109180D01*
X0064590Y0105980D02*
X0065660Y0107050D01*
X0067800Y0107050D01*
X0068860Y0105980D01*
X0068860Y0104910D01*
X0064590Y0104910D01*
X0064590Y0103850D02*
X0064590Y0105980D01*
X0064590Y0103850D02*
X0065660Y0102780D01*
X0067800Y0102780D01*
X0071040Y0102780D02*
X0075310Y0107050D01*
X0077480Y0107050D02*
X0079620Y0107050D01*
X0078550Y0108120D02*
X0078550Y0103850D01*
X0079620Y0102780D01*
X0075310Y0102780D02*
X0071040Y0107050D01*
D29*
X0036350Y0106480D03*
D10*
X0084850Y0084480D02*
X0109850Y0084480D01*
X0109850Y0064480D01*
X0084850Y0064480D01*
X0084850Y0084480D01*
X0084850Y0083310D02*
X0109850Y0083310D01*
X0109850Y0081730D02*
X0084850Y0081730D01*
X0084850Y0080140D02*
X0091950Y0080140D01*
X0092340Y0080530D02*
X0088800Y0076980D01*
X0088800Y0074980D01*
X0094350Y0074980D01*
X0094350Y0080530D01*
X0092340Y0080530D01*
X0094350Y0080140D02*
X0095350Y0080140D01*
X0095350Y0080530D02*
X0097350Y0080530D01*
X0100900Y0076980D01*
X0100900Y0074980D01*
X0095350Y0074980D01*
X0095350Y0073980D01*
X0100900Y0073980D01*
X0100900Y0071970D01*
X0097350Y0068430D01*
X0095350Y0068430D01*
X0095350Y0073980D01*
X0094350Y0073980D01*
X0094350Y0068430D01*
X0092340Y0068430D01*
X0088800Y0071970D01*
X0088800Y0073980D01*
X0094350Y0073980D01*
X0094350Y0074980D01*
X0095350Y0074980D01*
X0095350Y0080530D01*
X0095350Y0078550D02*
X0094350Y0078550D01*
X0094350Y0076970D02*
X0095350Y0076970D01*
X0095350Y0075380D02*
X0094350Y0075380D01*
X0094350Y0073800D02*
X0095350Y0073800D01*
X0095350Y0072210D02*
X0094350Y0072210D01*
X0094350Y0070630D02*
X0095350Y0070630D01*
X0095350Y0069040D02*
X0094350Y0069040D01*
X0091730Y0069040D02*
X0084850Y0069040D01*
X0084850Y0067460D02*
X0109850Y0067460D01*
X0109850Y0069040D02*
X0097970Y0069040D01*
X0099550Y0070630D02*
X0109850Y0070630D01*
X0109850Y0072210D02*
X0100900Y0072210D01*
X0100900Y0073800D02*
X0109850Y0073800D01*
X0109850Y0075380D02*
X0100900Y0075380D01*
X0100900Y0076970D02*
X0109850Y0076970D01*
X0109850Y0078550D02*
X0099330Y0078550D01*
X0097740Y0080140D02*
X0109850Y0080140D01*
X0110250Y0093680D02*
X0108850Y0096480D01*
X0108850Y0101480D01*
X0112690Y0109160D01*
X0115010Y0109160D01*
X0118850Y0101480D01*
X0118850Y0096480D01*
X0117450Y0093680D01*
X0117450Y0098140D01*
X0116670Y0098920D01*
X0117070Y0099330D01*
X0117650Y0100720D01*
X0117650Y0101480D01*
X0117650Y0102230D01*
X0117070Y0103630D01*
X0116000Y0104700D01*
X0114600Y0105280D01*
X0113850Y0105280D01*
X0113850Y0101480D01*
X0113850Y0101480D01*
X0117650Y0101480D01*
X0113850Y0101480D01*
X0113850Y0101480D01*
X0113850Y0105280D01*
X0113090Y0105280D01*
X0111700Y0104700D01*
X0110630Y0103630D01*
X0110050Y0102230D01*
X0110050Y0101480D01*
X0113840Y0101480D01*
X0113840Y0101480D01*
X0110050Y0101480D01*
X0110050Y0100720D01*
X0110630Y0099330D01*
X0111030Y0098920D01*
X0110250Y0098140D01*
X0110250Y0093680D01*
X0110250Y0094410D02*
X0109880Y0094410D01*
X0110250Y0095990D02*
X0109090Y0095990D01*
X0108850Y0097580D02*
X0110250Y0097580D01*
X0110790Y0099170D02*
X0108850Y0099170D01*
X0108850Y0100750D02*
X0110050Y0100750D01*
X0110090Y0102340D02*
X0109280Y0102340D01*
X0110070Y0103920D02*
X0110920Y0103920D01*
X0110860Y0105510D02*
X0116830Y0105510D01*
X0116780Y0103920D02*
X0117630Y0103920D01*
X0117610Y0102340D02*
X0118420Y0102340D01*
X0118850Y0100750D02*
X0117650Y0100750D01*
X0116910Y0099170D02*
X0118850Y0099170D01*
X0118850Y0097580D02*
X0117450Y0097580D01*
X0117450Y0095990D02*
X0118610Y0095990D01*
X0117810Y0094410D02*
X0117450Y0094410D01*
X0113850Y0102340D02*
X0113850Y0102340D01*
X0113850Y0103920D02*
X0113850Y0103920D01*
X0111660Y0107090D02*
X0116040Y0107090D01*
X0115250Y0108680D02*
X0112450Y0108680D01*
X0090370Y0078550D02*
X0084850Y0078550D01*
X0084850Y0076970D02*
X0088800Y0076970D01*
X0088800Y0075380D02*
X0084850Y0075380D01*
X0084850Y0073800D02*
X0088800Y0073800D01*
X0088800Y0072210D02*
X0084850Y0072210D01*
X0084850Y0070630D02*
X0090140Y0070630D01*
X0084850Y0065870D02*
X0109850Y0065870D01*
X0078850Y0060480D02*
X0078850Y0050480D01*
X0058850Y0050480D01*
X0061780Y0071480D02*
X0061810Y0072120D01*
X0061900Y0072760D01*
X0062040Y0073390D01*
X0062240Y0074000D01*
X0062500Y0074590D01*
X0062810Y0075150D01*
X0063170Y0075690D01*
X0063570Y0076190D01*
X0064020Y0076650D01*
X0064510Y0077060D01*
X0065040Y0077440D01*
X0065600Y0077760D01*
X0066180Y0078030D01*
X0066790Y0078240D01*
X0067410Y0078400D01*
X0068050Y0078500D01*
X0068690Y0078550D01*
X0069330Y0078530D01*
X0069970Y0078460D01*
X0070600Y0078330D01*
X0071220Y0078140D01*
X0071810Y0077900D01*
X0072380Y0077600D01*
X0072930Y0077260D01*
X0073440Y0076860D01*
X0073910Y0076420D01*
X0074330Y0075940D01*
X0074720Y0075420D01*
X0075050Y0074870D01*
X0075330Y0074300D01*
X0075560Y0073700D01*
X0075740Y0073080D01*
X0075850Y0072440D01*
X0075910Y0071800D01*
X0075910Y0071160D01*
X0075850Y0070520D01*
X0075740Y0069880D01*
X0075560Y0069260D01*
X0075330Y0068660D01*
X0075050Y0068090D01*
X0074720Y0067540D01*
X0074330Y0067020D01*
X0073910Y0066540D01*
X0073440Y0066100D01*
X0072930Y0065700D01*
X0072390Y0065360D01*
X0071810Y0065060D01*
X0071220Y0064820D01*
X0070600Y0064630D01*
X0069970Y0064500D01*
X0069330Y0064430D01*
X0068690Y0064410D01*
X0068050Y0064460D01*
X0067410Y0064560D01*
X0066790Y0064720D01*
X0066180Y0064930D01*
X0065600Y0065200D01*
X0065040Y0065520D01*
X0064510Y0065900D01*
X0064020Y0066310D01*
X0063570Y0066770D01*
X0063170Y0067270D01*
X0062810Y0067810D01*
X0062500Y0068370D01*
X0062240Y0068960D01*
X0062040Y0069570D01*
X0061900Y0070200D01*
X0061810Y0070840D01*
X0061780Y0071480D01*
D21*
X0028850Y0071480D03*
X0094850Y0074480D03*
D11*
X0028850Y0031480D03*
D26*
X0048850Y0031480D03*
D34*
X0108240Y0037560D03*
X0108240Y0047400D03*
D35*
X0113850Y0101480D03*
D17*
X0113850Y0095480D03*
D27*
X0068940Y0025790D02*
X0068940Y0027190D01*
X0068950Y0027180D02*
X0069420Y0027210D01*
X0069880Y0027280D01*
X0070330Y0027380D01*
X0070770Y0027520D01*
X0071200Y0027700D01*
X0071620Y0027920D01*
X0072010Y0028170D01*
X0072380Y0028450D01*
X0072730Y0028760D01*
X0073050Y0029100D01*
X0073340Y0029470D01*
X0073600Y0029850D01*
X0073820Y0030260D01*
X0074010Y0030690D01*
X0074160Y0031130D01*
X0074280Y0031580D01*
X0074360Y0032040D01*
X0074400Y0032510D01*
X0074390Y0032970D01*
X0074350Y0033440D01*
X0074280Y0033900D01*
X0074160Y0034350D01*
X0074000Y0034790D01*
X0073810Y0035210D01*
X0073590Y0035620D01*
X0073330Y0036010D01*
X0073040Y0036370D01*
X0072720Y0036710D01*
X0072370Y0037020D01*
X0072000Y0037300D01*
X0071600Y0037550D01*
X0071190Y0037760D01*
X0070760Y0037940D01*
X0070310Y0038080D01*
X0069860Y0038190D01*
X0069400Y0038250D01*
X0068930Y0038280D01*
X0068470Y0038270D01*
X0068000Y0038220D01*
X0067550Y0038120D01*
X0067100Y0038000D01*
X0066660Y0037830D01*
X0066240Y0037630D01*
X0065840Y0037390D01*
X0065460Y0037120D01*
X0065100Y0036820D01*
X0064770Y0036490D01*
X0064470Y0036140D01*
X0063360Y0036970D01*
X0063350Y0036980D01*
X0063690Y0037390D01*
X0064060Y0037770D01*
X0064460Y0038120D01*
X0064880Y0038430D01*
X0065330Y0038720D01*
X0065790Y0038970D01*
X0066280Y0039190D01*
X0066780Y0039360D01*
X0067290Y0039500D01*
X0067810Y0039600D01*
X0068330Y0039660D01*
X0068860Y0039680D01*
X0069390Y0039660D01*
X0069920Y0039600D01*
X0070440Y0039500D01*
X0070950Y0039360D01*
X0071450Y0039180D01*
X0071930Y0038960D01*
X0072400Y0038710D01*
X0072840Y0038420D01*
X0073260Y0038100D01*
X0073660Y0037750D01*
X0074030Y0037370D01*
X0074360Y0036960D01*
X0074670Y0036530D01*
X0074940Y0036070D01*
X0075180Y0035600D01*
X0075380Y0035110D01*
X0075540Y0034600D01*
X0075670Y0034090D01*
X0075750Y0033570D01*
X0075790Y0033040D01*
X0075800Y0032510D01*
X0075760Y0031980D01*
X0075680Y0031460D01*
X0075570Y0030940D01*
X0075410Y0030430D01*
X0075220Y0029940D01*
X0074980Y0029460D01*
X0074720Y0029010D01*
X0074420Y0028570D01*
X0074080Y0028160D01*
X0073720Y0027770D01*
X0073330Y0027420D01*
X0072910Y0027090D01*
X0072470Y0026800D01*
X0072010Y0026540D01*
X0071530Y0026320D01*
X0071030Y0026130D01*
X0070520Y0025980D01*
X0070000Y0025880D01*
X0069480Y0025810D01*
X0068950Y0025780D01*
X0068950Y0025960D01*
X0069470Y0025990D01*
X0069980Y0026050D01*
X0070480Y0026160D01*
X0070980Y0026300D01*
X0071460Y0026480D01*
X0071930Y0026700D01*
X0072380Y0026950D01*
X0072810Y0027240D01*
X0073210Y0027560D01*
X0073600Y0027900D01*
X0073950Y0028280D01*
X0074270Y0028680D01*
X0074570Y0029100D01*
X0074830Y0029550D01*
X0075050Y0030010D01*
X0075240Y0030490D01*
X0075390Y0030990D01*
X0075510Y0031490D01*
X0075580Y0032000D01*
X0075620Y0032520D01*
X0075610Y0033030D01*
X0075570Y0033550D01*
X0075490Y0034050D01*
X0075370Y0034560D01*
X0075210Y0035050D01*
X0075020Y0035520D01*
X0074790Y0035990D01*
X0074520Y0036430D01*
X0074220Y0036850D01*
X0073890Y0037250D01*
X0073530Y0037620D01*
X0073150Y0037960D01*
X0072740Y0038270D01*
X0072300Y0038550D01*
X0071850Y0038800D01*
X0071380Y0039010D01*
X0070900Y0039180D01*
X0070400Y0039320D01*
X0069890Y0039420D01*
X0069380Y0039480D01*
X0068860Y0039500D01*
X0068350Y0039480D01*
X0067840Y0039420D01*
X0067330Y0039330D01*
X0066830Y0039190D01*
X0066340Y0039020D01*
X0065870Y0038810D01*
X0065420Y0038570D01*
X0064980Y0038290D01*
X0064570Y0037980D01*
X0064190Y0037640D01*
X0063830Y0037270D01*
X0063490Y0036870D01*
X0063640Y0036760D01*
X0063970Y0037160D01*
X0064330Y0037520D01*
X0064710Y0037860D01*
X0065120Y0038160D01*
X0065550Y0038440D01*
X0066010Y0038670D01*
X0066480Y0038880D01*
X0066960Y0039040D01*
X0067460Y0039170D01*
X0067960Y0039260D01*
X0068470Y0039310D01*
X0068980Y0039320D01*
X0069490Y0039290D01*
X0070000Y0039220D01*
X0070500Y0039110D01*
X0070990Y0038960D01*
X0071470Y0038780D01*
X0071930Y0038560D01*
X0072370Y0038300D01*
X0072790Y0038010D01*
X0073190Y0037690D01*
X0073560Y0037340D01*
X0073900Y0036960D01*
X0074220Y0036550D01*
X0074500Y0036130D01*
X0074740Y0035680D01*
X0074960Y0035210D01*
X0075130Y0034730D01*
X0075270Y0034240D01*
X0075360Y0033730D01*
X0075420Y0033230D01*
X0075440Y0032710D01*
X0075420Y0032200D01*
X0075360Y0031700D01*
X0075260Y0031190D01*
X0075120Y0030700D01*
X0074940Y0030220D01*
X0074730Y0029760D01*
X0074480Y0029310D01*
X0074200Y0028880D01*
X0073880Y0028480D01*
X0073540Y0028100D01*
X0073170Y0027750D01*
X0072770Y0027430D01*
X0072340Y0027140D01*
X0071900Y0026890D01*
X0071440Y0026670D01*
X0070960Y0026490D01*
X0070470Y0026340D01*
X0069970Y0026240D01*
X0069460Y0026170D01*
X0068950Y0026140D01*
X0068950Y0026320D01*
X0069460Y0026350D01*
X0069960Y0026420D01*
X0070460Y0026520D01*
X0070940Y0026670D01*
X0071410Y0026850D01*
X0071870Y0027080D01*
X0072310Y0027330D01*
X0072720Y0027620D01*
X0073120Y0027950D01*
X0073480Y0028300D01*
X0073820Y0028680D01*
X0074120Y0029080D01*
X0074390Y0029510D01*
X0074630Y0029960D01*
X0074830Y0030430D01*
X0075000Y0030910D01*
X0075120Y0031400D01*
X0075210Y0031900D01*
X0075250Y0032400D01*
X0075260Y0032910D01*
X0075220Y0033420D01*
X0075150Y0033920D01*
X0075040Y0034410D01*
X0074880Y0034900D01*
X0074690Y0035370D01*
X0074470Y0035820D01*
X0074200Y0036260D01*
X0073910Y0036670D01*
X0073580Y0037060D01*
X0073220Y0037420D01*
X0072840Y0037750D01*
X0072430Y0038050D01*
X0072000Y0038310D01*
X0071550Y0038550D01*
X0071080Y0038740D01*
X0070600Y0038900D01*
X0070100Y0039020D01*
X0069600Y0039100D01*
X0069100Y0039140D01*
X0068590Y0039130D01*
X0068080Y0039090D01*
X0067580Y0039010D01*
X0067090Y0038890D01*
X0066610Y0038730D01*
X0066140Y0038540D01*
X0065690Y0038310D01*
X0065260Y0038040D01*
X0064850Y0037740D01*
X0064460Y0037410D01*
X0064110Y0037040D01*
X0063780Y0036660D01*
X0063930Y0036550D01*
X0064240Y0036920D01*
X0064590Y0037280D01*
X0064960Y0037600D01*
X0065360Y0037890D01*
X0065780Y0038150D01*
X0066220Y0038380D01*
X0066670Y0038570D01*
X0067140Y0038720D01*
X0067620Y0038840D01*
X0068110Y0038920D01*
X0068600Y0038950D01*
X0069090Y0038960D01*
X0069580Y0038920D01*
X0070070Y0038840D01*
X0070550Y0038720D01*
X0071020Y0038570D01*
X0071470Y0038380D01*
X0071910Y0038160D01*
X0072330Y0037900D01*
X0072730Y0037610D01*
X0073100Y0037280D01*
X0073450Y0036930D01*
X0073770Y0036560D01*
X0074050Y0036160D01*
X0074310Y0035730D01*
X0074530Y0035290D01*
X0074710Y0034840D01*
X0074860Y0034370D01*
X0074970Y0033890D01*
X0075040Y0033400D01*
X0075080Y0032910D01*
X0075070Y0032410D01*
X0075030Y0031920D01*
X0074940Y0031440D01*
X0074820Y0030960D01*
X0074660Y0030490D01*
X0074470Y0030040D01*
X0074240Y0029600D01*
X0073970Y0029190D01*
X0073680Y0028790D01*
X0073350Y0028420D01*
X0073000Y0028080D01*
X0072620Y0027770D01*
X0072210Y0027490D01*
X0071790Y0027240D01*
X0071340Y0027020D01*
X0070880Y0026840D01*
X0070410Y0026700D01*
X0069930Y0026590D01*
X0069440Y0026530D01*
X0068950Y0026500D01*
X0068950Y0026680D01*
X0069440Y0026710D01*
X0069920Y0026780D01*
X0070400Y0026880D01*
X0070860Y0027030D01*
X0071320Y0027210D01*
X0071750Y0027420D01*
X0072170Y0027670D01*
X0072570Y0027960D01*
X0072940Y0028270D01*
X0073290Y0028620D01*
X0073610Y0028990D01*
X0073890Y0029390D01*
X0074140Y0029800D01*
X0074360Y0030240D01*
X0074550Y0030690D01*
X0074690Y0031160D01*
X0074800Y0031630D01*
X0074870Y0032120D01*
X0074900Y0032610D01*
X0074890Y0033090D01*
X0074840Y0033580D01*
X0074750Y0034060D01*
X0074630Y0034530D01*
X0074460Y0034990D01*
X0074260Y0035440D01*
X0074030Y0035860D01*
X0073760Y0036270D01*
X0073450Y0036650D01*
X0073120Y0037010D01*
X0072760Y0037340D01*
X0072380Y0037640D01*
X0071970Y0037910D01*
X0071540Y0038150D01*
X0071100Y0038350D01*
X0070640Y0038510D01*
X0070170Y0038640D01*
X0069690Y0038720D01*
X0069200Y0038770D01*
X0068710Y0038780D01*
X0068220Y0038750D01*
X0067740Y0038680D01*
X0067270Y0038570D01*
X0066800Y0038420D01*
X0066350Y0038240D01*
X0065910Y0038020D01*
X0065490Y0037760D01*
X0065100Y0037480D01*
X0064730Y0037160D01*
X0064390Y0036810D01*
X0064070Y0036440D01*
X0064210Y0036330D01*
X0064530Y0036700D01*
X0064870Y0037040D01*
X0065240Y0037360D01*
X0065630Y0037640D01*
X0066040Y0037890D01*
X0066480Y0038100D01*
X0066930Y0038280D01*
X0067390Y0038420D01*
X0067860Y0038520D01*
X0068340Y0038580D01*
X0068820Y0038600D01*
X0069310Y0038580D01*
X0069790Y0038520D01*
X0070260Y0038430D01*
X0070720Y0038290D01*
X0071170Y0038120D01*
X0071610Y0037910D01*
X0072030Y0037670D01*
X0072420Y0037390D01*
X0072790Y0037080D01*
X0073140Y0036740D01*
X0073450Y0036370D01*
X0073740Y0035980D01*
X0073990Y0035570D01*
X0074200Y0035140D01*
X0074380Y0034690D01*
X0074530Y0034230D01*
X0074630Y0033750D01*
X0074690Y0033280D01*
X0074720Y0032790D01*
X0074700Y0032310D01*
X0074650Y0031830D01*
X0074560Y0031360D01*
X0074420Y0030890D01*
X0074250Y0030440D01*
X0074050Y0030000D01*
X0073810Y0029580D01*
X0073530Y0029190D01*
X0073220Y0028810D01*
X0072890Y0028470D01*
X0072520Y0028150D01*
X0072130Y0027860D01*
X0071720Y0027610D01*
X0071290Y0027390D01*
X0070840Y0027210D01*
X0070380Y0027060D01*
X0069910Y0026960D01*
X0069430Y0026890D01*
X0068950Y0026860D01*
X0068950Y0027040D01*
X0069430Y0027070D01*
X0069900Y0027140D01*
X0070370Y0027250D01*
X0070820Y0027390D01*
X0071260Y0027580D01*
X0071690Y0027800D01*
X0072090Y0028050D01*
X0072470Y0028340D01*
X0072830Y0028660D01*
X0073150Y0029010D01*
X0073450Y0029380D01*
X0073720Y0029780D01*
X0073950Y0030200D01*
X0074140Y0030640D01*
X0074300Y0031090D01*
X0074420Y0031550D01*
X0074500Y0032020D01*
X0074540Y0032500D01*
X0074530Y0032980D01*
X0074490Y0033450D01*
X0074410Y0033920D01*
X0074290Y0034390D01*
X0074130Y0034840D01*
X0073940Y0035270D01*
X0073710Y0035690D01*
X0073440Y0036090D01*
X0073140Y0036460D01*
X0072820Y0036810D01*
X0072460Y0037130D01*
X0072080Y0037420D01*
X0071670Y0037670D01*
X0071250Y0037890D01*
X0070810Y0038070D01*
X0070350Y0038220D01*
X0069880Y0038330D01*
X0069410Y0038390D01*
X0068930Y0038420D01*
X0068460Y0038410D01*
X0067980Y0038350D01*
X0067510Y0038260D01*
X0067050Y0038130D01*
X0066610Y0037960D01*
X0066170Y0037750D01*
X0065760Y0037510D01*
X0065370Y0037230D01*
X0065010Y0036930D01*
X0064670Y0036590D01*
X0064360Y0036220D01*
X0020000Y0126460D02*
G75*
%LPD*%
D13*
X0060280Y0209240D02*
X0060280Y0215640D01*
X0058150Y0215640D02*
X0062420Y0215640D01*
X0064590Y0212440D02*
X0065660Y0213510D01*
X0067800Y0213510D01*
X0068860Y0212440D01*
X0068860Y0211370D01*
X0064590Y0211370D01*
X0064590Y0210310D02*
X0064590Y0212440D01*
X0064590Y0210310D02*
X0065660Y0209240D01*
X0067800Y0209240D01*
X0071040Y0209240D02*
X0075310Y0213510D01*
X0077480Y0213510D02*
X0079620Y0213510D01*
X0078550Y0214580D02*
X0078550Y0210310D01*
X0079620Y0209240D01*
X0075310Y0209240D02*
X0071040Y0213510D01*
D29*
X0036350Y0212940D03*
D10*
X0084850Y0190940D02*
X0109850Y0190940D01*
X0109850Y0170940D01*
X0084850Y0170940D01*
X0084850Y0190940D01*
X0084850Y0189770D02*
X0109850Y0189770D01*
X0109850Y0188190D02*
X0084850Y0188190D01*
X0084850Y0186600D02*
X0091950Y0186600D01*
X0092340Y0186990D02*
X0088800Y0183440D01*
X0088800Y0181440D01*
X0094350Y0181440D01*
X0094350Y0186990D01*
X0092340Y0186990D01*
X0094350Y0186600D02*
X0095350Y0186600D01*
X0095350Y0186990D02*
X0097350Y0186990D01*
X0100900Y0183440D01*
X0100900Y0181440D01*
X0095350Y0181440D01*
X0095350Y0180440D01*
X0100900Y0180440D01*
X0100900Y0178430D01*
X0097350Y0174890D01*
X0095350Y0174890D01*
X0095350Y0180440D01*
X0094350Y0180440D01*
X0094350Y0174890D01*
X0092340Y0174890D01*
X0088800Y0178430D01*
X0088800Y0180440D01*
X0094350Y0180440D01*
X0094350Y0181440D01*
X0095350Y0181440D01*
X0095350Y0186990D01*
X0095350Y0185010D02*
X0094350Y0185010D01*
X0094350Y0183430D02*
X0095350Y0183430D01*
X0095350Y0181840D02*
X0094350Y0181840D01*
X0094350Y0180260D02*
X0095350Y0180260D01*
X0095350Y0178670D02*
X0094350Y0178670D01*
X0094350Y0177090D02*
X0095350Y0177090D01*
X0095350Y0175500D02*
X0094350Y0175500D01*
X0091730Y0175500D02*
X0084850Y0175500D01*
X0084850Y0173920D02*
X0109850Y0173920D01*
X0109850Y0175500D02*
X0097970Y0175500D01*
X0099550Y0177090D02*
X0109850Y0177090D01*
X0109850Y0178670D02*
X0100900Y0178670D01*
X0100900Y0180260D02*
X0109850Y0180260D01*
X0109850Y0181840D02*
X0100900Y0181840D01*
X0100900Y0183430D02*
X0109850Y0183430D01*
X0109850Y0185010D02*
X0099330Y0185010D01*
X0097740Y0186600D02*
X0109850Y0186600D01*
X0110250Y0200140D02*
X0108850Y0202940D01*
X0108850Y0207940D01*
X0112690Y0215620D01*
X0115010Y0215620D01*
X0118850Y0207940D01*
X0118850Y0202940D01*
X0117450Y0200140D01*
X0117450Y0204600D01*
X0116670Y0205380D01*
X0117070Y0205790D01*
X0117650Y0207180D01*
X0117650Y0207940D01*
X0117650Y0208690D01*
X0117070Y0210090D01*
X0116000Y0211160D01*
X0114600Y0211740D01*
X0113850Y0211740D01*
X0113850Y0207940D01*
X0113850Y0207940D01*
X0117650Y0207940D01*
X0113850Y0207940D01*
X0113850Y0207940D01*
X0113850Y0211740D01*
X0113090Y0211740D01*
X0111700Y0211160D01*
X0110630Y0210090D01*
X0110050Y0208690D01*
X0110050Y0207940D01*
X0113840Y0207940D01*
X0113840Y0207940D01*
X0110050Y0207940D01*
X0110050Y0207180D01*
X0110630Y0205790D01*
X0111030Y0205380D01*
X0110250Y0204600D01*
X0110250Y0200140D01*
X0110250Y0200870D02*
X0109880Y0200870D01*
X0110250Y0202450D02*
X0109090Y0202450D01*
X0108850Y0204040D02*
X0110250Y0204040D01*
X0110790Y0205630D02*
X0108850Y0205630D01*
X0108850Y0207210D02*
X0110050Y0207210D01*
X0110090Y0208800D02*
X0109280Y0208800D01*
X0110070Y0210380D02*
X0110920Y0210380D01*
X0110860Y0211970D02*
X0116830Y0211970D01*
X0116780Y0210380D02*
X0117630Y0210380D01*
X0117610Y0208800D02*
X0118420Y0208800D01*
X0118850Y0207210D02*
X0117650Y0207210D01*
X0116910Y0205630D02*
X0118850Y0205630D01*
X0118850Y0204040D02*
X0117450Y0204040D01*
X0117450Y0202450D02*
X0118610Y0202450D01*
X0117810Y0200870D02*
X0117450Y0200870D01*
X0113850Y0208800D02*
X0113850Y0208800D01*
X0113850Y0210380D02*
X0113850Y0210380D01*
X0111660Y0213550D02*
X0116040Y0213550D01*
X0115250Y0215140D02*
X0112450Y0215140D01*
X0090370Y0185010D02*
X0084850Y0185010D01*
X0084850Y0183430D02*
X0088800Y0183430D01*
X0088800Y0181840D02*
X0084850Y0181840D01*
X0084850Y0180260D02*
X0088800Y0180260D01*
X0088800Y0178670D02*
X0084850Y0178670D01*
X0084850Y0177090D02*
X0090140Y0177090D01*
X0084850Y0172330D02*
X0109850Y0172330D01*
X0078850Y0166940D02*
X0078850Y0156940D01*
X0058850Y0156940D01*
X0061780Y0177940D02*
X0061810Y0178580D01*
X0061900Y0179220D01*
X0062040Y0179850D01*
X0062240Y0180460D01*
X0062500Y0181050D01*
X0062810Y0181610D01*
X0063170Y0182150D01*
X0063570Y0182650D01*
X0064020Y0183110D01*
X0064510Y0183520D01*
X0065040Y0183900D01*
X0065600Y0184220D01*
X0066180Y0184490D01*
X0066790Y0184700D01*
X0067410Y0184860D01*
X0068050Y0184960D01*
X0068690Y0185010D01*
X0069330Y0184990D01*
X0069970Y0184920D01*
X0070600Y0184790D01*
X0071220Y0184600D01*
X0071810Y0184360D01*
X0072380Y0184060D01*
X0072930Y0183720D01*
X0073440Y0183320D01*
X0073910Y0182880D01*
X0074330Y0182400D01*
X0074720Y0181880D01*
X0075050Y0181330D01*
X0075330Y0180760D01*
X0075560Y0180160D01*
X0075740Y0179540D01*
X0075850Y0178900D01*
X0075910Y0178260D01*
X0075910Y0177620D01*
X0075850Y0176980D01*
X0075740Y0176340D01*
X0075560Y0175720D01*
X0075330Y0175120D01*
X0075050Y0174550D01*
X0074720Y0174000D01*
X0074330Y0173480D01*
X0073910Y0173000D01*
X0073440Y0172560D01*
X0072930Y0172160D01*
X0072390Y0171820D01*
X0071810Y0171520D01*
X0071220Y0171280D01*
X0070600Y0171090D01*
X0069970Y0170960D01*
X0069330Y0170890D01*
X0068690Y0170870D01*
X0068050Y0170920D01*
X0067410Y0171020D01*
X0066790Y0171180D01*
X0066180Y0171390D01*
X0065600Y0171660D01*
X0065040Y0171980D01*
X0064510Y0172360D01*
X0064020Y0172770D01*
X0063570Y0173230D01*
X0063170Y0173730D01*
X0062810Y0174270D01*
X0062500Y0174830D01*
X0062240Y0175420D01*
X0062040Y0176030D01*
X0061900Y0176660D01*
X0061810Y0177300D01*
X0061780Y0177940D01*
D21*
X0028850Y0177940D03*
X0094850Y0180940D03*
D11*
X0028850Y0137940D03*
D26*
X0048850Y0137940D03*
D34*
X0108240Y0144020D03*
X0108240Y0153860D03*
D35*
X0113850Y0207940D03*
D17*
X0113850Y0201940D03*
D27*
X0068940Y0132250D02*
X0068940Y0133650D01*
X0068950Y0133640D02*
X0069420Y0133670D01*
X0069880Y0133740D01*
X0070330Y0133840D01*
X0070770Y0133980D01*
X0071200Y0134160D01*
X0071620Y0134380D01*
X0072010Y0134630D01*
X0072380Y0134910D01*
X0072730Y0135220D01*
X0073050Y0135560D01*
X0073340Y0135930D01*
X0073600Y0136310D01*
X0073820Y0136720D01*
X0074010Y0137150D01*
X0074160Y0137590D01*
X0074280Y0138040D01*
X0074360Y0138500D01*
X0074400Y0138970D01*
X0074390Y0139430D01*
X0074350Y0139900D01*
X0074280Y0140360D01*
X0074160Y0140810D01*
X0074000Y0141250D01*
X0073810Y0141670D01*
X0073590Y0142080D01*
X0073330Y0142470D01*
X0073040Y0142830D01*
X0072720Y0143170D01*
X0072370Y0143480D01*
X0072000Y0143760D01*
X0071600Y0144010D01*
X0071190Y0144220D01*
X0070760Y0144400D01*
X0070310Y0144540D01*
X0069860Y0144650D01*
X0069400Y0144710D01*
X0068930Y0144740D01*
X0068470Y0144730D01*
X0068000Y0144680D01*
X0067550Y0144580D01*
X0067100Y0144460D01*
X0066660Y0144290D01*
X0066240Y0144090D01*
X0065840Y0143850D01*
X0065460Y0143580D01*
X0065100Y0143280D01*
X0064770Y0142950D01*
X0064470Y0142600D01*
X0063360Y0143430D01*
X0063350Y0143440D01*
X0063690Y0143850D01*
X0064060Y0144230D01*
X0064460Y0144580D01*
X0064880Y0144890D01*
X0065330Y0145180D01*
X0065790Y0145430D01*
X0066280Y0145650D01*
X0066780Y0145820D01*
X0067290Y0145960D01*
X0067810Y0146060D01*
X0068330Y0146120D01*
X0068860Y0146140D01*
X0069390Y0146120D01*
X0069920Y0146060D01*
X0070440Y0145960D01*
X0070950Y0145820D01*
X0071450Y0145640D01*
X0071930Y0145420D01*
X0072400Y0145170D01*
X0072840Y0144880D01*
X0073260Y0144560D01*
X0073660Y0144210D01*
X0074030Y0143830D01*
X0074360Y0143420D01*
X0074670Y0142990D01*
X0074940Y0142530D01*
X0075180Y0142060D01*
X0075380Y0141570D01*
X0075540Y0141060D01*
X0075670Y0140550D01*
X0075750Y0140030D01*
X0075790Y0139500D01*
X0075800Y0138970D01*
X0075760Y0138440D01*
X0075680Y0137920D01*
X0075570Y0137400D01*
X0075410Y0136890D01*
X0075220Y0136400D01*
X0074980Y0135920D01*
X0074720Y0135470D01*
X0074420Y0135030D01*
X0074080Y0134620D01*
X0073720Y0134230D01*
X0073330Y0133880D01*
X0072910Y0133550D01*
X0072470Y0133260D01*
X0072010Y0133000D01*
X0071530Y0132780D01*
X0071030Y0132590D01*
X0070520Y0132440D01*
X0070000Y0132340D01*
X0069480Y0132270D01*
X0068950Y0132240D01*
X0068950Y0132420D01*
X0069470Y0132450D01*
X0069980Y0132510D01*
X0070480Y0132620D01*
X0070980Y0132760D01*
X0071460Y0132940D01*
X0071930Y0133160D01*
X0072380Y0133410D01*
X0072810Y0133700D01*
X0073210Y0134020D01*
X0073600Y0134360D01*
X0073950Y0134740D01*
X0074270Y0135140D01*
X0074570Y0135560D01*
X0074830Y0136010D01*
X0075050Y0136470D01*
X0075240Y0136950D01*
X0075390Y0137450D01*
X0075510Y0137950D01*
X0075580Y0138460D01*
X0075620Y0138980D01*
X0075610Y0139490D01*
X0075570Y0140010D01*
X0075490Y0140510D01*
X0075370Y0141020D01*
X0075210Y0141510D01*
X0075020Y0141980D01*
X0074790Y0142450D01*
X0074520Y0142890D01*
X0074220Y0143310D01*
X0073890Y0143710D01*
X0073530Y0144080D01*
X0073150Y0144420D01*
X0072740Y0144730D01*
X0072300Y0145010D01*
X0071850Y0145260D01*
X0071380Y0145470D01*
X0070900Y0145640D01*
X0070400Y0145780D01*
X0069890Y0145880D01*
X0069380Y0145940D01*
X0068860Y0145960D01*
X0068350Y0145940D01*
X0067840Y0145880D01*
X0067330Y0145790D01*
X0066830Y0145650D01*
X0066340Y0145480D01*
X0065870Y0145270D01*
X0065420Y0145030D01*
X0064980Y0144750D01*
X0064570Y0144440D01*
X0064190Y0144100D01*
X0063830Y0143730D01*
X0063490Y0143330D01*
X0063640Y0143220D01*
X0063970Y0143620D01*
X0064330Y0143980D01*
X0064710Y0144320D01*
X0065120Y0144620D01*
X0065550Y0144900D01*
X0066010Y0145130D01*
X0066480Y0145340D01*
X0066960Y0145500D01*
X0067460Y0145630D01*
X0067960Y0145720D01*
X0068470Y0145770D01*
X0068980Y0145780D01*
X0069490Y0145750D01*
X0070000Y0145680D01*
X0070500Y0145570D01*
X0070990Y0145420D01*
X0071470Y0145240D01*
X0071930Y0145020D01*
X0072370Y0144760D01*
X0072790Y0144470D01*
X0073190Y0144150D01*
X0073560Y0143800D01*
X0073900Y0143420D01*
X0074220Y0143010D01*
X0074500Y0142590D01*
X0074740Y0142140D01*
X0074960Y0141670D01*
X0075130Y0141190D01*
X0075270Y0140700D01*
X0075360Y0140190D01*
X0075420Y0139690D01*
X0075440Y0139170D01*
X0075420Y0138660D01*
X0075360Y0138160D01*
X0075260Y0137650D01*
X0075120Y0137160D01*
X0074940Y0136680D01*
X0074730Y0136220D01*
X0074480Y0135770D01*
X0074200Y0135340D01*
X0073880Y0134940D01*
X0073540Y0134560D01*
X0073170Y0134210D01*
X0072770Y0133890D01*
X0072340Y0133600D01*
X0071900Y0133350D01*
X0071440Y0133130D01*
X0070960Y0132950D01*
X0070470Y0132800D01*
X0069970Y0132700D01*
X0069460Y0132630D01*
X0068950Y0132600D01*
X0068950Y0132780D01*
X0069460Y0132810D01*
X0069960Y0132880D01*
X0070460Y0132980D01*
X0070940Y0133130D01*
X0071410Y0133310D01*
X0071870Y0133540D01*
X0072310Y0133790D01*
X0072720Y0134080D01*
X0073120Y0134410D01*
X0073480Y0134760D01*
X0073820Y0135140D01*
X0074120Y0135540D01*
X0074390Y0135970D01*
X0074630Y0136420D01*
X0074830Y0136890D01*
X0075000Y0137370D01*
X0075120Y0137860D01*
X0075210Y0138360D01*
X0075250Y0138860D01*
X0075260Y0139370D01*
X0075220Y0139880D01*
X0075150Y0140380D01*
X0075040Y0140870D01*
X0074880Y0141360D01*
X0074690Y0141830D01*
X0074470Y0142280D01*
X0074200Y0142720D01*
X0073910Y0143130D01*
X0073580Y0143520D01*
X0073220Y0143880D01*
X0072840Y0144210D01*
X0072430Y0144510D01*
X0072000Y0144770D01*
X0071550Y0145010D01*
X0071080Y0145200D01*
X0070600Y0145360D01*
X0070100Y0145480D01*
X0069600Y0145560D01*
X0069100Y0145600D01*
X0068590Y0145590D01*
X0068080Y0145550D01*
X0067580Y0145470D01*
X0067090Y0145350D01*
X0066610Y0145190D01*
X0066140Y0145000D01*
X0065690Y0144770D01*
X0065260Y0144500D01*
X0064850Y0144200D01*
X0064460Y0143870D01*
X0064110Y0143500D01*
X0063780Y0143120D01*
X0063930Y0143010D01*
X0064240Y0143380D01*
X0064590Y0143740D01*
X0064960Y0144060D01*
X0065360Y0144350D01*
X0065780Y0144610D01*
X0066220Y0144840D01*
X0066670Y0145030D01*
X0067140Y0145180D01*
X0067620Y0145300D01*
X0068110Y0145380D01*
X0068600Y0145410D01*
X0069090Y0145420D01*
X0069580Y0145380D01*
X0070070Y0145300D01*
X0070550Y0145180D01*
X0071020Y0145030D01*
X0071470Y0144840D01*
X0071910Y0144620D01*
X0072330Y0144360D01*
X0072730Y0144070D01*
X0073100Y0143740D01*
X0073450Y0143390D01*
X0073770Y0143020D01*
X0074050Y0142620D01*
X0074310Y0142190D01*
X0074530Y0141750D01*
X0074710Y0141300D01*
X0074860Y0140830D01*
X0074970Y0140350D01*
X0075040Y0139860D01*
X0075080Y0139370D01*
X0075070Y0138870D01*
X0075030Y0138380D01*
X0074940Y0137900D01*
X0074820Y0137420D01*
X0074660Y0136950D01*
X0074470Y0136500D01*
X0074240Y0136060D01*
X0073970Y0135650D01*
X0073680Y0135250D01*
X0073350Y0134880D01*
X0073000Y0134540D01*
X0072620Y0134230D01*
X0072210Y0133950D01*
X0071790Y0133700D01*
X0071340Y0133480D01*
X0070880Y0133300D01*
X0070410Y0133160D01*
X0069930Y0133050D01*
X0069440Y0132990D01*
X0068950Y0132960D01*
X0068950Y0133140D01*
X0069440Y0133170D01*
X0069920Y0133240D01*
X0070400Y0133340D01*
X0070860Y0133490D01*
X0071320Y0133670D01*
X0071750Y0133880D01*
X0072170Y0134130D01*
X0072570Y0134420D01*
X0072940Y0134730D01*
X0073290Y0135080D01*
X0073610Y0135450D01*
X0073890Y0135850D01*
X0074140Y0136260D01*
X0074360Y0136700D01*
X0074550Y0137150D01*
X0074690Y0137620D01*
X0074800Y0138090D01*
X0074870Y0138580D01*
X0074900Y0139070D01*
X0074890Y0139550D01*
X0074840Y0140040D01*
X0074750Y0140520D01*
X0074630Y0140990D01*
X0074460Y0141450D01*
X0074260Y0141900D01*
X0074030Y0142320D01*
X0073760Y0142730D01*
X0073450Y0143110D01*
X0073120Y0143470D01*
X0072760Y0143800D01*
X0072380Y0144100D01*
X0071970Y0144370D01*
X0071540Y0144610D01*
X0071100Y0144810D01*
X0070640Y0144970D01*
X0070170Y0145100D01*
X0069690Y0145180D01*
X0069200Y0145230D01*
X0068710Y0145240D01*
X0068220Y0145210D01*
X0067740Y0145140D01*
X0067270Y0145030D01*
X0066800Y0144880D01*
X0066350Y0144700D01*
X0065910Y0144480D01*
X0065490Y0144220D01*
X0065100Y0143940D01*
X0064730Y0143620D01*
X0064390Y0143270D01*
X0064070Y0142900D01*
X0064210Y0142790D01*
X0064530Y0143160D01*
X0064870Y0143500D01*
X0065240Y0143820D01*
X0065630Y0144100D01*
X0066040Y0144350D01*
X0066480Y0144560D01*
X0066930Y0144740D01*
X0067390Y0144880D01*
X0067860Y0144980D01*
X0068340Y0145040D01*
X0068820Y0145060D01*
X0069310Y0145040D01*
X0069790Y0144980D01*
X0070260Y0144890D01*
X0070720Y0144750D01*
X0071170Y0144580D01*
X0071610Y0144370D01*
X0072030Y0144130D01*
X0072420Y0143850D01*
X0072790Y0143540D01*
X0073140Y0143200D01*
X0073450Y0142830D01*
X0073740Y0142440D01*
X0073990Y0142030D01*
X0074200Y0141600D01*
X0074380Y0141150D01*
X0074530Y0140690D01*
X0074630Y0140210D01*
X0074690Y0139740D01*
X0074720Y0139250D01*
X0074700Y0138770D01*
X0074650Y0138290D01*
X0074560Y0137820D01*
X0074420Y0137350D01*
X0074250Y0136900D01*
X0074050Y0136460D01*
X0073810Y0136040D01*
X0073530Y0135650D01*
X0073220Y0135270D01*
X0072890Y0134930D01*
X0072520Y0134610D01*
X0072130Y0134320D01*
X0071720Y0134070D01*
X0071290Y0133850D01*
X0070840Y0133670D01*
X0070380Y0133520D01*
X0069910Y0133420D01*
X0069430Y0133350D01*
X0068950Y0133320D01*
X0068950Y0133500D01*
X0069430Y0133530D01*
X0069900Y0133600D01*
X0070370Y0133710D01*
X0070820Y0133850D01*
X0071260Y0134040D01*
X0071690Y0134260D01*
X0072090Y0134510D01*
X0072470Y0134800D01*
X0072830Y0135120D01*
X0073150Y0135470D01*
X0073450Y0135840D01*
X0073720Y0136240D01*
X0073950Y0136660D01*
X0074140Y0137100D01*
X0074300Y0137550D01*
X0074420Y0138010D01*
X0074500Y0138480D01*
X0074540Y0138960D01*
X0074530Y0139440D01*
X0074490Y0139910D01*
X0074410Y0140380D01*
X0074290Y0140850D01*
X0074130Y0141300D01*
X0073940Y0141730D01*
X0073710Y0142150D01*
X0073440Y0142550D01*
X0073140Y0142920D01*
X0072820Y0143270D01*
X0072460Y0143590D01*
X0072080Y0143880D01*
X0071670Y0144130D01*
X0071250Y0144350D01*
X0070810Y0144530D01*
X0070350Y0144680D01*
X0069880Y0144790D01*
X0069410Y0144850D01*
X0068930Y0144880D01*
X0068460Y0144870D01*
X0067980Y0144810D01*
X0067510Y0144720D01*
X0067050Y0144590D01*
X0066610Y0144420D01*
X0066170Y0144210D01*
X0065760Y0143970D01*
X0065370Y0143690D01*
X0065010Y0143390D01*
X0064670Y0143050D01*
X0064360Y0142680D01*
X0020000Y0232920D02*
G75*
%LPD*%
D13*
X0060280Y0315700D02*
X0060280Y0322100D01*
X0058150Y0322100D02*
X0062420Y0322100D01*
X0064590Y0318900D02*
X0065660Y0319970D01*
X0067800Y0319970D01*
X0068860Y0318900D01*
X0068860Y0317830D01*
X0064590Y0317830D01*
X0064590Y0316770D02*
X0064590Y0318900D01*
X0064590Y0316770D02*
X0065660Y0315700D01*
X0067800Y0315700D01*
X0071040Y0315700D02*
X0075310Y0319970D01*
X0077480Y0319970D02*
X0079620Y0319970D01*
X0078550Y0321040D02*
X0078550Y0316770D01*
X0079620Y0315700D01*
X0075310Y0315700D02*
X0071040Y0319970D01*
D29*
X0036350Y0319400D03*
D10*
X0084850Y0297400D02*
X0109850Y0297400D01*
X0109850Y0277400D01*
X0084850Y0277400D01*
X0084850Y0297400D01*
X0084850Y0296230D02*
X0109850Y0296230D01*
X0109850Y0294650D02*
X0084850Y0294650D01*
X0084850Y0293060D02*
X0091950Y0293060D01*
X0092340Y0293450D02*
X0088800Y0289900D01*
X0088800Y0287900D01*
X0094350Y0287900D01*
X0094350Y0293450D01*
X0092340Y0293450D01*
X0094350Y0293060D02*
X0095350Y0293060D01*
X0095350Y0293450D02*
X0097350Y0293450D01*
X0100900Y0289900D01*
X0100900Y0287900D01*
X0095350Y0287900D01*
X0095350Y0286900D01*
X0100900Y0286900D01*
X0100900Y0284890D01*
X0097350Y0281350D01*
X0095350Y0281350D01*
X0095350Y0286900D01*
X0094350Y0286900D01*
X0094350Y0281350D01*
X0092340Y0281350D01*
X0088800Y0284890D01*
X0088800Y0286900D01*
X0094350Y0286900D01*
X0094350Y0287900D01*
X0095350Y0287900D01*
X0095350Y0293450D01*
X0095350Y0291470D02*
X0094350Y0291470D01*
X0094350Y0289890D02*
X0095350Y0289890D01*
X0095350Y0288300D02*
X0094350Y0288300D01*
X0094350Y0286720D02*
X0095350Y0286720D01*
X0095350Y0285130D02*
X0094350Y0285130D01*
X0094350Y0283550D02*
X0095350Y0283550D01*
X0095350Y0281960D02*
X0094350Y0281960D01*
X0091730Y0281960D02*
X0084850Y0281960D01*
X0084850Y0280380D02*
X0109850Y0280380D01*
X0109850Y0281960D02*
X0097970Y0281960D01*
X0099550Y0283550D02*
X0109850Y0283550D01*
X0109850Y0285130D02*
X0100900Y0285130D01*
X0100900Y0286720D02*
X0109850Y0286720D01*
X0109850Y0288300D02*
X0100900Y0288300D01*
X0100900Y0289890D02*
X0109850Y0289890D01*
X0109850Y0291470D02*
X0099330Y0291470D01*
X0097740Y0293060D02*
X0109850Y0293060D01*
X0110250Y0306600D02*
X0108850Y0309400D01*
X0108850Y0314400D01*
X0112690Y0322080D01*
X0115010Y0322080D01*
X0118850Y0314400D01*
X0118850Y0309400D01*
X0117450Y0306600D01*
X0117450Y0311060D01*
X0116670Y0311840D01*
X0117070Y0312250D01*
X0117650Y0313640D01*
X0117650Y0314400D01*
X0117650Y0315150D01*
X0117070Y0316550D01*
X0116000Y0317620D01*
X0114600Y0318200D01*
X0113850Y0318200D01*
X0113850Y0314400D01*
X0113850Y0314400D01*
X0117650Y0314400D01*
X0113850Y0314400D01*
X0113850Y0314400D01*
X0113850Y0318200D01*
X0113090Y0318200D01*
X0111700Y0317620D01*
X0110630Y0316550D01*
X0110050Y0315150D01*
X0110050Y0314400D01*
X0113840Y0314400D01*
X0113840Y0314400D01*
X0110050Y0314400D01*
X0110050Y0313640D01*
X0110630Y0312250D01*
X0111030Y0311840D01*
X0110250Y0311060D01*
X0110250Y0306600D01*
X0110250Y0307330D02*
X0109880Y0307330D01*
X0110250Y0308910D02*
X0109090Y0308910D01*
X0108850Y0310500D02*
X0110250Y0310500D01*
X0110790Y0312090D02*
X0108850Y0312090D01*
X0108850Y0313670D02*
X0110050Y0313670D01*
X0110090Y0315260D02*
X0109280Y0315260D01*
X0110070Y0316840D02*
X0110920Y0316840D01*
X0110860Y0318430D02*
X0116830Y0318430D01*
X0116780Y0316840D02*
X0117630Y0316840D01*
X0117610Y0315260D02*
X0118420Y0315260D01*
X0118850Y0313670D02*
X0117650Y0313670D01*
X0116910Y0312090D02*
X0118850Y0312090D01*
X0118850Y0310500D02*
X0117450Y0310500D01*
X0117450Y0308910D02*
X0118610Y0308910D01*
X0117810Y0307330D02*
X0117450Y0307330D01*
X0113850Y0315260D02*
X0113850Y0315260D01*
X0113850Y0316840D02*
X0113850Y0316840D01*
X0111660Y0320010D02*
X0116040Y0320010D01*
X0115250Y0321600D02*
X0112450Y0321600D01*
X0090370Y0291470D02*
X0084850Y0291470D01*
X0084850Y0289890D02*
X0088800Y0289890D01*
X0088800Y0288300D02*
X0084850Y0288300D01*
X0084850Y0286720D02*
X0088800Y0286720D01*
X0088800Y0285130D02*
X0084850Y0285130D01*
X0084850Y0283550D02*
X0090140Y0283550D01*
X0084850Y0278790D02*
X0109850Y0278790D01*
X0078850Y0273400D02*
X0078850Y0263400D01*
X0058850Y0263400D01*
X0061780Y0284400D02*
X0061810Y0285040D01*
X0061900Y0285680D01*
X0062040Y0286310D01*
X0062240Y0286920D01*
X0062500Y0287510D01*
X0062810Y0288070D01*
X0063170Y0288610D01*
X0063570Y0289110D01*
X0064020Y0289570D01*
X0064510Y0289980D01*
X0065040Y0290360D01*
X0065600Y0290680D01*
X0066180Y0290950D01*
X0066790Y0291160D01*
X0067410Y0291320D01*
X0068050Y0291420D01*
X0068690Y0291470D01*
X0069330Y0291450D01*
X0069970Y0291380D01*
X0070600Y0291250D01*
X0071220Y0291060D01*
X0071810Y0290820D01*
X0072380Y0290520D01*
X0072930Y0290180D01*
X0073440Y0289780D01*
X0073910Y0289340D01*
X0074330Y0288860D01*
X0074720Y0288340D01*
X0075050Y0287790D01*
X0075330Y0287220D01*
X0075560Y0286620D01*
X0075740Y0286000D01*
X0075850Y0285360D01*
X0075910Y0284720D01*
X0075910Y0284080D01*
X0075850Y0283440D01*
X0075740Y0282800D01*
X0075560Y0282180D01*
X0075330Y0281580D01*
X0075050Y0281010D01*
X0074720Y0280460D01*
X0074330Y0279940D01*
X0073910Y0279460D01*
X0073440Y0279020D01*
X0072930Y0278620D01*
X0072390Y0278280D01*
X0071810Y0277980D01*
X0071220Y0277740D01*
X0070600Y0277550D01*
X0069970Y0277420D01*
X0069330Y0277350D01*
X0068690Y0277330D01*
X0068050Y0277380D01*
X0067410Y0277480D01*
X0066790Y0277640D01*
X0066180Y0277850D01*
X0065600Y0278120D01*
X0065040Y0278440D01*
X0064510Y0278820D01*
X0064020Y0279230D01*
X0063570Y0279690D01*
X0063170Y0280190D01*
X0062810Y0280730D01*
X0062500Y0281290D01*
X0062240Y0281880D01*
X0062040Y0282490D01*
X0061900Y0283120D01*
X0061810Y0283760D01*
X0061780Y0284400D01*
D21*
X0028850Y0284400D03*
X0094850Y0287400D03*
D11*
X0028850Y0244400D03*
D26*
X0048850Y0244400D03*
D34*
X0108240Y0250480D03*
X0108240Y0260320D03*
D35*
X0113850Y0314400D03*
D17*
X0113850Y0308400D03*
D27*
X0068940Y0238710D02*
X0068940Y0240110D01*
X0068950Y0240100D02*
X0069420Y0240130D01*
X0069880Y0240200D01*
X0070330Y0240300D01*
X0070770Y0240440D01*
X0071200Y0240620D01*
X0071620Y0240840D01*
X0072010Y0241090D01*
X0072380Y0241370D01*
X0072730Y0241680D01*
X0073050Y0242020D01*
X0073340Y0242390D01*
X0073600Y0242770D01*
X0073820Y0243180D01*
X0074010Y0243610D01*
X0074160Y0244050D01*
X0074280Y0244500D01*
X0074360Y0244960D01*
X0074400Y0245430D01*
X0074390Y0245890D01*
X0074350Y0246360D01*
X0074280Y0246820D01*
X0074160Y0247270D01*
X0074000Y0247710D01*
X0073810Y0248130D01*
X0073590Y0248540D01*
X0073330Y0248930D01*
X0073040Y0249290D01*
X0072720Y0249630D01*
X0072370Y0249940D01*
X0072000Y0250220D01*
X0071600Y0250470D01*
X0071190Y0250680D01*
X0070760Y0250860D01*
X0070310Y0251000D01*
X0069860Y0251110D01*
X0069400Y0251170D01*
X0068930Y0251200D01*
X0068470Y0251190D01*
X0068000Y0251140D01*
X0067550Y0251040D01*
X0067100Y0250920D01*
X0066660Y0250750D01*
X0066240Y0250550D01*
X0065840Y0250310D01*
X0065460Y0250040D01*
X0065100Y0249740D01*
X0064770Y0249410D01*
X0064470Y0249060D01*
X0063360Y0249890D01*
X0063350Y0249900D01*
X0063690Y0250310D01*
X0064060Y0250690D01*
X0064460Y0251040D01*
X0064880Y0251350D01*
X0065330Y0251640D01*
X0065790Y0251890D01*
X0066280Y0252110D01*
X0066780Y0252280D01*
X0067290Y0252420D01*
X0067810Y0252520D01*
X0068330Y0252580D01*
X0068860Y0252600D01*
X0069390Y0252580D01*
X0069920Y0252520D01*
X0070440Y0252420D01*
X0070950Y0252280D01*
X0071450Y0252100D01*
X0071930Y0251880D01*
X0072400Y0251630D01*
X0072840Y0251340D01*
X0073260Y0251020D01*
X0073660Y0250670D01*
X0074030Y0250290D01*
X0074360Y0249880D01*
X0074670Y0249450D01*
X0074940Y0248990D01*
X0075180Y0248520D01*
X0075380Y0248030D01*
X0075540Y0247520D01*
X0075670Y0247010D01*
X0075750Y0246490D01*
X0075790Y0245960D01*
X0075800Y0245430D01*
X0075760Y0244900D01*
X0075680Y0244380D01*
X0075570Y0243860D01*
X0075410Y0243350D01*
X0075220Y0242860D01*
X0074980Y0242380D01*
X0074720Y0241930D01*
X0074420Y0241490D01*
X0074080Y0241080D01*
X0073720Y0240690D01*
X0073330Y0240340D01*
X0072910Y0240010D01*
X0072470Y0239720D01*
X0072010Y0239460D01*
X0071530Y0239240D01*
X0071030Y0239050D01*
X0070520Y0238900D01*
X0070000Y0238800D01*
X0069480Y0238730D01*
X0068950Y0238700D01*
X0068950Y0238880D01*
X0069470Y0238910D01*
X0069980Y0238970D01*
X0070480Y0239080D01*
X0070980Y0239220D01*
X0071460Y0239400D01*
X0071930Y0239620D01*
X0072380Y0239870D01*
X0072810Y0240160D01*
X0073210Y0240480D01*
X0073600Y0240820D01*
X0073950Y0241200D01*
X0074270Y0241600D01*
X0074570Y0242020D01*
X0074830Y0242470D01*
X0075050Y0242930D01*
X0075240Y0243410D01*
X0075390Y0243910D01*
X0075510Y0244410D01*
X0075580Y0244920D01*
X0075620Y0245440D01*
X0075610Y0245950D01*
X0075570Y0246470D01*
X0075490Y0246970D01*
X0075370Y0247480D01*
X0075210Y0247970D01*
X0075020Y0248440D01*
X0074790Y0248910D01*
X0074520Y0249350D01*
X0074220Y0249770D01*
X0073890Y0250170D01*
X0073530Y0250540D01*
X0073150Y0250880D01*
X0072740Y0251190D01*
X0072300Y0251470D01*
X0071850Y0251720D01*
X0071380Y0251930D01*
X0070900Y0252100D01*
X0070400Y0252240D01*
X0069890Y0252340D01*
X0069380Y0252400D01*
X0068860Y0252420D01*
X0068350Y0252400D01*
X0067840Y0252340D01*
X0067330Y0252250D01*
X0066830Y0252110D01*
X0066340Y0251940D01*
X0065870Y0251730D01*
X0065420Y0251490D01*
X0064980Y0251210D01*
X0064570Y0250900D01*
X0064190Y0250560D01*
X0063830Y0250190D01*
X0063490Y0249790D01*
X0063640Y0249680D01*
X0063970Y0250080D01*
X0064330Y0250440D01*
X0064710Y0250780D01*
X0065120Y0251080D01*
X0065550Y0251360D01*
X0066010Y0251590D01*
X0066480Y0251800D01*
X0066960Y0251960D01*
X0067460Y0252090D01*
X0067960Y0252180D01*
X0068470Y0252230D01*
X0068980Y0252240D01*
X0069490Y0252210D01*
X0070000Y0252140D01*
X0070500Y0252030D01*
X0070990Y0251880D01*
X0071470Y0251700D01*
X0071930Y0251480D01*
X0072370Y0251220D01*
X0072790Y0250930D01*
X0073190Y0250610D01*
X0073560Y0250260D01*
X0073900Y0249880D01*
X0074220Y0249470D01*
X0074500Y0249050D01*
X0074740Y0248600D01*
X0074960Y0248130D01*
X0075130Y0247650D01*
X0075270Y0247160D01*
X0075360Y0246650D01*
X0075420Y0246150D01*
X0075440Y0245630D01*
X0075420Y0245120D01*
X0075360Y0244620D01*
X0075260Y0244110D01*
X0075120Y0243620D01*
X0074940Y0243140D01*
X0074730Y0242680D01*
X0074480Y0242230D01*
X0074200Y0241800D01*
X0073880Y0241400D01*
X0073540Y0241020D01*
X0073170Y0240670D01*
X0072770Y0240350D01*
X0072340Y0240060D01*
X0071900Y0239810D01*
X0071440Y0239590D01*
X0070960Y0239410D01*
X0070470Y0239260D01*
X0069970Y0239160D01*
X0069460Y0239090D01*
X0068950Y0239060D01*
X0068950Y0239240D01*
X0069460Y0239270D01*
X0069960Y0239340D01*
X0070460Y0239440D01*
X0070940Y0239590D01*
X0071410Y0239770D01*
X0071870Y0240000D01*
X0072310Y0240250D01*
X0072720Y0240540D01*
X0073120Y0240870D01*
X0073480Y0241220D01*
X0073820Y0241600D01*
X0074120Y0242000D01*
X0074390Y0242430D01*
X0074630Y0242880D01*
X0074830Y0243350D01*
X0075000Y0243830D01*
X0075120Y0244320D01*
X0075210Y0244820D01*
X0075250Y0245320D01*
X0075260Y0245830D01*
X0075220Y0246340D01*
X0075150Y0246840D01*
X0075040Y0247330D01*
X0074880Y0247820D01*
X0074690Y0248290D01*
X0074470Y0248740D01*
X0074200Y0249180D01*
X0073910Y0249590D01*
X0073580Y0249980D01*
X0073220Y0250340D01*
X0072840Y0250670D01*
X0072430Y0250970D01*
X0072000Y0251230D01*
X0071550Y0251470D01*
X0071080Y0251660D01*
X0070600Y0251820D01*
X0070100Y0251940D01*
X0069600Y0252020D01*
X0069100Y0252060D01*
X0068590Y0252050D01*
X0068080Y0252010D01*
X0067580Y0251930D01*
X0067090Y0251810D01*
X0066610Y0251650D01*
X0066140Y0251460D01*
X0065690Y0251230D01*
X0065260Y0250960D01*
X0064850Y0250660D01*
X0064460Y0250330D01*
X0064110Y0249960D01*
X0063780Y0249580D01*
X0063930Y0249470D01*
X0064240Y0249840D01*
X0064590Y0250200D01*
X0064960Y0250520D01*
X0065360Y0250810D01*
X0065780Y0251070D01*
X0066220Y0251300D01*
X0066670Y0251490D01*
X0067140Y0251640D01*
X0067620Y0251760D01*
X0068110Y0251840D01*
X0068600Y0251870D01*
X0069090Y0251880D01*
X0069580Y0251840D01*
X0070070Y0251760D01*
X0070550Y0251640D01*
X0071020Y0251490D01*
X0071470Y0251300D01*
X0071910Y0251080D01*
X0072330Y0250820D01*
X0072730Y0250530D01*
X0073100Y0250200D01*
X0073450Y0249850D01*
X0073770Y0249480D01*
X0074050Y0249080D01*
X0074310Y0248650D01*
X0074530Y0248210D01*
X0074710Y0247760D01*
X0074860Y0247290D01*
X0074970Y0246810D01*
X0075040Y0246320D01*
X0075080Y0245830D01*
X0075070Y0245330D01*
X0075030Y0244840D01*
X0074940Y0244360D01*
X0074820Y0243880D01*
X0074660Y0243410D01*
X0074470Y0242960D01*
X0074240Y0242520D01*
X0073970Y0242110D01*
X0073680Y0241710D01*
X0073350Y0241340D01*
X0073000Y0241000D01*
X0072620Y0240690D01*
X0072210Y0240410D01*
X0071790Y0240160D01*
X0071340Y0239940D01*
X0070880Y0239760D01*
X0070410Y0239620D01*
X0069930Y0239510D01*
X0069440Y0239450D01*
X0068950Y0239420D01*
X0068950Y0239600D01*
X0069440Y0239630D01*
X0069920Y0239700D01*
X0070400Y0239800D01*
X0070860Y0239950D01*
X0071320Y0240130D01*
X0071750Y0240340D01*
X0072170Y0240590D01*
X0072570Y0240880D01*
X0072940Y0241190D01*
X0073290Y0241540D01*
X0073610Y0241910D01*
X0073890Y0242310D01*
X0074140Y0242720D01*
X0074360Y0243160D01*
X0074550Y0243610D01*
X0074690Y0244080D01*
X0074800Y0244550D01*
X0074870Y0245040D01*
X0074900Y0245530D01*
X0074890Y0246010D01*
X0074840Y0246500D01*
X0074750Y0246980D01*
X0074630Y0247450D01*
X0074460Y0247910D01*
X0074260Y0248360D01*
X0074030Y0248780D01*
X0073760Y0249190D01*
X0073450Y0249570D01*
X0073120Y0249930D01*
X0072760Y0250260D01*
X0072380Y0250560D01*
X0071970Y0250830D01*
X0071540Y0251070D01*
X0071100Y0251270D01*
X0070640Y0251430D01*
X0070170Y0251560D01*
X0069690Y0251640D01*
X0069200Y0251690D01*
X0068710Y0251700D01*
X0068220Y0251670D01*
X0067740Y0251600D01*
X0067270Y0251490D01*
X0066800Y0251340D01*
X0066350Y0251160D01*
X0065910Y0250940D01*
X0065490Y0250680D01*
X0065100Y0250400D01*
X0064730Y0250080D01*
X0064390Y0249730D01*
X0064070Y0249360D01*
X0064210Y0249250D01*
X0064530Y0249620D01*
X0064870Y0249960D01*
X0065240Y0250280D01*
X0065630Y0250560D01*
X0066040Y0250810D01*
X0066480Y0251020D01*
X0066930Y0251200D01*
X0067390Y0251340D01*
X0067860Y0251440D01*
X0068340Y0251500D01*
X0068820Y0251520D01*
X0069310Y0251500D01*
X0069790Y0251440D01*
X0070260Y0251350D01*
X0070720Y0251210D01*
X0071170Y0251040D01*
X0071610Y0250830D01*
X0072030Y0250590D01*
X0072420Y0250310D01*
X0072790Y0250000D01*
X0073140Y0249660D01*
X0073450Y0249290D01*
X0073740Y0248900D01*
X0073990Y0248490D01*
X0074200Y0248060D01*
X0074380Y0247610D01*
X0074530Y0247150D01*
X0074630Y0246670D01*
X0074690Y0246200D01*
X0074720Y0245710D01*
X0074700Y0245230D01*
X0074650Y0244750D01*
X0074560Y0244280D01*
X0074420Y0243810D01*
X0074250Y0243360D01*
X0074050Y0242920D01*
X0073810Y0242500D01*
X0073530Y0242110D01*
X0073220Y0241730D01*
X0072890Y0241390D01*
X0072520Y0241070D01*
X0072130Y0240780D01*
X0071720Y0240530D01*
X0071290Y0240310D01*
X0070840Y0240130D01*
X0070380Y0239980D01*
X0069910Y0239880D01*
X0069430Y0239810D01*
X0068950Y0239780D01*
X0068950Y0239960D01*
X0069430Y0239990D01*
X0069900Y0240060D01*
X0070370Y0240170D01*
X0070820Y0240310D01*
X0071260Y0240500D01*
X0071690Y0240720D01*
X0072090Y0240970D01*
X0072470Y0241260D01*
X0072830Y0241580D01*
X0073150Y0241930D01*
X0073450Y0242300D01*
X0073720Y0242700D01*
X0073950Y0243120D01*
X0074140Y0243560D01*
X0074300Y0244010D01*
X0074420Y0244470D01*
X0074500Y0244940D01*
X0074540Y0245420D01*
X0074530Y0245900D01*
X0074490Y0246370D01*
X0074410Y0246840D01*
X0074290Y0247310D01*
X0074130Y0247760D01*
X0073940Y0248190D01*
X0073710Y0248610D01*
X0073440Y0249010D01*
X0073140Y0249380D01*
X0072820Y0249730D01*
X0072460Y0250050D01*
X0072080Y0250340D01*
X0071670Y0250590D01*
X0071250Y0250810D01*
X0070810Y0250990D01*
X0070350Y0251140D01*
X0069880Y0251250D01*
X0069410Y0251310D01*
X0068930Y0251340D01*
X0068460Y0251330D01*
X0067980Y0251270D01*
X0067510Y0251180D01*
X0067050Y0251050D01*
X0066610Y0250880D01*
X0066170Y0250670D01*
X0065760Y0250430D01*
X0065370Y0250150D01*
X0065010Y0249850D01*
X0064670Y0249510D01*
X0064360Y0249140D01*
X0020000Y0339380D02*
G75*
%LPD*%
D13*
X0060280Y0422160D02*
X0060280Y0428560D01*
X0058150Y0428560D02*
X0062420Y0428560D01*
X0064590Y0425360D02*
X0065660Y0426430D01*
X0067800Y0426430D01*
X0068860Y0425360D01*
X0068860Y0424290D01*
X0064590Y0424290D01*
X0064590Y0423230D02*
X0064590Y0425360D01*
X0064590Y0423230D02*
X0065660Y0422160D01*
X0067800Y0422160D01*
X0071040Y0422160D02*
X0075310Y0426430D01*
X0077480Y0426430D02*
X0079620Y0426430D01*
X0078550Y0427500D02*
X0078550Y0423230D01*
X0079620Y0422160D01*
X0075310Y0422160D02*
X0071040Y0426430D01*
D29*
X0036350Y0425860D03*
D10*
X0084850Y0403860D02*
X0109850Y0403860D01*
X0109850Y0383860D01*
X0084850Y0383860D01*
X0084850Y0403860D01*
X0084850Y0402690D02*
X0109850Y0402690D01*
X0109850Y0401110D02*
X0084850Y0401110D01*
X0084850Y0399520D02*
X0091950Y0399520D01*
X0092340Y0399910D02*
X0088800Y0396360D01*
X0088800Y0394360D01*
X0094350Y0394360D01*
X0094350Y0399910D01*
X0092340Y0399910D01*
X0094350Y0399520D02*
X0095350Y0399520D01*
X0095350Y0399910D02*
X0097350Y0399910D01*
X0100900Y0396360D01*
X0100900Y0394360D01*
X0095350Y0394360D01*
X0095350Y0393360D01*
X0100900Y0393360D01*
X0100900Y0391350D01*
X0097350Y0387810D01*
X0095350Y0387810D01*
X0095350Y0393360D01*
X0094350Y0393360D01*
X0094350Y0387810D01*
X0092340Y0387810D01*
X0088800Y0391350D01*
X0088800Y0393360D01*
X0094350Y0393360D01*
X0094350Y0394360D01*
X0095350Y0394360D01*
X0095350Y0399910D01*
X0095350Y0397930D02*
X0094350Y0397930D01*
X0094350Y0396350D02*
X0095350Y0396350D01*
X0095350Y0394760D02*
X0094350Y0394760D01*
X0094350Y0393180D02*
X0095350Y0393180D01*
X0095350Y0391590D02*
X0094350Y0391590D01*
X0094350Y0390010D02*
X0095350Y0390010D01*
X0095350Y0388420D02*
X0094350Y0388420D01*
X0091730Y0388420D02*
X0084850Y0388420D01*
X0084850Y0386840D02*
X0109850Y0386840D01*
X0109850Y0388420D02*
X0097970Y0388420D01*
X0099550Y0390010D02*
X0109850Y0390010D01*
X0109850Y0391590D02*
X0100900Y0391590D01*
X0100900Y0393180D02*
X0109850Y0393180D01*
X0109850Y0394760D02*
X0100900Y0394760D01*
X0100900Y0396350D02*
X0109850Y0396350D01*
X0109850Y0397930D02*
X0099330Y0397930D01*
X0097740Y0399520D02*
X0109850Y0399520D01*
X0110250Y0413060D02*
X0108850Y0415860D01*
X0108850Y0420860D01*
X0112690Y0428540D01*
X0115010Y0428540D01*
X0118850Y0420860D01*
X0118850Y0415860D01*
X0117450Y0413060D01*
X0117450Y0417520D01*
X0116670Y0418300D01*
X0117070Y0418710D01*
X0117650Y0420100D01*
X0117650Y0420860D01*
X0117650Y0421610D01*
X0117070Y0423010D01*
X0116000Y0424080D01*
X0114600Y0424660D01*
X0113850Y0424660D01*
X0113850Y0420860D01*
X0113850Y0420860D01*
X0117650Y0420860D01*
X0113850Y0420860D01*
X0113850Y0420860D01*
X0113850Y0424660D01*
X0113090Y0424660D01*
X0111700Y0424080D01*
X0110630Y0423010D01*
X0110050Y0421610D01*
X0110050Y0420860D01*
X0113840Y0420860D01*
X0113840Y0420860D01*
X0110050Y0420860D01*
X0110050Y0420100D01*
X0110630Y0418710D01*
X0111030Y0418300D01*
X0110250Y0417520D01*
X0110250Y0413060D01*
X0110250Y0413790D02*
X0109880Y0413790D01*
X0110250Y0415370D02*
X0109090Y0415370D01*
X0108850Y0416960D02*
X0110250Y0416960D01*
X0110790Y0418550D02*
X0108850Y0418550D01*
X0108850Y0420130D02*
X0110050Y0420130D01*
X0110090Y0421720D02*
X0109280Y0421720D01*
X0110070Y0423300D02*
X0110920Y0423300D01*
X0110860Y0424890D02*
X0116830Y0424890D01*
X0116780Y0423300D02*
X0117630Y0423300D01*
X0117610Y0421720D02*
X0118420Y0421720D01*
X0118850Y0420130D02*
X0117650Y0420130D01*
X0116910Y0418550D02*
X0118850Y0418550D01*
X0118850Y0416960D02*
X0117450Y0416960D01*
X0117450Y0415370D02*
X0118610Y0415370D01*
X0117810Y0413790D02*
X0117450Y0413790D01*
X0113850Y0421720D02*
X0113850Y0421720D01*
X0113850Y0423300D02*
X0113850Y0423300D01*
X0111660Y0426470D02*
X0116040Y0426470D01*
X0115250Y0428060D02*
X0112450Y0428060D01*
X0090370Y0397930D02*
X0084850Y0397930D01*
X0084850Y0396350D02*
X0088800Y0396350D01*
X0088800Y0394760D02*
X0084850Y0394760D01*
X0084850Y0393180D02*
X0088800Y0393180D01*
X0088800Y0391590D02*
X0084850Y0391590D01*
X0084850Y0390010D02*
X0090140Y0390010D01*
X0084850Y0385250D02*
X0109850Y0385250D01*
X0078850Y0379860D02*
X0078850Y0369860D01*
X0058850Y0369860D01*
X0061780Y0390860D02*
X0061810Y0391500D01*
X0061900Y0392140D01*
X0062040Y0392770D01*
X0062240Y0393380D01*
X0062500Y0393970D01*
X0062810Y0394530D01*
X0063170Y0395070D01*
X0063570Y0395570D01*
X0064020Y0396030D01*
X0064510Y0396440D01*
X0065040Y0396820D01*
X0065600Y0397140D01*
X0066180Y0397410D01*
X0066790Y0397620D01*
X0067410Y0397780D01*
X0068050Y0397880D01*
X0068690Y0397930D01*
X0069330Y0397910D01*
X0069970Y0397840D01*
X0070600Y0397710D01*
X0071220Y0397520D01*
X0071810Y0397280D01*
X0072380Y0396980D01*
X0072930Y0396640D01*
X0073440Y0396240D01*
X0073910Y0395800D01*
X0074330Y0395320D01*
X0074720Y0394800D01*
X0075050Y0394250D01*
X0075330Y0393680D01*
X0075560Y0393080D01*
X0075740Y0392460D01*
X0075850Y0391820D01*
X0075910Y0391180D01*
X0075910Y0390540D01*
X0075850Y0389900D01*
X0075740Y0389260D01*
X0075560Y0388640D01*
X0075330Y0388040D01*
X0075050Y0387470D01*
X0074720Y0386920D01*
X0074330Y0386400D01*
X0073910Y0385920D01*
X0073440Y0385480D01*
X0072930Y0385080D01*
X0072390Y0384740D01*
X0071810Y0384440D01*
X0071220Y0384200D01*
X0070600Y0384010D01*
X0069970Y0383880D01*
X0069330Y0383810D01*
X0068690Y0383790D01*
X0068050Y0383840D01*
X0067410Y0383940D01*
X0066790Y0384100D01*
X0066180Y0384310D01*
X0065600Y0384580D01*
X0065040Y0384900D01*
X0064510Y0385280D01*
X0064020Y0385690D01*
X0063570Y0386150D01*
X0063170Y0386650D01*
X0062810Y0387190D01*
X0062500Y0387750D01*
X0062240Y0388340D01*
X0062040Y0388950D01*
X0061900Y0389580D01*
X0061810Y0390220D01*
X0061780Y0390860D01*
D21*
X0028850Y0390860D03*
X0094850Y0393860D03*
D11*
X0028850Y0350860D03*
D26*
X0048850Y0350860D03*
D34*
X0108240Y0356940D03*
X0108240Y0366780D03*
D35*
X0113850Y0420860D03*
D17*
X0113850Y0414860D03*
D27*
X0068940Y0345170D02*
X0068940Y0346570D01*
X0068950Y0346560D02*
X0069420Y0346590D01*
X0069880Y0346660D01*
X0070330Y0346760D01*
X0070770Y0346900D01*
X0071200Y0347080D01*
X0071620Y0347300D01*
X0072010Y0347550D01*
X0072380Y0347830D01*
X0072730Y0348140D01*
X0073050Y0348480D01*
X0073340Y0348850D01*
X0073600Y0349230D01*
X0073820Y0349640D01*
X0074010Y0350070D01*
X0074160Y0350510D01*
X0074280Y0350960D01*
X0074360Y0351420D01*
X0074400Y0351890D01*
X0074390Y0352350D01*
X0074350Y0352820D01*
X0074280Y0353280D01*
X0074160Y0353730D01*
X0074000Y0354170D01*
X0073810Y0354590D01*
X0073590Y0355000D01*
X0073330Y0355390D01*
X0073040Y0355750D01*
X0072720Y0356090D01*
X0072370Y0356400D01*
X0072000Y0356680D01*
X0071600Y0356930D01*
X0071190Y0357140D01*
X0070760Y0357320D01*
X0070310Y0357460D01*
X0069860Y0357570D01*
X0069400Y0357630D01*
X0068930Y0357660D01*
X0068470Y0357650D01*
X0068000Y0357600D01*
X0067550Y0357500D01*
X0067100Y0357380D01*
X0066660Y0357210D01*
X0066240Y0357010D01*
X0065840Y0356770D01*
X0065460Y0356500D01*
X0065100Y0356200D01*
X0064770Y0355870D01*
X0064470Y0355520D01*
X0063360Y0356350D01*
X0063350Y0356360D01*
X0063690Y0356770D01*
X0064060Y0357150D01*
X0064460Y0357500D01*
X0064880Y0357810D01*
X0065330Y0358100D01*
X0065790Y0358350D01*
X0066280Y0358570D01*
X0066780Y0358740D01*
X0067290Y0358880D01*
X0067810Y0358980D01*
X0068330Y0359040D01*
X0068860Y0359060D01*
X0069390Y0359040D01*
X0069920Y0358980D01*
X0070440Y0358880D01*
X0070950Y0358740D01*
X0071450Y0358560D01*
X0071930Y0358340D01*
X0072400Y0358090D01*
X0072840Y0357800D01*
X0073260Y0357480D01*
X0073660Y0357130D01*
X0074030Y0356750D01*
X0074360Y0356340D01*
X0074670Y0355910D01*
X0074940Y0355450D01*
X0075180Y0354980D01*
X0075380Y0354490D01*
X0075540Y0353980D01*
X0075670Y0353470D01*
X0075750Y0352950D01*
X0075790Y0352420D01*
X0075800Y0351890D01*
X0075760Y0351360D01*
X0075680Y0350840D01*
X0075570Y0350320D01*
X0075410Y0349810D01*
X0075220Y0349320D01*
X0074980Y0348840D01*
X0074720Y0348390D01*
X0074420Y0347950D01*
X0074080Y0347540D01*
X0073720Y0347150D01*
X0073330Y0346800D01*
X0072910Y0346470D01*
X0072470Y0346180D01*
X0072010Y0345920D01*
X0071530Y0345700D01*
X0071030Y0345510D01*
X0070520Y0345360D01*
X0070000Y0345260D01*
X0069480Y0345190D01*
X0068950Y0345160D01*
X0068950Y0345340D01*
X0069470Y0345370D01*
X0069980Y0345430D01*
X0070480Y0345540D01*
X0070980Y0345680D01*
X0071460Y0345860D01*
X0071930Y0346080D01*
X0072380Y0346330D01*
X0072810Y0346620D01*
X0073210Y0346940D01*
X0073600Y0347280D01*
X0073950Y0347660D01*
X0074270Y0348060D01*
X0074570Y0348480D01*
X0074830Y0348930D01*
X0075050Y0349390D01*
X0075240Y0349870D01*
X0075390Y0350370D01*
X0075510Y0350870D01*
X0075580Y0351380D01*
X0075620Y0351900D01*
X0075610Y0352410D01*
X0075570Y0352930D01*
X0075490Y0353430D01*
X0075370Y0353940D01*
X0075210Y0354430D01*
X0075020Y0354900D01*
X0074790Y0355370D01*
X0074520Y0355810D01*
X0074220Y0356230D01*
X0073890Y0356630D01*
X0073530Y0357000D01*
X0073150Y0357340D01*
X0072740Y0357650D01*
X0072300Y0357930D01*
X0071850Y0358180D01*
X0071380Y0358390D01*
X0070900Y0358560D01*
X0070400Y0358700D01*
X0069890Y0358800D01*
X0069380Y0358860D01*
X0068860Y0358880D01*
X0068350Y0358860D01*
X0067840Y0358800D01*
X0067330Y0358710D01*
X0066830Y0358570D01*
X0066340Y0358400D01*
X0065870Y0358190D01*
X0065420Y0357950D01*
X0064980Y0357670D01*
X0064570Y0357360D01*
X0064190Y0357020D01*
X0063830Y0356650D01*
X0063490Y0356250D01*
X0063640Y0356140D01*
X0063970Y0356540D01*
X0064330Y0356900D01*
X0064710Y0357240D01*
X0065120Y0357540D01*
X0065550Y0357820D01*
X0066010Y0358050D01*
X0066480Y0358260D01*
X0066960Y0358420D01*
X0067460Y0358550D01*
X0067960Y0358640D01*
X0068470Y0358690D01*
X0068980Y0358700D01*
X0069490Y0358670D01*
X0070000Y0358600D01*
X0070500Y0358490D01*
X0070990Y0358340D01*
X0071470Y0358160D01*
X0071930Y0357940D01*
X0072370Y0357680D01*
X0072790Y0357390D01*
X0073190Y0357070D01*
X0073560Y0356720D01*
X0073900Y0356340D01*
X0074220Y0355930D01*
X0074500Y0355510D01*
X0074740Y0355060D01*
X0074960Y0354590D01*
X0075130Y0354110D01*
X0075270Y0353620D01*
X0075360Y0353110D01*
X0075420Y0352610D01*
X0075440Y0352090D01*
X0075420Y0351580D01*
X0075360Y0351080D01*
X0075260Y0350570D01*
X0075120Y0350080D01*
X0074940Y0349600D01*
X0074730Y0349140D01*
X0074480Y0348690D01*
X0074200Y0348260D01*
X0073880Y0347860D01*
X0073540Y0347480D01*
X0073170Y0347130D01*
X0072770Y0346810D01*
X0072340Y0346520D01*
X0071900Y0346270D01*
X0071440Y0346050D01*
X0070960Y0345870D01*
X0070470Y0345720D01*
X0069970Y0345620D01*
X0069460Y0345550D01*
X0068950Y0345520D01*
X0068950Y0345700D01*
X0069460Y0345730D01*
X0069960Y0345800D01*
X0070460Y0345900D01*
X0070940Y0346050D01*
X0071410Y0346230D01*
X0071870Y0346460D01*
X0072310Y0346710D01*
X0072720Y0347000D01*
X0073120Y0347330D01*
X0073480Y0347680D01*
X0073820Y0348060D01*
X0074120Y0348460D01*
X0074390Y0348890D01*
X0074630Y0349340D01*
X0074830Y0349810D01*
X0075000Y0350290D01*
X0075120Y0350780D01*
X0075210Y0351280D01*
X0075250Y0351780D01*
X0075260Y0352290D01*
X0075220Y0352800D01*
X0075150Y0353300D01*
X0075040Y0353790D01*
X0074880Y0354280D01*
X0074690Y0354750D01*
X0074470Y0355200D01*
X0074200Y0355640D01*
X0073910Y0356050D01*
X0073580Y0356440D01*
X0073220Y0356800D01*
X0072840Y0357130D01*
X0072430Y0357430D01*
X0072000Y0357690D01*
X0071550Y0357930D01*
X0071080Y0358120D01*
X0070600Y0358280D01*
X0070100Y0358400D01*
X0069600Y0358480D01*
X0069100Y0358520D01*
X0068590Y0358510D01*
X0068080Y0358470D01*
X0067580Y0358390D01*
X0067090Y0358270D01*
X0066610Y0358110D01*
X0066140Y0357920D01*
X0065690Y0357690D01*
X0065260Y0357420D01*
X0064850Y0357120D01*
X0064460Y0356790D01*
X0064110Y0356420D01*
X0063780Y0356040D01*
X0063930Y0355930D01*
X0064240Y0356300D01*
X0064590Y0356660D01*
X0064960Y0356980D01*
X0065360Y0357270D01*
X0065780Y0357530D01*
X0066220Y0357760D01*
X0066670Y0357950D01*
X0067140Y0358100D01*
X0067620Y0358220D01*
X0068110Y0358300D01*
X0068600Y0358330D01*
X0069090Y0358340D01*
X0069580Y0358300D01*
X0070070Y0358220D01*
X0070550Y0358100D01*
X0071020Y0357950D01*
X0071470Y0357760D01*
X0071910Y0357540D01*
X0072330Y0357280D01*
X0072730Y0356990D01*
X0073100Y0356660D01*
X0073450Y0356310D01*
X0073770Y0355940D01*
X0074050Y0355540D01*
X0074310Y0355110D01*
X0074530Y0354670D01*
X0074710Y0354220D01*
X0074860Y0353750D01*
X0074970Y0353270D01*
X0075040Y0352780D01*
X0075080Y0352290D01*
X0075070Y0351790D01*
X0075030Y0351300D01*
X0074940Y0350820D01*
X0074820Y0350340D01*
X0074660Y0349870D01*
X0074470Y0349420D01*
X0074240Y0348980D01*
X0073970Y0348570D01*
X0073680Y0348170D01*
X0073350Y0347800D01*
X0073000Y0347460D01*
X0072620Y0347150D01*
X0072210Y0346870D01*
X0071790Y0346620D01*
X0071340Y0346400D01*
X0070880Y0346220D01*
X0070410Y0346080D01*
X0069930Y0345970D01*
X0069440Y0345910D01*
X0068950Y0345880D01*
X0068950Y0346060D01*
X0069440Y0346090D01*
X0069920Y0346160D01*
X0070400Y0346260D01*
X0070860Y0346410D01*
X0071320Y0346590D01*
X0071750Y0346800D01*
X0072170Y0347050D01*
X0072570Y0347340D01*
X0072940Y0347650D01*
X0073290Y0348000D01*
X0073610Y0348370D01*
X0073890Y0348770D01*
X0074140Y0349180D01*
X0074360Y0349620D01*
X0074550Y0350070D01*
X0074690Y0350540D01*
X0074800Y0351010D01*
X0074870Y0351500D01*
X0074900Y0351990D01*
X0074890Y0352470D01*
X0074840Y0352960D01*
X0074750Y0353440D01*
X0074630Y0353910D01*
X0074460Y0354370D01*
X0074260Y0354820D01*
X0074030Y0355240D01*
X0073760Y0355650D01*
X0073450Y0356030D01*
X0073120Y0356390D01*
X0072760Y0356720D01*
X0072380Y0357020D01*
X0071970Y0357290D01*
X0071540Y0357530D01*
X0071100Y0357730D01*
X0070640Y0357890D01*
X0070170Y0358020D01*
X0069690Y0358100D01*
X0069200Y0358150D01*
X0068710Y0358160D01*
X0068220Y0358130D01*
X0067740Y0358060D01*
X0067270Y0357950D01*
X0066800Y0357800D01*
X0066350Y0357620D01*
X0065910Y0357400D01*
X0065490Y0357140D01*
X0065100Y0356860D01*
X0064730Y0356540D01*
X0064390Y0356190D01*
X0064070Y0355820D01*
X0064210Y0355710D01*
X0064530Y0356080D01*
X0064870Y0356420D01*
X0065240Y0356740D01*
X0065630Y0357020D01*
X0066040Y0357270D01*
X0066480Y0357480D01*
X0066930Y0357660D01*
X0067390Y0357800D01*
X0067860Y0357900D01*
X0068340Y0357960D01*
X0068820Y0357980D01*
X0069310Y0357960D01*
X0069790Y0357900D01*
X0070260Y0357810D01*
X0070720Y0357670D01*
X0071170Y0357500D01*
X0071610Y0357290D01*
X0072030Y0357050D01*
X0072420Y0356770D01*
X0072790Y0356460D01*
X0073140Y0356120D01*
X0073450Y0355750D01*
X0073740Y0355360D01*
X0073990Y0354950D01*
X0074200Y0354520D01*
X0074380Y0354070D01*
X0074530Y0353610D01*
X0074630Y0353130D01*
X0074690Y0352660D01*
X0074720Y0352170D01*
X0074700Y0351690D01*
X0074650Y0351210D01*
X0074560Y0350740D01*
X0074420Y0350270D01*
X0074250Y0349820D01*
X0074050Y0349380D01*
X0073810Y0348960D01*
X0073530Y0348570D01*
X0073220Y0348190D01*
X0072890Y0347850D01*
X0072520Y0347530D01*
X0072130Y0347240D01*
X0071720Y0346990D01*
X0071290Y0346770D01*
X0070840Y0346590D01*
X0070380Y0346440D01*
X0069910Y0346340D01*
X0069430Y0346270D01*
X0068950Y0346240D01*
X0068950Y0346420D01*
X0069430Y0346450D01*
X0069900Y0346520D01*
X0070370Y0346630D01*
X0070820Y0346770D01*
X0071260Y0346960D01*
X0071690Y0347180D01*
X0072090Y0347430D01*
X0072470Y0347720D01*
X0072830Y0348040D01*
X0073150Y0348390D01*
X0073450Y0348760D01*
X0073720Y0349160D01*
X0073950Y0349580D01*
X0074140Y0350020D01*
X0074300Y0350470D01*
X0074420Y0350930D01*
X0074500Y0351400D01*
X0074540Y0351880D01*
X0074530Y0352360D01*
X0074490Y0352830D01*
X0074410Y0353300D01*
X0074290Y0353770D01*
X0074130Y0354220D01*
X0073940Y0354650D01*
X0073710Y0355070D01*
X0073440Y0355470D01*
X0073140Y0355840D01*
X0072820Y0356190D01*
X0072460Y0356510D01*
X0072080Y0356800D01*
X0071670Y0357050D01*
X0071250Y0357270D01*
X0070810Y0357450D01*
X0070350Y0357600D01*
X0069880Y0357710D01*
X0069410Y0357770D01*
X0068930Y0357800D01*
X0068460Y0357790D01*
X0067980Y0357730D01*
X0067510Y0357640D01*
X0067050Y0357510D01*
X0066610Y0357340D01*
X0066170Y0357130D01*
X0065760Y0356890D01*
X0065370Y0356610D01*
X0065010Y0356310D01*
X0064670Y0355970D01*
X0064360Y0355600D01*
X0137200Y0020000D02*
G75*
%LPD*%
D13*
X0148380Y0060280D02*
X0141980Y0060280D01*
X0141980Y0058150D02*
X0141980Y0062420D01*
X0145180Y0064590D02*
X0144110Y0065660D01*
X0144110Y0067800D01*
X0145180Y0068860D01*
X0146250Y0068860D01*
X0146250Y0064590D01*
X0147310Y0064590D02*
X0145180Y0064590D01*
X0147310Y0064590D02*
X0148380Y0065660D01*
X0148380Y0067800D01*
X0148380Y0071040D02*
X0144110Y0075310D01*
X0144110Y0077480D02*
X0144110Y0079620D01*
X0143040Y0078550D02*
X0147310Y0078550D01*
X0148380Y0079620D01*
X0148380Y0075310D02*
X0144110Y0071040D01*
D44*
X0144680Y0036350D03*
D10*
X0166680Y0084850D02*
X0166680Y0109850D01*
X0186680Y0109850D01*
X0186680Y0084850D01*
X0166680Y0084850D01*
X0167850Y0084850D02*
X0167850Y0109850D01*
X0169430Y0109850D02*
X0169430Y0084850D01*
X0171020Y0084850D02*
X0171020Y0091950D01*
X0170630Y0092340D02*
X0174180Y0088800D01*
X0176180Y0088800D01*
X0176180Y0094350D01*
X0170630Y0094350D01*
X0170630Y0092340D01*
X0171020Y0094350D02*
X0171020Y0095350D01*
X0170630Y0095350D02*
X0170630Y0097350D01*
X0174180Y0100900D01*
X0176180Y0100900D01*
X0176180Y0095350D01*
X0177180Y0095350D01*
X0177180Y0100900D01*
X0179190Y0100900D01*
X0182730Y0097350D01*
X0182730Y0095350D01*
X0177180Y0095350D01*
X0177180Y0094350D01*
X0182730Y0094350D01*
X0182730Y0092340D01*
X0179190Y0088800D01*
X0177180Y0088800D01*
X0177180Y0094350D01*
X0176180Y0094350D01*
X0176180Y0095350D01*
X0170630Y0095350D01*
X0172610Y0095350D02*
X0172610Y0094350D01*
X0174190Y0094350D02*
X0174190Y0095350D01*
X0175780Y0095350D02*
X0175780Y0094350D01*
X0177360Y0094350D02*
X0177360Y0095350D01*
X0178950Y0095350D02*
X0178950Y0094350D01*
X0180530Y0094350D02*
X0180530Y0095350D01*
X0182120Y0095350D02*
X0182120Y0094350D01*
X0182120Y0091730D02*
X0182120Y0084850D01*
X0183700Y0084850D02*
X0183700Y0109850D01*
X0182120Y0109850D02*
X0182120Y0097970D01*
X0180530Y0099550D02*
X0180530Y0109850D01*
X0178950Y0109850D02*
X0178950Y0100900D01*
X0177360Y0100900D02*
X0177360Y0109850D01*
X0175780Y0109850D02*
X0175780Y0100900D01*
X0174190Y0100900D02*
X0174190Y0109850D01*
X0172610Y0109850D02*
X0172610Y0099330D01*
X0171020Y0097740D02*
X0171020Y0109850D01*
X0157480Y0110250D02*
X0154680Y0108850D01*
X0149680Y0108850D01*
X0142000Y0112690D01*
X0142000Y0115010D01*
X0149680Y0118850D01*
X0154680Y0118850D01*
X0157480Y0117450D01*
X0153020Y0117450D01*
X0152240Y0116670D01*
X0151830Y0117070D01*
X0150440Y0117650D01*
X0149680Y0117650D01*
X0148930Y0117650D01*
X0147530Y0117070D01*
X0146460Y0116000D01*
X0145880Y0114600D01*
X0145880Y0113850D01*
X0149680Y0113850D01*
X0149680Y0113850D01*
X0149680Y0117650D01*
X0149680Y0113850D01*
X0149680Y0113850D01*
X0145880Y0113850D01*
X0145880Y0113090D01*
X0146460Y0111700D01*
X0147530Y0110630D01*
X0148930Y0110050D01*
X0149680Y0110050D01*
X0149680Y0113840D01*
X0149680Y0113840D01*
X0149680Y0110050D01*
X0150440Y0110050D01*
X0151830Y0110630D01*
X0152240Y0111030D01*
X0153020Y0110250D01*
X0157480Y0110250D01*
X0156750Y0110250D02*
X0156750Y0109880D01*
X0155170Y0110250D02*
X0155170Y0109090D01*
X0153580Y0108850D02*
X0153580Y0110250D01*
X0151990Y0110790D02*
X0151990Y0108850D01*
X0150410Y0108850D02*
X0150410Y0110050D01*
X0148820Y0110090D02*
X0148820Y0109280D01*
X0147240Y0110070D02*
X0147240Y0110920D01*
X0145650Y0110860D02*
X0145650Y0116830D01*
X0147240Y0116780D02*
X0147240Y0117630D01*
X0148820Y0117610D02*
X0148820Y0118420D01*
X0150410Y0118850D02*
X0150410Y0117650D01*
X0151990Y0116910D02*
X0151990Y0118850D01*
X0153580Y0118850D02*
X0153580Y0117450D01*
X0155170Y0117450D02*
X0155170Y0118610D01*
X0156750Y0117810D02*
X0156750Y0117450D01*
X0148820Y0113850D02*
X0148820Y0113850D01*
X0147240Y0113850D02*
X0147240Y0113850D01*
X0144070Y0111660D02*
X0144070Y0116040D01*
X0142480Y0115250D02*
X0142480Y0112450D01*
X0172610Y0090370D02*
X0172610Y0084850D01*
X0174190Y0084850D02*
X0174190Y0088800D01*
X0175780Y0088800D02*
X0175780Y0084850D01*
X0177360Y0084850D02*
X0177360Y0088800D01*
X0178950Y0088800D02*
X0178950Y0084850D01*
X0180530Y0084850D02*
X0180530Y0090140D01*
X0185290Y0084850D02*
X0185290Y0109850D01*
X0190680Y0078850D02*
X0200680Y0078850D01*
X0200680Y0058850D01*
X0179680Y0061780D02*
X0179040Y0061810D01*
X0178400Y0061900D01*
X0177770Y0062040D01*
X0177160Y0062240D01*
X0176570Y0062500D01*
X0176010Y0062810D01*
X0175470Y0063170D01*
X0174970Y0063570D01*
X0174510Y0064020D01*
X0174100Y0064510D01*
X0173720Y0065040D01*
X0173400Y0065600D01*
X0173130Y0066180D01*
X0172920Y0066790D01*
X0172760Y0067410D01*
X0172660Y0068050D01*
X0172610Y0068690D01*
X0172630Y0069330D01*
X0172700Y0069970D01*
X0172830Y0070600D01*
X0173020Y0071220D01*
X0173260Y0071810D01*
X0173560Y0072380D01*
X0173900Y0072930D01*
X0174300Y0073440D01*
X0174740Y0073910D01*
X0175220Y0074330D01*
X0175740Y0074720D01*
X0176290Y0075050D01*
X0176860Y0075330D01*
X0177460Y0075560D01*
X0178080Y0075740D01*
X0178720Y0075850D01*
X0179360Y0075910D01*
X0180000Y0075910D01*
X0180640Y0075850D01*
X0181280Y0075740D01*
X0181900Y0075560D01*
X0182500Y0075330D01*
X0183070Y0075050D01*
X0183620Y0074720D01*
X0184140Y0074330D01*
X0184620Y0073910D01*
X0185060Y0073440D01*
X0185460Y0072930D01*
X0185800Y0072390D01*
X0186100Y0071810D01*
X0186340Y0071220D01*
X0186530Y0070600D01*
X0186660Y0069970D01*
X0186730Y0069330D01*
X0186750Y0068690D01*
X0186700Y0068050D01*
X0186600Y0067410D01*
X0186440Y0066790D01*
X0186230Y0066180D01*
X0185960Y0065600D01*
X0185640Y0065040D01*
X0185260Y0064510D01*
X0184850Y0064020D01*
X0184390Y0063570D01*
X0183890Y0063170D01*
X0183350Y0062810D01*
X0182790Y0062500D01*
X0182200Y0062240D01*
X0181590Y0062040D01*
X0180960Y0061900D01*
X0180320Y0061810D01*
X0179680Y0061780D01*
D21*
X0179680Y0028850D03*
X0176680Y0094850D03*
D26*
X0219680Y0028850D03*
D11*
X0219680Y0048850D03*
D43*
X0213600Y0108240D03*
X0203760Y0108240D03*
D35*
X0149680Y0113850D03*
D17*
X0155680Y0113850D03*
D27*
X0225370Y0068940D02*
X0223970Y0068940D01*
X0223980Y0068950D02*
X0223950Y0069420D01*
X0223880Y0069880D01*
X0223780Y0070330D01*
X0223640Y0070770D01*
X0223460Y0071200D01*
X0223240Y0071620D01*
X0222990Y0072010D01*
X0222710Y0072380D01*
X0222400Y0072730D01*
X0222060Y0073050D01*
X0221690Y0073340D01*
X0221310Y0073600D01*
X0220900Y0073820D01*
X0220470Y0074010D01*
X0220030Y0074160D01*
X0219580Y0074280D01*
X0219120Y0074360D01*
X0218650Y0074400D01*
X0218190Y0074390D01*
X0217720Y0074350D01*
X0217260Y0074280D01*
X0216810Y0074160D01*
X0216370Y0074000D01*
X0215950Y0073810D01*
X0215540Y0073590D01*
X0215150Y0073330D01*
X0214790Y0073040D01*
X0214450Y0072720D01*
X0214140Y0072370D01*
X0213860Y0072000D01*
X0213610Y0071600D01*
X0213400Y0071190D01*
X0213220Y0070760D01*
X0213080Y0070310D01*
X0212970Y0069860D01*
X0212910Y0069400D01*
X0212880Y0068930D01*
X0212890Y0068470D01*
X0212940Y0068000D01*
X0213040Y0067550D01*
X0213160Y0067100D01*
X0213330Y0066660D01*
X0213530Y0066240D01*
X0213770Y0065840D01*
X0214040Y0065460D01*
X0214340Y0065100D01*
X0214670Y0064770D01*
X0215020Y0064470D01*
X0214190Y0063360D01*
X0214180Y0063350D01*
X0213770Y0063690D01*
X0213390Y0064060D01*
X0213040Y0064460D01*
X0212730Y0064880D01*
X0212440Y0065330D01*
X0212190Y0065790D01*
X0211970Y0066280D01*
X0211800Y0066780D01*
X0211660Y0067290D01*
X0211560Y0067810D01*
X0211500Y0068330D01*
X0211480Y0068860D01*
X0211500Y0069390D01*
X0211560Y0069920D01*
X0211660Y0070440D01*
X0211800Y0070950D01*
X0211980Y0071450D01*
X0212200Y0071930D01*
X0212450Y0072400D01*
X0212740Y0072840D01*
X0213060Y0073260D01*
X0213410Y0073660D01*
X0213790Y0074030D01*
X0214200Y0074360D01*
X0214630Y0074670D01*
X0215090Y0074940D01*
X0215560Y0075180D01*
X0216050Y0075380D01*
X0216560Y0075540D01*
X0217070Y0075670D01*
X0217590Y0075750D01*
X0218120Y0075790D01*
X0218650Y0075800D01*
X0219180Y0075760D01*
X0219700Y0075680D01*
X0220220Y0075570D01*
X0220730Y0075410D01*
X0221220Y0075220D01*
X0221700Y0074980D01*
X0222150Y0074720D01*
X0222590Y0074420D01*
X0223000Y0074080D01*
X0223390Y0073720D01*
X0223740Y0073330D01*
X0224070Y0072910D01*
X0224360Y0072470D01*
X0224620Y0072010D01*
X0224840Y0071530D01*
X0225030Y0071030D01*
X0225180Y0070520D01*
X0225280Y0070000D01*
X0225350Y0069480D01*
X0225380Y0068950D01*
X0225200Y0068950D01*
X0225170Y0069470D01*
X0225110Y0069980D01*
X0225000Y0070480D01*
X0224860Y0070980D01*
X0224680Y0071460D01*
X0224460Y0071930D01*
X0224210Y0072380D01*
X0223920Y0072810D01*
X0223600Y0073210D01*
X0223260Y0073600D01*
X0222880Y0073950D01*
X0222480Y0074270D01*
X0222060Y0074570D01*
X0221610Y0074830D01*
X0221150Y0075050D01*
X0220670Y0075240D01*
X0220170Y0075390D01*
X0219670Y0075510D01*
X0219160Y0075580D01*
X0218640Y0075620D01*
X0218130Y0075610D01*
X0217610Y0075570D01*
X0217110Y0075490D01*
X0216600Y0075370D01*
X0216110Y0075210D01*
X0215640Y0075020D01*
X0215170Y0074790D01*
X0214730Y0074520D01*
X0214310Y0074220D01*
X0213910Y0073890D01*
X0213540Y0073530D01*
X0213200Y0073150D01*
X0212890Y0072740D01*
X0212610Y0072300D01*
X0212360Y0071850D01*
X0212150Y0071380D01*
X0211980Y0070900D01*
X0211840Y0070400D01*
X0211740Y0069890D01*
X0211680Y0069380D01*
X0211660Y0068860D01*
X0211680Y0068350D01*
X0211740Y0067840D01*
X0211830Y0067330D01*
X0211970Y0066830D01*
X0212140Y0066340D01*
X0212350Y0065870D01*
X0212590Y0065420D01*
X0212870Y0064980D01*
X0213180Y0064570D01*
X0213520Y0064190D01*
X0213890Y0063830D01*
X0214290Y0063490D01*
X0214400Y0063640D01*
X0214000Y0063970D01*
X0213640Y0064330D01*
X0213300Y0064710D01*
X0213000Y0065120D01*
X0212720Y0065550D01*
X0212490Y0066010D01*
X0212280Y0066480D01*
X0212120Y0066960D01*
X0211990Y0067460D01*
X0211900Y0067960D01*
X0211850Y0068470D01*
X0211840Y0068980D01*
X0211870Y0069490D01*
X0211940Y0070000D01*
X0212050Y0070500D01*
X0212200Y0070990D01*
X0212380Y0071470D01*
X0212600Y0071930D01*
X0212860Y0072370D01*
X0213150Y0072790D01*
X0213470Y0073190D01*
X0213820Y0073560D01*
X0214200Y0073900D01*
X0214610Y0074220D01*
X0215030Y0074500D01*
X0215480Y0074740D01*
X0215950Y0074960D01*
X0216430Y0075130D01*
X0216920Y0075270D01*
X0217430Y0075360D01*
X0217930Y0075420D01*
X0218450Y0075440D01*
X0218960Y0075420D01*
X0219460Y0075360D01*
X0219970Y0075260D01*
X0220460Y0075120D01*
X0220940Y0074940D01*
X0221400Y0074730D01*
X0221850Y0074480D01*
X0222280Y0074200D01*
X0222680Y0073880D01*
X0223060Y0073540D01*
X0223410Y0073170D01*
X0223730Y0072770D01*
X0224020Y0072340D01*
X0224270Y0071900D01*
X0224490Y0071440D01*
X0224670Y0070960D01*
X0224820Y0070470D01*
X0224920Y0069970D01*
X0224990Y0069460D01*
X0225020Y0068950D01*
X0224840Y0068950D01*
X0224810Y0069460D01*
X0224740Y0069960D01*
X0224640Y0070460D01*
X0224490Y0070940D01*
X0224310Y0071410D01*
X0224080Y0071870D01*
X0223830Y0072310D01*
X0223540Y0072720D01*
X0223210Y0073120D01*
X0222860Y0073480D01*
X0222480Y0073820D01*
X0222080Y0074120D01*
X0221650Y0074390D01*
X0221200Y0074630D01*
X0220730Y0074830D01*
X0220250Y0075000D01*
X0219760Y0075120D01*
X0219260Y0075210D01*
X0218760Y0075250D01*
X0218250Y0075260D01*
X0217740Y0075220D01*
X0217240Y0075150D01*
X0216750Y0075040D01*
X0216260Y0074880D01*
X0215790Y0074690D01*
X0215340Y0074470D01*
X0214900Y0074200D01*
X0214490Y0073910D01*
X0214100Y0073580D01*
X0213740Y0073220D01*
X0213410Y0072840D01*
X0213110Y0072430D01*
X0212850Y0072000D01*
X0212610Y0071550D01*
X0212420Y0071080D01*
X0212260Y0070600D01*
X0212140Y0070100D01*
X0212060Y0069600D01*
X0212020Y0069100D01*
X0212030Y0068590D01*
X0212070Y0068080D01*
X0212150Y0067580D01*
X0212270Y0067090D01*
X0212430Y0066610D01*
X0212620Y0066140D01*
X0212850Y0065690D01*
X0213120Y0065260D01*
X0213420Y0064850D01*
X0213750Y0064460D01*
X0214120Y0064110D01*
X0214500Y0063780D01*
X0214610Y0063930D01*
X0214240Y0064240D01*
X0213880Y0064590D01*
X0213560Y0064960D01*
X0213270Y0065360D01*
X0213010Y0065780D01*
X0212780Y0066220D01*
X0212590Y0066670D01*
X0212440Y0067140D01*
X0212320Y0067620D01*
X0212240Y0068110D01*
X0212210Y0068600D01*
X0212200Y0069090D01*
X0212240Y0069580D01*
X0212320Y0070070D01*
X0212440Y0070550D01*
X0212590Y0071020D01*
X0212780Y0071470D01*
X0213000Y0071910D01*
X0213260Y0072330D01*
X0213550Y0072730D01*
X0213880Y0073100D01*
X0214230Y0073450D01*
X0214600Y0073770D01*
X0215000Y0074050D01*
X0215430Y0074310D01*
X0215870Y0074530D01*
X0216320Y0074710D01*
X0216790Y0074860D01*
X0217270Y0074970D01*
X0217760Y0075040D01*
X0218250Y0075080D01*
X0218750Y0075070D01*
X0219240Y0075030D01*
X0219720Y0074940D01*
X0220200Y0074820D01*
X0220670Y0074660D01*
X0221120Y0074470D01*
X0221560Y0074240D01*
X0221970Y0073970D01*
X0222370Y0073680D01*
X0222740Y0073350D01*
X0223080Y0073000D01*
X0223390Y0072620D01*
X0223670Y0072210D01*
X0223920Y0071790D01*
X0224140Y0071340D01*
X0224320Y0070880D01*
X0224460Y0070410D01*
X0224570Y0069930D01*
X0224630Y0069440D01*
X0224660Y0068950D01*
X0224480Y0068950D01*
X0224450Y0069440D01*
X0224380Y0069920D01*
X0224280Y0070400D01*
X0224130Y0070860D01*
X0223950Y0071320D01*
X0223740Y0071750D01*
X0223490Y0072170D01*
X0223200Y0072570D01*
X0222890Y0072940D01*
X0222540Y0073290D01*
X0222170Y0073610D01*
X0221770Y0073890D01*
X0221360Y0074140D01*
X0220920Y0074360D01*
X0220470Y0074550D01*
X0220000Y0074690D01*
X0219530Y0074800D01*
X0219040Y0074870D01*
X0218550Y0074900D01*
X0218070Y0074890D01*
X0217580Y0074840D01*
X0217100Y0074750D01*
X0216630Y0074630D01*
X0216170Y0074460D01*
X0215720Y0074260D01*
X0215300Y0074030D01*
X0214890Y0073760D01*
X0214510Y0073450D01*
X0214150Y0073120D01*
X0213820Y0072760D01*
X0213520Y0072380D01*
X0213250Y0071970D01*
X0213010Y0071540D01*
X0212810Y0071100D01*
X0212650Y0070640D01*
X0212520Y0070170D01*
X0212440Y0069690D01*
X0212390Y0069200D01*
X0212380Y0068710D01*
X0212410Y0068220D01*
X0212480Y0067740D01*
X0212590Y0067270D01*
X0212740Y0066800D01*
X0212920Y0066350D01*
X0213140Y0065910D01*
X0213400Y0065490D01*
X0213680Y0065100D01*
X0214000Y0064730D01*
X0214350Y0064390D01*
X0214720Y0064070D01*
X0214830Y0064210D01*
X0214460Y0064530D01*
X0214120Y0064870D01*
X0213800Y0065240D01*
X0213520Y0065630D01*
X0213270Y0066040D01*
X0213060Y0066480D01*
X0212880Y0066930D01*
X0212740Y0067390D01*
X0212640Y0067860D01*
X0212580Y0068340D01*
X0212560Y0068820D01*
X0212580Y0069310D01*
X0212640Y0069790D01*
X0212730Y0070260D01*
X0212870Y0070720D01*
X0213040Y0071170D01*
X0213250Y0071610D01*
X0213490Y0072030D01*
X0213770Y0072420D01*
X0214080Y0072790D01*
X0214420Y0073140D01*
X0214790Y0073450D01*
X0215180Y0073740D01*
X0215590Y0073990D01*
X0216020Y0074200D01*
X0216470Y0074380D01*
X0216930Y0074530D01*
X0217410Y0074630D01*
X0217880Y0074690D01*
X0218370Y0074720D01*
X0218850Y0074700D01*
X0219330Y0074650D01*
X0219800Y0074560D01*
X0220270Y0074420D01*
X0220720Y0074250D01*
X0221160Y0074050D01*
X0221580Y0073810D01*
X0221970Y0073530D01*
X0222350Y0073220D01*
X0222690Y0072890D01*
X0223010Y0072520D01*
X0223300Y0072130D01*
X0223550Y0071720D01*
X0223770Y0071290D01*
X0223950Y0070840D01*
X0224100Y0070380D01*
X0224200Y0069910D01*
X0224270Y0069430D01*
X0224300Y0068950D01*
X0224120Y0068950D01*
X0224090Y0069430D01*
X0224020Y0069900D01*
X0223910Y0070370D01*
X0223770Y0070820D01*
X0223580Y0071260D01*
X0223360Y0071690D01*
X0223110Y0072090D01*
X0222820Y0072470D01*
X0222500Y0072830D01*
X0222150Y0073150D01*
X0221780Y0073450D01*
X0221380Y0073720D01*
X0220960Y0073950D01*
X0220520Y0074140D01*
X0220070Y0074300D01*
X0219610Y0074420D01*
X0219140Y0074500D01*
X0218660Y0074540D01*
X0218180Y0074530D01*
X0217710Y0074490D01*
X0217240Y0074410D01*
X0216770Y0074290D01*
X0216320Y0074130D01*
X0215890Y0073940D01*
X0215470Y0073710D01*
X0215070Y0073440D01*
X0214700Y0073140D01*
X0214350Y0072820D01*
X0214030Y0072460D01*
X0213740Y0072080D01*
X0213490Y0071670D01*
X0213270Y0071250D01*
X0213090Y0070810D01*
X0212940Y0070350D01*
X0212830Y0069880D01*
X0212770Y0069410D01*
X0212740Y0068930D01*
X0212750Y0068460D01*
X0212810Y0067980D01*
X0212900Y0067510D01*
X0213030Y0067050D01*
X0213200Y0066610D01*
X0213410Y0066170D01*
X0213650Y0065760D01*
X0213930Y0065370D01*
X0214230Y0065010D01*
X0214570Y0064670D01*
X0214940Y0064360D01*
X0137200Y0137200D02*
G75*
%LPD*%
D13*
X0201620Y0148380D02*
X0201620Y0141980D01*
X0203750Y0141980D02*
X0199480Y0141980D01*
X0197310Y0145180D02*
X0196240Y0144110D01*
X0194100Y0144110D01*
X0193040Y0145180D01*
X0193040Y0146250D01*
X0197310Y0146250D01*
X0197310Y0147310D02*
X0197310Y0145180D01*
X0197310Y0147310D02*
X0196240Y0148380D01*
X0194100Y0148380D01*
X0190860Y0148380D02*
X0186590Y0144110D01*
X0184420Y0144110D02*
X0182280Y0144110D01*
X0183350Y0143040D02*
X0183350Y0147310D01*
X0182280Y0148380D01*
X0186590Y0148380D02*
X0190860Y0144110D01*
D29*
X0225550Y0144680D03*
D10*
X0177050Y0166680D02*
X0152050Y0166680D01*
X0152050Y0186680D01*
X0177050Y0186680D01*
X0177050Y0166680D01*
X0177050Y0167850D02*
X0152050Y0167850D01*
X0152050Y0169430D02*
X0177050Y0169430D01*
X0177050Y0171020D02*
X0169950Y0171020D01*
X0169560Y0170630D02*
X0173100Y0174180D01*
X0173100Y0176180D01*
X0167550Y0176180D01*
X0167550Y0170630D01*
X0169560Y0170630D01*
X0167550Y0171020D02*
X0166550Y0171020D01*
X0166550Y0170630D02*
X0164550Y0170630D01*
X0161000Y0174180D01*
X0161000Y0176180D01*
X0166550Y0176180D01*
X0166550Y0177180D01*
X0161000Y0177180D01*
X0161000Y0179190D01*
X0164550Y0182730D01*
X0166550Y0182730D01*
X0166550Y0177180D01*
X0167550Y0177180D01*
X0167550Y0182730D01*
X0169560Y0182730D01*
X0173100Y0179190D01*
X0173100Y0177180D01*
X0167550Y0177180D01*
X0167550Y0176180D01*
X0166550Y0176180D01*
X0166550Y0170630D01*
X0166550Y0172610D02*
X0167550Y0172610D01*
X0167550Y0174190D02*
X0166550Y0174190D01*
X0166550Y0175780D02*
X0167550Y0175780D01*
X0167550Y0177360D02*
X0166550Y0177360D01*
X0166550Y0178950D02*
X0167550Y0178950D01*
X0167550Y0180530D02*
X0166550Y0180530D01*
X0166550Y0182120D02*
X0167550Y0182120D01*
X0170170Y0182120D02*
X0177050Y0182120D01*
X0177050Y0183700D02*
X0152050Y0183700D01*
X0152050Y0182120D02*
X0163930Y0182120D01*
X0162350Y0180530D02*
X0152050Y0180530D01*
X0152050Y0178950D02*
X0161000Y0178950D01*
X0161000Y0177360D02*
X0152050Y0177360D01*
X0152050Y0175780D02*
X0161000Y0175780D01*
X0161000Y0174190D02*
X0152050Y0174190D01*
X0152050Y0172610D02*
X0162570Y0172610D01*
X0164160Y0171020D02*
X0152050Y0171020D01*
X0151650Y0157480D02*
X0153050Y0154680D01*
X0153050Y0149680D01*
X0149210Y0142000D01*
X0146890Y0142000D01*
X0143050Y0149680D01*
X0143050Y0154680D01*
X0144450Y0157480D01*
X0144450Y0153020D01*
X0145230Y0152240D01*
X0144830Y0151830D01*
X0144250Y0150440D01*
X0144250Y0149680D01*
X0144250Y0148930D01*
X0144830Y0147530D01*
X0145900Y0146460D01*
X0147300Y0145880D01*
X0148050Y0145880D01*
X0148050Y0149680D01*
X0148050Y0149680D01*
X0144250Y0149680D01*
X0148050Y0149680D01*
X0148050Y0149680D01*
X0148050Y0145880D01*
X0148810Y0145880D01*
X0150200Y0146460D01*
X0151270Y0147530D01*
X0151850Y0148930D01*
X0151850Y0149680D01*
X0148060Y0149680D01*
X0148060Y0149680D01*
X0151850Y0149680D01*
X0151850Y0150440D01*
X0151270Y0151830D01*
X0150870Y0152240D01*
X0151650Y0153020D01*
X0151650Y0157480D01*
X0151650Y0156750D02*
X0152020Y0156750D01*
X0151650Y0155170D02*
X0152810Y0155170D01*
X0153050Y0153580D02*
X0151650Y0153580D01*
X0151110Y0151990D02*
X0153050Y0151990D01*
X0153050Y0150410D02*
X0151850Y0150410D01*
X0151810Y0148820D02*
X0152620Y0148820D01*
X0151830Y0147240D02*
X0150980Y0147240D01*
X0151040Y0145650D02*
X0145070Y0145650D01*
X0145120Y0147240D02*
X0144270Y0147240D01*
X0144290Y0148820D02*
X0143480Y0148820D01*
X0143050Y0150410D02*
X0144250Y0150410D01*
X0144990Y0151990D02*
X0143050Y0151990D01*
X0143050Y0153580D02*
X0144450Y0153580D01*
X0144450Y0155170D02*
X0143290Y0155170D01*
X0144090Y0156750D02*
X0144450Y0156750D01*
X0148050Y0148820D02*
X0148050Y0148820D01*
X0148050Y0147240D02*
X0148050Y0147240D01*
X0150240Y0144070D02*
X0145860Y0144070D01*
X0146650Y0142480D02*
X0149450Y0142480D01*
X0171530Y0172610D02*
X0177050Y0172610D01*
X0177050Y0174190D02*
X0173100Y0174190D01*
X0173100Y0175780D02*
X0177050Y0175780D01*
X0177050Y0177360D02*
X0173100Y0177360D01*
X0173100Y0178950D02*
X0177050Y0178950D01*
X0177050Y0180530D02*
X0171760Y0180530D01*
X0177050Y0185290D02*
X0152050Y0185290D01*
X0183050Y0190680D02*
X0183050Y0200680D01*
X0203050Y0200680D01*
X0200120Y0179680D02*
X0200090Y0179040D01*
X0200000Y0178400D01*
X0199860Y0177770D01*
X0199660Y0177160D01*
X0199400Y0176570D01*
X0199090Y0176010D01*
X0198730Y0175470D01*
X0198330Y0174970D01*
X0197880Y0174510D01*
X0197390Y0174100D01*
X0196860Y0173720D01*
X0196300Y0173400D01*
X0195720Y0173130D01*
X0195110Y0172920D01*
X0194490Y0172760D01*
X0193850Y0172660D01*
X0193210Y0172610D01*
X0192570Y0172630D01*
X0191930Y0172700D01*
X0191300Y0172830D01*
X0190680Y0173020D01*
X0190090Y0173260D01*
X0189520Y0173560D01*
X0188970Y0173900D01*
X0188460Y0174300D01*
X0187990Y0174740D01*
X0187570Y0175220D01*
X0187180Y0175740D01*
X0186850Y0176290D01*
X0186570Y0176860D01*
X0186340Y0177460D01*
X0186160Y0178080D01*
X0186050Y0178720D01*
X0185990Y0179360D01*
X0185990Y0180000D01*
X0186050Y0180640D01*
X0186160Y0181280D01*
X0186340Y0181900D01*
X0186570Y0182500D01*
X0186850Y0183070D01*
X0187180Y0183620D01*
X0187570Y0184140D01*
X0187990Y0184620D01*
X0188460Y0185060D01*
X0188970Y0185460D01*
X0189510Y0185800D01*
X0190090Y0186100D01*
X0190680Y0186340D01*
X0191300Y0186530D01*
X0191930Y0186660D01*
X0192570Y0186730D01*
X0193210Y0186750D01*
X0193850Y0186700D01*
X0194490Y0186600D01*
X0195110Y0186440D01*
X0195720Y0186230D01*
X0196300Y0185960D01*
X0196860Y0185640D01*
X0197390Y0185260D01*
X0197880Y0184850D01*
X0198330Y0184390D01*
X0198730Y0183890D01*
X0199090Y0183350D01*
X0199400Y0182790D01*
X0199660Y0182200D01*
X0199860Y0181590D01*
X0200000Y0180960D01*
X0200090Y0180320D01*
X0200120Y0179680D01*
D21*
X0233050Y0179680D03*
X0167050Y0176680D03*
D11*
X0233050Y0219680D03*
D26*
X0213050Y0219680D03*
D34*
X0153660Y0213600D03*
X0153660Y0203760D03*
D35*
X0148050Y0149680D03*
D17*
X0148050Y0155680D03*
D27*
X0192960Y0225370D02*
X0192960Y0223970D01*
X0192950Y0223980D02*
X0192480Y0223950D01*
X0192020Y0223880D01*
X0191570Y0223780D01*
X0191130Y0223640D01*
X0190700Y0223460D01*
X0190280Y0223240D01*
X0189890Y0222990D01*
X0189520Y0222710D01*
X0189170Y0222400D01*
X0188850Y0222060D01*
X0188560Y0221690D01*
X0188300Y0221310D01*
X0188080Y0220900D01*
X0187890Y0220470D01*
X0187740Y0220030D01*
X0187620Y0219580D01*
X0187540Y0219120D01*
X0187500Y0218650D01*
X0187510Y0218190D01*
X0187550Y0217720D01*
X0187620Y0217260D01*
X0187740Y0216810D01*
X0187900Y0216370D01*
X0188090Y0215950D01*
X0188310Y0215540D01*
X0188570Y0215150D01*
X0188860Y0214790D01*
X0189180Y0214450D01*
X0189530Y0214140D01*
X0189900Y0213860D01*
X0190300Y0213610D01*
X0190710Y0213400D01*
X0191140Y0213220D01*
X0191590Y0213080D01*
X0192040Y0212970D01*
X0192500Y0212910D01*
X0192970Y0212880D01*
X0193430Y0212890D01*
X0193900Y0212940D01*
X0194350Y0213040D01*
X0194800Y0213160D01*
X0195240Y0213330D01*
X0195660Y0213530D01*
X0196060Y0213770D01*
X0196440Y0214040D01*
X0196800Y0214340D01*
X0197130Y0214670D01*
X0197430Y0215020D01*
X0198540Y0214190D01*
X0198550Y0214180D01*
X0198210Y0213770D01*
X0197840Y0213390D01*
X0197440Y0213040D01*
X0197020Y0212730D01*
X0196570Y0212440D01*
X0196110Y0212190D01*
X0195620Y0211970D01*
X0195120Y0211800D01*
X0194610Y0211660D01*
X0194090Y0211560D01*
X0193570Y0211500D01*
X0193040Y0211480D01*
X0192510Y0211500D01*
X0191980Y0211560D01*
X0191460Y0211660D01*
X0190950Y0211800D01*
X0190450Y0211980D01*
X0189970Y0212200D01*
X0189500Y0212450D01*
X0189060Y0212740D01*
X0188640Y0213060D01*
X0188240Y0213410D01*
X0187870Y0213790D01*
X0187540Y0214200D01*
X0187230Y0214630D01*
X0186960Y0215090D01*
X0186720Y0215560D01*
X0186520Y0216050D01*
X0186360Y0216560D01*
X0186230Y0217070D01*
X0186150Y0217590D01*
X0186110Y0218120D01*
X0186100Y0218650D01*
X0186140Y0219180D01*
X0186220Y0219700D01*
X0186330Y0220220D01*
X0186490Y0220730D01*
X0186680Y0221220D01*
X0186920Y0221700D01*
X0187180Y0222150D01*
X0187480Y0222590D01*
X0187820Y0223000D01*
X0188180Y0223390D01*
X0188570Y0223740D01*
X0188990Y0224070D01*
X0189430Y0224360D01*
X0189890Y0224620D01*
X0190370Y0224840D01*
X0190870Y0225030D01*
X0191380Y0225180D01*
X0191900Y0225280D01*
X0192420Y0225350D01*
X0192950Y0225380D01*
X0192950Y0225200D01*
X0192430Y0225170D01*
X0191920Y0225110D01*
X0191420Y0225000D01*
X0190920Y0224860D01*
X0190440Y0224680D01*
X0189970Y0224460D01*
X0189520Y0224210D01*
X0189090Y0223920D01*
X0188690Y0223600D01*
X0188300Y0223260D01*
X0187950Y0222880D01*
X0187630Y0222480D01*
X0187330Y0222060D01*
X0187070Y0221610D01*
X0186850Y0221150D01*
X0186660Y0220670D01*
X0186510Y0220170D01*
X0186390Y0219670D01*
X0186320Y0219160D01*
X0186280Y0218640D01*
X0186290Y0218130D01*
X0186330Y0217610D01*
X0186410Y0217110D01*
X0186530Y0216600D01*
X0186690Y0216110D01*
X0186880Y0215640D01*
X0187110Y0215170D01*
X0187380Y0214730D01*
X0187680Y0214310D01*
X0188010Y0213910D01*
X0188370Y0213540D01*
X0188750Y0213200D01*
X0189160Y0212890D01*
X0189600Y0212610D01*
X0190050Y0212360D01*
X0190520Y0212150D01*
X0191000Y0211980D01*
X0191500Y0211840D01*
X0192010Y0211740D01*
X0192520Y0211680D01*
X0193040Y0211660D01*
X0193550Y0211680D01*
X0194060Y0211740D01*
X0194570Y0211830D01*
X0195070Y0211970D01*
X0195560Y0212140D01*
X0196030Y0212350D01*
X0196480Y0212590D01*
X0196920Y0212870D01*
X0197330Y0213180D01*
X0197710Y0213520D01*
X0198070Y0213890D01*
X0198410Y0214290D01*
X0198260Y0214400D01*
X0197930Y0214000D01*
X0197570Y0213640D01*
X0197190Y0213300D01*
X0196780Y0213000D01*
X0196350Y0212720D01*
X0195890Y0212490D01*
X0195420Y0212280D01*
X0194940Y0212120D01*
X0194440Y0211990D01*
X0193940Y0211900D01*
X0193430Y0211850D01*
X0192920Y0211840D01*
X0192410Y0211870D01*
X0191900Y0211940D01*
X0191400Y0212050D01*
X0190910Y0212200D01*
X0190430Y0212380D01*
X0189970Y0212600D01*
X0189530Y0212860D01*
X0189110Y0213150D01*
X0188710Y0213470D01*
X0188340Y0213820D01*
X0188000Y0214200D01*
X0187680Y0214610D01*
X0187400Y0215030D01*
X0187160Y0215480D01*
X0186940Y0215950D01*
X0186770Y0216430D01*
X0186630Y0216920D01*
X0186540Y0217430D01*
X0186480Y0217930D01*
X0186460Y0218450D01*
X0186480Y0218960D01*
X0186540Y0219460D01*
X0186640Y0219970D01*
X0186780Y0220460D01*
X0186960Y0220940D01*
X0187170Y0221400D01*
X0187420Y0221850D01*
X0187700Y0222280D01*
X0188020Y0222680D01*
X0188360Y0223060D01*
X0188730Y0223410D01*
X0189130Y0223730D01*
X0189560Y0224020D01*
X0190000Y0224270D01*
X0190460Y0224490D01*
X0190940Y0224670D01*
X0191430Y0224820D01*
X0191930Y0224920D01*
X0192440Y0224990D01*
X0192950Y0225020D01*
X0192950Y0224840D01*
X0192440Y0224810D01*
X0191940Y0224740D01*
X0191440Y0224640D01*
X0190960Y0224490D01*
X0190490Y0224310D01*
X0190030Y0224080D01*
X0189590Y0223830D01*
X0189180Y0223540D01*
X0188780Y0223210D01*
X0188420Y0222860D01*
X0188080Y0222480D01*
X0187780Y0222080D01*
X0187510Y0221650D01*
X0187270Y0221200D01*
X0187070Y0220730D01*
X0186900Y0220250D01*
X0186780Y0219760D01*
X0186690Y0219260D01*
X0186650Y0218760D01*
X0186640Y0218250D01*
X0186680Y0217740D01*
X0186750Y0217240D01*
X0186860Y0216750D01*
X0187020Y0216260D01*
X0187210Y0215790D01*
X0187430Y0215340D01*
X0187700Y0214900D01*
X0187990Y0214490D01*
X0188320Y0214100D01*
X0188680Y0213740D01*
X0189060Y0213410D01*
X0189470Y0213110D01*
X0189900Y0212850D01*
X0190350Y0212610D01*
X0190820Y0212420D01*
X0191300Y0212260D01*
X0191800Y0212140D01*
X0192300Y0212060D01*
X0192800Y0212020D01*
X0193310Y0212030D01*
X0193820Y0212070D01*
X0194320Y0212150D01*
X0194810Y0212270D01*
X0195290Y0212430D01*
X0195760Y0212620D01*
X0196210Y0212850D01*
X0196640Y0213120D01*
X0197050Y0213420D01*
X0197440Y0213750D01*
X0197790Y0214120D01*
X0198120Y0214500D01*
X0197970Y0214610D01*
X0197660Y0214240D01*
X0197310Y0213880D01*
X0196940Y0213560D01*
X0196540Y0213270D01*
X0196120Y0213010D01*
X0195680Y0212780D01*
X0195230Y0212590D01*
X0194760Y0212440D01*
X0194280Y0212320D01*
X0193790Y0212240D01*
X0193300Y0212210D01*
X0192810Y0212200D01*
X0192320Y0212240D01*
X0191830Y0212320D01*
X0191350Y0212440D01*
X0190880Y0212590D01*
X0190430Y0212780D01*
X0189990Y0213000D01*
X0189570Y0213260D01*
X0189170Y0213550D01*
X0188800Y0213880D01*
X0188450Y0214230D01*
X0188130Y0214600D01*
X0187850Y0215000D01*
X0187590Y0215430D01*
X0187370Y0215870D01*
X0187190Y0216320D01*
X0187040Y0216790D01*
X0186930Y0217270D01*
X0186860Y0217760D01*
X0186820Y0218250D01*
X0186830Y0218750D01*
X0186870Y0219240D01*
X0186960Y0219720D01*
X0187080Y0220200D01*
X0187240Y0220670D01*
X0187430Y0221120D01*
X0187660Y0221560D01*
X0187930Y0221970D01*
X0188220Y0222370D01*
X0188550Y0222740D01*
X0188900Y0223080D01*
X0189280Y0223390D01*
X0189690Y0223670D01*
X0190110Y0223920D01*
X0190560Y0224140D01*
X0191020Y0224320D01*
X0191490Y0224460D01*
X0191970Y0224570D01*
X0192460Y0224630D01*
X0192950Y0224660D01*
X0192950Y0224480D01*
X0192460Y0224450D01*
X0191980Y0224380D01*
X0191500Y0224280D01*
X0191040Y0224130D01*
X0190580Y0223950D01*
X0190150Y0223740D01*
X0189730Y0223490D01*
X0189330Y0223200D01*
X0188960Y0222890D01*
X0188610Y0222540D01*
X0188290Y0222170D01*
X0188010Y0221770D01*
X0187760Y0221360D01*
X0187540Y0220920D01*
X0187350Y0220470D01*
X0187210Y0220000D01*
X0187100Y0219530D01*
X0187030Y0219040D01*
X0187000Y0218550D01*
X0187010Y0218070D01*
X0187060Y0217580D01*
X0187150Y0217100D01*
X0187270Y0216630D01*
X0187440Y0216170D01*
X0187640Y0215720D01*
X0187870Y0215300D01*
X0188140Y0214890D01*
X0188450Y0214510D01*
X0188780Y0214150D01*
X0189140Y0213820D01*
X0189520Y0213520D01*
X0189930Y0213250D01*
X0190360Y0213010D01*
X0190800Y0212810D01*
X0191260Y0212650D01*
X0191730Y0212520D01*
X0192210Y0212440D01*
X0192700Y0212390D01*
X0193190Y0212380D01*
X0193680Y0212410D01*
X0194160Y0212480D01*
X0194630Y0212590D01*
X0195100Y0212740D01*
X0195550Y0212920D01*
X0195990Y0213140D01*
X0196410Y0213400D01*
X0196800Y0213680D01*
X0197170Y0214000D01*
X0197510Y0214350D01*
X0197830Y0214720D01*
X0197690Y0214830D01*
X0197370Y0214460D01*
X0197030Y0214120D01*
X0196660Y0213800D01*
X0196270Y0213520D01*
X0195860Y0213270D01*
X0195420Y0213060D01*
X0194970Y0212880D01*
X0194510Y0212740D01*
X0194040Y0212640D01*
X0193560Y0212580D01*
X0193080Y0212560D01*
X0192590Y0212580D01*
X0192110Y0212640D01*
X0191640Y0212730D01*
X0191180Y0212870D01*
X0190730Y0213040D01*
X0190290Y0213250D01*
X0189870Y0213490D01*
X0189480Y0213770D01*
X0189110Y0214080D01*
X0188760Y0214420D01*
X0188450Y0214790D01*
X0188160Y0215180D01*
X0187910Y0215590D01*
X0187700Y0216020D01*
X0187520Y0216470D01*
X0187370Y0216930D01*
X0187270Y0217410D01*
X0187210Y0217880D01*
X0187180Y0218370D01*
X0187200Y0218850D01*
X0187250Y0219330D01*
X0187340Y0219800D01*
X0187480Y0220270D01*
X0187650Y0220720D01*
X0187850Y0221160D01*
X0188090Y0221580D01*
X0188370Y0221970D01*
X0188680Y0222350D01*
X0189010Y0222690D01*
X0189380Y0223010D01*
X0189770Y0223300D01*
X0190180Y0223550D01*
X0190610Y0223770D01*
X0191060Y0223950D01*
X0191520Y0224100D01*
X0191990Y0224200D01*
X0192470Y0224270D01*
X0192950Y0224300D01*
X0192950Y0224120D01*
X0192470Y0224090D01*
X0192000Y0224020D01*
X0191530Y0223910D01*
X0191080Y0223770D01*
X0190640Y0223580D01*
X0190210Y0223360D01*
X0189810Y0223110D01*
X0189430Y0222820D01*
X0189070Y0222500D01*
X0188750Y0222150D01*
X0188450Y0221780D01*
X0188180Y0221380D01*
X0187950Y0220960D01*
X0187760Y0220520D01*
X0187600Y0220070D01*
X0187480Y0219610D01*
X0187400Y0219140D01*
X0187360Y0218660D01*
X0187370Y0218180D01*
X0187410Y0217710D01*
X0187490Y0217240D01*
X0187610Y0216770D01*
X0187770Y0216320D01*
X0187960Y0215890D01*
X0188190Y0215470D01*
X0188460Y0215070D01*
X0188760Y0214700D01*
X0189080Y0214350D01*
X0189440Y0214030D01*
X0189820Y0213740D01*
X0190230Y0213490D01*
X0190650Y0213270D01*
X0191090Y0213090D01*
X0191550Y0212940D01*
X0192020Y0212830D01*
X0192490Y0212770D01*
X0192970Y0212740D01*
X0193440Y0212750D01*
X0193920Y0212810D01*
X0194390Y0212900D01*
X0194850Y0213030D01*
X0195290Y0213200D01*
X0195730Y0213410D01*
X0196140Y0213650D01*
X0196530Y0213930D01*
X0196890Y0214230D01*
X0197230Y0214570D01*
X0197540Y0214940D01*
X0137200Y0243660D02*
G75*
%LPD*%
D13*
X0219980Y0308080D02*
X0226380Y0308080D01*
X0226380Y0310210D02*
X0226380Y0305940D01*
X0223180Y0303770D02*
X0224250Y0302700D01*
X0224250Y0300560D01*
X0223180Y0299500D01*
X0222110Y0299500D01*
X0222110Y0303770D01*
X0221050Y0303770D02*
X0223180Y0303770D01*
X0221050Y0303770D02*
X0219980Y0302700D01*
X0219980Y0300560D01*
X0219980Y0297320D02*
X0224250Y0293050D01*
X0224250Y0290880D02*
X0224250Y0288740D01*
X0225320Y0289810D02*
X0221050Y0289810D01*
X0219980Y0288740D01*
X0219980Y0293050D02*
X0224250Y0297320D01*
D44*
X0223680Y0332010D03*
D10*
X0201680Y0283510D02*
X0201680Y0258510D01*
X0181680Y0258510D01*
X0181680Y0283510D01*
X0201680Y0283510D01*
X0200510Y0283510D02*
X0200510Y0258510D01*
X0198930Y0258510D02*
X0198930Y0283510D01*
X0197340Y0283510D02*
X0197340Y0276410D01*
X0197730Y0276020D02*
X0194180Y0279560D01*
X0192180Y0279560D01*
X0192180Y0274010D01*
X0197730Y0274010D01*
X0197730Y0276020D01*
X0197340Y0274010D02*
X0197340Y0273010D01*
X0197730Y0273010D02*
X0197730Y0271010D01*
X0194180Y0267460D01*
X0192180Y0267460D01*
X0192180Y0273010D01*
X0191180Y0273010D01*
X0191180Y0267460D01*
X0189170Y0267460D01*
X0185630Y0271010D01*
X0185630Y0273010D01*
X0191180Y0273010D01*
X0191180Y0274010D01*
X0185630Y0274010D01*
X0185630Y0276020D01*
X0189170Y0279560D01*
X0191180Y0279560D01*
X0191180Y0274010D01*
X0192180Y0274010D01*
X0192180Y0273010D01*
X0197730Y0273010D01*
X0195750Y0273010D02*
X0195750Y0274010D01*
X0194170Y0274010D02*
X0194170Y0273010D01*
X0192580Y0273010D02*
X0192580Y0274010D01*
X0191000Y0274010D02*
X0191000Y0273010D01*
X0189410Y0273010D02*
X0189410Y0274010D01*
X0187830Y0274010D02*
X0187830Y0273010D01*
X0186240Y0273010D02*
X0186240Y0274010D01*
X0186240Y0276630D02*
X0186240Y0283510D01*
X0184660Y0283510D02*
X0184660Y0258510D01*
X0186240Y0258510D02*
X0186240Y0270390D01*
X0187830Y0268810D02*
X0187830Y0258510D01*
X0189410Y0258510D02*
X0189410Y0267460D01*
X0191000Y0267460D02*
X0191000Y0258510D01*
X0192580Y0258510D02*
X0192580Y0267460D01*
X0194170Y0267460D02*
X0194170Y0258510D01*
X0195750Y0258510D02*
X0195750Y0269030D01*
X0197340Y0270620D02*
X0197340Y0258510D01*
X0210880Y0258110D02*
X0213680Y0259510D01*
X0218680Y0259510D01*
X0226360Y0255670D01*
X0226360Y0253350D01*
X0218680Y0249510D01*
X0213680Y0249510D01*
X0210880Y0250910D01*
X0215340Y0250910D01*
X0216120Y0251690D01*
X0216530Y0251290D01*
X0217920Y0250710D01*
X0218680Y0250710D01*
X0219430Y0250710D01*
X0220830Y0251290D01*
X0221900Y0252360D01*
X0222480Y0253760D01*
X0222480Y0254510D01*
X0218680Y0254510D01*
X0218680Y0254510D01*
X0218680Y0250710D01*
X0218680Y0254510D01*
X0218680Y0254510D01*
X0222480Y0254510D01*
X0222480Y0255270D01*
X0221900Y0256660D01*
X0220830Y0257730D01*
X0219430Y0258310D01*
X0218680Y0258310D01*
X0218680Y0254520D01*
X0218680Y0254520D01*
X0218680Y0258310D01*
X0217920Y0258310D01*
X0216530Y0257730D01*
X0216120Y0257330D01*
X0215340Y0258110D01*
X0210880Y0258110D01*
X0211610Y0258110D02*
X0211610Y0258480D01*
X0213190Y0258110D02*
X0213190Y0259270D01*
X0214780Y0259510D02*
X0214780Y0258110D01*
X0216370Y0257570D02*
X0216370Y0259510D01*
X0217950Y0259510D02*
X0217950Y0258310D01*
X0219540Y0258270D02*
X0219540Y0259080D01*
X0221120Y0258290D02*
X0221120Y0257440D01*
X0222710Y0257500D02*
X0222710Y0251530D01*
X0221120Y0251580D02*
X0221120Y0250730D01*
X0219540Y0250750D02*
X0219540Y0249940D01*
X0217950Y0249510D02*
X0217950Y0250710D01*
X0216370Y0251450D02*
X0216370Y0249510D01*
X0214780Y0249510D02*
X0214780Y0250910D01*
X0213190Y0250910D02*
X0213190Y0249750D01*
X0211610Y0250550D02*
X0211610Y0250910D01*
X0219540Y0254510D02*
X0219540Y0254510D01*
X0221120Y0254510D02*
X0221120Y0254510D01*
X0224290Y0256700D02*
X0224290Y0252320D01*
X0225880Y0253110D02*
X0225880Y0255910D01*
X0195750Y0277990D02*
X0195750Y0283510D01*
X0194170Y0283510D02*
X0194170Y0279560D01*
X0192580Y0279560D02*
X0192580Y0283510D01*
X0191000Y0283510D02*
X0191000Y0279560D01*
X0189410Y0279560D02*
X0189410Y0283510D01*
X0187830Y0283510D02*
X0187830Y0278220D01*
X0183070Y0283510D02*
X0183070Y0258510D01*
X0177680Y0289510D02*
X0167680Y0289510D01*
X0167680Y0309510D01*
X0188680Y0306580D02*
X0189320Y0306550D01*
X0189960Y0306460D01*
X0190590Y0306320D01*
X0191200Y0306120D01*
X0191790Y0305860D01*
X0192350Y0305550D01*
X0192890Y0305190D01*
X0193390Y0304790D01*
X0193850Y0304340D01*
X0194260Y0303850D01*
X0194640Y0303320D01*
X0194960Y0302760D01*
X0195230Y0302180D01*
X0195440Y0301570D01*
X0195600Y0300950D01*
X0195700Y0300310D01*
X0195750Y0299670D01*
X0195730Y0299030D01*
X0195660Y0298390D01*
X0195530Y0297760D01*
X0195340Y0297140D01*
X0195100Y0296550D01*
X0194800Y0295980D01*
X0194460Y0295430D01*
X0194060Y0294920D01*
X0193620Y0294450D01*
X0193140Y0294030D01*
X0192620Y0293640D01*
X0192070Y0293310D01*
X0191500Y0293030D01*
X0190900Y0292800D01*
X0190280Y0292620D01*
X0189640Y0292510D01*
X0189000Y0292450D01*
X0188360Y0292450D01*
X0187720Y0292510D01*
X0187080Y0292620D01*
X0186460Y0292800D01*
X0185860Y0293030D01*
X0185290Y0293310D01*
X0184740Y0293640D01*
X0184220Y0294030D01*
X0183740Y0294450D01*
X0183300Y0294920D01*
X0182900Y0295430D01*
X0182560Y0295970D01*
X0182260Y0296550D01*
X0182020Y0297140D01*
X0181830Y0297760D01*
X0181700Y0298390D01*
X0181630Y0299030D01*
X0181610Y0299670D01*
X0181660Y0300310D01*
X0181760Y0300950D01*
X0181920Y0301570D01*
X0182130Y0302180D01*
X0182400Y0302760D01*
X0182720Y0303320D01*
X0183100Y0303850D01*
X0183510Y0304340D01*
X0183970Y0304790D01*
X0184470Y0305190D01*
X0185010Y0305550D01*
X0185570Y0305860D01*
X0186160Y0306120D01*
X0186770Y0306320D01*
X0187400Y0306460D01*
X0188040Y0306550D01*
X0188680Y0306580D01*
D21*
X0188680Y0339510D03*
X0191680Y0273510D03*
D26*
X0148680Y0339510D03*
D11*
X0148680Y0319510D03*
D43*
X0154760Y0260120D03*
X0164600Y0260120D03*
D35*
X0218680Y0254510D03*
D17*
X0212680Y0254510D03*
D27*
X0142990Y0299420D02*
X0144390Y0299420D01*
X0144380Y0299410D02*
X0144410Y0298940D01*
X0144480Y0298480D01*
X0144580Y0298030D01*
X0144720Y0297590D01*
X0144900Y0297160D01*
X0145120Y0296740D01*
X0145370Y0296350D01*
X0145650Y0295980D01*
X0145960Y0295630D01*
X0146300Y0295310D01*
X0146670Y0295020D01*
X0147050Y0294760D01*
X0147460Y0294540D01*
X0147890Y0294350D01*
X0148330Y0294200D01*
X0148780Y0294080D01*
X0149240Y0294000D01*
X0149710Y0293960D01*
X0150170Y0293970D01*
X0150640Y0294010D01*
X0151100Y0294080D01*
X0151550Y0294200D01*
X0151990Y0294360D01*
X0152410Y0294550D01*
X0152820Y0294770D01*
X0153210Y0295030D01*
X0153570Y0295320D01*
X0153910Y0295640D01*
X0154220Y0295990D01*
X0154500Y0296360D01*
X0154750Y0296760D01*
X0154960Y0297170D01*
X0155140Y0297600D01*
X0155280Y0298050D01*
X0155390Y0298500D01*
X0155450Y0298960D01*
X0155480Y0299430D01*
X0155470Y0299890D01*
X0155420Y0300360D01*
X0155320Y0300810D01*
X0155200Y0301260D01*
X0155030Y0301700D01*
X0154830Y0302120D01*
X0154590Y0302520D01*
X0154320Y0302900D01*
X0154020Y0303260D01*
X0153690Y0303590D01*
X0153340Y0303890D01*
X0154170Y0305000D01*
X0154180Y0305010D01*
X0154590Y0304670D01*
X0154970Y0304300D01*
X0155320Y0303900D01*
X0155630Y0303480D01*
X0155920Y0303030D01*
X0156170Y0302570D01*
X0156390Y0302080D01*
X0156560Y0301580D01*
X0156700Y0301070D01*
X0156800Y0300550D01*
X0156860Y0300030D01*
X0156880Y0299500D01*
X0156860Y0298970D01*
X0156800Y0298440D01*
X0156700Y0297920D01*
X0156560Y0297410D01*
X0156380Y0296910D01*
X0156160Y0296430D01*
X0155910Y0295960D01*
X0155620Y0295520D01*
X0155300Y0295100D01*
X0154950Y0294700D01*
X0154570Y0294330D01*
X0154160Y0294000D01*
X0153730Y0293690D01*
X0153270Y0293420D01*
X0152800Y0293180D01*
X0152310Y0292980D01*
X0151800Y0292820D01*
X0151290Y0292690D01*
X0150770Y0292610D01*
X0150240Y0292570D01*
X0149710Y0292560D01*
X0149180Y0292600D01*
X0148660Y0292680D01*
X0148140Y0292790D01*
X0147630Y0292950D01*
X0147140Y0293140D01*
X0146660Y0293380D01*
X0146210Y0293640D01*
X0145770Y0293940D01*
X0145360Y0294280D01*
X0144970Y0294640D01*
X0144620Y0295030D01*
X0144290Y0295450D01*
X0144000Y0295890D01*
X0143740Y0296350D01*
X0143520Y0296830D01*
X0143330Y0297330D01*
X0143180Y0297840D01*
X0143080Y0298360D01*
X0143010Y0298880D01*
X0142980Y0299410D01*
X0143160Y0299410D01*
X0143190Y0298890D01*
X0143250Y0298380D01*
X0143360Y0297880D01*
X0143500Y0297380D01*
X0143680Y0296900D01*
X0143900Y0296430D01*
X0144150Y0295980D01*
X0144440Y0295550D01*
X0144760Y0295150D01*
X0145100Y0294760D01*
X0145480Y0294410D01*
X0145880Y0294090D01*
X0146300Y0293790D01*
X0146750Y0293530D01*
X0147210Y0293310D01*
X0147690Y0293120D01*
X0148190Y0292970D01*
X0148690Y0292850D01*
X0149200Y0292780D01*
X0149720Y0292740D01*
X0150230Y0292750D01*
X0150750Y0292790D01*
X0151250Y0292870D01*
X0151760Y0292990D01*
X0152250Y0293150D01*
X0152720Y0293340D01*
X0153190Y0293570D01*
X0153630Y0293840D01*
X0154050Y0294140D01*
X0154450Y0294470D01*
X0154820Y0294830D01*
X0155160Y0295210D01*
X0155470Y0295620D01*
X0155750Y0296060D01*
X0156000Y0296510D01*
X0156210Y0296980D01*
X0156380Y0297460D01*
X0156520Y0297960D01*
X0156620Y0298470D01*
X0156680Y0298980D01*
X0156700Y0299500D01*
X0156680Y0300010D01*
X0156620Y0300520D01*
X0156530Y0301030D01*
X0156390Y0301530D01*
X0156220Y0302020D01*
X0156010Y0302490D01*
X0155770Y0302940D01*
X0155490Y0303380D01*
X0155180Y0303790D01*
X0154840Y0304170D01*
X0154470Y0304530D01*
X0154070Y0304870D01*
X0153960Y0304720D01*
X0154360Y0304390D01*
X0154720Y0304030D01*
X0155060Y0303650D01*
X0155360Y0303240D01*
X0155640Y0302810D01*
X0155870Y0302350D01*
X0156080Y0301880D01*
X0156240Y0301400D01*
X0156370Y0300900D01*
X0156460Y0300400D01*
X0156510Y0299890D01*
X0156520Y0299380D01*
X0156490Y0298870D01*
X0156420Y0298360D01*
X0156310Y0297860D01*
X0156160Y0297370D01*
X0155980Y0296890D01*
X0155760Y0296430D01*
X0155500Y0295990D01*
X0155210Y0295570D01*
X0154890Y0295170D01*
X0154540Y0294800D01*
X0154160Y0294460D01*
X0153750Y0294140D01*
X0153330Y0293860D01*
X0152880Y0293620D01*
X0152410Y0293400D01*
X0151930Y0293230D01*
X0151440Y0293090D01*
X0150930Y0293000D01*
X0150430Y0292940D01*
X0149910Y0292920D01*
X0149400Y0292940D01*
X0148900Y0293000D01*
X0148390Y0293100D01*
X0147900Y0293240D01*
X0147420Y0293420D01*
X0146960Y0293630D01*
X0146510Y0293880D01*
X0146080Y0294160D01*
X0145680Y0294480D01*
X0145300Y0294820D01*
X0144950Y0295190D01*
X0144630Y0295590D01*
X0144340Y0296020D01*
X0144090Y0296460D01*
X0143870Y0296920D01*
X0143690Y0297400D01*
X0143540Y0297890D01*
X0143440Y0298390D01*
X0143370Y0298900D01*
X0143340Y0299410D01*
X0143520Y0299410D01*
X0143550Y0298900D01*
X0143620Y0298400D01*
X0143720Y0297900D01*
X0143870Y0297420D01*
X0144050Y0296950D01*
X0144280Y0296490D01*
X0144530Y0296050D01*
X0144820Y0295640D01*
X0145150Y0295240D01*
X0145500Y0294880D01*
X0145880Y0294540D01*
X0146280Y0294240D01*
X0146710Y0293970D01*
X0147160Y0293730D01*
X0147630Y0293530D01*
X0148110Y0293360D01*
X0148600Y0293240D01*
X0149100Y0293150D01*
X0149600Y0293110D01*
X0150110Y0293100D01*
X0150620Y0293140D01*
X0151120Y0293210D01*
X0151610Y0293320D01*
X0152100Y0293480D01*
X0152570Y0293670D01*
X0153020Y0293890D01*
X0153460Y0294160D01*
X0153870Y0294450D01*
X0154260Y0294780D01*
X0154620Y0295140D01*
X0154950Y0295520D01*
X0155250Y0295930D01*
X0155510Y0296360D01*
X0155750Y0296810D01*
X0155940Y0297280D01*
X0156100Y0297760D01*
X0156220Y0298260D01*
X0156300Y0298760D01*
X0156340Y0299260D01*
X0156330Y0299770D01*
X0156290Y0300280D01*
X0156210Y0300780D01*
X0156090Y0301270D01*
X0155930Y0301750D01*
X0155740Y0302220D01*
X0155510Y0302670D01*
X0155240Y0303100D01*
X0154940Y0303510D01*
X0154610Y0303900D01*
X0154240Y0304250D01*
X0153860Y0304580D01*
X0153750Y0304430D01*
X0154120Y0304120D01*
X0154480Y0303770D01*
X0154800Y0303400D01*
X0155090Y0303000D01*
X0155350Y0302580D01*
X0155580Y0302140D01*
X0155770Y0301690D01*
X0155920Y0301220D01*
X0156040Y0300740D01*
X0156120Y0300250D01*
X0156150Y0299760D01*
X0156160Y0299270D01*
X0156120Y0298780D01*
X0156040Y0298290D01*
X0155920Y0297810D01*
X0155770Y0297340D01*
X0155580Y0296890D01*
X0155360Y0296450D01*
X0155100Y0296030D01*
X0154810Y0295630D01*
X0154480Y0295260D01*
X0154130Y0294910D01*
X0153760Y0294590D01*
X0153360Y0294310D01*
X0152930Y0294050D01*
X0152490Y0293830D01*
X0152040Y0293650D01*
X0151570Y0293500D01*
X0151090Y0293390D01*
X0150600Y0293320D01*
X0150110Y0293280D01*
X0149610Y0293290D01*
X0149120Y0293330D01*
X0148640Y0293420D01*
X0148160Y0293540D01*
X0147690Y0293700D01*
X0147240Y0293890D01*
X0146800Y0294120D01*
X0146390Y0294390D01*
X0145990Y0294680D01*
X0145620Y0295010D01*
X0145280Y0295360D01*
X0144970Y0295740D01*
X0144690Y0296150D01*
X0144440Y0296570D01*
X0144220Y0297020D01*
X0144040Y0297480D01*
X0143900Y0297950D01*
X0143790Y0298430D01*
X0143730Y0298920D01*
X0143700Y0299410D01*
X0143880Y0299410D01*
X0143910Y0298920D01*
X0143980Y0298440D01*
X0144080Y0297960D01*
X0144230Y0297500D01*
X0144410Y0297040D01*
X0144620Y0296610D01*
X0144870Y0296190D01*
X0145160Y0295790D01*
X0145470Y0295420D01*
X0145820Y0295070D01*
X0146190Y0294750D01*
X0146590Y0294470D01*
X0147000Y0294220D01*
X0147440Y0294000D01*
X0147890Y0293810D01*
X0148360Y0293670D01*
X0148830Y0293560D01*
X0149320Y0293490D01*
X0149810Y0293460D01*
X0150290Y0293470D01*
X0150780Y0293520D01*
X0151260Y0293610D01*
X0151730Y0293730D01*
X0152190Y0293900D01*
X0152640Y0294100D01*
X0153060Y0294330D01*
X0153470Y0294600D01*
X0153850Y0294910D01*
X0154210Y0295240D01*
X0154540Y0295600D01*
X0154840Y0295980D01*
X0155110Y0296390D01*
X0155350Y0296820D01*
X0155550Y0297260D01*
X0155710Y0297720D01*
X0155840Y0298190D01*
X0155920Y0298670D01*
X0155970Y0299160D01*
X0155980Y0299650D01*
X0155950Y0300140D01*
X0155880Y0300620D01*
X0155770Y0301090D01*
X0155620Y0301560D01*
X0155440Y0302010D01*
X0155220Y0302450D01*
X0154960Y0302870D01*
X0154680Y0303260D01*
X0154360Y0303630D01*
X0154010Y0303970D01*
X0153640Y0304290D01*
X0153530Y0304150D01*
X0153900Y0303830D01*
X0154240Y0303490D01*
X0154560Y0303120D01*
X0154840Y0302730D01*
X0155090Y0302320D01*
X0155300Y0301880D01*
X0155480Y0301430D01*
X0155620Y0300970D01*
X0155720Y0300500D01*
X0155780Y0300020D01*
X0155800Y0299540D01*
X0155780Y0299050D01*
X0155720Y0298570D01*
X0155630Y0298100D01*
X0155490Y0297640D01*
X0155320Y0297190D01*
X0155110Y0296750D01*
X0154870Y0296330D01*
X0154590Y0295940D01*
X0154280Y0295570D01*
X0153940Y0295220D01*
X0153570Y0294910D01*
X0153180Y0294620D01*
X0152770Y0294370D01*
X0152340Y0294160D01*
X0151890Y0293980D01*
X0151430Y0293830D01*
X0150950Y0293730D01*
X0150480Y0293670D01*
X0149990Y0293640D01*
X0149510Y0293660D01*
X0149030Y0293710D01*
X0148560Y0293800D01*
X0148090Y0293940D01*
X0147640Y0294110D01*
X0147200Y0294310D01*
X0146780Y0294550D01*
X0146390Y0294830D01*
X0146010Y0295140D01*
X0145670Y0295470D01*
X0145350Y0295840D01*
X0145060Y0296230D01*
X0144810Y0296640D01*
X0144590Y0297070D01*
X0144410Y0297520D01*
X0144260Y0297980D01*
X0144160Y0298450D01*
X0144090Y0298930D01*
X0144060Y0299410D01*
X0144240Y0299410D01*
X0144270Y0298930D01*
X0144340Y0298460D01*
X0144450Y0297990D01*
X0144590Y0297540D01*
X0144780Y0297100D01*
X0145000Y0296670D01*
X0145250Y0296270D01*
X0145540Y0295890D01*
X0145860Y0295530D01*
X0146210Y0295210D01*
X0146580Y0294910D01*
X0146980Y0294640D01*
X0147400Y0294410D01*
X0147840Y0294220D01*
X0148290Y0294060D01*
X0148750Y0293940D01*
X0149220Y0293860D01*
X0149700Y0293820D01*
X0150180Y0293830D01*
X0150650Y0293870D01*
X0151120Y0293950D01*
X0151590Y0294070D01*
X0152040Y0294230D01*
X0152470Y0294420D01*
X0152890Y0294650D01*
X0153290Y0294920D01*
X0153660Y0295220D01*
X0154010Y0295540D01*
X0154330Y0295900D01*
X0154620Y0296280D01*
X0154870Y0296690D01*
X0155090Y0297110D01*
X0155270Y0297550D01*
X0155420Y0298010D01*
X0155530Y0298480D01*
X0155590Y0298950D01*
X0155620Y0299430D01*
X0155610Y0299900D01*
X0155550Y0300380D01*
X0155460Y0300850D01*
X0155330Y0301310D01*
X0155160Y0301750D01*
X0154950Y0302190D01*
X0154710Y0302600D01*
X0154430Y0302990D01*
X0154130Y0303350D01*
X0153790Y0303690D01*
X0153420Y0304000D01*
X0137200Y0360860D02*
G75*
%LPD*%
D13*
X0148380Y0401140D02*
X0141980Y0401140D01*
X0141980Y0399010D02*
X0141980Y0403280D01*
X0145180Y0405450D02*
X0144110Y0406520D01*
X0144110Y0408660D01*
X0145180Y0409720D01*
X0146250Y0409720D01*
X0146250Y0405450D01*
X0147310Y0405450D02*
X0145180Y0405450D01*
X0147310Y0405450D02*
X0148380Y0406520D01*
X0148380Y0408660D01*
X0148380Y0411900D02*
X0144110Y0416170D01*
X0144110Y0418340D02*
X0144110Y0420480D01*
X0143040Y0419410D02*
X0147310Y0419410D01*
X0148380Y0420480D01*
X0148380Y0416170D02*
X0144110Y0411900D01*
D44*
X0144680Y0377210D03*
D10*
X0166680Y0425710D02*
X0166680Y0450710D01*
X0186680Y0450710D01*
X0186680Y0425710D01*
X0166680Y0425710D01*
X0167850Y0425710D02*
X0167850Y0450710D01*
X0169430Y0450710D02*
X0169430Y0425710D01*
X0171020Y0425710D02*
X0171020Y0432810D01*
X0170630Y0433200D02*
X0174180Y0429660D01*
X0176180Y0429660D01*
X0176180Y0435210D01*
X0170630Y0435210D01*
X0170630Y0433200D01*
X0171020Y0435210D02*
X0171020Y0436210D01*
X0170630Y0436210D02*
X0170630Y0438210D01*
X0174180Y0441760D01*
X0176180Y0441760D01*
X0176180Y0436210D01*
X0177180Y0436210D01*
X0177180Y0441760D01*
X0179190Y0441760D01*
X0182730Y0438210D01*
X0182730Y0436210D01*
X0177180Y0436210D01*
X0177180Y0435210D01*
X0182730Y0435210D01*
X0182730Y0433200D01*
X0179190Y0429660D01*
X0177180Y0429660D01*
X0177180Y0435210D01*
X0176180Y0435210D01*
X0176180Y0436210D01*
X0170630Y0436210D01*
X0172610Y0436210D02*
X0172610Y0435210D01*
X0174190Y0435210D02*
X0174190Y0436210D01*
X0175780Y0436210D02*
X0175780Y0435210D01*
X0177360Y0435210D02*
X0177360Y0436210D01*
X0178950Y0436210D02*
X0178950Y0435210D01*
X0180530Y0435210D02*
X0180530Y0436210D01*
X0182120Y0436210D02*
X0182120Y0435210D01*
X0182120Y0432590D02*
X0182120Y0425710D01*
X0183700Y0425710D02*
X0183700Y0450710D01*
X0182120Y0450710D02*
X0182120Y0438830D01*
X0180530Y0440410D02*
X0180530Y0450710D01*
X0178950Y0450710D02*
X0178950Y0441760D01*
X0177360Y0441760D02*
X0177360Y0450710D01*
X0175780Y0450710D02*
X0175780Y0441760D01*
X0174190Y0441760D02*
X0174190Y0450710D01*
X0172610Y0450710D02*
X0172610Y0440190D01*
X0171020Y0438600D02*
X0171020Y0450710D01*
X0157480Y0451110D02*
X0154680Y0449710D01*
X0149680Y0449710D01*
X0142000Y0453550D01*
X0142000Y0455870D01*
X0149680Y0459710D01*
X0154680Y0459710D01*
X0157480Y0458310D01*
X0153020Y0458310D01*
X0152240Y0457530D01*
X0151830Y0457930D01*
X0150440Y0458510D01*
X0149680Y0458510D01*
X0148930Y0458510D01*
X0147530Y0457930D01*
X0146460Y0456860D01*
X0145880Y0455460D01*
X0145880Y0454710D01*
X0149680Y0454710D01*
X0149680Y0454710D01*
X0149680Y0458510D01*
X0149680Y0454710D01*
X0149680Y0454710D01*
X0145880Y0454710D01*
X0145880Y0453950D01*
X0146460Y0452560D01*
X0147530Y0451490D01*
X0148930Y0450910D01*
X0149680Y0450910D01*
X0149680Y0454700D01*
X0149680Y0454700D01*
X0149680Y0450910D01*
X0150440Y0450910D01*
X0151830Y0451490D01*
X0152240Y0451890D01*
X0153020Y0451110D01*
X0157480Y0451110D01*
X0156750Y0451110D02*
X0156750Y0450740D01*
X0155170Y0451110D02*
X0155170Y0449950D01*
X0153580Y0449710D02*
X0153580Y0451110D01*
X0151990Y0451650D02*
X0151990Y0449710D01*
X0150410Y0449710D02*
X0150410Y0450910D01*
X0148820Y0450950D02*
X0148820Y0450140D01*
X0147240Y0450930D02*
X0147240Y0451780D01*
X0145650Y0451720D02*
X0145650Y0457690D01*
X0147240Y0457640D02*
X0147240Y0458490D01*
X0148820Y0458470D02*
X0148820Y0459280D01*
X0150410Y0459710D02*
X0150410Y0458510D01*
X0151990Y0457770D02*
X0151990Y0459710D01*
X0153580Y0459710D02*
X0153580Y0458310D01*
X0155170Y0458310D02*
X0155170Y0459470D01*
X0156750Y0458670D02*
X0156750Y0458310D01*
X0148820Y0454710D02*
X0148820Y0454710D01*
X0147240Y0454710D02*
X0147240Y0454710D01*
X0144070Y0452520D02*
X0144070Y0456900D01*
X0142480Y0456110D02*
X0142480Y0453310D01*
X0172610Y0431230D02*
X0172610Y0425710D01*
X0174190Y0425710D02*
X0174190Y0429660D01*
X0175780Y0429660D02*
X0175780Y0425710D01*
X0177360Y0425710D02*
X0177360Y0429660D01*
X0178950Y0429660D02*
X0178950Y0425710D01*
X0180530Y0425710D02*
X0180530Y0431000D01*
X0185290Y0425710D02*
X0185290Y0450710D01*
X0190680Y0419710D02*
X0200680Y0419710D01*
X0200680Y0399710D01*
X0179680Y0402640D02*
X0179040Y0402670D01*
X0178400Y0402760D01*
X0177770Y0402900D01*
X0177160Y0403100D01*
X0176570Y0403360D01*
X0176010Y0403670D01*
X0175470Y0404030D01*
X0174970Y0404430D01*
X0174510Y0404880D01*
X0174100Y0405370D01*
X0173720Y0405900D01*
X0173400Y0406460D01*
X0173130Y0407040D01*
X0172920Y0407650D01*
X0172760Y0408270D01*
X0172660Y0408910D01*
X0172610Y0409550D01*
X0172630Y0410190D01*
X0172700Y0410830D01*
X0172830Y0411460D01*
X0173020Y0412080D01*
X0173260Y0412670D01*
X0173560Y0413240D01*
X0173900Y0413790D01*
X0174300Y0414300D01*
X0174740Y0414770D01*
X0175220Y0415190D01*
X0175740Y0415580D01*
X0176290Y0415910D01*
X0176860Y0416190D01*
X0177460Y0416420D01*
X0178080Y0416600D01*
X0178720Y0416710D01*
X0179360Y0416770D01*
X0180000Y0416770D01*
X0180640Y0416710D01*
X0181280Y0416600D01*
X0181900Y0416420D01*
X0182500Y0416190D01*
X0183070Y0415910D01*
X0183620Y0415580D01*
X0184140Y0415190D01*
X0184620Y0414770D01*
X0185060Y0414300D01*
X0185460Y0413790D01*
X0185800Y0413250D01*
X0186100Y0412670D01*
X0186340Y0412080D01*
X0186530Y0411460D01*
X0186660Y0410830D01*
X0186730Y0410190D01*
X0186750Y0409550D01*
X0186700Y0408910D01*
X0186600Y0408270D01*
X0186440Y0407650D01*
X0186230Y0407040D01*
X0185960Y0406460D01*
X0185640Y0405900D01*
X0185260Y0405370D01*
X0184850Y0404880D01*
X0184390Y0404430D01*
X0183890Y0404030D01*
X0183350Y0403670D01*
X0182790Y0403360D01*
X0182200Y0403100D01*
X0181590Y0402900D01*
X0180960Y0402760D01*
X0180320Y0402670D01*
X0179680Y0402640D01*
D21*
X0179680Y0369710D03*
X0176680Y0435710D03*
D26*
X0219680Y0369710D03*
D11*
X0219680Y0389710D03*
D43*
X0213600Y0449100D03*
X0203760Y0449100D03*
D35*
X0149680Y0454710D03*
D17*
X0155680Y0454710D03*
D27*
X0225370Y0409800D02*
X0223970Y0409800D01*
X0223980Y0409810D02*
X0223950Y0410280D01*
X0223880Y0410740D01*
X0223780Y0411190D01*
X0223640Y0411630D01*
X0223460Y0412060D01*
X0223240Y0412480D01*
X0222990Y0412870D01*
X0222710Y0413240D01*
X0222400Y0413590D01*
X0222060Y0413910D01*
X0221690Y0414200D01*
X0221310Y0414460D01*
X0220900Y0414680D01*
X0220470Y0414870D01*
X0220030Y0415020D01*
X0219580Y0415140D01*
X0219120Y0415220D01*
X0218650Y0415260D01*
X0218190Y0415250D01*
X0217720Y0415210D01*
X0217260Y0415140D01*
X0216810Y0415020D01*
X0216370Y0414860D01*
X0215950Y0414670D01*
X0215540Y0414450D01*
X0215150Y0414190D01*
X0214790Y0413900D01*
X0214450Y0413580D01*
X0214140Y0413230D01*
X0213860Y0412860D01*
X0213610Y0412460D01*
X0213400Y0412050D01*
X0213220Y0411620D01*
X0213080Y0411170D01*
X0212970Y0410720D01*
X0212910Y0410260D01*
X0212880Y0409790D01*
X0212890Y0409330D01*
X0212940Y0408860D01*
X0213040Y0408410D01*
X0213160Y0407960D01*
X0213330Y0407520D01*
X0213530Y0407100D01*
X0213770Y0406700D01*
X0214040Y0406320D01*
X0214340Y0405960D01*
X0214670Y0405630D01*
X0215020Y0405330D01*
X0214190Y0404220D01*
X0214180Y0404210D01*
X0213770Y0404550D01*
X0213390Y0404920D01*
X0213040Y0405320D01*
X0212730Y0405740D01*
X0212440Y0406190D01*
X0212190Y0406650D01*
X0211970Y0407140D01*
X0211800Y0407640D01*
X0211660Y0408150D01*
X0211560Y0408670D01*
X0211500Y0409190D01*
X0211480Y0409720D01*
X0211500Y0410250D01*
X0211560Y0410780D01*
X0211660Y0411300D01*
X0211800Y0411810D01*
X0211980Y0412310D01*
X0212200Y0412790D01*
X0212450Y0413260D01*
X0212740Y0413700D01*
X0213060Y0414120D01*
X0213410Y0414520D01*
X0213790Y0414890D01*
X0214200Y0415220D01*
X0214630Y0415530D01*
X0215090Y0415800D01*
X0215560Y0416040D01*
X0216050Y0416240D01*
X0216560Y0416400D01*
X0217070Y0416530D01*
X0217590Y0416610D01*
X0218120Y0416650D01*
X0218650Y0416660D01*
X0219180Y0416620D01*
X0219700Y0416540D01*
X0220220Y0416430D01*
X0220730Y0416270D01*
X0221220Y0416080D01*
X0221700Y0415840D01*
X0222150Y0415580D01*
X0222590Y0415280D01*
X0223000Y0414940D01*
X0223390Y0414580D01*
X0223740Y0414190D01*
X0224070Y0413770D01*
X0224360Y0413330D01*
X0224620Y0412870D01*
X0224840Y0412390D01*
X0225030Y0411890D01*
X0225180Y0411380D01*
X0225280Y0410860D01*
X0225350Y0410340D01*
X0225380Y0409810D01*
X0225200Y0409810D01*
X0225170Y0410330D01*
X0225110Y0410840D01*
X0225000Y0411340D01*
X0224860Y0411840D01*
X0224680Y0412320D01*
X0224460Y0412790D01*
X0224210Y0413240D01*
X0223920Y0413670D01*
X0223600Y0414070D01*
X0223260Y0414460D01*
X0222880Y0414810D01*
X0222480Y0415130D01*
X0222060Y0415430D01*
X0221610Y0415690D01*
X0221150Y0415910D01*
X0220670Y0416100D01*
X0220170Y0416250D01*
X0219670Y0416370D01*
X0219160Y0416440D01*
X0218640Y0416480D01*
X0218130Y0416470D01*
X0217610Y0416430D01*
X0217110Y0416350D01*
X0216600Y0416230D01*
X0216110Y0416070D01*
X0215640Y0415880D01*
X0215170Y0415650D01*
X0214730Y0415380D01*
X0214310Y0415080D01*
X0213910Y0414750D01*
X0213540Y0414390D01*
X0213200Y0414010D01*
X0212890Y0413600D01*
X0212610Y0413160D01*
X0212360Y0412710D01*
X0212150Y0412240D01*
X0211980Y0411760D01*
X0211840Y0411260D01*
X0211740Y0410750D01*
X0211680Y0410240D01*
X0211660Y0409720D01*
X0211680Y0409210D01*
X0211740Y0408700D01*
X0211830Y0408190D01*
X0211970Y0407690D01*
X0212140Y0407200D01*
X0212350Y0406730D01*
X0212590Y0406280D01*
X0212870Y0405840D01*
X0213180Y0405430D01*
X0213520Y0405050D01*
X0213890Y0404690D01*
X0214290Y0404350D01*
X0214400Y0404500D01*
X0214000Y0404830D01*
X0213640Y0405190D01*
X0213300Y0405570D01*
X0213000Y0405980D01*
X0212720Y0406410D01*
X0212490Y0406870D01*
X0212280Y0407340D01*
X0212120Y0407820D01*
X0211990Y0408320D01*
X0211900Y0408820D01*
X0211850Y0409330D01*
X0211840Y0409840D01*
X0211870Y0410350D01*
X0211940Y0410860D01*
X0212050Y0411360D01*
X0212200Y0411850D01*
X0212380Y0412330D01*
X0212600Y0412790D01*
X0212860Y0413230D01*
X0213150Y0413650D01*
X0213470Y0414050D01*
X0213820Y0414420D01*
X0214200Y0414760D01*
X0214610Y0415080D01*
X0215030Y0415360D01*
X0215480Y0415600D01*
X0215950Y0415820D01*
X0216430Y0415990D01*
X0216920Y0416130D01*
X0217430Y0416220D01*
X0217930Y0416280D01*
X0218450Y0416300D01*
X0218960Y0416280D01*
X0219460Y0416220D01*
X0219970Y0416120D01*
X0220460Y0415980D01*
X0220940Y0415800D01*
X0221400Y0415590D01*
X0221850Y0415340D01*
X0222280Y0415060D01*
X0222680Y0414740D01*
X0223060Y0414400D01*
X0223410Y0414030D01*
X0223730Y0413630D01*
X0224020Y0413200D01*
X0224270Y0412760D01*
X0224490Y0412300D01*
X0224670Y0411820D01*
X0224820Y0411330D01*
X0224920Y0410830D01*
X0224990Y0410320D01*
X0225020Y0409810D01*
X0224840Y0409810D01*
X0224810Y0410320D01*
X0224740Y0410820D01*
X0224640Y0411320D01*
X0224490Y0411800D01*
X0224310Y0412270D01*
X0224080Y0412730D01*
X0223830Y0413170D01*
X0223540Y0413580D01*
X0223210Y0413980D01*
X0222860Y0414340D01*
X0222480Y0414680D01*
X0222080Y0414980D01*
X0221650Y0415250D01*
X0221200Y0415490D01*
X0220730Y0415690D01*
X0220250Y0415860D01*
X0219760Y0415980D01*
X0219260Y0416070D01*
X0218760Y0416110D01*
X0218250Y0416120D01*
X0217740Y0416080D01*
X0217240Y0416010D01*
X0216750Y0415900D01*
X0216260Y0415740D01*
X0215790Y0415550D01*
X0215340Y0415330D01*
X0214900Y0415060D01*
X0214490Y0414770D01*
X0214100Y0414440D01*
X0213740Y0414080D01*
X0213410Y0413700D01*
X0213110Y0413290D01*
X0212850Y0412860D01*
X0212610Y0412410D01*
X0212420Y0411940D01*
X0212260Y0411460D01*
X0212140Y0410960D01*
X0212060Y0410460D01*
X0212020Y0409960D01*
X0212030Y0409450D01*
X0212070Y0408940D01*
X0212150Y0408440D01*
X0212270Y0407950D01*
X0212430Y0407470D01*
X0212620Y0407000D01*
X0212850Y0406550D01*
X0213120Y0406120D01*
X0213420Y0405710D01*
X0213750Y0405320D01*
X0214120Y0404970D01*
X0214500Y0404640D01*
X0214610Y0404790D01*
X0214240Y0405100D01*
X0213880Y0405450D01*
X0213560Y0405820D01*
X0213270Y0406220D01*
X0213010Y0406640D01*
X0212780Y0407080D01*
X0212590Y0407530D01*
X0212440Y0408000D01*
X0212320Y0408480D01*
X0212240Y0408970D01*
X0212210Y0409460D01*
X0212200Y0409950D01*
X0212240Y0410440D01*
X0212320Y0410930D01*
X0212440Y0411410D01*
X0212590Y0411880D01*
X0212780Y0412330D01*
X0213000Y0412770D01*
X0213260Y0413190D01*
X0213550Y0413590D01*
X0213880Y0413960D01*
X0214230Y0414310D01*
X0214600Y0414630D01*
X0215000Y0414910D01*
X0215430Y0415170D01*
X0215870Y0415390D01*
X0216320Y0415570D01*
X0216790Y0415720D01*
X0217270Y0415830D01*
X0217760Y0415900D01*
X0218250Y0415940D01*
X0218750Y0415930D01*
X0219240Y0415890D01*
X0219720Y0415800D01*
X0220200Y0415680D01*
X0220670Y0415520D01*
X0221120Y0415330D01*
X0221560Y0415100D01*
X0221970Y0414830D01*
X0222370Y0414540D01*
X0222740Y0414210D01*
X0223080Y0413860D01*
X0223390Y0413480D01*
X0223670Y0413070D01*
X0223920Y0412650D01*
X0224140Y0412200D01*
X0224320Y0411740D01*
X0224460Y0411270D01*
X0224570Y0410790D01*
X0224630Y0410300D01*
X0224660Y0409810D01*
X0224480Y0409810D01*
X0224450Y0410300D01*
X0224380Y0410780D01*
X0224280Y0411260D01*
X0224130Y0411720D01*
X0223950Y0412180D01*
X0223740Y0412610D01*
X0223490Y0413030D01*
X0223200Y0413430D01*
X0222890Y0413800D01*
X0222540Y0414150D01*
X0222170Y0414470D01*
X0221770Y0414750D01*
X0221360Y0415000D01*
X0220920Y0415220D01*
X0220470Y0415410D01*
X0220000Y0415550D01*
X0219530Y0415660D01*
X0219040Y0415730D01*
X0218550Y0415760D01*
X0218070Y0415750D01*
X0217580Y0415700D01*
X0217100Y0415610D01*
X0216630Y0415490D01*
X0216170Y0415320D01*
X0215720Y0415120D01*
X0215300Y0414890D01*
X0214890Y0414620D01*
X0214510Y0414310D01*
X0214150Y0413980D01*
X0213820Y0413620D01*
X0213520Y0413240D01*
X0213250Y0412830D01*
X0213010Y0412400D01*
X0212810Y0411960D01*
X0212650Y0411500D01*
X0212520Y0411030D01*
X0212440Y0410550D01*
X0212390Y0410060D01*
X0212380Y0409570D01*
X0212410Y0409080D01*
X0212480Y0408600D01*
X0212590Y0408130D01*
X0212740Y0407660D01*
X0212920Y0407210D01*
X0213140Y0406770D01*
X0213400Y0406350D01*
X0213680Y0405960D01*
X0214000Y0405590D01*
X0214350Y0405250D01*
X0214720Y0404930D01*
X0214830Y0405070D01*
X0214460Y0405390D01*
X0214120Y0405730D01*
X0213800Y0406100D01*
X0213520Y0406490D01*
X0213270Y0406900D01*
X0213060Y0407340D01*
X0212880Y0407790D01*
X0212740Y0408250D01*
X0212640Y0408720D01*
X0212580Y0409200D01*
X0212560Y0409680D01*
X0212580Y0410170D01*
X0212640Y0410650D01*
X0212730Y0411120D01*
X0212870Y0411580D01*
X0213040Y0412030D01*
X0213250Y0412470D01*
X0213490Y0412890D01*
X0213770Y0413280D01*
X0214080Y0413650D01*
X0214420Y0414000D01*
X0214790Y0414310D01*
X0215180Y0414600D01*
X0215590Y0414850D01*
X0216020Y0415060D01*
X0216470Y0415240D01*
X0216930Y0415390D01*
X0217410Y0415490D01*
X0217880Y0415550D01*
X0218370Y0415580D01*
X0218850Y0415560D01*
X0219330Y0415510D01*
X0219800Y0415420D01*
X0220270Y0415280D01*
X0220720Y0415110D01*
X0221160Y0414910D01*
X0221580Y0414670D01*
X0221970Y0414390D01*
X0222350Y0414080D01*
X0222690Y0413750D01*
X0223010Y0413380D01*
X0223300Y0412990D01*
X0223550Y0412580D01*
X0223770Y0412150D01*
X0223950Y0411700D01*
X0224100Y0411240D01*
X0224200Y0410770D01*
X0224270Y0410290D01*
X0224300Y0409810D01*
X0224120Y0409810D01*
X0224090Y0410290D01*
X0224020Y0410760D01*
X0223910Y0411230D01*
X0223770Y0411680D01*
X0223580Y0412120D01*
X0223360Y0412550D01*
X0223110Y0412950D01*
X0222820Y0413330D01*
X0222500Y0413690D01*
X0222150Y0414010D01*
X0221780Y0414310D01*
X0221380Y0414580D01*
X0220960Y0414810D01*
X0220520Y0415000D01*
X0220070Y0415160D01*
X0219610Y0415280D01*
X0219140Y0415360D01*
X0218660Y0415400D01*
X0218180Y0415390D01*
X0217710Y0415350D01*
X0217240Y0415270D01*
X0216770Y0415150D01*
X0216320Y0414990D01*
X0215890Y0414800D01*
X0215470Y0414570D01*
X0215070Y0414300D01*
X0214700Y0414000D01*
X0214350Y0413680D01*
X0214030Y0413320D01*
X0213740Y0412940D01*
X0213490Y0412530D01*
X0213270Y0412110D01*
X0213090Y0411670D01*
X0212940Y0411210D01*
X0212830Y0410740D01*
X0212770Y0410270D01*
X0212740Y0409790D01*
X0212750Y0409320D01*
X0212810Y0408840D01*
X0212900Y0408370D01*
X0213030Y0407910D01*
X0213200Y0407470D01*
X0213410Y0407030D01*
X0213650Y0406620D01*
X0213930Y0406230D01*
X0214230Y0405870D01*
X0214570Y0405530D01*
X0214940Y0405220D01*
M02*
