<?xml version='1.0' encoding='UTF-8' standalone='no'?>
<!-- Created with Fritzing (http://www.fritzing.org/) -->
<svg xmlns="http://www.w3.org/2000/svg" width="1.9685in" x="0in" version="1.2" y="0in" height="1.9685in" viewBox="0 0 141.732 141.732" baseProfile="tiny">
 <desc >Fritzing footprint generated by brd2svg</desc>
 <g  id="silkscreen" stroke-width="0">
  <path  fill="none" stroke="white" stroke-width="0.576" d="M0.288,70.8661a70.5781,70.5781,0,1,0,141.156,0,70.5781,70.5781,0,1,0,-141.156,0zM83.5697,36.8504a1.69626,1.69626,0,1,1,3.3925,0,1.69626,1.69626,0,1,1,-3.3925,0zM54.7699,36.8504a1.69626,1.69626,0,1,1,3.3925,0,1.69626,1.69626,0,1,1,-3.3925,0zM45.7983,93.6a0.916726,0.916726,0,1,1,1.83345,0,0.916726,0.916726,0,1,1,-1.83345,0zM37.2943,93.6a0.916726,0.916726,0,1,1,1.83345,0,0.916726,0.916726,0,1,1,-1.83345,0z"/>
  <g  stroke-width="0">
   <title >element:JP1</title>
   <g  stroke-width="0">
    <title >package:JST-2-SMD</title>
    <line  stroke="white" stroke-linecap="round" y1="79.4268" x1="33.9591" y2="79.4268" stroke-width="0.576" x2="43.8803"/>
    <line  stroke="white" stroke-linecap="round" y1="79.4268" x1="43.8803" y2="77.1588" stroke-width="0.576" x2="43.8803"/>
    <line  stroke="white" stroke-linecap="round" y1="77.1588" x1="43.8803" y2="77.1588" stroke-width="0.576" x2="36.7937"/>
    <line  stroke="white" stroke-linecap="round" y1="77.1588" x1="36.7937" y2="73.7575" stroke-width="0.576" x2="36.7937"/>
    <line  stroke="white" stroke-linecap="round" y1="62.4189" x1="36.7937" y2="59.0173" stroke-width="0.576" x2="36.7937"/>
    <line  stroke="white" stroke-linecap="round" y1="59.0173" x1="36.7937" y2="59.0173" stroke-width="0.576" x2="43.8803"/>
    <line  stroke="white" stroke-linecap="round" y1="59.0173" x1="43.8803" y2="56.7496" stroke-width="0.576" x2="43.8803"/>
    <line  stroke="white" stroke-linecap="round" y1="56.7496" x1="43.8803" y2="56.7496" stroke-width="0.576" x2="33.9591"/>
    <line  stroke="white" stroke-linecap="round" y1="62.4189" x1="22.6205" y2="73.7575" stroke-width="0.576" x2="22.6205"/>
   </g>
  </g>
  <g  stroke-width="0">
   <title >element:JP2</title>
   <g  stroke-width="0">
    <title >package:1X06-SMD</title>
   </g>
  </g>
  <g  stroke-width="0">
   <title >element:JP3</title>
   <g  stroke-width="0">
    <title >package:2X3-NS</title>
   </g>
  </g>
  <g  stroke-width="0">
   <title >element:S2</title>
   <g  stroke-width="0">
    <title >package:AYZ0202</title>
    <line  stroke="white" stroke-linecap="round" y1="88.6392" x1="32.2582" y2="98.5608" stroke-width="0.576" x2="32.2582"/>
    <line  stroke="white" stroke-linecap="round" y1="98.5608" x1="32.2582" y2="98.5608" stroke-width="0.576" x2="52.6677"/>
    <line  stroke="white" stroke-linecap="round" y1="98.5608" x1="52.6677" y2="88.6392" stroke-width="0.576" x2="52.6677"/>
    <line  stroke="white" stroke-linecap="round" y1="88.6392" x1="52.6677" y2="88.6392" stroke-width="0.576" x2="32.2582"/>
   </g>
  </g>
  <g  stroke-width="0">
   <title >element:U$1</title>
   <g  stroke-width="0">
    <title >package:LOGO-LPA</title>
    <line  stroke="white" stroke-linecap="round" y1="112.308" x1="60.1228" y2="106.356" stroke-width="0.576" x2="60.1228"/>
    <path  fill="none" stroke="white" stroke-width="0.576" d="M61.8236,104.939A1.56558,1.56558,0,0,0,60.1228,106.356"/>
    <path  fill="none" stroke="white" stroke-width="0.576" d="M63.5244,106.356A1.56586,1.56586,0,0,0,61.8236,104.939"/>
    <line  stroke="white" stroke-linecap="round" y1="106.356" x1="63.5244" y2="106.923" stroke-width="0.576" x2="63.5244"/>
    <path  fill="none" stroke="white" stroke-width="0.576" d="M62.1071,108.199A1.34873,1.34873,0,0,0,63.5244,106.923"/>
    <line  stroke="white" stroke-linecap="round" y1="108.199" x1="62.1071" y2="108.199" stroke-width="0.576" x2="61.2567"/>
    <path  fill="none" stroke="white" stroke-width="0.576" d="M63.3827,112.308A1.00233,1.00233,0,0,0,64.2331,111.174"/>
    <line  stroke="white" stroke-linecap="round" y1="112.308" x1="63.3827" y2="112.308" stroke-width="0.576" x2="62.8158"/>
    <path  fill="none" stroke="white" stroke-width="0.576" d="M61.6819,110.892A1.28353,1.28353,0,0,0,62.8158,112.308"/>
    <path  fill="none" stroke="white" stroke-width="0.576" d="M62.8158,109.474A1.28353,1.28353,0,0,0,61.6819,110.892"/>
    <line  stroke="white" stroke-linecap="round" y1="109.474" x1="62.8158" y2="109.474" stroke-width="0.576" x2="63.0992"/>
    <path  fill="none" stroke="white" stroke-width="0.576" d="M64.2331,110.608A1.13386,1.13386,0,0,0,63.0992,109.474"/>
    <line  stroke="white" stroke-linecap="round" y1="110.608" x1="64.2331" y2="111.174" stroke-width="0.576" x2="64.2331"/>
    <path  fill="none" stroke="white" stroke-width="0.576" d="M64.2331,111.174A0.945353,0.945353,0,0,0,64.9418,112.308"/>
    <path  fill="none" stroke="white" stroke-width="0.576" d="M64.9418,112.308A0.807876,0.807876,0,0,0,65.9339,111.742"/>
    <line  stroke="white" stroke-linecap="round" y1="111.742" x1="65.9339" y2="111.6" stroke-width="0.576" x2="65.9339"/>
    <line  stroke="white" stroke-linecap="round" y1="111.6" x1="65.9339" y2="110.892" stroke-width="0.576" x2="65.9339"/>
    <path  fill="none" stroke="white" stroke-width="0.576" d="M67.2095,109.474A1.34844,1.34844,0,0,0,65.9339,110.892"/>
    <path  fill="none" stroke="white" stroke-width="0.576" d="M68.485,111.033A1.42441,1.42441,0,0,0,67.2095,109.474"/>
    <path  fill="none" stroke="white" stroke-width="0.576" d="M68.485,111.6A1.16873,1.16873,0,0,0,68.485,111.033"/>
    <path  fill="none" stroke="white" stroke-width="0.576" d="M67.6346,112.45A1.16873,1.16873,0,0,0,68.485,111.6"/>
    <path  fill="none" stroke="white" stroke-width="0.576" d="M65.9339,111.6A1.34447,1.34447,0,0,0,67.6346,112.45"/>
    <line  stroke="white" stroke-linecap="round" y1="111.6" x1="68.485" y2="111.884" stroke-width="0.576" x2="68.485"/>
    <path  fill="none" stroke="white" stroke-width="0.576" d="M68.485,111.884A0.566929,0.566929,0,0,0,69.052,112.45"/>
    <path  fill="none" stroke="white" stroke-width="0.576" d="M69.052,112.45A0.566929,0.566929,0,0,0,69.6189,111.884"/>
    <line  stroke="white" stroke-linecap="round" y1="111.316" x1="68.485" y2="105.647" stroke-width="0.576" x2="68.485"/>
    <path  fill="none" stroke="white" stroke-width="0.576" d="M72.8784,106.356A3.47471,3.47471,0,0,0,76.9889,109.049"/>
    <path  fill="none" stroke="white" stroke-width="0.576" d="M82.5163,112.308A0.708661,0.708661,0,0,0,83.2255,111.6"/>
    <line  stroke="white" stroke-linecap="round" y1="111.6" x1="83.2255" y2="111.458" stroke-width="0.576" x2="83.2255"/>
    <line  stroke="white" stroke-linecap="round" y1="111.458" x1="83.2255" y2="110.75" stroke-width="0.576" x2="83.2255"/>
    <path  fill="none" stroke="white" stroke-width="0.576" d="M84.5006,109.474A1.27559,1.27559,0,0,0,83.2255,110.75"/>
    <path  fill="none" stroke="white" stroke-width="0.576" d="M85.7765,110.892A1.34844,1.34844,0,0,0,84.5006,109.474"/>
    <path  fill="none" stroke="white" stroke-width="0.576" d="M85.7765,111.458A1.16873,1.16873,0,0,0,85.7765,110.892"/>
    <path  fill="none" stroke="white" stroke-width="0.576" d="M84.9262,112.308A1.16873,1.16873,0,0,0,85.7765,111.458"/>
    <path  fill="none" stroke="white" stroke-width="0.576" d="M83.2255,111.458A1.34447,1.34447,0,0,0,84.9262,112.308"/>
    <line  stroke="white" stroke-linecap="round" y1="111.458" x1="85.7765" y2="111.742" stroke-width="0.576" x2="85.7765"/>
    <path  fill="none" stroke="white" stroke-width="0.576" d="M85.7765,111.742A0.722837,0.722837,0,0,0,86.6268,112.308"/>
    <path  fill="none" stroke="white" stroke-width="0.576" d="M86.6268,112.308A0.566929,0.566929,0,0,0,87.1934,111.742"/>
    <line  stroke="white" stroke-linecap="round" y1="111.174" x1="85.7765" y2="105.505" stroke-width="0.576" x2="85.7765"/>
    <path  fill="none" stroke="white" stroke-width="0.576" d="M97.8235,109.758A1.28353,1.28353,0,0,0,96.6895,111.174"/>
    <line  stroke="white" stroke-linecap="round" y1="109.758" x1="97.8235" y2="109.758" stroke-width="0.576" x2="98.1072"/>
    <path  fill="none" stroke="white" stroke-width="0.576" d="M99.2412,110.892A1.13386,1.13386,0,0,0,98.1072,109.758"/>
    <line  stroke="white" stroke-linecap="round" y1="111.174" x1="99.2412" y2="110.892" stroke-width="0.576" x2="99.2412"/>
    <path  fill="none" stroke="white" stroke-width="0.576" d="M98.1072,112.45A1.20671,1.20671,0,0,0,99.2412,111.174"/>
    <line  stroke="white" stroke-linecap="round" y1="112.45" x1="97.8235" y2="112.45" stroke-width="0.576" x2="98.1072"/>
    <path  fill="none" stroke="white" stroke-width="0.576" d="M96.6895,111.174A1.20671,1.20671,0,0,0,97.8235,112.45"/>
    <path  fill="none" stroke="white" stroke-width="0.576" d="M97.3987,109.899A1.58457,1.58457,0,0,0,99.2412,111.174"/>
    <line  stroke="white" stroke-linecap="round" y1="111.174" x1="99.2412" y2="111.174" stroke-width="0.576" x2="99.0994"/>
    <path  fill="none" stroke="white" stroke-width="0.576" d="M99.0994,111.174A1.08397,1.08397,0,0,0,100.374,110.324"/>
    <line  stroke="white" stroke-linecap="round" y1="110.324" x1="100.374" y2="109.899" stroke-width="0.576" x2="100.374"/>
    <path  fill="none" stroke="white" stroke-width="0.576" d="M96.1229,112.308A0.722837,0.722837,0,0,0,96.6895,111.458"/>
    <line  stroke="white" stroke-linecap="round" y1="112.308" x1="95.6974" y2="112.308" stroke-width="0.576" x2="96.1229"/>
    <path  fill="none" stroke="white" stroke-width="0.576" d="M95.2726,111.6A0.584504,0.584504,0,0,0,95.6974,112.308"/>
    <line  stroke="white" stroke-linecap="round" y1="110.466" x1="95.2726" y2="111.6" stroke-width="0.576" x2="95.2726"/>
    <path  fill="none" stroke="white" stroke-width="0.576" d="M95.2726,110.466A0.782647,0.782647,0,0,0,94.4222,109.758"/>
    <line  stroke="white" stroke-linecap="round" y1="109.758" x1="93.9967" y2="109.758" stroke-width="0.576" x2="94.4222"/>
    <path  fill="none" stroke="white" stroke-width="0.576" d="M93.9967,109.758A0.850392,0.850392,0,0,0,93.1464,110.608"/>
    <line  stroke="white" stroke-linecap="round" y1="111.458" x1="93.1464" y2="109.474" stroke-width="0.576" x2="93.1464"/>
    <line  stroke="white" stroke-linecap="round" y1="111.458" x1="93.1464" y2="110.608" stroke-width="0.576" x2="93.1464"/>
    <path  fill="none" stroke="white" stroke-width="0.576" d="M92.2961,112.308A0.850392,0.850392,0,0,0,93.1464,111.458"/>
    <path  fill="none" stroke="white" stroke-width="0.576" d="M91.1621,111.174A1.13386,1.13386,0,0,0,92.2961,112.308"/>
    <line  stroke="white" stroke-linecap="round" y1="111.033" x1="91.1621" y2="109.758" stroke-width="0.576" x2="91.1621"/>
    <line  stroke="white" stroke-linecap="round" y1="111.033" x1="91.1621" y2="111.174" stroke-width="0.576" x2="91.1621"/>
    <line  stroke="white" stroke-linecap="round" y1="111.458" x1="91.1621" y2="111.033" stroke-width="0.576" x2="91.1621"/>
    <path  fill="none" stroke="white" stroke-width="0.576" d="M90.3118,112.308A0.850392,0.850392,0,0,0,91.1621,111.458"/>
    <line  stroke="white" stroke-linecap="round" y1="111.174" x1="89.4614" y2="109.758" stroke-width="0.576" x2="89.4614"/>
    <path  fill="none" stroke="white" stroke-width="0.576" d="M89.4614,111.174A1.00233,1.00233,0,0,0,90.3118,112.308"/>
    <line  stroke="white" stroke-linecap="round" y1="111.458" x1="87.1934" y2="109.758" stroke-width="0.576" x2="87.1934"/>
    <path  fill="none" stroke="white" stroke-width="0.576" d="M87.1934,111.458A1.08397,1.08397,0,0,0,88.4693,112.308"/>
    <path  fill="none" stroke="white" stroke-width="0.576" d="M88.4693,112.308A1.06526,1.06526,0,0,0,89.4614,111.174"/>
    <line  stroke="white" stroke-linecap="round" y1="110.041" x1="81.0994" y2="110.041" stroke-width="0.576" x2="81.666"/>
    <path  fill="none" stroke="white" stroke-width="0.576" d="M79.3987,108.624A1.56586,1.56586,0,0,0,81.0994,110.041"/>
    <line  stroke="white" stroke-linecap="round" y1="111.458" x1="79.3987" y2="108.624" stroke-width="0.576" x2="79.3987"/>
    <path  fill="none" stroke="white" stroke-width="0.576" d="M78.2647,112.308A1.00233,1.00233,0,0,0,79.3987,111.458"/>
    <path  fill="none" stroke="white" stroke-width="0.576" d="M77.1307,111.174A1.13386,1.13386,0,0,0,78.2647,112.308"/>
    <line  stroke="white" stroke-linecap="round" y1="106.639" x1="76.847" y2="111.174" stroke-width="0.576" x2="77.1307"/>
    <path  fill="none" stroke="white" stroke-width="0.576" d="M76.847,106.639A1.70078,1.70078,0,0,0,75.1464,104.939"/>
    <line  stroke="white" stroke-linecap="round" y1="104.939" x1="74.8627" y2="104.939" stroke-width="0.576" x2="75.1464"/>
    <line  stroke="white" stroke-linecap="round" y1="108.624" x1="74.8627" y2="104.939" stroke-width="0.576" x2="74.8627"/>
    <path  fill="none" stroke="white" stroke-width="0.576" d="M69.1937,114.718A5.88586,5.88586,0,0,0,74.8627,108.624"/>
    <line  stroke="white" stroke-linecap="round" y1="110.041" x1="81.666" y2="111.6" stroke-width="0.576" x2="81.666"/>
    <path  fill="none" stroke="white" stroke-width="0.576" d="M81.666,111.6A0.708661,0.708661,0,0,0,82.3745,112.308"/>
    <line  stroke="white" stroke-linecap="round" y1="108.907" x1="50.0599" y2="108.765" stroke-width="0.576" x2="50.0599"/>
    <line  stroke="white" stroke-linecap="round" y1="108.765" x1="91.1621" y2="108.907" stroke-width="0.576" x2="91.1621"/>
    <path  fill="none" stroke="white" stroke-width="0.576" d="M44.1071,103.946A3.68504,3.68504,0,0,0,47.7922,107.631"/>
    <line  stroke="white" stroke-linecap="round" y1="107.631" x1="47.7922" y2="107.631" stroke-width="0.576" x2="48.2173"/>
    <path  fill="none" stroke="white" stroke-width="0.576" d="M48.2173,107.631A1.9148,1.9148,0,0,0,50.2016,105.789"/>
    <path  fill="none" stroke="white" stroke-width="0.576" d="M50.2016,105.789A0.850392,0.850392,0,0,0,49.3512,104.939"/>
    <path  fill="none" stroke="white" stroke-width="0.576" d="M46.3748,111.174A2.25212,2.25212,0,0,0,43.6819,109.474"/>
    <line  stroke="white" stroke-linecap="round" y1="104.939" x1="49.0677" y2="104.939" stroke-width="0.576" x2="49.3512"/>
    <path  fill="none" stroke="white" stroke-width="0.576" d="M49.0677,104.939A1.98426,1.98426,0,0,0,47.0835,106.923"/>
    <path  fill="none" stroke="white" stroke-width="0.576" d="M43.6819,109.474A1.50322,1.50322,0,0,0,42.4063,111.174"/>
    <line  stroke="white" stroke-linecap="round" y1="108.907" x1="47.0835" y2="106.923" stroke-width="0.576" x2="47.0835"/>
    <path  fill="none" stroke="white" stroke-width="0.576" d="M43.6819,112.308A3.40158,3.40158,0,0,0,47.0835,108.907"/>
    <path  fill="none" stroke="white" stroke-width="0.576" d="M42.4063,111.174A1.20671,1.20671,0,0,0,43.6819,112.308"/>
    <path  fill="none" stroke="white" stroke-width="0.576" d="M47.0835,112.167A2.25212,2.25212,0,0,0,50.0599,111.033"/>
    <line  stroke="white" stroke-linecap="round" y1="110.608" x1="50.0599" y2="109.758" stroke-width="0.576" x2="50.0599"/>
    <line  stroke="white" stroke-linecap="round" y1="110.608" x1="50.0599" y2="111.033" stroke-width="0.576" x2="50.0599"/>
    <line  stroke="white" stroke-linecap="round" y1="110.324" x1="52.7527" y2="105.647" stroke-width="0.576" x2="52.7527"/>
    <path  fill="none" stroke="white" stroke-width="0.576" d="M50.0599,110.608A1.50322,1.50322,0,0,0,51.3354,112.308"/>
    <path  fill="none" stroke="white" stroke-width="0.576" d="M51.3354,112.308A1.6183,1.6183,0,0,0,52.7527,110.75"/>
    <path  fill="none" stroke="white" stroke-width="0.576" d="M52.7527,110.75A2.77172,2.77172,0,0,0,52.7527,110.324"/>
    <line  stroke="white" stroke-linecap="round" y1="110.892" x1="52.7527" y2="110.75" stroke-width="0.576" x2="52.7527"/>
    <path  fill="none" stroke="white" stroke-width="0.576" d="M52.7527,110.892A1.41732,1.41732,0,0,0,54.1701,112.308"/>
    <path  fill="none" stroke="white" stroke-width="0.576" d="M54.1701,112.308A1.41732,1.41732,0,0,0,55.5874,110.892"/>
    <line  stroke="white" stroke-linecap="round" y1="110.892" x1="55.5874" y2="109.191" stroke-width="0.576" x2="55.5874"/>
    <path  fill="none" stroke="white" stroke-width="0.576" d="M55.5874,110.892A1.41732,1.41732,0,0,0,57.0047,112.308"/>
    <path  fill="none" stroke="white" stroke-width="0.576" d="M59.2724,117.127A3.69581,3.69581,0,0,0,55.3039,113.726"/>
    <path  fill="none" stroke="white" stroke-width="0.576" d="M57.0047,112.308A1.41732,1.41732,0,0,0,58.422,110.892"/>
    <line  stroke="white" stroke-linecap="round" y1="110.892" x1="58.422" y2="109.191" stroke-width="0.576" x2="58.422"/>
    <line  stroke="white" stroke-linecap="round" y1="113.159" x1="58.422" y2="110.892" stroke-width="0.576" x2="58.422"/>
    <line  stroke="white" stroke-linecap="round" y1="113.726" x1="54.737" y2="113.726" stroke-width="0.576" x2="55.3039"/>
    <path  fill="none" stroke="white" stroke-width="0.576" d="M54.737,113.726A1.70078,1.70078,0,0,0,53.0362,115.427"/>
    <path  fill="none" stroke="white" stroke-width="0.576" d="M54.737,116.844A3.68504,3.68504,0,0,0,58.422,113.159"/>
    <line  stroke="white" stroke-linecap="round" y1="116.844" x1="54.4535" y2="116.844" stroke-width="0.576" x2="54.737"/>
    <path  fill="none" stroke="white" stroke-width="0.576" d="M53.0362,115.427A1.41732,1.41732,0,0,0,54.4535,116.844"/>
    <path  fill="none" stroke="white" stroke-width="0.576" d="M46.3748,111.174A1.44539,1.44539,0,0,0,48.0756,112.308"/>
   </g>
  </g>
  <g  stroke-width="0">
   <title >element:U$4</title>
   <g  stroke-width="0">
    <title >package:PETAL-LONG-1</title>
   </g>
  </g>
  <g  stroke-width="0">
   <title >element:U$31</title>
   <g  stroke-width="0">
    <title >package:PETAL-LONG-1</title>
   </g>
  </g>
  <g  stroke-width="0">
   <title >element:U$33</title>
   <g  stroke-width="0">
    <title >package:PETAL-LONG-1</title>
   </g>
  </g>
  <g  stroke-width="0">
   <title >element:U$35</title>
   <g  stroke-width="0">
    <title >package:PETAL-LONG-1</title>
   </g>
  </g>
  <g  stroke-width="0">
   <title >element:U$37</title>
   <g  stroke-width="0">
    <title >package:PETAL-LONG-1</title>
   </g>
  </g>
  <g  stroke-width="0">
   <title >element:U$39</title>
   <g  stroke-width="0">
    <title >package:PETAL-LONG-1</title>
   </g>
  </g>
  <g  stroke-width="0">
   <title >element:U$41</title>
   <g  stroke-width="0">
    <title >package:PETAL-LONG-1</title>
   </g>
  </g>
  <g  stroke-width="0">
   <title >element:U$43</title>
   <g  stroke-width="0">
    <title >package:PETAL-LONG-1</title>
   </g>
  </g>
  <g  stroke-width="0">
   <title >element:U$45</title>
   <g  stroke-width="0">
    <title >package:PETAL-LONG-1</title>
   </g>
  </g>
  <g  stroke-width="0">
   <title >element:U$47</title>
   <g  stroke-width="0">
    <title >package:PETAL-LONG-1</title>
   </g>
  </g>
  <g  stroke-width="0">
   <title >element:U$51</title>
   <g  stroke-width="0">
    <title >package:PETAL-LONG-1</title>
   </g>
  </g>
  <g  stroke-width="0">
   <title >element:U1</title>
   <g  stroke-width="0">
    <title >package:TQFP32-08</title>
    <line  stroke="white" stroke-linecap="round" y1="60.9307" x1="80.8013" y2="80.8013" stroke-width="0.432" x2="80.8013"/>
    <line  stroke="white" stroke-linecap="round" y1="80.8013" x1="80.8013" y2="80.8013" stroke-width="0.432" x2="60.9307"/>
    <line  stroke="white" stroke-linecap="round" y1="80.8013" x1="60.9307" y2="61.937" stroke-width="0.432" x2="60.9307"/>
    <line  stroke="white" stroke-linecap="round" y1="60.9307" x1="61.937" y2="60.9307" stroke-width="0.432" x2="80.8013"/>
    <line  stroke="white" stroke-linecap="round" y1="60.9307" x1="61.937" y2="61.937" stroke-width="0.432" x2="60.9307"/>
    <circle  fill="none" cx="63.0901" cy="63.0901" stroke="white" r="1.0182" stroke-width="0.432"/>
   </g>
  </g>
 </g>
 <g  id="copper1" stroke-width="0">
  <g  id="copper0" stroke-width="0">
   <circle  fill="none" cx="117.29" cy="111.091" connectorname="D10" stroke="#F7BD13" r="4.86" id="connector49pad" stroke-width="1.8"/>
   <circle  fill="none" cx="70.8661" cy="9.43934" connectorname="A2/16" stroke="#F7BD13" r="4.86" id="connector53pad" stroke-width="1.8"/>
   <circle  fill="none" cx="53.5702" cy="129.83" connectorname="D6" stroke="#F7BD13" r="4.86" id="connector47pad" stroke-width="1.8"/>
   <circle  fill="none" cx="14.9023" cy="45.3047" connectorname="VCC" stroke="#F7BD13" r="4.86" id="connector51pad" stroke-width="1.8"/>
   <circle  fill="none" cx="114.066" cy="74.466" connectorname="MISO" stroke="#F7BD13" r="2.052" id="connector20pad" stroke-width="1.224"/>
   <rect  width="4.104" x="112.014" y="72.414" fill="none" height="4.104" stroke="#F7BD13" stroke-width="1.224"/>
   <circle  fill="none" cx="106.866" cy="74.466" connectorname="VCC" stroke="#F7BD13" r="2.052" id="connector21pad" stroke-width="1.224"/>
   <circle  fill="none" cx="114.066" cy="67.2661" connectorname="SCK" stroke="#F7BD13" r="2.052" id="connector22pad" stroke-width="1.224"/>
   <circle  fill="none" cx="104.098" cy="19.1772" connectorname="A1/15" stroke="#F7BD13" r="4.86" id="connector46pad" stroke-width="1.8"/>
   <circle  fill="none" cx="106.866" cy="67.2661" connectorname="MOSI" stroke="#F7BD13" r="2.052" id="connector23pad" stroke-width="1.224"/>
   <circle  fill="none" cx="88.1618" cy="129.83" connectorname="D9" stroke="#F7BD13" r="4.86" id="connector48pad" stroke-width="1.8"/>
   <circle  fill="none" cx="114.066" cy="60.0661" connectorname="RST" stroke="#F7BD13" r="2.052" id="connector24pad" stroke-width="1.224"/>
   <circle  fill="none" cx="24.442" cy="111.091" connectorname="D5" stroke="#F7BD13" r="4.86" id="connector50pad" stroke-width="1.8"/>
   <circle  fill="none" cx="106.866" cy="60.0661" connectorname="GND" stroke="#F7BD13" r="2.052" id="connector25pad" stroke-width="1.224"/>
   <circle  fill="none" cx="37.6617" cy="19.1772" connectorname="GND" stroke="#F7BD13" r="4.86" id="connector52pad" stroke-width="1.8"/>
   <circle  fill="none" cx="9.94846" cy="79.6414" connectorname="D3" stroke="#F7BD13" r="4.86" id="connector54pad" stroke-width="1.8"/>
   <circle  fill="none" cx="131.67" cy="79.6133" connectorname="MOSI" stroke="#F7BD13" r="4.86" id="connector44pad" stroke-width="1.8"/>
   <circle  fill="none" cx="126.829" cy="45.2764" connectorname="A0/14" stroke="#F7BD13" r="4.86" id="connector45pad" stroke-width="1.8"/>
  </g>
 </g>
</svg>
