<?xml version="1.0" encoding="UTF-8" standalone="no"?>
<svg xmlns:svg="http://www.w3.org/2000/svg" xmlns="http://www.w3.org/2000/svg" version="1.2" baseProfile="tiny" x="0in" y="0in" width="0.4881in" height="0.4014in" viewBox="0 0 4881 4014" >
<title>SparkFun.mod</title>
<desc>Kicad module 'SparkFun-PANASONIC_G' from file 'SparkFun.mod' converted by Fritzing</desc>
<metadata xmlns:fz='http://fritzing.org/kicadmetadata/1.0/' xmlns:rdf='http://www.w3.org/1999/02/22-rdf-syntax-ns#'>
<rdf:RDF><rdf:Description rdf:about=''>
<fz:attr name='kicad filename'>SparkFun.mod</fz:attr>
<fz:attr name='kicad module'>SparkFun-PANASONIC_G</fz:attr>
<fz:attr name='fritzing version'>0.4.1b.07.04.4318</fz:attr>
<fz:attr name='conversion date'>17/07/2010 17:16:48</fz:attr>
<fz:attr name='dist-license'>GPL</fz:attr>
<fz:attr name='use-license'>unlimited</fz:attr>
<fz:attr name='author'>KICAD project</fz:attr>
<fz:attr name='license-url'>http://www.gnu.org/licenses/gpl.html</fz:attr>
<fz:comment>PANASONIC ALUMINIUM ELECTROLYTIC CAPACITOR VS-SERIE PACKAGE G</fz:comment>
<fz:attr name='keyword'>PANASONIC</fz:attr>
<fz:attr name='keyword'>ALUMINIUM</fz:attr>
<fz:attr name='keyword'>ELECTROLYTIC</fz:attr>
<fz:attr name='keyword'>CAPACITOR</fz:attr>
<fz:attr name='keyword'>VS-SERIE</fz:attr>
<fz:attr name='keyword'>PACKAGE</fz:attr>
<fz:attr name='keyword'>G</fz:attr>
</rdf:Description></rdf:RDF></metadata><g id="copper1">
 <rect width="1535" x="3346" y="1692.5" fill="#ffbf00" connectorname="+" height="629" id="connector0pad" stroke-width="0"/>
 <rect width="1535" x="0" y="1692.5" fill="#ffbf00" connectorname="-" height="629" id="connector1pad" stroke-width="0"/>
</g>
<g id="silkscreen">
 <line fill="none" stroke="white" y1="2184" x1="137.5" y2="2184" stroke-width="26" x2="511.5"/>
 <line fill="none" stroke="white" y1="2184" x1="511.5" y2="1830" stroke-width="26" x2="511.5"/>
 <line fill="none" stroke="white" y1="1830" x1="137.5" y2="1830" stroke-width="26" x2="511.5"/>
 <line fill="none" stroke="white" y1="2184" x1="137.5" y2="1830" stroke-width="26" x2="137.5"/>
 <line fill="none" stroke="white" y1="2184" x1="4369.5" y2="2184" stroke-width="26" x2="4743.5"/>
 <line fill="none" stroke="white" y1="2184" x1="4743.5" y2="1830" stroke-width="26" x2="4743.5"/>
 <line fill="none" stroke="white" y1="1830" x1="4369.5" y2="1830" stroke-width="26" x2="4743.5"/>
 <line fill="none" stroke="white" y1="2184" x1="4369.5" y2="1830" stroke-width="26" x2="4369.5"/>
 <line fill="none" stroke="white" y1="0" x1="433.5" y2="0" stroke-width="40" x2="3542.5"/>
 <line fill="none" stroke="white" y1="0" x1="3542.5" y2="905" stroke-width="40" x2="4447.5"/>
 <line fill="none" stroke="white" y1="905" x1="4447.5" y2="3109" stroke-width="40" x2="4447.5"/>
 <line fill="none" stroke="white" y1="3109" x1="4447.5" y2="4014" stroke-width="40" x2="3542.5"/>
 <line fill="none" stroke="white" y1="4014" x1="3542.5" y2="4014" stroke-width="40" x2="433.5"/>
 <line fill="none" stroke="white" y1="4014" x1="433.5" y2="0" stroke-width="40" x2="433.5"/>
 <line fill="none" stroke="white" y1="1614" x1="433.5" y2="0" stroke-width="80" x2="433.5"/>
 <line fill="none" stroke="white" y1="0" x1="433.5" y2="0" stroke-width="80" x2="3542.5"/>
 <line fill="none" stroke="white" y1="0" x1="3542.5" y2="905" stroke-width="80" x2="4447.5"/>
 <line fill="none" stroke="white" y1="905" x1="4447.5" y2="1614" stroke-width="80" x2="4447.5"/>
 <line fill="none" stroke="white" y1="2400" x1="4447.5" y2="3109" stroke-width="80" x2="4447.5"/>
 <line fill="none" stroke="white" y1="3109" x1="4447.5" y2="4014" stroke-width="80" x2="3542.5"/>
 <line fill="none" stroke="white" y1="4014" x1="3542.5" y2="4014" stroke-width="80" x2="433.5"/>
 <line fill="none" stroke="white" y1="4014" x1="433.5" y2="2400" stroke-width="80" x2="433.5"/>
 <line fill="none" stroke="white" y1="551" x1="1161.5" y2="3444" stroke-width="40" x2="1161.5"/>
 <line fill="none" stroke="white" y1="590" x1="1141.5" y2="925" stroke-width="40" x2="846.5"/>
 <line fill="none" stroke="white" y1="925" x1="846.5" y2="1397" stroke-width="40" x2="610.5"/>
 <line fill="none" stroke="white" y1="1397" x1="610.5" y2="1830" stroke-width="40" x2="531.5"/>
 <line fill="none" stroke="white" y1="1830" x1="531.5" y2="2184" stroke-width="40" x2="531.5"/>
 <line fill="none" stroke="white" y1="2184" x1="531.5" y2="2617" stroke-width="40" x2="610.5"/>
 <line fill="none" stroke="white" y1="2617" x1="610.5" y2="3089" stroke-width="40" x2="846.5"/>
 <line fill="none" stroke="white" y1="3089" x1="846.5" y2="3424" stroke-width="40" x2="1141.5"/>
 <line fill="none" stroke="white" y1="3424" x1="1141.5" y2="610" stroke-width="40" x2="1141.5"/>
 <line fill="none" stroke="white" y1="610" x1="1141.5" y2="590" stroke-width="40" x2="1141.5"/>
 <circle fill="none" cx="2440.5" cy="2007" stroke="white" r="1377.44" stroke-width="20"/>
 <path fill="none" stroke="white" stroke-width="40" d="M532.43,2404.48a1949.03,1949.03,0,0,0,3817.07,-4.47776"/>
 <path fill="none" stroke="white" stroke-width="40" d="M4036.41,888.17a1949.03,1949.03,0,0,0,-3504.91,725.833"/>
</g>
</svg>