<?xml version="1.0" encoding="UTF-8" standalone="no"?>
<svg xmlns:svg="http://www.w3.org/2000/svg" xmlns="http://www.w3.org/2000/svg" version="1.2" baseProfile="tiny" x="0in" y="0in" width="0.3152in" height="0.3542in" viewBox="0 0 3152 3542" >
<title>SparkFun.mod</title>
<desc>Kicad module 'SparkFun-BGB203' from file 'SparkFun.mod' converted by Fritzing</desc>
<metadata xmlns:fz='http://fritzing.org/kicadmetadata/1.0/' xmlns:rdf='http://www.w3.org/1999/02/22-rdf-syntax-ns#'>
<rdf:RDF><rdf:Description rdf:about=''>
<fz:attr name='kicad filename'>SparkFun.mod</fz:attr>
<fz:attr name='kicad module'>SparkFun-BGB203</fz:attr>
<fz:attr name='fritzing version'>0.4.1b.07.04.4318</fz:attr>
<fz:attr name='conversion date'>17/07/2010 17:15:08</fz:attr>
<fz:attr name='dist-license'>GPL</fz:attr>
<fz:attr name='use-license'>unlimited</fz:attr>
<fz:attr name='author'>KICAD project</fz:attr>
<fz:attr name='license-url'>http://www.gnu.org/licenses/gpl.html</fz:attr>
<fz:comment></fz:comment>
<fz:attr name='keyword'></fz:attr>
</rdf:Description></rdf:RDF></metadata><g id="copper1">
 <rect width="98" x="0" y="345" fill="#ffbf00" connectorname="1" height="688" id="connector0pad" stroke-width="0"/>
 <rect width="98" x="0" y="542" fill="#ffbf00" connectorname="2" height="688" id="connector1pad" stroke-width="0"/>
 <rect width="98" x="0" y="739" fill="#ffbf00" connectorname="3" height="688" id="connector2pad" stroke-width="0"/>
 <rect width="98" x="0" y="935" fill="#ffbf00" connectorname="4" height="688" id="connector3pad" stroke-width="0"/>
 <rect width="98" x="0" y="1132" fill="#ffbf00" connectorname="5" height="688" id="connector4pad" stroke-width="0"/>
 <rect width="98" x="0" y="1329" fill="#ffbf00" connectorname="6" height="688" id="connector5pad" stroke-width="0"/>
 <rect width="98" x="0" y="1525" fill="#ffbf00" connectorname="7" height="688" id="connector6pad" stroke-width="0"/>
 <rect width="98" x="0" y="1722" fill="#ffbf00" connectorname="8" height="688" id="connector7pad" stroke-width="0"/>
 <rect width="98" x="0" y="1919" fill="#ffbf00" connectorname="9" height="688" id="connector8pad" stroke-width="0"/>
 <rect width="98" x="0" y="2115" fill="#ffbf00" connectorname="10" height="688" id="connector9pad" stroke-width="0"/>
 <rect width="98" x="0" y="2312" fill="#ffbf00" connectorname="11" height="688" id="connector10pad" stroke-width="0"/>
 <rect width="98" x="4" y="2493" fill="#ffbf00" connectorname="12" height="688" id="connector11pad" stroke-width="0"/>
 <rect width="98" x="445" y="2952" fill="#ffbf00" connectorname="13" height="590" id="connector12pad" stroke-width="0"/>
 <rect width="98" x="642" y="2952" fill="#ffbf00" connectorname="14" height="590" id="connector13pad" stroke-width="0"/>
 <rect width="98" x="839" y="2952" fill="#ffbf00" connectorname="15" height="590" id="connector14pad" stroke-width="0"/>
 <rect width="98" x="1035" y="2952" fill="#ffbf00" connectorname="16" height="590" id="connector15pad" stroke-width="0"/>
 <rect width="98" x="1232" y="2952" fill="#ffbf00" connectorname="17" height="590" id="connector16pad" stroke-width="0"/>
 <rect width="98" x="1429" y="2952" fill="#ffbf00" connectorname="18" height="590" id="connector17pad" stroke-width="0"/>
 <rect width="98" x="1625" y="2952" fill="#ffbf00" connectorname="19" height="590" id="connector18pad" stroke-width="0"/>
 <rect width="98" x="1822" y="2952" fill="#ffbf00" connectorname="20" height="590" id="connector19pad" stroke-width="0"/>
 <rect width="98" x="2019" y="2952" fill="#ffbf00" connectorname="21" height="590" id="connector20pad" stroke-width="0"/>
 <rect width="98" x="2215" y="2952" fill="#ffbf00" connectorname="22" height="590" id="connector21pad" stroke-width="0"/>
 <rect width="98" x="2412" y="2952" fill="#ffbf00" connectorname="23" height="590" id="connector22pad" stroke-width="0"/>
 <rect width="98" x="2609" y="2952" fill="#ffbf00" connectorname="24" height="590" id="connector23pad" stroke-width="0"/>
 <rect width="98" x="3054" y="2509" fill="#ffbf00" connectorname="25" height="688" id="connector24pad" stroke-width="0"/>
 <rect width="98" x="3054" y="2312" fill="#ffbf00" connectorname="26" height="688" id="connector25pad" stroke-width="0"/>
 <rect width="98" x="3054" y="2115" fill="#ffbf00" connectorname="27" height="688" id="connector26pad" stroke-width="0"/>
 <rect width="98" x="3054" y="1919" fill="#ffbf00" connectorname="28" height="688" id="connector27pad" stroke-width="0"/>
 <rect width="98" x="3054" y="1722" fill="#ffbf00" connectorname="29" height="688" id="connector28pad" stroke-width="0"/>
 <rect width="98" x="3054" y="1525" fill="#ffbf00" connectorname="30" height="688" id="connector29pad" stroke-width="0"/>
 <rect width="98" x="3054" y="1329" fill="#ffbf00" connectorname="31" height="688" id="connector30pad" stroke-width="0"/>
 <rect width="98" x="3054" y="1132" fill="#ffbf00" connectorname="32" height="688" id="connector31pad" stroke-width="0"/>
 <rect width="98" x="3054" y="935" fill="#ffbf00" connectorname="33" height="688" id="connector32pad" stroke-width="0"/>
 <rect width="98" x="3054" y="739" fill="#ffbf00" connectorname="34" height="688" id="connector33pad" stroke-width="0"/>
 <rect width="98" x="3054" y="542" fill="#ffbf00" connectorname="35" height="688" id="connector34pad" stroke-width="0"/>
 <rect width="98" x="3054" y="345" fill="#ffbf00" connectorname="36" height="688" id="connector35pad" stroke-width="0"/>
 <rect width="98" x="2609" y="0" fill="#ffbf00" connectorname="37" height="590" id="connector36pad" stroke-width="0"/>
 <rect width="98" x="2412" y="0" fill="#ffbf00" connectorname="38" height="590" id="connector37pad" stroke-width="0"/>
 <rect width="98" x="2215" y="0" fill="#ffbf00" connectorname="39" height="590" id="connector38pad" stroke-width="0"/>
 <rect width="98" x="2019" y="0" fill="#ffbf00" connectorname="40" height="590" id="connector39pad" stroke-width="0"/>
 <rect width="98" x="1822" y="0" fill="#ffbf00" connectorname="41" height="590" id="connector40pad" stroke-width="0"/>
 <rect width="98" x="1625" y="0" fill="#ffbf00" connectorname="42" height="590" id="connector41pad" stroke-width="0"/>
 <rect width="98" x="1429" y="0" fill="#ffbf00" connectorname="43" height="590" id="connector42pad" stroke-width="0"/>
 <rect width="98" x="1232" y="0" fill="#ffbf00" connectorname="44" height="590" id="connector43pad" stroke-width="0"/>
 <rect width="98" x="1035" y="0" fill="#ffbf00" connectorname="45" height="590" id="connector44pad" stroke-width="0"/>
 <rect width="98" x="839" y="0" fill="#ffbf00" connectorname="46" height="590" id="connector45pad" stroke-width="0"/>
 <rect width="98" x="642" y="0" fill="#ffbf00" connectorname="47" height="590" id="connector46pad" stroke-width="0"/>
 <rect width="98" x="445" y="0" fill="#ffbf00" connectorname="48" height="590" id="connector47pad" stroke-width="0"/>
 <rect width="393" x="1379.5" y="1574.5" fill="#ffbf00" connectorname="49" height="393" id="connector48pad" stroke-width="0"/>
</g>
<g id="silkscreen">
 <line fill="none" stroke="white" y1="1967" x1="1380" y2="1967" stroke-width="26" x2="1772"/>
 <line fill="none" stroke="white" y1="1967" x1="1772" y2="1575" stroke-width="26" x2="1772"/>
 <line fill="none" stroke="white" y1="1575" x1="1380" y2="1575" stroke-width="26" x2="1772"/>
 <line fill="none" stroke="white" y1="1967" x1="1380" y2="1575" stroke-width="26" x2="1380"/>
 <line fill="none" stroke="white" y1="394" x1="2" y2="551" stroke-width="50" x2="2"/>
 <line fill="none" stroke="white" y1="394" x1="2" y2="394" stroke-width="50" x2="356"/>
 <line fill="none" stroke="white" y1="394" x1="3150" y2="394" stroke-width="50" x2="2796"/>
 <line fill="none" stroke="white" y1="394" x1="3150" y2="551" stroke-width="50" x2="3150"/>
 <line fill="none" stroke="white" y1="3148" x1="3150" y2="2991" stroke-width="50" x2="3150"/>
 <line fill="none" stroke="white" y1="3148" x1="3150" y2="3148" stroke-width="50" x2="2796"/>
 <line fill="none" stroke="white" y1="3148" x1="2" y2="3148" stroke-width="50" x2="356"/>
 <line fill="none" stroke="white" y1="3148" x1="2" y2="2991" stroke-width="50" x2="2"/>
 <circle fill="none" cx="629" cy="813" stroke="white" r="43.8406" stroke-width="25"/>
</g>
</svg>