<?xml version="1.0" encoding="utf-8"?>
<!-- Generator: Adobe Illustrator 16.0.0, SVG Export Plug-In . SVG Version: 6.00 Build 0)  -->
<!DOCTYPE svg PUBLIC "-//W3C//DTD SVG 1.1//EN" "http://www.w3.org/Graphics/SVG/1.1/DTD/svg11.dtd">
<svg version="1.1" id="svg2" xmlns="http://www.w3.org/2000/svg" xmlns:xlink="http://www.w3.org/1999/xlink" x="0px" y="0px"
	 width="122.6px" height="87.982px" viewBox="0 0 122.6 87.982" enable-background="new 0 0 122.6 87.982" xml:space="preserve">
<g id="schematic">
	<rect id="connector0pin" x="0.75" y="72.251" fill="none" width="12" height="2"/>
	<rect id="connector1pin" x="0.75" y="14.251" fill="none" width="12" height="2"/>
	<rect id="connector2pin" x="0.75" y="43.251" fill="none" width="12" height="2"/>
	<rect id="connector0terminal" x="0.75" y="72.251" fill="none" width="1" height="2"/>
	<rect id="connector1terminal" x="0.75" y="14.251" fill="none" width="1" height="2"/>
	<rect id="connector2terminal" x="0.75" y="43.251" fill="none" width="1" height="2"/>
	<g id="Diagram">
		
			<rect x="24" y="2.251" fill="none" stroke="#000000" stroke-width="2" stroke-linecap="round" stroke-linejoin="round" width="75" height="84"/>
		
			<line fill="none" stroke="#000000" stroke-width="2" stroke-linecap="round" stroke-linejoin="round" x1="24" y1="73.251" x2="1" y2="73.251"/>
		
			<line fill="none" stroke="#000000" stroke-width="2" stroke-linecap="round" stroke-linejoin="round" x1="1" y1="15.251" x2="24" y2="15.251"/>
		
			<line fill="none" stroke="#000000" stroke-width="2" stroke-linecap="round" stroke-linejoin="round" x1="1" y1="44.251" x2="24" y2="44.251"/>
		<g>
			<path fill="#FFFFFF" stroke="#000000" stroke-width="2" stroke-linecap="round" stroke-linejoin="round" d="M119.868,25.754
				c-1.384-3.148-4.734-4.815-7.976-4.205v-0.001l-36.491,5.868l0.005,0.01c-1.513,0.212-3.022,0.617-4.491,1.262
				c-8.597,3.775-12.504,13.805-8.729,22.4c3.774,8.597,13.806,12.504,22.399,8.729c1.47-0.646,2.789-1.483,3.969-2.455l0.005,0.011
				l29.011-22.898l-0.001-0.002C120.209,32.498,121.25,28.903,119.868,25.754z"/>
			
				<circle fill="none" stroke="#000000" stroke-width="2" stroke-linecap="round" stroke-linejoin="round" cx="77.75" cy="44.251" r="9.75"/>
			
				<circle fill="#FFFFFF" stroke="#000000" stroke-width="2" stroke-linecap="round" stroke-linejoin="round" cx="113.229" cy="28.669" r="3.105"/>
		</g>
	</g>
</g>
<text transform="matrix(1 0 0 1 66.0767 14.251)" font-family="'Droid Sans'" font-size="9">Servo</text>
<text transform="matrix(1 0 0 1 29.0771 17.751)" font-family="'Droid Sans'" font-size="9">+</text>
<text transform="matrix(1 0 0 1 29.0771 49.0015)" font-family="'Droid Sans'" font-size="9">pulse</text>
<text transform="matrix(1 0 0 1 29.0771 76.5015)" font-family="'Droid Sans'" font-size="9">-</text>
<text transform="matrix(1 0 0 1 15.5771 11.9648)" font-family="'Droid Sans'" font-size="9">1</text>
<text transform="matrix(1 0 0 1 15.5771 41.3408)" font-family="'Droid Sans'" font-size="9">2</text>
<text transform="matrix(1 0 0 1 15.5771 70.7144)" font-family="'Droid Sans'" font-size="9">3</text>
</svg>
