<?xml version='1.0' encoding='utf-8'?>
<!DOCTYPE svg>
<!-- Generator: Adobe Illustrator 15.0.0, SVG Export Plug-In . SVG Version: 6.00 Build 0)  -->
<svg xmlns="http://www.w3.org/2000/svg" width="0.581in" x="0px" version="1.1" y="0px"  height="1.01562in" viewBox="0 0 41.832 73.125" xmlns:xml="http://www.w3.org/XML/1998/namespace" enable-background="new 0 0 41.832 73.125" xml:space="preserve">
    <desc >
        <referenceFile >do schematic.svg</referenceFile>
    </desc>
    <g gorn="0.1"  id="pins">
        <g gorn="0.1.0"  id="GND">
            <path  d="M13.565,8.304c-0.276,0-0.5-0.224-0.5-0.5v-7.12c0-0.276,0.224-0.5,0.5-0.5s0.5,0.224,0.5,0.5v7.12C14.065,8.08,13.842,8.304,13.565,8.304z"/>
        </g>
        <g gorn="0.1.1"  id="TX">
            <path  d="M21.083,8.304c-0.276,0-0.5-0.224-0.5-0.5v-7.12c0-0.276,0.224-0.5,0.5-0.5s0.5,0.224,0.5,0.5v7.12C21.583,8.08,21.359,8.304,21.083,8.304z"/>
        </g>
        <g gorn="0.1.2"  id="RX">
            <path  d="M28.532,8.304c-0.276,0-0.5-0.224-0.5-0.5v-7.12c0-0.276,0.224-0.5,0.5-0.5s0.5,0.224,0.5,0.5v7.12C29.032,8.08,28.809,8.304,28.532,8.304z"/>
        </g>
        <rect width="0.977" x="28.032" y="0.184" fill="none" gorn="0.1.3"  height="0.977" id="connector2pin"/>
        <rect width="0.977" x="20.606" y="0.184" fill="none" gorn="0.1.4"  height="0.977" id="connector1pin"/>
        <rect width="0.977" x="13.077" y="0.184" fill="none" gorn="0.1.5"  height="0.977" id="connector0pin"/>
        <g gorn="0.1.6"  id="GND_1_">
            <path  d="M28.532,64.819c0.276,0,0.5,0.225,0.5,0.5v7.121c0,0.275-0.224,0.5-0.5,0.5s-0.5-0.225-0.5-0.5v-7.121C28.032,65.044,28.256,64.819,28.532,64.819z"/>
        </g>
        <g gorn="0.1.7"  id="TX_1_">
            <path  d="M21.015,64.819c0.276,0,0.5,0.225,0.5,0.5v7.121c0,0.275-0.224,0.5-0.5,0.5s-0.5-0.225-0.5-0.5v-7.121C20.515,65.044,20.738,64.819,21.015,64.819z"/>
        </g>
        <g gorn="0.1.8"  id="RX_1_">
            <path  d="M13.565,64.819c0.276,0,0.5,0.225,0.5,0.5v7.121c0,0.275-0.224,0.5-0.5,0.5s-0.5-0.225-0.5-0.5v-7.121C13.065,65.044,13.289,64.819,13.565,64.819z"/>
        </g>
        <rect width="0.977" x="13.089" y="71.964" fill="none" gorn="0.1.9"  height="0.977" id="connector3pin"/>
        <rect width="0.977" x="20.515" y="71.964" fill="none" gorn="0.1.10"  height="0.977" id="connector4pin"/>
        <rect width="0.977" x="28.044" y="71.964" fill="none" gorn="0.1.11"  height="0.977" id="connector5pin"/>
    </g>
    <g gorn="0.2"  id="Layer_1">
        <rect width="39.465" x="1.169" y="8.063" fill="#FFFFFF"  height="57.271" stroke="#000000" stroke-width="1" stroke-miterlimit="10"/>
        <g >
            <path  d="M12.529,11.469c-0.246,0.129-0.516,0.182-0.793,0.182c-0.591,0-1.021-0.387-1.021-0.993c0-0.605,0.43-0.994,1.021-0.994c0.299,0,0.563,0.068,0.753,0.244l-0.294,0.321c-0.112-0.118-0.248-0.18-0.459-0.18c-0.354,0-0.588,0.256-0.588,0.608s0.233,0.609,0.588,0.609c0.182,0,0.315-0.05,0.392-0.095v-0.306H11.79v-0.384h0.739V11.469z"/>
            <path  d="M12.894,9.713h0.567l0.804,1.313h0.006V9.713h0.415v1.89h-0.544l-0.825-1.345h-0.005v1.345h-0.418V9.713z"/>
            <path  d="M15.069,9.713h0.625c0.609,0,1.119,0.259,1.119,0.95c0,0.611-0.499,0.939-1.063,0.939h-0.682V9.713z M15.486,11.219h0.217c0.388,0,0.678-0.146,0.678-0.577c0-0.371-0.296-0.545-0.648-0.545h-0.246V11.219z"/>
        </g>
        <g >
            <path  d="M27.098,62.946c-0.245,0.129-0.515,0.182-0.793,0.182c-0.591,0-1.021-0.387-1.021-0.992c0-0.607,0.43-0.994,1.021-0.994c0.299,0,0.563,0.068,0.753,0.244l-0.293,0.32c-0.113-0.119-0.249-0.18-0.46-0.18c-0.356,0-0.587,0.256-0.587,0.609c0,0.352,0.23,0.609,0.587,0.609c0.182,0,0.315-0.051,0.392-0.096v-0.305h-0.338V61.96h0.739V62.946z"/>
            <path  d="M27.463,61.19h0.565l0.805,1.313h0.004V61.19h0.418v1.891H28.71l-0.825-1.346H27.88v1.346h-0.417V61.19z"/>
            <path  d="M29.638,61.19h0.625c0.609,0,1.119,0.258,1.119,0.949c0,0.613-0.499,0.941-1.063,0.941h-0.682V61.19z M30.056,62.696h0.216c0.387,0,0.678-0.146,0.678-0.576c0-0.371-0.296-0.547-0.648-0.547h-0.245V62.696z"/>
        </g>
        <g >
            <path  d="M18.313,61.19h0.703c0.392,0,0.718,0.125,0.718,0.572c0,0.445-0.302,0.582-0.7,0.582h-0.305v0.736h-0.416V61.19z M18.729,61.991h0.278c0.147,0,0.294-0.051,0.294-0.229c0-0.193-0.198-0.221-0.357-0.221h-0.215V61.991z"/>
            <path  d="M19.995,61.19h0.732c0.387,0,0.713,0.133,0.713,0.572c0,0.266-0.142,0.473-0.409,0.52l0.48,0.799h-0.499l-0.395-0.756h-0.206v0.756h-0.417V61.19z M20.412,61.974h0.245c0.152,0,0.35-0.006,0.35-0.213c0-0.189-0.17-0.219-0.322-0.219h-0.272V61.974z"/>
            <path  d="M21.726,61.19h0.705c0.33,0,0.691,0.07,0.691,0.48c0,0.211-0.131,0.355-0.326,0.416v0.006c0.248,0.031,0.414,0.217,0.414,0.461c0,0.396-0.374,0.527-0.711,0.527h-0.773V61.19z M22.142,61.944h0.302c0.128,0,0.262-0.053,0.262-0.203c0-0.158-0.149-0.199-0.28-0.199h-0.283V61.944z M22.142,62.728h0.375c0.13,0,0.277-0.057,0.277-0.221c0-0.178-0.201-0.209-0.337-0.209h-0.315V62.728z"/>
        </g>
        <g >
            <path  d="M10.631,61.19h0.476l0.467,1.238h0.006l0.475-1.238H12.5l-0.78,1.891h-0.334L10.631,61.19z"/>
            <path  d="M13.933,61.681c-0.082-0.098-0.203-0.154-0.357-0.154c-0.314,0-0.547,0.256-0.547,0.609c0,0.352,0.232,0.609,0.533,0.609c0.168,0,0.305-0.076,0.391-0.205l0.347,0.26c-0.157,0.225-0.425,0.328-0.684,0.328c-0.59,0-1.02-0.387-1.02-0.992c0-0.607,0.43-0.994,1.02-0.994c0.212,0,0.478,0.072,0.639,0.277L13.933,61.681z"/>
            <path  d="M15.762,61.681c-0.083-0.098-0.202-0.154-0.358-0.154c-0.314,0-0.547,0.256-0.547,0.609c0,0.352,0.232,0.609,0.534,0.609c0.169,0,0.304-0.076,0.39-0.205l0.348,0.26c-0.158,0.225-0.425,0.328-0.684,0.328c-0.59,0-1.021-0.387-1.021-0.992c0-0.607,0.431-0.994,1.021-0.994c0.211,0,0.479,0.072,0.638,0.277L15.762,61.681z"/>
        </g>
        <g >
            <path  d="M20.126,10.082h-0.539V9.713h1.496v0.368h-0.539v1.521h-0.418V10.082z"/>
            <path  d="M21.763,10.615l-0.625-0.901h0.523l0.403,0.662l0.388-0.662h0.504l-0.611,0.895l0.684,0.995h-0.523l-0.462-0.761l-0.448,0.761h-0.494L21.763,10.615z"/>
        </g>
        <g >
            <path  d="M26.626,9.713h0.732c0.387,0,0.713,0.133,0.713,0.573c0,0.265-0.143,0.47-0.408,0.519l0.48,0.798h-0.5l-0.396-0.756h-0.205v0.756h-0.417V9.713z M27.043,10.496h0.246c0.152,0,0.35-0.006,0.35-0.212c0-0.188-0.171-0.219-0.323-0.219h-0.272V10.496z"/>
            <path  d="M28.826,10.615l-0.625-0.901h0.524l0.402,0.662l0.387-0.662h0.505l-0.611,0.895l0.685,0.995h-0.524l-0.462-0.761l-0.449,0.761h-0.494L28.826,10.615z"/>
        </g>
        <g >
            <g >
                <path  d="M3.96,35.614H3.502l1.681-3.863h0.382l1.681,3.863H6.787L6.361,34.6H4.386L3.96,35.614z M4.533,34.239h1.676l-0.835-2.03L4.533,34.239z"/>
                <path  d="M8.962,33.388H8.225v1.506c0,0.382,0.147,0.458,0.372,0.458c0.125,0,0.262-0.038,0.371-0.098l0.017,0.333c-0.131,0.06-0.306,0.093-0.486,0.093c-0.273,0-0.633-0.12-0.633-0.682v-1.61H7.325v-0.327h0.541V32.34h0.359v0.721h0.737V33.388z"/>
                <path  d="M9.897,35.614h-0.36v-4.125h0.36V35.614z"/>
                <path  d="M12.403,34.048v-0.065c0-0.442-0.213-0.66-0.655-0.66c-0.3,0-0.562,0.104-0.78,0.3l-0.218-0.256c0.234-0.24,0.6-0.371,1.08-0.371c0.502,0,0.934,0.284,0.934,0.906v1.14c0,0.196,0.021,0.437,0.043,0.573h-0.349c-0.022-0.125-0.033-0.278-0.033-0.415h-0.011c-0.208,0.338-0.491,0.48-0.9,0.48c-0.453,0-0.879-0.251-0.879-0.748c0-0.829,0.977-0.884,1.587-0.884H12.403z M12.217,34.343c-0.366,0-1.19,0.027-1.19,0.54c0,0.338,0.312,0.469,0.601,0.469c0.523,0,0.775-0.371,0.775-0.824v-0.185H12.217z"/>
                <path  d="M14.954,33.667c-0.109-0.208-0.29-0.344-0.551-0.344c-0.251,0-0.53,0.109-0.53,0.382c0,0.24,0.169,0.327,0.502,0.404l0.366,0.087c0.354,0.082,0.622,0.338,0.622,0.699c0,0.556-0.497,0.786-0.993,0.786c-0.388,0-0.742-0.137-0.982-0.497l0.311-0.213c0.147,0.229,0.372,0.382,0.671,0.382c0.295,0,0.601-0.131,0.601-0.425c0-0.257-0.218-0.344-0.486-0.41l-0.349-0.082c-0.174-0.043-0.655-0.185-0.655-0.671c0-0.529,0.464-0.77,0.944-0.77c0.355,0,0.688,0.126,0.852,0.458L14.954,33.667z"/>
                <path  d="M17.836,32.695c-0.136-0.174-0.409-0.256-0.617-0.256c-0.24,0-0.572,0.109-0.572,0.398c0,0.704,1.778,0.251,1.778,1.604c0,0.862-0.693,1.271-1.49,1.271c-0.497,0-0.933-0.147-1.299-0.486l0.606-0.666c0.174,0.229,0.458,0.366,0.742,0.366c0.278,0,0.589-0.131,0.589-0.404c0-0.709-1.812-0.328-1.812-1.615c0-0.824,0.714-1.255,1.473-1.255c0.437,0,0.857,0.115,1.185,0.404L17.836,32.695z"/>
                <path  d="M20.752,33.819c-0.081-0.115-0.234-0.202-0.404-0.202c-0.409,0-0.654,0.272-0.654,0.671s0.246,0.671,0.654,0.671c0.181,0,0.312-0.092,0.404-0.202l0.541,0.567c-0.257,0.262-0.633,0.355-0.945,0.355c-0.818,0-1.473-0.546-1.473-1.392s0.655-1.392,1.473-1.392c0.312,0,0.688,0.093,0.945,0.354L20.752,33.819z"/>
                <path  d="M22.011,31.653c0.262,0,0.475,0.213,0.475,0.475c0,0.262-0.213,0.475-0.475,0.475s-0.475-0.213-0.475-0.475C21.536,31.866,21.749,31.653,22.011,31.653z M21.601,32.962h0.819v2.652h-0.819V32.962z"/>
                <path  d="M25.521,35.156c-0.262,0.333-0.693,0.524-1.119,0.524c-0.818,0-1.473-0.546-1.473-1.392s0.654-1.392,1.473-1.392c0.765,0,1.245,0.546,1.245,1.392v0.256h-1.899c0.065,0.311,0.3,0.513,0.617,0.513c0.267,0,0.446-0.136,0.583-0.322L25.521,35.156z M24.827,33.988c0.006-0.273-0.207-0.502-0.501-0.502c-0.361,0-0.558,0.246-0.579,0.502H24.827z"/>
                <path  d="M26.146,32.962h0.785v0.36h0.012c0.108-0.208,0.376-0.426,0.774-0.426c0.829,0,0.982,0.546,0.982,1.255v1.462H27.88v-1.298c0-0.306-0.005-0.698-0.425-0.698c-0.426,0-0.492,0.333-0.492,0.676v1.32h-0.817V32.962z"/>
                <path  d="M31.086,33.618h-0.721v0.884c0,0.283,0.033,0.491,0.388,0.491c0.087,0,0.263-0.011,0.333-0.076v0.682c-0.18,0.065-0.381,0.082-0.573,0.082c-0.545,0-0.965-0.224-0.965-0.802v-1.26h-0.524v-0.655h0.524v-0.786h0.817v0.786h0.721V33.618z"/>
                <path  d="M31.923,31.653c0.263,0,0.475,0.213,0.475,0.475c0,0.262-0.212,0.475-0.475,0.475c-0.262,0-0.474-0.213-0.474-0.475C31.449,31.866,31.661,31.653,31.923,31.653z M31.514,32.962h0.819v2.652h-0.819V32.962z"/>
                <path  d="M33.207,33.618h-0.54v-0.655h0.54v-0.469c0-0.578,0.147-1.069,1.037-1.069c0.163,0,0.327,0.011,0.479,0.049l-0.038,0.693c-0.093-0.032-0.169-0.054-0.268-0.054c-0.262,0-0.393,0.082-0.393,0.431v0.42h0.605v0.655h-0.605v1.997h-0.818V33.618z"/>
                <path  d="M35.364,31.653c0.262,0,0.474,0.213,0.474,0.475c0,0.262-0.212,0.475-0.474,0.475s-0.475-0.213-0.475-0.475C34.89,31.866,35.103,31.653,35.364,31.653z M34.955,32.962h0.818v2.652h-0.818V32.962z"/>
                <path  d="M38.159,33.819c-0.083-0.115-0.235-0.202-0.403-0.202c-0.41,0-0.655,0.272-0.655,0.671s0.245,0.671,0.655,0.671c0.18,0,0.311-0.092,0.403-0.202l0.54,0.567c-0.257,0.262-0.633,0.355-0.943,0.355c-0.819,0-1.474-0.546-1.474-1.392s0.654-1.392,1.474-1.392c0.311,0,0.687,0.093,0.943,0.354L38.159,33.819z"/>
            </g>
            <g >
                <path  d="M12.238,37.071h1.058c0.541,0,1.35,0.362,1.35,1.378c0,1.015-0.809,1.377-1.35,1.377h-1.058V37.071z M12.564,39.522h0.623c0.63,0,1.109-0.319,1.109-1.073c0-0.755-0.479-1.074-1.109-1.074h-0.623V39.522z"/>
                <path  d="M15.293,37.071c0.125,0,0.222,0.102,0.222,0.222c0,0.129-0.093,0.222-0.222,0.222s-0.222-0.093-0.222-0.222C15.072,37.173,15.169,37.071,15.293,37.071z M15.142,38.005h0.304v1.821h-0.304V38.005z"/>
                <path  d="M16.086,39.348c0.121,0.147,0.253,0.245,0.467,0.245c0.19,0,0.4-0.082,0.4-0.28c0-0.194-0.194-0.245-0.389-0.288c-0.347-0.077-0.642-0.151-0.642-0.529c0-0.354,0.342-0.536,0.681-0.536c0.257,0,0.494,0.097,0.619,0.33l-0.253,0.168c-0.078-0.129-0.206-0.219-0.385-0.219c-0.167,0-0.358,0.082-0.358,0.253c0,0.152,0.218,0.218,0.459,0.265c0.323,0.063,0.595,0.18,0.595,0.545c0,0.412-0.366,0.572-0.728,0.572c-0.308,0-0.529-0.082-0.708-0.339L16.086,39.348z"/>
                <path  d="M17.743,39.348c0.121,0.147,0.253,0.245,0.467,0.245c0.19,0,0.4-0.082,0.4-0.28c0-0.194-0.194-0.245-0.389-0.288c-0.347-0.077-0.642-0.151-0.642-0.529c0-0.354,0.342-0.536,0.681-0.536c0.257,0,0.494,0.097,0.619,0.33l-0.253,0.168c-0.078-0.129-0.206-0.219-0.385-0.219c-0.167,0-0.358,0.082-0.358,0.253c0,0.152,0.218,0.218,0.459,0.265c0.323,0.063,0.595,0.18,0.595,0.545c0,0.412-0.366,0.572-0.728,0.572c-0.308,0-0.529-0.082-0.708-0.339L17.743,39.348z"/>
                <path  d="M20.228,37.959c0.56,0,0.973,0.389,0.973,0.957c0,0.567-0.413,0.957-0.973,0.957c-0.561,0-0.973-0.39-0.973-0.957C19.255,38.348,19.667,37.959,20.228,37.959z M20.228,39.593c0.393,0,0.646-0.296,0.646-0.677c0-0.382-0.253-0.678-0.646-0.678s-0.646,0.296-0.646,0.678C19.582,39.297,19.835,39.593,20.228,39.593z"/>
                <path  d="M21.697,36.885h0.304v2.941h-0.304V36.885z"/>
                <path  d="M23.433,39.826h-0.335l-0.743-1.821h0.354l0.568,1.429h0.008l0.541-1.429h0.327L23.433,39.826z"/>
                <path  d="M26.104,39.495c-0.214,0.276-0.471,0.378-0.809,0.378c-0.572,0-0.923-0.428-0.923-0.957c0-0.564,0.397-0.957,0.935-0.957c0.513,0,0.863,0.35,0.863,0.953v0.097h-1.471c0.023,0.315,0.265,0.584,0.596,0.584c0.261,0,0.436-0.094,0.579-0.276L26.104,39.495z M25.843,38.752c-0.012-0.307-0.214-0.514-0.548-0.514c-0.335,0-0.557,0.207-0.596,0.514H25.843z"/>
                <path  d="M28.152,39.503h-0.008c-0.113,0.206-0.374,0.37-0.7,0.37c-0.51,0-0.911-0.413-0.911-0.957c0-0.553,0.386-0.957,0.957-0.957c0.265,0,0.486,0.116,0.654,0.311h0.008v-1.385h0.304v2.941h-0.304V39.503z M27.506,38.238c-0.393,0-0.646,0.296-0.646,0.678c0,0.381,0.253,0.677,0.646,0.677c0.394,0,0.646-0.296,0.646-0.677C28.152,38.534,27.899,38.238,27.506,38.238z"/>
                <path  d="M7.446,42.511c0-0.833,0.603-1.448,1.439-1.448s1.439,0.615,1.439,1.448c0,0.832-0.603,1.447-1.439,1.447S7.446,43.343,7.446,42.511z M9.975,42.511c0-0.635-0.443-1.145-1.089-1.145s-1.089,0.51-1.089,1.145c0,0.634,0.443,1.144,1.089,1.144S9.975,43.145,9.975,42.511z"/>
                <path  d="M11.264,42.907l-0.654-0.841h0.397l0.482,0.654l0.455-0.654h0.37l-0.626,0.841l0.75,0.98h-0.4l-0.576-0.786l-0.568,0.786h-0.377L11.264,42.907z"/>
                <path  d="M13.406,44.304c-0.121,0.308-0.241,0.518-0.607,0.518c-0.085,0-0.19-0.008-0.272-0.047l0.039-0.265c0.063,0.023,0.128,0.031,0.214,0.031c0.199,0,0.272-0.12,0.339-0.299l0.125-0.343l-0.755-1.833h0.354l0.564,1.429h0.008l0.541-1.429h0.331L13.406,44.304z"/>
                <path  d="M16.428,43.806c0,0.658-0.354,1.016-0.992,1.016c-0.354,0-0.638-0.093-0.895-0.346l0.218-0.249c0.191,0.206,0.397,0.314,0.677,0.314c0.545,0,0.689-0.35,0.689-0.735v-0.233h-0.008c-0.144,0.233-0.401,0.339-0.642,0.339c-0.572,0-0.969-0.397-0.969-0.934c0-0.596,0.389-0.958,0.969-0.958c0.245,0,0.521,0.117,0.642,0.358h0.008v-0.312h0.303V43.806z M15.475,43.631c0.416,0,0.65-0.312,0.65-0.661c0-0.394-0.265-0.67-0.65-0.67c-0.381,0-0.642,0.296-0.642,0.678C14.833,43.347,15.121,43.631,15.475,43.631z"/>
                <path  d="M18.613,43.557c-0.214,0.276-0.471,0.378-0.81,0.378c-0.572,0-0.922-0.428-0.922-0.957c0-0.564,0.396-0.958,0.934-0.958c0.514,0,0.864,0.351,0.864,0.954v0.097h-1.471c0.023,0.315,0.265,0.584,0.595,0.584c0.261,0,0.436-0.094,0.58-0.276L18.613,43.557z M18.353,42.813c-0.012-0.307-0.214-0.514-0.549-0.514s-0.556,0.207-0.595,0.514H18.353z"/>
                <path  d="M19.149,42.499c0-0.168-0.016-0.312-0.016-0.433h0.288c0,0.098,0.008,0.199,0.008,0.3h0.008c0.082-0.179,0.308-0.347,0.607-0.347c0.479,0,0.692,0.304,0.692,0.744v1.124h-0.304v-1.094c0-0.303-0.132-0.494-0.416-0.494c-0.393,0-0.564,0.284-0.564,0.701v0.887h-0.303V42.499z"/>
                <path  d="M24.376,41.701c-0.163-0.222-0.424-0.335-0.688-0.335c-0.615,0-1.051,0.541-1.051,1.145c0,0.638,0.432,1.144,1.051,1.144c0.334,0,0.603-0.137,0.797-0.386l0.245,0.207c-0.245,0.33-0.603,0.482-1.042,0.482c-0.79,0-1.401-0.611-1.401-1.447c0-0.81,0.584-1.448,1.401-1.448c0.373,0,0.739,0.129,0.973,0.433L24.376,41.701z"/>
                <path  d="M25.308,41.133c0.125,0,0.222,0.102,0.222,0.222c0,0.129-0.093,0.222-0.222,0.222c-0.128,0-0.222-0.093-0.222-0.222C25.086,41.234,25.184,41.133,25.308,41.133z M25.156,42.066h0.304v1.821h-0.304V42.066z"/>
                <path  d="M26.062,42.499c0-0.168-0.016-0.312-0.016-0.433h0.288c0,0.098,0.008,0.199,0.008,0.3h0.008c0.081-0.179,0.307-0.347,0.606-0.347c0.039,0,0.082,0.004,0.125,0.02l-0.02,0.308c-0.051-0.016-0.109-0.023-0.164-0.023c-0.369,0-0.532,0.261-0.532,0.678v0.887h-0.304V42.499z"/>
                <path  d="M28.656,42.521c-0.129-0.155-0.276-0.222-0.46-0.222c-0.408,0-0.614,0.304-0.614,0.678c0,0.373,0.245,0.677,0.614,0.677c0.199,0,0.351-0.07,0.464-0.226l0.226,0.214c-0.176,0.202-0.425,0.292-0.689,0.292c-0.563,0-0.941-0.397-0.941-0.957c0-0.553,0.382-0.958,0.941-0.958c0.269,0,0.518,0.09,0.701,0.288L28.656,42.521z"/>
                <path  d="M30.821,43.456c0,0.167,0.016,0.311,0.016,0.432H30.55c0-0.098-0.008-0.198-0.008-0.3h-0.008c-0.082,0.179-0.308,0.347-0.607,0.347c-0.479,0-0.692-0.304-0.692-0.743v-1.125h0.304v1.094c0,0.304,0.132,0.494,0.416,0.494c0.393,0,0.564-0.284,0.564-0.7v-0.888h0.303V43.456z"/>
                <path  d="M31.574,41.133c0.125,0,0.222,0.102,0.222,0.222c0,0.129-0.093,0.222-0.222,0.222c-0.128,0-0.222-0.093-0.222-0.222C31.353,41.234,31.45,41.133,31.574,41.133z M31.423,42.066h0.304v1.821h-0.304V42.066z"/>
                <path  d="M33.325,42.323h-0.537v0.911c0,0.233,0.004,0.42,0.272,0.42c0.09,0,0.187-0.02,0.269-0.063l0.012,0.276c-0.105,0.047-0.241,0.066-0.354,0.066c-0.432,0-0.502-0.233-0.502-0.611v-1h-0.396v-0.257h0.396v-0.518h0.304v0.518h0.537V42.323z"/>
            </g>
        </g>
    </g>
</svg>
