<?xml version='1.0' encoding='utf-8'?>
<!-- Generator: Adobe Illustrator 13.0.2, SVG Export Plug-In . SVG Version: 6.00 Build 14948)  -->
<svg xmlns="http://www.w3.org/2000/svg" width="0.884944in" xml:space="preserve" xmlns:xml="http://www.w3.org/XML/1998/namespace" x="0px" version="1.2" y="0px" height="0.869639in" viewBox="0 0 63.716 62.614" baseProfile="tiny" id="svg2">
 <rect xmlns="http://www.w3.org/2000/svg" width="1.895" x="17.797" y="1.824" height="9.783" id="connector2pin"/>
 <rect xmlns="http://www.w3.org/2000/svg" width="0.867" x="18.275" y="1.14" height="0.684" id="connector2terminal"/>
 <rect xmlns="http://www.w3.org/2000/svg" width="1.893" x="17.801" y="52.541" height="9.783" id="connector0pin"/>
 <rect xmlns="http://www.w3.org/2000/svg" width="0.867" x="18.279" y="62.253" height="0.687" id="connector0terminal"/>
 <rect xmlns="http://www.w3.org/2000/svg" width="1.894" x="29.861" y="42.203" height="9.783" id="connector1pin"/>
 <rect xmlns="http://www.w3.org/2000/svg" width="0.866" x="30.409" y="51.986" height="0.684" id="connector1terminal"/>
 <g xmlns="http://www.w3.org/2000/svg" id="schematic">
  <g xmlns="http://www.w3.org/2000/svg">
   <polyline xmlns="http://www.w3.org/2000/svg" fill="#FFFFFF" points="18.729,1.866 18.729,19.923 22.229,21.785 14.979,25.82 22.229,29.854 14.979,33.889 22.229,37.923 14.979,41.958 18.729,44.13 18.729,62.033 " stroke="#000000" stroke-linecap="round" stroke-width="2.2284"/>
   <polygon xmlns="http://www.w3.org/2000/svg" points="0.862,22.294 10.897,24.382 8.009,29.642 "/>
   <polyline xmlns="http://www.w3.org/2000/svg" fill="none" points="5.927,25.103 30.803,38.76 30.803,51.686 " stroke="#000000" stroke-linecap="round" stroke-width="2.2284"/>
  </g>
  <g xmlns="http://www.w3.org/2000/svg">
   <line xmlns="http://www.w3.org/2000/svg" fill="none" stroke="#000000" stroke-linecap="round" y1="43.91" stroke-width="2.2284" x1="61.877" y2="61.814" x2="61.877"/>
   <line xmlns="http://www.w3.org/2000/svg" fill="none" stroke="#000000" stroke-linecap="round" y1="1.647" stroke-width="2.2284" x1="61.877" y2="19.703" x2="61.877"/>
   <line xmlns="http://www.w3.org/2000/svg" fill="none" stroke="#000000" stroke-linecap="round" y1="43.91" stroke-width="2.2" x1="61.877" y2="21.199" x2="52.299"/>
  </g>
  <circle xmlns="http://www.w3.org/2000/svg" cx="61.877" cy="19.703" r="2.701"/>
  <circle xmlns="http://www.w3.org/2000/svg" cx="61.877" cy="43.909" r="2.7"/>
 </g>
 <rect xmlns="http://www.w3.org/2000/svg" width="1.894" x="60.945" y="1.604" height="9.782" id="connector4pin"/>
 <rect xmlns="http://www.w3.org/2000/svg" width="0.867" x="61.424" y="0.922" height="0.685" id="connector4terminal"/>
 <rect xmlns="http://www.w3.org/2000/svg" width="1.895" x="60.947" y="52.322" height="9.781" id="connector3pin"/>
 <rect xmlns="http://www.w3.org/2000/svg" width="0.867" x="61.427" y="62.035" height="0.688" id="connector3terminal"/>
</svg>
