<?xml version='1.0' encoding='UTF-8' standalone='no'?>
<!-- Created with Fritzing (http://www.fritzing.org/) -->
<svg xmlns="http://www.w3.org/2000/svg" width="2.98609in" x="0in" version="1.2" y="0in" height="6.5294in" viewBox="0 0 214.998 470.117" baseProfile="tiny">
 <desc >Fritzing schematic generated by brd2svg</desc>
 <g  id="schematic" stroke-width="0">
  <rect  width="170.078" x="22.4598" y="22.4598" fill="none" height="425.197" stroke="#000000" stroke-linejoin="round" stroke-linecap="round" stroke-width="2.4"/>
  <text  x="107.499" y="64.9795" font-family="Droid Sans" fill="#000000" text-anchor="middle" stroke="none" id="label" stroke-width="0" font-size="18">Arduino</text>
  <text  x="107.499" y="86.2394" font-family="Droid Sans" fill="#000000" text-anchor="middle" stroke="none" id="label" stroke-width="0" font-size="18">GPS</text>
  <text  x="107.499" y="107.499" font-family="Droid Sans" fill="#000000" text-anchor="middle" stroke="none" id="label" stroke-width="0" font-size="18">Shield</text>
  <rect  width="0" x="107.499" y="448.857" fill="none" height="0" stroke="none" id="connector133pin" stroke-width="0" connectorName="N$2"/>
  <rect  width="0" x="107.499" y="448.857" fill="none" height="0" stroke="none" id="connector133terminal" stroke-width="0"/>
  <rect  width="0" x="107.499" y="448.857" fill="none" height="0" stroke="none" id="connector134pin" stroke-width="0" connectorName="N$4"/>
  <rect  width="0" x="107.499" y="448.857" fill="none" height="0" stroke="none" id="connector134terminal" stroke-width="0"/>
  <rect  width="0" x="107.499" y="448.857" fill="none" height="0" stroke="none" id="connector135pin" stroke-width="0" connectorName="N$6"/>
  <rect  width="0" x="107.499" y="448.857" fill="none" height="0" stroke="none" id="connector135terminal" stroke-width="0"/>
  <rect  width="0" x="107.499" y="448.857" fill="none" height="0" stroke="none" id="connector136pin" stroke-width="0" connectorName="N$7"/>
  <rect  width="0" x="107.499" y="448.857" fill="none" height="0" stroke="none" id="connector136terminal" stroke-width="0"/>
  <rect  width="0" x="107.499" y="448.857" fill="none" height="0" stroke="none" id="connector137pin" stroke-width="0" connectorName="N$8"/>
  <rect  width="0" x="107.499" y="448.857" fill="none" height="0" stroke="none" id="connector137terminal" stroke-width="0"/>
  <rect  width="0" x="107.499" y="448.857" fill="none" height="0" stroke="none" id="connector138pin" stroke-width="0" connectorName="N$9"/>
  <rect  width="0" x="107.499" y="448.857" fill="none" height="0" stroke="none" id="connector138terminal" stroke-width="0"/>
  <rect  width="0" x="107.499" y="448.857" fill="none" height="0" stroke="none" id="connector139pin" stroke-width="0" connectorName="N$10"/>
  <rect  width="0" x="107.499" y="448.857" fill="none" height="0" stroke="none" id="connector139terminal" stroke-width="0"/>
  <rect  width="0" x="107.499" y="448.857" fill="none" height="0" stroke="none" id="connector140pin" stroke-width="0" connectorName="N$11"/>
  <rect  width="0" x="107.499" y="448.857" fill="none" height="0" stroke="none" id="connector140terminal" stroke-width="0"/>
  <rect  width="0" x="107.499" y="448.857" fill="none" height="0" stroke="none" id="connector141pin" stroke-width="0" connectorName="N$13"/>
  <rect  width="0" x="107.499" y="448.857" fill="none" height="0" stroke="none" id="connector141terminal" stroke-width="0"/>
  <rect  width="0" x="107.499" y="448.857" fill="none" height="0" stroke="none" id="connector142pin" stroke-width="0" connectorName="N$15"/>
  <rect  width="0" x="107.499" y="448.857" fill="none" height="0" stroke="none" id="connector142terminal" stroke-width="0"/>
  <rect  width="0" x="107.499" y="448.857" fill="none" height="0" stroke="none" id="connector143pin" stroke-width="0" connectorName="N$16"/>
  <rect  width="0" x="107.499" y="448.857" fill="none" height="0" stroke="none" id="connector143terminal" stroke-width="0"/>
  <rect  width="0" x="107.499" y="448.857" fill="none" height="0" stroke="none" id="connector144pin" stroke-width="0" connectorName="N$17"/>
  <rect  width="0" x="107.499" y="448.857" fill="none" height="0" stroke="none" id="connector144terminal" stroke-width="0"/>
  <rect  width="0" x="107.499" y="448.857" fill="none" height="0" stroke="none" id="connector145pin" stroke-width="0" connectorName="N$18"/>
  <rect  width="0" x="107.499" y="448.857" fill="none" height="0" stroke="none" id="connector145terminal" stroke-width="0"/>
  <rect  width="0" x="107.499" y="448.857" fill="none" height="0" stroke="none" id="connector146pin" stroke-width="0" connectorName="N$19"/>
  <rect  width="0" x="107.499" y="448.857" fill="none" height="0" stroke="none" id="connector146terminal" stroke-width="0"/>
  <rect  width="0" x="107.499" y="448.857" fill="none" height="0" stroke="none" id="connector147pin" stroke-width="0" connectorName="N$20"/>
  <rect  width="0" x="107.499" y="448.857" fill="none" height="0" stroke="none" id="connector147terminal" stroke-width="0"/>
  <rect  width="0" x="107.499" y="448.857" fill="none" height="0" stroke="none" id="connector148pin" stroke-width="0" connectorName="N$21"/>
  <rect  width="0" x="107.499" y="448.857" fill="none" height="0" stroke="none" id="connector148terminal" stroke-width="0"/>
  <rect  width="0" x="107.499" y="448.857" fill="none" height="0" stroke="none" id="connector149pin" stroke-width="0" connectorName="N$23"/>
  <rect  width="0" x="107.499" y="448.857" fill="none" height="0" stroke="none" id="connector149terminal" stroke-width="0"/>
  <rect  width="0" x="107.499" y="448.857" fill="none" height="0" stroke="none" id="connector150pin" stroke-width="0" connectorName="N$25"/>
  <rect  width="0" x="107.499" y="448.857" fill="none" height="0" stroke="none" id="connector150terminal" stroke-width="0"/>
  <rect  width="0" x="107.499" y="448.857" fill="none" height="0" stroke="none" id="connector151pin" stroke-width="0" connectorName="N$27"/>
  <rect  width="0" x="107.499" y="448.857" fill="none" height="0" stroke="none" id="connector151terminal" stroke-width="0"/>
  <rect  width="0" x="107.499" y="448.857" fill="none" height="0" stroke="none" id="connector152pin" stroke-width="0" connectorName="N$28"/>
  <rect  width="0" x="107.499" y="448.857" fill="none" height="0" stroke="none" id="connector152terminal" stroke-width="0"/>
  <rect  width="0" x="107.499" y="448.857" fill="none" height="0" stroke="none" id="connector153pin" stroke-width="0" connectorName="N$29"/>
  <rect  width="0" x="107.499" y="448.857" fill="none" height="0" stroke="none" id="connector153terminal" stroke-width="0"/>
  <rect  width="0" x="107.499" y="448.857" fill="none" height="0" stroke="none" id="connector154pin" stroke-width="0" connectorName="N$30"/>
  <rect  width="0" x="107.499" y="448.857" fill="none" height="0" stroke="none" id="connector154terminal" stroke-width="0"/>
  <rect  width="0" x="107.499" y="448.857" fill="none" height="0" stroke="none" id="connector155pin" stroke-width="0" connectorName="N$31"/>
  <rect  width="0" x="107.499" y="448.857" fill="none" height="0" stroke="none" id="connector155terminal" stroke-width="0"/>
  <rect  width="0" x="107.499" y="448.857" fill="none" height="0" stroke="none" id="connector156pin" stroke-width="0" connectorName="N$32"/>
  <rect  width="0" x="107.499" y="448.857" fill="none" height="0" stroke="none" id="connector156terminal" stroke-width="0"/>
  <rect  width="0" x="107.499" y="448.857" fill="none" height="0" stroke="none" id="connector157pin" stroke-width="0" connectorName="N$33"/>
  <rect  width="0" x="107.499" y="448.857" fill="none" height="0" stroke="none" id="connector157terminal" stroke-width="0"/>
  <rect  width="0" x="107.499" y="448.857" fill="none" height="0" stroke="none" id="connector158pin" stroke-width="0" connectorName="N$40"/>
  <rect  width="0" x="107.499" y="448.857" fill="none" height="0" stroke="none" id="connector158terminal" stroke-width="0"/>
  <rect  width="0" x="107.499" y="448.857" fill="none" height="0" stroke="none" id="connector159pin" stroke-width="0" connectorName="N$41"/>
  <rect  width="0" x="107.499" y="448.857" fill="none" height="0" stroke="none" id="connector159terminal" stroke-width="0"/>
  <rect  width="0" x="107.499" y="448.857" fill="none" height="0" stroke="none" id="connector160pin" stroke-width="0" connectorName="N$42"/>
  <rect  width="0" x="107.499" y="448.857" fill="none" height="0" stroke="none" id="connector160terminal" stroke-width="0"/>
  <rect  width="0" x="107.499" y="448.857" fill="none" height="0" stroke="none" id="connector161pin" stroke-width="0" connectorName="N$43"/>
  <rect  width="0" x="107.499" y="448.857" fill="none" height="0" stroke="none" id="connector161terminal" stroke-width="0"/>
  <rect  width="0" x="107.499" y="448.857" fill="none" height="0" stroke="none" id="connector162pin" stroke-width="0" connectorName="N$44"/>
  <rect  width="0" x="107.499" y="448.857" fill="none" height="0" stroke="none" id="connector162terminal" stroke-width="0"/>
  <rect  width="0" x="107.499" y="448.857" fill="none" height="0" stroke="none" id="connector163pin" stroke-width="0" connectorName="N$45"/>
  <rect  width="0" x="107.499" y="448.857" fill="none" height="0" stroke="none" id="connector163terminal" stroke-width="0"/>
  <rect  width="0" x="107.499" y="448.857" fill="none" height="0" stroke="none" id="connector164pin" stroke-width="0" connectorName="N$52"/>
  <rect  width="0" x="107.499" y="448.857" fill="none" height="0" stroke="none" id="connector164terminal" stroke-width="0"/>
  <rect  width="0" x="107.499" y="448.857" fill="none" height="0" stroke="none" id="connector165pin" stroke-width="0" connectorName="N$53"/>
  <rect  width="0" x="107.499" y="448.857" fill="none" height="0" stroke="none" id="connector165terminal" stroke-width="0"/>
  <rect  width="0" x="107.499" y="448.857" fill="none" height="0" stroke="none" id="connector166pin" stroke-width="0" connectorName="N$54"/>
  <rect  width="0" x="107.499" y="448.857" fill="none" height="0" stroke="none" id="connector166terminal" stroke-width="0"/>
  <rect  width="0" x="107.499" y="448.857" fill="none" height="0" stroke="none" id="connector167pin" stroke-width="0" connectorName="N$55"/>
  <rect  width="0" x="107.499" y="448.857" fill="none" height="0" stroke="none" id="connector167terminal" stroke-width="0"/>
  <rect  width="0" x="107.499" y="448.857" fill="none" height="0" stroke="none" id="connector168pin" stroke-width="0" connectorName="N$56"/>
  <rect  width="0" x="107.499" y="448.857" fill="none" height="0" stroke="none" id="connector168terminal" stroke-width="0"/>
  <rect  width="0" x="107.499" y="448.857" fill="none" height="0" stroke="none" id="connector169pin" stroke-width="0" connectorName="N$57"/>
  <rect  width="0" x="107.499" y="448.857" fill="none" height="0" stroke="none" id="connector169terminal" stroke-width="0"/>
  <rect  width="0" x="107.499" y="448.857" fill="none" height="0" stroke="none" id="connector170pin" stroke-width="0" connectorName="N$64"/>
  <rect  width="0" x="107.499" y="448.857" fill="none" height="0" stroke="none" id="connector170terminal" stroke-width="0"/>
  <rect  width="0" x="107.499" y="448.857" fill="none" height="0" stroke="none" id="connector171pin" stroke-width="0" connectorName="N$65"/>
  <rect  width="0" x="107.499" y="448.857" fill="none" height="0" stroke="none" id="connector171terminal" stroke-width="0"/>
  <rect  width="0" x="107.499" y="448.857" fill="none" height="0" stroke="none" id="connector172pin" stroke-width="0" connectorName="N$66"/>
  <rect  width="0" x="107.499" y="448.857" fill="none" height="0" stroke="none" id="connector172terminal" stroke-width="0"/>
  <rect  width="0" x="107.499" y="448.857" fill="none" height="0" stroke="none" id="connector173pin" stroke-width="0" connectorName="N$67"/>
  <rect  width="0" x="107.499" y="448.857" fill="none" height="0" stroke="none" id="connector173terminal" stroke-width="0"/>
  <rect  width="0" x="107.499" y="448.857" fill="none" height="0" stroke="none" id="connector174pin" stroke-width="0" connectorName="N$68"/>
  <rect  width="0" x="107.499" y="448.857" fill="none" height="0" stroke="none" id="connector174terminal" stroke-width="0"/>
  <rect  width="0" x="107.499" y="448.857" fill="none" height="0" stroke="none" id="connector175pin" stroke-width="0" connectorName="N$69"/>
  <rect  width="0" x="107.499" y="448.857" fill="none" height="0" stroke="none" id="connector175terminal" stroke-width="0"/>
  <rect  width="0" x="107.499" y="448.857" fill="none" height="0" stroke="none" id="connector176pin" stroke-width="0" connectorName="N$76"/>
  <rect  width="0" x="107.499" y="448.857" fill="none" height="0" stroke="none" id="connector176terminal" stroke-width="0"/>
  <rect  width="0" x="107.499" y="448.857" fill="none" height="0" stroke="none" id="connector177pin" stroke-width="0" connectorName="N$77"/>
  <rect  width="0" x="107.499" y="448.857" fill="none" height="0" stroke="none" id="connector177terminal" stroke-width="0"/>
  <rect  width="0" x="107.499" y="448.857" fill="none" height="0" stroke="none" id="connector178pin" stroke-width="0" connectorName="N$78"/>
  <rect  width="0" x="107.499" y="448.857" fill="none" height="0" stroke="none" id="connector178terminal" stroke-width="0"/>
  <rect  width="0" x="107.499" y="448.857" fill="none" height="0" stroke="none" id="connector179pin" stroke-width="0" connectorName="N$79"/>
  <rect  width="0" x="107.499" y="448.857" fill="none" height="0" stroke="none" id="connector179terminal" stroke-width="0"/>
  <rect  width="0" x="107.499" y="448.857" fill="none" height="0" stroke="none" id="connector180pin" stroke-width="0" connectorName="N$80"/>
  <rect  width="0" x="107.499" y="448.857" fill="none" height="0" stroke="none" id="connector180terminal" stroke-width="0"/>
  <rect  width="0" x="107.499" y="448.857" fill="none" height="0" stroke="none" id="connector181pin" stroke-width="0" connectorName="N$81"/>
  <rect  width="0" x="107.499" y="448.857" fill="none" height="0" stroke="none" id="connector181terminal" stroke-width="0"/>
  <line  fill="none" stroke="#000000" stroke-linejoin="round" stroke-linecap="round" y1="64.9795" stroke-width="2.4" x1="1.2" y2="64.9795" x2="21.2599"/>
  <rect  width="21.2599" x="0" y="63.7795" fill="none" height="2.4" id="connector10pin" stroke-width="0" connectorName="PSEL"/>
  <rect  width="2.4" x="0" y="63.7795" fill="none" height="2.4" id="connector10terminal" stroke-width="0"/>
  <text  x="27.7399" y="67.3795" font-family="Droid Sans" fill="#000000" text-anchor="start" stroke="none" id="label10" stroke-width="0" font-size="9.936">PSEL</text>
  <line  fill="none" stroke="#000000" stroke-linejoin="round" stroke-linecap="round" y1="86.2394" stroke-width="2.4" x1="1.2" y2="86.2394" x2="21.2599"/>
  <rect  width="21.2599" x="0" y="85.0392" fill="none" height="2.4" id="connector12pin" stroke-width="0" connectorName="PPS"/>
  <rect  width="2.4" x="0" y="85.0392" fill="none" height="2.4" id="connector12terminal" stroke-width="0"/>
  <text  x="27.7399" y="88.6392" font-family="Droid Sans" fill="#000000" text-anchor="start" stroke="none" id="label12" stroke-width="0" font-size="9.936">PPS</text>
  <line  fill="none" stroke="#000000" stroke-linejoin="round" stroke-linecap="round" y1="107.499" stroke-width="2.4" x1="1.2" y2="107.499" x2="21.2599"/>
  <rect  width="21.2599" x="0" y="106.299" fill="none" height="2.4" id="connector14pin" stroke-width="0" connectorName="TX2"/>
  <rect  width="2.4" x="0" y="106.299" fill="none" height="2.4" id="connector14terminal" stroke-width="0"/>
  <text  x="27.7399" y="109.899" font-family="Droid Sans" fill="#000000" text-anchor="start" stroke="none" id="label14" stroke-width="0" font-size="9.936">TX2</text>
  <line  fill="none" stroke="#000000" stroke-linejoin="round" stroke-linecap="round" y1="128.759" stroke-width="2.4" x1="1.2" y2="128.759" x2="21.2599"/>
  <rect  width="21.2599" x="0" y="127.559" fill="none" height="2.4" id="connector16pin" stroke-width="0" connectorName="TX"/>
  <rect  width="2.4" x="0" y="127.559" fill="none" height="2.4" id="connector16terminal" stroke-width="0"/>
  <text  x="27.7399" y="131.159" font-family="Droid Sans" fill="#000000" text-anchor="start" stroke="none" id="label16" stroke-width="0" font-size="9.936">TX</text>
  <line  fill="none" stroke="#000000" stroke-linejoin="round" stroke-linecap="round" y1="150.019" stroke-width="2.4" x1="1.2" y2="150.019" x2="21.2599"/>
  <rect  width="21.2599" x="0" y="148.819" fill="none" height="2.4" id="connector13pin" stroke-width="0" connectorName="RX2"/>
  <rect  width="2.4" x="0" y="148.819" fill="none" height="2.4" id="connector13terminal" stroke-width="0"/>
  <text  x="27.7399" y="152.419" font-family="Droid Sans" fill="#000000" text-anchor="start" stroke="none" id="label13" stroke-width="0" font-size="9.936">RX2</text>
  <line  fill="none" stroke="#000000" stroke-linejoin="round" stroke-linecap="round" y1="171.279" stroke-width="2.4" x1="1.2" y2="171.279" x2="21.2599"/>
  <rect  width="21.2599" x="0" y="170.078" fill="none" height="2.4" id="connector15pin" stroke-width="0" connectorName="RX"/>
  <rect  width="2.4" x="0" y="170.078" fill="none" height="2.4" id="connector15terminal" stroke-width="0"/>
  <text  x="27.7399" y="173.678" font-family="Droid Sans" fill="#000000" text-anchor="start" stroke="none" id="label15" stroke-width="0" font-size="9.936">RX</text>
  <line  fill="none" stroke="#000000" stroke-linejoin="round" stroke-linecap="round" y1="192.539" stroke-width="2.4" x1="1.2" y2="192.539" x2="21.2599"/>
  <rect  width="21.2599" x="0" y="191.339" fill="none" height="2.4" id="connector17pin" stroke-width="0" connectorName="EN"/>
  <rect  width="2.4" x="0" y="191.339" fill="none" height="2.4" id="connector17terminal" stroke-width="0"/>
  <text  x="27.7399" y="194.939" font-family="Droid Sans" fill="#000000" text-anchor="start" stroke="none" id="label17" stroke-width="0" font-size="9.936">EN</text>
  <line  fill="none" stroke="#000000" stroke-linejoin="round" stroke-linecap="round" y1="235.058" stroke-width="2.4" x1="1.2" y2="235.058" x2="21.2599"/>
  <rect  width="21.2599" x="0" y="233.858" fill="none" height="2.4" id="connector83pin" stroke-width="0" connectorName="RES"/>
  <rect  width="2.4" x="0" y="233.858" fill="none" height="2.4" id="connector83terminal" stroke-width="0"/>
  <text  x="27.7399" y="237.458" font-family="Droid Sans" fill="#000000" text-anchor="start" stroke="none" id="label83" stroke-width="0" font-size="9.936">RES</text>
  <line  fill="none" stroke="#000000" stroke-linejoin="round" stroke-linecap="round" y1="256.318" stroke-width="2.4" x1="1.2" y2="256.318" x2="21.2599"/>
  <rect  width="21.2599" x="0" y="255.118" fill="none" height="2.4" id="connector67pin" stroke-width="0" connectorName="AREF"/>
  <rect  width="2.4" x="0" y="255.118" fill="none" height="2.4" id="connector67terminal" stroke-width="0"/>
  <text  x="27.7399" y="258.718" font-family="Droid Sans" fill="#000000" text-anchor="start" stroke="none" id="label67" stroke-width="0" font-size="9.936">AREF</text>
  <line  fill="none" stroke="#000000" stroke-linejoin="round" stroke-linecap="round" y1="298.837" stroke-width="2.4" x1="1.2" y2="298.837" x2="21.2599"/>
  <rect  width="21.2599" x="0" y="297.638" fill="none" height="2.4" id="connector61pin" stroke-width="0" connectorName="A0"/>
  <rect  width="2.4" x="0" y="297.638" fill="none" height="2.4" id="connector61terminal" stroke-width="0"/>
  <text  x="27.7399" y="301.238" font-family="Droid Sans" fill="#000000" text-anchor="start" stroke="none" id="label61" stroke-width="0" font-size="9.936">A0</text>
  <line  fill="none" stroke="#000000" stroke-linejoin="round" stroke-linecap="round" y1="320.098" stroke-width="2.4" x1="1.2" y2="320.098" x2="21.2599"/>
  <rect  width="21.2599" x="0" y="318.897" fill="none" height="2.4" id="connector62pin" stroke-width="0" connectorName="A1"/>
  <rect  width="2.4" x="0" y="318.897" fill="none" height="2.4" id="connector62terminal" stroke-width="0"/>
  <text  x="27.7399" y="322.497" font-family="Droid Sans" fill="#000000" text-anchor="start" stroke="none" id="label62" stroke-width="0" font-size="9.936">A1</text>
  <line  fill="none" stroke="#000000" stroke-linejoin="round" stroke-linecap="round" y1="341.358" stroke-width="2.4" x1="1.2" y2="341.358" x2="21.2599"/>
  <rect  width="21.2599" x="0" y="340.158" fill="none" height="2.4" id="connector63pin" stroke-width="0" connectorName="A2"/>
  <rect  width="2.4" x="0" y="340.158" fill="none" height="2.4" id="connector63terminal" stroke-width="0"/>
  <text  x="27.7399" y="343.758" font-family="Droid Sans" fill="#000000" text-anchor="start" stroke="none" id="label63" stroke-width="0" font-size="9.936">A2</text>
  <line  fill="none" stroke="#000000" stroke-linejoin="round" stroke-linecap="round" y1="362.617" stroke-width="2.4" x1="1.2" y2="362.617" x2="21.2599"/>
  <rect  width="21.2599" x="0" y="361.418" fill="none" height="2.4" id="connector64pin" stroke-width="0" connectorName="A3"/>
  <rect  width="2.4" x="0" y="361.418" fill="none" height="2.4" id="connector64terminal" stroke-width="0"/>
  <text  x="27.7399" y="365.018" font-family="Droid Sans" fill="#000000" text-anchor="start" stroke="none" id="label64" stroke-width="0" font-size="9.936">A3</text>
  <line  fill="none" stroke="#000000" stroke-linejoin="round" stroke-linecap="round" y1="383.877" stroke-width="2.4" x1="1.2" y2="383.877" x2="21.2599"/>
  <rect  width="21.2599" x="0" y="382.677" fill="none" height="2.4" id="connector65pin" stroke-width="0" connectorName="A4"/>
  <rect  width="2.4" x="0" y="382.677" fill="none" height="2.4" id="connector65terminal" stroke-width="0"/>
  <text  x="27.7399" y="386.277" font-family="Droid Sans" fill="#000000" text-anchor="start" stroke="none" id="label65" stroke-width="0" font-size="9.936">A4</text>
  <line  fill="none" stroke="#000000" stroke-linejoin="round" stroke-linecap="round" y1="405.137" stroke-width="2.4" x1="1.2" y2="405.137" x2="21.2599"/>
  <rect  width="21.2599" x="0" y="403.937" fill="none" height="2.4" id="connector66pin" stroke-width="0" connectorName="A5"/>
  <rect  width="2.4" x="0" y="403.937" fill="none" height="2.4" id="connector66terminal" stroke-width="0"/>
  <text  x="27.7399" y="407.537" font-family="Droid Sans" fill="#000000" text-anchor="start" stroke="none" id="label66" stroke-width="0" font-size="9.936">A5</text>
  <line  fill="none" stroke="#000000" stroke-linejoin="round" stroke-linecap="round" y1="64.9795" stroke-width="2.4" x1="192.539" y2="64.9795" x2="213.798"/>
  <rect  width="21.2599" x="193.738" y="63.7795" fill="none" connectorname="D13" height="2.4" id="connector42pin" stroke-width="0"/>
  <rect  width="2.4" x="212.599" y="63.7795" fill="none" height="2.4" id="connector42terminal" stroke-width="0"/>
  <text  x="187.258" y="67.3795" font-family="Droid Sans" fill="#000000" text-anchor="end" stroke="none" id="label42" stroke-width="0" font-size="9.936">D13</text>
  <line  fill="none" stroke="#000000" stroke-linejoin="round" stroke-linecap="round" y1="86.2394" stroke-width="2.4" x1="192.539" y2="86.2394" x2="213.798"/>
  <rect  width="21.2599" x="193.738" y="85.0392" fill="none" connectorname="D12" height="2.4" id="connector41pin" stroke-width="0"/>
  <rect  width="2.4" x="212.599" y="85.0392" fill="none" height="2.4" id="connector41terminal" stroke-width="0"/>
  <text  x="187.258" y="88.6392" font-family="Droid Sans" fill="#000000" text-anchor="end" stroke="none" id="label41" stroke-width="0" font-size="9.936">D12</text>
  <line  fill="none" stroke="#000000" stroke-linejoin="round" stroke-linecap="round" y1="107.499" stroke-width="2.4" x1="192.539" y2="107.499" x2="213.798"/>
  <rect  width="21.2599" x="193.738" y="106.299" fill="none" connectorname="D11" height="2.4" id="connector40pin" stroke-width="0"/>
  <rect  width="2.4" x="212.599" y="106.299" fill="none" height="2.4" id="connector40terminal" stroke-width="0"/>
  <text  x="187.258" y="109.899" font-family="Droid Sans" fill="#000000" text-anchor="end" stroke="none" id="label40" stroke-width="0" font-size="9.936">D11</text>
  <line  fill="none" stroke="#000000" stroke-linejoin="round" stroke-linecap="round" y1="128.759" stroke-width="2.4" x1="192.539" y2="128.759" x2="213.798"/>
  <rect  width="21.2599" x="193.738" y="127.559" fill="none" connectorname="D10" height="2.4" id="connector39pin" stroke-width="0"/>
  <rect  width="2.4" x="212.599" y="127.559" fill="none" height="2.4" id="connector39terminal" stroke-width="0"/>
  <text  x="187.258" y="131.159" font-family="Droid Sans" fill="#000000" text-anchor="end" stroke="none" id="label39" stroke-width="0" font-size="9.936">D10</text>
  <line  fill="none" stroke="#000000" stroke-linejoin="round" stroke-linecap="round" y1="150.019" stroke-width="2.4" x1="192.539" y2="150.019" x2="213.798"/>
  <rect  width="21.2599" x="193.738" y="148.819" fill="none" connectorname="D9" height="2.4" id="connector38pin" stroke-width="0"/>
  <rect  width="2.4" x="212.599" y="148.819" fill="none" height="2.4" id="connector38terminal" stroke-width="0"/>
  <text  x="187.258" y="152.419" font-family="Droid Sans" fill="#000000" text-anchor="end" stroke="none" id="label38" stroke-width="0" font-size="9.936">D9</text>
  <line  fill="none" stroke="#000000" stroke-linejoin="round" stroke-linecap="round" y1="171.279" stroke-width="2.4" x1="192.539" y2="171.279" x2="213.798"/>
  <rect  width="21.2599" x="193.738" y="170.078" fill="none" connectorname="D8" height="2.4" id="connector37pin" stroke-width="0"/>
  <rect  width="2.4" x="212.599" y="170.078" fill="none" height="2.4" id="connector37terminal" stroke-width="0"/>
  <text  x="187.258" y="173.678" font-family="Droid Sans" fill="#000000" text-anchor="end" stroke="none" id="label37" stroke-width="0" font-size="9.936">D8</text>
  <line  fill="none" stroke="#000000" stroke-linejoin="round" stroke-linecap="round" y1="192.539" stroke-width="2.4" x1="192.539" y2="192.539" x2="213.798"/>
  <rect  width="21.2599" x="193.738" y="191.339" fill="none" connectorname="D7" height="2.4" id="connector27pin" stroke-width="0"/>
  <rect  width="2.4" x="212.599" y="191.339" fill="none" height="2.4" id="connector27terminal" stroke-width="0"/>
  <text  x="187.258" y="194.939" font-family="Droid Sans" fill="#000000" text-anchor="end" stroke="none" id="label27" stroke-width="0" font-size="9.936">D7</text>
  <line  fill="none" stroke="#000000" stroke-linejoin="round" stroke-linecap="round" y1="213.798" stroke-width="2.4" x1="192.539" y2="213.798" x2="213.798"/>
  <rect  width="21.2599" x="193.738" y="212.599" fill="none" connectorname="D6" height="2.4" id="connector26pin" stroke-width="0"/>
  <rect  width="2.4" x="212.599" y="212.599" fill="none" height="2.4" id="connector26terminal" stroke-width="0"/>
  <text  x="187.258" y="216.199" font-family="Droid Sans" fill="#000000" text-anchor="end" stroke="none" id="label26" stroke-width="0" font-size="9.936">D6</text>
  <line  fill="none" stroke="#000000" stroke-linejoin="round" stroke-linecap="round" y1="235.058" stroke-width="2.4" x1="192.539" y2="235.058" x2="213.798"/>
  <rect  width="21.2599" x="193.738" y="233.858" fill="none" connectorname="D5" height="2.4" id="connector25pin" stroke-width="0"/>
  <rect  width="2.4" x="212.599" y="233.858" fill="none" height="2.4" id="connector25terminal" stroke-width="0"/>
  <text  x="187.258" y="237.458" font-family="Droid Sans" fill="#000000" text-anchor="end" stroke="none" id="label25" stroke-width="0" font-size="9.936">D5</text>
  <line  fill="none" stroke="#000000" stroke-linejoin="round" stroke-linecap="round" y1="256.318" stroke-width="2.4" x1="192.539" y2="256.318" x2="213.798"/>
  <rect  width="21.2599" x="193.738" y="255.118" fill="none" connectorname="D4" height="2.4" id="connector24pin" stroke-width="0"/>
  <rect  width="2.4" x="212.599" y="255.118" fill="none" height="2.4" id="connector24terminal" stroke-width="0"/>
  <text  x="187.258" y="258.718" font-family="Droid Sans" fill="#000000" text-anchor="end" stroke="none" id="label24" stroke-width="0" font-size="9.936">D4</text>
  <line  fill="none" stroke="#000000" stroke-linejoin="round" stroke-linecap="round" y1="277.578" stroke-width="2.4" x1="192.539" y2="277.578" x2="213.798"/>
  <rect  width="21.2599" x="193.738" y="276.378" fill="none" connectorname="D_TX" height="2.4" id="connector23pin" stroke-width="0"/>
  <rect  width="2.4" x="212.599" y="276.378" fill="none" height="2.4" id="connector23terminal" stroke-width="0"/>
  <text  x="187.258" y="279.978" font-family="Droid Sans" fill="#000000" text-anchor="end" stroke="none" id="label23" stroke-width="0" font-size="9.936">D_TX</text>
  <line  fill="none" stroke="#000000" stroke-linejoin="round" stroke-linecap="round" y1="298.837" stroke-width="2.4" x1="192.539" y2="298.837" x2="213.798"/>
  <rect  width="21.2599" x="193.738" y="297.638" fill="none" connectorname="D_RX" height="2.4" id="connector22pin" stroke-width="0"/>
  <rect  width="2.4" x="212.599" y="297.638" fill="none" height="2.4" id="connector22terminal" stroke-width="0"/>
  <text  x="187.258" y="301.238" font-family="Droid Sans" fill="#000000" text-anchor="end" stroke="none" id="label22" stroke-width="0" font-size="9.936">D_RX</text>
  <line  fill="none" stroke="#000000" stroke-linejoin="round" stroke-linecap="round" y1="320.098" stroke-width="2.4" x1="192.539" y2="320.098" x2="213.798"/>
  <rect  width="21.2599" x="193.738" y="318.897" fill="none" connectorname="UART_TX" height="2.4" id="connector21pin" stroke-width="0"/>
  <rect  width="2.4" x="212.599" y="318.897" fill="none" height="2.4" id="connector21terminal" stroke-width="0"/>
  <text  x="187.258" y="322.497" font-family="Droid Sans" fill="#000000" text-anchor="end" stroke="none" id="label21" stroke-width="0" font-size="9.936">UART_TX</text>
  <line  fill="none" stroke="#000000" stroke-linejoin="round" stroke-linecap="round" y1="341.358" stroke-width="2.4" x1="192.539" y2="341.358" x2="213.798"/>
  <rect  width="21.2599" x="193.738" y="340.158" fill="none" connectorname="UART_RX" height="2.4" id="connector20pin" stroke-width="0"/>
  <rect  width="2.4" x="212.599" y="340.158" fill="none" height="2.4" id="connector20terminal" stroke-width="0"/>
  <text  x="187.258" y="343.758" font-family="Droid Sans" fill="#000000" text-anchor="end" stroke="none" id="label20" stroke-width="0" font-size="9.936">UART_RX</text>
  <line  fill="none" stroke="#000000" stroke-linejoin="round" stroke-linecap="round" y1="1.2" stroke-width="2.4" x1="33.0898" y2="21.2599" x2="33.0898"/>
  <rect  width="2.4" x="31.8897" y="0" fill="none" connectorname="3.3V" height="21.2599" id="connector18pin" stroke-width="0"/>
  <rect  width="2.4" x="31.8897" y="0" fill="none" height="0" id="connector18terminal" stroke-width="0"/>
  <text  x="33.0898" y="33.8599" font-family="Droid Sans" fill="#000000" text-anchor="middle" stroke="none" id="label18" stroke-width="0" font-size="9.936">3.3V</text>
  <line  fill="none" stroke="#000000" stroke-linejoin="round" stroke-linecap="round" y1="1.2" stroke-width="2.4" x1="54.3496" y2="21.2599" x2="54.3496"/>
  <rect  width="2.4" x="53.1496" y="0" fill="none" connectorname="5V" height="21.2599" id="connector19pin" stroke-width="0"/>
  <rect  width="2.4" x="53.1496" y="0" fill="none" height="0" id="connector19terminal" stroke-width="0"/>
  <text  x="54.3496" y="33.8599" font-family="Droid Sans" fill="#000000" text-anchor="middle" stroke="none" id="label19" stroke-width="0" font-size="9.936">5V</text>
  <line  fill="none" stroke="#000000" stroke-linejoin="round" stroke-linecap="round" y1="1.2" stroke-width="2.4" x1="75.6094" y2="21.2599" x2="75.6094"/>
  <rect  width="2.4" x="74.4091" y="0" fill="none" connectorname="VIN" height="21.2599" id="connector86pin" stroke-width="0"/>
  <rect  width="2.4" x="74.4091" y="0" fill="none" height="0" id="connector86terminal" stroke-width="0"/>
  <text  x="75.6094" y="33.8599" font-family="Droid Sans" fill="#000000" text-anchor="middle" stroke="none" id="label86" stroke-width="0" font-size="9.936">VIN</text>
  <line  fill="none" stroke="#000000" stroke-linejoin="round" stroke-linecap="round" y1="1.2" stroke-width="2.4" x1="96.8695" y2="21.2599" x2="96.8695"/>
  <rect  width="2.4" x="95.6693" y="0" fill="none" connectorname="3.3VIN" height="21.2599" id="connector59pin" stroke-width="0"/>
  <rect  width="2.4" x="95.6693" y="0" fill="none" height="0" id="connector59terminal" stroke-width="0"/>
  <text  x="96.8695" y="33.8599" font-family="Droid Sans" fill="#000000" text-anchor="middle" stroke="none" id="label59" stroke-width="0" font-size="9.936">3.3VIN</text>
  <line  fill="none" stroke="#000000" stroke-linejoin="round" stroke-linecap="round" y1="1.2" stroke-width="2.4" x1="118.129" y2="21.2599" x2="118.129"/>
  <rect  width="2.4" x="116.929" y="0" fill="none" connectorname="5VIN" height="21.2599" id="connector60pin" stroke-width="0"/>
  <rect  width="2.4" x="116.929" y="0" fill="none" height="0" id="connector60terminal" stroke-width="0"/>
  <text  x="118.129" y="33.8599" font-family="Droid Sans" fill="#000000" text-anchor="middle" stroke="none" id="label60" stroke-width="0" font-size="9.936">5VIN</text>
  <line  fill="none" stroke="#000000" stroke-linejoin="round" stroke-linecap="round" y1="1.2" stroke-width="2.4" x1="139.389" y2="21.2599" x2="139.389"/>
  <rect  width="2.4" x="138.189" y="0" fill="none" connectorname="BATT" height="21.2599" id="connector11pin" stroke-width="0"/>
  <rect  width="2.4" x="138.189" y="0" fill="none" height="0" id="connector11terminal" stroke-width="0"/>
  <text  x="139.389" y="33.8599" font-family="Droid Sans" fill="#000000" text-anchor="middle" stroke="none" id="label11" stroke-width="0" font-size="9.936">BATT</text>
  <line  fill="none" stroke="#000000" stroke-linejoin="round" stroke-linecap="round" y1="448.857" stroke-width="2.4" x1="107.499" y2="468.917" x2="107.499"/>
  <rect  width="2.4" x="106.299" y="448.857" fill="none" connectorname="GND" height="21.2599" id="connector9pin" stroke-width="0"/>
  <rect  width="2.4" x="106.299" y="470.117" fill="none" height="0" id="connector9terminal" stroke-width="0"/>
  <text  x="107.499" y="443.097" font-family="Droid Sans" fill="#000000" text-anchor="middle" stroke="none" id="label9" stroke-width="0" font-size="9.936">GND</text>
  <rect  width="2.4" x="106.299" y="448.857" fill="none" connectorname="GND" height="21.2599" id="connector28pin" stroke-width="0"/>
  <rect  width="2.4" x="106.299" y="470.117" fill="none" height="0" id="connector28terminal" stroke-width="0"/>
  <rect  width="2.4" x="106.299" y="448.857" fill="none" connectorname="GND" height="21.2599" id="connector29pin" stroke-width="0"/>
  <rect  width="2.4" x="106.299" y="470.117" fill="none" height="0" id="connector29terminal" stroke-width="0"/>
  <rect  width="2.4" x="106.299" y="448.857" fill="none" connectorname="GND" height="21.2599" id="connector30pin" stroke-width="0"/>
  <rect  width="2.4" x="106.299" y="470.117" fill="none" height="0" id="connector30terminal" stroke-width="0"/>
  <rect  width="2.4" x="106.299" y="448.857" fill="none" connectorname="GND" height="21.2599" id="connector31pin" stroke-width="0"/>
  <rect  width="2.4" x="106.299" y="470.117" fill="none" height="0" id="connector31terminal" stroke-width="0"/>
  <rect  width="2.4" x="106.299" y="448.857" fill="none" connectorname="GND" height="21.2599" id="connector32pin" stroke-width="0"/>
  <rect  width="2.4" x="106.299" y="470.117" fill="none" height="0" id="connector32terminal" stroke-width="0"/>
  <rect  width="2.4" x="106.299" y="448.857" fill="none" connectorname="GND" height="21.2599" id="connector33pin" stroke-width="0"/>
  <rect  width="2.4" x="106.299" y="470.117" fill="none" height="0" id="connector33terminal" stroke-width="0"/>
  <rect  width="2.4" x="106.299" y="448.857" fill="none" connectorname="GND" height="21.2599" id="connector34pin" stroke-width="0"/>
  <rect  width="2.4" x="106.299" y="470.117" fill="none" height="0" id="connector34terminal" stroke-width="0"/>
  <rect  width="2.4" x="106.299" y="448.857" fill="none" connectorname="GND" height="21.2599" id="connector80pin" stroke-width="0"/>
  <rect  width="2.4" x="106.299" y="470.117" fill="none" height="0" id="connector80terminal" stroke-width="0"/>
  <rect  width="2.4" x="106.299" y="448.857" fill="none" connectorname="GND" height="21.2599" id="connector81pin" stroke-width="0"/>
  <rect  width="2.4" x="106.299" y="470.117" fill="none" height="0" id="connector81terminal" stroke-width="0"/>
  <rect  width="2.4" x="106.299" y="448.857" fill="none" connectorname="GND" height="21.2599" id="connector82pin" stroke-width="0"/>
  <rect  width="2.4" x="106.299" y="470.117" fill="none" height="0" id="connector82terminal" stroke-width="0"/>
  <rect  width="21.2599" x="193.738" y="63.7795" fill="none" connectorname="D13" height="2.4" id="connector79pin" stroke-width="0"/>
  <rect  width="2.4" x="212.599" y="63.7795" fill="none" height="2.4" id="connector79terminal" stroke-width="0"/>
  <rect  width="21.2599" x="193.738" y="85.0392" fill="none" connectorname="D12" height="2.4" id="connector78pin" stroke-width="0"/>
  <rect  width="2.4" x="212.599" y="85.0392" fill="none" height="2.4" id="connector78terminal" stroke-width="0"/>
  <rect  width="21.2599" x="193.738" y="106.299" fill="none" connectorname="D11" height="2.4" id="connector77pin" stroke-width="0"/>
  <rect  width="2.4" x="212.599" y="106.299" fill="none" height="2.4" id="connector77terminal" stroke-width="0"/>
  <rect  width="21.2599" x="193.738" y="127.559" fill="none" connectorname="D10" height="2.4" id="connector76pin" stroke-width="0"/>
  <rect  width="2.4" x="212.599" y="127.559" fill="none" height="2.4" id="connector76terminal" stroke-width="0"/>
  <rect  width="21.2599" x="193.738" y="148.819" fill="none" connectorname="D9" height="2.4" id="connector75pin" stroke-width="0"/>
  <rect  width="2.4" x="212.599" y="148.819" fill="none" height="2.4" id="connector75terminal" stroke-width="0"/>
  <rect  width="21.2599" x="193.738" y="170.078" fill="none" connectorname="D8" height="2.4" id="connector74pin" stroke-width="0"/>
  <rect  width="2.4" x="212.599" y="170.078" fill="none" height="2.4" id="connector74terminal" stroke-width="0"/>
  <rect  width="21.2599" x="193.738" y="191.339" fill="none" connectorname="D7" height="2.4" id="connector73pin" stroke-width="0"/>
  <rect  width="2.4" x="212.599" y="191.339" fill="none" height="2.4" id="connector73terminal" stroke-width="0"/>
  <rect  width="21.2599" x="193.738" y="212.599" fill="none" connectorname="D6" height="2.4" id="connector72pin" stroke-width="0"/>
  <rect  width="2.4" x="212.599" y="212.599" fill="none" height="2.4" id="connector72terminal" stroke-width="0"/>
  <rect  width="21.2599" x="193.738" y="233.858" fill="none" connectorname="D5" height="2.4" id="connector71pin" stroke-width="0"/>
  <rect  width="2.4" x="212.599" y="233.858" fill="none" height="2.4" id="connector71terminal" stroke-width="0"/>
  <rect  width="21.2599" x="193.738" y="255.118" fill="none" connectorname="D4" height="2.4" id="connector70pin" stroke-width="0"/>
  <rect  width="2.4" x="212.599" y="255.118" fill="none" height="2.4" id="connector70terminal" stroke-width="0"/>
  <rect  width="21.2599" x="193.738" y="276.378" fill="none" connectorname="D_TX" height="2.4" id="connector69pin" stroke-width="0"/>
  <rect  width="2.4" x="212.599" y="276.378" fill="none" height="2.4" id="connector69terminal" stroke-width="0"/>
  <rect  width="21.2599" x="193.738" y="297.638" fill="none" connectorname="D_RX" height="2.4" id="connector68pin" stroke-width="0"/>
  <rect  width="2.4" x="212.599" y="297.638" fill="none" height="2.4" id="connector68terminal" stroke-width="0"/>
  <rect  width="21.2599" x="193.738" y="318.897" fill="none" connectorname="UART_TX" height="2.4" id="connector85pin" stroke-width="0"/>
  <rect  width="2.4" x="212.599" y="318.897" fill="none" height="2.4" id="connector85terminal" stroke-width="0"/>
  <rect  width="21.2599" x="193.738" y="340.158" fill="none" connectorname="UART_RX" height="2.4" id="connector84pin" stroke-width="0"/>
  <rect  width="2.4" x="212.599" y="340.158" fill="none" height="2.4" id="connector84terminal" stroke-width="0"/>
 </g>
</svg>
