<?xml version='1.0' encoding='UTF-8' standalone='no'?>
<!-- Created with Fritzing (http://www.fritzing.org/) -->
<svg xmlns="http://www.w3.org/2000/svg" width="3.57664in" x="0in" version="1.2" y="0in" height="11.5491in" viewBox="0 0 257.518 831.535" baseProfile="tiny">
 <desc >Fritzing schematic generated by brd2svg</desc>
 <g  id="schematic" stroke-width="0">
  <rect  width="212.599" x="22.4598" y="22.4598" fill="none" height="786.614" stroke="#000000" stroke-linejoin="round" stroke-linecap="round" stroke-width="2.4"/>
  <text  x="128.759" y="64.9795" font-family="Droid Sans" fill="#000000" text-anchor="middle" stroke="none" id="label" stroke-width="0" font-size="18">arduinoXbeere</text>
  <line  fill="none" stroke="#000000" stroke-linejoin="round" stroke-linecap="round" y1="64.9795" stroke-width="2.4" x1="1.2" y2="64.9795" x2="21.2599"/>
  <rect  width="21.2599" x="0" y="63.7795" fill="none" height="2.4" id="connector15pin" stroke-width="0" connectorName="RESET"/>
  <rect  width="2.4" x="0" y="63.7795" fill="none" height="2.4" id="connector15terminal" stroke-width="0"/>
  <text  x="27.7399" y="67.3795" font-family="Droid Sans" fill="#000000" text-anchor="start" stroke="none" id="label15" stroke-width="0" font-size="9.936">RESET</text>
  <line  fill="none" stroke="#000000" stroke-linejoin="round" stroke-linecap="round" y1="107.499" stroke-width="2.4" x1="1.2" y2="107.499" x2="21.2599"/>
  <rect  width="21.2599" x="0" y="106.299" fill="none" height="2.4" id="connector52pin" stroke-width="0" connectorName="A0"/>
  <rect  width="2.4" x="0" y="106.299" fill="none" height="2.4" id="connector52terminal" stroke-width="0"/>
  <text  x="27.7399" y="109.899" font-family="Droid Sans" fill="#000000" text-anchor="start" stroke="none" id="label52" stroke-width="0" font-size="9.936">A0</text>
  <line  fill="none" stroke="#000000" stroke-linejoin="round" stroke-linecap="round" y1="128.759" stroke-width="2.4" x1="1.2" y2="128.759" x2="21.2599"/>
  <rect  width="21.2599" x="0" y="127.559" fill="none" height="2.4" id="connector51pin" stroke-width="0" connectorName="A1"/>
  <rect  width="2.4" x="0" y="127.559" fill="none" height="2.4" id="connector51terminal" stroke-width="0"/>
  <text  x="27.7399" y="131.159" font-family="Droid Sans" fill="#000000" text-anchor="start" stroke="none" id="label51" stroke-width="0" font-size="9.936">A1</text>
  <line  fill="none" stroke="#000000" stroke-linejoin="round" stroke-linecap="round" y1="150.019" stroke-width="2.4" x1="1.2" y2="150.019" x2="21.2599"/>
  <rect  width="21.2599" x="0" y="148.819" fill="none" height="2.4" id="connector50pin" stroke-width="0" connectorName="A2"/>
  <rect  width="2.4" x="0" y="148.819" fill="none" height="2.4" id="connector50terminal" stroke-width="0"/>
  <text  x="27.7399" y="152.419" font-family="Droid Sans" fill="#000000" text-anchor="start" stroke="none" id="label50" stroke-width="0" font-size="9.936">A2</text>
  <line  fill="none" stroke="#000000" stroke-linejoin="round" stroke-linecap="round" y1="171.279" stroke-width="2.4" x1="1.2" y2="171.279" x2="21.2599"/>
  <rect  width="21.2599" x="0" y="170.078" fill="none" height="2.4" id="connector49pin" stroke-width="0" connectorName="A3"/>
  <rect  width="2.4" x="0" y="170.078" fill="none" height="2.4" id="connector49terminal" stroke-width="0"/>
  <text  x="27.7399" y="173.678" font-family="Droid Sans" fill="#000000" text-anchor="start" stroke="none" id="label49" stroke-width="0" font-size="9.936">A3</text>
  <line  fill="none" stroke="#000000" stroke-linejoin="round" stroke-linecap="round" y1="192.539" stroke-width="2.4" x1="1.2" y2="192.539" x2="21.2599"/>
  <rect  width="21.2599" x="0" y="191.339" fill="none" height="2.4" id="connector48pin" stroke-width="0" connectorName="A4"/>
  <rect  width="2.4" x="0" y="191.339" fill="none" height="2.4" id="connector48terminal" stroke-width="0"/>
  <text  x="27.7399" y="194.939" font-family="Droid Sans" fill="#000000" text-anchor="start" stroke="none" id="label48" stroke-width="0" font-size="9.936">A4</text>
  <line  fill="none" stroke="#000000" stroke-linejoin="round" stroke-linecap="round" y1="213.798" stroke-width="2.4" x1="1.2" y2="213.798" x2="21.2599"/>
  <rect  width="21.2599" x="0" y="212.599" fill="none" height="2.4" id="connector47pin" stroke-width="0" connectorName="A5"/>
  <rect  width="2.4" x="0" y="212.599" fill="none" height="2.4" id="connector47terminal" stroke-width="0"/>
  <text  x="27.7399" y="216.199" font-family="Droid Sans" fill="#000000" text-anchor="start" stroke="none" id="label47" stroke-width="0" font-size="9.936">A5</text>
  <line  fill="none" stroke="#000000" stroke-linejoin="round" stroke-linecap="round" y1="64.9795" stroke-width="2.4" x1="235.058" y2="64.9795" x2="256.318"/>
  <rect  width="21.2599" x="236.258" y="63.7795" fill="none" connectorname="DOUT" height="2.4" id="connector36pin" stroke-width="0"/>
  <rect  width="2.4" x="255.118" y="63.7795" fill="none" height="2.4" id="connector36terminal" stroke-width="0"/>
  <text  x="229.778" y="67.3795" font-family="Droid Sans" fill="#000000" text-anchor="end" stroke="none" id="label36" stroke-width="0" font-size="9.936">DOUT</text>
  <line  fill="none" stroke="#000000" stroke-linejoin="round" stroke-linecap="round" y1="86.2394" stroke-width="2.4" x1="235.058" y2="86.2394" x2="256.318"/>
  <rect  width="21.2599" x="236.258" y="85.0392" fill="none" connectorname="2" height="2.4" id="connector39pin" stroke-width="0"/>
  <rect  width="2.4" x="255.118" y="85.0392" fill="none" height="2.4" id="connector39terminal" stroke-width="0"/>
  <text  x="229.778" y="88.6392" font-family="Droid Sans" fill="#000000" text-anchor="end" stroke="none" id="label39" stroke-width="0" font-size="9.936">2</text>
  <line  fill="none" stroke="#000000" stroke-linejoin="round" stroke-linecap="round" y1="107.499" stroke-width="2.4" x1="235.058" y2="107.499" x2="256.318"/>
  <rect  width="21.2599" x="236.258" y="106.299" fill="none" connectorname="1" height="2.4" id="connector11pin" stroke-width="0"/>
  <rect  width="2.4" x="255.118" y="106.299" fill="none" height="2.4" id="connector11terminal" stroke-width="0"/>
  <text  x="229.778" y="109.899" font-family="Droid Sans" fill="#000000" text-anchor="end" stroke="none" id="label11" stroke-width="0" font-size="9.936">1</text>
  <line  fill="none" stroke="#000000" stroke-linejoin="round" stroke-linecap="round" y1="128.759" stroke-width="2.4" x1="235.058" y2="128.759" x2="256.318"/>
  <rect  width="21.2599" x="236.258" y="127.559" fill="none" connectorname="3" height="2.4" id="connector13pin" stroke-width="0"/>
  <rect  width="2.4" x="255.118" y="127.559" fill="none" height="2.4" id="connector13terminal" stroke-width="0"/>
  <text  x="229.778" y="131.159" font-family="Droid Sans" fill="#000000" text-anchor="end" stroke="none" id="label13" stroke-width="0" font-size="9.936">3</text>
  <line  fill="none" stroke="#000000" stroke-linejoin="round" stroke-linecap="round" y1="150.019" stroke-width="2.4" x1="235.058" y2="150.019" x2="256.318"/>
  <rect  width="21.2599" x="236.258" y="148.819" fill="none" connectorname="4" height="2.4" id="connector14pin" stroke-width="0"/>
  <rect  width="2.4" x="255.118" y="148.819" fill="none" height="2.4" id="connector14terminal" stroke-width="0"/>
  <text  x="229.778" y="152.419" font-family="Droid Sans" fill="#000000" text-anchor="end" stroke="none" id="label14" stroke-width="0" font-size="9.936">4</text>
  <line  fill="none" stroke="#000000" stroke-linejoin="round" stroke-linecap="round" y1="213.798" stroke-width="2.4" x1="235.058" y2="213.798" x2="256.318"/>
  <rect  width="21.2599" x="236.258" y="212.599" fill="none" connectorname="D7" height="2.4" id="connector24pin" stroke-width="0"/>
  <rect  width="2.4" x="255.118" y="212.599" fill="none" height="2.4" id="connector24terminal" stroke-width="0"/>
  <text  x="229.778" y="216.199" font-family="Droid Sans" fill="#000000" text-anchor="end" stroke="none" id="label24" stroke-width="0" font-size="9.936">D7</text>
  <line  fill="none" stroke="#000000" stroke-linejoin="round" stroke-linecap="round" y1="235.058" stroke-width="2.4" x1="235.058" y2="235.058" x2="256.318"/>
  <rect  width="21.2599" x="236.258" y="233.858" fill="none" connectorname="D6" height="2.4" id="connector23pin" stroke-width="0"/>
  <rect  width="2.4" x="255.118" y="233.858" fill="none" height="2.4" id="connector23terminal" stroke-width="0"/>
  <text  x="229.778" y="237.458" font-family="Droid Sans" fill="#000000" text-anchor="end" stroke="none" id="label23" stroke-width="0" font-size="9.936">D6</text>
  <line  fill="none" stroke="#000000" stroke-linejoin="round" stroke-linecap="round" y1="256.318" stroke-width="2.4" x1="235.058" y2="256.318" x2="256.318"/>
  <rect  width="21.2599" x="236.258" y="255.118" fill="none" connectorname="D5" height="2.4" id="connector22pin" stroke-width="0"/>
  <rect  width="2.4" x="255.118" y="255.118" fill="none" height="2.4" id="connector22terminal" stroke-width="0"/>
  <text  x="229.778" y="258.718" font-family="Droid Sans" fill="#000000" text-anchor="end" stroke="none" id="label22" stroke-width="0" font-size="9.936">D5</text>
  <line  fill="none" stroke="#000000" stroke-linejoin="round" stroke-linecap="round" y1="277.578" stroke-width="2.4" x1="235.058" y2="277.578" x2="256.318"/>
  <rect  width="21.2599" x="236.258" y="276.378" fill="none" connectorname="D4" height="2.4" id="connector21pin" stroke-width="0"/>
  <rect  width="2.4" x="255.118" y="276.378" fill="none" height="2.4" id="connector21terminal" stroke-width="0"/>
  <text  x="229.778" y="279.978" font-family="Droid Sans" fill="#000000" text-anchor="end" stroke="none" id="label21" stroke-width="0" font-size="9.936">D4</text>
  <line  fill="none" stroke="#000000" stroke-linejoin="round" stroke-linecap="round" y1="298.837" stroke-width="2.4" x1="235.058" y2="298.837" x2="256.318"/>
  <rect  width="21.2599" x="236.258" y="297.638" fill="none" connectorname="D3" height="2.4" id="connector20pin" stroke-width="0"/>
  <rect  width="2.4" x="255.118" y="297.638" fill="none" height="2.4" id="connector20terminal" stroke-width="0"/>
  <text  x="229.778" y="301.238" font-family="Droid Sans" fill="#000000" text-anchor="end" stroke="none" id="label20" stroke-width="0" font-size="9.936">D3</text>
  <line  fill="none" stroke="#000000" stroke-linejoin="round" stroke-linecap="round" y1="320.098" stroke-width="2.4" x1="235.058" y2="320.098" x2="256.318"/>
  <rect  width="21.2599" x="236.258" y="318.897" fill="none" connectorname="D2" height="2.4" id="connector19pin" stroke-width="0"/>
  <rect  width="2.4" x="255.118" y="318.897" fill="none" height="2.4" id="connector19terminal" stroke-width="0"/>
  <text  x="229.778" y="322.497" font-family="Droid Sans" fill="#000000" text-anchor="end" stroke="none" id="label19" stroke-width="0" font-size="9.936">D2</text>
  <line  fill="none" stroke="#000000" stroke-linejoin="round" stroke-linecap="round" y1="341.358" stroke-width="2.4" x1="235.058" y2="341.358" x2="256.318"/>
  <rect  width="21.2599" x="236.258" y="340.158" fill="none" connectorname="M8TXD" height="2.4" id="connector18pin" stroke-width="0"/>
  <rect  width="2.4" x="255.118" y="340.158" fill="none" height="2.4" id="connector18terminal" stroke-width="0"/>
  <text  x="229.778" y="343.758" font-family="Droid Sans" fill="#000000" text-anchor="end" stroke="none" id="label18" stroke-width="0" font-size="9.936">M8TXD</text>
  <line  fill="none" stroke="#000000" stroke-linejoin="round" stroke-linecap="round" y1="362.617" stroke-width="2.4" x1="235.058" y2="362.617" x2="256.318"/>
  <rect  width="21.2599" x="236.258" y="361.418" fill="none" connectorname="M8RXD" height="2.4" id="connector17pin" stroke-width="0"/>
  <rect  width="2.4" x="255.118" y="361.418" fill="none" height="2.4" id="connector17terminal" stroke-width="0"/>
  <text  x="229.778" y="365.018" font-family="Droid Sans" fill="#000000" text-anchor="end" stroke="none" id="label17" stroke-width="0" font-size="9.936">M8RXD</text>
  <line  fill="none" stroke="#000000" stroke-linejoin="round" stroke-linecap="round" y1="426.397" stroke-width="2.4" x1="235.058" y2="426.397" x2="256.318"/>
  <rect  width="21.2599" x="236.258" y="425.197" fill="none" connectorname="4" height="2.4" id="connector67pin" stroke-width="0"/>
  <rect  width="2.4" x="255.118" y="425.197" fill="none" height="2.4" id="connector67terminal" stroke-width="0"/>
  <text  x="229.778" y="428.797" font-family="Droid Sans" fill="#000000" text-anchor="end" stroke="none" id="label67" stroke-width="0" font-size="9.936">4</text>
  <line  fill="none" stroke="#000000" stroke-linejoin="round" stroke-linecap="round" y1="447.656" stroke-width="2.4" x1="235.058" y2="447.656" x2="256.318"/>
  <rect  width="21.2599" x="236.258" y="446.457" fill="none" connectorname="8" height="2.4" id="connector63pin" stroke-width="0"/>
  <rect  width="2.4" x="255.118" y="446.457" fill="none" height="2.4" id="connector63terminal" stroke-width="0"/>
  <text  x="229.778" y="450.057" font-family="Droid Sans" fill="#000000" text-anchor="end" stroke="none" id="label63" stroke-width="0" font-size="9.936">8</text>
  <line  fill="none" stroke="#000000" stroke-linejoin="round" stroke-linecap="round" y1="468.917" stroke-width="2.4" x1="235.058" y2="468.917" x2="256.318"/>
  <rect  width="21.2599" x="236.258" y="467.716" fill="none" connectorname="9" height="2.4" id="connector62pin" stroke-width="0"/>
  <rect  width="2.4" x="255.118" y="467.716" fill="none" height="2.4" id="connector62terminal" stroke-width="0"/>
  <text  x="229.778" y="471.316" font-family="Droid Sans" fill="#000000" text-anchor="end" stroke="none" id="label62" stroke-width="0" font-size="9.936">9</text>
  <line  fill="none" stroke="#000000" stroke-linejoin="round" stroke-linecap="round" y1="490.177" stroke-width="2.4" x1="235.058" y2="490.177" x2="256.318"/>
  <rect  width="21.2599" x="236.258" y="488.976" fill="none" connectorname="13" height="2.4" id="connector32pin" stroke-width="0"/>
  <rect  width="2.4" x="255.118" y="488.976" fill="none" height="2.4" id="connector32terminal" stroke-width="0"/>
  <text  x="229.778" y="492.576" font-family="Droid Sans" fill="#000000" text-anchor="end" stroke="none" id="label32" stroke-width="0" font-size="9.936">13</text>
  <line  fill="none" stroke="#000000" stroke-linejoin="round" stroke-linecap="round" y1="511.436" stroke-width="2.4" x1="235.058" y2="511.436" x2="256.318"/>
  <rect  width="21.2599" x="236.258" y="510.236" fill="none" connectorname="14" height="2.4" id="connector31pin" stroke-width="0"/>
  <rect  width="2.4" x="255.118" y="510.236" fill="none" height="2.4" id="connector31terminal" stroke-width="0"/>
  <text  x="229.778" y="513.836" font-family="Droid Sans" fill="#000000" text-anchor="end" stroke="none" id="label31" stroke-width="0" font-size="9.936">14</text>
  <line  fill="none" stroke="#000000" stroke-linejoin="round" stroke-linecap="round" y1="532.696" stroke-width="2.4" x1="235.058" y2="532.696" x2="256.318"/>
  <rect  width="21.2599" x="236.258" y="531.496" fill="none" connectorname="15" height="2.4" id="connector30pin" stroke-width="0"/>
  <rect  width="2.4" x="255.118" y="531.496" fill="none" height="2.4" id="connector30terminal" stroke-width="0"/>
  <text  x="229.778" y="535.096" font-family="Droid Sans" fill="#000000" text-anchor="end" stroke="none" id="label30" stroke-width="0" font-size="9.936">15</text>
  <line  fill="none" stroke="#000000" stroke-linejoin="round" stroke-linecap="round" y1="553.956" stroke-width="2.4" x1="235.058" y2="553.956" x2="256.318"/>
  <rect  width="21.2599" x="236.258" y="552.756" fill="none" connectorname="RST" height="2.4" id="connector66pin" stroke-width="0"/>
  <rect  width="2.4" x="255.118" y="552.756" fill="none" height="2.4" id="connector66terminal" stroke-width="0"/>
  <text  x="229.778" y="556.356" font-family="Droid Sans" fill="#000000" text-anchor="end" stroke="none" id="label66" stroke-width="0" font-size="9.936">RST</text>
  <line  fill="none" stroke="#000000" stroke-linejoin="round" stroke-linecap="round" y1="575.216" stroke-width="2.4" x1="235.058" y2="575.216" x2="256.318"/>
  <rect  width="21.2599" x="236.258" y="574.016" fill="none" connectorname="PWM1" height="2.4" id="connector64pin" stroke-width="0"/>
  <rect  width="2.4" x="255.118" y="574.016" fill="none" height="2.4" id="connector64terminal" stroke-width="0"/>
  <text  x="229.778" y="577.616" font-family="Droid Sans" fill="#000000" text-anchor="end" stroke="none" id="label64" stroke-width="0" font-size="9.936">PWM1</text>
  <line  fill="none" stroke="#000000" stroke-linejoin="round" stroke-linecap="round" y1="596.475" stroke-width="2.4" x1="235.058" y2="596.475" x2="256.318"/>
  <rect  width="21.2599" x="236.258" y="595.276" fill="none" connectorname="PWM0" height="2.4" id="connector65pin" stroke-width="0"/>
  <rect  width="2.4" x="255.118" y="595.276" fill="none" height="2.4" id="connector65terminal" stroke-width="0"/>
  <text  x="229.778" y="598.876" font-family="Droid Sans" fill="#000000" text-anchor="end" stroke="none" id="label65" stroke-width="0" font-size="9.936">PWM0</text>
  <line  fill="none" stroke="#000000" stroke-linejoin="round" stroke-linecap="round" y1="617.736" stroke-width="2.4" x1="235.058" y2="617.736" x2="256.318"/>
  <rect  width="21.2599" x="236.258" y="616.535" fill="none" connectorname="I/08" height="2.4" id="connector25pin" stroke-width="0"/>
  <rect  width="2.4" x="255.118" y="616.535" fill="none" height="2.4" id="connector25terminal" stroke-width="0"/>
  <text  x="229.778" y="620.135" font-family="Droid Sans" fill="#000000" text-anchor="end" stroke="none" id="label25" stroke-width="0" font-size="9.936">I/08</text>
  <line  fill="none" stroke="#000000" stroke-linejoin="round" stroke-linecap="round" y1="638.995" stroke-width="2.4" x1="235.058" y2="638.995" x2="256.318"/>
  <rect  width="21.2599" x="236.258" y="637.795" fill="none" connectorname="I/07" height="2.4" id="connector33pin" stroke-width="0"/>
  <rect  width="2.4" x="255.118" y="637.795" fill="none" height="2.4" id="connector33terminal" stroke-width="0"/>
  <text  x="229.778" y="641.395" font-family="Droid Sans" fill="#000000" text-anchor="end" stroke="none" id="label33" stroke-width="0" font-size="9.936">I/07</text>
  <line  fill="none" stroke="#000000" stroke-linejoin="round" stroke-linecap="round" y1="660.255" stroke-width="2.4" x1="235.058" y2="660.255" x2="256.318"/>
  <rect  width="21.2599" x="236.258" y="659.055" fill="none" connectorname="I/06" height="2.4" id="connector28pin" stroke-width="0"/>
  <rect  width="2.4" x="255.118" y="659.055" fill="none" height="2.4" id="connector28terminal" stroke-width="0"/>
  <text  x="229.778" y="662.655" font-family="Droid Sans" fill="#000000" text-anchor="end" stroke="none" id="label28" stroke-width="0" font-size="9.936">I/06</text>
  <line  fill="none" stroke="#000000" stroke-linejoin="round" stroke-linecap="round" y1="681.515" stroke-width="2.4" x1="235.058" y2="681.515" x2="256.318"/>
  <rect  width="21.2599" x="236.258" y="680.315" fill="none" connectorname="I/05" height="2.4" id="connector29pin" stroke-width="0"/>
  <rect  width="2.4" x="255.118" y="680.315" fill="none" height="2.4" id="connector29terminal" stroke-width="0"/>
  <text  x="229.778" y="683.915" font-family="Droid Sans" fill="#000000" text-anchor="end" stroke="none" id="label29" stroke-width="0" font-size="9.936">I/05</text>
  <line  fill="none" stroke="#000000" stroke-linejoin="round" stroke-linecap="round" y1="702.775" stroke-width="2.4" x1="235.058" y2="702.775" x2="256.318"/>
  <rect  width="21.2599" x="236.258" y="701.574" fill="none" connectorname="I/04" height="2.4" id="connector34pin" stroke-width="0"/>
  <rect  width="2.4" x="255.118" y="701.574" fill="none" height="2.4" id="connector34terminal" stroke-width="0"/>
  <text  x="229.778" y="705.174" font-family="Droid Sans" fill="#000000" text-anchor="end" stroke="none" id="label34" stroke-width="0" font-size="9.936">I/04</text>
  <line  fill="none" stroke="#000000" stroke-linejoin="round" stroke-linecap="round" y1="724.032" stroke-width="2.4" x1="235.058" y2="724.032" x2="256.318"/>
  <rect  width="21.2599" x="236.258" y="722.837" fill="none" connectorname="I/03" height="2.4" id="connector27pin" stroke-width="0"/>
  <rect  width="2.4" x="255.118" y="722.837" fill="none" height="2.4" id="connector27terminal" stroke-width="0"/>
  <text  x="229.778" y="726.437" font-family="Droid Sans" fill="#000000" text-anchor="end" stroke="none" id="label27" stroke-width="0" font-size="9.936">I/03</text>
  <line  fill="none" stroke="#000000" stroke-linejoin="round" stroke-linecap="round" y1="745.294" stroke-width="2.4" x1="235.058" y2="745.294" x2="256.318"/>
  <rect  width="21.2599" x="236.258" y="744.091" fill="none" connectorname="I/02" height="2.4" id="connector26pin" stroke-width="0"/>
  <rect  width="2.4" x="255.118" y="744.091" fill="none" height="2.4" id="connector26terminal" stroke-width="0"/>
  <text  x="229.778" y="747.691" font-family="Droid Sans" fill="#000000" text-anchor="end" stroke="none" id="label26" stroke-width="0" font-size="9.936">I/02</text>
  <line  fill="none" stroke="#000000" stroke-linejoin="round" stroke-linecap="round" y1="766.555" stroke-width="2.4" x1="235.058" y2="766.555" x2="256.318"/>
  <rect  width="21.2599" x="236.258" y="765.353" fill="none" connectorname="DIN" height="2.4" id="connector68pin" stroke-width="0"/>
  <rect  width="2.4" x="255.118" y="765.353" fill="none" height="2.4" id="connector68terminal" stroke-width="0"/>
  <text  x="229.778" y="768.953" font-family="Droid Sans" fill="#000000" text-anchor="end" stroke="none" id="label68" stroke-width="0" font-size="9.936">DIN</text>
  <line  fill="none" stroke="#000000" stroke-linejoin="round" stroke-linecap="round" y1="1.2" stroke-width="2.4" x1="118.129" y2="21.2599" x2="118.129"/>
  <rect  width="2.4" x="116.929" y="0" fill="none" connectorname="+3V3" height="21.2599" id="connector70pin" stroke-width="0"/>
  <rect  width="2.4" x="116.929" y="0" fill="none" height="0" id="connector70terminal" stroke-width="0"/>
  <text  x="118.129" y="33.8599" font-family="Droid Sans" fill="#000000" text-anchor="middle" stroke="none" id="label70" stroke-width="0" font-size="9.936">+3V3</text>
  <line  fill="none" stroke="#000000" stroke-linejoin="round" stroke-linecap="round" y1="1.2" stroke-width="2.4" x1="139.389" y2="21.2599" x2="139.389"/>
  <rect  width="2.4" x="138.189" y="0" fill="none" connectorname="+5V" height="21.2599" id="connector12pin" stroke-width="0"/>
  <rect  width="2.4" x="138.189" y="0" fill="none" height="0" id="connector12terminal" stroke-width="0"/>
  <text  x="139.389" y="33.8599" font-family="Droid Sans" fill="#000000" text-anchor="middle" stroke="none" id="label12" stroke-width="0" font-size="9.936">+5V</text>
  <line  fill="none" stroke="#000000" stroke-linejoin="round" stroke-linecap="round" y1="810.274" stroke-width="2.4" x1="128.759" y2="830.333" x2="128.759"/>
  <rect  width="2.4" x="127.559" y="810.274" fill="none" connectorname="GND" height="21.2599" id="connector16pin" stroke-width="0"/>
  <rect  width="2.4" x="127.559" y="831.535" fill="none" height="0" id="connector16terminal" stroke-width="0"/>
  <text  x="128.759" y="804.514" font-family="Droid Sans" fill="#000000" text-anchor="middle" stroke="none" id="label16" stroke-width="0" font-size="9.936">GND</text>
  <rect  width="2.4" x="138.189" y="0" fill="none" connectorname="+5V" height="21.2599" id="connector59pin" stroke-width="0"/>
  <rect  width="2.4" x="138.189" y="0" fill="none" height="0" id="connector59terminal" stroke-width="0"/>
  <rect  width="2.4" x="127.559" y="810.274" fill="none" connectorname="GND" height="21.2599" id="connector60pin" stroke-width="0"/>
  <rect  width="2.4" x="127.559" y="831.535" fill="none" height="0" id="connector60terminal" stroke-width="0"/>
  <rect  width="2.4" x="127.559" y="810.274" fill="none" connectorname="GND" height="21.2599" id="connector61pin" stroke-width="0"/>
  <rect  width="2.4" x="127.559" y="831.535" fill="none" height="0" id="connector61terminal" stroke-width="0"/>
  <rect  width="21.2599" x="0" y="106.299" fill="none" height="2.4" id="connector53pin" stroke-width="0" connectorName="A0"/>
  <rect  width="2.4" x="0" y="106.299" fill="none" height="2.4" id="connector53terminal" stroke-width="0"/>
  <rect  width="21.2599" x="0" y="127.559" fill="none" height="2.4" id="connector54pin" stroke-width="0" connectorName="A1"/>
  <rect  width="2.4" x="0" y="127.559" fill="none" height="2.4" id="connector54terminal" stroke-width="0"/>
  <rect  width="21.2599" x="0" y="148.819" fill="none" height="2.4" id="connector55pin" stroke-width="0" connectorName="A2"/>
  <rect  width="2.4" x="0" y="148.819" fill="none" height="2.4" id="connector55terminal" stroke-width="0"/>
  <rect  width="21.2599" x="0" y="170.078" fill="none" height="2.4" id="connector56pin" stroke-width="0" connectorName="A3"/>
  <rect  width="2.4" x="0" y="170.078" fill="none" height="2.4" id="connector56terminal" stroke-width="0"/>
  <rect  width="21.2599" x="0" y="191.339" fill="none" height="2.4" id="connector57pin" stroke-width="0" connectorName="A4"/>
  <rect  width="2.4" x="0" y="191.339" fill="none" height="2.4" id="connector57terminal" stroke-width="0"/>
  <rect  width="21.2599" x="0" y="212.599" fill="none" height="2.4" id="connector58pin" stroke-width="0" connectorName="A5"/>
  <rect  width="2.4" x="0" y="212.599" fill="none" height="2.4" id="connector58terminal" stroke-width="0"/>
  <rect  width="21.2599" x="236.258" y="63.7795" fill="none" connectorname="DOUT" height="2.4" id="connector69pin" stroke-width="0"/>
  <rect  width="2.4" x="255.118" y="63.7795" fill="none" height="2.4" id="connector69terminal" stroke-width="0"/>
  <rect  width="21.2599" x="236.258" y="212.599" fill="none" connectorname="D7" height="2.4" id="connector46pin" stroke-width="0"/>
  <rect  width="2.4" x="255.118" y="212.599" fill="none" height="2.4" id="connector46terminal" stroke-width="0"/>
  <rect  width="21.2599" x="236.258" y="233.858" fill="none" connectorname="D6" height="2.4" id="connector45pin" stroke-width="0"/>
  <rect  width="2.4" x="255.118" y="233.858" fill="none" height="2.4" id="connector45terminal" stroke-width="0"/>
  <rect  width="21.2599" x="236.258" y="255.118" fill="none" connectorname="D5" height="2.4" id="connector44pin" stroke-width="0"/>
  <rect  width="2.4" x="255.118" y="255.118" fill="none" height="2.4" id="connector44terminal" stroke-width="0"/>
  <rect  width="21.2599" x="236.258" y="276.378" fill="none" connectorname="D4" height="2.4" id="connector43pin" stroke-width="0"/>
  <rect  width="2.4" x="255.118" y="276.378" fill="none" height="2.4" id="connector43terminal" stroke-width="0"/>
  <rect  width="21.2599" x="236.258" y="297.638" fill="none" connectorname="D3" height="2.4" id="connector42pin" stroke-width="0"/>
  <rect  width="2.4" x="255.118" y="297.638" fill="none" height="2.4" id="connector42terminal" stroke-width="0"/>
  <rect  width="21.2599" x="236.258" y="318.897" fill="none" connectorname="D2" height="2.4" id="connector41pin" stroke-width="0"/>
  <rect  width="2.4" x="255.118" y="318.897" fill="none" height="2.4" id="connector41terminal" stroke-width="0"/>
  <rect  width="21.2599" x="236.258" y="340.158" fill="none" connectorname="M8TXD" height="2.4" id="connector37pin" stroke-width="0"/>
  <rect  width="2.4" x="255.118" y="340.158" fill="none" height="2.4" id="connector37terminal" stroke-width="0"/>
  <rect  width="21.2599" x="236.258" y="340.158" fill="none" connectorname="M8TXD" height="2.4" id="connector40pin" stroke-width="0"/>
  <rect  width="2.4" x="255.118" y="340.158" fill="none" height="2.4" id="connector40terminal" stroke-width="0"/>
  <rect  width="21.2599" x="236.258" y="361.418" fill="none" connectorname="M8RXD" height="2.4" id="connector38pin" stroke-width="0"/>
  <rect  width="2.4" x="255.118" y="361.418" fill="none" height="2.4" id="connector38terminal" stroke-width="0"/>
  <rect  width="21.2599" x="236.258" y="361.418" fill="none" connectorname="M8RXD" height="2.4" id="connector35pin" stroke-width="0"/>
  <rect  width="2.4" x="255.118" y="361.418" fill="none" height="2.4" id="connector35terminal" stroke-width="0"/>
 </g>
</svg>
